<?xml version="1.0" encoding="UTF-8" standalone="no"?>
<!DOCTYPE svg PUBLIC "-//W3C//DTD SVG 1.1//EN"
 "http://www.w3.org/Graphics/SVG/1.1/DTD/svg11.dtd">
<!-- Generated by graphviz version 2.43.0 (0)
 -->
<!-- Title: Ogre::LodCollapseCost Pages: 1 -->
<svg width="346pt" height="142pt"
 viewBox="0.00 0.00 346.00 142.00" xmlns="http://www.w3.org/2000/svg" xmlns:xlink="http://www.w3.org/1999/xlink">
<g id="graph0" class="graph" transform="scale(1 1) rotate(0) translate(4 138)">
<title>Ogre::LodCollapseCost</title>
<!-- Node1 -->
<g id="node1" class="node">
<title>Node1</title>
<g id="a_node1"><a xlink:title=" ">
<polygon fill="#bfbfbf" stroke="black" points="0,-57.5 0,-76.5 127,-76.5 127,-57.5 0,-57.5"/>
<text text-anchor="middle" x="63.5" y="-64.5" font-family="Helvetica,sans-Serif" font-size="10.00">Ogre::LodCollapseCost</text>
</a>
</g>
</g>
<!-- Node2 -->
<g id="node2" class="node">
<title>Node2</title>
<g id="a_node2"><a xlink:href="class_ogre_1_1_lod_collapse_cost_curvature.html" target="_top" xlink:title=" ">
<polygon fill="none" stroke="black" points="163,-114.5 163,-133.5 338,-133.5 338,-114.5 163,-114.5"/>
<text text-anchor="middle" x="250.5" y="-121.5" font-family="Helvetica,sans-Serif" font-size="10.00">Ogre::LodCollapseCostCurvature</text>
</a>
</g>
</g>
<!-- Node1&#45;&gt;Node2 -->
<g id="edge1" class="edge">
<title>Node1&#45;&gt;Node2</title>
<path fill="none" stroke="midnightblue" d="M95.89,-80.51C115.03,-88.4 140.13,-98.12 163,-105 174.78,-108.54 187.64,-111.73 199.76,-114.43"/>
<polygon fill="midnightblue" stroke="midnightblue" points="97.04,-77.2 86.46,-76.58 94.34,-83.66 97.04,-77.2"/>
</g>
<!-- Node3 -->
<g id="node3" class="node">
<title>Node3</title>
<g id="a_node3"><a xlink:href="class_ogre_1_1_lod_collapse_cost_outside.html" target="_top" xlink:title=" ">
<polygon fill="none" stroke="black" points="168.5,-76.5 168.5,-95.5 332.5,-95.5 332.5,-76.5 168.5,-76.5"/>
<text text-anchor="middle" x="250.5" y="-83.5" font-family="Helvetica,sans-Serif" font-size="10.00">Ogre::LodCollapseCostOutside</text>
</a>
</g>
</g>
<!-- Node1&#45;&gt;Node3 -->
<g id="edge2" class="edge">
<title>Node1&#45;&gt;Node3</title>
<path fill="none" stroke="midnightblue" d="M137.19,-74.47C147.38,-75.51 157.9,-76.59 168.24,-77.65"/>
<polygon fill="midnightblue" stroke="midnightblue" points="137.44,-70.97 127.13,-73.43 136.72,-77.94 137.44,-70.97"/>
</g>
<!-- Node4 -->
<g id="node4" class="node">
<title>Node4</title>
<g id="a_node4"><a xlink:href="class_ogre_1_1_lod_collapse_cost_profiler.html" target="_top" xlink:title=" ">
<polygon fill="none" stroke="black" points="169.5,-38.5 169.5,-57.5 331.5,-57.5 331.5,-38.5 169.5,-38.5"/>
<text text-anchor="middle" x="250.5" y="-45.5" font-family="Helvetica,sans-Serif" font-size="10.00">Ogre::LodCollapseCostProfiler</text>
</a>
</g>
</g>
<!-- Node1&#45;&gt;Node4 -->
<g id="edge3" class="edge">
<title>Node1&#45;&gt;Node4</title>
<path fill="none" stroke="midnightblue" d="M137.11,-59.54C147.64,-58.46 158.54,-57.34 169.22,-56.24"/>
<polygon fill="midnightblue" stroke="midnightblue" points="136.72,-56.06 127.13,-60.57 137.44,-63.03 136.72,-56.06"/>
</g>
<!-- Node5 -->
<g id="node5" class="node">
<title>Node5</title>
<g id="a_node5"><a xlink:href="class_ogre_1_1_lod_collapse_cost_quadric.html" target="_top" xlink:title=" ">
<polygon fill="none" stroke="black" points="168.5,-0.5 168.5,-19.5 332.5,-19.5 332.5,-0.5 168.5,-0.5"/>
<text text-anchor="middle" x="250.5" y="-7.5" font-family="Helvetica,sans-Serif" font-size="10.00">Ogre::LodCollapseCostQuadric</text>
</a>
</g>
</g>
<!-- Node1&#45;&gt;Node5 -->
<g id="edge4" class="edge">
<title>Node1&#45;&gt;Node5</title>
<path fill="none" stroke="midnightblue" d="M95.89,-53.49C115.03,-45.6 140.13,-35.88 163,-29 174.78,-25.46 187.64,-22.27 199.76,-19.57"/>
<polygon fill="midnightblue" stroke="midnightblue" points="94.34,-50.34 86.46,-57.42 97.04,-56.8 94.34,-50.34"/>
</g>
</g>
</svg>
