<?xml version="1.0" encoding="UTF-8" standalone="no"?>
<!DOCTYPE svg PUBLIC "-//W3C//DTD SVG 1.1//EN"
 "http://www.w3.org/Graphics/SVG/1.1/DTD/svg11.dtd">
<!-- Generated by graphviz version 2.43.0 (0)
 -->
<!-- Title: Ogre::SmallVectorImpl&lt; T &gt; Pages: 1 -->
<svg width="1037pt" height="137pt"
 viewBox="0.00 0.00 1037.00 137.00" xmlns="http://www.w3.org/2000/svg" xmlns:xlink="http://www.w3.org/1999/xlink">
<g id="graph0" class="graph" transform="scale(1 1) rotate(0) translate(4 133)">
<title>Ogre::SmallVectorImpl&lt; T &gt;</title>
<!-- Node1 -->
<g id="node1" class="node">
<title>Node1</title>
<g id="a_node1"><a xlink:title="SmallVectorImpl &#45; This class consists of common code factored out of the SmallVector class to reduce ...">
<polygon fill="#bfbfbf" stroke="black" points="537,-55 537,-74 692,-74 692,-55 537,-55"/>
<text text-anchor="middle" x="614.5" y="-62" font-family="Helvetica,sans-Serif" font-size="10.00">Ogre::SmallVectorImpl&lt; T &gt;</text>
</a>
</g>
</g>
<!-- Node5 -->
<g id="node5" class="node">
<title>Node5</title>
<g id="a_node5"><a xlink:href="class_ogre_1_1_small_vector.html" target="_top" xlink:title=" ">
<polygon fill="none" stroke="black" points="728,-98.5 728,-128.5 841,-128.5 841,-98.5 728,-98.5"/>
<text text-anchor="start" x="736" y="-116.5" font-family="Helvetica,sans-Serif" font-size="10.00">Ogre::SmallVector&lt;</text>
<text text-anchor="middle" x="784.5" y="-105.5" font-family="Helvetica,sans-Serif" font-size="10.00"> T, S &gt;</text>
</a>
</g>
</g>
<!-- Node1&#45;&gt;Node5 -->
<g id="edge4" class="edge">
<title>Node1&#45;&gt;Node5</title>
<path fill="none" stroke="midnightblue" d="M657.9,-76.87C680.39,-83.43 708.21,-91.54 731.94,-98.46"/>
<polygon fill="midnightblue" stroke="midnightblue" points="658.87,-73.5 648.29,-74.06 656.91,-80.22 658.87,-73.5"/>
</g>
<!-- Node7 -->
<g id="node7" class="node">
<title>Node7</title>
<g id="a_node7"><a xlink:href="class_ogre_1_1_small_vector.html" target="_top" xlink:title="SmallVector &#45; This is a &#39;vector&#39; (really, a variable&#45;sized array), optimized for the case when the ar...">
<polygon fill="none" stroke="black" points="728,-49.5 728,-79.5 841,-79.5 841,-49.5 728,-49.5"/>
<text text-anchor="start" x="736" y="-67.5" font-family="Helvetica,sans-Serif" font-size="10.00">Ogre::SmallVector&lt;</text>
<text text-anchor="middle" x="784.5" y="-56.5" font-family="Helvetica,sans-Serif" font-size="10.00"> T, N &gt;</text>
</a>
</g>
</g>
<!-- Node1&#45;&gt;Node7 -->
<g id="edge6" class="edge">
<title>Node1&#45;&gt;Node7</title>
<path fill="none" stroke="midnightblue" d="M702.23,-64.5C710.84,-64.5 719.41,-64.5 727.58,-64.5"/>
<polygon fill="midnightblue" stroke="midnightblue" points="702.13,-61 692.13,-64.5 702.13,-68 702.13,-61"/>
</g>
<!-- Node10 -->
<g id="node10" class="node">
<title>Node10</title>
<g id="a_node10"><a xlink:href="class_ogre_1_1_small_vector_3_01_t_00_010_01_4.html" target="_top" xlink:title="Specialize SmallVector at N=0.">
<polygon fill="none" stroke="black" points="728,-0.5 728,-30.5 841,-30.5 841,-0.5 728,-0.5"/>
<text text-anchor="start" x="736" y="-18.5" font-family="Helvetica,sans-Serif" font-size="10.00">Ogre::SmallVector&lt;</text>
<text text-anchor="middle" x="784.5" y="-7.5" font-family="Helvetica,sans-Serif" font-size="10.00"> T, 0 &gt;</text>
</a>
</g>
</g>
<!-- Node1&#45;&gt;Node10 -->
<g id="edge9" class="edge">
<title>Node1&#45;&gt;Node10</title>
<path fill="none" stroke="midnightblue" d="M657.9,-52.13C680.39,-45.57 708.21,-37.46 731.94,-30.54"/>
<polygon fill="midnightblue" stroke="midnightblue" points="656.91,-48.78 648.29,-54.94 658.87,-55.5 656.91,-48.78"/>
</g>
<!-- Node2 -->
<g id="node2" class="node">
<title>Node2</title>
<g id="a_node2"><a xlink:href="class_ogre_1_1_small_vector_template_base.html" target="_top" xlink:title=" ">
<polygon fill="none" stroke="black" points="351,-44 351,-85 501,-85 501,-44 351,-44"/>
<text text-anchor="start" x="359" y="-73" font-family="Helvetica,sans-Serif" font-size="10.00">Ogre::SmallVectorTemplate</text>
<text text-anchor="start" x="359" y="-62" font-family="Helvetica,sans-Serif" font-size="10.00">Base&lt; T, isPodLike&lt; T &gt;</text>
<text text-anchor="middle" x="426" y="-51" font-family="Helvetica,sans-Serif" font-size="10.00">::value &gt;</text>
</a>
</g>
</g>
<!-- Node2&#45;&gt;Node1 -->
<g id="edge1" class="edge">
<title>Node2&#45;&gt;Node1</title>
<path fill="none" stroke="midnightblue" d="M511.46,-64.5C519.89,-64.5 528.42,-64.5 536.76,-64.5"/>
<polygon fill="midnightblue" stroke="midnightblue" points="511.25,-61 501.25,-64.5 511.25,-68 511.25,-61"/>
</g>
<!-- Node3 -->
<g id="node3" class="node">
<title>Node3</title>
<g id="a_node3"><a xlink:href="class_ogre_1_1_small_vector_template_common.html" target="_top" xlink:title=" ">
<polygon fill="none" stroke="black" points="165,-49.5 165,-79.5 315,-79.5 315,-49.5 165,-49.5"/>
<text text-anchor="start" x="173" y="-67.5" font-family="Helvetica,sans-Serif" font-size="10.00">Ogre::SmallVectorTemplate</text>
<text text-anchor="middle" x="240" y="-56.5" font-family="Helvetica,sans-Serif" font-size="10.00">Common&lt; T &gt;</text>
</a>
</g>
</g>
<!-- Node3&#45;&gt;Node2 -->
<g id="edge2" class="edge">
<title>Node3&#45;&gt;Node2</title>
<path fill="none" stroke="midnightblue" d="M325.07,-64.5C333.65,-64.5 342.34,-64.5 350.81,-64.5"/>
<polygon fill="midnightblue" stroke="midnightblue" points="325.04,-61 315.04,-64.5 325.04,-68 325.04,-61"/>
</g>
<!-- Node4 -->
<g id="node4" class="node">
<title>Node4</title>
<g id="a_node4"><a xlink:href="class_ogre_1_1_small_vector_base.html" target="_top" xlink:title="SmallVectorBase &#45; This is all the non&#45;templated stuff common to all SmallVectors.">
<polygon fill="none" stroke="black" points="0,-55 0,-74 129,-74 129,-55 0,-55"/>
<text text-anchor="middle" x="64.5" y="-62" font-family="Helvetica,sans-Serif" font-size="10.00">Ogre::SmallVectorBase</text>
</a>
</g>
</g>
<!-- Node4&#45;&gt;Node3 -->
<g id="edge3" class="edge">
<title>Node4&#45;&gt;Node3</title>
<path fill="none" stroke="midnightblue" d="M139.31,-64.5C147.75,-64.5 156.36,-64.5 164.81,-64.5"/>
<polygon fill="midnightblue" stroke="midnightblue" points="139.12,-61 129.12,-64.5 139.12,-68 139.12,-61"/>
</g>
<!-- Node6 -->
<g id="node6" class="node">
<title>Node6</title>
<g id="a_node6"><a xlink:href="struct_ogre_1_1_vector_set.html" target="_top" xlink:title="VectorSet is basically a helper to use a vector as a small set container.">
<polygon fill="none" stroke="black" points="886,-104 886,-123 1020,-123 1020,-104 886,-104"/>
<text text-anchor="middle" x="953" y="-111" font-family="Helvetica,sans-Serif" font-size="10.00">Ogre::VectorSet&lt; T, S &gt;</text>
</a>
</g>
</g>
<!-- Node5&#45;&gt;Node6 -->
<g id="edge5" class="edge">
<title>Node5&#45;&gt;Node6</title>
<path fill="none" stroke="midnightblue" d="M851.61,-113.5C862.88,-113.5 874.59,-113.5 885.87,-113.5"/>
<polygon fill="midnightblue" stroke="midnightblue" points="851.41,-110 841.41,-113.5 851.41,-117 851.41,-110"/>
</g>
<!-- Node8 -->
<g id="node8" class="node">
<title>Node8</title>
<g id="a_node8"><a xlink:href="struct_ogre_1_1_vector_set.html" target="_top" xlink:title=" ">
<polygon fill="none" stroke="black" points="881.5,-51.5 881.5,-81.5 1024.5,-81.5 1024.5,-51.5 881.5,-51.5"/>
<text text-anchor="start" x="889.5" y="-69.5" font-family="Helvetica,sans-Serif" font-size="10.00">Ogre::VectorSet&lt; Triangle</text>
<text text-anchor="middle" x="953" y="-58.5" font-family="Helvetica,sans-Serif" font-size="10.00"> *, 7 &gt;</text>
</a>
</g>
</g>
<!-- Node7&#45;&gt;Node8 -->
<g id="edge7" class="edge">
<title>Node7&#45;&gt;Node8</title>
<path fill="none" stroke="midnightblue" d="M851.51,-65.29C861.35,-65.41 871.53,-65.53 881.46,-65.65"/>
<polygon fill="midnightblue" stroke="midnightblue" points="851.45,-61.79 841.41,-65.17 851.36,-68.79 851.45,-61.79"/>
</g>
<!-- Node9 -->
<g id="node9" class="node">
<title>Node9</title>
<g id="a_node9"><a xlink:href="struct_ogre_1_1_vector_set.html" target="_top" xlink:title=" ">
<polygon fill="none" stroke="black" points="877,-13 877,-32 1029,-32 1029,-13 877,-13"/>
<text text-anchor="middle" x="953" y="-20" font-family="Helvetica,sans-Serif" font-size="10.00">Ogre::VectorSet&lt; Edge, 8 &gt;</text>
</a>
</g>
</g>
<!-- Node7&#45;&gt;Node9 -->
<g id="edge8" class="edge">
<title>Node7&#45;&gt;Node9</title>
<path fill="none" stroke="midnightblue" d="M851.12,-47.95C872.58,-42.53 895.67,-36.71 914.33,-32"/>
<polygon fill="midnightblue" stroke="midnightblue" points="850.25,-44.56 841.41,-50.4 851.96,-51.35 850.25,-44.56"/>
</g>
</g>
</svg>
