<?xml version="1.0" encoding="UTF-8" standalone="no"?>
<!DOCTYPE svg PUBLIC "-//W3C//DTD SVG 1.1//EN"
 "http://www.w3.org/Graphics/SVG/1.1/DTD/svg11.dtd">
<!-- Generated by graphviz version 2.43.0 (0)
 -->
<!-- Title: Ogre::StringInterface Pages: 1 -->
<svg width="723pt" height="1082pt"
 viewBox="0.00 0.00 723.00 1082.00" xmlns="http://www.w3.org/2000/svg" xmlns:xlink="http://www.w3.org/1999/xlink">
<g id="graph0" class="graph" transform="scale(1 1) rotate(0) translate(4 1078)">
<title>Ogre::StringInterface</title>
<!-- Node1 -->
<g id="node1" class="node">
<title>Node1</title>
<g id="a_node1"><a xlink:title="Class defining the common interface which classes can use to present a reflection&#45;style,...">
<polygon fill="#bfbfbf" stroke="black" points="0,-574.5 0,-593.5 118,-593.5 118,-574.5 0,-574.5"/>
<text text-anchor="middle" x="59" y="-581.5" font-family="Helvetica,sans-Serif" font-size="10.00">Ogre::StringInterface</text>
</a>
</g>
</g>
<!-- Node2 -->
<g id="node2" class="node">
<title>Node2</title>
<g id="a_node2"><a xlink:href="class_ogre_1_1_external_texture_source.html" target="_top" xlink:title="IMPORTANT: Plugins must override default dictionary name! Base class that texture plugins derive from...">
<polygon fill="none" stroke="black" points="158.5,-950.5 158.5,-969.5 313.5,-969.5 313.5,-950.5 158.5,-950.5"/>
<text text-anchor="middle" x="236" y="-957.5" font-family="Helvetica,sans-Serif" font-size="10.00">Ogre::ExternalTextureSource</text>
</a>
</g>
</g>
<!-- Node1&#45;&gt;Node2 -->
<g id="edge1" class="edge">
<title>Node1&#45;&gt;Node2</title>
<path fill="none" stroke="midnightblue" d="M62.53,-603.88C71.58,-671.75 104.4,-892.72 154,-941 157.93,-944.83 162.48,-947.94 167.38,-950.46"/>
<polygon fill="midnightblue" stroke="midnightblue" points="65.97,-603.17 61.2,-593.71 59.03,-604.07 65.97,-603.17"/>
</g>
<!-- Node3 -->
<g id="node3" class="node">
<title>Node3</title>
<g id="a_node3"><a xlink:href="class_ogre_1_1_overlay_element.html" target="_top" xlink:title="Abstract definition of a 2D element to be displayed in an Overlay.">
<polygon fill="none" stroke="black" points="173.5,-912.5 173.5,-931.5 298.5,-931.5 298.5,-912.5 173.5,-912.5"/>
<text text-anchor="middle" x="236" y="-919.5" font-family="Helvetica,sans-Serif" font-size="10.00">Ogre::OverlayElement</text>
</a>
</g>
</g>
<!-- Node1&#45;&gt;Node3 -->
<g id="edge2" class="edge">
<title>Node1&#45;&gt;Node3</title>
<path fill="none" stroke="midnightblue" d="M67.08,-603.09C81.51,-641.26 116.17,-729.29 154,-799 178.03,-843.27 213.04,-892.24 227.9,-912.47"/>
<polygon fill="midnightblue" stroke="midnightblue" points="70.35,-601.84 63.56,-593.7 63.8,-604.3 70.35,-601.84"/>
</g>
<!-- Node8 -->
<g id="node7" class="node">
<title>Node8</title>
<g id="a_node7"><a xlink:href="class_ogre_1_1_particle_affector.html" target="_top" xlink:title="Abstract class defining the interface to be implemented by particle affectors.">
<polygon fill="none" stroke="black" points="175.5,-770.5 175.5,-789.5 296.5,-789.5 296.5,-770.5 175.5,-770.5"/>
<text text-anchor="middle" x="236" y="-777.5" font-family="Helvetica,sans-Serif" font-size="10.00">Ogre::ParticleAffector</text>
</a>
</g>
</g>
<!-- Node1&#45;&gt;Node8 -->
<g id="edge6" class="edge">
<title>Node1&#45;&gt;Node8</title>
<path fill="none" stroke="midnightblue" d="M75.48,-601.33C111.18,-641.32 198.38,-738.99 226.27,-770.22"/>
<polygon fill="midnightblue" stroke="midnightblue" points="77.95,-598.85 68.68,-593.72 72.73,-603.51 77.95,-598.85"/>
</g>
<!-- Node19 -->
<g id="node18" class="node">
<title>Node19</title>
<g id="a_node18"><a xlink:href="class_ogre_1_1_particle_emitter.html" target="_top" xlink:title="Abstract class defining the interface to be implemented by particle emitters.">
<polygon fill="none" stroke="black" points="176.5,-574.5 176.5,-593.5 295.5,-593.5 295.5,-574.5 176.5,-574.5"/>
<text text-anchor="middle" x="236" y="-581.5" font-family="Helvetica,sans-Serif" font-size="10.00">Ogre::ParticleEmitter</text>
</a>
</g>
</g>
<!-- Node1&#45;&gt;Node19 -->
<g id="edge17" class="edge">
<title>Node1&#45;&gt;Node19</title>
<path fill="none" stroke="midnightblue" d="M128.52,-584C144.34,-584 161.03,-584 176.39,-584"/>
<polygon fill="midnightblue" stroke="midnightblue" points="128.27,-580.5 118.27,-584 128.27,-587.5 128.27,-580.5"/>
</g>
<!-- Node27 -->
<g id="node25" class="node">
<title>Node27</title>
<g id="a_node25"><a xlink:href="class_ogre_1_1_particle_system.html" target="_top" xlink:title="Class defining particle system based special effects.">
<polygon fill="none" stroke="black" points="176.5,-536.5 176.5,-555.5 295.5,-555.5 295.5,-536.5 176.5,-536.5"/>
<text text-anchor="middle" x="236" y="-543.5" font-family="Helvetica,sans-Serif" font-size="10.00">Ogre::ParticleSystem</text>
</a>
</g>
</g>
<!-- Node1&#45;&gt;Node27 -->
<g id="edge24" class="edge">
<title>Node1&#45;&gt;Node27</title>
<path fill="none" stroke="midnightblue" d="M114.12,-572.25C138.87,-566.87 167.8,-560.59 191.16,-555.52"/>
<polygon fill="midnightblue" stroke="midnightblue" points="113.19,-568.87 104.16,-574.41 114.67,-575.71 113.19,-568.87"/>
</g>
<!-- Node28 -->
<g id="node26" class="node">
<title>Node28</title>
<g id="a_node26"><a xlink:href="class_ogre_1_1_particle_system_renderer.html" target="_top" xlink:title="Abstract class defining the interface required to be implemented by classes which provide rendering c...">
<polygon fill="none" stroke="black" points="154,-498.5 154,-517.5 318,-517.5 318,-498.5 154,-498.5"/>
<text text-anchor="middle" x="236" y="-505.5" font-family="Helvetica,sans-Serif" font-size="10.00">Ogre::ParticleSystemRenderer</text>
</a>
</g>
</g>
<!-- Node1&#45;&gt;Node28 -->
<g id="edge25" class="edge">
<title>Node1&#45;&gt;Node28</title>
<path fill="none" stroke="midnightblue" d="M81.23,-568.44C99.64,-555.63 127.43,-537.85 154,-527 163.23,-523.23 173.36,-520.11 183.25,-517.57"/>
<polygon fill="midnightblue" stroke="midnightblue" points="79.12,-565.64 72.99,-574.28 83.17,-571.35 79.12,-565.64"/>
</g>
<!-- Node30 -->
<g id="node28" class="node">
<title>Node30</title>
<g id="a_node28"><a xlink:href="class_ogre_1_1_resource.html" target="_top" xlink:title="Abstract class representing a loadable resource.">
<polygon fill="none" stroke="black" points="190.5,-346.5 190.5,-365.5 281.5,-365.5 281.5,-346.5 190.5,-346.5"/>
<text text-anchor="middle" x="236" y="-353.5" font-family="Helvetica,sans-Serif" font-size="10.00">Ogre::Resource</text>
</a>
</g>
</g>
<!-- Node1&#45;&gt;Node30 -->
<g id="edge27" class="edge">
<title>Node1&#45;&gt;Node30</title>
<path fill="none" stroke="midnightblue" d="M73.48,-566.44C108.39,-520.95 200.94,-400.38 227.67,-365.55"/>
<polygon fill="midnightblue" stroke="midnightblue" points="70.61,-564.43 67.3,-574.49 76.16,-568.69 70.61,-564.43"/>
</g>
<!-- Node4 -->
<g id="node4" class="node">
<title>Node4</title>
<g id="a_node4"><a xlink:href="class_ogre_1_1_overlay_container.html" target="_top" xlink:title="A 2D element which contains other OverlayElement instances.">
<polygon fill="none" stroke="black" points="373.5,-1054.5 373.5,-1073.5 504.5,-1073.5 504.5,-1054.5 373.5,-1054.5"/>
<text text-anchor="middle" x="439" y="-1061.5" font-family="Helvetica,sans-Serif" font-size="10.00">Ogre::OverlayContainer</text>
</a>
</g>
</g>
<!-- Node3&#45;&gt;Node4 -->
<g id="edge3" class="edge">
<title>Node3&#45;&gt;Node4</title>
<path fill="none" stroke="midnightblue" d="M307.99,-933.83C311.58,-935.87 314.95,-938.25 318,-941 354.32,-973.76 317.55,-1012.38 354,-1045 359.57,-1049.99 366.17,-1053.75 373.18,-1056.58"/>
<polygon fill="midnightblue" stroke="midnightblue" points="309.24,-930.54 298.71,-929.38 306.22,-936.86 309.24,-930.54"/>
</g>
<!-- Node7 -->
<g id="node6" class="node">
<title>Node7</title>
<g id="a_node6"><a xlink:href="class_ogre_1_1_text_area_overlay_element.html" target="_top" xlink:title="This class implements an overlay element which contains simple unformatted text.">
<polygon fill="none" stroke="black" points="355.5,-1016.5 355.5,-1035.5 522.5,-1035.5 522.5,-1016.5 355.5,-1016.5"/>
<text text-anchor="middle" x="439" y="-1023.5" font-family="Helvetica,sans-Serif" font-size="10.00">Ogre::TextAreaOverlayElement</text>
</a>
</g>
</g>
<!-- Node3&#45;&gt;Node7 -->
<g id="edge5" class="edge">
<title>Node3&#45;&gt;Node7</title>
<path fill="none" stroke="midnightblue" d="M308.21,-934.83C311.66,-936.63 314.95,-938.68 318,-941 344.58,-961.25 327.34,-986.86 354,-1007 359.13,-1010.88 364.91,-1013.98 370.97,-1016.48"/>
<polygon fill="midnightblue" stroke="midnightblue" points="309.33,-931.5 298.78,-930.61 306.48,-937.89 309.33,-931.5"/>
</g>
<!-- Node5 -->
<g id="node5" class="node">
<title>Node5</title>
<g id="a_node5"><a xlink:href="class_ogre_1_1_panel_overlay_element.html" target="_top" xlink:title="OverlayElement representing a flat, single&#45;material (or transparent) panel which can contain other el...">
<polygon fill="none" stroke="red" points="561.5,-1054.5 561.5,-1073.5 713.5,-1073.5 713.5,-1054.5 561.5,-1054.5"/>
<text text-anchor="middle" x="637.5" y="-1061.5" font-family="Helvetica,sans-Serif" font-size="10.00">Ogre::PanelOverlayElement</text>
</a>
</g>
</g>
<!-- Node4&#45;&gt;Node5 -->
<g id="edge4" class="edge">
<title>Node4&#45;&gt;Node5</title>
<path fill="none" stroke="midnightblue" d="M514.97,-1064C530.14,-1064 546.09,-1064 561.27,-1064"/>
<polygon fill="midnightblue" stroke="midnightblue" points="514.61,-1060.5 504.61,-1064 514.61,-1067.5 514.61,-1060.5"/>
</g>
<!-- Node9 -->
<g id="node8" class="node">
<title>Node9</title>
<g id="a_node8"><a xlink:href="class_ogre_1_1_colour_fader_affector.html" target="_top" xlink:title="This affector modifies the colour of particles in flight.">
<polygon fill="none" stroke="black" points="367.5,-978.5 367.5,-997.5 510.5,-997.5 510.5,-978.5 367.5,-978.5"/>
<text text-anchor="middle" x="439" y="-985.5" font-family="Helvetica,sans-Serif" font-size="10.00">Ogre::ColourFaderAffector</text>
</a>
</g>
</g>
<!-- Node8&#45;&gt;Node9 -->
<g id="edge7" class="edge">
<title>Node8&#45;&gt;Node9</title>
<path fill="none" stroke="midnightblue" d="M249.58,-798.07C265.93,-821.79 295.11,-864.88 318,-903 335.2,-931.64 327.34,-948.86 354,-969 359.13,-972.88 364.91,-975.98 370.97,-978.48"/>
<polygon fill="midnightblue" stroke="midnightblue" points="252.36,-795.94 243.79,-789.71 246.61,-799.92 252.36,-795.94"/>
</g>
<!-- Node10 -->
<g id="node9" class="node">
<title>Node10</title>
<g id="a_node9"><a xlink:href="class_ogre_1_1_colour_fader_affector2.html" target="_top" xlink:title=" ">
<polygon fill="none" stroke="black" points="364.5,-940.5 364.5,-959.5 513.5,-959.5 513.5,-940.5 364.5,-940.5"/>
<text text-anchor="middle" x="439" y="-947.5" font-family="Helvetica,sans-Serif" font-size="10.00">Ogre::ColourFaderAffector2</text>
</a>
</g>
</g>
<!-- Node8&#45;&gt;Node10 -->
<g id="edge8" class="edge">
<title>Node8&#45;&gt;Node10</title>
<path fill="none" stroke="midnightblue" d="M246.09,-798.91C262.72,-831.36 301.24,-897.41 354,-931 360.05,-934.85 366.79,-937.93 373.74,-940.39"/>
<polygon fill="midnightblue" stroke="midnightblue" points="249.06,-797.03 241.47,-789.64 242.8,-800.15 249.06,-797.03"/>
</g>
<!-- Node11 -->
<g id="node10" class="node">
<title>Node11</title>
<g id="a_node10"><a xlink:href="class_ogre_1_1_colour_image_affector.html" target="_top" xlink:title=" ">
<polygon fill="none" stroke="black" points="366,-902.5 366,-921.5 512,-921.5 512,-902.5 366,-902.5"/>
<text text-anchor="middle" x="439" y="-909.5" font-family="Helvetica,sans-Serif" font-size="10.00">Ogre::ColourImageAffector</text>
</a>
</g>
</g>
<!-- Node8&#45;&gt;Node11 -->
<g id="edge9" class="edge">
<title>Node8&#45;&gt;Node11</title>
<path fill="none" stroke="midnightblue" d="M250.05,-797.66C269.69,-822.89 309.33,-868.87 354,-893 361.24,-896.91 369.24,-900.01 377.35,-902.48"/>
<polygon fill="midnightblue" stroke="midnightblue" points="252.81,-795.5 243.97,-789.67 247.24,-799.75 252.81,-795.5"/>
</g>
<!-- Node12 -->
<g id="node11" class="node">
<title>Node12</title>
<g id="a_node11"><a xlink:href="class_ogre_1_1_colour_interpolator_affector.html" target="_top" xlink:title=" ">
<polygon fill="none" stroke="black" points="372,-853 372,-883 506,-883 506,-853 372,-853"/>
<text text-anchor="start" x="380" y="-871" font-family="Helvetica,sans-Serif" font-size="10.00">Ogre::ColourInterpolator</text>
<text text-anchor="middle" x="439" y="-860" font-family="Helvetica,sans-Serif" font-size="10.00">Affector</text>
</a>
</g>
</g>
<!-- Node8&#45;&gt;Node12 -->
<g id="edge10" class="edge">
<title>Node8&#45;&gt;Node12</title>
<path fill="none" stroke="midnightblue" d="M261.19,-794.92C284.36,-808.76 320.64,-829.22 354,-843 362.72,-846.6 372.14,-849.92 381.42,-852.89"/>
<polygon fill="midnightblue" stroke="midnightblue" points="262.77,-791.79 252.4,-789.62 259.15,-797.78 262.77,-791.79"/>
</g>
<!-- Node13 -->
<g id="node12" class="node">
<title>Node13</title>
<g id="a_node12"><a xlink:href="class_ogre_1_1_deflector_plane_affector.html" target="_top" xlink:title="This affector defines a plane which deflects particles which collide with it.">
<polygon fill="none" stroke="black" points="361,-814.5 361,-833.5 517,-833.5 517,-814.5 361,-814.5"/>
<text text-anchor="middle" x="439" y="-821.5" font-family="Helvetica,sans-Serif" font-size="10.00">Ogre::DeflectorPlaneAffector</text>
</a>
</g>
</g>
<!-- Node8&#45;&gt;Node13 -->
<g id="edge11" class="edge">
<title>Node8&#45;&gt;Node13</title>
<path fill="none" stroke="midnightblue" d="M290.41,-791.69C322.93,-798.81 363.94,-807.79 394.47,-814.47"/>
<polygon fill="midnightblue" stroke="midnightblue" points="291.13,-788.27 280.61,-789.55 289.63,-795.1 291.13,-788.27"/>
</g>
<!-- Node14 -->
<g id="node13" class="node">
<title>Node14</title>
<g id="a_node13"><a xlink:href="class_ogre_1_1_direction_randomiser_affector.html" target="_top" xlink:title="This affector applies randomness to the movement of the particles.">
<polygon fill="none" stroke="black" points="364.5,-765 364.5,-795 513.5,-795 513.5,-765 364.5,-765"/>
<text text-anchor="start" x="372.5" y="-783" font-family="Helvetica,sans-Serif" font-size="10.00">Ogre::DirectionRandomiser</text>
<text text-anchor="middle" x="439" y="-772" font-family="Helvetica,sans-Serif" font-size="10.00">Affector</text>
</a>
</g>
</g>
<!-- Node8&#45;&gt;Node14 -->
<g id="edge12" class="edge">
<title>Node8&#45;&gt;Node14</title>
<path fill="none" stroke="midnightblue" d="M306.88,-780C325.42,-780 345.49,-780 364.23,-780"/>
<polygon fill="midnightblue" stroke="midnightblue" points="306.76,-776.5 296.76,-780 306.76,-783.5 306.76,-776.5"/>
</g>
<!-- Node15 -->
<g id="node14" class="node">
<title>Node15</title>
<g id="a_node14"><a xlink:href="class_ogre_1_1_linear_force_affector.html" target="_top" xlink:title="This affector applies a force vector to all particles to modify their trajectory.">
<polygon fill="none" stroke="black" points="369,-726.5 369,-745.5 509,-745.5 509,-726.5 369,-726.5"/>
<text text-anchor="middle" x="439" y="-733.5" font-family="Helvetica,sans-Serif" font-size="10.00">Ogre::LinearForceAffector</text>
</a>
</g>
</g>
<!-- Node8&#45;&gt;Node15 -->
<g id="edge13" class="edge">
<title>Node8&#45;&gt;Node15</title>
<path fill="none" stroke="midnightblue" d="M290.41,-768.31C322.93,-761.19 363.94,-752.21 394.47,-745.53"/>
<polygon fill="midnightblue" stroke="midnightblue" points="289.63,-764.9 280.61,-770.45 291.13,-771.73 289.63,-764.9"/>
</g>
<!-- Node16 -->
<g id="node15" class="node">
<title>Node16</title>
<g id="a_node15"><a xlink:href="class_ogre_1_1_rotation_affector.html" target="_top" xlink:title="This affector rotates particles in flight.">
<polygon fill="none" stroke="black" points="376.5,-688.5 376.5,-707.5 501.5,-707.5 501.5,-688.5 376.5,-688.5"/>
<text text-anchor="middle" x="439" y="-695.5" font-family="Helvetica,sans-Serif" font-size="10.00">Ogre::RotationAffector</text>
</a>
</g>
</g>
<!-- Node8&#45;&gt;Node16 -->
<g id="edge14" class="edge">
<title>Node8&#45;&gt;Node16</title>
<path fill="none" stroke="midnightblue" d="M260.21,-765.04C283.2,-750.84 319.82,-729.8 354,-717 363.94,-713.28 374.83,-710.16 385.38,-707.6"/>
<polygon fill="midnightblue" stroke="midnightblue" points="258.14,-762.21 251.53,-770.49 261.86,-768.14 258.14,-762.21"/>
</g>
<!-- Node17 -->
<g id="node16" class="node">
<title>Node17</title>
<g id="a_node16"><a xlink:href="class_ogre_1_1_scale_affector.html" target="_top" xlink:title="This affector scales particles in flight.">
<polygon fill="none" stroke="black" points="384,-650.5 384,-669.5 494,-669.5 494,-650.5 384,-650.5"/>
<text text-anchor="middle" x="439" y="-657.5" font-family="Helvetica,sans-Serif" font-size="10.00">Ogre::ScaleAffector</text>
</a>
</g>
</g>
<!-- Node8&#45;&gt;Node17 -->
<g id="edge15" class="edge">
<title>Node8&#45;&gt;Node17</title>
<path fill="none" stroke="midnightblue" d="M251.66,-762.94C272.19,-740.19 311.75,-700.32 354,-679 363.21,-674.35 373.56,-670.83 383.76,-668.16"/>
<polygon fill="midnightblue" stroke="midnightblue" points="249,-760.67 244.99,-770.48 254.24,-765.31 249,-760.67"/>
</g>
<!-- Node18 -->
<g id="node17" class="node">
<title>Node18</title>
<g id="a_node17"><a xlink:href="class_ogre_1_1_texture_animator_affector.html" target="_top" xlink:title="This affector makes it possible to have an animated texture for each individual particle.">
<polygon fill="none" stroke="black" points="356.5,-612.5 356.5,-631.5 521.5,-631.5 521.5,-612.5 356.5,-612.5"/>
<text text-anchor="middle" x="439" y="-619.5" font-family="Helvetica,sans-Serif" font-size="10.00">Ogre::TextureAnimatorAffector</text>
</a>
</g>
</g>
<!-- Node8&#45;&gt;Node18 -->
<g id="edge16" class="edge">
<title>Node8&#45;&gt;Node18</title>
<path fill="none" stroke="midnightblue" d="M247.23,-761.34C264.84,-731.04 303.89,-671.5 354,-641 360.39,-637.11 367.48,-634.02 374.77,-631.56"/>
<polygon fill="midnightblue" stroke="midnightblue" points="243.97,-759.98 242.09,-770.4 250.06,-763.43 243.97,-759.98"/>
</g>
<!-- Node20 -->
<g id="node19" class="node">
<title>Node20</title>
<g id="a_node19"><a xlink:href="class_ogre_1_1_area_emitter.html" target="_top" xlink:title="Particle emitter which emits particles randomly from points inside an area (box, sphere,...">
<polygon fill="none" stroke="black" points="387,-574.5 387,-593.5 491,-593.5 491,-574.5 387,-574.5"/>
<text text-anchor="middle" x="439" y="-581.5" font-family="Helvetica,sans-Serif" font-size="10.00">Ogre::AreaEmitter</text>
</a>
</g>
</g>
<!-- Node19&#45;&gt;Node20 -->
<g id="edge18" class="edge">
<title>Node19&#45;&gt;Node20</title>
<path fill="none" stroke="midnightblue" d="M305.68,-584C332.25,-584 362.13,-584 386.76,-584"/>
<polygon fill="midnightblue" stroke="midnightblue" points="305.68,-580.5 295.68,-584 305.68,-587.5 305.68,-580.5"/>
</g>
<!-- Node26 -->
<g id="node24" class="node">
<title>Node26</title>
<g id="a_node24"><a xlink:href="class_ogre_1_1_point_emitter.html" target="_top" xlink:title="This emitter emits particles from a single point, which is it’s position.">
<polygon fill="none" stroke="black" points="385.5,-536.5 385.5,-555.5 492.5,-555.5 492.5,-536.5 385.5,-536.5"/>
<text text-anchor="middle" x="439" y="-543.5" font-family="Helvetica,sans-Serif" font-size="10.00">Ogre::PointEmitter</text>
</a>
</g>
</g>
<!-- Node19&#45;&gt;Node26 -->
<g id="edge23" class="edge">
<title>Node19&#45;&gt;Node26</title>
<path fill="none" stroke="midnightblue" d="M297.4,-572.58C326.16,-567.14 360.16,-560.72 387.52,-555.54"/>
<polygon fill="midnightblue" stroke="midnightblue" points="296.64,-569.16 287.46,-574.46 297.94,-576.04 296.64,-569.16"/>
</g>
<!-- Node21 -->
<g id="node20" class="node">
<title>Node21</title>
<g id="a_node20"><a xlink:href="class_ogre_1_1_box_emitter.html" target="_top" xlink:title="This emitter emits particles from a random location within a 3&#45;dimensional box.">
<polygon fill="none" stroke="black" points="587,-636.5 587,-655.5 688,-655.5 688,-636.5 587,-636.5"/>
<text text-anchor="middle" x="637.5" y="-643.5" font-family="Helvetica,sans-Serif" font-size="10.00">Ogre::BoxEmitter</text>
</a>
</g>
</g>
<!-- Node20&#45;&gt;Node21 -->
<g id="edge19" class="edge">
<title>Node20&#45;&gt;Node21</title>
<path fill="none" stroke="midnightblue" d="M501.07,-595.03C508.93,-597.26 516.75,-599.89 524,-603 541.67,-610.58 542.41,-619.23 560,-627 568.51,-630.76 577.9,-633.86 587.1,-636.39"/>
<polygon fill="midnightblue" stroke="midnightblue" points="501.7,-591.58 491.14,-592.43 499.93,-598.35 501.7,-591.58"/>
</g>
<!-- Node22 -->
<g id="node21" class="node">
<title>Node22</title>
<g id="a_node21"><a xlink:href="class_ogre_1_1_cylinder_emitter.html" target="_top" xlink:title="This emitter emits particles in a random direction from within a cylinder area, where the cylinder is...">
<polygon fill="none" stroke="black" points="576.5,-598.5 576.5,-617.5 698.5,-617.5 698.5,-598.5 576.5,-598.5"/>
<text text-anchor="middle" x="637.5" y="-605.5" font-family="Helvetica,sans-Serif" font-size="10.00">Ogre::CylinderEmitter</text>
</a>
</g>
</g>
<!-- Node20&#45;&gt;Node22 -->
<g id="edge20" class="edge">
<title>Node20&#45;&gt;Node22</title>
<path fill="none" stroke="midnightblue" d="M501.13,-591.47C525.04,-594.39 552.39,-597.73 576.22,-600.64"/>
<polygon fill="midnightblue" stroke="midnightblue" points="501.47,-587.98 491.12,-590.24 500.62,-594.93 501.47,-587.98"/>
</g>
<!-- Node23 -->
<g id="node22" class="node">
<title>Node23</title>
<g id="a_node22"><a xlink:href="class_ogre_1_1_ellipsoid_emitter.html" target="_top" xlink:title="Particle emitter which emits particles randomly from points inside an ellipsoid.">
<polygon fill="none" stroke="red" points="576,-560.5 576,-579.5 699,-579.5 699,-560.5 576,-560.5"/>
<text text-anchor="middle" x="637.5" y="-567.5" font-family="Helvetica,sans-Serif" font-size="10.00">Ogre::EllipsoidEmitter</text>
</a>
</g>
</g>
<!-- Node20&#45;&gt;Node23 -->
<g id="edge21" class="edge">
<title>Node20&#45;&gt;Node23</title>
<path fill="none" stroke="midnightblue" d="M501.41,-579.63C525.13,-577.93 552.21,-576.01 575.86,-574.32"/>
<polygon fill="midnightblue" stroke="midnightblue" points="500.84,-576.16 491.12,-580.36 501.34,-583.14 500.84,-576.16"/>
</g>
<!-- Node25 -->
<g id="node23" class="node">
<title>Node25</title>
<g id="a_node23"><a xlink:href="class_ogre_1_1_ring_emitter.html" target="_top" xlink:title="Particle emitter which emits particles randomly from points inside a ring (e.g.">
<polygon fill="none" stroke="black" points="585.5,-522.5 585.5,-541.5 689.5,-541.5 689.5,-522.5 585.5,-522.5"/>
<text text-anchor="middle" x="637.5" y="-529.5" font-family="Helvetica,sans-Serif" font-size="10.00">Ogre::RingEmitter</text>
</a>
</g>
</g>
<!-- Node20&#45;&gt;Node25 -->
<g id="edge22" class="edge">
<title>Node20&#45;&gt;Node25</title>
<path fill="none" stroke="midnightblue" d="M497.75,-572.13C506.6,-569.97 515.59,-567.57 524,-565 540.42,-559.98 543.64,-556.19 560,-551 570.83,-547.57 582.67,-544.36 593.74,-541.6"/>
<polygon fill="midnightblue" stroke="midnightblue" points="496.78,-568.76 487.86,-574.47 498.39,-575.57 496.78,-568.76"/>
</g>
<!-- Node29 -->
<g id="node27" class="node">
<title>Node29</title>
<g id="a_node27"><a xlink:href="class_ogre_1_1_billboard_particle_renderer.html" target="_top" xlink:title="Specialisation of ParticleSystemRenderer to render particles using a BillboardSet.">
<polygon fill="none" stroke="black" points="354,-498.5 354,-517.5 524,-517.5 524,-498.5 354,-498.5"/>
<text text-anchor="middle" x="439" y="-505.5" font-family="Helvetica,sans-Serif" font-size="10.00">Ogre::BillboardParticleRenderer</text>
</a>
</g>
</g>
<!-- Node28&#45;&gt;Node29 -->
<g id="edge26" class="edge">
<title>Node28&#45;&gt;Node29</title>
<path fill="none" stroke="midnightblue" d="M328.18,-508C336.74,-508 345.4,-508 353.9,-508"/>
<polygon fill="midnightblue" stroke="midnightblue" points="328.18,-504.5 318.18,-508 328.17,-511.5 328.18,-504.5"/>
</g>
<!-- Node31 -->
<g id="node29" class="node">
<title>Node31</title>
<g id="a_node29"><a xlink:href="class_ogre_1_1_bsp_level.html" target="_top" xlink:title="Holds all the data associated with a Binary Space Parition (BSP) based indoor level.">
<polygon fill="none" stroke="black" points="394,-460.5 394,-479.5 484,-479.5 484,-460.5 394,-460.5"/>
<text text-anchor="middle" x="439" y="-467.5" font-family="Helvetica,sans-Serif" font-size="10.00">Ogre::BspLevel</text>
</a>
</g>
</g>
<!-- Node30&#45;&gt;Node31 -->
<g id="edge28" class="edge">
<title>Node30&#45;&gt;Node31</title>
<path fill="none" stroke="midnightblue" d="M252.79,-372.95C273.81,-394.45 313.1,-431.13 354,-451 366.37,-457.01 380.7,-461.16 393.98,-464"/>
<polygon fill="midnightblue" stroke="midnightblue" points="255.11,-370.31 245.67,-365.52 250.06,-375.16 255.11,-370.31"/>
</g>
<!-- Node32 -->
<g id="node30" class="node">
<title>Node32</title>
<g id="a_node30"><a xlink:href="class_ogre_1_1_compositor.html" target="_top" xlink:title="Class representing a Compositor object.">
<polygon fill="none" stroke="black" points="388,-422.5 388,-441.5 490,-441.5 490,-422.5 388,-422.5"/>
<text text-anchor="middle" x="439" y="-429.5" font-family="Helvetica,sans-Serif" font-size="10.00">Ogre::Compositor</text>
</a>
</g>
</g>
<!-- Node30&#45;&gt;Node32 -->
<g id="edge29" class="edge">
<title>Node30&#45;&gt;Node32</title>
<path fill="none" stroke="midnightblue" d="M262.37,-370.49C285.59,-383.23 321.21,-401.48 354,-413 364.72,-416.77 376.48,-419.97 387.71,-422.62"/>
<polygon fill="midnightblue" stroke="midnightblue" points="263.96,-367.37 253.52,-365.57 260.56,-373.49 263.96,-367.37"/>
</g>
<!-- Node33 -->
<g id="node31" class="node">
<title>Node33</title>
<g id="a_node31"><a xlink:href="class_ogre_1_1_font.html" target="_top" xlink:title="Class representing a font in the system.">
<polygon fill="none" stroke="black" points="405.5,-384.5 405.5,-403.5 472.5,-403.5 472.5,-384.5 405.5,-384.5"/>
<text text-anchor="middle" x="439" y="-391.5" font-family="Helvetica,sans-Serif" font-size="10.00">Ogre::Font</text>
</a>
</g>
</g>
<!-- Node30&#45;&gt;Node33 -->
<g id="edge30" class="edge">
<title>Node30&#45;&gt;Node33</title>
<path fill="none" stroke="midnightblue" d="M291.58,-366.32C327.99,-373.2 374.64,-382.02 405.38,-387.83"/>
<polygon fill="midnightblue" stroke="midnightblue" points="292.08,-362.85 281.61,-364.43 290.78,-369.73 292.08,-362.85"/>
</g>
<!-- Node34 -->
<g id="node32" class="node">
<title>Node34</title>
<g id="a_node32"><a xlink:href="class_ogre_1_1_gpu_program.html" target="_top" xlink:title="Defines a program which runs on the GPU such as a vertex or fragment program.">
<polygon fill="none" stroke="black" points="385.5,-346.5 385.5,-365.5 492.5,-365.5 492.5,-346.5 385.5,-346.5"/>
<text text-anchor="middle" x="439" y="-353.5" font-family="Helvetica,sans-Serif" font-size="10.00">Ogre::GpuProgram</text>
</a>
</g>
</g>
<!-- Node30&#45;&gt;Node34 -->
<g id="edge31" class="edge">
<title>Node30&#45;&gt;Node34</title>
<path fill="none" stroke="midnightblue" d="M291.62,-356C320.77,-356 356.48,-356 385.33,-356"/>
<polygon fill="midnightblue" stroke="midnightblue" points="291.61,-352.5 281.61,-356 291.61,-359.5 291.61,-352.5"/>
</g>
<!-- Node53 -->
<g id="node38" class="node">
<title>Node53</title>
<g id="a_node38"><a xlink:href="class_ogre_1_1_material.html" target="_top" xlink:title="Class encapsulates rendering properties of an object.">
<polygon fill="none" stroke="black" points="396,-308.5 396,-327.5 482,-327.5 482,-308.5 396,-308.5"/>
<text text-anchor="middle" x="439" y="-315.5" font-family="Helvetica,sans-Serif" font-size="10.00">Ogre::Material</text>
</a>
</g>
</g>
<!-- Node30&#45;&gt;Node53 -->
<g id="edge37" class="edge">
<title>Node30&#45;&gt;Node53</title>
<path fill="none" stroke="midnightblue" d="M291.52,-345.69C324.37,-339.48 365.59,-331.69 395.92,-325.96"/>
<polygon fill="midnightblue" stroke="midnightblue" points="290.78,-342.27 281.61,-347.57 292.08,-349.15 290.78,-342.27"/>
</g>
<!-- Node54 -->
<g id="node39" class="node">
<title>Node54</title>
<g id="a_node39"><a xlink:href="class_ogre_1_1_mesh.html" target="_top" xlink:title="Resource holding data about 3D mesh.">
<polygon fill="none" stroke="black" points="403,-267.5 403,-286.5 475,-286.5 475,-267.5 403,-267.5"/>
<text text-anchor="middle" x="439" y="-274.5" font-family="Helvetica,sans-Serif" font-size="10.00">Ogre::Mesh</text>
</a>
</g>
</g>
<!-- Node30&#45;&gt;Node54 -->
<g id="edge38" class="edge">
<title>Node30&#45;&gt;Node54</title>
<path fill="none" stroke="midnightblue" d="M262.87,-341.56C286.16,-329.01 321.6,-311 354,-299 369.69,-293.19 387.57,-288.28 402.78,-284.58"/>
<polygon fill="midnightblue" stroke="midnightblue" points="261.08,-338.55 253.97,-346.41 264.43,-344.69 261.08,-338.55"/>
</g>
<!-- Node56 -->
<g id="node41" class="node">
<title>Node56</title>
<g id="a_node41"><a xlink:href="class_ogre_1_1_skeleton.html" target="_top" xlink:title="A collection of Bone objects used to animate a skinned mesh.">
<polygon fill="none" stroke="black" points="395,-228.5 395,-247.5 483,-247.5 483,-228.5 395,-228.5"/>
<text text-anchor="middle" x="439" y="-235.5" font-family="Helvetica,sans-Serif" font-size="10.00">Ogre::Skeleton</text>
</a>
</g>
</g>
<!-- Node30&#45;&gt;Node56 -->
<g id="edge40" class="edge">
<title>Node30&#45;&gt;Node56</title>
<path fill="none" stroke="midnightblue" d="M252.44,-338.86C273.3,-316.78 312.67,-278.76 354,-258 366.59,-251.67 381.26,-247.3 394.79,-244.29"/>
<polygon fill="midnightblue" stroke="midnightblue" points="249.85,-336.5 245.62,-346.22 254.99,-341.26 249.85,-336.5"/>
</g>
<!-- Node58 -->
<g id="node43" class="node">
<title>Node58</title>
<g id="a_node43"><a xlink:href="class_ogre_1_1_texture.html" target="_top" xlink:title="Abstract class representing a Texture resource.">
<polygon fill="none" stroke="black" points="398,-114.5 398,-133.5 480,-133.5 480,-114.5 398,-114.5"/>
<text text-anchor="middle" x="439" y="-121.5" font-family="Helvetica,sans-Serif" font-size="10.00">Ogre::Texture</text>
</a>
</g>
</g>
<!-- Node30&#45;&gt;Node58 -->
<g id="edge42" class="edge">
<title>Node30&#45;&gt;Node58</title>
<path fill="none" stroke="midnightblue" d="M251.83,-338.44C273.95,-312.29 316.95,-261.63 354,-219 381.29,-187.59 414.07,-150.78 429.36,-133.66"/>
<polygon fill="midnightblue" stroke="midnightblue" points="248.95,-336.42 245.17,-346.32 254.3,-340.94 248.95,-336.42"/>
</g>
<!-- Node35 -->
<g id="node33" class="node">
<title>Node35</title>
<g id="a_node33"><a xlink:href="class_ogre_1_1_d3_d9_gpu_program.html" target="_top" xlink:title="Direct3D implementation of a few things common to low&#45;level vertex &amp; fragment programs.">
<polygon fill="none" stroke="black" points="570.5,-468.5 570.5,-487.5 704.5,-487.5 704.5,-468.5 570.5,-468.5"/>
<text text-anchor="middle" x="637.5" y="-475.5" font-family="Helvetica,sans-Serif" font-size="10.00">Ogre::D3D9GpuProgram</text>
</a>
</g>
</g>
<!-- Node34&#45;&gt;Node35 -->
<g id="edge32" class="edge">
<title>Node34&#45;&gt;Node35</title>
<path fill="none" stroke="midnightblue" d="M502.46,-363.06C510.27,-365.9 517.71,-369.76 524,-375 555.22,-400.99 529.06,-432.69 560,-459 564.48,-462.81 569.62,-465.88 575.06,-468.34"/>
<polygon fill="midnightblue" stroke="midnightblue" points="503.38,-359.68 492.79,-360.07 501.32,-366.37 503.38,-359.68"/>
</g>
<!-- Node36 -->
<g id="node34" class="node">
<title>Node36</title>
<g id="a_node34"><a xlink:href="class_ogre_1_1_g_l_gpu_program.html" target="_top" xlink:title="Generalised low&#45;level GL program, can be applied to multiple types (eg ARB and NV)">
<polygon fill="none" stroke="red" points="578,-430.5 578,-449.5 697,-449.5 697,-430.5 578,-430.5"/>
<text text-anchor="middle" x="637.5" y="-437.5" font-family="Helvetica,sans-Serif" font-size="10.00">Ogre::GLGpuProgram</text>
</a>
</g>
</g>
<!-- Node34&#45;&gt;Node36 -->
<g id="edge33" class="edge">
<title>Node34&#45;&gt;Node36</title>
<path fill="none" stroke="midnightblue" d="M502.48,-365.04C510.06,-367.58 517.43,-370.84 524,-375 545.93,-388.89 538.22,-406.88 560,-421 565.97,-424.87 572.67,-427.95 579.56,-430.41"/>
<polygon fill="midnightblue" stroke="midnightblue" points="503.41,-361.66 492.83,-362.18 501.42,-368.37 503.41,-361.66"/>
</g>
<!-- Node39 -->
<g id="node35" class="node">
<title>Node39</title>
<g id="a_node35"><a xlink:href="class_ogre_1_1_high_level_gpu_program.html" target="_top" xlink:title="Abstract base class representing a high&#45;level program (a vertex or fragment program).">
<polygon fill="none" stroke="red" points="560,-392.5 560,-411.5 715,-411.5 715,-392.5 560,-392.5"/>
<text text-anchor="middle" x="637.5" y="-399.5" font-family="Helvetica,sans-Serif" font-size="10.00">Ogre::HighLevelGpuProgram</text>
</a>
</g>
</g>
<!-- Node34&#45;&gt;Node39 -->
<g id="edge34" class="edge">
<title>Node34&#45;&gt;Node39</title>
<path fill="none" stroke="midnightblue" d="M492.58,-367.78C503,-370.15 513.85,-372.63 524,-375 548.35,-380.68 575.63,-387.22 597.22,-392.44"/>
<polygon fill="midnightblue" stroke="midnightblue" points="493.28,-364.35 482.76,-365.56 491.74,-371.18 493.28,-364.35"/>
</g>
<!-- Node51 -->
<g id="node36" class="node">
<title>Node51</title>
<g id="a_node36"><a xlink:href="class_ogre_1_1_unified_high_level_gpu_program.html" target="_top" xlink:title="Specialisation of HighLevelGpuProgram which just delegates its implementation to one other GpuProgram...">
<polygon fill="none" stroke="black" points="563,-343 563,-373 712,-373 712,-343 563,-343"/>
<text text-anchor="start" x="571" y="-361" font-family="Helvetica,sans-Serif" font-size="10.00">Ogre::UnifiedHighLevelGpu</text>
<text text-anchor="middle" x="637.5" y="-350" font-family="Helvetica,sans-Serif" font-size="10.00">Program</text>
</a>
</g>
</g>
<!-- Node34&#45;&gt;Node51 -->
<g id="edge35" class="edge">
<title>Node34&#45;&gt;Node51</title>
<path fill="none" stroke="midnightblue" d="M502.72,-356.64C521.78,-356.83 542.91,-357.05 562.64,-357.25"/>
<polygon fill="midnightblue" stroke="midnightblue" points="502.69,-353.14 492.66,-356.54 502.62,-360.14 502.69,-353.14"/>
</g>
<!-- Node52 -->
<g id="node37" class="node">
<title>Node52</title>
<g id="a_node37"><a xlink:href="class_ogre_1_1_vulkan_program.html" target="_top" xlink:title="Specialisation of GpuProgram to provide support for SPIRV.">
<polygon fill="none" stroke="black" points="577,-304.5 577,-323.5 698,-323.5 698,-304.5 577,-304.5"/>
<text text-anchor="middle" x="637.5" y="-311.5" font-family="Helvetica,sans-Serif" font-size="10.00">Ogre::VulkanProgram</text>
</a>
</g>
</g>
<!-- Node34&#45;&gt;Node52 -->
<g id="edge36" class="edge">
<title>Node34&#45;&gt;Node52</title>
<path fill="none" stroke="midnightblue" d="M494.67,-344.31C525.26,-337.78 562.92,-329.73 591.75,-323.57"/>
<polygon fill="midnightblue" stroke="midnightblue" points="493.64,-340.96 484.59,-346.47 495.1,-347.8 493.64,-340.96"/>
</g>
<!-- Node55 -->
<g id="node40" class="node">
<title>Node55</title>
<g id="a_node40"><a xlink:href="class_ogre_1_1_patch_mesh.html" target="_top" xlink:title="Patch specialisation of Mesh.">
<polygon fill="none" stroke="black" points="588,-266.5 588,-285.5 687,-285.5 687,-266.5 588,-266.5"/>
<text text-anchor="middle" x="637.5" y="-273.5" font-family="Helvetica,sans-Serif" font-size="10.00">Ogre::PatchMesh</text>
</a>
</g>
</g>
<!-- Node54&#45;&gt;Node55 -->
<g id="edge39" class="edge">
<title>Node54&#45;&gt;Node55</title>
<path fill="none" stroke="midnightblue" d="M485.52,-276.77C516.11,-276.61 556.39,-276.41 587.65,-276.25"/>
<polygon fill="midnightblue" stroke="midnightblue" points="485.11,-273.27 475.13,-276.82 485.15,-280.27 485.11,-273.27"/>
</g>
<!-- Node57 -->
<g id="node42" class="node">
<title>Node57</title>
<g id="a_node42"><a xlink:href="class_ogre_1_1_skeleton_instance.html" target="_top" xlink:title="A SkeletonInstance is a single instance of a Skeleton used by a world object.">
<polygon fill="none" stroke="black" points="573,-228.5 573,-247.5 702,-247.5 702,-228.5 573,-228.5"/>
<text text-anchor="middle" x="637.5" y="-235.5" font-family="Helvetica,sans-Serif" font-size="10.00">Ogre::SkeletonInstance</text>
</a>
</g>
</g>
<!-- Node56&#45;&gt;Node57 -->
<g id="edge41" class="edge">
<title>Node56&#45;&gt;Node57</title>
<path fill="none" stroke="midnightblue" d="M493.34,-238C517.9,-238 547.25,-238 572.95,-238"/>
<polygon fill="midnightblue" stroke="midnightblue" points="493.12,-234.5 483.12,-238 493.12,-241.5 493.12,-234.5"/>
</g>
<!-- Node59 -->
<g id="node44" class="node">
<title>Node59</title>
<g id="a_node44"><a xlink:href="class_ogre_1_1_d3_d11_texture.html" target="_top" xlink:title="Specialisation of Texture for D3D11.">
<polygon fill="none" stroke="black" points="580,-190.5 580,-209.5 695,-209.5 695,-190.5 580,-190.5"/>
<text text-anchor="middle" x="637.5" y="-197.5" font-family="Helvetica,sans-Serif" font-size="10.00">Ogre::D3D11Texture</text>
</a>
</g>
</g>
<!-- Node58&#45;&gt;Node59 -->
<g id="edge43" class="edge">
<title>Node58&#45;&gt;Node59</title>
<path fill="none" stroke="midnightblue" d="M466.54,-138.5C490.43,-151.09 526.79,-169.12 560,-181 570.05,-184.59 581.08,-187.76 591.56,-190.43"/>
<polygon fill="midnightblue" stroke="midnightblue" points="467.89,-135.25 457.42,-133.64 464.6,-141.43 467.89,-135.25"/>
</g>
<!-- Node60 -->
<g id="node45" class="node">
<title>Node60</title>
<g id="a_node45"><a xlink:href="class_ogre_1_1_d3_d9_texture.html" target="_top" xlink:title=" ">
<polygon fill="none" stroke="black" points="583,-152.5 583,-171.5 692,-171.5 692,-152.5 583,-152.5"/>
<text text-anchor="middle" x="637.5" y="-159.5" font-family="Helvetica,sans-Serif" font-size="10.00">Ogre::D3D9Texture</text>
</a>
</g>
</g>
<!-- Node58&#45;&gt;Node60 -->
<g id="edge44" class="edge">
<title>Node58&#45;&gt;Node60</title>
<path fill="none" stroke="midnightblue" d="M490.42,-133.75C520.19,-139.51 557.7,-146.76 587.26,-152.48"/>
<polygon fill="midnightblue" stroke="midnightblue" points="490.72,-130.24 480.24,-131.78 489.39,-137.12 490.72,-130.24"/>
</g>
<!-- Node61 -->
<g id="node46" class="node">
<title>Node61</title>
<g id="a_node46"><a xlink:href="class_ogre_1_1_g_l_texture_common.html" target="_top" xlink:title=" ">
<polygon fill="none" stroke="red" points="568.5,-114.5 568.5,-133.5 706.5,-133.5 706.5,-114.5 568.5,-114.5"/>
<text text-anchor="middle" x="637.5" y="-121.5" font-family="Helvetica,sans-Serif" font-size="10.00">Ogre::GLTextureCommon</text>
</a>
</g>
</g>
<!-- Node58&#45;&gt;Node61 -->
<g id="edge45" class="edge">
<title>Node58&#45;&gt;Node61</title>
<path fill="none" stroke="midnightblue" d="M490.43,-124C514.16,-124 542.83,-124 568.45,-124"/>
<polygon fill="midnightblue" stroke="midnightblue" points="490.24,-120.5 480.24,-124 490.24,-127.5 490.24,-120.5"/>
</g>
<!-- Node65 -->
<g id="node47" class="node">
<title>Node65</title>
<g id="a_node47"><a xlink:href="class_ogre_1_1_metal_texture.html" target="_top" xlink:title=" ">
<polygon fill="none" stroke="black" points="582.5,-76.5 582.5,-95.5 692.5,-95.5 692.5,-76.5 582.5,-76.5"/>
<text text-anchor="middle" x="637.5" y="-83.5" font-family="Helvetica,sans-Serif" font-size="10.00">Ogre::MetalTexture</text>
</a>
</g>
</g>
<!-- Node58&#45;&gt;Node65 -->
<g id="edge46" class="edge">
<title>Node58&#45;&gt;Node65</title>
<path fill="none" stroke="midnightblue" d="M490.42,-114.25C520.19,-108.49 557.7,-101.24 587.26,-95.52"/>
<polygon fill="midnightblue" stroke="midnightblue" points="489.39,-110.88 480.24,-116.22 490.72,-117.76 489.39,-110.88"/>
</g>
<!-- Node66 -->
<g id="node48" class="node">
<title>Node66</title>
<g id="a_node48"><a xlink:href="class_ogre_1_1_tiny_texture.html" target="_top" xlink:title=" ">
<polygon fill="none" stroke="black" points="586.5,-38.5 586.5,-57.5 688.5,-57.5 688.5,-38.5 586.5,-38.5"/>
<text text-anchor="middle" x="637.5" y="-45.5" font-family="Helvetica,sans-Serif" font-size="10.00">Ogre::TinyTexture</text>
</a>
</g>
</g>
<!-- Node58&#45;&gt;Node66 -->
<g id="edge47" class="edge">
<title>Node58&#45;&gt;Node66</title>
<path fill="none" stroke="midnightblue" d="M466.54,-109.5C490.43,-96.91 526.79,-78.88 560,-67 570.05,-63.41 581.08,-60.24 591.56,-57.57"/>
<polygon fill="midnightblue" stroke="midnightblue" points="464.6,-106.57 457.42,-114.36 467.89,-112.75 464.6,-106.57"/>
</g>
<!-- Node67 -->
<g id="node49" class="node">
<title>Node67</title>
<g id="a_node49"><a xlink:href="class_ogre_1_1_vulkan_texture_gpu.html" target="_top" xlink:title=" ">
<polygon fill="none" stroke="red" points="570,-0.5 570,-19.5 705,-19.5 705,-0.5 570,-0.5"/>
<text text-anchor="middle" x="637.5" y="-7.5" font-family="Helvetica,sans-Serif" font-size="10.00">Ogre::VulkanTextureGpu</text>
</a>
</g>
</g>
<!-- Node58&#45;&gt;Node67 -->
<g id="edge48" class="edge">
<title>Node58&#45;&gt;Node67</title>
<path fill="none" stroke="midnightblue" d="M456.4,-107.16C478.13,-85.81 518.58,-49.34 560,-29 567.86,-25.14 576.57,-22.02 585.22,-19.52"/>
<polygon fill="midnightblue" stroke="midnightblue" points="453.87,-104.73 449.27,-114.28 458.82,-109.69 453.87,-104.73"/>
</g>
</g>
</svg>
