<?xml version="1.0" encoding="UTF-8" standalone="no"?>
<!DOCTYPE svg PUBLIC "-//W3C//DTD SVG 1.1//EN"
 "http://www.w3.org/Graphics/SVG/1.1/DTD/svg11.dtd">
<!-- Generated by graphviz version 2.43.0 (0)
 -->
<!-- Title: Ogre::GLRenderTexture Pages: 1 -->
<svg width="782pt" height="180pt"
 viewBox="0.00 0.00 782.00 180.00" xmlns="http://www.w3.org/2000/svg" xmlns:xlink="http://www.w3.org/1999/xlink">
<g id="graph0" class="graph" transform="scale(1 1) rotate(0) translate(4 176)">
<title>Ogre::GLRenderTexture</title>
<!-- Node1 -->
<g id="node1" class="node">
<title>Node1</title>
<g id="a_node1"><a xlink:title="Base class for GL Render Textures.">
<polygon fill="#bfbfbf" stroke="black" points="433,-76.5 433,-95.5 562,-95.5 562,-76.5 433,-76.5"/>
<text text-anchor="middle" x="497.5" y="-83.5" font-family="Helvetica,sans-Serif" font-size="10.00">Ogre::GLRenderTexture</text>
</a>
</g>
</g>
<!-- Node6 -->
<g id="node6" class="node">
<title>Node6</title>
<g id="a_node6"><a xlink:href="class_ogre_1_1_g_l3_plus_f_b_o_render_texture.html" target="_top" xlink:title="RenderTexture for GL FBO.">
<polygon fill="none" stroke="black" points="598,-152.5 598,-171.5 774,-171.5 774,-152.5 598,-152.5"/>
<text text-anchor="middle" x="686" y="-159.5" font-family="Helvetica,sans-Serif" font-size="10.00">Ogre::GL3PlusFBORenderTexture</text>
</a>
</g>
</g>
<!-- Node1&#45;&gt;Node6 -->
<g id="edge5" class="edge">
<title>Node1&#45;&gt;Node6</title>
<path fill="none" stroke="midnightblue" d="M520.46,-101.21C540,-114.08 569.77,-132.13 598,-143 607.81,-146.78 618.55,-149.89 629.03,-152.42"/>
<polygon fill="midnightblue" stroke="midnightblue" points="522.25,-98.19 512,-95.53 518.35,-104.01 522.25,-98.19"/>
</g>
<!-- Node7 -->
<g id="node7" class="node">
<title>Node7</title>
<g id="a_node7"><a xlink:href="class_ogre_1_1_g_l_copying_render_texture.html" target="_top" xlink:title=" ">
<polygon fill="none" stroke="black" points="601.5,-114.5 601.5,-133.5 770.5,-133.5 770.5,-114.5 601.5,-114.5"/>
<text text-anchor="middle" x="686" y="-121.5" font-family="Helvetica,sans-Serif" font-size="10.00">Ogre::GLCopyingRenderTexture</text>
</a>
</g>
</g>
<!-- Node1&#45;&gt;Node7 -->
<g id="edge6" class="edge">
<title>Node1&#45;&gt;Node7</title>
<path fill="none" stroke="midnightblue" d="M555.48,-97.61C582,-103.01 613.17,-109.36 638.28,-114.48"/>
<polygon fill="midnightblue" stroke="midnightblue" points="556.06,-94.16 545.56,-95.59 554.66,-101.02 556.06,-94.16"/>
</g>
<!-- Node8 -->
<g id="node8" class="node">
<title>Node8</title>
<g id="a_node8"><a xlink:href="class_ogre_1_1_g_l_e_s2_f_b_o_render_texture.html" target="_top" xlink:title="RenderTexture for GL ES 2 FBO.">
<polygon fill="none" stroke="black" points="602.5,-76.5 602.5,-95.5 769.5,-95.5 769.5,-76.5 602.5,-76.5"/>
<text text-anchor="middle" x="686" y="-83.5" font-family="Helvetica,sans-Serif" font-size="10.00">Ogre::GLES2FBORenderTexture</text>
</a>
</g>
</g>
<!-- Node1&#45;&gt;Node8 -->
<g id="edge7" class="edge">
<title>Node1&#45;&gt;Node8</title>
<path fill="none" stroke="midnightblue" d="M572.35,-86C582.25,-86 592.46,-86 602.5,-86"/>
<polygon fill="midnightblue" stroke="midnightblue" points="572.16,-82.5 562.16,-86 572.16,-89.5 572.16,-82.5"/>
</g>
<!-- Node9 -->
<g id="node9" class="node">
<title>Node9</title>
<g id="a_node9"><a xlink:href="class_ogre_1_1_g_l_f_b_o_render_texture.html" target="_top" xlink:title="RenderTexture for GL FBO.">
<polygon fill="none" stroke="black" points="611.5,-38.5 611.5,-57.5 760.5,-57.5 760.5,-38.5 611.5,-38.5"/>
<text text-anchor="middle" x="686" y="-45.5" font-family="Helvetica,sans-Serif" font-size="10.00">Ogre::GLFBORenderTexture</text>
</a>
</g>
</g>
<!-- Node1&#45;&gt;Node9 -->
<g id="edge8" class="edge">
<title>Node1&#45;&gt;Node9</title>
<path fill="none" stroke="midnightblue" d="M555.48,-74.39C582,-68.99 613.17,-62.64 638.28,-57.52"/>
<polygon fill="midnightblue" stroke="midnightblue" points="554.66,-70.98 545.56,-76.41 556.06,-77.84 554.66,-70.98"/>
</g>
<!-- Node10 -->
<g id="node10" class="node">
<title>Node10</title>
<g id="a_node10"><a xlink:href="class_ogre_1_1_g_l_p_b_render_texture.html" target="_top" xlink:title=" ">
<polygon fill="none" stroke="black" points="615,-0.5 615,-19.5 757,-19.5 757,-0.5 615,-0.5"/>
<text text-anchor="middle" x="686" y="-7.5" font-family="Helvetica,sans-Serif" font-size="10.00">Ogre::GLPBRenderTexture</text>
</a>
</g>
</g>
<!-- Node1&#45;&gt;Node10 -->
<g id="edge9" class="edge">
<title>Node1&#45;&gt;Node10</title>
<path fill="none" stroke="midnightblue" d="M520.46,-70.79C540,-57.92 569.77,-39.87 598,-29 607.81,-25.22 618.55,-22.11 629.03,-19.58"/>
<polygon fill="midnightblue" stroke="midnightblue" points="518.35,-67.99 512,-76.47 522.25,-73.81 518.35,-67.99"/>
</g>
<!-- Node2 -->
<g id="node2" class="node">
<title>Node2</title>
<g id="a_node2"><a xlink:href="class_ogre_1_1_render_texture.html" target="_top" xlink:title="This class represents a RenderTarget that renders to a Texture.">
<polygon fill="none" stroke="black" points="277.5,-95.5 277.5,-114.5 393.5,-114.5 393.5,-95.5 277.5,-95.5"/>
<text text-anchor="middle" x="335.5" y="-102.5" font-family="Helvetica,sans-Serif" font-size="10.00">Ogre::RenderTexture</text>
</a>
</g>
</g>
<!-- Node2&#45;&gt;Node1 -->
<g id="edge1" class="edge">
<title>Node2&#45;&gt;Node1</title>
<path fill="none" stroke="midnightblue" d="M404.03,-96.98C413.57,-95.85 423.34,-94.69 432.8,-93.56"/>
<polygon fill="midnightblue" stroke="midnightblue" points="403.33,-93.54 393.81,-98.19 404.15,-100.49 403.33,-93.54"/>
</g>
<!-- Node3 -->
<g id="node3" class="node">
<title>Node3</title>
<g id="a_node3"><a xlink:href="class_ogre_1_1_render_target.html" target="_top" xlink:title="A &#39;canvas&#39; which can receive the results of a rendering operation.">
<polygon fill="none" stroke="black" points="128,-95.5 128,-114.5 238,-114.5 238,-95.5 128,-95.5"/>
<text text-anchor="middle" x="183" y="-102.5" font-family="Helvetica,sans-Serif" font-size="10.00">Ogre::RenderTarget</text>
</a>
</g>
</g>
<!-- Node3&#45;&gt;Node2 -->
<g id="edge2" class="edge">
<title>Node3&#45;&gt;Node2</title>
<path fill="none" stroke="midnightblue" d="M248.62,-105C258.21,-105 268.03,-105 277.45,-105"/>
<polygon fill="midnightblue" stroke="midnightblue" points="248.33,-101.5 238.33,-105 248.33,-108.5 248.33,-101.5"/>
</g>
<!-- Node4 -->
<g id="node4" class="node">
<title>Node4</title>
<g id="a_node4"><a xlink:title=" ">
<polygon fill="none" stroke="#bfbfbf" points="0,-95.5 0,-114.5 92,-114.5 92,-95.5 0,-95.5"/>
<text text-anchor="middle" x="46" y="-102.5" font-family="Helvetica,sans-Serif" font-size="10.00">RenderSysAlloc</text>
</a>
</g>
</g>
<!-- Node4&#45;&gt;Node3 -->
<g id="edge3" class="edge">
<title>Node4&#45;&gt;Node3</title>
<path fill="none" stroke="midnightblue" d="M102.36,-105C110.72,-105 119.33,-105 127.66,-105"/>
<polygon fill="midnightblue" stroke="midnightblue" points="102.33,-101.5 92.33,-105 102.33,-108.5 102.33,-101.5"/>
</g>
<!-- Node5 -->
<g id="node5" class="node">
<title>Node5</title>
<g id="a_node5"><a xlink:href="class_ogre_1_1_g_l_render_target.html" target="_top" xlink:title=" ">
<polygon fill="none" stroke="black" points="274,-57.5 274,-76.5 397,-76.5 397,-57.5 274,-57.5"/>
<text text-anchor="middle" x="335.5" y="-64.5" font-family="Helvetica,sans-Serif" font-size="10.00">Ogre::GLRenderTarget</text>
</a>
</g>
</g>
<!-- Node5&#45;&gt;Node1 -->
<g id="edge4" class="edge">
<title>Node5&#45;&gt;Node1</title>
<path fill="none" stroke="midnightblue" d="M407.59,-75.44C415.99,-76.44 424.52,-77.45 432.8,-78.44"/>
<polygon fill="midnightblue" stroke="midnightblue" points="407.79,-71.94 397.45,-74.24 406.96,-78.89 407.79,-71.94"/>
</g>
</g>
</svg>
