<?xml version="1.0" encoding="UTF-8" standalone="no"?>
<!DOCTYPE svg PUBLIC "-//W3C//DTD SVG 1.1//EN"
 "http://www.w3.org/Graphics/SVG/1.1/DTD/svg11.dtd">
<!-- Generated by graphviz version 2.43.0 (0)
 -->
<!-- Title: Ogre::HardwareOcclusionQuery Pages: 1 -->
<svg width="521pt" height="235pt"
 viewBox="0.00 0.00 521.00 235.00" xmlns="http://www.w3.org/2000/svg" xmlns:xlink="http://www.w3.org/1999/xlink">
<g id="graph0" class="graph" transform="scale(1 1) rotate(0) translate(4 231)">
<title>Ogre::HardwareOcclusionQuery</title>
<!-- Node1 -->
<g id="node1" class="node">
<title>Node1</title>
<g id="a_node1"><a xlink:title="This is a abstract class that that provides the interface for the query class for hardware occlusion.">
<polygon fill="#bfbfbf" stroke="black" points="128,-104 128,-123 298,-123 298,-104 128,-104"/>
<text text-anchor="middle" x="213" y="-111" font-family="Helvetica,sans-Serif" font-size="10.00">Ogre::HardwareOcclusionQuery</text>
</a>
</g>
</g>
<!-- Node3 -->
<g id="node3" class="node">
<title>Node3</title>
<g id="a_node3"><a xlink:href="class_ogre_1_1_d3_d11_hardware_occlusion_query.html" target="_top" xlink:title="This is a class that is the DirectX9 implementation of hardware occlusion testing.">
<polygon fill="none" stroke="black" points="337,-196.5 337,-226.5 510,-226.5 510,-196.5 337,-196.5"/>
<text text-anchor="start" x="345" y="-214.5" font-family="Helvetica,sans-Serif" font-size="10.00">Ogre::D3D11HardwareOcclusion</text>
<text text-anchor="middle" x="423.5" y="-203.5" font-family="Helvetica,sans-Serif" font-size="10.00">Query</text>
</a>
</g>
</g>
<!-- Node1&#45;&gt;Node3 -->
<g id="edge2" class="edge">
<title>Node1&#45;&gt;Node3</title>
<path fill="none" stroke="midnightblue" d="M235,-129.06C258.18,-145.6 297.12,-171.53 334,-187.5 341.74,-190.85 350.07,-193.85 358.41,-196.49"/>
<polygon fill="midnightblue" stroke="midnightblue" points="236.79,-126.04 226.64,-123.01 232.69,-131.71 236.79,-126.04"/>
</g>
<!-- Node4 -->
<g id="node4" class="node">
<title>Node4</title>
<g id="a_node4"><a xlink:href="class_ogre_1_1_d3_d9_hardware_occlusion_query.html" target="_top" xlink:title="This is a class that is the DirectX9 implementation of hardware occlusion testing.">
<polygon fill="none" stroke="black" points="340,-147.5 340,-177.5 507,-177.5 507,-147.5 340,-147.5"/>
<text text-anchor="start" x="348" y="-165.5" font-family="Helvetica,sans-Serif" font-size="10.00">Ogre::D3D9HardwareOcclusion</text>
<text text-anchor="middle" x="423.5" y="-154.5" font-family="Helvetica,sans-Serif" font-size="10.00">Query</text>
</a>
</g>
</g>
<!-- Node1&#45;&gt;Node4 -->
<g id="edge3" class="edge">
<title>Node1&#45;&gt;Node4</title>
<path fill="none" stroke="midnightblue" d="M264.75,-125.43C292.98,-132.06 328.4,-140.39 358.52,-147.46"/>
<polygon fill="midnightblue" stroke="midnightblue" points="265.23,-121.94 254.7,-123.06 263.63,-128.76 265.23,-121.94"/>
</g>
<!-- Node5 -->
<g id="node5" class="node">
<title>Node5</title>
<g id="a_node5"><a xlink:href="class_ogre_1_1_g_l3_plus_hardware_occlusion_query.html" target="_top" xlink:title="This is a class that is the base class of the query class for hardware occlusion.">
<polygon fill="none" stroke="black" points="334,-98.5 334,-128.5 513,-128.5 513,-98.5 334,-98.5"/>
<text text-anchor="start" x="342" y="-116.5" font-family="Helvetica,sans-Serif" font-size="10.00">Ogre::GL3PlusHardwareOcclusion</text>
<text text-anchor="middle" x="423.5" y="-105.5" font-family="Helvetica,sans-Serif" font-size="10.00">Query</text>
</a>
</g>
</g>
<!-- Node1&#45;&gt;Node5 -->
<g id="edge4" class="edge">
<title>Node1&#45;&gt;Node5</title>
<path fill="none" stroke="midnightblue" d="M308.47,-113.5C316.93,-113.5 325.49,-113.5 333.9,-113.5"/>
<polygon fill="midnightblue" stroke="midnightblue" points="308.2,-110 298.2,-113.5 308.2,-117 308.2,-110"/>
</g>
<!-- Node6 -->
<g id="node6" class="node">
<title>Node6</title>
<g id="a_node6"><a xlink:href="class_ogre_1_1_g_l_e_s2_hardware_occlusion_query.html" target="_top" xlink:title=" ">
<polygon fill="none" stroke="black" points="338,-49.5 338,-79.5 509,-79.5 509,-49.5 338,-49.5"/>
<text text-anchor="start" x="346" y="-67.5" font-family="Helvetica,sans-Serif" font-size="10.00">Ogre::GLES2HardwareOcclusion</text>
<text text-anchor="middle" x="423.5" y="-56.5" font-family="Helvetica,sans-Serif" font-size="10.00">Query</text>
</a>
</g>
</g>
<!-- Node1&#45;&gt;Node6 -->
<g id="edge5" class="edge">
<title>Node1&#45;&gt;Node6</title>
<path fill="none" stroke="midnightblue" d="M264.75,-101.57C292.98,-94.94 328.4,-86.61 358.52,-79.54"/>
<polygon fill="midnightblue" stroke="midnightblue" points="263.63,-98.24 254.7,-103.94 265.23,-105.06 263.63,-98.24"/>
</g>
<!-- Node7 -->
<g id="node7" class="node">
<title>Node7</title>
<g id="a_node7"><a xlink:href="class_ogre_1_1_g_l_hardware_occlusion_query.html" target="_top" xlink:title="This is a class that is the base class of the query class for hardware occlusion.">
<polygon fill="none" stroke="black" points="347,-0.5 347,-30.5 500,-30.5 500,-0.5 347,-0.5"/>
<text text-anchor="start" x="355" y="-18.5" font-family="Helvetica,sans-Serif" font-size="10.00">Ogre::GLHardwareOcclusion</text>
<text text-anchor="middle" x="423.5" y="-7.5" font-family="Helvetica,sans-Serif" font-size="10.00">Query</text>
</a>
</g>
</g>
<!-- Node1&#45;&gt;Node7 -->
<g id="edge6" class="edge">
<title>Node1&#45;&gt;Node7</title>
<path fill="none" stroke="midnightblue" d="M235,-97.94C258.18,-81.4 297.12,-55.47 334,-39.5 341.74,-36.15 350.07,-33.15 358.41,-30.51"/>
<polygon fill="midnightblue" stroke="midnightblue" points="232.69,-95.29 226.64,-103.99 236.79,-100.96 232.69,-95.29"/>
</g>
<!-- Node2 -->
<g id="node2" class="node">
<title>Node2</title>
<g id="a_node2"><a xlink:title=" ">
<polygon fill="none" stroke="#bfbfbf" points="0,-104 0,-123 92,-123 92,-104 0,-104"/>
<text text-anchor="middle" x="46" y="-111" font-family="Helvetica,sans-Serif" font-size="10.00">RenderSysAlloc</text>
</a>
</g>
</g>
<!-- Node2&#45;&gt;Node1 -->
<g id="edge1" class="edge">
<title>Node2&#45;&gt;Node1</title>
<path fill="none" stroke="midnightblue" d="M102.31,-113.5C110.57,-113.5 119.25,-113.5 127.94,-113.5"/>
<polygon fill="midnightblue" stroke="midnightblue" points="102.09,-110 92.09,-113.5 102.09,-117 102.09,-110"/>
</g>
</g>
</svg>
