<?xml version="1.0" encoding="UTF-8" standalone="no"?>
<!DOCTYPE svg PUBLIC "-//W3C//DTD SVG 1.1//EN"
 "http://www.w3.org/Graphics/SVG/1.1/DTD/svg11.dtd">
<!-- Generated by graphviz version 2.43.0 (0)
 -->
<!-- Title: Ogre::RTShader::SubRenderStateFactory Pages: 1 -->
<svg width="535pt" height="323pt"
 viewBox="0.00 0.00 535.00 323.00" xmlns="http://www.w3.org/2000/svg" xmlns:xlink="http://www.w3.org/1999/xlink">
<g id="graph0" class="graph" transform="scale(1 1) rotate(0) translate(4 319)">
<title>Ogre::RTShader::SubRenderStateFactory</title>
<!-- Node1 -->
<g id="node1" class="node">
<title>Node1</title>
<g id="a_node1"><a xlink:title="Abstract factory interface for creating SubRenderState implementation instances.">
<polygon fill="#bfbfbf" stroke="black" points="160,-147.5 160,-177.5 311,-177.5 311,-147.5 160,-147.5"/>
<text text-anchor="start" x="168" y="-165.5" font-family="Helvetica,sans-Serif" font-size="10.00">Ogre::RTShader::SubRender</text>
<text text-anchor="middle" x="235.5" y="-154.5" font-family="Helvetica,sans-Serif" font-size="10.00">StateFactory</text>
</a>
</g>
</g>
<!-- Node3 -->
<g id="node3" class="node">
<title>Node3</title>
<g id="a_node3"><a xlink:href="class_ogre_1_1_r_t_shader_1_1_f_f_p_texturing_factory.html" target="_top" xlink:title="A factory that enables creation of FFPTexturing instances.">
<polygon fill="none" stroke="black" points="356.5,-284.5 356.5,-314.5 517.5,-314.5 517.5,-284.5 356.5,-284.5"/>
<text text-anchor="start" x="364.5" y="-302.5" font-family="Helvetica,sans-Serif" font-size="10.00">Ogre::RTShader::FFPTexturing</text>
<text text-anchor="middle" x="437" y="-291.5" font-family="Helvetica,sans-Serif" font-size="10.00">Factory</text>
</a>
</g>
</g>
<!-- Node1&#45;&gt;Node3 -->
<g id="edge2" class="edge">
<title>Node1&#45;&gt;Node3</title>
<path fill="none" stroke="midnightblue" d="M253.22,-185.94C272.82,-211.69 307.65,-252.44 347,-275.5 352.8,-278.9 359.09,-281.83 365.56,-284.35"/>
<polygon fill="midnightblue" stroke="midnightblue" points="255.96,-183.76 247.18,-177.83 250.35,-187.94 255.96,-183.76"/>
</g>
<!-- Node4 -->
<g id="node4" class="node">
<title>Node4</title>
<g id="a_node4"><a xlink:href="class_ogre_1_1_r_t_shader_1_1_f_f_p_transform_factory.html" target="_top" xlink:title="A factory that enables creation of FFPTransform instances.">
<polygon fill="none" stroke="black" points="354,-235.5 354,-265.5 520,-265.5 520,-235.5 354,-235.5"/>
<text text-anchor="start" x="362" y="-253.5" font-family="Helvetica,sans-Serif" font-size="10.00">Ogre::RTShader::FFPTransform</text>
<text text-anchor="middle" x="437" y="-242.5" font-family="Helvetica,sans-Serif" font-size="10.00">Factory</text>
</a>
</g>
</g>
<!-- Node1&#45;&gt;Node4 -->
<g id="edge3" class="edge">
<title>Node1&#45;&gt;Node4</title>
<path fill="none" stroke="midnightblue" d="M268.08,-183.27C289.62,-196.73 319.19,-213.87 347,-225.5 355.74,-229.15 365.17,-232.45 374.52,-235.36"/>
<polygon fill="midnightblue" stroke="midnightblue" points="269.68,-180.14 259.36,-177.75 265.94,-186.05 269.68,-180.14"/>
</g>
<!-- Node5 -->
<g id="node5" class="node">
<title>Node5</title>
<g id="a_node5"><a xlink:href="class_ogre_1_1_r_t_shader_1_1_g_buffer_factory.html" target="_top" xlink:title="A factory that enables creation of GBuffer instances.">
<polygon fill="none" stroke="black" points="351,-197 351,-216 523,-216 523,-197 351,-197"/>
<text text-anchor="middle" x="437" y="-204" font-family="Helvetica,sans-Serif" font-size="10.00">Ogre::RTShader::GBufferFactory</text>
</a>
</g>
</g>
<!-- Node1&#45;&gt;Node5 -->
<g id="edge4" class="edge">
<title>Node1&#45;&gt;Node5</title>
<path fill="none" stroke="midnightblue" d="M311.97,-179.7C323.69,-182.34 335.67,-185.01 347,-187.5 361.2,-190.62 376.68,-193.95 390.7,-196.94"/>
<polygon fill="midnightblue" stroke="midnightblue" points="312.73,-176.29 302.2,-177.5 311.19,-183.12 312.73,-176.29"/>
</g>
<!-- Node6 -->
<g id="node6" class="node">
<title>Node6</title>
<g id="a_node6"><a xlink:href="class_ogre_1_1_r_t_shader_1_1_hardware_skinning_factory.html" target="_top" xlink:title="A factory that enables creation of HardwareSkinning instances.">
<polygon fill="none" stroke="black" points="364,-147.5 364,-177.5 510,-177.5 510,-147.5 364,-147.5"/>
<text text-anchor="start" x="372" y="-165.5" font-family="Helvetica,sans-Serif" font-size="10.00">Ogre::RTShader::Hardware</text>
<text text-anchor="middle" x="437" y="-154.5" font-family="Helvetica,sans-Serif" font-size="10.00">SkinningFactory</text>
</a>
</g>
</g>
<!-- Node1&#45;&gt;Node6 -->
<g id="edge5" class="edge">
<title>Node1&#45;&gt;Node6</title>
<path fill="none" stroke="midnightblue" d="M321.29,-162.5C335.46,-162.5 350.03,-162.5 363.84,-162.5"/>
<polygon fill="midnightblue" stroke="midnightblue" points="321.07,-159 311.07,-162.5 321.07,-166 321.07,-159"/>
</g>
<!-- Node7 -->
<g id="node7" class="node">
<title>Node7</title>
<g id="a_node7"><a xlink:href="class_ogre_1_1_r_t_shader_1_1_integrated_p_s_s_m3_factory.html" target="_top" xlink:title="A factory that enables creation of IntegratedPSSM3 instances.">
<polygon fill="none" stroke="black" points="362.5,-98.5 362.5,-128.5 511.5,-128.5 511.5,-98.5 362.5,-98.5"/>
<text text-anchor="start" x="370.5" y="-116.5" font-family="Helvetica,sans-Serif" font-size="10.00">Ogre::RTShader::Integrated</text>
<text text-anchor="middle" x="437" y="-105.5" font-family="Helvetica,sans-Serif" font-size="10.00">PSSM3Factory</text>
</a>
</g>
</g>
<!-- Node1&#45;&gt;Node7 -->
<g id="edge6" class="edge">
<title>Node1&#45;&gt;Node7</title>
<path fill="none" stroke="midnightblue" d="M307.66,-145.02C329.64,-139.62 353.66,-133.72 374.9,-128.51"/>
<polygon fill="midnightblue" stroke="midnightblue" points="306.59,-141.68 297.71,-147.47 308.26,-148.48 306.59,-141.68"/>
</g>
<!-- Node8 -->
<g id="node8" class="node">
<title>Node8</title>
<g id="a_node8"><a xlink:href="class_ogre_1_1_r_t_shader_1_1_layered_blending_factory.html" target="_top" xlink:title="A factory that enables creation of LayeredBlending instances.">
<polygon fill="none" stroke="black" points="347,-49.5 347,-79.5 527,-79.5 527,-49.5 347,-49.5"/>
<text text-anchor="start" x="355" y="-67.5" font-family="Helvetica,sans-Serif" font-size="10.00">Ogre::RTShader::LayeredBlending</text>
<text text-anchor="middle" x="437" y="-56.5" font-family="Helvetica,sans-Serif" font-size="10.00">Factory</text>
</a>
</g>
</g>
<!-- Node1&#45;&gt;Node8 -->
<g id="edge7" class="edge">
<title>Node1&#45;&gt;Node8</title>
<path fill="none" stroke="midnightblue" d="M262.93,-141.17C284.45,-124.73 316.2,-102.5 347,-88.5 354.43,-85.12 362.43,-82.14 370.48,-79.52"/>
<polygon fill="midnightblue" stroke="midnightblue" points="260.69,-138.48 254.93,-147.37 264.98,-144.01 260.69,-138.48"/>
</g>
<!-- Node9 -->
<g id="node9" class="node">
<title>Node9</title>
<g id="a_node9"><a xlink:href="class_ogre_1_1_r_t_shader_1_1_triplanar_texturing_factory.html" target="_top" xlink:title="A factory that enables creation of TriplanarMapping instances.">
<polygon fill="none" stroke="black" points="366.5,-0.5 366.5,-30.5 507.5,-30.5 507.5,-0.5 366.5,-0.5"/>
<text text-anchor="start" x="374.5" y="-18.5" font-family="Helvetica,sans-Serif" font-size="10.00">Ogre::RTShader::Triplanar</text>
<text text-anchor="middle" x="437" y="-7.5" font-family="Helvetica,sans-Serif" font-size="10.00">TexturingFactory</text>
</a>
</g>
</g>
<!-- Node1&#45;&gt;Node9 -->
<g id="edge8" class="edge">
<title>Node1&#45;&gt;Node9</title>
<path fill="none" stroke="midnightblue" d="M251.28,-139.1C270.12,-111.2 305.29,-65.14 347,-39.5 353,-35.81 359.56,-32.68 366.33,-30.03"/>
<polygon fill="midnightblue" stroke="midnightblue" points="248.34,-137.2 245.75,-147.47 254.18,-141.06 248.34,-137.2"/>
</g>
<!-- Node2 -->
<g id="node2" class="node">
<title>Node2</title>
<g id="a_node2"><a xlink:title=" ">
<polygon fill="none" stroke="#bfbfbf" points="0,-153 0,-172 124,-172 124,-153 0,-153"/>
<text text-anchor="middle" x="62" y="-160" font-family="Helvetica,sans-Serif" font-size="10.00">RTShaderSystemAlloc</text>
</a>
</g>
</g>
<!-- Node2&#45;&gt;Node1 -->
<g id="edge1" class="edge">
<title>Node2&#45;&gt;Node1</title>
<path fill="none" stroke="midnightblue" d="M134.49,-162.5C142.82,-162.5 151.34,-162.5 159.72,-162.5"/>
<polygon fill="midnightblue" stroke="midnightblue" points="134.43,-159 124.43,-162.5 134.43,-166 134.43,-159"/>
</g>
</g>
</svg>
