<?xml version="1.0" encoding="UTF-8" standalone="no"?>
<!DOCTYPE svg PUBLIC "-//W3C//DTD SVG 1.1//EN"
 "http://www.w3.org/Graphics/SVG/1.1/DTD/svg11.dtd">
<!-- Generated by graphviz version 2.43.0 (0)
 -->
<!-- Title: Ogre::HardwareBuffer Pages: 1 -->
<svg width="839pt" height="461pt"
 viewBox="0.00 0.00 839.00 460.50" xmlns="http://www.w3.org/2000/svg" xmlns:xlink="http://www.w3.org/1999/xlink">
<g id="graph0" class="graph" transform="scale(1 1) rotate(0) translate(4 456.5)">
<title>Ogre::HardwareBuffer</title>
<!-- Node1 -->
<g id="node1" class="node">
<title>Node1</title>
<g id="a_node1"><a xlink:title="Abstract class defining common features of hardware buffers.">
<polygon fill="#bfbfbf" stroke="black" points="107,-243 107,-262 230,-262 230,-243 107,-243"/>
<text text-anchor="middle" x="168.5" y="-250" font-family="Helvetica,sans-Serif" font-size="10.00">Ogre::HardwareBuffer</text>
</a>
</g>
</g>
<!-- Node3 -->
<g id="node3" class="node">
<title>Node3</title>
<g id="a_node3"><a xlink:href="class_ogre_1_1_d3_d11_hardware_buffer.html" target="_top" xlink:title="Base implementation of a D3D11 buffer, dealing with all the common aspects.">
<polygon fill="none" stroke="black" points="272,-433 272,-452 428,-452 428,-433 272,-433"/>
<text text-anchor="middle" x="350" y="-440" font-family="Helvetica,sans-Serif" font-size="10.00">Ogre::D3D11HardwareBuffer</text>
</a>
</g>
</g>
<!-- Node1&#45;&gt;Node3 -->
<g id="edge2" class="edge">
<title>Node1&#45;&gt;Node3</title>
<path fill="none" stroke="midnightblue" d="M174.72,-271.81C185.45,-307.64 213.51,-384.33 266,-423.5 271.21,-427.39 277.09,-430.5 283.24,-432.99"/>
<polygon fill="midnightblue" stroke="midnightblue" points="178.06,-270.74 171.94,-262.09 171.33,-272.67 178.06,-270.74"/>
</g>
<!-- Node4 -->
<g id="node4" class="node">
<title>Node4</title>
<g id="a_node4"><a xlink:href="class_ogre_1_1_d3_d9_hardware_buffer.html" target="_top" xlink:title="Specialisation of HardwareVertexBuffer for D3D9.">
<polygon fill="none" stroke="black" points="275,-395 275,-414 425,-414 425,-395 275,-395"/>
<text text-anchor="middle" x="350" y="-402" font-family="Helvetica,sans-Serif" font-size="10.00">Ogre::D3D9HardwareBuffer</text>
</a>
</g>
</g>
<!-- Node1&#45;&gt;Node4 -->
<g id="edge3" class="edge">
<title>Node1&#45;&gt;Node4</title>
<path fill="none" stroke="midnightblue" d="M177.65,-271.14C191.43,-300.34 222.15,-356.51 266,-385.5 271.8,-389.33 278.26,-392.4 284.96,-394.85"/>
<polygon fill="midnightblue" stroke="midnightblue" points="180.83,-269.68 173.5,-262.03 174.46,-272.58 180.83,-269.68"/>
</g>
<!-- Node5 -->
<g id="node5" class="node">
<title>Node5</title>
<g id="a_node5"><a xlink:href="class_ogre_1_1_default_hardware_buffer.html" target="_top" xlink:title="Specialisation of HardwareBuffer for emulation.">
<polygon fill="none" stroke="black" points="270.5,-357 270.5,-376 429.5,-376 429.5,-357 270.5,-357"/>
<text text-anchor="middle" x="350" y="-364" font-family="Helvetica,sans-Serif" font-size="10.00">Ogre::DefaultHardwareBuffer</text>
</a>
</g>
</g>
<!-- Node1&#45;&gt;Node5 -->
<g id="edge4" class="edge">
<title>Node1&#45;&gt;Node5</title>
<path fill="none" stroke="midnightblue" d="M182.32,-270.1C199.07,-291.75 230.48,-328.04 266,-347.5 273.13,-351.41 281.03,-354.51 289.03,-356.98"/>
<polygon fill="midnightblue" stroke="midnightblue" points="185.07,-267.94 176.26,-262.06 179.49,-272.15 185.07,-267.94"/>
</g>
<!-- Node6 -->
<g id="node6" class="node">
<title>Node6</title>
<g id="a_node6"><a xlink:href="class_ogre_1_1_g_l3_plus_hardware_buffer.html" target="_top" xlink:title=" ">
<polygon fill="none" stroke="black" points="269,-319 269,-338 431,-338 431,-319 269,-319"/>
<text text-anchor="middle" x="350" y="-326" font-family="Helvetica,sans-Serif" font-size="10.00">Ogre::GL3PlusHardwareBuffer</text>
</a>
</g>
</g>
<!-- Node1&#45;&gt;Node6 -->
<g id="edge5" class="edge">
<title>Node1&#45;&gt;Node6</title>
<path fill="none" stroke="midnightblue" d="M191.02,-267.85C209.94,-280.69 238.66,-298.6 266,-309.5 275.47,-313.28 285.87,-316.4 296.01,-318.94"/>
<polygon fill="midnightblue" stroke="midnightblue" points="192.78,-264.81 182.56,-262.01 188.8,-270.57 192.78,-264.81"/>
</g>
<!-- Node7 -->
<g id="node7" class="node">
<title>Node7</title>
<g id="a_node7"><a xlink:href="class_ogre_1_1_g_l_e_s2_hardware_buffer.html" target="_top" xlink:title=" ">
<polygon fill="none" stroke="black" points="273,-281 273,-300 427,-300 427,-281 273,-281"/>
<text text-anchor="middle" x="350" y="-288" font-family="Helvetica,sans-Serif" font-size="10.00">Ogre::GLES2HardwareBuffer</text>
</a>
</g>
</g>
<!-- Node1&#45;&gt;Node7 -->
<g id="edge6" class="edge">
<title>Node1&#45;&gt;Node7</title>
<path fill="none" stroke="midnightblue" d="M224.68,-264.18C250.13,-269.57 279.97,-275.89 304.03,-280.98"/>
<polygon fill="midnightblue" stroke="midnightblue" points="225.3,-260.74 214.8,-262.09 223.85,-267.58 225.3,-260.74"/>
</g>
<!-- Node8 -->
<g id="node8" class="node">
<title>Node8</title>
<g id="a_node8"><a xlink:href="class_ogre_1_1_g_l_hardware_vertex_buffer.html" target="_top" xlink:title="Specialisation of HardwareVertexBuffer for OpenGL.">
<polygon fill="none" stroke="black" points="266,-243 266,-262 434,-262 434,-243 266,-243"/>
<text text-anchor="middle" x="350" y="-250" font-family="Helvetica,sans-Serif" font-size="10.00">Ogre::GLHardwareVertexBuffer</text>
</a>
</g>
</g>
<!-- Node1&#45;&gt;Node8 -->
<g id="edge7" class="edge">
<title>Node1&#45;&gt;Node8</title>
<path fill="none" stroke="midnightblue" d="M240.3,-252.5C248.64,-252.5 257.2,-252.5 265.69,-252.5"/>
<polygon fill="midnightblue" stroke="midnightblue" points="240.27,-249 230.27,-252.5 240.27,-256 240.27,-249"/>
</g>
<!-- Node9 -->
<g id="node9" class="node">
<title>Node9</title>
<g id="a_node9"><a xlink:href="class_ogre_1_1_hardware_index_buffer.html" target="_top" xlink:title="Specialisation of HardwareBuffer for vertex index buffers, still abstract.">
<polygon fill="none" stroke="black" points="275,-205 275,-224 425,-224 425,-205 275,-205"/>
<text text-anchor="middle" x="350" y="-212" font-family="Helvetica,sans-Serif" font-size="10.00">Ogre::HardwareIndexBuffer</text>
</a>
</g>
</g>
<!-- Node1&#45;&gt;Node9 -->
<g id="edge8" class="edge">
<title>Node1&#45;&gt;Node9</title>
<path fill="none" stroke="midnightblue" d="M224.68,-240.82C250.13,-235.43 279.97,-229.11 304.03,-224.02"/>
<polygon fill="midnightblue" stroke="midnightblue" points="223.85,-237.42 214.8,-242.91 225.3,-244.26 223.85,-237.42"/>
</g>
<!-- Node11 -->
<g id="node11" class="node">
<title>Node11</title>
<g id="a_node11"><a xlink:href="class_ogre_1_1_hardware_pixel_buffer.html" target="_top" xlink:title="Specialisation of HardwareBuffer for a pixel buffer.">
<polygon fill="none" stroke="black" points="276.5,-167 276.5,-186 423.5,-186 423.5,-167 276.5,-167"/>
<text text-anchor="middle" x="350" y="-174" font-family="Helvetica,sans-Serif" font-size="10.00">Ogre::HardwarePixelBuffer</text>
</a>
</g>
</g>
<!-- Node1&#45;&gt;Node11 -->
<g id="edge10" class="edge">
<title>Node1&#45;&gt;Node11</title>
<path fill="none" stroke="midnightblue" d="M191.02,-237.15C209.94,-224.31 238.66,-206.4 266,-195.5 275.47,-191.72 285.87,-188.6 296.01,-186.06"/>
<polygon fill="midnightblue" stroke="midnightblue" points="188.8,-234.43 182.56,-242.99 192.78,-240.19 188.8,-234.43"/>
</g>
<!-- Node25 -->
<g id="node25" class="node">
<title>Node25</title>
<g id="a_node25"><a xlink:href="class_ogre_1_1_hardware_vertex_buffer.html" target="_top" xlink:title="Specialisation of HardwareBuffer for a vertex buffer.">
<polygon fill="none" stroke="black" points="272.5,-129 272.5,-148 427.5,-148 427.5,-129 272.5,-129"/>
<text text-anchor="middle" x="350" y="-136" font-family="Helvetica,sans-Serif" font-size="10.00">Ogre::HardwareVertexBuffer</text>
</a>
</g>
</g>
<!-- Node1&#45;&gt;Node25 -->
<g id="edge24" class="edge">
<title>Node1&#45;&gt;Node25</title>
<path fill="none" stroke="midnightblue" d="M182.32,-234.9C199.07,-213.25 230.48,-176.96 266,-157.5 273.13,-153.59 281.03,-150.49 289.03,-148.02"/>
<polygon fill="midnightblue" stroke="midnightblue" points="179.49,-232.85 176.26,-242.94 185.07,-237.06 179.49,-232.85"/>
</g>
<!-- Node27 -->
<g id="node27" class="node">
<title>Node27</title>
<g id="a_node27"><a xlink:href="class_ogre_1_1_metal_hardware_buffer_common.html" target="_top" xlink:title="Common buffer operations for most v1 buffer interfaces used in Metal This implementation treats: Igno...">
<polygon fill="none" stroke="black" points="274.5,-79.5 274.5,-109.5 425.5,-109.5 425.5,-79.5 274.5,-79.5"/>
<text text-anchor="start" x="282.5" y="-97.5" font-family="Helvetica,sans-Serif" font-size="10.00">Ogre::MetalHardwareBuffer</text>
<text text-anchor="middle" x="350" y="-86.5" font-family="Helvetica,sans-Serif" font-size="10.00">Common</text>
</a>
</g>
</g>
<!-- Node1&#45;&gt;Node27 -->
<g id="edge26" class="edge">
<title>Node1&#45;&gt;Node27</title>
<path fill="none" stroke="midnightblue" d="M178.28,-233.4C192.56,-204.46 223.54,-149.67 266,-119.5 271.4,-115.66 277.39,-112.41 283.62,-109.65"/>
<polygon fill="midnightblue" stroke="midnightblue" points="174.94,-232.27 173.79,-242.8 181.26,-235.29 174.94,-232.27"/>
</g>
<!-- Node28 -->
<g id="node28" class="node">
<title>Node28</title>
<g id="a_node28"><a xlink:href="class_ogre_1_1_vulkan_hardware_buffer.html" target="_top" xlink:title=" ">
<polygon fill="none" stroke="black" points="271.5,-41 271.5,-60 428.5,-60 428.5,-41 271.5,-41"/>
<text text-anchor="middle" x="350" y="-48" font-family="Helvetica,sans-Serif" font-size="10.00">Ogre::VulkanHardwareBuffer</text>
</a>
</g>
</g>
<!-- Node1&#45;&gt;Node28 -->
<g id="edge27" class="edge">
<title>Node1&#45;&gt;Node28</title>
<path fill="none" stroke="midnightblue" d="M174.04,-232.89C183.86,-195.04 210.79,-111.93 266,-69.5 271.04,-65.63 276.73,-62.52 282.71,-60.03"/>
<polygon fill="midnightblue" stroke="midnightblue" points="170.62,-232.14 171.62,-242.69 177.41,-233.82 170.62,-232.14"/>
</g>
<!-- Node2 -->
<g id="node2" class="node">
<title>Node2</title>
<g id="a_node2"><a xlink:title=" ">
<polygon fill="none" stroke="#bfbfbf" points="0,-243 0,-262 71,-262 71,-243 0,-243"/>
<text text-anchor="middle" x="35.5" y="-250" font-family="Helvetica,sans-Serif" font-size="10.00">BufferAlloc</text>
</a>
</g>
</g>
<!-- Node2&#45;&gt;Node1 -->
<g id="edge1" class="edge">
<title>Node2&#45;&gt;Node1</title>
<path fill="none" stroke="midnightblue" d="M81.4,-252.5C89.64,-252.5 98.37,-252.5 106.99,-252.5"/>
<polygon fill="midnightblue" stroke="midnightblue" points="81.26,-249 71.26,-252.5 81.26,-256 81.26,-249"/>
</g>
<!-- Node10 -->
<g id="node10" class="node">
<title>Node10</title>
<g id="a_node10"><a xlink:href="class_ogre_1_1_default_hardware_index_buffer.html" target="_top" xlink:title=" ">
<polygon fill="none" stroke="black" points="479,-323.5 479,-353.5 635,-353.5 635,-323.5 479,-323.5"/>
<text text-anchor="start" x="487" y="-341.5" font-family="Helvetica,sans-Serif" font-size="10.00">Ogre::DefaultHardwareIndex</text>
<text text-anchor="middle" x="557" y="-330.5" font-family="Helvetica,sans-Serif" font-size="10.00">Buffer</text>
</a>
</g>
</g>
<!-- Node9&#45;&gt;Node10 -->
<g id="edge9" class="edge">
<title>Node9&#45;&gt;Node10</title>
<path fill="none" stroke="midnightblue" d="M427.52,-228.86C429.79,-230.27 431.95,-231.81 434,-233.5 464.41,-258.54 440.18,-288.75 470,-314.5 473.99,-317.94 478.43,-320.9 483.15,-323.43"/>
<polygon fill="midnightblue" stroke="midnightblue" points="428.87,-225.61 418.39,-224.04 425.6,-231.81 428.87,-225.61"/>
</g>
<!-- Node12 -->
<g id="node12" class="node">
<title>Node12</title>
<g id="a_node12"><a xlink:href="class_ogre_1_1_d3_d11_hardware_pixel_buffer.html" target="_top" xlink:title=" ">
<polygon fill="none" stroke="black" points="482,-274.5 482,-304.5 632,-304.5 632,-274.5 482,-274.5"/>
<text text-anchor="start" x="490" y="-292.5" font-family="Helvetica,sans-Serif" font-size="10.00">Ogre::D3D11HardwarePixel</text>
<text text-anchor="middle" x="557" y="-281.5" font-family="Helvetica,sans-Serif" font-size="10.00">Buffer</text>
</a>
</g>
</g>
<!-- Node11&#45;&gt;Node12 -->
<g id="edge11" class="edge">
<title>Node11&#45;&gt;Node12</title>
<path fill="none" stroke="midnightblue" d="M426.53,-190.53C429.14,-192.03 431.64,-193.68 434,-195.5 461.38,-216.64 443.24,-242.58 470,-264.5 474.69,-268.34 479.95,-271.6 485.49,-274.35"/>
<polygon fill="midnightblue" stroke="midnightblue" points="427.83,-187.27 417.31,-186 424.75,-193.55 427.83,-187.27"/>
</g>
<!-- Node13 -->
<g id="node13" class="node">
<title>Node13</title>
<g id="a_node13"><a xlink:href="class_ogre_1_1_d3_d9_hardware_pixel_buffer.html" target="_top" xlink:title=" ">
<polygon fill="none" stroke="black" points="470,-236 470,-255 644,-255 644,-236 470,-236"/>
<text text-anchor="middle" x="557" y="-243" font-family="Helvetica,sans-Serif" font-size="10.00">Ogre::D3D9HardwarePixelBuffer</text>
</a>
</g>
</g>
<!-- Node11&#45;&gt;Node13 -->
<g id="edge12" class="edge">
<title>Node11&#45;&gt;Node13</title>
<path fill="none" stroke="midnightblue" d="M418.59,-189.11C423.92,-190.96 429.12,-193.08 434,-195.5 452.66,-204.74 451.35,-216.22 470,-225.5 478.78,-229.87 488.55,-233.3 498.26,-236"/>
<polygon fill="midnightblue" stroke="midnightblue" points="419.51,-185.73 408.92,-186.06 417.4,-192.41 419.51,-185.73"/>
</g>
<!-- Node14 -->
<g id="node14" class="node">
<title>Node14</title>
<g id="a_node14"><a xlink:href="class_ogre_1_1_g_l_hardware_pixel_buffer_common.html" target="_top" xlink:title=" ">
<polygon fill="none" stroke="black" points="477,-186.5 477,-216.5 637,-216.5 637,-186.5 477,-186.5"/>
<text text-anchor="start" x="485" y="-204.5" font-family="Helvetica,sans-Serif" font-size="10.00">Ogre::GLHardwarePixelBuffer</text>
<text text-anchor="middle" x="557" y="-193.5" font-family="Helvetica,sans-Serif" font-size="10.00">Common</text>
</a>
</g>
</g>
<!-- Node11&#45;&gt;Node14 -->
<g id="edge13" class="edge">
<title>Node11&#45;&gt;Node14</title>
<path fill="none" stroke="midnightblue" d="M433.81,-186.6C448.04,-188.33 462.79,-190.13 476.91,-191.86"/>
<polygon fill="midnightblue" stroke="midnightblue" points="433.91,-183.09 423.56,-185.35 433.07,-190.03 433.91,-183.09"/>
</g>
<!-- Node21 -->
<g id="node21" class="node">
<title>Node21</title>
<g id="a_node21"><a xlink:href="class_ogre_1_1_metal_hardware_pixel_buffer.html" target="_top" xlink:title=" ">
<polygon fill="none" stroke="black" points="484.5,-137.5 484.5,-167.5 629.5,-167.5 629.5,-137.5 484.5,-137.5"/>
<text text-anchor="start" x="492.5" y="-155.5" font-family="Helvetica,sans-Serif" font-size="10.00">Ogre::MetalHardwarePixel</text>
<text text-anchor="middle" x="557" y="-144.5" font-family="Helvetica,sans-Serif" font-size="10.00">Buffer</text>
</a>
</g>
</g>
<!-- Node11&#45;&gt;Node21 -->
<g id="edge20" class="edge">
<title>Node11&#45;&gt;Node21</title>
<path fill="none" stroke="midnightblue" d="M433.85,-166.8C450.54,-164.85 467.95,-162.81 484.22,-160.9"/>
<polygon fill="midnightblue" stroke="midnightblue" points="433.09,-163.37 423.56,-168 433.9,-170.32 433.09,-163.37"/>
</g>
<!-- Node23 -->
<g id="node23" class="node">
<title>Node23</title>
<g id="a_node23"><a xlink:href="class_ogre_1_1_tiny_hardware_pixel_buffer.html" target="_top" xlink:title=" ">
<polygon fill="none" stroke="black" points="473.5,-99 473.5,-118 640.5,-118 640.5,-99 473.5,-99"/>
<text text-anchor="middle" x="557" y="-106" font-family="Helvetica,sans-Serif" font-size="10.00">Ogre::TinyHardwarePixelBuffer</text>
</a>
</g>
</g>
<!-- Node11&#45;&gt;Node23 -->
<g id="edge22" class="edge">
<title>Node11&#45;&gt;Node23</title>
<path fill="none" stroke="midnightblue" d="M418.59,-163.89C423.92,-162.04 429.12,-159.92 434,-157.5 452.66,-148.26 451.3,-136.67 470,-127.5 477.96,-123.59 486.73,-120.48 495.53,-118.01"/>
<polygon fill="midnightblue" stroke="midnightblue" points="417.4,-160.59 408.92,-166.94 419.51,-167.27 417.4,-160.59"/>
</g>
<!-- Node24 -->
<g id="node24" class="node">
<title>Node24</title>
<g id="a_node24"><a xlink:href="class_ogre_1_1_vulkan_hardware_pixel_buffer.html" target="_top" xlink:title=" ">
<polygon fill="none" stroke="black" points="481.5,-49.5 481.5,-79.5 632.5,-79.5 632.5,-49.5 481.5,-49.5"/>
<text text-anchor="start" x="489.5" y="-67.5" font-family="Helvetica,sans-Serif" font-size="10.00">Ogre::VulkanHardwarePixel</text>
<text text-anchor="middle" x="557" y="-56.5" font-family="Helvetica,sans-Serif" font-size="10.00">Buffer</text>
</a>
</g>
</g>
<!-- Node11&#45;&gt;Node24 -->
<g id="edge23" class="edge">
<title>Node11&#45;&gt;Node24</title>
<path fill="none" stroke="midnightblue" d="M426.52,-162.45C429.13,-160.96 431.64,-159.31 434,-157.5 461.13,-136.68 443.48,-111.09 470,-89.5 474.7,-85.67 479.97,-82.43 485.52,-79.68"/>
<polygon fill="midnightblue" stroke="midnightblue" points="424.74,-159.43 417.29,-166.96 427.81,-165.72 424.74,-159.43"/>
</g>
<!-- Node15 -->
<g id="node15" class="node">
<title>Node15</title>
<g id="a_node15"><a xlink:href="class_ogre_1_1_g_l3_plus_render_buffer.html" target="_top" xlink:title="Renderbuffer surface.">
<polygon fill="none" stroke="black" points="681,-306 681,-325 830,-325 830,-306 681,-306"/>
<text text-anchor="middle" x="755.5" y="-313" font-family="Helvetica,sans-Serif" font-size="10.00">Ogre::GL3PlusRenderBuffer</text>
</a>
</g>
</g>
<!-- Node14&#45;&gt;Node15 -->
<g id="edge14" class="edge">
<title>Node14&#45;&gt;Node15</title>
<path fill="none" stroke="midnightblue" d="M637.55,-221.77C639.8,-223.24 641.95,-224.81 644,-226.5 671,-248.75 652.64,-274.7 680,-296.5 684.8,-300.33 690.28,-303.39 696.05,-305.84"/>
<polygon fill="midnightblue" stroke="midnightblue" points="638.95,-218.54 628.53,-216.62 635.48,-224.62 638.95,-218.54"/>
</g>
<!-- Node16 -->
<g id="node16" class="node">
<title>Node16</title>
<g id="a_node16"><a xlink:href="class_ogre_1_1_g_l3_plus_texture_buffer.html" target="_top" xlink:title="Texture surface.">
<polygon fill="none" stroke="black" points="680,-268 680,-287 831,-287 831,-268 680,-268"/>
<text text-anchor="middle" x="755.5" y="-275" font-family="Helvetica,sans-Serif" font-size="10.00">Ogre::GL3PlusTextureBuffer</text>
</a>
</g>
</g>
<!-- Node14&#45;&gt;Node16 -->
<g id="edge15" class="edge">
<title>Node14&#45;&gt;Node16</title>
<path fill="none" stroke="midnightblue" d="M631.42,-220.37C635.76,-222.24 639.99,-224.28 644,-226.5 662.74,-236.85 661.09,-248.46 680,-258.5 687.31,-262.38 695.45,-265.5 703.59,-267.99"/>
<polygon fill="midnightblue" stroke="midnightblue" points="632.35,-216.98 621.77,-216.54 629.77,-223.49 632.35,-216.98"/>
</g>
<!-- Node17 -->
<g id="node17" class="node">
<title>Node17</title>
<g id="a_node17"><a xlink:href="class_ogre_1_1_g_l_e_s2_render_buffer.html" target="_top" xlink:title=" ">
<polygon fill="none" stroke="black" points="685,-230 685,-249 826,-249 826,-230 685,-230"/>
<text text-anchor="middle" x="755.5" y="-237" font-family="Helvetica,sans-Serif" font-size="10.00">Ogre::GLES2RenderBuffer</text>
</a>
</g>
</g>
<!-- Node14&#45;&gt;Node17 -->
<g id="edge16" class="edge">
<title>Node14&#45;&gt;Node17</title>
<path fill="none" stroke="midnightblue" d="M645.65,-218.45C666.15,-222.41 687.26,-226.5 705.37,-230"/>
<polygon fill="midnightblue" stroke="midnightblue" points="646.14,-214.98 635.66,-216.52 644.82,-221.85 646.14,-214.98"/>
</g>
<!-- Node18 -->
<g id="node18" class="node">
<title>Node18</title>
<g id="a_node18"><a xlink:href="class_ogre_1_1_g_l_e_s2_texture_buffer.html" target="_top" xlink:title=" ">
<polygon fill="none" stroke="black" points="684,-192 684,-211 827,-211 827,-192 684,-192"/>
<text text-anchor="middle" x="755.5" y="-199" font-family="Helvetica,sans-Serif" font-size="10.00">Ogre::GLES2TextureBuffer</text>
</a>
</g>
</g>
<!-- Node14&#45;&gt;Node18 -->
<g id="edge17" class="edge">
<title>Node14&#45;&gt;Node18</title>
<path fill="none" stroke="midnightblue" d="M647.3,-201.5C659.55,-201.5 671.98,-201.5 683.83,-201.5"/>
<polygon fill="midnightblue" stroke="midnightblue" points="647.07,-198 637.07,-201.5 647.07,-205 647.07,-198"/>
</g>
<!-- Node19 -->
<g id="node19" class="node">
<title>Node19</title>
<g id="a_node19"><a xlink:href="class_ogre_1_1_g_l_render_buffer.html" target="_top" xlink:title="Renderbuffer surface.">
<polygon fill="none" stroke="black" points="694,-154 694,-173 817,-173 817,-154 694,-154"/>
<text text-anchor="middle" x="755.5" y="-161" font-family="Helvetica,sans-Serif" font-size="10.00">Ogre::GLRenderBuffer</text>
</a>
</g>
</g>
<!-- Node14&#45;&gt;Node19 -->
<g id="edge18" class="edge">
<title>Node14&#45;&gt;Node19</title>
<path fill="none" stroke="midnightblue" d="M645.65,-184.55C666.15,-180.59 687.26,-176.5 705.37,-173"/>
<polygon fill="midnightblue" stroke="midnightblue" points="644.82,-181.15 635.66,-186.48 646.14,-188.02 644.82,-181.15"/>
</g>
<!-- Node20 -->
<g id="node20" class="node">
<title>Node20</title>
<g id="a_node20"><a xlink:href="class_ogre_1_1_g_l_texture_buffer.html" target="_top" xlink:title="Texture surface.">
<polygon fill="none" stroke="black" points="693.5,-116 693.5,-135 817.5,-135 817.5,-116 693.5,-116"/>
<text text-anchor="middle" x="755.5" y="-123" font-family="Helvetica,sans-Serif" font-size="10.00">Ogre::GLTextureBuffer</text>
</a>
</g>
</g>
<!-- Node14&#45;&gt;Node20 -->
<g id="edge19" class="edge">
<title>Node14&#45;&gt;Node20</title>
<path fill="none" stroke="midnightblue" d="M631.42,-182.63C635.76,-180.76 639.99,-178.72 644,-176.5 662.74,-166.15 661.09,-154.54 680,-144.5 687.31,-140.62 695.45,-137.5 703.59,-135.01"/>
<polygon fill="midnightblue" stroke="midnightblue" points="629.77,-179.51 621.77,-186.46 632.35,-186.02 629.77,-179.51"/>
</g>
<!-- Node22 -->
<g id="node22" class="node">
<title>Node22</title>
<g id="a_node22"><a xlink:href="class_ogre_1_1_metal_texture_buffer.html" target="_top" xlink:title="Texture surface.">
<polygon fill="none" stroke="black" points="685.5,-78 685.5,-97 825.5,-97 825.5,-78 685.5,-78"/>
<text text-anchor="middle" x="755.5" y="-85" font-family="Helvetica,sans-Serif" font-size="10.00">Ogre::MetalTextureBuffer</text>
</a>
</g>
</g>
<!-- Node21&#45;&gt;Node22 -->
<g id="edge21" class="edge">
<title>Node21&#45;&gt;Node22</title>
<path fill="none" stroke="midnightblue" d="M626.87,-134.13C632.73,-132.07 638.51,-129.86 644,-127.5 661.02,-120.19 662.86,-113.52 680,-106.5 689.02,-102.81 698.95,-99.67 708.54,-97.08"/>
<polygon fill="midnightblue" stroke="midnightblue" points="625.34,-130.95 616.97,-137.45 627.56,-137.59 625.34,-130.95"/>
</g>
<!-- Node26 -->
<g id="node26" class="node">
<title>Node26</title>
<g id="a_node26"><a xlink:href="class_ogre_1_1_default_hardware_vertex_buffer.html" target="_top" xlink:title=" ">
<polygon fill="none" stroke="black" points="476.5,-0.5 476.5,-30.5 637.5,-30.5 637.5,-0.5 476.5,-0.5"/>
<text text-anchor="start" x="484.5" y="-18.5" font-family="Helvetica,sans-Serif" font-size="10.00">Ogre::DefaultHardwareVertex</text>
<text text-anchor="middle" x="557" y="-7.5" font-family="Helvetica,sans-Serif" font-size="10.00">Buffer</text>
</a>
</g>
</g>
<!-- Node25&#45;&gt;Node26 -->
<g id="edge25" class="edge">
<title>Node25&#45;&gt;Node26</title>
<path fill="none" stroke="midnightblue" d="M425.3,-124.51C428.37,-122.73 431.29,-120.74 434,-118.5 463.76,-93.94 440.68,-64.58 470,-39.5 474,-36.07 478.46,-33.13 483.18,-30.61"/>
<polygon fill="midnightblue" stroke="midnightblue" points="423.71,-121.39 416.31,-128.96 426.82,-127.66 423.71,-121.39"/>
</g>
</g>
</svg>
