<?xml version="1.0" encoding="UTF-8" standalone="no"?>
<!DOCTYPE svg PUBLIC "-//W3C//DTD SVG 1.1//EN"
 "http://www.w3.org/Graphics/SVG/1.1/DTD/svg11.dtd">
<!-- Generated by graphviz version 2.43.0 (0)
 -->
<!-- Title: Ogre::Sampler Pages: 1 -->
<svg width="541pt" height="84pt"
 viewBox="0.00 0.00 540.50 84.00" xmlns="http://www.w3.org/2000/svg" xmlns:xlink="http://www.w3.org/1999/xlink">
<g id="graph0" class="graph" transform="scale(1 1) rotate(0) translate(4 80)">
<title>Ogre::Sampler</title>
<!-- Node1 -->
<g id="node1" class="node">
<title>Node1</title>
<g id="a_node1"><a xlink:title="Class which determines how a TextureUnitState accesses data from a Texture.">
<polygon fill="#bfbfbf" stroke="black" points="225.5,-56.5 225.5,-75.5 311.5,-75.5 311.5,-56.5 225.5,-56.5"/>
<text text-anchor="middle" x="268.5" y="-63.5" font-family="Helvetica,sans-Serif" font-size="10.00">Ogre::Sampler</text>
</a>
</g>
</g>
<!-- Node2 -->
<g id="node2" class="node">
<title>Node2</title>
<g id="a_node2"><a xlink:href="class_ogre_1_1_d3_d11_sampler.html" target="_top" xlink:title=" ">
<polygon fill="none" stroke="black" points="0,-0.5 0,-19.5 119,-19.5 119,-0.5 0,-0.5"/>
<text text-anchor="middle" x="59.5" y="-7.5" font-family="Helvetica,sans-Serif" font-size="10.00">Ogre::D3D11Sampler</text>
</a>
</g>
</g>
<!-- Node1&#45;&gt;Node2 -->
<g id="edge1" class="edge">
<title>Node1&#45;&gt;Node2</title>
<path fill="none" stroke="midnightblue" d="M225.52,-53.89C186.05,-43.7 128.4,-28.8 92.46,-19.52"/>
<polygon fill="midnightblue" stroke="midnightblue" points="224.83,-57.33 235.38,-56.44 226.58,-50.55 224.83,-57.33"/>
</g>
<!-- Node3 -->
<g id="node3" class="node">
<title>Node3</title>
<g id="a_node3"><a xlink:href="class_ogre_1_1_g_l3_plus_sampler.html" target="_top" xlink:title=" ">
<polygon fill="none" stroke="black" points="137,-0.5 137,-19.5 262,-19.5 262,-0.5 137,-0.5"/>
<text text-anchor="middle" x="199.5" y="-7.5" font-family="Helvetica,sans-Serif" font-size="10.00">Ogre::GL3PlusSampler</text>
</a>
</g>
</g>
<!-- Node1&#45;&gt;Node3 -->
<g id="edge2" class="edge">
<title>Node1&#45;&gt;Node3</title>
<path fill="none" stroke="midnightblue" d="M249.46,-50.1C237.04,-40.38 221.26,-28.03 210.79,-19.83"/>
<polygon fill="midnightblue" stroke="midnightblue" points="247.38,-52.92 257.41,-56.32 251.7,-47.4 247.38,-52.92"/>
</g>
<!-- Node4 -->
<g id="node4" class="node">
<title>Node4</title>
<g id="a_node4"><a xlink:href="class_ogre_1_1_metal_sampler.html" target="_top" xlink:title=" ">
<polygon fill="none" stroke="black" points="280.5,-0.5 280.5,-19.5 394.5,-19.5 394.5,-0.5 280.5,-0.5"/>
<text text-anchor="middle" x="337.5" y="-7.5" font-family="Helvetica,sans-Serif" font-size="10.00">Ogre::MetalSampler</text>
</a>
</g>
</g>
<!-- Node1&#45;&gt;Node4 -->
<g id="edge3" class="edge">
<title>Node1&#45;&gt;Node4</title>
<path fill="none" stroke="midnightblue" d="M287.54,-50.1C299.96,-40.38 315.74,-28.03 326.21,-19.83"/>
<polygon fill="midnightblue" stroke="midnightblue" points="285.3,-47.4 279.59,-56.32 289.62,-52.92 285.3,-47.4"/>
</g>
<!-- Node5 -->
<g id="node5" class="node">
<title>Node5</title>
<g id="a_node5"><a xlink:href="class_ogre_1_1_vulkan_sampler.html" target="_top" xlink:title=" ">
<polygon fill="none" stroke="black" points="412.5,-0.5 412.5,-19.5 532.5,-19.5 532.5,-0.5 412.5,-0.5"/>
<text text-anchor="middle" x="472.5" y="-7.5" font-family="Helvetica,sans-Serif" font-size="10.00">Ogre::VulkanSampler</text>
</a>
</g>
</g>
<!-- Node1&#45;&gt;Node5 -->
<g id="edge4" class="edge">
<title>Node1&#45;&gt;Node5</title>
<path fill="none" stroke="midnightblue" d="M310.7,-53.83C349.22,-43.63 405.32,-28.78 440.33,-19.52"/>
<polygon fill="midnightblue" stroke="midnightblue" points="309.6,-50.5 300.82,-56.44 311.39,-57.27 309.6,-50.5"/>
</g>
</g>
</svg>
