<?xml version="1.0" encoding="UTF-8" standalone="no"?>
<!DOCTYPE svg PUBLIC "-//W3C//DTD SVG 1.1//EN"
 "http://www.w3.org/Graphics/SVG/1.1/DTD/svg11.dtd">
<!-- Generated by graphviz version 2.43.0 (0)
 -->
<!-- Title: Ogre::D3D9StereoDriverBridge Pages: 1 -->
<svg width="290pt" height="95pt"
 viewBox="0.00 0.00 289.50 95.00" xmlns="http://www.w3.org/2000/svg" xmlns:xlink="http://www.w3.org/1999/xlink">
<g id="graph0" class="graph" transform="scale(1 1) rotate(0) translate(4 91)">
<title>Ogre::D3D9StereoDriverBridge</title>
<!-- Node1 -->
<g id="node1" class="node">
<title>Node1</title>
<g id="a_node1"><a xlink:title="Bridge interface from the render system to the stereo driver.">
<polygon fill="#bfbfbf" stroke="black" points="72.5,-0.5 72.5,-19.5 238.5,-19.5 238.5,-0.5 72.5,-0.5"/>
<text text-anchor="middle" x="155.5" y="-7.5" font-family="Helvetica,sans-Serif" font-size="10.00">Ogre::D3D9StereoDriverBridge</text>
</a>
</g>
</g>
<!-- Node2 -->
<g id="node2" class="node">
<title>Node2</title>
<g id="a_node2"><a xlink:href="class_ogre_1_1_singleton.html" target="_top" xlink:title=" ">
<polygon fill="none" stroke="black" points="0,-56.5 0,-86.5 161,-86.5 161,-56.5 0,-56.5"/>
<text text-anchor="start" x="8" y="-74.5" font-family="Helvetica,sans-Serif" font-size="10.00">Ogre::Singleton&lt; D3D9Stereo</text>
<text text-anchor="middle" x="80.5" y="-63.5" font-family="Helvetica,sans-Serif" font-size="10.00">DriverBridge &gt;</text>
</a>
</g>
</g>
<!-- Node2&#45;&gt;Node1 -->
<g id="edge1" class="edge">
<title>Node2&#45;&gt;Node1</title>
<path fill="none" stroke="midnightblue" d="M106.47,-49.89C119.52,-39.54 134.63,-27.56 144.59,-19.66"/>
<polygon fill="midnightblue" stroke="midnightblue" points="103.93,-47.44 98.27,-56.4 108.28,-52.93 103.93,-47.44"/>
</g>
<!-- Node3 -->
<g id="node3" class="node">
<title>Node3</title>
<g id="a_node3"><a xlink:title=" ">
<polygon fill="none" stroke="#bfbfbf" points="179.5,-62 179.5,-81 281.5,-81 281.5,-62 179.5,-62"/>
<text text-anchor="middle" x="230.5" y="-69" font-family="Helvetica,sans-Serif" font-size="10.00">StereoDriverAlloc</text>
</a>
</g>
</g>
<!-- Node3&#45;&gt;Node1 -->
<g id="edge2" class="edge">
<title>Node3&#45;&gt;Node1</title>
<path fill="none" stroke="midnightblue" d="M211.56,-55.47C197.21,-44.09 178.02,-28.87 166.23,-19.51"/>
<polygon fill="midnightblue" stroke="midnightblue" points="209.74,-58.5 219.75,-61.98 214.1,-53.02 209.74,-58.5"/>
</g>
</g>
</svg>
