<?xml version="1.0" encoding="UTF-8" standalone="no"?>
<!DOCTYPE svg PUBLIC "-//W3C//DTD SVG 1.1//EN"
 "http://www.w3.org/Graphics/SVG/1.1/DTD/svg11.dtd">
<!-- Generated by graphviz version 2.43.0 (0)
 -->
<!-- Title: Ogre::HardwarePixelBuffer Pages: 1 -->
<svg width="818pt" height="285pt"
 viewBox="0.00 0.00 818.00 284.50" xmlns="http://www.w3.org/2000/svg" xmlns:xlink="http://www.w3.org/1999/xlink">
<g id="graph0" class="graph" transform="scale(1 1) rotate(0) translate(4 280.5)">
<title>Ogre::HardwarePixelBuffer</title>
<!-- Node1 -->
<g id="node1" class="node">
<title>Node1</title>
<g id="a_node1"><a xlink:title="Specialisation of HardwareBuffer for a pixel buffer.">
<polygon fill="#bfbfbf" stroke="black" points="266,-118 266,-137 413,-137 413,-118 266,-118"/>
<text text-anchor="middle" x="339.5" y="-125" font-family="Helvetica,sans-Serif" font-size="10.00">Ogre::HardwarePixelBuffer</text>
</a>
</g>
</g>
<!-- Node4 -->
<g id="node4" class="node">
<title>Node4</title>
<g id="a_node4"><a xlink:href="class_ogre_1_1_d3_d11_hardware_pixel_buffer.html" target="_top" xlink:title=" ">
<polygon fill="none" stroke="black" points="461,-225.5 461,-255.5 611,-255.5 611,-225.5 461,-225.5"/>
<text text-anchor="start" x="469" y="-243.5" font-family="Helvetica,sans-Serif" font-size="10.00">Ogre::D3D11HardwarePixel</text>
<text text-anchor="middle" x="536" y="-232.5" font-family="Helvetica,sans-Serif" font-size="10.00">Buffer</text>
</a>
</g>
</g>
<!-- Node1&#45;&gt;Node4 -->
<g id="edge3" class="edge">
<title>Node1&#45;&gt;Node4</title>
<path fill="none" stroke="midnightblue" d="M356.82,-144.32C376.82,-164.04 412.58,-196.44 449,-215.5 456.3,-219.32 464.27,-222.63 472.31,-225.48"/>
<polygon fill="midnightblue" stroke="midnightblue" points="359.26,-141.81 349.72,-137.2 354.3,-146.75 359.26,-141.81"/>
</g>
<!-- Node5 -->
<g id="node5" class="node">
<title>Node5</title>
<g id="a_node5"><a xlink:href="class_ogre_1_1_d3_d9_hardware_pixel_buffer.html" target="_top" xlink:title=" ">
<polygon fill="none" stroke="black" points="449,-187 449,-206 623,-206 623,-187 449,-187"/>
<text text-anchor="middle" x="536" y="-194" font-family="Helvetica,sans-Serif" font-size="10.00">Ogre::D3D9HardwarePixelBuffer</text>
</a>
</g>
</g>
<!-- Node1&#45;&gt;Node5 -->
<g id="edge4" class="edge">
<title>Node1&#45;&gt;Node5</title>
<path fill="none" stroke="midnightblue" d="M366.95,-141.64C388.53,-152.69 420.06,-167.76 449,-177.5 459.87,-181.16 471.75,-184.3 483.12,-186.92"/>
<polygon fill="midnightblue" stroke="midnightblue" points="368.55,-138.53 358.07,-137.03 365.33,-144.74 368.55,-138.53"/>
</g>
<!-- Node6 -->
<g id="node6" class="node">
<title>Node6</title>
<g id="a_node6"><a xlink:href="class_ogre_1_1_g_l_hardware_pixel_buffer_common.html" target="_top" xlink:title=" ">
<polygon fill="none" stroke="black" points="456,-137.5 456,-167.5 616,-167.5 616,-137.5 456,-137.5"/>
<text text-anchor="start" x="464" y="-155.5" font-family="Helvetica,sans-Serif" font-size="10.00">Ogre::GLHardwarePixelBuffer</text>
<text text-anchor="middle" x="536" y="-144.5" font-family="Helvetica,sans-Serif" font-size="10.00">Common</text>
</a>
</g>
</g>
<!-- Node1&#45;&gt;Node6 -->
<g id="edge5" class="edge">
<title>Node1&#45;&gt;Node6</title>
<path fill="none" stroke="midnightblue" d="M423.42,-138.16C434.18,-139.54 445.17,-140.95 455.87,-142.33"/>
<polygon fill="midnightblue" stroke="midnightblue" points="423.57,-134.65 413.2,-136.84 422.67,-141.59 423.57,-134.65"/>
</g>
<!-- Node13 -->
<g id="node13" class="node">
<title>Node13</title>
<g id="a_node13"><a xlink:href="class_ogre_1_1_metal_hardware_pixel_buffer.html" target="_top" xlink:title=" ">
<polygon fill="none" stroke="black" points="463.5,-88.5 463.5,-118.5 608.5,-118.5 608.5,-88.5 463.5,-88.5"/>
<text text-anchor="start" x="471.5" y="-106.5" font-family="Helvetica,sans-Serif" font-size="10.00">Ogre::MetalHardwarePixel</text>
<text text-anchor="middle" x="536" y="-95.5" font-family="Helvetica,sans-Serif" font-size="10.00">Buffer</text>
</a>
</g>
</g>
<!-- Node1&#45;&gt;Node13 -->
<g id="edge12" class="edge">
<title>Node1&#45;&gt;Node13</title>
<path fill="none" stroke="midnightblue" d="M423.3,-117.28C436.63,-115.64 450.32,-113.95 463.36,-112.34"/>
<polygon fill="midnightblue" stroke="midnightblue" points="422.7,-113.83 413.2,-118.53 423.55,-120.78 422.7,-113.83"/>
</g>
<!-- Node15 -->
<g id="node15" class="node">
<title>Node15</title>
<g id="a_node15"><a xlink:href="class_ogre_1_1_tiny_hardware_pixel_buffer.html" target="_top" xlink:title=" ">
<polygon fill="none" stroke="black" points="452.5,-50 452.5,-69 619.5,-69 619.5,-50 452.5,-50"/>
<text text-anchor="middle" x="536" y="-57" font-family="Helvetica,sans-Serif" font-size="10.00">Ogre::TinyHardwarePixelBuffer</text>
</a>
</g>
</g>
<!-- Node1&#45;&gt;Node15 -->
<g id="edge14" class="edge">
<title>Node1&#45;&gt;Node15</title>
<path fill="none" stroke="midnightblue" d="M367.66,-113.34C389.23,-102.55 420.42,-88 449,-78.5 460.03,-74.84 472.09,-71.67 483.59,-69.04"/>
<polygon fill="midnightblue" stroke="midnightblue" points="365.81,-110.35 358.47,-117.99 368.97,-116.6 365.81,-110.35"/>
</g>
<!-- Node16 -->
<g id="node16" class="node">
<title>Node16</title>
<g id="a_node16"><a xlink:href="class_ogre_1_1_vulkan_hardware_pixel_buffer.html" target="_top" xlink:title=" ">
<polygon fill="none" stroke="black" points="460.5,-0.5 460.5,-30.5 611.5,-30.5 611.5,-0.5 460.5,-0.5"/>
<text text-anchor="start" x="468.5" y="-18.5" font-family="Helvetica,sans-Serif" font-size="10.00">Ogre::VulkanHardwarePixel</text>
<text text-anchor="middle" x="536" y="-7.5" font-family="Helvetica,sans-Serif" font-size="10.00">Buffer</text>
</a>
</g>
</g>
<!-- Node1&#45;&gt;Node16 -->
<g id="edge15" class="edge">
<title>Node1&#45;&gt;Node16</title>
<path fill="none" stroke="midnightblue" d="M356.85,-110.88C376.9,-91.4 412.69,-59.38 449,-40.5 456.31,-36.7 464.28,-33.4 472.33,-30.56"/>
<polygon fill="midnightblue" stroke="midnightblue" points="354.39,-108.39 349.74,-117.92 359.31,-113.37 354.39,-108.39"/>
</g>
<!-- Node2 -->
<g id="node2" class="node">
<title>Node2</title>
<g id="a_node2"><a xlink:href="class_ogre_1_1_hardware_buffer.html" target="_top" xlink:title="Abstract class defining common features of hardware buffers.">
<polygon fill="none" stroke="black" points="107,-118 107,-137 230,-137 230,-118 107,-118"/>
<text text-anchor="middle" x="168.5" y="-125" font-family="Helvetica,sans-Serif" font-size="10.00">Ogre::HardwareBuffer</text>
</a>
</g>
</g>
<!-- Node2&#45;&gt;Node1 -->
<g id="edge1" class="edge">
<title>Node2&#45;&gt;Node1</title>
<path fill="none" stroke="midnightblue" d="M240.28,-127.5C248.78,-127.5 257.46,-127.5 265.98,-127.5"/>
<polygon fill="midnightblue" stroke="midnightblue" points="240.04,-124 230.04,-127.5 240.04,-131 240.04,-124"/>
</g>
<!-- Node3 -->
<g id="node3" class="node">
<title>Node3</title>
<g id="a_node3"><a xlink:title=" ">
<polygon fill="none" stroke="#bfbfbf" points="0,-118 0,-137 71,-137 71,-118 0,-118"/>
<text text-anchor="middle" x="35.5" y="-125" font-family="Helvetica,sans-Serif" font-size="10.00">BufferAlloc</text>
</a>
</g>
</g>
<!-- Node3&#45;&gt;Node2 -->
<g id="edge2" class="edge">
<title>Node3&#45;&gt;Node2</title>
<path fill="none" stroke="midnightblue" d="M81.4,-127.5C89.64,-127.5 98.37,-127.5 106.99,-127.5"/>
<polygon fill="midnightblue" stroke="midnightblue" points="81.26,-124 71.26,-127.5 81.26,-131 81.26,-124"/>
</g>
<!-- Node7 -->
<g id="node7" class="node">
<title>Node7</title>
<g id="a_node7"><a xlink:href="class_ogre_1_1_g_l3_plus_render_buffer.html" target="_top" xlink:title="Renderbuffer surface.">
<polygon fill="none" stroke="black" points="660,-257 660,-276 809,-276 809,-257 660,-257"/>
<text text-anchor="middle" x="734.5" y="-264" font-family="Helvetica,sans-Serif" font-size="10.00">Ogre::GL3PlusRenderBuffer</text>
</a>
</g>
</g>
<!-- Node6&#45;&gt;Node7 -->
<g id="edge6" class="edge">
<title>Node6&#45;&gt;Node7</title>
<path fill="none" stroke="midnightblue" d="M616.55,-172.77C618.8,-174.24 620.95,-175.81 623,-177.5 650,-199.75 631.64,-225.7 659,-247.5 663.8,-251.33 669.28,-254.39 675.05,-256.84"/>
<polygon fill="midnightblue" stroke="midnightblue" points="617.95,-169.54 607.53,-167.62 614.48,-175.62 617.95,-169.54"/>
</g>
<!-- Node8 -->
<g id="node8" class="node">
<title>Node8</title>
<g id="a_node8"><a xlink:href="class_ogre_1_1_g_l3_plus_texture_buffer.html" target="_top" xlink:title="Texture surface.">
<polygon fill="none" stroke="black" points="659,-219 659,-238 810,-238 810,-219 659,-219"/>
<text text-anchor="middle" x="734.5" y="-226" font-family="Helvetica,sans-Serif" font-size="10.00">Ogre::GL3PlusTextureBuffer</text>
</a>
</g>
</g>
<!-- Node6&#45;&gt;Node8 -->
<g id="edge7" class="edge">
<title>Node6&#45;&gt;Node8</title>
<path fill="none" stroke="midnightblue" d="M610.42,-171.37C614.76,-173.24 618.99,-175.28 623,-177.5 641.74,-187.85 640.09,-199.46 659,-209.5 666.31,-213.38 674.45,-216.5 682.59,-218.99"/>
<polygon fill="midnightblue" stroke="midnightblue" points="611.35,-167.98 600.77,-167.54 608.77,-174.49 611.35,-167.98"/>
</g>
<!-- Node9 -->
<g id="node9" class="node">
<title>Node9</title>
<g id="a_node9"><a xlink:href="class_ogre_1_1_g_l_e_s2_render_buffer.html" target="_top" xlink:title=" ">
<polygon fill="none" stroke="black" points="664,-181 664,-200 805,-200 805,-181 664,-181"/>
<text text-anchor="middle" x="734.5" y="-188" font-family="Helvetica,sans-Serif" font-size="10.00">Ogre::GLES2RenderBuffer</text>
</a>
</g>
</g>
<!-- Node6&#45;&gt;Node9 -->
<g id="edge8" class="edge">
<title>Node6&#45;&gt;Node9</title>
<path fill="none" stroke="midnightblue" d="M624.65,-169.45C645.15,-173.41 666.26,-177.5 684.37,-181"/>
<polygon fill="midnightblue" stroke="midnightblue" points="625.14,-165.98 614.66,-167.52 623.82,-172.85 625.14,-165.98"/>
</g>
<!-- Node10 -->
<g id="node10" class="node">
<title>Node10</title>
<g id="a_node10"><a xlink:href="class_ogre_1_1_g_l_e_s2_texture_buffer.html" target="_top" xlink:title=" ">
<polygon fill="none" stroke="black" points="663,-143 663,-162 806,-162 806,-143 663,-143"/>
<text text-anchor="middle" x="734.5" y="-150" font-family="Helvetica,sans-Serif" font-size="10.00">Ogre::GLES2TextureBuffer</text>
</a>
</g>
</g>
<!-- Node6&#45;&gt;Node10 -->
<g id="edge9" class="edge">
<title>Node6&#45;&gt;Node10</title>
<path fill="none" stroke="midnightblue" d="M626.3,-152.5C638.55,-152.5 650.98,-152.5 662.83,-152.5"/>
<polygon fill="midnightblue" stroke="midnightblue" points="626.07,-149 616.07,-152.5 626.07,-156 626.07,-149"/>
</g>
<!-- Node11 -->
<g id="node11" class="node">
<title>Node11</title>
<g id="a_node11"><a xlink:href="class_ogre_1_1_g_l_render_buffer.html" target="_top" xlink:title="Renderbuffer surface.">
<polygon fill="none" stroke="black" points="673,-105 673,-124 796,-124 796,-105 673,-105"/>
<text text-anchor="middle" x="734.5" y="-112" font-family="Helvetica,sans-Serif" font-size="10.00">Ogre::GLRenderBuffer</text>
</a>
</g>
</g>
<!-- Node6&#45;&gt;Node11 -->
<g id="edge10" class="edge">
<title>Node6&#45;&gt;Node11</title>
<path fill="none" stroke="midnightblue" d="M624.65,-135.55C645.15,-131.59 666.26,-127.5 684.37,-124"/>
<polygon fill="midnightblue" stroke="midnightblue" points="623.82,-132.15 614.66,-137.48 625.14,-139.02 623.82,-132.15"/>
</g>
<!-- Node12 -->
<g id="node12" class="node">
<title>Node12</title>
<g id="a_node12"><a xlink:href="class_ogre_1_1_g_l_texture_buffer.html" target="_top" xlink:title="Texture surface.">
<polygon fill="none" stroke="black" points="672.5,-67 672.5,-86 796.5,-86 796.5,-67 672.5,-67"/>
<text text-anchor="middle" x="734.5" y="-74" font-family="Helvetica,sans-Serif" font-size="10.00">Ogre::GLTextureBuffer</text>
</a>
</g>
</g>
<!-- Node6&#45;&gt;Node12 -->
<g id="edge11" class="edge">
<title>Node6&#45;&gt;Node12</title>
<path fill="none" stroke="midnightblue" d="M612.9,-133.53C616.38,-131.97 619.76,-130.3 623,-128.5 641.97,-117.96 639.91,-105.83 659,-95.5 666.16,-91.63 674.14,-88.52 682.14,-86.03"/>
<polygon fill="midnightblue" stroke="midnightblue" points="611.46,-130.33 603.53,-137.37 614.12,-136.81 611.46,-130.33"/>
</g>
<!-- Node14 -->
<g id="node14" class="node">
<title>Node14</title>
<g id="a_node14"><a xlink:href="class_ogre_1_1_metal_texture_buffer.html" target="_top" xlink:title="Texture surface.">
<polygon fill="none" stroke="black" points="664.5,-29 664.5,-48 804.5,-48 804.5,-29 664.5,-29"/>
<text text-anchor="middle" x="734.5" y="-36" font-family="Helvetica,sans-Serif" font-size="10.00">Ogre::MetalTextureBuffer</text>
</a>
</g>
</g>
<!-- Node13&#45;&gt;Node14 -->
<g id="edge13" class="edge">
<title>Node13&#45;&gt;Node14</title>
<path fill="none" stroke="midnightblue" d="M605.87,-85.13C611.73,-83.07 617.51,-80.86 623,-78.5 640.02,-71.19 641.86,-64.52 659,-57.5 668.02,-53.81 677.95,-50.67 687.54,-48.08"/>
<polygon fill="midnightblue" stroke="midnightblue" points="604.34,-81.95 595.97,-88.45 606.56,-88.59 604.34,-81.95"/>
</g>
</g>
</svg>
