<?xml version="1.0" encoding="UTF-8" standalone="no"?>
<!DOCTYPE svg PUBLIC "-//W3C//DTD SVG 1.1//EN"
 "http://www.w3.org/Graphics/SVG/1.1/DTD/svg11.dtd">
<!-- Generated by graphviz version 2.43.0 (0)
 -->
<!-- Title: Ogre::IteratorWrapper&lt; T, IteratorType, ValType &gt; Pages: 1 -->
<svg width="559pt" height="186pt"
 viewBox="0.00 0.00 559.00 186.00" xmlns="http://www.w3.org/2000/svg" xmlns:xlink="http://www.w3.org/1999/xlink">
<g id="graph0" class="graph" transform="scale(1 1) rotate(0) translate(4 182)">
<title>Ogre::IteratorWrapper&lt; T, IteratorType, ValType &gt;</title>
<!-- Node1 -->
<g id="node1" class="node">
<title>Node1</title>
<g id="a_node1"><a xlink:title="Basefunctionality for IteratorWrappers.">
<polygon fill="#bfbfbf" stroke="black" points="0,-73.5 0,-103.5 154,-103.5 154,-73.5 0,-73.5"/>
<text text-anchor="start" x="8" y="-91.5" font-family="Helvetica,sans-Serif" font-size="10.00">Ogre::IteratorWrapper</text>
<text text-anchor="middle" x="77" y="-80.5" font-family="Helvetica,sans-Serif" font-size="10.00">&lt; T, IteratorType, ValType &gt;</text>
</a>
</g>
</g>
<!-- Node2 -->
<g id="node2" class="node">
<title>Node2</title>
<g id="a_node2"><a xlink:href="class_ogre_1_1_map_iterator_wrapper.html" target="_top" xlink:title=" ">
<polygon fill="none" stroke="black" points="195.5,-147.5 195.5,-177.5 339.5,-177.5 339.5,-147.5 195.5,-147.5"/>
<text text-anchor="start" x="203.5" y="-165.5" font-family="Helvetica,sans-Serif" font-size="10.00">Ogre::MapIteratorWrapper</text>
<text text-anchor="middle" x="267.5" y="-154.5" font-family="Helvetica,sans-Serif" font-size="10.00">&lt; T, T::iterator &gt;</text>
</a>
</g>
</g>
<!-- Node1&#45;&gt;Node2 -->
<g id="edge1" class="edge">
<title>Node1&#45;&gt;Node2</title>
<path fill="none" stroke="midnightblue" d="M118.73,-108.05C139.77,-117.8 166,-129.41 190,-138.5 198.2,-141.61 207,-144.64 215.6,-147.44"/>
<polygon fill="midnightblue" stroke="midnightblue" points="119.99,-104.78 109.45,-103.72 117.03,-111.12 119.99,-104.78"/>
</g>
<!-- Node4 -->
<g id="node4" class="node">
<title>Node4</title>
<g id="a_node4"><a xlink:href="class_ogre_1_1_map_iterator_wrapper.html" target="_top" xlink:title=" ">
<polygon fill="none" stroke="black" points="195.5,-98.5 195.5,-128.5 339.5,-128.5 339.5,-98.5 195.5,-98.5"/>
<text text-anchor="start" x="203.5" y="-116.5" font-family="Helvetica,sans-Serif" font-size="10.00">Ogre::MapIteratorWrapper</text>
<text text-anchor="middle" x="267.5" y="-105.5" font-family="Helvetica,sans-Serif" font-size="10.00">&lt; T, T::const_iterator &gt;</text>
</a>
</g>
</g>
<!-- Node1&#45;&gt;Node4 -->
<g id="edge3" class="edge">
<title>Node1&#45;&gt;Node4</title>
<path fill="none" stroke="midnightblue" d="M164.08,-99.92C174.51,-101.3 185.09,-102.7 195.28,-104.05"/>
<polygon fill="midnightblue" stroke="midnightblue" points="164.5,-96.44 154.13,-98.6 163.58,-103.38 164.5,-96.44"/>
</g>
<!-- Node6 -->
<g id="node6" class="node">
<title>Node6</title>
<g id="a_node6"><a xlink:href="class_ogre_1_1_vector_iterator_wrapper.html" target="_top" xlink:title=" ">
<polygon fill="none" stroke="black" points="190,-49.5 190,-79.5 345,-79.5 345,-49.5 190,-49.5"/>
<text text-anchor="start" x="198" y="-67.5" font-family="Helvetica,sans-Serif" font-size="10.00">Ogre::VectorIteratorWrapper</text>
<text text-anchor="middle" x="267.5" y="-56.5" font-family="Helvetica,sans-Serif" font-size="10.00">&lt; T, T::iterator &gt;</text>
</a>
</g>
</g>
<!-- Node1&#45;&gt;Node6 -->
<g id="edge5" class="edge">
<title>Node1&#45;&gt;Node6</title>
<path fill="none" stroke="midnightblue" d="M164.12,-77.54C172.68,-76.45 181.33,-75.34 189.78,-74.27"/>
<polygon fill="midnightblue" stroke="midnightblue" points="163.6,-74.07 154.13,-78.81 164.49,-81.02 163.6,-74.07"/>
</g>
<!-- Node8 -->
<g id="node8" class="node">
<title>Node8</title>
<g id="a_node8"><a xlink:href="class_ogre_1_1_vector_iterator_wrapper.html" target="_top" xlink:title=" ">
<polygon fill="none" stroke="black" points="190,-0.5 190,-30.5 345,-30.5 345,-0.5 190,-0.5"/>
<text text-anchor="start" x="198" y="-18.5" font-family="Helvetica,sans-Serif" font-size="10.00">Ogre::VectorIteratorWrapper</text>
<text text-anchor="middle" x="267.5" y="-7.5" font-family="Helvetica,sans-Serif" font-size="10.00">&lt; T, T::const_iterator &gt;</text>
</a>
</g>
</g>
<!-- Node1&#45;&gt;Node8 -->
<g id="edge7" class="edge">
<title>Node1&#45;&gt;Node8</title>
<path fill="none" stroke="midnightblue" d="M120.22,-69.35C141.05,-60.18 166.65,-49.3 190,-40.5 199.02,-37.1 208.74,-33.72 218.12,-30.59"/>
<polygon fill="midnightblue" stroke="midnightblue" points="118.73,-66.18 111.01,-73.43 121.57,-72.58 118.73,-66.18"/>
</g>
<!-- Node3 -->
<g id="node3" class="node">
<title>Node3</title>
<g id="a_node3"><a xlink:href="class_ogre_1_1_map_iterator.html" target="_top" xlink:title="Concrete IteratorWrapper for nonconst access to the underlying key&#45;value container.">
<polygon fill="none" stroke="black" points="400.5,-153 400.5,-172 531.5,-172 531.5,-153 400.5,-153"/>
<text text-anchor="middle" x="466" y="-160" font-family="Helvetica,sans-Serif" font-size="10.00">Ogre::MapIterator&lt; T &gt;</text>
</a>
</g>
</g>
<!-- Node2&#45;&gt;Node3 -->
<g id="edge2" class="edge">
<title>Node2&#45;&gt;Node3</title>
<path fill="none" stroke="midnightblue" d="M350.04,-162.5C366.77,-162.5 384.17,-162.5 400.22,-162.5"/>
<polygon fill="midnightblue" stroke="midnightblue" points="349.72,-159 339.72,-162.5 349.72,-166 349.72,-159"/>
</g>
<!-- Node5 -->
<g id="node5" class="node">
<title>Node5</title>
<g id="a_node5"><a xlink:href="class_ogre_1_1_const_map_iterator.html" target="_top" xlink:title="Concrete IteratorWrapper for const access to the underlying key&#45;value container.">
<polygon fill="none" stroke="black" points="386.5,-104 386.5,-123 545.5,-123 545.5,-104 386.5,-104"/>
<text text-anchor="middle" x="466" y="-111" font-family="Helvetica,sans-Serif" font-size="10.00">Ogre::ConstMapIterator&lt; T &gt;</text>
</a>
</g>
</g>
<!-- Node4&#45;&gt;Node5 -->
<g id="edge4" class="edge">
<title>Node4&#45;&gt;Node5</title>
<path fill="none" stroke="midnightblue" d="M349.78,-113.5C361.88,-113.5 374.34,-113.5 386.38,-113.5"/>
<polygon fill="midnightblue" stroke="midnightblue" points="349.72,-110 339.72,-113.5 349.72,-117 349.72,-110"/>
</g>
<!-- Node7 -->
<g id="node7" class="node">
<title>Node7</title>
<g id="a_node7"><a xlink:href="class_ogre_1_1_vector_iterator.html" target="_top" xlink:title="Concrete IteratorWrapper for nonconst access to the underlying container.">
<polygon fill="none" stroke="black" points="395,-55 395,-74 537,-74 537,-55 395,-55"/>
<text text-anchor="middle" x="466" y="-62" font-family="Helvetica,sans-Serif" font-size="10.00">Ogre::VectorIterator&lt; T &gt;</text>
</a>
</g>
</g>
<!-- Node6&#45;&gt;Node7 -->
<g id="edge6" class="edge">
<title>Node6&#45;&gt;Node7</title>
<path fill="none" stroke="midnightblue" d="M355.1,-64.5C368.37,-64.5 381.92,-64.5 394.77,-64.5"/>
<polygon fill="midnightblue" stroke="midnightblue" points="355.03,-61 345.03,-64.5 355.03,-68 355.03,-61"/>
</g>
<!-- Node9 -->
<g id="node9" class="node">
<title>Node9</title>
<g id="a_node9"><a xlink:href="class_ogre_1_1_const_vector_iterator.html" target="_top" xlink:title="Concrete IteratorWrapper for const access to the underlying container.">
<polygon fill="none" stroke="black" points="381,-6 381,-25 551,-25 551,-6 381,-6"/>
<text text-anchor="middle" x="466" y="-13" font-family="Helvetica,sans-Serif" font-size="10.00">Ogre::ConstVectorIterator&lt; T &gt;</text>
</a>
</g>
</g>
<!-- Node8&#45;&gt;Node9 -->
<g id="edge8" class="edge">
<title>Node8&#45;&gt;Node9</title>
<path fill="none" stroke="midnightblue" d="M355.31,-15.5C363.8,-15.5 372.4,-15.5 380.86,-15.5"/>
<polygon fill="midnightblue" stroke="midnightblue" points="355.03,-12 345.03,-15.5 355.03,-19 355.03,-12"/>
</g>
</g>
</svg>
