<?xml version="1.0" encoding="UTF-8" standalone="no"?>
<!DOCTYPE svg PUBLIC "-//W3C//DTD SVG 1.1//EN"
 "http://www.w3.org/Graphics/SVG/1.1/DTD/svg11.dtd">
<!-- Generated by graphviz version 2.43.0 (0)
 -->
<!-- Title: Ogre::Volume::IsoSurface Pages: 1 -->
<svg width="164pt" height="140pt"
 viewBox="0.00 0.00 164.00 140.00" xmlns="http://www.w3.org/2000/svg" xmlns:xlink="http://www.w3.org/1999/xlink">
<g id="graph0" class="graph" transform="scale(1 1) rotate(0) translate(4 136)">
<title>Ogre::Volume::IsoSurface</title>
<!-- Node1 -->
<g id="node1" class="node">
<title>Node1</title>
<g id="a_node1"><a xlink:title="Abstract IsoSurface.">
<polygon fill="#bfbfbf" stroke="black" points="8,-56.5 8,-75.5 148,-75.5 148,-56.5 8,-56.5"/>
<text text-anchor="middle" x="78" y="-63.5" font-family="Helvetica,sans-Serif" font-size="10.00">Ogre::Volume::IsoSurface</text>
</a>
</g>
</g>
<!-- Node3 -->
<g id="node3" class="node">
<title>Node3</title>
<g id="a_node3"><a xlink:href="class_ogre_1_1_volume_1_1_iso_surface_m_c.html" target="_top" xlink:title="Marching Cubes implementation like at http://local.wasp.uwa.edu.au/~pbourke/geometry/polygonise/.">
<polygon fill="none" stroke="black" points="0,-0.5 0,-19.5 156,-19.5 156,-0.5 0,-0.5"/>
<text text-anchor="middle" x="78" y="-7.5" font-family="Helvetica,sans-Serif" font-size="10.00">Ogre::Volume::IsoSurfaceMC</text>
</a>
</g>
</g>
<!-- Node1&#45;&gt;Node3 -->
<g id="edge2" class="edge">
<title>Node1&#45;&gt;Node3</title>
<path fill="none" stroke="midnightblue" d="M78,-45.8C78,-36.91 78,-26.78 78,-19.75"/>
<polygon fill="midnightblue" stroke="midnightblue" points="74.5,-46.08 78,-56.08 81.5,-46.08 74.5,-46.08"/>
</g>
<!-- Node2 -->
<g id="node2" class="node">
<title>Node2</title>
<g id="a_node2"><a xlink:title=" ">
<polygon fill="none" stroke="#bfbfbf" points="42.5,-112.5 42.5,-131.5 113.5,-131.5 113.5,-112.5 42.5,-112.5"/>
<text text-anchor="middle" x="78" y="-119.5" font-family="Helvetica,sans-Serif" font-size="10.00">UtilityAlloc</text>
</a>
</g>
</g>
<!-- Node2&#45;&gt;Node1 -->
<g id="edge1" class="edge">
<title>Node2&#45;&gt;Node1</title>
<path fill="none" stroke="midnightblue" d="M78,-101.8C78,-92.91 78,-82.78 78,-75.75"/>
<polygon fill="midnightblue" stroke="midnightblue" points="74.5,-102.08 78,-112.08 81.5,-102.08 74.5,-102.08"/>
</g>
</g>
</svg>
