<?xml version="1.0" encoding="UTF-8" standalone="no"?>
<!DOCTYPE svg PUBLIC "-//W3C//DTD SVG 1.1//EN"
 "http://www.w3.org/Graphics/SVG/1.1/DTD/svg11.dtd">
<!-- Generated by graphviz version 2.43.0 (0)
 -->
<!-- Title: Ogre::RTShader::FunctionAtom Pages: 1 -->
<svg width="567pt" height="192pt"
 viewBox="0.00 0.00 567.00 192.00" xmlns="http://www.w3.org/2000/svg" xmlns:xlink="http://www.w3.org/1999/xlink">
<g id="graph0" class="graph" transform="scale(1 1) rotate(0) translate(4 188)">
<title>Ogre::RTShader::FunctionAtom</title>
<!-- Node1 -->
<g id="node1" class="node">
<title>Node1</title>
<g id="a_node1"><a xlink:title="A class that represents an atomic code section of shader based program function.">
<polygon fill="#bfbfbf" stroke="black" points="160,-88.5 160,-107.5 326,-107.5 326,-88.5 160,-88.5"/>
<text text-anchor="middle" x="243" y="-95.5" font-family="Helvetica,sans-Serif" font-size="10.00">Ogre::RTShader::FunctionAtom</text>
</a>
</g>
</g>
<!-- Node3 -->
<g id="node3" class="node">
<title>Node3</title>
<g id="a_node3"><a xlink:href="class_ogre_1_1_r_t_shader_1_1_assignment_atom.html" target="_top" xlink:title="shorthand for &quot;lhs = rhs;&quot; insted of using FFP_Assign(rhs, lhs)">
<polygon fill="none" stroke="black" points="369.5,-164.5 369.5,-183.5 551.5,-183.5 551.5,-164.5 369.5,-164.5"/>
<text text-anchor="middle" x="460.5" y="-171.5" font-family="Helvetica,sans-Serif" font-size="10.00">Ogre::RTShader::AssignmentAtom</text>
</a>
</g>
</g>
<!-- Node1&#45;&gt;Node3 -->
<g id="edge2" class="edge">
<title>Node1&#45;&gt;Node3</title>
<path fill="none" stroke="midnightblue" d="M269.13,-112.5C292.49,-125.39 328.61,-143.89 362,-155 373.37,-158.78 385.76,-161.91 397.76,-164.47"/>
<polygon fill="midnightblue" stroke="midnightblue" points="270.67,-109.35 260.24,-107.52 267.25,-115.46 270.67,-109.35"/>
</g>
<!-- Node4 -->
<g id="node4" class="node">
<title>Node4</title>
<g id="a_node4"><a xlink:href="class_ogre_1_1_r_t_shader_1_1_binary_op_atom.html" target="_top" xlink:title="shorthand for &quot;dst = a OP b;&quot;">
<polygon fill="none" stroke="black" points="375.5,-126.5 375.5,-145.5 545.5,-145.5 545.5,-126.5 375.5,-126.5"/>
<text text-anchor="middle" x="460.5" y="-133.5" font-family="Helvetica,sans-Serif" font-size="10.00">Ogre::RTShader::BinaryOpAtom</text>
</a>
</g>
</g>
<!-- Node1&#45;&gt;Node4 -->
<g id="edge3" class="edge">
<title>Node1&#45;&gt;Node4</title>
<path fill="none" stroke="midnightblue" d="M308.35,-109.35C339.27,-114.8 375.91,-121.26 405.38,-126.46"/>
<polygon fill="midnightblue" stroke="midnightblue" points="308.56,-105.83 298.1,-107.54 307.34,-112.72 308.56,-105.83"/>
</g>
<!-- Node5 -->
<g id="node5" class="node">
<title>Node5</title>
<g id="a_node5"><a xlink:href="class_ogre_1_1_r_t_shader_1_1_builtin_function_atom.html" target="_top" xlink:title="shorthand for &quot;dst = BUILTIN(args);&quot;">
<polygon fill="none" stroke="black" points="362,-88.5 362,-107.5 559,-107.5 559,-88.5 362,-88.5"/>
<text text-anchor="middle" x="460.5" y="-95.5" font-family="Helvetica,sans-Serif" font-size="10.00">Ogre::RTShader::BuiltinFunctionAtom</text>
</a>
</g>
</g>
<!-- Node1&#45;&gt;Node5 -->
<g id="edge4" class="edge">
<title>Node1&#45;&gt;Node5</title>
<path fill="none" stroke="midnightblue" d="M336.29,-98C344.71,-98 353.27,-98 361.74,-98"/>
<polygon fill="midnightblue" stroke="midnightblue" points="336.09,-94.5 326.09,-98 336.09,-101.5 336.09,-94.5"/>
</g>
<!-- Node6 -->
<g id="node6" class="node">
<title>Node6</title>
<g id="a_node6"><a xlink:href="class_ogre_1_1_r_t_shader_1_1_function_invocation.html" target="_top" xlink:title="A class that represents function invocation code from shader based program function.">
<polygon fill="none" stroke="black" points="390.5,-39 390.5,-69 530.5,-69 530.5,-39 390.5,-39"/>
<text text-anchor="start" x="398.5" y="-57" font-family="Helvetica,sans-Serif" font-size="10.00">Ogre::RTShader::Function</text>
<text text-anchor="middle" x="460.5" y="-46" font-family="Helvetica,sans-Serif" font-size="10.00">Invocation</text>
</a>
</g>
</g>
<!-- Node1&#45;&gt;Node6 -->
<g id="edge5" class="edge">
<title>Node1&#45;&gt;Node6</title>
<path fill="none" stroke="midnightblue" d="M300.6,-86.44C328.08,-80.83 361.34,-74.04 390.32,-68.13"/>
<polygon fill="midnightblue" stroke="midnightblue" points="299.86,-83.02 290.76,-88.45 301.26,-89.88 299.86,-83.02"/>
</g>
<!-- Node7 -->
<g id="node7" class="node">
<title>Node7</title>
<g id="a_node7"><a xlink:href="class_ogre_1_1_r_t_shader_1_1_sample_texture_atom.html" target="_top" xlink:title="shorthand for &quot;dst = texture(sampler, uv);&quot; instead of using FFP_SampleTexture">
<polygon fill="none" stroke="black" points="362,-0.5 362,-19.5 559,-19.5 559,-0.5 362,-0.5"/>
<text text-anchor="middle" x="460.5" y="-7.5" font-family="Helvetica,sans-Serif" font-size="10.00">Ogre::RTShader::SampleTextureAtom</text>
</a>
</g>
</g>
<!-- Node1&#45;&gt;Node7 -->
<g id="edge6" class="edge">
<title>Node1&#45;&gt;Node7</title>
<path fill="none" stroke="midnightblue" d="M265.31,-82.54C288.13,-66.73 325.93,-42.61 362,-29 372.25,-25.13 383.41,-22.02 394.4,-19.52"/>
<polygon fill="midnightblue" stroke="midnightblue" points="263.22,-79.73 257.06,-88.35 267.25,-85.46 263.22,-79.73"/>
</g>
<!-- Node2 -->
<g id="node2" class="node">
<title>Node2</title>
<g id="a_node2"><a xlink:title=" ">
<polygon fill="none" stroke="#bfbfbf" points="0,-88.5 0,-107.5 124,-107.5 124,-88.5 0,-88.5"/>
<text text-anchor="middle" x="62" y="-95.5" font-family="Helvetica,sans-Serif" font-size="10.00">RTShaderSystemAlloc</text>
</a>
</g>
</g>
<!-- Node2&#45;&gt;Node1 -->
<g id="edge1" class="edge">
<title>Node2&#45;&gt;Node1</title>
<path fill="none" stroke="midnightblue" d="M134.27,-98C142.71,-98 151.38,-98 159.96,-98"/>
<polygon fill="midnightblue" stroke="midnightblue" points="134.1,-94.5 124.1,-98 134.1,-101.5 134.1,-94.5"/>
</g>
</g>
</svg>
