<?xml version="1.0" encoding="UTF-8" standalone="no"?>
<!DOCTYPE svg PUBLIC "-//W3C//DTD SVG 1.1//EN"
 "http://www.w3.org/Graphics/SVG/1.1/DTD/svg11.dtd">
<!-- Generated by graphviz version 2.43.0 (0)
 -->
<!-- Title: Ogre::Volume::Source Pages: 1 -->
<svg width="556pt" height="329pt"
 viewBox="0.00 0.00 556.00 328.50" xmlns="http://www.w3.org/2000/svg" xmlns:xlink="http://www.w3.org/1999/xlink">
<g id="graph0" class="graph" transform="scale(1 1) rotate(0) translate(4 324.5)">
<title>Ogre::Volume::Source</title>
<!-- Node1 -->
<g id="node1" class="node">
<title>Node1</title>
<g id="a_node1"><a xlink:title="Abstract class defining the density function.">
<polygon fill="#bfbfbf" stroke="black" points="0,-164.5 0,-183.5 122,-183.5 122,-164.5 0,-164.5"/>
<text text-anchor="middle" x="61" y="-171.5" font-family="Helvetica,sans-Serif" font-size="10.00">Ogre::Volume::Source</text>
</a>
</g>
</g>
<!-- Node2 -->
<g id="node2" class="node">
<title>Node2</title>
<g id="a_node2"><a xlink:href="class_ogre_1_1_volume_1_1_c_s_g_cube_source.html" target="_top" xlink:title="A not rotated cube.">
<polygon fill="none" stroke="black" points="162.5,-290.5 162.5,-309.5 329.5,-309.5 329.5,-290.5 162.5,-290.5"/>
<text text-anchor="middle" x="246" y="-297.5" font-family="Helvetica,sans-Serif" font-size="10.00">Ogre::Volume::CSGCubeSource</text>
</a>
</g>
</g>
<!-- Node1&#45;&gt;Node2 -->
<g id="edge1" class="edge">
<title>Node1&#45;&gt;Node2</title>
<path fill="none" stroke="midnightblue" d="M72.99,-192.11C88.7,-216.34 119.92,-258.83 158,-281 164.68,-284.89 172.07,-287.98 179.64,-290.45"/>
<polygon fill="midnightblue" stroke="midnightblue" points="75.87,-190.11 67.58,-183.51 69.95,-193.84 75.87,-190.11"/>
</g>
<!-- Node3 -->
<g id="node3" class="node">
<title>Node3</title>
<g id="a_node3"><a xlink:href="class_ogre_1_1_volume_1_1_c_s_g_operation_source.html" target="_top" xlink:title="Abstract operation volume source holding two sources as operants.">
<polygon fill="none" stroke="black" points="167,-241 167,-271 325,-271 325,-241 167,-241"/>
<text text-anchor="start" x="175" y="-259" font-family="Helvetica,sans-Serif" font-size="10.00">Ogre::Volume::CSGOperation</text>
<text text-anchor="middle" x="246" y="-248" font-family="Helvetica,sans-Serif" font-size="10.00">Source</text>
</a>
</g>
</g>
<!-- Node1&#45;&gt;Node3 -->
<g id="edge2" class="edge">
<title>Node1&#45;&gt;Node3</title>
<path fill="none" stroke="midnightblue" d="M84.2,-189.41C103.12,-201.99 131.39,-219.5 158,-231 166.51,-234.68 175.72,-237.99 184.85,-240.9"/>
<polygon fill="midnightblue" stroke="midnightblue" points="85.96,-186.38 75.71,-183.68 82.04,-192.18 85.96,-186.38"/>
</g>
<!-- Node7 -->
<g id="node7" class="node">
<title>Node7</title>
<g id="a_node7"><a xlink:href="class_ogre_1_1_volume_1_1_c_s_g_plane_source.html" target="_top" xlink:title="A plane.">
<polygon fill="none" stroke="black" points="161,-202.5 161,-221.5 331,-221.5 331,-202.5 161,-202.5"/>
<text text-anchor="middle" x="246" y="-209.5" font-family="Helvetica,sans-Serif" font-size="10.00">Ogre::Volume::CSGPlaneSource</text>
</a>
</g>
</g>
<!-- Node1&#45;&gt;Node7 -->
<g id="edge6" class="edge">
<title>Node1&#45;&gt;Node7</title>
<path fill="none" stroke="midnightblue" d="M118.25,-185.68C144.21,-191.07 174.62,-197.39 199.15,-202.48"/>
<polygon fill="midnightblue" stroke="midnightblue" points="118.68,-182.2 108.18,-183.59 117.26,-189.05 118.68,-182.2"/>
</g>
<!-- Node8 -->
<g id="node8" class="node">
<title>Node8</title>
<g id="a_node8"><a xlink:href="class_ogre_1_1_volume_1_1_c_s_g_sphere_source.html" target="_top" xlink:title="A sphere.">
<polygon fill="none" stroke="black" points="158,-164.5 158,-183.5 334,-183.5 334,-164.5 158,-164.5"/>
<text text-anchor="middle" x="246" y="-171.5" font-family="Helvetica,sans-Serif" font-size="10.00">Ogre::Volume::CSGSphereSource</text>
</a>
</g>
</g>
<!-- Node1&#45;&gt;Node8 -->
<g id="edge7" class="edge">
<title>Node1&#45;&gt;Node8</title>
<path fill="none" stroke="midnightblue" d="M132.28,-174C140.68,-174 149.34,-174 157.94,-174"/>
<polygon fill="midnightblue" stroke="midnightblue" points="132.17,-170.5 122.17,-174 132.17,-177.5 132.17,-170.5"/>
</g>
<!-- Node9 -->
<g id="node9" class="node">
<title>Node9</title>
<g id="a_node9"><a xlink:href="class_ogre_1_1_volume_1_1_c_s_g_unary_source.html" target="_top" xlink:title="Source which does a unary operation to another one.">
<polygon fill="none" stroke="black" points="160,-126.5 160,-145.5 332,-145.5 332,-126.5 160,-126.5"/>
<text text-anchor="middle" x="246" y="-133.5" font-family="Helvetica,sans-Serif" font-size="10.00">Ogre::Volume::CSGUnarySource</text>
</a>
</g>
</g>
<!-- Node1&#45;&gt;Node9 -->
<g id="edge8" class="edge">
<title>Node1&#45;&gt;Node9</title>
<path fill="none" stroke="midnightblue" d="M118.25,-162.32C144.21,-156.93 174.62,-150.61 199.15,-145.52"/>
<polygon fill="midnightblue" stroke="midnightblue" points="117.26,-158.95 108.18,-164.41 118.68,-165.8 117.26,-158.95"/>
</g>
<!-- Node13 -->
<g id="node13" class="node">
<title>Node13</title>
<g id="a_node13"><a xlink:href="class_ogre_1_1_volume_1_1_cache_source.html" target="_top" xlink:title="A caching Source.">
<polygon fill="none" stroke="black" points="170,-88.5 170,-107.5 322,-107.5 322,-88.5 170,-88.5"/>
<text text-anchor="middle" x="246" y="-95.5" font-family="Helvetica,sans-Serif" font-size="10.00">Ogre::Volume::CacheSource</text>
</a>
</g>
</g>
<!-- Node1&#45;&gt;Node13 -->
<g id="edge12" class="edge">
<title>Node1&#45;&gt;Node13</title>
<path fill="none" stroke="midnightblue" d="M83.37,-158.58C102.17,-145.69 130.72,-127.75 158,-117 167.64,-113.2 178.19,-110.09 188.52,-107.57"/>
<polygon fill="midnightblue" stroke="midnightblue" points="81.16,-155.85 74.97,-164.44 85.17,-161.59 81.16,-155.85"/>
</g>
<!-- Node14 -->
<g id="node14" class="node">
<title>Node14</title>
<g id="a_node14"><a xlink:href="class_ogre_1_1_volume_1_1_grid_source.html" target="_top" xlink:title="A volume source from a discrete 3d grid.">
<polygon fill="none" stroke="black" points="174.5,-44.5 174.5,-63.5 317.5,-63.5 317.5,-44.5 174.5,-44.5"/>
<text text-anchor="middle" x="246" y="-51.5" font-family="Helvetica,sans-Serif" font-size="10.00">Ogre::Volume::GridSource</text>
</a>
</g>
</g>
<!-- Node1&#45;&gt;Node14 -->
<g id="edge13" class="edge">
<title>Node1&#45;&gt;Node14</title>
<path fill="none" stroke="midnightblue" d="M75.17,-156.38C92.05,-135.01 123.33,-99.32 158,-79 169.53,-72.25 182.99,-67.22 195.83,-63.52"/>
<polygon fill="midnightblue" stroke="midnightblue" points="72.38,-154.27 69.03,-164.33 77.92,-158.55 72.38,-154.27"/>
</g>
<!-- Node4 -->
<g id="node4" class="node">
<title>Node4</title>
<g id="a_node4"><a xlink:href="class_ogre_1_1_volume_1_1_c_s_g_difference_source.html" target="_top" xlink:title="Builds the difference between two sources.">
<polygon fill="none" stroke="black" points="378.5,-290 378.5,-320 539.5,-320 539.5,-290 378.5,-290"/>
<text text-anchor="start" x="386.5" y="-308" font-family="Helvetica,sans-Serif" font-size="10.00">Ogre::Volume::CSGDifference</text>
<text text-anchor="middle" x="459" y="-297" font-family="Helvetica,sans-Serif" font-size="10.00">Source</text>
</a>
</g>
</g>
<!-- Node3&#45;&gt;Node4 -->
<g id="edge3" class="edge">
<title>Node3&#45;&gt;Node4</title>
<path fill="none" stroke="midnightblue" d="M321.63,-273.33C345.06,-278.77 370.71,-284.73 393.38,-289.99"/>
<polygon fill="midnightblue" stroke="midnightblue" points="322.27,-269.89 311.74,-271.03 320.69,-276.71 322.27,-269.89"/>
</g>
<!-- Node5 -->
<g id="node5" class="node">
<title>Node5</title>
<g id="a_node5"><a xlink:href="class_ogre_1_1_volume_1_1_c_s_g_intersection_source.html" target="_top" xlink:title="Builds the intersection between two sources.">
<polygon fill="none" stroke="black" points="375.5,-241 375.5,-271 542.5,-271 542.5,-241 375.5,-241"/>
<text text-anchor="start" x="383.5" y="-259" font-family="Helvetica,sans-Serif" font-size="10.00">Ogre::Volume::CSGIntersection</text>
<text text-anchor="middle" x="459" y="-248" font-family="Helvetica,sans-Serif" font-size="10.00">Source</text>
</a>
</g>
</g>
<!-- Node3&#45;&gt;Node5 -->
<g id="edge4" class="edge">
<title>Node3&#45;&gt;Node5</title>
<path fill="none" stroke="midnightblue" d="M335.3,-256C348.54,-256 362.15,-256 375.26,-256"/>
<polygon fill="midnightblue" stroke="midnightblue" points="335.27,-252.5 325.27,-256 335.27,-259.5 335.27,-252.5"/>
</g>
<!-- Node6 -->
<g id="node6" class="node">
<title>Node6</title>
<g id="a_node6"><a xlink:href="class_ogre_1_1_volume_1_1_c_s_g_union_source.html" target="_top" xlink:title="Builds the union between two sources.">
<polygon fill="none" stroke="black" points="373.5,-202.5 373.5,-221.5 544.5,-221.5 544.5,-202.5 373.5,-202.5"/>
<text text-anchor="middle" x="459" y="-209.5" font-family="Helvetica,sans-Serif" font-size="10.00">Ogre::Volume::CSGUnionSource</text>
</a>
</g>
</g>
<!-- Node3&#45;&gt;Node6 -->
<g id="edge5" class="edge">
<title>Node3&#45;&gt;Node6</title>
<path fill="none" stroke="midnightblue" d="M328.94,-238.91C357.28,-233 388.02,-226.59 412.38,-221.51"/>
<polygon fill="midnightblue" stroke="midnightblue" points="328.1,-235.51 319.02,-240.98 329.53,-242.37 328.1,-235.51"/>
</g>
<!-- Node10 -->
<g id="node10" class="node">
<title>Node10</title>
<g id="a_node10"><a xlink:href="class_ogre_1_1_volume_1_1_c_s_g_negate_source.html" target="_top" xlink:title="Negates the given volume.">
<polygon fill="none" stroke="black" points="370,-164.5 370,-183.5 548,-183.5 548,-164.5 370,-164.5"/>
<text text-anchor="middle" x="459" y="-171.5" font-family="Helvetica,sans-Serif" font-size="10.00">Ogre::Volume::CSGNegateSource</text>
</a>
</g>
</g>
<!-- Node9&#45;&gt;Node10 -->
<g id="edge9" class="edge">
<title>Node9&#45;&gt;Node10</title>
<path fill="none" stroke="midnightblue" d="M310.01,-147.35C340.28,-152.8 376.16,-159.26 405.01,-164.46"/>
<polygon fill="midnightblue" stroke="midnightblue" points="310.43,-143.87 299.97,-145.54 309.19,-150.76 310.43,-143.87"/>
</g>
<!-- Node11 -->
<g id="node11" class="node">
<title>Node11</title>
<g id="a_node11"><a xlink:href="class_ogre_1_1_volume_1_1_c_s_g_noise_source.html" target="_top" xlink:title=" ">
<polygon fill="none" stroke="black" points="374,-126.5 374,-145.5 544,-145.5 544,-126.5 374,-126.5"/>
<text text-anchor="middle" x="459" y="-133.5" font-family="Helvetica,sans-Serif" font-size="10.00">Ogre::Volume::CSGNoiseSource</text>
</a>
</g>
</g>
<!-- Node9&#45;&gt;Node11 -->
<g id="edge10" class="edge">
<title>Node9&#45;&gt;Node11</title>
<path fill="none" stroke="midnightblue" d="M342.26,-136C352.79,-136 363.46,-136 373.84,-136"/>
<polygon fill="midnightblue" stroke="midnightblue" points="342.21,-132.5 332.21,-136 342.21,-139.5 342.21,-132.5"/>
</g>
<!-- Node12 -->
<g id="node12" class="node">
<title>Node12</title>
<g id="a_node12"><a xlink:href="class_ogre_1_1_volume_1_1_c_s_g_scale_source.html" target="_top" xlink:title="Scales the given volume source.">
<polygon fill="none" stroke="black" points="374.5,-88.5 374.5,-107.5 543.5,-107.5 543.5,-88.5 374.5,-88.5"/>
<text text-anchor="middle" x="459" y="-95.5" font-family="Helvetica,sans-Serif" font-size="10.00">Ogre::Volume::CSGScaleSource</text>
</a>
</g>
</g>
<!-- Node9&#45;&gt;Node12 -->
<g id="edge11" class="edge">
<title>Node9&#45;&gt;Node12</title>
<path fill="none" stroke="midnightblue" d="M310.01,-124.65C340.28,-119.2 376.16,-112.74 405.01,-107.54"/>
<polygon fill="midnightblue" stroke="midnightblue" points="309.19,-121.24 299.97,-126.46 310.43,-128.13 309.19,-121.24"/>
</g>
<!-- Node15 -->
<g id="node15" class="node">
<title>Node15</title>
<g id="a_node15"><a xlink:href="class_ogre_1_1_volume_1_1_half_float_grid_source.html" target="_top" xlink:title="A volume source from a 16 Bit float 3D grid capable of loading volume serializations.">
<polygon fill="none" stroke="black" points="381.5,-39 381.5,-69 536.5,-69 536.5,-39 381.5,-39"/>
<text text-anchor="start" x="389.5" y="-57" font-family="Helvetica,sans-Serif" font-size="10.00">Ogre::Volume::HalfFloatGrid</text>
<text text-anchor="middle" x="459" y="-46" font-family="Helvetica,sans-Serif" font-size="10.00">Source</text>
</a>
</g>
</g>
<!-- Node14&#45;&gt;Node15 -->
<g id="edge14" class="edge">
<title>Node14&#45;&gt;Node15</title>
<path fill="none" stroke="midnightblue" d="M327.78,-54C345.37,-54 363.93,-54 381.35,-54"/>
<polygon fill="midnightblue" stroke="midnightblue" points="327.55,-50.5 317.55,-54 327.55,-57.5 327.55,-50.5"/>
</g>
<!-- Node16 -->
<g id="node16" class="node">
<title>Node16</title>
<g id="a_node16"><a xlink:href="class_ogre_1_1_volume_1_1_texture_source.html" target="_top" xlink:title="A volume source from a 3D texture.">
<polygon fill="none" stroke="black" points="380,-0.5 380,-19.5 538,-19.5 538,-0.5 380,-0.5"/>
<text text-anchor="middle" x="459" y="-7.5" font-family="Helvetica,sans-Serif" font-size="10.00">Ogre::Volume::TextureSource</text>
</a>
</g>
</g>
<!-- Node14&#45;&gt;Node16 -->
<g id="edge15" class="edge">
<title>Node14&#45;&gt;Node16</title>
<path fill="none" stroke="midnightblue" d="M302.63,-42.4C336.83,-35.27 380.11,-26.24 412.31,-19.53"/>
<polygon fill="midnightblue" stroke="midnightblue" points="301.86,-38.98 292.78,-44.45 303.29,-45.84 301.86,-38.98"/>
</g>
</g>
</svg>
