<?xml version="1.0" encoding="UTF-8" standalone="no"?>
<!DOCTYPE svg PUBLIC "-//W3C//DTD SVG 1.1//EN"
 "http://www.w3.org/Graphics/SVG/1.1/DTD/svg11.dtd">
<!-- Generated by graphviz version 2.43.0 (0)
 -->
<!-- Title: Ogre::SceneManager::Listener Pages: 1 -->
<svg width="236pt" height="151pt"
 viewBox="0.00 0.00 236.00 151.00" xmlns="http://www.w3.org/2000/svg" xmlns:xlink="http://www.w3.org/1999/xlink">
<g id="graph0" class="graph" transform="scale(1 1) rotate(0) translate(4 147)">
<title>Ogre::SceneManager::Listener</title>
<!-- Node1 -->
<g id="node1" class="node">
<title>Node1</title>
<g id="a_node1"><a xlink:title="Class that allows listening in on the various stages of SceneManager processing, so that custom behav...">
<polygon fill="#bfbfbf" stroke="black" points="72.5,-112.5 72.5,-142.5 190.5,-142.5 190.5,-112.5 72.5,-112.5"/>
<text text-anchor="start" x="80.5" y="-130.5" font-family="Helvetica,sans-Serif" font-size="10.00">Ogre::SceneManager</text>
<text text-anchor="middle" x="131.5" y="-119.5" font-family="Helvetica,sans-Serif" font-size="10.00">::Listener</text>
</a>
</g>
</g>
<!-- Node2 -->
<g id="node2" class="node">
<title>Node2</title>
<g id="a_node2"><a xlink:href="class_ogre_1_1_debug_drawer.html" target="_top" xlink:title="Interface for visualising debugging the SceneManager state.">
<polygon fill="none" stroke="black" points="18,-56.5 18,-75.5 131,-75.5 131,-56.5 18,-56.5"/>
<text text-anchor="middle" x="74.5" y="-63.5" font-family="Helvetica,sans-Serif" font-size="10.00">Ogre::DebugDrawer</text>
</a>
</g>
</g>
<!-- Node1&#45;&gt;Node2 -->
<g id="edge1" class="edge">
<title>Node1&#45;&gt;Node2</title>
<path fill="none" stroke="midnightblue" d="M110.91,-105C101.19,-94.86 90.15,-83.33 82.79,-75.66"/>
<polygon fill="midnightblue" stroke="midnightblue" points="108.55,-107.6 117.99,-112.4 113.6,-102.76 108.55,-107.6"/>
</g>
<!-- Node4 -->
<g id="node4" class="node">
<title>Node4</title>
<g id="a_node4"><a xlink:href="class_ogre_1_1_terrain.html" target="_top" xlink:title="The main containing class for a chunk of terrain.">
<polygon fill="none" stroke="black" points="149,-56.5 149,-75.5 228,-75.5 228,-56.5 149,-56.5"/>
<text text-anchor="middle" x="188.5" y="-63.5" font-family="Helvetica,sans-Serif" font-size="10.00">Ogre::Terrain</text>
</a>
</g>
</g>
<!-- Node1&#45;&gt;Node4 -->
<g id="edge3" class="edge">
<title>Node1&#45;&gt;Node4</title>
<path fill="none" stroke="midnightblue" d="M152.09,-105C161.81,-94.86 172.85,-83.33 180.21,-75.66"/>
<polygon fill="midnightblue" stroke="midnightblue" points="149.4,-102.76 145.01,-112.4 154.45,-107.6 149.4,-102.76"/>
</g>
<!-- Node3 -->
<g id="node3" class="node">
<title>Node3</title>
<g id="a_node3"><a xlink:href="class_ogre_1_1_default_debug_drawer.html" target="_top" xlink:title=" ">
<polygon fill="none" stroke="black" points="0,-0.5 0,-19.5 149,-19.5 149,-0.5 0,-0.5"/>
<text text-anchor="middle" x="74.5" y="-7.5" font-family="Helvetica,sans-Serif" font-size="10.00">Ogre::DefaultDebugDrawer</text>
</a>
</g>
</g>
<!-- Node2&#45;&gt;Node3 -->
<g id="edge2" class="edge">
<title>Node2&#45;&gt;Node3</title>
<path fill="none" stroke="midnightblue" d="M74.5,-45.8C74.5,-36.91 74.5,-26.78 74.5,-19.75"/>
<polygon fill="midnightblue" stroke="midnightblue" points="71,-46.08 74.5,-56.08 78,-46.08 71,-46.08"/>
</g>
</g>
</svg>
