<?xml version="1.0" encoding="UTF-8" standalone="no"?>
<!DOCTYPE svg PUBLIC "-//W3C//DTD SVG 1.1//EN"
 "http://www.w3.org/Graphics/SVG/1.1/DTD/svg11.dtd">
<!-- Generated by graphviz version 2.43.0 (0)
 -->
<!-- Title: Ogre::Volume::CSGUnarySource Pages: 1 -->
<svg width="552pt" height="104pt"
 viewBox="0.00 0.00 552.00 104.00" xmlns="http://www.w3.org/2000/svg" xmlns:xlink="http://www.w3.org/1999/xlink">
<g id="graph0" class="graph" transform="scale(1 1) rotate(0) translate(4 100)">
<title>Ogre::Volume::CSGUnarySource</title>
<!-- Node1 -->
<g id="node1" class="node">
<title>Node1</title>
<g id="a_node1"><a xlink:title="Source which does a unary operation to another one.">
<polygon fill="#bfbfbf" stroke="black" points="158,-38.5 158,-57.5 330,-57.5 330,-38.5 158,-38.5"/>
<text text-anchor="middle" x="244" y="-45.5" font-family="Helvetica,sans-Serif" font-size="10.00">Ogre::Volume::CSGUnarySource</text>
</a>
</g>
</g>
<!-- Node3 -->
<g id="node3" class="node">
<title>Node3</title>
<g id="a_node3"><a xlink:href="class_ogre_1_1_volume_1_1_c_s_g_negate_source.html" target="_top" xlink:title="Negates the given volume.">
<polygon fill="none" stroke="black" points="366,-76.5 366,-95.5 544,-95.5 544,-76.5 366,-76.5"/>
<text text-anchor="middle" x="455" y="-83.5" font-family="Helvetica,sans-Serif" font-size="10.00">Ogre::Volume::CSGNegateSource</text>
</a>
</g>
</g>
<!-- Node1&#45;&gt;Node3 -->
<g id="edge2" class="edge">
<title>Node1&#45;&gt;Node3</title>
<path fill="none" stroke="midnightblue" d="M307.41,-59.35C337.39,-64.8 372.93,-71.26 401.51,-76.46"/>
<polygon fill="midnightblue" stroke="midnightblue" points="307.93,-55.89 297.47,-57.54 306.68,-62.77 307.93,-55.89"/>
</g>
<!-- Node4 -->
<g id="node4" class="node">
<title>Node4</title>
<g id="a_node4"><a xlink:href="class_ogre_1_1_volume_1_1_c_s_g_noise_source.html" target="_top" xlink:title=" ">
<polygon fill="none" stroke="black" points="370,-38.5 370,-57.5 540,-57.5 540,-38.5 370,-38.5"/>
<text text-anchor="middle" x="455" y="-45.5" font-family="Helvetica,sans-Serif" font-size="10.00">Ogre::Volume::CSGNoiseSource</text>
</a>
</g>
</g>
<!-- Node1&#45;&gt;Node4 -->
<g id="edge3" class="edge">
<title>Node1&#45;&gt;Node4</title>
<path fill="none" stroke="midnightblue" d="M340.22,-48C350.07,-48 360.03,-48 369.74,-48"/>
<polygon fill="midnightblue" stroke="midnightblue" points="340.01,-44.5 330.01,-48 340.01,-51.5 340.01,-44.5"/>
</g>
<!-- Node5 -->
<g id="node5" class="node">
<title>Node5</title>
<g id="a_node5"><a xlink:href="class_ogre_1_1_volume_1_1_c_s_g_scale_source.html" target="_top" xlink:title="Scales the given volume source.">
<polygon fill="none" stroke="black" points="370.5,-0.5 370.5,-19.5 539.5,-19.5 539.5,-0.5 370.5,-0.5"/>
<text text-anchor="middle" x="455" y="-7.5" font-family="Helvetica,sans-Serif" font-size="10.00">Ogre::Volume::CSGScaleSource</text>
</a>
</g>
</g>
<!-- Node1&#45;&gt;Node5 -->
<g id="edge4" class="edge">
<title>Node1&#45;&gt;Node5</title>
<path fill="none" stroke="midnightblue" d="M307.41,-36.65C337.39,-31.2 372.93,-24.74 401.51,-19.54"/>
<polygon fill="midnightblue" stroke="midnightblue" points="306.68,-33.23 297.47,-38.46 307.93,-40.11 306.68,-33.23"/>
</g>
<!-- Node2 -->
<g id="node2" class="node">
<title>Node2</title>
<g id="a_node2"><a xlink:href="class_ogre_1_1_volume_1_1_source.html" target="_top" xlink:title="Abstract class defining the density function.">
<polygon fill="none" stroke="black" points="0,-38.5 0,-57.5 122,-57.5 122,-38.5 0,-38.5"/>
<text text-anchor="middle" x="61" y="-45.5" font-family="Helvetica,sans-Serif" font-size="10.00">Ogre::Volume::Source</text>
</a>
</g>
</g>
<!-- Node2&#45;&gt;Node1 -->
<g id="edge1" class="edge">
<title>Node2&#45;&gt;Node1</title>
<path fill="none" stroke="midnightblue" d="M132.18,-48C140.63,-48 149.33,-48 157.96,-48"/>
<polygon fill="midnightblue" stroke="midnightblue" points="132.02,-44.5 122.02,-48 132.02,-51.5 132.02,-44.5"/>
</g>
</g>
</svg>
