<?xml version="1.0" encoding="UTF-8" standalone="no"?>
<!DOCTYPE svg PUBLIC "-//W3C//DTD SVG 1.1//EN"
 "http://www.w3.org/Graphics/SVG/1.1/DTD/svg11.dtd">
<!-- Generated by graphviz version 2.43.0 (0)
 -->
<!-- Title: Ogre::DepthBuffer Pages: 1 -->
<svg width="439pt" height="180pt"
 viewBox="0.00 0.00 439.00 180.00" xmlns="http://www.w3.org/2000/svg" xmlns:xlink="http://www.w3.org/1999/xlink">
<g id="graph0" class="graph" transform="scale(1 1) rotate(0) translate(4 176)">
<title>Ogre::DepthBuffer</title>
<!-- Node1 -->
<g id="node1" class="node">
<title>Node1</title>
<g id="a_node1"><a xlink:title="An abstract class that contains a depth/stencil buffer.">
<polygon fill="#bfbfbf" stroke="black" points="128,-76.5 128,-95.5 233,-95.5 233,-76.5 128,-76.5"/>
<text text-anchor="middle" x="180.5" y="-83.5" font-family="Helvetica,sans-Serif" font-size="10.00">Ogre::DepthBuffer</text>
</a>
</g>
</g>
<!-- Node3 -->
<g id="node3" class="node">
<title>Node3</title>
<g id="a_node3"><a xlink:href="class_ogre_1_1_d3_d11_depth_buffer.html" target="_top" xlink:title=" ">
<polygon fill="none" stroke="black" points="281,-152.5 281,-171.5 419,-171.5 419,-152.5 281,-152.5"/>
<text text-anchor="middle" x="350" y="-159.5" font-family="Helvetica,sans-Serif" font-size="10.00">Ogre::D3D11DepthBuffer</text>
</a>
</g>
</g>
<!-- Node1&#45;&gt;Node3 -->
<g id="edge2" class="edge">
<title>Node1&#45;&gt;Node3</title>
<path fill="none" stroke="midnightblue" d="M201.27,-101.74C218.31,-114.58 244.03,-132.29 269,-143 277.79,-146.77 287.46,-149.87 296.94,-152.39"/>
<polygon fill="midnightblue" stroke="midnightblue" points="203.26,-98.86 193.2,-95.53 198.99,-104.41 203.26,-98.86"/>
</g>
<!-- Node4 -->
<g id="node4" class="node">
<title>Node4</title>
<g id="a_node4"><a xlink:href="class_ogre_1_1_d3_d9_depth_buffer.html" target="_top" xlink:title=" ">
<polygon fill="none" stroke="black" points="284,-114.5 284,-133.5 416,-133.5 416,-114.5 284,-114.5"/>
<text text-anchor="middle" x="350" y="-121.5" font-family="Helvetica,sans-Serif" font-size="10.00">Ogre::D3D9DepthBuffer</text>
</a>
</g>
</g>
<!-- Node1&#45;&gt;Node4 -->
<g id="edge3" class="edge">
<title>Node1&#45;&gt;Node4</title>
<path fill="none" stroke="midnightblue" d="M233.62,-97.82C257.23,-103.18 284.78,-109.43 307.04,-114.48"/>
<polygon fill="midnightblue" stroke="midnightblue" points="234.29,-94.39 223.77,-95.59 232.75,-101.21 234.29,-94.39"/>
</g>
<!-- Node5 -->
<g id="node5" class="node">
<title>Node5</title>
<g id="a_node5"><a xlink:href="class_ogre_1_1_g_l_depth_buffer_common.html" target="_top" xlink:title="OpenGL supports 3 different methods: FBO, pbuffer &amp; Copy.">
<polygon fill="none" stroke="black" points="269,-76.5 269,-95.5 431,-95.5 431,-76.5 269,-76.5"/>
<text text-anchor="middle" x="350" y="-83.5" font-family="Helvetica,sans-Serif" font-size="10.00">Ogre::GLDepthBufferCommon</text>
</a>
</g>
</g>
<!-- Node1&#45;&gt;Node5 -->
<g id="edge4" class="edge">
<title>Node1&#45;&gt;Node5</title>
<path fill="none" stroke="midnightblue" d="M243.17,-86C251.55,-86 260.25,-86 268.9,-86"/>
<polygon fill="midnightblue" stroke="midnightblue" points="243.12,-82.5 233.12,-86 243.12,-89.5 243.12,-82.5"/>
</g>
<!-- Node6 -->
<g id="node6" class="node">
<title>Node6</title>
<g id="a_node6"><a xlink:href="class_ogre_1_1_metal_depth_buffer.html" target="_top" xlink:title=" ">
<polygon fill="none" stroke="black" points="283.5,-38.5 283.5,-57.5 416.5,-57.5 416.5,-38.5 283.5,-38.5"/>
<text text-anchor="middle" x="350" y="-45.5" font-family="Helvetica,sans-Serif" font-size="10.00">Ogre::MetalDepthBuffer</text>
</a>
</g>
</g>
<!-- Node1&#45;&gt;Node6 -->
<g id="edge5" class="edge">
<title>Node1&#45;&gt;Node6</title>
<path fill="none" stroke="midnightblue" d="M233.62,-74.18C257.23,-68.82 284.78,-62.57 307.04,-57.52"/>
<polygon fill="midnightblue" stroke="midnightblue" points="232.75,-70.79 223.77,-76.41 234.29,-77.61 232.75,-70.79"/>
</g>
<!-- Node7 -->
<g id="node7" class="node">
<title>Node7</title>
<g id="a_node7"><a xlink:href="class_ogre_1_1_tiny_depth_buffer.html" target="_top" xlink:title=" ">
<polygon fill="none" stroke="black" points="287.5,-0.5 287.5,-19.5 412.5,-19.5 412.5,-0.5 287.5,-0.5"/>
<text text-anchor="middle" x="350" y="-7.5" font-family="Helvetica,sans-Serif" font-size="10.00">Ogre::TinyDepthBuffer</text>
</a>
</g>
</g>
<!-- Node1&#45;&gt;Node7 -->
<g id="edge6" class="edge">
<title>Node1&#45;&gt;Node7</title>
<path fill="none" stroke="midnightblue" d="M201.27,-70.26C218.31,-57.42 244.03,-39.71 269,-29 277.79,-25.23 287.46,-22.13 296.94,-19.61"/>
<polygon fill="midnightblue" stroke="midnightblue" points="198.99,-67.59 193.2,-76.47 203.26,-73.14 198.99,-67.59"/>
</g>
<!-- Node2 -->
<g id="node2" class="node">
<title>Node2</title>
<g id="a_node2"><a xlink:title=" ">
<polygon fill="none" stroke="#bfbfbf" points="0,-76.5 0,-95.5 92,-95.5 92,-76.5 0,-76.5"/>
<text text-anchor="middle" x="46" y="-83.5" font-family="Helvetica,sans-Serif" font-size="10.00">RenderSysAlloc</text>
</a>
</g>
</g>
<!-- Node2&#45;&gt;Node1 -->
<g id="edge1" class="edge">
<title>Node2&#45;&gt;Node1</title>
<path fill="none" stroke="midnightblue" d="M102.3,-86C110.69,-86 119.32,-86 127.64,-86"/>
<polygon fill="midnightblue" stroke="midnightblue" points="102.23,-82.5 92.23,-86 102.23,-89.5 102.23,-82.5"/>
</g>
</g>
</svg>
