<?xml version="1.0" encoding="UTF-8" standalone="no"?>
<!DOCTYPE svg PUBLIC "-//W3C//DTD SVG 1.1//EN"
 "http://www.w3.org/Graphics/SVG/1.1/DTD/svg11.dtd">
<!-- Generated by graphviz version 2.43.0 (0)
 -->
<!-- Title: Ogre::RenderWindow Pages: 1 -->
<svg width="828pt" height="224pt"
 viewBox="0.00 0.00 828.00 223.50" xmlns="http://www.w3.org/2000/svg" xmlns:xlink="http://www.w3.org/1999/xlink">
<g id="graph0" class="graph" transform="scale(1 1) rotate(0) translate(4 219.5)">
<title>Ogre::RenderWindow</title>
<!-- Node1 -->
<g id="node1" class="node">
<title>Node1</title>
<g id="a_node1"><a xlink:title="Manages the target rendering window.">
<polygon fill="#bfbfbf" stroke="black" points="274,-95.5 274,-114.5 393,-114.5 393,-95.5 274,-95.5"/>
<text text-anchor="middle" x="333.5" y="-102.5" font-family="Helvetica,sans-Serif" font-size="10.00">Ogre::RenderWindow</text>
</a>
</g>
</g>
<!-- Node4 -->
<g id="node4" class="node">
<title>Node4</title>
<g id="a_node4"><a xlink:href="class_ogre_1_1_d3_d11_render_window_base.html" target="_top" xlink:title=" ">
<polygon fill="none" stroke="black" points="429,-190.5 429,-209.5 605,-209.5 605,-190.5 429,-190.5"/>
<text text-anchor="middle" x="517" y="-197.5" font-family="Helvetica,sans-Serif" font-size="10.00">Ogre::D3D11RenderWindowBase</text>
</a>
</g>
</g>
<!-- Node1&#45;&gt;Node4 -->
<g id="edge3" class="edge">
<title>Node1&#45;&gt;Node4</title>
<path fill="none" stroke="midnightblue" d="M350.59,-121.93C368.18,-139.42 398.04,-166.19 429,-181 437.09,-184.87 445.98,-187.96 454.89,-190.43"/>
<polygon fill="midnightblue" stroke="midnightblue" points="352.91,-119.3 343.4,-114.62 347.92,-124.21 352.91,-119.3"/>
</g>
<!-- Node6 -->
<g id="node6" class="node">
<title>Node6</title>
<g id="a_node6"><a xlink:href="class_ogre_1_1_d3_d9_render_window.html" target="_top" xlink:title=" ">
<polygon fill="none" stroke="black" points="444,-152.5 444,-171.5 590,-171.5 590,-152.5 444,-152.5"/>
<text text-anchor="middle" x="517" y="-159.5" font-family="Helvetica,sans-Serif" font-size="10.00">Ogre::D3D9RenderWindow</text>
</a>
</g>
</g>
<!-- Node1&#45;&gt;Node6 -->
<g id="edge5" class="edge">
<title>Node1&#45;&gt;Node6</title>
<path fill="none" stroke="midnightblue" d="M364.81,-118.7C383.12,-126.59 407.08,-136.25 429,-143 440.67,-146.59 453.43,-149.78 465.48,-152.47"/>
<polygon fill="midnightblue" stroke="midnightblue" points="366.09,-115.44 355.53,-114.64 363.29,-121.85 366.09,-115.44"/>
</g>
<!-- Node7 -->
<g id="node7" class="node">
<title>Node7</title>
<g id="a_node7"><a xlink:href="class_ogre_1_1_g_l_window.html" target="_top" xlink:title=" ">
<polygon fill="none" stroke="black" points="468.5,-114.5 468.5,-133.5 565.5,-133.5 565.5,-114.5 468.5,-114.5"/>
<text text-anchor="middle" x="517" y="-121.5" font-family="Helvetica,sans-Serif" font-size="10.00">Ogre::GLWindow</text>
</a>
</g>
</g>
<!-- Node1&#45;&gt;Node7 -->
<g id="edge6" class="edge">
<title>Node1&#45;&gt;Node7</title>
<path fill="none" stroke="midnightblue" d="M403.34,-112.21C425.05,-114.48 448.54,-116.94 468.42,-119.02"/>
<polygon fill="midnightblue" stroke="midnightblue" points="403.49,-108.7 393.18,-111.14 402.76,-115.66 403.49,-108.7"/>
</g>
<!-- Node8 -->
<g id="node8" class="node">
<title>Node8</title>
<g id="a_node8"><a xlink:href="class_ogre_1_1_metal_render_window.html" target="_top" xlink:title=" ">
<polygon fill="none" stroke="black" points="443.5,-76.5 443.5,-95.5 590.5,-95.5 590.5,-76.5 443.5,-76.5"/>
<text text-anchor="middle" x="517" y="-83.5" font-family="Helvetica,sans-Serif" font-size="10.00">Ogre::MetalRenderWindow</text>
</a>
</g>
</g>
<!-- Node1&#45;&gt;Node8 -->
<g id="edge7" class="edge">
<title>Node1&#45;&gt;Node8</title>
<path fill="none" stroke="midnightblue" d="M403.45,-97.78C416.46,-96.42 430.1,-94.99 443.22,-93.62"/>
<polygon fill="midnightblue" stroke="midnightblue" points="402.76,-94.34 393.18,-98.86 403.49,-101.3 402.76,-94.34"/>
</g>
<!-- Node9 -->
<g id="node9" class="node">
<title>Node9</title>
<g id="a_node9"><a xlink:href="class_ogre_1_1_tiny_window.html" target="_top" xlink:title=" ">
<polygon fill="none" stroke="black" points="464.5,-38.5 464.5,-57.5 569.5,-57.5 569.5,-38.5 464.5,-38.5"/>
<text text-anchor="middle" x="517" y="-45.5" font-family="Helvetica,sans-Serif" font-size="10.00">Ogre::TinyWindow</text>
</a>
</g>
</g>
<!-- Node1&#45;&gt;Node9 -->
<g id="edge8" class="edge">
<title>Node1&#45;&gt;Node9</title>
<path fill="none" stroke="midnightblue" d="M364.81,-91.3C383.12,-83.41 407.08,-73.75 429,-67 440.67,-63.41 453.43,-60.22 465.48,-57.53"/>
<polygon fill="midnightblue" stroke="midnightblue" points="363.29,-88.15 355.53,-95.36 366.09,-94.56 363.29,-88.15"/>
</g>
<!-- Node10 -->
<g id="node10" class="node">
<title>Node10</title>
<g id="a_node10"><a xlink:href="class_ogre_1_1_vulkan_window.html" target="_top" xlink:title=" ">
<polygon fill="none" stroke="black" points="457.5,-0.5 457.5,-19.5 576.5,-19.5 576.5,-0.5 457.5,-0.5"/>
<text text-anchor="middle" x="517" y="-7.5" font-family="Helvetica,sans-Serif" font-size="10.00">Ogre::VulkanWindow</text>
</a>
</g>
</g>
<!-- Node1&#45;&gt;Node10 -->
<g id="edge9" class="edge">
<title>Node1&#45;&gt;Node10</title>
<path fill="none" stroke="midnightblue" d="M350.59,-88.07C368.18,-70.58 398.04,-43.81 429,-29 437.79,-24.8 447.52,-21.51 457.2,-18.95"/>
<polygon fill="midnightblue" stroke="midnightblue" points="347.92,-85.79 343.4,-95.38 352.91,-90.7 347.92,-85.79"/>
</g>
<!-- Node2 -->
<g id="node2" class="node">
<title>Node2</title>
<g id="a_node2"><a xlink:href="class_ogre_1_1_render_target.html" target="_top" xlink:title="A &#39;canvas&#39; which can receive the results of a rendering operation.">
<polygon fill="none" stroke="black" points="128,-95.5 128,-114.5 238,-114.5 238,-95.5 128,-95.5"/>
<text text-anchor="middle" x="183" y="-102.5" font-family="Helvetica,sans-Serif" font-size="10.00">Ogre::RenderTarget</text>
</a>
</g>
</g>
<!-- Node2&#45;&gt;Node1 -->
<g id="edge1" class="edge">
<title>Node2&#45;&gt;Node1</title>
<path fill="none" stroke="midnightblue" d="M248.04,-105C256.67,-105 265.48,-105 274,-105"/>
<polygon fill="midnightblue" stroke="midnightblue" points="248.03,-101.5 238.03,-105 248.03,-108.5 248.03,-101.5"/>
</g>
<!-- Node3 -->
<g id="node3" class="node">
<title>Node3</title>
<g id="a_node3"><a xlink:title=" ">
<polygon fill="none" stroke="#bfbfbf" points="0,-95.5 0,-114.5 92,-114.5 92,-95.5 0,-95.5"/>
<text text-anchor="middle" x="46" y="-102.5" font-family="Helvetica,sans-Serif" font-size="10.00">RenderSysAlloc</text>
</a>
</g>
</g>
<!-- Node3&#45;&gt;Node2 -->
<g id="edge2" class="edge">
<title>Node3&#45;&gt;Node2</title>
<path fill="none" stroke="midnightblue" d="M102.36,-105C110.72,-105 119.33,-105 127.66,-105"/>
<polygon fill="midnightblue" stroke="midnightblue" points="102.33,-101.5 92.33,-105 102.33,-108.5 102.33,-101.5"/>
</g>
<!-- Node5 -->
<g id="node5" class="node">
<title>Node5</title>
<g id="a_node5"><a xlink:href="class_ogre_1_1_d3_d11_render_window_swap_chain_based.html" target="_top" xlink:title=" ">
<polygon fill="none" stroke="black" points="641,-185 641,-215 820,-215 820,-185 641,-185"/>
<text text-anchor="start" x="649" y="-203" font-family="Helvetica,sans-Serif" font-size="10.00">Ogre::D3D11RenderWindowSwap</text>
<text text-anchor="middle" x="730.5" y="-192" font-family="Helvetica,sans-Serif" font-size="10.00">ChainBased</text>
</a>
</g>
</g>
<!-- Node4&#45;&gt;Node5 -->
<g id="edge4" class="edge">
<title>Node4&#45;&gt;Node5</title>
<path fill="none" stroke="midnightblue" d="M615.47,-200C623.9,-200 632.4,-200 640.75,-200"/>
<polygon fill="midnightblue" stroke="midnightblue" points="615.25,-196.5 605.25,-200 615.25,-203.5 615.25,-196.5"/>
</g>
</g>
</svg>
