<?xml version="1.0" encoding="UTF-8" standalone="no"?>
<!DOCTYPE svg PUBLIC "-//W3C//DTD SVG 1.1//EN"
 "http://www.w3.org/Graphics/SVG/1.1/DTD/svg11.dtd">
<!-- Generated by graphviz version 2.43.0 (0)
 -->
<!-- Title: Ogre::GL3PlusTextureManager Pages: 1 -->
<svg width="343pt" height="207pt"
 viewBox="0.00 0.00 343.00 207.00" xmlns="http://www.w3.org/2000/svg" xmlns:xlink="http://www.w3.org/1999/xlink">
<g id="graph0" class="graph" transform="scale(1 1) rotate(0) translate(4 203)">
<title>Ogre::GL3PlusTextureManager</title>
<!-- Node1 -->
<g id="node1" class="node">
<title>Node1</title>
<g id="a_node1"><a xlink:title="GL3Plus&#45;specific implementation of a TextureManager.">
<polygon fill="#bfbfbf" stroke="black" points="105.5,-0.5 105.5,-19.5 269.5,-19.5 269.5,-0.5 105.5,-0.5"/>
<text text-anchor="middle" x="187.5" y="-7.5" font-family="Helvetica,sans-Serif" font-size="10.00">Ogre::GL3PlusTextureManager</text>
</a>
</g>
</g>
<!-- Node2 -->
<g id="node2" class="node">
<title>Node2</title>
<g id="a_node2"><a xlink:href="class_ogre_1_1_texture_manager.html" target="_top" xlink:title="Class for loading &amp; managing textures.">
<polygon fill="none" stroke="black" points="125,-56.5 125,-75.5 250,-75.5 250,-56.5 125,-56.5"/>
<text text-anchor="middle" x="187.5" y="-63.5" font-family="Helvetica,sans-Serif" font-size="10.00">Ogre::TextureManager</text>
</a>
</g>
</g>
<!-- Node2&#45;&gt;Node1 -->
<g id="edge1" class="edge">
<title>Node2&#45;&gt;Node1</title>
<path fill="none" stroke="midnightblue" d="M187.5,-45.8C187.5,-36.91 187.5,-26.78 187.5,-19.75"/>
<polygon fill="midnightblue" stroke="midnightblue" points="184,-46.08 187.5,-56.08 191,-46.08 184,-46.08"/>
</g>
<!-- Node3 -->
<g id="node3" class="node">
<title>Node3</title>
<g id="a_node3"><a xlink:href="class_ogre_1_1_resource_manager.html" target="_top" xlink:title="Defines a generic resource handler.">
<polygon fill="none" stroke="black" points="43.5,-118 43.5,-137 177.5,-137 177.5,-118 43.5,-118"/>
<text text-anchor="middle" x="110.5" y="-125" font-family="Helvetica,sans-Serif" font-size="10.00">Ogre::ResourceManager</text>
</a>
</g>
</g>
<!-- Node3&#45;&gt;Node2 -->
<g id="edge2" class="edge">
<title>Node3&#45;&gt;Node2</title>
<path fill="none" stroke="midnightblue" d="M129.53,-111.79C144.3,-100.38 164.26,-84.96 176.49,-75.51"/>
<polygon fill="midnightblue" stroke="midnightblue" points="127.31,-109.09 121.53,-117.98 131.59,-114.63 127.31,-109.09"/>
</g>
<!-- Node4 -->
<g id="node4" class="node">
<title>Node4</title>
<g id="a_node4"><a xlink:href="class_ogre_1_1_script_loader.html" target="_top" xlink:title="Abstract class defining the interface used by classes which wish to perform script loading to define ...">
<polygon fill="none" stroke="black" points="0,-179.5 0,-198.5 107,-198.5 107,-179.5 0,-179.5"/>
<text text-anchor="middle" x="53.5" y="-186.5" font-family="Helvetica,sans-Serif" font-size="10.00">Ogre::ScriptLoader</text>
</a>
</g>
</g>
<!-- Node4&#45;&gt;Node3 -->
<g id="edge3" class="edge">
<title>Node4&#45;&gt;Node3</title>
<path fill="none" stroke="midnightblue" d="M68.83,-172C79.62,-160.74 93.64,-146.1 102.35,-137.01"/>
<polygon fill="midnightblue" stroke="midnightblue" points="66.06,-169.83 61.67,-179.48 71.11,-174.68 66.06,-169.83"/>
</g>
<!-- Node5 -->
<g id="node5" class="node">
<title>Node5</title>
<g id="a_node5"><a xlink:title=" ">
<polygon fill="none" stroke="#bfbfbf" points="125.5,-179.5 125.5,-198.5 211.5,-198.5 211.5,-179.5 125.5,-179.5"/>
<text text-anchor="middle" x="168.5" y="-186.5" font-family="Helvetica,sans-Serif" font-size="10.00">ResourceAlloc</text>
</a>
</g>
</g>
<!-- Node5&#45;&gt;Node3 -->
<g id="edge4" class="edge">
<title>Node5&#45;&gt;Node3</title>
<path fill="none" stroke="midnightblue" d="M152.9,-172C141.92,-160.74 127.66,-146.1 118.79,-137.01"/>
<polygon fill="midnightblue" stroke="midnightblue" points="150.7,-174.76 160.19,-179.48 155.72,-169.87 150.7,-174.76"/>
</g>
<!-- Node6 -->
<g id="node6" class="node">
<title>Node6</title>
<g id="a_node6"><a xlink:href="class_ogre_1_1_singleton.html" target="_top" xlink:title=" ">
<polygon fill="none" stroke="black" points="196,-112.5 196,-142.5 335,-142.5 335,-112.5 196,-112.5"/>
<text text-anchor="start" x="204" y="-130.5" font-family="Helvetica,sans-Serif" font-size="10.00">Ogre::Singleton&lt; Texture</text>
<text text-anchor="middle" x="265.5" y="-119.5" font-family="Helvetica,sans-Serif" font-size="10.00">Manager &gt;</text>
</a>
</g>
</g>
<!-- Node6&#45;&gt;Node2 -->
<g id="edge5" class="edge">
<title>Node6&#45;&gt;Node2</title>
<path fill="none" stroke="midnightblue" d="M238.87,-106.19C225.22,-95.77 209.3,-83.63 198.85,-75.66"/>
<polygon fill="midnightblue" stroke="midnightblue" points="236.94,-109.12 247.02,-112.4 241.19,-103.55 236.94,-109.12"/>
</g>
</g>
</svg>
