<?xml version="1.0" encoding="UTF-8" standalone="no"?>
<!DOCTYPE svg PUBLIC "-//W3C//DTD SVG 1.1//EN"
 "http://www.w3.org/Graphics/SVG/1.1/DTD/svg11.dtd">
<!-- Generated by graphviz version 2.43.0 (0)
 -->
<!-- Title: Ogre::SmallVector&lt; T, N &gt; Pages: 1 -->
<svg width="322pt" height="363pt"
 viewBox="0.00 0.00 321.50 363.00" xmlns="http://www.w3.org/2000/svg" xmlns:xlink="http://www.w3.org/1999/xlink">
<g id="graph0" class="graph" transform="scale(1 1) rotate(0) translate(4 359)">
<title>Ogre::SmallVector&lt; T, N &gt;</title>
<!-- Node1 -->
<g id="node1" class="node">
<title>Node1</title>
<g id="a_node1"><a xlink:title="SmallVector &#45; This is a &#39;vector&#39; (really, a variable&#45;sized array), optimized for the case when the ar...">
<polygon fill="#bfbfbf" stroke="black" points="98,-67.5 98,-97.5 211,-97.5 211,-67.5 98,-67.5"/>
<text text-anchor="start" x="106" y="-85.5" font-family="Helvetica,sans-Serif" font-size="10.00">Ogre::SmallVector&lt;</text>
<text text-anchor="middle" x="154.5" y="-74.5" font-family="Helvetica,sans-Serif" font-size="10.00"> T, N &gt;</text>
</a>
</g>
</g>
<!-- Node6 -->
<g id="node6" class="node">
<title>Node6</title>
<g id="a_node6"><a xlink:href="struct_ogre_1_1_vector_set.html" target="_top" xlink:title=" ">
<polygon fill="none" stroke="black" points="0,-0.5 0,-30.5 143,-30.5 143,-0.5 0,-0.5"/>
<text text-anchor="start" x="8" y="-18.5" font-family="Helvetica,sans-Serif" font-size="10.00">Ogre::VectorSet&lt; Triangle</text>
<text text-anchor="middle" x="71.5" y="-7.5" font-family="Helvetica,sans-Serif" font-size="10.00"> *, 7 &gt;</text>
</a>
</g>
</g>
<!-- Node1&#45;&gt;Node6 -->
<g id="edge5" class="edge">
<title>Node1&#45;&gt;Node6</title>
<path fill="none" stroke="midnightblue" d="M128.54,-61.17C115.85,-51.23 100.89,-39.51 89.47,-30.58"/>
<polygon fill="midnightblue" stroke="midnightblue" points="126.46,-63.99 136.49,-67.4 130.78,-58.47 126.46,-63.99"/>
</g>
<!-- Node7 -->
<g id="node7" class="node">
<title>Node7</title>
<g id="a_node7"><a xlink:href="struct_ogre_1_1_vector_set.html" target="_top" xlink:title=" ">
<polygon fill="none" stroke="black" points="161.5,-6 161.5,-25 313.5,-25 313.5,-6 161.5,-6"/>
<text text-anchor="middle" x="237.5" y="-13" font-family="Helvetica,sans-Serif" font-size="10.00">Ogre::VectorSet&lt; Edge, 8 &gt;</text>
</a>
</g>
</g>
<!-- Node1&#45;&gt;Node7 -->
<g id="edge6" class="edge">
<title>Node1&#45;&gt;Node7</title>
<path fill="none" stroke="midnightblue" d="M180.67,-61.01C196.08,-48.94 214.76,-34.3 226.4,-25.19"/>
<polygon fill="midnightblue" stroke="midnightblue" points="178.22,-58.47 172.51,-67.4 182.54,-63.99 178.22,-58.47"/>
</g>
<!-- Node2 -->
<g id="node2" class="node">
<title>Node2</title>
<g id="a_node2"><a xlink:href="class_ogre_1_1_small_vector_impl.html" target="_top" xlink:title="SmallVectorImpl &#45; This class consists of common code factored out of the SmallVector class to reduce ...">
<polygon fill="none" stroke="black" points="77,-134.5 77,-153.5 232,-153.5 232,-134.5 77,-134.5"/>
<text text-anchor="middle" x="154.5" y="-141.5" font-family="Helvetica,sans-Serif" font-size="10.00">Ogre::SmallVectorImpl&lt; T &gt;</text>
</a>
</g>
</g>
<!-- Node2&#45;&gt;Node1 -->
<g id="edge1" class="edge">
<title>Node2&#45;&gt;Node1</title>
<path fill="none" stroke="midnightblue" d="M154.5,-124.23C154.5,-115.59 154.5,-105.5 154.5,-97.52"/>
<polygon fill="midnightblue" stroke="midnightblue" points="151,-124.48 154.5,-134.48 158,-124.48 151,-124.48"/>
</g>
<!-- Node3 -->
<g id="node3" class="node">
<title>Node3</title>
<g id="a_node3"><a xlink:href="class_ogre_1_1_small_vector_template_base.html" target="_top" xlink:title=" ">
<polygon fill="none" stroke="black" points="79.5,-190.5 79.5,-231.5 229.5,-231.5 229.5,-190.5 79.5,-190.5"/>
<text text-anchor="start" x="87.5" y="-219.5" font-family="Helvetica,sans-Serif" font-size="10.00">Ogre::SmallVectorTemplate</text>
<text text-anchor="start" x="87.5" y="-208.5" font-family="Helvetica,sans-Serif" font-size="10.00">Base&lt; T, isPodLike&lt; T &gt;</text>
<text text-anchor="middle" x="154.5" y="-197.5" font-family="Helvetica,sans-Serif" font-size="10.00">::value &gt;</text>
</a>
</g>
</g>
<!-- Node3&#45;&gt;Node2 -->
<g id="edge2" class="edge">
<title>Node3&#45;&gt;Node2</title>
<path fill="none" stroke="midnightblue" d="M154.5,-180.26C154.5,-170.56 154.5,-160.52 154.5,-153.65"/>
<polygon fill="midnightblue" stroke="midnightblue" points="151,-180.5 154.5,-190.5 158,-180.5 151,-180.5"/>
</g>
<!-- Node4 -->
<g id="node4" class="node">
<title>Node4</title>
<g id="a_node4"><a xlink:href="class_ogre_1_1_small_vector_template_common.html" target="_top" xlink:title=" ">
<polygon fill="none" stroke="black" points="79.5,-268.5 79.5,-298.5 229.5,-298.5 229.5,-268.5 79.5,-268.5"/>
<text text-anchor="start" x="87.5" y="-286.5" font-family="Helvetica,sans-Serif" font-size="10.00">Ogre::SmallVectorTemplate</text>
<text text-anchor="middle" x="154.5" y="-275.5" font-family="Helvetica,sans-Serif" font-size="10.00">Common&lt; T &gt;</text>
</a>
</g>
</g>
<!-- Node4&#45;&gt;Node3 -->
<g id="edge3" class="edge">
<title>Node4&#45;&gt;Node3</title>
<path fill="none" stroke="midnightblue" d="M154.5,-257.98C154.5,-249.35 154.5,-239.76 154.5,-231.59"/>
<polygon fill="midnightblue" stroke="midnightblue" points="151,-258.23 154.5,-268.23 158,-258.23 151,-258.23"/>
</g>
<!-- Node5 -->
<g id="node5" class="node">
<title>Node5</title>
<g id="a_node5"><a xlink:href="class_ogre_1_1_small_vector_base.html" target="_top" xlink:title="SmallVectorBase &#45; This is all the non&#45;templated stuff common to all SmallVectors.">
<polygon fill="none" stroke="black" points="90,-335.5 90,-354.5 219,-354.5 219,-335.5 90,-335.5"/>
<text text-anchor="middle" x="154.5" y="-342.5" font-family="Helvetica,sans-Serif" font-size="10.00">Ogre::SmallVectorBase</text>
</a>
</g>
</g>
<!-- Node5&#45;&gt;Node4 -->
<g id="edge4" class="edge">
<title>Node5&#45;&gt;Node4</title>
<path fill="none" stroke="midnightblue" d="M154.5,-325.23C154.5,-316.59 154.5,-306.5 154.5,-298.52"/>
<polygon fill="midnightblue" stroke="midnightblue" points="151,-325.48 154.5,-335.48 158,-325.48 151,-325.48"/>
</g>
</g>
</svg>
