<?xml version="1.0" encoding="UTF-8" standalone="no"?>
<!DOCTYPE svg PUBLIC "-//W3C//DTD SVG 1.1//EN"
 "http://www.w3.org/Graphics/SVG/1.1/DTD/svg11.dtd">
<!-- Generated by graphviz version 2.43.0 (0)
 -->
<!-- Title: Ogre::HardwareBufferManager Pages: 1 -->
<svg width="722pt" height="372pt"
 viewBox="0.00 0.00 722.00 372.00" xmlns="http://www.w3.org/2000/svg" xmlns:xlink="http://www.w3.org/1999/xlink">
<g id="graph0" class="graph" transform="scale(1 1) rotate(0) translate(4 368)">
<title>Ogre::HardwareBufferManager</title>
<!-- Node1 -->
<g id="node1" class="node">
<title>Node1</title>
<g id="a_node1"><a xlink:title="Singleton wrapper for hardware buffer manager.">
<polygon fill="#bfbfbf" stroke="black" points="333,-167 333,-186 499,-186 499,-167 333,-167"/>
<text text-anchor="middle" x="416" y="-174" font-family="Helvetica,sans-Serif" font-size="10.00">Ogre::HardwareBufferManager</text>
</a>
</g>
</g>
<!-- Node5 -->
<g id="node5" class="node">
<title>Node5</title>
<g id="a_node5"><a xlink:href="class_ogre_1_1_d3_d11_hardware_buffer_manager.html" target="_top" xlink:title="Implementation of HardwareBufferManager for D3D11.">
<polygon fill="none" stroke="black" points="546.5,-333.5 546.5,-363.5 702.5,-363.5 702.5,-333.5 546.5,-333.5"/>
<text text-anchor="start" x="554.5" y="-351.5" font-family="Helvetica,sans-Serif" font-size="10.00">Ogre::D3D11HardwareBuffer</text>
<text text-anchor="middle" x="624.5" y="-340.5" font-family="Helvetica,sans-Serif" font-size="10.00">Manager</text>
</a>
</g>
</g>
<!-- Node1&#45;&gt;Node5 -->
<g id="edge4" class="edge">
<title>Node1&#45;&gt;Node5</title>
<path fill="none" stroke="midnightblue" d="M426.71,-195.26C444.06,-226.87 483.45,-290.63 535,-324.5 540.19,-327.91 545.85,-330.84 551.72,-333.35"/>
<polygon fill="midnightblue" stroke="midnightblue" points="429.67,-193.37 421.86,-186.2 423.5,-196.67 429.67,-193.37"/>
</g>
<!-- Node6 -->
<g id="node6" class="node">
<title>Node6</title>
<g id="a_node6"><a xlink:href="class_ogre_1_1_d3_d9_hardware_buffer_manager.html" target="_top" xlink:title="Implementation of HardwareBufferManager for D3D9.">
<polygon fill="none" stroke="black" points="549.5,-284.5 549.5,-314.5 699.5,-314.5 699.5,-284.5 549.5,-284.5"/>
<text text-anchor="start" x="557.5" y="-302.5" font-family="Helvetica,sans-Serif" font-size="10.00">Ogre::D3D9HardwareBuffer</text>
<text text-anchor="middle" x="624.5" y="-291.5" font-family="Helvetica,sans-Serif" font-size="10.00">Manager</text>
</a>
</g>
</g>
<!-- Node1&#45;&gt;Node6 -->
<g id="edge5" class="edge">
<title>Node1&#45;&gt;Node6</title>
<path fill="none" stroke="midnightblue" d="M432.67,-193.62C453.81,-215.72 493.63,-253.88 535,-275.5 541.49,-278.89 548.51,-281.84 555.65,-284.39"/>
<polygon fill="midnightblue" stroke="midnightblue" points="435.15,-191.15 425.75,-186.27 430.05,-195.95 435.15,-191.15"/>
</g>
<!-- Node7 -->
<g id="node7" class="node">
<title>Node7</title>
<g id="a_node7"><a xlink:href="class_ogre_1_1_default_hardware_buffer_manager.html" target="_top" xlink:title="DefaultHardwareBufferManager as a Singleton.">
<polygon fill="none" stroke="black" points="545,-235.5 545,-265.5 704,-265.5 704,-235.5 545,-235.5"/>
<text text-anchor="start" x="553" y="-253.5" font-family="Helvetica,sans-Serif" font-size="10.00">Ogre::DefaultHardwareBuffer</text>
<text text-anchor="middle" x="624.5" y="-242.5" font-family="Helvetica,sans-Serif" font-size="10.00">Manager</text>
</a>
</g>
</g>
<!-- Node1&#45;&gt;Node7 -->
<g id="edge6" class="edge">
<title>Node1&#45;&gt;Node7</title>
<path fill="none" stroke="midnightblue" d="M446.26,-190.21C469.87,-200.96 504.13,-215.83 535,-226.5 544.18,-229.67 554.01,-232.7 563.66,-235.46"/>
<polygon fill="midnightblue" stroke="midnightblue" points="447.68,-187.02 437.14,-186.03 444.76,-193.38 447.68,-187.02"/>
</g>
<!-- Node8 -->
<g id="node8" class="node">
<title>Node8</title>
<g id="a_node8"><a xlink:href="class_ogre_1_1_g_l3_plus_hardware_buffer_manager.html" target="_top" xlink:title="Implementation of HardwareBufferManager for OpenGL.">
<polygon fill="none" stroke="black" points="543.5,-186.5 543.5,-216.5 705.5,-216.5 705.5,-186.5 543.5,-186.5"/>
<text text-anchor="start" x="551.5" y="-204.5" font-family="Helvetica,sans-Serif" font-size="10.00">Ogre::GL3PlusHardwareBuffer</text>
<text text-anchor="middle" x="624.5" y="-193.5" font-family="Helvetica,sans-Serif" font-size="10.00">Manager</text>
</a>
</g>
</g>
<!-- Node1&#45;&gt;Node8 -->
<g id="edge7" class="edge">
<title>Node1&#45;&gt;Node8</title>
<path fill="none" stroke="midnightblue" d="M505.63,-187.23C518.16,-188.75 530.99,-190.3 543.35,-191.8"/>
<polygon fill="midnightblue" stroke="midnightblue" points="506.01,-183.75 495.66,-186.02 505.16,-190.7 506.01,-183.75"/>
</g>
<!-- Node9 -->
<g id="node9" class="node">
<title>Node9</title>
<g id="a_node9"><a xlink:href="class_ogre_1_1_g_l_e_s2_hardware_buffer_manager.html" target="_top" xlink:title="Implementation of HardwareBufferManager for OpenGL ES.">
<polygon fill="none" stroke="black" points="547.5,-137.5 547.5,-167.5 701.5,-167.5 701.5,-137.5 547.5,-137.5"/>
<text text-anchor="start" x="555.5" y="-155.5" font-family="Helvetica,sans-Serif" font-size="10.00">Ogre::GLES2HardwareBuffer</text>
<text text-anchor="middle" x="624.5" y="-144.5" font-family="Helvetica,sans-Serif" font-size="10.00">Manager</text>
</a>
</g>
</g>
<!-- Node1&#45;&gt;Node9 -->
<g id="edge8" class="edge">
<title>Node1&#45;&gt;Node9</title>
<path fill="none" stroke="midnightblue" d="M509.11,-165.79C521.91,-164.31 534.94,-162.79 547.4,-161.34"/>
<polygon fill="midnightblue" stroke="midnightblue" points="508.44,-162.35 498.91,-166.98 509.25,-169.3 508.44,-162.35"/>
</g>
<!-- Node10 -->
<g id="node10" class="node">
<title>Node10</title>
<g id="a_node10"><a xlink:href="class_ogre_1_1_g_l_hardware_buffer_manager.html" target="_top" xlink:title="Implementation of HardwareBufferManager for OpenGL.">
<polygon fill="none" stroke="black" points="535,-99 535,-118 714,-118 714,-99 535,-99"/>
<text text-anchor="middle" x="624.5" y="-106" font-family="Helvetica,sans-Serif" font-size="10.00">Ogre::GLHardwareBufferManager</text>
</a>
</g>
</g>
<!-- Node1&#45;&gt;Node10 -->
<g id="edge9" class="edge">
<title>Node1&#45;&gt;Node10</title>
<path fill="none" stroke="midnightblue" d="M446.14,-162.65C469.69,-151.89 503.92,-137.2 535,-127.5 546.55,-123.89 559.16,-120.74 571.14,-118.09"/>
<polygon fill="midnightblue" stroke="midnightblue" points="444.66,-159.48 437.05,-166.85 447.59,-165.83 444.66,-159.48"/>
</g>
<!-- Node11 -->
<g id="node11" class="node">
<title>Node11</title>
<g id="a_node11"><a xlink:href="class_ogre_1_1_metal_hardware_buffer_manager.html" target="_top" xlink:title="Implementation of HardwareBufferManager for Metal.">
<polygon fill="none" stroke="black" points="549,-49.5 549,-79.5 700,-79.5 700,-49.5 549,-49.5"/>
<text text-anchor="start" x="557" y="-67.5" font-family="Helvetica,sans-Serif" font-size="10.00">Ogre::MetalHardwareBuffer</text>
<text text-anchor="middle" x="624.5" y="-56.5" font-family="Helvetica,sans-Serif" font-size="10.00">Manager</text>
</a>
</g>
</g>
<!-- Node1&#45;&gt;Node11 -->
<g id="edge10" class="edge">
<title>Node1&#45;&gt;Node11</title>
<path fill="none" stroke="midnightblue" d="M434.75,-160.17C456.74,-140.74 496.08,-108.56 535,-89.5 542.74,-85.71 551.16,-82.4 559.62,-79.55"/>
<polygon fill="midnightblue" stroke="midnightblue" points="432.31,-157.65 427.21,-166.94 436.99,-162.86 432.31,-157.65"/>
</g>
<!-- Node12 -->
<g id="node12" class="node">
<title>Node12</title>
<g id="a_node12"><a xlink:href="class_ogre_1_1_vulkan_hardware_buffer_manager.html" target="_top" xlink:title=" ">
<polygon fill="none" stroke="black" points="546,-0.5 546,-30.5 703,-30.5 703,-0.5 546,-0.5"/>
<text text-anchor="start" x="554" y="-18.5" font-family="Helvetica,sans-Serif" font-size="10.00">Ogre::VulkanHardwareBuffer</text>
<text text-anchor="middle" x="624.5" y="-7.5" font-family="Helvetica,sans-Serif" font-size="10.00">Manager</text>
</a>
</g>
</g>
<!-- Node1&#45;&gt;Node12 -->
<g id="edge11" class="edge">
<title>Node1&#45;&gt;Node12</title>
<path fill="none" stroke="midnightblue" d="M427.83,-157.91C446.09,-128.27 485.85,-70.47 535,-39.5 540.39,-36.11 546.25,-33.19 552.31,-30.67"/>
<polygon fill="midnightblue" stroke="midnightblue" points="424.64,-156.43 422.48,-166.81 430.64,-160.04 424.64,-156.43"/>
</g>
<!-- Node2 -->
<g id="node2" class="node">
<title>Node2</title>
<g id="a_node2"><a xlink:href="class_ogre_1_1_hardware_buffer_manager_base.html" target="_top" xlink:title="Base definition of a hardware buffer manager.">
<polygon fill="none" stroke="black" points="107,-189 107,-208 297,-208 297,-189 107,-189"/>
<text text-anchor="middle" x="202" y="-196" font-family="Helvetica,sans-Serif" font-size="10.00">Ogre::HardwareBufferManagerBase</text>
</a>
</g>
</g>
<!-- Node2&#45;&gt;Node1 -->
<g id="edge1" class="edge">
<title>Node2&#45;&gt;Node1</title>
<path fill="none" stroke="midnightblue" d="M304.87,-187.93C314.23,-186.96 323.63,-185.98 332.78,-185.03"/>
<polygon fill="midnightblue" stroke="midnightblue" points="304.34,-184.46 294.75,-188.98 305.06,-191.43 304.34,-184.46"/>
</g>
<!-- Node3 -->
<g id="node3" class="node">
<title>Node3</title>
<g id="a_node3"><a xlink:title=" ">
<polygon fill="none" stroke="#bfbfbf" points="0,-189 0,-208 71,-208 71,-189 0,-189"/>
<text text-anchor="middle" x="35.5" y="-196" font-family="Helvetica,sans-Serif" font-size="10.00">BufferAlloc</text>
</a>
</g>
</g>
<!-- Node3&#45;&gt;Node2 -->
<g id="edge2" class="edge">
<title>Node3&#45;&gt;Node2</title>
<path fill="none" stroke="midnightblue" d="M81.54,-198.5C89.55,-198.5 98.16,-198.5 106.96,-198.5"/>
<polygon fill="midnightblue" stroke="midnightblue" points="81.39,-195 71.39,-198.5 81.39,-202 81.39,-195"/>
</g>
<!-- Node4 -->
<g id="node4" class="node">
<title>Node4</title>
<g id="a_node4"><a xlink:href="class_ogre_1_1_singleton.html" target="_top" xlink:title=" ">
<polygon fill="none" stroke="black" points="127,-139.5 127,-169.5 277,-169.5 277,-139.5 127,-139.5"/>
<text text-anchor="start" x="135" y="-157.5" font-family="Helvetica,sans-Serif" font-size="10.00">Ogre::Singleton&lt; Hardware</text>
<text text-anchor="middle" x="202" y="-146.5" font-family="Helvetica,sans-Serif" font-size="10.00">BufferManager &gt;</text>
</a>
</g>
</g>
<!-- Node4&#45;&gt;Node1 -->
<g id="edge3" class="edge">
<title>Node4&#45;&gt;Node1</title>
<path fill="none" stroke="midnightblue" d="M287.42,-163.26C302.41,-164.82 318.01,-166.43 332.94,-167.98"/>
<polygon fill="midnightblue" stroke="midnightblue" points="287.46,-159.75 277.15,-162.19 286.73,-166.71 287.46,-159.75"/>
</g>
</g>
</svg>
