<?xml version="1.0" encoding="UTF-8" standalone="no"?>
<!DOCTYPE svg PUBLIC "-//W3C//DTD SVG 1.1//EN"
 "http://www.w3.org/Graphics/SVG/1.1/DTD/svg11.dtd">
<!-- Generated by graphviz version 2.43.0 (0)
 -->
<!-- Title: Ogre::UnifiedHighLevelGpuProgram Pages: 1 -->
<svg width="230pt" height="207pt"
 viewBox="0.00 0.00 230.00 207.00" xmlns="http://www.w3.org/2000/svg" xmlns:xlink="http://www.w3.org/1999/xlink">
<g id="graph0" class="graph" transform="scale(1 1) rotate(0) translate(4 203)">
<title>Ogre::UnifiedHighLevelGpuProgram</title>
<!-- Node1 -->
<g id="node1" class="node">
<title>Node1</title>
<g id="a_node1"><a xlink:title="Specialisation of HighLevelGpuProgram which just delegates its implementation to one other GpuProgram...">
<polygon fill="#bfbfbf" stroke="black" points="44.5,-0.5 44.5,-30.5 193.5,-30.5 193.5,-0.5 44.5,-0.5"/>
<text text-anchor="start" x="52.5" y="-18.5" font-family="Helvetica,sans-Serif" font-size="10.00">Ogre::UnifiedHighLevelGpu</text>
<text text-anchor="middle" x="119" y="-7.5" font-family="Helvetica,sans-Serif" font-size="10.00">Program</text>
</a>
</g>
</g>
<!-- Node2 -->
<g id="node2" class="node">
<title>Node2</title>
<g id="a_node2"><a xlink:href="class_ogre_1_1_gpu_program.html" target="_top" xlink:title="Defines a program which runs on the GPU such as a vertex or fragment program.">
<polygon fill="none" stroke="black" points="65.5,-67.5 65.5,-86.5 172.5,-86.5 172.5,-67.5 65.5,-67.5"/>
<text text-anchor="middle" x="119" y="-74.5" font-family="Helvetica,sans-Serif" font-size="10.00">Ogre::GpuProgram</text>
</a>
</g>
</g>
<!-- Node2&#45;&gt;Node1 -->
<g id="edge1" class="edge">
<title>Node2&#45;&gt;Node1</title>
<path fill="none" stroke="midnightblue" d="M119,-57.23C119,-48.59 119,-38.5 119,-30.52"/>
<polygon fill="midnightblue" stroke="midnightblue" points="115.5,-57.48 119,-67.48 122.5,-57.48 115.5,-57.48"/>
</g>
<!-- Node3 -->
<g id="node3" class="node">
<title>Node3</title>
<g id="a_node3"><a xlink:href="class_ogre_1_1_resource.html" target="_top" xlink:title="Abstract class representing a loadable resource.">
<polygon fill="none" stroke="black" points="73.5,-123.5 73.5,-142.5 164.5,-142.5 164.5,-123.5 73.5,-123.5"/>
<text text-anchor="middle" x="119" y="-130.5" font-family="Helvetica,sans-Serif" font-size="10.00">Ogre::Resource</text>
</a>
</g>
</g>
<!-- Node3&#45;&gt;Node2 -->
<g id="edge2" class="edge">
<title>Node3&#45;&gt;Node2</title>
<path fill="none" stroke="midnightblue" d="M119,-112.8C119,-103.91 119,-93.78 119,-86.75"/>
<polygon fill="midnightblue" stroke="midnightblue" points="115.5,-113.08 119,-123.08 122.5,-113.08 115.5,-113.08"/>
</g>
<!-- Node4 -->
<g id="node4" class="node">
<title>Node4</title>
<g id="a_node4"><a xlink:href="class_ogre_1_1_string_interface.html" target="_top" xlink:title="Class defining the common interface which classes can use to present a reflection&#45;style,...">
<polygon fill="none" stroke="black" points="0,-179.5 0,-198.5 118,-198.5 118,-179.5 0,-179.5"/>
<text text-anchor="middle" x="59" y="-186.5" font-family="Helvetica,sans-Serif" font-size="10.00">Ogre::StringInterface</text>
</a>
</g>
</g>
<!-- Node4&#45;&gt;Node3 -->
<g id="edge3" class="edge">
<title>Node4&#45;&gt;Node3</title>
<path fill="none" stroke="midnightblue" d="M76.18,-172.54C86.88,-162.91 100.26,-150.87 109.18,-142.83"/>
<polygon fill="midnightblue" stroke="midnightblue" points="73.73,-170.03 68.64,-179.32 78.41,-175.24 73.73,-170.03"/>
</g>
<!-- Node5 -->
<g id="node5" class="node">
<title>Node5</title>
<g id="a_node5"><a xlink:title=" ">
<polygon fill="none" stroke="#bfbfbf" points="136,-179.5 136,-198.5 222,-198.5 222,-179.5 136,-179.5"/>
<text text-anchor="middle" x="179" y="-186.5" font-family="Helvetica,sans-Serif" font-size="10.00">ResourceAlloc</text>
</a>
</g>
</g>
<!-- Node5&#45;&gt;Node3 -->
<g id="edge4" class="edge">
<title>Node5&#45;&gt;Node3</title>
<path fill="none" stroke="midnightblue" d="M161.82,-172.54C151.12,-162.91 137.74,-150.87 128.82,-142.83"/>
<polygon fill="midnightblue" stroke="midnightblue" points="159.59,-175.24 169.36,-179.32 164.27,-170.03 159.59,-175.24"/>
</g>
</g>
</svg>
