<?xml version="1.0" encoding="UTF-8" standalone="no"?>
<!DOCTYPE svg PUBLIC "-//W3C//DTD SVG 1.1//EN"
 "http://www.w3.org/Graphics/SVG/1.1/DTD/svg11.dtd">
<!-- Generated by graphviz version 2.43.0 (0)
 -->
<!-- Title: Ogre::ParticleEmitter Pages: 1 -->
<svg width="514pt" height="308pt"
 viewBox="0.00 0.00 513.50 308.00" xmlns="http://www.w3.org/2000/svg" xmlns:xlink="http://www.w3.org/1999/xlink">
<g id="graph0" class="graph" transform="scale(1 1) rotate(0) translate(4 304)">
<title>Ogre::ParticleEmitter</title>
<!-- Node1 -->
<g id="node1" class="node">
<title>Node1</title>
<g id="a_node1"><a xlink:title="Abstract class defining the interface to be implemented by particle emitters.">
<polygon fill="#bfbfbf" stroke="black" points="253,-168.5 253,-187.5 372,-187.5 372,-168.5 253,-168.5"/>
<text text-anchor="middle" x="312.5" y="-175.5" font-family="Helvetica,sans-Serif" font-size="10.00">Ogre::ParticleEmitter</text>
</a>
</g>
</g>
<!-- Node5 -->
<g id="node5" class="node">
<title>Node5</title>
<g id="a_node5"><a xlink:href="class_ogre_1_1_area_emitter.html" target="_top" xlink:title="Particle emitter which emits particles randomly from points inside an area (box, sphere,...">
<polygon fill="none" stroke="black" points="198.5,-112.5 198.5,-131.5 302.5,-131.5 302.5,-112.5 198.5,-112.5"/>
<text text-anchor="middle" x="250.5" y="-119.5" font-family="Helvetica,sans-Serif" font-size="10.00">Ogre::AreaEmitter</text>
</a>
</g>
</g>
<!-- Node1&#45;&gt;Node5 -->
<g id="edge4" class="edge">
<title>Node1&#45;&gt;Node5</title>
<path fill="none" stroke="midnightblue" d="M294.75,-161.54C283.69,-151.91 269.87,-139.87 260.64,-131.83"/>
<polygon fill="midnightblue" stroke="midnightblue" points="292.7,-164.4 302.54,-168.32 297.3,-159.12 292.7,-164.4"/>
</g>
<!-- Node11 -->
<g id="node11" class="node">
<title>Node11</title>
<g id="a_node11"><a xlink:href="class_ogre_1_1_point_emitter.html" target="_top" xlink:title="This emitter emits particles from a single point, which is it’s position.">
<polygon fill="none" stroke="black" points="321,-112.5 321,-131.5 428,-131.5 428,-112.5 321,-112.5"/>
<text text-anchor="middle" x="374.5" y="-119.5" font-family="Helvetica,sans-Serif" font-size="10.00">Ogre::PointEmitter</text>
</a>
</g>
</g>
<!-- Node1&#45;&gt;Node11 -->
<g id="edge10" class="edge">
<title>Node1&#45;&gt;Node11</title>
<path fill="none" stroke="midnightblue" d="M330.25,-161.54C341.31,-151.91 355.13,-139.87 364.36,-131.83"/>
<polygon fill="midnightblue" stroke="midnightblue" points="327.7,-159.12 322.46,-168.32 332.3,-164.4 327.7,-159.12"/>
</g>
<!-- Node2 -->
<g id="node2" class="node">
<title>Node2</title>
<g id="a_node2"><a xlink:href="class_ogre_1_1_string_interface.html" target="_top" xlink:title="Class defining the common interface which classes can use to present a reflection&#45;style,...">
<polygon fill="none" stroke="black" points="194.5,-224.5 194.5,-243.5 312.5,-243.5 312.5,-224.5 194.5,-224.5"/>
<text text-anchor="middle" x="253.5" y="-231.5" font-family="Helvetica,sans-Serif" font-size="10.00">Ogre::StringInterface</text>
</a>
</g>
</g>
<!-- Node2&#45;&gt;Node1 -->
<g id="edge1" class="edge">
<title>Node2&#45;&gt;Node1</title>
<path fill="none" stroke="midnightblue" d="M270.39,-217.54C280.91,-207.91 294.07,-195.87 302.85,-187.83"/>
<polygon fill="midnightblue" stroke="midnightblue" points="267.99,-214.99 262.98,-224.32 272.72,-220.15 267.99,-214.99"/>
</g>
<!-- Node3 -->
<g id="node3" class="node">
<title>Node3</title>
<g id="a_node3"><a xlink:href="class_ogre_1_1_particle.html" target="_top" xlink:title="Class representing a single particle instance.">
<polygon fill="none" stroke="black" points="331,-224.5 331,-243.5 414,-243.5 414,-224.5 331,-224.5"/>
<text text-anchor="middle" x="372.5" y="-231.5" font-family="Helvetica,sans-Serif" font-size="10.00">Ogre::Particle</text>
</a>
</g>
</g>
<!-- Node3&#45;&gt;Node1 -->
<g id="edge2" class="edge">
<title>Node3&#45;&gt;Node1</title>
<path fill="none" stroke="midnightblue" d="M355.32,-217.54C344.62,-207.91 331.24,-195.87 322.32,-187.83"/>
<polygon fill="midnightblue" stroke="midnightblue" points="353.09,-220.24 362.86,-224.32 357.77,-215.03 353.09,-220.24"/>
</g>
<!-- Node4 -->
<g id="node4" class="node">
<title>Node4</title>
<g id="a_node4"><a xlink:title=" ">
<polygon fill="none" stroke="#bfbfbf" points="346,-280.5 346,-299.5 399,-299.5 399,-280.5 346,-280.5"/>
<text text-anchor="middle" x="372.5" y="-287.5" font-family="Helvetica,sans-Serif" font-size="10.00">FXAlloc</text>
</a>
</g>
</g>
<!-- Node4&#45;&gt;Node3 -->
<g id="edge3" class="edge">
<title>Node4&#45;&gt;Node3</title>
<path fill="none" stroke="midnightblue" d="M372.5,-269.8C372.5,-260.91 372.5,-250.78 372.5,-243.75"/>
<polygon fill="midnightblue" stroke="midnightblue" points="369,-270.08 372.5,-280.08 376,-270.08 369,-270.08"/>
</g>
<!-- Node6 -->
<g id="node6" class="node">
<title>Node6</title>
<g id="a_node6"><a xlink:href="class_ogre_1_1_box_emitter.html" target="_top" xlink:title="This emitter emits particles from a random location within a 3&#45;dimensional box.">
<polygon fill="none" stroke="black" points="0,-56.5 0,-75.5 101,-75.5 101,-56.5 0,-56.5"/>
<text text-anchor="middle" x="50.5" y="-63.5" font-family="Helvetica,sans-Serif" font-size="10.00">Ogre::BoxEmitter</text>
</a>
</g>
</g>
<!-- Node5&#45;&gt;Node6 -->
<g id="edge5" class="edge">
<title>Node5&#45;&gt;Node6</title>
<path fill="none" stroke="midnightblue" d="M209.13,-109.83C171.36,-99.63 116.36,-84.78 82.04,-75.52"/>
<polygon fill="midnightblue" stroke="midnightblue" points="208.24,-113.22 218.81,-112.44 210.07,-106.46 208.24,-113.22"/>
</g>
<!-- Node7 -->
<g id="node7" class="node">
<title>Node7</title>
<g id="a_node7"><a xlink:href="class_ogre_1_1_cylinder_emitter.html" target="_top" xlink:title="This emitter emits particles in a random direction from within a cylinder area, where the cylinder is...">
<polygon fill="none" stroke="black" points="119.5,-56.5 119.5,-75.5 241.5,-75.5 241.5,-56.5 119.5,-56.5"/>
<text text-anchor="middle" x="180.5" y="-63.5" font-family="Helvetica,sans-Serif" font-size="10.00">Ogre::CylinderEmitter</text>
</a>
</g>
</g>
<!-- Node5&#45;&gt;Node7 -->
<g id="edge6" class="edge">
<title>Node5&#45;&gt;Node7</title>
<path fill="none" stroke="midnightblue" d="M231.19,-106.1C218.59,-96.38 202.57,-84.03 191.95,-75.83"/>
<polygon fill="midnightblue" stroke="midnightblue" points="229.2,-108.99 239.25,-112.32 233.47,-103.44 229.2,-108.99"/>
</g>
<!-- Node8 -->
<g id="node8" class="node">
<title>Node8</title>
<g id="a_node8"><a xlink:href="class_ogre_1_1_ellipsoid_emitter.html" target="_top" xlink:title="Particle emitter which emits particles randomly from points inside an ellipsoid.">
<polygon fill="none" stroke="black" points="260,-56.5 260,-75.5 383,-75.5 383,-56.5 260,-56.5"/>
<text text-anchor="middle" x="321.5" y="-63.5" font-family="Helvetica,sans-Serif" font-size="10.00">Ogre::EllipsoidEmitter</text>
</a>
</g>
</g>
<!-- Node5&#45;&gt;Node8 -->
<g id="edge7" class="edge">
<title>Node5&#45;&gt;Node8</title>
<path fill="none" stroke="midnightblue" d="M270.09,-106.1C282.87,-96.38 299.11,-84.03 309.89,-75.83"/>
<polygon fill="midnightblue" stroke="midnightblue" points="267.75,-103.48 261.91,-112.32 271.99,-109.06 267.75,-103.48"/>
</g>
<!-- Node10 -->
<g id="node10" class="node">
<title>Node10</title>
<g id="a_node10"><a xlink:href="class_ogre_1_1_ring_emitter.html" target="_top" xlink:title="Particle emitter which emits particles randomly from points inside a ring (e.g.">
<polygon fill="none" stroke="black" points="401.5,-56.5 401.5,-75.5 505.5,-75.5 505.5,-56.5 401.5,-56.5"/>
<text text-anchor="middle" x="453.5" y="-63.5" font-family="Helvetica,sans-Serif" font-size="10.00">Ogre::RingEmitter</text>
</a>
</g>
</g>
<!-- Node5&#45;&gt;Node10 -->
<g id="edge9" class="edge">
<title>Node5&#45;&gt;Node10</title>
<path fill="none" stroke="midnightblue" d="M292.49,-109.83C330.82,-99.63 386.65,-84.78 421.48,-75.52"/>
<polygon fill="midnightblue" stroke="midnightblue" points="291.43,-106.49 282.67,-112.44 293.23,-113.26 291.43,-106.49"/>
</g>
<!-- Node9 -->
<g id="node9" class="node">
<title>Node9</title>
<g id="a_node9"><a xlink:href="class_ogre_1_1_hollow_ellipsoid_emitter.html" target="_top" xlink:title="Particle emitter which emits particles randomly from points inside a hollow ellipsoid.">
<polygon fill="none" stroke="black" points="243,-0.5 243,-19.5 400,-19.5 400,-0.5 243,-0.5"/>
<text text-anchor="middle" x="321.5" y="-7.5" font-family="Helvetica,sans-Serif" font-size="10.00">Ogre::HollowEllipsoidEmitter</text>
</a>
</g>
</g>
<!-- Node8&#45;&gt;Node9 -->
<g id="edge8" class="edge">
<title>Node8&#45;&gt;Node9</title>
<path fill="none" stroke="midnightblue" d="M321.5,-45.8C321.5,-36.91 321.5,-26.78 321.5,-19.75"/>
<polygon fill="midnightblue" stroke="midnightblue" points="318,-46.08 321.5,-56.08 325,-46.08 318,-46.08"/>
</g>
</g>
</svg>
