<?xml version="1.0" encoding="UTF-8" standalone="no"?>
<!DOCTYPE svg PUBLIC "-//W3C//DTD SVG 1.1//EN"
 "http://www.w3.org/Graphics/SVG/1.1/DTD/svg11.dtd">
<!-- Generated by graphviz version 2.43.0 (0)
 -->
<!-- Title: Graphical Class Hierarchy Pages: 1 -->
<svg width="480pt" height="534pt"
 viewBox="0.00 0.00 480.00 534.00" xmlns="http://www.w3.org/2000/svg" xmlns:xlink="http://www.w3.org/1999/xlink">
<g id="graph0" class="graph" transform="scale(1 1) rotate(0) translate(4 530)">
<title>Graphical Class Hierarchy</title>
<!-- Node164 -->
<g id="node1" class="node">
<title>Node164</title>
<g id="a_node1"><a xlink:title=" ">
<polygon fill="none" stroke="#bfbfbf" points="0,-240.5 0,-259.5 77,-259.5 77,-240.5 0,-240.5"/>
<text text-anchor="middle" x="38.5" y="-247.5" font-family="Helvetica,sans-Serif" font-size="10.00">FactoryAlloc</text>
</a>
</g>
</g>
<!-- Node0 -->
<g id="node2" class="node">
<title>Node0</title>
<g id="a_node2"><a xlink:href="class_ogre_1_1_gpu_program_factory.html" target="_top" xlink:title="Interface definition for factories of GpuProgram.">
<polygon fill="none" stroke="black" points="113,-259.5 113,-278.5 256,-278.5 256,-259.5 113,-259.5"/>
<text text-anchor="middle" x="184.5" y="-266.5" font-family="Helvetica,sans-Serif" font-size="10.00">Ogre::GpuProgramFactory</text>
</a>
</g>
</g>
<!-- Node164&#45;&gt;Node0 -->
<g id="edge1" class="edge">
<title>Node164&#45;&gt;Node0</title>
<path fill="none" stroke="midnightblue" d="M87.38,-256.32C95.54,-257.39 104.16,-258.53 112.76,-259.67"/>
<polygon fill="midnightblue" stroke="midnightblue" points="87.71,-252.83 77.33,-254.99 86.79,-259.77 87.71,-252.83"/>
</g>
<!-- Node180 -->
<g id="node17" class="node">
<title>Node180</title>
<g id="a_node17"><a xlink:href="class_ogre_1_1_instance_manager.html" target="_top" xlink:title="This is the main starting point for the new instancing system.">
<polygon fill="none" stroke="black" points="119.5,-221.5 119.5,-240.5 249.5,-240.5 249.5,-221.5 119.5,-221.5"/>
<text text-anchor="middle" x="184.5" y="-228.5" font-family="Helvetica,sans-Serif" font-size="10.00">Ogre::InstanceManager</text>
</a>
</g>
</g>
<!-- Node164&#45;&gt;Node180 -->
<g id="edge16" class="edge">
<title>Node164&#45;&gt;Node180</title>
<path fill="none" stroke="midnightblue" d="M87.34,-243.69C97.64,-242.33 108.67,-240.87 119.47,-239.45"/>
<polygon fill="midnightblue" stroke="midnightblue" points="86.79,-240.23 77.33,-245.01 87.71,-247.17 86.79,-240.23"/>
</g>
<!-- Node1 -->
<g id="node3" class="node">
<title>Node1</title>
<g id="a_node3"><a xlink:href="class_ogre_1_1_cg_program_factory.html" target="_top" xlink:title="Factory class for Cg programs.">
<polygon fill="none" stroke="black" points="314,-506.5 314,-525.5 450,-525.5 450,-506.5 314,-506.5"/>
<text text-anchor="middle" x="382" y="-513.5" font-family="Helvetica,sans-Serif" font-size="10.00">Ogre::CgProgramFactory</text>
</a>
</g>
</g>
<!-- Node0&#45;&gt;Node1 -->
<g id="edge2" class="edge">
<title>Node0&#45;&gt;Node1</title>
<path fill="none" stroke="midnightblue" d="M188.68,-288.78C196.94,-333.45 223.44,-442.45 292,-497 298.43,-502.12 305.92,-505.94 313.77,-508.78"/>
<polygon fill="midnightblue" stroke="midnightblue" points="192.08,-287.91 186.92,-278.66 185.18,-289.11 192.08,-287.91"/>
</g>
<!-- Node2 -->
<g id="node4" class="node">
<title>Node2</title>
<g id="a_node4"><a xlink:href="struct_ogre_1_1_create_callback_wrapper.html" target="_top" xlink:title=" ">
<polygon fill="none" stroke="black" points="301.5,-468.5 301.5,-487.5 462.5,-487.5 462.5,-468.5 301.5,-468.5"/>
<text text-anchor="middle" x="382" y="-475.5" font-family="Helvetica,sans-Serif" font-size="10.00">Ogre::CreateCallbackWrapper</text>
</a>
</g>
</g>
<!-- Node0&#45;&gt;Node2 -->
<g id="edge3" class="edge">
<title>Node0&#45;&gt;Node2</title>
<path fill="none" stroke="midnightblue" d="M190.61,-288.66C201.86,-327.74 232.58,-415.21 292,-459 297.21,-462.84 303.04,-465.94 309.15,-468.44"/>
<polygon fill="midnightblue" stroke="midnightblue" points="193.93,-287.5 187.9,-278.79 187.18,-289.36 193.93,-287.5"/>
</g>
<!-- Node3 -->
<g id="node5" class="node">
<title>Node3</title>
<g id="a_node5"><a xlink:href="class_ogre_1_1_d3_d11_h_l_s_l_program_factory.html" target="_top" xlink:title="Factory class for D3D11 HLSL programs.">
<polygon fill="none" stroke="black" points="292,-430.5 292,-449.5 472,-449.5 472,-430.5 292,-430.5"/>
<text text-anchor="middle" x="382" y="-437.5" font-family="Helvetica,sans-Serif" font-size="10.00">Ogre::D3D11HLSLProgramFactory</text>
</a>
</g>
</g>
<!-- Node0&#45;&gt;Node3 -->
<g id="edge4" class="edge">
<title>Node0&#45;&gt;Node3</title>
<path fill="none" stroke="midnightblue" d="M193.23,-288.09C207.52,-320.84 241.34,-387.45 292,-421 297.8,-424.84 304.23,-427.92 310.91,-430.39"/>
<polygon fill="midnightblue" stroke="midnightblue" points="196.39,-286.58 189.27,-278.73 189.94,-289.3 196.39,-286.58"/>
</g>
<!-- Node4 -->
<g id="node6" class="node">
<title>Node4</title>
<g id="a_node6"><a xlink:href="class_ogre_1_1_d3_d9_gpu_program_manager.html" target="_top" xlink:title=" ">
<polygon fill="none" stroke="black" points="294,-392.5 294,-411.5 470,-411.5 470,-392.5 294,-392.5"/>
<text text-anchor="middle" x="382" y="-399.5" font-family="Helvetica,sans-Serif" font-size="10.00">Ogre::D3D9GpuProgramManager</text>
</a>
</g>
</g>
<!-- Node0&#45;&gt;Node4 -->
<g id="edge5" class="edge">
<title>Node0&#45;&gt;Node4</title>
<path fill="none" stroke="midnightblue" d="M197.15,-287.25C214.54,-312.9 249.8,-359.12 292,-383 298.88,-386.89 306.46,-389.99 314.22,-392.45"/>
<polygon fill="midnightblue" stroke="midnightblue" points="200.01,-285.22 191.57,-278.81 194.17,-289.08 200.01,-285.22"/>
</g>
<!-- Node5 -->
<g id="node7" class="node">
<title>Node5</title>
<g id="a_node7"><a xlink:href="class_ogre_1_1_d3_d9_h_l_s_l_program_factory.html" target="_top" xlink:title="Factory class for D3D9 HLSL programs.">
<polygon fill="none" stroke="black" points="295,-354.5 295,-373.5 469,-373.5 469,-354.5 295,-354.5"/>
<text text-anchor="middle" x="382" y="-361.5" font-family="Helvetica,sans-Serif" font-size="10.00">Ogre::D3D9HLSLProgramFactory</text>
</a>
</g>
</g>
<!-- Node0&#45;&gt;Node5 -->
<g id="edge6" class="edge">
<title>Node0&#45;&gt;Node5</title>
<path fill="none" stroke="midnightblue" d="M203.49,-285.41C223.58,-302.85 257.81,-329.93 292,-345 300.82,-348.89 310.49,-352 320.1,-354.49"/>
<polygon fill="midnightblue" stroke="midnightblue" points="205.59,-282.6 195.78,-278.59 200.95,-287.84 205.59,-282.6"/>
</g>
<!-- Node6 -->
<g id="node8" class="node">
<title>Node6</title>
<g id="a_node8"><a xlink:href="class_ogre_1_1_g_l_s_l_1_1_g_l_s_l_program_factory.html" target="_top" xlink:title="Factory class for GLSL programs.">
<polygon fill="none" stroke="black" points="293.5,-316.5 293.5,-335.5 470.5,-335.5 470.5,-316.5 293.5,-316.5"/>
<text text-anchor="middle" x="382" y="-323.5" font-family="Helvetica,sans-Serif" font-size="10.00">Ogre::GLSL::GLSLProgramFactory</text>
</a>
</g>
</g>
<!-- Node0&#45;&gt;Node6 -->
<g id="edge7" class="edge">
<title>Node0&#45;&gt;Node6</title>
<path fill="none" stroke="midnightblue" d="M218.67,-282.12C239.5,-290.03 267.06,-299.92 292,-307 304.31,-310.49 317.74,-313.68 330.35,-316.4"/>
<polygon fill="midnightblue" stroke="midnightblue" points="219.91,-278.84 209.32,-278.52 217.4,-285.38 219.91,-278.84"/>
</g>
<!-- Node7 -->
<g id="node9" class="node">
<title>Node7</title>
<g id="a_node9"><a xlink:href="class_ogre_1_1_g_l_s_l_e_s_cg_program_factory.html" target="_top" xlink:title="Factory class for GLSL ES programs.">
<polygon fill="none" stroke="black" points="296,-278.5 296,-297.5 468,-297.5 468,-278.5 296,-278.5"/>
<text text-anchor="middle" x="382" y="-285.5" font-family="Helvetica,sans-Serif" font-size="10.00">Ogre::GLSLESCgProgramFactory</text>
</a>
</g>
</g>
<!-- Node0&#45;&gt;Node7 -->
<g id="edge8" class="edge">
<title>Node0&#45;&gt;Node7</title>
<path fill="none" stroke="midnightblue" d="M266.18,-276.84C275.97,-277.79 286,-278.77 295.86,-279.73"/>
<polygon fill="midnightblue" stroke="midnightblue" points="266.37,-273.34 256.08,-275.86 265.69,-280.31 266.37,-273.34"/>
</g>
<!-- Node8 -->
<g id="node10" class="node">
<title>Node8</title>
<g id="a_node10"><a xlink:href="class_ogre_1_1_g_l_s_l_e_s_program_factory.html" target="_top" xlink:title="Factory class for GLSL ES programs.">
<polygon fill="none" stroke="black" points="302.5,-240.5 302.5,-259.5 461.5,-259.5 461.5,-240.5 302.5,-240.5"/>
<text text-anchor="middle" x="382" y="-247.5" font-family="Helvetica,sans-Serif" font-size="10.00">Ogre::GLSLESProgramFactory</text>
</a>
</g>
</g>
<!-- Node0&#45;&gt;Node8 -->
<g id="edge9" class="edge">
<title>Node0&#45;&gt;Node8</title>
<path fill="none" stroke="midnightblue" d="M266.39,-261.14C278.24,-259.99 290.43,-258.8 302.24,-257.65"/>
<polygon fill="midnightblue" stroke="midnightblue" points="265.69,-257.69 256.08,-262.14 266.37,-264.66 265.69,-257.69"/>
</g>
<!-- Node9 -->
<g id="node11" class="node">
<title>Node9</title>
<g id="a_node11"><a xlink:href="class_ogre_1_1_g_l_s_l_shader_factory.html" target="_top" xlink:title="Factory class for GLSL shaders.">
<polygon fill="none" stroke="black" points="312,-202.5 312,-221.5 452,-221.5 452,-202.5 312,-202.5"/>
<text text-anchor="middle" x="382" y="-209.5" font-family="Helvetica,sans-Serif" font-size="10.00">Ogre::GLSLShaderFactory</text>
</a>
</g>
</g>
<!-- Node0&#45;&gt;Node9 -->
<g id="edge10" class="edge">
<title>Node0&#45;&gt;Node9</title>
<path fill="none" stroke="midnightblue" d="M236.61,-256.67C243.21,-254.66 249.82,-252.43 256,-250 272.84,-243.38 274.99,-237.17 292,-231 302.4,-227.23 313.76,-224.1 324.79,-221.54"/>
<polygon fill="midnightblue" stroke="midnightblue" points="235.63,-253.31 227.01,-259.46 237.59,-260.04 235.63,-253.31"/>
</g>
<!-- Node10 -->
<g id="node12" class="node">
<title>Node10</title>
<g id="a_node12"><a xlink:href="class_ogre_1_1_g_l_s_lang_program_factory.html" target="_top" xlink:title="Factory class for GLSLang programs.">
<polygon fill="none" stroke="black" points="299.5,-164.5 299.5,-183.5 464.5,-183.5 464.5,-164.5 299.5,-164.5"/>
<text text-anchor="middle" x="382" y="-171.5" font-family="Helvetica,sans-Serif" font-size="10.00">Ogre::GLSLangProgramFactory</text>
</a>
</g>
</g>
<!-- Node0&#45;&gt;Node10 -->
<g id="edge11" class="edge">
<title>Node0&#45;&gt;Node10</title>
<path fill="none" stroke="midnightblue" d="M247.54,-255.28C250.51,-253.71 253.35,-251.96 256,-250 280.12,-232.22 267.42,-210.14 292,-193 297.57,-189.11 303.78,-186 310.26,-183.5"/>
<polygon fill="midnightblue" stroke="midnightblue" points="245.99,-252.15 238.35,-259.49 248.9,-258.51 245.99,-252.15"/>
</g>
<!-- Node11 -->
<g id="node13" class="node">
<title>Node11</title>
<g id="a_node13"><a xlink:href="class_ogre_1_1_metal_program_factory.html" target="_top" xlink:title="Factory class for Metal programs.">
<polygon fill="none" stroke="black" points="306.5,-126.5 306.5,-145.5 457.5,-145.5 457.5,-126.5 306.5,-126.5"/>
<text text-anchor="middle" x="382" y="-133.5" font-family="Helvetica,sans-Serif" font-size="10.00">Ogre::MetalProgramFactory</text>
</a>
</g>
</g>
<!-- Node0&#45;&gt;Node11 -->
<g id="edge12" class="edge">
<title>Node0&#45;&gt;Node11</title>
<path fill="none" stroke="midnightblue" d="M250.53,-254.3C252.45,-252.99 254.28,-251.56 256,-250 289.47,-219.69 257.74,-184.41 292,-155 296.44,-151.19 301.45,-148.09 306.78,-145.56"/>
<polygon fill="midnightblue" stroke="midnightblue" points="248.58,-251.38 241.61,-259.36 252.04,-257.47 248.58,-251.38"/>
</g>
<!-- Node12 -->
<g id="node14" class="node">
<title>Node12</title>
<g id="a_node14"><a xlink:href="class_ogre_1_1_s_p_i_r_v_shader_factory.html" target="_top" xlink:title=" ">
<polygon fill="none" stroke="black" points="310,-88.5 310,-107.5 454,-107.5 454,-88.5 310,-88.5"/>
<text text-anchor="middle" x="382" y="-95.5" font-family="Helvetica,sans-Serif" font-size="10.00">Ogre::SPIRVShaderFactory</text>
</a>
</g>
</g>
<!-- Node0&#45;&gt;Node12 -->
<g id="edge13" class="edge">
<title>Node0&#45;&gt;Node12</title>
<path fill="none" stroke="midnightblue" d="M251.39,-254.02C253.01,-252.78 254.55,-251.44 256,-250 299.33,-206.72 247.54,-159.12 292,-117 297.16,-112.11 303.26,-108.35 309.8,-105.48"/>
<polygon fill="midnightblue" stroke="midnightblue" points="249.34,-251.18 242.69,-259.43 253.03,-257.12 249.34,-251.18"/>
</g>
<!-- Node13 -->
<g id="node15" class="node">
<title>Node13</title>
<g id="a_node15"><a xlink:href="class_ogre_1_1_unified_high_level_gpu_program_factory.html" target="_top" xlink:title="Factory class for Unified programs.">
<polygon fill="none" stroke="black" points="307.5,-39 307.5,-69 456.5,-69 456.5,-39 307.5,-39"/>
<text text-anchor="start" x="315.5" y="-57" font-family="Helvetica,sans-Serif" font-size="10.00">Ogre::UnifiedHighLevelGpu</text>
<text text-anchor="middle" x="382" y="-46" font-family="Helvetica,sans-Serif" font-size="10.00">ProgramFactory</text>
</a>
</g>
</g>
<!-- Node0&#45;&gt;Node13 -->
<g id="edge14" class="edge">
<title>Node0&#45;&gt;Node13</title>
<path fill="none" stroke="midnightblue" d="M251.99,-253.73C253.4,-252.57 254.74,-251.33 256,-250 309.37,-193.57 238.93,-135.71 292,-79 296.39,-74.31 301.57,-70.48 307.21,-67.35"/>
<polygon fill="midnightblue" stroke="midnightblue" points="249.69,-251.05 243.26,-259.48 253.54,-256.9 249.69,-251.05"/>
</g>
<!-- Node14 -->
<g id="node16" class="node">
<title>Node14</title>
<g id="a_node16"><a xlink:href="class_ogre_1_1_vulkan_program_factory.html" target="_top" xlink:title="Factory class for Vulkan programs.">
<polygon fill="none" stroke="black" points="303.5,-0.5 303.5,-19.5 460.5,-19.5 460.5,-0.5 303.5,-0.5"/>
<text text-anchor="middle" x="382" y="-7.5" font-family="Helvetica,sans-Serif" font-size="10.00">Ogre::VulkanProgramFactory</text>
</a>
</g>
</g>
<!-- Node0&#45;&gt;Node14 -->
<g id="edge15" class="edge">
<title>Node0&#45;&gt;Node14</title>
<path fill="none" stroke="midnightblue" d="M252.17,-253.72C253.52,-252.56 254.8,-251.33 256,-250 322.43,-176.49 224.03,-102.09 292,-30 296.02,-25.74 300.74,-22.29 305.87,-19.51"/>
<polygon fill="midnightblue" stroke="midnightblue" points="250.05,-250.93 243.78,-259.47 254.01,-256.7 250.05,-250.93"/>
</g>
</g>
</svg>
