<?xml version="1.0" encoding="UTF-8" standalone="no"?>
<!DOCTYPE svg PUBLIC "-//W3C//DTD SVG 1.1//EN"
 "http://www.w3.org/Graphics/SVG/1.1/DTD/svg11.dtd">
<!-- Generated by graphviz version 2.43.0 (0)
 -->
<!-- Title: Graphical Class Hierarchy Pages: 1 -->
<svg width="516pt" height="142pt"
 viewBox="0.00 0.00 516.00 142.00" xmlns="http://www.w3.org/2000/svg" xmlns:xlink="http://www.w3.org/1999/xlink">
<g id="graph0" class="graph" transform="scale(1 1) rotate(0) translate(4 138)">
<title>Graphical Class Hierarchy</title>
<!-- Node1 -->
<g id="node1" class="node">
<title>Node1</title>
<g id="a_node1"><a xlink:href="class_ogre_1_1_atom_abstract_node.html" target="_top" xlink:title="This is an abstract node which cannot be broken down further.">
<polygon fill="none" stroke="black" points="0,-57.5 0,-76.5 138,-76.5 138,-57.5 0,-57.5"/>
<text text-anchor="middle" x="69" y="-64.5" font-family="Helvetica,sans-Serif" font-size="10.00">Ogre::AtomAbstractNode</text>
</a>
</g>
</g>
<!-- Node0 -->
<g id="node2" class="node">
<title>Node0</title>
<g id="a_node2"><a xlink:href="class_ogre_1_1_abstract_node.html" target="_top" xlink:title=" ">
<polygon fill="none" stroke="black" points="174,-57.5 174,-76.5 286,-76.5 286,-57.5 174,-57.5"/>
<text text-anchor="middle" x="230" y="-64.5" font-family="Helvetica,sans-Serif" font-size="10.00">Ogre::AbstractNode</text>
</a>
</g>
</g>
<!-- Node1&#45;&gt;Node0 -->
<g id="edge1" class="edge">
<title>Node1&#45;&gt;Node0</title>
<path fill="none" stroke="midnightblue" d="M148.63,-60.25C157.08,-60.24 165.55,-60.34 173.64,-60.53"/>
<polygon fill="midnightblue" stroke="midnightblue" points="148.33,-56.75 138.35,-60.31 148.37,-63.75 148.33,-56.75"/>
</g>
<!-- Node0&#45;&gt;Node1 -->
<g id="edge2" class="edge">
<title>Node0&#45;&gt;Node1</title>
<path fill="none" stroke="midnightblue" d="M163.61,-73.65C155.28,-73.77 146.73,-73.78 138.35,-73.69"/>
<polygon fill="midnightblue" stroke="midnightblue" points="163.71,-77.15 173.64,-73.47 163.58,-70.15 163.71,-77.15"/>
</g>
<!-- Node2 -->
<g id="node3" class="node">
<title>Node2</title>
<g id="a_node3"><a xlink:href="class_ogre_1_1_import_abstract_node.html" target="_top" xlink:title="This abstract node represents an import statement.">
<polygon fill="none" stroke="black" points="343,-114.5 343,-133.5 487,-133.5 487,-114.5 343,-114.5"/>
<text text-anchor="middle" x="415" y="-121.5" font-family="Helvetica,sans-Serif" font-size="10.00">Ogre::ImportAbstractNode</text>
</a>
</g>
</g>
<!-- Node0&#45;&gt;Node2 -->
<g id="edge3" class="edge">
<title>Node0&#45;&gt;Node2</title>
<path fill="none" stroke="midnightblue" d="M260,-80.79C277.62,-88.74 300.74,-98.43 322,-105 333.84,-108.66 346.76,-111.82 359.08,-114.46"/>
<polygon fill="midnightblue" stroke="midnightblue" points="261.38,-77.57 250.83,-76.58 258.46,-83.93 261.38,-77.57"/>
</g>
<!-- Node3 -->
<g id="node4" class="node">
<title>Node3</title>
<g id="a_node4"><a xlink:href="class_ogre_1_1_object_abstract_node.html" target="_top" xlink:title="This specific abstract node represents a script object.">
<polygon fill="none" stroke="black" points="343.5,-76.5 343.5,-95.5 486.5,-95.5 486.5,-76.5 343.5,-76.5"/>
<text text-anchor="middle" x="415" y="-83.5" font-family="Helvetica,sans-Serif" font-size="10.00">Ogre::ObjectAbstractNode</text>
</a>
</g>
</g>
<!-- Node0&#45;&gt;Node3 -->
<g id="edge4" class="edge">
<title>Node0&#45;&gt;Node3</title>
<path fill="none" stroke="midnightblue" d="M296.67,-73.82C311.77,-75.39 327.89,-77.06 343.2,-78.65"/>
<polygon fill="midnightblue" stroke="midnightblue" points="296.71,-70.3 286.4,-72.75 295.99,-77.27 296.71,-70.3"/>
</g>
<!-- Node4 -->
<g id="node5" class="node">
<title>Node4</title>
<g id="a_node5"><a xlink:href="class_ogre_1_1_property_abstract_node.html" target="_top" xlink:title="This abstract node represents a script property.">
<polygon fill="none" stroke="black" points="338.5,-38.5 338.5,-57.5 491.5,-57.5 491.5,-38.5 338.5,-38.5"/>
<text text-anchor="middle" x="415" y="-45.5" font-family="Helvetica,sans-Serif" font-size="10.00">Ogre::PropertyAbstractNode</text>
</a>
</g>
</g>
<!-- Node0&#45;&gt;Node4 -->
<g id="edge5" class="edge">
<title>Node0&#45;&gt;Node4</title>
<path fill="none" stroke="midnightblue" d="M296.54,-60.2C310.04,-58.79 324.36,-57.31 338.19,-55.87"/>
<polygon fill="midnightblue" stroke="midnightblue" points="295.99,-56.73 286.4,-61.25 296.71,-63.7 295.99,-56.73"/>
</g>
<!-- Node5 -->
<g id="node6" class="node">
<title>Node5</title>
<g id="a_node6"><a xlink:href="class_ogre_1_1_variable_access_abstract_node.html" target="_top" xlink:title="This abstract node represents a variable assignment.">
<polygon fill="none" stroke="black" points="322,-0.5 322,-19.5 508,-19.5 508,-0.5 322,-0.5"/>
<text text-anchor="middle" x="415" y="-7.5" font-family="Helvetica,sans-Serif" font-size="10.00">Ogre::VariableAccessAbstractNode</text>
</a>
</g>
</g>
<!-- Node0&#45;&gt;Node5 -->
<g id="edge6" class="edge">
<title>Node0&#45;&gt;Node5</title>
<path fill="none" stroke="midnightblue" d="M260,-53.21C277.62,-45.26 300.74,-35.57 322,-29 333.84,-25.34 346.76,-22.18 359.08,-19.54"/>
<polygon fill="midnightblue" stroke="midnightblue" points="258.46,-50.07 250.83,-57.42 261.38,-56.43 258.46,-50.07"/>
</g>
</g>
</svg>
