<?xml version="1.0" encoding="UTF-8" standalone="no"?>
<!DOCTYPE svg PUBLIC "-//W3C//DTD SVG 1.1//EN"
 "http://www.w3.org/Graphics/SVG/1.1/DTD/svg11.dtd">
<!-- Generated by graphviz version 2.43.0 (0)
 -->
<!-- Title: Graphical Class Hierarchy Pages: 1 -->
<svg width="1204pt" height="719pt"
 viewBox="0.00 0.00 1204.00 719.00" xmlns="http://www.w3.org/2000/svg" xmlns:xlink="http://www.w3.org/1999/xlink">
<g id="graph0" class="graph" transform="scale(1 1) rotate(0) translate(4 715)">
<title>Graphical Class Hierarchy</title>
<!-- Node0 -->
<g id="node1" class="node">
<title>Node0</title>
<g id="a_node1"><a xlink:href="class_ogre_1_1_intersection_scene_query_listener.html" target="_top" xlink:title="Alternative listener class for dealing with IntersectionSceneQuery.">
<polygon fill="none" stroke="black" points="220.5,-592.5 220.5,-622.5 382.5,-622.5 382.5,-592.5 220.5,-592.5"/>
<text text-anchor="start" x="228.5" y="-610.5" font-family="Helvetica,sans-Serif" font-size="10.00">Ogre::IntersectionSceneQuery</text>
<text text-anchor="middle" x="301.5" y="-599.5" font-family="Helvetica,sans-Serif" font-size="10.00">Listener</text>
</a>
</g>
</g>
<!-- Node1 -->
<g id="node2" class="node">
<title>Node1</title>
<g id="a_node2"><a xlink:href="class_ogre_1_1_intersection_scene_query.html" target="_top" xlink:title="Separate SceneQuery class to query for pairs of objects which are possibly intersecting one another.">
<polygon fill="none" stroke="black" points="433.5,-598 433.5,-617 595.5,-617 595.5,-598 433.5,-598"/>
<text text-anchor="middle" x="514.5" y="-605" font-family="Helvetica,sans-Serif" font-size="10.00">Ogre::IntersectionSceneQuery</text>
</a>
</g>
</g>
<!-- Node0&#45;&gt;Node1 -->
<g id="edge1" class="edge">
<title>Node0&#45;&gt;Node1</title>
<path fill="none" stroke="midnightblue" d="M392.83,-607.5C406.34,-607.5 420.2,-607.5 433.48,-607.5"/>
<polygon fill="midnightblue" stroke="midnightblue" points="392.57,-604 382.57,-607.5 392.57,-611 392.57,-604"/>
</g>
<!-- Node2 -->
<g id="node3" class="node">
<title>Node2</title>
<g id="a_node3"><a xlink:href="class_ogre_1_1_default_intersection_scene_query.html" target="_top" xlink:title="Default implementation of IntersectionSceneQuery.">
<polygon fill="none" stroke="black" points="646.5,-593.5 646.5,-623.5 786.5,-623.5 786.5,-593.5 646.5,-593.5"/>
<text text-anchor="start" x="654.5" y="-611.5" font-family="Helvetica,sans-Serif" font-size="10.00">Ogre::DefaultIntersection</text>
<text text-anchor="middle" x="716.5" y="-600.5" font-family="Helvetica,sans-Serif" font-size="10.00">SceneQuery</text>
</a>
</g>
</g>
<!-- Node1&#45;&gt;Node2 -->
<g id="edge2" class="edge">
<title>Node1&#45;&gt;Node2</title>
<path fill="none" stroke="midnightblue" d="M605.97,-607.95C619.49,-608.02 633.25,-608.09 646.24,-608.15"/>
<polygon fill="midnightblue" stroke="midnightblue" points="605.71,-604.45 595.7,-607.9 605.68,-611.45 605.71,-604.45"/>
</g>
<!-- Node3 -->
<g id="node4" class="node">
<title>Node3</title>
<g id="a_node4"><a xlink:href="class_ogre_1_1_bsp_intersection_scene_query.html" target="_top" xlink:title="BSP specialisation of IntersectionSceneQuery.">
<polygon fill="none" stroke="black" points="834,-680.5 834,-710.5 985,-710.5 985,-680.5 834,-680.5"/>
<text text-anchor="start" x="842" y="-698.5" font-family="Helvetica,sans-Serif" font-size="10.00">Ogre::BspIntersectionScene</text>
<text text-anchor="middle" x="909.5" y="-687.5" font-family="Helvetica,sans-Serif" font-size="10.00">Query</text>
</a>
</g>
</g>
<!-- Node2&#45;&gt;Node3 -->
<g id="edge3" class="edge">
<title>Node2&#45;&gt;Node3</title>
<path fill="none" stroke="midnightblue" d="M750.57,-629C772.98,-642.3 803.57,-659.36 832,-671.5 839.55,-674.72 847.69,-677.74 855.74,-680.47"/>
<polygon fill="midnightblue" stroke="midnightblue" points="752.18,-625.88 741.8,-623.73 748.57,-631.88 752.18,-625.88"/>
</g>
<!-- Node4 -->
<g id="node5" class="node">
<title>Node4</title>
<g id="a_node5"><a xlink:href="class_ogre_1_1_octree_intersection_scene_query.html" target="_top" xlink:title="Octree implementation of IntersectionSceneQuery.">
<polygon fill="none" stroke="black" points="841.5,-631.5 841.5,-661.5 977.5,-661.5 977.5,-631.5 841.5,-631.5"/>
<text text-anchor="start" x="849.5" y="-649.5" font-family="Helvetica,sans-Serif" font-size="10.00">Ogre::OctreeIntersection</text>
<text text-anchor="middle" x="909.5" y="-638.5" font-family="Helvetica,sans-Serif" font-size="10.00">SceneQuery</text>
</a>
</g>
</g>
<!-- Node2&#45;&gt;Node4 -->
<g id="edge4" class="edge">
<title>Node2&#45;&gt;Node4</title>
<path fill="none" stroke="midnightblue" d="M796.88,-624.29C811.69,-627.24 827.03,-630.29 841.43,-633.16"/>
<polygon fill="midnightblue" stroke="midnightblue" points="797.22,-620.79 786.73,-622.27 795.85,-627.66 797.22,-620.79"/>
</g>
<!-- Node5 -->
<g id="node6" class="node">
<title>Node5</title>
<g id="a_node6"><a xlink:href="class_ogre_1_1_p_c_z_intersection_scene_query.html" target="_top" xlink:title="PCZ implementation of IntersectionSceneQuery.">
<polygon fill="none" stroke="black" points="833.5,-582.5 833.5,-612.5 985.5,-612.5 985.5,-582.5 833.5,-582.5"/>
<text text-anchor="start" x="841.5" y="-600.5" font-family="Helvetica,sans-Serif" font-size="10.00">Ogre::PCZIntersectionScene</text>
<text text-anchor="middle" x="909.5" y="-589.5" font-family="Helvetica,sans-Serif" font-size="10.00">Query</text>
</a>
</g>
</g>
<!-- Node2&#45;&gt;Node5 -->
<g id="edge5" class="edge">
<title>Node2&#45;&gt;Node5</title>
<path fill="none" stroke="midnightblue" d="M796.79,-603.93C808.9,-603.24 821.37,-602.52 833.38,-601.83"/>
<polygon fill="midnightblue" stroke="midnightblue" points="796.51,-600.44 786.73,-604.51 796.91,-607.43 796.51,-600.44"/>
</g>
<!-- Node609 -->
<g id="node7" class="node">
<title>Node609</title>
<g id="a_node7"><a xlink:href="class_ogre_1_1_ray_scene_query_listener.html" target="_top" xlink:title="Alternative listener class for dealing with RaySceneQuery.">
<polygon fill="none" stroke="black" points="220.5,-290 220.5,-309 382.5,-309 382.5,-290 220.5,-290"/>
<text text-anchor="middle" x="301.5" y="-297" font-family="Helvetica,sans-Serif" font-size="10.00">Ogre::RaySceneQueryListener</text>
</a>
</g>
</g>
<!-- Node610 -->
<g id="node8" class="node">
<title>Node610</title>
<g id="a_node8"><a xlink:href="class_ogre_1_1_ray_scene_query.html" target="_top" xlink:title="Specialises the SceneQuery class for querying along a ray.">
<polygon fill="none" stroke="black" points="453,-327 453,-346 576,-346 576,-327 453,-327"/>
<text text-anchor="middle" x="514.5" y="-334" font-family="Helvetica,sans-Serif" font-size="10.00">Ogre::RaySceneQuery</text>
</a>
</g>
</g>
<!-- Node609&#45;&gt;Node610 -->
<g id="edge6" class="edge">
<title>Node609&#45;&gt;Node610</title>
<path fill="none" stroke="midnightblue" d="M367.01,-310.81C396.43,-315.97 430.88,-322.01 458.98,-326.94"/>
<polygon fill="midnightblue" stroke="midnightblue" points="367.29,-307.31 356.84,-309.03 366.08,-314.2 367.29,-307.31"/>
</g>
<!-- Node611 -->
<g id="node9" class="node">
<title>Node611</title>
<g id="a_node9"><a xlink:href="class_ogre_1_1_default_ray_scene_query.html" target="_top" xlink:title="Default implementation of RaySceneQuery.">
<polygon fill="none" stroke="black" points="637,-321 637,-340 796,-340 796,-321 637,-321"/>
<text text-anchor="middle" x="716.5" y="-328" font-family="Helvetica,sans-Serif" font-size="10.00">Ogre::DefaultRaySceneQuery</text>
</a>
</g>
</g>
<!-- Node610&#45;&gt;Node611 -->
<g id="edge7" class="edge">
<title>Node610&#45;&gt;Node611</title>
<path fill="none" stroke="midnightblue" d="M586.07,-334.38C602.44,-333.89 619.97,-333.37 636.67,-332.86"/>
<polygon fill="midnightblue" stroke="midnightblue" points="585.94,-330.89 576.05,-334.68 586.15,-337.88 585.94,-330.89"/>
</g>
<!-- Node612 -->
<g id="node10" class="node">
<title>Node612</title>
<g id="a_node10"><a xlink:href="class_ogre_1_1_bsp_ray_scene_query.html" target="_top" xlink:title="BSP specialisation of RaySceneQuery.">
<polygon fill="none" stroke="black" points="839,-358 839,-377 980,-377 980,-358 839,-358"/>
<text text-anchor="middle" x="909.5" y="-365" font-family="Helvetica,sans-Serif" font-size="10.00">Ogre::BspRaySceneQuery</text>
</a>
</g>
</g>
<!-- Node611&#45;&gt;Node612 -->
<g id="edge8" class="edge">
<title>Node611&#45;&gt;Node612</title>
<path fill="none" stroke="midnightblue" d="M776.6,-341.95C803.07,-347.08 833.93,-353.06 859.15,-357.94"/>
<polygon fill="midnightblue" stroke="midnightblue" points="777.17,-338.49 766.69,-340.03 775.84,-345.37 777.17,-338.49"/>
</g>
<!-- Node613 -->
<g id="node11" class="node">
<title>Node613</title>
<g id="a_node11"><a xlink:href="class_ogre_1_1_octree_ray_scene_query.html" target="_top" xlink:title="Octree implementation of RaySceneQuery.">
<polygon fill="none" stroke="black" points="832,-320 832,-339 987,-339 987,-320 832,-320"/>
<text text-anchor="middle" x="909.5" y="-327" font-family="Helvetica,sans-Serif" font-size="10.00">Ogre::OctreeRaySceneQuery</text>
</a>
</g>
</g>
<!-- Node611&#45;&gt;Node613 -->
<g id="edge9" class="edge">
<title>Node611&#45;&gt;Node613</title>
<path fill="none" stroke="midnightblue" d="M806.07,-330.04C814.67,-329.99 823.36,-329.95 831.83,-329.9"/>
<polygon fill="midnightblue" stroke="midnightblue" points="806,-326.54 796.01,-330.09 806.03,-333.54 806,-326.54"/>
</g>
<!-- Node614 -->
<g id="node12" class="node">
<title>Node614</title>
<g id="a_node12"><a xlink:href="class_ogre_1_1_p_c_z_ray_scene_query.html" target="_top" xlink:title="PCZ implementation of RaySceneQuery.">
<polygon fill="none" stroke="black" points="838,-282 838,-301 981,-301 981,-282 838,-282"/>
<text text-anchor="middle" x="909.5" y="-289" font-family="Helvetica,sans-Serif" font-size="10.00">Ogre::PCZRaySceneQuery</text>
</a>
</g>
</g>
<!-- Node611&#45;&gt;Node614 -->
<g id="edge10" class="edge">
<title>Node611&#45;&gt;Node614</title>
<path fill="none" stroke="midnightblue" d="M774.26,-318.91C802.21,-313.2 835.5,-306.41 861.93,-301.01"/>
<polygon fill="midnightblue" stroke="midnightblue" points="773.32,-315.53 764.22,-320.96 774.72,-322.39 773.32,-315.53"/>
</g>
<!-- Node680 -->
<g id="node13" class="node">
<title>Node680</title>
<g id="a_node13"><a xlink:href="class_ogre_1_1_scene_query_listener.html" target="_top" xlink:title="This optional class allows you to receive per&#45;result callbacks from SceneQuery executions instead of ...">
<polygon fill="none" stroke="black" points="16,-527 16,-546 159,-546 159,-527 16,-527"/>
<text text-anchor="middle" x="87.5" y="-534" font-family="Helvetica,sans-Serif" font-size="10.00">Ogre::SceneQueryListener</text>
</a>
</g>
</g>
<!-- Node681 -->
<g id="node14" class="node">
<title>Node681</title>
<g id="a_node14"><a xlink:href="class_ogre_1_1_region_scene_query.html" target="_top" xlink:title="Abstract class defining a query which returns single results from a region.">
<polygon fill="none" stroke="black" points="445.5,-469 445.5,-488 583.5,-488 583.5,-469 445.5,-469"/>
<text text-anchor="middle" x="514.5" y="-476" font-family="Helvetica,sans-Serif" font-size="10.00">Ogre::RegionSceneQuery</text>
</a>
</g>
</g>
<!-- Node680&#45;&gt;Node681 -->
<g id="edge11" class="edge">
<title>Node680&#45;&gt;Node681</title>
<path fill="none" stroke="midnightblue" d="M153.51,-547.41C215.71,-555.6 311.67,-562.36 392,-542.5 434.82,-531.91 479.2,-503.2 500.53,-488.09"/>
<polygon fill="midnightblue" stroke="midnightblue" points="153.83,-543.92 143.45,-546.03 152.88,-550.85 153.83,-543.92"/>
</g>
<!-- Node694 -->
<g id="node27" class="node">
<title>Node694</title>
<g id="a_node27"><a xlink:href="class_ogre_1_1_scene_manager_1_1_shadow_renderer_1_1_shadow_caster_scene_query_listener.html" target="_top" xlink:title="Inner class to use as callback for shadow caster scene query.">
<polygon fill="none" stroke="black" points="211,-492 211,-533 392,-533 392,-492 211,-492"/>
<text text-anchor="start" x="219" y="-521" font-family="Helvetica,sans-Serif" font-size="10.00">Ogre::SceneManager</text>
<text text-anchor="start" x="219" y="-510" font-family="Helvetica,sans-Serif" font-size="10.00">::ShadowRenderer::ShadowCaster</text>
<text text-anchor="middle" x="301.5" y="-499" font-family="Helvetica,sans-Serif" font-size="10.00">SceneQueryListener</text>
</a>
</g>
</g>
<!-- Node680&#45;&gt;Node694 -->
<g id="edge24" class="edge">
<title>Node680&#45;&gt;Node694</title>
<path fill="none" stroke="midnightblue" d="M169.37,-527.35C182.98,-525.8 197.17,-524.2 210.98,-522.63"/>
<polygon fill="midnightblue" stroke="midnightblue" points="168.64,-523.91 159.09,-528.51 169.42,-530.86 168.64,-523.91"/>
</g>
<!-- Node682 -->
<g id="node15" class="node">
<title>Node682</title>
<g id="a_node15"><a xlink:href="class_ogre_1_1_axis_aligned_box_scene_query.html" target="_top" xlink:title="Specialises the SceneQuery class for querying within an axis aligned box.">
<polygon fill="none" stroke="black" points="640.5,-512.5 640.5,-542.5 792.5,-542.5 792.5,-512.5 640.5,-512.5"/>
<text text-anchor="start" x="648.5" y="-530.5" font-family="Helvetica,sans-Serif" font-size="10.00">Ogre::AxisAlignedBoxScene</text>
<text text-anchor="middle" x="716.5" y="-519.5" font-family="Helvetica,sans-Serif" font-size="10.00">Query</text>
</a>
</g>
</g>
<!-- Node681&#45;&gt;Node682 -->
<g id="edge12" class="edge">
<title>Node681&#45;&gt;Node682</title>
<path fill="none" stroke="midnightblue" d="M564.54,-490.51C591.56,-497.14 625.36,-505.42 654.12,-512.46"/>
<polygon fill="midnightblue" stroke="midnightblue" points="565.08,-487.04 554.54,-488.06 563.42,-493.84 565.08,-487.04"/>
</g>
<!-- Node686 -->
<g id="node19" class="node">
<title>Node686</title>
<g id="a_node19"><a xlink:href="class_ogre_1_1_plane_bounded_volume_list_scene_query.html" target="_top" xlink:title="Specialises the SceneQuery class for querying within a plane&#45;bounded volume.">
<polygon fill="none" stroke="black" points="640,-463.5 640,-493.5 793,-493.5 793,-463.5 640,-463.5"/>
<text text-anchor="start" x="648" y="-481.5" font-family="Helvetica,sans-Serif" font-size="10.00">Ogre::PlaneBoundedVolume</text>
<text text-anchor="middle" x="716.5" y="-470.5" font-family="Helvetica,sans-Serif" font-size="10.00">ListSceneQuery</text>
</a>
</g>
</g>
<!-- Node681&#45;&gt;Node686 -->
<g id="edge16" class="edge">
<title>Node681&#45;&gt;Node686</title>
<path fill="none" stroke="midnightblue" d="M594.1,-478.5C609.2,-478.5 624.99,-478.5 640,-478.5"/>
<polygon fill="midnightblue" stroke="midnightblue" points="593.77,-475 583.77,-478.5 593.77,-482 593.77,-475"/>
</g>
<!-- Node690 -->
<g id="node23" class="node">
<title>Node690</title>
<g id="a_node23"><a xlink:href="class_ogre_1_1_sphere_scene_query.html" target="_top" xlink:title="Specialises the SceneQuery class for querying within a sphere.">
<polygon fill="none" stroke="black" points="647.5,-413 647.5,-432 785.5,-432 785.5,-413 647.5,-413"/>
<text text-anchor="middle" x="716.5" y="-420" font-family="Helvetica,sans-Serif" font-size="10.00">Ogre::SphereSceneQuery</text>
</a>
</g>
</g>
<!-- Node681&#45;&gt;Node690 -->
<g id="edge20" class="edge">
<title>Node681&#45;&gt;Node690</title>
<path fill="none" stroke="midnightblue" d="M559.83,-466.09C596.57,-455.8 648.04,-441.39 681.57,-432"/>
<polygon fill="midnightblue" stroke="midnightblue" points="558.57,-462.81 549.88,-468.87 560.45,-469.55 558.57,-462.81"/>
</g>
<!-- Node683 -->
<g id="node16" class="node">
<title>Node683</title>
<g id="a_node16"><a xlink:href="class_ogre_1_1_default_axis_aligned_box_scene_query.html" target="_top" xlink:title="Default implementation of AxisAlignedBoxSceneQuery.">
<polygon fill="none" stroke="black" points="839.5,-533.5 839.5,-563.5 979.5,-563.5 979.5,-533.5 839.5,-533.5"/>
<text text-anchor="start" x="847.5" y="-551.5" font-family="Helvetica,sans-Serif" font-size="10.00">Ogre::DefaultAxisAligned</text>
<text text-anchor="middle" x="909.5" y="-540.5" font-family="Helvetica,sans-Serif" font-size="10.00">BoxSceneQuery</text>
</a>
</g>
</g>
<!-- Node682&#45;&gt;Node683 -->
<g id="edge13" class="edge">
<title>Node682&#45;&gt;Node683</title>
<path fill="none" stroke="midnightblue" d="M802.87,-536.89C815.05,-538.23 827.45,-539.59 839.26,-540.89"/>
<polygon fill="midnightblue" stroke="midnightblue" points="803.04,-533.38 792.71,-535.77 802.27,-540.34 803.04,-533.38"/>
</g>
<!-- Node684 -->
<g id="node17" class="node">
<title>Node684</title>
<g id="a_node17"><a xlink:href="class_ogre_1_1_octree_axis_aligned_box_scene_query.html" target="_top" xlink:title="Octree implementation of AxisAlignedBoxSceneQuery.">
<polygon fill="none" stroke="black" points="1032,-585.5 1032,-615.5 1187,-615.5 1187,-585.5 1032,-585.5"/>
<text text-anchor="start" x="1040" y="-603.5" font-family="Helvetica,sans-Serif" font-size="10.00">Ogre::OctreeAxisAlignedBox</text>
<text text-anchor="middle" x="1109.5" y="-592.5" font-family="Helvetica,sans-Serif" font-size="10.00">SceneQuery</text>
</a>
</g>
</g>
<!-- Node683&#45;&gt;Node684 -->
<g id="edge14" class="edge">
<title>Node683&#45;&gt;Node684</title>
<path fill="none" stroke="midnightblue" d="M977.51,-566.1C1001.49,-572.4 1028.28,-579.43 1051.36,-585.49"/>
<polygon fill="midnightblue" stroke="midnightblue" points="978.33,-562.7 967.77,-563.54 976.55,-569.47 978.33,-562.7"/>
</g>
<!-- Node685 -->
<g id="node18" class="node">
<title>Node685</title>
<g id="a_node18"><a xlink:href="class_ogre_1_1_p_c_z_axis_aligned_box_scene_query.html" target="_top" xlink:title="PCZ implementation of AxisAlignedBoxSceneQuery.">
<polygon fill="none" stroke="black" points="1024,-536.5 1024,-566.5 1195,-566.5 1195,-536.5 1024,-536.5"/>
<text text-anchor="start" x="1032" y="-554.5" font-family="Helvetica,sans-Serif" font-size="10.00">Ogre::PCZAxisAlignedBoxScene</text>
<text text-anchor="middle" x="1109.5" y="-543.5" font-family="Helvetica,sans-Serif" font-size="10.00">Query</text>
</a>
</g>
</g>
<!-- Node683&#45;&gt;Node685 -->
<g id="edge15" class="edge">
<title>Node683&#45;&gt;Node685</title>
<path fill="none" stroke="midnightblue" d="M989.92,-549.7C1001.12,-549.87 1012.67,-550.05 1023.96,-550.22"/>
<polygon fill="midnightblue" stroke="midnightblue" points="989.8,-546.2 979.75,-549.55 989.7,-553.2 989.8,-546.2"/>
</g>
<!-- Node687 -->
<g id="node20" class="node">
<title>Node687</title>
<g id="a_node20"><a xlink:href="class_ogre_1_1_default_plane_bounded_volume_list_scene_query.html" target="_top" xlink:title="Default implementation of PlaneBoundedVolumeListSceneQuery.">
<polygon fill="none" stroke="black" points="833.5,-463.5 833.5,-493.5 985.5,-493.5 985.5,-463.5 833.5,-463.5"/>
<text text-anchor="start" x="841.5" y="-481.5" font-family="Helvetica,sans-Serif" font-size="10.00">Ogre::DefaultPlaneBounded</text>
<text text-anchor="middle" x="909.5" y="-470.5" font-family="Helvetica,sans-Serif" font-size="10.00">VolumeListSceneQuery</text>
</a>
</g>
</g>
<!-- Node686&#45;&gt;Node687 -->
<g id="edge17" class="edge">
<title>Node686&#45;&gt;Node687</title>
<path fill="none" stroke="midnightblue" d="M803.27,-478.5C813.33,-478.5 823.55,-478.5 833.45,-478.5"/>
<polygon fill="midnightblue" stroke="midnightblue" points="803.26,-475 793.26,-478.5 803.26,-482 803.26,-475"/>
</g>
<!-- Node688 -->
<g id="node21" class="node">
<title>Node688</title>
<g id="a_node21"><a xlink:href="class_ogre_1_1_octree_plane_bounded_volume_list_scene_query.html" target="_top" xlink:title="Octree implementation of PlaneBoundedVolumeListSceneQuery.">
<polygon fill="none" stroke="black" points="1035.5,-487.5 1035.5,-517.5 1183.5,-517.5 1183.5,-487.5 1035.5,-487.5"/>
<text text-anchor="start" x="1043.5" y="-505.5" font-family="Helvetica,sans-Serif" font-size="10.00">Ogre::OctreePlaneBounded</text>
<text text-anchor="middle" x="1109.5" y="-494.5" font-family="Helvetica,sans-Serif" font-size="10.00">VolumeListSceneQuery</text>
</a>
</g>
</g>
<!-- Node687&#45;&gt;Node688 -->
<g id="edge18" class="edge">
<title>Node687&#45;&gt;Node688</title>
<path fill="none" stroke="midnightblue" d="M995.67,-488.82C1008.89,-490.43 1022.45,-492.07 1035.38,-493.64"/>
<polygon fill="midnightblue" stroke="midnightblue" points="995.99,-485.34 985.64,-487.61 995.14,-492.29 995.99,-485.34"/>
</g>
<!-- Node689 -->
<g id="node22" class="node">
<title>Node689</title>
<g id="a_node22"><a xlink:href="class_ogre_1_1_p_c_z_plane_bounded_volume_list_scene_query.html" target="_top" xlink:title="PCZ implementation of PlaneBoundedVolumeListSceneQuery.">
<polygon fill="none" stroke="black" points="1023,-438.5 1023,-468.5 1196,-468.5 1196,-438.5 1023,-438.5"/>
<text text-anchor="start" x="1031" y="-456.5" font-family="Helvetica,sans-Serif" font-size="10.00">Ogre::PCZPlaneBoundedVolume</text>
<text text-anchor="middle" x="1109.5" y="-445.5" font-family="Helvetica,sans-Serif" font-size="10.00">ListSceneQuery</text>
</a>
</g>
</g>
<!-- Node687&#45;&gt;Node689 -->
<g id="edge19" class="edge">
<title>Node687&#45;&gt;Node689</title>
<path fill="none" stroke="midnightblue" d="M995.7,-467.74C1004.68,-466.61 1013.82,-465.46 1022.8,-464.32"/>
<polygon fill="midnightblue" stroke="midnightblue" points="995.12,-464.29 985.64,-469.01 996,-471.23 995.12,-464.29"/>
</g>
<!-- Node691 -->
<g id="node24" class="node">
<title>Node691</title>
<g id="a_node24"><a xlink:href="class_ogre_1_1_default_sphere_scene_query.html" target="_top" xlink:title="Default implementation of SphereSceneQuery.">
<polygon fill="none" stroke="black" points="837,-396.5 837,-426.5 982,-426.5 982,-396.5 837,-396.5"/>
<text text-anchor="start" x="845" y="-414.5" font-family="Helvetica,sans-Serif" font-size="10.00">Ogre::DefaultSphereScene</text>
<text text-anchor="middle" x="909.5" y="-403.5" font-family="Helvetica,sans-Serif" font-size="10.00">Query</text>
</a>
</g>
</g>
<!-- Node690&#45;&gt;Node691 -->
<g id="edge21" class="edge">
<title>Node690&#45;&gt;Node691</title>
<path fill="none" stroke="midnightblue" d="M795.9,-417.99C809.44,-417.2 823.47,-416.4 836.83,-415.63"/>
<polygon fill="midnightblue" stroke="midnightblue" points="795.43,-414.51 785.65,-418.58 795.83,-421.49 795.43,-414.51"/>
</g>
<!-- Node692 -->
<g id="node25" class="node">
<title>Node692</title>
<g id="a_node25"><a xlink:href="class_ogre_1_1_octree_sphere_scene_query.html" target="_top" xlink:title="Octree implementation of SphereSceneQuery.">
<polygon fill="none" stroke="black" points="1024.5,-400 1024.5,-419 1194.5,-419 1194.5,-400 1024.5,-400"/>
<text text-anchor="middle" x="1109.5" y="-407" font-family="Helvetica,sans-Serif" font-size="10.00">Ogre::OctreeSphereSceneQuery</text>
</a>
</g>
</g>
<!-- Node691&#45;&gt;Node692 -->
<g id="edge22" class="edge">
<title>Node691&#45;&gt;Node692</title>
<path fill="none" stroke="midnightblue" d="M992.27,-410.67C1002.81,-410.57 1013.61,-410.46 1024.19,-410.35"/>
<polygon fill="midnightblue" stroke="midnightblue" points="992.23,-407.17 982.26,-410.78 992.3,-414.17 992.23,-407.17"/>
</g>
<!-- Node693 -->
<g id="node26" class="node">
<title>Node693</title>
<g id="a_node26"><a xlink:href="class_ogre_1_1_p_c_z_sphere_scene_query.html" target="_top" xlink:title="PCZ implementation of SphereSceneQuery.">
<polygon fill="none" stroke="black" points="1030.5,-362 1030.5,-381 1188.5,-381 1188.5,-362 1030.5,-362"/>
<text text-anchor="middle" x="1109.5" y="-369" font-family="Helvetica,sans-Serif" font-size="10.00">Ogre::PCZSphereSceneQuery</text>
</a>
</g>
</g>
<!-- Node691&#45;&gt;Node693 -->
<g id="edge23" class="edge">
<title>Node691&#45;&gt;Node693</title>
<path fill="none" stroke="midnightblue" d="M992.25,-394.98C1015.8,-390.23 1040.69,-385.2 1061.37,-381.02"/>
<polygon fill="midnightblue" stroke="midnightblue" points="991.37,-391.59 982.26,-397 992.76,-398.45 991.37,-391.59"/>
</g>
<!-- Node731 -->
<g id="node28" class="node">
<title>Node731</title>
<g id="a_node28"><a xlink:href="struct_ogre_1_1_shadow_texture_listener.html" target="_top" xlink:title=" ">
<polygon fill="none" stroke="black" points="222,-252 222,-271 381,-271 381,-252 222,-252"/>
<text text-anchor="middle" x="301.5" y="-259" font-family="Helvetica,sans-Serif" font-size="10.00">Ogre::ShadowTextureListener</text>
</a>
</g>
</g>
<!-- Node732 -->
<g id="node29" class="node">
<title>Node732</title>
<g id="a_node29"><a xlink:href="class_ogre_1_1_p_c_z_scene_manager.html" target="_top" xlink:title="Specialized SceneManager that uses Portal&#45;Connected&#45;Zones to divide the scene spatially.">
<polygon fill="none" stroke="black" points="446,-289 446,-308 583,-308 583,-289 446,-289"/>
<text text-anchor="middle" x="514.5" y="-296" font-family="Helvetica,sans-Serif" font-size="10.00">Ogre::PCZSceneManager</text>
</a>
</g>
</g>
<!-- Node731&#45;&gt;Node732 -->
<g id="edge25" class="edge">
<title>Node731&#45;&gt;Node732</title>
<path fill="none" stroke="midnightblue" d="M367.01,-272.81C396.43,-277.97 430.88,-284.01 458.98,-288.94"/>
<polygon fill="midnightblue" stroke="midnightblue" points="367.29,-269.31 356.84,-271.03 366.08,-276.2 367.29,-269.31"/>
</g>
<!-- Node1063 -->
<g id="node30" class="node">
<title>Node1063</title>
<g id="a_node30"><a xlink:title=" ">
<polygon fill="none" stroke="#bfbfbf" points="43,-356 43,-375 132,-375 132,-356 43,-356"/>
<text text-anchor="middle" x="87.5" y="-363" font-family="Helvetica,sans-Serif" font-size="10.00">SceneMgtAlloc</text>
</a>
</g>
</g>
<!-- Node1063&#45;&gt;Node694 -->
<g id="edge33" class="edge">
<title>Node1063&#45;&gt;Node694</title>
<path fill="none" stroke="midnightblue" d="M102.57,-383.17C123.62,-408.52 165.73,-455.18 211,-482.5 216.75,-485.97 222.96,-489.1 229.32,-491.91"/>
<polygon fill="midnightblue" stroke="midnightblue" points="105.06,-380.69 96.03,-375.15 99.64,-385.11 105.06,-380.69"/>
</g>
<!-- Node1064 -->
<g id="node31" class="node">
<title>Node1064</title>
<g id="a_node31"><a xlink:href="class_ogre_1_1_auto_param_data_source.html" target="_top" xlink:title="This utility class is used to hold the information used to generate the matrices and other informatio...">
<polygon fill="none" stroke="black" points="223.5,-378 223.5,-397 379.5,-397 379.5,-378 223.5,-378"/>
<text text-anchor="middle" x="301.5" y="-385" font-family="Helvetica,sans-Serif" font-size="10.00">Ogre::AutoParamDataSource</text>
</a>
</g>
</g>
<!-- Node1063&#45;&gt;Node1064 -->
<g id="edge26" class="edge">
<title>Node1063&#45;&gt;Node1064</title>
<path fill="none" stroke="midnightblue" d="M142.38,-371.09C166.98,-373.64 196.56,-376.71 223.45,-379.5"/>
<polygon fill="midnightblue" stroke="midnightblue" points="142.48,-367.58 132.17,-370.03 141.75,-374.55 142.48,-367.58"/>
</g>
<!-- Node1065 -->
<g id="node32" class="node">
<title>Node1065</title>
<g id="a_node32"><a xlink:href="struct_ogre_1_1_intersection_scene_query_result.html" target="_top" xlink:title="Holds the results of an intersection scene query (pair values).">
<polygon fill="none" stroke="black" points="220.5,-328.5 220.5,-358.5 382.5,-358.5 382.5,-328.5 220.5,-328.5"/>
<text text-anchor="start" x="228.5" y="-346.5" font-family="Helvetica,sans-Serif" font-size="10.00">Ogre::IntersectionSceneQuery</text>
<text text-anchor="middle" x="301.5" y="-335.5" font-family="Helvetica,sans-Serif" font-size="10.00">Result</text>
</a>
</g>
</g>
<!-- Node1063&#45;&gt;Node1065 -->
<g id="edge27" class="edge">
<title>Node1063&#45;&gt;Node1065</title>
<path fill="none" stroke="midnightblue" d="M142.36,-359.91C166.05,-357.45 194.38,-354.51 220.46,-351.81"/>
<polygon fill="midnightblue" stroke="midnightblue" points="141.75,-356.45 132.17,-360.97 142.48,-363.42 141.75,-356.45"/>
</g>
<!-- Node1066 -->
<g id="node33" class="node">
<title>Node1066</title>
<g id="a_node33"><a xlink:href="class_ogre_1_1_scene_manager.html" target="_top" xlink:title="Manages the organisation and rendering of a &#39;scene&#39;: a collection of objects and potentially world ge...">
<polygon fill="none" stroke="black" points="242.5,-214 242.5,-233 360.5,-233 360.5,-214 242.5,-214"/>
<text text-anchor="middle" x="301.5" y="-221" font-family="Helvetica,sans-Serif" font-size="10.00">Ogre::SceneManager</text>
</a>
</g>
</g>
<!-- Node1063&#45;&gt;Node1066 -->
<g id="edge28" class="edge">
<title>Node1063&#45;&gt;Node1066</title>
<path fill="none" stroke="midnightblue" d="M100.79,-347.75C120.64,-320.54 162.48,-268.9 211,-242.5 220.63,-237.26 231.57,-233.47 242.41,-230.72"/>
<polygon fill="midnightblue" stroke="midnightblue" points="97.89,-345.8 94.92,-355.97 103.58,-349.87 97.89,-345.8"/>
</g>
<!-- Node1070 -->
<g id="node37" class="node">
<title>Node1070</title>
<g id="a_node37"><a xlink:href="class_ogre_1_1_scene_manager_enumerator.html" target="_top" xlink:title="Enumerates the SceneManager classes available to applications.">
<polygon fill="none" stroke="black" points="214,-80 214,-99 389,-99 389,-80 214,-80"/>
<text text-anchor="middle" x="301.5" y="-87" font-family="Helvetica,sans-Serif" font-size="10.00">Ogre::SceneManagerEnumerator</text>
</a>
</g>
</g>
<!-- Node1063&#45;&gt;Node1070 -->
<g id="edge34" class="edge">
<title>Node1063&#45;&gt;Node1070</title>
<path fill="none" stroke="midnightblue" d="M91.79,-345.82C101,-297.22 131.76,-170.97 211,-108.5 215.86,-104.66 221.32,-101.56 227.09,-99.04"/>
<polygon fill="midnightblue" stroke="midnightblue" points="88.3,-345.48 89.98,-355.94 95.19,-346.71 88.3,-345.48"/>
</g>
<!-- Node1071 -->
<g id="node38" class="node">
<title>Node1071</title>
<g id="a_node38"><a xlink:href="class_ogre_1_1_scene_manager_factory.html" target="_top" xlink:title="Class which will create instances of a given SceneManager.">
<polygon fill="none" stroke="black" points="224.5,-118 224.5,-137 378.5,-137 378.5,-118 224.5,-118"/>
<text text-anchor="middle" x="301.5" y="-125" font-family="Helvetica,sans-Serif" font-size="10.00">Ogre::SceneManagerFactory</text>
</a>
</g>
</g>
<!-- Node1063&#45;&gt;Node1071 -->
<g id="edge35" class="edge">
<title>Node1063&#45;&gt;Node1071</title>
<path fill="none" stroke="midnightblue" d="M100.39,-347.43C121.08,-316.59 165.83,-252.47 211,-204.5 236.01,-177.94 269.51,-151.09 287.6,-137.19"/>
<polygon fill="midnightblue" stroke="midnightblue" points="97.39,-345.62 94.77,-355.88 103.22,-349.49 97.39,-345.62"/>
</g>
<!-- Node1076 -->
<g id="node43" class="node">
<title>Node1076</title>
<g id="a_node43"><a xlink:href="class_ogre_1_1_scene_query.html" target="_top" xlink:title="A class for performing queries on a scene.">
<polygon fill="none" stroke="black" points="249.5,-454 249.5,-473 353.5,-473 353.5,-454 249.5,-454"/>
<text text-anchor="middle" x="301.5" y="-461" font-family="Helvetica,sans-Serif" font-size="10.00">Ogre::SceneQuery</text>
</a>
</g>
</g>
<!-- Node1063&#45;&gt;Node1076 -->
<g id="edge40" class="edge">
<title>Node1063&#45;&gt;Node1076</title>
<path fill="none" stroke="midnightblue" d="M108.21,-381.48C131.42,-399.48 171.79,-428.34 211,-444.5 223.04,-449.46 236.55,-453.2 249.36,-455.98"/>
<polygon fill="midnightblue" stroke="midnightblue" points="110.21,-378.6 100.19,-375.16 105.88,-384.1 110.21,-378.6"/>
</g>
<!-- Node1077 -->
<g id="node44" class="node">
<title>Node1077</title>
<g id="a_node44"><a xlink:href="struct_ogre_1_1_scene_query_result.html" target="_top" xlink:title="Holds the results of a scene query.">
<polygon fill="none" stroke="black" points="234,-416 234,-435 369,-435 369,-416 234,-416"/>
<text text-anchor="middle" x="301.5" y="-423" font-family="Helvetica,sans-Serif" font-size="10.00">Ogre::SceneQueryResult</text>
</a>
</g>
</g>
<!-- Node1063&#45;&gt;Node1077 -->
<g id="edge44" class="edge">
<title>Node1063&#45;&gt;Node1077</title>
<path fill="none" stroke="midnightblue" d="M124.03,-378.58C148.3,-387.23 181.33,-398.41 211,-406.5 223.72,-409.97 237.6,-413.18 250.55,-415.95"/>
<polygon fill="midnightblue" stroke="midnightblue" points="125.12,-375.26 114.52,-375.17 122.75,-381.84 125.12,-375.26"/>
</g>
<!-- Node1066&#45;&gt;Node732 -->
<g id="edge32" class="edge">
<title>Node1066&#45;&gt;Node732</title>
<path fill="none" stroke="midnightblue" d="M370.28,-233.38C377.85,-235.78 385.25,-238.78 392,-242.5 412.09,-253.58 407.96,-268.32 428,-279.5 434.91,-283.35 442.53,-286.42 450.3,-288.87"/>
<polygon fill="midnightblue" stroke="midnightblue" points="371.21,-230 360.64,-230.63 369.3,-236.73 371.21,-230"/>
</g>
<!-- Node1067 -->
<g id="node34" class="node">
<title>Node1067</title>
<g id="a_node34"><a xlink:href="class_ogre_1_1_bsp_scene_manager.html" target="_top" xlink:title="Specialisation of the SceneManager class to deal with indoor scenes based on a BSP tree.">
<polygon fill="none" stroke="black" points="446.5,-251 446.5,-270 582.5,-270 582.5,-251 446.5,-251"/>
<text text-anchor="middle" x="514.5" y="-258" font-family="Helvetica,sans-Serif" font-size="10.00">Ogre::BspSceneManager</text>
</a>
</g>
</g>
<!-- Node1066&#45;&gt;Node1067 -->
<g id="edge29" class="edge">
<title>Node1066&#45;&gt;Node1067</title>
<path fill="none" stroke="midnightblue" d="M367.01,-234.81C396.43,-239.97 430.88,-246.01 458.98,-250.94"/>
<polygon fill="midnightblue" stroke="midnightblue" points="367.29,-231.31 356.84,-233.03 366.08,-238.2 367.29,-231.31"/>
</g>
<!-- Node1068 -->
<g id="node35" class="node">
<title>Node1068</title>
<g id="a_node35"><a xlink:href="class_ogre_1_1_default_scene_manager.html" target="_top" xlink:title="Default scene manager.">
<polygon fill="none" stroke="black" points="437.5,-213 437.5,-232 591.5,-232 591.5,-213 437.5,-213"/>
<text text-anchor="middle" x="514.5" y="-220" font-family="Helvetica,sans-Serif" font-size="10.00">Ogre::DefaultSceneManager</text>
</a>
</g>
</g>
<!-- Node1066&#45;&gt;Node1068 -->
<g id="edge30" class="edge">
<title>Node1066&#45;&gt;Node1068</title>
<path fill="none" stroke="midnightblue" d="M370.92,-223.18C392.11,-223.08 415.6,-222.96 437.28,-222.86"/>
<polygon fill="midnightblue" stroke="midnightblue" points="370.7,-219.68 360.72,-223.22 370.73,-226.68 370.7,-219.68"/>
</g>
<!-- Node1069 -->
<g id="node36" class="node">
<title>Node1069</title>
<g id="a_node36"><a xlink:href="class_ogre_1_1_octree_scene_manager.html" target="_top" xlink:title="Specialized SceneManager that divides the geometry into an octree in order to facilitate spatial quer...">
<polygon fill="none" stroke="black" points="439.5,-175 439.5,-194 589.5,-194 589.5,-175 439.5,-175"/>
<text text-anchor="middle" x="514.5" y="-182" font-family="Helvetica,sans-Serif" font-size="10.00">Ogre::OctreeSceneManager</text>
</a>
</g>
</g>
<!-- Node1066&#45;&gt;Node1069 -->
<g id="edge31" class="edge">
<title>Node1066&#45;&gt;Node1069</title>
<path fill="none" stroke="midnightblue" d="M363.99,-212.14C395.11,-206.38 432.47,-199.48 462.05,-194.01"/>
<polygon fill="midnightblue" stroke="midnightblue" points="363.31,-208.7 354.12,-213.96 364.59,-215.58 363.31,-208.7"/>
</g>
<!-- Node1072 -->
<g id="node39" class="node">
<title>Node1072</title>
<g id="a_node39"><a xlink:href="class_ogre_1_1_bsp_scene_manager_factory.html" target="_top" xlink:title="Factory for BspSceneManager.">
<polygon fill="none" stroke="black" points="428.5,-99 428.5,-118 600.5,-118 600.5,-99 428.5,-99"/>
<text text-anchor="middle" x="514.5" y="-106" font-family="Helvetica,sans-Serif" font-size="10.00">Ogre::BspSceneManagerFactory</text>
</a>
</g>
</g>
<!-- Node1071&#45;&gt;Node1072 -->
<g id="edge36" class="edge">
<title>Node1071&#45;&gt;Node1072</title>
<path fill="none" stroke="midnightblue" d="M388.64,-119.74C401.79,-118.56 415.37,-117.34 428.5,-116.15"/>
<polygon fill="midnightblue" stroke="midnightblue" points="388.32,-116.26 378.68,-120.64 388.95,-123.23 388.32,-116.26"/>
</g>
<!-- Node1073 -->
<g id="node40" class="node">
<title>Node1073</title>
<g id="a_node40"><a xlink:href="class_ogre_1_1_default_scene_manager_factory.html" target="_top" xlink:title="Factory for default scene manager.">
<polygon fill="none" stroke="black" points="437.5,-49.5 437.5,-79.5 591.5,-79.5 591.5,-49.5 437.5,-49.5"/>
<text text-anchor="start" x="445.5" y="-67.5" font-family="Helvetica,sans-Serif" font-size="10.00">Ogre::DefaultSceneManager</text>
<text text-anchor="middle" x="514.5" y="-56.5" font-family="Helvetica,sans-Serif" font-size="10.00">Factory</text>
</a>
</g>
</g>
<!-- Node1071&#45;&gt;Node1073 -->
<g id="edge37" class="edge">
<title>Node1071&#45;&gt;Node1073</title>
<path fill="none" stroke="midnightblue" d="M368.96,-115.55C376.82,-113.5 384.65,-111.16 392,-108.5 409.01,-102.34 411.23,-96.3 428,-89.5 436.89,-85.9 446.48,-82.58 455.93,-79.61"/>
<polygon fill="midnightblue" stroke="midnightblue" points="367.91,-112.2 359.03,-117.98 369.57,-119 367.91,-112.2"/>
</g>
<!-- Node1074 -->
<g id="node41" class="node">
<title>Node1074</title>
<g id="a_node41"><a xlink:href="class_ogre_1_1_octree_scene_manager_factory.html" target="_top" xlink:title="Factory for OctreeSceneManager.">
<polygon fill="none" stroke="black" points="439.5,-0.5 439.5,-30.5 589.5,-30.5 589.5,-0.5 439.5,-0.5"/>
<text text-anchor="start" x="447.5" y="-18.5" font-family="Helvetica,sans-Serif" font-size="10.00">Ogre::OctreeSceneManager</text>
<text text-anchor="middle" x="514.5" y="-7.5" font-family="Helvetica,sans-Serif" font-size="10.00">Factory</text>
</a>
</g>
</g>
<!-- Node1071&#45;&gt;Node1074 -->
<g id="edge38" class="edge">
<title>Node1071&#45;&gt;Node1074</title>
<path fill="none" stroke="midnightblue" d="M384.52,-113.43C387.12,-111.94 389.63,-110.3 392,-108.5 419.55,-87.58 401.14,-61.3 428,-39.5 432.19,-36.1 436.83,-33.18 441.72,-30.67"/>
<polygon fill="midnightblue" stroke="midnightblue" points="382.75,-110.4 375.32,-117.95 385.84,-116.68 382.75,-110.4"/>
</g>
<!-- Node1075 -->
<g id="node42" class="node">
<title>Node1075</title>
<g id="a_node42"><a xlink:href="class_ogre_1_1_p_c_z_scene_manager_factory.html" target="_top" xlink:title="Factory for PCZSceneManager.">
<polygon fill="none" stroke="black" points="428,-137 428,-156 601,-156 601,-137 428,-137"/>
<text text-anchor="middle" x="514.5" y="-144" font-family="Helvetica,sans-Serif" font-size="10.00">Ogre::PCZSceneManagerFactory</text>
</a>
</g>
</g>
<!-- Node1071&#45;&gt;Node1075 -->
<g id="edge39" class="edge">
<title>Node1071&#45;&gt;Node1075</title>
<path fill="none" stroke="midnightblue" d="M388.87,-135.28C401.71,-136.43 414.95,-137.63 427.77,-138.78"/>
<polygon fill="midnightblue" stroke="midnightblue" points="388.95,-131.77 378.68,-134.36 388.32,-138.74 388.95,-131.77"/>
</g>
<!-- Node1076&#45;&gt;Node1 -->
<g id="edge41" class="edge">
<title>Node1076&#45;&gt;Node1</title>
<path fill="none" stroke="midnightblue" d="M363.47,-471.37C373.37,-474.06 383.24,-477.66 392,-482.5 446.05,-512.34 491.11,-574 507.19,-597.82"/>
<polygon fill="midnightblue" stroke="midnightblue" points="364.14,-467.93 353.6,-468.97 362.49,-474.73 364.14,-467.93"/>
</g>
<!-- Node1076&#45;&gt;Node610 -->
<g id="edge42" class="edge">
<title>Node1076&#45;&gt;Node610</title>
<path fill="none" stroke="midnightblue" d="M363.53,-454.99C373.35,-452.37 383.17,-448.96 392,-444.5 442.38,-419.04 488.2,-367.44 505.83,-346.09"/>
<polygon fill="midnightblue" stroke="midnightblue" points="362.66,-451.6 353.76,-457.34 364.3,-458.4 362.66,-451.6"/>
</g>
<!-- Node1076&#45;&gt;Node681 -->
<g id="edge43" class="edge">
<title>Node1076&#45;&gt;Node681</title>
<path fill="none" stroke="midnightblue" d="M363.87,-467.86C389.4,-469.68 419.14,-471.79 445.35,-473.66"/>
<polygon fill="midnightblue" stroke="midnightblue" points="363.8,-464.35 353.58,-467.13 363.3,-471.33 363.8,-464.35"/>
</g>
<!-- Node1146 -->
<g id="node45" class="node">
<title>Node1146</title>
<g id="a_node45"><a xlink:href="class_ogre_1_1_singleton.html" target="_top" xlink:title=" ">
<polygon fill="none" stroke="black" points="0,-74.5 0,-104.5 175,-104.5 175,-74.5 0,-74.5"/>
<text text-anchor="start" x="8" y="-92.5" font-family="Helvetica,sans-Serif" font-size="10.00">Ogre::Singleton&lt; SceneManager</text>
<text text-anchor="middle" x="87.5" y="-81.5" font-family="Helvetica,sans-Serif" font-size="10.00">Enumerator &gt;</text>
</a>
</g>
</g>
<!-- Node1146&#45;&gt;Node1070 -->
<g id="edge45" class="edge">
<title>Node1146&#45;&gt;Node1070</title>
<path fill="none" stroke="midnightblue" d="M185.32,-89.5C194.85,-89.5 204.48,-89.5 213.9,-89.5"/>
<polygon fill="midnightblue" stroke="midnightblue" points="185.03,-86 175.03,-89.5 185.03,-93 185.03,-86"/>
</g>
</g>
</svg>
