<?xml version="1.0" encoding="UTF-8" standalone="no"?>
<!DOCTYPE svg PUBLIC "-//W3C//DTD SVG 1.1//EN"
 "http://www.w3.org/Graphics/SVG/1.1/DTD/svg11.dtd">
<!-- Generated by graphviz version 2.43.0 (0)
 -->
<!-- Title: Graphical Class Hierarchy Pages: 1 -->
<svg width="340pt" height="218pt"
 viewBox="0.00 0.00 340.00 218.00" xmlns="http://www.w3.org/2000/svg" xmlns:xlink="http://www.w3.org/1999/xlink">
<g id="graph0" class="graph" transform="scale(1 1) rotate(0) translate(4 214)">
<title>Graphical Class Hierarchy</title>
<!-- Node0 -->
<g id="node1" class="node">
<title>Node0</title>
<g id="a_node1"><a xlink:href="struct_ogre_1_1_vector_base.html" target="_top" xlink:title="helper class to implement legacy API. Notably x, y, z access">
<polygon fill="none" stroke="black" points="0,-95.5 0,-114.5 160,-114.5 160,-95.5 0,-95.5"/>
<text text-anchor="middle" x="80" y="-102.5" font-family="Helvetica,sans-Serif" font-size="10.00">Ogre::VectorBase&lt; dims, T &gt;</text>
</a>
</g>
</g>
<!-- Node1 -->
<g id="node2" class="node">
<title>Node1</title>
<g id="a_node2"><a xlink:href="class_ogre_1_1_vector.html" target="_top" xlink:title=" ">
<polygon fill="none" stroke="black" points="197,-190.5 197,-209.5 331,-209.5 331,-190.5 197,-190.5"/>
<text text-anchor="middle" x="264" y="-197.5" font-family="Helvetica,sans-Serif" font-size="10.00">Ogre::Vector&lt; 4, Real &gt;</text>
</a>
</g>
</g>
<!-- Node0&#45;&gt;Node1 -->
<g id="edge1" class="edge">
<title>Node0&#45;&gt;Node1</title>
<path fill="none" stroke="midnightblue" d="M100.62,-120.71C122.67,-137.69 160.09,-164.53 196,-181 204.02,-184.68 212.92,-187.81 221.53,-190.4"/>
<polygon fill="midnightblue" stroke="midnightblue" points="102.73,-117.92 92.69,-114.52 98.42,-123.43 102.73,-117.92"/>
</g>
<!-- Node2 -->
<g id="node3" class="node">
<title>Node2</title>
<g id="a_node3"><a xlink:href="class_ogre_1_1_vector.html" target="_top" xlink:title=" ">
<polygon fill="none" stroke="black" points="201.5,-152.5 201.5,-171.5 326.5,-171.5 326.5,-152.5 201.5,-152.5"/>
<text text-anchor="middle" x="264" y="-159.5" font-family="Helvetica,sans-Serif" font-size="10.00">Ogre::Vector&lt; 3, int &gt;</text>
</a>
</g>
</g>
<!-- Node0&#45;&gt;Node2 -->
<g id="edge2" class="edge">
<title>Node0&#45;&gt;Node2</title>
<path fill="none" stroke="midnightblue" d="M118.27,-117.76C140.71,-125.34 169.91,-134.99 196,-143 206.4,-146.19 217.77,-149.49 228.14,-152.42"/>
<polygon fill="midnightblue" stroke="midnightblue" points="119.37,-114.44 108.78,-114.55 117.13,-121.07 119.37,-114.44"/>
</g>
<!-- Node3 -->
<g id="node4" class="node">
<title>Node3</title>
<g id="a_node4"><a xlink:href="class_ogre_1_1_vector.html" target="_top" xlink:title=" ">
<polygon fill="none" stroke="black" points="197,-114.5 197,-133.5 331,-133.5 331,-114.5 197,-114.5"/>
<text text-anchor="middle" x="264" y="-121.5" font-family="Helvetica,sans-Serif" font-size="10.00">Ogre::Vector&lt; 2, Real &gt;</text>
</a>
</g>
</g>
<!-- Node0&#45;&gt;Node3 -->
<g id="edge3" class="edge">
<title>Node0&#45;&gt;Node3</title>
<path fill="none" stroke="midnightblue" d="M170.15,-114.31C179.14,-115.25 188.16,-116.19 196.84,-117.09"/>
<polygon fill="midnightblue" stroke="midnightblue" points="170.34,-110.81 160.03,-113.25 169.62,-117.77 170.34,-110.81"/>
</g>
<!-- Node4 -->
<g id="node5" class="node">
<title>Node4</title>
<g id="a_node5"><a xlink:href="class_ogre_1_1_vector.html" target="_top" xlink:title=" ">
<polygon fill="none" stroke="black" points="197,-76.5 197,-95.5 331,-95.5 331,-76.5 197,-76.5"/>
<text text-anchor="middle" x="264" y="-83.5" font-family="Helvetica,sans-Serif" font-size="10.00">Ogre::Vector&lt; 3, Real &gt;</text>
</a>
</g>
</g>
<!-- Node0&#45;&gt;Node4 -->
<g id="edge4" class="edge">
<title>Node0&#45;&gt;Node4</title>
<path fill="none" stroke="midnightblue" d="M170.15,-95.69C179.14,-94.75 188.16,-93.81 196.84,-92.91"/>
<polygon fill="midnightblue" stroke="midnightblue" points="169.62,-92.23 160.03,-96.75 170.34,-99.19 169.62,-92.23"/>
</g>
<!-- Node5 -->
<g id="node6" class="node">
<title>Node5</title>
<g id="a_node6"><a xlink:href="class_ogre_1_1_vector.html" target="_top" xlink:title=" ">
<polygon fill="none" stroke="black" points="197,-38.5 197,-57.5 331,-57.5 331,-38.5 197,-38.5"/>
<text text-anchor="middle" x="264" y="-45.5" font-family="Helvetica,sans-Serif" font-size="10.00">Ogre::Vector&lt; 4, float &gt;</text>
</a>
</g>
</g>
<!-- Node0&#45;&gt;Node5 -->
<g id="edge5" class="edge">
<title>Node0&#45;&gt;Node5</title>
<path fill="none" stroke="midnightblue" d="M118.27,-92.24C140.71,-84.66 169.91,-75.01 196,-67 206.4,-63.81 217.77,-60.51 228.14,-57.58"/>
<polygon fill="midnightblue" stroke="midnightblue" points="117.13,-88.93 108.78,-95.45 119.37,-95.56 117.13,-88.93"/>
</g>
<!-- Node6 -->
<g id="node7" class="node">
<title>Node6</title>
<g id="a_node7"><a xlink:href="class_ogre_1_1_vector.html" target="_top" xlink:title="Standard N&#45;dimensional vector.">
<polygon fill="none" stroke="black" points="196,-0.5 196,-19.5 332,-19.5 332,-0.5 196,-0.5"/>
<text text-anchor="middle" x="264" y="-7.5" font-family="Helvetica,sans-Serif" font-size="10.00">Ogre::Vector&lt; dims, T &gt;</text>
</a>
</g>
</g>
<!-- Node0&#45;&gt;Node6 -->
<g id="edge6" class="edge">
<title>Node0&#45;&gt;Node6</title>
<path fill="none" stroke="midnightblue" d="M100.62,-89.29C122.67,-72.31 160.09,-45.47 196,-29 204.02,-25.32 212.92,-22.19 221.53,-19.6"/>
<polygon fill="midnightblue" stroke="midnightblue" points="98.42,-86.57 92.69,-95.48 102.73,-92.08 98.42,-86.57"/>
</g>
</g>
</svg>
