<?xml version="1.0" encoding="UTF-8" standalone="no"?>
<!DOCTYPE svg PUBLIC "-//W3C//DTD SVG 1.1//EN"
 "http://www.w3.org/Graphics/SVG/1.1/DTD/svg11.dtd">
<!-- Generated by graphviz version 2.43.0 (0)
 -->
<!-- Title: Graphical Class Hierarchy Pages: 1 -->
<svg width="389pt" height="104pt"
 viewBox="0.00 0.00 389.00 104.00" xmlns="http://www.w3.org/2000/svg" xmlns:xlink="http://www.w3.org/1999/xlink">
<g id="graph0" class="graph" transform="scale(1 1) rotate(0) translate(4 100)">
<title>Graphical Class Hierarchy</title>
<!-- Node947 -->
<g id="node1" class="node">
<title>Node947</title>
<g id="a_node1"><a xlink:title=" ">
<polygon fill="none" stroke="#bfbfbf" points="0,-38.5 0,-57.5 82,-57.5 82,-38.5 0,-38.5"/>
<text text-anchor="middle" x="41" y="-45.5" font-family="Helvetica,sans-Serif" font-size="10.00">PropertyAlloc</text>
</a>
</g>
</g>
<!-- Node0 -->
<g id="node2" class="node">
<title>Node0</title>
<g id="a_node2"><a xlink:href="class_ogre_1_1_property_base.html" target="_top" xlink:title="Base interface for an instance of a property.">
<polygon fill="none" stroke="black" points="118,-76.5 118,-95.5 229,-95.5 229,-76.5 118,-76.5"/>
<text text-anchor="middle" x="173.5" y="-83.5" font-family="Helvetica,sans-Serif" font-size="10.00">Ogre::PropertyBase</text>
</a>
</g>
</g>
<!-- Node947&#45;&gt;Node0 -->
<g id="edge1" class="edge">
<title>Node947&#45;&gt;Node0</title>
<path fill="none" stroke="midnightblue" d="M84.55,-60.39C102.42,-65.59 122.89,-71.55 139.58,-76.41"/>
<polygon fill="midnightblue" stroke="midnightblue" points="85.51,-57.02 74.93,-57.59 83.55,-63.75 85.51,-57.02"/>
</g>
<!-- Node950 -->
<g id="node4" class="node">
<title>Node950</title>
<g id="a_node4"><a xlink:href="class_ogre_1_1_property_def.html" target="_top" xlink:title="Definition of a property of an object.">
<polygon fill="none" stroke="black" points="121.5,-38.5 121.5,-57.5 225.5,-57.5 225.5,-38.5 121.5,-38.5"/>
<text text-anchor="middle" x="173.5" y="-45.5" font-family="Helvetica,sans-Serif" font-size="10.00">Ogre::PropertyDef</text>
</a>
</g>
</g>
<!-- Node947&#45;&gt;Node950 -->
<g id="edge3" class="edge">
<title>Node947&#45;&gt;Node950</title>
<path fill="none" stroke="midnightblue" d="M92.26,-48C101.71,-48 111.61,-48 121.1,-48"/>
<polygon fill="midnightblue" stroke="midnightblue" points="92.22,-44.5 82.22,-48 92.22,-51.5 92.22,-44.5"/>
</g>
<!-- Node951 -->
<g id="node5" class="node">
<title>Node951</title>
<g id="a_node5"><a xlink:href="class_ogre_1_1_property_set.html" target="_top" xlink:title="Defines a complete set of properties for a single object instance.">
<polygon fill="none" stroke="black" points="122,-0.5 122,-19.5 225,-19.5 225,-0.5 122,-0.5"/>
<text text-anchor="middle" x="173.5" y="-7.5" font-family="Helvetica,sans-Serif" font-size="10.00">Ogre::PropertySet</text>
</a>
</g>
</g>
<!-- Node947&#45;&gt;Node951 -->
<g id="edge4" class="edge">
<title>Node947&#45;&gt;Node951</title>
<path fill="none" stroke="midnightblue" d="M84.55,-35.61C102.42,-30.41 122.89,-24.45 139.58,-19.59"/>
<polygon fill="midnightblue" stroke="midnightblue" points="83.55,-32.25 74.93,-38.41 85.51,-38.98 83.55,-32.25"/>
</g>
<!-- Node1 -->
<g id="node3" class="node">
<title>Node1</title>
<g id="a_node3"><a xlink:href="class_ogre_1_1_property.html" target="_top" xlink:title="Property instance with passthrough calls to a given object.">
<polygon fill="none" stroke="black" points="265,-76.5 265,-95.5 381,-95.5 381,-76.5 265,-76.5"/>
<text text-anchor="middle" x="323" y="-83.5" font-family="Helvetica,sans-Serif" font-size="10.00">Ogre::Property&lt; T &gt;</text>
</a>
</g>
</g>
<!-- Node0&#45;&gt;Node1 -->
<g id="edge2" class="edge">
<title>Node0&#45;&gt;Node1</title>
<path fill="none" stroke="midnightblue" d="M239.25,-86C247.74,-86 256.4,-86 264.75,-86"/>
<polygon fill="midnightblue" stroke="midnightblue" points="239,-82.5 229,-86 239,-89.5 239,-82.5"/>
</g>
</g>
</svg>
