<?xml version="1.0" encoding="UTF-8" standalone="no"?>
<!DOCTYPE svg PUBLIC "-//W3C//DTD SVG 1.1//EN"
 "http://www.w3.org/Graphics/SVG/1.1/DTD/svg11.dtd">
<!-- Generated by graphviz version 2.43.0 (0)
 -->
<!-- Title: Graphical Class Hierarchy Pages: 1 -->
<svg width="877pt" height="1076pt"
 viewBox="0.00 0.00 877.00 1075.50" xmlns="http://www.w3.org/2000/svg" xmlns:xlink="http://www.w3.org/1999/xlink">
<g id="graph0" class="graph" transform="scale(1 1) rotate(0) translate(4 1071.5)">
<title>Graphical Class Hierarchy</title>
<!-- Node1011 -->
<g id="node1" class="node">
<title>Node1011</title>
<g id="a_node1"><a xlink:title=" ">
<polygon fill="none" stroke="#bfbfbf" points="36.5,-278.5 36.5,-297.5 160.5,-297.5 160.5,-278.5 36.5,-278.5"/>
<text text-anchor="middle" x="98.5" y="-285.5" font-family="Helvetica,sans-Serif" font-size="10.00">RTShaderSystemAlloc</text>
</a>
</g>
</g>
<!-- Node0 -->
<g id="node2" class="node">
<title>Node0</title>
<g id="a_node2"><a xlink:href="class_ogre_1_1_r_t_shader_1_1_function.html" target="_top" xlink:title="A class that represents a shader based program function.">
<polygon fill="none" stroke="black" points="256.5,-448.5 256.5,-467.5 396.5,-467.5 396.5,-448.5 256.5,-448.5"/>
<text text-anchor="middle" x="326.5" y="-455.5" font-family="Helvetica,sans-Serif" font-size="10.00">Ogre::RTShader::Function</text>
</a>
</g>
</g>
<!-- Node1011&#45;&gt;Node0 -->
<g id="edge1" class="edge">
<title>Node1011&#45;&gt;Node0</title>
<path fill="none" stroke="midnightblue" d="M110.32,-306.41C130.25,-338.57 175.97,-404.72 233,-438 240.52,-442.39 248.89,-445.82 257.44,-448.5"/>
<polygon fill="midnightblue" stroke="midnightblue" points="113.16,-304.34 104.98,-297.6 107.17,-307.96 113.16,-304.34"/>
</g>
<!-- Node1013 -->
<g id="node3" class="node">
<title>Node1013</title>
<g id="a_node3"><a xlink:href="class_ogre_1_1_r_t_shader_1_1_function_atom.html" target="_top" xlink:title="A class that represents an atomic code section of shader based program function.">
<polygon fill="none" stroke="black" points="243.5,-316.5 243.5,-335.5 409.5,-335.5 409.5,-316.5 243.5,-316.5"/>
<text text-anchor="middle" x="326.5" y="-323.5" font-family="Helvetica,sans-Serif" font-size="10.00">Ogre::RTShader::FunctionAtom</text>
</a>
</g>
</g>
<!-- Node1011&#45;&gt;Node1013 -->
<g id="edge2" class="edge">
<title>Node1011&#45;&gt;Node1013</title>
<path fill="none" stroke="midnightblue" d="M166.14,-299.2C198.74,-304.69 237.57,-311.22 268.74,-316.46"/>
<polygon fill="midnightblue" stroke="midnightblue" points="166.68,-295.75 156.24,-297.54 165.52,-302.65 166.68,-295.75"/>
</g>
<!-- Node1019 -->
<g id="node9" class="node">
<title>Node1019</title>
<g id="a_node9"><a xlink:href="class_ogre_1_1_r_t_shader_1_1_operand.html" target="_top" xlink:title="A class that represents a function operand (its the combination of a parameter the in/out semantic an...">
<polygon fill="none" stroke="black" points="256.5,-278.5 256.5,-297.5 396.5,-297.5 396.5,-278.5 256.5,-278.5"/>
<text text-anchor="middle" x="326.5" y="-285.5" font-family="Helvetica,sans-Serif" font-size="10.00">Ogre::RTShader::Operand</text>
</a>
</g>
</g>
<!-- Node1011&#45;&gt;Node1019 -->
<g id="edge8" class="edge">
<title>Node1011&#45;&gt;Node1019</title>
<path fill="none" stroke="midnightblue" d="M170.92,-288C198.2,-288 229.24,-288 256.31,-288"/>
<polygon fill="midnightblue" stroke="midnightblue" points="170.66,-284.5 160.66,-288 170.66,-291.5 170.66,-284.5"/>
</g>
<!-- Node1024 -->
<g id="node14" class="node">
<title>Node1024</title>
<g id="a_node14"><a xlink:href="class_ogre_1_1_r_t_shader_1_1_parameter.html" target="_top" xlink:title="A class that represents a shader based program parameter.">
<polygon fill="none" stroke="black" points="252,-88.5 252,-107.5 401,-107.5 401,-88.5 252,-88.5"/>
<text text-anchor="middle" x="326.5" y="-95.5" font-family="Helvetica,sans-Serif" font-size="10.00">Ogre::RTShader::Parameter</text>
</a>
</g>
</g>
<!-- Node1011&#45;&gt;Node1024 -->
<g id="edge13" class="edge">
<title>Node1011&#45;&gt;Node1024</title>
<path fill="none" stroke="midnightblue" d="M108.57,-268.96C126.74,-233.01 171.25,-155.31 233,-117 239.27,-113.11 246.19,-110 253.35,-107.52"/>
<polygon fill="midnightblue" stroke="midnightblue" points="105.24,-267.79 103.96,-278.31 111.52,-270.89 105.24,-267.79"/>
</g>
<!-- Node1027 -->
<g id="node17" class="node">
<title>Node1027</title>
<g id="a_node17"><a xlink:href="class_ogre_1_1_r_t_shader_1_1_program.html" target="_top" xlink:title="A class that represents a shader based program.">
<polygon fill="none" stroke="black" points="256.5,-240.5 256.5,-259.5 396.5,-259.5 396.5,-240.5 256.5,-240.5"/>
<text text-anchor="middle" x="326.5" y="-247.5" font-family="Helvetica,sans-Serif" font-size="10.00">Ogre::RTShader::Program</text>
</a>
</g>
</g>
<!-- Node1011&#45;&gt;Node1027 -->
<g id="edge16" class="edge">
<title>Node1011&#45;&gt;Node1027</title>
<path fill="none" stroke="midnightblue" d="M166.14,-276.8C198.74,-271.31 237.57,-264.78 268.74,-259.54"/>
<polygon fill="midnightblue" stroke="midnightblue" points="165.52,-273.35 156.24,-278.46 166.68,-280.25 165.52,-273.35"/>
</g>
<!-- Node1028 -->
<g id="node18" class="node">
<title>Node1028</title>
<g id="a_node18"><a xlink:href="class_ogre_1_1_r_t_shader_1_1_program_manager.html" target="_top" xlink:title="A singleton manager class that manages shader based programs.">
<polygon fill="none" stroke="black" points="235.5,-961.5 235.5,-980.5 417.5,-980.5 417.5,-961.5 235.5,-961.5"/>
<text text-anchor="middle" x="326.5" y="-968.5" font-family="Helvetica,sans-Serif" font-size="10.00">Ogre::RTShader::ProgramManager</text>
</a>
</g>
</g>
<!-- Node1011&#45;&gt;Node1028 -->
<g id="edge17" class="edge">
<title>Node1011&#45;&gt;Node1028</title>
<path fill="none" stroke="midnightblue" d="M100.62,-307.98C106.69,-408.45 138.82,-857.43 233,-952 236.7,-955.72 240.92,-958.8 245.48,-961.35"/>
<polygon fill="midnightblue" stroke="midnightblue" points="104.1,-307.5 100.02,-297.72 97.12,-307.91 104.1,-307.5"/>
</g>
<!-- Node1029 -->
<g id="node19" class="node">
<title>Node1029</title>
<g id="a_node19"><a xlink:href="class_ogre_1_1_r_t_shader_1_1_program_processor.html" target="_top" xlink:title="A class that provides extra processing services on CPU based programs.">
<polygon fill="none" stroke="black" points="233,-202.5 233,-221.5 420,-221.5 420,-202.5 233,-202.5"/>
<text text-anchor="middle" x="326.5" y="-209.5" font-family="Helvetica,sans-Serif" font-size="10.00">Ogre::RTShader::ProgramProcessor</text>
</a>
</g>
</g>
<!-- Node1011&#45;&gt;Node1029 -->
<g id="edge18" class="edge">
<title>Node1011&#45;&gt;Node1029</title>
<path fill="none" stroke="midnightblue" d="M127.59,-274.04C154.19,-261.3 195.51,-242.72 233,-231 244.74,-227.33 257.53,-224.18 269.77,-221.56"/>
<polygon fill="midnightblue" stroke="midnightblue" points="125.97,-270.94 118.5,-278.44 129.02,-277.24 125.97,-270.94"/>
</g>
<!-- Node1030 -->
<g id="node20" class="node">
<title>Node1030</title>
<g id="a_node20"><a xlink:href="class_ogre_1_1_r_t_shader_1_1_program_set.html" target="_top" xlink:title="Container class for shader based programs.">
<polygon fill="none" stroke="black" points="249,-164.5 249,-183.5 404,-183.5 404,-164.5 249,-164.5"/>
<text text-anchor="middle" x="326.5" y="-171.5" font-family="Helvetica,sans-Serif" font-size="10.00">Ogre::RTShader::ProgramSet</text>
</a>
</g>
</g>
<!-- Node1011&#45;&gt;Node1030 -->
<g id="edge19" class="edge">
<title>Node1011&#45;&gt;Node1030</title>
<path fill="none" stroke="midnightblue" d="M117.29,-271.57C141.56,-250.11 187.27,-212.9 233,-193 241.87,-189.14 251.56,-186.05 261.23,-183.58"/>
<polygon fill="midnightblue" stroke="midnightblue" points="114.73,-269.17 109.64,-278.46 119.41,-274.37 114.73,-269.17"/>
</g>
<!-- Node1031 -->
<g id="node21" class="node">
<title>Node1031</title>
<g id="a_node21"><a xlink:href="class_ogre_1_1_r_t_shader_1_1_program_writer.html" target="_top" xlink:title="Base class interface for shader program writers.">
<polygon fill="none" stroke="black" points="241.5,-126.5 241.5,-145.5 411.5,-145.5 411.5,-126.5 241.5,-126.5"/>
<text text-anchor="middle" x="326.5" y="-133.5" font-family="Helvetica,sans-Serif" font-size="10.00">Ogre::RTShader::ProgramWriter</text>
</a>
</g>
</g>
<!-- Node1011&#45;&gt;Node1031 -->
<g id="edge20" class="edge">
<title>Node1011&#45;&gt;Node1031</title>
<path fill="none" stroke="midnightblue" d="M112,-270.01C133.27,-240.89 179.43,-183.78 233,-155 240.22,-151.12 248.15,-148.03 256.23,-145.57"/>
<polygon fill="midnightblue" stroke="midnightblue" points="108.96,-268.24 105.99,-278.41 114.66,-272.31 108.96,-268.24"/>
</g>
<!-- Node1032 -->
<g id="node22" class="node">
<title>Node1032</title>
<g id="a_node22"><a xlink:href="class_ogre_1_1_r_t_shader_1_1_program_writer_factory.html" target="_top" xlink:title=" ">
<polygon fill="none" stroke="black" points="241.5,-912 241.5,-942 411.5,-942 411.5,-912 241.5,-912"/>
<text text-anchor="start" x="249.5" y="-930" font-family="Helvetica,sans-Serif" font-size="10.00">Ogre::RTShader::ProgramWriter</text>
<text text-anchor="middle" x="326.5" y="-919" font-family="Helvetica,sans-Serif" font-size="10.00">Factory</text>
</a>
</g>
</g>
<!-- Node1011&#45;&gt;Node1032 -->
<g id="edge21" class="edge">
<title>Node1011&#45;&gt;Node1032</title>
<path fill="none" stroke="midnightblue" d="M101.09,-307.87C109.1,-403.19 148.1,-812.76 233,-902 236.67,-905.86 240.87,-909.14 245.4,-911.93"/>
<polygon fill="midnightblue" stroke="midnightblue" points="104.57,-307.52 100.26,-297.84 97.6,-308.1 104.57,-307.52"/>
</g>
<!-- Node1033 -->
<g id="node23" class="node">
<title>Node1033</title>
<g id="a_node23"><a xlink:href="class_ogre_1_1_r_t_shader_1_1_program_writer_manager.html" target="_top" xlink:title=" ">
<polygon fill="none" stroke="black" points="241.5,-39 241.5,-69 411.5,-69 411.5,-39 241.5,-39"/>
<text text-anchor="start" x="249.5" y="-57" font-family="Helvetica,sans-Serif" font-size="10.00">Ogre::RTShader::ProgramWriter</text>
<text text-anchor="middle" x="326.5" y="-46" font-family="Helvetica,sans-Serif" font-size="10.00">Manager</text>
</a>
</g>
</g>
<!-- Node1011&#45;&gt;Node1033 -->
<g id="edge22" class="edge">
<title>Node1011&#45;&gt;Node1033</title>
<path fill="none" stroke="midnightblue" d="M106.2,-268.89C121.7,-227.57 164.03,-129.62 233,-79 238.23,-75.16 244.01,-71.91 250.06,-69.16"/>
<polygon fill="midnightblue" stroke="midnightblue" points="102.9,-267.72 102.77,-278.32 109.48,-270.12 102.9,-267.72"/>
</g>
<!-- Node1034 -->
<g id="node24" class="node">
<title>Node1034</title>
<g id="a_node24"><a xlink:href="class_ogre_1_1_r_t_shader_1_1_render_state.html" target="_top" xlink:title="This is a container class for sub render state class.">
<polygon fill="none" stroke="black" points="247.5,-873.5 247.5,-892.5 405.5,-892.5 405.5,-873.5 247.5,-873.5"/>
<text text-anchor="middle" x="326.5" y="-880.5" font-family="Helvetica,sans-Serif" font-size="10.00">Ogre::RTShader::RenderState</text>
</a>
</g>
</g>
<!-- Node1011&#45;&gt;Node1034 -->
<g id="edge23" class="edge">
<title>Node1011&#45;&gt;Node1034</title>
<path fill="none" stroke="midnightblue" d="M101.28,-307.89C109.89,-399.93 150.36,-783.42 233,-864 237.23,-868.12 242.09,-871.46 247.34,-874.15"/>
<polygon fill="midnightblue" stroke="midnightblue" points="104.74,-307.37 100.34,-297.73 97.77,-308.01 104.74,-307.37"/>
</g>
<!-- Node1036 -->
<g id="node26" class="node">
<title>Node1036</title>
<g id="a_node26"><a xlink:href="class_ogre_1_1_r_t_shader_1_1_shader_generator.html" target="_top" xlink:title="Shader generator system main interface.">
<polygon fill="none" stroke="black" points="236,-0.5 236,-19.5 417,-19.5 417,-0.5 236,-0.5"/>
<text text-anchor="middle" x="326.5" y="-7.5" font-family="Helvetica,sans-Serif" font-size="10.00">Ogre::RTShader::ShaderGenerator</text>
</a>
</g>
</g>
<!-- Node1011&#45;&gt;Node1036 -->
<g id="edge25" class="edge">
<title>Node1011&#45;&gt;Node1036</title>
<path fill="none" stroke="midnightblue" d="M108.15,-268.96C134.24,-211.9 211.65,-45.18 233,-29 237.96,-25.24 243.49,-22.17 249.31,-19.68"/>
<polygon fill="midnightblue" stroke="midnightblue" points="104.87,-267.73 103.9,-278.28 111.23,-270.64 104.87,-267.73"/>
</g>
<!-- Node1037 -->
<g id="node27" class="node">
<title>Node1037</title>
<g id="a_node27"><a xlink:href="class_ogre_1_1_r_t_shader_1_1_sub_render_state.html" target="_top" xlink:title="This class is the base interface of sub part from a shader based rendering pipeline.">
<polygon fill="none" stroke="black" points="251,-824 251,-854 402,-854 402,-824 251,-824"/>
<text text-anchor="start" x="259" y="-842" font-family="Helvetica,sans-Serif" font-size="10.00">Ogre::RTShader::SubRender</text>
<text text-anchor="middle" x="326.5" y="-831" font-family="Helvetica,sans-Serif" font-size="10.00">State</text>
</a>
</g>
</g>
<!-- Node1011&#45;&gt;Node1037 -->
<g id="edge26" class="edge">
<title>Node1011&#45;&gt;Node1037</title>
<path fill="none" stroke="midnightblue" d="M107.24,-306.88C142.5,-392.83 287.43,-746.19 319.29,-823.86"/>
<polygon fill="midnightblue" stroke="midnightblue" points="110.46,-305.49 103.42,-297.56 103.98,-308.14 110.46,-305.49"/>
</g>
<!-- Node1045 -->
<g id="node35" class="node">
<title>Node1045</title>
<g id="a_node35"><a xlink:href="class_ogre_1_1_r_t_shader_1_1_sub_render_state_factory.html" target="_top" xlink:title="Abstract factory interface for creating SubRenderState implementation instances.">
<polygon fill="none" stroke="black" points="251,-562 251,-592 402,-592 402,-562 251,-562"/>
<text text-anchor="start" x="259" y="-580" font-family="Helvetica,sans-Serif" font-size="10.00">Ogre::RTShader::SubRender</text>
<text text-anchor="middle" x="326.5" y="-569" font-family="Helvetica,sans-Serif" font-size="10.00">StateFactory</text>
</a>
</g>
</g>
<!-- Node1011&#45;&gt;Node1045 -->
<g id="edge34" class="edge">
<title>Node1011&#45;&gt;Node1045</title>
<path fill="none" stroke="midnightblue" d="M111.27,-306.32C133.66,-340.75 184.47,-417.07 233,-477 258.6,-508.61 291.56,-542.89 310.43,-561.98"/>
<polygon fill="midnightblue" stroke="midnightblue" points="114.11,-304.26 105.74,-297.76 108.23,-308.06 114.11,-304.26"/>
</g>
<!-- Node1014 -->
<g id="node4" class="node">
<title>Node1014</title>
<g id="a_node4"><a xlink:href="class_ogre_1_1_r_t_shader_1_1_assignment_atom.html" target="_top" xlink:title="shorthand for &quot;lhs = rhs;&quot; insted of using FFP_Assign(rhs, lhs)">
<polygon fill="none" stroke="black" points="463.5,-316.5 463.5,-335.5 645.5,-335.5 645.5,-316.5 463.5,-316.5"/>
<text text-anchor="middle" x="554.5" y="-323.5" font-family="Helvetica,sans-Serif" font-size="10.00">Ogre::RTShader::AssignmentAtom</text>
</a>
</g>
</g>
<!-- Node1013&#45;&gt;Node1014 -->
<g id="edge3" class="edge">
<title>Node1013&#45;&gt;Node1014</title>
<path fill="none" stroke="midnightblue" d="M420.04,-326C434.33,-326 449.08,-326 463.31,-326"/>
<polygon fill="midnightblue" stroke="midnightblue" points="419.73,-322.5 409.73,-326 419.73,-329.5 419.73,-322.5"/>
</g>
<!-- Node1015 -->
<g id="node5" class="node">
<title>Node1015</title>
<g id="a_node5"><a xlink:href="class_ogre_1_1_r_t_shader_1_1_binary_op_atom.html" target="_top" xlink:title="shorthand for &quot;dst = a OP b;&quot;">
<polygon fill="none" stroke="black" points="469.5,-278.5 469.5,-297.5 639.5,-297.5 639.5,-278.5 469.5,-278.5"/>
<text text-anchor="middle" x="554.5" y="-285.5" font-family="Helvetica,sans-Serif" font-size="10.00">Ogre::RTShader::BinaryOpAtom</text>
</a>
</g>
</g>
<!-- Node1013&#45;&gt;Node1015 -->
<g id="edge4" class="edge">
<title>Node1013&#45;&gt;Node1015</title>
<path fill="none" stroke="midnightblue" d="M394.14,-314.8C426.74,-309.31 465.57,-302.78 496.74,-297.54"/>
<polygon fill="midnightblue" stroke="midnightblue" points="393.52,-311.35 384.24,-316.46 394.68,-318.25 393.52,-311.35"/>
</g>
<!-- Node1016 -->
<g id="node6" class="node">
<title>Node1016</title>
<g id="a_node6"><a xlink:href="class_ogre_1_1_r_t_shader_1_1_builtin_function_atom.html" target="_top" xlink:title="shorthand for &quot;dst = BUILTIN(args);&quot;">
<polygon fill="none" stroke="black" points="456,-240.5 456,-259.5 653,-259.5 653,-240.5 456,-240.5"/>
<text text-anchor="middle" x="554.5" y="-247.5" font-family="Helvetica,sans-Serif" font-size="10.00">Ogre::RTShader::BuiltinFunctionAtom</text>
</a>
</g>
</g>
<!-- Node1013&#45;&gt;Node1016 -->
<g id="edge5" class="edge">
<title>Node1013&#45;&gt;Node1016</title>
<path fill="none" stroke="midnightblue" d="M406.86,-313.14C411.42,-311.35 415.83,-309.32 420,-307 440.33,-295.69 435.61,-280.2 456,-269 463.1,-265.1 470.89,-261.99 478.86,-259.51"/>
<polygon fill="midnightblue" stroke="midnightblue" points="405.64,-309.86 397.36,-316.48 407.95,-316.47 405.64,-309.86"/>
</g>
<!-- Node1017 -->
<g id="node7" class="node">
<title>Node1017</title>
<g id="a_node7"><a xlink:href="class_ogre_1_1_r_t_shader_1_1_function_invocation.html" target="_top" xlink:title="A class that represents function invocation code from shader based program function.">
<polygon fill="none" stroke="black" points="484.5,-393 484.5,-423 624.5,-423 624.5,-393 484.5,-393"/>
<text text-anchor="start" x="492.5" y="-411" font-family="Helvetica,sans-Serif" font-size="10.00">Ogre::RTShader::Function</text>
<text text-anchor="middle" x="554.5" y="-400" font-family="Helvetica,sans-Serif" font-size="10.00">Invocation</text>
</a>
</g>
</g>
<!-- Node1013&#45;&gt;Node1017 -->
<g id="edge6" class="edge">
<title>Node1013&#45;&gt;Node1017</title>
<path fill="none" stroke="midnightblue" d="M355.39,-339.99C381.06,-352.48 420.43,-370.65 456,-383 466.4,-386.61 477.59,-389.96 488.54,-392.96"/>
<polygon fill="midnightblue" stroke="midnightblue" points="356.78,-336.78 346.26,-335.51 353.69,-343.06 356.78,-336.78"/>
</g>
<!-- Node1018 -->
<g id="node8" class="node">
<title>Node1018</title>
<g id="a_node8"><a xlink:href="class_ogre_1_1_r_t_shader_1_1_sample_texture_atom.html" target="_top" xlink:title="shorthand for &quot;dst = texture(sampler, uv);&quot; instead of using FFP_SampleTexture">
<polygon fill="none" stroke="black" points="456,-354.5 456,-373.5 653,-373.5 653,-354.5 456,-354.5"/>
<text text-anchor="middle" x="554.5" y="-361.5" font-family="Helvetica,sans-Serif" font-size="10.00">Ogre::RTShader::SampleTextureAtom</text>
</a>
</g>
</g>
<!-- Node1013&#45;&gt;Node1018 -->
<g id="edge7" class="edge">
<title>Node1013&#45;&gt;Node1018</title>
<path fill="none" stroke="midnightblue" d="M394.14,-337.2C426.74,-342.69 465.57,-349.22 496.74,-354.46"/>
<polygon fill="midnightblue" stroke="midnightblue" points="394.68,-333.75 384.24,-335.54 393.52,-340.65 394.68,-333.75"/>
</g>
<!-- Node1020 -->
<g id="node10" class="node">
<title>Node1020</title>
<g id="a_node10"><a xlink:href="struct_ogre_1_1_r_t_shader_1_1_at.html" target="_top" xlink:title="shorthand for operator[] on preceding operand. e.g. myArray[p]">
<polygon fill="none" stroke="black" points="500,-202.5 500,-221.5 609,-221.5 609,-202.5 500,-202.5"/>
<text text-anchor="middle" x="554.5" y="-209.5" font-family="Helvetica,sans-Serif" font-size="10.00">Ogre::RTShader::At</text>
</a>
</g>
</g>
<!-- Node1019&#45;&gt;Node1020 -->
<g id="edge9" class="edge">
<title>Node1019&#45;&gt;Node1020</title>
<path fill="none" stroke="midnightblue" d="M406.58,-275.25C411.24,-273.44 415.75,-271.37 420,-269 440.33,-257.69 435.61,-242.2 456,-231 469.3,-223.69 484.98,-219.16 499.83,-216.37"/>
<polygon fill="midnightblue" stroke="midnightblue" points="405.17,-272.04 396.88,-278.63 407.47,-278.65 405.17,-272.04"/>
</g>
<!-- Node1021 -->
<g id="node11" class="node">
<title>Node1021</title>
<g id="a_node11"><a xlink:href="struct_ogre_1_1_r_t_shader_1_1_in.html" target="_top" xlink:title=" ">
<polygon fill="none" stroke="black" points="501,-164.5 501,-183.5 608,-183.5 608,-164.5 501,-164.5"/>
<text text-anchor="middle" x="554.5" y="-171.5" font-family="Helvetica,sans-Serif" font-size="10.00">Ogre::RTShader::In</text>
</a>
</g>
</g>
<!-- Node1019&#45;&gt;Node1021 -->
<g id="edge10" class="edge">
<title>Node1019&#45;&gt;Node1021</title>
<path fill="none" stroke="midnightblue" d="M406.41,-277.32C411.25,-275.02 415.84,-272.27 420,-269 449.4,-245.92 426.48,-215.93 456,-193 468.73,-183.11 485.17,-177.91 500.91,-175.29"/>
<polygon fill="midnightblue" stroke="midnightblue" points="404.79,-274.2 396.85,-281.23 407.44,-280.68 404.79,-274.2"/>
</g>
<!-- Node1022 -->
<g id="node12" class="node">
<title>Node1022</title>
<g id="a_node12"><a xlink:href="struct_ogre_1_1_r_t_shader_1_1_in_out.html" target="_top" xlink:title=" ">
<polygon fill="none" stroke="black" points="492,-126.5 492,-145.5 617,-145.5 617,-126.5 492,-126.5"/>
<text text-anchor="middle" x="554.5" y="-133.5" font-family="Helvetica,sans-Serif" font-size="10.00">Ogre::RTShader::InOut</text>
</a>
</g>
</g>
<!-- Node1019&#45;&gt;Node1022 -->
<g id="edge11" class="edge">
<title>Node1019&#45;&gt;Node1022</title>
<path fill="none" stroke="midnightblue" d="M406.03,-278.42C411.09,-275.88 415.81,-272.77 420,-269 459.46,-233.42 416.36,-190.38 456,-155 465.97,-146.1 478.84,-140.85 491.94,-137.85"/>
<polygon fill="midnightblue" stroke="midnightblue" points="404.47,-275.28 396.64,-282.42 407.21,-281.72 404.47,-275.28"/>
</g>
<!-- Node1023 -->
<g id="node13" class="node">
<title>Node1023</title>
<g id="a_node13"><a xlink:href="struct_ogre_1_1_r_t_shader_1_1_out.html" target="_top" xlink:title=" ">
<polygon fill="none" stroke="black" points="496.5,-88.5 496.5,-107.5 612.5,-107.5 612.5,-88.5 496.5,-88.5"/>
<text text-anchor="middle" x="554.5" y="-95.5" font-family="Helvetica,sans-Serif" font-size="10.00">Ogre::RTShader::Out</text>
</a>
</g>
</g>
<!-- Node1019&#45;&gt;Node1023 -->
<g id="edge12" class="edge">
<title>Node1019&#45;&gt;Node1023</title>
<path fill="none" stroke="midnightblue" d="M406.08,-278.9C411.16,-276.25 415.88,-273 420,-269 469.82,-220.65 405.94,-165.1 456,-117 466.82,-106.61 481.55,-101.08 496.27,-98.32"/>
<polygon fill="midnightblue" stroke="midnightblue" points="404.36,-275.83 396.59,-283.04 407.16,-282.25 404.36,-275.83"/>
</g>
<!-- Node1025 -->
<g id="node15" class="node">
<title>Node1025</title>
<g id="a_node15"><a xlink:href="class_ogre_1_1_r_t_shader_1_1_const_parameter.html" target="_top" xlink:title="Helper template which is the base for our ConstParameters.">
<polygon fill="none" stroke="black" points="466,-39 466,-69 643,-69 643,-39 466,-39"/>
<text text-anchor="start" x="474" y="-57" font-family="Helvetica,sans-Serif" font-size="10.00">Ogre::RTShader::ConstParameter</text>
<text text-anchor="middle" x="554.5" y="-46" font-family="Helvetica,sans-Serif" font-size="10.00">&lt; valueType &gt;</text>
</a>
</g>
</g>
<!-- Node1024&#45;&gt;Node1025 -->
<g id="edge14" class="edge">
<title>Node1024&#45;&gt;Node1025</title>
<path fill="none" stroke="midnightblue" d="M386.37,-86.54C413.77,-81.2 446.73,-74.79 476.12,-69.07"/>
<polygon fill="midnightblue" stroke="midnightblue" points="385.69,-83.11 376.54,-88.45 387.02,-89.98 385.69,-83.11"/>
</g>
<!-- Node1026 -->
<g id="node16" class="node">
<title>Node1026</title>
<g id="a_node16"><a xlink:href="class_ogre_1_1_r_t_shader_1_1_uniform_parameter.html" target="_top" xlink:title="Uniform parameter class.">
<polygon fill="none" stroke="black" points="460,-0.5 460,-19.5 649,-19.5 649,-0.5 460,-0.5"/>
<text text-anchor="middle" x="554.5" y="-7.5" font-family="Helvetica,sans-Serif" font-size="10.00">Ogre::RTShader::UniformParameter</text>
</a>
</g>
</g>
<!-- Node1024&#45;&gt;Node1026 -->
<g id="edge15" class="edge">
<title>Node1024&#45;&gt;Node1026</title>
<path fill="none" stroke="midnightblue" d="M407.85,-84.57C412.09,-82.66 416.17,-80.48 420,-78 442.68,-63.3 433.17,-43.46 456,-29 462.12,-25.12 468.85,-22.01 475.84,-19.51"/>
<polygon fill="midnightblue" stroke="midnightblue" points="406.36,-81.39 398.36,-88.34 408.94,-87.9 406.36,-81.39"/>
</g>
<!-- Node1035 -->
<g id="node25" class="node">
<title>Node1035</title>
<g id="a_node25"><a xlink:href="class_ogre_1_1_r_t_shader_1_1_target_render_state.html" target="_top" xlink:title="This is the target render state.">
<polygon fill="none" stroke="black" points="473,-1037 473,-1067 636,-1067 636,-1037 473,-1037"/>
<text text-anchor="start" x="481" y="-1055" font-family="Helvetica,sans-Serif" font-size="10.00">Ogre::RTShader::TargetRender</text>
<text text-anchor="middle" x="554.5" y="-1044" font-family="Helvetica,sans-Serif" font-size="10.00">State</text>
</a>
</g>
</g>
<!-- Node1034&#45;&gt;Node1035 -->
<g id="edge24" class="edge">
<title>Node1034&#45;&gt;Node1035</title>
<path fill="none" stroke="midnightblue" d="M413.65,-897.87C415.88,-899.43 418,-901.13 420,-903 462.24,-942.48 414.33,-987.93 456,-1028 460.9,-1032.71 466.57,-1036.55 472.66,-1039.66"/>
<polygon fill="midnightblue" stroke="midnightblue" points="414.96,-894.58 404.57,-892.53 411.42,-900.62 414.96,-894.58"/>
</g>
<!-- Node1038 -->
<g id="node28" class="node">
<title>Node1038</title>
<g id="a_node28"><a xlink:href="class_ogre_1_1_r_t_shader_1_1_f_f_p_texturing.html" target="_top" xlink:title="Texturing sub render state implementation of the Fixed Function Pipeline.">
<polygon fill="none" stroke="black" points="474,-949.5 474,-968.5 635,-968.5 635,-949.5 474,-949.5"/>
<text text-anchor="middle" x="554.5" y="-956.5" font-family="Helvetica,sans-Serif" font-size="10.00">Ogre::RTShader::FFPTexturing</text>
</a>
</g>
</g>
<!-- Node1037&#45;&gt;Node1038 -->
<g id="edge27" class="edge">
<title>Node1037&#45;&gt;Node1038</title>
<path fill="none" stroke="midnightblue" d="M411.18,-857.69C414.28,-859.59 417.24,-861.69 420,-864 448.68,-887.97 426.48,-917.07 456,-940 461.31,-944.13 467.27,-947.44 473.55,-950.08"/>
<polygon fill="midnightblue" stroke="midnightblue" points="412.57,-854.46 402.11,-852.81 409.26,-860.63 412.57,-854.46"/>
</g>
<!-- Node1040 -->
<g id="node30" class="node">
<title>Node1040</title>
<g id="a_node30"><a xlink:href="class_ogre_1_1_r_t_shader_1_1_f_f_p_transform.html" target="_top" xlink:title="Transform sub render state implementation of the Fixed Function Pipeline.">
<polygon fill="none" stroke="black" points="471.5,-911.5 471.5,-930.5 637.5,-930.5 637.5,-911.5 471.5,-911.5"/>
<text text-anchor="middle" x="554.5" y="-918.5" font-family="Helvetica,sans-Serif" font-size="10.00">Ogre::RTShader::FFPTransform</text>
</a>
</g>
</g>
<!-- Node1037&#45;&gt;Node1040 -->
<g id="edge29" class="edge">
<title>Node1037&#45;&gt;Node1040</title>
<path fill="none" stroke="midnightblue" d="M408.66,-858.06C412.58,-859.87 416.38,-861.84 420,-864 439.98,-875.92 435.61,-890.8 456,-902 463.1,-905.9 470.89,-909.01 478.86,-911.49"/>
<polygon fill="midnightblue" stroke="midnightblue" points="409.91,-854.78 399.33,-854.13 407.19,-861.24 409.91,-854.78"/>
</g>
<!-- Node1041 -->
<g id="node31" class="node">
<title>Node1041</title>
<g id="a_node31"><a xlink:href="class_ogre_1_1_r_t_shader_1_1_g_buffer.html" target="_top" xlink:title="Transform sub render state implementation of writing to GBuffers.">
<polygon fill="none" stroke="black" points="486.5,-873.5 486.5,-892.5 622.5,-892.5 622.5,-873.5 486.5,-873.5"/>
<text text-anchor="middle" x="554.5" y="-880.5" font-family="Helvetica,sans-Serif" font-size="10.00">Ogre::RTShader::GBuffer</text>
</a>
</g>
</g>
<!-- Node1037&#45;&gt;Node1041 -->
<g id="edge30" class="edge">
<title>Node1037&#45;&gt;Node1041</title>
<path fill="none" stroke="midnightblue" d="M412.13,-855.48C443.32,-861.55 477.58,-868.22 504.57,-873.47"/>
<polygon fill="midnightblue" stroke="midnightblue" points="412.61,-852 402.13,-853.53 411.27,-858.88 412.61,-852"/>
</g>
<!-- Node1042 -->
<g id="node32" class="node">
<title>Node1042</title>
<g id="a_node32"><a xlink:href="class_ogre_1_1_r_t_shader_1_1_hardware_skinning.html" target="_top" xlink:title="Implement a sub render state which performs hardware skinning.">
<polygon fill="none" stroke="black" points="481.5,-824 481.5,-854 627.5,-854 627.5,-824 481.5,-824"/>
<text text-anchor="start" x="489.5" y="-842" font-family="Helvetica,sans-Serif" font-size="10.00">Ogre::RTShader::Hardware</text>
<text text-anchor="middle" x="554.5" y="-831" font-family="Helvetica,sans-Serif" font-size="10.00">Skinning</text>
</a>
</g>
</g>
<!-- Node1037&#45;&gt;Node1042 -->
<g id="edge31" class="edge">
<title>Node1037&#45;&gt;Node1042</title>
<path fill="none" stroke="midnightblue" d="M412.41,-839C435.07,-839 459.35,-839 481.26,-839"/>
<polygon fill="midnightblue" stroke="midnightblue" points="412.13,-835.5 402.13,-839 412.13,-842.5 412.13,-835.5"/>
</g>
<!-- Node1043 -->
<g id="node33" class="node">
<title>Node1043</title>
<g id="a_node33"><a xlink:href="class_ogre_1_1_r_t_shader_1_1_integrated_p_s_s_m3.html" target="_top" xlink:title="PSSM shadow receiver with up to 3 splits. Custom split points.">
<polygon fill="none" stroke="black" points="480,-775 480,-805 629,-805 629,-775 480,-775"/>
<text text-anchor="start" x="488" y="-793" font-family="Helvetica,sans-Serif" font-size="10.00">Ogre::RTShader::Integrated</text>
<text text-anchor="middle" x="554.5" y="-782" font-family="Helvetica,sans-Serif" font-size="10.00">PSSM3</text>
</a>
</g>
</g>
<!-- Node1037&#45;&gt;Node1043 -->
<g id="edge32" class="edge">
<title>Node1037&#45;&gt;Node1043</title>
<path fill="none" stroke="midnightblue" d="M406.76,-821.81C432.04,-816.34 459.79,-810.32 484.29,-805.01"/>
<polygon fill="midnightblue" stroke="midnightblue" points="405.87,-818.43 396.84,-823.97 407.36,-825.27 405.87,-818.43"/>
</g>
<!-- Node1044 -->
<g id="node34" class="node">
<title>Node1044</title>
<g id="a_node34"><a xlink:href="class_ogre_1_1_r_t_shader_1_1_triplanar_texturing.html" target="_top" xlink:title=" ">
<polygon fill="none" stroke="black" points="484,-988 484,-1018 625,-1018 625,-988 484,-988"/>
<text text-anchor="start" x="492" y="-1006" font-family="Helvetica,sans-Serif" font-size="10.00">Ogre::RTShader::Triplanar</text>
<text text-anchor="middle" x="554.5" y="-995" font-family="Helvetica,sans-Serif" font-size="10.00">Texturing</text>
</a>
</g>
</g>
<!-- Node1037&#45;&gt;Node1044 -->
<g id="edge33" class="edge">
<title>Node1037&#45;&gt;Node1044</title>
<path fill="none" stroke="midnightblue" d="M411.1,-856.89C414.27,-859.01 417.26,-861.37 420,-864 458.35,-900.78 417.41,-941.47 456,-978 463.87,-985.45 473.64,-990.75 483.94,-994.52"/>
<polygon fill="midnightblue" stroke="midnightblue" points="412.74,-853.8 402.32,-851.84 409.24,-859.86 412.74,-853.8"/>
</g>
<!-- Node1039 -->
<g id="node29" class="node">
<title>Node1039</title>
<g id="a_node29"><a xlink:href="class_ogre_1_1_r_t_shader_1_1_layered_blending.html" target="_top" xlink:title=" ">
<polygon fill="none" stroke="black" points="689,-949.5 689,-968.5 869,-968.5 869,-949.5 689,-949.5"/>
<text text-anchor="middle" x="779" y="-956.5" font-family="Helvetica,sans-Serif" font-size="10.00">Ogre::RTShader::LayeredBlending</text>
</a>
</g>
</g>
<!-- Node1038&#45;&gt;Node1039 -->
<g id="edge28" class="edge">
<title>Node1038&#45;&gt;Node1039</title>
<path fill="none" stroke="midnightblue" d="M645.47,-959C659.71,-959 674.43,-959 688.66,-959"/>
<polygon fill="midnightblue" stroke="midnightblue" points="645.2,-955.5 635.2,-959 645.2,-962.5 645.2,-955.5"/>
</g>
<!-- Node1046 -->
<g id="node36" class="node">
<title>Node1046</title>
<g id="a_node36"><a xlink:href="class_ogre_1_1_r_t_shader_1_1_f_f_p_texturing_factory.html" target="_top" xlink:title="A factory that enables creation of FFPTexturing instances.">
<polygon fill="none" stroke="black" points="474,-677 474,-707 635,-707 635,-677 474,-677"/>
<text text-anchor="start" x="482" y="-695" font-family="Helvetica,sans-Serif" font-size="10.00">Ogre::RTShader::FFPTexturing</text>
<text text-anchor="middle" x="554.5" y="-684" font-family="Helvetica,sans-Serif" font-size="10.00">Factory</text>
</a>
</g>
</g>
<!-- Node1045&#45;&gt;Node1046 -->
<g id="edge35" class="edge">
<title>Node1045&#45;&gt;Node1046</title>
<path fill="none" stroke="midnightblue" d="M352.25,-598.85C376.91,-619.54 416.69,-650.03 456,-668 463.45,-671.41 471.45,-674.37 479.55,-676.94"/>
<polygon fill="midnightblue" stroke="midnightblue" points="354.37,-596.06 344.48,-592.25 349.83,-601.39 354.37,-596.06"/>
</g>
<!-- Node1047 -->
<g id="node37" class="node">
<title>Node1047</title>
<g id="a_node37"><a xlink:href="class_ogre_1_1_r_t_shader_1_1_f_f_p_transform_factory.html" target="_top" xlink:title="A factory that enables creation of FFPTransform instances.">
<polygon fill="none" stroke="black" points="471.5,-628 471.5,-658 637.5,-658 637.5,-628 471.5,-628"/>
<text text-anchor="start" x="479.5" y="-646" font-family="Helvetica,sans-Serif" font-size="10.00">Ogre::RTShader::FFPTransform</text>
<text text-anchor="middle" x="554.5" y="-635" font-family="Helvetica,sans-Serif" font-size="10.00">Factory</text>
</a>
</g>
</g>
<!-- Node1045&#45;&gt;Node1047 -->
<g id="edge36" class="edge">
<title>Node1045&#45;&gt;Node1047</title>
<path fill="none" stroke="midnightblue" d="M382.3,-595.26C405.02,-602.62 431.69,-611.01 456,-618 467.76,-621.38 480.37,-624.78 492.5,-627.94"/>
<polygon fill="midnightblue" stroke="midnightblue" points="383.09,-591.83 372.5,-592.06 380.93,-598.49 383.09,-591.83"/>
</g>
<!-- Node1048 -->
<g id="node38" class="node">
<title>Node1048</title>
<g id="a_node38"><a xlink:href="class_ogre_1_1_r_t_shader_1_1_g_buffer_factory.html" target="_top" xlink:title="A factory that enables creation of GBuffer instances.">
<polygon fill="none" stroke="black" points="468.5,-589.5 468.5,-608.5 640.5,-608.5 640.5,-589.5 468.5,-589.5"/>
<text text-anchor="middle" x="554.5" y="-596.5" font-family="Helvetica,sans-Serif" font-size="10.00">Ogre::RTShader::GBufferFactory</text>
</a>
</g>
</g>
<!-- Node1045&#45;&gt;Node1048 -->
<g id="edge37" class="edge">
<title>Node1045&#45;&gt;Node1048</title>
<path fill="none" stroke="midnightblue" d="M412.21,-585.25C430.57,-587.03 450.01,-588.93 468.39,-590.71"/>
<polygon fill="midnightblue" stroke="midnightblue" points="412.42,-581.75 402.13,-584.26 411.74,-588.72 412.42,-581.75"/>
</g>
<!-- Node1049 -->
<g id="node39" class="node">
<title>Node1049</title>
<g id="a_node39"><a xlink:href="class_ogre_1_1_r_t_shader_1_1_hardware_skinning_factory.html" target="_top" xlink:title="A factory that enables creation of HardwareSkinning instances.">
<polygon fill="none" stroke="black" points="481.5,-442 481.5,-472 627.5,-472 627.5,-442 481.5,-442"/>
<text text-anchor="start" x="489.5" y="-460" font-family="Helvetica,sans-Serif" font-size="10.00">Ogre::RTShader::Hardware</text>
<text text-anchor="middle" x="554.5" y="-449" font-family="Helvetica,sans-Serif" font-size="10.00">SkinningFactory</text>
</a>
</g>
</g>
<!-- Node1045&#45;&gt;Node1049 -->
<g id="edge38" class="edge">
<title>Node1045&#45;&gt;Node1049</title>
<path fill="none" stroke="midnightblue" d="M350.79,-554.99C375.18,-533.11 415.51,-500.14 456,-481 463.96,-477.24 472.57,-474.03 481.27,-471.29"/>
<polygon fill="midnightblue" stroke="midnightblue" points="348.19,-552.63 343.15,-561.95 352.9,-557.8 348.19,-552.63"/>
</g>
<!-- Node1050 -->
<g id="node40" class="node">
<title>Node1050</title>
<g id="a_node40"><a xlink:href="class_ogre_1_1_r_t_shader_1_1_integrated_p_s_s_m3_factory.html" target="_top" xlink:title="A factory that enables creation of IntegratedPSSM3 instances.">
<polygon fill="none" stroke="black" points="480,-540 480,-570 629,-570 629,-540 480,-540"/>
<text text-anchor="start" x="488" y="-558" font-family="Helvetica,sans-Serif" font-size="10.00">Ogre::RTShader::Integrated</text>
<text text-anchor="middle" x="554.5" y="-547" font-family="Helvetica,sans-Serif" font-size="10.00">PSSM3Factory</text>
</a>
</g>
</g>
<!-- Node1045&#45;&gt;Node1050 -->
<g id="edge39" class="edge">
<title>Node1045&#45;&gt;Node1050</title>
<path fill="none" stroke="midnightblue" d="M412.2,-568.75C434.4,-566.59 458.15,-564.28 479.72,-562.18"/>
<polygon fill="midnightblue" stroke="midnightblue" points="411.74,-565.28 402.13,-569.74 412.42,-572.25 411.74,-565.28"/>
</g>
<!-- Node1051 -->
<g id="node41" class="node">
<title>Node1051</title>
<g id="a_node41"><a xlink:href="class_ogre_1_1_r_t_shader_1_1_layered_blending_factory.html" target="_top" xlink:title="A factory that enables creation of LayeredBlending instances.">
<polygon fill="none" stroke="black" points="464.5,-491 464.5,-521 644.5,-521 644.5,-491 464.5,-491"/>
<text text-anchor="start" x="472.5" y="-509" font-family="Helvetica,sans-Serif" font-size="10.00">Ogre::RTShader::LayeredBlending</text>
<text text-anchor="middle" x="554.5" y="-498" font-family="Helvetica,sans-Serif" font-size="10.00">Factory</text>
</a>
</g>
</g>
<!-- Node1045&#45;&gt;Node1051 -->
<g id="edge40" class="edge">
<title>Node1045&#45;&gt;Node1051</title>
<path fill="none" stroke="midnightblue" d="M376.1,-558.4C399.99,-549.57 429.32,-539.18 456,-531 467.36,-527.52 479.57,-524.12 491.36,-521.01"/>
<polygon fill="midnightblue" stroke="midnightblue" points="374.7,-555.19 366.55,-561.96 377.14,-561.75 374.7,-555.19"/>
</g>
<!-- Node1052 -->
<g id="node42" class="node">
<title>Node1052</title>
<g id="a_node42"><a xlink:href="class_ogre_1_1_r_t_shader_1_1_triplanar_texturing_factory.html" target="_top" xlink:title="A factory that enables creation of TriplanarMapping instances.">
<polygon fill="none" stroke="black" points="484,-726 484,-756 625,-756 625,-726 484,-726"/>
<text text-anchor="start" x="492" y="-744" font-family="Helvetica,sans-Serif" font-size="10.00">Ogre::RTShader::Triplanar</text>
<text text-anchor="middle" x="554.5" y="-733" font-family="Helvetica,sans-Serif" font-size="10.00">TexturingFactory</text>
</a>
</g>
</g>
<!-- Node1045&#45;&gt;Node1052 -->
<g id="edge41" class="edge">
<title>Node1045&#45;&gt;Node1052</title>
<path fill="none" stroke="midnightblue" d="M342.79,-600.98C364.2,-632.55 406.14,-687.46 456,-717 464.55,-722.06 474.12,-726.06 483.85,-729.22"/>
<polygon fill="midnightblue" stroke="midnightblue" points="345.51,-598.76 337.06,-592.37 339.68,-602.63 345.51,-598.76"/>
</g>
<!-- Node1125 -->
<g id="node43" class="node">
<title>Node1125</title>
<g id="a_node43"><a xlink:href="class_ogre_1_1_singleton.html" target="_top" xlink:title=" ">
<polygon fill="none" stroke="black" points="251.5,-399 251.5,-429 401.5,-429 401.5,-399 251.5,-399"/>
<text text-anchor="start" x="259.5" y="-417" font-family="Helvetica,sans-Serif" font-size="10.00">Ogre::Singleton&lt; Hardware</text>
<text text-anchor="middle" x="326.5" y="-406" font-family="Helvetica,sans-Serif" font-size="10.00">SkinningFactory &gt;</text>
</a>
</g>
</g>
<!-- Node1125&#45;&gt;Node1049 -->
<g id="edge42" class="edge">
<title>Node1125&#45;&gt;Node1049</title>
<path fill="none" stroke="midnightblue" d="M411.55,-429.99C434.46,-434.35 459.07,-439.03 481.26,-443.26"/>
<polygon fill="midnightblue" stroke="midnightblue" points="411.98,-426.51 401.5,-428.08 410.67,-433.39 411.98,-426.51"/>
</g>
<!-- Node1139 -->
<g id="node44" class="node">
<title>Node1139</title>
<g id="a_node44"><a xlink:href="class_ogre_1_1_singleton.html" target="_top" xlink:title=" ">
<polygon fill="none" stroke="black" points="26.5,-956 26.5,-986 170.5,-986 170.5,-956 26.5,-956"/>
<text text-anchor="start" x="34.5" y="-974" font-family="Helvetica,sans-Serif" font-size="10.00">Ogre::Singleton&lt; Program</text>
<text text-anchor="middle" x="98.5" y="-963" font-family="Helvetica,sans-Serif" font-size="10.00">Manager &gt;</text>
</a>
</g>
</g>
<!-- Node1139&#45;&gt;Node1028 -->
<g id="edge43" class="edge">
<title>Node1139&#45;&gt;Node1028</title>
<path fill="none" stroke="midnightblue" d="M180.92,-971C198.51,-971 217.22,-971 235.14,-971"/>
<polygon fill="midnightblue" stroke="midnightblue" points="180.7,-967.5 170.7,-971 180.7,-974.5 180.7,-967.5"/>
</g>
<!-- Node1140 -->
<g id="node45" class="node">
<title>Node1140</title>
<g id="a_node45"><a xlink:href="class_ogre_1_1_singleton.html" target="_top" xlink:title=" ">
<polygon fill="none" stroke="black" points="26.5,-39 26.5,-69 170.5,-69 170.5,-39 26.5,-39"/>
<text text-anchor="start" x="34.5" y="-57" font-family="Helvetica,sans-Serif" font-size="10.00">Ogre::Singleton&lt; Program</text>
<text text-anchor="middle" x="98.5" y="-46" font-family="Helvetica,sans-Serif" font-size="10.00">WriterManager &gt;</text>
</a>
</g>
</g>
<!-- Node1140&#45;&gt;Node1033 -->
<g id="edge44" class="edge">
<title>Node1140&#45;&gt;Node1033</title>
<path fill="none" stroke="midnightblue" d="M180.82,-54C200.44,-54 221.46,-54 241.21,-54"/>
<polygon fill="midnightblue" stroke="midnightblue" points="180.7,-50.5 170.7,-54 180.7,-57.5 180.7,-50.5"/>
</g>
<!-- Node1149 -->
<g id="node46" class="node">
<title>Node1149</title>
<g id="a_node46"><a xlink:href="class_ogre_1_1_singleton.html" target="_top" xlink:title=" ">
<polygon fill="none" stroke="black" points="0,-0.5 0,-19.5 197,-19.5 197,-0.5 0,-0.5"/>
<text text-anchor="middle" x="98.5" y="-7.5" font-family="Helvetica,sans-Serif" font-size="10.00">Ogre::Singleton&lt; ShaderGenerator &gt;</text>
</a>
</g>
</g>
<!-- Node1149&#45;&gt;Node1036 -->
<g id="edge45" class="edge">
<title>Node1149&#45;&gt;Node1036</title>
<path fill="none" stroke="midnightblue" d="M207.53,-10C216.97,-10 226.46,-10 235.73,-10"/>
<polygon fill="midnightblue" stroke="midnightblue" points="207.31,-6.5 197.31,-10 207.31,-13.5 207.31,-6.5"/>
</g>
</g>
</svg>
