<?xml version="1.0" encoding="UTF-8" standalone="no"?>
<!DOCTYPE svg PUBLIC "-//W3C//DTD SVG 1.1//EN"
 "http://www.w3.org/Graphics/SVG/1.1/DTD/svg11.dtd">
<!-- Generated by graphviz version 2.43.0 (0)
 -->
<!-- Title: Graphical Class Hierarchy Pages: 1 -->
<svg width="498pt" height="142pt"
 viewBox="0.00 0.00 498.00 142.00" xmlns="http://www.w3.org/2000/svg" xmlns:xlink="http://www.w3.org/1999/xlink">
<g id="graph0" class="graph" transform="scale(1 1) rotate(0) translate(4 138)">
<title>Graphical Class Hierarchy</title>
<!-- Node98 -->
<g id="node1" class="node">
<title>Node98</title>
<g id="a_node1"><a xlink:title=" ">
<polygon fill="none" stroke="#bfbfbf" points="0,-57.5 0,-76.5 71,-76.5 71,-57.5 0,-57.5"/>
<text text-anchor="middle" x="35.5" y="-64.5" font-family="Helvetica,sans-Serif" font-size="10.00">CodecAlloc</text>
</a>
</g>
</g>
<!-- Node0 -->
<g id="node2" class="node">
<title>Node0</title>
<g id="a_node2"><a xlink:href="class_ogre_1_1_codec.html" target="_top" xlink:title="Abstract class that defines a &#39;codec&#39;.">
<polygon fill="none" stroke="black" points="107,-57.5 107,-76.5 183,-76.5 183,-57.5 107,-57.5"/>
<text text-anchor="middle" x="145" y="-64.5" font-family="Helvetica,sans-Serif" font-size="10.00">Ogre::Codec</text>
</a>
</g>
</g>
<!-- Node98&#45;&gt;Node0 -->
<g id="edge1" class="edge">
<title>Node98&#45;&gt;Node0</title>
<path fill="none" stroke="midnightblue" d="M81.28,-67C89.79,-67 98.62,-67 106.86,-67"/>
<polygon fill="midnightblue" stroke="midnightblue" points="81.11,-63.5 71.11,-67 81.11,-70.5 81.11,-63.5"/>
</g>
<!-- Node1 -->
<g id="node3" class="node">
<title>Node1</title>
<g id="a_node3"><a xlink:href="class_ogre_1_1_image_codec.html" target="_top" xlink:title="Codec specialized in images.">
<polygon fill="none" stroke="black" points="219,-57.5 219,-76.5 326,-76.5 326,-57.5 219,-57.5"/>
<text text-anchor="middle" x="272.5" y="-64.5" font-family="Helvetica,sans-Serif" font-size="10.00">Ogre::ImageCodec</text>
</a>
</g>
</g>
<!-- Node0&#45;&gt;Node1 -->
<g id="edge2" class="edge">
<title>Node0&#45;&gt;Node1</title>
<path fill="none" stroke="midnightblue" d="M193.52,-67C201.77,-67 210.39,-67 218.77,-67"/>
<polygon fill="midnightblue" stroke="midnightblue" points="193.31,-63.5 183.31,-67 193.31,-70.5 193.31,-63.5"/>
</g>
<!-- Node2 -->
<g id="node4" class="node">
<title>Node2</title>
<g id="a_node4"><a xlink:href="class_ogre_1_1_e_x_r_codec.html" target="_top" xlink:title=" ">
<polygon fill="none" stroke="black" points="378.5,-114.5 378.5,-133.5 473.5,-133.5 473.5,-114.5 378.5,-114.5"/>
<text text-anchor="middle" x="426" y="-121.5" font-family="Helvetica,sans-Serif" font-size="10.00">Ogre::EXRCodec</text>
</a>
</g>
</g>
<!-- Node1&#45;&gt;Node2 -->
<g id="edge3" class="edge">
<title>Node1&#45;&gt;Node2</title>
<path fill="none" stroke="midnightblue" d="M303.38,-80.83C320.38,-88.44 342.17,-97.78 362,-105 371.23,-108.36 381.37,-111.61 390.77,-114.44"/>
<polygon fill="midnightblue" stroke="midnightblue" points="304.53,-77.51 293.98,-76.57 301.65,-83.88 304.53,-77.51"/>
</g>
<!-- Node3 -->
<g id="node5" class="node">
<title>Node3</title>
<g id="a_node5"><a xlink:href="class_ogre_1_1_free_image_codec.html" target="_top" xlink:title=" ">
<polygon fill="none" stroke="black" points="362,-76.5 362,-95.5 490,-95.5 490,-76.5 362,-76.5"/>
<text text-anchor="middle" x="426" y="-83.5" font-family="Helvetica,sans-Serif" font-size="10.00">Ogre::FreeImageCodec</text>
</a>
</g>
</g>
<!-- Node1&#45;&gt;Node3 -->
<g id="edge4" class="edge">
<title>Node1&#45;&gt;Node3</title>
<path fill="none" stroke="midnightblue" d="M336.24,-74.87C344.69,-75.93 353.37,-77.02 361.84,-78.08"/>
<polygon fill="midnightblue" stroke="midnightblue" points="336.42,-71.36 326.06,-73.59 335.55,-78.31 336.42,-71.36"/>
</g>
<!-- Node4 -->
<g id="node6" class="node">
<title>Node4</title>
<g id="a_node6"><a xlink:href="class_ogre_1_1_rs_image_codec.html" target="_top" xlink:title=" ">
<polygon fill="none" stroke="black" points="366.5,-38.5 366.5,-57.5 485.5,-57.5 485.5,-38.5 366.5,-38.5"/>
<text text-anchor="middle" x="426" y="-45.5" font-family="Helvetica,sans-Serif" font-size="10.00">Ogre::RsImageCodec</text>
</a>
</g>
</g>
<!-- Node1&#45;&gt;Node4 -->
<g id="edge5" class="edge">
<title>Node1&#45;&gt;Node4</title>
<path fill="none" stroke="midnightblue" d="M336.28,-59.13C346.22,-57.88 356.47,-56.59 366.31,-55.36"/>
<polygon fill="midnightblue" stroke="midnightblue" points="335.55,-55.69 326.06,-60.41 336.42,-62.64 335.55,-55.69"/>
</g>
<!-- Node5 -->
<g id="node7" class="node">
<title>Node5</title>
<g id="a_node7"><a xlink:href="class_ogre_1_1_s_t_b_i_image_codec.html" target="_top" xlink:title=" ">
<polygon fill="none" stroke="black" points="362,-0.5 362,-19.5 490,-19.5 490,-0.5 362,-0.5"/>
<text text-anchor="middle" x="426" y="-7.5" font-family="Helvetica,sans-Serif" font-size="10.00">Ogre::STBIImageCodec</text>
</a>
</g>
</g>
<!-- Node1&#45;&gt;Node5 -->
<g id="edge6" class="edge">
<title>Node1&#45;&gt;Node5</title>
<path fill="none" stroke="midnightblue" d="M303.38,-53.17C320.38,-45.56 342.17,-36.22 362,-29 371.23,-25.64 381.37,-22.39 390.77,-19.56"/>
<polygon fill="midnightblue" stroke="midnightblue" points="301.65,-50.12 293.98,-57.43 304.53,-56.49 301.65,-50.12"/>
</g>
</g>
</svg>
