<?xml version="1.0" encoding="UTF-8" standalone="no"?>
<!DOCTYPE svg PUBLIC "-//W3C//DTD SVG 1.1//EN"
 "http://www.w3.org/Graphics/SVG/1.1/DTD/svg11.dtd">
<!-- Generated by graphviz version 2.43.0 (0)
 -->
<!-- Title: Graphical Class Hierarchy Pages: 1 -->
<svg width="502pt" height="72pt"
 viewBox="0.00 0.00 502.00 71.50" xmlns="http://www.w3.org/2000/svg" xmlns:xlink="http://www.w3.org/1999/xlink">
<g id="graph0" class="graph" transform="scale(1 1) rotate(0) translate(4 67.5)">
<title>Graphical Class Hierarchy</title>
<!-- Node1081 -->
<g id="node1" class="node">
<title>Node1081</title>
<g id="a_node1"><a xlink:title=" ">
<polygon fill="none" stroke="#bfbfbf" points="0,-19.5 0,-38.5 117,-38.5 117,-19.5 0,-19.5"/>
<text text-anchor="middle" x="58.5" y="-26.5" font-family="Helvetica,sans-Serif" font-size="10.00">ScriptTranslatorAlloc</text>
</a>
</g>
</g>
<!-- Node0 -->
<g id="node2" class="node">
<title>Node0</title>
<g id="a_node2"><a xlink:href="class_ogre_1_1_script_translator.html" target="_top" xlink:title="This class translates script AST (abstract syntax tree) into Ogre resources.">
<polygon fill="none" stroke="black" points="174.5,-38.5 174.5,-57.5 296.5,-57.5 296.5,-38.5 174.5,-38.5"/>
<text text-anchor="middle" x="235.5" y="-45.5" font-family="Helvetica,sans-Serif" font-size="10.00">Ogre::ScriptTranslator</text>
</a>
</g>
</g>
<!-- Node1081&#45;&gt;Node0 -->
<g id="edge1" class="edge">
<title>Node1081&#45;&gt;Node0</title>
<path fill="none" stroke="midnightblue" d="M127.33,-36.36C142.84,-38.05 159.22,-39.83 174.37,-41.47"/>
<polygon fill="midnightblue" stroke="midnightblue" points="127.61,-32.87 117.29,-35.27 126.85,-39.83 127.61,-32.87"/>
</g>
<!-- Node1084 -->
<g id="node4" class="node">
<title>Node1084</title>
<g id="a_node4"><a xlink:href="class_ogre_1_1_script_translator_manager.html" target="_top" xlink:title="The ScriptTranslatorManager manages the lifetime and access to script translators.">
<polygon fill="none" stroke="black" points="153,-0.5 153,-19.5 318,-19.5 318,-0.5 153,-0.5"/>
<text text-anchor="middle" x="235.5" y="-7.5" font-family="Helvetica,sans-Serif" font-size="10.00">Ogre::ScriptTranslatorManager</text>
</a>
</g>
</g>
<!-- Node1081&#45;&gt;Node1084 -->
<g id="edge3" class="edge">
<title>Node1081&#45;&gt;Node1084</title>
<path fill="none" stroke="midnightblue" d="M127.3,-21.64C135.62,-20.74 144.2,-19.8 152.71,-18.88"/>
<polygon fill="midnightblue" stroke="midnightblue" points="126.85,-18.17 117.29,-22.73 127.61,-25.13 126.85,-18.17"/>
</g>
<!-- Node1 -->
<g id="node3" class="node">
<title>Node1</title>
<g id="a_node3"><a xlink:href="class_ogre_1_1_r_t_shader_1_1_s_g_script_translator.html" target="_top" xlink:title="This class responsible for translating core features of the RT Shader System for Ogre material script...">
<polygon fill="none" stroke="black" points="354,-33 354,-63 494,-63 494,-33 354,-33"/>
<text text-anchor="start" x="362" y="-51" font-family="Helvetica,sans-Serif" font-size="10.00">Ogre::RTShader::SGScript</text>
<text text-anchor="middle" x="424" y="-40" font-family="Helvetica,sans-Serif" font-size="10.00">Translator</text>
</a>
</g>
</g>
<!-- Node0&#45;&gt;Node1 -->
<g id="edge2" class="edge">
<title>Node0&#45;&gt;Node1</title>
<path fill="none" stroke="midnightblue" d="M306.58,-48C322.09,-48 338.52,-48 353.99,-48"/>
<polygon fill="midnightblue" stroke="midnightblue" points="306.54,-44.5 296.54,-48 306.54,-51.5 306.54,-44.5"/>
</g>
</g>
</svg>
