<?xml version="1.0" encoding="UTF-8" standalone="no"?>
<!DOCTYPE svg PUBLIC "-//W3C//DTD SVG 1.1//EN"
 "http://www.w3.org/Graphics/SVG/1.1/DTD/svg11.dtd">
<!-- Generated by graphviz version 2.43.0 (0)
 -->
<!-- Title: Ogre::TransformBaseReal Pages: 1 -->
<svg width="190pt" height="151pt"
 viewBox="0.00 0.00 189.50 151.00" xmlns="http://www.w3.org/2000/svg" xmlns:xlink="http://www.w3.org/1999/xlink">
<g id="graph0" class="graph" transform="scale(1 1) rotate(0) translate(4 147)">
<title>Ogre::TransformBaseReal</title>
<!-- Node1 -->
<g id="node1" class="node">
<title>Node1</title>
<g id="a_node1"><a xlink:title=" ">
<polygon fill="#bfbfbf" stroke="black" points="19.5,-56.5 19.5,-75.5 160.5,-75.5 160.5,-56.5 19.5,-56.5"/>
<text text-anchor="middle" x="90" y="-63.5" font-family="Helvetica,sans-Serif" font-size="10.00">Ogre::TransformBaseReal</text>
</a>
</g>
</g>
<!-- Node3 -->
<g id="node3" class="node">
<title>Node3</title>
<g id="a_node3"><a xlink:href="class_ogre_1_1_affine3.html" target="_top" xlink:title="Transform specialization for 3D Affine &#45; encapsulating a 3x4 Matrix.">
<polygon fill="none" stroke="black" points="0,-0.5 0,-19.5 80,-19.5 80,-0.5 0,-0.5"/>
<text text-anchor="middle" x="40" y="-7.5" font-family="Helvetica,sans-Serif" font-size="10.00">Ogre::Affine3</text>
</a>
</g>
</g>
<!-- Node1&#45;&gt;Node3 -->
<g id="edge2" class="edge">
<title>Node1&#45;&gt;Node3</title>
<path fill="none" stroke="midnightblue" d="M74.92,-48.72C66.11,-39.2 55.33,-27.56 48.1,-19.75"/>
<polygon fill="midnightblue" stroke="midnightblue" points="72.38,-51.12 81.74,-56.08 77.52,-46.37 72.38,-51.12"/>
</g>
<!-- Node4 -->
<g id="node4" class="node">
<title>Node4</title>
<g id="a_node4"><a xlink:href="class_ogre_1_1_matrix4.html" target="_top" xlink:title="Transform specialization for projective &#45; encapsulating a 4x4 Matrix.">
<polygon fill="none" stroke="black" points="98.5,-0.5 98.5,-19.5 181.5,-19.5 181.5,-0.5 98.5,-0.5"/>
<text text-anchor="middle" x="140" y="-7.5" font-family="Helvetica,sans-Serif" font-size="10.00">Ogre::Matrix4</text>
</a>
</g>
</g>
<!-- Node1&#45;&gt;Node4 -->
<g id="edge3" class="edge">
<title>Node1&#45;&gt;Node4</title>
<path fill="none" stroke="midnightblue" d="M105.08,-48.72C113.89,-39.2 124.67,-27.56 131.9,-19.75"/>
<polygon fill="midnightblue" stroke="midnightblue" points="102.48,-46.37 98.26,-56.08 107.62,-51.12 102.48,-46.37"/>
</g>
<!-- Node2 -->
<g id="node2" class="node">
<title>Node2</title>
<g id="a_node2"><a xlink:href="class_ogre_1_1_transform_base.html" target="_top" xlink:title=" ">
<polygon fill="none" stroke="black" points="30.5,-112.5 30.5,-142.5 149.5,-142.5 149.5,-112.5 30.5,-112.5"/>
<text text-anchor="start" x="38.5" y="-130.5" font-family="Helvetica,sans-Serif" font-size="10.00">Ogre::TransformBase</text>
<text text-anchor="middle" x="90" y="-119.5" font-family="Helvetica,sans-Serif" font-size="10.00">&lt; 4, Real &gt;</text>
</a>
</g>
</g>
<!-- Node2&#45;&gt;Node1 -->
<g id="edge1" class="edge">
<title>Node2&#45;&gt;Node1</title>
<path fill="none" stroke="midnightblue" d="M90,-102.29C90,-92.86 90,-82.65 90,-75.66"/>
<polygon fill="midnightblue" stroke="midnightblue" points="86.5,-102.4 90,-112.4 93.5,-102.4 86.5,-102.4"/>
</g>
</g>
</svg>
