<?xml version="1.0" encoding="UTF-8" standalone="no"?>
<!-- Created with Inkscape (http://www.inkscape.org/) -->

<svg
   xmlns:dc="http://purl.org/dc/elements/1.1/"
   xmlns:cc="http://creativecommons.org/ns#"
   xmlns:rdf="http://www.w3.org/1999/02/22-rdf-syntax-ns#"
   xmlns:svg="http://www.w3.org/2000/svg"
   xmlns="http://www.w3.org/2000/svg"
   xmlns:xlink="http://www.w3.org/1999/xlink"
   xmlns:sodipodi="http://sodipodi.sourceforge.net/DTD/sodipodi-0.dtd"
   xmlns:inkscape="http://www.inkscape.org/namespaces/inkscape"
   width="1052.3622"
   height="744.09448"
   id="svg2"
   sodipodi:version="0.32"
   inkscape:version="0.48.4 r9939"
   sodipodi:docname="logo_flat.svg"
   version="1.0"
   inkscape:export-filename="C:\Users\kojack\Downloads\newlogo.png"
   inkscape:export-xdpi="79.940002"
   inkscape:export-ydpi="79.940002">
  <defs
     id="defs4">
    <linearGradient
       id="linearGradient4614">
      <stop
         style="stop-color:#617861;stop-opacity:1;"
         offset="0"
         id="stop4616" />
      <stop
         id="stop4638"
         offset="0.2"
         style="stop-color:#617861;stop-opacity:0.09565217;" />
      <stop
         style="stop-color:#617861;stop-opacity:0;"
         offset="1"
         id="stop4618" />
    </linearGradient>
    <inkscape:perspective
       sodipodi:type="inkscape:persp3d"
       inkscape:vp_x="538.10826 : 524.7823 : 1"
       inkscape:vp_y="0 : 1000 : 0"
       inkscape:vp_z="521.93841 : -59.83201 : 0"
       inkscape:persp3d-origin="526.18109 : 248.03149 : 1"
       id="perspective3923" />
    <linearGradient
       id="linearGradient3794">
      <stop
         style="stop-color:#f0a210;stop-opacity:1;"
         offset="0"
         id="stop3796" />
      <stop
         id="stop3804"
         offset="0.47879761"
         style="stop-color:#f0a210;stop-opacity:1;" />
      <stop
         id="stop3802"
         offset="0.47879761"
         style="stop-color:#f4b94b;stop-opacity:1;" />
      <stop
         style="stop-color:#fcedd2;stop-opacity:1;"
         offset="1"
         id="stop3798" />
    </linearGradient>
    <radialGradient
       inkscape:collect="always"
       xlink:href="#linearGradient3794"
       id="radialGradient3829"
       gradientUnits="userSpaceOnUse"
       gradientTransform="matrix(3.9993351,7.065609e-7,-1.367553e-7,0.77407378,-2539.6289,-44.912504)"
       cx="800.02899"
       cy="696.63348"
       fx="800.02899"
       fy="696.63348"
       r="302.36578" />
    <radialGradient
       inkscape:collect="always"
       xlink:href="#linearGradient3794-1"
       id="radialGradient3829-2"
       gradientUnits="userSpaceOnUse"
       gradientTransform="matrix(3.9993351,7.065609e-7,-1.367553e-7,0.77407378,-2539.6289,-44.912504)"
       cx="800.02899"
       cy="696.63348"
       fx="800.02899"
       fy="696.63348"
       r="302.36578" />
    <linearGradient
       id="linearGradient3794-1">
      <stop
         style="stop-color:#f0a210;stop-opacity:1;"
         offset="0"
         id="stop3796-6" />
      <stop
         id="stop3804-8"
         offset="0.47879761"
         style="stop-color:#f0a210;stop-opacity:1;" />
      <stop
         id="stop3802-5"
         offset="0.47879761"
         style="stop-color:#f4b94b;stop-opacity:1;" />
      <stop
         style="stop-color:#fcedd2;stop-opacity:1;"
         offset="1"
         id="stop3798-7" />
    </linearGradient>
    <clipPath
       clipPathUnits="userSpaceOnUse"
       id="clipPath4216">
      <path
         style="fill:#d47e55;fill-opacity:1;fill-rule:nonzero;stroke:none"
         d="m 130.1,463.99448 809.8,0 0.1,0.1 80,99.9 -970,0 80,-99.9 z"
         id="path4218"
         inkscape:connector-curvature="0"
         sodipodi:nodetypes="ccccccc" />
    </clipPath>
    <filter
       id="filter4236"
       inkscape:label="Motion blur, horizontal"
       inkscape:menu="Blurs"
       inkscape:menu-tooltip="Blur as if the object flies horizontally; adjust Standard Deviation to vary force"
       color-interpolation-filters="sRGB">
      <feGaussianBlur
         id="feGaussianBlur4238"
         in="SourceGraphic"
         stdDeviation="5 0.01" />
    </filter>
    <filter
       id="filter4508"
       inkscape:label="Noise transparency"
       inkscape:menu="ABCs"
       inkscape:menu-tooltip="Basic noise transparency texture"
       color-interpolation-filters="sRGB">
      <feTurbulence
         id="feTurbulence4510"
         type="fractalNoise"
         numOctaves="5"
         baseFrequency="0.064692482915717539"
         result="result1" />
      <feComposite
         id="feComposite4512"
         in2="result1"
         operator="in"
         result="result2"
         in="SourceGraphic" />
      <feColorMatrix
         id="feColorMatrix4514"
         result="result3"
         values="1 0 0 0 0 0 1 0 0 0 0 0 1 0 0 0 0 0 5 -1.5 "
         in="result2" />
    </filter>
    <filter
       id="filter4516"
       inkscape:label="filter4516"
       inkscape:menu="ABCs"
       inkscape:menu-tooltip="Basic noise transparency texture"
       color-interpolation-filters="sRGB">
      <feTurbulence
         id="feTurbulence4518"
         type="fractalNoise"
         numOctaves="5"
         baseFrequency="0.074715261958997733"
         result="result1" />
      <feComposite
         id="feComposite4520"
         in2="result1"
         operator="in"
         result="result2"
         in="SourceGraphic" />
      <feColorMatrix
         id="feColorMatrix4522"
         result="result3"
         values="1 0 0 0 0 0 1 0 0 0 0 0 1 0 0 0 0 0 5.5 -1 "
         in="result2" />
    </filter>
    <linearGradient
       inkscape:collect="always"
       xlink:href="#linearGradient4614"
       id="linearGradient4620"
       x1="550"
       y1="564.09448"
       x2="550"
       y2="464.09448"
       gradientUnits="userSpaceOnUse" />
    <filter
       id="filter4696"
       inkscape:label="Drop shadow"
       width="1.5"
       height="1.5"
       x="-.25"
       y="-.25">
      <feGaussianBlur
         id="feGaussianBlur4698"
         in="SourceAlpha"
         stdDeviation="2"
         result="blur" />
      <feColorMatrix
         id="feColorMatrix4700"
         result="bluralpha"
         type="matrix"
         values="1 0 0 0 0 0 1 0 0 0 0 0 1 0 0 0 0 0 0.5 0 " />
      <feOffset
         id="feOffset4702"
         in="bluralpha"
         dx="8"
         dy="8"
         result="offsetBlur" />
      <feMerge
         id="feMerge4704">
        <feMergeNode
           inkscape:collect="always"
           id="feMergeNode4738"
           in="offsetBlur" />
        <feMergeNode
           inkscape:collect="always"
           id="feMergeNode4740"
           in="SourceGraphic" />
      </feMerge>
    </filter>
    <filter
       id="filter4710"
       inkscape:label="Drop shadow"
       width="1.5"
       height="1.5"
       x="-.25"
       y="-.25">
      <feGaussianBlur
         id="feGaussianBlur4712"
         in="SourceAlpha"
         stdDeviation="2"
         result="blur" />
      <feColorMatrix
         id="feColorMatrix4714"
         result="bluralpha"
         type="matrix"
         values="1 0 0 0 0 0 1 0 0 0 0 0 1 0 0 0 0 0 0.5 0 " />
      <feOffset
         id="feOffset4716"
         in="bluralpha"
         dx="8"
         dy="8"
         result="offsetBlur" />
      <feMerge
         id="feMerge4718">
        <feMergeNode
           id="feMergeNode4720"
           in="offsetBlur" />
        <feMergeNode
           id="feMergeNode4722"
           in="SourceGraphic" />
      </feMerge>
    </filter>
    <radialGradient
       inkscape:collect="always"
       xlink:href="#linearGradient3794"
       id="radialGradient4397"
       gradientUnits="userSpaceOnUse"
       gradientTransform="matrix(3.9993351,7.065609e-7,-1.367553e-7,0.77407378,-2539.6289,-44.912504)"
       cx="800.02899"
       cy="696.63348"
       fx="800.02899"
       fy="696.63348"
       r="302.36578" />
    <radialGradient
       inkscape:collect="always"
       xlink:href="#linearGradient3794"
       id="radialGradient4401"
       gradientUnits="userSpaceOnUse"
       gradientTransform="matrix(3.9993351,7.065609e-7,-1.367553e-7,0.77407378,-2539.8701,-39.599272)"
       cx="800.02899"
       cy="696.63348"
       fx="800.02899"
       fy="696.63348"
       r="302.36578" />
  </defs>
  <sodipodi:namedview
     id="base"
     pagecolor="#ffffff"
     bordercolor="#666666"
     borderopacity="1.0"
     gridtolerance="10000"
     guidetolerance="10"
     objecttolerance="10"
     inkscape:pageopacity="0.0"
     inkscape:pageshadow="2"
     inkscape:zoom="0.5"
     inkscape:cx="262.97525"
     inkscape:cy="120.48795"
     inkscape:document-units="px"
     inkscape:current-layer="layer1"
     inkscape:window-width="2479"
     inkscape:window-height="1410"
     inkscape:window-x="2001"
     inkscape:window-y="30"
     showgrid="false"
     inkscape:window-maximized="1">
    <inkscape:grid
       type="xygrid"
       id="grid3953" />
  </sodipodi:namedview>
  <metadata
     id="metadata7">
    <rdf:RDF>
      <cc:Work
         rdf:about="">
        <dc:format>image/svg+xml</dc:format>
        <dc:type
           rdf:resource="http://purl.org/dc/dcmitype/StillImage" />
        <dc:title></dc:title>
        <cc:license
           rdf:resource="http://creativecommons.org/licenses/by-sa/3.0/" />
      </cc:Work>
      <cc:License
         rdf:about="http://creativecommons.org/licenses/by-sa/3.0/">
        <cc:permits
           rdf:resource="http://creativecommons.org/ns#Reproduction" />
        <cc:permits
           rdf:resource="http://creativecommons.org/ns#Distribution" />
        <cc:requires
           rdf:resource="http://creativecommons.org/ns#Notice" />
        <cc:requires
           rdf:resource="http://creativecommons.org/ns#Attribution" />
        <cc:permits
           rdf:resource="http://creativecommons.org/ns#DerivativeWorks" />
        <cc:requires
           rdf:resource="http://creativecommons.org/ns#ShareAlike" />
      </cc:License>
    </rdf:RDF>
  </metadata>
  <g
     inkscape:groupmode="layer"
     id="layer3"
     inkscape:label="Reflection"
     style="display:inline" />
  <g
     inkscape:groupmode="layer"
     id="layer4"
     inkscape:label="Head"
     style="display:inline" />
  <g
     inkscape:label="Title"
     inkscape:groupmode="layer"
     id="layer1"
     style="display:inline">
    <path
       sodipodi:nodetypes="sszzccccccssssscsscsssscssssssscssssssssssscsssssssssssscssss"
       inkscape:connector-curvature="0"
       style="fill:#2e3436"
       d="m 209.7222,491.17006 c -4.11154,-0.42211 -9.95855,-1.44864 -13.36455,-2.34635 -3.33031,-0.87776 -7.32836,-1.86119 -10.78683,-2.58171 -3.45846,-0.72052 -4.49307,-1.06729 -17.0015,-8.65148 -12.50843,-7.5842 -18.91215,-30.86884 -17.68004,-42.38696 l -6.84428,-2.87955 -4.64853,-2.33685 -4.64852,-2.33685 -1.7736,-5.06167 -1.77361,-5.06167 1.14893,-10.32657 c 1.23627,-11.11156 0.88697,-9.88755 6.90504,-24.19627 1.91478,-4.55264 2.88515,-6.10141 5.71319,-9.11869 1.87366,-1.99903 4.17373,-3.95669 5.11127,-4.35035 2.61837,-1.09944 15.98828,-2.42578 21.19796,-2.10291 l 4.55908,0.28256 0.81959,-2.97781 c 2.27593,-8.26911 6.92912,-17.61613 15.46434,-31.06372 l 3.55025,-5.59356 -1.66148,-2.09961 c -0.91381,-1.15478 -2.10122,-3.39331 -2.63868,-4.97452 -1.75257,-5.15594 0.19555,-10.91747 4.75131,-14.05191 1.27476,-0.87707 3.1992,-1.90023 4.27653,-2.2737 l 1.95877,-0.67903 0,-4.92532 c 0,-3.64082 0.22976,-5.33536 0.88101,-6.49762 0.48457,-0.86476 1.22473,-2.30457 1.64481,-3.19956 0.42008,-0.895 1.71307,-2.30963 2.87331,-3.14363 1.27307,-0.9151 2.62701,-2.57148 3.41461,-4.17738 1.04997,-2.14086 2.57432,-3.69195 7.79796,-7.93478 13.29304,-10.7971 21.1323,-14.45478 35.04378,-16.3509 l 6.58289,-0.89725 9.92626,1.94662 c 13.24808,2.59805 25.45619,7.19977 33.75449,12.7234 3.01661,2.00796 5.72883,3.64498 6.02715,3.63782 0.29832,-0.007 2.78293,-1.02417 5.52135,-2.26002 6.04869,-2.72977 17.00061,-9.08329 27.54141,-15.97755 9.77896,-6.39598 20.8939,-11.95883 32.57205,-16.30179 9.6048,-3.57192 11.19235,-3.73804 11.84571,-1.23959 0.19704,0.75346 -1.47075,5.69309 -4.83558,14.32193 -2.82499,7.24448 -5.57136,14.35101 -6.10303,15.79229 -0.53168,1.44127 -5.26991,10.99299 -10.52942,21.22604 -8.49853,16.53498 -9.97248,19.79149 -13.24459,29.26214 l -3.68185,10.6566 -0.54948,11.8797 c -0.57044,12.33297 -1.07061,16.23164 -2.3093,18.00011 -0.64678,0.92341 -0.46864,1.82057 1.56603,7.88693 2.641,7.87411 3.12103,13.10189 1.55875,16.97542 -0.83639,2.07373 -0.81568,2.439 0.53467,9.43379 1.37782,7.13714 1.39889,7.55838 1.09974,21.9885 -0.16774,8.09158 -0.53375,15.31364 -0.81334,16.04902 -0.27959,0.73538 -3.88645,6.59323 -8.01523,13.01745 -5.46018,8.49581 -8.07847,12.0924 -9.60329,13.1915 -1.15302,0.8311 -6.65666,5.80538 -12.23032,11.05397 -5.57365,5.24858 -10.64432,9.81154 -11.26815,10.1399 -0.62382,0.32835 -6.32282,2.13665 -12.66442,4.01845 l -11.5302,3.42143 -4.56985,-0.63927 c -4.05514,-0.56727 -5.70797,-0.50432 -14.6748,0.55888 -15.46217,1.83337 -37.80312,3.94324 -43.64734,4.12204 -2.88255,0.0882 -8.53024,-0.17735 -12.55043,-0.59009 z"
       id="path1333"
       inkscape:export-filename="/home/parojtbe/path3890.png"
       inkscape:export-xdpi="26"
       inkscape:export-ydpi="26" />
    <path
       inkscape:connector-curvature="0"
       style="fill:#8ae234;fill-opacity:1"
       d="m 226.20338,484.83372 c -1.00889,-0.0961 -6.43332,-0.39641 -12.0543,-0.66735 -9.76807,-0.47085 -10.6834,-0.6105 -20.70194,-3.15852 l -10.482,-2.66589 -7.30186,-4.83323 c -4.01603,-2.65828 -7.74772,-5.30492 -8.29264,-5.88143 -1.95699,-2.0704 -6.14388,-9.59243 -7.72261,-13.87418 -1.50277,-4.07572 -1.59978,-4.76702 -1.46256,-10.42168 0.14336,-5.90737 0.17792,-6.06368 1.40435,-6.35236 1.25178,-0.29464 1.24945,-0.30236 -0.5241,-1.73589 -0.97981,-0.79195 -5.37729,-3.82336 -9.77217,-6.73644 -5.59073,-3.70575 -8.51517,-6.0046 -9.73696,-7.65406 l -1.74626,-2.35752 0.95717,-5.56968 c 0.52644,-3.06332 1.09897,-7.57435 1.2723,-10.02452 0.29993,-4.24006 0.54179,-4.93547 5.01627,-14.42318 l 4.70114,-9.96832 3.20861,-2.08598 c 6.35306,-4.13022 8.06653,-4.59195 16.63477,-4.48261 14.91411,0.19033 16.36636,0.4898 40.00383,8.24924 5.7157,1.87629 10.49013,3.31349 10.60983,3.19378 0.90546,-0.90545 -30.45775,-10.82493 -37.07696,-11.72661 -2.24849,-0.30629 -2.40991,-0.42442 -1.97752,-1.44714 0.25896,-0.6125 1.07611,-3.3187 1.81589,-6.01378 0.79435,-2.89386 2.83787,-7.88009 4.9911,-12.17834 3.12424,-6.23659 3.64645,-7.67295 3.64895,-10.03669 0.003,-2.52159 0.31539,-3.24137 3.64105,-8.38051 l 3.63812,-5.62199 -2.06298,-2.60986 c -1.81062,-2.2906 -2.10444,-3.05604 -2.40197,-6.25738 l -0.339,-3.64753 2.65223,-2.79542 c 2.56332,-2.70169 5.02529,-4.28972 9.15581,-5.90573 l 1.96983,-0.77067 -0.0688,-4.3487 c -0.12956,-8.18492 0.16754,-9.04941 4.702,-13.68177 3.14385,-3.21172 5.16781,-4.71794 9.40795,-7.00133 2.97131,-1.60009 5.29271,-3.01892 5.15868,-3.15295 -0.13403,-0.13403 -0.91418,0.0988 -1.73367,0.51736 -1.23539,0.63102 -6.20318,1.93673 -7.3686,1.93673 -1.04365,0 11.85258,-9.1484 16.53497,-11.72967 6.35311,-3.5023 6.97365,-3.72146 13.45225,-4.75102 9.59896,-1.52545 17.42814,-2.06636 19.80663,-1.36842 6.59346,1.93477 27.79569,11.58745 30.50695,13.88882 l 1.5723,1.33459 -1.45971,0.003 c -1.29626,0.002 -1.397,0.11978 -0.89965,1.04909 0.77183,1.44216 4.29664,3.14629 6.50778,3.14629 2.94304,0 16.56571,-6.43526 18.43391,-8.70805 0.31357,-0.38149 3.74127,-2.55105 7.61712,-4.82125 3.87584,-2.2702 10.5767,-6.43627 14.89081,-9.25793 9.55221,-6.24766 20.79201,-11.90906 31.89013,-16.0628 4.57782,-1.71336 8.40697,-3.03154 8.50922,-2.92928 0.10226,0.10225 -1.48285,4.4148 -3.52246,9.58344 -2.03961,5.16864 -4.7287,12.10975 -5.97577,15.42468 -1.24706,3.31493 -6.52172,14.28172 -11.72146,24.37064 -8.61269,16.711 -9.80479,19.36013 -13.39487,29.76675 l -3.94081,11.42326 -0.54262,11.63714 c -0.63262,13.56694 -0.82739,15.11885 -2.18661,17.42256 l -1.01472,1.71982 1.87907,5.3984 c 1.5037,4.32003 1.8918,6.24011 1.94283,9.61193 0.10949,7.23397 -0.41916,9.29204 -3.04998,11.874 l -0.84581,2.1441 0.90445,4.53151 c 0.7137,3.57583 0.88771,7.00608 0.82509,16.26514 l -0.0794,11.73362 -3.09398,5.56167 c -1.73949,3.12687 -4.62184,9.69163 -6.58397,14.99547 l -3.48999,9.4338 -10.55833,10.6618 c -7.57513,7.64938 -11.22468,10.96068 -12.91677,11.7196 -1.29714,0.58179 -5.86213,2.21076 -10.1444,3.61992 -5.92426,1.94949 -8.55974,2.56212 -11.02208,2.56212 -4.60119,0 -23.63758,-2.01743 -25.35269,-2.68682 -2.67485,-1.04396 -16.58588,-5.13631 -16.78452,-4.93767 -0.10853,0.10853 0.0453,0.6507 0.34189,1.20484 0.3106,0.58037 2.4383,1.74173 5.01856,2.73927 4.59824,1.77771 6.28279,2.93211 4.93715,3.38337 -7.98574,2.67799 -21.17745,4.3364 -28.75349,3.61478 z M 224.765,464.35596 c -4.39429,-2.19148 -8.12783,-3.84629 -8.29674,-3.67738 -0.4925,0.4925 8.62392,5.65627 11.80782,6.68824 5.3966,1.74914 4.51128,0.98995 -3.51108,-3.01086 z m 77.11795,-42.39784 c 3.35847,-0.73797 4.20987,-1.16657 6.05791,-3.04958 2.07023,-2.10941 2.17008,-2.36861 2.68326,-6.96504 0.34376,-3.07902 0.35491,-5.3923 0.0314,-6.51524 -0.42545,-1.47675 -0.5088,-1.08735 -0.54888,2.56448 -0.0421,3.84027 -0.21721,4.57358 -1.61957,6.78488 l -1.5723,2.47926 0,-8.50617 c 0,-6.01559 -0.3209,-10.5862 -1.09598,-15.61022 -0.98269,-6.36972 -2.96052,-13.89083 -3.05853,-11.63071 -0.0211,0.48568 0.20995,1.53599 0.51337,2.33403 1.37171,3.60786 2.58193,14.75857 2.58739,23.83957 0.008,12.885 0.29409,12.10295 -4.8887,13.35116 -3.94018,0.94894 -4.70527,0.97618 -9.70205,0.3455 -5.30833,-0.67001 -5.58907,-0.77558 -13.1025,-4.92728 -7.87762,-4.35294 -12.65689,-7.50797 -12.65689,-8.35543 0,-0.26371 -0.17688,-0.42105 -0.39307,-0.34964 -0.66025,0.21805 -4.8248,-2.96638 -4.83674,-3.69843 -0.006,-0.37733 -0.21414,-0.56062 -0.46221,-0.40731 -0.24806,0.15332 -2.17627,-1.01199 -4.2849,-2.58957 -2.10864,-1.57757 -4.07545,-2.86831 -4.3707,-2.86831 -0.71856,0 -0.82795,-0.0999 8.84457,8.07323 6.18882,5.22943 9.68994,7.76527 13.36455,9.67985 7.48793,3.90144 11.35672,5.37603 15.98505,6.09273 5.92597,0.91764 8.07893,0.9053 12.52553,-0.0718 z m 39.0983,-41.83084 c 0,-0.13056 -0.2737,-0.8381 -0.60822,-1.5723 -0.56093,-1.23109 -1.08802,-1.56955 -2.16453,-1.38989 -1.26591,0.21126 -2.37391,-1.15782 -2.70071,-3.33708 -0.19572,-1.30517 -0.59315,-2.37303 -0.88316,-2.37303 -0.30952,0 -0.37107,0.48704 -0.14903,1.17922 0.66845,2.08374 1.21286,4.81237 1.0022,5.02303 -0.55646,0.55645 -7.13517,-4.81033 -9.8547,-8.03926 -3.63991,-4.32171 -5.23433,-7.27581 -6.15043,-11.39537 -0.60577,-2.72408 -0.57528,-3.18813 0.31858,-4.84793 0.54366,-1.00952 1.36998,-1.83549 1.83626,-1.83549 1.21838,0 2.6683,-1.7872 2.27706,-2.80675 -0.45527,-1.18643 -1.02884,-1.08845 -3.26715,0.55813 -1.06172,0.78104 -1.99345,1.45335 -2.07051,1.49402 -0.077,0.0407 -0.32215,1.46527 -0.54467,3.1658 -0.49331,3.76993 0.16428,6.29699 2.81621,10.82246 3.86725,6.5994 8.19587,11.02415 13.52728,13.8277 2.71829,1.42942 6.61552,2.32884 6.61552,1.52674 z m -29.11581,-33.69471 c 3.12173,-2.74787 6.39507,-4.34417 9.88411,-4.82016 l 2.72256,-0.37143 -2.56638,-0.42499 c -2.27439,-0.37664 -2.89384,-0.25292 -5.44444,1.08733 -3.67102,1.92899 -8.8686,7.16451 -9.55096,9.62069 -0.93437,3.3633 -0.53997,3.46648 0.97883,0.25606 0.9314,-1.96878 2.43484,-3.99068 3.97628,-5.3475 z"
       id="path1401"
       sodipodi:nodetypes="cccccccccccccccccccccccccccccccccccccccccccccccccccccccccccccccccccccccccccccccccccccccccccccccccccccccccccccccccccccccccccccccccccccccc"
       inkscape:export-filename="/home/parojtbe/path3890.png"
       inkscape:export-xdpi="26"
       inkscape:export-ydpi="26" />
    <path
       inkscape:connector-curvature="0"
       style="fill:#8ae234;fill-opacity:1"
       d="m 162.80133,454.13827 c -1.9933,-1.00462 -3.66543,-2.25029 -4.05405,-3.02011 -0.75896,-1.50344 -0.95416,-13.6266 -0.21941,-13.6266 0.25162,0 1.4898,0.45615 2.75153,1.01367 1.26172,0.55751 5.41045,1.8353 9.21939,2.83953 10.40857,2.74423 10.24203,2.29827 3.28326,8.79185 -3.20422,2.99002 -6.22236,5.4983 -6.70698,5.57396 -0.48462,0.0757 -2.4078,-0.63188 -4.27374,-1.5723 z m 36.9786,-24.78483 c -3.14682,-1.54052 -6.44865,-3.55537 -7.3374,-4.47744 l -1.61589,-1.6765 2.35845,1.54913 c 1.29715,0.85202 4.83482,2.40069 7.8615,3.44152 4.58479,1.57661 6.02776,1.85441 8.64764,1.66476 l 3.1446,-0.22763 -2.6205,0.97291 c -1.44127,0.5351 -3.09218,1.1037 -3.66869,1.26356 -0.65857,0.18261 -3.17496,-0.75051 -6.76971,-2.51031 z m 93.24619,-6.26335 -2.0964,-0.72226 3.20818,0.29208 c 2.1059,0.19172 4.62694,-0.0181 7.3374,-0.61076 3.53293,-0.77246 4.45027,-1.21366 6.35253,-3.05524 1.82086,-1.7628 2.2844,-2.61294 2.5608,-4.69653 0.27632,-2.08301 0.49079,-2.47654 1.18334,-2.17125 0.46521,0.20508 1.84818,0.62538 3.07327,0.93401 3.07584,0.77488 2.8798,1.85596 -0.85813,4.73224 -1.69706,1.30586 -3.66474,3.06259 -4.37262,3.90387 -1.26432,1.50256 -1.40193,1.53476 -7.78952,1.82284 -4.80818,0.21686 -7.04869,0.10508 -8.59885,-0.429 z m -154.68399,-3.96414 c -0.37888,-0.37887 -0.25078,-2.26541 0.41816,-6.15817 0.53041,-3.08658 1.10749,-7.61664 1.28242,-10.06681 0.29662,-4.15488 0.58629,-5.02693 4.30184,-12.9509 2.19109,-4.67282 4.06199,-8.41786 4.15755,-8.32229 0.0956,0.0956 -0.10439,0.78417 -0.44432,1.53025 -0.49865,1.0944 -0.46621,1.5885 0.16788,2.5572 0.43228,0.66038 0.95651,2.7956 1.16497,4.74493 l 0.37901,3.54424 4.66939,4.05521 c 2.56817,2.23037 4.67169,4.33036 4.67449,4.66666 0.003,0.33629 0.2317,0.69006 0.50869,0.78615 0.27699,0.0961 4.1745,3.00484 8.66114,6.4639 4.48664,3.45906 8.91795,6.58734 9.84736,6.95174 1.12271,0.44018 1.2501,0.56946 0.37958,0.38521 -0.72064,-0.15252 -5.56257,-0.67467 -10.75985,-1.16033 l -9.4496,-0.88301 -7.90108,2.20112 c -7.99329,2.2268 -11.06425,2.64829 -12.05763,1.6549 z m 115.56108,-6.67281 c -0.10153,-0.25575 -2.30719,-1.88834 -4.90148,-3.62798 -3.64592,-2.44481 -6.27275,-4.87468 -11.56925,-10.70176 l -6.85234,-7.53878 -12.53935,-5.10981 c -8.20871,-3.34507 -16.88348,-6.39855 -25.11775,-8.84133 -6.91812,-2.05233 -12.69632,-3.85416 -12.84045,-4.00406 -0.14413,-0.14991 1.34925,-0.12878 3.31861,0.047 3.91722,0.34954 8.54911,1.70479 30.22378,8.8432 18.18087,5.98776 20.73212,7.00318 26.78078,10.65893 5.10112,3.08308 6.79275,4.71539 13.87056,13.38413 3.65308,4.4742 3.88007,4.8945 3.2,5.92501 -0.74742,1.13256 -3.23951,1.80596 -3.57311,0.96552 z m 56.984,-3.00092 c 0.16101,-1.15927 -0.0726,-3.61925 -0.52264,-5.50305 -0.4599,-1.92514 -0.78834,-5.45797 -0.75523,-8.12355 l 0.0586,-4.7169 0.70219,5.241 c 0.3862,2.88255 0.95962,6.65607 1.27427,8.3856 0.47287,2.59929 0.43158,3.46269 -0.23813,4.97895 l -0.81021,1.83435 z m 0.90827,-23.21346 c -1.7675,-5.67318 -2.87031,-9.84634 -2.4507,-9.2737 1.21712,1.66099 6.42451,18.82838 5.87723,19.37566 -0.1171,0.1171 -1.65904,-4.42878 -3.42653,-10.10196 z m -99.2187,-6.69947 c -1.5854,-0.34384 -8.30698,-2.18378 -14.93684,-4.08876 -6.62987,-1.90498 -13.15674,-3.61131 -14.50417,-3.79184 -2.25323,-0.3019 -2.41195,-0.4179 -1.97752,-1.44521 0.2598,-0.61432 1.08026,-3.33136 1.82325,-6.03785 0.74299,-2.7065 2.05209,-6.24417 2.90911,-7.8615 0.85702,-1.61733 1.43779,-2.46891 1.2906,-1.8924 -1.45511,5.69937 -1.67961,9.97499 -0.54659,10.40978 0.43281,0.16608 1.19574,1.15926 1.6954,2.20706 0.68511,1.43668 1.68361,2.29658 4.061,3.49727 4.36063,2.20233 20.76853,7.25244 24.88555,7.65942 l 3.38952,0.33506 -2.60337,0.81707 c -2.17443,0.68244 -3.07834,0.71406 -5.48594,0.1919 z m -38.39031,-7.41525 c 0.93683,-0.11625 2.46982,-0.11625 3.40665,0 0.93683,0.11626 0.17033,0.21139 -1.70333,0.21139 -1.87365,0 -2.64015,-0.0951 -1.70332,-0.21139 z m 150.54769,-18.2576 -2.78525,-1.72087 3.42188,0.56533 c 2.63468,0.12186 3.02026,-0.73449 3.20426,-1.65656 0.11504,-0.57651 0.24128,0.70103 0.28054,1.92611 0.0859,2.68226 -0.58491,2.82647 -4.12143,0.88599 z m -79.19007,-2.98238 c 0.52798,-1.22509 1.48068,-3.33011 2.11712,-4.67783 1.34174,-2.84125 1.33885,-2.84995 -2.58111,-7.76955 -3.855,-4.83808 -6.42301,-6.03816 -13.89777,-6.49473 -3.1708,-0.19367 -7.36813,-0.4974 -9.32738,-0.67495 l -3.56229,-0.32281 0.34188,-1.62578 c 0.18803,-0.89417 0.54155,-1.8385 0.78559,-2.0985 0.55059,-0.58659 8.36944,-0.47499 11.81459,0.16863 2.04588,0.38221 3.68582,0.22585 8.27335,-0.78883 3.14693,-0.69604 6.73477,-1.26552 7.97298,-1.26552 2.54161,0 8.74677,-2.75243 11.69725,-5.18857 l 1.79099,-1.47877 -1.23147,-1.72943 -1.23146,-1.72943 3.6935,0.34328 c 2.56783,0.23865 4.31407,0.12526 5.72968,-0.37206 1.82492,-0.64112 2.23923,-0.61297 3.99317,0.27134 1.32286,0.66697 2.05961,1.45164 2.27369,2.42159 0.17418,0.78919 0.78134,2.89251 1.34922,4.67404 1.38908,4.3577 0.96498,6.20805 -2.45864,10.72708 -3.0897,4.07826 -8.10514,7.86957 -14.12736,10.67922 -2.01778,0.9414 -5.90922,3.38434 -8.64764,5.42876 -2.73843,2.04441 -5.14746,3.72007 -5.3534,3.72368 -0.20595,0.004 0.0575,-0.99578 0.58551,-2.22086 z m 83.24093,-12.23992 c -0.21019,-0.21019 -0.38216,-0.89802 -0.38216,-1.52852 0,-0.63051 -0.58989,-1.78288 -1.31087,-2.56082 -1.19048,-1.28456 -1.6217,-1.40439 -4.69553,-1.30488 -2.07994,0.0673 -3.6871,-0.14142 -4.16923,-0.54155 -0.4315,-0.35812 -1.03073,-0.49898 -1.33161,-0.31302 -0.30088,0.18595 -0.54706,0.091 -0.54706,-0.21098 0,-0.33732 1.25901,-0.50084 3.26456,-0.424 2.29731,0.088 3.28725,-0.069 3.34114,-0.53006 0.15529,-1.32852 0.23207,-1.42803 0.62495,-0.8099 0.30845,0.48529 1.04586,0.44243 3.18715,-0.18528 1.76021,-0.51598 2.96922,-0.63327 3.28392,-0.31856 0.31414,0.31413 1.42379,0.31505 3.00467,0.003 l 2.50658,-0.49561 5.3043,-8.74208 c 2.91737,-4.80814 5.57341,-9.80501 6.35875,-10.51729 l 1.80134,-0.81492 -1.59271,2.35845 c -0.87599,1.29715 -3.55031,6.04153 -5.94294,10.54307 l -4.35024,8.18462 -3.29557,1.62513 c -3.01387,1.4862 -3.34491,1.81698 -3.87272,3.86967 -0.31743,1.2345 -0.62832,2.43618 -0.69086,2.67039 -0.0625,0.23421 -0.28568,0.25386 -0.49586,0.0437 z m -5.58178,-9.85963 c -0.0227,-0.55249 0.10111,-0.86204 0.27526,-0.68788 0.17416,0.17416 0.19277,0.62619 0.0414,1.00452 -0.16731,0.41809 -0.2915,0.29391 -0.31664,-0.31664 z M 197.00477,324.6423 c -1.52142,-1.8022 -2.30979,-3.29714 -2.53668,-4.81018 -0.56158,-3.74488 -0.21675,-4.66435 1.87604,-5.00245 1.8706,-0.3022 5.58803,0.35984 5.04873,0.89914 -0.16102,0.16102 -0.9829,0.0522 -1.82638,-0.24185 -1.09417,-0.38143 -1.89028,-0.3576 -2.77828,0.0832 -1.04098,0.51669 -1.27099,1.07762 -1.40554,3.42776 -0.14117,2.4655 0.0154,2.99399 1.27727,4.31109 0.79099,0.82561 1.7223,1.50112 2.06958,1.50112 0.34727,0 1.83614,-1.08316 3.3086,-2.40702 1.47244,-1.32386 2.67718,-2.15753 2.67718,-1.85259 0,0.30494 0.73196,1.3881 1.62659,2.40702 0.89463,1.01892 1.50352,1.85259 1.35311,1.85259 -0.15041,0 -0.64653,0.14315 -1.10249,0.31812 -0.54066,0.20747 -0.82901,0.0297 -0.82901,-0.511 0,-0.65475 -0.35823,-0.75865 -1.70333,-0.49405 -3.52667,0.69377 -4.29996,1.04486 -4.57015,2.07499 -0.24236,0.924 -0.55918,0.72567 -2.48524,-1.55585 z m 128.25349,0.95394 c 0.677,-0.72064 1.34884,-1.31025 1.49297,-1.31025 0.14412,0 -0.29187,0.58961 -0.96887,1.31025 -0.67701,0.72063 -1.34884,1.31025 -1.49297,1.31025 -0.14413,0 0.29186,-0.58962 0.96887,-1.31025 z m -101.56429,-4.95809 c -4.66989,-1.26152 -4.45129,-1.12689 -7.92986,-4.88396 -2.39051,-2.58191 -5.90999,-5.0948 -7.13563,-5.0948 -0.17674,0 -0.23775,0.41273 -0.13558,0.91717 0.11673,0.57629 -0.58979,1.53763 -1.90092,2.58655 -2.05246,1.64198 -2.92489,1.78981 -2.92489,0.49559 0,-1.19976 -3.27155,-4.08837 -4.31988,-3.81422 -2.80809,0.73433 2.17643,-2.36949 6.56074,-4.08531 l 1.97882,-0.77443 -0.0841,-4.0829 c -0.0463,-2.24559 0.089,-5.40849 0.30053,-7.02866 0.37167,-2.84646 0.53749,-3.09382 4.9186,-7.3374 l 4.53395,-4.39164 -4.32382,4.4658 c -3.60104,3.71928 -4.32382,4.7487 -4.32382,6.15818 0,0.9308 0.14387,1.69237 0.31971,1.69237 0.17584,0 1.64987,-0.69631 3.27562,-1.54737 1.62575,-0.85104 4.48891,-1.93151 6.36256,-2.40104 1.87366,-0.46952 5.11653,-1.79441 7.20638,-2.94419 2.08984,-1.14978 3.79972,-1.99068 3.79972,-1.86865 0,0.12203 -1.70988,1.35521 -3.79972,2.74041 -2.08985,1.3852 -5.94214,4.18826 -8.56065,6.22903 -4.35053,3.39064 -4.8521,3.97077 -5.81877,6.73011 -1.23859,3.53556 -1.02076,3.89863 2.64005,4.4004 1.34012,0.18369 2.43659,0.52604 2.43659,0.76079 0,1.59034 -4.99813,1.34902 -7.61835,-0.36783 -0.98673,-0.64653 -1.50039,-0.72616 -1.9277,-0.29884 -0.60686,0.60685 -0.53433,0.64768 4.00198,2.2527 1.67998,0.59441 2.25431,1.17965 3.1446,3.20435 1.10171,2.50553 2.0072,3.38119 1.50313,1.45363 -0.2916,-1.1151 1.06122,-1.52934 1.68712,-0.51661 0.79637,1.28854 4.49716,2.54507 8.53267,2.89709 4.20579,0.36688 5.98261,1.26405 2.59983,1.31273 -1.63484,0.0235 -1.59999,0.0649 0.86688,1.02819 1.41361,0.55203 3.65413,1.15995 4.97895,1.35095 3.57372,0.51521 4.47117,1.22993 1.56844,1.24911 -1.32692,0.009 -3.80329,0.13487 -5.50304,0.28024 -2.14596,0.18352 -4.25782,-0.051 -6.91012,-0.76754 z m 8.14348,-4.05943 c 0.64858,-0.12493 1.70988,-0.12493 2.35845,0 0.64858,0.12491 0.11793,0.22712 -1.17922,0.22712 -1.29715,0 -1.8278,-0.10221 -1.17923,-0.22712 z m 71.28369,-4.21601 c -1.02435,-1.15778 -3.26728,-10.06027 -2.67472,-10.61635 0.24265,-0.22772 1.73834,-0.55295 3.32374,-0.72272 l 2.88255,-0.30869 -2.16646,0.80277 c -2.14349,0.79427 -2.16191,0.82339 -1.73655,2.7448 0.44513,2.01066 1.43519,9.01737 1.27419,9.01737 -0.0502,0 -0.45643,-0.41273 -0.90275,-0.91718 z m 30.03999,-0.3494 c -0.0227,-0.55248 0.10112,-0.86203 0.27527,-0.68788 0.17416,0.17416 0.19277,0.62619 0.0414,1.00453 -0.1673,0.41809 -0.29149,0.2939 -0.31664,-0.31665 z m 8.70529,-7.13254 c -0.19072,-0.7132 -0.34998,-1.76 -0.35391,-2.32621 -0.007,-0.94796 0.0599,-0.96241 0.83983,-0.1825 0.65452,0.65452 0.73494,1.18311 0.3539,2.32622 l -0.49307,1.47923 z m -3.94701,-5.22748 c 0,-0.72064 0.11896,-1.01544 0.26435,-0.65512 0.14539,0.36032 0.14539,0.94993 0,1.31025 -0.14539,0.36032 -0.26435,0.0655 -0.26435,-0.65513 z m 4.34713,-3.93075 c 0.0913,-2.88255 0.42997,-5.83061 0.75266,-6.55125 0.47897,-1.06965 0.53983,-0.63656 0.33148,2.35845 -0.14037,2.01779 -0.47906,4.96585 -0.75266,6.55125 -0.44363,2.57071 -0.47948,2.31556 -0.33148,-2.35845 z m -32.96825,3.71518 c 0.55636,-0.40682 1.23436,-0.60199 1.50666,-0.43369 0.27229,0.16829 0.57255,1.44486 0.0152,1.66313 -1.64128,0.64273 -2.60768,-0.43546 -1.52184,-1.22944 z m 26.44197,-7.934 c 0,-0.75643 1.41238,-3.90473 1.75173,-3.90473 0.0839,0 -0.0937,1.06131 -0.39467,2.35845 -0.52753,2.27376 -1.35706,3.21895 -1.35706,1.54628 z m -33.80445,-2.42994 c -2.01778,-0.58433 -3.74411,-1.13234 -3.83628,-1.21781 -0.3936,-0.36497 2.08868,-4.4511 3.15973,-5.20129 0.64451,-0.45143 1.93424,-0.82079 2.86606,-0.82079 3.79095,0 18.52224,-8.04741 41.54874,-22.69726 6.30894,-4.01385 23.27854,-13.2175 26.49114,-14.36776 0.86476,-0.30962 2.02372,-0.74508 2.57545,-0.96768 2.6509,-1.0695 -0.66947,1.40307 -11.89553,8.85821 -11.57138,7.68446 -18.45059,12.58616 -23.69515,16.88368 -1.29883,1.0643 -2.36151,1.80881 -2.36151,1.65448 0,-0.15433 1.14838,-1.19495 2.55196,-2.3125 1.40359,-1.11755 4.52715,-3.86688 6.94124,-6.10963 l 4.38927,-4.07772 -8.90661,5.45731 c -4.89864,3.00152 -12.09318,7.23608 -15.98787,9.41013 -3.8947,2.17406 -9.31913,5.35549 -12.0543,7.06984 -2.73517,1.71436 -6.22705,3.79283 -7.75973,4.61884 l -2.78669,1.50183 2.26259,1.18414 c 1.24443,0.65127 2.8522,1.21136 3.57284,1.24465 1.20558,0.0557 1.22651,0.0965 0.26205,0.51094 -1.59885,0.68706 -3.32265,0.54102 -7.3374,-0.62161 z m 39.83159,-4.0183 c 0.86477,-0.53113 1.66001,-0.73846 1.76721,-0.46073 0.25434,0.65895 -0.9638,1.41449 -2.29131,1.42116 -0.85604,0.004 -0.75997,-0.17176 0.5241,-0.96043 z m -118.53427,-9.07541 c 5.53944,-4.26003 15.28184,-10.06909 18.4312,-10.98987 1.97591,-0.57771 9.8839,-1.83315 14.54377,-2.30892 l 3.53767,-0.36119 0,2.68155 c 0,1.78864 -0.21814,2.68606 -0.65512,2.69508 -3.43724,0.0709 -11.05896,1.98321 -14.02217,2.79696 -4.28841,1.17768 -17.76517,8.22866 -18.24845,8.26201 -0.48329,0.0333 -5.41129,9.61751 -12.60013,8.76493 -2.00805,0.35474 3.57511,-7.35843 9.01323,-11.54055 z m 125.60962,-0.69742 c 2.14749,-2.16192 4.02244,-3.93075 4.16657,-3.93075 0.14412,0 -1.49498,1.76883 -3.64247,3.93075 -2.14748,2.16191 -4.02243,3.93075 -4.16656,3.93075 -0.14413,0 1.49498,-1.76884 3.64246,-3.93075 z m -116.62029,-0.68542 c 2.88255,-1.43094 8.4436,-2.8751 11.0669,-3.76252 5.46662,-1.84926 15.03994,-4.19823 15.92679,-3.12964 0.74328,0.89559 -2.18346,4.84049 -4.20753,6.28175 -1.43256,1.02007 -1.70555,1.06059 -2.49739,0.3707 -0.48895,-0.426 -2.15157,-1.18567 -3.69471,-1.68815 -2.45871,-0.80061 -3.20413,-0.83174 -6.02715,-0.25166 -1.77179,0.36407 -5.46197,1.59202 -8.20039,2.72878 -7.02303,2.91535 -8.38799,2.43991 -2.36652,-0.54926 z m 126.6755,-3.31493 -1.93166,-3.0071 -1.83435,1.66938 -1.83435,1.66937 1.83435,-2.0633 c 2.17729,-2.44904 3.78662,-3.92237 4.31072,-3.94642 0.20899,-0.01 0.23878,0.68856 0.0662,1.55143 -0.24084,1.20423 0.012,1.99601 1.08798,3.40665 0.77096,1.01078 1.33078,1.83075 1.24405,1.82215 -0.0867,-0.009 -1.6458,0.0236 -2.94294,-1.10216 z"
       id="path2249"
       sodipodi:nodetypes="cccccccccccccccccccccccccccccccccccccccccccccccccccccccccccccccccccccccccccccccccccccccccccccccccccccccccccccccccccccccccccccccccccccccccccccccccccccccccccccccccccccccccccccccccccccccccccccccccccccccccccccccccccccccccccccccccccccccccccccccccccccccccccccccccccccccccccccccccccccccccccccccccccccccccccccccccccccccc"
       inkscape:export-filename="/home/parojtbe/path3890.png"
       inkscape:export-xdpi="26"
       inkscape:export-ydpi="26" />
    <path
       inkscape:connector-curvature="0"
       style="fill:#8ae234;fill-opacity:1"
       d="m 216.26014,428.91661 c 0.14016,-0.14016 3.83171,-1.32196 8.20344,-2.62622 7.53136,-2.24689 8.38405,-2.64362 16.24338,-7.55768 6.68039,-4.17691 8.78816,-5.24168 10.82988,-5.47084 2.39265,-0.26855 2.51822,-0.2216 2.23458,0.83545 -0.16529,0.616 -0.30376,1.29585 -0.30769,1.51079 -0.004,0.21494 -5.23134,3.00495 -11.61645,6.20003 -8.45044,4.22857 -12.40776,5.92761 -14.54377,6.24425 -4.06864,0.60313 -11.35228,1.17312 -11.04337,0.86422 z m -28.92859,-8.22554 c -0.76928,-0.57436 -2.30227,-1.39481 -3.40665,-1.82323 l -2.00796,-0.77893 2.0964,0.30281 c 1.33019,0.19214 2.66737,0.86457 3.65862,1.83983 1.80393,1.77482 1.66766,1.95878 -0.34041,0.45952 z m 130.14796,-9.9286 c 0,-0.72064 0.11896,-1.01545 0.26435,-0.65513 0.14539,0.36032 0.14539,0.94993 0,1.31025 -0.14539,0.36032 -0.26435,0.0655 -0.26435,-0.65512 z m -11.0061,-32.4942 c 0,-0.72063 0.11896,-1.01544 0.26435,-0.65512 0.14539,0.36032 0.14539,0.94993 0,1.31025 -0.14539,0.36032 -0.26435,0.0655 -0.26435,-0.65513 z m -80.27003,-1.65564 c 3.67083,-1.31492 5.00827,-2.12465 7.59945,-4.60092 1.72953,-1.65284 3.67525,-3.28802 4.32382,-3.63374 0.88595,-0.47225 1.18771,-1.11279 1.21332,-2.57551 0.0404,-2.30706 3.11409,-11.22702 3.96206,-11.498 0.38373,-0.12263 0.15357,1.95738 -0.65934,5.95854 -0.68687,3.38081 -1.12792,6.52794 -0.98012,6.99362 0.1478,0.46568 -0.17704,1.7777 -0.72187,2.9156 -0.54482,1.1379 -1.41446,3.42501 -1.93252,5.08248 l -0.94192,3.01357 -8.15887,-0.0299 -8.15886,-0.0299 4.45485,-1.59576 z m 79.76796,-3.58535 c -0.0654,-2.64008 -0.007,-2.79697 0.69804,-1.86521 0.42321,0.55954 0.76587,1.26708 0.76146,1.5723 -0.004,0.30523 -0.22332,0.21469 -0.48644,-0.20119 -0.34679,-0.5481 -0.53664,-0.18759 -0.69002,1.31025 -0.17487,1.70762 -0.22401,1.56592 -0.28304,-0.81615 z m 22.37871,-26.32632 c -0.11508,-1.94039 -0.0805,-4.06299 0.0769,-4.7169 0.25767,-1.07048 0.32294,-1.09328 0.65512,-0.22889 0.46558,1.21149 0.38937,5.43751 -0.12918,7.16351 -0.29157,0.97049 -0.4479,0.39541 -0.60288,-2.21772 z m -11.3558,-6.69198 c 0,-1.00889 0.10786,-1.42162 0.23969,-0.91717 0.13182,0.50444 0.13182,1.3299 0,1.83435 -0.13183,0.50444 -0.23969,0.0917 -0.23969,-0.91718 z m -1.16979,-20.48944 c 0,-0.35974 0.37533,-1.06881 0.83408,-1.57571 0.74165,-0.81952 0.76272,-1.57903 0.19011,-6.85457 -0.54941,-5.0617 -0.84996,-6.20229 -2.04671,-7.76727 -1.96913,-2.57501 -3.11777,-2.8245 -2.4825,-2.8245 0.30527,0 1.41023,-0.0253 1.4122,0.33503 0.002,0.36032 0.82743,1.21618 1.83435,1.9019 1.80836,1.23152 2.18757,2.32155 1.93657,5.56652 -0.0446,0.57651 0.18046,2.74583 0.50014,4.82071 0.57016,3.70065 0.55494,3.80376 -0.7985,5.41224 -0.75886,0.90185 -1.37974,1.34539 -1.37974,0.98565 z m -74.16013,-5.25051 c 2.59429,-1.17215 5.42443,-2.77094 6.2892,-3.55288 0.86476,-0.78193 2.02896,-1.76315 2.5871,-2.1805 1.00327,-0.75018 1.00332,-0.73918 0.005,0.96739 -1.19023,2.03364 -2.73398,3.01199 -8.2968,5.25807 -5.82792,2.35313 -6.1956,2.04333 -0.58402,-0.49208 z m 92.30632,-8.60885 c -0.50574,-1.31795 -0.35655,-1.65802 0.26128,-0.59556 0.30592,0.52607 0.4458,1.06689 0.31086,1.20183 -0.13494,0.13494 -0.3924,-0.13788 -0.57214,-0.60627 z m -1.21259,-5.74484 c -0.003,-1.72953 0.0925,-2.50025 0.21208,-1.71271 0.11959,0.78754 0.12199,2.20261 0.005,3.1446 -0.11665,0.94199 -0.21449,0.29764 -0.21743,-1.43189 z m 1.67195,-5.50305 c 0.52173,-0.57651 1.06653,-1.0482 1.21066,-1.0482 0.14412,0 -0.16483,0.47169 -0.68656,1.0482 -0.52174,0.57651 -1.06654,1.0482 -1.21066,1.0482 -0.14413,0 0.16482,-0.47169 0.68656,-1.0482 z m -13.80378,-10.482 c 0.25429,-0.80716 6.81355,-6.6496 11.01853,-9.57171 3.57085,-2.48145 2.52015,0.0278 -2.02246,3.5155 -2.20376,1.692 -5.5986,3.59294 -6.89203,4.74596 -1.29344,1.15302 -2.24026,1.74264 -2.10404,1.31025 z m -77.65165,-0.98649 c 5.14979,-2.77773 5.13311,-4.56436 6.6486,-3.2063 -1.14492,-2.41433 0.10078,-1.57113 0.52156,-2.38482 1.90906,-3.69173 4.7311,-2.44057 4.14179,1.48924 l -0.34908,2.32784 -3.2777,0.2631 c -1.80273,0.1447 -3.97457,0.6148 -4.82631,1.04466 -0.85173,0.42987 -2.25615,0.93325 -3.12091,1.11863 -1.5605,0.33454 -1.55853,0.32964 0.26205,-0.65235 z m 118.97067,-2.35368 c 0,-0.20366 0.49783,-1.3461 1.10628,-2.53877 1.07126,-2.09984 0.11667,-1.79268 -0.78016,-3.35205 l 0.0341,-2.03715 1.36679,1.24673 1.36679,1.24674 -1.34791,2.68401 c -1.43041,2.84831 -1.7459,3.34533 -1.7459,2.75049 z"
       id="path2360"
       sodipodi:nodetypes="ccccccccccccccccccccccccccccccccccccccccccccccccccccccccccccccccccccccccccccccccccccccccccccccccccccccc"
       inkscape:export-filename="/home/parojtbe/path3890.png"
       inkscape:export-xdpi="26"
       inkscape:export-ydpi="26" />
    <path
       inkscape:connector-curvature="0"
       style="fill:#8ae234;fill-opacity:1"
       d="m 200.75973,428.14969 c -5.88666,-2.15339 -9.47211,-4.26744 -12.49608,-7.36794 -1.48167,-1.51919 -2.62751,-2.18285 -4.19279,-2.42844 -5.43745,-0.85315 -7.4276,-1.90543 -15.57752,-8.23658 -4.43547,-3.44563 -8.3593,-6.38606 -8.71962,-6.5343 -0.36032,-0.14823 -0.65741,-0.53908 -0.6602,-0.86856 -0.003,-0.32948 -2.10632,-2.42389 -4.67449,-4.65426 l -4.66939,-4.05521 -0.37901,-3.54424 c -0.20846,-1.94933 -0.71708,-4.06072 -1.13026,-4.69196 -0.66644,-1.01817 -0.62521,-1.49149 0.36524,-4.1928 0.9931,-2.70854 1.47534,-3.2805 4.36347,-5.17527 1.78583,-1.17161 4.77996,-2.73777 6.65362,-3.48034 l 3.40665,-1.35014 8.90969,0.67444 c 8.67234,0.65647 9.23782,0.77364 21.22605,4.39826 7.49073,2.26481 17.22933,5.72565 24.8557,8.83305 l 12.53935,5.10922 6.85234,7.53878 c 5.32011,5.85306 7.90708,8.24348 11.56925,10.69027 2.59429,1.73332 4.82799,3.24747 4.96377,3.36479 0.51181,0.44221 -1.36093,1.18877 -3.00142,1.19648 -1.24528,0.006 -3.97503,1.42697 -10.10244,5.25937 -8.08546,5.05705 -8.71554,5.34767 -17.03073,7.85538 -4.74905,1.43223 -9.51883,2.71586 -10.59951,2.85252 -6.55571,0.82902 -7.08336,0.77857 -12.47167,-1.19252 z m 111.81211,-15.61504 -1.94237,-0.81775 0.81715,-2.04228 c 0.65722,-1.64255 0.70874,-2.53094 0.26324,-4.53899 -0.30466,-1.37319 -0.83367,-5.02104 -1.17557,-8.10633 -0.3419,-3.08529 -0.84777,-5.56166 -1.12415,-5.50305 -0.27638,0.0586 -0.81125,-1.07265 -1.1886,-2.51393 -0.69177,-2.64217 -1.85063,-12.69595 -1.80771,-15.683 l 0.0232,-1.61229 0.99864,1.8895 c 1.0305,1.9498 7.43972,22.06785 9.44492,29.64686 0.90277,3.41219 1.04337,4.85096 0.69141,7.07535 -0.38941,2.46102 -0.59693,2.8059 -1.74977,2.90791 -0.71939,0.0636 -2.18204,-0.25225 -3.25035,-0.702 z M 205.23939,375.15497 c -12.00395,-3.74522 -15.66226,-5.50119 -16.90937,-8.1164 -0.49966,-1.0478 -1.26259,-2.04098 -1.6954,-2.20706 -1.81057,-0.69479 -0.12156,-9.93951 2.92184,-15.99252 1.36205,-2.709 2.05633,-4.79355 2.05633,-6.17413 0,-1.65934 0.76443,-3.34462 3.74948,-8.2662 2.06222,-3.40006 3.89657,-6.87424 4.07634,-7.72041 0.33146,-1.56009 0.7556,-1.79458 4.62155,-2.55509 1.31117,-0.25793 1.70333,-0.15479 1.70333,0.44796 0,0.86228 0.86861,0.75933 5.50304,-0.65219 3.19406,-0.97283 6.02938,-2.54749 6.94771,-3.85859 0.56749,-0.8102 0.92763,-0.88442 2.10931,-0.43468 0.78374,0.29829 2.91116,0.88725 4.72759,1.30879 6.12961,1.42252 23.29887,-0.80061 30.14031,-3.90267 l 3.48755,-1.58133 1.14515,1.6082 1.14514,1.6082 -1.79099,1.47877 c -2.95048,2.43614 -9.15564,5.18857 -11.69725,5.18857 -1.23821,0 -4.82605,0.56948 -7.97298,1.26552 -4.58753,1.01468 -6.22747,1.17104 -8.27335,0.78883 -3.44515,-0.64362 -11.264,-0.75522 -11.81459,-0.16863 -0.24404,0.26 -0.59756,1.20433 -0.78559,2.0985 l -0.34188,1.62578 3.56229,0.32281 c 1.95925,0.17755 6.15658,0.48128 9.32738,0.67495 7.47476,0.45657 10.04277,1.65665 13.89777,6.49473 3.77054,4.73207 3.88775,5.01184 2.93814,7.013 -0.44114,0.92964 -1.495,3.23464 -2.3419,5.12223 -0.84691,1.88759 -1.89406,3.56791 -2.32701,3.73405 -0.94428,0.36235 -4.04345,9.37589 -4.04345,11.75985 0,1.2103 -0.33151,1.86029 -1.17923,2.31216 -0.64857,0.34572 -2.59429,1.98049 -4.32382,3.63284 -2.64204,2.52414 -3.88417,3.26424 -7.77223,4.63087 -6.74239,2.36992 -8.93201,2.21335 -20.79121,-1.48671 z m 119.40615,-22.56759 c -3.20077,-0.23997 -5.6334,-1.02919 -3.27436,-1.0623 0.55249,-0.008 1.80181,-0.67537 2.77626,-1.48361 1.47063,-1.21976 1.8132,-1.90767 2.01566,-4.04767 0.21524,-2.27508 0.0813,-2.73008 -1.13969,-3.87043 -1.13506,-1.06013 -1.93027,-1.2955 -4.42673,-1.31025 l -3.04312,-0.018 -0.6025,-2.9141 c -1.00302,-4.85127 -0.54984,-6.68811 1.27617,-5.17266 0.48213,0.40013 2.08929,0.60889 4.16923,0.54155 3.03792,-0.0983 3.51309,0.029 4.63822,1.24304 1.39473,1.50494 2.11436,4.98172 1.49586,7.22696 -0.21953,0.79689 -0.26458,3.15534 -0.10012,5.241 0.45895,5.82046 0.37943,5.93867 -3.78488,5.62646 z m -1.06609,-22.1131 c -0.46434,-1.31603 0.38625,-3.02542 2.74773,-5.52197 4.97162,-5.25601 6.20294,-7.7894 7.58373,-15.60317 0.53619,-3.03425 0.52383,-3.91344 -0.0714,-5.08395 -0.39585,-0.77839 -0.71972,-2.82393 -0.71972,-4.54566 0,-2.57447 0.23269,-3.40696 1.31025,-4.68756 0.72063,-0.85643 1.31025,-1.8179 1.31025,-2.13661 0,-0.31871 0.20498,-0.57947 0.45552,-0.57947 0.25054,0 0.58639,-0.8064 0.74633,-1.79201 0.46519,-2.86663 1.80558,-4.49593 3.70635,-4.50521 2.33137,-0.0114 2.76739,-0.46435 3.06592,-3.18506 0.24254,-2.21036 0.62325,-2.74906 4.66161,-6.59609 2.41863,-2.30404 5.37359,-5.05712 6.56656,-6.11794 l 2.16906,-1.92878 3.89181,2.81417 c 1.90577,1.84122 3.03823,4.14636 3.03823,4.47048 0,0.32412 -1.39295,3.59724 -3.09545,7.2736 -1.70251,3.67636 -5.16154,11.16535 -7.68674,16.64219 -2.5252,5.47685 -5.31849,10.78859 -6.20732,11.80388 -0.88882,1.01529 -3.83586,5.53161 -6.54898,10.03628 l -4.93295,8.19031 -2.51092,0.49647 c -1.52769,0.30206 -2.69966,0.30773 -2.99291,0.0145 -0.42401,-0.424 -3.19472,0.0563 -5.55942,0.96372 -0.37716,0.14473 -0.79454,-0.0452 -0.92751,-0.4221 z m -14.71488,-12.38642 c -4.39134,-4.46964 -5.09706,-5.43045 -5.11367,-6.96198 -0.0106,-0.97721 -0.32615,-3.36205 -0.70123,-5.29966 l -0.68198,-3.52291 3.97865,-1.32501 c 2.18825,-0.72876 4.36189,-1.32501 4.8303,-1.32501 0.46841,0 1.78817,1.23819 2.93281,2.75153 1.98846,2.62895 2.11017,3.01581 2.73217,8.68444 0.57948,5.28125 0.55937,6.03416 -0.18308,6.85457 -0.45875,0.5069 -0.83933,1.37476 -0.84574,1.92858 -0.006,0.55381 -0.42614,1.54552 -0.93274,2.20381 l -0.9211,1.19688 -5.09439,-5.18524 z m -82.92324,-1.94451 c -4.39037,-0.51113 -7.61071,-1.60966 -8.38329,-2.85973 -0.62416,-1.0099 -1.9758,-0.59243 -1.6848,0.52037 0.50407,1.92756 -0.40142,1.0519 -1.50313,-1.45363 -0.89029,-2.0247 -1.46462,-2.60994 -3.1446,-3.20435 -4.53631,-1.60502 -4.60884,-1.64585 -4.00198,-2.2527 0.42731,-0.42732 0.94097,-0.34769 1.9277,0.29884 0.73984,0.48477 2.37434,1.07366 3.63223,1.30866 1.93702,0.36188 2.5976,0.2393 4.31583,-0.80079 2.00293,-1.21243 3.86309,-1.61295 3.86309,-0.83178 0,0.22091 1.27504,1.16429 2.83343,2.0964 3.27386,1.95818 5.87544,2.16712 11.67608,0.93769 8.66681,-1.83689 13.39588,-4.59534 17.60843,-10.27091 1.64821,-2.22065 2.99675,-4.30339 2.99675,-4.62833 0,-1.14583 3.42976,-0.39714 3.90965,0.85344 0.59933,1.56182 -5.12896,8.98876 -10.34718,13.41551 -7.06418,5.99274 -13.99164,8.00135 -23.69821,6.87131 z m -24.59634,-0.59358 c -0.87774,-0.47447 -2.67448,-0.80926 -4.1928,-0.78125 l -2.65685,0.049 2.20713,-2.07907 c 1.21392,-1.14348 2.54204,-2.07907 2.95138,-2.07907 0.92711,0 4.01324,3.09922 4.01324,4.03025 0,0.37766 0,0.86354 0,1.07973 0,0.69979 -0.75301,0.62858 -2.3221,-0.21959 z m 7.5631,-21.80417 c 0,-1.45108 0.66516,-2.37639 4.32382,-6.01483 4.82844,-4.80176 9.74764,-7.74288 20.30887,-12.14241 8.34572,-3.47661 11.63374,-4.10491 15.27574,-2.91899 1.54314,0.50248 3.22209,1.27693 3.73101,1.721 0.88286,0.77036 0.87985,0.85745 -0.0655,1.89804 -0.54496,0.59985 -1.24994,1.59416 -1.56661,2.20957 -0.31667,0.61542 -1.23056,1.27835 -2.03086,1.47318 -0.80031,0.19483 -2.28056,0.88662 -3.28945,1.53731 -2.89057,1.86429 -8.35886,3.82711 -11.79225,4.23279 -2.22717,0.26316 -4.36783,1.03354 -7.3374,2.64059 -2.30604,1.24798 -5.72579,2.65489 -7.59945,3.12648 -1.87365,0.47158 -4.73681,1.55375 -6.36256,2.40479 -1.62575,0.85106 -3.09978,1.54737 -3.27562,1.54737 -0.17584,0 -0.31971,-0.7717 -0.31971,-1.71489 z m 96.53023,-5.8058 -2.26259,-1.18414 2.78669,-1.50183 c 1.53268,-0.82601 5.02456,-2.90448 7.75973,-4.61884 2.73517,-1.71435 8.1596,-4.89578 12.0543,-7.06984 3.89469,-2.17405 11.08923,-6.40861 15.98787,-9.41013 l 8.90661,-5.45731 -4.18971,3.87733 c -5.5135,5.1024 -10.45575,9.20982 -13.33386,11.08151 -4.18335,2.72053 -10.1926,7.66318 -12.86805,10.58407 -2.33435,2.54849 -3.0347,2.97391 -6.41359,3.89579 -4.74076,1.29344 -5.61943,1.27294 -8.4274,-0.19661 z"
       id="path2315"
       sodipodi:nodetypes="ccccccccccccccccccccccccccccccccccccccccccccccccccccccccccccccccccccccccccccccccccccccccccccccccccccccccccccccccccccccccccccccccccccccccccccccccccccccccccccccccccccccccccccccccccc"
       inkscape:export-filename="/home/parojtbe/path3890.png"
       inkscape:export-xdpi="26"
       inkscape:export-ydpi="26" />
    <path
       inkscape:connector-curvature="0"
       style="fill:#8ae234;fill-opacity:1"
       d="m 196.65993,323.30897 c -1.26186,-1.3171 -1.41844,-1.84559 -1.27727,-4.31109 0.21099,-3.68531 1.24984,-4.30743 5.41942,-3.24548 l 2.89504,0.73734 2.4896,-1.998 c 1.60736,-1.28997 2.42418,-2.32302 2.305,-2.91518 -0.10152,-0.50444 -0.04,-0.91717 0.13676,-0.91717 1.25628,0 4.77988,2.55046 7.33201,5.30707 l 3.03619,3.27945 -1.85343,1.69854 c -1.14211,1.04667 -3.21347,2.11861 -5.3972,2.7931 l -3.54378,1.09456 -1.47541,-1.41354 c -0.81147,-0.77744 -1.61381,-1.84959 -1.78296,-2.38254 -0.26786,-0.84395 -0.64798,-0.66293 -2.94526,1.40253 -1.45075,1.30434 -2.92186,2.37153 -3.26913,2.37153 -0.34728,0 -1.27859,-0.67551 -2.06958,-1.50112 z"
       id="path2403"
       inkscape:export-filename="/home/parojtbe/path3890.png"
       inkscape:export-xdpi="26"
       inkscape:export-ydpi="26" />
    <path
       inkscape:connector-curvature="0"
       style="fill:#f57900;fill-opacity:1"
       d="m 223.84493,309.00362 c -1.44127,-0.89973 -2.73842,-1.80326 -2.88255,-2.00786 -0.14413,-0.2046 -0.5803,-0.47414 -0.96928,-0.59897 -0.38897,-0.12484 1.85155,-1.78287 4.97895,-3.68451 5.58371,-3.3952 7.02326,-4.07052 9.27603,-4.35153 0.61988,-0.0773 2.66004,-0.74169 4.5337,-1.47638 3.09775,-1.21466 16.5686,-3.37347 17.18763,-2.75444 0.12153,0.12153 0.14747,1.54772 -0.86448,1.97055 -1.01196,0.42282 -2.72289,1.67483 -4.17091,2.78223 -2.14136,1.63765 -2.16071,1.11303 -3.39147,4.09364 -1.4391,3.48515 -3.44923,4.31468 -5.88264,5.21818 -3.6426,1.35248 -9.30486,2.46653 -12.47722,2.4549 -2.12259,-0.008 -3.29075,-0.36796 -5.33776,-1.64581 z"
       id="path2499"
       sodipodi:nodetypes="ccccccccccccc"
       inkscape:export-filename="/home/parojtbe/path3890.png"
       inkscape:export-xdpi="26"
       inkscape:export-ydpi="26" />
    <path
       inkscape:connector-curvature="0"
       style="fill:#f57900;fill-opacity:1"
       d="m 227.69844,309.78437 c -0.47486,-0.12613 -0.97876,-0.62942 -1.11976,-1.11843 -0.14101,-0.489 -0.41665,-1.2767 -0.61253,-1.75044 -0.48511,-1.17318 6.45096,-5.01911 9.42359,-5.22521 2.54951,-0.17676 3.18976,0.16456 3.51668,1.87476 0.18235,0.95389 -0.0731,1.51829 -0.94587,2.09018 -0.65762,0.43089 -1.34314,1.24806 -1.52337,1.81594 -0.50197,1.58153 -6.00706,3.03876 -8.73874,2.3132 z"
       id="path2454"
       inkscape:export-filename="/home/parojtbe/path3890.png"
       inkscape:export-xdpi="26"
       inkscape:export-ydpi="26" />
    <path
       inkscape:connector-curvature="0"
       style="fill:#f57900;fill-opacity:1"
       d="m 244.54688,306.78562 c 0,-0.1694 0.60556,-1.78451 1.34568,-3.58914 1.05998,-2.5845 1.90538,-3.70863 3.98182,-5.29459 3.08237,-2.35429 6.20269,-3.8161 6.20269,-2.90583 0,0.94105 -5.90993,8.71671 -7.07534,9.30897 -0.57651,0.29298 -1.8147,1.04027 -2.75153,1.66065 -0.93683,0.62037 -1.70332,0.98935 -1.70332,0.81994 z"
       id="path2542"
       inkscape:export-filename="/home/parojtbe/path3890.png"
       inkscape:export-xdpi="26"
       inkscape:export-ydpi="26" />
    <path
       inkscape:connector-curvature="0"
       style="fill:#fce94f;fill-opacity:1"
       d="m 328.25518,389.14952 c -4.67241,-2.51788 -10.03213,-7.07053 -13.34189,-11.33285 l -2.27943,-2.93546 -3.17315,-6.68653 c 0.0153,-3.03206 -2.35462,-7.62838 -2.78872,-10.34445 -0.72594,-4.54204 1.9501,-5.27956 2.77418,-7.96819 1.06725,-3.48206 7.28561,-6.9182 9.62939,-7.73525 2.59532,-0.90473 5.37272,-0.70188 6.43313,0.46985 1.12301,1.24092 0.87347,5.40275 -0.40032,6.67655 -0.7047,0.7047 -0.82873,0.67036 -1.14181,-0.31607 -0.45956,-1.44792 -1.00457,-1.3966 -3.32914,0.31344 -1.06172,0.78104 -1.99345,1.45335 -2.07051,1.49402 -0.62566,0.33023 -0.84661,6.60906 -0.29858,8.48521 2.06457,7.06799 9.51093,15.93648 16.30036,19.41346 3.58914,1.83806 6.75337,2.27729 6.2103,0.86207 -0.17293,-0.45064 0.0377,-1.50023 0.46803,-2.33242 1.00757,-1.94843 -0.53281,-3.69083 -1.66244,-8.54297 -0.90208,-3.8747 0.37973,-4.76233 1.49299,-5.96357 0.61641,-0.6651 1.46086,-1.20928 1.61575,-1.20928 0.15488,0 1.16557,2.73461 2.24596,6.07692 2.05932,6.37074 2.42042,10.01182 1.56259,15.75602 -0.55439,3.71224 -3.7499,6.95453 -7.45461,7.56374 -4.97383,0.8179 -6.49325,0.57232 -10.79208,-1.74424 z"
       id="path2630"
       sodipodi:nodetypes="ccccccccccccccccccccccc"
       inkscape:export-filename="/home/parojtbe/path3890.png"
       inkscape:export-xdpi="26"
       inkscape:export-ydpi="26" />
    <path
       inkscape:connector-curvature="0"
       style="fill:#fce94f;fill-opacity:1"
       d="m 339.50856,377.45068 c -0.3776,-0.42776 -0.90337,-0.64372 -1.16839,-0.47993 -0.26502,0.16379 -0.91184,0.0677 -1.43739,-0.21359 -1.22943,-0.65797 -2.35257,-6.64347 -1.56747,-8.04636 0.44703,-0.7988 -0.40376,0.40811 1.73809,-2.56868 3.38427,-2.97394 2.98466,-3.05106 4.08065,2.04921 1.03186,4.80182 1.09664,6.92155 0.26718,8.74204 -0.69618,1.52794 -0.95802,1.59875 -1.91267,0.51731 z m -29.42427,-6.99431 c -2.14282,-4.26186 -3.69399,-9.9653 -3.69321,-13.57943 0.001,-4.38866 4.26396,-10.41017 9.50592,-13.42709 l 1.97521,-0.80058 -2.59135,2.63493 c -1.46223,1.75148 -2.72298,3.97401 -3.27392,5.77153 -0.82443,2.68982 -0.83281,3.31745 -0.10494,7.8615 0.69978,4.36861 1.05704,15.05377 0.52125,15.58956 -0.11069,0.11069 -1.16322,-1.71201 -2.33896,-4.05042 z"
       id="path2586"
       sodipodi:nodetypes="ccccccccccccccccc"
       inkscape:export-filename="/home/parojtbe/path3890.png"
       inkscape:export-xdpi="26"
       inkscape:export-ydpi="26" />
    <path
       inkscape:connector-curvature="0"
       style="fill:#fce94f;fill-opacity:1"
       d="m 337.24124,371.97051 c -0.4716,-0.27543 -1.01842,-1.35875 -1.21514,-2.40737 -0.30608,-1.63158 -0.14936,-2.12401 1.08654,-3.41402 0.79432,-0.8291 1.6076,-1.50744 1.80728,-1.50744 0.42948,0 0.96502,6.25608 0.61689,7.20637 -0.28321,0.77306 -1.1064,0.81698 -2.29557,0.12246 z"
       id="path2697"
       inkscape:export-filename="/home/parojtbe/path3890.png"
       inkscape:export-xdpi="26"
       inkscape:export-ydpi="26" />
    <path
       inkscape:connector-curvature="0"
       style="fill:#eeeeec;fill-opacity:1"
       d="m 267.19036,409.80234 -1.72717,-1.41024 1.66094,-3.66274 c 3.90544,-8.61235 6.19865,-19.28086 6.23164,-28.99087 0.009,-2.68854 -0.35975,-9.04661 -0.81974,-14.12907 -1.02669,-11.3441 -0.7175,-13.21484 2.18408,-13.21484 1.91573,0 5.40304,1.61496 4.15945,2.38353 -0.50728,0.31353 0.49045,2.0201 1.58151,6.85573 2.20295,9.76354 2.09456,17.95727 1.42412,24.52948 -0.62322,6.10936 -4.38843,21.45863 -5.99831,23.17599 -0.50133,0.53479 -2.00991,5.75941 -3.75181,5.7994 l -3.21755,0.0739 z"
       id="path2741"
       sodipodi:nodetypes="ccssssssssscc"
       inkscape:export-filename="/home/parojtbe/path3890.png"
       inkscape:export-xdpi="26"
       inkscape:export-ydpi="26" />
    <path
       inkscape:connector-curvature="0"
       style="fill:#eeeeec;fill-opacity:1"
       d="m 291.27026,421.38004 c -5.30268,-0.66929 -5.59707,-0.77974 -13.1025,-4.91558 -4.22287,-2.32701 -7.99065,-4.52927 -8.37284,-4.89393 -0.57354,-0.54721 -0.39907,-1.15626 0.99888,-3.48706 0.93159,-1.55323 2.01965,-3.09238 2.41793,-3.42034 1.3829,-1.13873 5.80847,-16.82916 6.41003,-22.72616 0.67132,-6.58079 -0.1269,-15.06916 -2.33908,-24.874 -0.97391,-4.31663 -1.23172,-6.32931 -0.82795,-6.46389 0.32249,-0.1075 0.58634,-0.52957 0.58634,-0.93792 0,-0.9358 -0.0134,-0.93697 2.70807,0.23777 8.56443,3.69694 17.93158,16.16034 22.17884,29.5099 2.74605,8.63111 3.92632,17.11611 3.93303,28.27455 0.008,12.885 0.2941,12.10295 -4.88869,13.35116 -3.94019,0.94894 -4.70528,0.97618 -9.70206,0.3455 z"
       id="path2784"
       inkscape:export-filename="/home/parojtbe/path3890.png"
       inkscape:export-xdpi="26"
       inkscape:export-ydpi="26" />
    <g
       id="g4413"
       style="fill:#fcaf3e"
       inkscape:export-filename="/home/parojtbe/path3890.png"
       inkscape:export-xdpi="26.810978"
       inkscape:export-ydpi="26.810978">
      <path
         sodipodi:nodetypes="scssscscscssssscsssssscssssssssscssscsssccsssscccscccsscssccscscssscssssssscssscscsssssssssssssscsss"
         style="fill:#fcaf3e;fill-opacity:1;fill-rule:nonzero"
         d="m 833.91582,493.99781 c -2.06895,-0.47512 -4.52613,-3.28251 -4.84089,-5.53098 -0.22882,-1.63415 -4.05958,-74.60419 -4.05958,-77.3281 0,-0.33846 -1.01687,0.62685 -2.2597,2.14513 -10.10059,12.3392 -28.03473,22.81672 -48.20392,28.1618 -2.95167,0.78222 -5.43798,1.46506 -5.52509,1.51741 -0.0872,0.0523 2.31283,5.15487 5.33327,11.33891 3.2216,6.59583 5.59813,12.14815 5.74912,13.43161 0.33757,2.87038 -1.02178,5.62628 -3.27888,6.64751 -3.43829,1.55565 -31.97684,9.7445 -33.90231,9.72791 -1.09077,-0.009 -2.69846,-0.37158 -3.57271,-0.80485 -1.71202,-0.84846 -2.26573,-0.66066 -2.26573,0.76841 0,1.49783 -2.64075,4.03543 -4.75933,4.57341 -1.09093,0.27702 -13.9874,1.00209 -28.6589,1.61126 -20.30625,0.84313 -27.15509,0.96984 -28.68452,0.53069 -2.67327,-0.76759 -4.56319,-3.02077 -5.02855,-5.99509 -0.34356,-2.19555 -0.45668,-2.34193 -1.2807,-1.65697 -0.49713,0.41323 -1.51071,0.88367 -2.25242,1.04541 -0.7417,0.16174 -12.63598,0.81566 -26.43172,1.45315 -28.09019,1.29804 -34.16285,1.12019 -46.9298,-1.37441 -19.30148,-3.77141 -33.33904,-10.83025 -46.12067,-23.19188 -6.81237,-6.58852 -11.75608,-13.2428 -16.04897,-21.60203 -1.85367,-3.60942 -3.49163,-6.57157 -3.63997,-6.58255 -0.14834,-0.011 -1.7925,2.51486 -3.65367,5.61298 -10.57588,17.60458 -26.24018,32.89004 -40.84873,39.86075 -6.32574,3.01844 -15.66445,5.46333 -22.76324,5.95945 -9.25238,0.64664 -24.17267,-1.52291 -34.64289,-5.03741 -13.72333,-4.60645 -28.12394,-14.42496 -38.37431,-26.16407 -15.46616,-17.71245 -23.7848,-37.02737 -27.76637,-64.47034 -1.31572,-9.06861 -1.6309,-28.68209 -0.58274,-36.26384 3.05204,-22.07665 11.18396,-38.71055 26.21115,-53.61513 14.66287,-14.54324 32.82625,-24.60029 56.28942,-31.16741 l 6.56649,-1.8379 7.0125,0.57427 c 11.80503,0.96674 22.10089,3.55197 31.28653,7.85584 16.60441,7.77988 30.08038,21.77575 39.89858,41.43782 l 3.29431,6.59718 1.51708,-2.96453 c 3.54589,-6.92899 10.83765,-16.01668 17.74518,-22.11577 18.87177,-16.66297 45.48916,-25.5338 79.4131,-26.46613 10.00878,-0.27506 27.26114,0.39417 29.98491,1.16315 0.61861,0.17464 1.03369,-0.32649 1.49641,-1.80656 0.73415,-2.34845 2.65083,-4.00597 5.15235,-4.45572 1.73969,-0.31279 58.32657,10.71624 69.36295,13.51916 20.73876,5.26703 39.38063,12.08198 53.13316,19.42402 11.59695,6.19125 24.83903,15.56638 31.16975,22.06763 l 2.58033,2.64984 -0.27138,-2.45199 c -0.55944,-5.05381 -0.89631,-16.13227 -0.54514,-17.92624 0.47987,-2.4513 2.77064,-4.73048 5.40318,-5.37574 2.153,-0.52772 125.30818,-10.43923 129.61198,-10.43115 5.1946,0.01 7.8612,2.74808 7.7906,8.00019 -0.076,5.68335 -7.7052,104.91195 -8.2724,107.59857 -0.3814,1.80713 -1.0672,3.10509 -2.1803,4.12715 -2.5622,2.35259 -5.5548,2.04261 -19.3631,-2.00568 -6.3735,-1.86854 -11.6841,-3.30542 -11.8013,-3.19305 -0.1173,0.11236 0.434,6.73533 1.2251,14.7177 0.791,7.98237 1.2813,15.31511 1.0895,16.29498 -0.2226,1.13726 -1.0878,2.42152 -2.3924,3.55105 -1.13,0.97839 -1.8376,1.96689 -1.5828,2.21109 0.2534,0.24289 2.6649,9.04735 5.3588,19.56544 5.4461,21.26314 5.5089,21.89147 2.4473,24.46776 -1.4251,1.19915 -2.6293,1.61718 -6.024,2.09117 -6.876,0.9601 -84.50865,9.88898 -85.41024,9.82343 -0.45365,-0.033 -1.31031,-0.17145 -1.90368,-0.30771 z M 615.1798,434.91383 c 0,-1.21707 -0.14721,-1.22898 -4.79261,-0.38773 l -3.56845,0.64621 2.42741,0.31009 c 5.00282,0.63907 5.93365,0.54988 5.93365,-0.56857 z m -143.61737,-3.91162 c 3.75179,-1.79178 8.36611,-6.64727 9.79472,-10.3066 2.12436,-5.44153 1.00273,-10.6065 -2.92712,-13.4792 -1.58765,-1.16055 -2.70814,-1.51141 -5.31809,-1.66527 -4.25909,-0.25106 -7.46879,1.0324 -11.32674,4.52923 -9.93005,9.00053 -7.56212,22.14799 4.00337,22.2279 2.16694,0.015 3.76438,-0.34637 5.77386,-1.30606 z m 106.89998,-22.97088 c -1.4387,-9.24085 -2.70375,-17.26683 -2.81126,-17.8355 -0.13895,-0.73494 -0.70939,-0.018 -1.97262,2.47899 -3.78399,7.4801 -3.19845,18.10422 1.41351,25.64638 1.31188,2.1454 5.55616,6.96766 5.85425,6.65151 0.0725,-0.0769 -1.04524,-7.70052 -2.48388,-16.94138 z m 157.46086,-1.33026 c 10.00743,-1.42411 18.95689,-4.79679 21.32447,-8.03631 1.18333,-1.61911 1.11062,-5.23636 -0.15244,-7.58482 -2.35361,-4.37615 -7.65171,-7.41431 -15.10374,-8.66111 -4.50175,-0.75318 -16.44398,-1.23377 -17.01901,-0.68488 -0.1882,0.17964 0.5192,5.88893 1.57194,12.68731 1.05279,6.79838 1.91414,12.52548 1.91414,12.7269 0,0.52747 1.06423,0.46372 7.46464,-0.44709 z m -71.11656,-20.95553 c 0,-0.91263 -0.22574,-1.03569 -1.38734,-0.75628 -0.81512,0.19607 -8.10159,-0.8377 -17.6661,-2.50637 -8.95334,-1.56204 -18.5848,-3.12112 -21.40328,-3.46463 -6.96751,-0.84918 -21.83417,-0.82232 -27.78029,0.0502 l -4.8548,0.71237 34.25336,3.20556 c 18.83935,1.76307 34.86021,3.31869 35.60192,3.45695 2.77425,0.51715 3.23653,0.41748 3.23653,-0.6978 z"
         id="path2500"
         inkscape:connector-curvature="0" />
    </g>
    <path
       sodipodi:type="inkscape:offset"
       inkscape:radius="0"
       inkscape:original="M 664.34375 258.3125 C 661.15837 258.82143 658.3902 261.26614 657.59375 264.40625 C 621.89697 261.19038 582.68708 263.87358 552.96875 285.75 C 543.45078 292.93345 535.30948 302.06165 529.4375 312.5 C 518.55692 288.12626 497.72529 267.15651 471.0625 261.53125 C 462.70105 259.93827 453.91412 257.88842 445.46875 259.03125 C 412.90508 266.95938 381.02181 285.83396 365.71875 316.625 C 352.73402 342.73415 354.84442 373.48672 361.28125 401.15625 C 369.77382 437.90327 398.39558 471.07486 436.15625 478.46875 C 456.6699 483.53287 479.60956 480.15428 496.375 466.8125 C 509.32117 457.23708 519.35356 444.40201 527.375 430.46875 C 539.02954 456.97448 564.68947 476.00418 593.1875 480.65625 C 616.04413 485.22536 639.55508 481.42585 662.625 480.84375 C 664.93841 481.49374 669.19402 478.00379 669.125 481.6875 C 671.54397 489.36567 681.17205 487.2562 687.21875 487.1875 C 702.79726 486.33637 718.669 486.87673 734.0625 484.625 C 736.49858 483.99845 737.876 480.77327 739.09375 479.71875 C 746.57629 482.04827 754.22088 476.92153 761.5625 475.65625 C 767.55439 472.9054 775.40594 473.144 780.34375 468.5625 C 785.29129 461.594 777.93263 454.04332 775.71875 447.5 C 774.56766 443.78435 768.53563 437.74161 775.4375 437.6875 C 793.56389 432.93916 811.08359 424.00171 823.59375 409.84375 C 825.42422 434.8678 825.31484 460.18088 828.375 485.03125 C 830.3032 492.41664 840.12188 490.42904 845.625 489.6875 C 872.10983 486.60657 898.73902 483.96073 925.125 480.5 C 930.70344 479.45136 932.87333 473.37881 930.9375 468.375 C 928.52825 456.45683 924.48639 444.30989 922.15625 432.71875 C 928.63776 428.06387 924.45142 419.22706 924.75 412.75 C 925.50719 408.97983 921.16691 399.04129 925.375 399.34375 C 933.89782 400.88126 942.51959 406.1414 951.40625 404.46875 C 959.14496 401.04495 956.55344 390.70648 957.90625 384.0625 C 960.24348 351.94326 963.45655 319.84569 964.875 287.6875 C 964.47478 280.85064 956.63785 278.53521 950.90625 279.96875 C 908.70811 283.32341 866.38003 286.12264 824.3125 290.46875 C 817.41742 292.51632 817.44401 300.53549 818.125 306.34375 C 818.76114 311.25199 818.49521 313.5821 814.65625 309.1875 C 781.77785 281.59327 738.6801 271.65828 697.34375 264.0625 C 686.37159 262.1519 675.37549 259.42995 664.34375 258.3125 z M 668.46875 269.21875 C 668.8224 269.05144 669.34276 269.04042 670.125 269.28125 C 707.11557 277.2811 745.47254 281.697 779.5625 299.03125 C 799.78475 308.75539 818.56779 323.28422 827.875 344.21875 C 831.97772 352.99421 831.23321 342.69896 830.6875 338.46875 C 829.93557 325.76963 829.3251 313.05967 828.9375 300.34375 C 870.64185 296.83679 912.3597 293.47361 954.09375 290.34375 C 951.50554 324.9321 949.13811 359.94428 946.15625 394.25 C 926.36989 388.97423 906.64233 382.53831 886.90625 377.6875 C 882.78496 380.03667 885.66993 386.35884 884.75 390.1875 C 881.92584 399.27208 890.67784 396.78049 896.75 396.96875 C 901.7678 397.31188 907.84598 396.35183 912.375 397.4375 C 913.19984 406.31512 914.15983 415.18093 914.9375 424.0625 C 903.9788 423.83992 893.02125 423.56025 882.0625 423.34375 L 882.0625 442.5625 C 892.0277 440.31758 902.33602 439.69437 912.4375 438.5 C 915.2982 449.19372 918.07745 459.91231 920.75 470.65625 C 893.21613 473.89204 865.68113 477.13838 838.125 480.1875 C 835.62119 446.00535 835.14383 411.67627 832.34375 377.53125 C 831.88228 367.40406 828.64155 377.87075 827.375 382.15625 C 820.7308 403.75535 801.20534 418.47303 780.40625 425.4375 C 773.2615 428.48886 765.26059 429.08139 757.96875 431.75 C 756.8546 436.63726 761.89638 441.48028 763.40625 446.25 C 765.91975 451.50766 768.5676 456.77071 770.9375 462.15625 C 761.99071 464.92485 752.96367 467.61008 744.03125 470.0625 C 737.91648 459.40484 733.02013 447.61885 725.9375 437.625 C 721.70971 434.52903 723.15659 442.22622 723.59375 444.65625 C 724.9271 454.70512 727.57595 465.65777 728.1875 475.1875 C 711.83219 476.03384 695.46555 476.7546 679.09375 477.1875 C 676.19928 427.58505 673.74826 377.95783 671.0625 328.34375 C 664.5494 332.75428 666.82841 341.66839 664.71875 348.28125 C 663.53506 355.84496 662.3905 363.42925 661.0625 370.96875 C 636.46214 367.24315 610.9627 360.51674 586.28125 367.375 C 573.14294 370.87439 561.81059 382.90621 563 397.15625 C 561.5153 410.13777 568.64045 422.73379 579.6875 429.125 C 592.11185 436.62527 607.1759 439.59106 621.5625 439.3125 C 625.00486 435.12584 623.8126 428.1725 625.46875 422.96875 C 627.53751 418.70146 622.51863 417.68107 619.53125 418.9375 C 610.07551 420.57188 600.61405 422.68756 591.21875 424.3125 C 588.53853 410.51344 586.7198 396.4536 584.53125 382.625 C 609.59954 384.61534 634.64119 386.99119 659.65625 389.5625 C 661.10188 416.53805 662.29229 443.61973 663.28125 470.5625 C 635.7684 471.1158 607.05234 476.60722 580.59375 466.59375 C 555.82216 458.08446 537.56488 435.81853 531.375 410.5625 C 530.94634 407.28742 527.63205 404.78692 526.1875 408.78125 C 515.74586 433.91017 498.07666 458.8923 471.5625 468.34375 C 456.38934 472.10473 439.75619 470.39892 425.3125 464.53125 C 392.85511 451.48913 372.82939 418.06947 368.5625 384.46875 C 366.06827 362.5437 365.42184 338.54882 376.75 318.6875 C 391.2269 292.09674 419.72479 275.79861 448.625 269.40625 C 472.50188 268.72833 496.68888 280.10384 509.96875 300.1875 C 518.06103 311.27295 522.88516 324.10741 527.46875 336.9375 C 531.19665 340.03886 532.19498 332.33512 533.40625 329.65625 C 542.31087 303.59145 566.08269 284.92975 592.40625 278.6875 C 615.55717 272.4867 640.14755 273.22514 663.90625 275.8125 C 672.32135 279.96259 665.99323 270.38994 668.46875 269.21875 z M 719.78125 367.625 C 717.12292 367.81535 714.55602 368.89915 715.5625 372.1875 C 717.03664 385.37131 719.40572 398.47747 721.28125 411.625 C 735.47915 409.70202 751.77976 409.80571 763.21875 400.125 C 772.03381 391.20652 765.31382 375.67141 754.4375 371.9375 C 744.4784 367.2854 733.12084 367.60433 722.34375 367.6875 C 721.56761 367.60276 720.66736 367.56155 719.78125 367.625 z M 614.65625 374.8125 C 619.69531 374.92935 624.7134 375.55248 629.65625 376.21875 C 624.9791 375.77554 617.7583 375.17993 614.65625 374.8125 z M 726.71875 377.78125 C 728.63542 377.85415 730.55208 377.92708 732.46875 378 C 741.24793 378.28209 754.3806 379.10369 756.84375 389.4375 C 756.83575 394.69511 749.70111 396.0173 745.875 397.625 C 740.77682 399.05513 735.45537 399.81454 730.25 400.40625 C 728.99129 392.87972 727.96463 385.31065 726.71875 377.78125 z M 574.84375 388.75 L 575.25 391.34375 C 576.43139 399.12269 577.74608 406.88362 578.75 414.6875 C 572.48039 407.64913 572.04227 397.33724 574.84375 388.75 z M 469.84375 391.75 C 456.19678 393.59004 444.19934 408.07889 447.5 422 C 450.32761 434.62462 466.69217 439.1828 477.0625 432.78125 C 488.677 426.97719 495.98275 410.86181 488.25 399.34375 C 484.26589 393.15755 476.94866 390.96687 469.84375 391.75 z M 474.46875 401.875 C 478.97447 402.45525 481.8916 407.42491 480.6875 412.03125 C 479.41696 420.40042 468.92565 428.70588 460.75 423.8125 C 454.06183 418.96948 458.66706 408.90538 464.1875 405.125 C 466.50578 403.17534 469.32722 401.71212 472.4375 401.90625 C 473.13811 401.79599 473.82508 401.79211 474.46875 401.875 z "
       style="fill:#2e3436;stroke-width:0.10000000000000001;stroke-miterlimit:4;stroke-dasharray:none"
       id="path3890"
       d="m 664.34375,258.3125 c -3.18538,0.50893 -5.95355,2.95364 -6.75,6.09375 -35.69678,-3.21587 -74.90667,-0.53267 -104.625,21.34375 -9.51797,7.18345 -17.65927,16.31165 -23.53125,26.75 -10.88058,-24.37374 -31.71221,-45.34349 -58.375,-50.96875 -8.36145,-1.59298 -17.14838,-3.64283 -25.59375,-2.5 -32.56367,7.92813 -64.44694,26.80271 -79.75,57.59375 -12.98473,26.10915 -10.87433,56.86172 -4.4375,84.53125 8.49257,36.74702 37.11433,69.91861 74.875,77.3125 20.51365,5.06412 43.45331,1.68553 60.21875,-11.65625 12.94617,-9.57542 22.97856,-22.41049 31,-36.34375 11.65454,26.50573 37.31447,45.53543 65.8125,50.1875 22.85663,4.56911 46.36758,0.7696 69.4375,0.1875 2.31341,0.64999 6.56902,-2.83996 6.5,0.84375 2.41897,7.67817 12.04705,5.5687 18.09375,5.5 15.57851,-0.85113 31.45025,-0.31077 46.84375,-2.5625 2.43608,-0.62655 3.8135,-3.85173 5.03125,-4.90625 7.48254,2.32952 15.12713,-2.79722 22.46875,-4.0625 5.99189,-2.75085 13.84344,-2.51225 18.78125,-7.09375 4.94754,-6.9685 -2.41112,-14.51918 -4.625,-21.0625 -1.15109,-3.71565 -7.18312,-9.75839 -0.28125,-9.8125 18.12639,-4.74834 35.64609,-13.68579 48.15625,-27.84375 1.83047,25.02405 1.72109,50.33713 4.78125,75.1875 1.9282,7.38539 11.74688,5.39779 17.25,4.65625 26.48483,-3.08093 53.11402,-5.72677 79.5,-9.1875 5.57844,-1.04864 7.74833,-7.12119 5.8125,-12.125 -2.40925,-11.91817 -6.45111,-24.06511 -8.78125,-35.65625 6.48151,-4.65488 2.29517,-13.49169 2.59375,-19.96875 0.75719,-3.77017 -3.58309,-13.70871 0.625,-13.40625 8.52282,1.53751 17.14459,6.79765 26.03125,5.125 7.73871,-3.4238 5.14719,-13.76227 6.5,-20.40625 2.33723,-32.11924 5.5503,-64.21681 6.96875,-96.375 -0.40022,-6.83686 -8.23715,-9.15229 -13.96875,-7.71875 -42.19814,3.35466 -84.52622,6.15389 -126.59375,10.5 -6.89508,2.04757 -6.86849,10.06674 -6.1875,15.875 0.63614,4.90824 0.37021,7.23835 -3.46875,2.84375 -32.8784,-27.59423 -75.97615,-37.52922 -117.3125,-45.125 -10.97216,-1.9106 -21.96826,-4.63255 -33,-5.75 z m 4.125,10.90625 c 0.35365,-0.16731 0.87401,-0.17833 1.65625,0.0625 36.99057,7.99985 75.34754,12.41575 109.4375,29.75 20.22225,9.72414 39.00529,24.25297 48.3125,45.1875 4.10272,8.77546 3.35821,-1.51979 2.8125,-5.75 -0.75193,-12.69912 -1.3624,-25.40908 -1.75,-38.125 41.70435,-3.50696 83.4222,-6.87014 125.15625,-10 -2.58821,34.58835 -4.95564,69.60053 -7.9375,103.90625 -19.78636,-5.27577 -39.51392,-11.71169 -59.25,-16.5625 -4.12129,2.34917 -1.23632,8.67134 -2.15625,12.5 -2.82416,9.08458 5.92784,6.59299 12,6.78125 5.0178,0.34313 11.09598,-0.61692 15.625,0.46875 0.82484,8.87762 1.78483,17.74343 2.5625,26.625 -10.9587,-0.22258 -21.91625,-0.50225 -32.875,-0.71875 l 0,19.21875 c 9.9652,-2.24492 20.27352,-2.86813 30.375,-4.0625 2.8607,10.69372 5.63995,21.41231 8.3125,32.15625 -27.53387,3.23579 -55.06887,6.48213 -82.625,9.53125 -2.50381,-34.18215 -2.98117,-68.51123 -5.78125,-102.65625 -0.46147,-10.12719 -3.7022,0.3395 -4.96875,4.625 -6.6442,21.5991 -26.16966,36.31678 -46.96875,43.28125 -7.14475,3.05136 -15.14566,3.64389 -22.4375,6.3125 -1.11415,4.88726 3.92763,9.73028 5.4375,14.5 2.5135,5.25766 5.16135,10.52071 7.53125,15.90625 -8.94679,2.7686 -17.97383,5.45383 -26.90625,7.90625 -6.11477,-10.65766 -11.01112,-22.44365 -18.09375,-32.4375 -4.22779,-3.09597 -2.78091,4.60122 -2.34375,7.03125 1.33335,10.04887 3.9822,21.00152 4.59375,30.53125 -16.35531,0.84634 -32.72195,1.5671 -49.09375,2 -2.89447,-49.60245 -5.34549,-99.22967 -8.03125,-148.84375 -6.5131,4.41053 -4.23409,13.32464 -6.34375,19.9375 -1.18369,7.56371 -2.32825,15.148 -3.65625,22.6875 -24.60036,-3.7256 -50.0998,-10.45201 -74.78125,-3.59375 -13.13831,3.49939 -24.47066,15.53121 -23.28125,29.78125 -1.4847,12.98152 5.64045,25.57754 16.6875,31.96875 12.42435,7.50027 27.4884,10.46606 41.875,10.1875 3.44236,-4.18666 2.2501,-11.14 3.90625,-16.34375 2.06876,-4.26729 -2.95012,-5.28768 -5.9375,-4.03125 -9.45574,1.63438 -18.9172,3.75006 -28.3125,5.375 -2.68022,-13.79906 -4.49895,-27.8589 -6.6875,-41.6875 25.06829,1.99034 50.10994,4.36619 75.125,6.9375 1.44563,26.97555 2.63604,54.05723 3.625,81 -27.51285,0.5533 -56.22891,6.04472 -82.6875,-3.96875 -24.77159,-8.50929 -43.02887,-30.77522 -49.21875,-56.03125 -0.42866,-3.27508 -3.74295,-5.77558 -5.1875,-1.78125 -10.44164,25.12892 -28.11084,50.11105 -54.625,59.5625 -15.17316,3.76098 -31.80631,2.05517 -46.25,-3.8125 -32.45739,-13.04212 -52.48311,-46.46178 -56.75,-80.0625 -2.49423,-21.92505 -3.14066,-45.91993 8.1875,-65.78125 14.4769,-26.59076 42.97479,-42.88889 71.875,-49.28125 23.87688,-0.67792 48.06388,10.69759 61.34375,30.78125 8.09228,11.08545 12.91641,23.91991 17.5,36.75 3.7279,3.10136 4.72623,-4.60238 5.9375,-7.28125 8.90462,-26.0648 32.67644,-44.7265 59,-50.96875 23.15092,-6.2008 47.7413,-5.46236 71.5,-2.875 8.4151,4.15009 2.08698,-5.42256 4.5625,-6.59375 z m 51.3125,98.40625 c -2.65833,0.19035 -5.22523,1.27415 -4.21875,4.5625 1.47414,13.18381 3.84322,26.28997 5.71875,39.4375 14.1979,-1.92298 30.49851,-1.81929 41.9375,-11.5 8.81506,-8.91848 2.09507,-24.45359 -8.78125,-28.1875 -9.9591,-4.6521 -21.31666,-4.33317 -32.09375,-4.25 -0.77614,-0.0847 -1.67639,-0.12595 -2.5625,-0.0625 z m -105.125,7.1875 c 5.03906,0.11685 10.05715,0.73998 15,1.40625 -4.67715,-0.44321 -11.89795,-1.03882 -15,-1.40625 z m 112.0625,2.96875 c 1.91667,0.0729 3.83333,0.14583 5.75,0.21875 8.77918,0.28209 21.91185,1.10369 24.375,11.4375 -0.008,5.25761 -7.14264,6.5798 -10.96875,8.1875 -5.09818,1.43013 -10.41963,2.18954 -15.625,2.78125 -1.25871,-7.52653 -2.28537,-15.0956 -3.53125,-22.625 z m -151.875,10.96875 0.40625,2.59375 c 1.18139,7.77894 2.49608,15.53987 3.5,23.34375 -6.26961,-7.03837 -6.70773,-17.35026 -3.90625,-25.9375 z m -105,3 C 456.19678,393.59004 444.19934,408.07889 447.5,422 c 2.82761,12.62462 19.19217,17.1828 29.5625,10.78125 11.6145,-5.80406 18.92025,-21.91944 11.1875,-33.4375 -3.98411,-6.1862 -11.30134,-8.37688 -18.40625,-7.59375 z m 4.625,10.125 c 4.50572,0.58025 7.42285,5.54991 6.21875,10.15625 -1.27054,8.36917 -11.76185,16.67463 -19.9375,11.78125 -6.68817,-4.84302 -2.08294,-14.90712 3.4375,-18.6875 2.31828,-1.94966 5.13972,-3.41288 8.25,-3.21875 0.70061,-0.11026 1.38758,-0.11414 2.03125,-0.0312 z"
       transform="translate(0,4)"
       inkscape:export-xdpi="26.810978"
       inkscape:export-ydpi="26.810978"
       inkscape:export-filename="/home/parojtbe/path3890.png" />
  </g>
  <g
     inkscape:groupmode="layer"
     id="layer2"
     inkscape:label="Version"
     style="display:inline" />
</svg>
