<?xml version="1.0" encoding="UTF-8" standalone="no"?>
<!DOCTYPE svg PUBLIC "-//W3C//DTD SVG 1.1//EN"
 "http://www.w3.org/Graphics/SVG/1.1/DTD/svg11.dtd">
<!-- Generated by graphviz version 2.40.1 (20161225.0304)
 -->
<!-- Title: Ogre::SceneManagerEnumerator Pages: 1 -->
<svg width="268pt" height="95pt"
 viewBox="0.00 0.00 267.50 95.00" xmlns="http://www.w3.org/2000/svg" xmlns:xlink="http://www.w3.org/1999/xlink">
<g id="graph0" class="graph" transform="scale(1 1) rotate(0) translate(4 91)">
<title>Ogre::SceneManagerEnumerator</title>
<!-- Node0 -->
<g id="node1" class="node">
<title>Node0</title>
<polygon fill="#bfbfbf" stroke="#000000" points="68.5,-.5 68.5,-19.5 227.5,-19.5 227.5,-.5 68.5,-.5"/>
<text text-anchor="middle" x="148" y="-7.5" font-family="Helvetica,sans-Serif" font-size="10.00" fill="#000000">Ogre::SceneManagerEnumerator</text>
</g>
<!-- Node1 -->
<g id="node2" class="node">
<title>Node1</title>
<g id="a_node2"><a xlink:href="class_ogre_1_1_singleton.html" target="_top" xlink:title="Ogre::Singleton\&lt; SceneManager\lEnumerator \&gt;">
<polygon fill="none" stroke="#000000" points="0,-56.5 0,-86.5 158,-86.5 158,-56.5 0,-56.5"/>
<text text-anchor="start" x="8" y="-74.5" font-family="Helvetica,sans-Serif" font-size="10.00" fill="#000000">Ogre::Singleton&lt; SceneManager</text>
<text text-anchor="middle" x="79" y="-63.5" font-family="Helvetica,sans-Serif" font-size="10.00" fill="#000000">Enumerator &gt;</text>
</a>
</g>
</g>
<!-- Node1&#45;&gt;Node0 -->
<g id="edge1" class="edge">
<title>Node1&#45;&gt;Node0</title>
<path fill="none" stroke="#191970" d="M103.6275,-49.5494C115.025,-39.3907 127.9923,-27.8329 136.9522,-19.8469"/>
<polygon fill="#191970" stroke="#191970" points="101.1925,-47.0312 96.0562,-56.2977 105.8502,-52.2568 101.1925,-47.0312"/>
</g>
<!-- Node2 -->
<g id="node3" class="node">
<title>Node2</title>
<g id="a_node3"><a xlink:href="class_ogre_1_1_allocated_object.html" target="_top" xlink:title="SceneMgtAlloc">
<polygon fill="none" stroke="#000000" points="176.5,-62 176.5,-81 259.5,-81 259.5,-62 176.5,-62"/>
<text text-anchor="middle" x="218" y="-69" font-family="Helvetica,sans-Serif" font-size="10.00" fill="#000000">SceneMgtAlloc</text>
</a>
</g>
</g>
<!-- Node2&#45;&gt;Node0 -->
<g id="edge2" class="edge">
<title>Node2&#45;&gt;Node0</title>
<path fill="none" stroke="#191970" d="M199.2743,-55.0482C186.4485,-43.7798 169.8719,-29.216 159.0917,-19.7449"/>
<polygon fill="#191970" stroke="#191970" points="197.2399,-57.9197 207.0625,-61.8906 201.8601,-52.661 197.2399,-57.9197"/>
</g>
</g>
</svg>
