<?xml version="1.0" encoding="UTF-8" standalone="no"?>
<!DOCTYPE svg PUBLIC "-//W3C//DTD SVG 1.1//EN"
 "http://www.w3.org/Graphics/SVG/1.1/DTD/svg11.dtd">
<!-- Generated by graphviz version 2.40.1 (20161225.0304)
 -->
<!-- Title: Ogre::PCZCamera Pages: 1 -->
<svg width="357pt" height="252pt"
 viewBox="0.00 0.00 356.50 252.00" xmlns="http://www.w3.org/2000/svg" xmlns:xlink="http://www.w3.org/1999/xlink">
<g id="graph0" class="graph" transform="scale(1 1) rotate(0) translate(4 248)">
<title>Ogre::PCZCamera</title>
<!-- Node0 -->
<g id="node1" class="node">
<title>Node0</title>
<polygon fill="#bfbfbf" stroke="#000000" points="193,-.5 193,-19.5 291,-19.5 291,-.5 193,-.5"/>
<text text-anchor="middle" x="242" y="-7.5" font-family="Helvetica,sans-Serif" font-size="10.00" fill="#000000">Ogre::PCZCamera</text>
</g>
<!-- Node1 -->
<g id="node2" class="node">
<title>Node1</title>
<g id="a_node2"><a xlink:href="class_ogre_1_1_camera.html" target="_top" xlink:title="A viewpoint from which the scene will be rendered. ">
<polygon fill="none" stroke="#000000" points="203,-56.5 203,-75.5 281,-75.5 281,-56.5 203,-56.5"/>
<text text-anchor="middle" x="242" y="-63.5" font-family="Helvetica,sans-Serif" font-size="10.00" fill="#000000">Ogre::Camera</text>
</a>
</g>
</g>
<!-- Node1&#45;&gt;Node0 -->
<g id="edge1" class="edge">
<title>Node1&#45;&gt;Node0</title>
<path fill="none" stroke="#191970" d="M242,-46.1575C242,-37.155 242,-26.9199 242,-19.6427"/>
<polygon fill="#191970" stroke="#191970" points="238.5001,-46.2455 242,-56.2455 245.5001,-46.2456 238.5001,-46.2455"/>
</g>
<!-- Node2 -->
<g id="node3" class="node">
<title>Node2</title>
<g id="a_node3"><a xlink:href="class_ogre_1_1_frustum.html" target="_top" xlink:title="A frustum represents a pyramid, capped at the near and far end which is used to represent either a vi...">
<polygon fill="none" stroke="#000000" points="202,-112.5 202,-131.5 282,-131.5 282,-112.5 202,-112.5"/>
<text text-anchor="middle" x="242" y="-119.5" font-family="Helvetica,sans-Serif" font-size="10.00" fill="#000000">Ogre::Frustum</text>
</a>
</g>
</g>
<!-- Node2&#45;&gt;Node1 -->
<g id="edge2" class="edge">
<title>Node2&#45;&gt;Node1</title>
<path fill="none" stroke="#191970" d="M242,-102.1575C242,-93.155 242,-82.9199 242,-75.6427"/>
<polygon fill="#191970" stroke="#191970" points="238.5001,-102.2455 242,-112.2455 245.5001,-102.2456 238.5001,-102.2455"/>
</g>
<!-- Node3 -->
<g id="node4" class="node">
<title>Node3</title>
<g id="a_node4"><a xlink:href="class_ogre_1_1_movable_object.html" target="_top" xlink:title="Abstract class defining a movable object in a scene. ">
<polygon fill="none" stroke="#000000" points="128.5,-168.5 128.5,-187.5 237.5,-187.5 237.5,-168.5 128.5,-168.5"/>
<text text-anchor="middle" x="183" y="-175.5" font-family="Helvetica,sans-Serif" font-size="10.00" fill="#000000">Ogre::MovableObject</text>
</a>
</g>
</g>
<!-- Node3&#45;&gt;Node2 -->
<g id="edge3" class="edge">
<title>Node3&#45;&gt;Node2</title>
<path fill="none" stroke="#191970" d="M200.5307,-161.3607C210.7377,-151.6727 223.2469,-139.7995 231.8408,-131.6427"/>
<polygon fill="#191970" stroke="#191970" points="198.1206,-158.8227 193.277,-168.2455 202.9396,-163.8998 198.1206,-158.8227"/>
</g>
<!-- Node4 -->
<g id="node5" class="node">
<title>Node4</title>
<g id="a_node5"><a xlink:href="class_ogre_1_1_shadow_caster.html" target="_top" xlink:title="This class defines the interface that must be implemented by shadow casters. ">
<polygon fill="none" stroke="#000000" points="0,-224.5 0,-243.5 108,-243.5 108,-224.5 0,-224.5"/>
<text text-anchor="middle" x="54" y="-231.5" font-family="Helvetica,sans-Serif" font-size="10.00" fill="#000000">Ogre::ShadowCaster</text>
</a>
</g>
</g>
<!-- Node4&#45;&gt;Node3 -->
<g id="edge4" class="edge">
<title>Node4&#45;&gt;Node3</title>
<path fill="none" stroke="#191970" d="M85.3671,-220.3833C108.8284,-210.1985 140.3185,-196.5284 161.1135,-187.5011"/>
<polygon fill="#191970" stroke="#191970" points="83.9551,-217.1806 76.1759,-224.3733 86.7426,-223.6017 83.9551,-217.1806"/>
</g>
<!-- Node5 -->
<g id="node6" class="node">
<title>Node5</title>
<g id="a_node6"><a xlink:href="class_ogre_1_1_animable_object.html" target="_top" xlink:title="Defines an interface to classes which have one or more AnimableValue instances to expose...">
<polygon fill="none" stroke="#000000" points="126.5,-224.5 126.5,-243.5 239.5,-243.5 239.5,-224.5 126.5,-224.5"/>
<text text-anchor="middle" x="183" y="-231.5" font-family="Helvetica,sans-Serif" font-size="10.00" fill="#000000">Ogre::AnimableObject</text>
</a>
</g>
</g>
<!-- Node5&#45;&gt;Node3 -->
<g id="edge5" class="edge">
<title>Node5&#45;&gt;Node3</title>
<path fill="none" stroke="#191970" d="M183,-214.1575C183,-205.155 183,-194.9199 183,-187.6427"/>
<polygon fill="#191970" stroke="#191970" points="179.5001,-214.2455 183,-224.2455 186.5001,-214.2456 179.5001,-214.2455"/>
</g>
<!-- Node6 -->
<g id="node7" class="node">
<title>Node6</title>
<g id="a_node7"><a xlink:href="class_ogre_1_1_allocated_object.html" target="_top" xlink:title="MovableAlloc">
<polygon fill="none" stroke="#000000" points="257.5,-224.5 257.5,-243.5 332.5,-243.5 332.5,-224.5 257.5,-224.5"/>
<text text-anchor="middle" x="295" y="-231.5" font-family="Helvetica,sans-Serif" font-size="10.00" fill="#000000">MovableAlloc</text>
</a>
</g>
</g>
<!-- Node6&#45;&gt;Node3 -->
<g id="edge6" class="edge">
<title>Node6&#45;&gt;Node3</title>
<path fill="none" stroke="#191970" d="M266.6737,-219.8368C246.4279,-209.7139 219.7358,-196.3679 202.0022,-187.5011"/>
<polygon fill="#191970" stroke="#191970" points="265.237,-223.0316 275.7465,-224.3733 268.3675,-216.7706 265.237,-223.0316"/>
</g>
<!-- Node7 -->
<g id="node8" class="node">
<title>Node7</title>
<g id="a_node8"><a xlink:href="class_ogre_1_1_renderable.html" target="_top" xlink:title="Abstract class defining the interface all renderable objects must implement. ">
<polygon fill="none" stroke="#000000" points="255.5,-168.5 255.5,-187.5 348.5,-187.5 348.5,-168.5 255.5,-168.5"/>
<text text-anchor="middle" x="302" y="-175.5" font-family="Helvetica,sans-Serif" font-size="10.00" fill="#000000">Ogre::Renderable</text>
</a>
</g>
</g>
<!-- Node7&#45;&gt;Node2 -->
<g id="edge7" class="edge">
<title>Node7&#45;&gt;Node2</title>
<path fill="none" stroke="#191970" d="M284.1722,-161.3607C273.7922,-151.6727 261.0709,-139.7995 252.3314,-131.6427"/>
<polygon fill="#191970" stroke="#191970" points="281.8501,-163.981 291.5488,-168.2455 286.6263,-158.8636 281.8501,-163.981"/>
</g>
</g>
</svg>
