<?xml version="1.0" encoding="UTF-8" standalone="no"?>
<!DOCTYPE svg PUBLIC "-//W3C//DTD SVG 1.1//EN"
 "http://www.w3.org/Graphics/SVG/1.1/DTD/svg11.dtd">
<!-- Generated by graphviz version 2.40.1 (20161225.0304)
 -->
<!-- Title: Ogre::TerrainAutoUpdateLod Pages: 1 -->
<svg width="149pt" height="151pt"
 viewBox="0.00 0.00 149.00 151.00" xmlns="http://www.w3.org/2000/svg" xmlns:xlink="http://www.w3.org/1999/xlink">
<g id="graph0" class="graph" transform="scale(1 1) rotate(0) translate(4 147)">
<title>Ogre::TerrainAutoUpdateLod</title>
<!-- Node0 -->
<g id="node1" class="node">
<title>Node0</title>
<polygon fill="#bfbfbf" stroke="#000000" points="0,-67.5 0,-86.5 141,-86.5 141,-67.5 0,-67.5"/>
<text text-anchor="middle" x="70.5" y="-74.5" font-family="Helvetica,sans-Serif" font-size="10.00" fill="#000000">Ogre::TerrainAutoUpdateLod</text>
</g>
<!-- Node2 -->
<g id="node3" class="node">
<title>Node2</title>
<g id="a_node3"><a xlink:href="class_ogre_1_1_terrain_auto_update_lod_by_distance.html" target="_top" xlink:title="Class implementing TerrainAutoUpdateLod interface. ">
<polygon fill="none" stroke="#000000" points="0,-.5 0,-30.5 141,-30.5 141,-.5 0,-.5"/>
<text text-anchor="start" x="8" y="-18.5" font-family="Helvetica,sans-Serif" font-size="10.00" fill="#000000">Ogre::TerrainAutoUpdateLod</text>
<text text-anchor="middle" x="70.5" y="-7.5" font-family="Helvetica,sans-Serif" font-size="10.00" fill="#000000">ByDistance</text>
</a>
</g>
</g>
<!-- Node0&#45;&gt;Node2 -->
<g id="edge2" class="edge">
<title>Node0&#45;&gt;Node2</title>
<path fill="none" stroke="#191970" d="M70.5,-57.3693C70.5,-48.681 70.5,-38.6241 70.5,-30.5446"/>
<polygon fill="#191970" stroke="#191970" points="67.0001,-57.3906 70.5,-67.3906 74.0001,-57.3907 67.0001,-57.3906"/>
</g>
<!-- Node1 -->
<g id="node2" class="node">
<title>Node1</title>
<g id="a_node2"><a xlink:href="class_ogre_1_1_allocated_object.html" target="_top" xlink:title="TerrainAlloc">
<polygon fill="none" stroke="#000000" points="36.5,-123.5 36.5,-142.5 104.5,-142.5 104.5,-123.5 36.5,-123.5"/>
<text text-anchor="middle" x="70.5" y="-130.5" font-family="Helvetica,sans-Serif" font-size="10.00" fill="#000000">TerrainAlloc</text>
</a>
</g>
</g>
<!-- Node1&#45;&gt;Node0 -->
<g id="edge1" class="edge">
<title>Node1&#45;&gt;Node0</title>
<path fill="none" stroke="#191970" d="M70.5,-113.1575C70.5,-104.155 70.5,-93.9199 70.5,-86.6427"/>
<polygon fill="#191970" stroke="#191970" points="67.0001,-113.2455 70.5,-123.2455 74.0001,-113.2456 67.0001,-113.2455"/>
</g>
</g>
</svg>
