<?xml version="1.0" encoding="UTF-8" standalone="no"?>
<!DOCTYPE svg PUBLIC "-//W3C//DTD SVG 1.1//EN"
 "http://www.w3.org/Graphics/SVG/1.1/DTD/svg11.dtd">
<!-- Generated by graphviz version 2.40.1 (20161225.0304)
 -->
<!-- Title: Ogre::ScreenRatioPixelCountLodStrategy Pages: 1 -->
<svg width="579pt" height="78pt"
 viewBox="0.00 0.00 579.00 77.50" xmlns="http://www.w3.org/2000/svg" xmlns:xlink="http://www.w3.org/1999/xlink">
<g id="graph0" class="graph" transform="scale(1 1) rotate(0) translate(4 73.5)">
<title>Ogre::ScreenRatioPixelCountLodStrategy</title>
<!-- Node0 -->
<g id="node1" class="node">
<title>Node0</title>
<polygon fill="#bfbfbf" stroke="#000000" points="425,-22.5 425,-52.5 571,-52.5 571,-22.5 425,-22.5"/>
<text text-anchor="start" x="433" y="-40.5" font-family="Helvetica,sans-Serif" font-size="10.00" fill="#000000">Ogre::ScreenRatioPixelCount</text>
<text text-anchor="middle" x="498" y="-29.5" font-family="Helvetica,sans-Serif" font-size="10.00" fill="#000000">LodStrategy</text>
</g>
<!-- Node1 -->
<g id="node2" class="node">
<title>Node1</title>
<g id="a_node2"><a xlink:href="class_ogre_1_1_pixel_count_lod_strategy_base.html" target="_top" xlink:title="Abstract base class for level of detail strategy based on pixel count approximations from bounding sp...">
<polygon fill="none" stroke="#000000" points="222,-50 222,-69 389,-69 389,-50 222,-50"/>
<text text-anchor="middle" x="305.5" y="-57" font-family="Helvetica,sans-Serif" font-size="10.00" fill="#000000">Ogre::PixelCountLodStrategyBase</text>
</a>
</g>
</g>
<!-- Node1&#45;&gt;Node0 -->
<g id="edge1" class="edge">
<title>Node1&#45;&gt;Node0</title>
<path fill="none" stroke="#191970" d="M398.9782,-48.8168C407.6631,-47.8242 416.3781,-46.8282 424.8401,-45.8611"/>
<polygon fill="#191970" stroke="#191970" points="398.3516,-45.3655 388.8137,-49.9784 399.1465,-52.3202 398.3516,-45.3655"/>
</g>
<!-- Node2 -->
<g id="node3" class="node">
<title>Node2</title>
<g id="a_node3"><a xlink:href="class_ogre_1_1_lod_strategy.html" target="_top" xlink:title="Strategy for determining level of detail. ">
<polygon fill="none" stroke="#000000" points="90,-50 90,-69 186,-69 186,-50 90,-50"/>
<text text-anchor="middle" x="138" y="-57" font-family="Helvetica,sans-Serif" font-size="10.00" fill="#000000">Ogre::LodStrategy</text>
</a>
</g>
</g>
<!-- Node2&#45;&gt;Node1 -->
<g id="edge2" class="edge">
<title>Node2&#45;&gt;Node1</title>
<path fill="none" stroke="#191970" d="M196.5856,-59.5C204.7588,-59.5 213.2845,-59.5 221.8094,-59.5"/>
<polygon fill="#191970" stroke="#191970" points="196.448,-56.0001 186.4479,-59.5 196.4479,-63.0001 196.448,-56.0001"/>
</g>
<!-- Node3 -->
<g id="node4" class="node">
<title>Node3</title>
<g id="a_node4"><a xlink:href="class_ogre_1_1_allocated_object.html" target="_top" xlink:title="LodAlloc">
<polygon fill="none" stroke="#000000" points="0,-50 0,-69 54,-69 54,-50 0,-50"/>
<text text-anchor="middle" x="27" y="-57" font-family="Helvetica,sans-Serif" font-size="10.00" fill="#000000">LodAlloc</text>
</a>
</g>
</g>
<!-- Node3&#45;&gt;Node2 -->
<g id="edge3" class="edge">
<title>Node3&#45;&gt;Node2</title>
<path fill="none" stroke="#191970" d="M64.209,-59.5C72.4539,-59.5 81.3051,-59.5 89.914,-59.5"/>
<polygon fill="#191970" stroke="#191970" points="64.1537,-56.0001 54.1537,-59.5 64.1536,-63.0001 64.1537,-56.0001"/>
</g>
<!-- Node4 -->
<g id="node5" class="node">
<title>Node4</title>
<g id="a_node5"><a xlink:href="class_ogre_1_1_singleton.html" target="_top" xlink:title="Ogre::Singleton\&lt; ScreenRatio\lPixelCountLodStrategy \&gt;">
<polygon fill="none" stroke="#000000" points="232,-.5 232,-30.5 379,-30.5 379,-.5 232,-.5"/>
<text text-anchor="start" x="240" y="-18.5" font-family="Helvetica,sans-Serif" font-size="10.00" fill="#000000">Ogre::Singleton&lt; ScreenRatio</text>
<text text-anchor="middle" x="305.5" y="-7.5" font-family="Helvetica,sans-Serif" font-size="10.00" fill="#000000">PixelCountLodStrategy &gt;</text>
</a>
</g>
</g>
<!-- Node4&#45;&gt;Node0 -->
<g id="edge4" class="edge">
<title>Node4&#45;&gt;Node0</title>
<path fill="none" stroke="#191970" d="M389.3731,-25.0855C401.1576,-26.4323 413.1937,-27.8079 424.7591,-29.1296"/>
<polygon fill="#191970" stroke="#191970" points="389.4327,-21.5696 379.1,-23.9114 388.6379,-28.5243 389.4327,-21.5696"/>
</g>
</g>
</svg>
