<?xml version="1.0" encoding="UTF-8" standalone="no"?>
<!DOCTYPE svg PUBLIC "-//W3C//DTD SVG 1.1//EN"
 "http://www.w3.org/Graphics/SVG/1.1/DTD/svg11.dtd">
<!-- Generated by graphviz version 2.40.1 (20161225.0304)
 -->
<!-- Title: Ogre::HardwareIndexBuffer Pages: 1 -->
<svg width="590pt" height="264pt"
 viewBox="0.00 0.00 590.00 263.50" xmlns="http://www.w3.org/2000/svg" xmlns:xlink="http://www.w3.org/1999/xlink">
<g id="graph0" class="graph" transform="scale(1 1) rotate(0) translate(4 259.5)">
<title>Ogre::HardwareIndexBuffer</title>
<!-- Node0 -->
<g id="node1" class="node">
<title>Node0</title>
<polygon fill="#bfbfbf" stroke="#000000" points="249,-117.5 249,-136.5 385,-136.5 385,-117.5 249,-117.5"/>
<text text-anchor="middle" x="317" y="-124.5" font-family="Helvetica,sans-Serif" font-size="10.00" fill="#000000">Ogre::HardwareIndexBuffer</text>
</g>
<!-- Node3 -->
<g id="node4" class="node">
<title>Node3</title>
<g id="a_node4"><a xlink:href="class_ogre_1_1_d3_d11_hardware_index_buffer.html" target="_top" xlink:title="Ogre::D3D11HardwareIndex\lBuffer">
<polygon fill="none" stroke="#000000" points="431.5,-225 431.5,-255 571.5,-255 571.5,-225 431.5,-225"/>
<text text-anchor="start" x="439.5" y="-243" font-family="Helvetica,sans-Serif" font-size="10.00" fill="#000000">Ogre::D3D11HardwareIndex</text>
<text text-anchor="middle" x="501.5" y="-232" font-family="Helvetica,sans-Serif" font-size="10.00" fill="#000000">Buffer</text>
</a>
</g>
</g>
<!-- Node0&#45;&gt;Node3 -->
<g id="edge3" class="edge">
<title>Node0&#45;&gt;Node3</title>
<path fill="none" stroke="#191970" d="M332.8122,-144.0094C351.9566,-163.6789 386.0057,-195.8058 421,-215 427.9286,-218.8003 435.5161,-222.1097 443.1761,-224.9663"/>
<polygon fill="#191970" stroke="#191970" points="335.2238,-141.4669 325.7845,-136.6552 330.1629,-146.3031 335.2238,-141.4669"/>
</g>
<!-- Node4 -->
<g id="node5" class="node">
<title>Node4</title>
<g id="a_node5"><a xlink:href="class_ogre_1_1_d3_d9_hardware_index_buffer.html" target="_top" xlink:title="Ogre::D3D9HardwareIndexBuffer">
<polygon fill="none" stroke="#000000" points="421,-186.5 421,-205.5 582,-205.5 582,-186.5 421,-186.5"/>
<text text-anchor="middle" x="501.5" y="-193.5" font-family="Helvetica,sans-Serif" font-size="10.00" fill="#000000">Ogre::D3D9HardwareIndexBuffer</text>
</a>
</g>
</g>
<!-- Node0&#45;&gt;Node4 -->
<g id="edge4" class="edge">
<title>Node0&#45;&gt;Node4</title>
<path fill="none" stroke="#191970" d="M343.2419,-141.5784C363.8731,-152.5528 393.6076,-167.3114 421,-177 431.2888,-180.6391 442.5634,-183.792 453.3318,-186.4268"/>
<polygon fill="#191970" stroke="#191970" points="344.633,-138.3521 334.1702,-136.6843 341.3093,-144.5127 344.633,-138.3521"/>
</g>
<!-- Node5 -->
<g id="node6" class="node">
<title>Node5</title>
<g id="a_node6"><a xlink:href="class_ogre_1_1_default_hardware_index_buffer.html" target="_top" xlink:title="Specialisation of HardwareIndexBuffer for emulation. ">
<polygon fill="none" stroke="#000000" points="431,-137 431,-167 572,-167 572,-137 431,-137"/>
<text text-anchor="start" x="439" y="-155" font-family="Helvetica,sans-Serif" font-size="10.00" fill="#000000">Ogre::DefaultHardwareIndex</text>
<text text-anchor="middle" x="501.5" y="-144" font-family="Helvetica,sans-Serif" font-size="10.00" fill="#000000">Buffer</text>
</a>
</g>
</g>
<!-- Node0&#45;&gt;Node5 -->
<g id="edge5" class="edge">
<title>Node0&#45;&gt;Node5</title>
<path fill="none" stroke="#191970" d="M395.4121,-137.625C407.1717,-139.2184 419.2383,-140.8534 430.8239,-142.4233"/>
<polygon fill="#191970" stroke="#191970" points="395.5562,-134.1126 385.1768,-136.238 394.6162,-141.0492 395.5562,-134.1126"/>
</g>
<!-- Node6 -->
<g id="node7" class="node">
<title>Node6</title>
<g id="a_node7"><a xlink:href="class_ogre_1_1_g_l3_plus_hardware_index_buffer.html" target="_top" xlink:title="Ogre::GL3PlusHardwareIndex\lBuffer">
<polygon fill="none" stroke="#000000" points="428,-88 428,-118 575,-118 575,-88 428,-88"/>
<text text-anchor="start" x="436" y="-106" font-family="Helvetica,sans-Serif" font-size="10.00" fill="#000000">Ogre::GL3PlusHardwareIndex</text>
<text text-anchor="middle" x="501.5" y="-95" font-family="Helvetica,sans-Serif" font-size="10.00" fill="#000000">Buffer</text>
</a>
</g>
</g>
<!-- Node0&#45;&gt;Node6 -->
<g id="edge6" class="edge">
<title>Node0&#45;&gt;Node6</title>
<path fill="none" stroke="#191970" d="M395.363,-116.8064C406.0896,-115.4111 417.0726,-113.9824 427.7138,-112.5982"/>
<polygon fill="#191970" stroke="#191970" points="394.6417,-113.3707 385.1768,-118.1315 395.5448,-120.3122 394.6417,-113.3707"/>
</g>
<!-- Node7 -->
<g id="node8" class="node">
<title>Node7</title>
<g id="a_node8"><a xlink:href="class_ogre_1_1_g_l_e_s2_hardware_index_buffer.html" target="_top" xlink:title="Ogre::GLES2HardwareIndex\lBuffer">
<polygon fill="none" stroke="#000000" points="431,-39 431,-69 572,-69 572,-39 431,-39"/>
<text text-anchor="start" x="439" y="-57" font-family="Helvetica,sans-Serif" font-size="10.00" fill="#000000">Ogre::GLES2HardwareIndex</text>
<text text-anchor="middle" x="501.5" y="-46" font-family="Helvetica,sans-Serif" font-size="10.00" fill="#000000">Buffer</text>
</a>
</g>
</g>
<!-- Node0&#45;&gt;Node7 -->
<g id="edge7" class="edge">
<title>Node0&#45;&gt;Node7</title>
<path fill="none" stroke="#191970" d="M344.1851,-112.8092C364.8873,-102.3441 394.282,-88.2103 421,-78 429.3099,-74.8244 438.2302,-71.7994 446.9982,-69.0337"/>
<polygon fill="#191970" stroke="#191970" points="342.3624,-109.8099 335.0484,-117.4751 345.5461,-116.0441 342.3624,-109.8099"/>
</g>
<!-- Node8 -->
<g id="node9" class="node">
<title>Node8</title>
<g id="a_node9"><a xlink:href="class_ogre_1_1_g_l_hardware_index_buffer.html" target="_top" xlink:title="Ogre::GLHardwareIndexBuffer">
<polygon fill="none" stroke="#000000" points="427,-.5 427,-19.5 576,-19.5 576,-.5 427,-.5"/>
<text text-anchor="middle" x="501.5" y="-7.5" font-family="Helvetica,sans-Serif" font-size="10.00" fill="#000000">Ogre::GLHardwareIndexBuffer</text>
</a>
</g>
</g>
<!-- Node0&#45;&gt;Node8 -->
<g id="edge8" class="edge">
<title>Node0&#45;&gt;Node8</title>
<path fill="none" stroke="#191970" d="M330.5024,-109.541C348.6374,-87.3421 383.0072,-49.448 421,-29 428.2074,-25.1209 436.1962,-22.0273 444.261,-19.5617"/>
<polygon fill="#191970" stroke="#191970" points="327.6727,-107.4757 324.1682,-117.4741 333.1429,-111.8434 327.6727,-107.4757"/>
</g>
<!-- Node1 -->
<g id="node2" class="node">
<title>Node1</title>
<g id="a_node2"><a xlink:href="class_ogre_1_1_hardware_buffer.html" target="_top" xlink:title="Abstract class defining common features of hardware buffers. ">
<polygon fill="none" stroke="#000000" points="101,-117.5 101,-136.5 213,-136.5 213,-117.5 101,-117.5"/>
<text text-anchor="middle" x="157" y="-124.5" font-family="Helvetica,sans-Serif" font-size="10.00" fill="#000000">Ogre::HardwareBuffer</text>
</a>
</g>
</g>
<!-- Node1&#45;&gt;Node0 -->
<g id="edge1" class="edge">
<title>Node1&#45;&gt;Node0</title>
<path fill="none" stroke="#191970" d="M223.4701,-127C231.8207,-127 240.3739,-127 248.7513,-127"/>
<polygon fill="#191970" stroke="#191970" points="223.41,-123.5001 213.41,-127 223.41,-130.5001 223.41,-123.5001"/>
</g>
<!-- Node2 -->
<g id="node3" class="node">
<title>Node2</title>
<g id="a_node3"><a xlink:href="class_ogre_1_1_allocated_object.html" target="_top" xlink:title="BufferAlloc">
<polygon fill="none" stroke="#000000" points="0,-117.5 0,-136.5 65,-136.5 65,-117.5 0,-117.5"/>
<text text-anchor="middle" x="32.5" y="-124.5" font-family="Helvetica,sans-Serif" font-size="10.00" fill="#000000">BufferAlloc</text>
</a>
</g>
</g>
<!-- Node2&#45;&gt;Node1 -->
<g id="edge2" class="edge">
<title>Node2&#45;&gt;Node1</title>
<path fill="none" stroke="#191970" d="M75.3339,-127C83.5784,-127 92.3278,-127 100.9189,-127"/>
<polygon fill="#191970" stroke="#191970" points="75.2109,-123.5001 65.2109,-127 75.2109,-130.5001 75.2109,-123.5001"/>
</g>
</g>
</svg>
