<?xml version="1.0" encoding="UTF-8" standalone="no"?>
<!DOCTYPE svg PUBLIC "-//W3C//DTD SVG 1.1//EN"
 "http://www.w3.org/Graphics/SVG/1.1/DTD/svg11.dtd">
<!-- Generated by graphviz version 2.40.1 (20161225.0304)
 -->
<!-- Title: Ogre::TextAreaOverlayElement Pages: 1 -->
<svg width="317pt" height="140pt"
 viewBox="0.00 0.00 316.50 140.00" xmlns="http://www.w3.org/2000/svg" xmlns:xlink="http://www.w3.org/1999/xlink">
<g id="graph0" class="graph" transform="scale(1 1) rotate(0) translate(4 136)">
<title>Ogre::TextAreaOverlayElement</title>
<!-- Node0 -->
<g id="node1" class="node">
<title>Node0</title>
<polygon fill="#bfbfbf" stroke="#000000" points="95,-.5 95,-19.5 248,-19.5 248,-.5 95,-.5"/>
<text text-anchor="middle" x="171.5" y="-7.5" font-family="Helvetica,sans-Serif" font-size="10.00" fill="#000000">Ogre::TextAreaOverlayElement</text>
</g>
<!-- Node1 -->
<g id="node2" class="node">
<title>Node1</title>
<g id="a_node2"><a xlink:href="class_ogre_1_1_overlay_element.html" target="_top" xlink:title="Abstract definition of a 2D element to be displayed in an Overlay. ">
<polygon fill="none" stroke="#000000" points="115,-56.5 115,-75.5 228,-75.5 228,-56.5 115,-56.5"/>
<text text-anchor="middle" x="171.5" y="-63.5" font-family="Helvetica,sans-Serif" font-size="10.00" fill="#000000">Ogre::OverlayElement</text>
</a>
</g>
</g>
<!-- Node1&#45;&gt;Node0 -->
<g id="edge1" class="edge">
<title>Node1&#45;&gt;Node0</title>
<path fill="none" stroke="#191970" d="M171.5,-46.1575C171.5,-37.155 171.5,-26.9199 171.5,-19.6427"/>
<polygon fill="#191970" stroke="#191970" points="168.0001,-46.2455 171.5,-56.2455 175.0001,-46.2456 168.0001,-46.2455"/>
</g>
<!-- Node2 -->
<g id="node3" class="node">
<title>Node2</title>
<g id="a_node3"><a xlink:href="class_ogre_1_1_string_interface.html" target="_top" xlink:title="Class defining the common interface which classes can use to present a reflection&#45;style, self&#45;defining parameter set to callers. ">
<polygon fill="none" stroke="#000000" points="0,-112.5 0,-131.5 107,-131.5 107,-112.5 0,-112.5"/>
<text text-anchor="middle" x="53.5" y="-119.5" font-family="Helvetica,sans-Serif" font-size="10.00" fill="#000000">Ogre::StringInterface</text>
</a>
</g>
</g>
<!-- Node2&#45;&gt;Node1 -->
<g id="edge2" class="edge">
<title>Node2&#45;&gt;Node1</title>
<path fill="none" stroke="#191970" d="M83.0547,-107.9741C104.4195,-97.8348 132.7116,-84.408 151.4798,-75.5011"/>
<polygon fill="#191970" stroke="#191970" points="81.3186,-104.9238 73.7849,-112.3733 84.3198,-111.2478 81.3186,-104.9238"/>
</g>
<!-- Node3 -->
<g id="node4" class="node">
<title>Node3</title>
<g id="a_node4"><a xlink:href="class_ogre_1_1_renderable.html" target="_top" xlink:title="Abstract class defining the interface all renderable objects must implement. ">
<polygon fill="none" stroke="#000000" points="125,-112.5 125,-131.5 218,-131.5 218,-112.5 125,-112.5"/>
<text text-anchor="middle" x="171.5" y="-119.5" font-family="Helvetica,sans-Serif" font-size="10.00" fill="#000000">Ogre::Renderable</text>
</a>
</g>
</g>
<!-- Node3&#45;&gt;Node1 -->
<g id="edge3" class="edge">
<title>Node3&#45;&gt;Node1</title>
<path fill="none" stroke="#191970" d="M171.5,-102.1575C171.5,-93.155 171.5,-82.9199 171.5,-75.6427"/>
<polygon fill="#191970" stroke="#191970" points="168.0001,-102.2455 171.5,-112.2455 175.0001,-102.2456 168.0001,-102.2455"/>
</g>
<!-- Node4 -->
<g id="node5" class="node">
<title>Node4</title>
<g id="a_node5"><a xlink:href="class_ogre_1_1_allocated_object.html" target="_top" xlink:title="OverlayAlloc">
<polygon fill="none" stroke="#000000" points="236.5,-112.5 236.5,-131.5 308.5,-131.5 308.5,-112.5 236.5,-112.5"/>
<text text-anchor="middle" x="272.5" y="-119.5" font-family="Helvetica,sans-Serif" font-size="10.00" fill="#000000">OverlayAlloc</text>
</a>
</g>
</g>
<!-- Node4&#45;&gt;Node1 -->
<g id="edge4" class="edge">
<title>Node4&#45;&gt;Node1</title>
<path fill="none" stroke="#191970" d="M246.0281,-107.3225C227.9875,-97.3198 204.6123,-84.3593 188.8913,-75.6427"/>
<polygon fill="#191970" stroke="#191970" points="244.4643,-110.4574 254.9071,-112.2455 247.8587,-104.3354 244.4643,-110.4574"/>
</g>
</g>
</svg>
