<?xml version="1.0" encoding="UTF-8" standalone="no"?>
<!DOCTYPE svg PUBLIC "-//W3C//DTD SVG 1.1//EN"
 "http://www.w3.org/Graphics/SVG/1.1/DTD/svg11.dtd">
<!-- Generated by graphviz version 2.40.1 (20161225.0304)
 -->
<!-- Title: Ogre::Renderable Pages: 1 -->
<svg width="828pt" height="475pt"
 viewBox="0.00 0.00 828.00 475.00" xmlns="http://www.w3.org/2000/svg" xmlns:xlink="http://www.w3.org/1999/xlink">
<g id="graph0" class="graph" transform="scale(1 1) rotate(0) translate(4 471)">
<title>Ogre::Renderable</title>
<!-- Node0 -->
<g id="node1" class="node">
<title>Node0</title>
<polygon fill="#bfbfbf" stroke="#000000" points="0,-229.5 0,-248.5 93,-248.5 93,-229.5 0,-229.5"/>
<text text-anchor="middle" x="46.5" y="-236.5" font-family="Helvetica,sans-Serif" font-size="10.00" fill="#000000">Ogre::Renderable</text>
</g>
<!-- Node1 -->
<g id="node2" class="node">
<title>Node1</title>
<g id="a_node2"><a xlink:href="class_ogre_1_1_billboard_chain.html" target="_top" xlink:title="Allows the rendering of a chain of connected billboards. ">
<polygon fill="none" stroke="#000000" points="151,-447.5 151,-466.5 258,-466.5 258,-447.5 151,-447.5"/>
<text text-anchor="middle" x="204.5" y="-454.5" font-family="Helvetica,sans-Serif" font-size="10.00" fill="#000000">Ogre::BillboardChain</text>
</a>
</g>
</g>
<!-- Node0&#45;&gt;Node1 -->
<g id="edge1" class="edge">
<title>Node0&#45;&gt;Node1</title>
<path fill="none" stroke="#191970" d="M48.8181,-258.7126C54.6104,-298.7994 73.4834,-390.0727 129,-438 135.241,-443.3879 142.7945,-447.2868 150.6807,-450.1006"/>
<polygon fill="#191970" stroke="#191970" points="52.2663,-258.0902 47.4869,-248.6347 45.3266,-259.0069 52.2663,-258.0902"/>
</g>
<!-- Node3 -->
<g id="node4" class="node">
<title>Node3</title>
<g id="a_node4"><a xlink:href="class_ogre_1_1_billboard_set.html" target="_top" xlink:title="A collection of billboards (faces which are always facing the given direction) with the same (default...">
<polygon fill="none" stroke="#000000" points="156.5,-409.5 156.5,-428.5 252.5,-428.5 252.5,-409.5 156.5,-409.5"/>
<text text-anchor="middle" x="204.5" y="-416.5" font-family="Helvetica,sans-Serif" font-size="10.00" fill="#000000">Ogre::BillboardSet</text>
</a>
</g>
</g>
<!-- Node0&#45;&gt;Node3 -->
<g id="edge3" class="edge">
<title>Node0&#45;&gt;Node3</title>
<path fill="none" stroke="#191970" d="M50.9942,-258.897C59.7943,-293.1479 82.623,-363.1141 129,-400 136.828,-406.226 146.4391,-410.4402 156.1482,-413.2854"/>
<polygon fill="#191970" stroke="#191970" points="54.2918,-257.6437 48.5339,-248.75 47.4889,-259.2932 54.2918,-257.6437"/>
</g>
<!-- Node4 -->
<g id="node5" class="node">
<title>Node4</title>
<g id="a_node5"><a xlink:href="class_ogre_1_1_border_renderable.html" target="_top" xlink:title="Class for rendering the border of a BorderPanelOverlayElement. ">
<polygon fill="none" stroke="#000000" points="143.5,-371.5 143.5,-390.5 265.5,-390.5 265.5,-371.5 143.5,-371.5"/>
<text text-anchor="middle" x="204.5" y="-378.5" font-family="Helvetica,sans-Serif" font-size="10.00" fill="#000000">Ogre::BorderRenderable</text>
</a>
</g>
</g>
<!-- Node0&#45;&gt;Node4 -->
<g id="edge4" class="edge">
<title>Node0&#45;&gt;Node4</title>
<path fill="none" stroke="#191970" d="M53.9879,-258.0403C65.7392,-285.3725 91.1501,-335.3619 129,-362 134.5267,-365.8896 140.7746,-368.9846 147.2512,-371.447"/>
<polygon fill="#191970" stroke="#191970" points="57.2106,-256.6744 50.1554,-248.7702 50.7416,-259.3488 57.2106,-256.6744"/>
</g>
<!-- Node5 -->
<g id="node6" class="node">
<title>Node5</title>
<g id="a_node6"><a xlink:href="class_ogre_1_1_frustum.html" target="_top" xlink:title="A frustum represents a pyramid, capped at the near and far end which is used to represent either a vi...">
<polygon fill="none" stroke="#000000" points="164.5,-333.5 164.5,-352.5 244.5,-352.5 244.5,-333.5 164.5,-333.5"/>
<text text-anchor="middle" x="204.5" y="-340.5" font-family="Helvetica,sans-Serif" font-size="10.00" fill="#000000">Ogre::Frustum</text>
</a>
</g>
</g>
<!-- Node0&#45;&gt;Node5 -->
<g id="edge5" class="edge">
<title>Node0&#45;&gt;Node5</title>
<path fill="none" stroke="#191970" d="M59.0233,-256.8911C73.5999,-276.3543 99.4776,-306.9619 129,-324 139.653,-330.1481 152.2725,-334.3261 164.1142,-337.1578"/>
<polygon fill="#191970" stroke="#191970" points="61.6912,-254.6089 52.9785,-248.5807 56.0303,-258.7265 61.6912,-254.6089"/>
</g>
<!-- Node9 -->
<g id="node10" class="node">
<title>Node9</title>
<g id="a_node10"><a xlink:href="class_ogre_1_1_instance_batch.html" target="_top" xlink:title="InstanceBatch forms part of the new Instancing system This is an abstract class that must be derived ...">
<polygon fill="none" stroke="#000000" points="151,-295.5 151,-314.5 258,-314.5 258,-295.5 151,-295.5"/>
<text text-anchor="middle" x="204.5" y="-302.5" font-family="Helvetica,sans-Serif" font-size="10.00" fill="#000000">Ogre::InstanceBatch</text>
</a>
</g>
</g>
<!-- Node0&#45;&gt;Node9 -->
<g id="edge9" class="edge">
<title>Node0&#45;&gt;Node9</title>
<path fill="none" stroke="#191970" d="M69.2052,-254.175C85.3208,-264.3769 107.776,-277.469 129,-286 138.155,-289.6799 148.228,-292.806 157.9511,-295.3951"/>
<polygon fill="#191970" stroke="#191970" points="70.806,-251.0424 60.5064,-248.5586 67.009,-256.9232 70.806,-251.0424"/>
</g>
<!-- Node15 -->
<g id="node16" class="node">
<title>Node15</title>
<g id="a_node16"><a xlink:href="class_ogre_1_1_manual_object_1_1_manual_object_section.html" target="_top" xlink:title="Built, renderable section of geometry. ">
<polygon fill="none" stroke="#000000" points="146.5,-246 146.5,-276 262.5,-276 262.5,-246 146.5,-246"/>
<text text-anchor="start" x="154.5" y="-264" font-family="Helvetica,sans-Serif" font-size="10.00" fill="#000000">Ogre::ManualObject</text>
<text text-anchor="middle" x="204.5" y="-253" font-family="Helvetica,sans-Serif" font-size="10.00" fill="#000000">::ManualObjectSection</text>
</a>
</g>
</g>
<!-- Node0&#45;&gt;Node15 -->
<g id="edge15" class="edge">
<title>Node0&#45;&gt;Node15</title>
<path fill="none" stroke="#191970" d="M103.0496,-246.874C117.07,-248.8262 132.1192,-250.9217 146.2207,-252.8852"/>
<polygon fill="#191970" stroke="#191970" points="103.4378,-243.3944 93.0506,-245.4817 102.4724,-250.3275 103.4378,-243.3944"/>
</g>
<!-- Node16 -->
<g id="node17" class="node">
<title>Node16</title>
<g id="a_node17"><a xlink:href="class_ogre_1_1_node_1_1_debug_renderable.html" target="_top" xlink:title="Inner class for displaying debug renderable for Node. ">
<polygon fill="none" stroke="#000000" points="129,-207.5 129,-226.5 280,-226.5 280,-207.5 129,-207.5"/>
<text text-anchor="middle" x="204.5" y="-214.5" font-family="Helvetica,sans-Serif" font-size="10.00" fill="#000000">Ogre::Node::DebugRenderable</text>
</a>
</g>
</g>
<!-- Node0&#45;&gt;Node16 -->
<g id="edge16" class="edge">
<title>Node0&#45;&gt;Node16</title>
<path fill="none" stroke="#191970" d="M103.0786,-231.122C113.758,-229.635 125.0335,-228.065 136.0317,-226.5336"/>
<polygon fill="#191970" stroke="#191970" points="102.4724,-227.6725 93.0506,-232.5183 103.4378,-234.6056 102.4724,-227.6725"/>
</g>
<!-- Node17 -->
<g id="node18" class="node">
<title>Node17</title>
<g id="a_node18"><a xlink:href="class_ogre_1_1_overlay_element.html" target="_top" xlink:title="Abstract definition of a 2D element to be displayed in an Overlay. ">
<polygon fill="none" stroke="#000000" points="148,-169.5 148,-188.5 261,-188.5 261,-169.5 148,-169.5"/>
<text text-anchor="middle" x="204.5" y="-176.5" font-family="Helvetica,sans-Serif" font-size="10.00" fill="#000000">Ogre::OverlayElement</text>
</a>
</g>
</g>
<!-- Node0&#45;&gt;Node17 -->
<g id="edge17" class="edge">
<title>Node0&#45;&gt;Node17</title>
<path fill="none" stroke="#191970" d="M72.2995,-224.3832C88.2539,-215.8015 109.3694,-205.2521 129,-198 138.7627,-194.3934 149.4829,-191.2374 159.7015,-188.5874"/>
<polygon fill="#191970" stroke="#191970" points="70.1821,-221.5522 63.0921,-229.4251 73.5442,-227.692 70.1821,-221.5522"/>
</g>
<!-- Node22 -->
<g id="node23" class="node">
<title>Node22</title>
<g id="a_node23"><a xlink:href="class_ogre_1_1_shadow_renderable.html" target="_top" xlink:title="Class which represents the renderable aspects of a set of shadow volume faces. ">
<polygon fill="none" stroke="#000000" points="140.5,-131.5 140.5,-150.5 268.5,-150.5 268.5,-131.5 140.5,-131.5"/>
<text text-anchor="middle" x="204.5" y="-138.5" font-family="Helvetica,sans-Serif" font-size="10.00" fill="#000000">Ogre::ShadowRenderable</text>
</a>
</g>
</g>
<!-- Node0&#45;&gt;Node22 -->
<g id="edge22" class="edge">
<title>Node0&#45;&gt;Node22</title>
<path fill="none" stroke="#191970" d="M60.2128,-221.2976C75.1837,-203.1959 100.8133,-175.5869 129,-160 135.9787,-156.1409 143.7509,-153.0514 151.5801,-150.5817"/>
<polygon fill="#191970" stroke="#191970" points="57.2956,-219.34 53.7551,-229.3258 62.7501,-223.7274 57.2956,-219.34"/>
</g>
<!-- Node24 -->
<g id="node25" class="node">
<title>Node24</title>
<g id="a_node25"><a xlink:href="class_ogre_1_1_simple_renderable.html" target="_top" xlink:title="Simple implementation of MovableObject and Renderable for single&#45;part custom objects. ">
<polygon fill="none" stroke="#000000" points="143,-88.5 143,-107.5 266,-107.5 266,-88.5 143,-88.5"/>
<text text-anchor="middle" x="204.5" y="-95.5" font-family="Helvetica,sans-Serif" font-size="10.00" fill="#000000">Ogre::SimpleRenderable</text>
</a>
</g>
</g>
<!-- Node0&#45;&gt;Node24 -->
<g id="edge24" class="edge">
<title>Node0&#45;&gt;Node24</title>
<path fill="none" stroke="#191970" d="M54.9868,-220.0729C67.5276,-194.2071 93.421,-148.0617 129,-122 137.5437,-115.7418 147.7782,-111.077 157.9135,-107.6133"/>
<polygon fill="#191970" stroke="#191970" points="51.7806,-218.6667 50.7071,-229.207 58.1193,-221.6367 51.7806,-218.6667"/>
</g>
<!-- Node28 -->
<g id="node29" class="node">
<title>Node28</title>
<g id="a_node29"><a xlink:href="class_ogre_1_1_static_geometry_1_1_geometry_bucket.html" target="_top" xlink:title="A GeometryBucket is a the lowest level bucket where geometry with the same vertex &amp; index format is s...">
<polygon fill="none" stroke="#000000" points="148.5,-39 148.5,-69 260.5,-69 260.5,-39 148.5,-39"/>
<text text-anchor="start" x="156.5" y="-57" font-family="Helvetica,sans-Serif" font-size="10.00" fill="#000000">Ogre::StaticGeometry</text>
<text text-anchor="middle" x="204.5" y="-46" font-family="Helvetica,sans-Serif" font-size="10.00" fill="#000000">::GeometryBucket</text>
</a>
</g>
</g>
<!-- Node0&#45;&gt;Node28 -->
<g id="edge28" class="edge">
<title>Node0&#45;&gt;Node28</title>
<path fill="none" stroke="#191970" d="M51.3167,-219.5702C60.6117,-186.0593 84.177,-117.3124 129,-79 134.6678,-74.1555 141.3038,-70.2424 148.2474,-67.0833"/>
<polygon fill="#191970" stroke="#191970" points="47.8667,-218.9272 48.7014,-229.4891 54.6353,-220.7119 47.8667,-218.9272"/>
</g>
<!-- Node29 -->
<g id="node30" class="node">
<title>Node29</title>
<g id="a_node30"><a xlink:href="class_ogre_1_1_sub_entity.html" target="_top" xlink:title="Utility class which defines the sub&#45;parts of an Entity. ">
<polygon fill="none" stroke="#000000" points="161.5,-.5 161.5,-19.5 247.5,-19.5 247.5,-.5 161.5,-.5"/>
<text text-anchor="middle" x="204.5" y="-7.5" font-family="Helvetica,sans-Serif" font-size="10.00" fill="#000000">Ogre::SubEntity</text>
</a>
</g>
</g>
<!-- Node0&#45;&gt;Node29 -->
<g id="edge29" class="edge">
<title>Node0&#45;&gt;Node29</title>
<path fill="none" stroke="#191970" d="M48.3287,-219.3462C53.2865,-177.6973 70.8093,-80.1917 129,-29 137.9305,-21.1436 149.6426,-16.4434 161.1688,-13.6578"/>
<polygon fill="#191970" stroke="#191970" points="44.8461,-218.9984 47.2603,-229.3145 51.8062,-219.7445 44.8461,-218.9984"/>
</g>
<!-- Node2 -->
<g id="node3" class="node">
<title>Node2</title>
<g id="a_node3"><a xlink:href="class_ogre_1_1_ribbon_trail.html" target="_top" xlink:title="Subclass of BillboardChain which automatically leaves a trail behind one or more Node instances...">
<polygon fill="none" stroke="#000000" points="346,-447.5 346,-466.5 439,-466.5 439,-447.5 346,-447.5"/>
<text text-anchor="middle" x="392.5" y="-454.5" font-family="Helvetica,sans-Serif" font-size="10.00" fill="#000000">Ogre::RibbonTrail</text>
</a>
</g>
</g>
<!-- Node1&#45;&gt;Node2 -->
<g id="edge2" class="edge">
<title>Node1&#45;&gt;Node2</title>
<path fill="none" stroke="#191970" d="M268.4068,-457C293.7956,-457 322.4586,-457 345.8361,-457"/>
<polygon fill="#191970" stroke="#191970" points="268.1217,-453.5001 258.1217,-457 268.1216,-460.5001 268.1217,-453.5001"/>
</g>
<!-- Node6 -->
<g id="node7" class="node">
<title>Node6</title>
<g id="a_node7"><a xlink:href="class_ogre_1_1_camera.html" target="_top" xlink:title="A viewpoint from which the scene will be rendered. ">
<polygon fill="none" stroke="#000000" points="353.5,-371.5 353.5,-390.5 431.5,-390.5 431.5,-371.5 353.5,-371.5"/>
<text text-anchor="middle" x="392.5" y="-378.5" font-family="Helvetica,sans-Serif" font-size="10.00" fill="#000000">Ogre::Camera</text>
</a>
</g>
</g>
<!-- Node5&#45;&gt;Node6 -->
<g id="edge6" class="edge">
<title>Node5&#45;&gt;Node6</title>
<path fill="none" stroke="#191970" d="M254.9548,-353.1983C285.7934,-359.4316 324.6586,-367.2874 353.2026,-373.0569"/>
<polygon fill="#191970" stroke="#191970" points="255.3259,-349.7026 244.8307,-351.152 253.939,-356.5639 255.3259,-349.7026"/>
</g>
<!-- Node7 -->
<g id="node8" class="node">
<title>Node7</title>
<g id="a_node8"><a xlink:href="class_ogre_1_1_octree_camera.html" target="_top" xlink:title="Specialized viewpoint from which an Octree can be rendered. ">
<polygon fill="none" stroke="#000000" points="525.5,-409.5 525.5,-428.5 632.5,-428.5 632.5,-409.5 525.5,-409.5"/>
<text text-anchor="middle" x="579" y="-416.5" font-family="Helvetica,sans-Serif" font-size="10.00" fill="#000000">Ogre::OctreeCamera</text>
</a>
</g>
</g>
<!-- Node6&#45;&gt;Node7 -->
<g id="edge7" class="edge">
<title>Node6&#45;&gt;Node7</title>
<path fill="none" stroke="#191970" d="M441.6018,-391.0047C469.6839,-396.7265 504.7104,-403.8633 532.3695,-409.4989"/>
<polygon fill="#191970" stroke="#191970" points="442.094,-387.5331 431.5965,-388.966 440.6964,-394.3922 442.094,-387.5331"/>
</g>
<!-- Node8 -->
<g id="node9" class="node">
<title>Node8</title>
<g id="a_node9"><a xlink:href="class_ogre_1_1_p_c_z_camera.html" target="_top" xlink:title="Specialized viewpoint from which an PCZone Scene can be rendered. ">
<polygon fill="none" stroke="#000000" points="530,-371.5 530,-390.5 628,-390.5 628,-371.5 530,-371.5"/>
<text text-anchor="middle" x="579" y="-378.5" font-family="Helvetica,sans-Serif" font-size="10.00" fill="#000000">Ogre::PCZCamera</text>
</a>
</g>
</g>
<!-- Node6&#45;&gt;Node8 -->
<g id="edge8" class="edge">
<title>Node6&#45;&gt;Node8</title>
<path fill="none" stroke="#191970" d="M441.6986,-381C468.9613,-381 502.7462,-381 529.9803,-381"/>
<polygon fill="#191970" stroke="#191970" points="441.5965,-377.5001 431.5965,-381 441.5965,-384.5001 441.5965,-377.5001"/>
</g>
<!-- Node10 -->
<g id="node11" class="node">
<title>Node10</title>
<g id="a_node11"><a xlink:href="class_ogre_1_1_base_instance_batch_v_t_f.html" target="_top" xlink:title="Instancing implementation using vertex texture through Vertex Texture Fetch (VTF) This implementation...">
<polygon fill="none" stroke="#000000" points="318.5,-333.5 318.5,-352.5 466.5,-352.5 466.5,-333.5 318.5,-333.5"/>
<text text-anchor="middle" x="392.5" y="-340.5" font-family="Helvetica,sans-Serif" font-size="10.00" fill="#000000">Ogre::BaseInstanceBatchVTF</text>
</a>
</g>
</g>
<!-- Node9&#45;&gt;Node10 -->
<g id="edge10" class="edge">
<title>Node9&#45;&gt;Node10</title>
<path fill="none" stroke="#191970" d="M261.9365,-316.6095C288.6744,-322.014 320.0879,-328.3635 345.4008,-333.4799"/>
<polygon fill="#191970" stroke="#191970" points="262.4356,-313.1397 251.9403,-314.589 261.0487,-320.0009 262.4356,-313.1397"/>
</g>
<!-- Node13 -->
<g id="node14" class="node">
<title>Node13</title>
<g id="a_node14"><a xlink:href="class_ogre_1_1_instance_batch_h_w.html" target="_top" xlink:title="This is technique requires true instancing hardware support. ">
<polygon fill="none" stroke="#000000" points="330.5,-295.5 330.5,-314.5 454.5,-314.5 454.5,-295.5 330.5,-295.5"/>
<text text-anchor="middle" x="392.5" y="-302.5" font-family="Helvetica,sans-Serif" font-size="10.00" fill="#000000">Ogre::InstanceBatchHW</text>
</a>
</g>
</g>
<!-- Node9&#45;&gt;Node13 -->
<g id="edge13" class="edge">
<title>Node9&#45;&gt;Node13</title>
<path fill="none" stroke="#191970" d="M268.3551,-305C288.32,-305 310.3141,-305 330.1726,-305"/>
<polygon fill="#191970" stroke="#191970" points="268.1217,-301.5001 258.1217,-305 268.1216,-308.5001 268.1217,-301.5001"/>
</g>
<!-- Node14 -->
<g id="node15" class="node">
<title>Node14</title>
<g id="a_node15"><a xlink:href="class_ogre_1_1_instance_batch_shader.html" target="_top" xlink:title="This is the same technique the old &quot;InstancedGeometry&quot; implementation used (with improvements). ">
<polygon fill="none" stroke="#000000" points="324,-257.5 324,-276.5 461,-276.5 461,-257.5 324,-257.5"/>
<text text-anchor="middle" x="392.5" y="-264.5" font-family="Helvetica,sans-Serif" font-size="10.00" fill="#000000">Ogre::InstanceBatchShader</text>
</a>
</g>
</g>
<!-- Node9&#45;&gt;Node14 -->
<g id="edge14" class="edge">
<title>Node9&#45;&gt;Node14</title>
<path fill="none" stroke="#191970" d="M261.9365,-293.3905C288.6744,-287.986 320.0879,-281.6365 345.4008,-276.5201"/>
<polygon fill="#191970" stroke="#191970" points="261.0487,-289.9991 251.9403,-295.411 262.4356,-296.8603 261.0487,-289.9991"/>
</g>
<!-- Node11 -->
<g id="node12" class="node">
<title>Node11</title>
<g id="a_node12"><a xlink:href="class_ogre_1_1_instance_batch_h_w___v_t_f.html" target="_top" xlink:title="Instancing implementation using vertex texture through Vertex Texture Fetch (VTF) and hardware instan...">
<polygon fill="none" stroke="#000000" points="505,-333.5 505,-352.5 653,-352.5 653,-333.5 505,-333.5"/>
<text text-anchor="middle" x="579" y="-340.5" font-family="Helvetica,sans-Serif" font-size="10.00" fill="#000000">Ogre::InstanceBatchHW_VTF</text>
</a>
</g>
</g>
<!-- Node10&#45;&gt;Node11 -->
<g id="edge11" class="edge">
<title>Node10&#45;&gt;Node11</title>
<path fill="none" stroke="#191970" d="M476.7848,-343C486.0966,-343 495.5287,-343 504.7052,-343"/>
<polygon fill="#191970" stroke="#191970" points="476.7457,-339.5001 466.7456,-343 476.7456,-346.5001 476.7457,-339.5001"/>
</g>
<!-- Node12 -->
<g id="node13" class="node">
<title>Node12</title>
<g id="a_node13"><a xlink:href="class_ogre_1_1_instance_batch_v_t_f.html" target="_top" xlink:title="Ogre::InstanceBatchVTF">
<polygon fill="none" stroke="#000000" points="516.5,-295.5 516.5,-314.5 641.5,-314.5 641.5,-295.5 516.5,-295.5"/>
<text text-anchor="middle" x="579" y="-302.5" font-family="Helvetica,sans-Serif" font-size="10.00" fill="#000000">Ogre::InstanceBatchVTF</text>
</a>
</g>
</g>
<!-- Node10&#45;&gt;Node12 -->
<g id="edge12" class="edge">
<title>Node10&#45;&gt;Node12</title>
<path fill="none" stroke="#191970" d="M449.4782,-331.3905C476.0028,-325.986 507.1657,-319.6365 532.2766,-314.5201"/>
<polygon fill="#191970" stroke="#191970" points="448.6617,-327.9849 439.5618,-333.411 450.0593,-334.8439 448.6617,-327.9849"/>
</g>
<!-- Node18 -->
<g id="node19" class="node">
<title>Node18</title>
<g id="a_node19"><a xlink:href="class_ogre_1_1_overlay_container.html" target="_top" xlink:title="A 2D element which contains other OverlayElement instances. ">
<polygon fill="none" stroke="#000000" points="333,-219.5 333,-238.5 452,-238.5 452,-219.5 333,-219.5"/>
<text text-anchor="middle" x="392.5" y="-226.5" font-family="Helvetica,sans-Serif" font-size="10.00" fill="#000000">Ogre::OverlayContainer</text>
</a>
</g>
</g>
<!-- Node17&#45;&gt;Node18 -->
<g id="edge18" class="edge">
<title>Node17&#45;&gt;Node18</title>
<path fill="none" stroke="#191970" d="M254.4945,-191.0177C263.0337,-193.2312 271.7937,-195.6034 280,-198 296.1892,-202.728 299.8035,-205.2971 316,-210 327.4335,-213.3199 339.9311,-216.5777 351.449,-219.4322"/>
<polygon fill="#191970" stroke="#191970" points="255.1728,-187.5787 244.6181,-188.5001 253.4437,-194.3618 255.1728,-187.5787"/>
</g>
<!-- Node21 -->
<g id="node22" class="node">
<title>Node21</title>
<g id="a_node22"><a xlink:href="class_ogre_1_1_text_area_overlay_element.html" target="_top" xlink:title="This class implements an overlay element which contains simple unformatted text. ">
<polygon fill="none" stroke="#000000" points="316,-181.5 316,-200.5 469,-200.5 469,-181.5 316,-181.5"/>
<text text-anchor="middle" x="392.5" y="-188.5" font-family="Helvetica,sans-Serif" font-size="10.00" fill="#000000">Ogre::TextAreaOverlayElement</text>
</a>
</g>
</g>
<!-- Node17&#45;&gt;Node21 -->
<g id="edge21" class="edge">
<title>Node17&#45;&gt;Node21</title>
<path fill="none" stroke="#191970" d="M271.4398,-183.2728C285.8092,-184.1899 301.1008,-185.166 315.8071,-186.1047"/>
<polygon fill="#191970" stroke="#191970" points="271.3638,-179.7609 261.1611,-182.6167 270.9179,-186.7467 271.3638,-179.7609"/>
</g>
<!-- Node19 -->
<g id="node20" class="node">
<title>Node19</title>
<g id="a_node20"><a xlink:href="class_ogre_1_1_panel_overlay_element.html" target="_top" xlink:title="OverlayElement representing a flat, single&#45;material (or transparent) panel which can contain other el...">
<polygon fill="none" stroke="#000000" points="510,-219.5 510,-238.5 648,-238.5 648,-219.5 510,-219.5"/>
<text text-anchor="middle" x="579" y="-226.5" font-family="Helvetica,sans-Serif" font-size="10.00" fill="#000000">Ogre::PanelOverlayElement</text>
</a>
</g>
</g>
<!-- Node18&#45;&gt;Node19 -->
<g id="edge19" class="edge">
<title>Node18&#45;&gt;Node19</title>
<path fill="none" stroke="#191970" d="M462.1409,-229C477.7768,-229 494.3606,-229 509.9714,-229"/>
<polygon fill="#191970" stroke="#191970" points="462.0226,-225.5001 452.0225,-229 462.0225,-232.5001 462.0226,-225.5001"/>
</g>
<!-- Node20 -->
<g id="node21" class="node">
<title>Node20</title>
<g id="a_node21"><a xlink:href="class_ogre_1_1_border_panel_overlay_element.html" target="_top" xlink:title="A specialisation of the PanelOverlayElement to provide a panel with a border. ">
<polygon fill="none" stroke="#000000" points="689,-214 689,-244 820,-244 820,-214 689,-214"/>
<text text-anchor="start" x="697" y="-232" font-family="Helvetica,sans-Serif" font-size="10.00" fill="#000000">Ogre::BorderPanelOverlay</text>
<text text-anchor="middle" x="754.5" y="-221" font-family="Helvetica,sans-Serif" font-size="10.00" fill="#000000">Element</text>
</a>
</g>
</g>
<!-- Node19&#45;&gt;Node20 -->
<g id="edge20" class="edge">
<title>Node19&#45;&gt;Node20</title>
<path fill="none" stroke="#191970" d="M658.2756,-229C668.5136,-229 678.9068,-229 688.891,-229"/>
<polygon fill="#191970" stroke="#191970" points="658.1104,-225.5001 648.1103,-229 658.1103,-232.5001 658.1104,-225.5001"/>
</g>
<!-- Node23 -->
<g id="node24" class="node">
<title>Node23</title>
<g id="a_node24"><a xlink:href="class_ogre_1_1_manual_object_1_1_manual_object_section_shadow_renderable.html" target="_top" xlink:title="Nested class to allow shadows. ">
<polygon fill="none" stroke="#000000" points="317,-121.5 317,-162.5 468,-162.5 468,-121.5 317,-121.5"/>
<text text-anchor="start" x="325" y="-150.5" font-family="Helvetica,sans-Serif" font-size="10.00" fill="#000000">Ogre::ManualObject</text>
<text text-anchor="start" x="325" y="-139.5" font-family="Helvetica,sans-Serif" font-size="10.00" fill="#000000">::ManualObjectSectionShadow</text>
<text text-anchor="middle" x="392.5" y="-128.5" font-family="Helvetica,sans-Serif" font-size="10.00" fill="#000000">Renderable</text>
</a>
</g>
</g>
<!-- Node22&#45;&gt;Node23 -->
<g id="edge23" class="edge">
<title>Node22&#45;&gt;Node23</title>
<path fill="none" stroke="#191970" d="M279.0183,-141.3964C291.4925,-141.4627 304.4453,-141.5316 316.9452,-141.5981"/>
<polygon fill="#191970" stroke="#191970" points="278.6916,-137.8947 268.6731,-141.3413 278.6543,-144.8946 278.6916,-137.8947"/>
</g>
<!-- Node25 -->
<g id="node26" class="node">
<title>Node25</title>
<g id="a_node26"><a xlink:href="class_ogre_1_1_rectangle2_d.html" target="_top" xlink:title="Allows the rendering of a simple 2D rectangle This class renders a simple 2D rectangle; this rectangl...">
<polygon fill="none" stroke="#000000" points="342,-83.5 342,-102.5 443,-102.5 443,-83.5 342,-83.5"/>
<text text-anchor="middle" x="392.5" y="-90.5" font-family="Helvetica,sans-Serif" font-size="10.00" fill="#000000">Ogre::Rectangle2D</text>
</a>
</g>
</g>
<!-- Node24&#45;&gt;Node25 -->
<g id="edge25" class="edge">
<title>Node24&#45;&gt;Node25</title>
<path fill="none" stroke="#191970" d="M276.2846,-96.0908C298.1198,-95.5101 321.6514,-94.8843 341.7909,-94.3486"/>
<polygon fill="#191970" stroke="#191970" points="275.9616,-92.5981 266.0582,-96.3628 276.1478,-99.5956 275.9616,-92.5981"/>
</g>
<!-- Node26 -->
<g id="node27" class="node">
<title>Node26</title>
<g id="a_node27"><a xlink:href="class_ogre_1_1_volume_1_1_chunk.html" target="_top" xlink:title="A single volume chunk mesh. ">
<polygon fill="none" stroke="#000000" points="337,-45.5 337,-64.5 448,-64.5 448,-45.5 337,-45.5"/>
<text text-anchor="middle" x="392.5" y="-52.5" font-family="Helvetica,sans-Serif" font-size="10.00" fill="#000000">Ogre::Volume::Chunk</text>
</a>
</g>
</g>
<!-- Node24&#45;&gt;Node26 -->
<g id="edge26" class="edge">
<title>Node24&#45;&gt;Node26</title>
<path fill="none" stroke="#191970" d="M256.0398,-86.2116C285.8721,-79.3883 322.9279,-70.9128 350.8933,-64.5164"/>
<polygon fill="#191970" stroke="#191970" points="255.1912,-82.8153 246.2233,-88.4569 256.752,-89.6391 255.1912,-82.8153"/>
</g>
<!-- Node27 -->
<g id="node28" class="node">
<title>Node27</title>
<g id="a_node28"><a xlink:href="class_ogre_1_1_wire_bounding_box.html" target="_top" xlink:title="Allows the rendering of a wireframe bounding box. ">
<polygon fill="none" stroke="#000000" points="331.5,-7.5 331.5,-26.5 453.5,-26.5 453.5,-7.5 331.5,-7.5"/>
<text text-anchor="middle" x="392.5" y="-14.5" font-family="Helvetica,sans-Serif" font-size="10.00" fill="#000000">Ogre::WireBoundingBox</text>
</a>
</g>
</g>
<!-- Node24&#45;&gt;Node27 -->
<g id="edge27" class="edge">
<title>Node24&#45;&gt;Node27</title>
<path fill="none" stroke="#191970" d="M269.2787,-84.6793C273.0124,-83.0051 276.6185,-81.1208 280,-79 301.1154,-65.7571 294.8641,-49.2102 316,-36 322.2665,-32.0834 329.2931,-28.9737 336.4804,-26.5048"/>
<polygon fill="#191970" stroke="#191970" points="267.8072,-81.4972 259.7896,-88.4231 270.3763,-88.0087 267.8072,-81.4972"/>
</g>
</g>
</svg>
