<?xml version="1.0" encoding="UTF-8" standalone="no"?>
<!DOCTYPE svg PUBLIC "-//W3C//DTD SVG 1.1//EN"
 "http://www.w3.org/Graphics/SVG/1.1/DTD/svg11.dtd">
<!-- Generated by graphviz version 2.40.1 (20161225.0304)
 -->
<!-- Title: Ogre::SmallVectorBase Pages: 1 -->
<svg width="812pt" height="314pt"
 viewBox="0.00 0.00 812.00 314.00" xmlns="http://www.w3.org/2000/svg" xmlns:xlink="http://www.w3.org/1999/xlink">
<g id="graph0" class="graph" transform="scale(1 1) rotate(0) translate(4 310)">
<title>Ogre::SmallVectorBase</title>
<!-- Node0 -->
<g id="node1" class="node">
<title>Node0</title>
<polygon fill="#bfbfbf" stroke="#000000" points="0,-112 0,-131 119,-131 119,-112 0,-112"/>
<text text-anchor="middle" x="59.5" y="-119" font-family="Helvetica,sans-Serif" font-size="10.00" fill="#000000">Ogre::SmallVectorBase</text>
</g>
<!-- Node1 -->
<g id="node2" class="node">
<title>Node1</title>
<g id="a_node2"><a xlink:href="class_ogre_1_1_small_vector_template_common.html" target="_top" xlink:title="Ogre::SmallVectorTemplate\lCommon\&lt; T \&gt;">
<polygon fill="none" stroke="#000000" points="155,-201.5 155,-231.5 292,-231.5 292,-201.5 155,-201.5"/>
<text text-anchor="start" x="163" y="-219.5" font-family="Helvetica,sans-Serif" font-size="10.00" fill="#000000">Ogre::SmallVectorTemplate</text>
<text text-anchor="middle" x="223.5" y="-208.5" font-family="Helvetica,sans-Serif" font-size="10.00" fill="#000000">Common&lt; T &gt;</text>
</a>
</g>
</g>
<!-- Node0&#45;&gt;Node1 -->
<g id="edge1" class="edge">
<title>Node0&#45;&gt;Node1</title>
<path fill="none" stroke="#191970" d="M84.9145,-136.2218C115.4921,-153.9345 166.5582,-183.5154 197.4266,-201.3965"/>
<polygon fill="#191970" stroke="#191970" points="86.5352,-133.1158 76.1277,-131.1319 83.0264,-139.173 86.5352,-133.1158"/>
</g>
<!-- Node10 -->
<g id="node10" class="node">
<title>Node10</title>
<g id="a_node10"><a xlink:href="class_ogre_1_1_small_vector_template_common.html" target="_top" xlink:title="Ogre::SmallVectorTemplate\lCommon\&lt; Edge \&gt;">
<polygon fill="none" stroke="#000000" points="155,-106.5 155,-136.5 292,-136.5 292,-106.5 155,-106.5"/>
<text text-anchor="start" x="163" y="-124.5" font-family="Helvetica,sans-Serif" font-size="10.00" fill="#000000">Ogre::SmallVectorTemplate</text>
<text text-anchor="middle" x="223.5" y="-113.5" font-family="Helvetica,sans-Serif" font-size="10.00" fill="#000000">Common&lt; Edge &gt;</text>
</a>
</g>
</g>
<!-- Node0&#45;&gt;Node10 -->
<g id="edge9" class="edge">
<title>Node0&#45;&gt;Node10</title>
<path fill="none" stroke="#191970" d="M129.3958,-121.5C137.87,-121.5 146.5205,-121.5 154.9746,-121.5"/>
<polygon fill="#191970" stroke="#191970" points="129.1717,-118.0001 119.1717,-121.5 129.1717,-125.0001 129.1717,-118.0001"/>
</g>
<!-- Node15 -->
<g id="node14" class="node">
<title>Node15</title>
<g id="a_node14"><a xlink:href="class_ogre_1_1_small_vector_template_common.html" target="_top" xlink:title="Ogre::SmallVectorTemplate\lCommon\&lt; Triangle * \&gt;">
<polygon fill="none" stroke="#000000" points="155,-52.5 155,-82.5 292,-82.5 292,-52.5 155,-52.5"/>
<text text-anchor="start" x="163" y="-70.5" font-family="Helvetica,sans-Serif" font-size="10.00" fill="#000000">Ogre::SmallVectorTemplate</text>
<text text-anchor="middle" x="223.5" y="-59.5" font-family="Helvetica,sans-Serif" font-size="10.00" fill="#000000">Common&lt; Triangle * &gt;</text>
</a>
</g>
</g>
<!-- Node0&#45;&gt;Node15 -->
<g id="edge13" class="edge">
<title>Node0&#45;&gt;Node15</title>
<path fill="none" stroke="#191970" d="M98.211,-108.7537C122.0689,-100.8981 152.7808,-90.7856 177.8262,-82.5389"/>
<polygon fill="#191970" stroke="#191970" points="96.8461,-105.5182 88.4424,-111.9702 99.0354,-112.167 96.8461,-105.5182"/>
</g>
<!-- Node2 -->
<g id="node3" class="node">
<title>Node2</title>
<g id="a_node3"><a xlink:href="class_ogre_1_1_small_vector_template_base.html" target="_top" xlink:title="SmallVectorTemplateBase&lt;isPodLike = false&gt; &#45; This is where we put method implementations that are des...">
<polygon fill="none" stroke="#000000" points="331,-275.5 331,-305.5 468,-305.5 468,-275.5 331,-275.5"/>
<text text-anchor="start" x="339" y="-293.5" font-family="Helvetica,sans-Serif" font-size="10.00" fill="#000000">Ogre::SmallVectorTemplate</text>
<text text-anchor="middle" x="399.5" y="-282.5" font-family="Helvetica,sans-Serif" font-size="10.00" fill="#000000">Base&lt; T &gt;</text>
</a>
</g>
</g>
<!-- Node1&#45;&gt;Node2 -->
<g id="edge2" class="edge">
<title>Node1&#45;&gt;Node2</title>
<path fill="none" stroke="#191970" d="M261.972,-236.2982C281.4953,-245.987 305.7346,-257.476 328,-266.5 335.6451,-269.5985 343.8575,-272.6254 351.8951,-275.4284"/>
<polygon fill="#191970" stroke="#191970" points="263.3049,-233.0515 252.7959,-231.7052 260.1716,-239.3111 263.3049,-233.0515"/>
</g>
<!-- Node3 -->
<g id="node4" class="node">
<title>Node3</title>
<g id="a_node4"><a xlink:href="class_ogre_1_1_small_vector_template_base_3_01_t_00_01true_01_4.html" target="_top" xlink:title="SmallVectorTemplateBase&lt;isPodLike = true&gt; &#45; This is where we put method implementations that are desi...">
<polygon fill="none" stroke="#000000" points="331,-226.5 331,-256.5 468,-256.5 468,-226.5 331,-226.5"/>
<text text-anchor="start" x="339" y="-244.5" font-family="Helvetica,sans-Serif" font-size="10.00" fill="#000000">Ogre::SmallVectorTemplate</text>
<text text-anchor="middle" x="399.5" y="-233.5" font-family="Helvetica,sans-Serif" font-size="10.00" fill="#000000">Base&lt; T, true &gt;</text>
</a>
</g>
</g>
<!-- Node1&#45;&gt;Node3 -->
<g id="edge3" class="edge">
<title>Node1&#45;&gt;Node3</title>
<path fill="none" stroke="#191970" d="M301.9988,-227.6504C311.6174,-229.0167 321.3893,-230.4047 330.8474,-231.7482"/>
<polygon fill="#191970" stroke="#191970" points="302.443,-224.1784 292.0502,-226.2372 301.4585,-231.1089 302.443,-224.1784"/>
</g>
<!-- Node4 -->
<g id="node5" class="node">
<title>Node4</title>
<g id="a_node5"><a xlink:href="class_ogre_1_1_small_vector_template_base.html" target="_top" xlink:title="SmallVectorTemplateBase\l\&lt; T, isPodLike\&lt; T \&gt;::value \&gt;">
<polygon fill="none" stroke="#000000" points="328,-177.5 328,-207.5 471,-207.5 471,-177.5 328,-177.5"/>
<text text-anchor="start" x="336" y="-195.5" font-family="Helvetica,sans-Serif" font-size="10.00" fill="#000000">SmallVectorTemplateBase</text>
<text text-anchor="middle" x="399.5" y="-184.5" font-family="Helvetica,sans-Serif" font-size="10.00" fill="#000000">&lt; T, isPodLike&lt; T &gt;::value &gt;</text>
</a>
</g>
</g>
<!-- Node1&#45;&gt;Node4 -->
<g id="edge4" class="edge">
<title>Node1&#45;&gt;Node4</title>
<path fill="none" stroke="#191970" d="M302.0816,-205.7843C310.6916,-204.6102 319.4233,-203.4196 327.9418,-202.2579"/>
<polygon fill="#191970" stroke="#191970" points="301.4855,-202.3331 292.0502,-207.1523 302.4314,-209.2689 301.4855,-202.3331"/>
</g>
<!-- Node5 -->
<g id="node6" class="node">
<title>Node5</title>
<g id="a_node6"><a xlink:href="class_ogre_1_1_small_vector_impl.html" target="_top" xlink:title="SmallVectorImpl &#45; This class consists of common code factored out of the SmallVector class to reduce ...">
<polygon fill="none" stroke="#000000" points="507,-186 507,-205 647,-205 647,-186 507,-186"/>
<text text-anchor="middle" x="577" y="-193" font-family="Helvetica,sans-Serif" font-size="10.00" fill="#000000">Ogre::SmallVectorImpl&lt; T &gt;</text>
</a>
</g>
</g>
<!-- Node4&#45;&gt;Node5 -->
<g id="edge5" class="edge">
<title>Node4&#45;&gt;Node5</title>
<path fill="none" stroke="#191970" d="M481.4467,-193.885C489.9108,-194.0281 498.4579,-194.1725 506.7776,-194.3131"/>
<polygon fill="#191970" stroke="#191970" points="481.2422,-190.3812 471.1844,-193.7116 481.1238,-197.3802 481.2422,-190.3812"/>
</g>
<!-- Node6 -->
<g id="node7" class="node">
<title>Node6</title>
<g id="a_node7"><a xlink:href="class_ogre_1_1_small_vector.html" target="_top" xlink:title="SmallVector &#45; This is a &#39;vector&#39; (really, a variable&#45;sized array), optimized for the case when the ar...">
<polygon fill="none" stroke="#000000" points="683,-236 683,-255 804,-255 804,-236 683,-236"/>
<text text-anchor="middle" x="743.5" y="-243" font-family="Helvetica,sans-Serif" font-size="10.00" fill="#000000">Ogre::SmallVector&lt; T &gt;</text>
</a>
</g>
</g>
<!-- Node5&#45;&gt;Node6 -->
<g id="edge6" class="edge">
<title>Node5&#45;&gt;Node6</title>
<path fill="none" stroke="#191970" d="M618.4962,-207.9613C647.3223,-216.6178 685.1606,-227.9807 711.6256,-235.9281"/>
<polygon fill="#191970" stroke="#191970" points="619.2934,-204.5464 608.7093,-205.0223 617.2801,-211.2506 619.2934,-204.5464"/>
</g>
<!-- Node7 -->
<g id="node8" class="node">
<title>Node7</title>
<g id="a_node8"><a xlink:href="class_ogre_1_1_small_vector_3_01_t_00_010_01_4.html" target="_top" xlink:title="Specialize SmallVector at N=0. ">
<polygon fill="none" stroke="#000000" points="692,-186.5 692,-216.5 795,-216.5 795,-186.5 692,-186.5"/>
<text text-anchor="start" x="700" y="-204.5" font-family="Helvetica,sans-Serif" font-size="10.00" fill="#000000">Ogre::SmallVector&lt;</text>
<text text-anchor="middle" x="743.5" y="-193.5" font-family="Helvetica,sans-Serif" font-size="10.00" fill="#000000"> T, 0 &gt;</text>
</a>
</g>
</g>
<!-- Node5&#45;&gt;Node7 -->
<g id="edge7" class="edge">
<title>Node5&#45;&gt;Node7</title>
<path fill="none" stroke="#191970" d="M657.4036,-198.3974C669.1449,-198.8205 680.9618,-199.2464 691.9186,-199.6412"/>
<polygon fill="#191970" stroke="#191970" points="657.248,-194.8896 647.1284,-198.0272 656.9959,-201.8851 657.248,-194.8896"/>
</g>
<!-- Node8 -->
<g id="node9" class="node">
<title>Node8</title>
<g id="a_node9"><a xlink:href="class_ogre_1_1_small_vector.html" target="_top" xlink:title="SmallVector\&lt; T, S \&gt;">
<polygon fill="none" stroke="#ff0000" points="690,-148 690,-167 797,-167 797,-148 690,-148"/>
<text text-anchor="middle" x="743.5" y="-155" font-family="Helvetica,sans-Serif" font-size="10.00" fill="#000000">SmallVector&lt; T, S &gt;</text>
</a>
</g>
</g>
<!-- Node5&#45;&gt;Node8 -->
<g id="edge8" class="edge">
<title>Node5&#45;&gt;Node8</title>
<path fill="none" stroke="#191970" d="M628.809,-183.6757C652.2825,-178.3184 679.6654,-172.0689 701.7871,-167.0201"/>
<polygon fill="#191970" stroke="#191970" points="627.9855,-180.2736 619.015,-185.911 629.5431,-187.0981 627.9855,-180.2736"/>
</g>
<!-- Node11 -->
<g id="node11" class="node">
<title>Node11</title>
<g id="a_node11"><a xlink:href="class_ogre_1_1_small_vector_template_base.html" target="_top" xlink:title="Ogre::SmallVectorTemplate\lBase\&lt; Edge, isPodLike\&lt;\l Edge \&gt;::value \&gt;">
<polygon fill="none" stroke="#000000" points="331,-101 331,-142 468,-142 468,-101 331,-101"/>
<text text-anchor="start" x="339" y="-130" font-family="Helvetica,sans-Serif" font-size="10.00" fill="#000000">Ogre::SmallVectorTemplate</text>
<text text-anchor="start" x="339" y="-119" font-family="Helvetica,sans-Serif" font-size="10.00" fill="#000000">Base&lt; Edge, isPodLike&lt;</text>
<text text-anchor="middle" x="399.5" y="-108" font-family="Helvetica,sans-Serif" font-size="10.00" fill="#000000"> Edge &gt;::value &gt;</text>
</a>
</g>
</g>
<!-- Node10&#45;&gt;Node11 -->
<g id="edge10" class="edge">
<title>Node10&#45;&gt;Node11</title>
<path fill="none" stroke="#191970" d="M302.3026,-121.5C311.8231,-121.5 321.4888,-121.5 330.8474,-121.5"/>
<polygon fill="#191970" stroke="#191970" points="302.0502,-118.0001 292.0502,-121.5 302.0501,-125.0001 302.0502,-118.0001"/>
</g>
<!-- Node12 -->
<g id="node12" class="node">
<title>Node12</title>
<g id="a_node12"><a xlink:href="class_ogre_1_1_small_vector_impl.html" target="_top" xlink:title="Ogre::SmallVectorImpl\l\&lt; Edge \&gt;">
<polygon fill="none" stroke="#000000" points="519,-103.5 519,-133.5 635,-133.5 635,-103.5 519,-103.5"/>
<text text-anchor="start" x="527" y="-121.5" font-family="Helvetica,sans-Serif" font-size="10.00" fill="#000000">Ogre::SmallVectorImpl</text>
<text text-anchor="middle" x="577" y="-110.5" font-family="Helvetica,sans-Serif" font-size="10.00" fill="#000000">&lt; Edge &gt;</text>
</a>
</g>
</g>
<!-- Node11&#45;&gt;Node12 -->
<g id="edge11" class="edge">
<title>Node11&#45;&gt;Node12</title>
<path fill="none" stroke="#191970" d="M478.455,-120.1655C492.0695,-119.9354 505.9954,-119.7001 518.9298,-119.4815"/>
<polygon fill="#191970" stroke="#191970" points="478.0655,-116.6715 468.1261,-120.3401 478.1839,-123.6705 478.0655,-116.6715"/>
</g>
<!-- Node13 -->
<g id="node13" class="node">
<title>Node13</title>
<g id="a_node13"><a xlink:href="class_ogre_1_1_small_vector.html" target="_top" xlink:title="Ogre::SmallVector\&lt;\l Edge, S \&gt;">
<polygon fill="none" stroke="#ff0000" points="692,-98.5 692,-128.5 795,-128.5 795,-98.5 692,-98.5"/>
<text text-anchor="start" x="700" y="-116.5" font-family="Helvetica,sans-Serif" font-size="10.00" fill="#000000">Ogre::SmallVector&lt;</text>
<text text-anchor="middle" x="743.5" y="-105.5" font-family="Helvetica,sans-Serif" font-size="10.00" fill="#000000"> Edge, S &gt;</text>
</a>
</g>
</g>
<!-- Node12&#45;&gt;Node13 -->
<g id="edge12" class="edge">
<title>Node12&#45;&gt;Node13</title>
<path fill="none" stroke="#191970" d="M645.3438,-116.4476C660.9231,-115.9798 677.2223,-115.4903 691.9622,-115.0477"/>
<polygon fill="#191970" stroke="#191970" points="645.124,-112.9526 635.2336,-116.7512 645.3342,-119.9494 645.124,-112.9526"/>
</g>
<!-- Node16 -->
<g id="node15" class="node">
<title>Node16</title>
<g id="a_node15"><a xlink:href="class_ogre_1_1_small_vector_template_base.html" target="_top" xlink:title="Ogre::SmallVectorTemplate\lBase\&lt; Triangle *, isPodLike\l\&lt; Triangle * \&gt;::value \&gt;">
<polygon fill="none" stroke="#000000" points="330.5,-41 330.5,-82 468.5,-82 468.5,-41 330.5,-41"/>
<text text-anchor="start" x="338.5" y="-70" font-family="Helvetica,sans-Serif" font-size="10.00" fill="#000000">Ogre::SmallVectorTemplate</text>
<text text-anchor="start" x="338.5" y="-59" font-family="Helvetica,sans-Serif" font-size="10.00" fill="#000000">Base&lt; Triangle *, isPodLike</text>
<text text-anchor="middle" x="399.5" y="-48" font-family="Helvetica,sans-Serif" font-size="10.00" fill="#000000">&lt; Triangle * &gt;::value &gt;</text>
</a>
</g>
</g>
<!-- Node15&#45;&gt;Node16 -->
<g id="edge14" class="edge">
<title>Node15&#45;&gt;Node16</title>
<path fill="none" stroke="#191970" d="M302.1461,-64.8189C311.5208,-64.4993 321.0387,-64.1748 330.2678,-63.8602"/>
<polygon fill="#191970" stroke="#191970" points="301.9251,-61.3243 292.0502,-65.1631 302.1636,-68.3202 301.9251,-61.3243"/>
</g>
<!-- Node17 -->
<g id="node16" class="node">
<title>Node17</title>
<g id="a_node16"><a xlink:href="class_ogre_1_1_small_vector_impl.html" target="_top" xlink:title="Ogre::SmallVectorImpl\l\&lt; Triangle * \&gt;">
<polygon fill="none" stroke="#000000" points="519,-49.5 519,-79.5 635,-79.5 635,-49.5 519,-49.5"/>
<text text-anchor="start" x="527" y="-67.5" font-family="Helvetica,sans-Serif" font-size="10.00" fill="#000000">Ogre::SmallVectorImpl</text>
<text text-anchor="middle" x="577" y="-56.5" font-family="Helvetica,sans-Serif" font-size="10.00" fill="#000000">&lt; Triangle * &gt;</text>
</a>
</g>
</g>
<!-- Node16&#45;&gt;Node17 -->
<g id="edge15" class="edge">
<title>Node16&#45;&gt;Node17</title>
<path fill="none" stroke="#191970" d="M478.8767,-62.8416C492.3724,-63.0697 506.1605,-63.3027 518.9739,-63.5193"/>
<polygon fill="#191970" stroke="#191970" points="478.6921,-59.3381 468.6344,-62.6685 478.5738,-66.3371 478.6921,-59.3381"/>
</g>
<!-- Node20 -->
<g id="node18" class="node">
<title>Node20</title>
<g id="a_node18"><a xlink:href="class_ogre_1_1_small_vector_impl.html" target="_top" xlink:title="Ogre::SmallVectorImpl\l\&lt; Triangle *\&gt;">
<polygon fill="none" stroke="#000000" points="519,-.5 519,-30.5 635,-30.5 635,-.5 519,-.5"/>
<text text-anchor="start" x="527" y="-18.5" font-family="Helvetica,sans-Serif" font-size="10.00" fill="#000000">Ogre::SmallVectorImpl</text>
<text text-anchor="middle" x="577" y="-7.5" font-family="Helvetica,sans-Serif" font-size="10.00" fill="#000000">&lt; Triangle *&gt;</text>
</a>
</g>
</g>
<!-- Node16&#45;&gt;Node20 -->
<g id="edge17" class="edge">
<title>Node16&#45;&gt;Node20</title>
<path fill="none" stroke="#191970" d="M478.4798,-41.032C492.102,-37.5017 506.0349,-33.891 518.9739,-30.5377"/>
<polygon fill="#191970" stroke="#191970" points="477.4365,-37.6867 468.6344,-43.5835 479.1927,-44.4628 477.4365,-37.6867"/>
</g>
<!-- Node18 -->
<g id="node17" class="node">
<title>Node18</title>
<g id="a_node17"><a xlink:href="class_ogre_1_1_small_vector.html" target="_top" xlink:title="Ogre::SmallVector\&lt;\l Triangle *, S \&gt;">
<polygon fill="none" stroke="#ff0000" points="692,-49.5 692,-79.5 795,-79.5 795,-49.5 692,-49.5"/>
<text text-anchor="start" x="700" y="-67.5" font-family="Helvetica,sans-Serif" font-size="10.00" fill="#000000">Ogre::SmallVector&lt;</text>
<text text-anchor="middle" x="743.5" y="-56.5" font-family="Helvetica,sans-Serif" font-size="10.00" fill="#000000"> Triangle *, S &gt;</text>
</a>
</g>
</g>
<!-- Node17&#45;&gt;Node18 -->
<g id="edge16" class="edge">
<title>Node17&#45;&gt;Node18</title>
<path fill="none" stroke="#191970" d="M645.3438,-64.5C660.9231,-64.5 677.2223,-64.5 691.9622,-64.5"/>
<polygon fill="#191970" stroke="#191970" points="645.2337,-61.0001 635.2336,-64.5 645.2336,-68.0001 645.2337,-61.0001"/>
</g>
</g>
</svg>
