<?xml version="1.0" encoding="UTF-8" standalone="no"?>
<!DOCTYPE svg PUBLIC "-//W3C//DTD SVG 1.1//EN"
 "http://www.w3.org/Graphics/SVG/1.1/DTD/svg11.dtd">
<!-- Generated by graphviz version 2.40.1 (20161225.0304)
 -->
<!-- Title: Ogre::AbstractNode Pages: 1 -->
<svg width="454pt" height="180pt"
 viewBox="0.00 0.00 454.00 180.00" xmlns="http://www.w3.org/2000/svg" xmlns:xlink="http://www.w3.org/1999/xlink">
<g id="graph0" class="graph" transform="scale(1 1) rotate(0) translate(4 176)">
<title>Ogre::AbstractNode</title>
<!-- Node0 -->
<g id="node1" class="node">
<title>Node0</title>
<polygon fill="#bfbfbf" stroke="#000000" points="134,-76.5 134,-95.5 238,-95.5 238,-76.5 134,-76.5"/>
<text text-anchor="middle" x="186" y="-83.5" font-family="Helvetica,sans-Serif" font-size="10.00" fill="#000000">Ogre::AbstractNode</text>
</g>
<!-- Node2 -->
<g id="node3" class="node">
<title>Node2</title>
<g id="a_node3"><a xlink:href="class_ogre_1_1_atom_abstract_node.html" target="_top" xlink:title="This is an abstract node which cannot be broken down further. ">
<polygon fill="none" stroke="#000000" points="296.5,-152.5 296.5,-171.5 423.5,-171.5 423.5,-152.5 296.5,-152.5"/>
<text text-anchor="middle" x="360" y="-159.5" font-family="Helvetica,sans-Serif" font-size="10.00" fill="#000000">Ogre::AtomAbstractNode</text>
</a>
</g>
</g>
<!-- Node0&#45;&gt;Node2 -->
<g id="edge2" class="edge">
<title>Node0&#45;&gt;Node2</title>
<path fill="none" stroke="#191970" d="M205.8545,-101.8385C222.9704,-114.7361 248.8311,-132.4741 274,-143 283.1693,-146.8347 293.2266,-149.947 303.1299,-152.4565"/>
<polygon fill="#191970" stroke="#191970" points="207.8098,-98.9267 197.7511,-95.5989 203.5391,-104.473 207.8098,-98.9267"/>
</g>
<!-- Node3 -->
<g id="node4" class="node">
<title>Node3</title>
<g id="a_node4"><a xlink:href="class_ogre_1_1_import_abstract_node.html" target="_top" xlink:title="This abstract node represents an import statement. ">
<polygon fill="none" stroke="#000000" points="294.5,-114.5 294.5,-133.5 425.5,-133.5 425.5,-114.5 294.5,-114.5"/>
<text text-anchor="middle" x="360" y="-121.5" font-family="Helvetica,sans-Serif" font-size="10.00" fill="#000000">Ogre::ImportAbstractNode</text>
</a>
</g>
</g>
<!-- Node0&#45;&gt;Node3 -->
<g id="edge3" class="edge">
<title>Node0&#45;&gt;Node3</title>
<path fill="none" stroke="#191970" d="M239.8144,-97.7526C264.418,-103.1258 293.1867,-109.4086 316.4082,-114.4799"/>
<polygon fill="#191970" stroke="#191970" points="240.4241,-94.3033 229.9075,-95.589 238.9305,-101.1421 240.4241,-94.3033"/>
</g>
<!-- Node4 -->
<g id="node5" class="node">
<title>Node4</title>
<g id="a_node5"><a xlink:href="class_ogre_1_1_object_abstract_node.html" target="_top" xlink:title="This specific abstract node represents a script object. ">
<polygon fill="none" stroke="#000000" points="294,-76.5 294,-95.5 426,-95.5 426,-76.5 294,-76.5"/>
<text text-anchor="middle" x="360" y="-83.5" font-family="Helvetica,sans-Serif" font-size="10.00" fill="#000000">Ogre::ObjectAbstractNode</text>
</a>
</g>
</g>
<!-- Node0&#45;&gt;Node4 -->
<g id="edge4" class="edge">
<title>Node0&#45;&gt;Node4</title>
<path fill="none" stroke="#191970" d="M248.2737,-86C263.0912,-86 278.9523,-86 293.9331,-86"/>
<polygon fill="#191970" stroke="#191970" points="248.2058,-82.5001 238.2057,-86 248.2057,-89.5001 248.2058,-82.5001"/>
</g>
<!-- Node5 -->
<g id="node6" class="node">
<title>Node5</title>
<g id="a_node6"><a xlink:href="class_ogre_1_1_property_abstract_node.html" target="_top" xlink:title="This abstract node represents a script property. ">
<polygon fill="none" stroke="#000000" points="290,-38.5 290,-57.5 430,-57.5 430,-38.5 290,-38.5"/>
<text text-anchor="middle" x="360" y="-45.5" font-family="Helvetica,sans-Serif" font-size="10.00" fill="#000000">Ogre::PropertyAbstractNode</text>
</a>
</g>
</g>
<!-- Node0&#45;&gt;Node5 -->
<g id="edge5" class="edge">
<title>Node0&#45;&gt;Node5</title>
<path fill="none" stroke="#191970" d="M239.8144,-74.2474C264.418,-68.8742 293.1867,-62.5914 316.4082,-57.5201"/>
<polygon fill="#191970" stroke="#191970" points="238.9305,-70.8579 229.9075,-76.411 240.4241,-77.6967 238.9305,-70.8579"/>
</g>
<!-- Node6 -->
<g id="node7" class="node">
<title>Node6</title>
<g id="a_node7"><a xlink:href="class_ogre_1_1_variable_access_abstract_node.html" target="_top" xlink:title="This abstract node represents a variable assignment. ">
<polygon fill="none" stroke="#000000" points="274,-.5 274,-19.5 446,-19.5 446,-.5 274,-.5"/>
<text text-anchor="middle" x="360" y="-7.5" font-family="Helvetica,sans-Serif" font-size="10.00" fill="#000000">Ogre::VariableAccessAbstractNode</text>
</a>
</g>
</g>
<!-- Node0&#45;&gt;Node6 -->
<g id="edge6" class="edge">
<title>Node0&#45;&gt;Node6</title>
<path fill="none" stroke="#191970" d="M205.8545,-70.1615C222.9704,-57.2639 248.8311,-39.5259 274,-29 283.1693,-25.1653 293.2266,-22.053 303.1299,-19.5435"/>
<polygon fill="#191970" stroke="#191970" points="203.5391,-67.527 197.7511,-76.4011 207.8098,-73.0733 203.5391,-67.527"/>
</g>
<!-- Node1 -->
<g id="node2" class="node">
<title>Node1</title>
<g id="a_node2"><a xlink:href="class_ogre_1_1_allocated_object.html" target="_top" xlink:title="AbstractNodeAlloc">
<polygon fill="none" stroke="#000000" points="0,-76.5 0,-95.5 98,-95.5 98,-76.5 0,-76.5"/>
<text text-anchor="middle" x="49" y="-83.5" font-family="Helvetica,sans-Serif" font-size="10.00" fill="#000000">AbstractNodeAlloc</text>
</a>
</g>
</g>
<!-- Node1&#45;&gt;Node0 -->
<g id="edge1" class="edge">
<title>Node1&#45;&gt;Node0</title>
<path fill="none" stroke="#191970" d="M108.2254,-86C116.6549,-86 125.2753,-86 133.5632,-86"/>
<polygon fill="#191970" stroke="#191970" points="108.0732,-82.5001 98.0732,-86 108.0731,-89.5001 108.0732,-82.5001"/>
</g>
</g>
</svg>
