<?xml version="1.0" encoding="UTF-8" standalone="no"?>
<!DOCTYPE svg PUBLIC "-//W3C//DTD SVG 1.1//EN"
 "http://www.w3.org/Graphics/SVG/1.1/DTD/svg11.dtd">
<!-- Generated by graphviz version 2.40.1 (20161225.0304)
 -->
<!-- Title: Ogre::RibbonTrailFactory Pages: 1 -->
<svg width="150pt" height="140pt"
 viewBox="0.00 0.00 150.00 140.00" xmlns="http://www.w3.org/2000/svg" xmlns:xlink="http://www.w3.org/1999/xlink">
<g id="graph0" class="graph" transform="scale(1 1) rotate(0) translate(4 136)">
<title>Ogre::RibbonTrailFactory</title>
<!-- Node0 -->
<g id="node1" class="node">
<title>Node0</title>
<polygon fill="#bfbfbf" stroke="#000000" points="8,-.5 8,-19.5 134,-19.5 134,-.5 8,-.5"/>
<text text-anchor="middle" x="71" y="-7.5" font-family="Helvetica,sans-Serif" font-size="10.00" fill="#000000">Ogre::RibbonTrailFactory</text>
</g>
<!-- Node1 -->
<g id="node2" class="node">
<title>Node1</title>
<g id="a_node2"><a xlink:href="class_ogre_1_1_movable_object_factory.html" target="_top" xlink:title="Interface definition for a factory class which produces a certain kind of MovableObject, and can be registered with Root in order to allow all clients to produce new instances of this object, integrated with the standard Ogre processing. ">
<polygon fill="none" stroke="#000000" points="0,-56.5 0,-75.5 142,-75.5 142,-56.5 0,-56.5"/>
<text text-anchor="middle" x="71" y="-63.5" font-family="Helvetica,sans-Serif" font-size="10.00" fill="#000000">Ogre::MovableObjectFactory</text>
</a>
</g>
</g>
<!-- Node1&#45;&gt;Node0 -->
<g id="edge1" class="edge">
<title>Node1&#45;&gt;Node0</title>
<path fill="none" stroke="#191970" d="M71,-46.1575C71,-37.155 71,-26.9199 71,-19.6427"/>
<polygon fill="#191970" stroke="#191970" points="67.5001,-46.2455 71,-56.2455 74.5001,-46.2456 67.5001,-46.2455"/>
</g>
<!-- Node2 -->
<g id="node3" class="node">
<title>Node2</title>
<g id="a_node3"><a xlink:href="class_ogre_1_1_allocated_object.html" target="_top" xlink:title="MovableAlloc">
<polygon fill="none" stroke="#000000" points="33.5,-112.5 33.5,-131.5 108.5,-131.5 108.5,-112.5 33.5,-112.5"/>
<text text-anchor="middle" x="71" y="-119.5" font-family="Helvetica,sans-Serif" font-size="10.00" fill="#000000">MovableAlloc</text>
</a>
</g>
</g>
<!-- Node2&#45;&gt;Node1 -->
<g id="edge2" class="edge">
<title>Node2&#45;&gt;Node1</title>
<path fill="none" stroke="#191970" d="M71,-102.1575C71,-93.155 71,-82.9199 71,-75.6427"/>
<polygon fill="#191970" stroke="#191970" points="67.5001,-102.2455 71,-112.2455 74.5001,-102.2456 67.5001,-102.2455"/>
</g>
</g>
</svg>
