<?xml version="1.0" encoding="UTF-8" standalone="no"?>
<!DOCTYPE svg PUBLIC "-//W3C//DTD SVG 1.1//EN"
 "http://www.w3.org/Graphics/SVG/1.1/DTD/svg11.dtd">
<!-- Generated by graphviz version 2.40.1 (20161225.0304)
 -->
<!-- Title: Ogre::RTShader::FunctionAtom Pages: 1 -->
<svg width="378pt" height="207pt"
 viewBox="0.00 0.00 378.00 207.00" xmlns="http://www.w3.org/2000/svg" xmlns:xlink="http://www.w3.org/1999/xlink">
<g id="graph0" class="graph" transform="scale(1 1) rotate(0) translate(4 203)">
<title>Ogre::RTShader::FunctionAtom</title>
<!-- Node0 -->
<g id="node1" class="node">
<title>Node0</title>
<polygon fill="#bfbfbf" stroke="#000000" points="104,-123.5 104,-142.5 259,-142.5 259,-123.5 104,-123.5"/>
<text text-anchor="middle" x="181.5" y="-130.5" font-family="Helvetica,sans-Serif" font-size="10.00" fill="#000000">Ogre::RTShader::FunctionAtom</text>
</g>
<!-- Node2 -->
<g id="node3" class="node">
<title>Node2</title>
<g id="a_node3"><a xlink:href="class_ogre_1_1_r_t_shader_1_1_function_invocation.html" target="_top" xlink:title="A class that represents function invocation code from shader based program function. ">
<polygon fill="none" stroke="#000000" points="116,-56.5 116,-86.5 247,-86.5 247,-56.5 116,-56.5"/>
<text text-anchor="start" x="124" y="-74.5" font-family="Helvetica,sans-Serif" font-size="10.00" fill="#000000">Ogre::RTShader::Function</text>
<text text-anchor="middle" x="181.5" y="-63.5" font-family="Helvetica,sans-Serif" font-size="10.00" fill="#000000">Invocation</text>
</a>
</g>
</g>
<!-- Node0&#45;&gt;Node2 -->
<g id="edge2" class="edge">
<title>Node0&#45;&gt;Node2</title>
<path fill="none" stroke="#191970" d="M181.5,-113.3693C181.5,-104.681 181.5,-94.6241 181.5,-86.5446"/>
<polygon fill="#191970" stroke="#191970" points="178.0001,-113.3906 181.5,-123.3906 185.0001,-113.3907 178.0001,-113.3906"/>
</g>
<!-- Node1 -->
<g id="node2" class="node">
<title>Node1</title>
<g id="a_node2"><a xlink:href="class_ogre_1_1_allocated_object.html" target="_top" xlink:title="RTShaderSystemAlloc">
<polygon fill="none" stroke="#000000" points="123.5,-179.5 123.5,-198.5 239.5,-198.5 239.5,-179.5 123.5,-179.5"/>
<text text-anchor="middle" x="181.5" y="-186.5" font-family="Helvetica,sans-Serif" font-size="10.00" fill="#000000">RTShaderSystemAlloc</text>
</a>
</g>
</g>
<!-- Node1&#45;&gt;Node0 -->
<g id="edge1" class="edge">
<title>Node1&#45;&gt;Node0</title>
<path fill="none" stroke="#191970" d="M181.5,-169.1575C181.5,-160.155 181.5,-149.9199 181.5,-142.6427"/>
<polygon fill="#191970" stroke="#191970" points="178.0001,-169.2455 181.5,-179.2455 185.0001,-169.2456 178.0001,-169.2455"/>
</g>
<!-- Node3 -->
<g id="node4" class="node">
<title>Node3</title>
<g id="a_node4"><a xlink:href="class_ogre_1_1_r_t_shader_1_1_assignment_atom.html" target="_top" xlink:title="shorthand for &quot;lhs = rhs;&quot; insted of using FFP_Assign(rhs, lhs) ">
<polygon fill="none" stroke="#000000" points="0,-.5 0,-19.5 169,-19.5 169,-.5 0,-.5"/>
<text text-anchor="middle" x="84.5" y="-7.5" font-family="Helvetica,sans-Serif" font-size="10.00" fill="#000000">Ogre::RTShader::AssignmentAtom</text>
</a>
</g>
</g>
<!-- Node2&#45;&gt;Node3 -->
<g id="edge3" class="edge">
<title>Node2&#45;&gt;Node3</title>
<path fill="none" stroke="#191970" d="M148.6602,-50.6789C132.1005,-40.1797 112.8122,-27.9505 99.7413,-19.6633"/>
<polygon fill="#191970" stroke="#191970" points="147.2027,-53.899 157.5225,-56.2977 150.951,-47.9871 147.2027,-53.899"/>
</g>
<!-- Node4 -->
<g id="node5" class="node">
<title>Node4</title>
<g id="a_node5"><a xlink:href="class_ogre_1_1_r_t_shader_1_1_sample_texture_atom.html" target="_top" xlink:title="shorthand for &quot;dst = texture(sampler, uv);&quot; instead of using FFP_SampleTexture ">
<polygon fill="none" stroke="#000000" points="187,-.5 187,-19.5 370,-19.5 370,-.5 187,-.5"/>
<text text-anchor="middle" x="278.5" y="-7.5" font-family="Helvetica,sans-Serif" font-size="10.00" fill="#000000">Ogre::RTShader::SampleTextureAtom</text>
</a>
</g>
</g>
<!-- Node2&#45;&gt;Node4 -->
<g id="edge4" class="edge">
<title>Node2&#45;&gt;Node4</title>
<path fill="none" stroke="#191970" d="M214.3398,-50.6789C230.8995,-40.1797 250.1878,-27.9505 263.2587,-19.6633"/>
<polygon fill="#191970" stroke="#191970" points="212.049,-47.9871 205.4775,-56.2977 215.7973,-53.899 212.049,-47.9871"/>
</g>
</g>
</svg>
