<?xml version="1.0" encoding="UTF-8" standalone="no"?>
<!DOCTYPE svg PUBLIC "-//W3C//DTD SVG 1.1//EN"
 "http://www.w3.org/Graphics/SVG/1.1/DTD/svg11.dtd">
<!-- Generated by graphviz version 2.40.1 (20161225.0304)
 -->
<!-- Title: Ogre::RTShader::SubRenderState Pages: 1 -->
<svg width="698pt" height="464pt"
 viewBox="0.00 0.00 698.00 463.50" xmlns="http://www.w3.org/2000/svg" xmlns:xlink="http://www.w3.org/1999/xlink">
<g id="graph0" class="graph" transform="scale(1 1) rotate(0) translate(4 459.5)">
<title>Ogre::RTShader::SubRenderState</title>
<!-- Node0 -->
<g id="node1" class="node">
<title>Node0</title>
<polygon fill="#bfbfbf" stroke="#000000" points="152,-240.5 152,-270.5 295,-270.5 295,-240.5 152,-240.5"/>
<text text-anchor="start" x="160" y="-258.5" font-family="Helvetica,sans-Serif" font-size="10.00" fill="#000000">Ogre::RTShader::SubRender</text>
<text text-anchor="middle" x="223.5" y="-247.5" font-family="Helvetica,sans-Serif" font-size="10.00" fill="#000000">State</text>
</g>
<!-- Node2 -->
<g id="node3" class="node">
<title>Node2</title>
<g id="a_node3"><a xlink:href="class_ogre_1_1_r_t_shader_1_1_f_f_p_alpha_test.html" target="_top" xlink:title="A factory that enables creation of LayeredBlending instances. ">
<polygon fill="none" stroke="#000000" points="331,-436 331,-455 488,-455 488,-436 331,-436"/>
<text text-anchor="middle" x="409.5" y="-443" font-family="Helvetica,sans-Serif" font-size="10.00" fill="#000000">Ogre::RTShader::FFPAlphaTest</text>
</a>
</g>
</g>
<!-- Node0&#45;&gt;Node2 -->
<g id="edge2" class="edge">
<title>Node0&#45;&gt;Node2</title>
<path fill="none" stroke="#191970" d="M232.0741,-280.2593C246.4228,-317.8953 278.957,-389.0686 331,-426.5 336.3502,-430.3481 342.3819,-433.4236 348.6644,-435.8806"/>
<polygon fill="#191970" stroke="#191970" points="235.252,-278.7607 228.5082,-270.5893 228.6843,-281.1827 235.252,-278.7607"/>
</g>
<!-- Node3 -->
<g id="node4" class="node">
<title>Node3</title>
<g id="a_node4"><a xlink:href="class_ogre_1_1_r_t_shader_1_1_f_f_p_colour.html" target="_top" xlink:title="Colour sub render state implementation of the Fixed Function Pipeline. ">
<polygon fill="none" stroke="#000000" points="339,-398 339,-417 480,-417 480,-398 339,-398"/>
<text text-anchor="middle" x="409.5" y="-405" font-family="Helvetica,sans-Serif" font-size="10.00" fill="#000000">Ogre::RTShader::FFPColour</text>
</a>
</g>
</g>
<!-- Node0&#45;&gt;Node3 -->
<g id="edge3" class="edge">
<title>Node0&#45;&gt;Node3</title>
<path fill="none" stroke="#191970" d="M236.3111,-279.5833C253.6661,-309.8025 287.536,-360.9921 331,-388.5 337.1612,-392.3993 344.0583,-395.4985 351.1381,-397.9617"/>
<polygon fill="#191970" stroke="#191970" points="239.2027,-277.5832 231.2654,-270.5653 233.0938,-281.0012 239.2027,-277.5832"/>
</g>
<!-- Node4 -->
<g id="node5" class="node">
<title>Node4</title>
<g id="a_node5"><a xlink:href="class_ogre_1_1_r_t_shader_1_1_f_f_p_fog.html" target="_top" xlink:title="Fog sub render state implementation of the Fixed Function Pipeline. ">
<polygon fill="none" stroke="#000000" points="345,-360 345,-379 474,-379 474,-360 345,-360"/>
<text text-anchor="middle" x="409.5" y="-367" font-family="Helvetica,sans-Serif" font-size="10.00" fill="#000000">Ogre::RTShader::FFPFog</text>
</a>
</g>
</g>
<!-- Node0&#45;&gt;Node4 -->
<g id="edge4" class="edge">
<title>Node0&#45;&gt;Node4</title>
<path fill="none" stroke="#191970" d="M242.8226,-278.0227C262.7455,-299.8076 295.7917,-332.1429 331,-350.5 338.4601,-354.3896 346.7354,-357.4996 355.034,-359.9819"/>
<polygon fill="#191970" stroke="#191970" points="245.3777,-275.6295 236.0966,-270.5195 240.1653,-280.3019 245.3777,-275.6295"/>
</g>
<!-- Node5 -->
<g id="node6" class="node">
<title>Node5</title>
<g id="a_node6"><a xlink:href="class_ogre_1_1_r_t_shader_1_1_f_f_p_lighting.html" target="_top" xlink:title="Lighting sub render state implementation of the Fixed Function Pipeline. ">
<polygon fill="none" stroke="#000000" points="336.5,-322 336.5,-341 482.5,-341 482.5,-322 336.5,-322"/>
<text text-anchor="middle" x="409.5" y="-329" font-family="Helvetica,sans-Serif" font-size="10.00" fill="#000000">Ogre::RTShader::FFPLighting</text>
</a>
</g>
</g>
<!-- Node0&#45;&gt;Node5 -->
<g id="edge5" class="edge">
<title>Node0&#45;&gt;Node5</title>
<path fill="none" stroke="#191970" d="M256.6001,-275.8321C277.3573,-287.8707 305.0197,-302.6466 331,-312.5 340.7019,-316.1796 351.3542,-319.3195 361.5966,-321.9243"/>
<polygon fill="#191970" stroke="#191970" points="258.26,-272.7479 247.8664,-270.6923 254.7095,-278.7807 258.26,-272.7479"/>
</g>
<!-- Node6 -->
<g id="node7" class="node">
<title>Node6</title>
<g id="a_node7"><a xlink:href="class_ogre_1_1_r_t_shader_1_1_f_f_p_texturing.html" target="_top" xlink:title="Texturing sub render state implementation of the Fixed Function Pipeline. ">
<polygon fill="none" stroke="#000000" points="333,-284 333,-303 486,-303 486,-284 333,-284"/>
<text text-anchor="middle" x="409.5" y="-291" font-family="Helvetica,sans-Serif" font-size="10.00" fill="#000000">Ogre::RTShader::FFPTexturing</text>
</a>
</g>
</g>
<!-- Node0&#45;&gt;Node6 -->
<g id="edge6" class="edge">
<title>Node0&#45;&gt;Node6</title>
<path fill="none" stroke="#191970" d="M305.0922,-272.1694C324.8679,-276.2096 345.3422,-280.3925 362.8653,-283.9725"/>
<polygon fill="#191970" stroke="#191970" points="305.6446,-268.71 295.1464,-270.1374 304.2434,-275.5683 305.6446,-268.71"/>
</g>
<!-- Node8 -->
<g id="node9" class="node">
<title>Node8</title>
<g id="a_node9"><a xlink:href="class_ogre_1_1_r_t_shader_1_1_f_f_p_transform.html" target="_top" xlink:title="Transform sub render state implementation of the Fixed Function Pipeline. ">
<polygon fill="none" stroke="#000000" points="331,-246 331,-265 488,-265 488,-246 331,-246"/>
<text text-anchor="middle" x="409.5" y="-253" font-family="Helvetica,sans-Serif" font-size="10.00" fill="#000000">Ogre::RTShader::FFPTransform</text>
</a>
</g>
</g>
<!-- Node0&#45;&gt;Node8 -->
<g id="edge8" class="edge">
<title>Node0&#45;&gt;Node8</title>
<path fill="none" stroke="#191970" d="M305.3632,-255.5C313.8052,-255.5 322.3715,-255.5 330.7783,-255.5"/>
<polygon fill="#191970" stroke="#191970" points="305.1464,-252.0001 295.1464,-255.5 305.1464,-259.0001 305.1464,-252.0001"/>
</g>
<!-- Node9 -->
<g id="node10" class="node">
<title>Node9</title>
<g id="a_node10"><a xlink:href="class_ogre_1_1_r_t_shader_1_1_hardware_skinning.html" target="_top" xlink:title="Implement a sub render state which performs hardware skinning. ">
<polygon fill="none" stroke="#000000" points="341.5,-196.5 341.5,-226.5 477.5,-226.5 477.5,-196.5 341.5,-196.5"/>
<text text-anchor="start" x="349.5" y="-214.5" font-family="Helvetica,sans-Serif" font-size="10.00" fill="#000000">Ogre::RTShader::Hardware</text>
<text text-anchor="middle" x="409.5" y="-203.5" font-family="Helvetica,sans-Serif" font-size="10.00" fill="#000000">Skinning</text>
</a>
</g>
</g>
<!-- Node0&#45;&gt;Node9 -->
<g id="edge9" class="edge">
<title>Node0&#45;&gt;Node9</title>
<path fill="none" stroke="#191970" d="M296.9569,-238.1231C313.1657,-234.2888 330.2041,-230.2582 345.9801,-226.5262"/>
<polygon fill="#191970" stroke="#191970" points="295.9161,-234.7726 286.9904,-240.4808 297.5276,-241.5846 295.9161,-234.7726"/>
</g>
<!-- Node10 -->
<g id="node11" class="node">
<title>Node10</title>
<g id="a_node11"><a xlink:href="class_ogre_1_1_r_t_shader_1_1_integrated_p_s_s_m3.html" target="_top" xlink:title="Integrated PSSM shadow receiver with 3 splits sub render state implementation. ">
<polygon fill="none" stroke="#000000" points="341,-147.5 341,-177.5 478,-177.5 478,-147.5 341,-147.5"/>
<text text-anchor="start" x="349" y="-165.5" font-family="Helvetica,sans-Serif" font-size="10.00" fill="#000000">Ogre::RTShader::Integrated</text>
<text text-anchor="middle" x="409.5" y="-154.5" font-family="Helvetica,sans-Serif" font-size="10.00" fill="#000000">PSSM3</text>
</a>
</g>
</g>
<!-- Node0&#45;&gt;Node10 -->
<g id="edge10" class="edge">
<title>Node0&#45;&gt;Node10</title>
<path fill="none" stroke="#191970" d="M251.6871,-234.3525C272.6833,-219.377 302.5238,-199.6865 331,-186.5 338.1126,-183.2064 345.7924,-180.2202 353.4673,-177.5614"/>
<polygon fill="#191970" stroke="#191970" points="249.5915,-231.5486 243.5391,-240.2445 253.6934,-237.221 249.5915,-231.5486"/>
</g>
<!-- Node11 -->
<g id="node12" class="node">
<title>Node11</title>
<g id="a_node12"><a xlink:href="class_ogre_1_1_r_t_shader_1_1_per_pixel_lighting.html" target="_top" xlink:title="Per pixel Lighting extension sub render state implementation. ">
<polygon fill="none" stroke="#000000" points="344,-98.5 344,-128.5 475,-128.5 475,-98.5 344,-98.5"/>
<text text-anchor="start" x="352" y="-116.5" font-family="Helvetica,sans-Serif" font-size="10.00" fill="#000000">Ogre::RTShader::PerPixel</text>
<text text-anchor="middle" x="409.5" y="-105.5" font-family="Helvetica,sans-Serif" font-size="10.00" fill="#000000">Lighting</text>
</a>
</g>
</g>
<!-- Node0&#45;&gt;Node11 -->
<g id="edge11" class="edge">
<title>Node0&#45;&gt;Node11</title>
<path fill="none" stroke="#191970" d="M238.9269,-232.0868C257.655,-205.4416 291.6593,-162.4019 331,-137.5 336.4187,-134.0701 342.358,-131.1044 348.4674,-128.5457"/>
<polygon fill="#191970" stroke="#191970" points="235.9612,-230.2225 233.1757,-240.4446 241.7278,-234.1907 235.9612,-230.2225"/>
</g>
<!-- Node14 -->
<g id="node15" class="node">
<title>Node14</title>
<g id="a_node15"><a xlink:href="class_ogre_1_1_r_t_shader_1_1_texture_atlas_sampler.html" target="_top" xlink:title="Implements texture atlas sampling. ">
<polygon fill="none" stroke="#000000" points="335,-49.5 335,-79.5 484,-79.5 484,-49.5 335,-49.5"/>
<text text-anchor="start" x="343" y="-67.5" font-family="Helvetica,sans-Serif" font-size="10.00" fill="#000000">Ogre::RTShader::TextureAtlas</text>
<text text-anchor="middle" x="409.5" y="-56.5" font-family="Helvetica,sans-Serif" font-size="10.00" fill="#000000">Sampler</text>
</a>
</g>
</g>
<!-- Node0&#45;&gt;Node14 -->
<g id="edge14" class="edge">
<title>Node0&#45;&gt;Node14</title>
<path fill="none" stroke="#191970" d="M232.9633,-230.585C248.1067,-194.0364 281.2371,-126.156 331,-88.5 335.5457,-85.0602 340.5874,-82.1094 345.859,-79.5788"/>
<polygon fill="#191970" stroke="#191970" points="229.6563,-229.4279 229.1702,-240.0116 236.1502,-232.041 229.6563,-229.4279"/>
</g>
<!-- Node15 -->
<g id="node16" class="node">
<title>Node15</title>
<g id="a_node16"><a xlink:href="class_ogre_1_1_r_t_shader_1_1_triplanar_texturing.html" target="_top" xlink:title="Triplanar Texturing. ">
<polygon fill="none" stroke="#000000" points="344,-.5 344,-30.5 475,-30.5 475,-.5 344,-.5"/>
<text text-anchor="start" x="352" y="-18.5" font-family="Helvetica,sans-Serif" font-size="10.00" fill="#000000">Ogre::RTShader::Triplanar</text>
<text text-anchor="middle" x="409.5" y="-7.5" font-family="Helvetica,sans-Serif" font-size="10.00" fill="#000000">Texturing</text>
</a>
</g>
</g>
<!-- Node0&#45;&gt;Node15 -->
<g id="edge15" class="edge">
<title>Node0&#45;&gt;Node15</title>
<path fill="none" stroke="#191970" d="M229.0165,-230.5941C240.2509,-185.7125 270.0484,-91.137 331,-39.5 335.0233,-36.0916 339.5233,-33.1671 344.2784,-30.6578"/>
<polygon fill="#191970" stroke="#191970" points="225.5977,-229.8417 226.666,-240.3825 232.4042,-231.4762 225.5977,-229.8417"/>
</g>
<!-- Node1 -->
<g id="node2" class="node">
<title>Node1</title>
<g id="a_node2"><a xlink:href="class_ogre_1_1_allocated_object.html" target="_top" xlink:title="RTShaderSystemAlloc">
<polygon fill="none" stroke="#000000" points="0,-246 0,-265 116,-265 116,-246 0,-246"/>
<text text-anchor="middle" x="58" y="-253" font-family="Helvetica,sans-Serif" font-size="10.00" fill="#000000">RTShaderSystemAlloc</text>
</a>
</g>
</g>
<!-- Node1&#45;&gt;Node0 -->
<g id="edge1" class="edge">
<title>Node1&#45;&gt;Node0</title>
<path fill="none" stroke="#191970" d="M126.4232,-255.5C134.7836,-255.5 143.3452,-255.5 151.7525,-255.5"/>
<polygon fill="#191970" stroke="#191970" points="126.3491,-252.0001 116.3491,-255.5 126.3491,-259.0001 126.3491,-252.0001"/>
</g>
<!-- Node7 -->
<g id="node8" class="node">
<title>Node7</title>
<g id="a_node8"><a xlink:href="class_ogre_1_1_r_t_shader_1_1_layered_blending.html" target="_top" xlink:title="Texturing sub render state implementation of layered blending. ">
<polygon fill="none" stroke="#000000" points="524,-284 524,-303 690,-303 690,-284 524,-284"/>
<text text-anchor="middle" x="607" y="-291" font-family="Helvetica,sans-Serif" font-size="10.00" fill="#000000">Ogre::RTShader::LayeredBlending</text>
</a>
</g>
</g>
<!-- Node6&#45;&gt;Node7 -->
<g id="edge7" class="edge">
<title>Node6&#45;&gt;Node7</title>
<path fill="none" stroke="#191970" d="M496.3735,-293.5C505.503,-293.5 514.7699,-293.5 523.856,-293.5"/>
<polygon fill="#191970" stroke="#191970" points="496.1414,-290.0001 486.1413,-293.5 496.1413,-297.0001 496.1414,-290.0001"/>
</g>
<!-- Node12 -->
<g id="node13" class="node">
<title>Node12</title>
<g id="a_node13"><a xlink:href="class_ogre_1_1_r_t_shader_1_1_normal_map_lighting.html" target="_top" xlink:title="Normal Map Lighting extension sub render state implementation. ">
<polygon fill="none" stroke="#000000" points="535,-120.5 535,-150.5 679,-150.5 679,-120.5 535,-120.5"/>
<text text-anchor="start" x="543" y="-138.5" font-family="Helvetica,sans-Serif" font-size="10.00" fill="#000000">Ogre::RTShader::NormalMap</text>
<text text-anchor="middle" x="607" y="-127.5" font-family="Helvetica,sans-Serif" font-size="10.00" fill="#000000">Lighting</text>
</a>
</g>
</g>
<!-- Node11&#45;&gt;Node12 -->
<g id="edge12" class="edge">
<title>Node11&#45;&gt;Node12</title>
<path fill="none" stroke="#191970" d="M485.2483,-121.9378C501.4923,-123.7472 518.6156,-125.6546 534.7241,-127.449"/>
<polygon fill="#191970" stroke="#191970" points="485.5907,-118.4544 475.2646,-120.8257 484.8157,-125.4113 485.5907,-118.4544"/>
</g>
<!-- Node13 -->
<g id="node14" class="node">
<title>Node13</title>
<g id="a_node14"><a xlink:href="class_ogre_1_1_r_t_shader_1_1_p_b_r_lighting.html" target="_top" xlink:title="Normal Map Lighting extension sub render state implementation. ">
<polygon fill="none" stroke="#000000" points="532.5,-82 532.5,-101 681.5,-101 681.5,-82 532.5,-82"/>
<text text-anchor="middle" x="607" y="-89" font-family="Helvetica,sans-Serif" font-size="10.00" fill="#000000">Ogre::RTShader::PBRLighting</text>
</a>
</g>
</g>
<!-- Node11&#45;&gt;Node13 -->
<g id="edge13" class="edge">
<title>Node11&#45;&gt;Node13</title>
<path fill="none" stroke="#191970" d="M485.2726,-105.0595C500.7017,-103.3408 516.923,-101.5339 532.3139,-99.8195"/>
<polygon fill="#191970" stroke="#191970" points="484.8157,-101.5887 475.2646,-106.1743 485.5907,-108.5456 484.8157,-101.5887"/>
</g>
</g>
</svg>
