<?xml version="1.0" encoding="UTF-8" standalone="no"?>
<!DOCTYPE svg PUBLIC "-//W3C//DTD SVG 1.1//EN"
 "http://www.w3.org/Graphics/SVG/1.1/DTD/svg11.dtd">
<!-- Generated by graphviz version 2.40.1 (20161225.0304)
 -->
<!-- Title: Ogre::D3D11RenderSystem Pages: 1 -->
<svg width="282pt" height="151pt"
 viewBox="0.00 0.00 282.00 151.00" xmlns="http://www.w3.org/2000/svg" xmlns:xlink="http://www.w3.org/1999/xlink">
<g id="graph0" class="graph" transform="scale(1 1) rotate(0) translate(4 147)">
<title>Ogre::D3D11RenderSystem</title>
<!-- Node0 -->
<g id="node1" class="node">
<title>Node0</title>
<polygon fill="#bfbfbf" stroke="#000000" points="57.5,-.5 57.5,-19.5 197.5,-19.5 197.5,-.5 57.5,-.5"/>
<text text-anchor="middle" x="127.5" y="-7.5" font-family="Helvetica,sans-Serif" font-size="10.00" fill="#000000">Ogre::D3D11RenderSystem</text>
</g>
<!-- Node1 -->
<g id="node2" class="node">
<title>Node1</title>
<g id="a_node2"><a xlink:href="class_ogre_1_1_render_system.html" target="_top" xlink:title="Defines the functionality of a 3D API. ">
<polygon fill="none" stroke="#000000" points="0,-62 0,-81 109,-81 109,-62 0,-62"/>
<text text-anchor="middle" x="54.5" y="-69" font-family="Helvetica,sans-Serif" font-size="10.00" fill="#000000">Ogre::RenderSystem</text>
</a>
</g>
</g>
<!-- Node1&#45;&gt;Node0 -->
<g id="edge1" class="edge">
<title>Node1&#45;&gt;Node0</title>
<path fill="none" stroke="#191970" d="M73.6471,-55.3692C87.0739,-44.0576 104.5837,-29.3062 115.9329,-19.7449"/>
<polygon fill="#191970" stroke="#191970" points="71.299,-52.7709 65.9063,-61.8906 75.8091,-58.1243 71.299,-52.7709"/>
</g>
<!-- Node2 -->
<g id="node3" class="node">
<title>Node2</title>
<g id="a_node3"><a xlink:href="class_ogre_1_1_allocated_object.html" target="_top" xlink:title="RenderSysAlloc">
<polygon fill="none" stroke="#000000" points="11,-123.5 11,-142.5 98,-142.5 98,-123.5 11,-123.5"/>
<text text-anchor="middle" x="54.5" y="-130.5" font-family="Helvetica,sans-Serif" font-size="10.00" fill="#000000">RenderSysAlloc</text>
</a>
</g>
</g>
<!-- Node2&#45;&gt;Node1 -->
<g id="edge2" class="edge">
<title>Node2&#45;&gt;Node1</title>
<path fill="none" stroke="#191970" d="M54.5,-113.2462C54.5,-102.5519 54.5,-89.814 54.5,-81.2449"/>
<polygon fill="#191970" stroke="#191970" points="51.0001,-113.3906 54.5,-123.3906 58.0001,-113.3907 51.0001,-113.3906"/>
</g>
<!-- Node3 -->
<g id="node4" class="node">
<title>Node3</title>
<g id="a_node4"><a xlink:href="class_ogre_1_1_d3_d11_device_resource_manager.html" target="_top" xlink:title="Singleton that is used to propagate device state changed notifications. ">
<polygon fill="none" stroke="#000000" points="127,-56.5 127,-86.5 274,-86.5 274,-56.5 127,-56.5"/>
<text text-anchor="start" x="135" y="-74.5" font-family="Helvetica,sans-Serif" font-size="10.00" fill="#000000">Ogre::D3D11DeviceResource</text>
<text text-anchor="middle" x="200.5" y="-63.5" font-family="Helvetica,sans-Serif" font-size="10.00" fill="#000000">Manager</text>
</a>
</g>
</g>
<!-- Node3&#45;&gt;Node0 -->
<g id="edge3" class="edge">
<title>Node3&#45;&gt;Node0</title>
<path fill="none" stroke="#8b1a1a" d="M174.7922,-49.8421C162.6508,-39.6133 148.7587,-27.9097 139.1882,-19.8469"/>
<polygon fill="#8b1a1a" stroke="#8b1a1a" points="172.5522,-52.5315 182.4551,-56.2977 177.0623,-47.178 172.5522,-52.5315"/>
</g>
</g>
</svg>
