<?xml version="1.0" encoding="UTF-8" standalone="no"?>
<!DOCTYPE svg PUBLIC "-//W3C//DTD SVG 1.1//EN"
 "http://www.w3.org/Graphics/SVG/1.1/DTD/svg11.dtd">
<!-- Generated by graphviz version 2.40.1 (20161225.0304)
 -->
<!-- Title: Ogre::GLES2HardwarePixelBuffer Pages: 1 -->
<svg width="294pt" height="330pt"
 viewBox="0.00 0.00 293.50 330.00" xmlns="http://www.w3.org/2000/svg" xmlns:xlink="http://www.w3.org/1999/xlink">
<g id="graph0" class="graph" transform="scale(1 1) rotate(0) translate(4 326)">
<title>Ogre::GLES2HardwarePixelBuffer</title>
<!-- Node0 -->
<g id="node1" class="node">
<title>Node0</title>
<polygon fill="#bfbfbf" stroke="#000000" points="73,-56.5 73,-86.5 212,-86.5 212,-56.5 73,-56.5"/>
<text text-anchor="start" x="81" y="-74.5" font-family="Helvetica,sans-Serif" font-size="10.00" fill="#000000">Ogre::GLES2HardwarePixel</text>
<text text-anchor="middle" x="142.5" y="-63.5" font-family="Helvetica,sans-Serif" font-size="10.00" fill="#000000">Buffer</text>
</g>
<!-- Node5 -->
<g id="node6" class="node">
<title>Node5</title>
<g id="a_node6"><a xlink:href="class_ogre_1_1_g_l_e_s2_render_buffer.html" target="_top" xlink:title="Renderbuffer surface. ">
<polygon fill="none" stroke="#000000" points="0,-.5 0,-19.5 133,-19.5 133,-.5 0,-.5"/>
<text text-anchor="middle" x="66.5" y="-7.5" font-family="Helvetica,sans-Serif" font-size="10.00" fill="#000000">Ogre::GLES2RenderBuffer</text>
</a>
</g>
</g>
<!-- Node0&#45;&gt;Node5 -->
<g id="edge5" class="edge">
<title>Node0&#45;&gt;Node5</title>
<path fill="none" stroke="#191970" d="M115.7357,-49.8421C103.0953,-39.6133 88.6323,-27.9097 78.6686,-19.8469"/>
<polygon fill="#191970" stroke="#191970" points="113.7381,-52.728 123.7135,-56.2977 118.1415,-47.2864 113.7381,-52.728"/>
</g>
<!-- Node6 -->
<g id="node7" class="node">
<title>Node6</title>
<g id="a_node7"><a xlink:href="class_ogre_1_1_g_l_e_s2_texture_buffer.html" target="_top" xlink:title="Texture surface. ">
<polygon fill="none" stroke="#000000" points="151.5,-.5 151.5,-19.5 285.5,-19.5 285.5,-.5 151.5,-.5"/>
<text text-anchor="middle" x="218.5" y="-7.5" font-family="Helvetica,sans-Serif" font-size="10.00" fill="#000000">Ogre::GLES2TextureBuffer</text>
</a>
</g>
</g>
<!-- Node0&#45;&gt;Node6 -->
<g id="edge6" class="edge">
<title>Node0&#45;&gt;Node6</title>
<path fill="none" stroke="#191970" d="M169.2643,-49.8421C181.9047,-39.6133 196.3677,-27.9097 206.3314,-19.8469"/>
<polygon fill="#191970" stroke="#191970" points="166.8585,-47.2864 161.2865,-56.2977 171.2619,-52.728 166.8585,-47.2864"/>
</g>
<!-- Node1 -->
<g id="node2" class="node">
<title>Node1</title>
<g id="a_node2"><a xlink:href="class_ogre_1_1_g_l_hardware_pixel_buffer_common.html" target="_top" xlink:title="Ogre::GLHardwarePixelBuffer\lCommon">
<polygon fill="none" stroke="#000000" points="69.5,-123.5 69.5,-153.5 215.5,-153.5 215.5,-123.5 69.5,-123.5"/>
<text text-anchor="start" x="77.5" y="-141.5" font-family="Helvetica,sans-Serif" font-size="10.00" fill="#000000">Ogre::GLHardwarePixelBuffer</text>
<text text-anchor="middle" x="142.5" y="-130.5" font-family="Helvetica,sans-Serif" font-size="10.00" fill="#000000">Common</text>
</a>
</g>
</g>
<!-- Node1&#45;&gt;Node0 -->
<g id="edge1" class="edge">
<title>Node1&#45;&gt;Node0</title>
<path fill="none" stroke="#191970" d="M142.5,-113.0249C142.5,-104.128 142.5,-94.4287 142.5,-86.6432"/>
<polygon fill="#191970" stroke="#191970" points="139.0001,-113.2966 142.5,-123.2967 146.0001,-113.2967 139.0001,-113.2966"/>
</g>
<!-- Node2 -->
<g id="node3" class="node">
<title>Node2</title>
<g id="a_node3"><a xlink:href="class_ogre_1_1_hardware_pixel_buffer.html" target="_top" xlink:title="Specialisation of HardwareBuffer for a pixel buffer. ">
<polygon fill="none" stroke="#000000" points="75.5,-190.5 75.5,-209.5 209.5,-209.5 209.5,-190.5 75.5,-190.5"/>
<text text-anchor="middle" x="142.5" y="-197.5" font-family="Helvetica,sans-Serif" font-size="10.00" fill="#000000">Ogre::HardwarePixelBuffer</text>
</a>
</g>
</g>
<!-- Node2&#45;&gt;Node1 -->
<g id="edge2" class="edge">
<title>Node2&#45;&gt;Node1</title>
<path fill="none" stroke="#191970" d="M142.5,-180.3693C142.5,-171.681 142.5,-161.6241 142.5,-153.5446"/>
<polygon fill="#191970" stroke="#191970" points="139.0001,-180.3906 142.5,-190.3906 146.0001,-180.3907 139.0001,-180.3906"/>
</g>
<!-- Node3 -->
<g id="node4" class="node">
<title>Node3</title>
<g id="a_node4"><a xlink:href="class_ogre_1_1_hardware_buffer.html" target="_top" xlink:title="Abstract class defining common features of hardware buffers. ">
<polygon fill="none" stroke="#000000" points="86.5,-246.5 86.5,-265.5 198.5,-265.5 198.5,-246.5 86.5,-246.5"/>
<text text-anchor="middle" x="142.5" y="-253.5" font-family="Helvetica,sans-Serif" font-size="10.00" fill="#000000">Ogre::HardwareBuffer</text>
</a>
</g>
</g>
<!-- Node3&#45;&gt;Node2 -->
<g id="edge3" class="edge">
<title>Node3&#45;&gt;Node2</title>
<path fill="none" stroke="#191970" d="M142.5,-236.1575C142.5,-227.155 142.5,-216.9199 142.5,-209.6427"/>
<polygon fill="#191970" stroke="#191970" points="139.0001,-236.2455 142.5,-246.2455 146.0001,-236.2456 139.0001,-236.2455"/>
</g>
<!-- Node4 -->
<g id="node5" class="node">
<title>Node4</title>
<g id="a_node5"><a xlink:href="class_ogre_1_1_allocated_object.html" target="_top" xlink:title="BufferAlloc">
<polygon fill="none" stroke="#000000" points="110,-302.5 110,-321.5 175,-321.5 175,-302.5 110,-302.5"/>
<text text-anchor="middle" x="142.5" y="-309.5" font-family="Helvetica,sans-Serif" font-size="10.00" fill="#000000">BufferAlloc</text>
</a>
</g>
</g>
<!-- Node4&#45;&gt;Node3 -->
<g id="edge4" class="edge">
<title>Node4&#45;&gt;Node3</title>
<path fill="none" stroke="#191970" d="M142.5,-292.1575C142.5,-283.155 142.5,-272.9199 142.5,-265.6427"/>
<polygon fill="#191970" stroke="#191970" points="139.0001,-292.2455 142.5,-302.2455 146.0001,-292.2456 139.0001,-292.2455"/>
</g>
</g>
</svg>
