<?xml version="1.0" encoding="UTF-8" standalone="no"?>
<!DOCTYPE svg PUBLIC "-//W3C//DTD SVG 1.1//EN"
 "http://www.w3.org/Graphics/SVG/1.1/DTD/svg11.dtd">
<!-- Generated by graphviz version 2.40.1 (20161225.0304)
 -->
<!-- Title: Ogre::DefaultShadowCameraSetup Pages: 1 -->
<svg width="153pt" height="151pt"
 viewBox="0.00 0.00 153.00 151.00" xmlns="http://www.w3.org/2000/svg" xmlns:xlink="http://www.w3.org/1999/xlink">
<g id="graph0" class="graph" transform="scale(1 1) rotate(0) translate(4 147)">
<title>Ogre::DefaultShadowCameraSetup</title>
<!-- Node0 -->
<g id="node1" class="node">
<title>Node0</title>
<polygon fill="#bfbfbf" stroke="#000000" points="0,-.5 0,-30.5 145,-30.5 145,-.5 0,-.5"/>
<text text-anchor="start" x="8" y="-18.5" font-family="Helvetica,sans-Serif" font-size="10.00" fill="#000000">Ogre::DefaultShadowCamera</text>
<text text-anchor="middle" x="72.5" y="-7.5" font-family="Helvetica,sans-Serif" font-size="10.00" fill="#000000">Setup</text>
</g>
<!-- Node1 -->
<g id="node2" class="node">
<title>Node1</title>
<g id="a_node2"><a xlink:href="class_ogre_1_1_shadow_camera_setup.html" target="_top" xlink:title="This class allows you to plug in new ways to define the camera setup when rendering and projecting sh...">
<polygon fill="none" stroke="#000000" points="3,-67.5 3,-86.5 142,-86.5 142,-67.5 3,-67.5"/>
<text text-anchor="middle" x="72.5" y="-74.5" font-family="Helvetica,sans-Serif" font-size="10.00" fill="#000000">Ogre::ShadowCameraSetup</text>
</a>
</g>
</g>
<!-- Node1&#45;&gt;Node0 -->
<g id="edge1" class="edge">
<title>Node1&#45;&gt;Node0</title>
<path fill="none" stroke="#191970" d="M72.5,-57.3693C72.5,-48.681 72.5,-38.6241 72.5,-30.5446"/>
<polygon fill="#191970" stroke="#191970" points="69.0001,-57.3906 72.5,-67.3906 76.0001,-57.3907 69.0001,-57.3906"/>
</g>
<!-- Node2 -->
<g id="node3" class="node">
<title>Node2</title>
<g id="a_node3"><a xlink:href="class_ogre_1_1_allocated_object.html" target="_top" xlink:title="ShadowDataAlloc">
<polygon fill="none" stroke="#000000" points="25,-123.5 25,-142.5 120,-142.5 120,-123.5 25,-123.5"/>
<text text-anchor="middle" x="72.5" y="-130.5" font-family="Helvetica,sans-Serif" font-size="10.00" fill="#000000">ShadowDataAlloc</text>
</a>
</g>
</g>
<!-- Node2&#45;&gt;Node1 -->
<g id="edge2" class="edge">
<title>Node2&#45;&gt;Node1</title>
<path fill="none" stroke="#191970" d="M72.5,-113.1575C72.5,-104.155 72.5,-93.9199 72.5,-86.6427"/>
<polygon fill="#191970" stroke="#191970" points="69.0001,-113.2455 72.5,-123.2455 76.0001,-113.2456 69.0001,-113.2455"/>
</g>
</g>
</svg>
