<?xml version="1.0" encoding="UTF-8" standalone="no"?>
<!DOCTYPE svg PUBLIC "-//W3C//DTD SVG 1.1//EN"
 "http://www.w3.org/Graphics/SVG/1.1/DTD/svg11.dtd">
<!-- Generated by graphviz version 2.40.1 (20161225.0304)
 -->
<!-- Title: Ogre::Volume::Chunk Pages: 1 -->
<svg width="436pt" height="196pt"
 viewBox="0.00 0.00 436.00 196.00" xmlns="http://www.w3.org/2000/svg" xmlns:xlink="http://www.w3.org/1999/xlink">
<g id="graph0" class="graph" transform="scale(1 1) rotate(0) translate(4 192)">
<title>Ogre::Volume::Chunk</title>
<!-- Node0 -->
<g id="node1" class="node">
<title>Node0</title>
<polygon fill="#bfbfbf" stroke="#000000" points="252.5,-.5 252.5,-19.5 363.5,-19.5 363.5,-.5 252.5,-.5"/>
<text text-anchor="middle" x="308" y="-7.5" font-family="Helvetica,sans-Serif" font-size="10.00" fill="#000000">Ogre::Volume::Chunk</text>
</g>
<!-- Node1 -->
<g id="node2" class="node">
<title>Node1</title>
<g id="a_node2"><a xlink:href="class_ogre_1_1_simple_renderable.html" target="_top" xlink:title="Simple implementation of MovableObject and Renderable for single&#45;part custom objects. ">
<polygon fill="none" stroke="#000000" points="180.5,-56.5 180.5,-75.5 303.5,-75.5 303.5,-56.5 180.5,-56.5"/>
<text text-anchor="middle" x="242" y="-63.5" font-family="Helvetica,sans-Serif" font-size="10.00" fill="#000000">Ogre::SimpleRenderable</text>
</a>
</g>
</g>
<!-- Node1&#45;&gt;Node0 -->
<g id="edge1" class="edge">
<title>Node1&#45;&gt;Node0</title>
<path fill="none" stroke="#191970" d="M261.2755,-49.645C272.7538,-39.9058 286.9277,-27.8795 296.6354,-19.6427"/>
<polygon fill="#191970" stroke="#191970" points="258.857,-47.1069 253.4963,-56.2455 263.3859,-52.4445 258.857,-47.1069"/>
</g>
<!-- Node2 -->
<g id="node3" class="node">
<title>Node2</title>
<g id="a_node3"><a xlink:href="class_ogre_1_1_movable_object.html" target="_top" xlink:title="Abstract class defining a movable object in a scene. ">
<polygon fill="none" stroke="#000000" points="128.5,-112.5 128.5,-131.5 237.5,-131.5 237.5,-112.5 128.5,-112.5"/>
<text text-anchor="middle" x="183" y="-119.5" font-family="Helvetica,sans-Serif" font-size="10.00" fill="#000000">Ogre::MovableObject</text>
</a>
</g>
</g>
<!-- Node2&#45;&gt;Node1 -->
<g id="edge2" class="edge">
<title>Node2&#45;&gt;Node1</title>
<path fill="none" stroke="#191970" d="M200.5307,-105.3607C210.7377,-95.6727 223.2469,-83.7995 231.8408,-75.6427"/>
<polygon fill="#191970" stroke="#191970" points="198.1206,-102.8227 193.277,-112.2455 202.9396,-107.8998 198.1206,-102.8227"/>
</g>
<!-- Node3 -->
<g id="node4" class="node">
<title>Node3</title>
<g id="a_node4"><a xlink:href="class_ogre_1_1_shadow_caster.html" target="_top" xlink:title="This class defines the interface that must be implemented by shadow casters. ">
<polygon fill="none" stroke="#000000" points="0,-168.5 0,-187.5 108,-187.5 108,-168.5 0,-168.5"/>
<text text-anchor="middle" x="54" y="-175.5" font-family="Helvetica,sans-Serif" font-size="10.00" fill="#000000">Ogre::ShadowCaster</text>
</a>
</g>
</g>
<!-- Node3&#45;&gt;Node2 -->
<g id="edge3" class="edge">
<title>Node3&#45;&gt;Node2</title>
<path fill="none" stroke="#191970" d="M85.3671,-164.3833C108.8284,-154.1985 140.3185,-140.5284 161.1135,-131.5011"/>
<polygon fill="#191970" stroke="#191970" points="83.9551,-161.1806 76.1759,-168.3733 86.7426,-167.6017 83.9551,-161.1806"/>
</g>
<!-- Node4 -->
<g id="node5" class="node">
<title>Node4</title>
<g id="a_node5"><a xlink:href="class_ogre_1_1_animable_object.html" target="_top" xlink:title="Defines an interface to classes which have one or more AnimableValue instances to expose...">
<polygon fill="none" stroke="#000000" points="126.5,-168.5 126.5,-187.5 239.5,-187.5 239.5,-168.5 126.5,-168.5"/>
<text text-anchor="middle" x="183" y="-175.5" font-family="Helvetica,sans-Serif" font-size="10.00" fill="#000000">Ogre::AnimableObject</text>
</a>
</g>
</g>
<!-- Node4&#45;&gt;Node2 -->
<g id="edge4" class="edge">
<title>Node4&#45;&gt;Node2</title>
<path fill="none" stroke="#191970" d="M183,-158.1575C183,-149.155 183,-138.9199 183,-131.6427"/>
<polygon fill="#191970" stroke="#191970" points="179.5001,-158.2455 183,-168.2455 186.5001,-158.2456 179.5001,-158.2455"/>
</g>
<!-- Node5 -->
<g id="node6" class="node">
<title>Node5</title>
<g id="a_node6"><a xlink:href="class_ogre_1_1_allocated_object.html" target="_top" xlink:title="MovableAlloc">
<polygon fill="none" stroke="#000000" points="257.5,-168.5 257.5,-187.5 332.5,-187.5 332.5,-168.5 257.5,-168.5"/>
<text text-anchor="middle" x="295" y="-175.5" font-family="Helvetica,sans-Serif" font-size="10.00" fill="#000000">MovableAlloc</text>
</a>
</g>
</g>
<!-- Node5&#45;&gt;Node2 -->
<g id="edge5" class="edge">
<title>Node5&#45;&gt;Node2</title>
<path fill="none" stroke="#191970" d="M266.6737,-163.8368C246.4279,-153.7139 219.7358,-140.3679 202.0022,-131.5011"/>
<polygon fill="#191970" stroke="#191970" points="265.237,-167.0316 275.7465,-168.3733 268.3675,-160.7706 265.237,-167.0316"/>
</g>
<!-- Node6 -->
<g id="node7" class="node">
<title>Node6</title>
<g id="a_node7"><a xlink:href="class_ogre_1_1_renderable.html" target="_top" xlink:title="Abstract class defining the interface all renderable objects must implement. ">
<polygon fill="none" stroke="#000000" points="255.5,-112.5 255.5,-131.5 348.5,-131.5 348.5,-112.5 255.5,-112.5"/>
<text text-anchor="middle" x="302" y="-119.5" font-family="Helvetica,sans-Serif" font-size="10.00" fill="#000000">Ogre::Renderable</text>
</a>
</g>
</g>
<!-- Node6&#45;&gt;Node1 -->
<g id="edge6" class="edge">
<title>Node6&#45;&gt;Node1</title>
<path fill="none" stroke="#191970" d="M284.1722,-105.3607C273.7922,-95.6727 261.0709,-83.7995 252.3314,-75.6427"/>
<polygon fill="#191970" stroke="#191970" points="281.8501,-107.981 291.5488,-112.2455 286.6263,-102.8636 281.8501,-107.981"/>
</g>
<!-- Node7 -->
<g id="node8" class="node">
<title>Node7</title>
<g id="a_node8"><a xlink:href="class_ogre_1_1_frame_listener.html" target="_top" xlink:title="A interface class defining a listener which can be used to receive notifications of frame events...">
<polygon fill="none" stroke="#000000" points="322,-56.5 322,-75.5 428,-75.5 428,-56.5 322,-56.5"/>
<text text-anchor="middle" x="375" y="-63.5" font-family="Helvetica,sans-Serif" font-size="10.00" fill="#000000">Ogre::FrameListener</text>
</a>
</g>
</g>
<!-- Node7&#45;&gt;Node0 -->
<g id="edge7" class="edge">
<title>Node7&#45;&gt;Node0</title>
<path fill="none" stroke="#191970" d="M355.4324,-49.645C343.7802,-39.9058 329.3916,-27.8795 319.5368,-19.6427"/>
<polygon fill="#191970" stroke="#191970" points="353.4121,-52.5179 363.3295,-56.2455 357.9012,-47.1469 353.4121,-52.5179"/>
</g>
</g>
</svg>
