<?xml version="1.0" encoding="UTF-8" standalone="no"?>
<!DOCTYPE svg PUBLIC "-//W3C//DTD SVG 1.1//EN"
 "http://www.w3.org/Graphics/SVG/1.1/DTD/svg11.dtd">
<!-- Generated by graphviz version 2.40.1 (20161225.0304)
 -->
<!-- Title: Ogre::CylinderEmitterFactory Pages: 1 -->
<svg width="152pt" height="140pt"
 viewBox="0.00 0.00 152.00 140.00" xmlns="http://www.w3.org/2000/svg" xmlns:xlink="http://www.w3.org/1999/xlink">
<g id="graph0" class="graph" transform="scale(1 1) rotate(0) translate(4 136)">
<title>Ogre::CylinderEmitterFactory</title>
<!-- Node0 -->
<g id="node1" class="node">
<title>Node0</title>
<polygon fill="#bfbfbf" stroke="#000000" points="0,-.5 0,-19.5 144,-19.5 144,-.5 0,-.5"/>
<text text-anchor="middle" x="72" y="-7.5" font-family="Helvetica,sans-Serif" font-size="10.00" fill="#000000">Ogre::CylinderEmitterFactory</text>
</g>
<!-- Node1 -->
<g id="node2" class="node">
<title>Node1</title>
<g id="a_node2"><a xlink:href="class_ogre_1_1_particle_emitter_factory.html" target="_top" xlink:title="Abstract class defining the interface to be implemented by creators of ParticleEmitter subclasses...">
<polygon fill="none" stroke="#000000" points="1.5,-56.5 1.5,-75.5 142.5,-75.5 142.5,-56.5 1.5,-56.5"/>
<text text-anchor="middle" x="72" y="-63.5" font-family="Helvetica,sans-Serif" font-size="10.00" fill="#000000">Ogre::ParticleEmitterFactory</text>
</a>
</g>
</g>
<!-- Node1&#45;&gt;Node0 -->
<g id="edge1" class="edge">
<title>Node1&#45;&gt;Node0</title>
<path fill="none" stroke="#191970" d="M72,-46.1575C72,-37.155 72,-26.9199 72,-19.6427"/>
<polygon fill="#191970" stroke="#191970" points="68.5001,-46.2455 72,-56.2455 75.5001,-46.2456 68.5001,-46.2455"/>
</g>
<!-- Node2 -->
<g id="node3" class="node">
<title>Node2</title>
<g id="a_node3"><a xlink:href="class_ogre_1_1_allocated_object.html" target="_top" xlink:title="FXAlloc">
<polygon fill="none" stroke="#000000" points="46.5,-112.5 46.5,-131.5 97.5,-131.5 97.5,-112.5 46.5,-112.5"/>
<text text-anchor="middle" x="72" y="-119.5" font-family="Helvetica,sans-Serif" font-size="10.00" fill="#000000">FXAlloc</text>
</a>
</g>
</g>
<!-- Node2&#45;&gt;Node1 -->
<g id="edge2" class="edge">
<title>Node2&#45;&gt;Node1</title>
<path fill="none" stroke="#191970" d="M72,-102.1575C72,-93.155 72,-82.9199 72,-75.6427"/>
<polygon fill="#191970" stroke="#191970" points="68.5001,-102.2455 72,-112.2455 75.5001,-102.2456 68.5001,-102.2455"/>
</g>
</g>
</svg>
