<?xml version="1.0" encoding="UTF-8" standalone="no"?>
<!DOCTYPE svg PUBLIC "-//W3C//DTD SVG 1.1//EN"
 "http://www.w3.org/Graphics/SVG/1.1/DTD/svg11.dtd">
<!-- Generated by graphviz version 2.40.1 (20161225.0304)
 -->
<!-- Title: Ogre::HollowEllipsoidEmitter Pages: 1 -->
<svg width="210pt" height="252pt"
 viewBox="0.00 0.00 210.00 252.00" xmlns="http://www.w3.org/2000/svg" xmlns:xlink="http://www.w3.org/1999/xlink">
<g id="graph0" class="graph" transform="scale(1 1) rotate(0) translate(4 248)">
<title>Ogre::HollowEllipsoidEmitter</title>
<!-- Node0 -->
<g id="node1" class="node">
<title>Node0</title>
<polygon fill="#bfbfbf" stroke="#000000" points="37.5,-.5 37.5,-19.5 179.5,-19.5 179.5,-.5 37.5,-.5"/>
<text text-anchor="middle" x="108.5" y="-7.5" font-family="Helvetica,sans-Serif" font-size="10.00" fill="#000000">Ogre::HollowEllipsoidEmitter</text>
</g>
<!-- Node1 -->
<g id="node2" class="node">
<title>Node1</title>
<g id="a_node2"><a xlink:href="class_ogre_1_1_ellipsoid_emitter.html" target="_top" xlink:title="Particle emitter which emits particles randomly from points inside an ellipsoid. ">
<polygon fill="none" stroke="#000000" points="52.5,-56.5 52.5,-75.5 164.5,-75.5 164.5,-56.5 52.5,-56.5"/>
<text text-anchor="middle" x="108.5" y="-63.5" font-family="Helvetica,sans-Serif" font-size="10.00" fill="#000000">Ogre::EllipsoidEmitter</text>
</a>
</g>
</g>
<!-- Node1&#45;&gt;Node0 -->
<g id="edge1" class="edge">
<title>Node1&#45;&gt;Node0</title>
<path fill="none" stroke="#191970" d="M108.5,-46.1575C108.5,-37.155 108.5,-26.9199 108.5,-19.6427"/>
<polygon fill="#191970" stroke="#191970" points="105.0001,-46.2455 108.5,-56.2455 112.0001,-46.2456 105.0001,-46.2455"/>
</g>
<!-- Node2 -->
<g id="node3" class="node">
<title>Node2</title>
<g id="a_node3"><a xlink:href="class_ogre_1_1_area_emitter.html" target="_top" xlink:title="Particle emitter which emits particles randomly from points inside an area (box, sphere, ellipsoid whatever subclasses choose to be). ">
<polygon fill="none" stroke="#000000" points="61,-112.5 61,-131.5 156,-131.5 156,-112.5 61,-112.5"/>
<text text-anchor="middle" x="108.5" y="-119.5" font-family="Helvetica,sans-Serif" font-size="10.00" fill="#000000">Ogre::AreaEmitter</text>
</a>
</g>
</g>
<!-- Node2&#45;&gt;Node1 -->
<g id="edge2" class="edge">
<title>Node2&#45;&gt;Node1</title>
<path fill="none" stroke="#191970" d="M108.5,-102.1575C108.5,-93.155 108.5,-82.9199 108.5,-75.6427"/>
<polygon fill="#191970" stroke="#191970" points="105.0001,-102.2455 108.5,-112.2455 112.0001,-102.2456 105.0001,-102.2455"/>
</g>
<!-- Node3 -->
<g id="node4" class="node">
<title>Node3</title>
<g id="a_node4"><a xlink:href="class_ogre_1_1_particle_emitter.html" target="_top" xlink:title="Abstract class defining the interface to be implemented by particle emitters. ">
<polygon fill="none" stroke="#000000" points="54.5,-168.5 54.5,-187.5 162.5,-187.5 162.5,-168.5 54.5,-168.5"/>
<text text-anchor="middle" x="108.5" y="-175.5" font-family="Helvetica,sans-Serif" font-size="10.00" fill="#000000">Ogre::ParticleEmitter</text>
</a>
</g>
</g>
<!-- Node3&#45;&gt;Node2 -->
<g id="edge3" class="edge">
<title>Node3&#45;&gt;Node2</title>
<path fill="none" stroke="#191970" d="M108.5,-158.1575C108.5,-149.155 108.5,-138.9199 108.5,-131.6427"/>
<polygon fill="#191970" stroke="#191970" points="105.0001,-158.2455 108.5,-168.2455 112.0001,-158.2456 105.0001,-158.2455"/>
</g>
<!-- Node4 -->
<g id="node5" class="node">
<title>Node4</title>
<g id="a_node5"><a xlink:href="class_ogre_1_1_string_interface.html" target="_top" xlink:title="Class defining the common interface which classes can use to present a reflection&#45;style, self&#45;defining parameter set to callers. ">
<polygon fill="none" stroke="#000000" points="0,-224.5 0,-243.5 107,-243.5 107,-224.5 0,-224.5"/>
<text text-anchor="middle" x="53.5" y="-231.5" font-family="Helvetica,sans-Serif" font-size="10.00" fill="#000000">Ogre::StringInterface</text>
</a>
</g>
</g>
<!-- Node4&#45;&gt;Node3 -->
<g id="edge4" class="edge">
<title>Node4&#45;&gt;Node3</title>
<path fill="none" stroke="#191970" d="M70.1226,-217.0751C79.5855,-207.4402 91.0969,-195.7196 99.0295,-187.6427"/>
<polygon fill="#191970" stroke="#191970" points="67.5903,-214.6585 63.0803,-224.2455 72.5845,-219.5635 67.5903,-214.6585"/>
</g>
<!-- Node5 -->
<g id="node6" class="node">
<title>Node5</title>
<g id="a_node6"><a xlink:href="class_ogre_1_1_particle.html" target="_top" xlink:title="Class representing a single particle instance. ">
<polygon fill="none" stroke="#ff0000" points="125,-224.5 125,-243.5 202,-243.5 202,-224.5 125,-224.5"/>
<text text-anchor="middle" x="163.5" y="-231.5" font-family="Helvetica,sans-Serif" font-size="10.00" fill="#000000">Ogre::Particle</text>
</a>
</g>
</g>
<!-- Node5&#45;&gt;Node3 -->
<g id="edge5" class="edge">
<title>Node5&#45;&gt;Node3</title>
<path fill="none" stroke="#191970" d="M146.8774,-217.0751C137.4145,-207.4402 125.9031,-195.7196 117.9705,-187.6427"/>
<polygon fill="#191970" stroke="#191970" points="144.4155,-219.5635 153.9197,-224.2455 149.4097,-214.6585 144.4155,-219.5635"/>
</g>
</g>
</svg>
