<?xml version="1.0" encoding="UTF-8" standalone="no"?>
<!DOCTYPE svg PUBLIC "-//W3C//DTD SVG 1.1//EN"
 "http://www.w3.org/Graphics/SVG/1.1/DTD/svg11.dtd">
<!-- Generated by graphviz version 2.40.1 (20161225.0304)
 -->
<!-- Title: Ogre::StaticGeometry::GeometryBucket Pages: 1 -->
<svg width="236pt" height="95pt"
 viewBox="0.00 0.00 236.00 95.00" xmlns="http://www.w3.org/2000/svg" xmlns:xlink="http://www.w3.org/1999/xlink">
<g id="graph0" class="graph" transform="scale(1 1) rotate(0) translate(4 91)">
<title>Ogre::StaticGeometry::GeometryBucket</title>
<!-- Node0 -->
<g id="node1" class="node">
<title>Node0</title>
<polygon fill="#bfbfbf" stroke="#000000" points="51.5,-.5 51.5,-30.5 163.5,-30.5 163.5,-.5 51.5,-.5"/>
<text text-anchor="start" x="59.5" y="-18.5" font-family="Helvetica,sans-Serif" font-size="10.00" fill="#000000">Ogre::StaticGeometry</text>
<text text-anchor="middle" x="107.5" y="-7.5" font-family="Helvetica,sans-Serif" font-size="10.00" fill="#000000">::GeometryBucket</text>
</g>
<!-- Node1 -->
<g id="node2" class="node">
<title>Node1</title>
<g id="a_node2"><a xlink:href="class_ogre_1_1_renderable.html" target="_top" xlink:title="Abstract class defining the interface all renderable objects must implement. ">
<polygon fill="none" stroke="#000000" points="0,-67.5 0,-86.5 93,-86.5 93,-67.5 0,-67.5"/>
<text text-anchor="middle" x="46.5" y="-74.5" font-family="Helvetica,sans-Serif" font-size="10.00" fill="#000000">Ogre::Renderable</text>
</a>
</g>
</g>
<!-- Node1&#45;&gt;Node0 -->
<g id="edge1" class="edge">
<title>Node1&#45;&gt;Node0</title>
<path fill="none" stroke="#191970" d="M63.1534,-60.2101C72.3479,-50.9403 83.6735,-39.5218 92.5777,-30.5446"/>
<polygon fill="#191970" stroke="#191970" points="60.5885,-57.826 56.0313,-67.3906 65.5584,-62.7555 60.5885,-57.826"/>
</g>
<!-- Node2 -->
<g id="node3" class="node">
<title>Node2</title>
<g id="a_node3"><a xlink:href="class_ogre_1_1_allocated_object.html" target="_top" xlink:title="BatchedGeometryAlloc">
<polygon fill="none" stroke="#000000" points="111,-67.5 111,-86.5 228,-86.5 228,-67.5 111,-67.5"/>
<text text-anchor="middle" x="169.5" y="-74.5" font-family="Helvetica,sans-Serif" font-size="10.00" fill="#000000">BatchedGeometryAlloc</text>
</a>
</g>
</g>
<!-- Node2&#45;&gt;Node0 -->
<g id="edge2" class="edge">
<title>Node2&#45;&gt;Node0</title>
<path fill="none" stroke="#191970" d="M152.5736,-60.2101C143.2284,-50.9403 131.7171,-39.5218 122.6669,-30.5446"/>
<polygon fill="#191970" stroke="#191970" points="150.248,-62.8331 159.8125,-67.3906 155.1777,-57.8633 150.248,-62.8331"/>
</g>
</g>
</svg>
