<?xml version="1.0" encoding="UTF-8" standalone="no"?>
<!DOCTYPE svg PUBLIC "-//W3C//DTD SVG 1.1//EN"
 "http://www.w3.org/Graphics/SVG/1.1/DTD/svg11.dtd">
<!-- Generated by graphviz version 2.40.1 (20161225.0304)
 -->
<!-- Title: Ogre::RTShader::ProgramWriter Pages: 1 -->
<svg width="713pt" height="137pt"
 viewBox="0.00 0.00 713.00 137.00" xmlns="http://www.w3.org/2000/svg" xmlns:xlink="http://www.w3.org/1999/xlink">
<g id="graph0" class="graph" transform="scale(1 1) rotate(0) translate(4 133)">
<title>Ogre::RTShader::ProgramWriter</title>
<!-- Node0 -->
<g id="node1" class="node">
<title>Node0</title>
<polygon fill="#bfbfbf" stroke="#000000" points="152,-55 152,-74 309,-74 309,-55 152,-55"/>
<text text-anchor="middle" x="230.5" y="-62" font-family="Helvetica,sans-Serif" font-size="10.00" fill="#000000">Ogre::RTShader::ProgramWriter</text>
</g>
<!-- Node2 -->
<g id="node3" class="node">
<title>Node2</title>
<g id="a_node3"><a xlink:href="class_ogre_1_1_r_t_shader_1_1_c_g_program_writer.html" target="_top" xlink:title="CG target language writer implementation. ">
<polygon fill="none" stroke="#000000" points="349.5,-98.5 349.5,-128.5 495.5,-128.5 495.5,-98.5 349.5,-98.5"/>
<text text-anchor="start" x="357.5" y="-116.5" font-family="Helvetica,sans-Serif" font-size="10.00" fill="#000000">Ogre::RTShader::CGProgram</text>
<text text-anchor="middle" x="422.5" y="-105.5" font-family="Helvetica,sans-Serif" font-size="10.00" fill="#000000">Writer</text>
</a>
</g>
</g>
<!-- Node0&#45;&gt;Node2 -->
<g id="edge2" class="edge">
<title>Node0&#45;&gt;Node2</title>
<path fill="none" stroke="#191970" d="M277.9192,-76.6018C303.8046,-83.208 336.0888,-91.4471 363.5797,-98.463"/>
<polygon fill="#191970" stroke="#191970" points="278.5303,-73.1456 267.9753,-74.064 276.7992,-79.9282 278.5303,-73.1456"/>
</g>
<!-- Node3 -->
<g id="node4" class="node">
<title>Node3</title>
<g id="a_node4"><a xlink:href="class_ogre_1_1_r_t_shader_1_1_g_l_s_l_program_writer.html" target="_top" xlink:title="GLSL target language writer implementation. ">
<polygon fill="none" stroke="#000000" points="345,-49.5 345,-79.5 500,-79.5 500,-49.5 345,-49.5"/>
<text text-anchor="start" x="353" y="-67.5" font-family="Helvetica,sans-Serif" font-size="10.00" fill="#000000">Ogre::RTShader::GLSLProgram</text>
<text text-anchor="middle" x="422.5" y="-56.5" font-family="Helvetica,sans-Serif" font-size="10.00" fill="#000000">Writer</text>
</a>
</g>
</g>
<!-- Node0&#45;&gt;Node3 -->
<g id="edge3" class="edge">
<title>Node0&#45;&gt;Node3</title>
<path fill="none" stroke="#191970" d="M319.1784,-64.5C327.7679,-64.5 336.4361,-64.5 344.9057,-64.5"/>
<polygon fill="#191970" stroke="#191970" points="319.1478,-61.0001 309.1477,-64.5 319.1477,-68.0001 319.1478,-61.0001"/>
</g>
<!-- Node5 -->
<g id="node6" class="node">
<title>Node5</title>
<g id="a_node6"><a xlink:href="class_ogre_1_1_r_t_shader_1_1_h_l_s_l_program_writer.html" target="_top" xlink:title="HLSL target language writer implementation. ">
<polygon fill="none" stroke="#000000" points="345,-.5 345,-30.5 500,-30.5 500,-.5 345,-.5"/>
<text text-anchor="start" x="353" y="-18.5" font-family="Helvetica,sans-Serif" font-size="10.00" fill="#000000">Ogre::RTShader::HLSLProgram</text>
<text text-anchor="middle" x="422.5" y="-7.5" font-family="Helvetica,sans-Serif" font-size="10.00" fill="#000000">Writer</text>
</a>
</g>
</g>
<!-- Node0&#45;&gt;Node5 -->
<g id="edge5" class="edge">
<title>Node0&#45;&gt;Node5</title>
<path fill="none" stroke="#191970" d="M277.9192,-52.3982C303.8046,-45.792 336.0888,-37.5529 363.5797,-30.537"/>
<polygon fill="#191970" stroke="#191970" points="276.7992,-49.0718 267.9753,-54.936 278.5303,-55.8544 276.7992,-49.0718"/>
</g>
<!-- Node1 -->
<g id="node2" class="node">
<title>Node1</title>
<g id="a_node2"><a xlink:href="class_ogre_1_1_allocated_object.html" target="_top" xlink:title="RTShaderSystemAlloc">
<polygon fill="none" stroke="#000000" points="0,-55 0,-74 116,-74 116,-55 0,-55"/>
<text text-anchor="middle" x="58" y="-62" font-family="Helvetica,sans-Serif" font-size="10.00" fill="#000000">RTShaderSystemAlloc</text>
</a>
</g>
</g>
<!-- Node1&#45;&gt;Node0 -->
<g id="edge1" class="edge">
<title>Node1&#45;&gt;Node0</title>
<path fill="none" stroke="#191970" d="M126.4785,-64.5C134.854,-64.5 143.4632,-64.5 151.9714,-64.5"/>
<polygon fill="#191970" stroke="#191970" points="126.4007,-61.0001 116.4006,-64.5 126.4006,-68.0001 126.4007,-61.0001"/>
</g>
<!-- Node4 -->
<g id="node5" class="node">
<title>Node4</title>
<g id="a_node5"><a xlink:href="class_ogre_1_1_r_t_shader_1_1_g_l_s_l_e_s_program_writer.html" target="_top" xlink:title="GLSL ES target language writer implementation. ">
<polygon fill="none" stroke="#000000" points="536,-49.5 536,-79.5 705,-79.5 705,-49.5 536,-49.5"/>
<text text-anchor="start" x="544" y="-67.5" font-family="Helvetica,sans-Serif" font-size="10.00" fill="#000000">Ogre::RTShader::GLSLESProgram</text>
<text text-anchor="middle" x="620.5" y="-56.5" font-family="Helvetica,sans-Serif" font-size="10.00" fill="#000000">Writer</text>
</a>
</g>
</g>
<!-- Node3&#45;&gt;Node4 -->
<g id="edge4" class="edge">
<title>Node3&#45;&gt;Node4</title>
<path fill="none" stroke="#191970" d="M510.4211,-64.5C518.8697,-64.5 527.4273,-64.5 535.8436,-64.5"/>
<polygon fill="#191970" stroke="#191970" points="510.1866,-61.0001 500.1866,-64.5 510.1865,-68.0001 510.1866,-61.0001"/>
</g>
</g>
</svg>
