<?xml version="1.0" encoding="UTF-8" standalone="no"?>
<!DOCTYPE svg PUBLIC "-//W3C//DTD SVG 1.1//EN"
 "http://www.w3.org/Graphics/SVG/1.1/DTD/svg11.dtd">
<!-- Generated by graphviz version 2.40.1 (20161225.0304)
 -->
<!-- Title: Ogre::D3D9Plugin Pages: 1 -->
<svg width="104pt" height="140pt"
 viewBox="0.00 0.00 104.00 140.00" xmlns="http://www.w3.org/2000/svg" xmlns:xlink="http://www.w3.org/1999/xlink">
<g id="graph0" class="graph" transform="scale(1 1) rotate(0) translate(4 136)">
<title>Ogre::D3D9Plugin</title>
<!-- Node0 -->
<g id="node1" class="node">
<title>Node0</title>
<polygon fill="#bfbfbf" stroke="#000000" points="0,-.5 0,-19.5 96,-19.5 96,-.5 0,-.5"/>
<text text-anchor="middle" x="48" y="-7.5" font-family="Helvetica,sans-Serif" font-size="10.00" fill="#000000">Ogre::D3D9Plugin</text>
</g>
<!-- Node1 -->
<g id="node2" class="node">
<title>Node1</title>
<g id="a_node2"><a xlink:href="class_ogre_1_1_plugin.html" target="_top" xlink:title="Class defining a generic OGRE plugin. ">
<polygon fill="none" stroke="#000000" points="12.5,-56.5 12.5,-75.5 83.5,-75.5 83.5,-56.5 12.5,-56.5"/>
<text text-anchor="middle" x="48" y="-63.5" font-family="Helvetica,sans-Serif" font-size="10.00" fill="#000000">Ogre::Plugin</text>
</a>
</g>
</g>
<!-- Node1&#45;&gt;Node0 -->
<g id="edge1" class="edge">
<title>Node1&#45;&gt;Node0</title>
<path fill="none" stroke="#191970" d="M48,-46.1575C48,-37.155 48,-26.9199 48,-19.6427"/>
<polygon fill="#191970" stroke="#191970" points="44.5001,-46.2455 48,-56.2455 51.5001,-46.2456 44.5001,-46.2455"/>
</g>
<!-- Node2 -->
<g id="node3" class="node">
<title>Node2</title>
<g id="a_node3"><a xlink:href="class_ogre_1_1_allocated_object.html" target="_top" xlink:title="PluginAlloc">
<polygon fill="none" stroke="#000000" points="15.5,-112.5 15.5,-131.5 80.5,-131.5 80.5,-112.5 15.5,-112.5"/>
<text text-anchor="middle" x="48" y="-119.5" font-family="Helvetica,sans-Serif" font-size="10.00" fill="#000000">PluginAlloc</text>
</a>
</g>
</g>
<!-- Node2&#45;&gt;Node1 -->
<g id="edge2" class="edge">
<title>Node2&#45;&gt;Node1</title>
<path fill="none" stroke="#191970" d="M48,-102.1575C48,-93.155 48,-82.9199 48,-75.6427"/>
<polygon fill="#191970" stroke="#191970" points="44.5001,-102.2455 48,-112.2455 51.5001,-102.2456 44.5001,-102.2455"/>
</g>
</g>
</svg>
