<?xml version="1.0" encoding="UTF-8" standalone="no"?>
<!DOCTYPE svg PUBLIC "-//W3C//DTD SVG 1.1//EN"
 "http://www.w3.org/Graphics/SVG/1.1/DTD/svg11.dtd">
<!-- Generated by graphviz version 2.40.1 (20161225.0304)
 -->
<!-- Title: Ogre::TransformKeyFrame Pages: 1 -->
<svg width="141pt" height="140pt"
 viewBox="0.00 0.00 141.00 140.00" xmlns="http://www.w3.org/2000/svg" xmlns:xlink="http://www.w3.org/1999/xlink">
<g id="graph0" class="graph" transform="scale(1 1) rotate(0) translate(4 136)">
<title>Ogre::TransformKeyFrame</title>
<!-- Node0 -->
<g id="node1" class="node">
<title>Node0</title>
<polygon fill="#bfbfbf" stroke="#000000" points="0,-.5 0,-19.5 133,-19.5 133,-.5 0,-.5"/>
<text text-anchor="middle" x="66.5" y="-7.5" font-family="Helvetica,sans-Serif" font-size="10.00" fill="#000000">Ogre::TransformKeyFrame</text>
</g>
<!-- Node1 -->
<g id="node2" class="node">
<title>Node1</title>
<g id="a_node2"><a xlink:href="class_ogre_1_1_key_frame.html" target="_top" xlink:title="A key frame in an animation sequence defined by an AnimationTrack. ">
<polygon fill="none" stroke="#000000" points="22,-56.5 22,-75.5 111,-75.5 111,-56.5 22,-56.5"/>
<text text-anchor="middle" x="66.5" y="-63.5" font-family="Helvetica,sans-Serif" font-size="10.00" fill="#000000">Ogre::KeyFrame</text>
</a>
</g>
</g>
<!-- Node1&#45;&gt;Node0 -->
<g id="edge1" class="edge">
<title>Node1&#45;&gt;Node0</title>
<path fill="none" stroke="#191970" d="M66.5,-46.1575C66.5,-37.155 66.5,-26.9199 66.5,-19.6427"/>
<polygon fill="#191970" stroke="#191970" points="63.0001,-46.2455 66.5,-56.2455 70.0001,-46.2456 63.0001,-46.2455"/>
</g>
<!-- Node2 -->
<g id="node3" class="node">
<title>Node2</title>
<g id="a_node3"><a xlink:href="class_ogre_1_1_allocated_object.html" target="_top" xlink:title="AnimationAlloc">
<polygon fill="none" stroke="#000000" points="25.5,-112.5 25.5,-131.5 107.5,-131.5 107.5,-112.5 25.5,-112.5"/>
<text text-anchor="middle" x="66.5" y="-119.5" font-family="Helvetica,sans-Serif" font-size="10.00" fill="#000000">AnimationAlloc</text>
</a>
</g>
</g>
<!-- Node2&#45;&gt;Node1 -->
<g id="edge2" class="edge">
<title>Node2&#45;&gt;Node1</title>
<path fill="none" stroke="#191970" d="M66.5,-102.1575C66.5,-93.155 66.5,-82.9199 66.5,-75.6427"/>
<polygon fill="#191970" stroke="#191970" points="63.0001,-102.2455 66.5,-112.2455 70.0001,-102.2456 63.0001,-102.2455"/>
</g>
</g>
</svg>
