<?xml version="1.0" encoding="UTF-8" standalone="no"?>
<!DOCTYPE svg PUBLIC "-//W3C//DTD SVG 1.1//EN"
 "http://www.w3.org/Graphics/SVG/1.1/DTD/svg11.dtd">
<!-- Generated by graphviz version 2.40.1 (20161225.0304)
 -->
<!-- Title: Ogre::GpuProgramManager Pages: 1 -->
<svg width="665pt" height="180pt"
 viewBox="0.00 0.00 665.00 180.00" xmlns="http://www.w3.org/2000/svg" xmlns:xlink="http://www.w3.org/1999/xlink">
<g id="graph0" class="graph" transform="scale(1 1) rotate(0) translate(4 176)">
<title>Ogre::GpuProgramManager</title>
<!-- Node0 -->
<g id="node1" class="node">
<title>Node0</title>
<polygon fill="#bfbfbf" stroke="#000000" points="318,-76.5 318,-95.5 454,-95.5 454,-76.5 318,-76.5"/>
<text text-anchor="middle" x="386" y="-83.5" font-family="Helvetica,sans-Serif" font-size="10.00" fill="#000000">Ogre::GpuProgramManager</text>
</g>
<!-- Node5 -->
<g id="node6" class="node">
<title>Node5</title>
<g id="a_node6"><a xlink:href="class_ogre_1_1_d3_d11_gpu_program_manager.html" target="_top" xlink:title="Ogre::D3D11GpuProgramManager">
<polygon fill="none" stroke="#000000" points="490,-152.5 490,-171.5 657,-171.5 657,-152.5 490,-152.5"/>
<text text-anchor="middle" x="573.5" y="-159.5" font-family="Helvetica,sans-Serif" font-size="10.00" fill="#000000">Ogre::D3D11GpuProgramManager</text>
</a>
</g>
</g>
<!-- Node0&#45;&gt;Node5 -->
<g id="edge5" class="edge">
<title>Node0&#45;&gt;Node5</title>
<path fill="none" stroke="#191970" d="M409.1565,-101.144C429.6601,-113.9443 460.7849,-131.9182 490,-143 499.8695,-146.7437 510.6872,-149.8722 521.1682,-152.4389"/>
<polygon fill="#191970" stroke="#191970" points="410.8473,-98.0718 400.5283,-95.6702 407.0974,-103.9827 410.8473,-98.0718"/>
</g>
<!-- Node6 -->
<g id="node7" class="node">
<title>Node6</title>
<g id="a_node7"><a xlink:href="class_ogre_1_1_d3_d9_gpu_program_manager.html" target="_top" xlink:title="Ogre::D3D9GpuProgramManager">
<polygon fill="none" stroke="#000000" points="493,-114.5 493,-133.5 654,-133.5 654,-114.5 493,-114.5"/>
<text text-anchor="middle" x="573.5" y="-121.5" font-family="Helvetica,sans-Serif" font-size="10.00" fill="#000000">Ogre::D3D9GpuProgramManager</text>
</a>
</g>
</g>
<!-- Node0&#45;&gt;Node6 -->
<g id="edge6" class="edge">
<title>Node0&#45;&gt;Node6</title>
<path fill="none" stroke="#191970" d="M443.2838,-97.6095C469.9506,-103.014 501.2805,-109.3635 526.5261,-114.4799"/>
<polygon fill="#191970" stroke="#191970" points="443.8101,-94.1451 433.3142,-95.589 442.4197,-101.0056 443.8101,-94.1451"/>
</g>
<!-- Node7 -->
<g id="node8" class="node">
<title>Node7</title>
<g id="a_node8"><a xlink:href="class_ogre_1_1_g_l_e_s2_gpu_program_manager.html" target="_top" xlink:title="Ogre::GLES2GpuProgramManager">
<polygon fill="none" stroke="#000000" points="490,-76.5 490,-95.5 657,-95.5 657,-76.5 490,-76.5"/>
<text text-anchor="middle" x="573.5" y="-83.5" font-family="Helvetica,sans-Serif" font-size="10.00" fill="#000000">Ogre::GLES2GpuProgramManager</text>
</a>
</g>
</g>
<!-- Node0&#45;&gt;Node7 -->
<g id="edge7" class="edge">
<title>Node0&#45;&gt;Node7</title>
<path fill="none" stroke="#191970" d="M464.4242,-86C472.873,-86 481.4925,-86 489.9982,-86"/>
<polygon fill="#191970" stroke="#191970" points="464.2222,-82.5001 454.2222,-86 464.2222,-89.5001 464.2222,-82.5001"/>
</g>
<!-- Node8 -->
<g id="node9" class="node">
<title>Node8</title>
<g id="a_node9"><a xlink:href="class_ogre_1_1_g_l_gpu_program_manager.html" target="_top" xlink:title="Ogre::GLGpuProgramManager">
<polygon fill="none" stroke="#000000" points="499,-38.5 499,-57.5 648,-57.5 648,-38.5 499,-38.5"/>
<text text-anchor="middle" x="573.5" y="-45.5" font-family="Helvetica,sans-Serif" font-size="10.00" fill="#000000">Ogre::GLGpuProgramManager</text>
</a>
</g>
</g>
<!-- Node0&#45;&gt;Node8 -->
<g id="edge8" class="edge">
<title>Node0&#45;&gt;Node8</title>
<path fill="none" stroke="#191970" d="M443.2838,-74.3905C469.9506,-68.986 501.2805,-62.6365 526.5261,-57.5201"/>
<polygon fill="#191970" stroke="#191970" points="442.4197,-70.9944 433.3142,-76.411 443.8101,-77.8549 442.4197,-70.9944"/>
</g>
<!-- Node9 -->
<g id="node10" class="node">
<title>Node9</title>
<g id="a_node10"><a xlink:href="class_ogre_1_1_g_l_s_l_shader_manager.html" target="_top" xlink:title="Ogre::GLSLShaderManager">
<polygon fill="none" stroke="#000000" points="505,-.5 505,-19.5 642,-19.5 642,-.5 505,-.5"/>
<text text-anchor="middle" x="573.5" y="-7.5" font-family="Helvetica,sans-Serif" font-size="10.00" fill="#000000">Ogre::GLSLShaderManager</text>
</a>
</g>
</g>
<!-- Node0&#45;&gt;Node9 -->
<g id="edge9" class="edge">
<title>Node0&#45;&gt;Node9</title>
<path fill="none" stroke="#191970" d="M409.1565,-70.856C429.6601,-58.0557 460.7849,-40.0818 490,-29 499.8695,-25.2563 510.6872,-22.1278 521.1682,-19.5611"/>
<polygon fill="#191970" stroke="#191970" points="407.0974,-68.0173 400.5283,-76.3298 410.8473,-73.9282 407.0974,-68.0173"/>
</g>
<!-- Node1 -->
<g id="node2" class="node">
<title>Node1</title>
<g id="a_node2"><a xlink:href="class_ogre_1_1_resource_manager.html" target="_top" xlink:title="Defines a generic resource handler. ">
<polygon fill="none" stroke="#000000" points="146.5,-98.5 146.5,-117.5 269.5,-117.5 269.5,-98.5 146.5,-98.5"/>
<text text-anchor="middle" x="208" y="-105.5" font-family="Helvetica,sans-Serif" font-size="10.00" fill="#000000">Ogre::ResourceManager</text>
</a>
</g>
</g>
<!-- Node1&#45;&gt;Node0 -->
<g id="edge1" class="edge">
<title>Node1&#45;&gt;Node0</title>
<path fill="none" stroke="#191970" d="M279.749,-99.1321C292.363,-97.5731 305.4579,-95.9546 317.9668,-94.4086"/>
<polygon fill="#191970" stroke="#191970" points="279.2513,-95.6669 269.7562,-100.3672 280.11,-102.6141 279.2513,-95.6669"/>
</g>
<!-- Node2 -->
<g id="node3" class="node">
<title>Node2</title>
<g id="a_node3"><a xlink:href="class_ogre_1_1_script_loader.html" target="_top" xlink:title="Abstract class defining the interface used by classes which wish to perform script loading to define ...">
<polygon fill="none" stroke="#000000" points="0,-117.5 0,-136.5 98,-136.5 98,-117.5 0,-117.5"/>
<text text-anchor="middle" x="49" y="-124.5" font-family="Helvetica,sans-Serif" font-size="10.00" fill="#000000">Ogre::ScriptLoader</text>
</a>
</g>
</g>
<!-- Node2&#45;&gt;Node1 -->
<g id="edge2" class="edge">
<title>Node2&#45;&gt;Node1</title>
<path fill="none" stroke="#191970" d="M108.2266,-119.9226C120.63,-118.4404 133.7389,-116.874 146.2322,-115.3811"/>
<polygon fill="#191970" stroke="#191970" points="107.5167,-116.4825 98.0026,-121.1443 108.3473,-123.433 107.5167,-116.4825"/>
</g>
<!-- Node3 -->
<g id="node4" class="node">
<title>Node3</title>
<g id="a_node4"><a xlink:href="class_ogre_1_1_allocated_object.html" target="_top" xlink:title="ResourceAlloc">
<polygon fill="none" stroke="#000000" points="9,-79.5 9,-98.5 89,-98.5 89,-79.5 9,-79.5"/>
<text text-anchor="middle" x="49" y="-86.5" font-family="Helvetica,sans-Serif" font-size="10.00" fill="#000000">ResourceAlloc</text>
</a>
</g>
</g>
<!-- Node3&#45;&gt;Node1 -->
<g id="edge3" class="edge">
<title>Node3&#45;&gt;Node1</title>
<path fill="none" stroke="#191970" d="M99.1705,-94.9952C114.1002,-96.7793 130.6349,-98.7551 146.2135,-100.6167"/>
<polygon fill="#191970" stroke="#191970" points="99.4671,-91.5058 89.1224,-93.7945 98.6365,-98.4564 99.4671,-91.5058"/>
</g>
<!-- Node4 -->
<g id="node5" class="node">
<title>Node4</title>
<g id="a_node5"><a xlink:href="class_ogre_1_1_singleton.html" target="_top" xlink:title="Ogre::Singleton\&lt; GpuProgram\lManager \&gt;">
<polygon fill="none" stroke="#000000" points="134,-49 134,-79 282,-79 282,-49 134,-49"/>
<text text-anchor="start" x="142" y="-67" font-family="Helvetica,sans-Serif" font-size="10.00" fill="#000000">Ogre::Singleton&lt; GpuProgram</text>
<text text-anchor="middle" x="208" y="-56" font-family="Helvetica,sans-Serif" font-size="10.00" fill="#000000">Manager &gt;</text>
</a>
</g>
</g>
<!-- Node4&#45;&gt;Node0 -->
<g id="edge4" class="edge">
<title>Node4&#45;&gt;Node0</title>
<path fill="none" stroke="#191970" d="M292.2454,-74.4124C300.8431,-75.475 309.5001,-76.545 317.8943,-77.5824"/>
<polygon fill="#191970" stroke="#191970" points="292.5529,-70.9238 282.1991,-73.1707 291.6942,-77.871 292.5529,-70.9238"/>
</g>
</g>
</svg>
