<?xml version="1.0" encoding="UTF-8" standalone="no"?>
<!DOCTYPE svg PUBLIC "-//W3C//DTD SVG 1.1//EN"
 "http://www.w3.org/Graphics/SVG/1.1/DTD/svg11.dtd">
<!-- Generated by graphviz version 2.40.1 (20161225.0304)
 -->
<!-- Title: Ogre::D3D9VertexDeclaration Pages: 1 -->
<svg width="260pt" height="140pt"
 viewBox="0.00 0.00 259.50 140.00" xmlns="http://www.w3.org/2000/svg" xmlns:xlink="http://www.w3.org/1999/xlink">
<g id="graph0" class="graph" transform="scale(1 1) rotate(0) translate(4 136)">
<title>Ogre::D3D9VertexDeclaration</title>
<!-- Node0 -->
<g id="node1" class="node">
<title>Node0</title>
<polygon fill="#bfbfbf" stroke="#000000" points="54.5,-.5 54.5,-19.5 201.5,-19.5 201.5,-.5 54.5,-.5"/>
<text text-anchor="middle" x="128" y="-7.5" font-family="Helvetica,sans-Serif" font-size="10.00" fill="#000000">Ogre::D3D9VertexDeclaration</text>
</g>
<!-- Node1 -->
<g id="node2" class="node">
<title>Node1</title>
<g id="a_node2"><a xlink:href="class_ogre_1_1_vertex_declaration.html" target="_top" xlink:title="This class declares the format of a set of vertex inputs, which can be issued to the rendering API th...">
<polygon fill="none" stroke="#000000" points="0,-56.5 0,-75.5 122,-75.5 122,-56.5 0,-56.5"/>
<text text-anchor="middle" x="61" y="-63.5" font-family="Helvetica,sans-Serif" font-size="10.00" fill="#000000">Ogre::VertexDeclaration</text>
</a>
</g>
</g>
<!-- Node1&#45;&gt;Node0 -->
<g id="edge1" class="edge">
<title>Node1&#45;&gt;Node0</title>
<path fill="none" stroke="#191970" d="M80.5676,-49.645C92.2198,-39.9058 106.6084,-27.8795 116.4632,-19.6427"/>
<polygon fill="#191970" stroke="#191970" points="78.0988,-47.1469 72.6705,-56.2455 82.5879,-52.5179 78.0988,-47.1469"/>
</g>
<!-- Node2 -->
<g id="node3" class="node">
<title>Node2</title>
<g id="a_node3"><a xlink:href="class_ogre_1_1_allocated_object.html" target="_top" xlink:title="VertexDataAlloc">
<polygon fill="none" stroke="#000000" points="17,-112.5 17,-131.5 105,-131.5 105,-112.5 17,-112.5"/>
<text text-anchor="middle" x="61" y="-119.5" font-family="Helvetica,sans-Serif" font-size="10.00" fill="#000000">VertexDataAlloc</text>
</a>
</g>
</g>
<!-- Node2&#45;&gt;Node1 -->
<g id="edge2" class="edge">
<title>Node2&#45;&gt;Node1</title>
<path fill="none" stroke="#191970" d="M61,-102.1575C61,-93.155 61,-82.9199 61,-75.6427"/>
<polygon fill="#191970" stroke="#191970" points="57.5001,-102.2455 61,-112.2455 64.5001,-102.2456 57.5001,-102.2455"/>
</g>
<!-- Node3 -->
<g id="node4" class="node">
<title>Node3</title>
<g id="a_node4"><a xlink:href="class_ogre_1_1_d3_d9_resource.html" target="_top" xlink:title="Represents a Direct3D rendering resource. ">
<polygon fill="none" stroke="#000000" points="140.5,-56.5 140.5,-75.5 251.5,-75.5 251.5,-56.5 140.5,-56.5"/>
<text text-anchor="middle" x="196" y="-63.5" font-family="Helvetica,sans-Serif" font-size="10.00" fill="#000000">Ogre::D3D9Resource</text>
</a>
</g>
</g>
<!-- Node3&#45;&gt;Node0 -->
<g id="edge3" class="edge">
<title>Node3&#45;&gt;Node0</title>
<path fill="none" stroke="#191970" d="M176.1404,-49.645C164.3142,-39.9058 149.7108,-27.8795 139.709,-19.6427"/>
<polygon fill="#191970" stroke="#191970" points="174.211,-52.5902 184.1553,-56.2455 178.661,-47.1867 174.211,-52.5902"/>
</g>
</g>
</svg>
