<?xml version="1.0" encoding="UTF-8" standalone="no"?>
<!DOCTYPE svg PUBLIC "-//W3C//DTD SVG 1.1//EN"
 "http://www.w3.org/Graphics/SVG/1.1/DTD/svg11.dtd">
<!-- Generated by graphviz version 2.40.1 (20161225.0304)
 -->
<!-- Title: Ogre::GLSLShaderCommon Pages: 1 -->
<svg width="399pt" height="364pt"
 viewBox="0.00 0.00 398.50 364.00" xmlns="http://www.w3.org/2000/svg" xmlns:xlink="http://www.w3.org/1999/xlink">
<g id="graph0" class="graph" transform="scale(1 1) rotate(0) translate(4 360)">
<title>Ogre::GLSLShaderCommon</title>
<!-- Node0 -->
<g id="node1" class="node">
<title>Node0</title>
<polygon fill="#bfbfbf" stroke="#000000" points="144.5,-112.5 144.5,-131.5 283.5,-131.5 283.5,-112.5 144.5,-112.5"/>
<text text-anchor="middle" x="214" y="-119.5" font-family="Helvetica,sans-Serif" font-size="10.00" fill="#000000">Ogre::GLSLShaderCommon</text>
</g>
<!-- Node6 -->
<g id="node7" class="node">
<title>Node6</title>
<g id="a_node7"><a xlink:href="class_ogre_1_1_g_l_s_l_1_1_g_l_s_l_program.html" target="_top" xlink:title="Specialisation of HighLevelGpuProgram to provide support for OpenGL Shader Language (GLSL)...">
<polygon fill="none" stroke="#000000" points="0,-56.5 0,-75.5 136,-75.5 136,-56.5 0,-56.5"/>
<text text-anchor="middle" x="68" y="-63.5" font-family="Helvetica,sans-Serif" font-size="10.00" fill="#000000">Ogre::GLSL::GLSLProgram</text>
</a>
</g>
</g>
<!-- Node0&#45;&gt;Node6 -->
<g id="edge6" class="edge">
<title>Node0&#45;&gt;Node6</title>
<path fill="none" stroke="#191970" d="M179.5565,-108.7888C152.8987,-98.5639 116.62,-84.6488 92.7708,-75.5011"/>
<polygon fill="#191970" stroke="#191970" points="178.3115,-112.0598 188.9017,-112.3733 180.8184,-105.5241 178.3115,-112.0598"/>
</g>
<!-- Node7 -->
<g id="node8" class="node">
<title>Node7</title>
<g id="a_node8"><a xlink:href="class_ogre_1_1_g_l_s_l_e_s_program.html" target="_top" xlink:title="Specialisation of HighLevelGpuProgram to provide support for OpenGL Shader Language (GLSL ES) for Ope...">
<polygon fill="none" stroke="#000000" points="154.5,-56.5 154.5,-75.5 273.5,-75.5 273.5,-56.5 154.5,-56.5"/>
<text text-anchor="middle" x="214" y="-63.5" font-family="Helvetica,sans-Serif" font-size="10.00" fill="#000000">Ogre::GLSLESProgram</text>
</a>
</g>
</g>
<!-- Node0&#45;&gt;Node7 -->
<g id="edge7" class="edge">
<title>Node0&#45;&gt;Node7</title>
<path fill="none" stroke="#191970" d="M214,-102.1575C214,-93.155 214,-82.9199 214,-75.6427"/>
<polygon fill="#191970" stroke="#191970" points="210.5001,-102.2455 214,-112.2455 217.5001,-102.2456 210.5001,-102.2455"/>
</g>
<!-- Node9 -->
<g id="node10" class="node">
<title>Node9</title>
<g id="a_node10"><a xlink:href="class_ogre_1_1_g_l_s_l_shader.html" target="_top" xlink:title="Specialisation of HighLevelGpuProgram to encapsulate shader objects obtained from compiled shaders wr...">
<polygon fill="none" stroke="#000000" points="291.5,-56.5 291.5,-75.5 390.5,-75.5 390.5,-56.5 291.5,-56.5"/>
<text text-anchor="middle" x="341" y="-63.5" font-family="Helvetica,sans-Serif" font-size="10.00" fill="#000000">Ogre::GLSLShader</text>
</a>
</g>
</g>
<!-- Node0&#45;&gt;Node9 -->
<g id="edge9" class="edge">
<title>Node0&#45;&gt;Node9</title>
<path fill="none" stroke="#191970" d="M245.1892,-108.2473C268.2537,-98.0771 299.0712,-84.4883 319.4528,-75.5011"/>
<polygon fill="#191970" stroke="#191970" points="243.5699,-105.1361 235.8321,-112.3733 246.3942,-111.5411 243.5699,-105.1361"/>
</g>
<!-- Node1 -->
<g id="node2" class="node">
<title>Node1</title>
<g id="a_node2"><a xlink:href="class_ogre_1_1_high_level_gpu_program.html" target="_top" xlink:title="Abstract base class representing a high&#45;level program (a vertex or fragment program). ">
<polygon fill="none" stroke="#000000" points="143,-168.5 143,-187.5 285,-187.5 285,-168.5 143,-168.5"/>
<text text-anchor="middle" x="214" y="-175.5" font-family="Helvetica,sans-Serif" font-size="10.00" fill="#000000">Ogre::HighLevelGpuProgram</text>
</a>
</g>
</g>
<!-- Node1&#45;&gt;Node0 -->
<g id="edge1" class="edge">
<title>Node1&#45;&gt;Node0</title>
<path fill="none" stroke="#191970" d="M214,-158.1575C214,-149.155 214,-138.9199 214,-131.6427"/>
<polygon fill="#191970" stroke="#191970" points="210.5001,-158.2455 214,-168.2455 217.5001,-158.2456 210.5001,-158.2455"/>
</g>
<!-- Node2 -->
<g id="node3" class="node">
<title>Node2</title>
<g id="a_node3"><a xlink:href="class_ogre_1_1_gpu_program.html" target="_top" xlink:title="Defines a program which runs on the GPU such as a vertex or fragment program. ">
<polygon fill="none" stroke="#000000" points="165,-224.5 165,-243.5 263,-243.5 263,-224.5 165,-224.5"/>
<text text-anchor="middle" x="214" y="-231.5" font-family="Helvetica,sans-Serif" font-size="10.00" fill="#000000">Ogre::GpuProgram</text>
</a>
</g>
</g>
<!-- Node2&#45;&gt;Node1 -->
<g id="edge2" class="edge">
<title>Node2&#45;&gt;Node1</title>
<path fill="none" stroke="#191970" d="M214,-214.1575C214,-205.155 214,-194.9199 214,-187.6427"/>
<polygon fill="#191970" stroke="#191970" points="210.5001,-214.2455 214,-224.2455 217.5001,-214.2456 210.5001,-214.2455"/>
</g>
<!-- Node3 -->
<g id="node4" class="node">
<title>Node3</title>
<g id="a_node4"><a xlink:href="class_ogre_1_1_resource.html" target="_top" xlink:title="Abstract class representing a loadable resource (e.g. ">
<polygon fill="none" stroke="#000000" points="171,-280.5 171,-299.5 257,-299.5 257,-280.5 171,-280.5"/>
<text text-anchor="middle" x="214" y="-287.5" font-family="Helvetica,sans-Serif" font-size="10.00" fill="#000000">Ogre::Resource</text>
</a>
</g>
</g>
<!-- Node3&#45;&gt;Node2 -->
<g id="edge3" class="edge">
<title>Node3&#45;&gt;Node2</title>
<path fill="none" stroke="#191970" d="M214,-270.1575C214,-261.155 214,-250.9199 214,-243.6427"/>
<polygon fill="#191970" stroke="#191970" points="210.5001,-270.2455 214,-280.2455 217.5001,-270.2456 210.5001,-270.2455"/>
</g>
<!-- Node4 -->
<g id="node5" class="node">
<title>Node4</title>
<g id="a_node5"><a xlink:href="class_ogre_1_1_string_interface.html" target="_top" xlink:title="Class defining the common interface which classes can use to present a reflection&#45;style, self&#45;defining parameter set to callers. ">
<polygon fill="none" stroke="#000000" points="104.5,-336.5 104.5,-355.5 211.5,-355.5 211.5,-336.5 104.5,-336.5"/>
<text text-anchor="middle" x="158" y="-343.5" font-family="Helvetica,sans-Serif" font-size="10.00" fill="#000000">Ogre::StringInterface</text>
</a>
</g>
</g>
<!-- Node4&#45;&gt;Node3 -->
<g id="edge4" class="edge">
<title>Node4&#45;&gt;Node3</title>
<path fill="none" stroke="#191970" d="M174.9249,-329.0751C184.5598,-319.4402 196.2804,-307.7196 204.3573,-299.6427"/>
<polygon fill="#191970" stroke="#191970" points="172.3507,-326.6996 167.7545,-336.2455 177.3004,-331.6493 172.3507,-326.6996"/>
</g>
<!-- Node5 -->
<g id="node6" class="node">
<title>Node5</title>
<g id="a_node6"><a xlink:href="class_ogre_1_1_allocated_object.html" target="_top" xlink:title="ResourceAlloc">
<polygon fill="none" stroke="#000000" points="230,-336.5 230,-355.5 310,-355.5 310,-336.5 230,-336.5"/>
<text text-anchor="middle" x="270" y="-343.5" font-family="Helvetica,sans-Serif" font-size="10.00" fill="#000000">ResourceAlloc</text>
</a>
</g>
</g>
<!-- Node5&#45;&gt;Node3 -->
<g id="edge5" class="edge">
<title>Node5&#45;&gt;Node3</title>
<path fill="none" stroke="#191970" d="M253.0751,-329.0751C243.4402,-319.4402 231.7196,-307.7196 223.6427,-299.6427"/>
<polygon fill="#191970" stroke="#191970" points="250.6996,-331.6493 260.2455,-336.2455 255.6493,-326.6996 250.6996,-331.6493"/>
</g>
<!-- Node8 -->
<g id="node9" class="node">
<title>Node8</title>
<g id="a_node9"><a xlink:href="class_ogre_1_1_g_l_s_l_e_s_cg_program.html" target="_top" xlink:title="Specialisation of HighLevelGpuProgram to provide support for CG. ">
<polygon fill="none" stroke="#000000" points="148.5,-.5 148.5,-19.5 279.5,-19.5 279.5,-.5 148.5,-.5"/>
<text text-anchor="middle" x="214" y="-7.5" font-family="Helvetica,sans-Serif" font-size="10.00" fill="#000000">Ogre::GLSLESCgProgram</text>
</a>
</g>
</g>
<!-- Node7&#45;&gt;Node8 -->
<g id="edge8" class="edge">
<title>Node7&#45;&gt;Node8</title>
<path fill="none" stroke="#191970" d="M214,-46.1575C214,-37.155 214,-26.9199 214,-19.6427"/>
<polygon fill="#191970" stroke="#191970" points="210.5001,-46.2455 214,-56.2455 217.5001,-46.2456 210.5001,-46.2455"/>
</g>
</g>
</svg>
