<?xml version="1.0" encoding="UTF-8" standalone="no"?>
<!DOCTYPE svg PUBLIC "-//W3C//DTD SVG 1.1//EN"
 "http://www.w3.org/Graphics/SVG/1.1/DTD/svg11.dtd">
<!-- Generated by graphviz version 2.40.1 (20161225.0304)
 -->
<!-- Title: Ogre::ShadowCameraSetup Pages: 1 -->
<svg width="853pt" height="137pt"
 viewBox="0.00 0.00 853.00 137.00" xmlns="http://www.w3.org/2000/svg" xmlns:xlink="http://www.w3.org/1999/xlink">
<g id="graph0" class="graph" transform="scale(1 1) rotate(0) translate(4 133)">
<title>Ogre::ShadowCameraSetup</title>
<!-- Node0 -->
<g id="node1" class="node">
<title>Node0</title>
<polygon fill="#bfbfbf" stroke="#000000" points="131,-55 131,-74 270,-74 270,-55 131,-55"/>
<text text-anchor="middle" x="200.5" y="-62" font-family="Helvetica,sans-Serif" font-size="10.00" fill="#000000">Ogre::ShadowCameraSetup</text>
</g>
<!-- Node2 -->
<g id="node3" class="node">
<title>Node2</title>
<g id="a_node3"><a xlink:href="class_ogre_1_1_default_shadow_camera_setup.html" target="_top" xlink:title="Implements default shadow camera setup. ">
<polygon fill="none" stroke="#000000" points="309,-98.5 309,-128.5 454,-128.5 454,-98.5 309,-98.5"/>
<text text-anchor="start" x="317" y="-116.5" font-family="Helvetica,sans-Serif" font-size="10.00" fill="#000000">Ogre::DefaultShadowCamera</text>
<text text-anchor="middle" x="381.5" y="-105.5" font-family="Helvetica,sans-Serif" font-size="10.00" fill="#000000">Setup</text>
</a>
</g>
</g>
<!-- Node0&#45;&gt;Node2 -->
<g id="edge2" class="edge">
<title>Node0&#45;&gt;Node2</title>
<path fill="none" stroke="#191970" d="M245.5268,-76.6896C269.8741,-83.2808 300.1541,-91.4782 325.9553,-98.463"/>
<polygon fill="#191970" stroke="#191970" points="246.3955,-73.2988 235.8283,-74.064 244.5662,-80.0556 246.3955,-73.2988"/>
</g>
<!-- Node3 -->
<g id="node4" class="node">
<title>Node3</title>
<g id="a_node4"><a xlink:href="class_ogre_1_1_focused_shadow_camera_setup.html" target="_top" xlink:title="Implements the uniform shadow mapping algorithm in focused mode. ">
<polygon fill="none" stroke="#000000" points="306,-49.5 306,-79.5 457,-79.5 457,-49.5 306,-49.5"/>
<text text-anchor="start" x="314" y="-67.5" font-family="Helvetica,sans-Serif" font-size="10.00" fill="#000000">Ogre::FocusedShadowCamera</text>
<text text-anchor="middle" x="381.5" y="-56.5" font-family="Helvetica,sans-Serif" font-size="10.00" fill="#000000">Setup</text>
</a>
</g>
</g>
<!-- Node0&#45;&gt;Node3 -->
<g id="edge3" class="edge">
<title>Node0&#45;&gt;Node3</title>
<path fill="none" stroke="#191970" d="M280.4263,-64.5C288.8602,-64.5 297.4184,-64.5 305.8023,-64.5"/>
<polygon fill="#191970" stroke="#191970" points="280.2205,-61.0001 270.2204,-64.5 280.2204,-68.0001 280.2205,-61.0001"/>
</g>
<!-- Node6 -->
<g id="node7" class="node">
<title>Node6</title>
<g id="a_node7"><a xlink:href="class_ogre_1_1_plane_optimal_shadow_camera_setup.html" target="_top" xlink:title="Implements the plane optimal shadow camera algorithm. ">
<polygon fill="none" stroke="#000000" points="313,-.5 313,-30.5 450,-30.5 450,-.5 313,-.5"/>
<text text-anchor="start" x="321" y="-18.5" font-family="Helvetica,sans-Serif" font-size="10.00" fill="#000000">Ogre::PlaneOptimalShadow</text>
<text text-anchor="middle" x="381.5" y="-7.5" font-family="Helvetica,sans-Serif" font-size="10.00" fill="#000000">CameraSetup</text>
</a>
</g>
</g>
<!-- Node0&#45;&gt;Node6 -->
<g id="edge6" class="edge">
<title>Node0&#45;&gt;Node6</title>
<path fill="none" stroke="#191970" d="M245.5268,-52.3104C269.8741,-45.7192 300.1541,-37.5218 325.9553,-30.537"/>
<polygon fill="#191970" stroke="#191970" points="244.5662,-48.9444 235.8283,-54.936 246.3955,-55.7012 244.5662,-48.9444"/>
</g>
<!-- Node1 -->
<g id="node2" class="node">
<title>Node1</title>
<g id="a_node2"><a xlink:href="class_ogre_1_1_allocated_object.html" target="_top" xlink:title="ShadowDataAlloc">
<polygon fill="none" stroke="#000000" points="0,-55 0,-74 95,-74 95,-55 0,-55"/>
<text text-anchor="middle" x="47.5" y="-62" font-family="Helvetica,sans-Serif" font-size="10.00" fill="#000000">ShadowDataAlloc</text>
</a>
</g>
</g>
<!-- Node1&#45;&gt;Node0 -->
<g id="edge1" class="edge">
<title>Node1&#45;&gt;Node0</title>
<path fill="none" stroke="#191970" d="M105.1035,-64.5C113.4833,-64.5 122.1858,-64.5 130.7735,-64.5"/>
<polygon fill="#191970" stroke="#191970" points="105.0715,-61.0001 95.0715,-64.5 105.0714,-68.0001 105.0715,-61.0001"/>
</g>
<!-- Node4 -->
<g id="node5" class="node">
<title>Node4</title>
<g id="a_node5"><a xlink:href="class_ogre_1_1_li_s_p_s_m_shadow_camera_setup.html" target="_top" xlink:title="Implements the Light Space Perspective Shadow Mapping Algorithm. ">
<polygon fill="none" stroke="#000000" points="493,-49.5 493,-79.5 642,-79.5 642,-49.5 493,-49.5"/>
<text text-anchor="start" x="501" y="-67.5" font-family="Helvetica,sans-Serif" font-size="10.00" fill="#000000">Ogre::LiSPSMShadowCamera</text>
<text text-anchor="middle" x="567.5" y="-56.5" font-family="Helvetica,sans-Serif" font-size="10.00" fill="#000000">Setup</text>
</a>
</g>
</g>
<!-- Node3&#45;&gt;Node4 -->
<g id="edge4" class="edge">
<title>Node3&#45;&gt;Node4</title>
<path fill="none" stroke="#191970" d="M467.1557,-64.5C475.7239,-64.5 484.3758,-64.5 492.818,-64.5"/>
<polygon fill="#191970" stroke="#191970" points="467.1534,-61.0001 457.1533,-64.5 467.1533,-68.0001 467.1534,-61.0001"/>
</g>
<!-- Node5 -->
<g id="node6" class="node">
<title>Node5</title>
<g id="a_node6"><a xlink:href="class_ogre_1_1_p_s_s_m_shadow_camera_setup.html" target="_top" xlink:title="Parallel Split Shadow Map (PSSM) shadow camera setup. ">
<polygon fill="none" stroke="#000000" points="678,-55 678,-74 845,-74 845,-55 678,-55"/>
<text text-anchor="middle" x="761.5" y="-62" font-family="Helvetica,sans-Serif" font-size="10.00" fill="#000000">Ogre::PSSMShadowCameraSetup</text>
</a>
</g>
</g>
<!-- Node4&#45;&gt;Node5 -->
<g id="edge5" class="edge">
<title>Node4&#45;&gt;Node5</title>
<path fill="none" stroke="#191970" d="M652.4132,-64.5C660.8277,-64.5 669.3654,-64.5 677.7677,-64.5"/>
<polygon fill="#191970" stroke="#191970" points="652.228,-61.0001 642.228,-64.5 652.2279,-68.0001 652.228,-61.0001"/>
</g>
</g>
</svg>
