<?xml version="1.0" encoding="UTF-8" standalone="no"?>
<!DOCTYPE svg PUBLIC "-//W3C//DTD SVG 1.1//EN"
 "http://www.w3.org/Graphics/SVG/1.1/DTD/svg11.dtd">
<!-- Generated by graphviz version 2.40.1 (20161225.0304)
 -->
<!-- Title: Ogre::D3D11HardwareBufferManager Pages: 1 -->
<svg width="334pt" height="218pt"
 viewBox="0.00 0.00 333.50 218.00" xmlns="http://www.w3.org/2000/svg" xmlns:xlink="http://www.w3.org/1999/xlink">
<g id="graph0" class="graph" transform="scale(1 1) rotate(0) translate(4 214)">
<title>Ogre::D3D11HardwareBufferManager</title>
<!-- Node0 -->
<g id="node1" class="node">
<title>Node0</title>
<polygon fill="#bfbfbf" stroke="#000000" points="100.5,-.5 100.5,-30.5 243.5,-30.5 243.5,-.5 100.5,-.5"/>
<text text-anchor="start" x="108.5" y="-18.5" font-family="Helvetica,sans-Serif" font-size="10.00" fill="#000000">Ogre::D3D11HardwareBuffer</text>
<text text-anchor="middle" x="172" y="-7.5" font-family="Helvetica,sans-Serif" font-size="10.00" fill="#000000">Manager</text>
</g>
<!-- Node1 -->
<g id="node2" class="node">
<title>Node1</title>
<g id="a_node2"><a xlink:href="class_ogre_1_1_hardware_buffer_manager.html" target="_top" xlink:title="Singleton wrapper for hardware buffer manager. ">
<polygon fill="none" stroke="#000000" points="97.5,-67.5 97.5,-86.5 246.5,-86.5 246.5,-67.5 97.5,-67.5"/>
<text text-anchor="middle" x="172" y="-74.5" font-family="Helvetica,sans-Serif" font-size="10.00" fill="#000000">Ogre::HardwareBufferManager</text>
</a>
</g>
</g>
<!-- Node1&#45;&gt;Node0 -->
<g id="edge1" class="edge">
<title>Node1&#45;&gt;Node0</title>
<path fill="none" stroke="#191970" d="M172,-57.3693C172,-48.681 172,-38.6241 172,-30.5446"/>
<polygon fill="#191970" stroke="#191970" points="168.5001,-57.3906 172,-67.3906 175.5001,-57.3907 168.5001,-57.3906"/>
</g>
<!-- Node2 -->
<g id="node3" class="node">
<title>Node2</title>
<g id="a_node3"><a xlink:href="class_ogre_1_1_hardware_buffer_manager_base.html" target="_top" xlink:title="Base definition of a hardware buffer manager. ">
<polygon fill="none" stroke="#000000" points="0,-129 0,-148 172,-148 172,-129 0,-129"/>
<text text-anchor="middle" x="86" y="-136" font-family="Helvetica,sans-Serif" font-size="10.00" fill="#000000">Ogre::HardwareBufferManagerBase</text>
</a>
</g>
</g>
<!-- Node2&#45;&gt;Node1 -->
<g id="edge2" class="edge">
<title>Node2&#45;&gt;Node1</title>
<path fill="none" stroke="#191970" d="M107.7188,-122.9685C123.7509,-111.5037 145.0604,-96.265 158.6569,-86.5419"/>
<polygon fill="#191970" stroke="#191970" points="105.5357,-120.2268 99.4375,-128.8906 109.6076,-125.9207 105.5357,-120.2268"/>
</g>
<!-- Node3 -->
<g id="node4" class="node">
<title>Node3</title>
<g id="a_node4"><a xlink:href="class_ogre_1_1_allocated_object.html" target="_top" xlink:title="BufferAlloc">
<polygon fill="none" stroke="#000000" points="53.5,-190.5 53.5,-209.5 118.5,-209.5 118.5,-190.5 53.5,-190.5"/>
<text text-anchor="middle" x="86" y="-197.5" font-family="Helvetica,sans-Serif" font-size="10.00" fill="#000000">BufferAlloc</text>
</a>
</g>
</g>
<!-- Node3&#45;&gt;Node2 -->
<g id="edge3" class="edge">
<title>Node3&#45;&gt;Node2</title>
<path fill="none" stroke="#191970" d="M86,-180.2462C86,-169.5519 86,-156.814 86,-148.2449"/>
<polygon fill="#191970" stroke="#191970" points="82.5001,-180.3906 86,-190.3906 89.5001,-180.3907 82.5001,-180.3906"/>
</g>
<!-- Node4 -->
<g id="node5" class="node">
<title>Node4</title>
<g id="a_node5"><a xlink:href="class_ogre_1_1_singleton.html" target="_top" xlink:title="Ogre::Singleton\&lt; Hardware\lBufferManager \&gt;">
<polygon fill="none" stroke="#000000" points="190.5,-123.5 190.5,-153.5 325.5,-153.5 325.5,-123.5 190.5,-123.5"/>
<text text-anchor="start" x="198.5" y="-141.5" font-family="Helvetica,sans-Serif" font-size="10.00" fill="#000000">Ogre::Singleton&lt; Hardware</text>
<text text-anchor="middle" x="258" y="-130.5" font-family="Helvetica,sans-Serif" font-size="10.00" fill="#000000">BufferManager &gt;</text>
</a>
</g>
</g>
<!-- Node4&#45;&gt;Node1 -->
<g id="edge4" class="edge">
<title>Node4&#45;&gt;Node1</title>
<path fill="none" stroke="#191970" d="M228.4758,-117.3868C213.8863,-106.9535 196.9943,-94.8738 185.5129,-86.6633"/>
<polygon fill="#191970" stroke="#191970" points="226.5715,-120.3278 236.7416,-123.2977 230.6433,-114.6339 226.5715,-120.3278"/>
</g>
</g>
</svg>
