<?xml version="1.0" encoding="UTF-8" standalone="no"?>
<!DOCTYPE svg PUBLIC "-//W3C//DTD SVG 1.1//EN"
 "http://www.w3.org/Graphics/SVG/1.1/DTD/svg11.dtd">
<!-- Generated by graphviz version 2.40.1 (20161225.0304)
 -->
<!-- Title: Ogre::TransformBase Pages: 1 -->
<svg width="176pt" height="84pt"
 viewBox="0.00 0.00 176.00 84.00" xmlns="http://www.w3.org/2000/svg" xmlns:xlink="http://www.w3.org/1999/xlink">
<g id="graph0" class="graph" transform="scale(1 1) rotate(0) translate(4 80)">
<title>Ogre::TransformBase</title>
<!-- Node0 -->
<g id="node1" class="node">
<title>Node0</title>
<polygon fill="#bfbfbf" stroke="#000000" points="28,-56.5 28,-75.5 138,-75.5 138,-56.5 28,-56.5"/>
<text text-anchor="middle" x="83" y="-63.5" font-family="Helvetica,sans-Serif" font-size="10.00" fill="#000000">Ogre::TransformBase</text>
</g>
<!-- Node1 -->
<g id="node2" class="node">
<title>Node1</title>
<g id="a_node2"><a xlink:href="class_ogre_1_1_affine3.html" target="_top" xlink:title="Transform specialization for 3D Affine &#45; encapsulating a 3x4 Matrix. ">
<polygon fill="none" stroke="#000000" points="0,-.5 0,-19.5 74,-19.5 74,-.5 0,-.5"/>
<text text-anchor="middle" x="37" y="-7.5" font-family="Helvetica,sans-Serif" font-size="10.00" fill="#000000">Ogre::Affine3</text>
</a>
</g>
</g>
<!-- Node0&#45;&gt;Node1 -->
<g id="edge1" class="edge">
<title>Node0&#45;&gt;Node1</title>
<path fill="none" stroke="#191970" d="M68.6253,-48.5004C60.8029,-38.9775 51.424,-27.5596 44.9208,-19.6427"/>
<polygon fill="#191970" stroke="#191970" points="65.9354,-50.7399 74.9874,-56.2455 71.3445,-46.2967 65.9354,-50.7399"/>
</g>
<!-- Node2 -->
<g id="node3" class="node">
<title>Node2</title>
<g id="a_node3"><a xlink:href="class_ogre_1_1_matrix4.html" target="_top" xlink:title="Transform specialization for projective &#45; encapsulating a 4x4 Matrix. ">
<polygon fill="none" stroke="#000000" points="92,-.5 92,-19.5 168,-19.5 168,-.5 92,-.5"/>
<text text-anchor="middle" x="130" y="-7.5" font-family="Helvetica,sans-Serif" font-size="10.00" fill="#000000">Ogre::Matrix4</text>
</a>
</g>
</g>
<!-- Node0&#45;&gt;Node2 -->
<g id="edge2" class="edge">
<title>Node0&#45;&gt;Node2</title>
<path fill="none" stroke="#191970" d="M97.6872,-48.5004C105.6796,-38.9775 115.2625,-27.5596 121.907,-19.6427"/>
<polygon fill="#191970" stroke="#191970" points="94.9346,-46.3357 91.1868,-56.2455 100.2964,-50.8358 94.9346,-46.3357"/>
</g>
</g>
</svg>
