<?xml version="1.0" encoding="UTF-8" standalone="no"?>
<!DOCTYPE svg PUBLIC "-//W3C//DTD SVG 1.1//EN"
 "http://www.w3.org/Graphics/SVG/1.1/DTD/svg11.dtd">
<!-- Generated by graphviz version 2.40.1 (20161225.0304)
 -->
<!-- Title: Ogre::RenderSystem::Listener Pages: 1 -->
<svg width="284pt" height="95pt"
 viewBox="0.00 0.00 283.50 95.00" xmlns="http://www.w3.org/2000/svg" xmlns:xlink="http://www.w3.org/1999/xlink">
<g id="graph0" class="graph" transform="scale(1 1) rotate(0) translate(4 91)">
<title>Ogre::RenderSystem::Listener</title>
<!-- Node0 -->
<g id="node1" class="node">
<title>Node0</title>
<polygon fill="#bfbfbf" stroke="#000000" points="91.5,-56.5 91.5,-86.5 200.5,-86.5 200.5,-56.5 91.5,-56.5"/>
<text text-anchor="start" x="99.5" y="-74.5" font-family="Helvetica,sans-Serif" font-size="10.00" fill="#000000">Ogre::RenderSystem</text>
<text text-anchor="middle" x="146" y="-63.5" font-family="Helvetica,sans-Serif" font-size="10.00" fill="#000000">::Listener</text>
</g>
<!-- Node1 -->
<g id="node2" class="node">
<title>Node1</title>
<g id="a_node2"><a xlink:href="class_ogre_1_1_d3_d9_stereo_driver_a_m_d.html" target="_top" xlink:title="Virtual interface of the stereo driver. ">
<polygon fill="none" stroke="#000000" points="0,-.5 0,-19.5 146,-19.5 146,-.5 0,-.5"/>
<text text-anchor="middle" x="73" y="-7.5" font-family="Helvetica,sans-Serif" font-size="10.00" fill="#000000">Ogre::D3D9StereoDriverAMD</text>
</a>
</g>
</g>
<!-- Node0&#45;&gt;Node1 -->
<g id="edge1" class="edge">
<title>Node0&#45;&gt;Node1</title>
<path fill="none" stroke="#191970" d="M120.2922,-49.8421C108.1508,-39.6133 94.2587,-27.9097 84.6882,-19.8469"/>
<polygon fill="#191970" stroke="#191970" points="118.0522,-52.5315 127.9551,-56.2977 122.5623,-47.178 118.0522,-52.5315"/>
</g>
<!-- Node2 -->
<g id="node3" class="node">
<title>Node2</title>
<g id="a_node3"><a xlink:href="class_ogre_1_1_overlay_system.html" target="_top" xlink:title="This class simplify initialization / finalization of the overlay system. ">
<polygon fill="none" stroke="#000000" points="164.5,-.5 164.5,-19.5 275.5,-19.5 275.5,-.5 164.5,-.5"/>
<text text-anchor="middle" x="220" y="-7.5" font-family="Helvetica,sans-Serif" font-size="10.00" fill="#000000">Ogre::OverlaySystem</text>
</a>
</g>
</g>
<!-- Node0&#45;&gt;Node2 -->
<g id="edge2" class="edge">
<title>Node0&#45;&gt;Node2</title>
<path fill="none" stroke="#191970" d="M172.06,-49.8421C184.3677,-39.6133 198.4501,-27.9097 208.1517,-19.8469"/>
<polygon fill="#191970" stroke="#191970" points="169.7458,-47.2143 164.2921,-56.2977 174.22,-52.5979 169.7458,-47.2143"/>
</g>
</g>
</svg>
