<?xml version="1.0" encoding="UTF-8" standalone="no"?>
<!DOCTYPE svg PUBLIC "-//W3C//DTD SVG 1.1//EN"
 "http://www.w3.org/Graphics/SVG/1.1/DTD/svg11.dtd">
<!-- Generated by graphviz version 2.40.1 (20161225.0304)
 -->
<!-- Title: Ogre::ResourceManager Pages: 1 -->
<svg width="646pt" height="382pt"
 viewBox="0.00 0.00 646.00 382.00" xmlns="http://www.w3.org/2000/svg" xmlns:xlink="http://www.w3.org/1999/xlink">
<g id="graph0" class="graph" transform="scale(1 1) rotate(0) translate(4 378)">
<title>Ogre::ResourceManager</title>
<!-- Node0 -->
<g id="node1" class="node">
<title>Node0</title>
<polygon fill="#bfbfbf" stroke="#000000" points="134,-212.5 134,-231.5 257,-231.5 257,-212.5 134,-212.5"/>
<text text-anchor="middle" x="195.5" y="-219.5" font-family="Helvetica,sans-Serif" font-size="10.00" fill="#000000">Ogre::ResourceManager</text>
</g>
<!-- Node3 -->
<g id="node4" class="node">
<title>Node3</title>
<g id="a_node4"><a xlink:href="class_ogre_1_1_compositor_manager.html" target="_top" xlink:title="Class for managing Compositor settings for Ogre. ">
<polygon fill="none" stroke="#000000" points="298.5,-354.5 298.5,-373.5 429.5,-373.5 429.5,-354.5 298.5,-354.5"/>
<text text-anchor="middle" x="364" y="-361.5" font-family="Helvetica,sans-Serif" font-size="10.00" fill="#000000">Ogre::CompositorManager</text>
</a>
</g>
</g>
<!-- Node0&#45;&gt;Node3 -->
<g id="edge3" class="edge">
<title>Node0&#45;&gt;Node3</title>
<path fill="none" stroke="#191970" d="M205.1367,-240.6066C220.1743,-267.7642 251.818,-317.9596 293,-345 298.8665,-348.852 305.4894,-351.9258 312.273,-354.378"/>
<polygon fill="#191970" stroke="#191970" points="208.1809,-238.8775 200.361,-231.7291 202.0163,-242.1938 208.1809,-238.8775"/>
</g>
<!-- Node4 -->
<g id="node5" class="node">
<title>Node4</title>
<g id="a_node5"><a xlink:href="class_ogre_1_1_font_manager.html" target="_top" xlink:title="Manages Font resources, parsing .fontdef files and generally organising them. ">
<polygon fill="none" stroke="#000000" points="313.5,-316.5 313.5,-335.5 414.5,-335.5 414.5,-316.5 313.5,-316.5"/>
<text text-anchor="middle" x="364" y="-323.5" font-family="Helvetica,sans-Serif" font-size="10.00" fill="#000000">Ogre::FontManager</text>
</a>
</g>
</g>
<!-- Node0&#45;&gt;Node4 -->
<g id="edge4" class="edge">
<title>Node0&#45;&gt;Node4</title>
<path fill="none" stroke="#191970" d="M210.6162,-239.2434C228.4448,-258.5273 259.8724,-289.3622 293,-307 300.2085,-310.8379 308.2502,-313.9444 316.258,-316.4452"/>
<polygon fill="#191970" stroke="#191970" points="213.1477,-236.8245 203.8427,-231.7582 207.9574,-241.5214 213.1477,-236.8245"/>
</g>
<!-- Node5 -->
<g id="node6" class="node">
<title>Node5</title>
<g id="a_node6"><a xlink:href="class_ogre_1_1_gpu_program_manager.html" target="_top" xlink:title="Ogre::GpuProgramManager">
<polygon fill="none" stroke="#000000" points="296,-278.5 296,-297.5 432,-297.5 432,-278.5 296,-278.5"/>
<text text-anchor="middle" x="364" y="-285.5" font-family="Helvetica,sans-Serif" font-size="10.00" fill="#000000">Ogre::GpuProgramManager</text>
</a>
</g>
</g>
<!-- Node0&#45;&gt;Node5 -->
<g id="edge5" class="edge">
<title>Node0&#45;&gt;Node5</title>
<path fill="none" stroke="#191970" d="M222.5275,-236.2416C241.8114,-246.0314 268.5535,-258.8623 293,-268 303.4361,-271.9008 314.979,-275.4602 325.6711,-278.4597"/>
<polygon fill="#191970" stroke="#191970" points="223.9334,-233.029 213.4391,-231.5725 220.7346,-239.2554 223.9334,-233.029"/>
</g>
<!-- Node11 -->
<g id="node12" class="node">
<title>Node11</title>
<g id="a_node12"><a xlink:href="class_ogre_1_1_high_level_gpu_program_manager.html" target="_top" xlink:title="This ResourceManager manages high&#45;level vertex and fragment programs. ">
<polygon fill="none" stroke="#000000" points="293,-229 293,-259 435,-259 435,-229 293,-229"/>
<text text-anchor="start" x="301" y="-247" font-family="Helvetica,sans-Serif" font-size="10.00" fill="#000000">Ogre::HighLevelGpuProgram</text>
<text text-anchor="middle" x="364" y="-236" font-family="Helvetica,sans-Serif" font-size="10.00" fill="#000000">Manager</text>
</a>
</g>
</g>
<!-- Node0&#45;&gt;Node11 -->
<g id="edge11" class="edge">
<title>Node0&#45;&gt;Node11</title>
<path fill="none" stroke="#191970" d="M267.4341,-231.392C275.8403,-232.4895 284.4138,-233.6089 292.8099,-234.7051"/>
<polygon fill="#191970" stroke="#191970" points="267.6554,-227.8913 257.2864,-230.0671 266.7491,-234.8323 267.6554,-227.8913"/>
</g>
<!-- Node12 -->
<g id="node13" class="node">
<title>Node12</title>
<g id="a_node13"><a xlink:href="class_ogre_1_1_material_manager.html" target="_top" xlink:title="Class for managing Material settings for Ogre. ">
<polygon fill="none" stroke="#000000" points="306,-190.5 306,-209.5 422,-209.5 422,-190.5 306,-190.5"/>
<text text-anchor="middle" x="364" y="-197.5" font-family="Helvetica,sans-Serif" font-size="10.00" fill="#000000">Ogre::MaterialManager</text>
</a>
</g>
</g>
<!-- Node0&#45;&gt;Node12 -->
<g id="edge12" class="edge">
<title>Node0&#45;&gt;Node12</title>
<path fill="none" stroke="#191970" d="M267.4611,-212.6045C280.281,-210.9307 293.4887,-209.2062 305.8626,-207.5906"/>
<polygon fill="#191970" stroke="#191970" points="266.7491,-209.1677 257.2864,-213.9329 267.6554,-216.1087 266.7491,-209.1677"/>
</g>
<!-- Node13 -->
<g id="node14" class="node">
<title>Node13</title>
<g id="a_node14"><a xlink:href="class_ogre_1_1_mesh_manager.html" target="_top" xlink:title="Handles the management of mesh resources. ">
<polygon fill="none" stroke="#000000" points="311.5,-152.5 311.5,-171.5 416.5,-171.5 416.5,-152.5 311.5,-152.5"/>
<text text-anchor="middle" x="364" y="-159.5" font-family="Helvetica,sans-Serif" font-size="10.00" fill="#000000">Ogre::MeshManager</text>
</a>
</g>
</g>
<!-- Node0&#45;&gt;Node13 -->
<g id="edge13" class="edge">
<title>Node0&#45;&gt;Node13</title>
<path fill="none" stroke="#191970" d="M225.4598,-208.1477C244.5393,-199.6409 269.9206,-188.8994 293,-181 303.141,-177.5291 314.2712,-174.2903 324.6497,-171.505"/>
<polygon fill="#191970" stroke="#191970" points="223.7808,-205.0653 216.1025,-212.3656 226.6575,-211.447 223.7808,-205.0653"/>
</g>
<!-- Node14 -->
<g id="node15" class="node">
<title>Node14</title>
<g id="a_node15"><a xlink:href="class_ogre_1_1_skeleton_manager.html" target="_top" xlink:title="Handles the management of skeleton resources. ">
<polygon fill="none" stroke="#000000" points="304.5,-114.5 304.5,-133.5 423.5,-133.5 423.5,-114.5 304.5,-114.5"/>
<text text-anchor="middle" x="364" y="-121.5" font-family="Helvetica,sans-Serif" font-size="10.00" fill="#000000">Ogre::SkeletonManager</text>
</a>
</g>
</g>
<!-- Node0&#45;&gt;Node14 -->
<g id="edge14" class="edge">
<title>Node0&#45;&gt;Node14</title>
<path fill="none" stroke="#191970" d="M211.9251,-204.9759C230.1428,-187.0454 261.1844,-159.2101 293,-143 300.5038,-139.1768 308.8577,-136.062 317.1245,-133.5445"/>
<polygon fill="#191970" stroke="#191970" points="209.0714,-202.8818 204.5005,-212.4399 214.0343,-207.8185 209.0714,-202.8818"/>
</g>
<!-- Node15 -->
<g id="node16" class="node">
<title>Node15</title>
<g id="a_node16"><a xlink:href="class_ogre_1_1_texture_manager.html" target="_top" xlink:title="Class for loading &amp; managing textures. ">
<polygon fill="none" stroke="#000000" points="307,-76.5 307,-95.5 421,-95.5 421,-76.5 307,-76.5"/>
<text text-anchor="middle" x="364" y="-83.5" font-family="Helvetica,sans-Serif" font-size="10.00" fill="#000000">Ogre::TextureManager</text>
</a>
</g>
</g>
<!-- Node0&#45;&gt;Node15 -->
<g id="edge15" class="edge">
<title>Node0&#45;&gt;Node15</title>
<path fill="none" stroke="#191970" d="M205.8024,-203.5823C221.3009,-177.5983 253.0959,-130.508 293,-105 299.0207,-101.1514 305.8048,-98.0774 312.7302,-95.6232"/>
<polygon fill="#191970" stroke="#191970" points="202.667,-202.0121 200.6774,-212.4185 208.7223,-205.5242 202.667,-202.0121"/>
</g>
<!-- Node1 -->
<g id="node2" class="node">
<title>Node1</title>
<g id="a_node2"><a xlink:href="class_ogre_1_1_script_loader.html" target="_top" xlink:title="Abstract class defining the interface used by classes which wish to perform script loading to define ...">
<polygon fill="none" stroke="#000000" points="0,-231.5 0,-250.5 98,-250.5 98,-231.5 0,-231.5"/>
<text text-anchor="middle" x="49" y="-238.5" font-family="Helvetica,sans-Serif" font-size="10.00" fill="#000000">Ogre::ScriptLoader</text>
</a>
</g>
</g>
<!-- Node1&#45;&gt;Node0 -->
<g id="edge1" class="edge">
<title>Node1&#45;&gt;Node0</title>
<path fill="none" stroke="#191970" d="M108.3279,-233.3056C116.7694,-232.2108 125.4669,-231.0828 133.9496,-229.9826"/>
<polygon fill="#191970" stroke="#191970" points="107.6567,-229.8632 98.1899,-234.6204 108.5571,-236.8051 107.6567,-229.8632"/>
</g>
<!-- Node2 -->
<g id="node3" class="node">
<title>Node2</title>
<g id="a_node3"><a xlink:href="class_ogre_1_1_allocated_object.html" target="_top" xlink:title="ResourceAlloc">
<polygon fill="none" stroke="#000000" points="9,-193.5 9,-212.5 89,-212.5 89,-193.5 9,-193.5"/>
<text text-anchor="middle" x="49" y="-200.5" font-family="Helvetica,sans-Serif" font-size="10.00" fill="#000000">ResourceAlloc</text>
</a>
</g>
</g>
<!-- Node2&#45;&gt;Node0 -->
<g id="edge2" class="edge">
<title>Node2&#45;&gt;Node0</title>
<path fill="none" stroke="#191970" d="M99.0362,-209.4893C110.2136,-210.939 122.1953,-212.4929 133.7821,-213.9956"/>
<polygon fill="#191970" stroke="#191970" points="99.3989,-206.0071 89.0318,-208.1918 98.4985,-212.949 99.3989,-206.0071"/>
</g>
<!-- Node6 -->
<g id="node7" class="node">
<title>Node6</title>
<g id="a_node7"><a xlink:href="class_ogre_1_1_d3_d11_gpu_program_manager.html" target="_top" xlink:title="Ogre::D3D11GpuProgramManager">
<polygon fill="none" stroke="#000000" points="471,-354.5 471,-373.5 638,-373.5 638,-354.5 471,-354.5"/>
<text text-anchor="middle" x="554.5" y="-361.5" font-family="Helvetica,sans-Serif" font-size="10.00" fill="#000000">Ogre::D3D11GpuProgramManager</text>
</a>
</g>
</g>
<!-- Node5&#45;&gt;Node6 -->
<g id="edge6" class="edge">
<title>Node5&#45;&gt;Node6</title>
<path fill="none" stroke="#191970" d="M423.4601,-301.2021C427.4726,-302.91 431.3612,-304.8338 435,-307 454.9905,-318.9001 450.7885,-333.4792 471,-345 477.8455,-348.902 485.4356,-352.0028 493.1684,-354.4667"/>
<polygon fill="#191970" stroke="#191970" points="424.5237,-297.8624 413.9322,-297.5963 422.046,-304.4092 424.5237,-297.8624"/>
</g>
<!-- Node7 -->
<g id="node8" class="node">
<title>Node7</title>
<g id="a_node8"><a xlink:href="class_ogre_1_1_d3_d9_gpu_program_manager.html" target="_top" xlink:title="Ogre::D3D9GpuProgramManager">
<polygon fill="none" stroke="#000000" points="474,-316.5 474,-335.5 635,-335.5 635,-316.5 474,-316.5"/>
<text text-anchor="middle" x="554.5" y="-323.5" font-family="Helvetica,sans-Serif" font-size="10.00" fill="#000000">Ogre::D3D9GpuProgramManager</text>
</a>
</g>
</g>
<!-- Node5&#45;&gt;Node7 -->
<g id="edge7" class="edge">
<title>Node5&#45;&gt;Node7</title>
<path fill="none" stroke="#191970" d="M422.2003,-299.6095C449.2938,-305.014 481.125,-311.3635 506.7745,-316.4799"/>
<polygon fill="#191970" stroke="#191970" points="422.5627,-296.1129 412.0712,-297.589 421.1933,-302.9777 422.5627,-296.1129"/>
</g>
<!-- Node8 -->
<g id="node9" class="node">
<title>Node8</title>
<g id="a_node9"><a xlink:href="class_ogre_1_1_g_l_e_s2_gpu_program_manager.html" target="_top" xlink:title="Ogre::GLES2GpuProgramManager">
<polygon fill="none" stroke="#000000" points="471,-278.5 471,-297.5 638,-297.5 638,-278.5 471,-278.5"/>
<text text-anchor="middle" x="554.5" y="-285.5" font-family="Helvetica,sans-Serif" font-size="10.00" fill="#000000">Ogre::GLES2GpuProgramManager</text>
</a>
</g>
</g>
<!-- Node5&#45;&gt;Node8 -->
<g id="edge8" class="edge">
<title>Node5&#45;&gt;Node8</title>
<path fill="none" stroke="#191970" d="M442.3157,-288C451.7026,-288 461.3163,-288 470.7761,-288"/>
<polygon fill="#191970" stroke="#191970" points="442.2368,-284.5001 432.2368,-288 442.2368,-291.5001 442.2368,-284.5001"/>
</g>
<!-- Node9 -->
<g id="node10" class="node">
<title>Node9</title>
<g id="a_node10"><a xlink:href="class_ogre_1_1_g_l_gpu_program_manager.html" target="_top" xlink:title="Ogre::GLGpuProgramManager">
<polygon fill="none" stroke="#000000" points="480,-240.5 480,-259.5 629,-259.5 629,-240.5 480,-240.5"/>
<text text-anchor="middle" x="554.5" y="-247.5" font-family="Helvetica,sans-Serif" font-size="10.00" fill="#000000">Ogre::GLGpuProgramManager</text>
</a>
</g>
</g>
<!-- Node5&#45;&gt;Node9 -->
<g id="edge9" class="edge">
<title>Node5&#45;&gt;Node9</title>
<path fill="none" stroke="#191970" d="M422.2003,-276.3905C449.2938,-270.986 481.125,-264.6365 506.7745,-259.5201"/>
<polygon fill="#191970" stroke="#191970" points="421.1933,-273.0223 412.0712,-278.411 422.5627,-279.8871 421.1933,-273.0223"/>
</g>
<!-- Node10 -->
<g id="node11" class="node">
<title>Node10</title>
<g id="a_node11"><a xlink:href="class_ogre_1_1_g_l_s_l_shader_manager.html" target="_top" xlink:title="Ogre::GLSLShaderManager">
<polygon fill="none" stroke="#000000" points="486,-202.5 486,-221.5 623,-221.5 623,-202.5 486,-202.5"/>
<text text-anchor="middle" x="554.5" y="-209.5" font-family="Helvetica,sans-Serif" font-size="10.00" fill="#000000">Ogre::GLSLShaderManager</text>
</a>
</g>
</g>
<!-- Node5&#45;&gt;Node10 -->
<g id="edge10" class="edge">
<title>Node5&#45;&gt;Node10</title>
<path fill="none" stroke="#191970" d="M420.8599,-274.94C425.7864,-272.9341 430.5741,-270.634 435,-268 454.7164,-256.2661 450.9918,-242.229 471,-231 477.8714,-227.1436 485.4766,-224.0697 493.2172,-221.6195"/>
<polygon fill="#191970" stroke="#191970" points="419.463,-271.7241 411.2733,-278.4457 421.8672,-278.2983 419.463,-271.7241"/>
</g>
<!-- Node16 -->
<g id="node17" class="node">
<title>Node16</title>
<g id="a_node17"><a xlink:href="class_ogre_1_1_d3_d11_texture_manager.html" target="_top" xlink:title="Ogre::D3D11TextureManager">
<polygon fill="none" stroke="#000000" points="482,-152.5 482,-171.5 627,-171.5 627,-152.5 482,-152.5"/>
<text text-anchor="middle" x="554.5" y="-159.5" font-family="Helvetica,sans-Serif" font-size="10.00" fill="#000000">Ogre::D3D11TextureManager</text>
</a>
</g>
</g>
<!-- Node15&#45;&gt;Node16 -->
<g id="edge16" class="edge">
<title>Node15&#45;&gt;Node16</title>
<path fill="none" stroke="#191970" d="M423.4601,-99.2021C427.4726,-100.91 431.3612,-102.8338 435,-105 454.9905,-116.9001 450.7885,-131.4792 471,-143 477.8455,-146.902 485.4356,-150.0028 493.1684,-152.4667"/>
<polygon fill="#191970" stroke="#191970" points="424.5237,-95.8624 413.9322,-95.5963 422.046,-102.4092 424.5237,-95.8624"/>
</g>
<!-- Node17 -->
<g id="node18" class="node">
<title>Node17</title>
<g id="a_node18"><a xlink:href="class_ogre_1_1_d3_d9_texture_manager.html" target="_top" xlink:title="Ogre::D3D9TextureManager">
<polygon fill="none" stroke="#000000" points="484.5,-114.5 484.5,-133.5 624.5,-133.5 624.5,-114.5 484.5,-114.5"/>
<text text-anchor="middle" x="554.5" y="-121.5" font-family="Helvetica,sans-Serif" font-size="10.00" fill="#000000">Ogre::D3D9TextureManager</text>
</a>
</g>
</g>
<!-- Node15&#45;&gt;Node17 -->
<g id="edge17" class="edge">
<title>Node15&#45;&gt;Node17</title>
<path fill="none" stroke="#191970" d="M422.2003,-97.6095C449.2938,-103.014 481.125,-109.3635 506.7745,-114.4799"/>
<polygon fill="#191970" stroke="#191970" points="422.5627,-94.1129 412.0712,-95.589 421.1933,-100.9777 422.5627,-94.1129"/>
</g>
<!-- Node18 -->
<g id="node19" class="node">
<title>Node18</title>
<g id="a_node19"><a xlink:href="class_ogre_1_1_g_l3_plus_texture_manager.html" target="_top" xlink:title="GL3Plus&#45;specific implementation of a TextureManager. ">
<polygon fill="none" stroke="#000000" points="478.5,-76.5 478.5,-95.5 630.5,-95.5 630.5,-76.5 478.5,-76.5"/>
<text text-anchor="middle" x="554.5" y="-83.5" font-family="Helvetica,sans-Serif" font-size="10.00" fill="#000000">Ogre::GL3PlusTextureManager</text>
</a>
</g>
</g>
<!-- Node15&#45;&gt;Node18 -->
<g id="edge18" class="edge">
<title>Node15&#45;&gt;Node18</title>
<path fill="none" stroke="#191970" d="M431.4737,-86C446.6451,-86 462.8469,-86 478.3453,-86"/>
<polygon fill="#191970" stroke="#191970" points="431.1563,-82.5001 421.1563,-86 431.1562,-89.5001 431.1563,-82.5001"/>
</g>
<!-- Node19 -->
<g id="node20" class="node">
<title>Node19</title>
<g id="a_node20"><a xlink:href="class_ogre_1_1_g_l_e_s2_texture_manager.html" target="_top" xlink:title="GL ES&#45;specific implementation of a TextureManager. ">
<polygon fill="none" stroke="#000000" points="481.5,-38.5 481.5,-57.5 627.5,-57.5 627.5,-38.5 481.5,-38.5"/>
<text text-anchor="middle" x="554.5" y="-45.5" font-family="Helvetica,sans-Serif" font-size="10.00" fill="#000000">Ogre::GLES2TextureManager</text>
</a>
</g>
</g>
<!-- Node15&#45;&gt;Node19 -->
<g id="edge19" class="edge">
<title>Node15&#45;&gt;Node19</title>
<path fill="none" stroke="#191970" d="M422.2003,-74.3905C449.2938,-68.986 481.125,-62.6365 506.7745,-57.5201"/>
<polygon fill="#191970" stroke="#191970" points="421.1933,-71.0223 412.0712,-76.411 422.5627,-77.8871 421.1933,-71.0223"/>
</g>
<!-- Node20 -->
<g id="node21" class="node">
<title>Node20</title>
<g id="a_node21"><a xlink:href="class_ogre_1_1_g_l_texture_manager.html" target="_top" xlink:title="GL&#45;specific implementation of a TextureManager. ">
<polygon fill="none" stroke="#000000" points="491,-.5 491,-19.5 618,-19.5 618,-.5 491,-.5"/>
<text text-anchor="middle" x="554.5" y="-7.5" font-family="Helvetica,sans-Serif" font-size="10.00" fill="#000000">Ogre::GLTextureManager</text>
</a>
</g>
</g>
<!-- Node15&#45;&gt;Node20 -->
<g id="edge20" class="edge">
<title>Node15&#45;&gt;Node20</title>
<path fill="none" stroke="#191970" d="M387.602,-71.0626C408.7332,-58.2737 440.933,-40.2009 471,-29 481.0309,-25.2632 492.0244,-22.1254 502.6455,-19.5453"/>
<polygon fill="#191970" stroke="#191970" points="385.6788,-68.1364 378.9909,-76.3537 389.3434,-74.1005 385.6788,-68.1364"/>
</g>
</g>
</svg>
