<?xml version="1.0" encoding="UTF-8" standalone="no"?>
<!DOCTYPE svg PUBLIC "-//W3C//DTD SVG 1.1//EN"
 "http://www.w3.org/Graphics/SVG/1.1/DTD/svg11.dtd">
<!-- Generated by graphviz version 2.40.1 (20161225.0304)
 -->
<!-- Title: Ogre::ScriptTranslator Pages: 1 -->
<svg width="268pt" height="151pt"
 viewBox="0.00 0.00 267.50 151.00" xmlns="http://www.w3.org/2000/svg" xmlns:xlink="http://www.w3.org/1999/xlink">
<g id="graph0" class="graph" transform="scale(1 1) rotate(0) translate(4 147)">
<title>Ogre::ScriptTranslator</title>
<!-- Node0 -->
<g id="node1" class="node">
<title>Node0</title>
<polygon fill="#bfbfbf" stroke="#000000" points="66,-67.5 66,-86.5 179,-86.5 179,-67.5 66,-67.5"/>
<text text-anchor="middle" x="122.5" y="-74.5" font-family="Helvetica,sans-Serif" font-size="10.00" fill="#000000">Ogre::ScriptTranslator</text>
</g>
<!-- Node2 -->
<g id="node3" class="node">
<title>Node2</title>
<g id="a_node3"><a xlink:href="struct_ogre_1_1_font_translator.html" target="_top" xlink:title="[font_translator] ">
<polygon fill="none" stroke="#000000" points="0,-6 0,-25 107,-25 107,-6 0,-6"/>
<text text-anchor="middle" x="53.5" y="-13" font-family="Helvetica,sans-Serif" font-size="10.00" fill="#000000">Ogre::FontTranslator</text>
</a>
</g>
</g>
<!-- Node0&#45;&gt;Node2 -->
<g id="edge2" class="edge">
<title>Node0&#45;&gt;Node2</title>
<path fill="none" stroke="#191970" d="M104.0419,-60.5482C91.3992,-49.2798 75.0594,-34.716 64.4333,-25.2449"/>
<polygon fill="#191970" stroke="#191970" points="101.9248,-63.3497 111.7188,-67.3906 106.5824,-58.1241 101.9248,-63.3497"/>
</g>
<!-- Node3 -->
<g id="node4" class="node">
<title>Node3</title>
<g id="a_node4"><a xlink:href="class_ogre_1_1_r_t_shader_1_1_s_g_script_translator.html" target="_top" xlink:title="This class responsible for translating core features of the RT Shader System for Ogre material script...">
<polygon fill="none" stroke="#000000" points="125.5,-.5 125.5,-30.5 259.5,-30.5 259.5,-.5 125.5,-.5"/>
<text text-anchor="start" x="133.5" y="-18.5" font-family="Helvetica,sans-Serif" font-size="10.00" fill="#000000">Ogre::RTShader::SGScript</text>
<text text-anchor="middle" x="192.5" y="-7.5" font-family="Helvetica,sans-Serif" font-size="10.00" fill="#000000">Translator</text>
</a>
</g>
</g>
<!-- Node0&#45;&gt;Node3 -->
<g id="edge3" class="edge">
<title>Node0&#45;&gt;Node3</title>
<path fill="none" stroke="#191970" d="M140.9804,-60.7637C151.6405,-51.398 164.9537,-39.7014 175.3761,-30.5446"/>
<polygon fill="#191970" stroke="#191970" points="138.6399,-58.161 133.4375,-67.3906 143.2601,-63.4197 138.6399,-58.161"/>
</g>
<!-- Node1 -->
<g id="node2" class="node">
<title>Node1</title>
<g id="a_node2"><a xlink:href="class_ogre_1_1_allocated_object.html" target="_top" xlink:title="ScriptTranslatorAlloc">
<polygon fill="none" stroke="#000000" points="69,-123.5 69,-142.5 176,-142.5 176,-123.5 69,-123.5"/>
<text text-anchor="middle" x="122.5" y="-130.5" font-family="Helvetica,sans-Serif" font-size="10.00" fill="#000000">ScriptTranslatorAlloc</text>
</a>
</g>
</g>
<!-- Node1&#45;&gt;Node0 -->
<g id="edge1" class="edge">
<title>Node1&#45;&gt;Node0</title>
<path fill="none" stroke="#191970" d="M122.5,-113.1575C122.5,-104.155 122.5,-93.9199 122.5,-86.6427"/>
<polygon fill="#191970" stroke="#191970" points="119.0001,-113.2455 122.5,-123.2455 126.0001,-113.2456 119.0001,-113.2455"/>
</g>
</g>
</svg>
