<?xml version="1.0" encoding="UTF-8" standalone="no"?>
<!DOCTYPE svg PUBLIC "-//W3C//DTD SVG 1.1//EN"
 "http://www.w3.org/Graphics/SVG/1.1/DTD/svg11.dtd">
<!-- Generated by graphviz version 2.40.1 (20161225.0304)
 -->
<!-- Title: Ogre::BaseInstanceBatchVTF Pages: 1 -->
<svg width="369pt" height="252pt"
 viewBox="0.00 0.00 368.50 252.00" xmlns="http://www.w3.org/2000/svg" xmlns:xlink="http://www.w3.org/1999/xlink">
<g id="graph0" class="graph" transform="scale(1 1) rotate(0) translate(4 248)">
<title>Ogre::BaseInstanceBatchVTF</title>
<!-- Node0 -->
<g id="node1" class="node">
<title>Node0</title>
<polygon fill="#bfbfbf" stroke="#000000" points="77,-56.5 77,-75.5 225,-75.5 225,-56.5 77,-56.5"/>
<text text-anchor="middle" x="151" y="-63.5" font-family="Helvetica,sans-Serif" font-size="10.00" fill="#000000">Ogre::BaseInstanceBatchVTF</text>
</g>
<!-- Node7 -->
<g id="node8" class="node">
<title>Node7</title>
<g id="a_node8"><a xlink:href="class_ogre_1_1_instance_batch_h_w___v_t_f.html" target="_top" xlink:title="Instancing implementation using vertex texture through Vertex Texture Fetch (VTF) and hardware instan...">
<polygon fill="none" stroke="#000000" points="0,-.5 0,-19.5 148,-19.5 148,-.5 0,-.5"/>
<text text-anchor="middle" x="74" y="-7.5" font-family="Helvetica,sans-Serif" font-size="10.00" fill="#000000">Ogre::InstanceBatchHW_VTF</text>
</a>
</g>
</g>
<!-- Node0&#45;&gt;Node7 -->
<g id="edge7" class="edge">
<title>Node0&#45;&gt;Node7</title>
<path fill="none" stroke="#191970" d="M129.2884,-50.2097C115.7647,-40.3743 98.8042,-28.0394 87.2587,-19.6427"/>
<polygon fill="#191970" stroke="#191970" points="127.4416,-53.1944 137.5876,-56.2455 131.5589,-47.5332 127.4416,-53.1944"/>
</g>
<!-- Node8 -->
<g id="node9" class="node">
<title>Node8</title>
<g id="a_node9"><a xlink:href="class_ogre_1_1_instance_batch_v_t_f.html" target="_top" xlink:title="Ogre::InstanceBatchVTF">
<polygon fill="none" stroke="#000000" points="166.5,-.5 166.5,-19.5 291.5,-19.5 291.5,-.5 166.5,-.5"/>
<text text-anchor="middle" x="229" y="-7.5" font-family="Helvetica,sans-Serif" font-size="10.00" fill="#000000">Ogre::InstanceBatchVTF</text>
</a>
</g>
</g>
<!-- Node0&#45;&gt;Node8 -->
<g id="edge8" class="edge">
<title>Node0&#45;&gt;Node8</title>
<path fill="none" stroke="#191970" d="M172.9936,-50.2097C186.6929,-40.3743 203.8736,-28.0394 215.5691,-19.6427"/>
<polygon fill="#191970" stroke="#191970" points="170.6686,-47.5703 164.5866,-56.2455 174.7511,-53.2566 170.6686,-47.5703"/>
</g>
<!-- Node1 -->
<g id="node2" class="node">
<title>Node1</title>
<g id="a_node2"><a xlink:href="class_ogre_1_1_instance_batch.html" target="_top" xlink:title="InstanceBatch forms part of the new Instancing system This is an abstract class that must be derived ...">
<polygon fill="none" stroke="#000000" points="97.5,-112.5 97.5,-131.5 204.5,-131.5 204.5,-112.5 97.5,-112.5"/>
<text text-anchor="middle" x="151" y="-119.5" font-family="Helvetica,sans-Serif" font-size="10.00" fill="#000000">Ogre::InstanceBatch</text>
</a>
</g>
</g>
<!-- Node1&#45;&gt;Node0 -->
<g id="edge1" class="edge">
<title>Node1&#45;&gt;Node0</title>
<path fill="none" stroke="#191970" d="M151,-102.1575C151,-93.155 151,-82.9199 151,-75.6427"/>
<polygon fill="#191970" stroke="#191970" points="147.5001,-102.2455 151,-112.2455 154.5001,-102.2456 147.5001,-102.2455"/>
</g>
<!-- Node2 -->
<g id="node3" class="node">
<title>Node2</title>
<g id="a_node3"><a xlink:href="class_ogre_1_1_renderable.html" target="_top" xlink:title="Abstract class defining the interface all renderable objects must implement. ">
<polygon fill="none" stroke="#000000" points="45.5,-168.5 45.5,-187.5 138.5,-187.5 138.5,-168.5 45.5,-168.5"/>
<text text-anchor="middle" x="92" y="-175.5" font-family="Helvetica,sans-Serif" font-size="10.00" fill="#000000">Ogre::Renderable</text>
</a>
</g>
</g>
<!-- Node2&#45;&gt;Node1 -->
<g id="edge2" class="edge">
<title>Node2&#45;&gt;Node1</title>
<path fill="none" stroke="#191970" d="M109.5307,-161.3607C119.7377,-151.6727 132.2469,-139.7995 140.8408,-131.6427"/>
<polygon fill="#191970" stroke="#191970" points="107.1206,-158.8227 102.277,-168.2455 111.9396,-163.8998 107.1206,-158.8227"/>
</g>
<!-- Node3 -->
<g id="node4" class="node">
<title>Node3</title>
<g id="a_node4"><a xlink:href="class_ogre_1_1_movable_object.html" target="_top" xlink:title="Abstract class defining a movable object in a scene. ">
<polygon fill="none" stroke="#000000" points="156.5,-168.5 156.5,-187.5 265.5,-187.5 265.5,-168.5 156.5,-168.5"/>
<text text-anchor="middle" x="211" y="-175.5" font-family="Helvetica,sans-Serif" font-size="10.00" fill="#000000">Ogre::MovableObject</text>
</a>
</g>
</g>
<!-- Node3&#45;&gt;Node1 -->
<g id="edge3" class="edge">
<title>Node3&#45;&gt;Node1</title>
<path fill="none" stroke="#191970" d="M193.1722,-161.3607C182.7922,-151.6727 170.0709,-139.7995 161.3314,-131.6427"/>
<polygon fill="#191970" stroke="#191970" points="190.8501,-163.981 200.5488,-168.2455 195.6263,-158.8636 190.8501,-163.981"/>
</g>
<!-- Node4 -->
<g id="node5" class="node">
<title>Node4</title>
<g id="a_node5"><a xlink:href="class_ogre_1_1_shadow_caster.html" target="_top" xlink:title="This class defines the interface that must be implemented by shadow casters. ">
<polygon fill="none" stroke="#000000" points="28,-224.5 28,-243.5 136,-243.5 136,-224.5 28,-224.5"/>
<text text-anchor="middle" x="82" y="-231.5" font-family="Helvetica,sans-Serif" font-size="10.00" fill="#000000">Ogre::ShadowCaster</text>
</a>
</g>
</g>
<!-- Node4&#45;&gt;Node3 -->
<g id="edge4" class="edge">
<title>Node4&#45;&gt;Node3</title>
<path fill="none" stroke="#191970" d="M113.3671,-220.3833C136.8284,-210.1985 168.3185,-196.5284 189.1135,-187.5011"/>
<polygon fill="#191970" stroke="#191970" points="111.9551,-217.1806 104.1759,-224.3733 114.7426,-223.6017 111.9551,-217.1806"/>
</g>
<!-- Node5 -->
<g id="node6" class="node">
<title>Node5</title>
<g id="a_node6"><a xlink:href="class_ogre_1_1_animable_object.html" target="_top" xlink:title="Defines an interface to classes which have one or more AnimableValue instances to expose...">
<polygon fill="none" stroke="#000000" points="154.5,-224.5 154.5,-243.5 267.5,-243.5 267.5,-224.5 154.5,-224.5"/>
<text text-anchor="middle" x="211" y="-231.5" font-family="Helvetica,sans-Serif" font-size="10.00" fill="#000000">Ogre::AnimableObject</text>
</a>
</g>
</g>
<!-- Node5&#45;&gt;Node3 -->
<g id="edge5" class="edge">
<title>Node5&#45;&gt;Node3</title>
<path fill="none" stroke="#191970" d="M211,-214.1575C211,-205.155 211,-194.9199 211,-187.6427"/>
<polygon fill="#191970" stroke="#191970" points="207.5001,-214.2455 211,-224.2455 214.5001,-214.2456 207.5001,-214.2455"/>
</g>
<!-- Node6 -->
<g id="node7" class="node">
<title>Node6</title>
<g id="a_node7"><a xlink:href="class_ogre_1_1_allocated_object.html" target="_top" xlink:title="MovableAlloc">
<polygon fill="none" stroke="#000000" points="285.5,-224.5 285.5,-243.5 360.5,-243.5 360.5,-224.5 285.5,-224.5"/>
<text text-anchor="middle" x="323" y="-231.5" font-family="Helvetica,sans-Serif" font-size="10.00" fill="#000000">MovableAlloc</text>
</a>
</g>
</g>
<!-- Node6&#45;&gt;Node3 -->
<g id="edge6" class="edge">
<title>Node6&#45;&gt;Node3</title>
<path fill="none" stroke="#191970" d="M294.6737,-219.8368C274.4279,-209.7139 247.7358,-196.3679 230.0022,-187.5011"/>
<polygon fill="#191970" stroke="#191970" points="293.237,-223.0316 303.7465,-224.3733 296.3675,-216.7706 293.237,-223.0316"/>
</g>
</g>
</svg>
