<?xml version="1.0" encoding="UTF-8" standalone="no"?>
<!DOCTYPE svg PUBLIC "-//W3C//DTD SVG 1.1//EN"
 "http://www.w3.org/Graphics/SVG/1.1/DTD/svg11.dtd">
<!-- Generated by graphviz version 2.40.1 (20161225.0304)
 -->
<!-- Title: Ogre::BorderRenderable Pages: 1 -->
<svg width="192pt" height="84pt"
 viewBox="0.00 0.00 191.50 84.00" xmlns="http://www.w3.org/2000/svg" xmlns:xlink="http://www.w3.org/1999/xlink">
<g id="graph0" class="graph" transform="scale(1 1) rotate(0) translate(4 80)">
<title>Ogre::BorderRenderable</title>
<!-- Node0 -->
<g id="node1" class="node">
<title>Node0</title>
<polygon fill="#bfbfbf" stroke="#000000" points="35.5,-.5 35.5,-19.5 157.5,-19.5 157.5,-.5 35.5,-.5"/>
<text text-anchor="middle" x="96.5" y="-7.5" font-family="Helvetica,sans-Serif" font-size="10.00" fill="#000000">Ogre::BorderRenderable</text>
</g>
<!-- Node1 -->
<g id="node2" class="node">
<title>Node1</title>
<g id="a_node2"><a xlink:href="class_ogre_1_1_renderable.html" target="_top" xlink:title="Abstract class defining the interface all renderable objects must implement. ">
<polygon fill="none" stroke="#000000" points="0,-56.5 0,-75.5 93,-75.5 93,-56.5 0,-56.5"/>
<text text-anchor="middle" x="46.5" y="-63.5" font-family="Helvetica,sans-Serif" font-size="10.00" fill="#000000">Ogre::Renderable</text>
</a>
</g>
</g>
<!-- Node1&#45;&gt;Node0 -->
<g id="edge1" class="edge">
<title>Node1&#45;&gt;Node0</title>
<path fill="none" stroke="#191970" d="M62.1247,-48.5004C70.6273,-38.9775 80.8218,-27.5596 87.8905,-19.6427"/>
<polygon fill="#191970" stroke="#191970" points="59.2587,-46.4551 55.2093,-56.2455 64.4803,-51.1172 59.2587,-46.4551"/>
</g>
<!-- Node2 -->
<g id="node3" class="node">
<title>Node2</title>
<g id="a_node3"><a xlink:href="class_ogre_1_1_allocated_object.html" target="_top" xlink:title="OverlayAlloc">
<polygon fill="none" stroke="#000000" points="111.5,-56.5 111.5,-75.5 183.5,-75.5 183.5,-56.5 111.5,-56.5"/>
<text text-anchor="middle" x="147.5" y="-63.5" font-family="Helvetica,sans-Serif" font-size="10.00" fill="#000000">OverlayAlloc</text>
</a>
</g>
</g>
<!-- Node2&#45;&gt;Node0 -->
<g id="edge2" class="edge">
<title>Node2&#45;&gt;Node0</title>
<path fill="none" stroke="#191970" d="M131.8251,-48.7884C123.1006,-39.2085 112.5646,-27.6396 105.2817,-19.6427"/>
<polygon fill="#191970" stroke="#191970" points="129.2954,-51.2088 138.6165,-56.2455 134.4709,-46.4954 129.2954,-51.2088"/>
</g>
</g>
</svg>
