<?xml version="1.0" encoding="UTF-8" standalone="no"?>
<!DOCTYPE svg PUBLIC "-//W3C//DTD SVG 1.1//EN"
 "http://www.w3.org/Graphics/SVG/1.1/DTD/svg11.dtd">
<!-- Generated by graphviz version 2.40.1 (20161225.0304)
 -->
<!-- Title: Ogre::TextureFrameControllerValue Pages: 1 -->
<svg width="154pt" height="162pt"
 viewBox="0.00 0.00 154.00 162.00" xmlns="http://www.w3.org/2000/svg" xmlns:xlink="http://www.w3.org/1999/xlink">
<g id="graph0" class="graph" transform="scale(1 1) rotate(0) translate(4 158)">
<title>Ogre::TextureFrameControllerValue</title>
<!-- Node0 -->
<g id="node1" class="node">
<title>Node0</title>
<polygon fill="#bfbfbf" stroke="#000000" points="0,-.5 0,-30.5 146,-30.5 146,-.5 0,-.5"/>
<text text-anchor="start" x="8" y="-18.5" font-family="Helvetica,sans-Serif" font-size="10.00" fill="#000000">Ogre::TextureFrameController</text>
<text text-anchor="middle" x="73" y="-7.5" font-family="Helvetica,sans-Serif" font-size="10.00" fill="#000000">Value</text>
</g>
<!-- Node1 -->
<g id="node2" class="node">
<title>Node1</title>
<g id="a_node2"><a xlink:href="class_ogre_1_1_controller_value.html" target="_top" xlink:title="Ogre::ControllerValue\l\&lt; Real \&gt;">
<polygon fill="none" stroke="#000000" points="18,-67.5 18,-97.5 128,-97.5 128,-67.5 18,-67.5"/>
<text text-anchor="start" x="26" y="-85.5" font-family="Helvetica,sans-Serif" font-size="10.00" fill="#000000">Ogre::ControllerValue</text>
<text text-anchor="middle" x="73" y="-74.5" font-family="Helvetica,sans-Serif" font-size="10.00" fill="#000000">&lt; Real &gt;</text>
</a>
</g>
</g>
<!-- Node1&#45;&gt;Node0 -->
<g id="edge1" class="edge">
<title>Node1&#45;&gt;Node0</title>
<path fill="none" stroke="#191970" d="M73,-57.0249C73,-48.128 73,-38.4287 73,-30.6432"/>
<polygon fill="#191970" stroke="#191970" points="69.5001,-57.2966 73,-67.2967 76.5001,-57.2967 69.5001,-57.2966"/>
</g>
<!-- Node2 -->
<g id="node3" class="node">
<title>Node2</title>
<g id="a_node3"><a xlink:href="class_ogre_1_1_allocated_object.html" target="_top" xlink:title="ControllerAlloc">
<polygon fill="none" stroke="#000000" points="33,-134.5 33,-153.5 113,-153.5 113,-134.5 33,-134.5"/>
<text text-anchor="middle" x="73" y="-141.5" font-family="Helvetica,sans-Serif" font-size="10.00" fill="#000000">ControllerAlloc</text>
</a>
</g>
</g>
<!-- Node2&#45;&gt;Node1 -->
<g id="edge2" class="edge">
<title>Node2&#45;&gt;Node1</title>
<path fill="none" stroke="#191970" d="M73,-124.3693C73,-115.681 73,-105.6241 73,-97.5446"/>
<polygon fill="#191970" stroke="#191970" points="69.5001,-124.3906 73,-134.3906 76.5001,-124.3907 69.5001,-124.3906"/>
</g>
</g>
</svg>
