<?xml version="1.0" encoding="UTF-8" standalone="no"?>
<!DOCTYPE svg PUBLIC "-//W3C//DTD SVG 1.1//EN"
 "http://www.w3.org/Graphics/SVG/1.1/DTD/svg11.dtd">
<!-- Generated by graphviz version 2.40.1 (20161225.0304)
 -->
<!-- Title: Ogre::ConfigFile Pages: 1 -->
<svg width="96pt" height="84pt"
 viewBox="0.00 0.00 96.00 84.00" xmlns="http://www.w3.org/2000/svg" xmlns:xlink="http://www.w3.org/1999/xlink">
<g id="graph0" class="graph" transform="scale(1 1) rotate(0) translate(4 80)">
<title>Ogre::ConfigFile</title>
<!-- Node0 -->
<g id="node1" class="node">
<title>Node0</title>
<polygon fill="#bfbfbf" stroke="#000000" points="0,-.5 0,-19.5 88,-19.5 88,-.5 0,-.5"/>
<text text-anchor="middle" x="44" y="-7.5" font-family="Helvetica,sans-Serif" font-size="10.00" fill="#000000">Ogre::ConfigFile</text>
</g>
<!-- Node1 -->
<g id="node2" class="node">
<title>Node1</title>
<g id="a_node2"><a xlink:href="class_ogre_1_1_allocated_object.html" target="_top" xlink:title="ConfigAlloc">
<polygon fill="none" stroke="#000000" points="10.5,-56.5 10.5,-75.5 77.5,-75.5 77.5,-56.5 10.5,-56.5"/>
<text text-anchor="middle" x="44" y="-63.5" font-family="Helvetica,sans-Serif" font-size="10.00" fill="#000000">ConfigAlloc</text>
</a>
</g>
</g>
<!-- Node1&#45;&gt;Node0 -->
<g id="edge1" class="edge">
<title>Node1&#45;&gt;Node0</title>
<path fill="none" stroke="#191970" d="M37.5113,-46.1575C36.919,-37.155 37.3335,-26.9199 38.7549,-19.6427"/>
<polygon fill="#191970" stroke="#191970" points="34.0561,-46.739 38.7332,-56.2455 41.0053,-45.8972 34.0561,-46.739"/>
</g>
<!-- Node1&#45;&gt;Node0 -->
<g id="edge2" class="edge">
<title>Node1&#45;&gt;Node0</title>
<path fill="none" stroke="#191970" d="M50.4887,-46.1575C51.081,-37.155 50.6665,-26.9199 49.2451,-19.6427"/>
<polygon fill="#191970" stroke="#191970" points="46.9947,-45.8972 49.2668,-56.2455 53.9439,-46.739 46.9947,-45.8972"/>
</g>
</g>
</svg>
