<?xml version="1.0" encoding="UTF-8" standalone="no"?>
<!DOCTYPE svg PUBLIC "-//W3C//DTD SVG 1.1//EN"
 "http://www.w3.org/Graphics/SVG/1.1/DTD/svg11.dtd">
<!-- Generated by graphviz version 2.40.1 (20161225.0304)
 -->
<!-- Title: Ogre::HardwareVertexBuffer Pages: 1 -->
<svg width="586pt" height="274pt"
 viewBox="0.00 0.00 586.00 273.50" xmlns="http://www.w3.org/2000/svg" xmlns:xlink="http://www.w3.org/1999/xlink">
<g id="graph0" class="graph" transform="scale(1 1) rotate(0) translate(4 269.5)">
<title>Ogre::HardwareVertexBuffer</title>
<!-- Node0 -->
<g id="node1" class="node">
<title>Node0</title>
<polygon fill="#bfbfbf" stroke="#000000" points="249,-117.5 249,-136.5 389,-136.5 389,-117.5 249,-117.5"/>
<text text-anchor="middle" x="319" y="-124.5" font-family="Helvetica,sans-Serif" font-size="10.00" fill="#000000">Ogre::HardwareVertexBuffer</text>
</g>
<!-- Node3 -->
<g id="node4" class="node">
<title>Node3</title>
<g id="a_node4"><a xlink:href="class_ogre_1_1_d3_d11_hardware_vertex_buffer.html" target="_top" xlink:title="Specialisation of HardwareVertexBuffer for D3D11. ">
<polygon fill="none" stroke="#000000" points="429,-235 429,-265 574,-265 574,-235 429,-235"/>
<text text-anchor="start" x="437" y="-253" font-family="Helvetica,sans-Serif" font-size="10.00" fill="#000000">Ogre::D3D11HardwareVertex</text>
<text text-anchor="middle" x="501.5" y="-242" font-family="Helvetica,sans-Serif" font-size="10.00" fill="#000000">Buffer</text>
</a>
</g>
</g>
<!-- Node0&#45;&gt;Node3 -->
<g id="edge3" class="edge">
<title>Node0&#45;&gt;Node3</title>
<path fill="none" stroke="#191970" d="M333.3227,-144.5432C352.1731,-166.5527 387.3549,-204.0626 425,-226 430.7727,-229.364 437.0701,-232.3102 443.4925,-234.8771"/>
<polygon fill="#191970" stroke="#191970" points="335.8227,-142.0778 326.7116,-136.6705 330.4621,-146.5793 335.8227,-142.0778"/>
</g>
<!-- Node4 -->
<g id="node5" class="node">
<title>Node4</title>
<g id="a_node5"><a xlink:href="class_ogre_1_1_d3_d9_hardware_vertex_buffer.html" target="_top" xlink:title="Specialisation of HardwareVertexBuffer for D3D9. ">
<polygon fill="none" stroke="#000000" points="431.5,-186 431.5,-216 571.5,-216 571.5,-186 431.5,-186"/>
<text text-anchor="start" x="439.5" y="-204" font-family="Helvetica,sans-Serif" font-size="10.00" fill="#000000">Ogre::D3D9HardwareVertex</text>
<text text-anchor="middle" x="501.5" y="-193" font-family="Helvetica,sans-Serif" font-size="10.00" fill="#000000">Buffer</text>
</a>
</g>
</g>
<!-- Node0&#45;&gt;Node4 -->
<g id="edge4" class="edge">
<title>Node0&#45;&gt;Node4</title>
<path fill="none" stroke="#191970" d="M346.4633,-141.226C367.6,-151.8614 397.7168,-166.3432 425,-177 433.0386,-180.1399 441.6706,-183.1666 450.1371,-185.9508"/>
<polygon fill="#191970" stroke="#191970" points="347.9273,-138.044 337.4262,-136.6377 344.7582,-144.2856 347.9273,-138.044"/>
</g>
<!-- Node5 -->
<g id="node6" class="node">
<title>Node5</title>
<g id="a_node6"><a xlink:href="class_ogre_1_1_default_hardware_vertex_buffer.html" target="_top" xlink:title="Specialisation of HardwareVertexBuffer for emulation. ">
<polygon fill="none" stroke="#000000" points="428.5,-137 428.5,-167 574.5,-167 574.5,-137 428.5,-137"/>
<text text-anchor="start" x="436.5" y="-155" font-family="Helvetica,sans-Serif" font-size="10.00" fill="#000000">Ogre::DefaultHardwareVertex</text>
<text text-anchor="middle" x="501.5" y="-144" font-family="Helvetica,sans-Serif" font-size="10.00" fill="#000000">Buffer</text>
</a>
</g>
</g>
<!-- Node0&#45;&gt;Node5 -->
<g id="edge5" class="edge">
<title>Node0&#45;&gt;Node5</title>
<path fill="none" stroke="#191970" d="M398.6713,-137.9139C408.4983,-139.26 418.5073,-140.6311 428.2326,-141.9634"/>
<polygon fill="#191970" stroke="#191970" points="398.8986,-134.4124 388.516,-136.5227 397.9485,-141.3476 398.8986,-134.4124"/>
</g>
<!-- Node6 -->
<g id="node7" class="node">
<title>Node6</title>
<g id="a_node7"><a xlink:href="class_ogre_1_1_g_l3_plus_hardware_vertex_buffer.html" target="_top" xlink:title="Specialisation of HardwareVertexBuffer for OpenGL. ">
<polygon fill="none" stroke="#000000" points="425.5,-88 425.5,-118 577.5,-118 577.5,-88 425.5,-88"/>
<text text-anchor="start" x="433.5" y="-106" font-family="Helvetica,sans-Serif" font-size="10.00" fill="#000000">Ogre::GL3PlusHardwareVertex</text>
<text text-anchor="middle" x="501.5" y="-95" font-family="Helvetica,sans-Serif" font-size="10.00" fill="#000000">Buffer</text>
</a>
</g>
</g>
<!-- Node0&#45;&gt;Node6 -->
<g id="edge6" class="edge">
<title>Node0&#45;&gt;Node6</title>
<path fill="none" stroke="#191970" d="M399.1462,-116.4602C407.8271,-115.3186 416.6441,-114.1591 425.2766,-113.0239"/>
<polygon fill="#191970" stroke="#191970" points="398.4956,-113.0156 389.0373,-117.7896 399.4083,-119.9558 398.4956,-113.0156"/>
</g>
<!-- Node7 -->
<g id="node8" class="node">
<title>Node7</title>
<g id="a_node8"><a xlink:href="class_ogre_1_1_g_l_e_s2_hardware_vertex_buffer.html" target="_top" xlink:title="Specialisation of HardwareVertexBuffer for OpenGL ES. ">
<polygon fill="none" stroke="#000000" points="428.5,-39 428.5,-69 574.5,-69 574.5,-39 428.5,-39"/>
<text text-anchor="start" x="436.5" y="-57" font-family="Helvetica,sans-Serif" font-size="10.00" fill="#000000">Ogre::GLES2HardwareVertex</text>
<text text-anchor="middle" x="501.5" y="-46" font-family="Helvetica,sans-Serif" font-size="10.00" fill="#000000">Buffer</text>
</a>
</g>
</g>
<!-- Node0&#45;&gt;Node7 -->
<g id="edge7" class="edge">
<title>Node0&#45;&gt;Node7</title>
<path fill="none" stroke="#191970" d="M346.8796,-112.91C368.0132,-102.5258 397.9384,-88.4496 425,-78 433.0507,-74.8913 441.689,-71.8806 450.158,-69.1029"/>
<polygon fill="#191970" stroke="#191970" points="345.2358,-109.8183 337.8301,-117.395 348.3443,-116.0903 345.2358,-109.8183"/>
</g>
<!-- Node8 -->
<g id="node9" class="node">
<title>Node8</title>
<g id="a_node9"><a xlink:href="class_ogre_1_1_g_l_hardware_vertex_buffer.html" target="_top" xlink:title="Specialisation of HardwareVertexBuffer for OpenGL. ">
<polygon fill="none" stroke="#000000" points="425,-.5 425,-19.5 578,-19.5 578,-.5 425,-.5"/>
<text text-anchor="middle" x="501.5" y="-7.5" font-family="Helvetica,sans-Serif" font-size="10.00" fill="#000000">Ogre::GLHardwareVertexBuffer</text>
</a>
</g>
</g>
<!-- Node0&#45;&gt;Node8 -->
<g id="edge8" class="edge">
<title>Node0&#45;&gt;Node8</title>
<path fill="none" stroke="#191970" d="M333.159,-109.2803C351.8364,-87.1194 386.8355,-49.5935 425,-29 432.226,-25.1009 440.2671,-21.9858 448.3442,-19.5013"/>
<polygon fill="#191970" stroke="#191970" points="330.2757,-107.2755 326.6147,-117.2177 335.6767,-111.7286 330.2757,-107.2755"/>
</g>
<!-- Node1 -->
<g id="node2" class="node">
<title>Node1</title>
<g id="a_node2"><a xlink:href="class_ogre_1_1_hardware_buffer.html" target="_top" xlink:title="Abstract class defining common features of hardware buffers. ">
<polygon fill="none" stroke="#000000" points="101,-117.5 101,-136.5 213,-136.5 213,-117.5 101,-117.5"/>
<text text-anchor="middle" x="157" y="-124.5" font-family="Helvetica,sans-Serif" font-size="10.00" fill="#000000">Ogre::HardwareBuffer</text>
</a>
</g>
</g>
<!-- Node1&#45;&gt;Node0 -->
<g id="edge1" class="edge">
<title>Node1&#45;&gt;Node0</title>
<path fill="none" stroke="#191970" d="M223.3502,-127C231.7774,-127 240.4234,-127 248.9069,-127"/>
<polygon fill="#191970" stroke="#191970" points="223.2051,-123.5001 213.2051,-127 223.2051,-130.5001 223.2051,-123.5001"/>
</g>
<!-- Node2 -->
<g id="node3" class="node">
<title>Node2</title>
<g id="a_node3"><a xlink:href="class_ogre_1_1_allocated_object.html" target="_top" xlink:title="BufferAlloc">
<polygon fill="none" stroke="#000000" points="0,-117.5 0,-136.5 65,-136.5 65,-117.5 0,-117.5"/>
<text text-anchor="middle" x="32.5" y="-124.5" font-family="Helvetica,sans-Serif" font-size="10.00" fill="#000000">BufferAlloc</text>
</a>
</g>
</g>
<!-- Node2&#45;&gt;Node1 -->
<g id="edge2" class="edge">
<title>Node2&#45;&gt;Node1</title>
<path fill="none" stroke="#191970" d="M75.3339,-127C83.5784,-127 92.3278,-127 100.9189,-127"/>
<polygon fill="#191970" stroke="#191970" points="75.2109,-123.5001 65.2109,-127 75.2109,-130.5001 75.2109,-123.5001"/>
</g>
</g>
</svg>
