<?xml version="1.0" encoding="UTF-8" standalone="no"?>
<!DOCTYPE svg PUBLIC "-//W3C//DTD SVG 1.1//EN"
 "http://www.w3.org/Graphics/SVG/1.1/DTD/svg11.dtd">
<!-- Generated by graphviz version 2.40.1 (20161225.0304)
 -->
<!-- Title: Ogre::Node::DebugRenderable Pages: 1 -->
<svg width="182pt" height="84pt"
 viewBox="0.00 0.00 181.50 84.00" xmlns="http://www.w3.org/2000/svg" xmlns:xlink="http://www.w3.org/1999/xlink">
<g id="graph0" class="graph" transform="scale(1 1) rotate(0) translate(4 80)">
<title>Ogre::Node::DebugRenderable</title>
<!-- Node0 -->
<g id="node1" class="node">
<title>Node0</title>
<polygon fill="#bfbfbf" stroke="#000000" points="19,-.5 19,-19.5 170,-19.5 170,-.5 19,-.5"/>
<text text-anchor="middle" x="94.5" y="-7.5" font-family="Helvetica,sans-Serif" font-size="10.00" fill="#000000">Ogre::Node::DebugRenderable</text>
</g>
<!-- Node1 -->
<g id="node2" class="node">
<title>Node1</title>
<g id="a_node2"><a xlink:href="class_ogre_1_1_renderable.html" target="_top" xlink:title="Abstract class defining the interface all renderable objects must implement. ">
<polygon fill="none" stroke="#000000" points="0,-56.5 0,-75.5 93,-75.5 93,-56.5 0,-56.5"/>
<text text-anchor="middle" x="46.5" y="-63.5" font-family="Helvetica,sans-Serif" font-size="10.00" fill="#000000">Ogre::Renderable</text>
</a>
</g>
</g>
<!-- Node1&#45;&gt;Node0 -->
<g id="edge1" class="edge">
<title>Node1&#45;&gt;Node0</title>
<path fill="none" stroke="#191970" d="M61.4997,-48.5004C69.6622,-38.9775 79.4489,-27.5596 86.2349,-19.6427"/>
<polygon fill="#191970" stroke="#191970" points="58.7115,-46.3752 54.861,-56.2455 64.0263,-50.9307 58.7115,-46.3752"/>
</g>
<!-- Node2 -->
<g id="node3" class="node">
<title>Node2</title>
<g id="a_node3"><a xlink:href="class_ogre_1_1_allocated_object.html" target="_top" xlink:title="NodeAlloc">
<polygon fill="none" stroke="#000000" points="111.5,-56.5 111.5,-75.5 173.5,-75.5 173.5,-56.5 111.5,-56.5"/>
<text text-anchor="middle" x="142.5" y="-63.5" font-family="Helvetica,sans-Serif" font-size="10.00" fill="#000000">NodeAlloc</text>
</a>
</g>
</g>
<!-- Node2&#45;&gt;Node0 -->
<g id="edge2" class="edge">
<title>Node2&#45;&gt;Node0</title>
<path fill="none" stroke="#191970" d="M127.5003,-48.5004C119.3378,-38.9775 109.5511,-27.5596 102.7651,-19.6427"/>
<polygon fill="#191970" stroke="#191970" points="124.9737,-50.9307 134.139,-56.2455 130.2885,-46.3752 124.9737,-50.9307"/>
</g>
</g>
</svg>
