<?xml version="1.0" encoding="UTF-8" standalone="no"?>
<!DOCTYPE svg PUBLIC "-//W3C//DTD SVG 1.1//EN"
 "http://www.w3.org/Graphics/SVG/1.1/DTD/svg11.dtd">
<!-- Generated by graphviz version 2.40.1 (20161225.0304)
 -->
<!-- Title: Ogre::CompositorChain Pages: 1 -->
<svg width="409pt" height="84pt"
 viewBox="0.00 0.00 409.00 84.00" xmlns="http://www.w3.org/2000/svg" xmlns:xlink="http://www.w3.org/1999/xlink">
<g id="graph0" class="graph" transform="scale(1 1) rotate(0) translate(4 80)">
<title>Ogre::CompositorChain</title>
<!-- Node0 -->
<g id="node1" class="node">
<title>Node0</title>
<polygon fill="#bfbfbf" stroke="#000000" points="157,-.5 157,-19.5 276,-19.5 276,-.5 157,-.5"/>
<text text-anchor="middle" x="216.5" y="-7.5" font-family="Helvetica,sans-Serif" font-size="10.00" fill="#000000">Ogre::CompositorChain</text>
</g>
<!-- Node1 -->
<g id="node2" class="node">
<title>Node1</title>
<g id="a_node2"><a xlink:href="class_ogre_1_1_render_target_listener.html" target="_top" xlink:title="A interface class defining a listener which can be used to receive notifications of RenderTarget even...">
<polygon fill="none" stroke="#000000" points="0,-56.5 0,-75.5 137,-75.5 137,-56.5 0,-56.5"/>
<text text-anchor="middle" x="68.5" y="-63.5" font-family="Helvetica,sans-Serif" font-size="10.00" fill="#000000">Ogre::RenderTargetListener</text>
</a>
</g>
</g>
<!-- Node1&#45;&gt;Node0 -->
<g id="edge1" class="edge">
<title>Node1&#45;&gt;Node0</title>
<path fill="none" stroke="#191970" d="M103.4153,-52.7888C130.4383,-42.5639 167.214,-28.6488 191.3899,-19.5011"/>
<polygon fill="#191970" stroke="#191970" points="102.0563,-49.5608 93.9421,-56.3733 104.5336,-56.1078 102.0563,-49.5608"/>
</g>
<!-- Node2 -->
<g id="node3" class="node">
<title>Node2</title>
<g id="a_node3"><a xlink:href="class_ogre_1_1_viewport_1_1_listener.html" target="_top" xlink:title="Listener interface so you can be notified of Viewport changes. ">
<polygon fill="none" stroke="#000000" points="155.5,-56.5 155.5,-75.5 277.5,-75.5 277.5,-56.5 155.5,-56.5"/>
<text text-anchor="middle" x="216.5" y="-63.5" font-family="Helvetica,sans-Serif" font-size="10.00" fill="#000000">Ogre::Viewport::Listener</text>
</a>
</g>
</g>
<!-- Node2&#45;&gt;Node0 -->
<g id="edge2" class="edge">
<title>Node2&#45;&gt;Node0</title>
<path fill="none" stroke="#191970" d="M216.5,-46.1575C216.5,-37.155 216.5,-26.9199 216.5,-19.6427"/>
<polygon fill="#191970" stroke="#191970" points="213.0001,-46.2455 216.5,-56.2455 220.0001,-46.2456 213.0001,-46.2455"/>
</g>
<!-- Node3 -->
<g id="node4" class="node">
<title>Node3</title>
<g id="a_node4"><a xlink:href="class_ogre_1_1_allocated_object.html" target="_top" xlink:title="CompositorInstAlloc">
<polygon fill="none" stroke="#000000" points="296,-56.5 296,-75.5 401,-75.5 401,-56.5 296,-56.5"/>
<text text-anchor="middle" x="348.5" y="-63.5" font-family="Helvetica,sans-Serif" font-size="10.00" fill="#000000">CompositorInstAlloc</text>
</a>
</g>
</g>
<!-- Node3&#45;&gt;Node0 -->
<g id="edge3" class="edge">
<title>Node3&#45;&gt;Node0</title>
<path fill="none" stroke="#191970" d="M316.4035,-52.3833C292.3965,-42.1985 260.1741,-28.5284 238.8955,-19.5011"/>
<polygon fill="#191970" stroke="#191970" points="315.2356,-55.6897 325.8084,-56.3733 317.9695,-49.2457 315.2356,-55.6897"/>
</g>
</g>
</svg>
