<?xml version="1.0" encoding="UTF-8" standalone="no"?>
<!DOCTYPE svg PUBLIC "-//W3C//DTD SVG 1.1//EN"
 "http://www.w3.org/Graphics/SVG/1.1/DTD/svg11.dtd">
<!-- Generated by graphviz version 2.40.1 (20161225.0304)
 -->
<!-- Title: Ogre::SmallVectorTemplateCommon&lt; T &gt; Pages: 1 -->
<svg width="972pt" height="176pt"
 viewBox="0.00 0.00 972.00 175.50" xmlns="http://www.w3.org/2000/svg" xmlns:xlink="http://www.w3.org/1999/xlink">
<g id="graph0" class="graph" transform="scale(1 1) rotate(0) translate(4 171.5)">
<title>Ogre::SmallVectorTemplateCommon&lt; T &gt;</title>
<!-- Node0 -->
<g id="node1" class="node">
<title>Node0</title>
<polygon fill="#bfbfbf" stroke="#000000" points="155,-88 155,-118 292,-118 292,-88 155,-88"/>
<text text-anchor="start" x="163" y="-106" font-family="Helvetica,sans-Serif" font-size="10.00" fill="#000000">Ogre::SmallVectorTemplate</text>
<text text-anchor="middle" x="223.5" y="-95" font-family="Helvetica,sans-Serif" font-size="10.00" fill="#000000">Common&lt; T &gt;</text>
</g>
<!-- Node2 -->
<g id="node3" class="node">
<title>Node2</title>
<g id="a_node3"><a xlink:href="class_ogre_1_1_small_vector_template_base.html" target="_top" xlink:title="SmallVectorTemplateBase&lt;isPodLike = false&gt; &#45; This is where we put method implementations that are des...">
<polygon fill="none" stroke="#000000" points="331,-137 331,-167 468,-167 468,-137 331,-137"/>
<text text-anchor="start" x="339" y="-155" font-family="Helvetica,sans-Serif" font-size="10.00" fill="#000000">Ogre::SmallVectorTemplate</text>
<text text-anchor="middle" x="399.5" y="-144" font-family="Helvetica,sans-Serif" font-size="10.00" fill="#000000">Base&lt; T &gt;</text>
</a>
</g>
</g>
<!-- Node0&#45;&gt;Node2 -->
<g id="edge2" class="edge">
<title>Node0&#45;&gt;Node2</title>
<path fill="none" stroke="#191970" d="M287.511,-120.8212C306.5137,-126.1118 327.1322,-131.8522 345.4372,-136.9484"/>
<polygon fill="#191970" stroke="#191970" points="288.3143,-117.4118 277.7419,-118.1014 286.4368,-124.1554 288.3143,-117.4118"/>
</g>
<!-- Node3 -->
<g id="node4" class="node">
<title>Node3</title>
<g id="a_node4"><a xlink:href="class_ogre_1_1_small_vector_template_base_3_01_t_00_01true_01_4.html" target="_top" xlink:title="SmallVectorTemplateBase&lt;isPodLike = true&gt; &#45; This is where we put method implementations that are desi...">
<polygon fill="none" stroke="#000000" points="331,-88 331,-118 468,-118 468,-88 331,-88"/>
<text text-anchor="start" x="339" y="-106" font-family="Helvetica,sans-Serif" font-size="10.00" fill="#000000">Ogre::SmallVectorTemplate</text>
<text text-anchor="middle" x="399.5" y="-95" font-family="Helvetica,sans-Serif" font-size="10.00" fill="#000000">Base&lt; T, true &gt;</text>
</a>
</g>
</g>
<!-- Node0&#45;&gt;Node3 -->
<g id="edge3" class="edge">
<title>Node0&#45;&gt;Node3</title>
<path fill="none" stroke="#191970" d="M302.3026,-103C311.8231,-103 321.4888,-103 330.8474,-103"/>
<polygon fill="#191970" stroke="#191970" points="302.0502,-99.5001 292.0502,-103 302.0501,-106.5001 302.0502,-99.5001"/>
</g>
<!-- Node4 -->
<g id="node5" class="node">
<title>Node4</title>
<g id="a_node5"><a xlink:href="class_ogre_1_1_small_vector_template_base.html" target="_top" xlink:title="SmallVectorTemplateBase\l\&lt; T, isPodLike\&lt; T \&gt;::value \&gt;">
<polygon fill="none" stroke="#000000" points="328,-39 328,-69 471,-69 471,-39 328,-39"/>
<text text-anchor="start" x="336" y="-57" font-family="Helvetica,sans-Serif" font-size="10.00" fill="#000000">SmallVectorTemplateBase</text>
<text text-anchor="middle" x="399.5" y="-46" font-family="Helvetica,sans-Serif" font-size="10.00" fill="#000000">&lt; T, isPodLike&lt; T &gt;::value &gt;</text>
</a>
</g>
</g>
<!-- Node0&#45;&gt;Node4 -->
<g id="edge4" class="edge">
<title>Node0&#45;&gt;Node4</title>
<path fill="none" stroke="#191970" d="M287.511,-85.1788C306.5137,-79.8882 327.1322,-74.1478 345.4372,-69.0516"/>
<polygon fill="#191970" stroke="#191970" points="286.4368,-81.8446 277.7419,-87.8986 288.3143,-88.5882 286.4368,-81.8446"/>
</g>
<!-- Node1 -->
<g id="node2" class="node">
<title>Node1</title>
<g id="a_node2"><a xlink:href="class_ogre_1_1_small_vector_base.html" target="_top" xlink:title="SmallVectorBase &#45; This is all the non&#45;templated stuff common to all SmallVectors. ...">
<polygon fill="none" stroke="#000000" points="0,-93.5 0,-112.5 119,-112.5 119,-93.5 0,-93.5"/>
<text text-anchor="middle" x="59.5" y="-100.5" font-family="Helvetica,sans-Serif" font-size="10.00" fill="#000000">Ogre::SmallVectorBase</text>
</a>
</g>
</g>
<!-- Node1&#45;&gt;Node0 -->
<g id="edge1" class="edge">
<title>Node1&#45;&gt;Node0</title>
<path fill="none" stroke="#191970" d="M129.3958,-103C137.87,-103 146.5205,-103 154.9746,-103"/>
<polygon fill="#191970" stroke="#191970" points="129.1717,-99.5001 119.1717,-103 129.1717,-106.5001 129.1717,-99.5001"/>
</g>
<!-- Node5 -->
<g id="node6" class="node">
<title>Node5</title>
<g id="a_node6"><a xlink:href="class_ogre_1_1_small_vector_impl.html" target="_top" xlink:title="SmallVectorImpl &#45; This class consists of common code factored out of the SmallVector class to reduce ...">
<polygon fill="none" stroke="#000000" points="507,-44.5 507,-63.5 647,-63.5 647,-44.5 507,-44.5"/>
<text text-anchor="middle" x="577" y="-51.5" font-family="Helvetica,sans-Serif" font-size="10.00" fill="#000000">Ogre::SmallVectorImpl&lt; T &gt;</text>
</a>
</g>
</g>
<!-- Node4&#45;&gt;Node5 -->
<g id="edge5" class="edge">
<title>Node4&#45;&gt;Node5</title>
<path fill="none" stroke="#191970" d="M481.4467,-54C489.9108,-54 498.4579,-54 506.7776,-54"/>
<polygon fill="#191970" stroke="#191970" points="481.1844,-50.5001 471.1844,-54 481.1844,-57.5001 481.1844,-50.5001"/>
</g>
<!-- Node6 -->
<g id="node7" class="node">
<title>Node6</title>
<g id="a_node7"><a xlink:href="class_ogre_1_1_small_vector.html" target="_top" xlink:title="SmallVector &#45; This is a &#39;vector&#39; (really, a variable&#45;sized array), optimized for the case when the ar...">
<polygon fill="none" stroke="#000000" points="683,-88.5 683,-107.5 804,-107.5 804,-88.5 683,-88.5"/>
<text text-anchor="middle" x="743.5" y="-95.5" font-family="Helvetica,sans-Serif" font-size="10.00" fill="#000000">Ogre::SmallVector&lt; T &gt;</text>
</a>
</g>
</g>
<!-- Node5&#45;&gt;Node6 -->
<g id="edge6" class="edge">
<title>Node5&#45;&gt;Node6</title>
<path fill="none" stroke="#191970" d="M622.9945,-66.1547C649.6375,-73.1955 682.6943,-81.9312 707.4425,-88.4713"/>
<polygon fill="#191970" stroke="#191970" points="623.6904,-62.7185 613.128,-63.5473 621.9019,-69.4862 623.6904,-62.7185"/>
</g>
<!-- Node7 -->
<g id="node8" class="node">
<title>Node7</title>
<g id="a_node8"><a xlink:href="class_ogre_1_1_small_vector_3_01_t_00_010_01_4.html" target="_top" xlink:title="Specialize SmallVector at N=0. ">
<polygon fill="none" stroke="#000000" points="692,-39 692,-69 795,-69 795,-39 692,-39"/>
<text text-anchor="start" x="700" y="-57" font-family="Helvetica,sans-Serif" font-size="10.00" fill="#000000">Ogre::SmallVector&lt;</text>
<text text-anchor="middle" x="743.5" y="-46" font-family="Helvetica,sans-Serif" font-size="10.00" fill="#000000"> T, 0 &gt;</text>
</a>
</g>
</g>
<!-- Node5&#45;&gt;Node7 -->
<g id="edge7" class="edge">
<title>Node5&#45;&gt;Node7</title>
<path fill="none" stroke="#191970" d="M657.4036,-54C669.1449,-54 680.9618,-54 691.9186,-54"/>
<polygon fill="#191970" stroke="#191970" points="657.1285,-50.5001 647.1284,-54 657.1284,-57.5001 657.1285,-50.5001"/>
</g>
<!-- Node8 -->
<g id="node9" class="node">
<title>Node8</title>
<g id="a_node9"><a xlink:href="class_ogre_1_1_small_vector.html" target="_top" xlink:title="SmallVector\&lt; T, S \&gt;">
<polygon fill="none" stroke="#000000" points="690,-.5 690,-19.5 797,-19.5 797,-.5 690,-.5"/>
<text text-anchor="middle" x="743.5" y="-7.5" font-family="Helvetica,sans-Serif" font-size="10.00" fill="#000000">SmallVector&lt; T, S &gt;</text>
</a>
</g>
</g>
<!-- Node5&#45;&gt;Node8 -->
<g id="edge8" class="edge">
<title>Node5&#45;&gt;Node8</title>
<path fill="none" stroke="#191970" d="M622.9945,-41.8453C649.6375,-34.8045 682.6943,-26.0688 707.4425,-19.5287"/>
<polygon fill="#191970" stroke="#191970" points="621.9019,-38.5138 613.128,-44.4527 623.6904,-45.2815 621.9019,-38.5138"/>
</g>
<!-- Node9 -->
<g id="node10" class="node">
<title>Node9</title>
<g id="a_node10"><a xlink:href="struct_ogre_1_1_vector_set.html" target="_top" xlink:title="VectorSet is basically a helper to use a vector as a small set container. ">
<polygon fill="none" stroke="#000000" points="840,-.5 840,-19.5 964,-19.5 964,-.5 840,-.5"/>
<text text-anchor="middle" x="902" y="-7.5" font-family="Helvetica,sans-Serif" font-size="10.00" fill="#000000">Ogre::VectorSet&lt; T, S &gt;</text>
</a>
</g>
</g>
<!-- Node8&#45;&gt;Node9 -->
<g id="edge9" class="edge">
<title>Node8&#45;&gt;Node9</title>
<path fill="none" stroke="#191970" d="M807.3195,-10C818.0693,-10 829.2132,-10 839.9181,-10"/>
<polygon fill="#191970" stroke="#191970" points="807.1609,-6.5001 797.1609,-10 807.1608,-13.5001 807.1609,-6.5001"/>
</g>
</g>
</svg>
