<?xml version="1.0" encoding="UTF-8" standalone="no"?>
<!DOCTYPE svg PUBLIC "-//W3C//DTD SVG 1.1//EN"
 "http://www.w3.org/Graphics/SVG/1.1/DTD/svg11.dtd">
<!-- Generated by graphviz version 2.40.1 (20161225.0304)
 -->
<!-- Title: Ogre::ResourceBackgroundQueue Pages: 1 -->
<svg width="327pt" height="176pt"
 viewBox="0.00 0.00 327.00 176.00" xmlns="http://www.w3.org/2000/svg" xmlns:xlink="http://www.w3.org/1999/xlink">
<g id="graph0" class="graph" transform="scale(1 1) rotate(0) translate(4 172)">
<title>Ogre::ResourceBackgroundQueue</title>
<!-- Node0 -->
<g id="node1" class="node">
<title>Node0</title>
<polygon fill="#bfbfbf" stroke="#000000" points="182,-71.5 182,-101.5 319,-101.5 319,-71.5 182,-71.5"/>
<text text-anchor="start" x="190" y="-89.5" font-family="Helvetica,sans-Serif" font-size="10.00" fill="#000000">Ogre::ResourceBackground</text>
<text text-anchor="middle" x="250.5" y="-78.5" font-family="Helvetica,sans-Serif" font-size="10.00" fill="#000000">Queue</text>
</g>
<!-- Node1 -->
<g id="node2" class="node">
<title>Node1</title>
<g id="a_node2"><a xlink:href="class_ogre_1_1_singleton.html" target="_top" xlink:title="Ogre::Singleton\&lt; Resource\lBackgroundQueue \&gt;">
<polygon fill="none" stroke="#000000" points="5.5,-137.5 5.5,-167.5 140.5,-167.5 140.5,-137.5 5.5,-137.5"/>
<text text-anchor="start" x="13.5" y="-155.5" font-family="Helvetica,sans-Serif" font-size="10.00" fill="#000000">Ogre::Singleton&lt; Resource</text>
<text text-anchor="middle" x="73" y="-144.5" font-family="Helvetica,sans-Serif" font-size="10.00" fill="#000000">BackgroundQueue &gt;</text>
</a>
</g>
</g>
<!-- Node1&#45;&gt;Node0 -->
<g id="edge1" class="edge">
<title>Node1&#45;&gt;Node0</title>
<path fill="none" stroke="#191970" d="M127.605,-134.0929C133.823,-131.9099 140.0582,-129.6818 146,-127.5 168.5021,-119.2372 193.5049,-109.4495 213.4108,-101.5098"/>
<polygon fill="#191970" stroke="#191970" points="126.1867,-130.8805 117.8927,-137.4729 128.4875,-137.4916 126.1867,-130.8805"/>
</g>
<!-- Node2 -->
<g id="node3" class="node">
<title>Node2</title>
<g id="a_node3"><a xlink:href="class_ogre_1_1_allocated_object.html" target="_top" xlink:title="ResourceAlloc">
<polygon fill="none" stroke="#000000" points="33,-99 33,-118 113,-118 113,-99 33,-99"/>
<text text-anchor="middle" x="73" y="-106" font-family="Helvetica,sans-Serif" font-size="10.00" fill="#000000">ResourceAlloc</text>
</a>
</g>
</g>
<!-- Node2&#45;&gt;Node0 -->
<g id="edge2" class="edge">
<title>Node2&#45;&gt;Node0</title>
<path fill="none" stroke="#191970" d="M123.3541,-102.2589C141.5236,-100.0069 162.3529,-97.4253 181.8223,-95.0122"/>
<polygon fill="#191970" stroke="#191970" points="122.771,-98.8043 113.2775,-103.5079 123.6321,-105.7512 122.771,-98.8043"/>
</g>
<!-- Node3 -->
<g id="node4" class="node">
<title>Node3</title>
<g id="a_node4"><a xlink:href="class_ogre_1_1_work_queue_1_1_request_handler.html" target="_top" xlink:title="Interface definition for a handler of requests. ">
<polygon fill="none" stroke="#000000" points="4,-49.5 4,-79.5 142,-79.5 142,-49.5 4,-49.5"/>
<text text-anchor="start" x="12" y="-67.5" font-family="Helvetica,sans-Serif" font-size="10.00" fill="#000000">Ogre::WorkQueue::Request</text>
<text text-anchor="middle" x="73" y="-56.5" font-family="Helvetica,sans-Serif" font-size="10.00" fill="#000000">Handler</text>
</a>
</g>
</g>
<!-- Node3&#45;&gt;Node0 -->
<g id="edge3" class="edge">
<title>Node3&#45;&gt;Node0</title>
<path fill="none" stroke="#191970" d="M152.321,-74.3313C162.1702,-75.5521 172.1761,-76.7923 181.8461,-77.9908"/>
<polygon fill="#191970" stroke="#191970" points="152.489,-70.8255 142.1344,-73.0688 151.6279,-77.7723 152.489,-70.8255"/>
</g>
<!-- Node4 -->
<g id="node5" class="node">
<title>Node4</title>
<g id="a_node5"><a xlink:href="class_ogre_1_1_work_queue_1_1_response_handler.html" target="_top" xlink:title="Interface definition for a handler of responses. ">
<polygon fill="none" stroke="#000000" points="0,-.5 0,-30.5 146,-30.5 146,-.5 0,-.5"/>
<text text-anchor="start" x="8" y="-18.5" font-family="Helvetica,sans-Serif" font-size="10.00" fill="#000000">Ogre::WorkQueue::Response</text>
<text text-anchor="middle" x="73" y="-7.5" font-family="Helvetica,sans-Serif" font-size="10.00" fill="#000000">Handler</text>
</a>
</g>
</g>
<!-- Node4&#45;&gt;Node0 -->
<g id="edge4" class="edge">
<title>Node4&#45;&gt;Node0</title>
<path fill="none" stroke="#191970" d="M128.2129,-33.8521C134.2421,-36.0213 140.2677,-38.2614 146,-40.5 170.5575,-50.0902 197.8041,-62.1316 218.3173,-71.4887"/>
<polygon fill="#191970" stroke="#191970" points="129.3722,-30.5497 118.7774,-30.5124 127.0365,-37.1486 129.3722,-30.5497"/>
</g>
</g>
</svg>
