<?xml version="1.0" encoding="UTF-8" standalone="no"?>
<!DOCTYPE svg PUBLIC "-//W3C//DTD SVG 1.1//EN"
 "http://www.w3.org/Graphics/SVG/1.1/DTD/svg11.dtd">
<!-- Generated by graphviz version 2.40.1 (20161225.0304)
 -->
<!-- Title: Ogre::FrameListener Pages: 1 -->
<svg width="439pt" height="95pt"
 viewBox="0.00 0.00 439.00 95.00" xmlns="http://www.w3.org/2000/svg" xmlns:xlink="http://www.w3.org/1999/xlink">
<g id="graph0" class="graph" transform="scale(1 1) rotate(0) translate(4 91)">
<title>Ogre::FrameListener</title>
<!-- Node0 -->
<g id="node1" class="node">
<title>Node0</title>
<polygon fill="#bfbfbf" stroke="#000000" points="155.5,-67.5 155.5,-86.5 261.5,-86.5 261.5,-67.5 155.5,-67.5"/>
<text text-anchor="middle" x="208.5" y="-74.5" font-family="Helvetica,sans-Serif" font-size="10.00" fill="#000000">Ogre::FrameListener</text>
</g>
<!-- Node1 -->
<g id="node2" class="node">
<title>Node1</title>
<g id="a_node2"><a xlink:href="class_ogre_1_1_frame_time_controller_value.html" target="_top" xlink:title="Predefined controller value for getting the latest frame time. ">
<polygon fill="none" stroke="#000000" points="0,-.5 0,-30.5 135,-30.5 135,-.5 0,-.5"/>
<text text-anchor="start" x="8" y="-18.5" font-family="Helvetica,sans-Serif" font-size="10.00" fill="#000000">Ogre::FrameTimeController</text>
<text text-anchor="middle" x="67.5" y="-7.5" font-family="Helvetica,sans-Serif" font-size="10.00" fill="#000000">Value</text>
</a>
</g>
</g>
<!-- Node0&#45;&gt;Node1 -->
<g id="edge1" class="edge">
<title>Node0&#45;&gt;Node1</title>
<path fill="none" stroke="#191970" d="M177.1268,-63.316C154.8485,-53.5988 124.9414,-40.5542 101.9925,-30.5446"/>
<polygon fill="#191970" stroke="#191970" points="175.9034,-66.6007 186.4688,-67.3906 178.702,-60.1845 175.9034,-66.6007"/>
</g>
<!-- Node2 -->
<g id="node3" class="node">
<title>Node2</title>
<g id="a_node3"><a xlink:href="class_ogre_1_1_volume_1_1_chunk.html" target="_top" xlink:title="A single volume chunk mesh. ">
<polygon fill="none" stroke="#000000" points="153,-6 153,-25 264,-25 264,-6 153,-6"/>
<text text-anchor="middle" x="208.5" y="-13" font-family="Helvetica,sans-Serif" font-size="10.00" fill="#000000">Ogre::Volume::Chunk</text>
</a>
</g>
</g>
<!-- Node0&#45;&gt;Node2 -->
<g id="edge2" class="edge">
<title>Node0&#45;&gt;Node2</title>
<path fill="none" stroke="#191970" d="M208.5,-57.2462C208.5,-46.5519 208.5,-33.814 208.5,-25.2449"/>
<polygon fill="#191970" stroke="#191970" points="205.0001,-57.3906 208.5,-67.3906 212.0001,-57.3907 205.0001,-57.3906"/>
</g>
<!-- Node3 -->
<g id="node4" class="node">
<title>Node3</title>
<g id="a_node4"><a xlink:href="class_ogre_bites_1_1_application_context.html" target="_top" xlink:title="Base class responsible for setting up a common context for applications. ">
<polygon fill="none" stroke="#000000" points="282,-6 282,-25 431,-25 431,-6 282,-6"/>
<text text-anchor="middle" x="356.5" y="-13" font-family="Helvetica,sans-Serif" font-size="10.00" fill="#000000">OgreBites::ApplicationContext</text>
</a>
</g>
</g>
<!-- Node0&#45;&gt;Node3 -->
<g id="edge3" class="edge">
<title>Node0&#45;&gt;Node3</title>
<path fill="none" stroke="#191970" d="M240.9985,-63.4955C269.0044,-51.858 308.7306,-35.3501 333.5374,-25.0419"/>
<polygon fill="#191970" stroke="#191970" points="239.5164,-60.3212 231.625,-67.3906 242.2025,-66.7853 239.5164,-60.3212"/>
</g>
</g>
</svg>
