<?xml version="1.0" encoding="UTF-8" standalone="no"?>
<!DOCTYPE svg PUBLIC "-//W3C//DTD SVG 1.1//EN"
 "http://www.w3.org/Graphics/SVG/1.1/DTD/svg11.dtd">
<!-- Generated by graphviz version 2.40.1 (20161225.0304)
 -->
<!-- Title: Ogre::RuntimeAssertionException Pages: 1 -->
<svg width="173pt" height="140pt"
 viewBox="0.00 0.00 173.00 140.00" xmlns="http://www.w3.org/2000/svg" xmlns:xlink="http://www.w3.org/1999/xlink">
<g id="graph0" class="graph" transform="scale(1 1) rotate(0) translate(4 136)">
<title>Ogre::RuntimeAssertionException</title>
<!-- Node0 -->
<g id="node1" class="node">
<title>Node0</title>
<polygon fill="#bfbfbf" stroke="#000000" points="0,-.5 0,-19.5 165,-19.5 165,-.5 0,-.5"/>
<text text-anchor="middle" x="82.5" y="-7.5" font-family="Helvetica,sans-Serif" font-size="10.00" fill="#000000">Ogre::RuntimeAssertionException</text>
</g>
<!-- Node1 -->
<g id="node2" class="node">
<title>Node1</title>
<g id="a_node2"><a xlink:href="class_ogre_1_1_exception.html" target="_top" xlink:title="When thrown, provides information about an error that has occurred inside the engine. ">
<polygon fill="none" stroke="#000000" points="39,-56.5 39,-75.5 126,-75.5 126,-56.5 39,-56.5"/>
<text text-anchor="middle" x="82.5" y="-63.5" font-family="Helvetica,sans-Serif" font-size="10.00" fill="#000000">Ogre::Exception</text>
</a>
</g>
</g>
<!-- Node1&#45;&gt;Node0 -->
<g id="edge1" class="edge">
<title>Node1&#45;&gt;Node0</title>
<path fill="none" stroke="#191970" d="M82.5,-46.1575C82.5,-37.155 82.5,-26.9199 82.5,-19.6427"/>
<polygon fill="#191970" stroke="#191970" points="79.0001,-46.2455 82.5,-56.2455 86.0001,-46.2456 79.0001,-46.2455"/>
</g>
<!-- Node2 -->
<g id="node3" class="node">
<title>Node2</title>
<polygon fill="none" stroke="#bfbfbf" points="43.5,-112.5 43.5,-131.5 121.5,-131.5 121.5,-112.5 43.5,-112.5"/>
<text text-anchor="middle" x="82.5" y="-119.5" font-family="Helvetica,sans-Serif" font-size="10.00" fill="#000000">std::exception</text>
</g>
<!-- Node2&#45;&gt;Node1 -->
<g id="edge2" class="edge">
<title>Node2&#45;&gt;Node1</title>
<path fill="none" stroke="#191970" d="M82.5,-102.1575C82.5,-93.155 82.5,-82.9199 82.5,-75.6427"/>
<polygon fill="#191970" stroke="#191970" points="79.0001,-102.2455 82.5,-112.2455 86.0001,-102.2456 79.0001,-102.2455"/>
</g>
</g>
</svg>
