<?xml version="1.0" encoding="UTF-8" standalone="no"?>
<!DOCTYPE svg PUBLIC "-//W3C//DTD SVG 1.1//EN"
 "http://www.w3.org/Graphics/SVG/1.1/DTD/svg11.dtd">
<!-- Generated by graphviz version 2.40.1 (20161225.0304)
 -->
<!-- Title: Ogre::LinearControllerFunction Pages: 1 -->
<svg width="157pt" height="151pt"
 viewBox="0.00 0.00 157.00 151.00" xmlns="http://www.w3.org/2000/svg" xmlns:xlink="http://www.w3.org/1999/xlink">
<g id="graph0" class="graph" transform="scale(1 1) rotate(0) translate(4 147)">
<title>Ogre::LinearControllerFunction</title>
<!-- Node0 -->
<g id="node1" class="node">
<title>Node0</title>
<polygon fill="#bfbfbf" stroke="#000000" points="0,-.5 0,-19.5 149,-19.5 149,-.5 0,-.5"/>
<text text-anchor="middle" x="74.5" y="-7.5" font-family="Helvetica,sans-Serif" font-size="10.00" fill="#000000">Ogre::LinearControllerFunction</text>
</g>
<!-- Node1 -->
<g id="node2" class="node">
<title>Node1</title>
<g id="a_node2"><a xlink:href="class_ogre_1_1_controller_function.html" target="_top" xlink:title="Ogre::ControllerFunction\l\&lt; Real \&gt;">
<polygon fill="none" stroke="#000000" points="13,-56.5 13,-86.5 136,-86.5 136,-56.5 13,-56.5"/>
<text text-anchor="start" x="21" y="-74.5" font-family="Helvetica,sans-Serif" font-size="10.00" fill="#000000">Ogre::ControllerFunction</text>
<text text-anchor="middle" x="74.5" y="-63.5" font-family="Helvetica,sans-Serif" font-size="10.00" fill="#000000">&lt; Real &gt;</text>
</a>
</g>
</g>
<!-- Node1&#45;&gt;Node0 -->
<g id="edge1" class="edge">
<title>Node1&#45;&gt;Node0</title>
<path fill="none" stroke="#191970" d="M74.5,-46.2849C74.5,-36.9858 74.5,-26.9883 74.5,-19.8469"/>
<polygon fill="#191970" stroke="#191970" points="71.0001,-46.2977 74.5,-56.2977 78.0001,-46.2978 71.0001,-46.2977"/>
</g>
<!-- Node2 -->
<g id="node3" class="node">
<title>Node2</title>
<g id="a_node3"><a xlink:href="class_ogre_1_1_allocated_object.html" target="_top" xlink:title="ControllerAlloc">
<polygon fill="none" stroke="#000000" points="34.5,-123.5 34.5,-142.5 114.5,-142.5 114.5,-123.5 34.5,-123.5"/>
<text text-anchor="middle" x="74.5" y="-130.5" font-family="Helvetica,sans-Serif" font-size="10.00" fill="#000000">ControllerAlloc</text>
</a>
</g>
</g>
<!-- Node2&#45;&gt;Node1 -->
<g id="edge2" class="edge">
<title>Node2&#45;&gt;Node1</title>
<path fill="none" stroke="#191970" d="M74.5,-113.3693C74.5,-104.681 74.5,-94.6241 74.5,-86.5446"/>
<polygon fill="#191970" stroke="#191970" points="71.0001,-113.3906 74.5,-123.3906 78.0001,-113.3907 71.0001,-113.3906"/>
</g>
</g>
</svg>
