<?xml version="1.0" encoding="UTF-8" standalone="no"?>
<!DOCTYPE svg PUBLIC "-//W3C//DTD SVG 1.1//EN"
 "http://www.w3.org/Graphics/SVG/1.1/DTD/svg11.dtd">
<!-- Generated by graphviz version 2.40.1 (20161225.0304)
 -->
<!-- Title: Ogre::GLSL::GLSLLinkProgramManager Pages: 1 -->
<svg width="306pt" height="106pt"
 viewBox="0.00 0.00 305.50 106.00" xmlns="http://www.w3.org/2000/svg" xmlns:xlink="http://www.w3.org/1999/xlink">
<g id="graph0" class="graph" transform="scale(1 1) rotate(0) translate(4 102)">
<title>Ogre::GLSL::GLSLLinkProgramManager</title>
<!-- Node0 -->
<g id="node1" class="node">
<title>Node0</title>
<polygon fill="#bfbfbf" stroke="#000000" points="70,-.5 70,-30.5 224,-30.5 224,-.5 70,-.5"/>
<text text-anchor="start" x="78" y="-18.5" font-family="Helvetica,sans-Serif" font-size="10.00" fill="#000000">Ogre::GLSL::GLSLLinkProgram</text>
<text text-anchor="middle" x="147" y="-7.5" font-family="Helvetica,sans-Serif" font-size="10.00" fill="#000000">Manager</text>
</g>
<!-- Node1 -->
<g id="node2" class="node">
<title>Node1</title>
<g id="a_node2"><a xlink:href="class_ogre_1_1_singleton.html" target="_top" xlink:title="Ogre::Singleton\&lt; GLSLLink\lProgramManager \&gt;">
<polygon fill="none" stroke="#000000" points="0,-67.5 0,-97.5 136,-97.5 136,-67.5 0,-67.5"/>
<text text-anchor="start" x="8" y="-85.5" font-family="Helvetica,sans-Serif" font-size="10.00" fill="#000000">Ogre::Singleton&lt; GLSLLink</text>
<text text-anchor="middle" x="68" y="-74.5" font-family="Helvetica,sans-Serif" font-size="10.00" fill="#000000">ProgramManager &gt;</text>
</a>
</g>
</g>
<!-- Node1&#45;&gt;Node0 -->
<g id="edge1" class="edge">
<title>Node1&#45;&gt;Node0</title>
<path fill="none" stroke="#191970" d="M93.6092,-60.7808C105.2146,-50.9383 118.6532,-39.541 129.1446,-30.6432"/>
<polygon fill="#191970" stroke="#191970" points="91.289,-58.1593 85.9263,-67.2967 95.8167,-63.4978 91.289,-58.1593"/>
</g>
<!-- Node2 -->
<g id="node3" class="node">
<title>Node2</title>
<g id="a_node3"><a xlink:href="class_ogre_1_1_g_l_s_l_program_manager_common.html" target="_top" xlink:title="Ogre assumes that there are separate programs to deal with but GLSL has one program object that repre...">
<polygon fill="none" stroke="#000000" points="154.5,-67.5 154.5,-97.5 297.5,-97.5 297.5,-67.5 154.5,-67.5"/>
<text text-anchor="start" x="162.5" y="-85.5" font-family="Helvetica,sans-Serif" font-size="10.00" fill="#000000">Ogre::GLSLProgramManager</text>
<text text-anchor="middle" x="226" y="-74.5" font-family="Helvetica,sans-Serif" font-size="10.00" fill="#000000">Common</text>
</a>
</g>
</g>
<!-- Node2&#45;&gt;Node0 -->
<g id="edge2" class="edge">
<title>Node2&#45;&gt;Node0</title>
<path fill="none" stroke="#191970" d="M200.3908,-60.7808C188.7854,-50.9383 175.3468,-39.541 164.8554,-30.6432"/>
<polygon fill="#191970" stroke="#191970" points="198.1833,-63.4978 208.0737,-67.2967 202.711,-58.1593 198.1833,-63.4978"/>
</g>
</g>
</svg>
