<?xml version="1.0" encoding="UTF-8" standalone="no"?>
<!DOCTYPE svg PUBLIC "-//W3C//DTD SVG 1.1//EN"
 "http://www.w3.org/Graphics/SVG/1.1/DTD/svg11.dtd">
<!-- Generated by graphviz version 2.40.1 (20161225.0304)
 -->
<!-- Title: Ogre::DistanceLodStrategyBase Pages: 1 -->
<svg width="344pt" height="196pt"
 viewBox="0.00 0.00 344.00 196.00" xmlns="http://www.w3.org/2000/svg" xmlns:xlink="http://www.w3.org/1999/xlink">
<g id="graph0" class="graph" transform="scale(1 1) rotate(0) translate(4 192)">
<title>Ogre::DistanceLodStrategyBase</title>
<!-- Node0 -->
<g id="node1" class="node">
<title>Node0</title>
<polygon fill="#bfbfbf" stroke="#000000" points="85,-56.5 85,-75.5 243,-75.5 243,-56.5 85,-56.5"/>
<text text-anchor="middle" x="164" y="-63.5" font-family="Helvetica,sans-Serif" font-size="10.00" fill="#000000">Ogre::DistanceLodStrategyBase</text>
</g>
<!-- Node3 -->
<g id="node4" class="node">
<title>Node3</title>
<g id="a_node4"><a xlink:href="class_ogre_1_1_distance_lod_box_strategy.html" target="_top" xlink:title="Level of detail strategy based on distance from camera to an object&#39;s bounding box. ">
<polygon fill="none" stroke="#000000" points="0,-.5 0,-19.5 152,-19.5 152,-.5 0,-.5"/>
<text text-anchor="middle" x="76" y="-7.5" font-family="Helvetica,sans-Serif" font-size="10.00" fill="#000000">Ogre::DistanceLodBoxStrategy</text>
</a>
</g>
</g>
<!-- Node0&#45;&gt;Node3 -->
<g id="edge3" class="edge">
<title>Node0&#45;&gt;Node3</title>
<path fill="none" stroke="#191970" d="M140.0655,-50.769C124.4717,-40.8456 104.599,-28.1994 91.1528,-19.6427"/>
<polygon fill="#191970" stroke="#191970" points="138.3559,-53.8296 148.6716,-56.2455 142.114,-47.9239 138.3559,-53.8296"/>
</g>
<!-- Node4 -->
<g id="node5" class="node">
<title>Node4</title>
<g id="a_node5"><a xlink:href="class_ogre_1_1_distance_lod_sphere_strategy.html" target="_top" xlink:title="Level of detail strategy based on distance from camera to an object&#39;s bounding sphere. ">
<polygon fill="none" stroke="#000000" points="170,-.5 170,-19.5 336,-19.5 336,-.5 170,-.5"/>
<text text-anchor="middle" x="253" y="-7.5" font-family="Helvetica,sans-Serif" font-size="10.00" fill="#000000">Ogre::DistanceLodSphereStrategy</text>
</a>
</g>
</g>
<!-- Node0&#45;&gt;Node4 -->
<g id="edge4" class="edge">
<title>Node0&#45;&gt;Node4</title>
<path fill="none" stroke="#191970" d="M188.2064,-50.769C203.9775,-40.8456 224.076,-28.1994 237.675,-19.6427"/>
<polygon fill="#191970" stroke="#191970" points="186.1026,-47.9575 179.5026,-56.2455 189.8305,-53.8823 186.1026,-47.9575"/>
</g>
<!-- Node1 -->
<g id="node2" class="node">
<title>Node1</title>
<g id="a_node2"><a xlink:href="class_ogre_1_1_lod_strategy.html" target="_top" xlink:title="Strategy for determining level of detail. ">
<polygon fill="none" stroke="#000000" points="116,-112.5 116,-131.5 212,-131.5 212,-112.5 116,-112.5"/>
<text text-anchor="middle" x="164" y="-119.5" font-family="Helvetica,sans-Serif" font-size="10.00" fill="#000000">Ogre::LodStrategy</text>
</a>
</g>
</g>
<!-- Node1&#45;&gt;Node0 -->
<g id="edge1" class="edge">
<title>Node1&#45;&gt;Node0</title>
<path fill="none" stroke="#191970" d="M164,-102.1575C164,-93.155 164,-82.9199 164,-75.6427"/>
<polygon fill="#191970" stroke="#191970" points="160.5001,-102.2455 164,-112.2455 167.5001,-102.2456 160.5001,-102.2455"/>
</g>
<!-- Node2 -->
<g id="node3" class="node">
<title>Node2</title>
<g id="a_node3"><a xlink:href="class_ogre_1_1_allocated_object.html" target="_top" xlink:title="LodAlloc">
<polygon fill="none" stroke="#000000" points="137,-168.5 137,-187.5 191,-187.5 191,-168.5 137,-168.5"/>
<text text-anchor="middle" x="164" y="-175.5" font-family="Helvetica,sans-Serif" font-size="10.00" fill="#000000">LodAlloc</text>
</a>
</g>
</g>
<!-- Node2&#45;&gt;Node1 -->
<g id="edge2" class="edge">
<title>Node2&#45;&gt;Node1</title>
<path fill="none" stroke="#191970" d="M164,-158.1575C164,-149.155 164,-138.9199 164,-131.6427"/>
<polygon fill="#191970" stroke="#191970" points="160.5001,-158.2455 164,-168.2455 167.5001,-158.2456 160.5001,-158.2455"/>
</g>
</g>
</svg>
