<?xml version="1.0" encoding="UTF-8" standalone="no"?>
<!DOCTYPE svg PUBLIC "-//W3C//DTD SVG 1.1//EN"
 "http://www.w3.org/Graphics/SVG/1.1/DTD/svg11.dtd">
<!-- Generated by graphviz version 2.40.1 (20161225.0304)
 -->
<!-- Title: Ogre::LiSPSMShadowCameraSetup Pages: 1 -->
<svg width="175pt" height="274pt"
 viewBox="0.00 0.00 175.00 274.00" xmlns="http://www.w3.org/2000/svg" xmlns:xlink="http://www.w3.org/1999/xlink">
<g id="graph0" class="graph" transform="scale(1 1) rotate(0) translate(4 270)">
<title>Ogre::LiSPSMShadowCameraSetup</title>
<!-- Node0 -->
<g id="node1" class="node">
<title>Node0</title>
<polygon fill="#bfbfbf" stroke="#000000" points="9,-56.5 9,-86.5 158,-86.5 158,-56.5 9,-56.5"/>
<text text-anchor="start" x="17" y="-74.5" font-family="Helvetica,sans-Serif" font-size="10.00" fill="#000000">Ogre::LiSPSMShadowCamera</text>
<text text-anchor="middle" x="83.5" y="-63.5" font-family="Helvetica,sans-Serif" font-size="10.00" fill="#000000">Setup</text>
</g>
<!-- Node4 -->
<g id="node5" class="node">
<title>Node4</title>
<g id="a_node5"><a xlink:href="class_ogre_1_1_p_s_s_m_shadow_camera_setup.html" target="_top" xlink:title="Parallel Split Shadow Map (PSSM) shadow camera setup. ">
<polygon fill="none" stroke="#000000" points="0,-.5 0,-19.5 167,-19.5 167,-.5 0,-.5"/>
<text text-anchor="middle" x="83.5" y="-7.5" font-family="Helvetica,sans-Serif" font-size="10.00" fill="#000000">Ogre::PSSMShadowCameraSetup</text>
</a>
</g>
</g>
<!-- Node0&#45;&gt;Node4 -->
<g id="edge4" class="edge">
<title>Node0&#45;&gt;Node4</title>
<path fill="none" stroke="#191970" d="M83.5,-46.2849C83.5,-36.9858 83.5,-26.9883 83.5,-19.8469"/>
<polygon fill="#191970" stroke="#191970" points="80.0001,-46.2977 83.5,-56.2977 87.0001,-46.2978 80.0001,-46.2977"/>
</g>
<!-- Node1 -->
<g id="node2" class="node">
<title>Node1</title>
<g id="a_node2"><a xlink:href="class_ogre_1_1_focused_shadow_camera_setup.html" target="_top" xlink:title="Implements the uniform shadow mapping algorithm in focused mode. ">
<polygon fill="none" stroke="#000000" points="8,-123.5 8,-153.5 159,-153.5 159,-123.5 8,-123.5"/>
<text text-anchor="start" x="16" y="-141.5" font-family="Helvetica,sans-Serif" font-size="10.00" fill="#000000">Ogre::FocusedShadowCamera</text>
<text text-anchor="middle" x="83.5" y="-130.5" font-family="Helvetica,sans-Serif" font-size="10.00" fill="#000000">Setup</text>
</a>
</g>
</g>
<!-- Node1&#45;&gt;Node0 -->
<g id="edge1" class="edge">
<title>Node1&#45;&gt;Node0</title>
<path fill="none" stroke="#191970" d="M83.5,-113.0249C83.5,-104.128 83.5,-94.4287 83.5,-86.6432"/>
<polygon fill="#191970" stroke="#191970" points="80.0001,-113.2966 83.5,-123.2967 87.0001,-113.2967 80.0001,-113.2966"/>
</g>
<!-- Node2 -->
<g id="node3" class="node">
<title>Node2</title>
<g id="a_node3"><a xlink:href="class_ogre_1_1_shadow_camera_setup.html" target="_top" xlink:title="This class allows you to plug in new ways to define the camera setup when rendering and projecting sh...">
<polygon fill="none" stroke="#000000" points="14,-190.5 14,-209.5 153,-209.5 153,-190.5 14,-190.5"/>
<text text-anchor="middle" x="83.5" y="-197.5" font-family="Helvetica,sans-Serif" font-size="10.00" fill="#000000">Ogre::ShadowCameraSetup</text>
</a>
</g>
</g>
<!-- Node2&#45;&gt;Node1 -->
<g id="edge2" class="edge">
<title>Node2&#45;&gt;Node1</title>
<path fill="none" stroke="#191970" d="M83.5,-180.3693C83.5,-171.681 83.5,-161.6241 83.5,-153.5446"/>
<polygon fill="#191970" stroke="#191970" points="80.0001,-180.3906 83.5,-190.3906 87.0001,-180.3907 80.0001,-180.3906"/>
</g>
<!-- Node3 -->
<g id="node4" class="node">
<title>Node3</title>
<g id="a_node4"><a xlink:href="class_ogre_1_1_allocated_object.html" target="_top" xlink:title="ShadowDataAlloc">
<polygon fill="none" stroke="#000000" points="36,-246.5 36,-265.5 131,-265.5 131,-246.5 36,-246.5"/>
<text text-anchor="middle" x="83.5" y="-253.5" font-family="Helvetica,sans-Serif" font-size="10.00" fill="#000000">ShadowDataAlloc</text>
</a>
</g>
</g>
<!-- Node3&#45;&gt;Node2 -->
<g id="edge3" class="edge">
<title>Node3&#45;&gt;Node2</title>
<path fill="none" stroke="#191970" d="M83.5,-236.1575C83.5,-227.155 83.5,-216.9199 83.5,-209.6427"/>
<polygon fill="#191970" stroke="#191970" points="80.0001,-236.2455 83.5,-246.2455 87.0001,-236.2456 80.0001,-236.2455"/>
</g>
</g>
</svg>
