<?xml version="1.0" encoding="UTF-8" standalone="no"?>
<!DOCTYPE svg PUBLIC "-//W3C//DTD SVG 1.1//EN"
 "http://www.w3.org/Graphics/SVG/1.1/DTD/svg11.dtd">
<!-- Generated by graphviz version 2.40.1 (20161225.0304)
 -->
<!-- Title: Ogre::RTShader::PerPixelLighting Pages: 1 -->
<svg width="154pt" height="285pt"
 viewBox="0.00 0.00 154.00 285.00" xmlns="http://www.w3.org/2000/svg" xmlns:xlink="http://www.w3.org/1999/xlink">
<g id="graph0" class="graph" transform="scale(1 1) rotate(0) translate(4 281)">
<title>Ogre::RTShader::PerPixelLighting</title>
<!-- Node0 -->
<g id="node1" class="node">
<title>Node0</title>
<polygon fill="#bfbfbf" stroke="#000000" points="7.5,-67.5 7.5,-97.5 138.5,-97.5 138.5,-67.5 7.5,-67.5"/>
<text text-anchor="start" x="15.5" y="-85.5" font-family="Helvetica,sans-Serif" font-size="10.00" fill="#000000">Ogre::RTShader::PerPixel</text>
<text text-anchor="middle" x="73" y="-74.5" font-family="Helvetica,sans-Serif" font-size="10.00" fill="#000000">Lighting</text>
</g>
<!-- Node4 -->
<g id="node5" class="node">
<title>Node4</title>
<g id="a_node5"><a xlink:href="class_ogre_1_1_r_t_shader_1_1_normal_map_lighting.html" target="_top" xlink:title="Normal Map Lighting extension sub render state implementation. ">
<polygon fill="none" stroke="#000000" points="1,-.5 1,-30.5 145,-30.5 145,-.5 1,-.5"/>
<text text-anchor="start" x="9" y="-18.5" font-family="Helvetica,sans-Serif" font-size="10.00" fill="#000000">Ogre::RTShader::NormalMap</text>
<text text-anchor="middle" x="73" y="-7.5" font-family="Helvetica,sans-Serif" font-size="10.00" fill="#000000">Lighting</text>
</a>
</g>
</g>
<!-- Node0&#45;&gt;Node4 -->
<g id="edge4" class="edge">
<title>Node0&#45;&gt;Node4</title>
<path fill="none" stroke="#191970" d="M73,-57.0249C73,-48.128 73,-38.4287 73,-30.6432"/>
<polygon fill="#191970" stroke="#191970" points="69.5001,-57.2966 73,-67.2967 76.5001,-57.2967 69.5001,-57.2966"/>
</g>
<!-- Node1 -->
<g id="node2" class="node">
<title>Node1</title>
<g id="a_node2"><a xlink:href="class_ogre_1_1_r_t_shader_1_1_f_f_p_lighting.html" target="_top" xlink:title="Lighting sub render state implementation of the Fixed Function Pipeline. ">
<polygon fill="none" stroke="#000000" points="0,-134.5 0,-153.5 146,-153.5 146,-134.5 0,-134.5"/>
<text text-anchor="middle" x="73" y="-141.5" font-family="Helvetica,sans-Serif" font-size="10.00" fill="#000000">Ogre::RTShader::FFPLighting</text>
</a>
</g>
</g>
<!-- Node1&#45;&gt;Node0 -->
<g id="edge1" class="edge">
<title>Node1&#45;&gt;Node0</title>
<path fill="none" stroke="#191970" d="M73,-124.3693C73,-115.681 73,-105.6241 73,-97.5446"/>
<polygon fill="#191970" stroke="#191970" points="69.5001,-124.3906 73,-134.3906 76.5001,-124.3907 69.5001,-124.3906"/>
</g>
<!-- Node2 -->
<g id="node3" class="node">
<title>Node2</title>
<g id="a_node3"><a xlink:href="class_ogre_1_1_r_t_shader_1_1_sub_render_state.html" target="_top" xlink:title="This class is the base interface of sub part from a shader based rendering pipeline. ">
<polygon fill="none" stroke="#000000" points="1.5,-190.5 1.5,-220.5 144.5,-220.5 144.5,-190.5 1.5,-190.5"/>
<text text-anchor="start" x="9.5" y="-208.5" font-family="Helvetica,sans-Serif" font-size="10.00" fill="#000000">Ogre::RTShader::SubRender</text>
<text text-anchor="middle" x="73" y="-197.5" font-family="Helvetica,sans-Serif" font-size="10.00" fill="#000000">State</text>
</a>
</g>
</g>
<!-- Node2&#45;&gt;Node1 -->
<g id="edge2" class="edge">
<title>Node2&#45;&gt;Node1</title>
<path fill="none" stroke="#191970" d="M73,-180.2849C73,-170.9858 73,-160.9883 73,-153.8469"/>
<polygon fill="#191970" stroke="#191970" points="69.5001,-180.2977 73,-190.2977 76.5001,-180.2978 69.5001,-180.2977"/>
</g>
<!-- Node3 -->
<g id="node4" class="node">
<title>Node3</title>
<g id="a_node4"><a xlink:href="class_ogre_1_1_allocated_object.html" target="_top" xlink:title="RTShaderSystemAlloc">
<polygon fill="none" stroke="#000000" points="15,-257.5 15,-276.5 131,-276.5 131,-257.5 15,-257.5"/>
<text text-anchor="middle" x="73" y="-264.5" font-family="Helvetica,sans-Serif" font-size="10.00" fill="#000000">RTShaderSystemAlloc</text>
</a>
</g>
</g>
<!-- Node3&#45;&gt;Node2 -->
<g id="edge3" class="edge">
<title>Node3&#45;&gt;Node2</title>
<path fill="none" stroke="#191970" d="M73,-247.3693C73,-238.681 73,-228.6241 73,-220.5446"/>
<polygon fill="#191970" stroke="#191970" points="69.5001,-247.3906 73,-257.3906 76.5001,-247.3907 69.5001,-247.3906"/>
</g>
</g>
</svg>
