<?xml version="1.0" encoding="UTF-8" standalone="no"?>
<!DOCTYPE svg PUBLIC "-//W3C//DTD SVG 1.1//EN"
 "http://www.w3.org/Graphics/SVG/1.1/DTD/svg11.dtd">
<!-- Generated by graphviz version 2.40.1 (20161225.0304)
 -->
<!-- Title: Ogre::HardwareUniformBuffer Pages: 1 -->
<svg width="597pt" height="235pt"
 viewBox="0.00 0.00 597.00 235.00" xmlns="http://www.w3.org/2000/svg" xmlns:xlink="http://www.w3.org/1999/xlink">
<g id="graph0" class="graph" transform="scale(1 1) rotate(0) translate(4 231)">
<title>Ogre::HardwareUniformBuffer</title>
<!-- Node0 -->
<g id="node1" class="node">
<title>Node0</title>
<polygon fill="#bfbfbf" stroke="#000000" points="249,-104 249,-123 395,-123 395,-104 249,-104"/>
<text text-anchor="middle" x="322" y="-111" font-family="Helvetica,sans-Serif" font-size="10.00" fill="#000000">Ogre::HardwareUniformBuffer</text>
</g>
<!-- Node3 -->
<g id="node4" class="node">
<title>Node3</title>
<g id="a_node4"><a xlink:href="class_ogre_1_1_d3_d11_hardware_uniform_buffer.html" target="_top" xlink:title="Specialisation of HardwareBuffer for D3D11. ">
<polygon fill="none" stroke="#000000" points="434.5,-196.5 434.5,-226.5 585.5,-226.5 585.5,-196.5 434.5,-196.5"/>
<text text-anchor="start" x="442.5" y="-214.5" font-family="Helvetica,sans-Serif" font-size="10.00" fill="#000000">Ogre::D3D11HardwareUniform</text>
<text text-anchor="middle" x="510" y="-203.5" font-family="Helvetica,sans-Serif" font-size="10.00" fill="#000000">Buffer</text>
</a>
</g>
</g>
<!-- Node0&#45;&gt;Node3 -->
<g id="edge3" class="edge">
<title>Node0&#45;&gt;Node3</title>
<path fill="none" stroke="#191970" d="M341.5403,-129.4617C362.5411,-145.9491 397.4426,-171.4683 431,-187.5 437.9844,-190.8367 445.5373,-193.8336 453.1081,-196.4856"/>
<polygon fill="#191970" stroke="#191970" points="343.694,-126.7026 333.6915,-123.2097 339.3326,-132.1779 343.694,-126.7026"/>
</g>
<!-- Node4 -->
<g id="node5" class="node">
<title>Node4</title>
<g id="a_node5"><a xlink:href="class_ogre_1_1_default_hardware_uniform_buffer.html" target="_top" xlink:title="Specialisation of HardwareUniformBuffer for emulation. ">
<polygon fill="none" stroke="#000000" points="434,-147.5 434,-177.5 586,-177.5 586,-147.5 434,-147.5"/>
<text text-anchor="start" x="442" y="-165.5" font-family="Helvetica,sans-Serif" font-size="10.00" fill="#000000">Ogre::DefaultHardwareUniform</text>
<text text-anchor="middle" x="510" y="-154.5" font-family="Helvetica,sans-Serif" font-size="10.00" fill="#000000">Buffer</text>
</a>
</g>
</g>
<!-- Node0&#45;&gt;Node4 -->
<g id="edge4" class="edge">
<title>Node0&#45;&gt;Node4</title>
<path fill="none" stroke="#191970" d="M368.4313,-125.6018C393.7775,-132.208 425.3891,-140.4471 452.3072,-147.463"/>
<polygon fill="#191970" stroke="#191970" points="369.2541,-122.1994 358.6946,-123.064 367.4885,-128.9731 369.2541,-122.1994"/>
</g>
<!-- Node5 -->
<g id="node6" class="node">
<title>Node5</title>
<g id="a_node6"><a xlink:href="class_ogre_1_1_g_l3_plus_hardware_shader_storage_buffer.html" target="_top" xlink:title="Specialisation of HardwareUniformBuffer for the OpenGL Shader Storage Buffer. ">
<polygon fill="none" stroke="#000000" points="433,-98.5 433,-128.5 587,-128.5 587,-98.5 433,-98.5"/>
<text text-anchor="start" x="441" y="-116.5" font-family="Helvetica,sans-Serif" font-size="10.00" fill="#000000">Ogre::GL3PlusHardwareShader</text>
<text text-anchor="middle" x="510" y="-105.5" font-family="Helvetica,sans-Serif" font-size="10.00" fill="#000000">StorageBuffer</text>
</a>
</g>
</g>
<!-- Node0&#45;&gt;Node5 -->
<g id="edge5" class="edge">
<title>Node0&#45;&gt;Node5</title>
<path fill="none" stroke="#191970" d="M405.4676,-113.5C414.6077,-113.5 423.8823,-113.5 432.9399,-113.5"/>
<polygon fill="#191970" stroke="#191970" points="405.2241,-110.0001 395.224,-113.5 405.224,-117.0001 405.2241,-110.0001"/>
</g>
<!-- Node6 -->
<g id="node7" class="node">
<title>Node6</title>
<g id="a_node7"><a xlink:href="class_ogre_1_1_g_l3_plus_hardware_uniform_buffer.html" target="_top" xlink:title="Specialisation of HardwareUniformBuffer for OpenGL. ">
<polygon fill="none" stroke="#000000" points="431,-49.5 431,-79.5 589,-79.5 589,-49.5 431,-49.5"/>
<text text-anchor="start" x="439" y="-67.5" font-family="Helvetica,sans-Serif" font-size="10.00" fill="#000000">Ogre::GL3PlusHardwareUniform</text>
<text text-anchor="middle" x="510" y="-56.5" font-family="Helvetica,sans-Serif" font-size="10.00" fill="#000000">Buffer</text>
</a>
</g>
</g>
<!-- Node0&#45;&gt;Node6 -->
<g id="edge6" class="edge">
<title>Node0&#45;&gt;Node6</title>
<path fill="none" stroke="#191970" d="M368.4313,-101.3982C393.7775,-94.792 425.3891,-86.5529 452.3072,-79.537"/>
<polygon fill="#191970" stroke="#191970" points="367.4885,-98.0269 358.6946,-103.936 369.2541,-104.8006 367.4885,-98.0269"/>
</g>
<!-- Node7 -->
<g id="node8" class="node">
<title>Node7</title>
<g id="a_node8"><a xlink:href="class_ogre_1_1_g_l_e_s2_hardware_uniform_buffer.html" target="_top" xlink:title="Specialisation of HardwareUniformBuffer for OpenGL. ">
<polygon fill="none" stroke="#000000" points="434,-.5 434,-30.5 586,-30.5 586,-.5 434,-.5"/>
<text text-anchor="start" x="442" y="-18.5" font-family="Helvetica,sans-Serif" font-size="10.00" fill="#000000">Ogre::GLES2HardwareUniform</text>
<text text-anchor="middle" x="510" y="-7.5" font-family="Helvetica,sans-Serif" font-size="10.00" fill="#000000">Buffer</text>
</a>
</g>
</g>
<!-- Node0&#45;&gt;Node7 -->
<g id="edge7" class="edge">
<title>Node0&#45;&gt;Node7</title>
<path fill="none" stroke="#191970" d="M341.5403,-97.5383C362.5411,-81.0509 397.4426,-55.5317 431,-39.5 437.9844,-36.1633 445.5373,-33.1664 453.1081,-30.5144"/>
<polygon fill="#191970" stroke="#191970" points="339.3326,-94.8221 333.6915,-103.7903 343.694,-100.2974 339.3326,-94.8221"/>
</g>
<!-- Node1 -->
<g id="node2" class="node">
<title>Node1</title>
<g id="a_node2"><a xlink:href="class_ogre_1_1_hardware_buffer.html" target="_top" xlink:title="Abstract class defining common features of hardware buffers. ">
<polygon fill="none" stroke="#000000" points="101,-104 101,-123 213,-123 213,-104 101,-104"/>
<text text-anchor="middle" x="157" y="-111" font-family="Helvetica,sans-Serif" font-size="10.00" fill="#000000">Ogre::HardwareBuffer</text>
</a>
</g>
</g>
<!-- Node1&#45;&gt;Node0 -->
<g id="edge1" class="edge">
<title>Node1&#45;&gt;Node0</title>
<path fill="none" stroke="#191970" d="M223.3611,-113.5C231.7042,-113.5 240.2765,-113.5 248.7184,-113.5"/>
<polygon fill="#191970" stroke="#191970" points="223.3222,-110.0001 213.3222,-113.5 223.3221,-117.0001 223.3222,-110.0001"/>
</g>
<!-- Node2 -->
<g id="node3" class="node">
<title>Node2</title>
<g id="a_node3"><a xlink:href="class_ogre_1_1_allocated_object.html" target="_top" xlink:title="BufferAlloc">
<polygon fill="none" stroke="#000000" points="0,-104 0,-123 65,-123 65,-104 0,-104"/>
<text text-anchor="middle" x="32.5" y="-111" font-family="Helvetica,sans-Serif" font-size="10.00" fill="#000000">BufferAlloc</text>
</a>
</g>
</g>
<!-- Node2&#45;&gt;Node1 -->
<g id="edge2" class="edge">
<title>Node2&#45;&gt;Node1</title>
<path fill="none" stroke="#191970" d="M75.3339,-113.5C83.5784,-113.5 92.3278,-113.5 100.9189,-113.5"/>
<polygon fill="#191970" stroke="#191970" points="75.2109,-110.0001 65.2109,-113.5 75.2109,-117.0001 75.2109,-110.0001"/>
</g>
</g>
</svg>
