<?xml version="1.0" encoding="UTF-8" standalone="no"?>
<!DOCTYPE svg PUBLIC "-//W3C//DTD SVG 1.1//EN"
 "http://www.w3.org/Graphics/SVG/1.1/DTD/svg11.dtd">
<!-- Generated by graphviz version 2.40.1 (20161225.0304)
 -->
<!-- Title: Ogre::FontManager Pages: 1 -->
<svg width="349pt" height="140pt"
 viewBox="0.00 0.00 348.50 140.00" xmlns="http://www.w3.org/2000/svg" xmlns:xlink="http://www.w3.org/1999/xlink">
<g id="graph0" class="graph" transform="scale(1 1) rotate(0) translate(4 136)">
<title>Ogre::FontManager</title>
<!-- Node0 -->
<g id="node1" class="node">
<title>Node0</title>
<polygon fill="#bfbfbf" stroke="#000000" points="130.5,-.5 130.5,-19.5 231.5,-19.5 231.5,-.5 130.5,-.5"/>
<text text-anchor="middle" x="181" y="-7.5" font-family="Helvetica,sans-Serif" font-size="10.00" fill="#000000">Ogre::FontManager</text>
</g>
<!-- Node1 -->
<g id="node2" class="node">
<title>Node1</title>
<g id="a_node2"><a xlink:href="class_ogre_1_1_resource_manager.html" target="_top" xlink:title="Defines a generic resource handler. ">
<polygon fill="none" stroke="#000000" points="40.5,-56.5 40.5,-75.5 163.5,-75.5 163.5,-56.5 40.5,-56.5"/>
<text text-anchor="middle" x="102" y="-63.5" font-family="Helvetica,sans-Serif" font-size="10.00" fill="#000000">Ogre::ResourceManager</text>
</a>
</g>
</g>
<!-- Node1&#45;&gt;Node0 -->
<g id="edge1" class="edge">
<title>Node1&#45;&gt;Node0</title>
<path fill="none" stroke="#191970" d="M124.2756,-50.2097C138.1505,-40.3743 155.5515,-28.0394 167.3969,-19.6427"/>
<polygon fill="#191970" stroke="#191970" points="121.8949,-47.6071 115.7607,-56.2455 125.9431,-53.3178 121.8949,-47.6071"/>
</g>
<!-- Node2 -->
<g id="node3" class="node">
<title>Node2</title>
<g id="a_node3"><a xlink:href="class_ogre_1_1_script_loader.html" target="_top" xlink:title="Abstract class defining the interface used by classes which wish to perform script loading to define ...">
<polygon fill="none" stroke="#000000" points="0,-112.5 0,-131.5 98,-131.5 98,-112.5 0,-112.5"/>
<text text-anchor="middle" x="49" y="-119.5" font-family="Helvetica,sans-Serif" font-size="10.00" fill="#000000">Ogre::ScriptLoader</text>
</a>
</g>
</g>
<!-- Node2&#45;&gt;Node1 -->
<g id="edge2" class="edge">
<title>Node2&#45;&gt;Node1</title>
<path fill="none" stroke="#191970" d="M65.2896,-104.7884C74.3562,-95.2085 85.3054,-83.6396 92.8739,-75.6427"/>
<polygon fill="#191970" stroke="#191970" points="62.5637,-102.5767 58.2319,-112.2455 67.6478,-107.3884 62.5637,-102.5767"/>
</g>
<!-- Node3 -->
<g id="node4" class="node">
<title>Node3</title>
<g id="a_node4"><a xlink:href="class_ogre_1_1_allocated_object.html" target="_top" xlink:title="ResourceAlloc">
<polygon fill="none" stroke="#000000" points="116,-112.5 116,-131.5 196,-131.5 196,-112.5 116,-112.5"/>
<text text-anchor="middle" x="156" y="-119.5" font-family="Helvetica,sans-Serif" font-size="10.00" fill="#000000">ResourceAlloc</text>
</a>
</g>
</g>
<!-- Node3&#45;&gt;Node1 -->
<g id="edge3" class="edge">
<title>Node3&#45;&gt;Node1</title>
<path fill="none" stroke="#191970" d="M139.4031,-104.7884C130.1653,-95.2085 119.0096,-83.6396 111.2983,-75.6427"/>
<polygon fill="#191970" stroke="#191970" points="137.1331,-107.4766 146.5939,-112.2455 142.172,-102.6176 137.1331,-107.4766"/>
</g>
<!-- Node4 -->
<g id="node5" class="node">
<title>Node4</title>
<g id="a_node5"><a xlink:href="class_ogre_1_1_singleton.html" target="_top" xlink:title="Ogre::Singleton\&lt; FontManager \&gt;">
<polygon fill="none" stroke="#000000" points="181.5,-56.5 181.5,-75.5 340.5,-75.5 340.5,-56.5 181.5,-56.5"/>
<text text-anchor="middle" x="261" y="-63.5" font-family="Helvetica,sans-Serif" font-size="10.00" fill="#000000">Ogre::Singleton&lt; FontManager &gt;</text>
</a>
</g>
</g>
<!-- Node4&#45;&gt;Node0 -->
<g id="edge4" class="edge">
<title>Node4&#45;&gt;Node0</title>
<path fill="none" stroke="#191970" d="M238.8429,-50.49C224.728,-40.6096 206.8849,-28.1194 194.7752,-19.6427"/>
<polygon fill="#191970" stroke="#191970" points="236.8656,-53.3782 247.0651,-56.2455 240.8799,-47.6436 236.8656,-53.3782"/>
</g>
</g>
</svg>
