<?xml version="1.0" encoding="UTF-8" standalone="no"?>
<!DOCTYPE svg PUBLIC "-//W3C//DTD SVG 1.1//EN"
 "http://www.w3.org/Graphics/SVG/1.1/DTD/svg11.dtd">
<!-- Generated by graphviz version 2.40.1 (20161225.0304)
 -->
<!-- Title: Ogre::SceneNode Pages: 1 -->
<svg width="368pt" height="196pt"
 viewBox="0.00 0.00 367.50 196.00" xmlns="http://www.w3.org/2000/svg" xmlns:xlink="http://www.w3.org/1999/xlink">
<g id="graph0" class="graph" transform="scale(1 1) rotate(0) translate(4 192)">
<title>Ogre::SceneNode</title>
<!-- Node0 -->
<g id="node1" class="node">
<title>Node0</title>
<polygon fill="#bfbfbf" stroke="#000000" points="130.5,-56.5 130.5,-75.5 225.5,-75.5 225.5,-56.5 130.5,-56.5"/>
<text text-anchor="middle" x="178" y="-63.5" font-family="Helvetica,sans-Serif" font-size="10.00" fill="#000000">Ogre::SceneNode</text>
</g>
<!-- Node3 -->
<g id="node4" class="node">
<title>Node3</title>
<g id="a_node4"><a xlink:href="class_ogre_1_1_bsp_scene_node.html" target="_top" xlink:title="Specialisation of SceneNode for the BspSceneManager. ">
<polygon fill="none" stroke="#000000" points="0,-.5 0,-19.5 112,-19.5 112,-.5 0,-.5"/>
<text text-anchor="middle" x="56" y="-7.5" font-family="Helvetica,sans-Serif" font-size="10.00" fill="#000000">Ogre::BspSceneNode</text>
</a>
</g>
</g>
<!-- Node0&#45;&gt;Node3 -->
<g id="edge3" class="edge">
<title>Node0&#45;&gt;Node3</title>
<path fill="none" stroke="#191970" d="M147.7416,-52.1109C125.6181,-41.9559 96.1906,-28.4482 76.6989,-19.5011"/>
<polygon fill="#191970" stroke="#191970" points="146.479,-55.3824 157.0275,-56.3733 149.3993,-49.0206 146.479,-55.3824"/>
</g>
<!-- Node4 -->
<g id="node5" class="node">
<title>Node4</title>
<g id="a_node5"><a xlink:href="class_ogre_1_1_octree_node.html" target="_top" xlink:title="Specialized SceneNode that is customized for working within an Octree. ">
<polygon fill="none" stroke="#000000" points="130,-.5 130,-19.5 226,-19.5 226,-.5 130,-.5"/>
<text text-anchor="middle" x="178" y="-7.5" font-family="Helvetica,sans-Serif" font-size="10.00" fill="#000000">Ogre::OctreeNode</text>
</a>
</g>
</g>
<!-- Node0&#45;&gt;Node4 -->
<g id="edge4" class="edge">
<title>Node0&#45;&gt;Node4</title>
<path fill="none" stroke="#191970" d="M178,-46.1575C178,-37.155 178,-26.9199 178,-19.6427"/>
<polygon fill="#191970" stroke="#191970" points="174.5001,-46.2455 178,-56.2455 181.5001,-46.2456 174.5001,-46.2455"/>
</g>
<!-- Node5 -->
<g id="node6" class="node">
<title>Node5</title>
<g id="a_node6"><a xlink:href="class_ogre_1_1_p_c_z_scene_node.html" target="_top" xlink:title="Ogre::PCZSceneNode">
<polygon fill="none" stroke="#000000" points="244.5,-.5 244.5,-19.5 359.5,-19.5 359.5,-.5 244.5,-.5"/>
<text text-anchor="middle" x="302" y="-7.5" font-family="Helvetica,sans-Serif" font-size="10.00" fill="#000000">Ogre::PCZSceneNode</text>
</a>
</g>
</g>
<!-- Node0&#45;&gt;Node5 -->
<g id="edge5" class="edge">
<title>Node0&#45;&gt;Node5</title>
<path fill="none" stroke="#191970" d="M208.4524,-52.2473C230.9722,-42.0771 261.0617,-28.4883 280.9618,-19.5011"/>
<polygon fill="#191970" stroke="#191970" points="206.9895,-49.0675 199.3164,-56.3733 209.8706,-55.4471 206.9895,-49.0675"/>
</g>
<!-- Node1 -->
<g id="node2" class="node">
<title>Node1</title>
<g id="a_node2"><a xlink:href="class_ogre_1_1_node.html" target="_top" xlink:title="Class representing a general&#45;purpose node an articulated scene graph. ">
<polygon fill="none" stroke="#000000" points="144.5,-112.5 144.5,-131.5 211.5,-131.5 211.5,-112.5 144.5,-112.5"/>
<text text-anchor="middle" x="178" y="-119.5" font-family="Helvetica,sans-Serif" font-size="10.00" fill="#000000">Ogre::Node</text>
</a>
</g>
</g>
<!-- Node1&#45;&gt;Node0 -->
<g id="edge1" class="edge">
<title>Node1&#45;&gt;Node0</title>
<path fill="none" stroke="#191970" d="M178,-102.1575C178,-93.155 178,-82.9199 178,-75.6427"/>
<polygon fill="#191970" stroke="#191970" points="174.5001,-102.2455 178,-112.2455 181.5001,-102.2456 174.5001,-102.2455"/>
</g>
<!-- Node2 -->
<g id="node3" class="node">
<title>Node2</title>
<g id="a_node3"><a xlink:href="class_ogre_1_1_allocated_object.html" target="_top" xlink:title="NodeAlloc">
<polygon fill="none" stroke="#000000" points="147,-168.5 147,-187.5 209,-187.5 209,-168.5 147,-168.5"/>
<text text-anchor="middle" x="178" y="-175.5" font-family="Helvetica,sans-Serif" font-size="10.00" fill="#000000">NodeAlloc</text>
</a>
</g>
</g>
<!-- Node2&#45;&gt;Node1 -->
<g id="edge2" class="edge">
<title>Node2&#45;&gt;Node1</title>
<path fill="none" stroke="#191970" d="M178,-158.1575C178,-149.155 178,-138.9199 178,-131.6427"/>
<polygon fill="#191970" stroke="#191970" points="174.5001,-158.2455 178,-168.2455 181.5001,-158.2456 174.5001,-158.2455"/>
</g>
</g>
</svg>
