<?xml version="1.0" encoding="UTF-8" standalone="no"?>
<!DOCTYPE svg PUBLIC "-//W3C//DTD SVG 1.1//EN"
 "http://www.w3.org/Graphics/SVG/1.1/DTD/svg11.dtd">
<!-- Generated by graphviz version 2.40.1 (20161225.0304)
 -->
<!-- Title: Ogre::RTShader::ProgramProcessor Pages: 1 -->
<svg width="540pt" height="186pt"
 viewBox="0.00 0.00 540.00 186.00" xmlns="http://www.w3.org/2000/svg" xmlns:xlink="http://www.w3.org/1999/xlink">
<g id="graph0" class="graph" transform="scale(1 1) rotate(0) translate(4 182)">
<title>Ogre::RTShader::ProgramProcessor</title>
<!-- Node0 -->
<g id="node1" class="node">
<title>Node0</title>
<polygon fill="#bfbfbf" stroke="#000000" points="152,-79 152,-98 327,-98 327,-79 152,-79"/>
<text text-anchor="middle" x="239.5" y="-86" font-family="Helvetica,sans-Serif" font-size="10.00" fill="#000000">Ogre::RTShader::ProgramProcessor</text>
</g>
<!-- Node2 -->
<g id="node3" class="node">
<title>Node2</title>
<g id="a_node3"><a xlink:href="class_ogre_1_1_r_t_shader_1_1_c_g_program_processor.html" target="_top" xlink:title="CG Language program processor class. ">
<polygon fill="none" stroke="#000000" points="374.5,-147.5 374.5,-177.5 520.5,-177.5 520.5,-147.5 374.5,-147.5"/>
<text text-anchor="start" x="382.5" y="-165.5" font-family="Helvetica,sans-Serif" font-size="10.00" fill="#000000">Ogre::RTShader::CGProgram</text>
<text text-anchor="middle" x="447.5" y="-154.5" font-family="Helvetica,sans-Serif" font-size="10.00" fill="#000000">Processor</text>
</a>
</g>
</g>
<!-- Node0&#45;&gt;Node2 -->
<g id="edge2" class="edge">
<title>Node0&#45;&gt;Node2</title>
<path fill="none" stroke="#191970" d="M270.3402,-102.0679C295.1134,-112.7027 330.9384,-127.4926 363,-138.5 372.0871,-141.6198 381.8192,-144.6575 391.3284,-147.4647"/>
<polygon fill="#191970" stroke="#191970" points="271.6616,-98.8261 261.0937,-98.071 268.8841,-105.2516 271.6616,-98.8261"/>
</g>
<!-- Node3 -->
<g id="node4" class="node">
<title>Node3</title>
<g id="a_node4"><a xlink:href="class_ogre_1_1_r_t_shader_1_1_g_l_s_l_e_s_program_processor.html" target="_top" xlink:title="GLSL ES Language program processor class. ">
<polygon fill="none" stroke="#000000" points="363,-98.5 363,-128.5 532,-128.5 532,-98.5 363,-98.5"/>
<text text-anchor="start" x="371" y="-116.5" font-family="Helvetica,sans-Serif" font-size="10.00" fill="#000000">Ogre::RTShader::GLSLESProgram</text>
<text text-anchor="middle" x="447.5" y="-105.5" font-family="Helvetica,sans-Serif" font-size="10.00" fill="#000000">Processor</text>
</a>
</g>
</g>
<!-- Node0&#45;&gt;Node3 -->
<g id="edge3" class="edge">
<title>Node0&#45;&gt;Node3</title>
<path fill="none" stroke="#191970" d="M328.9966,-99.2568C340.2646,-100.6111 351.7642,-101.9933 362.9523,-103.338"/>
<polygon fill="#191970" stroke="#191970" points="329.0755,-95.7412 318.7292,-98.0227 328.2401,-102.6912 329.0755,-95.7412"/>
</g>
<!-- Node4 -->
<g id="node5" class="node">
<title>Node4</title>
<g id="a_node5"><a xlink:href="class_ogre_1_1_r_t_shader_1_1_g_l_s_l_program_processor.html" target="_top" xlink:title="GLSL Language program processor class. ">
<polygon fill="none" stroke="#000000" points="370,-49.5 370,-79.5 525,-79.5 525,-49.5 370,-49.5"/>
<text text-anchor="start" x="378" y="-67.5" font-family="Helvetica,sans-Serif" font-size="10.00" fill="#000000">Ogre::RTShader::GLSLProgram</text>
<text text-anchor="middle" x="447.5" y="-56.5" font-family="Helvetica,sans-Serif" font-size="10.00" fill="#000000">Processor</text>
</a>
</g>
</g>
<!-- Node0&#45;&gt;Node4 -->
<g id="edge4" class="edge">
<title>Node0&#45;&gt;Node4</title>
<path fill="none" stroke="#191970" d="M332.0602,-77.82C344.6758,-76.3643 357.5187,-74.8825 369.8342,-73.4614"/>
<polygon fill="#191970" stroke="#191970" points="331.5387,-74.3568 322.0059,-78.9801 332.3412,-81.3107 331.5387,-74.3568"/>
</g>
<!-- Node5 -->
<g id="node6" class="node">
<title>Node5</title>
<g id="a_node6"><a xlink:href="class_ogre_1_1_r_t_shader_1_1_h_l_s_l_program_processor.html" target="_top" xlink:title="CG Language program processor class. ">
<polygon fill="none" stroke="#000000" points="370,-.5 370,-30.5 525,-30.5 525,-.5 370,-.5"/>
<text text-anchor="start" x="378" y="-18.5" font-family="Helvetica,sans-Serif" font-size="10.00" fill="#000000">Ogre::RTShader::HLSLProgram</text>
<text text-anchor="middle" x="447.5" y="-7.5" font-family="Helvetica,sans-Serif" font-size="10.00" fill="#000000">Processor</text>
</a>
</g>
</g>
<!-- Node0&#45;&gt;Node5 -->
<g id="edge5" class="edge">
<title>Node0&#45;&gt;Node5</title>
<path fill="none" stroke="#191970" d="M270.8176,-75.0578C295.5889,-64.6736 331.1827,-50.2996 363,-39.5 372.0979,-36.4119 381.8355,-33.3903 391.3468,-30.5894"/>
<polygon fill="#191970" stroke="#191970" points="269.4118,-71.852 261.5591,-78.9645 272.1332,-78.3014 269.4118,-71.852"/>
</g>
<!-- Node1 -->
<g id="node2" class="node">
<title>Node1</title>
<g id="a_node2"><a xlink:href="class_ogre_1_1_allocated_object.html" target="_top" xlink:title="RTShaderSystemAlloc">
<polygon fill="none" stroke="#000000" points="0,-79 0,-98 116,-98 116,-79 0,-79"/>
<text text-anchor="middle" x="58" y="-86" font-family="Helvetica,sans-Serif" font-size="10.00" fill="#000000">RTShaderSystemAlloc</text>
</a>
</g>
</g>
<!-- Node1&#45;&gt;Node0 -->
<g id="edge1" class="edge">
<title>Node1&#45;&gt;Node0</title>
<path fill="none" stroke="#191970" d="M126.2449,-88.5C134.6275,-88.5 143.2834,-88.5 151.9014,-88.5"/>
<polygon fill="#191970" stroke="#191970" points="126.1767,-85.0001 116.1767,-88.5 126.1766,-92.0001 126.1767,-85.0001"/>
</g>
</g>
</svg>
