<?xml version="1.0" encoding="UTF-8" standalone="no"?>
<!DOCTYPE svg PUBLIC "-//W3C//DTD SVG 1.1//EN"
 "http://www.w3.org/Graphics/SVG/1.1/DTD/svg11.dtd">
<!-- Generated by graphviz version 2.40.1 (20161225.0304)
 -->
<!-- Title: Ogre::Quake3ShaderManager Pages: 1 -->
<svg width="380pt" height="95pt"
 viewBox="0.00 0.00 380.00 95.00" xmlns="http://www.w3.org/2000/svg" xmlns:xlink="http://www.w3.org/1999/xlink">
<g id="graph0" class="graph" transform="scale(1 1) rotate(0) translate(4 91)">
<title>Ogre::Quake3ShaderManager</title>
<!-- Node0 -->
<g id="node1" class="node">
<title>Node0</title>
<polygon fill="#bfbfbf" stroke="#000000" points="122,-.5 122,-19.5 268,-19.5 268,-.5 122,-.5"/>
<text text-anchor="middle" x="195" y="-7.5" font-family="Helvetica,sans-Serif" font-size="10.00" fill="#000000">Ogre::Quake3ShaderManager</text>
</g>
<!-- Node1 -->
<g id="node2" class="node">
<title>Node1</title>
<g id="a_node2"><a xlink:href="class_ogre_1_1_script_loader.html" target="_top" xlink:title="Abstract class defining the interface used by classes which wish to perform script loading to define ...">
<polygon fill="none" stroke="#000000" points="0,-62 0,-81 98,-81 98,-62 0,-62"/>
<text text-anchor="middle" x="49" y="-69" font-family="Helvetica,sans-Serif" font-size="10.00" fill="#000000">Ogre::ScriptLoader</text>
</a>
</g>
</g>
<!-- Node1&#45;&gt;Node0 -->
<g id="edge1" class="edge">
<title>Node1&#45;&gt;Node0</title>
<path fill="none" stroke="#191970" d="M81.0594,-57.9955C108.6867,-46.358 147.8761,-29.8501 172.3477,-19.5419"/>
<polygon fill="#191970" stroke="#191970" points="79.6696,-54.7831 71.8125,-61.8906 82.387,-61.2341 79.6696,-54.7831"/>
</g>
<!-- Node2 -->
<g id="node3" class="node">
<title>Node2</title>
<g id="a_node3"><a xlink:href="class_ogre_1_1_singleton.html" target="_top" xlink:title="Ogre::Singleton\&lt; Quake3Shader\lManager \&gt;">
<polygon fill="none" stroke="#000000" points="116,-56.5 116,-86.5 274,-86.5 274,-56.5 116,-56.5"/>
<text text-anchor="start" x="124" y="-74.5" font-family="Helvetica,sans-Serif" font-size="10.00" fill="#000000">Ogre::Singleton&lt; Quake3Shader</text>
<text text-anchor="middle" x="195" y="-63.5" font-family="Helvetica,sans-Serif" font-size="10.00" fill="#000000">Manager &gt;</text>
</a>
</g>
</g>
<!-- Node2&#45;&gt;Node0 -->
<g id="edge2" class="edge">
<title>Node2&#45;&gt;Node0</title>
<path fill="none" stroke="#191970" d="M195,-46.2849C195,-36.9858 195,-26.9883 195,-19.8469"/>
<polygon fill="#191970" stroke="#191970" points="191.5001,-46.2977 195,-56.2977 198.5001,-46.2978 191.5001,-46.2977"/>
</g>
<!-- Node3 -->
<g id="node4" class="node">
<title>Node3</title>
<g id="a_node4"><a xlink:href="class_ogre_1_1_allocated_object.html" target="_top" xlink:title="ResourceAlloc">
<polygon fill="none" stroke="#000000" points="292,-62 292,-81 372,-81 372,-62 292,-62"/>
<text text-anchor="middle" x="332" y="-69" font-family="Helvetica,sans-Serif" font-size="10.00" fill="#000000">ResourceAlloc</text>
</a>
</g>
</g>
<!-- Node3&#45;&gt;Node0 -->
<g id="edge3" class="edge">
<title>Node3&#45;&gt;Node0</title>
<path fill="none" stroke="#191970" d="M301.2352,-57.6895C275.3513,-46.0701 239.0185,-29.7601 216.2559,-19.5419"/>
<polygon fill="#191970" stroke="#191970" points="300.0374,-60.9883 310.5938,-61.8906 302.9042,-54.6022 300.0374,-60.9883"/>
</g>
</g>
</svg>
