<?xml version="1.0" encoding="UTF-8" standalone="no"?>
<!DOCTYPE svg PUBLIC "-//W3C//DTD SVG 1.1//EN"
 "http://www.w3.org/Graphics/SVG/1.1/DTD/svg11.dtd">
<!-- Generated by graphviz version 2.40.1 (20161225.0304)
 -->
<!-- Title: Ogre::KeyFrame Pages: 1 -->
<svg width="395pt" height="142pt"
 viewBox="0.00 0.00 395.00 142.00" xmlns="http://www.w3.org/2000/svg" xmlns:xlink="http://www.w3.org/1999/xlink">
<g id="graph0" class="graph" transform="scale(1 1) rotate(0) translate(4 138)">
<title>Ogre::KeyFrame</title>
<!-- Node0 -->
<g id="node1" class="node">
<title>Node0</title>
<polygon fill="#bfbfbf" stroke="#000000" points="118,-57.5 118,-76.5 207,-76.5 207,-57.5 118,-57.5"/>
<text text-anchor="middle" x="162.5" y="-64.5" font-family="Helvetica,sans-Serif" font-size="10.00" fill="#000000">Ogre::KeyFrame</text>
</g>
<!-- Node2 -->
<g id="node3" class="node">
<title>Node2</title>
<g id="a_node3"><a xlink:href="class_ogre_1_1_numeric_key_frame.html" target="_top" xlink:title="Specialised KeyFrame which stores any numeric value. ">
<polygon fill="none" stroke="#000000" points="252.5,-114.5 252.5,-133.5 377.5,-133.5 377.5,-114.5 252.5,-114.5"/>
<text text-anchor="middle" x="315" y="-121.5" font-family="Helvetica,sans-Serif" font-size="10.00" fill="#000000">Ogre::NumericKeyFrame</text>
</a>
</g>
</g>
<!-- Node0&#45;&gt;Node2 -->
<g id="edge2" class="edge">
<title>Node0&#45;&gt;Node2</title>
<path fill="none" stroke="#191970" d="M189.2826,-81.1571C204.6969,-88.9179 224.6026,-98.2944 243,-105 252.717,-108.5417 263.3921,-111.7253 273.4776,-114.4288"/>
<polygon fill="#191970" stroke="#191970" points="190.8158,-78.0101 180.319,-76.572 187.6279,-84.2421 190.8158,-78.0101"/>
</g>
<!-- Node3 -->
<g id="node4" class="node">
<title>Node3</title>
<g id="a_node4"><a xlink:href="class_ogre_1_1_transform_key_frame.html" target="_top" xlink:title="Specialised KeyFrame which stores a full transform. ">
<polygon fill="none" stroke="#000000" points="248.5,-76.5 248.5,-95.5 381.5,-95.5 381.5,-76.5 248.5,-76.5"/>
<text text-anchor="middle" x="315" y="-83.5" font-family="Helvetica,sans-Serif" font-size="10.00" fill="#000000">Ogre::TransformKeyFrame</text>
</a>
</g>
</g>
<!-- Node0&#45;&gt;Node3 -->
<g id="edge3" class="edge">
<title>Node0&#45;&gt;Node3</title>
<path fill="none" stroke="#191970" d="M216.9595,-73.7851C227.1174,-75.0507 237.8385,-76.3864 248.3149,-77.6917"/>
<polygon fill="#191970" stroke="#191970" points="217.3753,-70.3099 207.0193,-72.5467 216.5098,-77.2562 217.3753,-70.3099"/>
</g>
<!-- Node4 -->
<g id="node5" class="node">
<title>Node4</title>
<g id="a_node5"><a xlink:href="class_ogre_1_1_vertex_morph_key_frame.html" target="_top" xlink:title="Specialised KeyFrame which stores absolute vertex positions for a complete buffer, designed to be interpolated with other keys in the same track. ">
<polygon fill="none" stroke="#000000" points="243,-38.5 243,-57.5 387,-57.5 387,-38.5 243,-38.5"/>
<text text-anchor="middle" x="315" y="-45.5" font-family="Helvetica,sans-Serif" font-size="10.00" fill="#000000">Ogre::VertexMorphKeyFrame</text>
</a>
</g>
</g>
<!-- Node0&#45;&gt;Node4 -->
<g id="edge4" class="edge">
<title>Node0&#45;&gt;Node4</title>
<path fill="none" stroke="#191970" d="M217.0286,-60.2063C225.415,-59.1614 234.1839,-58.0689 242.8809,-56.9853"/>
<polygon fill="#191970" stroke="#191970" points="216.5098,-56.7438 207.0193,-61.4533 217.3753,-63.6901 216.5098,-56.7438"/>
</g>
<!-- Node5 -->
<g id="node6" class="node">
<title>Node5</title>
<g id="a_node6"><a xlink:href="class_ogre_1_1_vertex_pose_key_frame.html" target="_top" xlink:title="Specialised KeyFrame which references a Mesh::Pose at a certain influence level, which stores offsets...">
<polygon fill="none" stroke="#000000" points="245,-.5 245,-19.5 385,-19.5 385,-.5 245,-.5"/>
<text text-anchor="middle" x="315" y="-7.5" font-family="Helvetica,sans-Serif" font-size="10.00" fill="#000000">Ogre::VertexPoseKeyFrame</text>
</a>
</g>
</g>
<!-- Node0&#45;&gt;Node5 -->
<g id="edge5" class="edge">
<title>Node0&#45;&gt;Node5</title>
<path fill="none" stroke="#191970" d="M189.2826,-52.8429C204.6969,-45.0821 224.6026,-35.7056 243,-29 252.717,-25.4583 263.3921,-22.2747 273.4776,-19.5712"/>
<polygon fill="#191970" stroke="#191970" points="187.6279,-49.7579 180.319,-57.428 190.8158,-55.9899 187.6279,-49.7579"/>
</g>
<!-- Node1 -->
<g id="node2" class="node">
<title>Node1</title>
<g id="a_node2"><a xlink:href="class_ogre_1_1_allocated_object.html" target="_top" xlink:title="AnimationAlloc">
<polygon fill="none" stroke="#000000" points="0,-57.5 0,-76.5 82,-76.5 82,-57.5 0,-57.5"/>
<text text-anchor="middle" x="41" y="-64.5" font-family="Helvetica,sans-Serif" font-size="10.00" fill="#000000">AnimationAlloc</text>
</a>
</g>
</g>
<!-- Node1&#45;&gt;Node0 -->
<g id="edge1" class="edge">
<title>Node1&#45;&gt;Node0</title>
<path fill="none" stroke="#191970" d="M92.2595,-67C100.6992,-67 109.3895,-67 117.657,-67"/>
<polygon fill="#191970" stroke="#191970" points="92.1344,-63.5001 82.1344,-67 92.1343,-70.5001 92.1344,-63.5001"/>
</g>
</g>
</svg>
