<?xml version="1.0" encoding="UTF-8" standalone="no"?>
<!DOCTYPE svg PUBLIC "-//W3C//DTD SVG 1.1//EN"
 "http://www.w3.org/Graphics/SVG/1.1/DTD/svg11.dtd">
<!-- Generated by graphviz version 2.40.1 (20161225.0304)
 -->
<!-- Title: Ogre::IntersectionSceneQueryListener Pages: 1 -->
<svg width="683pt" height="137pt"
 viewBox="0.00 0.00 683.00 137.00" xmlns="http://www.w3.org/2000/svg" xmlns:xlink="http://www.w3.org/1999/xlink">
<g id="graph0" class="graph" transform="scale(1 1) rotate(0) translate(4 133)">
<title>Ogre::IntersectionSceneQueryListener</title>
<!-- Node0 -->
<g id="node1" class="node">
<title>Node0</title>
<polygon fill="#bfbfbf" stroke="#000000" points="0,-49.5 0,-79.5 149,-79.5 149,-49.5 0,-49.5"/>
<text text-anchor="start" x="8" y="-67.5" font-family="Helvetica,sans-Serif" font-size="10.00" fill="#000000">Ogre::IntersectionSceneQuery</text>
<text text-anchor="middle" x="74.5" y="-56.5" font-family="Helvetica,sans-Serif" font-size="10.00" fill="#000000">Listener</text>
</g>
<!-- Node1 -->
<g id="node2" class="node">
<title>Node1</title>
<g id="a_node2"><a xlink:href="class_ogre_1_1_intersection_scene_query.html" target="_top" xlink:title="Separate SceneQuery class to query for pairs of objects which are possibly intersecting one another...">
<polygon fill="none" stroke="#000000" points="185,-55 185,-74 334,-74 334,-55 185,-55"/>
<text text-anchor="middle" x="259.5" y="-62" font-family="Helvetica,sans-Serif" font-size="10.00" fill="#000000">Ogre::IntersectionSceneQuery</text>
</a>
</g>
</g>
<!-- Node0&#45;&gt;Node1 -->
<g id="edge1" class="edge">
<title>Node0&#45;&gt;Node1</title>
<path fill="none" stroke="#191970" d="M159.4683,-64.5C167.9256,-64.5 176.4675,-64.5 184.8085,-64.5"/>
<polygon fill="#191970" stroke="#191970" points="159.2134,-61.0001 149.2133,-64.5 159.2133,-68.0001 159.2134,-61.0001"/>
</g>
<!-- Node2 -->
<g id="node3" class="node">
<title>Node2</title>
<g id="a_node3"><a xlink:href="class_ogre_1_1_default_intersection_scene_query.html" target="_top" xlink:title="Default implementation of IntersectionSceneQuery. ">
<polygon fill="none" stroke="#000000" points="370,-49.5 370,-79.5 496,-79.5 496,-49.5 370,-49.5"/>
<text text-anchor="start" x="378" y="-67.5" font-family="Helvetica,sans-Serif" font-size="10.00" fill="#000000">Ogre::DefaultIntersection</text>
<text text-anchor="middle" x="433" y="-56.5" font-family="Helvetica,sans-Serif" font-size="10.00" fill="#000000">SceneQuery</text>
</a>
</g>
</g>
<!-- Node1&#45;&gt;Node2 -->
<g id="edge2" class="edge">
<title>Node1&#45;&gt;Node2</title>
<path fill="none" stroke="#191970" d="M344.2145,-64.5C352.8702,-64.5 361.5529,-64.5 369.9178,-64.5"/>
<polygon fill="#191970" stroke="#191970" points="344.0866,-61.0001 334.0865,-64.5 344.0865,-68.0001 344.0866,-61.0001"/>
</g>
<!-- Node3 -->
<g id="node4" class="node">
<title>Node3</title>
<g id="a_node4"><a xlink:href="class_ogre_1_1_bsp_intersection_scene_query.html" target="_top" xlink:title="BSP specialisation of IntersectionSceneQuery. ">
<polygon fill="none" stroke="#000000" points="533.5,-98.5 533.5,-128.5 673.5,-128.5 673.5,-98.5 533.5,-98.5"/>
<text text-anchor="start" x="541.5" y="-116.5" font-family="Helvetica,sans-Serif" font-size="10.00" fill="#000000">Ogre::BspIntersectionScene</text>
<text text-anchor="middle" x="603.5" y="-105.5" font-family="Helvetica,sans-Serif" font-size="10.00" fill="#000000">Query</text>
</a>
</g>
</g>
<!-- Node2&#45;&gt;Node3 -->
<g id="edge3" class="edge">
<title>Node2&#45;&gt;Node3</title>
<path fill="none" stroke="#191970" d="M495.2641,-82.3941C513.6027,-87.6644 533.4751,-93.3755 551.1267,-98.4484"/>
<polygon fill="#191970" stroke="#191970" points="496.1246,-78.9998 485.5468,-79.6014 494.1911,-85.7275 496.1246,-78.9998"/>
</g>
<!-- Node4 -->
<g id="node5" class="node">
<title>Node4</title>
<g id="a_node5"><a xlink:href="class_ogre_1_1_octree_intersection_scene_query.html" target="_top" xlink:title="Octree implementation of IntersectionSceneQuery. ">
<polygon fill="none" stroke="#000000" points="541.5,-49.5 541.5,-79.5 665.5,-79.5 665.5,-49.5 541.5,-49.5"/>
<text text-anchor="start" x="549.5" y="-67.5" font-family="Helvetica,sans-Serif" font-size="10.00" fill="#000000">Ogre::OctreeIntersection</text>
<text text-anchor="middle" x="603.5" y="-56.5" font-family="Helvetica,sans-Serif" font-size="10.00" fill="#000000">SceneQuery</text>
</a>
</g>
</g>
<!-- Node2&#45;&gt;Node4 -->
<g id="edge4" class="edge">
<title>Node2&#45;&gt;Node4</title>
<path fill="none" stroke="#191970" d="M506.1871,-64.5C517.8919,-64.5 529.9064,-64.5 541.3237,-64.5"/>
<polygon fill="#191970" stroke="#191970" points="506.0035,-61.0001 496.0035,-64.5 506.0035,-68.0001 506.0035,-61.0001"/>
</g>
<!-- Node5 -->
<g id="node6" class="node">
<title>Node5</title>
<g id="a_node6"><a xlink:href="class_ogre_1_1_p_c_z_intersection_scene_query.html" target="_top" xlink:title="PCZ implementation of IntersectionSceneQuery. ">
<polygon fill="none" stroke="#000000" points="532,-.5 532,-30.5 675,-30.5 675,-.5 532,-.5"/>
<text text-anchor="start" x="540" y="-18.5" font-family="Helvetica,sans-Serif" font-size="10.00" fill="#000000">Ogre::PCZIntersectionScene</text>
<text text-anchor="middle" x="603.5" y="-7.5" font-family="Helvetica,sans-Serif" font-size="10.00" fill="#000000">Query</text>
</a>
</g>
</g>
<!-- Node2&#45;&gt;Node5 -->
<g id="edge5" class="edge">
<title>Node2&#45;&gt;Node5</title>
<path fill="none" stroke="#191970" d="M495.2641,-46.6059C513.6027,-41.3356 533.4751,-35.6245 551.1267,-30.5516"/>
<polygon fill="#191970" stroke="#191970" points="494.1911,-43.2725 485.5468,-49.3986 496.1246,-50.0002 494.1911,-43.2725"/>
</g>
</g>
</svg>
