<?xml version="1.0" encoding="UTF-8" standalone="no"?>
<!DOCTYPE svg PUBLIC "-//W3C//DTD SVG 1.1//EN"
 "http://www.w3.org/Graphics/SVG/1.1/DTD/svg11.dtd">
<!-- Generated by graphviz version 2.40.1 (20161225.0304)
 -->
<!-- Title: Ogre::Volume::TextureSource Pages: 1 -->
<svg width="154pt" height="140pt"
 viewBox="0.00 0.00 154.00 140.00" xmlns="http://www.w3.org/2000/svg" xmlns:xlink="http://www.w3.org/1999/xlink">
<g id="graph0" class="graph" transform="scale(1 1) rotate(0) translate(4 136)">
<title>Ogre::Volume::TextureSource</title>
<!-- Node0 -->
<g id="node1" class="node">
<title>Node0</title>
<polygon fill="#bfbfbf" stroke="#000000" points="0,-.5 0,-19.5 146,-19.5 146,-.5 0,-.5"/>
<text text-anchor="middle" x="73" y="-7.5" font-family="Helvetica,sans-Serif" font-size="10.00" fill="#000000">Ogre::Volume::TextureSource</text>
</g>
<!-- Node1 -->
<g id="node2" class="node">
<title>Node1</title>
<g id="a_node2"><a xlink:href="class_ogre_1_1_volume_1_1_grid_source.html" target="_top" xlink:title="A volume source from a discrete 3d grid. ">
<polygon fill="none" stroke="#000000" points="7.5,-56.5 7.5,-75.5 138.5,-75.5 138.5,-56.5 7.5,-56.5"/>
<text text-anchor="middle" x="73" y="-63.5" font-family="Helvetica,sans-Serif" font-size="10.00" fill="#000000">Ogre::Volume::GridSource</text>
</a>
</g>
</g>
<!-- Node1&#45;&gt;Node0 -->
<g id="edge1" class="edge">
<title>Node1&#45;&gt;Node0</title>
<path fill="none" stroke="#191970" d="M73,-46.1575C73,-37.155 73,-26.9199 73,-19.6427"/>
<polygon fill="#191970" stroke="#191970" points="69.5001,-46.2455 73,-56.2455 76.5001,-46.2456 69.5001,-46.2455"/>
</g>
<!-- Node2 -->
<g id="node3" class="node">
<title>Node2</title>
<g id="a_node3"><a xlink:href="class_ogre_1_1_volume_1_1_source.html" target="_top" xlink:title="Abstract class defining the density function. ">
<polygon fill="none" stroke="#000000" points="16.5,-112.5 16.5,-131.5 129.5,-131.5 129.5,-112.5 16.5,-112.5"/>
<text text-anchor="middle" x="73" y="-119.5" font-family="Helvetica,sans-Serif" font-size="10.00" fill="#000000">Ogre::Volume::Source</text>
</a>
</g>
</g>
<!-- Node2&#45;&gt;Node1 -->
<g id="edge2" class="edge">
<title>Node2&#45;&gt;Node1</title>
<path fill="none" stroke="#191970" d="M73,-102.1575C73,-93.155 73,-82.9199 73,-75.6427"/>
<polygon fill="#191970" stroke="#191970" points="69.5001,-102.2455 73,-112.2455 76.5001,-102.2456 69.5001,-102.2455"/>
</g>
</g>
</svg>
