<?xml version="1.0" encoding="UTF-8" standalone="no"?>
<!DOCTYPE svg PUBLIC "-//W3C//DTD SVG 1.1//EN"
 "http://www.w3.org/Graphics/SVG/1.1/DTD/svg11.dtd">
<!-- Generated by graphviz version 2.40.1 (20161225.0304)
 -->
<!-- Title: Ogre::ConstMapIterator&lt; T &gt; Pages: 1 -->
<svg width="151pt" height="173pt"
 viewBox="0.00 0.00 151.00 173.00" xmlns="http://www.w3.org/2000/svg" xmlns:xlink="http://www.w3.org/1999/xlink">
<g id="graph0" class="graph" transform="scale(1 1) rotate(0) translate(4 169)">
<title>Ogre::ConstMapIterator&lt; T &gt;</title>
<!-- Node0 -->
<g id="node1" class="node">
<title>Node0</title>
<polygon fill="#bfbfbf" stroke="#000000" points="0,-.5 0,-19.5 143,-19.5 143,-.5 0,-.5"/>
<text text-anchor="middle" x="71.5" y="-7.5" font-family="Helvetica,sans-Serif" font-size="10.00" fill="#000000">Ogre::ConstMapIterator&lt; T &gt;</text>
</g>
<!-- Node1 -->
<g id="node2" class="node">
<title>Node1</title>
<g id="a_node2"><a xlink:href="class_ogre_1_1_map_iterator_wrapper.html" target="_top" xlink:title="Ogre::MapIteratorWrapper\l\&lt; T, T::const_iterator \&gt;">
<polygon fill="none" stroke="#000000" points="6.5,-56.5 6.5,-86.5 136.5,-86.5 136.5,-56.5 6.5,-56.5"/>
<text text-anchor="start" x="14.5" y="-74.5" font-family="Helvetica,sans-Serif" font-size="10.00" fill="#000000">Ogre::MapIteratorWrapper</text>
<text text-anchor="middle" x="71.5" y="-63.5" font-family="Helvetica,sans-Serif" font-size="10.00" fill="#000000">&lt; T, T::const_iterator &gt;</text>
</a>
</g>
</g>
<!-- Node1&#45;&gt;Node0 -->
<g id="edge1" class="edge">
<title>Node1&#45;&gt;Node0</title>
<path fill="none" stroke="#191970" d="M71.5,-46.2849C71.5,-36.9858 71.5,-26.9883 71.5,-19.8469"/>
<polygon fill="#191970" stroke="#191970" points="68.0001,-46.2977 71.5,-56.2977 75.0001,-46.2978 68.0001,-46.2977"/>
</g>
<!-- Node2 -->
<g id="node3" class="node">
<title>Node2</title>
<g id="a_node3"><a xlink:href="class_ogre_1_1_iterator_wrapper.html" target="_top" xlink:title="Ogre::IteratorWrapper\l\&lt; T, T::const_iterator,\l T::mapped_type \&gt;">
<polygon fill="none" stroke="#000000" points="15.5,-123.5 15.5,-164.5 127.5,-164.5 127.5,-123.5 15.5,-123.5"/>
<text text-anchor="start" x="23.5" y="-152.5" font-family="Helvetica,sans-Serif" font-size="10.00" fill="#000000">Ogre::IteratorWrapper</text>
<text text-anchor="start" x="23.5" y="-141.5" font-family="Helvetica,sans-Serif" font-size="10.00" fill="#000000">&lt; T, T::const_iterator,</text>
<text text-anchor="middle" x="71.5" y="-130.5" font-family="Helvetica,sans-Serif" font-size="10.00" fill="#000000"> T::mapped_type &gt;</text>
</a>
</g>
</g>
<!-- Node2&#45;&gt;Node1 -->
<g id="edge2" class="edge">
<title>Node2&#45;&gt;Node1</title>
<path fill="none" stroke="#191970" d="M71.5,-113.3279C71.5,-104.0871 71.5,-94.3508 71.5,-86.5991"/>
<polygon fill="#191970" stroke="#191970" points="68.0001,-113.4183 71.5,-123.4183 75.0001,-113.4184 68.0001,-113.4183"/>
</g>
</g>
</svg>
