<?xml version="1.0" encoding="UTF-8" standalone="no"?>
<!DOCTYPE svg PUBLIC "-//W3C//DTD SVG 1.1//EN"
 "http://www.w3.org/Graphics/SVG/1.1/DTD/svg11.dtd">
<!-- Generated by graphviz version 2.40.1 (20161225.0304)
 -->
<!-- Title: Ogre::DistanceLodSphereStrategy Pages: 1 -->
<svg width="316pt" height="207pt"
 viewBox="0.00 0.00 316.00 207.00" xmlns="http://www.w3.org/2000/svg" xmlns:xlink="http://www.w3.org/1999/xlink">
<g id="graph0" class="graph" transform="scale(1 1) rotate(0) translate(4 203)">
<title>Ogre::DistanceLodSphereStrategy</title>
<!-- Node0 -->
<g id="node1" class="node">
<title>Node0</title>
<polygon fill="#bfbfbf" stroke="#000000" points="77,-.5 77,-19.5 243,-19.5 243,-.5 77,-.5"/>
<text text-anchor="middle" x="160" y="-7.5" font-family="Helvetica,sans-Serif" font-size="10.00" fill="#000000">Ogre::DistanceLodSphereStrategy</text>
</g>
<!-- Node1 -->
<g id="node2" class="node">
<title>Node1</title>
<g id="a_node2"><a xlink:href="class_ogre_1_1_distance_lod_strategy_base.html" target="_top" xlink:title="Level of detail strategy based on distance from camera. ">
<polygon fill="none" stroke="#000000" points="0,-62 0,-81 158,-81 158,-62 0,-62"/>
<text text-anchor="middle" x="79" y="-69" font-family="Helvetica,sans-Serif" font-size="10.00" fill="#000000">Ogre::DistanceLodStrategyBase</text>
</a>
</g>
</g>
<!-- Node1&#45;&gt;Node0 -->
<g id="edge1" class="edge">
<title>Node1&#45;&gt;Node0</title>
<path fill="none" stroke="#191970" d="M99.8768,-55.6491C114.9271,-44.222 134.7452,-29.1749 147.4326,-19.5419"/>
<polygon fill="#191970" stroke="#191970" points="97.5042,-53.0559 91.6563,-61.8906 101.7372,-58.6311 97.5042,-53.0559"/>
</g>
<!-- Node2 -->
<g id="node3" class="node">
<title>Node2</title>
<g id="a_node3"><a xlink:href="class_ogre_1_1_lod_strategy.html" target="_top" xlink:title="Strategy for determining level of detail. ">
<polygon fill="none" stroke="#000000" points="31,-123.5 31,-142.5 127,-142.5 127,-123.5 31,-123.5"/>
<text text-anchor="middle" x="79" y="-130.5" font-family="Helvetica,sans-Serif" font-size="10.00" fill="#000000">Ogre::LodStrategy</text>
</a>
</g>
</g>
<!-- Node2&#45;&gt;Node1 -->
<g id="edge2" class="edge">
<title>Node2&#45;&gt;Node1</title>
<path fill="none" stroke="#191970" d="M79,-113.2462C79,-102.5519 79,-89.814 79,-81.2449"/>
<polygon fill="#191970" stroke="#191970" points="75.5001,-113.3906 79,-123.3906 82.5001,-113.3907 75.5001,-113.3906"/>
</g>
<!-- Node3 -->
<g id="node4" class="node">
<title>Node3</title>
<g id="a_node4"><a xlink:href="class_ogre_1_1_allocated_object.html" target="_top" xlink:title="LodAlloc">
<polygon fill="none" stroke="#000000" points="52,-179.5 52,-198.5 106,-198.5 106,-179.5 52,-179.5"/>
<text text-anchor="middle" x="79" y="-186.5" font-family="Helvetica,sans-Serif" font-size="10.00" fill="#000000">LodAlloc</text>
</a>
</g>
</g>
<!-- Node3&#45;&gt;Node2 -->
<g id="edge3" class="edge">
<title>Node3&#45;&gt;Node2</title>
<path fill="none" stroke="#191970" d="M79,-169.1575C79,-160.155 79,-149.9199 79,-142.6427"/>
<polygon fill="#191970" stroke="#191970" points="75.5001,-169.2455 79,-179.2455 82.5001,-169.2456 75.5001,-169.2455"/>
</g>
<!-- Node4 -->
<g id="node5" class="node">
<title>Node4</title>
<g id="a_node5"><a xlink:href="class_ogre_1_1_singleton.html" target="_top" xlink:title="Ogre::Singleton\&lt; Distance\lLodSphereStrategy \&gt;">
<polygon fill="none" stroke="#000000" points="176,-56.5 176,-86.5 308,-86.5 308,-56.5 176,-56.5"/>
<text text-anchor="start" x="184" y="-74.5" font-family="Helvetica,sans-Serif" font-size="10.00" fill="#000000">Ogre::Singleton&lt; Distance</text>
<text text-anchor="middle" x="242" y="-63.5" font-family="Helvetica,sans-Serif" font-size="10.00" fill="#000000">LodSphereStrategy &gt;</text>
</a>
</g>
</g>
<!-- Node4&#45;&gt;Node0 -->
<g id="edge4" class="edge">
<title>Node4&#45;&gt;Node0</title>
<path fill="none" stroke="#191970" d="M213.5119,-50.1339C199.7821,-39.8366 183.982,-27.9865 173.1292,-19.8469"/>
<polygon fill="#191970" stroke="#191970" points="211.6303,-53.0977 221.7303,-56.2977 215.8303,-47.4977 211.6303,-53.0977"/>
</g>
</g>
</svg>
