<?xml version="1.0" encoding="UTF-8" standalone="no"?>
<!DOCTYPE svg PUBLIC "-//W3C//DTD SVG 1.1//EN"
 "http://www.w3.org/Graphics/SVG/1.1/DTD/svg11.dtd">
<!-- Generated by graphviz version 2.40.1 (20161225.0304)
 -->
<!-- Title: Ogre::RTShader::SGScriptTranslator Pages: 1 -->
<svg width="142pt" height="151pt"
 viewBox="0.00 0.00 142.00 151.00" xmlns="http://www.w3.org/2000/svg" xmlns:xlink="http://www.w3.org/1999/xlink">
<g id="graph0" class="graph" transform="scale(1 1) rotate(0) translate(4 147)">
<title>Ogre::RTShader::SGScriptTranslator</title>
<!-- Node0 -->
<g id="node1" class="node">
<title>Node0</title>
<polygon fill="#bfbfbf" stroke="#000000" points="0,-.5 0,-30.5 134,-30.5 134,-.5 0,-.5"/>
<text text-anchor="start" x="8" y="-18.5" font-family="Helvetica,sans-Serif" font-size="10.00" fill="#000000">Ogre::RTShader::SGScript</text>
<text text-anchor="middle" x="67" y="-7.5" font-family="Helvetica,sans-Serif" font-size="10.00" fill="#000000">Translator</text>
</g>
<!-- Node1 -->
<g id="node2" class="node">
<title>Node1</title>
<g id="a_node2"><a xlink:href="class_ogre_1_1_script_translator.html" target="_top" xlink:title="This class translates script AST (abstract syntax tree) into Ogre resources. ">
<polygon fill="none" stroke="#000000" points="10.5,-67.5 10.5,-86.5 123.5,-86.5 123.5,-67.5 10.5,-67.5"/>
<text text-anchor="middle" x="67" y="-74.5" font-family="Helvetica,sans-Serif" font-size="10.00" fill="#000000">Ogre::ScriptTranslator</text>
</a>
</g>
</g>
<!-- Node1&#45;&gt;Node0 -->
<g id="edge1" class="edge">
<title>Node1&#45;&gt;Node0</title>
<path fill="none" stroke="#191970" d="M67,-57.3693C67,-48.681 67,-38.6241 67,-30.5446"/>
<polygon fill="#191970" stroke="#191970" points="63.5001,-57.3906 67,-67.3906 70.5001,-57.3907 63.5001,-57.3906"/>
</g>
<!-- Node2 -->
<g id="node3" class="node">
<title>Node2</title>
<g id="a_node3"><a xlink:href="class_ogre_1_1_allocated_object.html" target="_top" xlink:title="ScriptTranslatorAlloc">
<polygon fill="none" stroke="#000000" points="13.5,-123.5 13.5,-142.5 120.5,-142.5 120.5,-123.5 13.5,-123.5"/>
<text text-anchor="middle" x="67" y="-130.5" font-family="Helvetica,sans-Serif" font-size="10.00" fill="#000000">ScriptTranslatorAlloc</text>
</a>
</g>
</g>
<!-- Node2&#45;&gt;Node1 -->
<g id="edge2" class="edge">
<title>Node2&#45;&gt;Node1</title>
<path fill="none" stroke="#191970" d="M67,-113.1575C67,-104.155 67,-93.9199 67,-86.6427"/>
<polygon fill="#191970" stroke="#191970" points="63.5001,-113.2455 67,-123.2455 70.5001,-113.2456 63.5001,-113.2455"/>
</g>
</g>
</svg>
