<?xml version="1.0" encoding="UTF-8" standalone="no"?>
<!DOCTYPE svg PUBLIC "-//W3C//DTD SVG 1.1//EN"
 "http://www.w3.org/Graphics/SVG/1.1/DTD/svg11.dtd">
<!-- Generated by graphviz version 2.40.1 (20161225.0304)
 -->
<!-- Title: Ogre::ZoneData Pages: 1 -->
<svg width="134pt" height="140pt"
 viewBox="0.00 0.00 134.00 140.00" xmlns="http://www.w3.org/2000/svg" xmlns:xlink="http://www.w3.org/1999/xlink">
<g id="graph0" class="graph" transform="scale(1 1) rotate(0) translate(4 136)">
<title>Ogre::ZoneData</title>
<!-- Node0 -->
<g id="node1" class="node">
<title>Node0</title>
<polygon fill="#bfbfbf" stroke="#000000" points="20,-56.5 20,-75.5 106,-75.5 106,-56.5 20,-56.5"/>
<text text-anchor="middle" x="63" y="-63.5" font-family="Helvetica,sans-Serif" font-size="10.00" fill="#000000">Ogre::ZoneData</text>
</g>
<!-- Node2 -->
<g id="node3" class="node">
<title>Node2</title>
<g id="a_node3"><a xlink:href="class_ogre_1_1_octree_zone_data.html" target="_top" xlink:title="Ogre::OctreeZoneData">
<polygon fill="none" stroke="#000000" points="5,-.5 5,-19.5 121,-19.5 121,-.5 5,-.5"/>
<text text-anchor="middle" x="63" y="-7.5" font-family="Helvetica,sans-Serif" font-size="10.00" fill="#000000">Ogre::OctreeZoneData</text>
</a>
</g>
</g>
<!-- Node0&#45;&gt;Node2 -->
<g id="edge2" class="edge">
<title>Node0&#45;&gt;Node2</title>
<path fill="none" stroke="#191970" d="M63,-46.1575C63,-37.155 63,-26.9199 63,-19.6427"/>
<polygon fill="#191970" stroke="#191970" points="59.5001,-46.2455 63,-56.2455 66.5001,-46.2456 59.5001,-46.2455"/>
</g>
<!-- Node1 -->
<g id="node2" class="node">
<title>Node1</title>
<g id="a_node2"><a xlink:href="class_ogre_1_1_allocated_object.html" target="_top" xlink:title="SceneCtlAllocatedObject">
<polygon fill="none" stroke="#000000" points="0,-112.5 0,-131.5 126,-131.5 126,-112.5 0,-112.5"/>
<text text-anchor="middle" x="63" y="-119.5" font-family="Helvetica,sans-Serif" font-size="10.00" fill="#000000">SceneCtlAllocatedObject</text>
</a>
</g>
</g>
<!-- Node1&#45;&gt;Node0 -->
<g id="edge1" class="edge">
<title>Node1&#45;&gt;Node0</title>
<path fill="none" stroke="#191970" d="M63,-102.1575C63,-93.155 63,-82.9199 63,-75.6427"/>
<polygon fill="#191970" stroke="#191970" points="59.5001,-102.2455 63,-112.2455 66.5001,-102.2456 59.5001,-102.2455"/>
</g>
</g>
</svg>
