<?xml version="1.0" encoding="UTF-8" standalone="no"?>
<!DOCTYPE svg PUBLIC "-//W3C//DTD SVG 1.1//EN"
 "http://www.w3.org/Graphics/SVG/1.1/DTD/svg11.dtd">
<!-- Generated by graphviz version 2.40.1 (20161225.0304)
 -->
<!-- Title: Graphical Class Hierarchy Pages: 1 -->
<svg width="536pt" height="142pt"
 viewBox="0.00 0.00 536.00 142.00" xmlns="http://www.w3.org/2000/svg" xmlns:xlink="http://www.w3.org/1999/xlink">
<g id="graph0" class="graph" transform="scale(1 1) rotate(0) translate(4 138)">
<title>Graphical Class Hierarchy</title>
<!-- Node0 -->
<g id="node1" class="node">
<title>Node0</title>
<g id="a_node1"><a xlink:href="class_ogre_1_1_g_l_s_l_program_common.html" target="_top" xlink:title="Ogre::GLSLProgramCommon">
<polygon fill="none" stroke="#000000" points="0,-76.5 0,-95.5 145,-95.5 145,-76.5 0,-76.5"/>
<text text-anchor="middle" x="72.5" y="-83.5" font-family="Helvetica,sans-Serif" font-size="10.00" fill="#000000">Ogre::GLSLProgramCommon</text>
</a>
</g>
</g>
<!-- Node1 -->
<g id="node2" class="node">
<title>Node1</title>
<g id="a_node2"><a xlink:href="class_ogre_1_1_g_l_s_l_1_1_g_l_s_l_link_program.html" target="_top" xlink:title="C++ encapsulation of GLSL Program Object. ">
<polygon fill="none" stroke="#000000" points="183,-114.5 183,-133.5 337,-133.5 337,-114.5 183,-114.5"/>
<text text-anchor="middle" x="260" y="-121.5" font-family="Helvetica,sans-Serif" font-size="10.00" fill="#000000">Ogre::GLSL::GLSLLinkProgram</text>
</a>
</g>
</g>
<!-- Node0&#45;&gt;Node1 -->
<g id="edge1" class="edge">
<title>Node0&#45;&gt;Node1</title>
<path fill="none" stroke="#191970" d="M129.7838,-97.6095C156.4506,-103.014 187.7805,-109.3635 213.0261,-114.4799"/>
<polygon fill="#191970" stroke="#191970" points="130.3101,-94.1451 119.8142,-95.589 128.9197,-101.0056 130.3101,-94.1451"/>
</g>
<!-- Node2 -->
<g id="node3" class="node">
<title>Node2</title>
<g id="a_node3"><a xlink:href="class_ogre_1_1_g_l_s_l_e_s_program_common.html" target="_top" xlink:title="C++ encapsulation of GLSL ES Program Object. ">
<polygon fill="none" stroke="#000000" points="181,-76.5 181,-95.5 339,-95.5 339,-76.5 181,-76.5"/>
<text text-anchor="middle" x="260" y="-83.5" font-family="Helvetica,sans-Serif" font-size="10.00" fill="#000000">Ogre::GLSLESProgramCommon</text>
</a>
</g>
</g>
<!-- Node0&#45;&gt;Node2 -->
<g id="edge2" class="edge">
<title>Node0&#45;&gt;Node2</title>
<path fill="none" stroke="#191970" d="M155.4434,-86C163.8543,-86 172.3828,-86 180.7533,-86"/>
<polygon fill="#191970" stroke="#191970" points="155.2608,-82.5001 145.2608,-86 155.2607,-89.5001 155.2608,-82.5001"/>
</g>
<!-- Node5 -->
<g id="node6" class="node">
<title>Node5</title>
<g id="a_node6"><a xlink:href="class_ogre_1_1_g_l_s_l_program.html" target="_top" xlink:title="C++ encapsulation of GLSL program object. ">
<polygon fill="none" stroke="#000000" points="207.5,-38.5 207.5,-57.5 312.5,-57.5 312.5,-38.5 207.5,-38.5"/>
<text text-anchor="middle" x="260" y="-45.5" font-family="Helvetica,sans-Serif" font-size="10.00" fill="#000000">Ogre::GLSLProgram</text>
</a>
</g>
</g>
<!-- Node0&#45;&gt;Node5 -->
<g id="edge5" class="edge">
<title>Node0&#45;&gt;Node5</title>
<path fill="none" stroke="#191970" d="M129.7838,-74.3905C156.4506,-68.986 187.7805,-62.6365 213.0261,-57.5201"/>
<polygon fill="#191970" stroke="#191970" points="128.9197,-70.9944 119.8142,-76.411 130.3101,-77.8549 128.9197,-70.9944"/>
</g>
<!-- Node3 -->
<g id="node4" class="node">
<title>Node3</title>
<g id="a_node4"><a xlink:href="class_ogre_1_1_g_l_s_l_e_s_link_program.html" target="_top" xlink:title="C++ encapsulation of GLSL ES Program Object. ">
<polygon fill="none" stroke="#000000" points="383,-114.5 383,-133.5 520,-133.5 520,-114.5 383,-114.5"/>
<text text-anchor="middle" x="451.5" y="-121.5" font-family="Helvetica,sans-Serif" font-size="10.00" fill="#000000">Ogre::GLSLESLinkProgram</text>
</a>
</g>
</g>
<!-- Node2&#45;&gt;Node3 -->
<g id="edge3" class="edge">
<title>Node2&#45;&gt;Node3</title>
<path fill="none" stroke="#191970" d="M318.1461,-97.5381C345.4595,-102.958 377.6263,-109.341 403.524,-114.4799"/>
<polygon fill="#191970" stroke="#191970" points="318.8136,-94.1024 308.3235,-95.589 317.451,-100.9685 318.8136,-94.1024"/>
</g>
<!-- Node4 -->
<g id="node5" class="node">
<title>Node4</title>
<g id="a_node5"><a xlink:href="class_ogre_1_1_g_l_s_l_e_s_program_pipeline.html" target="_top" xlink:title="Specialisation of HighLevelGpuProgram to provide support for OpenGL Shader Language (GLSL ES) for Ope...">
<polygon fill="none" stroke="#000000" points="375,-76.5 375,-95.5 528,-95.5 528,-76.5 375,-76.5"/>
<text text-anchor="middle" x="451.5" y="-83.5" font-family="Helvetica,sans-Serif" font-size="10.00" fill="#000000">Ogre::GLSLESProgramPipeline</text>
</a>
</g>
</g>
<!-- Node2&#45;&gt;Node4 -->
<g id="edge4" class="edge">
<title>Node2&#45;&gt;Node4</title>
<path fill="none" stroke="#191970" d="M349.5125,-86C357.9482,-86 366.4487,-86 374.7507,-86"/>
<polygon fill="#191970" stroke="#191970" points="349.2728,-82.5001 339.2727,-86 349.2727,-89.5001 349.2728,-82.5001"/>
</g>
<!-- Node6 -->
<g id="node7" class="node">
<title>Node6</title>
<g id="a_node7"><a xlink:href="class_ogre_1_1_g_l_s_l_monolithic_program.html" target="_top" xlink:title="Model of OpenGL program object created using the glLinkProgram method of linking. ...">
<polygon fill="none" stroke="#000000" points="377,-38.5 377,-57.5 526,-57.5 526,-38.5 377,-38.5"/>
<text text-anchor="middle" x="451.5" y="-45.5" font-family="Helvetica,sans-Serif" font-size="10.00" fill="#000000">Ogre::GLSLMonolithicProgram</text>
</a>
</g>
</g>
<!-- Node5&#45;&gt;Node6 -->
<g id="edge6" class="edge">
<title>Node5&#45;&gt;Node6</title>
<path fill="none" stroke="#191970" d="M323.0544,-48C340.2436,-48 359.0304,-48 376.7997,-48"/>
<polygon fill="#191970" stroke="#191970" points="322.5815,-44.5001 312.5815,-48 322.5815,-51.5001 322.5815,-44.5001"/>
</g>
<!-- Node7 -->
<g id="node8" class="node">
<title>Node7</title>
<g id="a_node8"><a xlink:href="class_ogre_1_1_g_l_s_l_separable_program.html" target="_top" xlink:title="Specialisation of GLSLProgram to provide support for separable programs via the OpenGL program pipeli...">
<polygon fill="none" stroke="#000000" points="377,-.5 377,-19.5 526,-19.5 526,-.5 377,-.5"/>
<text text-anchor="middle" x="451.5" y="-7.5" font-family="Helvetica,sans-Serif" font-size="10.00" fill="#000000">Ogre::GLSLSeparableProgram</text>
</a>
</g>
</g>
<!-- Node5&#45;&gt;Node7 -->
<g id="edge7" class="edge">
<title>Node5&#45;&gt;Node7</title>
<path fill="none" stroke="#191970" d="M318.1461,-36.4619C345.4595,-31.042 377.6263,-24.659 403.524,-19.5201"/>
<polygon fill="#191970" stroke="#191970" points="317.451,-33.0315 308.3235,-38.411 318.8136,-39.8976 317.451,-33.0315"/>
</g>
</g>
</svg>
