<?xml version="1.0" encoding="UTF-8" standalone="no"?>
<!DOCTYPE svg PUBLIC "-//W3C//DTD SVG 1.1//EN"
 "http://www.w3.org/Graphics/SVG/1.1/DTD/svg11.dtd">
<!-- Generated by graphviz version 2.40.1 (20161225.0304)
 -->
<!-- Title: Graphical Class Hierarchy Pages: 1 -->
<svg width="230pt" height="66pt"
 viewBox="0.00 0.00 230.00 66.00" xmlns="http://www.w3.org/2000/svg" xmlns:xlink="http://www.w3.org/1999/xlink">
<g id="graph0" class="graph" transform="scale(1 1) rotate(0) translate(4 62)">
<title>Graphical Class Hierarchy</title>
<!-- Node0 -->
<g id="node1" class="node">
<title>Node0</title>
<g id="a_node1"><a xlink:href="class_ogre_1_1_transform_base.html" target="_top" xlink:title="Class encapsulating a standard 4x4 homogeneous matrix. ">
<polygon fill="none" stroke="#000000" points="0,-19.5 0,-38.5 110,-38.5 110,-19.5 0,-19.5"/>
<text text-anchor="middle" x="55" y="-26.5" font-family="Helvetica,sans-Serif" font-size="10.00" fill="#000000">Ogre::TransformBase</text>
</a>
</g>
</g>
<!-- Node1 -->
<g id="node2" class="node">
<title>Node1</title>
<g id="a_node2"><a xlink:href="class_ogre_1_1_affine3.html" target="_top" xlink:title="Transform specialization for 3D Affine &#45; encapsulating a 3x4 Matrix. ">
<polygon fill="none" stroke="#000000" points="147,-38.5 147,-57.5 221,-57.5 221,-38.5 147,-38.5"/>
<text text-anchor="middle" x="184" y="-45.5" font-family="Helvetica,sans-Serif" font-size="10.00" fill="#000000">Ogre::Affine3</text>
</a>
</g>
</g>
<!-- Node0&#45;&gt;Node1 -->
<g id="edge1" class="edge">
<title>Node0&#45;&gt;Node1</title>
<path fill="none" stroke="#191970" d="M120.0791,-38.5853C129.3197,-39.9463 138.5445,-41.305 146.9946,-42.5496"/>
<polygon fill="#191970" stroke="#191970" points="120.4851,-35.1074 110.0818,-37.1128 119.465,-42.0327 120.4851,-35.1074"/>
</g>
<!-- Node2 -->
<g id="node3" class="node">
<title>Node2</title>
<g id="a_node3"><a xlink:href="class_ogre_1_1_matrix4.html" target="_top" xlink:title="Transform specialization for projective &#45; encapsulating a 4x4 Matrix. ">
<polygon fill="none" stroke="#000000" points="146,-.5 146,-19.5 222,-19.5 222,-.5 146,-.5"/>
<text text-anchor="middle" x="184" y="-7.5" font-family="Helvetica,sans-Serif" font-size="10.00" fill="#000000">Ogre::Matrix4</text>
</a>
</g>
</g>
<!-- Node0&#45;&gt;Node2 -->
<g id="edge2" class="edge">
<title>Node0&#45;&gt;Node2</title>
<path fill="none" stroke="#191970" d="M120.0338,-19.4214C128.8747,-18.1192 137.7023,-16.819 145.852,-15.6187"/>
<polygon fill="#191970" stroke="#191970" points="119.465,-15.9673 110.0818,-20.8872 120.4851,-22.8926 119.465,-15.9673"/>
</g>
</g>
</svg>
