<?xml version="1.0" encoding="UTF-8" standalone="no"?>
<!DOCTYPE svg PUBLIC "-//W3C//DTD SVG 1.1//EN"
 "http://www.w3.org/Graphics/SVG/1.1/DTD/svg11.dtd">
<!-- Generated by graphviz version 2.40.1 (20161225.0304)
 -->
<!-- Title: Graphical Class Hierarchy Pages: 1 -->
<svg width="368pt" height="186pt"
 viewBox="0.00 0.00 368.00 186.00" xmlns="http://www.w3.org/2000/svg" xmlns:xlink="http://www.w3.org/1999/xlink">
<g id="graph0" class="graph" transform="scale(1 1) rotate(0) translate(4 182)">
<title>Graphical Class Hierarchy</title>
<!-- Node733 -->
<g id="node1" class="node">
<title>Node733</title>
<g id="a_node1"><a xlink:href="class_ogre_1_1_g_l_s_l_program_manager_common.html" target="_top" xlink:title="Ogre assumes that there are separate programs to deal with but GLSL has one program object that repre...">
<polygon fill="none" stroke="#000000" points="12.5,-98.5 12.5,-128.5 155.5,-128.5 155.5,-98.5 12.5,-98.5"/>
<text text-anchor="start" x="20.5" y="-116.5" font-family="Helvetica,sans-Serif" font-size="10.00" fill="#000000">Ogre::GLSLProgramManager</text>
<text text-anchor="middle" x="84" y="-105.5" font-family="Helvetica,sans-Serif" font-size="10.00" fill="#000000">Common</text>
</a>
</g>
</g>
<!-- Node110 -->
<g id="node2" class="node">
<title>Node110</title>
<g id="a_node2"><a xlink:href="class_ogre_1_1_g_l_s_l_1_1_g_l_s_l_link_program_manager.html" target="_top" xlink:title="Ogre::GLSL::GLSLLinkProgram\lManager">
<polygon fill="none" stroke="#000000" points="205,-122.5 205,-152.5 359,-152.5 359,-122.5 205,-122.5"/>
<text text-anchor="start" x="213" y="-140.5" font-family="Helvetica,sans-Serif" font-size="10.00" fill="#000000">Ogre::GLSL::GLSLLinkProgram</text>
<text text-anchor="middle" x="282" y="-129.5" font-family="Helvetica,sans-Serif" font-size="10.00" fill="#000000">Manager</text>
</a>
</g>
</g>
<!-- Node733&#45;&gt;Node110 -->
<g id="edge1" class="edge">
<title>Node733&#45;&gt;Node110</title>
<path fill="none" stroke="#191970" d="M165.9666,-123.4353C178.8172,-124.993 192.0626,-126.5985 204.8013,-128.1426"/>
<polygon fill="#191970" stroke="#191970" points="166.111,-119.9273 155.7625,-122.1985 165.2686,-126.8765 166.111,-119.9273"/>
</g>
<!-- Node112 -->
<g id="node3" class="node">
<title>Node112</title>
<g id="a_node3"><a xlink:href="class_ogre_1_1_g_l_s_l_e_s_program_manager.html" target="_top" xlink:title="Ogre assumes that there are separate vertex and fragment programs to deal with but GLSL ES has one pr...">
<polygon fill="none" stroke="#000000" points="204,-69 204,-88 360,-88 360,-69 204,-69"/>
<text text-anchor="middle" x="282" y="-76" font-family="Helvetica,sans-Serif" font-size="10.00" fill="#000000">Ogre::GLSLESProgramManager</text>
</a>
</g>
</g>
<!-- Node733&#45;&gt;Node112 -->
<g id="edge2" class="edge">
<title>Node733&#45;&gt;Node112</title>
<path fill="none" stroke="#191970" d="M165.6804,-99.0616C186.7597,-95.3354 208.9203,-91.4181 228.1776,-88.0141"/>
<polygon fill="#191970" stroke="#191970" points="165.0006,-95.6274 155.7625,-100.8147 166.2191,-102.5205 165.0006,-95.6274"/>
</g>
<!-- Node1 -->
<g id="node4" class="node">
<title>Node1</title>
<g id="a_node4"><a xlink:href="class_ogre_1_1_g_l_s_l_program_manager.html" target="_top" xlink:title="Ogre assumes that there are separate vertex and fragment programs to deal with but GLSL has one progr...">
<polygon fill="none" stroke="#000000" points="210.5,-26 210.5,-45 353.5,-45 353.5,-26 210.5,-26"/>
<text text-anchor="middle" x="282" y="-33" font-family="Helvetica,sans-Serif" font-size="10.00" fill="#000000">Ogre::GLSLProgramManager</text>
</a>
</g>
</g>
<!-- Node733&#45;&gt;Node1 -->
<g id="edge3" class="edge">
<title>Node733&#45;&gt;Node1</title>
<path fill="none" stroke="#191970" d="M157.0277,-94.7032C160.7999,-93.0935 164.4807,-91.3615 168,-89.5 186.4106,-79.7621 185.6886,-69.4233 204,-59.5 215.211,-53.4245 228.1798,-48.6546 240.2847,-45.0231"/>
<polygon fill="#191970" stroke="#191970" points="155.5238,-91.5338 147.503,-98.456 158.0899,-98.0465 155.5238,-91.5338"/>
</g>
<!-- Node111 -->
<g id="node5" class="node">
<title>Node111</title>
<g id="a_node5"><a xlink:href="class_ogre_1_1_singleton.html" target="_top" xlink:title="Ogre::Singleton\&lt; GLSLESProgram\lManager \&gt;">
<polygon fill="none" stroke="#000000" points="0,-49.5 0,-79.5 168,-79.5 168,-49.5 0,-49.5"/>
<text text-anchor="start" x="8" y="-67.5" font-family="Helvetica,sans-Serif" font-size="10.00" fill="#000000">Ogre::Singleton&lt; GLSLESProgram</text>
<text text-anchor="middle" x="84" y="-56.5" font-family="Helvetica,sans-Serif" font-size="10.00" fill="#000000">Manager &gt;</text>
</a>
</g>
</g>
<!-- Node111&#45;&gt;Node112 -->
<g id="edge4" class="edge">
<title>Node111&#45;&gt;Node112</title>
<path fill="none" stroke="#191970" d="M178.2559,-71.1646C186.8051,-71.769 195.4016,-72.3769 203.7896,-72.97"/>
<polygon fill="#191970" stroke="#191970" points="178.4789,-67.6717 168.2569,-70.4576 177.9851,-74.6542 178.4789,-67.6717"/>
</g>
<!-- Node109 -->
<g id="node6" class="node">
<title>Node109</title>
<g id="a_node6"><a xlink:href="class_ogre_1_1_singleton.html" target="_top" xlink:title="Ogre::Singleton\&lt; GLSLLink\lProgramManager \&gt;">
<polygon fill="none" stroke="#000000" points="16,-147.5 16,-177.5 152,-177.5 152,-147.5 16,-147.5"/>
<text text-anchor="start" x="24" y="-165.5" font-family="Helvetica,sans-Serif" font-size="10.00" fill="#000000">Ogre::Singleton&lt; GLSLLink</text>
<text text-anchor="middle" x="84" y="-154.5" font-family="Helvetica,sans-Serif" font-size="10.00" fill="#000000">ProgramManager &gt;</text>
</a>
</g>
</g>
<!-- Node109&#45;&gt;Node110 -->
<g id="edge5" class="edge">
<title>Node109&#45;&gt;Node110</title>
<path fill="none" stroke="#191970" d="M162.2405,-152.6211C176.2765,-150.8489 190.8953,-149.0031 204.8988,-147.235"/>
<polygon fill="#191970" stroke="#191970" points="161.6231,-149.1712 152.1404,-153.8964 162.5001,-156.1161 161.6231,-149.1712"/>
</g>
<!-- Node0 -->
<g id="node7" class="node">
<title>Node0</title>
<g id="a_node7"><a xlink:href="class_ogre_1_1_singleton.html" target="_top" xlink:title="Ogre::Singleton\&lt; GLSLProgram\lManager \&gt;">
<polygon fill="none" stroke="#000000" points="6.5,-.5 6.5,-30.5 161.5,-30.5 161.5,-.5 6.5,-.5"/>
<text text-anchor="start" x="14.5" y="-18.5" font-family="Helvetica,sans-Serif" font-size="10.00" fill="#000000">Ogre::Singleton&lt; GLSLProgram</text>
<text text-anchor="middle" x="84" y="-7.5" font-family="Helvetica,sans-Serif" font-size="10.00" fill="#000000">Manager &gt;</text>
</a>
</g>
</g>
<!-- Node0&#45;&gt;Node1 -->
<g id="edge6" class="edge">
<title>Node0&#45;&gt;Node1</title>
<path fill="none" stroke="#191970" d="M171.9211,-24.3809C184.7711,-25.6789 197.8732,-27.0023 210.3469,-28.2623"/>
<polygon fill="#191970" stroke="#191970" points="171.9877,-20.8699 161.6866,-23.3471 171.2842,-27.8345 171.9877,-20.8699"/>
</g>
</g>
</svg>
