<?xml version="1.0" encoding="UTF-8" standalone="no"?>
<!DOCTYPE svg PUBLIC "-//W3C//DTD SVG 1.1//EN"
 "http://www.w3.org/Graphics/SVG/1.1/DTD/svg11.dtd">
<!-- Generated by graphviz version 2.40.1 (20161225.0304)
 -->
<!-- Title: Graphical Class Hierarchy Pages: 1 -->
<svg width="526pt" height="356pt"
 viewBox="0.00 0.00 526.00 356.00" xmlns="http://www.w3.org/2000/svg" xmlns:xlink="http://www.w3.org/1999/xlink">
<g id="graph0" class="graph" transform="scale(1 1) rotate(0) translate(4 352)">
<title>Graphical Class Hierarchy</title>
<!-- Node0 -->
<g id="node1" class="node">
<title>Node0</title>
<g id="a_node1"><a xlink:href="class_ogre_1_1_volume_1_1_source.html" target="_top" xlink:title="Abstract class defining the density function. ">
<polygon fill="none" stroke="#000000" points="0,-202.5 0,-221.5 113,-221.5 113,-202.5 0,-202.5"/>
<text text-anchor="middle" x="56.5" y="-209.5" font-family="Helvetica,sans-Serif" font-size="10.00" fill="#000000">Ogre::Volume::Source</text>
</a>
</g>
</g>
<!-- Node1 -->
<g id="node2" class="node">
<title>Node1</title>
<g id="a_node2"><a xlink:href="class_ogre_1_1_volume_1_1_cache_source.html" target="_top" xlink:title="A caching Source. ">
<polygon fill="none" stroke="#000000" points="161,-328.5 161,-347.5 303,-347.5 303,-328.5 161,-328.5"/>
<text text-anchor="middle" x="232" y="-335.5" font-family="Helvetica,sans-Serif" font-size="10.00" fill="#000000">Ogre::Volume::CacheSource</text>
</a>
</g>
</g>
<!-- Node0&#45;&gt;Node1 -->
<g id="edge1" class="edge">
<title>Node0&#45;&gt;Node1</title>
<path fill="none" stroke="#191970" d="M67.186,-230.4233C82.241,-254.6574 112.0324,-296.7653 149,-319 155.4605,-322.8858 162.641,-325.9774 169.9983,-328.437"/>
<polygon fill="#191970" stroke="#191970" points="70.1497,-228.5604 61.9873,-221.8058 64.1559,-232.1763 70.1497,-228.5604"/>
</g>
<!-- Node2 -->
<g id="node3" class="node">
<title>Node2</title>
<g id="a_node3"><a xlink:href="class_ogre_1_1_volume_1_1_c_s_g_cube_source.html" target="_top" xlink:title="A not rotated cube. ">
<polygon fill="none" stroke="#000000" points="153,-290.5 153,-309.5 311,-309.5 311,-290.5 153,-290.5"/>
<text text-anchor="middle" x="232" y="-297.5" font-family="Helvetica,sans-Serif" font-size="10.00" fill="#000000">Ogre::Volume::CSGCubeSource</text>
</a>
</g>
</g>
<!-- Node0&#45;&gt;Node2 -->
<g id="edge2" class="edge">
<title>Node0&#45;&gt;Node2</title>
<path fill="none" stroke="#191970" d="M74.1137,-228.7167C91.7203,-244.5112 120.2433,-267.7081 149,-281 157.3194,-284.8454 166.4774,-287.9426 175.5799,-290.4285"/>
<polygon fill="#191970" stroke="#191970" points="76.1287,-225.8155 66.3942,-221.6335 71.3961,-230.9733 76.1287,-225.8155"/>
</g>
<!-- Node3 -->
<g id="node4" class="node">
<title>Node3</title>
<g id="a_node4"><a xlink:href="class_ogre_1_1_volume_1_1_c_s_g_operation_source.html" target="_top" xlink:title="Abstract operation volume source holding two sources as operants. ">
<polygon fill="none" stroke="#000000" points="159,-241 159,-271 305,-271 305,-241 159,-241"/>
<text text-anchor="start" x="167" y="-259" font-family="Helvetica,sans-Serif" font-size="10.00" fill="#000000">Ogre::Volume::CSGOperation</text>
<text text-anchor="middle" x="232" y="-248" font-family="Helvetica,sans-Serif" font-size="10.00" fill="#000000">Source</text>
</a>
</g>
</g>
<!-- Node0&#45;&gt;Node3 -->
<g id="edge3" class="edge">
<title>Node0&#45;&gt;Node3</title>
<path fill="none" stroke="#191970" d="M104.4679,-224.0261C125.2852,-229.2453 149.8915,-235.4144 171.9097,-240.9346"/>
<polygon fill="#191970" stroke="#191970" points="105.1319,-220.5843 94.5809,-221.5473 103.4295,-227.3742 105.1319,-220.5843"/>
</g>
<!-- Node7 -->
<g id="node8" class="node">
<title>Node7</title>
<g id="a_node8"><a xlink:href="class_ogre_1_1_volume_1_1_c_s_g_plane_source.html" target="_top" xlink:title="A plane. ">
<polygon fill="none" stroke="#000000" points="152,-202.5 152,-221.5 312,-221.5 312,-202.5 152,-202.5"/>
<text text-anchor="middle" x="232" y="-209.5" font-family="Helvetica,sans-Serif" font-size="10.00" fill="#000000">Ogre::Volume::CSGPlaneSource</text>
</a>
</g>
</g>
<!-- Node0&#45;&gt;Node7 -->
<g id="edge7" class="edge">
<title>Node0&#45;&gt;Node7</title>
<path fill="none" stroke="#191970" d="M123.6775,-212C132.8498,-212 142.3398,-212 151.7154,-212"/>
<polygon fill="#191970" stroke="#191970" points="123.4799,-208.5001 113.4798,-212 123.4798,-215.5001 123.4799,-208.5001"/>
</g>
<!-- Node8 -->
<g id="node9" class="node">
<title>Node8</title>
<g id="a_node9"><a xlink:href="class_ogre_1_1_volume_1_1_c_s_g_sphere_source.html" target="_top" xlink:title="A sphere. ">
<polygon fill="none" stroke="#000000" points="149,-164.5 149,-183.5 315,-183.5 315,-164.5 149,-164.5"/>
<text text-anchor="middle" x="232" y="-171.5" font-family="Helvetica,sans-Serif" font-size="10.00" fill="#000000">Ogre::Volume::CSGSphereSource</text>
</a>
</g>
</g>
<!-- Node0&#45;&gt;Node8 -->
<g id="edge8" class="edge">
<title>Node0&#45;&gt;Node8</title>
<path fill="none" stroke="#191970" d="M110.7783,-200.2474C135.594,-194.8742 164.6108,-188.5914 188.0324,-183.5201"/>
<polygon fill="#191970" stroke="#191970" points="109.8189,-196.874 100.7861,-202.411 111.3003,-203.7154 109.8189,-196.874"/>
</g>
<!-- Node9 -->
<g id="node10" class="node">
<title>Node9</title>
<g id="a_node10"><a xlink:href="class_ogre_1_1_volume_1_1_c_s_g_unary_source.html" target="_top" xlink:title="Source which does a unary operation to another one. ">
<polygon fill="none" stroke="#000000" points="151.5,-126.5 151.5,-145.5 312.5,-145.5 312.5,-126.5 151.5,-126.5"/>
<text text-anchor="middle" x="232" y="-133.5" font-family="Helvetica,sans-Serif" font-size="10.00" fill="#000000">Ogre::Volume::CSGUnarySource</text>
</a>
</g>
</g>
<!-- Node0&#45;&gt;Node9 -->
<g id="edge9" class="edge">
<title>Node0&#45;&gt;Node9</title>
<path fill="none" stroke="#191970" d="M77.5209,-196.258C95.6039,-183.419 122.8372,-165.713 149,-155 158.3024,-151.1909 168.5191,-148.0648 178.508,-145.5276"/>
<polygon fill="#191970" stroke="#191970" points="74.9975,-193.7641 68.9529,-202.4655 79.1044,-199.4327 74.9975,-193.7641"/>
</g>
<!-- Node13 -->
<g id="node14" class="node">
<title>Node13</title>
<g id="a_node14"><a xlink:href="class_ogre_1_1_volume_1_1_grid_source.html" target="_top" xlink:title="A volume source from a discrete 3d grid. ">
<polygon fill="none" stroke="#000000" points="166.5,-44.5 166.5,-63.5 297.5,-63.5 297.5,-44.5 166.5,-44.5"/>
<text text-anchor="middle" x="232" y="-51.5" font-family="Helvetica,sans-Serif" font-size="10.00" fill="#000000">Ogre::Volume::GridSource</text>
</a>
</g>
</g>
<!-- Node0&#45;&gt;Node13 -->
<g id="edge13" class="edge">
<title>Node0&#45;&gt;Node13</title>
<path fill="none" stroke="#191970" d="M71.7837,-194.8144C89.5654,-175.1819 120.1782,-142.4831 149,-117 172.0398,-96.6291 201.0811,-75.5316 217.9931,-63.6557"/>
<polygon fill="#191970" stroke="#191970" points="69.0744,-192.5929 64.9911,-202.3693 74.2798,-197.2731 69.0744,-192.5929"/>
</g>
<!-- Node4 -->
<g id="node5" class="node">
<title>Node4</title>
<g id="a_node5"><a xlink:href="class_ogre_1_1_volume_1_1_c_s_g_difference_source.html" target="_top" xlink:title="Builds the difference between two sources. ">
<polygon fill="none" stroke="#000000" points="360,-290 360,-320 509,-320 509,-290 360,-290"/>
<text text-anchor="start" x="368" y="-308" font-family="Helvetica,sans-Serif" font-size="10.00" fill="#000000">Ogre::Volume::CSGDifference</text>
<text text-anchor="middle" x="434.5" y="-297" font-family="Helvetica,sans-Serif" font-size="10.00" fill="#000000">Source</text>
</a>
</g>
</g>
<!-- Node3&#45;&gt;Node4 -->
<g id="edge4" class="edge">
<title>Node3&#45;&gt;Node4</title>
<path fill="none" stroke="#191970" d="M303.924,-273.4038C326.3251,-278.8243 350.8221,-284.752 372.4846,-289.9938"/>
<polygon fill="#191970" stroke="#191970" points="304.6755,-269.9847 294.1329,-271.0346 303.0292,-276.7884 304.6755,-269.9847"/>
</g>
<!-- Node5 -->
<g id="node6" class="node">
<title>Node5</title>
<g id="a_node6"><a xlink:href="class_ogre_1_1_volume_1_1_c_s_g_intersection_source.html" target="_top" xlink:title="Builds the intersection between two sources. ">
<polygon fill="none" stroke="#000000" points="357,-241 357,-271 512,-271 512,-241 357,-241"/>
<text text-anchor="start" x="365" y="-259" font-family="Helvetica,sans-Serif" font-size="10.00" fill="#000000">Ogre::Volume::CSGIntersection</text>
<text text-anchor="middle" x="434.5" y="-248" font-family="Helvetica,sans-Serif" font-size="10.00" fill="#000000">Source</text>
</a>
</g>
</g>
<!-- Node3&#45;&gt;Node5 -->
<g id="edge5" class="edge">
<title>Node3&#45;&gt;Node5</title>
<path fill="none" stroke="#191970" d="M315.4456,-256C329.1013,-256 343.2032,-256 356.715,-256"/>
<polygon fill="#191970" stroke="#191970" points="315.1072,-252.5001 305.1071,-256 315.1071,-259.5001 315.1072,-252.5001"/>
</g>
<!-- Node6 -->
<g id="node7" class="node">
<title>Node6</title>
<g id="a_node7"><a xlink:href="class_ogre_1_1_volume_1_1_c_s_g_union_source.html" target="_top" xlink:title="Builds the union between two sources. ">
<polygon fill="none" stroke="#000000" points="354,-202.5 354,-221.5 515,-221.5 515,-202.5 354,-202.5"/>
<text text-anchor="middle" x="434.5" y="-209.5" font-family="Helvetica,sans-Serif" font-size="10.00" fill="#000000">Ogre::Volume::CSGUnionSource</text>
</a>
</g>
</g>
<!-- Node3&#45;&gt;Node6 -->
<g id="edge6" class="edge">
<title>Node3&#45;&gt;Node6</title>
<path fill="none" stroke="#191970" d="M310.9918,-238.8363C338.0963,-232.947 367.4395,-226.5712 390.7213,-221.5124"/>
<polygon fill="#191970" stroke="#191970" points="310.1514,-235.4372 301.1226,-240.9808 311.6378,-242.2776 310.1514,-235.4372"/>
</g>
<!-- Node10 -->
<g id="node11" class="node">
<title>Node10</title>
<g id="a_node11"><a xlink:href="class_ogre_1_1_volume_1_1_c_s_g_negate_source.html" target="_top" xlink:title="Negates the given volume. ">
<polygon fill="none" stroke="#000000" points="351,-164.5 351,-183.5 518,-183.5 518,-164.5 351,-164.5"/>
<text text-anchor="middle" x="434.5" y="-171.5" font-family="Helvetica,sans-Serif" font-size="10.00" fill="#000000">Ogre::Volume::CSGNegateSource</text>
</a>
</g>
</g>
<!-- Node9&#45;&gt;Node10 -->
<g id="edge10" class="edge">
<title>Node9&#45;&gt;Node10</title>
<path fill="none" stroke="#191970" d="M292.8466,-147.4181C321.8207,-152.8552 356.0752,-159.2832 383.6412,-164.4561"/>
<polygon fill="#191970" stroke="#191970" points="293.3119,-143.9444 282.8379,-145.54 292.0208,-150.8243 293.3119,-143.9444"/>
</g>
<!-- Node11 -->
<g id="node12" class="node">
<title>Node11</title>
<g id="a_node12"><a xlink:href="class_ogre_1_1_volume_1_1_c_s_g_noise_source.html" target="_top" xlink:title="Ogre::Volume::CSGNoiseSource">
<polygon fill="none" stroke="#000000" points="354,-126.5 354,-145.5 515,-145.5 515,-126.5 354,-126.5"/>
<text text-anchor="middle" x="434.5" y="-133.5" font-family="Helvetica,sans-Serif" font-size="10.00" fill="#000000">Ogre::Volume::CSGNoiseSource</text>
</a>
</g>
</g>
<!-- Node9&#45;&gt;Node11 -->
<g id="edge11" class="edge">
<title>Node9&#45;&gt;Node11</title>
<path fill="none" stroke="#191970" d="M322.8705,-136C333.1904,-136 343.6557,-136 353.8313,-136"/>
<polygon fill="#191970" stroke="#191970" points="322.6152,-132.5001 312.6152,-136 322.6152,-139.5001 322.6152,-132.5001"/>
</g>
<!-- Node12 -->
<g id="node13" class="node">
<title>Node12</title>
<g id="a_node13"><a xlink:href="class_ogre_1_1_volume_1_1_c_s_g_scale_source.html" target="_top" xlink:title="Scales the given volume source. ">
<polygon fill="none" stroke="#000000" points="354.5,-88.5 354.5,-107.5 514.5,-107.5 514.5,-88.5 354.5,-88.5"/>
<text text-anchor="middle" x="434.5" y="-95.5" font-family="Helvetica,sans-Serif" font-size="10.00" fill="#000000">Ogre::Volume::CSGScaleSource</text>
</a>
</g>
</g>
<!-- Node9&#45;&gt;Node12 -->
<g id="edge12" class="edge">
<title>Node9&#45;&gt;Node12</title>
<path fill="none" stroke="#191970" d="M292.8466,-124.5819C321.8207,-119.1448 356.0752,-112.7168 383.6412,-107.5439"/>
<polygon fill="#191970" stroke="#191970" points="292.0208,-121.1757 282.8379,-126.46 293.3119,-128.0556 292.0208,-121.1757"/>
</g>
<!-- Node14 -->
<g id="node15" class="node">
<title>Node14</title>
<g id="a_node15"><a xlink:href="class_ogre_1_1_volume_1_1_half_float_grid_source.html" target="_top" xlink:title="A volume source from a 16 Bit float 3D grid capable of loading volume serializations. ">
<polygon fill="none" stroke="#000000" points="364.5,-39 364.5,-69 504.5,-69 504.5,-39 364.5,-39"/>
<text text-anchor="start" x="372.5" y="-57" font-family="Helvetica,sans-Serif" font-size="10.00" fill="#000000">Ogre::Volume::HalfFloatGrid</text>
<text text-anchor="middle" x="434.5" y="-46" font-family="Helvetica,sans-Serif" font-size="10.00" fill="#000000">Source</text>
</a>
</g>
</g>
<!-- Node13&#45;&gt;Node14 -->
<g id="edge14" class="edge">
<title>Node13&#45;&gt;Node14</title>
<path fill="none" stroke="#191970" d="M307.8645,-54C326.3317,-54 346.0032,-54 364.1993,-54"/>
<polygon fill="#191970" stroke="#191970" points="307.746,-50.5001 297.7459,-54 307.7459,-57.5001 307.746,-50.5001"/>
</g>
<!-- Node15 -->
<g id="node16" class="node">
<title>Node15</title>
<g id="a_node16"><a xlink:href="class_ogre_1_1_volume_1_1_texture_source.html" target="_top" xlink:title="A volume source from a 3D texture. ">
<polygon fill="none" stroke="#000000" points="361.5,-.5 361.5,-19.5 507.5,-19.5 507.5,-.5 361.5,-.5"/>
<text text-anchor="middle" x="434.5" y="-7.5" font-family="Helvetica,sans-Serif" font-size="10.00" fill="#000000">Ogre::Volume::TextureSource</text>
</a>
</g>
</g>
<!-- Node13&#45;&gt;Node15 -->
<g id="edge15" class="edge">
<title>Node13&#45;&gt;Node15</title>
<path fill="none" stroke="#191970" d="M285.8096,-42.308C318.5669,-35.1904 359.8841,-26.2128 390.6463,-19.5287"/>
<polygon fill="#191970" stroke="#191970" points="284.9683,-38.9091 275.9395,-44.4527 286.4546,-45.7495 284.9683,-38.9091"/>
</g>
</g>
</svg>
