<?xml version="1.0" encoding="UTF-8" standalone="no"?><svg xmlns="http://www.w3.org/2000/svg" xmlns:xlink="http://www.w3.org/1999/xlink" contentScriptType="application/ecmascript" contentStyleType="text/css" height="630px" preserveAspectRatio="none" style="width:1200px;height:630px;" version="1.1" viewBox="0 0 1200 630" width="1200px" zoomAndPan="magnify"><defs><filter height="300%" id="fuspstulmk19t" width="300%" x="-1" y="-1"><feGaussianBlur result="blurOut" stdDeviation="2.0"/><feColorMatrix in="blurOut" result="blurOut2" type="matrix" values="0 0 0 0 0 0 0 0 0 0 0 0 0 0 0 0 0 0 .4 0"/><feOffset dx="4.0" dy="4.0" in="blurOut2" result="blurOut3"/><feBlend in="SourceGraphic" in2="blurOut3" mode="normal"/></filter></defs><g><rect fill="#FFFFFF" filter="url(#fuspstulmk19t)" height="113.3984" style="stroke: #A80036; stroke-width: 1.0;" width="10" x="329.5" y="98.4297"/><rect fill="#FFFFFF" filter="url(#fuspstulmk19t)" height="100.3984" style="stroke: #A80036; stroke-width: 1.0;" width="10" x="621.5" y="240.9609"/><rect fill="#FFFFFF" filter="url(#fuspstulmk19t)" height="151.6641" style="stroke: #A80036; stroke-width: 1.0;" width="10" x="947" y="457.8906"/><rect fill="#FFFFFF" filter="url(#fuspstulmk19t)" height="29.1328" style="stroke: #A80036; stroke-width: 1.0;" width="10" x="1130" y="529.1563"/><line style="stroke: #A80036; stroke-width: 1.0; stroke-dasharray: 5.0,5.0;" x1="69" x2="69" y1="38.2969" y2="618.5547"/><line style="stroke: #A80036; stroke-width: 1.0; stroke-dasharray: 5.0,5.0;" x1="208" x2="208" y1="38.2969" y2="618.5547"/><line style="stroke: #A80036; stroke-width: 1.0; stroke-dasharray: 5.0,5.0;" x1="334" x2="334" y1="38.2969" y2="618.5547"/><line style="stroke: #A80036; stroke-width: 1.0; stroke-dasharray: 5.0,5.0;" x1="492" x2="492" y1="38.2969" y2="618.5547"/><line style="stroke: #A80036; stroke-width: 1.0; stroke-dasharray: 5.0,5.0;" x1="626" x2="626" y1="38.2969" y2="618.5547"/><line style="stroke: #A80036; stroke-width: 1.0; stroke-dasharray: 5.0,5.0;" x1="828" x2="828" y1="38.2969" y2="618.5547"/><line style="stroke: #A80036; stroke-width: 1.0; stroke-dasharray: 5.0,5.0;" x1="952" x2="952" y1="38.2969" y2="618.5547"/><line style="stroke: #A80036; stroke-width: 1.0; stroke-dasharray: 5.0,5.0;" x1="1135" x2="1135" y1="38.2969" y2="618.5547"/><rect fill="#FEFECE" filter="url(#fuspstulmk19t)" height="30.2969" style="stroke: #A80036; stroke-width: 1.5;" width="118" x="8" y="3"/><text fill="#000000" font-family="sans-serif" font-size="14" lengthAdjust="spacingAndGlyphs" textLength="104" x="15" y="22.9951">SceneManager</text><rect fill="#FEFECE" filter="url(#fuspstulmk19t)" height="30.2969" style="stroke: #A80036; stroke-width: 1.5;" width="133" x="140" y="3"/><text fill="#000000" font-family="sans-serif" font-size="14" lengthAdjust="spacingAndGlyphs" textLength="119" x="147" y="22.9951">ShaderGenerator</text><rect fill="#FEFECE" filter="url(#fuspstulmk19t)" height="30.2969" style="stroke: #A80036; stroke-width: 1.5;" width="91" x="287" y="3"/><text fill="#000000" font-family="sans-serif" font-size="14" lengthAdjust="spacingAndGlyphs" textLength="77" x="294" y="22.9951">SGScheme</text><rect fill="#FEFECE" filter="url(#fuspstulmk19t)" height="30.2969" style="stroke: #A80036; stroke-width: 1.5;" width="99" x="441" y="3"/><text fill="#000000" font-family="sans-serif" font-size="14" lengthAdjust="spacingAndGlyphs" textLength="85" x="448" y="22.9951">SGTechniqe</text><rect fill="#FEFECE" filter="url(#fuspstulmk19t)" height="30.2969" style="stroke: #A80036; stroke-width: 1.5;" width="67" x="591" y="3"/><text fill="#000000" font-family="sans-serif" font-size="14" lengthAdjust="spacingAndGlyphs" textLength="53" x="598" y="22.9951">SGPass</text><rect fill="#FEFECE" filter="url(#fuspstulmk19t)" height="30.2969" style="stroke: #A80036; stroke-width: 1.5;" width="87" x="783" y="3"/><text fill="#000000" font-family="sans-serif" font-size="14" lengthAdjust="spacingAndGlyphs" textLength="73" x="790" y="22.9951">FFPBuilder</text><rect fill="#FEFECE" filter="url(#fuspstulmk19t)" height="30.2969" style="stroke: #A80036; stroke-width: 1.5;" width="132" x="884" y="3"/><text fill="#000000" font-family="sans-serif" font-size="14" lengthAdjust="spacingAndGlyphs" textLength="118" x="891" y="22.9951">ProgramManager</text><rect fill="#FEFECE" filter="url(#fuspstulmk19t)" height="30.2969" style="stroke: #A80036; stroke-width: 1.5;" width="112" x="1077" y="3"/><text fill="#000000" font-family="sans-serif" font-size="14" lengthAdjust="spacingAndGlyphs" textLength="98" x="1084" y="22.9951">ProgramWriter</text><rect fill="#FFFFFF" filter="url(#fuspstulmk19t)" height="113.3984" style="stroke: #A80036; stroke-width: 1.0;" width="10" x="329.5" y="98.4297"/><rect fill="#FFFFFF" filter="url(#fuspstulmk19t)" height="100.3984" style="stroke: #A80036; stroke-width: 1.0;" width="10" x="621.5" y="240.9609"/><rect fill="#FFFFFF" filter="url(#fuspstulmk19t)" height="151.6641" style="stroke: #A80036; stroke-width: 1.0;" width="10" x="947" y="457.8906"/><rect fill="#FFFFFF" filter="url(#fuspstulmk19t)" height="29.1328" style="stroke: #A80036; stroke-width: 1.0;" width="10" x="1130" y="529.1563"/><polygon fill="#A80036" points="196.5,65.2969,206.5,69.2969,196.5,73.2969,200.5,69.2969" style="stroke: #A80036; stroke-width: 1.0;"/><line style="stroke: #A80036; stroke-width: 1.0;" x1="69" x2="202.5" y1="69.2969" y2="69.2969"/><text fill="#000000" font-family="sans-serif" font-size="13" lengthAdjust="spacingAndGlyphs" textLength="114" x="76" y="64.3638">preFindVisObjects</text><polygon fill="#A80036" points="317.5,94.4297,327.5,98.4297,317.5,102.4297,321.5,98.4297" style="stroke: #A80036; stroke-width: 1.0;"/><line style="stroke: #A80036; stroke-width: 1.0;" x1="208.5" x2="323.5" y1="98.4297" y2="98.4297"/><text fill="#000000" font-family="sans-serif" font-size="13" lengthAdjust="spacingAndGlyphs" textLength="50" x="215.5" y="93.4966">validate</text><line style="stroke: #A80036; stroke-width: 1.0;" x1="339.5" x2="381.5" y1="127.6953" y2="127.6953"/><line style="stroke: #A80036; stroke-width: 1.0;" x1="381.5" x2="381.5" y1="127.6953" y2="140.6953"/><line style="stroke: #A80036; stroke-width: 1.0;" x1="340.5" x2="381.5" y1="140.6953" y2="140.6953"/><polygon fill="#A80036" points="350.5,136.6953,340.5,140.6953,350.5,144.6953,346.5,140.6953" style="stroke: #A80036; stroke-width: 1.0;"/><text fill="#000000" font-family="sans-serif" font-size="13" lengthAdjust="spacingAndGlyphs" textLength="134" x="346.5" y="122.6294">syncWithSceneLights</text><line style="stroke: #A80036; stroke-width: 1.0;" x1="339.5" x2="381.5" y1="169.8281" y2="169.8281"/><line style="stroke: #A80036; stroke-width: 1.0;" x1="381.5" x2="381.5" y1="169.8281" y2="182.8281"/><line style="stroke: #A80036; stroke-width: 1.0;" x1="340.5" x2="381.5" y1="182.8281" y2="182.8281"/><polygon fill="#A80036" points="350.5,178.8281,340.5,182.8281,350.5,186.8281,346.5,182.8281" style="stroke: #A80036; stroke-width: 1.0;"/><text fill="#000000" font-family="sans-serif" font-size="13" lengthAdjust="spacingAndGlyphs" textLength="119" x="346.5" y="164.7622">syncWithSceneFog</text><polygon fill="#A80036" points="480.5,207.8281,490.5,211.8281,480.5,215.8281,484.5,211.8281" style="stroke: #A80036; stroke-width: 1.0;"/><line style="stroke: #A80036; stroke-width: 1.0;" x1="334.5" x2="486.5" y1="211.8281" y2="211.8281"/><text fill="#000000" font-family="sans-serif" font-size="13" lengthAdjust="spacingAndGlyphs" textLength="110" x="341.5" y="206.895">buildRenderState</text><polygon fill="#A80036" points="609.5,236.9609,619.5,240.9609,609.5,244.9609,613.5,240.9609" style="stroke: #A80036; stroke-width: 1.0;"/><line style="stroke: #A80036; stroke-width: 1.0;" x1="492.5" x2="615.5" y1="240.9609" y2="240.9609"/><text fill="#000000" font-family="sans-serif" font-size="13" lengthAdjust="spacingAndGlyphs" textLength="110" x="499.5" y="236.0278">buildRenderState</text><polygon fill="#A80036" points="816.5,266.0938,826.5,270.0938,816.5,274.0938,820.5,270.0938" style="stroke: #A80036; stroke-width: 1.0;"/><line style="stroke: #A80036; stroke-width: 1.0;" x1="631.5" x2="822.5" y1="270.0938" y2="270.0938"/><text fill="#000000" font-family="sans-serif" font-size="13" lengthAdjust="spacingAndGlyphs" textLength="132" x="638.5" y="265.1606">buildFFPRenderState</text><line style="stroke: #A80036; stroke-width: 1.0;" x1="631.5" x2="673.5" y1="299.3594" y2="299.3594"/><line style="stroke: #A80036; stroke-width: 1.0;" x1="673.5" x2="673.5" y1="299.3594" y2="312.3594"/><line style="stroke: #A80036; stroke-width: 1.0;" x1="632.5" x2="673.5" y1="312.3594" y2="312.3594"/><polygon fill="#A80036" points="642.5,308.3594,632.5,312.3594,642.5,316.3594,638.5,312.3594" style="stroke: #A80036; stroke-width: 1.0;"/><text fill="#000000" font-family="sans-serif" font-size="13" lengthAdjust="spacingAndGlyphs" textLength="178" x="638.5" y="294.2935">appendCustomRenderState</text><polygon fill="#A80036" points="219.5,337.3594,209.5,341.3594,219.5,345.3594,215.5,341.3594" style="stroke: #A80036; stroke-width: 1.0;"/><line style="stroke: #A80036; stroke-width: 1.0; stroke-dasharray: 2.0,2.0;" x1="213.5" x2="625.5" y1="341.3594" y2="341.3594"/><text fill="#000000" font-family="sans-serif" font-size="13" lengthAdjust="spacingAndGlyphs" textLength="147" x="225.5" y="336.4263">cacheFinalRenderState</text><polygon fill="#A80036" points="614.5,366.4922,624.5,370.4922,614.5,374.4922,618.5,370.4922" style="stroke: #A80036; stroke-width: 1.0;"/><line style="stroke: #A80036; stroke-width: 1.0;" x1="208.5" x2="620.5" y1="370.4922" y2="370.4922"/><text fill="#000000" font-family="sans-serif" font-size="13" lengthAdjust="spacingAndGlyphs" textLength="123" x="215.5" y="365.5591">return RenderState</text><polygon fill="#A80036" points="480.5,395.625,490.5,399.625,480.5,403.625,484.5,399.625" style="stroke: #A80036; stroke-width: 1.0;"/><line style="stroke: #A80036; stroke-width: 1.0;" x1="334.5" x2="486.5" y1="399.625" y2="399.625"/><text fill="#000000" font-family="sans-serif" font-size="13" lengthAdjust="spacingAndGlyphs" textLength="109" x="341.5" y="394.6919">acquirePrograms</text><polygon fill="#A80036" points="614.5,424.7578,624.5,428.7578,614.5,432.7578,618.5,428.7578" style="stroke: #A80036; stroke-width: 1.0;"/><line style="stroke: #A80036; stroke-width: 1.0;" x1="492.5" x2="620.5" y1="428.7578" y2="428.7578"/><text fill="#000000" font-family="sans-serif" font-size="13" lengthAdjust="spacingAndGlyphs" textLength="109" x="499.5" y="423.8247">acquirePrograms</text><polygon fill="#A80036" points="935,453.8906,945,457.8906,935,461.8906,939,457.8906" style="stroke: #A80036; stroke-width: 1.0;"/><line style="stroke: #A80036; stroke-width: 1.0;" x1="626.5" x2="941" y1="457.8906" y2="457.8906"/><text fill="#000000" font-family="sans-serif" font-size="13" lengthAdjust="spacingAndGlyphs" textLength="109" x="633.5" y="452.9575">acquirePrograms</text><line style="stroke: #A80036; stroke-width: 1.0;" x1="957" x2="999" y1="487.1563" y2="487.1563"/><line style="stroke: #A80036; stroke-width: 1.0;" x1="999" x2="999" y1="487.1563" y2="500.1563"/><line style="stroke: #A80036; stroke-width: 1.0;" x1="958" x2="999" y1="500.1563" y2="500.1563"/><polygon fill="#A80036" points="968,496.1563,958,500.1563,968,504.1563,964,500.1563" style="stroke: #A80036; stroke-width: 1.0;"/><text fill="#000000" font-family="sans-serif" font-size="13" lengthAdjust="spacingAndGlyphs" textLength="128" x="964" y="482.0903">createCpuPrograms</text><polygon fill="#A80036" points="1118,525.1563,1128,529.1563,1118,533.1563,1122,529.1563" style="stroke: #A80036; stroke-width: 1.0;"/><line style="stroke: #A80036; stroke-width: 1.0;" x1="957" x2="1124" y1="529.1563" y2="529.1563"/><text fill="#000000" font-family="sans-serif" font-size="13" lengthAdjust="spacingAndGlyphs" textLength="154" x="964" y="524.2231">writeShaderSourceCode</text><polygon fill="#A80036" points="968,554.2891,958,558.2891,968,562.2891,964,558.2891" style="stroke: #A80036; stroke-width: 1.0;"/><line style="stroke: #A80036; stroke-width: 1.0; stroke-dasharray: 2.0,2.0;" x1="962" x2="1134" y1="558.2891" y2="558.2891"/><text fill="#000000" font-family="sans-serif" font-size="13" lengthAdjust="spacingAndGlyphs" textLength="119" x="974" y="553.356">return sourceCode</text><line style="stroke: #A80036; stroke-width: 1.0;" x1="957" x2="999" y1="587.5547" y2="587.5547"/><line style="stroke: #A80036; stroke-width: 1.0;" x1="999" x2="999" y1="587.5547" y2="600.5547"/><line style="stroke: #A80036; stroke-width: 1.0;" x1="958" x2="999" y1="600.5547" y2="600.5547"/><polygon fill="#A80036" points="968,596.5547,958,600.5547,968,604.5547,964,600.5547" style="stroke: #A80036; stroke-width: 1.0;"/><text fill="#000000" font-family="sans-serif" font-size="13" lengthAdjust="spacingAndGlyphs" textLength="129" x="964" y="582.4888">createGpuPrograms</text><!--
@startuml
hide footbox

SceneManager -> ShaderGenerator: preFindVisObjects
ShaderGenerator -> SGScheme: validate
activate SGScheme
SGScheme -> SGScheme: syncWithSceneLights
SGScheme -> SGScheme: syncWithSceneFog
SGScheme -> SGTechniqe: buildRenderState
deactivate SGScheme
SGTechniqe -> SGPass: buildRenderState
activate SGPass
SGPass -> FFPBuilder: buildFFPRenderState
SGPass -> SGPass: appendCustomRenderState
SGPass - -> ShaderGenerator: cacheFinalRenderState
deactivate SGPass
ShaderGenerator -> SGPass: return RenderState
SGScheme -> SGTechniqe: acquirePrograms
SGTechniqe -> SGPass: acquirePrograms
SGPass -> ProgramManager: acquirePrograms
activate ProgramManager
ProgramManager -> ProgramManager: createCpuPrograms
ProgramManager -> ProgramWriter: writeShaderSourceCode
activate ProgramWriter
ProgramWriter - -> ProgramManager: return sourceCode
deactivate ProgramWriter
ProgramManager -> ProgramManager: createGpuPrograms

@enduml

PlantUML version 1.2017.15(Mon Jul 03 18:45:34 CEST 2017)
(GPL source distribution)
Java Runtime: OpenJDK Runtime Environment
JVM: OpenJDK 64-Bit Server VM
Java Version: 1.8.0_131-8u131-b11-2ubuntu1.16.04.3-b11
Operating System: Linux
OS Version: 4.10.0-32-generic
Default Encoding: UTF-8
Language: de
Country: DE
--></g></svg>