<?xml version="1.0" encoding="us-ascii" standalone="no"?><svg xmlns="http://www.w3.org/2000/svg" xmlns:xlink="http://www.w3.org/1999/xlink" contentStyleType="text/css" height="357px" preserveAspectRatio="none" style="width:702px;height:357px;" version="1.1" viewBox="0 0 702 357" width="702px" zoomAndPan="magnify"><defs/><g><!--class SceneManager--><g id="elem_SceneManager"><rect fill="#F1F1F1" height="32" id="SceneManager" rx="2.5" ry="2.5" style="stroke:#181818;stroke-width:0.5;" width="136" x="108" y="7"/><ellipse cx="123" cy="23" fill="#ADD1B2" rx="11" ry="11" style="stroke:#181818;stroke-width:1.0;"/><path d="M125.9688,28.6406 Q125.3906,28.9375 124.75,29.0781 Q124.1094,29.2344 123.4063,29.2344 Q120.9063,29.2344 119.5781,27.5938 Q118.2656,25.9375 118.2656,22.8125 Q118.2656,19.6875 119.5781,18.0313 Q120.9063,16.375 123.4063,16.375 Q124.1094,16.375 124.75,16.5313 Q125.4063,16.6875 125.9688,16.9844 L125.9688,19.7031 Q125.3438,19.125 124.75,18.8594 Q124.1563,18.5781 123.5313,18.5781 Q122.1875,18.5781 121.5,19.6563 Q120.8125,20.7188 120.8125,22.8125 Q120.8125,24.9063 121.5,25.9844 Q122.1875,27.0469 123.5313,27.0469 Q124.1563,27.0469 124.75,26.7813 Q125.3438,26.5 125.9688,25.9219 L125.9688,28.6406 Z " fill="#000000"/><text fill="#000000" font-family="sans-serif" font-size="14" lengthAdjust="spacing" textLength="104" x="137" y="27.8467">SceneManager</text></g><!--class AnimationContainer--><g id="elem_AnimationContainer"><rect fill="#F1F1F1" height="32" id="AnimationContainer" rx="2.5" ry="2.5" style="stroke:#181818;stroke-width:0.5;" width="167" x="242.5" y="100"/><ellipse cx="257.5" cy="116" fill="#ADD1B2" rx="11" ry="11" style="stroke:#181818;stroke-width:1.0;"/><path d="M260.4688,121.6406 Q259.8906,121.9375 259.25,122.0781 Q258.6094,122.2344 257.9063,122.2344 Q255.4063,122.2344 254.0781,120.5938 Q252.7656,118.9375 252.7656,115.8125 Q252.7656,112.6875 254.0781,111.0313 Q255.4063,109.375 257.9063,109.375 Q258.6094,109.375 259.25,109.5313 Q259.9063,109.6875 260.4688,109.9844 L260.4688,112.7031 Q259.8438,112.125 259.25,111.8594 Q258.6563,111.5781 258.0313,111.5781 Q256.6875,111.5781 256,112.6563 Q255.3125,113.7188 255.3125,115.8125 Q255.3125,117.9063 256,118.9844 Q256.6875,120.0469 258.0313,120.0469 Q258.6563,120.0469 259.25,119.7813 Q259.8438,119.5 260.4688,118.9219 L260.4688,121.6406 Z " fill="#000000"/><text fill="#000000" font-family="sans-serif" font-size="14" lengthAdjust="spacing" textLength="135" x="271.5" y="120.8467">AnimationContainer</text></g><!--class Skeleton--><g id="elem_Skeleton"><rect fill="#F1F1F1" height="32" id="Skeleton" rx="2.5" ry="2.5" style="stroke:#181818;stroke-width:0.5;" width="93" x="279.5" y="7"/><ellipse cx="294.5" cy="23" fill="#ADD1B2" rx="11" ry="11" style="stroke:#181818;stroke-width:1.0;"/><path d="M297.4688,28.6406 Q296.8906,28.9375 296.25,29.0781 Q295.6094,29.2344 294.9063,29.2344 Q292.4063,29.2344 291.0781,27.5938 Q289.7656,25.9375 289.7656,22.8125 Q289.7656,19.6875 291.0781,18.0313 Q292.4063,16.375 294.9063,16.375 Q295.6094,16.375 296.25,16.5313 Q296.9063,16.6875 297.4688,16.9844 L297.4688,19.7031 Q296.8438,19.125 296.25,18.8594 Q295.6563,18.5781 295.0313,18.5781 Q293.6875,18.5781 293,19.6563 Q292.3125,20.7188 292.3125,22.8125 Q292.3125,24.9063 293,25.9844 Q293.6875,27.0469 295.0313,27.0469 Q295.6563,27.0469 296.25,26.7813 Q296.8438,26.5 297.4688,25.9219 L297.4688,28.6406 Z " fill="#000000"/><text fill="#000000" font-family="sans-serif" font-size="14" lengthAdjust="spacing" textLength="61" x="308.5" y="27.8467">Skeleton</text></g><!--class Mesh--><g id="elem_Mesh"><rect fill="#F1F1F1" height="32" id="Mesh" rx="2.5" ry="2.5" style="stroke:#181818;stroke-width:0.5;" width="70" x="408" y="7"/><ellipse cx="423" cy="23" fill="#ADD1B2" rx="11" ry="11" style="stroke:#181818;stroke-width:1.0;"/><path d="M425.9688,28.6406 Q425.3906,28.9375 424.75,29.0781 Q424.1094,29.2344 423.4063,29.2344 Q420.9063,29.2344 419.5781,27.5938 Q418.2656,25.9375 418.2656,22.8125 Q418.2656,19.6875 419.5781,18.0313 Q420.9063,16.375 423.4063,16.375 Q424.1094,16.375 424.75,16.5313 Q425.4063,16.6875 425.9688,16.9844 L425.9688,19.7031 Q425.3438,19.125 424.75,18.8594 Q424.1563,18.5781 423.5313,18.5781 Q422.1875,18.5781 421.5,19.6563 Q420.8125,20.7188 420.8125,22.8125 Q420.8125,24.9063 421.5,25.9844 Q422.1875,27.0469 423.5313,27.0469 Q424.1563,27.0469 424.75,26.7813 Q425.3438,26.5 425.9688,25.9219 L425.9688,28.6406 Z " fill="#000000"/><text fill="#000000" font-family="sans-serif" font-size="14" lengthAdjust="spacing" textLength="38" x="437" y="27.8467">Mesh</text></g><!--class Animation--><g id="elem_Animation"><rect fill="#F1F1F1" height="32" id="Animation" rx="2.5" ry="2.5" style="stroke:#181818;stroke-width:0.5;" width="100" x="276" y="209"/><ellipse cx="291" cy="225" fill="#ADD1B2" rx="11" ry="11" style="stroke:#181818;stroke-width:1.0;"/><path d="M293.9688,230.6406 Q293.3906,230.9375 292.75,231.0781 Q292.1094,231.2344 291.4063,231.2344 Q288.9063,231.2344 287.5781,229.5938 Q286.2656,227.9375 286.2656,224.8125 Q286.2656,221.6875 287.5781,220.0313 Q288.9063,218.375 291.4063,218.375 Q292.1094,218.375 292.75,218.5313 Q293.4063,218.6875 293.9688,218.9844 L293.9688,221.7031 Q293.3438,221.125 292.75,220.8594 Q292.1563,220.5781 291.5313,220.5781 Q290.1875,220.5781 289.5,221.6563 Q288.8125,222.7188 288.8125,224.8125 Q288.8125,226.9063 289.5,227.9844 Q290.1875,229.0469 291.5313,229.0469 Q292.1563,229.0469 292.75,228.7813 Q293.3438,228.5 293.9688,227.9219 L293.9688,230.6406 Z " fill="#000000"/><text fill="#000000" font-family="sans-serif" font-size="14" lengthAdjust="spacing" textLength="68" x="305" y="229.8467">Animation</text></g><!--class AnimationTrack--><g id="elem_AnimationTrack"><rect fill="#F1F1F1" height="32" id="AnimationTrack" rx="2.5" ry="2.5" style="stroke:#181818;stroke-width:0.5;" width="138" x="257" y="318"/><ellipse cx="272" cy="334" fill="#ADD1B2" rx="11" ry="11" style="stroke:#181818;stroke-width:1.0;"/><path d="M274.9688,339.6406 Q274.3906,339.9375 273.75,340.0781 Q273.1094,340.2344 272.4063,340.2344 Q269.9063,340.2344 268.5781,338.5938 Q267.2656,336.9375 267.2656,333.8125 Q267.2656,330.6875 268.5781,329.0313 Q269.9063,327.375 272.4063,327.375 Q273.1094,327.375 273.75,327.5313 Q274.4063,327.6875 274.9688,327.9844 L274.9688,330.7031 Q274.3438,330.125 273.75,329.8594 Q273.1563,329.5781 272.5313,329.5781 Q271.1875,329.5781 270.5,330.6563 Q269.8125,331.7188 269.8125,333.8125 Q269.8125,335.9063 270.5,336.9844 Q271.1875,338.0469 272.5313,338.0469 Q273.1563,338.0469 273.75,337.7813 Q274.3438,337.5 274.9688,336.9219 L274.9688,339.6406 Z " fill="#000000"/><text fill="#000000" font-family="sans-serif" font-size="14" lengthAdjust="spacing" textLength="106" x="286" y="338.8467">AnimationTrack</text></g><!--class KeyFrame--><g id="elem_KeyFrame"><rect fill="#F1F1F1" height="32" id="KeyFrame" rx="2.5" ry="2.5" style="stroke:#181818;stroke-width:0.5;" width="100" x="547" y="318"/><ellipse cx="562" cy="334" fill="#ADD1B2" rx="11" ry="11" style="stroke:#181818;stroke-width:1.0;"/><path d="M564.9688,339.6406 Q564.3906,339.9375 563.75,340.0781 Q563.1094,340.2344 562.4063,340.2344 Q559.9063,340.2344 558.5781,338.5938 Q557.2656,336.9375 557.2656,333.8125 Q557.2656,330.6875 558.5781,329.0313 Q559.9063,327.375 562.4063,327.375 Q563.1094,327.375 563.75,327.5313 Q564.4063,327.6875 564.9688,327.9844 L564.9688,330.7031 Q564.3438,330.125 563.75,329.8594 Q563.1563,329.5781 562.5313,329.5781 Q561.1875,329.5781 560.5,330.6563 Q559.8125,331.7188 559.8125,333.8125 Q559.8125,335.9063 560.5,336.9844 Q561.1875,338.0469 562.5313,338.0469 Q563.1563,338.0469 563.75,337.7813 Q564.3438,337.5 564.9688,336.9219 L564.9688,339.6406 Z " fill="#000000"/><text fill="#000000" font-family="sans-serif" font-size="14" lengthAdjust="spacing" textLength="68" x="576" y="338.8467">KeyFrame</text></g><!--class AnimationState--><g id="elem_AnimationState"><rect fill="#F1F1F1" height="32" id="AnimationState" rx="2.5" ry="2.5" style="stroke:#181818;stroke-width:0.5;" width="136" x="7" y="209"/><ellipse cx="22" cy="225" fill="#ADD1B2" rx="11" ry="11" style="stroke:#181818;stroke-width:1.0;"/><path d="M24.9688,230.6406 Q24.3906,230.9375 23.75,231.0781 Q23.1094,231.2344 22.4063,231.2344 Q19.9063,231.2344 18.5781,229.5938 Q17.2656,227.9375 17.2656,224.8125 Q17.2656,221.6875 18.5781,220.0313 Q19.9063,218.375 22.4063,218.375 Q23.1094,218.375 23.75,218.5313 Q24.4063,218.6875 24.9688,218.9844 L24.9688,221.7031 Q24.3438,221.125 23.75,220.8594 Q23.1563,220.5781 22.5313,220.5781 Q21.1875,220.5781 20.5,221.6563 Q19.8125,222.7188 19.8125,224.8125 Q19.8125,226.9063 20.5,227.9844 Q21.1875,229.0469 22.5313,229.0469 Q23.1563,229.0469 23.75,228.7813 Q24.3438,228.5 24.9688,227.9219 L24.9688,230.6406 Z " fill="#000000"/><text fill="#000000" font-family="sans-serif" font-size="14" lengthAdjust="spacing" textLength="104" x="36" y="229.8467">AnimationState</text></g><!--class Light--><g id="elem_Light"><rect fill="#F1F1F1" height="32" id="Light" rx="2.5" ry="2.5" style="stroke:#181818;stroke-width:0.5;" width="65" x="513.5" y="7"/><ellipse cx="528.5" cy="23" fill="#ADD1B2" rx="11" ry="11" style="stroke:#181818;stroke-width:1.0;"/><path d="M531.4688,28.6406 Q530.8906,28.9375 530.25,29.0781 Q529.6094,29.2344 528.9063,29.2344 Q526.4063,29.2344 525.0781,27.5938 Q523.7656,25.9375 523.7656,22.8125 Q523.7656,19.6875 525.0781,18.0313 Q526.4063,16.375 528.9063,16.375 Q529.6094,16.375 530.25,16.5313 Q530.9063,16.6875 531.4688,16.9844 L531.4688,19.7031 Q530.8438,19.125 530.25,18.8594 Q529.6563,18.5781 529.0313,18.5781 Q527.6875,18.5781 527,19.6563 Q526.3125,20.7188 526.3125,22.8125 Q526.3125,24.9063 527,25.9844 Q527.6875,27.0469 529.0313,27.0469 Q529.6563,27.0469 530.25,26.7813 Q530.8438,26.5 531.4688,25.9219 L531.4688,28.6406 Z " fill="#000000"/><text fill="#000000" font-family="sans-serif" font-size="14" lengthAdjust="spacing" textLength="33" x="542.5" y="27.8467">Light</text></g><!--class AnimableObject--><g id="elem_AnimableObject"><rect fill="#F1F1F1" height="32" id="AnimableObject" rx="2.5" ry="2.5" style="stroke:#181818;stroke-width:0.5;" width="140" x="476" y="100"/><ellipse cx="491" cy="116" fill="#ADD1B2" rx="11" ry="11" style="stroke:#181818;stroke-width:1.0;"/><path d="M493.9688,121.6406 Q493.3906,121.9375 492.75,122.0781 Q492.1094,122.2344 491.4063,122.2344 Q488.9063,122.2344 487.5781,120.5938 Q486.2656,118.9375 486.2656,115.8125 Q486.2656,112.6875 487.5781,111.0313 Q488.9063,109.375 491.4063,109.375 Q492.1094,109.375 492.75,109.5313 Q493.4063,109.6875 493.9688,109.9844 L493.9688,112.7031 Q493.3438,112.125 492.75,111.8594 Q492.1563,111.5781 491.5313,111.5781 Q490.1875,111.5781 489.5,112.6563 Q488.8125,113.7188 488.8125,115.8125 Q488.8125,117.9063 489.5,118.9844 Q490.1875,120.0469 491.5313,120.0469 Q492.1563,120.0469 492.75,119.7813 Q493.3438,119.5 493.9688,118.9219 L493.9688,121.6406 Z " fill="#000000"/><text fill="#000000" font-family="sans-serif" font-size="14" lengthAdjust="spacing" textLength="108" x="505" y="120.8467">AnimableObject</text></g><!--class AnimableValue--><g id="elem_AnimableValue"><rect fill="#F1F1F1" height="32" id="AnimableValue" rx="2.5" ry="2.5" style="stroke:#181818;stroke-width:0.5;" width="133" x="479.5" y="209"/><ellipse cx="494.5" cy="225" fill="#ADD1B2" rx="11" ry="11" style="stroke:#181818;stroke-width:1.0;"/><path d="M497.4688,230.6406 Q496.8906,230.9375 496.25,231.0781 Q495.6094,231.2344 494.9063,231.2344 Q492.4063,231.2344 491.0781,229.5938 Q489.7656,227.9375 489.7656,224.8125 Q489.7656,221.6875 491.0781,220.0313 Q492.4063,218.375 494.9063,218.375 Q495.6094,218.375 496.25,218.5313 Q496.9063,218.6875 497.4688,218.9844 L497.4688,221.7031 Q496.8438,221.125 496.25,220.8594 Q495.6563,220.5781 495.0313,220.5781 Q493.6875,220.5781 493,221.6563 Q492.3125,222.7188 492.3125,224.8125 Q492.3125,226.9063 493,227.9844 Q493.6875,229.0469 495.0313,229.0469 Q495.6563,229.0469 496.25,228.7813 Q496.8438,228.5 497.4688,227.9219 L497.4688,230.6406 Z " fill="#000000"/><text fill="#000000" font-family="sans-serif" font-size="14" lengthAdjust="spacing" textLength="101" x="508.5" y="229.8467">AnimableValue</text></g><!--link SceneManager to AnimationContainer--><g id="link_SceneManager_AnimationContainer"><path codeLine="5" d="M200.77,39.03 C228.56,55.89 258.0017,73.7419 285.8017,90.6119 " fill="none" id="SceneManager-to-AnimationContainer" style="stroke:#181818;stroke-width:1.0;"/><polygon fill="none" points="301.19,99.95,288.9144,85.4824,282.689,95.7413,301.19,99.95" style="stroke:#181818;stroke-width:1.0;"/></g><!--link Skeleton to AnimationContainer--><g id="link_Skeleton_AnimationContainer"><path codeLine="6" d="M326,39.03 C326,55.89 326,65.08 326,81.95 " fill="none" id="Skeleton-to-AnimationContainer" style="stroke:#181818;stroke-width:1.0;"/><polygon fill="none" points="326,99.95,332,81.95,320,81.95,326,99.95" style="stroke:#181818;stroke-width:1.0;"/></g><!--link Mesh to AnimationContainer--><g id="link_Mesh_AnimationContainer"><path codeLine="7" d="M423.68,39.03 C402,55.89 381.2483,72.0291 359.5583,88.8991 " fill="none" id="Mesh-to-AnimationContainer" style="stroke:#181818;stroke-width:1.0;"/><polygon fill="none" points="345.35,99.95,363.242,93.6352,355.8747,84.163,345.35,99.95" style="stroke:#181818;stroke-width:1.0;"/></g><!--link AnimationContainer to Animation--><g id="link_AnimationContainer_Animation"><path codeLine="9" d="M326,132.33 C326,152.67 326,182.37 326,202.7 " fill="none" id="AnimationContainer-to-Animation" style="stroke:#181818;stroke-width:1.0;"/><polygon fill="#181818" points="326,208.7,330,199.7,326,203.7,322,199.7,326,208.7" style="stroke:#181818;stroke-width:1.0;"/><text fill="#000000" font-family="sans-serif" font-size="13" lengthAdjust="spacing" textLength="116" x="327" y="175.0669">createAnimation()</text></g><!--link Animation to AnimationTrack--><g id="link_Animation_AnimationTrack"><path codeLine="11" d="M326,241.33 C326,261.67 326,291.37 326,311.7 " fill="none" id="Animation-to-AnimationTrack" style="stroke:#181818;stroke-width:1.0;"/><polygon fill="#181818" points="326,317.7,330,308.7,326,312.7,322,308.7,326,317.7" style="stroke:#181818;stroke-width:1.0;"/><text fill="#000000" font-family="sans-serif" font-size="13" lengthAdjust="spacing" textLength="131" x="327" y="284.0669">create{TYPE}Track()</text></g><!--link AnimationTrack to KeyFrame--><g id="link_AnimationTrack_KeyFrame"><path codeLine="12" d="M395.09,334 C442.44,334 498.18,334 540.86,334 " fill="none" id="AnimationTrack-to-KeyFrame" style="stroke:#181818;stroke-width:1.0;"/><polygon fill="#181818" points="546.86,334,537.86,330,541.86,334,537.86,338,546.86,334" style="stroke:#181818;stroke-width:1.0;"/><text fill="#000000" font-family="sans-serif" font-size="13" lengthAdjust="spacing" textLength="115" x="413.5" y="327.0669">createKeyFrame()</text></g><!--link AnimationState to Animation--><g id="link_AnimationState_Animation"><path codeLine="15" d="M143.26,225 C185.06,225 231.66,225 269.68,225 " fill="none" id="AnimationState-to-Animation" style="stroke:#181818;stroke-width:1.0;stroke-dasharray:7.0,7.0;"/><polygon fill="#181818" points="275.68,225,266.68,221,270.68,225,266.68,229,275.68,225" style="stroke:#181818;stroke-width:1.0;"/><text fill="#000000" font-family="sans-serif" font-size="13" lengthAdjust="spacing" textLength="96" x="161.5" y="218.0669">apply(timePos)</text></g><!--link Light to AnimableObject--><g id="link_Light_AnimableObject"><path codeLine="17" d="M546,39.03 C546,55.89 546,65.08 546,81.95 " fill="none" id="Light-to-AnimableObject" style="stroke:#181818;stroke-width:1.0;"/><polygon fill="none" points="546,99.95,552,81.95,540,81.95,546,99.95" style="stroke:#181818;stroke-width:1.0;"/></g><!--link AnimableObject to AnimableValue--><g id="link_AnimableObject_AnimableValue"><path codeLine="18" d="M546,132.33 C546,152.67 546,182.37 546,202.7 " fill="none" id="AnimableObject-to-AnimableValue" style="stroke:#181818;stroke-width:1.0;"/><polygon fill="#181818" points="546,208.7,550,199.7,546,203.7,542,199.7,546,208.7" style="stroke:#181818;stroke-width:1.0;"/><text fill="#000000" font-family="sans-serif" font-size="13" lengthAdjust="spacing" textLength="147" x="547" y="175.0669">createAnimableValue()</text></g></g></svg>