<?xml version="1.0" encoding="UTF-8" standalone="no"?>
<!DOCTYPE svg PUBLIC "-//W3C//DTD SVG 1.1//EN"
 "http://www.w3.org/Graphics/SVG/1.1/DTD/svg11.dtd">
<!-- Generated by graphviz version 2.43.0 (0)
 -->
<!-- Title: Ogre::StringInterface Pages: 1 -->
<svg width="916pt" height="871pt"
 viewBox="0.00 0.00 916.00 870.50" xmlns="http://www.w3.org/2000/svg" xmlns:xlink="http://www.w3.org/1999/xlink">
<g id="graph0" class="graph" transform="scale(1 1) rotate(0) translate(4 866.5)">
<title>Ogre::StringInterface</title>
<!-- Node1 -->
<g id="Node000001" class="node">
<title>Node1</title>
<g id="a_Node000001"><a xlink:title="Class defining the common interface which classes can use to present a reflection&#45;style,...">
<polygon fill="#999999" stroke="#666666" points="118,-389 0,-389 0,-370 118,-370 118,-389"/>
<text text-anchor="middle" x="59" y="-377" font-family="Helvetica,sans-Serif" font-size="10.00">Ogre::StringInterface</text>
</a>
</g>
</g>
<!-- Node2 -->
<g id="Node000002" class="node">
<title>Node2</title>
<g id="a_Node000002"><a xlink:href="class_ogre_1_1_external_texture_source.html" target="_top" xlink:title="IMPORTANT: Plugins must override default dictionary name! Base class that texture plugins derive from...">
<polygon fill="white" stroke="#666666" points="313.5,-755 158.5,-755 158.5,-736 313.5,-736 313.5,-755"/>
<text text-anchor="middle" x="236" y="-743" font-family="Helvetica,sans-Serif" font-size="10.00">Ogre::ExternalTextureSource</text>
</a>
</g>
</g>
<!-- Node1&#45;&gt;Node2 -->
<g id="edge1_Node000001_Node000002" class="edge">
<title>Node1&#45;&gt;Node2</title>
<g id="a_edge1_Node000001_Node000002"><a xlink:title=" ">
<path fill="none" stroke="#63b8ff" d="M62.65,-399.35C71.96,-466.09 105.25,-680.9 154,-727.5 157.44,-730.78 161.33,-733.52 165.51,-735.8"/>
<polygon fill="#63b8ff" stroke="#63b8ff" points="66.1,-398.74 61.28,-389.31 59.16,-399.69 66.1,-398.74"/>
</a>
</g>
</g>
<!-- Node3 -->
<g id="Node000003" class="node">
<title>Node3</title>
<g id="a_Node000003"><a xlink:href="class_ogre_1_1_overlay_element.html" target="_top" xlink:title="Abstract definition of a 2D element to be displayed in an Overlay.">
<polygon fill="white" stroke="#666666" points="298.5,-718 173.5,-718 173.5,-699 298.5,-699 298.5,-718"/>
<text text-anchor="middle" x="236" y="-706" font-family="Helvetica,sans-Serif" font-size="10.00">Ogre::OverlayElement</text>
</a>
</g>
</g>
<!-- Node1&#45;&gt;Node3 -->
<g id="edge2_Node000001_Node000003" class="edge">
<title>Node1&#45;&gt;Node3</title>
<g id="a_edge2_Node000001_Node000003"><a xlink:title=" ">
<path fill="none" stroke="#63b8ff" d="M67.46,-399.19C82.09,-437.05 116.42,-522.21 154,-589.5 177.76,-632.05 212.32,-678.82 227.44,-698.7"/>
<polygon fill="#63b8ff" stroke="#63b8ff" points="70.56,-397.51 63.72,-389.43 64.03,-400.02 70.56,-397.51"/>
</a>
</g>
</g>
<!-- Node8 -->
<g id="Node000008" class="node">
<title>Node8</title>
<g id="a_Node000008"><a xlink:href="class_ogre_1_1_particle_affector.html" target="_top" xlink:title="Abstract class defining the interface to be implemented by particle affectors.">
<polygon fill="white" stroke="#666666" points="296.5,-580 175.5,-580 175.5,-561 296.5,-561 296.5,-580"/>
<text text-anchor="middle" x="236" y="-568" font-family="Helvetica,sans-Serif" font-size="10.00">Ogre::ParticleAffector</text>
</a>
</g>
</g>
<!-- Node1&#45;&gt;Node8 -->
<g id="edge7_Node000001_Node000008" class="edge">
<title>Node1&#45;&gt;Node8</title>
<g id="a_edge7_Node000001_Node000008"><a xlink:title=" ">
<path fill="none" stroke="#63b8ff" d="M75.73,-396.67C111.43,-435.63 197.66,-529.75 225.89,-560.56"/>
<polygon fill="#63b8ff" stroke="#63b8ff" points="78.26,-394.24 68.92,-389.23 73.09,-398.97 78.26,-394.24"/>
</a>
</g>
</g>
<!-- Node19 -->
<g id="Node000019" class="node">
<title>Node19</title>
<g id="a_Node000019"><a xlink:href="class_ogre_1_1_particle_emitter.html" target="_top" xlink:title="Abstract class defining the interface to be implemented by particle emitters.">
<polygon fill="white" stroke="#666666" points="295.5,-389 176.5,-389 176.5,-370 295.5,-370 295.5,-389"/>
<text text-anchor="middle" x="236" y="-377" font-family="Helvetica,sans-Serif" font-size="10.00">Ogre::ParticleEmitter</text>
</a>
</g>
</g>
<!-- Node1&#45;&gt;Node19 -->
<g id="edge18_Node000001_Node000019" class="edge">
<title>Node1&#45;&gt;Node19</title>
<g id="a_edge18_Node000001_Node000019"><a xlink:title=" ">
<path fill="none" stroke="#63b8ff" d="M128.52,-379.5C144.34,-379.5 161.03,-379.5 176.39,-379.5"/>
<polygon fill="#63b8ff" stroke="#63b8ff" points="128.27,-376 118.27,-379.5 128.27,-383 128.27,-376"/>
</a>
</g>
</g>
<!-- Node27 -->
<g id="Node000027" class="node">
<title>Node27</title>
<g id="a_Node000027"><a xlink:href="class_ogre_1_1_particle_system.html" target="_top" xlink:title="Class defining particle system based special effects.">
<polygon fill="white" stroke="#666666" points="295.5,-352 176.5,-352 176.5,-333 295.5,-333 295.5,-352"/>
<text text-anchor="middle" x="236" y="-340" font-family="Helvetica,sans-Serif" font-size="10.00">Ogre::ParticleSystem</text>
</a>
</g>
</g>
<!-- Node1&#45;&gt;Node27 -->
<g id="edge26_Node000001_Node000027" class="edge">
<title>Node1&#45;&gt;Node27</title>
<g id="a_edge26_Node000001_Node000027"><a xlink:title=" ">
<path fill="none" stroke="#63b8ff" d="M115.11,-367.85C139.15,-362.77 166.99,-356.88 189.78,-352.06"/>
<polygon fill="#63b8ff" stroke="#63b8ff" points="114.13,-364.48 105.07,-369.97 115.57,-371.33 114.13,-364.48"/>
</a>
</g>
</g>
<!-- Node28 -->
<g id="Node000028" class="node">
<title>Node28</title>
<g id="a_Node000028"><a xlink:href="class_ogre_1_1_particle_system_renderer.html" target="_top" xlink:title="Abstract class defining the interface required to be implemented by classes which provide rendering c...">
<polygon fill="white" stroke="#666666" points="318,-315 154,-315 154,-296 318,-296 318,-315"/>
<text text-anchor="middle" x="236" y="-303" font-family="Helvetica,sans-Serif" font-size="10.00">Ogre::ParticleSystemRenderer</text>
</a>
</g>
</g>
<!-- Node1&#45;&gt;Node28 -->
<g id="edge27_Node000001_Node000028" class="edge">
<title>Node1&#45;&gt;Node28</title>
<g id="a_edge27_Node000001_Node000028"><a xlink:title=" ">
<path fill="none" stroke="#63b8ff" d="M81.63,-364.31C100.09,-351.99 127.74,-334.98 154,-324.5 163.39,-320.75 173.7,-317.63 183.73,-315.08"/>
<polygon fill="#63b8ff" stroke="#63b8ff" points="79.65,-361.42 73.35,-369.94 83.59,-367.21 79.65,-361.42"/>
</a>
</g>
</g>
<!-- Node30 -->
<g id="Node000030" class="node">
<title>Node30</title>
<g id="a_Node000030"><a xlink:href="class_ogre_1_1_resource.html" target="_top" xlink:title="Abstract class representing a loadable resource.">
<polygon fill="white" stroke="#666666" points="281.5,-167 190.5,-167 190.5,-148 281.5,-148 281.5,-167"/>
<text text-anchor="middle" x="236" y="-155" font-family="Helvetica,sans-Serif" font-size="10.00">Ogre::Resource</text>
</a>
</g>
</g>
<!-- Node1&#45;&gt;Node30 -->
<g id="edge29_Node000001_Node000030" class="edge">
<title>Node1&#45;&gt;Node30</title>
<g id="a_edge29_Node000001_Node000030"><a xlink:title=" ">
<path fill="none" stroke="#63b8ff" d="M73.73,-362.08C108.78,-317.62 200.63,-201.1 227.51,-167"/>
<polygon fill="#63b8ff" stroke="#63b8ff" points="70.96,-359.94 67.52,-369.96 76.46,-364.27 70.96,-359.94"/>
</a>
</g>
</g>
<!-- Node4 -->
<g id="Node000004" class="node">
<title>Node4</title>
<g id="a_Node000004"><a xlink:href="class_ogre_1_1_overlay_container.html" target="_top" xlink:title="A 2D element which contains other OverlayElement instances.">
<polygon fill="white" stroke="#666666" points="504.5,-857 373.5,-857 373.5,-838 504.5,-838 504.5,-857"/>
<text text-anchor="middle" x="439" y="-845" font-family="Helvetica,sans-Serif" font-size="10.00">Ogre::OverlayContainer</text>
</a>
</g>
</g>
<!-- Node3&#45;&gt;Node4 -->
<g id="edge3_Node000003_Node000004" class="edge">
<title>Node3&#45;&gt;Node4</title>
<g id="a_edge3_Node000003_Node000004"><a xlink:title=" ">
<path fill="none" stroke="#63b8ff" d="M307.97,-720.35C311.56,-722.39 314.94,-724.76 318,-727.5 353.79,-759.59 317.9,-797.75 354,-829.5 359.6,-834.42 366.22,-838.11 373.24,-840.86"/>
<polygon fill="#63b8ff" stroke="#63b8ff" points="309.21,-717.06 298.68,-715.91 306.2,-723.38 309.21,-717.06"/>
</a>
</g>
</g>
<!-- Node7 -->
<g id="Node000007" class="node">
<title>Node7</title>
<g id="a_Node000007"><a xlink:href="class_ogre_1_1_text_area_overlay_element.html" target="_top" xlink:title="This class implements an overlay element which contains simple unformatted text.">
<polygon fill="white" stroke="#666666" points="522.5,-820 355.5,-820 355.5,-801 522.5,-801 522.5,-820"/>
<text text-anchor="middle" x="439" y="-808" font-family="Helvetica,sans-Serif" font-size="10.00">Ogre::TextAreaOverlayElement</text>
</a>
</g>
</g>
<!-- Node3&#45;&gt;Node7 -->
<g id="edge6_Node000003_Node000007" class="edge">
<title>Node3&#45;&gt;Node7</title>
<g id="a_edge6_Node000003_Node000007"><a xlink:title=" ">
<path fill="none" stroke="#63b8ff" d="M308.19,-721.35C311.64,-723.15 314.94,-725.19 318,-727.5 344.34,-747.43 327.47,-772.83 354,-792.5 358.55,-795.88 363.6,-798.65 368.91,-800.92"/>
<polygon fill="#63b8ff" stroke="#63b8ff" points="309.31,-718.02 298.75,-717.14 306.46,-724.41 309.31,-718.02"/>
</a>
</g>
</g>
<!-- Node5 -->
<g id="Node000005" class="node">
<title>Node5</title>
<g id="a_Node000005"><a xlink:href="class_ogre_1_1_panel_overlay_element.html" target="_top" xlink:title="OverlayElement representing a flat, single&#45;material (or transparent) panel which can contain other el...">
<polygon fill="white" stroke="#666666" points="713.5,-857 561.5,-857 561.5,-838 713.5,-838 713.5,-857"/>
<text text-anchor="middle" x="637.5" y="-845" font-family="Helvetica,sans-Serif" font-size="10.00">Ogre::PanelOverlayElement</text>
</a>
</g>
</g>
<!-- Node4&#45;&gt;Node5 -->
<g id="edge4_Node000004_Node000005" class="edge">
<title>Node4&#45;&gt;Node5</title>
<g id="a_edge4_Node000004_Node000005"><a xlink:title=" ">
<path fill="none" stroke="#63b8ff" d="M514.97,-847.5C530.14,-847.5 546.09,-847.5 561.27,-847.5"/>
<polygon fill="#63b8ff" stroke="#63b8ff" points="514.61,-844 504.61,-847.5 514.61,-851 514.61,-844"/>
</a>
</g>
</g>
<!-- Node6 -->
<g id="Node000006" class="node">
<title>Node6</title>
<g id="a_Node000006"><a xlink:href="class_ogre_1_1_border_panel_overlay_element.html" target="_top" xlink:title="A specialisation of the PanelOverlayElement to provide a panel with a border.">
<polygon fill="white" stroke="#666666" points="901,-862.5 758,-862.5 758,-832.5 901,-832.5 901,-862.5"/>
<text text-anchor="start" x="766" y="-850.5" font-family="Helvetica,sans-Serif" font-size="10.00">Ogre::BorderPanelOverlay</text>
<text text-anchor="middle" x="829.5" y="-839.5" font-family="Helvetica,sans-Serif" font-size="10.00">Element</text>
</a>
</g>
</g>
<!-- Node5&#45;&gt;Node6 -->
<g id="edge5_Node000005_Node000006" class="edge">
<title>Node5&#45;&gt;Node6</title>
<g id="a_edge5_Node000005_Node000006"><a xlink:title=" ">
<path fill="none" stroke="#63b8ff" d="M723.62,-847.5C735.1,-847.5 746.78,-847.5 757.97,-847.5"/>
<polygon fill="#63b8ff" stroke="#63b8ff" points="723.59,-844 713.59,-847.5 723.59,-851 723.59,-844"/>
</a>
</g>
</g>
<!-- Node9 -->
<g id="Node000009" class="node">
<title>Node9</title>
<g id="a_Node000009"><a xlink:href="class_ogre_1_1_colour_fader_affector.html" target="_top" xlink:title="This affector modifies the colour of particles in flight.">
<polygon fill="white" stroke="#666666" points="510.5,-783 367.5,-783 367.5,-764 510.5,-764 510.5,-783"/>
<text text-anchor="middle" x="439" y="-771" font-family="Helvetica,sans-Serif" font-size="10.00">Ogre::ColourFaderAffector</text>
</a>
</g>
</g>
<!-- Node8&#45;&gt;Node9 -->
<g id="edge8_Node000008_Node000009" class="edge">
<title>Node8&#45;&gt;Node9</title>
<g id="a_edge8_Node000008_Node000009"><a xlink:title=" ">
<path fill="none" stroke="#63b8ff" d="M249.85,-588.46C266.27,-611.64 295.28,-653.42 318,-690.5 335.25,-718.66 327.47,-735.83 354,-755.5 358.55,-758.88 363.6,-761.65 368.91,-763.92"/>
<polygon fill="#63b8ff" stroke="#63b8ff" points="252.67,-586.38 244.02,-580.26 246.96,-590.44 252.67,-586.38"/>
</a>
</g>
</g>
<!-- Node10 -->
<g id="Node000010" class="node">
<title>Node10</title>
<g id="a_Node000010"><a xlink:href="class_ogre_1_1_colour_fader_affector2.html" target="_top" xlink:title=" ">
<polygon fill="white" stroke="#666666" points="513.5,-746 364.5,-746 364.5,-727 513.5,-727 513.5,-746"/>
<text text-anchor="middle" x="439" y="-734" font-family="Helvetica,sans-Serif" font-size="10.00">Ogre::ColourFaderAffector2</text>
</a>
</g>
</g>
<!-- Node8&#45;&gt;Node10 -->
<g id="edge9_Node000008_Node000010" class="edge">
<title>Node8&#45;&gt;Node10</title>
<g id="a_edge9_Node000008_Node000010"><a xlink:title=" ">
<path fill="none" stroke="#63b8ff" d="M246.4,-589.56C263.25,-621.62 301.8,-686.03 354,-718.5 359.45,-721.89 365.43,-724.64 371.62,-726.89"/>
<polygon fill="#63b8ff" stroke="#63b8ff" points="249.37,-587.67 241.7,-580.36 243.13,-590.86 249.37,-587.67"/>
</a>
</g>
</g>
<!-- Node11 -->
<g id="Node000011" class="node">
<title>Node11</title>
<g id="a_Node000011"><a xlink:href="class_ogre_1_1_colour_image_affector.html" target="_top" xlink:title=" ">
<polygon fill="white" stroke="#666666" points="512,-709 366,-709 366,-690 512,-690 512,-709"/>
<text text-anchor="middle" x="439" y="-697" font-family="Helvetica,sans-Serif" font-size="10.00">Ogre::ColourImageAffector</text>
</a>
</g>
</g>
<!-- Node8&#45;&gt;Node11 -->
<g id="edge10_Node000008_Node000011" class="edge">
<title>Node8&#45;&gt;Node11</title>
<g id="a_edge10_Node000008_Node000011"><a xlink:title=" ">
<path fill="none" stroke="#63b8ff" d="M250.72,-588.37C270.68,-613.07 310.15,-657.19 354,-680.5 361.26,-684.36 369.28,-687.44 377.4,-689.89"/>
<polygon fill="#63b8ff" stroke="#63b8ff" points="253.23,-585.9 244.28,-580.23 247.74,-590.25 253.23,-585.9"/>
</a>
</g>
</g>
<!-- Node12 -->
<g id="Node000012" class="node">
<title>Node12</title>
<g id="a_Node000012"><a xlink:href="class_ogre_1_1_colour_interpolator_affector.html" target="_top" xlink:title=" ">
<polygon fill="white" stroke="#666666" points="506,-671.5 372,-671.5 372,-641.5 506,-641.5 506,-671.5"/>
<text text-anchor="start" x="380" y="-659.5" font-family="Helvetica,sans-Serif" font-size="10.00">Ogre::ColourInterpolator</text>
<text text-anchor="middle" x="439" y="-648.5" font-family="Helvetica,sans-Serif" font-size="10.00">Affector</text>
</a>
</g>
</g>
<!-- Node8&#45;&gt;Node12 -->
<g id="edge11_Node000008_Node000012" class="edge">
<title>Node8&#45;&gt;Node12</title>
<g id="a_edge11_Node000008_Node000012"><a xlink:title=" ">
<path fill="none" stroke="#63b8ff" d="M261.18,-585.24C284.36,-598.9 320.64,-619.07 354,-632.5 362.02,-635.73 370.63,-638.71 379.18,-641.39"/>
<polygon fill="#63b8ff" stroke="#63b8ff" points="262.78,-582.12 252.39,-580 259.19,-588.13 262.78,-582.12"/>
</a>
</g>
</g>
<!-- Node13 -->
<g id="Node000013" class="node">
<title>Node13</title>
<g id="a_Node000013"><a xlink:href="class_ogre_1_1_deflector_plane_affector.html" target="_top" xlink:title="This affector defines a plane which deflects particles which collide with it.">
<polygon fill="white" stroke="#666666" points="517,-623 361,-623 361,-604 517,-604 517,-623"/>
<text text-anchor="middle" x="439" y="-611" font-family="Helvetica,sans-Serif" font-size="10.00">Ogre::DeflectorPlaneAffector</text>
</a>
</g>
</g>
<!-- Node8&#45;&gt;Node13 -->
<g id="edge12_Node000008_Node000013" class="edge">
<title>Node8&#45;&gt;Node13</title>
<g id="a_edge12_Node000008_Node000013"><a xlink:title=" ">
<path fill="none" stroke="#63b8ff" d="M291.69,-582.2C323.65,-589.04 363.49,-597.56 393.52,-603.98"/>
<polygon fill="#63b8ff" stroke="#63b8ff" points="292.12,-578.71 281.61,-580.04 290.65,-585.56 292.12,-578.71"/>
</a>
</g>
</g>
<!-- Node14 -->
<g id="Node000014" class="node">
<title>Node14</title>
<g id="a_Node000014"><a xlink:href="class_ogre_1_1_direction_randomiser_affector.html" target="_top" xlink:title="This affector applies randomness to the movement of the particles.">
<polygon fill="white" stroke="#666666" points="513.5,-585.5 364.5,-585.5 364.5,-555.5 513.5,-555.5 513.5,-585.5"/>
<text text-anchor="start" x="372.5" y="-573.5" font-family="Helvetica,sans-Serif" font-size="10.00">Ogre::DirectionRandomiser</text>
<text text-anchor="middle" x="439" y="-562.5" font-family="Helvetica,sans-Serif" font-size="10.00">Affector</text>
</a>
</g>
</g>
<!-- Node8&#45;&gt;Node14 -->
<g id="edge13_Node000008_Node000014" class="edge">
<title>Node8&#45;&gt;Node14</title>
<g id="a_edge13_Node000008_Node000014"><a xlink:title=" ">
<path fill="none" stroke="#63b8ff" d="M306.88,-570.5C325.42,-570.5 345.49,-570.5 364.23,-570.5"/>
<polygon fill="#63b8ff" stroke="#63b8ff" points="306.76,-567 296.76,-570.5 306.76,-574 306.76,-567"/>
</a>
</g>
</g>
<!-- Node15 -->
<g id="Node000015" class="node">
<title>Node15</title>
<g id="a_Node000015"><a xlink:href="class_ogre_1_1_linear_force_affector.html" target="_top" xlink:title="This affector applies a force vector to all particles to modify their trajectory.">
<polygon fill="white" stroke="#666666" points="509,-537 369,-537 369,-518 509,-518 509,-537"/>
<text text-anchor="middle" x="439" y="-525" font-family="Helvetica,sans-Serif" font-size="10.00">Ogre::LinearForceAffector</text>
</a>
</g>
</g>
<!-- Node8&#45;&gt;Node15 -->
<g id="edge14_Node000008_Node000015" class="edge">
<title>Node8&#45;&gt;Node15</title>
<g id="a_edge14_Node000008_Node000015"><a xlink:title=" ">
<path fill="none" stroke="#63b8ff" d="M291.69,-558.8C323.65,-551.96 363.49,-543.44 393.52,-537.02"/>
<polygon fill="#63b8ff" stroke="#63b8ff" points="290.65,-555.44 281.61,-560.96 292.12,-562.29 290.65,-555.44"/>
</a>
</g>
</g>
<!-- Node16 -->
<g id="Node000016" class="node">
<title>Node16</title>
<g id="a_Node000016"><a xlink:href="class_ogre_1_1_rotation_affector.html" target="_top" xlink:title="This affector rotates particles in flight.">
<polygon fill="white" stroke="#666666" points="501.5,-500 376.5,-500 376.5,-481 501.5,-481 501.5,-500"/>
<text text-anchor="middle" x="439" y="-488" font-family="Helvetica,sans-Serif" font-size="10.00">Ogre::RotationAffector</text>
</a>
</g>
</g>
<!-- Node8&#45;&gt;Node16 -->
<g id="edge15_Node000008_Node000016" class="edge">
<title>Node8&#45;&gt;Node16</title>
<g id="a_edge15_Node000008_Node000016"><a xlink:title=" ">
<path fill="none" stroke="#63b8ff" d="M261.06,-555.6C284.14,-541.88 320.35,-521.84 354,-509.5 364.11,-505.79 375.17,-502.67 385.86,-500.09"/>
<polygon fill="#63b8ff" stroke="#63b8ff" points="259.06,-552.71 252.3,-560.87 262.68,-558.71 259.06,-552.71"/>
</a>
</g>
</g>
<!-- Node17 -->
<g id="Node000017" class="node">
<title>Node17</title>
<g id="a_Node000017"><a xlink:href="class_ogre_1_1_scale_affector.html" target="_top" xlink:title="This affector scales particles in flight.">
<polygon fill="white" stroke="#666666" points="494,-463 384,-463 384,-444 494,-444 494,-463"/>
<text text-anchor="middle" x="439" y="-451" font-family="Helvetica,sans-Serif" font-size="10.00">Ogre::ScaleAffector</text>
</a>
</g>
</g>
<!-- Node8&#45;&gt;Node17 -->
<g id="edge16_Node000008_Node000017" class="edge">
<title>Node8&#45;&gt;Node17</title>
<g id="a_edge16_Node000008_Node000017"><a xlink:title=" ">
<path fill="none" stroke="#63b8ff" d="M252.36,-553.34C273.17,-531.18 312.52,-493.04 354,-472.5 363.24,-467.92 373.61,-464.43 383.82,-461.77"/>
<polygon fill="#63b8ff" stroke="#63b8ff" points="249.53,-551.25 245.33,-560.97 254.67,-555.99 249.53,-551.25"/>
</a>
</g>
</g>
<!-- Node18 -->
<g id="Node000018" class="node">
<title>Node18</title>
<g id="a_Node000018"><a xlink:href="class_ogre_1_1_texture_animator_affector.html" target="_top" xlink:title="This affector makes it possible to have an animated texture for each individual particle.">
<polygon fill="white" stroke="#666666" points="521.5,-426 356.5,-426 356.5,-407 521.5,-407 521.5,-426"/>
<text text-anchor="middle" x="439" y="-414" font-family="Helvetica,sans-Serif" font-size="10.00">Ogre::TextureAnimatorAffector</text>
</a>
</g>
</g>
<!-- Node8&#45;&gt;Node18 -->
<g id="edge17_Node000008_Node000018" class="edge">
<title>Node8&#45;&gt;Node18</title>
<g id="a_edge17_Node000008_Node000018"><a xlink:title=" ">
<path fill="none" stroke="#63b8ff" d="M247.62,-551.95C265.56,-522.4 304.75,-464.99 354,-435.5 360.54,-431.58 367.81,-428.47 375.26,-426"/>
<polygon fill="#63b8ff" stroke="#63b8ff" points="244.46,-550.43 242.37,-560.82 250.48,-554 244.46,-550.43"/>
</a>
</g>
</g>
<!-- Node20 -->
<g id="Node000020" class="node">
<title>Node20</title>
<g id="a_Node000020"><a xlink:href="class_ogre_1_1_area_emitter.html" target="_top" xlink:title="Particle emitter which emits particles randomly from points inside an area (box, sphere,...">
<polygon fill="white" stroke="#666666" points="491,-389 387,-389 387,-370 491,-370 491,-389"/>
<text text-anchor="middle" x="439" y="-377" font-family="Helvetica,sans-Serif" font-size="10.00">Ogre::AreaEmitter</text>
</a>
</g>
</g>
<!-- Node19&#45;&gt;Node20 -->
<g id="edge19_Node000019_Node000020" class="edge">
<title>Node19&#45;&gt;Node20</title>
<g id="a_edge19_Node000019_Node000020"><a xlink:title=" ">
<path fill="none" stroke="#63b8ff" d="M305.68,-379.5C332.25,-379.5 362.13,-379.5 386.76,-379.5"/>
<polygon fill="#63b8ff" stroke="#63b8ff" points="305.68,-376 295.68,-379.5 305.68,-383 305.68,-376"/>
</a>
</g>
</g>
<!-- Node26 -->
<g id="Node000026" class="node">
<title>Node26</title>
<g id="a_Node000026"><a xlink:href="class_ogre_1_1_point_emitter.html" target="_top" xlink:title="This emitter emits particles from a single point, which is it’s position.">
<polygon fill="white" stroke="#666666" points="492.5,-352 385.5,-352 385.5,-333 492.5,-333 492.5,-352"/>
<text text-anchor="middle" x="439" y="-340" font-family="Helvetica,sans-Serif" font-size="10.00">Ogre::PointEmitter</text>
</a>
</g>
</g>
<!-- Node19&#45;&gt;Node26 -->
<g id="edge25_Node000019_Node000026" class="edge">
<title>Node19&#45;&gt;Node26</title>
<g id="a_edge25_Node000019_Node000026"><a xlink:title=" ">
<path fill="none" stroke="#63b8ff" d="M298.82,-368.12C326.77,-362.98 359.41,-356.97 386.06,-352.06"/>
<polygon fill="#63b8ff" stroke="#63b8ff" points="297.96,-364.72 288.76,-369.97 299.23,-371.6 297.96,-364.72"/>
</a>
</g>
</g>
<!-- Node21 -->
<g id="Node000021" class="node">
<title>Node21</title>
<g id="a_Node000021"><a xlink:href="class_ogre_1_1_box_emitter.html" target="_top" xlink:title="This emitter emits particles from a random location within a 3&#45;dimensional box.">
<polygon fill="white" stroke="#666666" points="688,-444 587,-444 587,-425 688,-425 688,-444"/>
<text text-anchor="middle" x="637.5" y="-432" font-family="Helvetica,sans-Serif" font-size="10.00">Ogre::BoxEmitter</text>
</a>
</g>
</g>
<!-- Node20&#45;&gt;Node21 -->
<g id="edge20_Node000020_Node000021" class="edge">
<title>Node20&#45;&gt;Node21</title>
<g id="a_edge20_Node000020_Node000021"><a xlink:title=" ">
<path fill="none" stroke="#63b8ff" d="M501.05,-391.48C508.86,-393.55 516.67,-395.88 524,-398.5 540.85,-404.52 543.18,-410.41 560,-416.5 568.98,-419.75 578.77,-422.57 588.25,-424.95"/>
<polygon fill="#63b8ff" stroke="#63b8ff" points="501.75,-388.05 491.2,-389.01 500.05,-394.84 501.75,-388.05"/>
</a>
</g>
</g>
<!-- Node22 -->
<g id="Node000022" class="node">
<title>Node22</title>
<g id="a_Node000022"><a xlink:href="class_ogre_1_1_cylinder_emitter.html" target="_top" xlink:title="This emitter emits particles in a random direction from within a cylinder area, where the cylinder is...">
<polygon fill="white" stroke="#666666" points="698.5,-407 576.5,-407 576.5,-388 698.5,-388 698.5,-407"/>
<text text-anchor="middle" x="637.5" y="-395" font-family="Helvetica,sans-Serif" font-size="10.00">Ogre::CylinderEmitter</text>
</a>
</g>
</g>
<!-- Node20&#45;&gt;Node22 -->
<g id="edge21_Node000020_Node000022" class="edge">
<title>Node20&#45;&gt;Node22</title>
<g id="a_edge21_Node000020_Node000022"><a xlink:title=" ">
<path fill="none" stroke="#63b8ff" d="M501.13,-385.1C525.04,-387.29 552.39,-389.8 576.22,-391.98"/>
<polygon fill="#63b8ff" stroke="#63b8ff" points="501.39,-381.61 491.12,-384.18 500.75,-388.58 501.39,-381.61"/>
</a>
</g>
</g>
<!-- Node23 -->
<g id="Node000023" class="node">
<title>Node23</title>
<g id="a_Node000023"><a xlink:href="class_ogre_1_1_ellipsoid_emitter.html" target="_top" xlink:title="Particle emitter which emits particles randomly from points inside an ellipsoid.">
<polygon fill="white" stroke="#666666" points="699,-370 576,-370 576,-351 699,-351 699,-370"/>
<text text-anchor="middle" x="637.5" y="-358" font-family="Helvetica,sans-Serif" font-size="10.00">Ogre::EllipsoidEmitter</text>
</a>
</g>
</g>
<!-- Node20&#45;&gt;Node23 -->
<g id="edge22_Node000020_Node000023" class="edge">
<title>Node20&#45;&gt;Node23</title>
<g id="a_edge22_Node000020_Node000023"><a xlink:title=" ">
<path fill="none" stroke="#63b8ff" d="M501.09,-373.59C524.89,-371.29 552.1,-368.66 575.86,-366.36"/>
<polygon fill="#63b8ff" stroke="#63b8ff" points="500.73,-370.11 491.12,-374.56 501.41,-377.08 500.73,-370.11"/>
</a>
</g>
</g>
<!-- Node25 -->
<g id="Node000025" class="node">
<title>Node25</title>
<g id="a_Node000025"><a xlink:href="class_ogre_1_1_ring_emitter.html" target="_top" xlink:title="Particle emitter which emits particles randomly from points inside a ring (e.g.">
<polygon fill="white" stroke="#666666" points="689.5,-333 585.5,-333 585.5,-314 689.5,-314 689.5,-333"/>
<text text-anchor="middle" x="637.5" y="-321" font-family="Helvetica,sans-Serif" font-size="10.00">Ogre::RingEmitter</text>
</a>
</g>
</g>
<!-- Node20&#45;&gt;Node25 -->
<g id="edge24_Node000020_Node000025" class="edge">
<title>Node20&#45;&gt;Node25</title>
<g id="a_edge24_Node000020_Node000025"><a xlink:title=" ">
<path fill="none" stroke="#63b8ff" d="M501.11,-368.47C508.91,-366.46 516.71,-364.15 524,-361.5 541,-355.32 543.1,-348.95 560,-342.5 569.59,-338.84 580.13,-335.7 590.23,-333.08"/>
<polygon fill="#63b8ff" stroke="#63b8ff" points="500.17,-365.1 491.27,-370.86 501.81,-371.9 500.17,-365.1"/>
</a>
</g>
</g>
<!-- Node24 -->
<g id="Node000024" class="node">
<title>Node24</title>
<g id="a_Node000024"><a xlink:href="class_ogre_1_1_hollow_ellipsoid_emitter.html" target="_top" xlink:title="Particle emitter which emits particles randomly from points inside a hollow ellipsoid.">
<polygon fill="white" stroke="#666666" points="908,-370 751,-370 751,-351 908,-351 908,-370"/>
<text text-anchor="middle" x="829.5" y="-358" font-family="Helvetica,sans-Serif" font-size="10.00">Ogre::HollowEllipsoidEmitter</text>
</a>
</g>
</g>
<!-- Node23&#45;&gt;Node24 -->
<g id="edge23_Node000023_Node000024" class="edge">
<title>Node23&#45;&gt;Node24</title>
<g id="a_edge23_Node000023_Node000024"><a xlink:title=" ">
<path fill="none" stroke="#63b8ff" d="M709.31,-360.5C722.81,-360.5 737.01,-360.5 750.72,-360.5"/>
<polygon fill="#63b8ff" stroke="#63b8ff" points="709.14,-357 699.14,-360.5 709.14,-364 709.14,-357"/>
</a>
</g>
</g>
<!-- Node29 -->
<g id="Node000029" class="node">
<title>Node29</title>
<g id="a_Node000029"><a xlink:href="class_ogre_1_1_billboard_particle_renderer.html" target="_top" xlink:title="Specialisation of ParticleSystemRenderer to render particles using a BillboardSet.">
<polygon fill="white" stroke="#666666" points="524,-315 354,-315 354,-296 524,-296 524,-315"/>
<text text-anchor="middle" x="439" y="-303" font-family="Helvetica,sans-Serif" font-size="10.00">Ogre::BillboardParticleRenderer</text>
</a>
</g>
</g>
<!-- Node28&#45;&gt;Node29 -->
<g id="edge28_Node000028_Node000029" class="edge">
<title>Node28&#45;&gt;Node29</title>
<g id="a_edge28_Node000028_Node000029"><a xlink:title=" ">
<path fill="none" stroke="#63b8ff" d="M328.18,-305.5C336.74,-305.5 345.4,-305.5 353.9,-305.5"/>
<polygon fill="#63b8ff" stroke="#63b8ff" points="328.18,-302 318.18,-305.5 328.17,-309 328.18,-302"/>
</a>
</g>
</g>
<!-- Node31 -->
<g id="Node000031" class="node">
<title>Node31</title>
<g id="a_Node000031"><a xlink:href="class_ogre_1_1_bsp_level.html" target="_top" xlink:title="Holds all the data associated with a Binary Space Parition (BSP) based indoor level.">
<polygon fill="white" stroke="#666666" points="484,-278 394,-278 394,-259 484,-259 484,-278"/>
<text text-anchor="middle" x="439" y="-266" font-family="Helvetica,sans-Serif" font-size="10.00">Ogre::BspLevel</text>
</a>
</g>
</g>
<!-- Node30&#45;&gt;Node31 -->
<g id="edge30_Node000030_Node000031" class="edge">
<title>Node30&#45;&gt;Node31</title>
<g id="a_edge30_Node000030_Node000031"><a xlink:title=" ">
<path fill="none" stroke="#63b8ff" d="M253.15,-174.47C274.29,-195.63 313.43,-231.33 354,-250.5 366.27,-256.3 380.43,-260.25 393.59,-262.93"/>
<polygon fill="#63b8ff" stroke="#63b8ff" points="255.47,-171.84 245.97,-167.14 250.47,-176.74 255.47,-171.84"/>
</a>
</g>
</g>
<!-- Node32 -->
<g id="Node000032" class="node">
<title>Node32</title>
<g id="a_Node000032"><a xlink:href="class_ogre_1_1_compositor.html" target="_top" xlink:title="Class representing a Compositor object.">
<polygon fill="white" stroke="#666666" points="490,-241 388,-241 388,-222 490,-222 490,-241"/>
<text text-anchor="middle" x="439" y="-229" font-family="Helvetica,sans-Serif" font-size="10.00">Ogre::Compositor</text>
</a>
</g>
</g>
<!-- Node30&#45;&gt;Node32 -->
<g id="edge31_Node000030_Node000032" class="edge">
<title>Node30&#45;&gt;Node32</title>
<g id="a_edge31_Node000030_Node000032"><a xlink:title=" ">
<path fill="none" stroke="#63b8ff" d="M262.77,-172.02C286,-184.56 321.41,-202.38 354,-213.5 364.73,-217.16 376.49,-220.23 387.73,-222.75"/>
<polygon fill="#63b8ff" stroke="#63b8ff" points="264.36,-168.89 253.91,-167.16 261,-175.03 264.36,-168.89"/>
</a>
</g>
</g>
<!-- Node33 -->
<g id="Node000033" class="node">
<title>Node33</title>
<g id="a_Node000033"><a xlink:href="class_ogre_1_1_font.html" target="_top" xlink:title="Class representing a font in the system.">
<polygon fill="white" stroke="#666666" points="472.5,-204 405.5,-204 405.5,-185 472.5,-185 472.5,-204"/>
<text text-anchor="middle" x="439" y="-192" font-family="Helvetica,sans-Serif" font-size="10.00">Ogre::Font</text>
</a>
</g>
</g>
<!-- Node30&#45;&gt;Node33 -->
<g id="edge32_Node000030_Node000033" class="edge">
<title>Node30&#45;&gt;Node33</title>
<g id="a_edge32_Node000030_Node000033"><a xlink:title=" ">
<path fill="none" stroke="#63b8ff" d="M291.58,-167.55C327.99,-174.25 374.64,-182.84 405.38,-188.5"/>
<polygon fill="#63b8ff" stroke="#63b8ff" points="292.08,-164.08 281.61,-165.71 290.81,-170.96 292.08,-164.08"/>
</a>
</g>
</g>
<!-- Node34 -->
<g id="Node000034" class="node">
<title>Node34</title>
<g id="a_Node000034"><a xlink:href="class_ogre_1_1_gpu_program.html" target="_top" xlink:title="Defines a program which runs on the GPU such as a vertex or fragment program.">
<polygon fill="white" stroke="#666666" points="492.5,-167 385.5,-167 385.5,-148 492.5,-148 492.5,-167"/>
<text text-anchor="middle" x="439" y="-155" font-family="Helvetica,sans-Serif" font-size="10.00">Ogre::GpuProgram</text>
</a>
</g>
</g>
<!-- Node30&#45;&gt;Node34 -->
<g id="edge33_Node000030_Node000034" class="edge">
<title>Node30&#45;&gt;Node34</title>
<g id="a_edge33_Node000030_Node000034"><a xlink:title=" ">
<path fill="none" stroke="#63b8ff" d="M291.62,-157.5C320.77,-157.5 356.48,-157.5 385.33,-157.5"/>
<polygon fill="#63b8ff" stroke="#63b8ff" points="291.61,-154 281.61,-157.5 291.61,-161 291.61,-154"/>
</a>
</g>
</g>
<!-- Node38 -->
<g id="Node000038" class="node">
<title>Node38</title>
<g id="a_Node000038"><a xlink:href="class_ogre_1_1_material.html" target="_top" xlink:title="Class encapsulates rendering properties of an object.">
<polygon fill="white" stroke="#666666" points="482,-130 396,-130 396,-111 482,-111 482,-130"/>
<text text-anchor="middle" x="439" y="-118" font-family="Helvetica,sans-Serif" font-size="10.00">Ogre::Material</text>
</a>
</g>
</g>
<!-- Node30&#45;&gt;Node38 -->
<g id="edge37_Node000030_Node000038" class="edge">
<title>Node30&#45;&gt;Node38</title>
<g id="a_edge37_Node000030_Node000038"><a xlink:title=" ">
<path fill="none" stroke="#63b8ff" d="M291.52,-147.46C324.37,-141.42 365.59,-133.83 395.92,-128.25"/>
<polygon fill="#63b8ff" stroke="#63b8ff" points="290.81,-144.04 281.61,-149.29 292.08,-150.92 290.81,-144.04"/>
</a>
</g>
</g>
<!-- Node39 -->
<g id="Node000039" class="node">
<title>Node39</title>
<g id="a_Node000039"><a xlink:href="class_ogre_1_1_mesh.html" target="_top" xlink:title="Resource holding data about 3D mesh.">
<polygon fill="white" stroke="#666666" points="475,-93 403,-93 403,-74 475,-74 475,-93"/>
<text text-anchor="middle" x="439" y="-81" font-family="Helvetica,sans-Serif" font-size="10.00">Ogre::Mesh</text>
</a>
</g>
</g>
<!-- Node30&#45;&gt;Node39 -->
<g id="edge38_Node000030_Node000039" class="edge">
<title>Node30&#45;&gt;Node39</title>
<g id="a_edge38_Node000030_Node000039"><a xlink:title=" ">
<path fill="none" stroke="#63b8ff" d="M263.24,-143.14C286.51,-130.91 321.72,-113.59 354,-102.5 369.7,-97.11 387.57,-92.82 402.79,-89.69"/>
<polygon fill="#63b8ff" stroke="#63b8ff" points="261.52,-140.09 254.34,-147.88 264.81,-146.27 261.52,-140.09"/>
</a>
</g>
</g>
<!-- Node41 -->
<g id="Node000041" class="node">
<title>Node41</title>
<g id="a_Node000041"><a xlink:href="class_ogre_1_1_skeleton.html" target="_top" xlink:title="A collection of Bone objects used to animate a skinned mesh.">
<polygon fill="white" stroke="#666666" points="483,-56 395,-56 395,-37 483,-37 483,-56"/>
<text text-anchor="middle" x="439" y="-44" font-family="Helvetica,sans-Serif" font-size="10.00">Ogre::Skeleton</text>
</a>
</g>
</g>
<!-- Node30&#45;&gt;Node41 -->
<g id="edge40_Node000030_Node000041" class="edge">
<title>Node30&#45;&gt;Node41</title>
<g id="a_edge40_Node000030_Node000041"><a xlink:title=" ">
<path fill="none" stroke="#63b8ff" d="M253.15,-140.53C274.29,-119.37 313.43,-83.67 354,-64.5 366.68,-58.51 381.37,-54.49 394.89,-51.81"/>
<polygon fill="#63b8ff" stroke="#63b8ff" points="250.47,-138.26 245.97,-147.86 255.47,-143.16 250.47,-138.26"/>
</a>
</g>
</g>
<!-- Node43 -->
<g id="Node000043" class="node">
<title>Node43</title>
<g id="a_Node000043"><a xlink:href="class_ogre_1_1_texture.html" target="_top" xlink:title="Abstract class representing a Texture resource.">
<polygon fill="white" stroke="#666666" points="480,-19 398,-19 398,0 480,0 480,-19"/>
<text text-anchor="middle" x="439" y="-7" font-family="Helvetica,sans-Serif" font-size="10.00">Ogre::Texture</text>
</a>
</g>
</g>
<!-- Node30&#45;&gt;Node43 -->
<g id="edge42_Node000030_Node000043" class="edge">
<title>Node30&#45;&gt;Node43</title>
<g id="a_edge42_Node000030_Node000043"><a xlink:title=" ">
<path fill="none" stroke="#63b8ff" d="M248.03,-139.16C266.28,-110.5 305.59,-55.51 354,-27.5 367.17,-19.88 383.18,-15.48 397.67,-12.93"/>
<polygon fill="#63b8ff" stroke="#63b8ff" points="244.97,-137.45 242.67,-147.79 250.92,-141.14 244.97,-137.45"/>
</a>
</g>
</g>
<!-- Node35 -->
<g id="Node000035" class="node">
<title>Node35</title>
<g id="a_Node000035"><a xlink:href="class_ogre_1_1_high_level_gpu_program.html" target="_top" xlink:title="Abstract base class representing a high&#45;level program (a vertex or fragment program).">
<polygon fill="white" stroke="#666666" points="715,-167 560,-167 560,-148 715,-148 715,-167"/>
<text text-anchor="middle" x="637.5" y="-155" font-family="Helvetica,sans-Serif" font-size="10.00">Ogre::HighLevelGpuProgram</text>
</a>
</g>
</g>
<!-- Node34&#45;&gt;Node35 -->
<g id="edge34_Node000034_Node000035" class="edge">
<title>Node34&#45;&gt;Node35</title>
<g id="a_edge34_Node000034_Node000035"><a xlink:title=" ">
<path fill="none" stroke="#63b8ff" d="M502.79,-157.5C520.88,-157.5 540.83,-157.5 559.68,-157.5"/>
<polygon fill="#63b8ff" stroke="#63b8ff" points="502.66,-154 492.66,-157.5 502.66,-161 502.66,-154"/>
</a>
</g>
</g>
<!-- Node36 -->
<g id="Node000036" class="node">
<title>Node36</title>
<g id="a_Node000036"><a xlink:href="class_ogre_1_1_cg_program.html" target="_top" xlink:title="Specialisation of HighLevelGpuProgram to provide support for nVidia&#39;s CG language.">
<polygon fill="white" stroke="#666666" points="879.5,-185 779.5,-185 779.5,-166 879.5,-166 879.5,-185"/>
<text text-anchor="middle" x="829.5" y="-173" font-family="Helvetica,sans-Serif" font-size="10.00">Ogre::CgProgram</text>
</a>
</g>
</g>
<!-- Node35&#45;&gt;Node36 -->
<g id="edge35_Node000035_Node000036" class="edge">
<title>Node35&#45;&gt;Node36</title>
<g id="a_edge35_Node000035_Node000036"><a xlink:title=" ">
<path fill="none" stroke="#63b8ff" d="M725.19,-165.71C743.77,-167.47 762.78,-169.27 779.34,-170.84"/>
<polygon fill="#63b8ff" stroke="#63b8ff" points="725.52,-162.23 715.23,-164.77 724.86,-169.2 725.52,-162.23"/>
</a>
</g>
</g>
<!-- Node37 -->
<g id="Node000037" class="node">
<title>Node37</title>
<g id="a_Node000037"><a xlink:href="class_ogre_1_1_g_l_s_lang_program.html" target="_top" xlink:title="Specialisation of HighLevelGpuProgram to provide support for the GLSLang compiler by Khronos.">
<polygon fill="white" stroke="#666666" points="894,-148 765,-148 765,-129 894,-129 894,-148"/>
<text text-anchor="middle" x="829.5" y="-136" font-family="Helvetica,sans-Serif" font-size="10.00">Ogre::GLSLangProgram</text>
</a>
</g>
</g>
<!-- Node35&#45;&gt;Node37 -->
<g id="edge36_Node000035_Node000037" class="edge">
<title>Node35&#45;&gt;Node37</title>
<g id="a_edge36_Node000035_Node000037"><a xlink:title=" ">
<path fill="none" stroke="#63b8ff" d="M725.35,-148.81C738.66,-147.48 752.19,-146.13 764.87,-144.86"/>
<polygon fill="#63b8ff" stroke="#63b8ff" points="724.83,-145.35 715.23,-149.83 725.53,-152.31 724.83,-145.35"/>
</a>
</g>
</g>
<!-- Node40 -->
<g id="Node000040" class="node">
<title>Node40</title>
<g id="a_Node000040"><a xlink:href="class_ogre_1_1_patch_mesh.html" target="_top" xlink:title="Patch specialisation of Mesh.">
<polygon fill="white" stroke="#666666" points="687,-93 588,-93 588,-74 687,-74 687,-93"/>
<text text-anchor="middle" x="637.5" y="-81" font-family="Helvetica,sans-Serif" font-size="10.00">Ogre::PatchMesh</text>
</a>
</g>
</g>
<!-- Node39&#45;&gt;Node40 -->
<g id="edge39_Node000039_Node000040" class="edge">
<title>Node39&#45;&gt;Node40</title>
<g id="a_edge39_Node000039_Node000040"><a xlink:title=" ">
<path fill="none" stroke="#63b8ff" d="M485.52,-83.5C516.11,-83.5 556.39,-83.5 587.65,-83.5"/>
<polygon fill="#63b8ff" stroke="#63b8ff" points="485.13,-80 475.13,-83.5 485.13,-87 485.13,-80"/>
</a>
</g>
</g>
<!-- Node42 -->
<g id="Node000042" class="node">
<title>Node42</title>
<g id="a_Node000042"><a xlink:href="class_ogre_1_1_skeleton_instance.html" target="_top" xlink:title="A SkeletonInstance is a single instance of a Skeleton used by a world object.">
<polygon fill="white" stroke="#666666" points="702,-56 573,-56 573,-37 702,-37 702,-56"/>
<text text-anchor="middle" x="637.5" y="-44" font-family="Helvetica,sans-Serif" font-size="10.00">Ogre::SkeletonInstance</text>
</a>
</g>
</g>
<!-- Node41&#45;&gt;Node42 -->
<g id="edge41_Node000041_Node000042" class="edge">
<title>Node41&#45;&gt;Node42</title>
<g id="a_edge41_Node000041_Node000042"><a xlink:title=" ">
<path fill="none" stroke="#63b8ff" d="M493.34,-46.5C517.9,-46.5 547.25,-46.5 572.95,-46.5"/>
<polygon fill="#63b8ff" stroke="#63b8ff" points="493.12,-43 483.12,-46.5 493.12,-50 493.12,-43"/>
</a>
</g>
</g>
</g>
</svg>
