<?xml version="1.0" encoding="UTF-8" standalone="no"?>
<!DOCTYPE svg PUBLIC "-//W3C//DTD SVG 1.1//EN"
 "http://www.w3.org/Graphics/SVG/1.1/DTD/svg11.dtd">
<!-- Generated by graphviz version 2.43.0 (0)
 -->
<!-- Title: Ogre::MeshManager Pages: 1 -->
<svg width="387pt" height="137pt"
 viewBox="0.00 0.00 387.00 137.00" xmlns="http://www.w3.org/2000/svg" xmlns:xlink="http://www.w3.org/1999/xlink">
<g id="graph0" class="graph" transform="scale(1 1) rotate(0) translate(4 133)">
<title>Ogre::MeshManager</title>
<!-- Node1 -->
<g id="Node000001" class="node">
<title>Node1</title>
<g id="a_Node000001"><a xlink:title="Handles the management of mesh resources.">
<polygon fill="#999999" stroke="#666666" points="256,-19 141,-19 141,0 256,0 256,-19"/>
<text text-anchor="middle" x="198.5" y="-7" font-family="Helvetica,sans-Serif" font-size="10.00">Ogre::MeshManager</text>
</a>
</g>
</g>
<!-- Node2 -->
<g id="Node000002" class="node">
<title>Node2</title>
<g id="a_Node000002"><a xlink:href="class_ogre_1_1_resource_manager.html" target="_top" xlink:title="Defines a generic resource handler.">
<polygon fill="white" stroke="#666666" points="177.5,-74 43.5,-74 43.5,-55 177.5,-55 177.5,-74"/>
<text text-anchor="middle" x="110.5" y="-62" font-family="Helvetica,sans-Serif" font-size="10.00">Ogre::ResourceManager</text>
</a>
</g>
</g>
<!-- Node2&#45;&gt;Node1 -->
<g id="edge1_Node000001_Node000002" class="edge">
<title>Node2&#45;&gt;Node1</title>
<g id="a_edge1_Node000001_Node000002"><a xlink:title=" ">
<path fill="none" stroke="#63b8ff" d="M133.42,-49.7C149.45,-40.04 170.37,-27.44 184.1,-19.17"/>
<polygon fill="#63b8ff" stroke="#63b8ff" points="131.4,-46.83 124.64,-54.98 135.01,-52.82 131.4,-46.83"/>
</a>
</g>
</g>
<!-- Node3 -->
<g id="Node000003" class="node">
<title>Node3</title>
<g id="a_Node000003"><a xlink:href="class_ogre_1_1_script_loader.html" target="_top" xlink:title="Abstract class defining the interface used by classes which wish to perform script loading to define ...">
<polygon fill="white" stroke="#666666" points="107,-129 0,-129 0,-110 107,-110 107,-129"/>
<text text-anchor="middle" x="53.5" y="-117" font-family="Helvetica,sans-Serif" font-size="10.00">Ogre::ScriptLoader</text>
</a>
</g>
</g>
<!-- Node3&#45;&gt;Node2 -->
<g id="edge2_Node000002_Node000003" class="edge">
<title>Node3&#45;&gt;Node2</title>
<g id="a_edge2_Node000002_Node000003"><a xlink:title=" ">
<path fill="none" stroke="#63b8ff" d="M70.12,-103.04C80.23,-93.64 92.78,-81.98 101.18,-74.17"/>
<polygon fill="#63b8ff" stroke="#63b8ff" points="67.6,-100.61 62.66,-109.98 72.36,-105.74 67.6,-100.61"/>
</a>
</g>
</g>
<!-- Node4 -->
<g id="Node000004" class="node">
<title>Node4</title>
<g id="a_Node000004"><a xlink:title=" ">
<polygon fill="white" stroke="#666666" points="211.5,-129 125.5,-129 125.5,-110 211.5,-110 211.5,-129"/>
<text text-anchor="middle" x="168.5" y="-117" font-family="Helvetica,sans-Serif" font-size="10.00">ResourceAlloc</text>
</a>
</g>
</g>
<!-- Node4&#45;&gt;Node2 -->
<g id="edge3_Node000002_Node000004" class="edge">
<title>Node4&#45;&gt;Node2</title>
<g id="a_edge3_Node000002_Node000004"><a xlink:title=" ">
<path fill="none" stroke="#63b8ff" d="M151.59,-103.04C141.3,-93.64 128.53,-81.98 119.99,-74.17"/>
<polygon fill="#63b8ff" stroke="#63b8ff" points="149.44,-105.82 159.18,-109.98 154.16,-100.66 149.44,-105.82"/>
</a>
</g>
</g>
<!-- Node5 -->
<g id="Node000005" class="node">
<title>Node5</title>
<g id="a_Node000005"><a xlink:href="class_ogre_1_1_singleton.html" target="_top" xlink:title=" ">
<polygon fill="white" stroke="#666666" points="379,-74 196,-74 196,-55 379,-55 379,-74"/>
<text text-anchor="middle" x="287.5" y="-62" font-family="Helvetica,sans-Serif" font-size="10.00">Ogre::Singleton&lt; MeshManager &gt;</text>
</a>
</g>
</g>
<!-- Node5&#45;&gt;Node1 -->
<g id="edge4_Node000001_Node000005" class="edge">
<title>Node5&#45;&gt;Node1</title>
<g id="a_edge4_Node000001_Node000005"><a xlink:title=" ">
<path fill="none" stroke="#63b8ff" d="M264.32,-49.7C248.11,-40.04 226.95,-27.44 213.06,-19.17"/>
<polygon fill="#63b8ff" stroke="#63b8ff" points="262.82,-52.88 273.2,-54.98 266.4,-46.86 262.82,-52.88"/>
</a>
</g>
</g>
</g>
</svg>
