<?xml version="1.0" encoding="UTF-8" standalone="no"?>
<!DOCTYPE svg PUBLIC "-//W3C//DTD SVG 1.1//EN"
 "http://www.w3.org/Graphics/SVG/1.1/DTD/svg11.dtd">
<!-- Generated by graphviz version 2.43.0 (0)
 -->
<!-- Title: Ogre::D3D11RenderSystem Pages: 1 -->
<svg width="314pt" height="137pt"
 viewBox="0.00 0.00 314.00 137.00" xmlns="http://www.w3.org/2000/svg" xmlns:xlink="http://www.w3.org/1999/xlink">
<g id="graph0" class="graph" transform="scale(1 1) rotate(0) translate(4 133)">
<title>Ogre::D3D11RenderSystem</title>
<!-- Node1 -->
<g id="Node000001" class="node">
<title>Node1</title>
<g id="a_Node000001"><a xlink:title="Implementation of DirectX11 as a rendering system.">
<polygon fill="#999999" stroke="#666666" points="214.5,-19 64.5,-19 64.5,0 214.5,0 214.5,-19"/>
<text text-anchor="middle" x="139.5" y="-7" font-family="Helvetica,sans-Serif" font-size="10.00">Ogre::D3D11RenderSystem</text>
</a>
</g>
</g>
<!-- Node2 -->
<g id="Node000002" class="node">
<title>Node2</title>
<g id="a_Node000002"><a xlink:href="class_ogre_1_1_render_system.html" target="_top" xlink:title="Defines the functionality of a 3D API.">
<polygon fill="white" stroke="#666666" points="117,-74 0,-74 0,-55 117,-55 117,-74"/>
<text text-anchor="middle" x="58.5" y="-62" font-family="Helvetica,sans-Serif" font-size="10.00">Ogre::RenderSystem</text>
</a>
</g>
</g>
<!-- Node2&#45;&gt;Node1 -->
<g id="edge1_Node000001_Node000002" class="edge">
<title>Node2&#45;&gt;Node1</title>
<g id="a_edge1_Node000001_Node000002"><a xlink:title=" ">
<path fill="none" stroke="#63b8ff" d="M80.01,-49.42C94.71,-39.81 113.72,-27.37 126.25,-19.17"/>
<polygon fill="#63b8ff" stroke="#63b8ff" points="77.97,-46.58 71.51,-54.98 81.8,-52.44 77.97,-46.58"/>
</a>
</g>
</g>
<!-- Node3 -->
<g id="Node000003" class="node">
<title>Node3</title>
<g id="a_Node000003"><a xlink:title=" ">
<polygon fill="white" stroke="#666666" points="104.5,-129 12.5,-129 12.5,-110 104.5,-110 104.5,-129"/>
<text text-anchor="middle" x="58.5" y="-117" font-family="Helvetica,sans-Serif" font-size="10.00">RenderSysAlloc</text>
</a>
</g>
</g>
<!-- Node3&#45;&gt;Node2 -->
<g id="edge2_Node000002_Node000003" class="edge">
<title>Node3&#45;&gt;Node2</title>
<g id="a_edge2_Node000002_Node000003"><a xlink:title=" ">
<path fill="none" stroke="#63b8ff" d="M58.5,-99.66C58.5,-90.93 58.5,-80.99 58.5,-74.09"/>
<polygon fill="#63b8ff" stroke="#63b8ff" points="55,-99.75 58.5,-109.75 62,-99.75 55,-99.75"/>
</a>
</g>
</g>
<!-- Node4 -->
<g id="Node000004" class="node">
<title>Node4</title>
<g id="a_Node000004"><a xlink:title=" ">
<polygon fill="white" stroke="#666666" points="306,-74 135,-74 135,-55 306,-55 306,-74"/>
<text text-anchor="middle" x="220.5" y="-62" font-family="Helvetica,sans-Serif" font-size="10.00">D3D11DeviceResourceManager</text>
</a>
</g>
</g>
<!-- Node4&#45;&gt;Node1 -->
<g id="edge3_Node000001_Node000004" class="edge">
<title>Node4&#45;&gt;Node1</title>
<g id="a_edge3_Node000001_Node000004"><a xlink:title=" ">
<path fill="none" stroke="#8b1a1a" d="M198.99,-49.42C184.29,-39.81 165.28,-27.37 152.75,-19.17"/>
<polygon fill="#8b1a1a" stroke="#8b1a1a" points="197.2,-52.44 207.49,-54.98 201.03,-46.58 197.2,-52.44"/>
</a>
</g>
</g>
</g>
</svg>
