<?xml version="1.0" encoding="UTF-8" standalone="no"?>
<!DOCTYPE svg PUBLIC "-//W3C//DTD SVG 1.1//EN"
 "http://www.w3.org/Graphics/SVG/1.1/DTD/svg11.dtd">
<!-- Generated by graphviz version 2.43.0 (0)
 -->
<!-- Title: Ogre::ResourceManager Pages: 1 -->
<svg width="667pt" height="249pt"
 viewBox="0.00 0.00 667.00 249.00" xmlns="http://www.w3.org/2000/svg" xmlns:xlink="http://www.w3.org/1999/xlink">
<g id="graph0" class="graph" transform="scale(1 1) rotate(0) translate(4 245)">
<title>Ogre::ResourceManager</title>
<!-- Node1 -->
<g id="Node000001" class="node">
<title>Node1</title>
<g id="a_Node000001"><a xlink:title="Defines a generic resource handler.">
<polygon fill="#999999" stroke="#666666" points="277,-130 143,-130 143,-111 277,-111 277,-130"/>
<text text-anchor="middle" x="210" y="-118" font-family="Helvetica,sans-Serif" font-size="10.00">Ogre::ResourceManager</text>
</a>
</g>
</g>
<!-- Node4 -->
<g id="Node000004" class="node">
<title>Node4</title>
<g id="a_Node000004"><a xlink:href="class_ogre_1_1_compositor_manager.html" target="_top" xlink:title="Class for managing Compositor settings for Ogre.">
<polygon fill="white" stroke="#666666" points="460,-241 315,-241 315,-222 460,-222 460,-241"/>
<text text-anchor="middle" x="387.5" y="-229" font-family="Helvetica,sans-Serif" font-size="10.00">Ogre::CompositorManager</text>
</a>
</g>
</g>
<!-- Node1&#45;&gt;Node4 -->
<g id="edge3_Node000001_Node000004" class="edge">
<title>Node1&#45;&gt;Node4</title>
<g id="a_edge3_Node000001_Node000004"><a xlink:title=" ">
<path fill="none" stroke="#63b8ff" d="M225.18,-137.93C243.32,-159.05 276.76,-194.18 313,-213.5 319.38,-216.9 326.41,-219.67 333.51,-221.92"/>
<polygon fill="#63b8ff" stroke="#63b8ff" points="227.7,-135.49 218.59,-130.08 222.34,-139.99 227.7,-135.49"/>
</a>
</g>
</g>
<!-- Node5 -->
<g id="Node000005" class="node">
<title>Node5</title>
<g id="a_Node000005"><a xlink:href="class_ogre_1_1_font_manager.html" target="_top" xlink:title="Manages Font resources, parsing .fontdef files and generally organising them.">
<polygon fill="white" stroke="#666666" points="442.5,-204 332.5,-204 332.5,-185 442.5,-185 442.5,-204"/>
<text text-anchor="middle" x="387.5" y="-192" font-family="Helvetica,sans-Serif" font-size="10.00">Ogre::FontManager</text>
</a>
</g>
</g>
<!-- Node1&#45;&gt;Node5 -->
<g id="edge4_Node000001_Node000005" class="edge">
<title>Node1&#45;&gt;Node5</title>
<g id="a_edge4_Node000001_Node000005"><a xlink:title=" ">
<path fill="none" stroke="#63b8ff" d="M234.1,-135.48C254.24,-147.97 284.59,-165.44 313,-176.5 321.45,-179.79 330.68,-182.61 339.66,-184.98"/>
<polygon fill="#63b8ff" stroke="#63b8ff" points="235.94,-132.5 225.61,-130.13 232.21,-138.42 235.94,-132.5"/>
</a>
</g>
</g>
<!-- Node6 -->
<g id="Node000006" class="node">
<title>Node6</title>
<g id="a_Node000006"><a xlink:href="class_ogre_1_1_gpu_program_manager.html" target="_top" xlink:title="This ResourceManager manages GPU shader programs.">
<polygon fill="white" stroke="#666666" points="462,-167 313,-167 313,-148 462,-148 462,-167"/>
<text text-anchor="middle" x="387.5" y="-155" font-family="Helvetica,sans-Serif" font-size="10.00">Ogre::GpuProgramManager</text>
</a>
</g>
</g>
<!-- Node1&#45;&gt;Node6 -->
<g id="edge5_Node000001_Node000006" class="edge">
<title>Node1&#45;&gt;Node6</title>
<g id="a_edge5_Node000001_Node000006"><a xlink:title=" ">
<path fill="none" stroke="#63b8ff" d="M266.27,-132.15C290.38,-137.23 318.29,-143.12 341.15,-147.94"/>
<polygon fill="#63b8ff" stroke="#63b8ff" points="266.7,-128.67 256.2,-130.03 265.26,-135.52 266.7,-128.67"/>
</a>
</g>
</g>
<!-- Node7 -->
<g id="Node000007" class="node">
<title>Node7</title>
<g id="a_Node000007"><a xlink:href="class_ogre_1_1_material_manager.html" target="_top" xlink:title="Class for managing Material settings for Ogre.">
<polygon fill="white" stroke="#666666" points="452,-130 323,-130 323,-111 452,-111 452,-130"/>
<text text-anchor="middle" x="387.5" y="-118" font-family="Helvetica,sans-Serif" font-size="10.00">Ogre::MaterialManager</text>
</a>
</g>
</g>
<!-- Node1&#45;&gt;Node7 -->
<g id="edge6_Node000001_Node000007" class="edge">
<title>Node1&#45;&gt;Node7</title>
<g id="a_edge6_Node000001_Node000007"><a xlink:title=" ">
<path fill="none" stroke="#63b8ff" d="M287.62,-120.5C299.42,-120.5 311.49,-120.5 322.96,-120.5"/>
<polygon fill="#63b8ff" stroke="#63b8ff" points="287.35,-117 277.35,-120.5 287.35,-124 287.35,-117"/>
</a>
</g>
</g>
<!-- Node8 -->
<g id="Node000008" class="node">
<title>Node8</title>
<g id="a_Node000008"><a xlink:href="class_ogre_1_1_mesh_manager.html" target="_top" xlink:title="Handles the management of mesh resources.">
<polygon fill="white" stroke="#666666" points="445,-93 330,-93 330,-74 445,-74 445,-93"/>
<text text-anchor="middle" x="387.5" y="-81" font-family="Helvetica,sans-Serif" font-size="10.00">Ogre::MeshManager</text>
</a>
</g>
</g>
<!-- Node1&#45;&gt;Node8 -->
<g id="edge7_Node000001_Node000008" class="edge">
<title>Node1&#45;&gt;Node8</title>
<g id="a_edge7_Node000001_Node000008"><a xlink:title=" ">
<path fill="none" stroke="#63b8ff" d="M266.27,-108.85C290.38,-103.77 318.29,-97.88 341.15,-93.06"/>
<polygon fill="#63b8ff" stroke="#63b8ff" points="265.26,-105.48 256.2,-110.97 266.7,-112.33 265.26,-105.48"/>
</a>
</g>
</g>
<!-- Node9 -->
<g id="Node000009" class="node">
<title>Node9</title>
<g id="a_Node000009"><a xlink:href="class_ogre_1_1_skeleton_manager.html" target="_top" xlink:title="Handles the management of skeleton resources.">
<polygon fill="white" stroke="#666666" points="453,-56 322,-56 322,-37 453,-37 453,-56"/>
<text text-anchor="middle" x="387.5" y="-44" font-family="Helvetica,sans-Serif" font-size="10.00">Ogre::SkeletonManager</text>
</a>
</g>
</g>
<!-- Node1&#45;&gt;Node9 -->
<g id="edge8_Node000001_Node000009" class="edge">
<title>Node1&#45;&gt;Node9</title>
<g id="a_edge8_Node000001_Node000009"><a xlink:title=" ">
<path fill="none" stroke="#63b8ff" d="M234.1,-105.52C254.24,-93.03 284.59,-75.56 313,-64.5 321.45,-61.21 330.68,-58.39 339.66,-56.02"/>
<polygon fill="#63b8ff" stroke="#63b8ff" points="232.21,-102.58 225.61,-110.87 235.94,-108.5 232.21,-102.58"/>
</a>
</g>
</g>
<!-- Node10 -->
<g id="Node000010" class="node">
<title>Node10</title>
<g id="a_Node000010"><a xlink:href="class_ogre_1_1_texture_manager.html" target="_top" xlink:title="Class for loading &amp; managing textures.">
<polygon fill="white" stroke="#666666" points="450,-19 325,-19 325,0 450,0 450,-19"/>
<text text-anchor="middle" x="387.5" y="-7" font-family="Helvetica,sans-Serif" font-size="10.00">Ogre::TextureManager</text>
</a>
</g>
</g>
<!-- Node1&#45;&gt;Node10 -->
<g id="edge9_Node000001_Node000010" class="edge">
<title>Node1&#45;&gt;Node10</title>
<g id="a_edge9_Node000001_Node000010"><a xlink:title=" ">
<path fill="none" stroke="#63b8ff" d="M225.18,-103.07C243.32,-81.95 276.76,-46.82 313,-27.5 319.38,-24.1 326.41,-21.33 333.51,-19.08"/>
<polygon fill="#63b8ff" stroke="#63b8ff" points="222.34,-101.01 218.59,-110.92 227.7,-105.51 222.34,-101.01"/>
</a>
</g>
</g>
<!-- Node2 -->
<g id="Node000002" class="node">
<title>Node2</title>
<g id="a_Node000002"><a xlink:href="class_ogre_1_1_script_loader.html" target="_top" xlink:title="Abstract class defining the interface used by classes which wish to perform script loading to define ...">
<polygon fill="white" stroke="#666666" points="107,-149 0,-149 0,-130 107,-130 107,-149"/>
<text text-anchor="middle" x="53.5" y="-137" font-family="Helvetica,sans-Serif" font-size="10.00">Ogre::ScriptLoader</text>
</a>
</g>
</g>
<!-- Node2&#45;&gt;Node1 -->
<g id="edge1_Node000001_Node000002" class="edge">
<title>Node2&#45;&gt;Node1</title>
<g id="a_edge1_Node000001_Node000002"><a xlink:title=" ">
<path fill="none" stroke="#63b8ff" d="M117.34,-131.77C125.74,-130.74 134.38,-129.68 142.84,-128.64"/>
<polygon fill="#63b8ff" stroke="#63b8ff" points="116.74,-128.32 107.24,-133.01 117.59,-135.27 116.74,-128.32"/>
</a>
</g>
</g>
<!-- Node3 -->
<g id="Node000003" class="node">
<title>Node3</title>
<g id="a_Node000003"><a xlink:title=" ">
<polygon fill="white" stroke="#666666" points="96.5,-112 10.5,-112 10.5,-93 96.5,-93 96.5,-112"/>
<text text-anchor="middle" x="53.5" y="-100" font-family="Helvetica,sans-Serif" font-size="10.00">ResourceAlloc</text>
</a>
</g>
</g>
<!-- Node3&#45;&gt;Node1 -->
<g id="edge2_Node000001_Node000003" class="edge">
<title>Node3&#45;&gt;Node1</title>
<g id="a_edge2_Node000001_Node000003"><a xlink:title=" ">
<path fill="none" stroke="#63b8ff" d="M106.65,-108.58C118.24,-109.93 130.67,-111.37 142.74,-112.78"/>
<polygon fill="#63b8ff" stroke="#63b8ff" points="107.06,-105.1 96.72,-107.42 106.25,-112.05 107.06,-105.1"/>
</a>
</g>
</g>
<!-- Node11 -->
<g id="Node000011" class="node">
<title>Node11</title>
<g id="a_Node000011"><a xlink:href="class_ogre_1_1_default_texture_manager.html" target="_top" xlink:title="Specialisation of TextureManager for offline processing. Cannot be used with an active RenderSystem.">
<polygon fill="white" stroke="#666666" points="659,-19 498,-19 498,0 659,0 659,-19"/>
<text text-anchor="middle" x="578.5" y="-7" font-family="Helvetica,sans-Serif" font-size="10.00">Ogre::DefaultTextureManager</text>
</a>
</g>
</g>
<!-- Node10&#45;&gt;Node11 -->
<g id="edge10_Node000010_Node000011" class="edge">
<title>Node10&#45;&gt;Node11</title>
<g id="a_edge10_Node000010_Node000011"><a xlink:title=" ">
<path fill="none" stroke="#63b8ff" d="M460.26,-9.5C472.5,-9.5 485.28,-9.5 497.71,-9.5"/>
<polygon fill="#63b8ff" stroke="#63b8ff" points="460.12,-6 450.12,-9.5 460.12,-13 460.12,-6"/>
</a>
</g>
</g>
</g>
</svg>
