<?xml version="1.0" encoding="UTF-8" standalone="no"?>
<!DOCTYPE svg PUBLIC "-//W3C//DTD SVG 1.1//EN"
 "http://www.w3.org/Graphics/SVG/1.1/DTD/svg11.dtd">
<!-- Generated by graphviz version 2.43.0 (0)
 -->
<!-- Title: Ogre::Volume::IsoSurface Pages: 1 -->
<svg width="164pt" height="137pt"
 viewBox="0.00 0.00 164.00 137.00" xmlns="http://www.w3.org/2000/svg" xmlns:xlink="http://www.w3.org/1999/xlink">
<g id="graph0" class="graph" transform="scale(1 1) rotate(0) translate(4 133)">
<title>Ogre::Volume::IsoSurface</title>
<!-- Node1 -->
<g id="Node000001" class="node">
<title>Node1</title>
<g id="a_Node000001"><a xlink:title="Abstract IsoSurface.">
<polygon fill="#999999" stroke="#666666" points="148,-74 8,-74 8,-55 148,-55 148,-74"/>
<text text-anchor="middle" x="78" y="-62" font-family="Helvetica,sans-Serif" font-size="10.00">Ogre::Volume::IsoSurface</text>
</a>
</g>
</g>
<!-- Node3 -->
<g id="Node000003" class="node">
<title>Node3</title>
<g id="a_Node000003"><a xlink:href="class_ogre_1_1_volume_1_1_iso_surface_m_c.html" target="_top" xlink:title="Marching Cubes implementation like at http://local.wasp.uwa.edu.au/~pbourke/geometry/polygonise/.">
<polygon fill="white" stroke="#666666" points="156,-19 0,-19 0,0 156,0 156,-19"/>
<text text-anchor="middle" x="78" y="-7" font-family="Helvetica,sans-Serif" font-size="10.00">Ogre::Volume::IsoSurfaceMC</text>
</a>
</g>
</g>
<!-- Node1&#45;&gt;Node3 -->
<g id="edge2_Node000001_Node000003" class="edge">
<title>Node1&#45;&gt;Node3</title>
<g id="a_edge2_Node000001_Node000003"><a xlink:title=" ">
<path fill="none" stroke="#63b8ff" d="M78,-44.66C78,-35.93 78,-25.99 78,-19.09"/>
<polygon fill="#63b8ff" stroke="#63b8ff" points="74.5,-44.75 78,-54.75 81.5,-44.75 74.5,-44.75"/>
</a>
</g>
</g>
<!-- Node2 -->
<g id="Node000002" class="node">
<title>Node2</title>
<g id="a_Node000002"><a xlink:title=" ">
<polygon fill="white" stroke="#666666" points="113.5,-129 42.5,-129 42.5,-110 113.5,-110 113.5,-129"/>
<text text-anchor="middle" x="78" y="-117" font-family="Helvetica,sans-Serif" font-size="10.00">UtilityAlloc</text>
</a>
</g>
</g>
<!-- Node2&#45;&gt;Node1 -->
<g id="edge1_Node000001_Node000002" class="edge">
<title>Node2&#45;&gt;Node1</title>
<g id="a_edge1_Node000001_Node000002"><a xlink:title=" ">
<path fill="none" stroke="#63b8ff" d="M78,-99.66C78,-90.93 78,-80.99 78,-74.09"/>
<polygon fill="#63b8ff" stroke="#63b8ff" points="74.5,-99.75 78,-109.75 81.5,-99.75 74.5,-99.75"/>
</a>
</g>
</g>
</g>
</svg>
