<?xml version="1.0" encoding="UTF-8" standalone="no"?>
<!DOCTYPE svg PUBLIC "-//W3C//DTD SVG 1.1//EN"
 "http://www.w3.org/Graphics/SVG/1.1/DTD/svg11.dtd">
<!-- Generated by graphviz version 2.43.0 (0)
 -->
<!-- Title: Ogre::RenderSystem Pages: 1 -->
<svg width="440pt" height="175pt"
 viewBox="0.00 0.00 440.00 175.00" xmlns="http://www.w3.org/2000/svg" xmlns:xlink="http://www.w3.org/1999/xlink">
<g id="graph0" class="graph" transform="scale(1 1) rotate(0) translate(4 171)">
<title>Ogre::RenderSystem</title>
<!-- Node1 -->
<g id="Node000001" class="node">
<title>Node1</title>
<g id="a_Node000001"><a xlink:title="Defines the functionality of a 3D API.">
<polygon fill="#999999" stroke="#666666" points="245,-93 128,-93 128,-74 245,-74 245,-93"/>
<text text-anchor="middle" x="186.5" y="-81" font-family="Helvetica,sans-Serif" font-size="10.00">Ogre::RenderSystem</text>
</a>
</g>
</g>
<!-- Node3 -->
<g id="Node000003" class="node">
<title>Node3</title>
<g id="a_Node000003"><a xlink:href="class_ogre_1_1_d3_d11_render_system.html" target="_top" xlink:title="Implementation of DirectX11 as a rendering system.">
<polygon fill="white" stroke="#666666" points="431.5,-167 281.5,-167 281.5,-148 431.5,-148 431.5,-167"/>
<text text-anchor="middle" x="356.5" y="-155" font-family="Helvetica,sans-Serif" font-size="10.00">Ogre::D3D11RenderSystem</text>
</a>
</g>
</g>
<!-- Node1&#45;&gt;Node3 -->
<g id="edge2_Node000001_Node000003" class="edge">
<title>Node1&#45;&gt;Node3</title>
<g id="a_edge2_Node000001_Node000003"><a xlink:title=" ">
<path fill="none" stroke="#63b8ff" d="M208.66,-98.73C227,-111.28 254.66,-128.72 281,-139.5 289.13,-142.83 298.02,-145.63 306.73,-147.97"/>
<polygon fill="#63b8ff" stroke="#63b8ff" points="210.66,-95.85 200.45,-93.01 206.66,-101.6 210.66,-95.85"/>
</a>
</g>
</g>
<!-- Node4 -->
<g id="Node000004" class="node">
<title>Node4</title>
<g id="a_Node000004"><a xlink:href="class_ogre_1_1_d3_d9_render_system.html" target="_top" xlink:title="Implementation of DirectX9 as a rendering system.">
<polygon fill="white" stroke="#666666" points="428.5,-130 284.5,-130 284.5,-111 428.5,-111 428.5,-130"/>
<text text-anchor="middle" x="356.5" y="-118" font-family="Helvetica,sans-Serif" font-size="10.00">Ogre::D3D9RenderSystem</text>
</a>
</g>
</g>
<!-- Node1&#45;&gt;Node4 -->
<g id="edge3_Node000001_Node000004" class="edge">
<title>Node1&#45;&gt;Node4</title>
<g id="a_edge3_Node000001_Node000004"><a xlink:title=" ">
<path fill="none" stroke="#63b8ff" d="M240.72,-95.22C263.72,-100.29 290.3,-106.14 312.09,-110.94"/>
<polygon fill="#63b8ff" stroke="#63b8ff" points="241.28,-91.76 230.76,-93.03 239.78,-98.6 241.28,-91.76"/>
</a>
</g>
</g>
<!-- Node5 -->
<g id="Node000005" class="node">
<title>Node5</title>
<g id="a_Node000005"><a xlink:href="class_ogre_1_1_metal_render_system.html" target="_top" xlink:title=" ">
<polygon fill="white" stroke="#666666" points="429,-93 284,-93 284,-74 429,-74 429,-93"/>
<text text-anchor="middle" x="356.5" y="-81" font-family="Helvetica,sans-Serif" font-size="10.00">Ogre::MetalRenderSystem</text>
</a>
</g>
</g>
<!-- Node1&#45;&gt;Node5 -->
<g id="edge4_Node000001_Node000005" class="edge">
<title>Node1&#45;&gt;Node5</title>
<g id="a_edge4_Node000001_Node000005"><a xlink:title=" ">
<path fill="none" stroke="#63b8ff" d="M255.38,-83.5C264.78,-83.5 274.46,-83.5 283.92,-83.5"/>
<polygon fill="#63b8ff" stroke="#63b8ff" points="255.32,-80 245.32,-83.5 255.32,-87 255.32,-80"/>
</a>
</g>
</g>
<!-- Node6 -->
<g id="Node000006" class="node">
<title>Node6</title>
<g id="a_Node000006"><a xlink:href="class_ogre_1_1_tiny_render_system.html" target="_top" xlink:title="Software rasterizer Implementation as a rendering system.">
<polygon fill="white" stroke="#666666" points="425,-56 288,-56 288,-37 425,-37 425,-56"/>
<text text-anchor="middle" x="356.5" y="-44" font-family="Helvetica,sans-Serif" font-size="10.00">Ogre::TinyRenderSystem</text>
</a>
</g>
</g>
<!-- Node1&#45;&gt;Node6 -->
<g id="edge5_Node000001_Node000006" class="edge">
<title>Node1&#45;&gt;Node6</title>
<g id="a_edge5_Node000001_Node000006"><a xlink:title=" ">
<path fill="none" stroke="#63b8ff" d="M240.72,-71.78C263.72,-66.71 290.3,-60.86 312.09,-56.06"/>
<polygon fill="#63b8ff" stroke="#63b8ff" points="239.78,-68.4 230.76,-73.97 241.28,-75.24 239.78,-68.4"/>
</a>
</g>
</g>
<!-- Node7 -->
<g id="Node000007" class="node">
<title>Node7</title>
<g id="a_Node000007"><a xlink:href="class_ogre_1_1_vulkan_render_system.html" target="_top" xlink:title=" ">
<polygon fill="white" stroke="#666666" points="432,-19 281,-19 281,0 432,0 432,-19"/>
<text text-anchor="middle" x="356.5" y="-7" font-family="Helvetica,sans-Serif" font-size="10.00">Ogre::VulkanRenderSystem</text>
</a>
</g>
</g>
<!-- Node1&#45;&gt;Node7 -->
<g id="edge6_Node000001_Node000007" class="edge">
<title>Node1&#45;&gt;Node7</title>
<g id="a_edge6_Node000001_Node000007"><a xlink:title=" ">
<path fill="none" stroke="#63b8ff" d="M208.66,-68.27C227,-55.72 254.66,-38.28 281,-27.5 289.13,-24.17 298.02,-21.37 306.73,-19.03"/>
<polygon fill="#63b8ff" stroke="#63b8ff" points="206.66,-65.4 200.45,-73.99 210.66,-71.15 206.66,-65.4"/>
</a>
</g>
</g>
<!-- Node2 -->
<g id="Node000002" class="node">
<title>Node2</title>
<g id="a_Node000002"><a xlink:title=" ">
<polygon fill="white" stroke="#666666" points="92,-93 0,-93 0,-74 92,-74 92,-93"/>
<text text-anchor="middle" x="46" y="-81" font-family="Helvetica,sans-Serif" font-size="10.00">RenderSysAlloc</text>
</a>
</g>
</g>
<!-- Node2&#45;&gt;Node1 -->
<g id="edge1_Node000001_Node000002" class="edge">
<title>Node2&#45;&gt;Node1</title>
<g id="a_edge1_Node000001_Node000002"><a xlink:title=" ">
<path fill="none" stroke="#63b8ff" d="M102.41,-83.5C110.8,-83.5 119.48,-83.5 127.92,-83.5"/>
<polygon fill="#63b8ff" stroke="#63b8ff" points="102.35,-80 92.35,-83.5 102.35,-87 102.35,-80"/>
</a>
</g>
</g>
</g>
</svg>
