<?xml version="1.0" encoding="UTF-8" standalone="no"?>
<!DOCTYPE svg PUBLIC "-//W3C//DTD SVG 1.1//EN"
 "http://www.w3.org/Graphics/SVG/1.1/DTD/svg11.dtd">
<!-- Generated by graphviz version 2.43.0 (0)
 -->
<!-- Title: Ogre::RaySceneQuery Pages: 1 -->
<svg width="483pt" height="247pt"
 viewBox="0.00 0.00 483.00 247.00" xmlns="http://www.w3.org/2000/svg" xmlns:xlink="http://www.w3.org/1999/xlink">
<g id="graph0" class="graph" transform="scale(1 1) rotate(0) translate(4 243)">
<title>Ogre::RaySceneQuery</title>
<!-- Node1 -->
<g id="Node000001" class="node">
<title>Node1</title>
<g id="a_Node000001"><a xlink:title="Specialises the SceneQuery class for querying along a ray.">
<polygon fill="#999999" stroke="#666666" points="298,-129 175,-129 175,-110 298,-110 298,-129"/>
<text text-anchor="middle" x="236.5" y="-117" font-family="Helvetica,sans-Serif" font-size="10.00">Ogre::RaySceneQuery</text>
</a>
</g>
</g>
<!-- Node5 -->
<g id="Node000005" class="node">
<title>Node5</title>
<g id="a_Node000005"><a xlink:href="class_ogre_1_1_default_ray_scene_query.html" target="_top" xlink:title="Default implementation of RaySceneQuery.">
<polygon fill="white" stroke="#666666" points="316,-74 157,-74 157,-55 316,-55 316,-74"/>
<text text-anchor="middle" x="236.5" y="-62" font-family="Helvetica,sans-Serif" font-size="10.00">Ogre::DefaultRaySceneQuery</text>
</a>
</g>
</g>
<!-- Node1&#45;&gt;Node5 -->
<g id="edge4_Node000001_Node000005" class="edge">
<title>Node1&#45;&gt;Node5</title>
<g id="a_edge4_Node000001_Node000005"><a xlink:title=" ">
<path fill="none" stroke="#63b8ff" d="M236.5,-99.66C236.5,-90.93 236.5,-80.99 236.5,-74.09"/>
<polygon fill="#63b8ff" stroke="#63b8ff" points="233,-99.75 236.5,-109.75 240,-99.75 233,-99.75"/>
</a>
</g>
</g>
<!-- Node2 -->
<g id="Node000002" class="node">
<title>Node2</title>
<g id="a_Node000002"><a xlink:href="class_ogre_1_1_scene_query.html" target="_top" xlink:title="A class for performing queries on a scene.">
<polygon fill="white" stroke="#666666" points="213.5,-184 109.5,-184 109.5,-165 213.5,-165 213.5,-184"/>
<text text-anchor="middle" x="161.5" y="-172" font-family="Helvetica,sans-Serif" font-size="10.00">Ogre::SceneQuery</text>
</a>
</g>
</g>
<!-- Node2&#45;&gt;Node1 -->
<g id="edge1_Node000001_Node000002" class="edge">
<title>Node2&#45;&gt;Node1</title>
<g id="a_edge1_Node000001_Node000002"><a xlink:title=" ">
<path fill="none" stroke="#63b8ff" d="M181.81,-159.15C195.36,-149.57 212.74,-137.29 224.23,-129.17"/>
<polygon fill="#63b8ff" stroke="#63b8ff" points="179.7,-156.36 173.55,-164.98 183.74,-162.07 179.7,-156.36"/>
</a>
</g>
</g>
<!-- Node3 -->
<g id="Node000003" class="node">
<title>Node3</title>
<g id="a_Node000003"><a xlink:title=" ">
<polygon fill="white" stroke="#666666" points="206,-239 117,-239 117,-220 206,-220 206,-239"/>
<text text-anchor="middle" x="161.5" y="-227" font-family="Helvetica,sans-Serif" font-size="10.00">SceneMgtAlloc</text>
</a>
</g>
</g>
<!-- Node3&#45;&gt;Node2 -->
<g id="edge2_Node000002_Node000003" class="edge">
<title>Node3&#45;&gt;Node2</title>
<g id="a_edge2_Node000002_Node000003"><a xlink:title=" ">
<path fill="none" stroke="#63b8ff" d="M161.5,-209.66C161.5,-200.93 161.5,-190.99 161.5,-184.09"/>
<polygon fill="#63b8ff" stroke="#63b8ff" points="158,-209.75 161.5,-219.75 165,-209.75 158,-209.75"/>
</a>
</g>
</g>
<!-- Node4 -->
<g id="Node000004" class="node">
<title>Node4</title>
<g id="a_Node000004"><a xlink:href="class_ogre_1_1_ray_scene_query_listener.html" target="_top" xlink:title="Alternative listener class for dealing with RaySceneQuery.">
<polygon fill="white" stroke="#666666" points="393.5,-184 231.5,-184 231.5,-165 393.5,-165 393.5,-184"/>
<text text-anchor="middle" x="312.5" y="-172" font-family="Helvetica,sans-Serif" font-size="10.00">Ogre::RaySceneQueryListener</text>
</a>
</g>
</g>
<!-- Node4&#45;&gt;Node1 -->
<g id="edge3_Node000001_Node000004" class="edge">
<title>Node4&#45;&gt;Node1</title>
<g id="a_edge3_Node000001_Node000004"><a xlink:title=" ">
<path fill="none" stroke="#63b8ff" d="M291.92,-159.15C278.19,-149.57 260.57,-137.29 248.93,-129.17"/>
<polygon fill="#63b8ff" stroke="#63b8ff" points="290.08,-162.14 300.29,-164.98 294.09,-156.39 290.08,-162.14"/>
</a>
</g>
</g>
<!-- Node6 -->
<g id="Node000006" class="node">
<title>Node6</title>
<g id="a_Node000006"><a xlink:href="class_ogre_1_1_bsp_ray_scene_query.html" target="_top" xlink:title="BSP specialisation of RaySceneQuery.">
<polygon fill="white" stroke="#666666" points="141,-19 0,-19 0,0 141,0 141,-19"/>
<text text-anchor="middle" x="70.5" y="-7" font-family="Helvetica,sans-Serif" font-size="10.00">Ogre::BspRaySceneQuery</text>
</a>
</g>
</g>
<!-- Node5&#45;&gt;Node6 -->
<g id="edge5_Node000005_Node000006" class="edge">
<title>Node5&#45;&gt;Node6</title>
<g id="a_edge5_Node000005_Node000006"><a xlink:title=" ">
<path fill="none" stroke="#63b8ff" d="M200.25,-51.93C169.25,-42.03 125.33,-28.01 97.38,-19.08"/>
<polygon fill="#63b8ff" stroke="#63b8ff" points="199.24,-55.28 209.83,-54.98 201.37,-48.61 199.24,-55.28"/>
</a>
</g>
</g>
<!-- Node7 -->
<g id="Node000007" class="node">
<title>Node7</title>
<g id="a_Node000007"><a xlink:href="class_ogre_1_1_octree_ray_scene_query.html" target="_top" xlink:title="Octree implementation of RaySceneQuery.">
<polygon fill="white" stroke="#666666" points="314,-19 159,-19 159,0 314,0 314,-19"/>
<text text-anchor="middle" x="236.5" y="-7" font-family="Helvetica,sans-Serif" font-size="10.00">Ogre::OctreeRaySceneQuery</text>
</a>
</g>
</g>
<!-- Node5&#45;&gt;Node7 -->
<g id="edge6_Node000005_Node000007" class="edge">
<title>Node5&#45;&gt;Node7</title>
<g id="a_edge6_Node000005_Node000007"><a xlink:title=" ">
<path fill="none" stroke="#63b8ff" d="M236.5,-44.66C236.5,-35.93 236.5,-25.99 236.5,-19.09"/>
<polygon fill="#63b8ff" stroke="#63b8ff" points="233,-44.75 236.5,-54.75 240,-44.75 233,-44.75"/>
</a>
</g>
</g>
<!-- Node8 -->
<g id="Node000008" class="node">
<title>Node8</title>
<g id="a_Node000008"><a xlink:href="class_ogre_1_1_p_c_z_ray_scene_query.html" target="_top" xlink:title="PCZ implementation of RaySceneQuery.">
<polygon fill="white" stroke="#666666" points="475,-19 332,-19 332,0 475,0 475,-19"/>
<text text-anchor="middle" x="403.5" y="-7" font-family="Helvetica,sans-Serif" font-size="10.00">Ogre::PCZRaySceneQuery</text>
</a>
</g>
</g>
<!-- Node5&#45;&gt;Node8 -->
<g id="edge7_Node000005_Node000008" class="edge">
<title>Node5&#45;&gt;Node8</title>
<g id="a_edge7_Node000005_Node000008"><a xlink:title=" ">
<path fill="none" stroke="#63b8ff" d="M272.96,-51.93C304.16,-42.03 348.34,-28.01 376.46,-19.08"/>
<polygon fill="#63b8ff" stroke="#63b8ff" points="271.8,-48.62 263.33,-54.98 273.92,-55.3 271.8,-48.62"/>
</a>
</g>
</g>
</g>
</svg>
