<?xml version="1.0" encoding="UTF-8" standalone="no"?>
<!DOCTYPE svg PUBLIC "-//W3C//DTD SVG 1.1//EN"
 "http://www.w3.org/Graphics/SVG/1.1/DTD/svg11.dtd">
<!-- Generated by graphviz version 2.43.0 (0)
 -->
<!-- Title: Ogre::PlaneBoundedVolumeListSceneQuery Pages: 1 -->
<svg width="1036pt" height="86pt"
 viewBox="0.00 0.00 1036.00 86.00" xmlns="http://www.w3.org/2000/svg" xmlns:xlink="http://www.w3.org/1999/xlink">
<g id="graph0" class="graph" transform="scale(1 1) rotate(0) translate(4 82)">
<title>Ogre::PlaneBoundedVolumeListSceneQuery</title>
<!-- Node1 -->
<g id="Node000001" class="node">
<title>Node1</title>
<g id="a_Node000001"><a xlink:title="Specialises the SceneQuery class for querying within a plane&#45;bounded volume.">
<polygon fill="#999999" stroke="#666666" points="631,-54 478,-54 478,-24 631,-24 631,-54"/>
<text text-anchor="start" x="486" y="-42" font-family="Helvetica,sans-Serif" font-size="10.00">Ogre::PlaneBoundedVolume</text>
<text text-anchor="middle" x="554.5" y="-31" font-family="Helvetica,sans-Serif" font-size="10.00">ListSceneQuery</text>
</a>
</g>
</g>
<!-- Node6 -->
<g id="Node000006" class="node">
<title>Node6</title>
<g id="a_Node000006"><a xlink:href="class_ogre_1_1_default_plane_bounded_volume_list_scene_query.html" target="_top" xlink:title="Default implementation of PlaneBoundedVolumeListSceneQuery.">
<polygon fill="white" stroke="#666666" points="819,-54 667,-54 667,-24 819,-24 819,-54"/>
<text text-anchor="start" x="675" y="-42" font-family="Helvetica,sans-Serif" font-size="10.00">Ogre::DefaultPlaneBounded</text>
<text text-anchor="middle" x="743" y="-31" font-family="Helvetica,sans-Serif" font-size="10.00">VolumeListSceneQuery</text>
</a>
</g>
</g>
<!-- Node1&#45;&gt;Node6 -->
<g id="edge5_Node000001_Node000006" class="edge">
<title>Node1&#45;&gt;Node6</title>
<g id="a_edge5_Node000001_Node000006"><a xlink:title=" ">
<path fill="none" stroke="#63b8ff" d="M641.13,-39C649.74,-39 658.43,-39 666.91,-39"/>
<polygon fill="#63b8ff" stroke="#63b8ff" points="641.09,-35.5 631.09,-39 641.09,-42.5 641.09,-35.5"/>
</a>
</g>
</g>
<!-- Node2 -->
<g id="Node000002" class="node">
<title>Node2</title>
<g id="a_Node000002"><a xlink:href="class_ogre_1_1_region_scene_query.html" target="_top" xlink:title="Abstract class defining a query which returns single results from a region.">
<polygon fill="white" stroke="#666666" points="442,-48.5 304,-48.5 304,-29.5 442,-29.5 442,-48.5"/>
<text text-anchor="middle" x="373" y="-36.5" font-family="Helvetica,sans-Serif" font-size="10.00">Ogre::RegionSceneQuery</text>
</a>
</g>
</g>
<!-- Node2&#45;&gt;Node1 -->
<g id="edge1_Node000001_Node000002" class="edge">
<title>Node2&#45;&gt;Node1</title>
<g id="a_edge1_Node000001_Node000002"><a xlink:title=" ">
<path fill="none" stroke="#63b8ff" d="M452.38,-39C460.86,-39 469.48,-39 477.93,-39"/>
<polygon fill="#63b8ff" stroke="#63b8ff" points="452.12,-35.5 442.12,-39 452.12,-42.5 452.12,-35.5"/>
</a>
</g>
</g>
<!-- Node3 -->
<g id="Node000003" class="node">
<title>Node3</title>
<g id="a_Node000003"><a xlink:href="class_ogre_1_1_scene_query.html" target="_top" xlink:title="A class for performing queries on a scene.">
<polygon fill="white" stroke="#666666" points="248.5,-67.5 144.5,-67.5 144.5,-48.5 248.5,-48.5 248.5,-67.5"/>
<text text-anchor="middle" x="196.5" y="-55.5" font-family="Helvetica,sans-Serif" font-size="10.00">Ogre::SceneQuery</text>
</a>
</g>
</g>
<!-- Node3&#45;&gt;Node2 -->
<g id="edge2_Node000002_Node000003" class="edge">
<title>Node3&#45;&gt;Node2</title>
<g id="a_edge2_Node000002_Node000003"><a xlink:title=" ">
<path fill="none" stroke="#63b8ff" d="M259.22,-51.28C273.65,-49.71 289.11,-48.03 303.81,-46.42"/>
<polygon fill="#63b8ff" stroke="#63b8ff" points="258.47,-47.84 248.91,-52.4 259.23,-54.8 258.47,-47.84"/>
</a>
</g>
</g>
<!-- Node4 -->
<g id="Node000004" class="node">
<title>Node4</title>
<g id="a_Node000004"><a xlink:title=" ">
<polygon fill="white" stroke="#666666" points="89,-67.5 0,-67.5 0,-48.5 89,-48.5 89,-67.5"/>
<text text-anchor="middle" x="44.5" y="-55.5" font-family="Helvetica,sans-Serif" font-size="10.00">SceneMgtAlloc</text>
</a>
</g>
</g>
<!-- Node4&#45;&gt;Node3 -->
<g id="edge3_Node000003_Node000004" class="edge">
<title>Node4&#45;&gt;Node3</title>
<g id="a_edge3_Node000003_Node000004"><a xlink:title=" ">
<path fill="none" stroke="#63b8ff" d="M99.64,-58C114.19,-58 129.86,-58 144.24,-58"/>
<polygon fill="#63b8ff" stroke="#63b8ff" points="99.29,-54.5 89.29,-58 99.29,-61.5 99.29,-54.5"/>
</a>
</g>
</g>
<!-- Node5 -->
<g id="Node000005" class="node">
<title>Node5</title>
<g id="a_Node000005"><a xlink:href="class_ogre_1_1_scene_query_listener.html" target="_top" xlink:title="This optional class allows you to receive per&#45;result callbacks from SceneQuery executions instead of ...">
<polygon fill="white" stroke="#666666" points="268,-30.5 125,-30.5 125,-11.5 268,-11.5 268,-30.5"/>
<text text-anchor="middle" x="196.5" y="-18.5" font-family="Helvetica,sans-Serif" font-size="10.00">Ogre::SceneQueryListener</text>
</a>
</g>
</g>
<!-- Node5&#45;&gt;Node2 -->
<g id="edge4_Node000002_Node000005" class="edge">
<title>Node5&#45;&gt;Node2</title>
<g id="a_edge4_Node000002_Node000005"><a xlink:title=" ">
<path fill="none" stroke="#63b8ff" d="M278.19,-29.32C286.72,-30.2 295.34,-31.09 303.72,-31.96"/>
<polygon fill="#63b8ff" stroke="#63b8ff" points="278.53,-25.84 268.22,-28.3 277.81,-32.8 278.53,-25.84"/>
</a>
</g>
</g>
<!-- Node7 -->
<g id="Node000007" class="node">
<title>Node7</title>
<g id="a_Node000007"><a xlink:href="class_ogre_1_1_octree_plane_bounded_volume_list_scene_query.html" target="_top" xlink:title="Octree implementation of PlaneBoundedVolumeListSceneQuery.">
<polygon fill="white" stroke="#666666" points="1015.5,-78 867.5,-78 867.5,-48 1015.5,-48 1015.5,-78"/>
<text text-anchor="start" x="875.5" y="-66" font-family="Helvetica,sans-Serif" font-size="10.00">Ogre::OctreePlaneBounded</text>
<text text-anchor="middle" x="941.5" y="-55" font-family="Helvetica,sans-Serif" font-size="10.00">VolumeListSceneQuery</text>
</a>
</g>
</g>
<!-- Node6&#45;&gt;Node7 -->
<g id="edge6_Node000006_Node000007" class="edge">
<title>Node6&#45;&gt;Node7</title>
<g id="a_edge6_Node000006_Node000007"><a xlink:title=" ">
<path fill="none" stroke="#63b8ff" d="M829.24,-49.41C841.94,-50.96 854.93,-52.55 867.36,-54.07"/>
<polygon fill="#63b8ff" stroke="#63b8ff" points="829.48,-45.91 819.13,-48.18 828.63,-52.86 829.48,-45.91"/>
</a>
</g>
</g>
<!-- Node8 -->
<g id="Node000008" class="node">
<title>Node8</title>
<g id="a_Node000008"><a xlink:href="class_ogre_1_1_p_c_z_plane_bounded_volume_list_scene_query.html" target="_top" xlink:title="PCZ implementation of PlaneBoundedVolumeListSceneQuery.">
<polygon fill="white" stroke="#666666" points="1028,-30 855,-30 855,0 1028,0 1028,-30"/>
<text text-anchor="start" x="863" y="-18" font-family="Helvetica,sans-Serif" font-size="10.00">Ogre::PCZPlaneBoundedVolume</text>
<text text-anchor="middle" x="941.5" y="-7" font-family="Helvetica,sans-Serif" font-size="10.00">ListSceneQuery</text>
</a>
</g>
</g>
<!-- Node6&#45;&gt;Node8 -->
<g id="edge7_Node000006_Node000008" class="edge">
<title>Node6&#45;&gt;Node8</title>
<g id="a_edge7_Node000006_Node000008"><a xlink:title=" ">
<path fill="none" stroke="#63b8ff" d="M829.1,-28.61C837.65,-27.56 846.35,-26.5 854.91,-25.45"/>
<polygon fill="#63b8ff" stroke="#63b8ff" points="828.63,-25.14 819.13,-29.82 829.48,-32.09 828.63,-25.14"/>
</a>
</g>
</g>
</g>
</svg>
