<?xml version="1.0" encoding="UTF-8" standalone="no"?>
<!DOCTYPE svg PUBLIC "-//W3C//DTD SVG 1.1//EN"
 "http://www.w3.org/Graphics/SVG/1.1/DTD/svg11.dtd">
<!-- Generated by graphviz version 2.43.0 (0)
 -->
<!-- Title: OgreBites::ApplicationContextBase Pages: 1 -->
<svg width="196pt" height="137pt"
 viewBox="0.00 0.00 196.00 137.00" xmlns="http://www.w3.org/2000/svg" xmlns:xlink="http://www.w3.org/1999/xlink">
<g id="graph0" class="graph" transform="scale(1 1) rotate(0) translate(4 133)">
<title>OgreBites::ApplicationContextBase</title>
<!-- Node1 -->
<g id="Node000001" class="node">
<title>Node1</title>
<g id="a_Node000001"><a xlink:title="Base class responsible for setting up a common context for applications.">
<polygon fill="#999999" stroke="#666666" points="188,-74 0,-74 0,-55 188,-55 188,-74"/>
<text text-anchor="middle" x="94" y="-62" font-family="Helvetica,sans-Serif" font-size="10.00">OgreBites::ApplicationContextBase</text>
</a>
</g>
</g>
<!-- Node3 -->
<g id="Node000003" class="node">
<title>Node3</title>
<g id="a_Node000003"><a xlink:href="class_ogre_bites_1_1_application_context_qt.html" target="_top" xlink:title="Specialization for connecting with Qt.">
<polygon fill="white" stroke="#666666" points="181.5,-19 6.5,-19 6.5,0 181.5,0 181.5,-19"/>
<text text-anchor="middle" x="94" y="-7" font-family="Helvetica,sans-Serif" font-size="10.00">OgreBites::ApplicationContextQt</text>
</a>
</g>
</g>
<!-- Node1&#45;&gt;Node3 -->
<g id="edge2_Node000001_Node000003" class="edge">
<title>Node1&#45;&gt;Node3</title>
<g id="a_edge2_Node000001_Node000003"><a xlink:title=" ">
<path fill="none" stroke="#63b8ff" d="M94,-44.66C94,-35.93 94,-25.99 94,-19.09"/>
<polygon fill="#63b8ff" stroke="#63b8ff" points="90.5,-44.75 94,-54.75 97.5,-44.75 90.5,-44.75"/>
</a>
</g>
</g>
<!-- Node2 -->
<g id="Node000002" class="node">
<title>Node2</title>
<g id="a_Node000002"><a xlink:href="class_ogre_1_1_frame_listener.html" target="_top" xlink:title="A interface class defining a listener which can be used to receive notifications of frame events.">
<polygon fill="white" stroke="#666666" points="152,-129 36,-129 36,-110 152,-110 152,-129"/>
<text text-anchor="middle" x="94" y="-117" font-family="Helvetica,sans-Serif" font-size="10.00">Ogre::FrameListener</text>
</a>
</g>
</g>
<!-- Node2&#45;&gt;Node1 -->
<g id="edge1_Node000001_Node000002" class="edge">
<title>Node2&#45;&gt;Node1</title>
<g id="a_edge1_Node000001_Node000002"><a xlink:title=" ">
<path fill="none" stroke="#63b8ff" d="M94,-99.66C94,-90.93 94,-80.99 94,-74.09"/>
<polygon fill="#63b8ff" stroke="#63b8ff" points="90.5,-99.75 94,-109.75 97.5,-99.75 90.5,-99.75"/>
</a>
</g>
</g>
</g>
</svg>
