<?xml version="1.0" encoding="UTF-8" standalone="no"?>
<!DOCTYPE svg PUBLIC "-//W3C//DTD SVG 1.1//EN"
 "http://www.w3.org/Graphics/SVG/1.1/DTD/svg11.dtd">
<!-- Generated by graphviz version 2.43.0 (0)
 -->
<!-- Title: Ogre::DistanceLodBoxStrategy Pages: 1 -->
<svg width="344pt" height="203pt"
 viewBox="0.00 0.00 343.50 203.00" xmlns="http://www.w3.org/2000/svg" xmlns:xlink="http://www.w3.org/1999/xlink">
<g id="graph0" class="graph" transform="scale(1 1) rotate(0) translate(4 199)">
<title>Ogre::DistanceLodBoxStrategy</title>
<!-- Node1 -->
<g id="Node000001" class="node">
<title>Node1</title>
<g id="a_Node000001"><a xlink:title="Level of detail strategy based on distance from camera to an object&#39;s bounding box.">
<polygon fill="#999999" stroke="#666666" points="256.5,-19 90.5,-19 90.5,0 256.5,0 256.5,-19"/>
<text text-anchor="middle" x="173.5" y="-7" font-family="Helvetica,sans-Serif" font-size="10.00">Ogre::DistanceLodBoxStrategy</text>
</a>
</g>
</g>
<!-- Node2 -->
<g id="Node000002" class="node">
<title>Node2</title>
<g id="a_Node000002"><a xlink:href="class_ogre_1_1_distance_lod_strategy_base.html" target="_top" xlink:title="Level of detail strategy based on distance from camera.">
<polygon fill="white" stroke="#666666" points="171,-79.5 0,-79.5 0,-60.5 171,-60.5 171,-79.5"/>
<text text-anchor="middle" x="85.5" y="-67.5" font-family="Helvetica,sans-Serif" font-size="10.00">Ogre::DistanceLodStrategyBase</text>
</a>
</g>
</g>
<!-- Node2&#45;&gt;Node1 -->
<g id="edge1_Node000001_Node000002" class="edge">
<title>Node2&#45;&gt;Node1</title>
<g id="a_edge1_Node000001_Node000002"><a xlink:title=" ">
<path fill="none" stroke="#63b8ff" d="M107.07,-54.66C123.79,-43.55 146.4,-28.51 160.46,-19.17"/>
<polygon fill="#63b8ff" stroke="#63b8ff" points="104.87,-51.92 98.48,-60.37 108.75,-57.75 104.87,-51.92"/>
</a>
</g>
</g>
<!-- Node3 -->
<g id="Node000003" class="node">
<title>Node3</title>
<g id="a_Node000003"><a xlink:href="class_ogre_1_1_lod_strategy.html" target="_top" xlink:title="Strategy for determining level of detail.">
<polygon fill="white" stroke="#666666" points="137.5,-140 33.5,-140 33.5,-121 137.5,-121 137.5,-140"/>
<text text-anchor="middle" x="85.5" y="-128" font-family="Helvetica,sans-Serif" font-size="10.00">Ogre::LodStrategy</text>
</a>
</g>
</g>
<!-- Node3&#45;&gt;Node2 -->
<g id="edge2_Node000002_Node000003" class="edge">
<title>Node3&#45;&gt;Node2</title>
<g id="a_edge2_Node000002_Node000003"><a xlink:title=" ">
<path fill="none" stroke="#63b8ff" d="M85.5,-110.66C85.5,-100.24 85.5,-87.8 85.5,-79.67"/>
<polygon fill="#63b8ff" stroke="#63b8ff" points="82,-110.87 85.5,-120.87 89,-110.87 82,-110.87"/>
</a>
</g>
</g>
<!-- Node4 -->
<g id="Node000004" class="node">
<title>Node4</title>
<g id="a_Node000004"><a xlink:title=" ">
<polygon fill="white" stroke="#666666" points="114.5,-195 56.5,-195 56.5,-176 114.5,-176 114.5,-195"/>
<text text-anchor="middle" x="85.5" y="-183" font-family="Helvetica,sans-Serif" font-size="10.00">LodAlloc</text>
</a>
</g>
</g>
<!-- Node4&#45;&gt;Node3 -->
<g id="edge3_Node000003_Node000004" class="edge">
<title>Node4&#45;&gt;Node3</title>
<g id="a_edge3_Node000003_Node000004"><a xlink:title=" ">
<path fill="none" stroke="#63b8ff" d="M85.5,-165.66C85.5,-156.93 85.5,-146.99 85.5,-140.09"/>
<polygon fill="#63b8ff" stroke="#63b8ff" points="82,-165.75 85.5,-175.75 89,-165.75 82,-165.75"/>
</a>
</g>
</g>
<!-- Node5 -->
<g id="Node000005" class="node">
<title>Node5</title>
<g id="a_Node000005"><a xlink:href="class_ogre_1_1_singleton.html" target="_top" xlink:title=" ">
<polygon fill="white" stroke="#666666" points="335.5,-85 189.5,-85 189.5,-55 335.5,-55 335.5,-85"/>
<text text-anchor="start" x="197.5" y="-73" font-family="Helvetica,sans-Serif" font-size="10.00">Ogre::Singleton&lt; Distance</text>
<text text-anchor="middle" x="262.5" y="-62" font-family="Helvetica,sans-Serif" font-size="10.00">LodBoxStrategy &gt;</text>
</a>
</g>
</g>
<!-- Node5&#45;&gt;Node1 -->
<g id="edge4_Node000001_Node000005" class="edge">
<title>Node5&#45;&gt;Node1</title>
<g id="a_edge4_Node000001_Node000005"><a xlink:title=" ">
<path fill="none" stroke="#63b8ff" d="M232.17,-49.06C216.63,-38.85 198.52,-26.95 186.58,-19.09"/>
<polygon fill="#63b8ff" stroke="#63b8ff" points="230.68,-52.27 240.96,-54.84 234.52,-46.42 230.68,-52.27"/>
</a>
</g>
</g>
</g>
</svg>
