<?xml version="1.0" encoding="UTF-8" standalone="no"?>
<!DOCTYPE svg PUBLIC "-//W3C//DTD SVG 1.1//EN"
 "http://www.w3.org/Graphics/SVG/1.1/DTD/svg11.dtd">
<!-- Generated by graphviz version 2.43.0 (0)
 -->
<!-- Title: Ogre::LodStrategyManager Pages: 1 -->
<svg width="246pt" height="93pt"
 viewBox="0.00 0.00 245.50 93.00" xmlns="http://www.w3.org/2000/svg" xmlns:xlink="http://www.w3.org/1999/xlink">
<g id="graph0" class="graph" transform="scale(1 1) rotate(0) translate(4 89)">
<title>Ogre::LodStrategyManager</title>
<!-- Node1 -->
<g id="Node000001" class="node">
<title>Node1</title>
<g id="a_Node000001"><a xlink:title="Manager for LOD strategies.">
<polygon fill="#999999" stroke="#666666" points="218,-19 71,-19 71,0 218,0 218,-19"/>
<text text-anchor="middle" x="144.5" y="-7" font-family="Helvetica,sans-Serif" font-size="10.00">Ogre::LodStrategyManager</text>
</a>
</g>
</g>
<!-- Node2 -->
<g id="Node000002" class="node">
<title>Node2</title>
<g id="a_Node000002"><a xlink:href="class_ogre_1_1_singleton.html" target="_top" xlink:title=" ">
<polygon fill="white" stroke="#666666" points="161,-85 0,-85 0,-55 161,-55 161,-85"/>
<text text-anchor="start" x="8" y="-73" font-family="Helvetica,sans-Serif" font-size="10.00">Ogre::Singleton&lt; LodStrategy</text>
<text text-anchor="middle" x="80.5" y="-62" font-family="Helvetica,sans-Serif" font-size="10.00">Manager &gt;</text>
</a>
</g>
</g>
<!-- Node2&#45;&gt;Node1 -->
<g id="edge1_Node000001_Node000002" class="edge">
<title>Node2&#45;&gt;Node1</title>
<g id="a_edge1_Node000001_Node000002"><a xlink:title=" ">
<path fill="none" stroke="#63b8ff" d="M103.52,-47.96C114.33,-38.07 126.63,-26.83 134.91,-19.27"/>
<polygon fill="#63b8ff" stroke="#63b8ff" points="101.01,-45.51 95.99,-54.84 105.74,-50.68 101.01,-45.51"/>
</a>
</g>
</g>
<!-- Node3 -->
<g id="Node000003" class="node">
<title>Node3</title>
<g id="a_Node000003"><a xlink:title=" ">
<polygon fill="white" stroke="#666666" points="237.5,-79.5 179.5,-79.5 179.5,-60.5 237.5,-60.5 237.5,-79.5"/>
<text text-anchor="middle" x="208.5" y="-67.5" font-family="Helvetica,sans-Serif" font-size="10.00">LodAlloc</text>
</a>
</g>
</g>
<!-- Node3&#45;&gt;Node1 -->
<g id="edge2_Node000001_Node000003" class="edge">
<title>Node3&#45;&gt;Node1</title>
<g id="a_edge2_Node000001_Node000003"><a xlink:title=" ">
<path fill="none" stroke="#63b8ff" d="M191.44,-53.41C179.44,-42.44 163.83,-28.17 153.98,-19.17"/>
<polygon fill="#63b8ff" stroke="#63b8ff" points="189.31,-56.2 199.06,-60.37 194.04,-51.04 189.31,-56.2"/>
</a>
</g>
</g>
</g>
</svg>
