<?xml version="1.0" encoding="UTF-8" standalone="no"?>
<!DOCTYPE svg PUBLIC "-//W3C//DTD SVG 1.1//EN"
 "http://www.w3.org/Graphics/SVG/1.1/DTD/svg11.dtd">
<!-- Generated by graphviz version 2.43.0 (0)
 -->
<!-- Title: Ogre::GLSLangProgram Pages: 1 -->
<svg width="230pt" height="247pt"
 viewBox="0.00 0.00 230.00 247.00" xmlns="http://www.w3.org/2000/svg" xmlns:xlink="http://www.w3.org/1999/xlink">
<g id="graph0" class="graph" transform="scale(1 1) rotate(0) translate(4 243)">
<title>Ogre::GLSLangProgram</title>
<!-- Node1 -->
<g id="Node000001" class="node">
<title>Node1</title>
<g id="a_Node000001"><a xlink:title="Specialisation of HighLevelGpuProgram to provide support for the GLSLang compiler by Khronos.">
<polygon fill="#999999" stroke="#666666" points="183.5,-19 54.5,-19 54.5,0 183.5,0 183.5,-19"/>
<text text-anchor="middle" x="119" y="-7" font-family="Helvetica,sans-Serif" font-size="10.00">Ogre::GLSLangProgram</text>
</a>
</g>
</g>
<!-- Node2 -->
<g id="Node000002" class="node">
<title>Node2</title>
<g id="a_Node000002"><a xlink:href="class_ogre_1_1_high_level_gpu_program.html" target="_top" xlink:title="Abstract base class representing a high&#45;level program (a vertex or fragment program).">
<polygon fill="white" stroke="#666666" points="196.5,-74 41.5,-74 41.5,-55 196.5,-55 196.5,-74"/>
<text text-anchor="middle" x="119" y="-62" font-family="Helvetica,sans-Serif" font-size="10.00">Ogre::HighLevelGpuProgram</text>
</a>
</g>
</g>
<!-- Node2&#45;&gt;Node1 -->
<g id="edge1_Node000001_Node000002" class="edge">
<title>Node2&#45;&gt;Node1</title>
<g id="a_edge1_Node000001_Node000002"><a xlink:title=" ">
<path fill="none" stroke="#63b8ff" d="M119,-44.66C119,-35.93 119,-25.99 119,-19.09"/>
<polygon fill="#63b8ff" stroke="#63b8ff" points="115.5,-44.75 119,-54.75 122.5,-44.75 115.5,-44.75"/>
</a>
</g>
</g>
<!-- Node3 -->
<g id="Node000003" class="node">
<title>Node3</title>
<g id="a_Node000003"><a xlink:href="class_ogre_1_1_gpu_program.html" target="_top" xlink:title="Defines a program which runs on the GPU such as a vertex or fragment program.">
<polygon fill="white" stroke="#666666" points="172.5,-129 65.5,-129 65.5,-110 172.5,-110 172.5,-129"/>
<text text-anchor="middle" x="119" y="-117" font-family="Helvetica,sans-Serif" font-size="10.00">Ogre::GpuProgram</text>
</a>
</g>
</g>
<!-- Node3&#45;&gt;Node2 -->
<g id="edge2_Node000002_Node000003" class="edge">
<title>Node3&#45;&gt;Node2</title>
<g id="a_edge2_Node000002_Node000003"><a xlink:title=" ">
<path fill="none" stroke="#63b8ff" d="M119,-99.66C119,-90.93 119,-80.99 119,-74.09"/>
<polygon fill="#63b8ff" stroke="#63b8ff" points="115.5,-99.75 119,-109.75 122.5,-99.75 115.5,-99.75"/>
</a>
</g>
</g>
<!-- Node4 -->
<g id="Node000004" class="node">
<title>Node4</title>
<g id="a_Node000004"><a xlink:href="class_ogre_1_1_resource.html" target="_top" xlink:title="Abstract class representing a loadable resource.">
<polygon fill="white" stroke="#666666" points="164.5,-184 73.5,-184 73.5,-165 164.5,-165 164.5,-184"/>
<text text-anchor="middle" x="119" y="-172" font-family="Helvetica,sans-Serif" font-size="10.00">Ogre::Resource</text>
</a>
</g>
</g>
<!-- Node4&#45;&gt;Node3 -->
<g id="edge3_Node000003_Node000004" class="edge">
<title>Node4&#45;&gt;Node3</title>
<g id="a_edge3_Node000003_Node000004"><a xlink:title=" ">
<path fill="none" stroke="#63b8ff" d="M119,-154.66C119,-145.93 119,-135.99 119,-129.09"/>
<polygon fill="#63b8ff" stroke="#63b8ff" points="115.5,-154.75 119,-164.75 122.5,-154.75 115.5,-154.75"/>
</a>
</g>
</g>
<!-- Node5 -->
<g id="Node000005" class="node">
<title>Node5</title>
<g id="a_Node000005"><a xlink:href="class_ogre_1_1_string_interface.html" target="_top" xlink:title="Class defining the common interface which classes can use to present a reflection&#45;style,...">
<polygon fill="white" stroke="#666666" points="118,-239 0,-239 0,-220 118,-220 118,-239"/>
<text text-anchor="middle" x="59" y="-227" font-family="Helvetica,sans-Serif" font-size="10.00">Ogre::StringInterface</text>
</a>
</g>
</g>
<!-- Node5&#45;&gt;Node4 -->
<g id="edge4_Node000004_Node000005" class="edge">
<title>Node5&#45;&gt;Node4</title>
<g id="a_edge4_Node000004_Node000005"><a xlink:title=" ">
<path fill="none" stroke="#63b8ff" d="M76.18,-213.32C86.88,-203.87 100.26,-192.06 109.18,-184.17"/>
<polygon fill="#63b8ff" stroke="#63b8ff" points="73.82,-210.74 68.64,-219.98 78.45,-215.99 73.82,-210.74"/>
</a>
</g>
</g>
<!-- Node6 -->
<g id="Node000006" class="node">
<title>Node6</title>
<g id="a_Node000006"><a xlink:title=" ">
<polygon fill="white" stroke="#666666" points="222,-239 136,-239 136,-220 222,-220 222,-239"/>
<text text-anchor="middle" x="179" y="-227" font-family="Helvetica,sans-Serif" font-size="10.00">ResourceAlloc</text>
</a>
</g>
</g>
<!-- Node6&#45;&gt;Node4 -->
<g id="edge5_Node000004_Node000006" class="edge">
<title>Node6&#45;&gt;Node4</title>
<g id="a_edge5_Node000004_Node000006"><a xlink:title=" ">
<path fill="none" stroke="#63b8ff" d="M161.82,-213.32C151.12,-203.87 137.74,-192.06 128.82,-184.17"/>
<polygon fill="#63b8ff" stroke="#63b8ff" points="159.55,-215.99 169.36,-219.98 164.18,-210.74 159.55,-215.99"/>
</a>
</g>
</g>
</g>
</svg>
