<?xml version="1.0" encoding="UTF-8" standalone="no"?>
<!DOCTYPE svg PUBLIC "-//W3C//DTD SVG 1.1//EN"
 "http://www.w3.org/Graphics/SVG/1.1/DTD/svg11.dtd">
<!-- Generated by graphviz version 2.43.0 (0)
 -->
<!-- Title: Ogre::StaticGeometry::Region Pages: 1 -->
<svg width="368pt" height="148pt"
 viewBox="0.00 0.00 367.50 148.00" xmlns="http://www.w3.org/2000/svg" xmlns:xlink="http://www.w3.org/1999/xlink">
<g id="graph0" class="graph" transform="scale(1 1) rotate(0) translate(4 144)">
<title>Ogre::StaticGeometry::Region</title>
<!-- Node1 -->
<g id="Node000001" class="node">
<title>Node1</title>
<g id="a_Node000001"><a xlink:title="The details of a topological region which is the highest level of partitioning for this class.">
<polygon fill="#999999" stroke="#666666" points="257,-30 135,-30 135,0 257,0 257,-30"/>
<text text-anchor="start" x="143" y="-18" font-family="Helvetica,sans-Serif" font-size="10.00">Ogre::StaticGeometry</text>
<text text-anchor="middle" x="196" y="-7" font-family="Helvetica,sans-Serif" font-size="10.00">::Region</text>
</a>
</g>
</g>
<!-- Node2 -->
<g id="Node000002" class="node">
<title>Node2</title>
<g id="a_Node000002"><a xlink:href="class_ogre_1_1_movable_object.html" target="_top" xlink:title="Abstract class defining a movable object in a scene.">
<polygon fill="white" stroke="#666666" points="255.5,-85 136.5,-85 136.5,-66 255.5,-66 255.5,-85"/>
<text text-anchor="middle" x="196" y="-73" font-family="Helvetica,sans-Serif" font-size="10.00">Ogre::MovableObject</text>
</a>
</g>
</g>
<!-- Node2&#45;&gt;Node1 -->
<g id="edge1_Node000001_Node000002" class="edge">
<title>Node2&#45;&gt;Node1</title>
<g id="a_edge1_Node000001_Node000002"><a xlink:title=" ">
<path fill="none" stroke="#63b8ff" d="M196,-55.65C196,-47.36 196,-37.78 196,-30.11"/>
<polygon fill="#63b8ff" stroke="#63b8ff" points="192.5,-55.87 196,-65.87 199.5,-55.87 192.5,-55.87"/>
</a>
</g>
</g>
<!-- Node3 -->
<g id="Node000003" class="node">
<title>Node3</title>
<g id="a_Node000003"><a xlink:href="class_ogre_1_1_shadow_caster.html" target="_top" xlink:title="This class defines the interface that must be implemented by shadow casters.">
<polygon fill="white" stroke="#666666" points="116,-140 0,-140 0,-121 116,-121 116,-140"/>
<text text-anchor="middle" x="58" y="-128" font-family="Helvetica,sans-Serif" font-size="10.00">Ogre::ShadowCaster</text>
</a>
</g>
</g>
<!-- Node3&#45;&gt;Node2 -->
<g id="edge2_Node000002_Node000003" class="edge">
<title>Node3&#45;&gt;Node2</title>
<g id="a_edge2_Node000002_Node000003"><a xlink:title=" ">
<path fill="none" stroke="#63b8ff" d="M89.79,-117.29C115.37,-107.47 150.67,-93.91 173.42,-85.17"/>
<polygon fill="#63b8ff" stroke="#63b8ff" points="88.25,-114.13 80.17,-120.98 90.76,-120.67 88.25,-114.13"/>
</a>
</g>
</g>
<!-- Node4 -->
<g id="Node000004" class="node">
<title>Node4</title>
<g id="a_Node000004"><a xlink:href="class_ogre_1_1_animable_object.html" target="_top" xlink:title="Defines an interface to classes which have one or more AnimableValue instances to expose.">
<polygon fill="white" stroke="#666666" points="258,-140 134,-140 134,-121 258,-121 258,-140"/>
<text text-anchor="middle" x="196" y="-128" font-family="Helvetica,sans-Serif" font-size="10.00">Ogre::AnimableObject</text>
</a>
</g>
</g>
<!-- Node4&#45;&gt;Node2 -->
<g id="edge3_Node000002_Node000004" class="edge">
<title>Node4&#45;&gt;Node2</title>
<g id="a_edge3_Node000002_Node000004"><a xlink:title=" ">
<path fill="none" stroke="#63b8ff" d="M196,-110.66C196,-101.93 196,-91.99 196,-85.09"/>
<polygon fill="#63b8ff" stroke="#63b8ff" points="192.5,-110.75 196,-120.75 199.5,-110.75 192.5,-110.75"/>
</a>
</g>
</g>
<!-- Node5 -->
<g id="Node000005" class="node">
<title>Node5</title>
<g id="a_Node000005"><a xlink:title=" ">
<polygon fill="white" stroke="#666666" points="359.5,-140 276.5,-140 276.5,-121 359.5,-121 359.5,-140"/>
<text text-anchor="middle" x="318" y="-128" font-family="Helvetica,sans-Serif" font-size="10.00">MovableAlloc</text>
</a>
</g>
</g>
<!-- Node5&#45;&gt;Node2 -->
<g id="edge4_Node000002_Node000005" class="edge">
<title>Node5&#45;&gt;Node2</title>
<g id="a_edge4_Node000002_Node000005"><a xlink:title=" ">
<path fill="none" stroke="#63b8ff" d="M288.99,-116.9C266.46,-107.11 235.8,-93.79 215.96,-85.17"/>
<polygon fill="#63b8ff" stroke="#63b8ff" points="287.83,-120.21 298.4,-120.98 290.62,-113.79 287.83,-120.21"/>
</a>
</g>
</g>
</g>
</svg>
