<?xml version="1.0" encoding="UTF-8" standalone="no"?>
<!DOCTYPE svg PUBLIC "-//W3C//DTD SVG 1.1//EN"
 "http://www.w3.org/Graphics/SVG/1.1/DTD/svg11.dtd">
<!-- Generated by graphviz version 2.43.0 (0)
 -->
<!-- Title: Ogre::Root Pages: 1 -->
<svg width="226pt" height="82pt"
 viewBox="0.00 0.00 226.00 82.00" xmlns="http://www.w3.org/2000/svg" xmlns:xlink="http://www.w3.org/1999/xlink">
<g id="graph0" class="graph" transform="scale(1 1) rotate(0) translate(4 78)">
<title>Ogre::Root</title>
<!-- Node1 -->
<g id="Node000001" class="node">
<title>Node1</title>
<g id="a_Node000001"><a xlink:title="The root class of the Ogre system.">
<polygon fill="#999999" stroke="#666666" points="161.5,-19 93.5,-19 93.5,0 161.5,0 161.5,-19"/>
<text text-anchor="middle" x="127.5" y="-7" font-family="Helvetica,sans-Serif" font-size="10.00">Ogre::Root</text>
</a>
</g>
</g>
<!-- Node2 -->
<g id="Node000002" class="node">
<title>Node2</title>
<g id="a_Node000002"><a xlink:href="class_ogre_1_1_singleton.html" target="_top" xlink:title=" ">
<polygon fill="white" stroke="#666666" points="137,-74 0,-74 0,-55 137,-55 137,-74"/>
<text text-anchor="middle" x="68.5" y="-62" font-family="Helvetica,sans-Serif" font-size="10.00">Ogre::Singleton&lt; Root &gt;</text>
</a>
</g>
</g>
<!-- Node2&#45;&gt;Node1 -->
<g id="edge1_Node000001_Node000002" class="edge">
<title>Node2&#45;&gt;Node1</title>
<g id="a_edge1_Node000001_Node000002"><a xlink:title=" ">
<path fill="none" stroke="#63b8ff" d="M85.7,-48.04C96.17,-38.64 109.15,-26.98 117.85,-19.17"/>
<polygon fill="#63b8ff" stroke="#63b8ff" points="83.08,-45.7 77.98,-54.98 87.76,-50.91 83.08,-45.7"/>
</a>
</g>
</g>
<!-- Node3 -->
<g id="Node000003" class="node">
<title>Node3</title>
<g id="a_Node000003"><a xlink:title=" ">
<polygon fill="white" stroke="#666666" points="218,-74 155,-74 155,-55 218,-55 218,-74"/>
<text text-anchor="middle" x="186.5" y="-62" font-family="Helvetica,sans-Serif" font-size="10.00">RootAlloc</text>
</a>
</g>
</g>
<!-- Node3&#45;&gt;Node1 -->
<g id="edge2_Node000001_Node000003" class="edge">
<title>Node3&#45;&gt;Node1</title>
<g id="a_edge2_Node000001_Node000003"><a xlink:title=" ">
<path fill="none" stroke="#63b8ff" d="M169.3,-48.04C158.83,-38.64 145.85,-26.98 137.15,-19.17"/>
<polygon fill="#63b8ff" stroke="#63b8ff" points="167.24,-50.91 177.02,-54.98 171.92,-45.7 167.24,-50.91"/>
</a>
</g>
</g>
</g>
</svg>
