<?xml version="1.0" encoding="UTF-8" standalone="no"?>
<!DOCTYPE svg PUBLIC "-//W3C//DTD SVG 1.1//EN"
 "http://www.w3.org/Graphics/SVG/1.1/DTD/svg11.dtd">
<!-- Generated by graphviz version 2.43.0 (0)
 -->
<!-- Title: Ogre::SmallVectorImpl&lt; T &gt; Pages: 1 -->
<svg width="1037pt" height="278pt"
 viewBox="0.00 0.00 1037.00 278.00" xmlns="http://www.w3.org/2000/svg" xmlns:xlink="http://www.w3.org/1999/xlink">
<g id="graph0" class="graph" transform="scale(1 1) rotate(0) translate(4 274)">
<title>Ogre::SmallVectorImpl&lt; T &gt;</title>
<!-- Node1 -->
<g id="Node000001" class="node">
<title>Node1</title>
<g id="a_Node000001"><a xlink:title="SmallVectorImpl &#45; This class consists of common code factored out of the SmallVector class to reduce ...">
<polygon fill="#999999" stroke="#666666" points="692,-144.5 537,-144.5 537,-125.5 692,-125.5 692,-144.5"/>
<text text-anchor="middle" x="614.5" y="-132.5" font-family="Helvetica,sans-Serif" font-size="10.00">Ogre::SmallVectorImpl&lt; T &gt;</text>
</a>
</g>
</g>
<!-- Node5 -->
<g id="Node000005" class="node">
<title>Node5</title>
<g id="a_Node000005"><a xlink:href="class_ogre_1_1_small_vector.html" target="_top" xlink:title=" ">
<polygon fill="white" stroke="#666666" points="841,-270 728,-270 728,-240 841,-240 841,-270"/>
<text text-anchor="start" x="736" y="-258" font-family="Helvetica,sans-Serif" font-size="10.00">Ogre::SmallVector&lt;</text>
<text text-anchor="middle" x="784.5" y="-247" font-family="Helvetica,sans-Serif" font-size="10.00"> T, S &gt;</text>
</a>
</g>
</g>
<!-- Node1&#45;&gt;Node5 -->
<g id="edge4_Node000001_Node000005" class="edge">
<title>Node1&#45;&gt;Node5</title>
<g id="a_edge4_Node000001_Node000005"><a xlink:title=" ">
<path fill="none" stroke="#63b8ff" d="M631.77,-151.67C652.61,-172.33 690.51,-207.64 728,-231 733.17,-234.22 738.84,-237.21 744.53,-239.92"/>
<polygon fill="#63b8ff" stroke="#63b8ff" points="634.2,-149.15 624.66,-144.53 629.24,-154.09 634.2,-149.15"/>
</a>
</g>
</g>
<!-- Node7 -->
<g id="Node000007" class="node">
<title>Node7</title>
<g id="a_Node000007"><a xlink:href="class_ogre_1_1_small_vector.html" target="_top" xlink:title=" ">
<polygon fill="white" stroke="#666666" points="841,-222 728,-222 728,-192 841,-192 841,-222"/>
<text text-anchor="start" x="736" y="-210" font-family="Helvetica,sans-Serif" font-size="10.00">Ogre::SmallVector&lt;</text>
<text text-anchor="middle" x="784.5" y="-199" font-family="Helvetica,sans-Serif" font-size="10.00"> Edge, S &gt;</text>
</a>
</g>
</g>
<!-- Node1&#45;&gt;Node7 -->
<g id="edge6_Node000001_Node000007" class="edge">
<title>Node1&#45;&gt;Node7</title>
<g id="a_edge6_Node000001_Node000007"><a xlink:title=" ">
<path fill="none" stroke="#63b8ff" d="M647,-148.5C675.78,-160.84 718.28,-179.05 748.2,-191.87"/>
<polygon fill="#63b8ff" stroke="#63b8ff" points="648.38,-145.28 637.81,-144.56 645.62,-151.72 648.38,-145.28"/>
</a>
</g>
</g>
<!-- Node8 -->
<g id="Node000008" class="node">
<title>Node8</title>
<g id="a_Node000008"><a xlink:href="class_ogre_1_1_small_vector.html" target="_top" xlink:title=" ">
<polygon fill="white" stroke="#666666" points="841,-174 728,-174 728,-144 841,-144 841,-174"/>
<text text-anchor="start" x="736" y="-162" font-family="Helvetica,sans-Serif" font-size="10.00">Ogre::SmallVector&lt;</text>
<text text-anchor="middle" x="784.5" y="-151" font-family="Helvetica,sans-Serif" font-size="10.00"> Line *, S &gt;</text>
</a>
</g>
</g>
<!-- Node1&#45;&gt;Node8 -->
<g id="edge7_Node000001_Node000008" class="edge">
<title>Node1&#45;&gt;Node8</title>
<g id="a_edge7_Node000001_Node000008"><a xlink:title=" ">
<path fill="none" stroke="#63b8ff" d="M692.38,-145.98C704.36,-147.69 716.54,-149.43 727.92,-151.06"/>
<polygon fill="#63b8ff" stroke="#63b8ff" points="692.78,-142.5 682.38,-144.55 691.79,-149.43 692.78,-142.5"/>
</a>
</g>
</g>
<!-- Node9 -->
<g id="Node000009" class="node">
<title>Node9</title>
<g id="a_Node000009"><a xlink:href="class_ogre_1_1_small_vector.html" target="_top" xlink:title=" ">
<polygon fill="white" stroke="#666666" points="841,-126 728,-126 728,-96 841,-96 841,-126"/>
<text text-anchor="start" x="736" y="-114" font-family="Helvetica,sans-Serif" font-size="10.00">Ogre::SmallVector&lt;</text>
<text text-anchor="middle" x="784.5" y="-103" font-family="Helvetica,sans-Serif" font-size="10.00"> Triangle *, S &gt;</text>
</a>
</g>
</g>
<!-- Node1&#45;&gt;Node9 -->
<g id="edge8_Node000001_Node000009" class="edge">
<title>Node1&#45;&gt;Node9</title>
<g id="a_edge8_Node000001_Node000009"><a xlink:title=" ">
<path fill="none" stroke="#63b8ff" d="M692.38,-124.02C704.36,-122.31 716.54,-120.57 727.92,-118.94"/>
<polygon fill="#63b8ff" stroke="#63b8ff" points="691.79,-120.57 682.38,-125.45 692.78,-127.5 691.79,-120.57"/>
</a>
</g>
</g>
<!-- Node10 -->
<g id="Node000010" class="node">
<title>Node10</title>
<g id="a_Node000010"><a xlink:href="class_ogre_1_1_small_vector.html" target="_top" xlink:title="SmallVector &#45; This is a &#39;vector&#39; (really, a variable&#45;sized array), optimized for the case when the ar...">
<polygon fill="white" stroke="#666666" points="841,-78 728,-78 728,-48 841,-48 841,-78"/>
<text text-anchor="start" x="736" y="-66" font-family="Helvetica,sans-Serif" font-size="10.00">Ogre::SmallVector&lt;</text>
<text text-anchor="middle" x="784.5" y="-55" font-family="Helvetica,sans-Serif" font-size="10.00"> T, N &gt;</text>
</a>
</g>
</g>
<!-- Node1&#45;&gt;Node10 -->
<g id="edge9_Node000001_Node000010" class="edge">
<title>Node1&#45;&gt;Node10</title>
<g id="a_edge9_Node000001_Node000010"><a xlink:title=" ">
<path fill="none" stroke="#63b8ff" d="M647,-121.5C675.78,-109.16 718.28,-90.95 748.2,-78.13"/>
<polygon fill="#63b8ff" stroke="#63b8ff" points="645.62,-118.28 637.81,-125.44 648.38,-124.72 645.62,-118.28"/>
</a>
</g>
</g>
<!-- Node14 -->
<g id="Node000014" class="node">
<title>Node14</title>
<g id="a_Node000014"><a xlink:href="class_ogre_1_1_small_vector_3_01_t_00_010_01_4.html" target="_top" xlink:title="Specialize SmallVector at N=0.">
<polygon fill="white" stroke="#666666" points="841,-30 728,-30 728,0 841,0 841,-30"/>
<text text-anchor="start" x="736" y="-18" font-family="Helvetica,sans-Serif" font-size="10.00">Ogre::SmallVector&lt;</text>
<text text-anchor="middle" x="784.5" y="-7" font-family="Helvetica,sans-Serif" font-size="10.00"> T, 0 &gt;</text>
</a>
</g>
</g>
<!-- Node1&#45;&gt;Node14 -->
<g id="edge13_Node000001_Node000014" class="edge">
<title>Node1&#45;&gt;Node14</title>
<g id="a_edge13_Node000001_Node000014"><a xlink:title=" ">
<path fill="none" stroke="#63b8ff" d="M631.77,-118.33C652.61,-97.67 690.51,-62.36 728,-39 733.17,-35.78 738.84,-32.79 744.53,-30.08"/>
<polygon fill="#63b8ff" stroke="#63b8ff" points="629.24,-115.91 624.66,-125.47 634.2,-120.85 629.24,-115.91"/>
</a>
</g>
</g>
<!-- Node2 -->
<g id="Node000002" class="node">
<title>Node2</title>
<g id="a_Node000002"><a xlink:href="class_ogre_1_1_small_vector_template_base.html" target="_top" xlink:title=" ">
<polygon fill="white" stroke="#666666" points="501,-155.5 351,-155.5 351,-114.5 501,-114.5 501,-155.5"/>
<text text-anchor="start" x="359" y="-143.5" font-family="Helvetica,sans-Serif" font-size="10.00">Ogre::SmallVectorTemplate</text>
<text text-anchor="start" x="359" y="-132.5" font-family="Helvetica,sans-Serif" font-size="10.00">Base&lt; T, isPodLike&lt; T &gt;</text>
<text text-anchor="middle" x="426" y="-121.5" font-family="Helvetica,sans-Serif" font-size="10.00">::value &gt;</text>
</a>
</g>
</g>
<!-- Node2&#45;&gt;Node1 -->
<g id="edge1_Node000001_Node000002" class="edge">
<title>Node2&#45;&gt;Node1</title>
<g id="a_edge1_Node000001_Node000002"><a xlink:title=" ">
<path fill="none" stroke="#63b8ff" d="M511.46,-135C519.89,-135 528.42,-135 536.76,-135"/>
<polygon fill="#63b8ff" stroke="#63b8ff" points="511.25,-131.5 501.25,-135 511.25,-138.5 511.25,-131.5"/>
</a>
</g>
</g>
<!-- Node3 -->
<g id="Node000003" class="node">
<title>Node3</title>
<g id="a_Node000003"><a xlink:href="class_ogre_1_1_small_vector_template_common.html" target="_top" xlink:title=" ">
<polygon fill="white" stroke="#666666" points="315,-150 165,-150 165,-120 315,-120 315,-150"/>
<text text-anchor="start" x="173" y="-138" font-family="Helvetica,sans-Serif" font-size="10.00">Ogre::SmallVectorTemplate</text>
<text text-anchor="middle" x="240" y="-127" font-family="Helvetica,sans-Serif" font-size="10.00">Common&lt; T &gt;</text>
</a>
</g>
</g>
<!-- Node3&#45;&gt;Node2 -->
<g id="edge2_Node000002_Node000003" class="edge">
<title>Node3&#45;&gt;Node2</title>
<g id="a_edge2_Node000002_Node000003"><a xlink:title=" ">
<path fill="none" stroke="#63b8ff" d="M325.07,-135C333.65,-135 342.34,-135 350.81,-135"/>
<polygon fill="#63b8ff" stroke="#63b8ff" points="325.04,-131.5 315.04,-135 325.04,-138.5 325.04,-131.5"/>
</a>
</g>
</g>
<!-- Node4 -->
<g id="Node000004" class="node">
<title>Node4</title>
<g id="a_Node000004"><a xlink:href="class_ogre_1_1_small_vector_base.html" target="_top" xlink:title="SmallVectorBase &#45; This is all the non&#45;templated stuff common to all SmallVectors.">
<polygon fill="white" stroke="#666666" points="129,-144.5 0,-144.5 0,-125.5 129,-125.5 129,-144.5"/>
<text text-anchor="middle" x="64.5" y="-132.5" font-family="Helvetica,sans-Serif" font-size="10.00">Ogre::SmallVectorBase</text>
</a>
</g>
</g>
<!-- Node4&#45;&gt;Node3 -->
<g id="edge3_Node000003_Node000004" class="edge">
<title>Node4&#45;&gt;Node3</title>
<g id="a_edge3_Node000003_Node000004"><a xlink:title=" ">
<path fill="none" stroke="#63b8ff" d="M139.31,-135C147.75,-135 156.36,-135 164.81,-135"/>
<polygon fill="#63b8ff" stroke="#63b8ff" points="139.12,-131.5 129.12,-135 139.12,-138.5 139.12,-131.5"/>
</a>
</g>
</g>
<!-- Node6 -->
<g id="Node000006" class="node">
<title>Node6</title>
<g id="a_Node000006"><a xlink:href="struct_ogre_1_1_vector_set.html" target="_top" xlink:title="VectorSet is basically a helper to use a vector as a small set container.">
<polygon fill="white" stroke="#666666" points="1020,-264.5 886,-264.5 886,-245.5 1020,-245.5 1020,-264.5"/>
<text text-anchor="middle" x="953" y="-252.5" font-family="Helvetica,sans-Serif" font-size="10.00">Ogre::VectorSet&lt; T, S &gt;</text>
</a>
</g>
</g>
<!-- Node5&#45;&gt;Node6 -->
<g id="edge5_Node000005_Node000006" class="edge">
<title>Node5&#45;&gt;Node6</title>
<g id="a_edge5_Node000005_Node000006"><a xlink:title=" ">
<path fill="none" stroke="#63b8ff" d="M851.61,-255C862.88,-255 874.59,-255 885.87,-255"/>
<polygon fill="#63b8ff" stroke="#63b8ff" points="851.41,-251.5 841.41,-255 851.41,-258.5 851.41,-251.5"/>
</a>
</g>
</g>
<!-- Node11 -->
<g id="Node000011" class="node">
<title>Node11</title>
<g id="a_Node000011"><a xlink:href="struct_ogre_1_1_vector_set.html" target="_top" xlink:title=" ">
<polygon fill="white" stroke="#666666" points="1029,-115.5 877,-115.5 877,-96.5 1029,-96.5 1029,-115.5"/>
<text text-anchor="middle" x="953" y="-103.5" font-family="Helvetica,sans-Serif" font-size="10.00">Ogre::VectorSet&lt; Edge, 8 &gt;</text>
</a>
</g>
</g>
<!-- Node10&#45;&gt;Node11 -->
<g id="edge10_Node000010_Node000011" class="edge">
<title>Node10&#45;&gt;Node11</title>
<g id="a_edge10_Node000010_Node000011"><a xlink:title=" ">
<path fill="none" stroke="#63b8ff" d="M850.94,-80.24C859.7,-82.52 868.57,-84.83 877,-87 889.1,-90.12 902.3,-93.48 914.21,-96.49"/>
<polygon fill="#63b8ff" stroke="#63b8ff" points="851.69,-76.81 841.13,-77.67 849.92,-83.59 851.69,-76.81"/>
</a>
</g>
</g>
<!-- Node12 -->
<g id="Node000012" class="node">
<title>Node12</title>
<g id="a_Node000012"><a xlink:href="struct_ogre_1_1_vector_set.html" target="_top" xlink:title=" ">
<polygon fill="white" stroke="#666666" points="1015.5,-78 890.5,-78 890.5,-48 1015.5,-48 1015.5,-78"/>
<text text-anchor="start" x="898.5" y="-66" font-family="Helvetica,sans-Serif" font-size="10.00">Ogre::VectorSet&lt; Line</text>
<text text-anchor="middle" x="953" y="-55" font-family="Helvetica,sans-Serif" font-size="10.00"> *, 7 &gt;</text>
</a>
</g>
</g>
<!-- Node10&#45;&gt;Node12 -->
<g id="edge11_Node000010_Node000012" class="edge">
<title>Node10&#45;&gt;Node12</title>
<g id="a_edge11_Node000010_Node000012"><a xlink:title=" ">
<path fill="none" stroke="#63b8ff" d="M851.5,-63C864.27,-63 877.6,-63 890.23,-63"/>
<polygon fill="#63b8ff" stroke="#63b8ff" points="851.41,-59.5 841.41,-63 851.41,-66.5 851.41,-59.5"/>
</a>
</g>
</g>
<!-- Node13 -->
<g id="Node000013" class="node">
<title>Node13</title>
<g id="a_Node000013"><a xlink:href="struct_ogre_1_1_vector_set.html" target="_top" xlink:title=" ">
<polygon fill="white" stroke="#666666" points="1024.5,-30 881.5,-30 881.5,0 1024.5,0 1024.5,-30"/>
<text text-anchor="start" x="889.5" y="-18" font-family="Helvetica,sans-Serif" font-size="10.00">Ogre::VectorSet&lt; Triangle</text>
<text text-anchor="middle" x="953" y="-7" font-family="Helvetica,sans-Serif" font-size="10.00"> *, 7 &gt;</text>
</a>
</g>
</g>
<!-- Node10&#45;&gt;Node13 -->
<g id="edge12_Node000010_Node000013" class="edge">
<title>Node10&#45;&gt;Node13</title>
<g id="a_edge12_Node000010_Node000013"><a xlink:title=" ">
<path fill="none" stroke="#63b8ff" d="M847.69,-45.07C864.9,-40.11 883.39,-34.78 899.96,-30"/>
<polygon fill="#63b8ff" stroke="#63b8ff" points="846.36,-41.81 837.72,-47.94 848.3,-48.54 846.36,-41.81"/>
</a>
</g>
</g>
</g>
</svg>
