<?xml version="1.0" encoding="UTF-8" standalone="no"?>
<!DOCTYPE svg PUBLIC "-//W3C//DTD SVG 1.1//EN"
 "http://www.w3.org/Graphics/SVG/1.1/DTD/svg11.dtd">
<!-- Generated by graphviz version 2.43.0 (0)
 -->
<!-- Title: Ogre::Quake3ShaderManager Pages: 1 -->
<svg width="411pt" height="93pt"
 viewBox="0.00 0.00 410.50 93.00" xmlns="http://www.w3.org/2000/svg" xmlns:xlink="http://www.w3.org/1999/xlink">
<g id="graph0" class="graph" transform="scale(1 1) rotate(0) translate(4 89)">
<title>Ogre::Quake3ShaderManager</title>
<!-- Node1 -->
<g id="Node000001" class="node">
<title>Node1</title>
<g id="a_Node000001"><a xlink:title="Class for managing Quake3 custom shaders.">
<polygon fill="#999999" stroke="#666666" points="291,-19 132,-19 132,0 291,0 291,-19"/>
<text text-anchor="middle" x="211.5" y="-7" font-family="Helvetica,sans-Serif" font-size="10.00">Ogre::Quake3ShaderManager</text>
</a>
</g>
</g>
<!-- Node2 -->
<g id="Node000002" class="node">
<title>Node2</title>
<g id="a_Node000002"><a xlink:href="class_ogre_1_1_script_loader.html" target="_top" xlink:title="Abstract class defining the interface used by classes which wish to perform script loading to define ...">
<polygon fill="white" stroke="#666666" points="107,-79.5 0,-79.5 0,-60.5 107,-60.5 107,-79.5"/>
<text text-anchor="middle" x="53.5" y="-67.5" font-family="Helvetica,sans-Serif" font-size="10.00">Ogre::ScriptLoader</text>
</a>
</g>
</g>
<!-- Node2&#45;&gt;Node1 -->
<g id="edge1_Node000001_Node000002" class="edge">
<title>Node2&#45;&gt;Node1</title>
<g id="a_edge1_Node000001_Node000002"><a xlink:title=" ">
<path fill="none" stroke="#63b8ff" d="M86.24,-56.88C116.78,-45.57 161.57,-28.99 188.5,-19.02"/>
<polygon fill="#63b8ff" stroke="#63b8ff" points="84.64,-53.74 76.47,-60.49 87.07,-60.3 84.64,-53.74"/>
</a>
</g>
</g>
<!-- Node3 -->
<g id="Node000003" class="node">
<title>Node3</title>
<g id="a_Node000003"><a xlink:href="class_ogre_1_1_singleton.html" target="_top" xlink:title=" ">
<polygon fill="white" stroke="#666666" points="298,-85 125,-85 125,-55 298,-55 298,-85"/>
<text text-anchor="start" x="133" y="-73" font-family="Helvetica,sans-Serif" font-size="10.00">Ogre::Singleton&lt; Quake3Shader</text>
<text text-anchor="middle" x="211.5" y="-62" font-family="Helvetica,sans-Serif" font-size="10.00">Manager &gt;</text>
</a>
</g>
</g>
<!-- Node3&#45;&gt;Node1 -->
<g id="edge2_Node000001_Node000003" class="edge">
<title>Node3&#45;&gt;Node1</title>
<g id="a_edge2_Node000001_Node000003"><a xlink:title=" ">
<path fill="none" stroke="#63b8ff" d="M211.5,-44.75C211.5,-35.72 211.5,-26.03 211.5,-19.27"/>
<polygon fill="#63b8ff" stroke="#63b8ff" points="208,-44.84 211.5,-54.84 215,-44.84 208,-44.84"/>
</a>
</g>
</g>
<!-- Node4 -->
<g id="Node000004" class="node">
<title>Node4</title>
<g id="a_Node000004"><a xlink:title=" ">
<polygon fill="white" stroke="#666666" points="402.5,-79.5 316.5,-79.5 316.5,-60.5 402.5,-60.5 402.5,-79.5"/>
<text text-anchor="middle" x="359.5" y="-67.5" font-family="Helvetica,sans-Serif" font-size="10.00">ResourceAlloc</text>
</a>
</g>
</g>
<!-- Node4&#45;&gt;Node1 -->
<g id="edge3_Node000001_Node000004" class="edge">
<title>Node4&#45;&gt;Node1</title>
<g id="a_edge3_Node000001_Node000004"><a xlink:title=" ">
<path fill="none" stroke="#63b8ff" d="M328.46,-56.73C299.86,-45.42 258.16,-28.94 233.05,-19.02"/>
<polygon fill="#63b8ff" stroke="#63b8ff" points="327.39,-60.07 337.98,-60.49 329.97,-53.56 327.39,-60.07"/>
</a>
</g>
</g>
</g>
</svg>
