<?xml version="1.0" encoding="UTF-8" standalone="no"?>
<!DOCTYPE svg PUBLIC "-//W3C//DTD SVG 1.1//EN"
 "http://www.w3.org/Graphics/SVG/1.1/DTD/svg11.dtd">
<!-- Generated by graphviz version 2.43.0 (0)
 -->
<!-- Title: Ogre::ScriptLoader Pages: 1 -->
<svg width="694pt" height="249pt"
 viewBox="0.00 0.00 694.00 249.00" xmlns="http://www.w3.org/2000/svg" xmlns:xlink="http://www.w3.org/1999/xlink">
<g id="graph0" class="graph" transform="scale(1 1) rotate(0) translate(4 245)">
<title>Ogre::ScriptLoader</title>
<!-- Node1 -->
<g id="Node000001" class="node">
<title>Node1</title>
<g id="a_Node000001"><a xlink:title="Abstract class defining the interface used by classes which wish to perform script loading to define ...">
<polygon fill="#999999" stroke="#666666" points="107,-167 0,-167 0,-148 107,-148 107,-167"/>
<text text-anchor="middle" x="53.5" y="-155" font-family="Helvetica,sans-Serif" font-size="10.00">Ogre::ScriptLoader</text>
</a>
</g>
</g>
<!-- Node2 -->
<g id="Node000002" class="node">
<title>Node2</title>
<g id="a_Node000002"><a xlink:href="class_ogre_1_1_cg_fx_script_loader.html" target="_top" xlink:title="Manages Overlay objects, parsing them from .overlay files and storing a lookup library of them.">
<polygon fill="white" stroke="#666666" points="289,-241 158,-241 158,-222 289,-222 289,-241"/>
<text text-anchor="middle" x="223.5" y="-229" font-family="Helvetica,sans-Serif" font-size="10.00">Ogre::CgFxScriptLoader</text>
</a>
</g>
</g>
<!-- Node1&#45;&gt;Node2 -->
<g id="edge1_Node000001_Node000002" class="edge">
<title>Node1&#45;&gt;Node2</title>
<g id="a_edge1_Node000001_Node000002"><a xlink:title=" ">
<path fill="none" stroke="#63b8ff" d="M74.84,-173.22C92.09,-185.84 117.97,-203.11 143,-213.5 151.1,-216.86 159.95,-219.65 168.69,-221.95"/>
<polygon fill="#63b8ff" stroke="#63b8ff" points="76.75,-170.29 66.65,-167.11 72.57,-175.9 76.75,-170.29"/>
</a>
</g>
</g>
<!-- Node3 -->
<g id="Node000003" class="node">
<title>Node3</title>
<g id="a_Node000003"><a xlink:href="class_ogre_1_1_overlay_manager.html" target="_top" xlink:title="Manages Overlay objects, parsing them from .overlay files and storing a lookup library of them.">
<polygon fill="white" stroke="#666666" points="287,-204 160,-204 160,-185 287,-185 287,-204"/>
<text text-anchor="middle" x="223.5" y="-192" font-family="Helvetica,sans-Serif" font-size="10.00">Ogre::OverlayManager</text>
</a>
</g>
</g>
<!-- Node1&#45;&gt;Node3 -->
<g id="edge2_Node000001_Node000003" class="edge">
<title>Node1&#45;&gt;Node3</title>
<g id="a_edge2_Node000001_Node000003"><a xlink:title=" ">
<path fill="none" stroke="#63b8ff" d="M107.72,-169.22C130.72,-174.29 157.3,-180.14 179.09,-184.94"/>
<polygon fill="#63b8ff" stroke="#63b8ff" points="108.28,-165.76 97.76,-167.03 106.78,-172.6 108.28,-165.76"/>
</a>
</g>
</g>
<!-- Node4 -->
<g id="Node000004" class="node">
<title>Node4</title>
<g id="a_Node000004"><a xlink:href="class_ogre_1_1_quake3_shader_manager.html" target="_top" xlink:title="Class for managing Quake3 custom shaders.">
<polygon fill="white" stroke="#666666" points="303,-167 144,-167 144,-148 303,-148 303,-167"/>
<text text-anchor="middle" x="223.5" y="-155" font-family="Helvetica,sans-Serif" font-size="10.00">Ogre::Quake3ShaderManager</text>
</a>
</g>
</g>
<!-- Node1&#45;&gt;Node4 -->
<g id="edge3_Node000001_Node000004" class="edge">
<title>Node1&#45;&gt;Node4</title>
<g id="a_edge3_Node000001_Node000004"><a xlink:title=" ">
<path fill="none" stroke="#63b8ff" d="M117.22,-157.5C125.9,-157.5 134.91,-157.5 143.84,-157.5"/>
<polygon fill="#63b8ff" stroke="#63b8ff" points="117.2,-154 107.2,-157.5 117.2,-161 117.2,-154"/>
</a>
</g>
</g>
<!-- Node5 -->
<g id="Node000005" class="node">
<title>Node5</title>
<g id="a_Node000005"><a xlink:href="class_ogre_1_1_resource_manager.html" target="_top" xlink:title="Defines a generic resource handler.">
<polygon fill="white" stroke="#666666" points="290.5,-130 156.5,-130 156.5,-111 290.5,-111 290.5,-130"/>
<text text-anchor="middle" x="223.5" y="-118" font-family="Helvetica,sans-Serif" font-size="10.00">Ogre::ResourceManager</text>
</a>
</g>
</g>
<!-- Node1&#45;&gt;Node5 -->
<g id="edge4_Node000001_Node000005" class="edge">
<title>Node1&#45;&gt;Node5</title>
<g id="a_edge4_Node000001_Node000005"><a xlink:title=" ">
<path fill="none" stroke="#63b8ff" d="M107.72,-145.78C130.72,-140.71 157.3,-134.86 179.09,-130.06"/>
<polygon fill="#63b8ff" stroke="#63b8ff" points="106.78,-142.4 97.76,-147.97 108.28,-149.24 106.78,-142.4"/>
</a>
</g>
</g>
<!-- Node14 -->
<g id="Node000014" class="node">
<title>Node14</title>
<g id="a_Node000014"><a xlink:href="class_ogre_1_1_script_compiler_manager.html" target="_top" xlink:title="Manages threaded compilation of scripts.">
<polygon fill="white" stroke="#666666" points="304,-93 143,-93 143,-74 304,-74 304,-93"/>
<text text-anchor="middle" x="223.5" y="-81" font-family="Helvetica,sans-Serif" font-size="10.00">Ogre::ScriptCompilerManager</text>
</a>
</g>
</g>
<!-- Node1&#45;&gt;Node14 -->
<g id="edge13_Node000001_Node000014" class="edge">
<title>Node1&#45;&gt;Node14</title>
<g id="a_edge13_Node000001_Node000014"><a xlink:title=" ">
<path fill="none" stroke="#63b8ff" d="M75.21,-141.94C92.51,-129.62 118.26,-112.82 143,-102.5 152.04,-98.73 161.98,-95.61 171.68,-93.07"/>
<polygon fill="#63b8ff" stroke="#63b8ff" points="73.02,-139.21 66.98,-147.92 77.13,-144.87 73.02,-139.21"/>
</a>
</g>
</g>
<!-- Node6 -->
<g id="Node000006" class="node">
<title>Node6</title>
<g id="a_Node000006"><a xlink:href="class_ogre_1_1_compositor_manager.html" target="_top" xlink:title="Class for managing Compositor settings for Ogre.">
<polygon fill="white" stroke="#666666" points="487,-241 342,-241 342,-222 487,-222 487,-241"/>
<text text-anchor="middle" x="414.5" y="-229" font-family="Helvetica,sans-Serif" font-size="10.00">Ogre::CompositorManager</text>
</a>
</g>
</g>
<!-- Node5&#45;&gt;Node6 -->
<g id="edge5_Node000005_Node000006" class="edge">
<title>Node5&#45;&gt;Node6</title>
<g id="a_edge5_Node000005_Node000006"><a xlink:title=" ">
<path fill="none" stroke="#63b8ff" d="M297.41,-134.9C299.71,-136.3 301.92,-137.83 304,-139.5 332.52,-162.39 311.54,-190.53 340,-213.5 344.19,-216.88 348.93,-219.64 353.92,-221.9"/>
<polygon fill="#63b8ff" stroke="#63b8ff" points="298.64,-131.6 288.14,-130.14 295.44,-137.82 298.64,-131.6"/>
</a>
</g>
</g>
<!-- Node7 -->
<g id="Node000007" class="node">
<title>Node7</title>
<g id="a_Node000007"><a xlink:href="class_ogre_1_1_font_manager.html" target="_top" xlink:title="Manages Font resources, parsing .fontdef files and generally organising them.">
<polygon fill="white" stroke="#666666" points="469.5,-204 359.5,-204 359.5,-185 469.5,-185 469.5,-204"/>
<text text-anchor="middle" x="414.5" y="-192" font-family="Helvetica,sans-Serif" font-size="10.00">Ogre::FontManager</text>
</a>
</g>
</g>
<!-- Node5&#45;&gt;Node7 -->
<g id="edge6_Node000005_Node000007" class="edge">
<title>Node5&#45;&gt;Node7</title>
<g id="a_edge6_Node000005_Node000007"><a xlink:title=" ">
<path fill="none" stroke="#63b8ff" d="M291.6,-133.56C295.9,-135.3 300.08,-137.27 304,-139.5 323.95,-150.84 320.08,-165.11 340,-176.5 345.93,-179.89 352.48,-182.65 359.16,-184.89"/>
<polygon fill="#63b8ff" stroke="#63b8ff" points="292.61,-130.21 282.02,-130.11 290.24,-136.79 292.61,-130.21"/>
</a>
</g>
</g>
<!-- Node8 -->
<g id="Node000008" class="node">
<title>Node8</title>
<g id="a_Node000008"><a xlink:href="class_ogre_1_1_gpu_program_manager.html" target="_top" xlink:title="This ResourceManager manages GPU shader programs.">
<polygon fill="white" stroke="#666666" points="489,-167 340,-167 340,-148 489,-148 489,-167"/>
<text text-anchor="middle" x="414.5" y="-155" font-family="Helvetica,sans-Serif" font-size="10.00">Ogre::GpuProgramManager</text>
</a>
</g>
</g>
<!-- Node5&#45;&gt;Node8 -->
<g id="edge7_Node000005_Node000008" class="edge">
<title>Node5&#45;&gt;Node8</title>
<g id="a_edge7_Node000005_Node000008"><a xlink:title=" ">
<path fill="none" stroke="#63b8ff" d="M283.33,-132.02C309.44,-137.13 339.83,-143.08 364.66,-147.94"/>
<polygon fill="#63b8ff" stroke="#63b8ff" points="283.66,-128.51 273.17,-130.03 282.31,-135.38 283.66,-128.51"/>
</a>
</g>
</g>
<!-- Node9 -->
<g id="Node000009" class="node">
<title>Node9</title>
<g id="a_Node000009"><a xlink:href="class_ogre_1_1_material_manager.html" target="_top" xlink:title="Class for managing Material settings for Ogre.">
<polygon fill="white" stroke="#666666" points="479,-130 350,-130 350,-111 479,-111 479,-130"/>
<text text-anchor="middle" x="414.5" y="-118" font-family="Helvetica,sans-Serif" font-size="10.00">Ogre::MaterialManager</text>
</a>
</g>
</g>
<!-- Node5&#45;&gt;Node9 -->
<g id="edge8_Node000005_Node000009" class="edge">
<title>Node5&#45;&gt;Node9</title>
<g id="a_edge8_Node000005_Node000009"><a xlink:title=" ">
<path fill="none" stroke="#63b8ff" d="M300.67,-120.5C317.03,-120.5 334.16,-120.5 349.98,-120.5"/>
<polygon fill="#63b8ff" stroke="#63b8ff" points="300.6,-117 290.6,-120.5 300.6,-124 300.6,-117"/>
</a>
</g>
</g>
<!-- Node10 -->
<g id="Node000010" class="node">
<title>Node10</title>
<g id="a_Node000010"><a xlink:href="class_ogre_1_1_mesh_manager.html" target="_top" xlink:title="Handles the management of mesh resources.">
<polygon fill="white" stroke="#666666" points="472,-93 357,-93 357,-74 472,-74 472,-93"/>
<text text-anchor="middle" x="414.5" y="-81" font-family="Helvetica,sans-Serif" font-size="10.00">Ogre::MeshManager</text>
</a>
</g>
</g>
<!-- Node5&#45;&gt;Node10 -->
<g id="edge9_Node000005_Node000010" class="edge">
<title>Node5&#45;&gt;Node10</title>
<g id="a_edge9_Node000005_Node000010"><a xlink:title=" ">
<path fill="none" stroke="#63b8ff" d="M283.33,-108.98C309.44,-103.87 339.83,-97.92 364.66,-93.06"/>
<polygon fill="#63b8ff" stroke="#63b8ff" points="282.31,-105.62 273.17,-110.97 283.66,-112.49 282.31,-105.62"/>
</a>
</g>
</g>
<!-- Node11 -->
<g id="Node000011" class="node">
<title>Node11</title>
<g id="a_Node000011"><a xlink:href="class_ogre_1_1_skeleton_manager.html" target="_top" xlink:title="Handles the management of skeleton resources.">
<polygon fill="white" stroke="#666666" points="480,-56 349,-56 349,-37 480,-37 480,-56"/>
<text text-anchor="middle" x="414.5" y="-44" font-family="Helvetica,sans-Serif" font-size="10.00">Ogre::SkeletonManager</text>
</a>
</g>
</g>
<!-- Node5&#45;&gt;Node11 -->
<g id="edge10_Node000005_Node000011" class="edge">
<title>Node5&#45;&gt;Node11</title>
<g id="a_edge10_Node000005_Node000011"><a xlink:title=" ">
<path fill="none" stroke="#63b8ff" d="M293.92,-107.38C297.4,-105.92 300.79,-104.3 304,-102.5 324.01,-91.28 320.16,-77.02 340,-65.5 346.72,-61.6 354.25,-58.48 361.86,-56"/>
<polygon fill="#63b8ff" stroke="#63b8ff" points="292.67,-104.11 284.51,-110.88 295.11,-110.67 292.67,-104.11"/>
</a>
</g>
</g>
<!-- Node12 -->
<g id="Node000012" class="node">
<title>Node12</title>
<g id="a_Node000012"><a xlink:href="class_ogre_1_1_texture_manager.html" target="_top" xlink:title="Class for loading &amp; managing textures.">
<polygon fill="white" stroke="#666666" points="477,-19 352,-19 352,0 477,0 477,-19"/>
<text text-anchor="middle" x="414.5" y="-7" font-family="Helvetica,sans-Serif" font-size="10.00">Ogre::TextureManager</text>
</a>
</g>
</g>
<!-- Node5&#45;&gt;Node12 -->
<g id="edge11_Node000005_Node000012" class="edge">
<title>Node5&#45;&gt;Node12</title>
<g id="a_edge11_Node000005_Node000012"><a xlink:title=" ">
<path fill="none" stroke="#63b8ff" d="M299.06,-106.01C300.77,-104.92 302.42,-103.75 304,-102.5 332.66,-79.78 311.69,-51.65 340,-28.5 344.69,-24.66 350.07,-21.59 355.74,-19.13"/>
<polygon fill="#63b8ff" stroke="#63b8ff" points="297.24,-103.02 290.1,-110.84 300.56,-109.18 297.24,-103.02"/>
</a>
</g>
</g>
<!-- Node13 -->
<g id="Node000013" class="node">
<title>Node13</title>
<g id="a_Node000013"><a xlink:href="class_ogre_1_1_default_texture_manager.html" target="_top" xlink:title="Specialisation of TextureManager for offline processing. Cannot be used with an active RenderSystem.">
<polygon fill="white" stroke="#666666" points="686,-19 525,-19 525,0 686,0 686,-19"/>
<text text-anchor="middle" x="605.5" y="-7" font-family="Helvetica,sans-Serif" font-size="10.00">Ogre::DefaultTextureManager</text>
</a>
</g>
</g>
<!-- Node12&#45;&gt;Node13 -->
<g id="edge12_Node000012_Node000013" class="edge">
<title>Node12&#45;&gt;Node13</title>
<g id="a_edge12_Node000012_Node000013"><a xlink:title=" ">
<path fill="none" stroke="#63b8ff" d="M487.26,-9.5C499.5,-9.5 512.28,-9.5 524.71,-9.5"/>
<polygon fill="#63b8ff" stroke="#63b8ff" points="487.12,-6 477.12,-9.5 487.12,-13 487.12,-6"/>
</a>
</g>
</g>
</g>
</svg>
