<?xml version="1.0" encoding="UTF-8" standalone="no"?>
<!DOCTYPE svg PUBLIC "-//W3C//DTD SVG 1.1//EN"
 "http://www.w3.org/Graphics/SVG/1.1/DTD/svg11.dtd">
<!-- Generated by graphviz version 2.43.0 (0)
 -->
<!-- Title: Ogre::SceneQueryListener Pages: 1 -->
<svg width="911pt" height="257pt"
 viewBox="0.00 0.00 911.00 256.50" xmlns="http://www.w3.org/2000/svg" xmlns:xlink="http://www.w3.org/1999/xlink">
<g id="graph0" class="graph" transform="scale(1 1) rotate(0) translate(4 252.5)">
<title>Ogre::SceneQueryListener</title>
<!-- Node1 -->
<g id="Node000001" class="node">
<title>Node1</title>
<g id="a_Node000001"><a xlink:title="This optional class allows you to receive per&#45;result callbacks from SceneQuery executions instead of ...">
<polygon fill="#999999" stroke="#666666" points="143,-115 0,-115 0,-96 143,-96 143,-115"/>
<text text-anchor="middle" x="71.5" y="-103" font-family="Helvetica,sans-Serif" font-size="10.00">Ogre::SceneQueryListener</text>
</a>
</g>
</g>
<!-- Node2 -->
<g id="Node000002" class="node">
<title>Node2</title>
<g id="a_Node000002"><a xlink:href="class_ogre_1_1_region_scene_query.html" target="_top" xlink:title="Abstract class defining a query which returns single results from a region.">
<polygon fill="white" stroke="#666666" points="317,-115 179,-115 179,-96 317,-96 317,-115"/>
<text text-anchor="middle" x="248" y="-103" font-family="Helvetica,sans-Serif" font-size="10.00">Ogre::RegionSceneQuery</text>
</a>
</g>
</g>
<!-- Node1&#45;&gt;Node2 -->
<g id="edge1_Node000001_Node000002" class="edge">
<title>Node1&#45;&gt;Node2</title>
<g id="a_edge1_Node000001_Node000002"><a xlink:title=" ">
<path fill="none" stroke="#63b8ff" d="M153.47,-105.5C161.91,-105.5 170.43,-105.5 178.72,-105.5"/>
<polygon fill="#63b8ff" stroke="#63b8ff" points="153.22,-102 143.22,-105.5 153.22,-109 153.22,-102"/>
</a>
</g>
</g>
<!-- Node3 -->
<g id="Node000003" class="node">
<title>Node3</title>
<g id="a_Node000003"><a xlink:href="class_ogre_1_1_axis_aligned_box_scene_query.html" target="_top" xlink:title="Specialises the SceneQuery class for querying within an axis aligned box.">
<polygon fill="white" stroke="#666666" points="505.5,-189.5 353.5,-189.5 353.5,-159.5 505.5,-159.5 505.5,-189.5"/>
<text text-anchor="start" x="361.5" y="-177.5" font-family="Helvetica,sans-Serif" font-size="10.00">Ogre::AxisAlignedBoxScene</text>
<text text-anchor="middle" x="429.5" y="-166.5" font-family="Helvetica,sans-Serif" font-size="10.00">Query</text>
</a>
</g>
</g>
<!-- Node2&#45;&gt;Node3 -->
<g id="edge2_Node000002_Node000003" class="edge">
<title>Node2&#45;&gt;Node3</title>
<g id="a_edge2_Node000002_Node000003"><a xlink:title=" ">
<path fill="none" stroke="#63b8ff" d="M283.65,-118.82C313.89,-130.44 357.74,-147.3 389.26,-159.42"/>
<polygon fill="#63b8ff" stroke="#63b8ff" points="284.55,-115.42 273.96,-115.09 282.04,-121.95 284.55,-115.42"/>
</a>
</g>
</g>
<!-- Node7 -->
<g id="Node000007" class="node">
<title>Node7</title>
<g id="a_Node000007"><a xlink:href="class_ogre_1_1_plane_bounded_volume_list_scene_query.html" target="_top" xlink:title="Specialises the SceneQuery class for querying within a plane&#45;bounded volume.">
<polygon fill="white" stroke="#666666" points="506,-120.5 353,-120.5 353,-90.5 506,-90.5 506,-120.5"/>
<text text-anchor="start" x="361" y="-108.5" font-family="Helvetica,sans-Serif" font-size="10.00">Ogre::PlaneBoundedVolume</text>
<text text-anchor="middle" x="429.5" y="-97.5" font-family="Helvetica,sans-Serif" font-size="10.00">ListSceneQuery</text>
</a>
</g>
</g>
<!-- Node2&#45;&gt;Node7 -->
<g id="edge6_Node000002_Node000007" class="edge">
<title>Node2&#45;&gt;Node7</title>
<g id="a_edge6_Node000002_Node000007"><a xlink:title=" ">
<path fill="none" stroke="#63b8ff" d="M327.38,-105.5C335.86,-105.5 344.48,-105.5 352.93,-105.5"/>
<polygon fill="#63b8ff" stroke="#63b8ff" points="327.12,-102 317.12,-105.5 327.12,-109 327.12,-102"/>
</a>
</g>
</g>
<!-- Node11 -->
<g id="Node000011" class="node">
<title>Node11</title>
<g id="a_Node000011"><a xlink:href="class_ogre_1_1_sphere_scene_query.html" target="_top" xlink:title="Specialises the SceneQuery class for querying within a sphere.">
<polygon fill="white" stroke="#666666" points="498.5,-70 360.5,-70 360.5,-51 498.5,-51 498.5,-70"/>
<text text-anchor="middle" x="429.5" y="-58" font-family="Helvetica,sans-Serif" font-size="10.00">Ogre::SphereSceneQuery</text>
</a>
</g>
</g>
<!-- Node2&#45;&gt;Node11 -->
<g id="edge10_Node000002_Node000011" class="edge">
<title>Node2&#45;&gt;Node11</title>
<g id="a_edge10_Node000002_Node000011"><a xlink:title=" ">
<path fill="none" stroke="#63b8ff" d="M297.08,-93.45C326.36,-86.11 363.25,-76.86 390.49,-70.03"/>
<polygon fill="#63b8ff" stroke="#63b8ff" points="295.92,-90.13 287.07,-95.96 297.62,-96.92 295.92,-90.13"/>
</a>
</g>
</g>
<!-- Node4 -->
<g id="Node000004" class="node">
<title>Node4</title>
<g id="a_Node000004"><a xlink:href="class_ogre_1_1_default_axis_aligned_box_scene_query.html" target="_top" xlink:title="Default implementation of AxisAlignedBoxSceneQuery.">
<polygon fill="white" stroke="#666666" points="688,-200.5 548,-200.5 548,-170.5 688,-170.5 688,-200.5"/>
<text text-anchor="start" x="556" y="-188.5" font-family="Helvetica,sans-Serif" font-size="10.00">Ogre::DefaultAxisAligned</text>
<text text-anchor="middle" x="618" y="-177.5" font-family="Helvetica,sans-Serif" font-size="10.00">BoxSceneQuery</text>
</a>
</g>
</g>
<!-- Node3&#45;&gt;Node4 -->
<g id="edge3_Node000003_Node000004" class="edge">
<title>Node3&#45;&gt;Node4</title>
<g id="a_edge3_Node000003_Node000004"><a xlink:title=" ">
<path fill="none" stroke="#63b8ff" d="M515.78,-179.53C526.51,-180.16 537.39,-180.8 547.83,-181.42"/>
<polygon fill="#63b8ff" stroke="#63b8ff" points="515.74,-176.02 505.55,-178.93 515.33,-183.01 515.74,-176.02"/>
</a>
</g>
</g>
<!-- Node5 -->
<g id="Node000005" class="node">
<title>Node5</title>
<g id="a_Node000005"><a xlink:href="class_ogre_1_1_octree_axis_aligned_box_scene_query.html" target="_top" xlink:title="Octree implementation of AxisAlignedBoxSceneQuery.">
<polygon fill="white" stroke="#666666" points="894,-248.5 739,-248.5 739,-218.5 894,-218.5 894,-248.5"/>
<text text-anchor="start" x="747" y="-236.5" font-family="Helvetica,sans-Serif" font-size="10.00">Ogre::OctreeAxisAlignedBox</text>
<text text-anchor="middle" x="816.5" y="-225.5" font-family="Helvetica,sans-Serif" font-size="10.00">SceneQuery</text>
</a>
</g>
</g>
<!-- Node4&#45;&gt;Node5 -->
<g id="edge4_Node000004_Node000005" class="edge">
<title>Node4&#45;&gt;Node5</title>
<g id="a_edge4_Node000004_Node000005"><a xlink:title=" ">
<path fill="none" stroke="#63b8ff" d="M690.4,-202.94C711.27,-208.04 733.89,-213.57 754.08,-218.5"/>
<polygon fill="#63b8ff" stroke="#63b8ff" points="691.18,-199.53 680.63,-200.56 689.52,-206.33 691.18,-199.53"/>
</a>
</g>
</g>
<!-- Node6 -->
<g id="Node000006" class="node">
<title>Node6</title>
<g id="a_Node000006"><a xlink:href="class_ogre_1_1_p_c_z_axis_aligned_box_scene_query.html" target="_top" xlink:title="PCZ implementation of AxisAlignedBoxSceneQuery.">
<polygon fill="white" stroke="#666666" points="902,-200.5 731,-200.5 731,-170.5 902,-170.5 902,-200.5"/>
<text text-anchor="start" x="739" y="-188.5" font-family="Helvetica,sans-Serif" font-size="10.00">Ogre::PCZAxisAlignedBoxScene</text>
<text text-anchor="middle" x="816.5" y="-177.5" font-family="Helvetica,sans-Serif" font-size="10.00">Query</text>
</a>
</g>
</g>
<!-- Node4&#45;&gt;Node6 -->
<g id="edge5_Node000004_Node000006" class="edge">
<title>Node4&#45;&gt;Node6</title>
<g id="a_edge5_Node000004_Node000006"><a xlink:title=" ">
<path fill="none" stroke="#63b8ff" d="M698.18,-185.5C708.91,-185.5 719.96,-185.5 730.78,-185.5"/>
<polygon fill="#63b8ff" stroke="#63b8ff" points="698,-182 688,-185.5 698,-189 698,-182"/>
</a>
</g>
</g>
<!-- Node8 -->
<g id="Node000008" class="node">
<title>Node8</title>
<g id="a_Node000008"><a xlink:href="class_ogre_1_1_default_plane_bounded_volume_list_scene_query.html" target="_top" xlink:title="Default implementation of PlaneBoundedVolumeListSceneQuery.">
<polygon fill="white" stroke="#666666" points="694,-120.5 542,-120.5 542,-90.5 694,-90.5 694,-120.5"/>
<text text-anchor="start" x="550" y="-108.5" font-family="Helvetica,sans-Serif" font-size="10.00">Ogre::DefaultPlaneBounded</text>
<text text-anchor="middle" x="618" y="-97.5" font-family="Helvetica,sans-Serif" font-size="10.00">VolumeListSceneQuery</text>
</a>
</g>
</g>
<!-- Node7&#45;&gt;Node8 -->
<g id="edge7_Node000007_Node000008" class="edge">
<title>Node7&#45;&gt;Node8</title>
<g id="a_edge7_Node000007_Node000008"><a xlink:title=" ">
<path fill="none" stroke="#63b8ff" d="M516.13,-105.5C524.74,-105.5 533.43,-105.5 541.91,-105.5"/>
<polygon fill="#63b8ff" stroke="#63b8ff" points="516.09,-102 506.09,-105.5 516.09,-109 516.09,-102"/>
</a>
</g>
</g>
<!-- Node9 -->
<g id="Node000009" class="node">
<title>Node9</title>
<g id="a_Node000009"><a xlink:href="class_ogre_1_1_octree_plane_bounded_volume_list_scene_query.html" target="_top" xlink:title="Octree implementation of PlaneBoundedVolumeListSceneQuery.">
<polygon fill="white" stroke="#666666" points="890.5,-152.5 742.5,-152.5 742.5,-122.5 890.5,-122.5 890.5,-152.5"/>
<text text-anchor="start" x="750.5" y="-140.5" font-family="Helvetica,sans-Serif" font-size="10.00">Ogre::OctreePlaneBounded</text>
<text text-anchor="middle" x="816.5" y="-129.5" font-family="Helvetica,sans-Serif" font-size="10.00">VolumeListSceneQuery</text>
</a>
</g>
</g>
<!-- Node8&#45;&gt;Node9 -->
<g id="edge8_Node000008_Node000009" class="edge">
<title>Node8&#45;&gt;Node9</title>
<g id="a_edge8_Node000008_Node000009"><a xlink:title=" ">
<path fill="none" stroke="#63b8ff" d="M704.24,-119.38C716.94,-121.45 729.93,-123.57 742.36,-125.59"/>
<polygon fill="#63b8ff" stroke="#63b8ff" points="704.56,-115.89 694.13,-117.73 703.44,-122.8 704.56,-115.89"/>
</a>
</g>
</g>
<!-- Node10 -->
<g id="Node000010" class="node">
<title>Node10</title>
<g id="a_Node000010"><a xlink:href="class_ogre_1_1_p_c_z_plane_bounded_volume_list_scene_query.html" target="_top" xlink:title="PCZ implementation of PlaneBoundedVolumeListSceneQuery.">
<polygon fill="white" stroke="#666666" points="903,-104.5 730,-104.5 730,-74.5 903,-74.5 903,-104.5"/>
<text text-anchor="start" x="738" y="-92.5" font-family="Helvetica,sans-Serif" font-size="10.00">Ogre::PCZPlaneBoundedVolume</text>
<text text-anchor="middle" x="816.5" y="-81.5" font-family="Helvetica,sans-Serif" font-size="10.00">ListSceneQuery</text>
</a>
</g>
</g>
<!-- Node8&#45;&gt;Node10 -->
<g id="edge9_Node000008_Node000010" class="edge">
<title>Node8&#45;&gt;Node10</title>
<g id="a_edge9_Node000008_Node000010"><a xlink:title=" ">
<path fill="none" stroke="#63b8ff" d="M704.1,-98.57C712.65,-97.87 721.35,-97.17 729.91,-96.47"/>
<polygon fill="#63b8ff" stroke="#63b8ff" points="703.81,-95.08 694.13,-99.38 704.38,-102.06 703.81,-95.08"/>
</a>
</g>
</g>
<!-- Node12 -->
<g id="Node000012" class="node">
<title>Node12</title>
<g id="a_Node000012"><a xlink:href="class_ogre_1_1_default_sphere_scene_query.html" target="_top" xlink:title="Default implementation of SphereSceneQuery.">
<polygon fill="white" stroke="#666666" points="690.5,-61.5 545.5,-61.5 545.5,-31.5 690.5,-31.5 690.5,-61.5"/>
<text text-anchor="start" x="553.5" y="-49.5" font-family="Helvetica,sans-Serif" font-size="10.00">Ogre::DefaultSphereScene</text>
<text text-anchor="middle" x="618" y="-38.5" font-family="Helvetica,sans-Serif" font-size="10.00">Query</text>
</a>
</g>
</g>
<!-- Node11&#45;&gt;Node12 -->
<g id="edge11_Node000011_Node000012" class="edge">
<title>Node11&#45;&gt;Node12</title>
<g id="a_edge11_Node000011_Node000012"><a xlink:title=" ">
<path fill="none" stroke="#63b8ff" d="M508.71,-54.63C520.84,-53.72 533.32,-52.78 545.3,-51.88"/>
<polygon fill="#63b8ff" stroke="#63b8ff" points="508.33,-51.15 498.62,-55.39 508.86,-58.13 508.33,-51.15"/>
</a>
</g>
</g>
<!-- Node13 -->
<g id="Node000013" class="node">
<title>Node13</title>
<g id="a_Node000013"><a xlink:href="class_ogre_1_1_octree_sphere_scene_query.html" target="_top" xlink:title="Octree implementation of SphereSceneQuery.">
<polygon fill="white" stroke="#666666" points="901.5,-56 731.5,-56 731.5,-37 901.5,-37 901.5,-56"/>
<text text-anchor="middle" x="816.5" y="-44" font-family="Helvetica,sans-Serif" font-size="10.00">Ogre::OctreeSphereSceneQuery</text>
</a>
</g>
</g>
<!-- Node12&#45;&gt;Node13 -->
<g id="edge12_Node000012_Node000013" class="edge">
<title>Node12&#45;&gt;Node13</title>
<g id="a_edge12_Node000012_Node000013"><a xlink:title=" ">
<path fill="none" stroke="#63b8ff" d="M701.07,-46.5C711.04,-46.5 721.25,-46.5 731.25,-46.5"/>
<polygon fill="#63b8ff" stroke="#63b8ff" points="700.78,-43 690.78,-46.5 700.78,-50 700.78,-43"/>
</a>
</g>
</g>
<!-- Node14 -->
<g id="Node000014" class="node">
<title>Node14</title>
<g id="a_Node000014"><a xlink:href="class_ogre_1_1_p_c_z_sphere_scene_query.html" target="_top" xlink:title="PCZ implementation of SphereSceneQuery.">
<polygon fill="white" stroke="#666666" points="895.5,-19 737.5,-19 737.5,0 895.5,0 895.5,-19"/>
<text text-anchor="middle" x="816.5" y="-7" font-family="Helvetica,sans-Serif" font-size="10.00">Ogre::PCZSphereSceneQuery</text>
</a>
</g>
</g>
<!-- Node12&#45;&gt;Node14 -->
<g id="edge13_Node000012_Node000014" class="edge">
<title>Node12&#45;&gt;Node14</title>
<g id="a_edge13_Node000012_Node000014"><a xlink:title=" ">
<path fill="none" stroke="#63b8ff" d="M700.67,-31.12C722.41,-27.03 745.27,-22.72 764.82,-19.04"/>
<polygon fill="#63b8ff" stroke="#63b8ff" points="699.95,-27.7 690.78,-32.99 701.25,-34.57 699.95,-27.7"/>
</a>
</g>
</g>
</g>
</svg>
