<?xml version="1.0" encoding="UTF-8" standalone="no"?>
<!DOCTYPE svg PUBLIC "-//W3C//DTD SVG 1.1//EN"
 "http://www.w3.org/Graphics/SVG/1.1/DTD/svg11.dtd">
<!-- Generated by graphviz version 2.43.0 (0)
 -->
<!-- Title: Ogre::DirectionRandomiserAffector Pages: 1 -->
<svg width="198pt" height="148pt"
 viewBox="0.00 0.00 197.50 148.00" xmlns="http://www.w3.org/2000/svg" xmlns:xlink="http://www.w3.org/1999/xlink">
<g id="graph0" class="graph" transform="scale(1 1) rotate(0) translate(4 144)">
<title>Ogre::DirectionRandomiserAffector</title>
<!-- Node1 -->
<g id="Node000001" class="node">
<title>Node1</title>
<g id="a_Node000001"><a xlink:title="This affector applies randomness to the movement of the particles.">
<polygon fill="#999999" stroke="#666666" points="185.5,-30 36.5,-30 36.5,0 185.5,0 185.5,-30"/>
<text text-anchor="start" x="44.5" y="-18" font-family="Helvetica,sans-Serif" font-size="10.00">Ogre::DirectionRandomiser</text>
<text text-anchor="middle" x="111" y="-7" font-family="Helvetica,sans-Serif" font-size="10.00">Affector</text>
</a>
</g>
</g>
<!-- Node2 -->
<g id="Node000002" class="node">
<title>Node2</title>
<g id="a_Node000002"><a xlink:href="class_ogre_1_1_particle_affector.html" target="_top" xlink:title="Abstract class defining the interface to be implemented by particle affectors.">
<polygon fill="white" stroke="#666666" points="171.5,-85 50.5,-85 50.5,-66 171.5,-66 171.5,-85"/>
<text text-anchor="middle" x="111" y="-73" font-family="Helvetica,sans-Serif" font-size="10.00">Ogre::ParticleAffector</text>
</a>
</g>
</g>
<!-- Node2&#45;&gt;Node1 -->
<g id="edge1_Node000001_Node000002" class="edge">
<title>Node2&#45;&gt;Node1</title>
<g id="a_edge1_Node000001_Node000002"><a xlink:title=" ">
<path fill="none" stroke="#63b8ff" d="M111,-55.65C111,-47.36 111,-37.78 111,-30.11"/>
<polygon fill="#63b8ff" stroke="#63b8ff" points="107.5,-55.87 111,-65.87 114.5,-55.87 107.5,-55.87"/>
</a>
</g>
</g>
<!-- Node3 -->
<g id="Node000003" class="node">
<title>Node3</title>
<g id="a_Node000003"><a xlink:href="class_ogre_1_1_string_interface.html" target="_top" xlink:title="Class defining the common interface which classes can use to present a reflection&#45;style,...">
<polygon fill="white" stroke="#666666" points="118,-140 0,-140 0,-121 118,-121 118,-140"/>
<text text-anchor="middle" x="59" y="-128" font-family="Helvetica,sans-Serif" font-size="10.00">Ogre::StringInterface</text>
</a>
</g>
</g>
<!-- Node3&#45;&gt;Node2 -->
<g id="edge2_Node000002_Node000003" class="edge">
<title>Node3&#45;&gt;Node2</title>
<g id="a_edge2_Node000002_Node000003"><a xlink:title=" ">
<path fill="none" stroke="#63b8ff" d="M74.68,-113.52C83.84,-104.18 95.05,-92.75 102.57,-85.09"/>
<polygon fill="#63b8ff" stroke="#63b8ff" points="72.09,-111.16 67.59,-120.75 77.09,-116.06 72.09,-111.16"/>
</a>
</g>
</g>
<!-- Node4 -->
<g id="Node000004" class="node">
<title>Node4</title>
<g id="a_Node000004"><a xlink:title=" ">
<polygon fill="white" stroke="#666666" points="189.5,-140 136.5,-140 136.5,-121 189.5,-121 189.5,-140"/>
<text text-anchor="middle" x="163" y="-128" font-family="Helvetica,sans-Serif" font-size="10.00">FXAlloc</text>
</a>
</g>
</g>
<!-- Node4&#45;&gt;Node2 -->
<g id="edge3_Node000002_Node000004" class="edge">
<title>Node4&#45;&gt;Node2</title>
<g id="a_edge3_Node000002_Node000004"><a xlink:title=" ">
<path fill="none" stroke="#63b8ff" d="M147.32,-113.52C138.16,-104.18 126.95,-92.75 119.43,-85.09"/>
<polygon fill="#63b8ff" stroke="#63b8ff" points="144.91,-116.06 154.41,-120.75 149.91,-111.16 144.91,-116.06"/>
</a>
</g>
</g>
</g>
</svg>
