<?xml version="1.0" encoding="UTF-8" standalone="no"?>
<!DOCTYPE svg PUBLIC "-//W3C//DTD SVG 1.1//EN"
 "http://www.w3.org/Graphics/SVG/1.1/DTD/svg11.dtd">
<!-- Generated by graphviz version 2.43.0 (0)
 -->
<!-- Title: Ogre::TinyRenderSystem Pages: 1 -->
<svg width="145pt" height="137pt"
 viewBox="0.00 0.00 145.00 137.00" xmlns="http://www.w3.org/2000/svg" xmlns:xlink="http://www.w3.org/1999/xlink">
<g id="graph0" class="graph" transform="scale(1 1) rotate(0) translate(4 133)">
<title>Ogre::TinyRenderSystem</title>
<!-- Node1 -->
<g id="Node000001" class="node">
<title>Node1</title>
<g id="a_Node000001"><a xlink:title="Software rasterizer Implementation as a rendering system.">
<polygon fill="#999999" stroke="#666666" points="137,-19 0,-19 0,0 137,0 137,-19"/>
<text text-anchor="middle" x="68.5" y="-7" font-family="Helvetica,sans-Serif" font-size="10.00">Ogre::TinyRenderSystem</text>
</a>
</g>
</g>
<!-- Node2 -->
<g id="Node000002" class="node">
<title>Node2</title>
<g id="a_Node000002"><a xlink:href="class_ogre_1_1_render_system.html" target="_top" xlink:title="Defines the functionality of a 3D API.">
<polygon fill="white" stroke="#666666" points="127,-74 10,-74 10,-55 127,-55 127,-74"/>
<text text-anchor="middle" x="68.5" y="-62" font-family="Helvetica,sans-Serif" font-size="10.00">Ogre::RenderSystem</text>
</a>
</g>
</g>
<!-- Node2&#45;&gt;Node1 -->
<g id="edge1_Node000001_Node000002" class="edge">
<title>Node2&#45;&gt;Node1</title>
<g id="a_edge1_Node000001_Node000002"><a xlink:title=" ">
<path fill="none" stroke="#63b8ff" d="M68.5,-44.66C68.5,-35.93 68.5,-25.99 68.5,-19.09"/>
<polygon fill="#63b8ff" stroke="#63b8ff" points="65,-44.75 68.5,-54.75 72,-44.75 65,-44.75"/>
</a>
</g>
</g>
<!-- Node3 -->
<g id="Node000003" class="node">
<title>Node3</title>
<g id="a_Node000003"><a xlink:title=" ">
<polygon fill="white" stroke="#666666" points="114.5,-129 22.5,-129 22.5,-110 114.5,-110 114.5,-129"/>
<text text-anchor="middle" x="68.5" y="-117" font-family="Helvetica,sans-Serif" font-size="10.00">RenderSysAlloc</text>
</a>
</g>
</g>
<!-- Node3&#45;&gt;Node2 -->
<g id="edge2_Node000002_Node000003" class="edge">
<title>Node3&#45;&gt;Node2</title>
<g id="a_edge2_Node000002_Node000003"><a xlink:title=" ">
<path fill="none" stroke="#63b8ff" d="M68.5,-99.66C68.5,-90.93 68.5,-80.99 68.5,-74.09"/>
<polygon fill="#63b8ff" stroke="#63b8ff" points="65,-99.75 68.5,-109.75 72,-99.75 65,-99.75"/>
</a>
</g>
</g>
</g>
</svg>
