<?xml version="1.0" encoding="UTF-8" standalone="no"?>
<!DOCTYPE svg PUBLIC "-//W3C//DTD SVG 1.1//EN"
 "http://www.w3.org/Graphics/SVG/1.1/DTD/svg11.dtd">
<!-- Generated by graphviz version 2.43.0 (0)
 -->
<!-- Title: Ogre::AxisAlignedBoxSceneQuery Pages: 1 -->
<svg width="352pt" height="335pt"
 viewBox="0.00 0.00 352.00 335.00" xmlns="http://www.w3.org/2000/svg" xmlns:xlink="http://www.w3.org/1999/xlink">
<g id="graph0" class="graph" transform="scale(1 1) rotate(0) translate(4 331)">
<title>Ogre::AxisAlignedBoxSceneQuery</title>
<!-- Node1 -->
<g id="Node000001" class="node">
<title>Node1</title>
<g id="a_Node000001"><a xlink:title="Specialises the SceneQuery class for querying within an axis aligned box.">
<polygon fill="#999999" stroke="#666666" points="243.5,-162 91.5,-162 91.5,-132 243.5,-132 243.5,-162"/>
<text text-anchor="start" x="99.5" y="-150" font-family="Helvetica,sans-Serif" font-size="10.00">Ogre::AxisAlignedBoxScene</text>
<text text-anchor="middle" x="167.5" y="-139" font-family="Helvetica,sans-Serif" font-size="10.00">Query</text>
</a>
</g>
</g>
<!-- Node6 -->
<g id="Node000006" class="node">
<title>Node6</title>
<g id="a_Node000006"><a xlink:href="class_ogre_1_1_default_axis_aligned_box_scene_query.html" target="_top" xlink:title="Default implementation of AxisAlignedBoxSceneQuery.">
<polygon fill="white" stroke="#666666" points="237.5,-96 97.5,-96 97.5,-66 237.5,-66 237.5,-96"/>
<text text-anchor="start" x="105.5" y="-84" font-family="Helvetica,sans-Serif" font-size="10.00">Ogre::DefaultAxisAligned</text>
<text text-anchor="middle" x="167.5" y="-73" font-family="Helvetica,sans-Serif" font-size="10.00">BoxSceneQuery</text>
</a>
</g>
</g>
<!-- Node1&#45;&gt;Node6 -->
<g id="edge5_Node000001_Node000006" class="edge">
<title>Node1&#45;&gt;Node6</title>
<g id="a_edge5_Node000001_Node000006"><a xlink:title=" ">
<path fill="none" stroke="#63b8ff" d="M167.5,-121.54C167.5,-112.96 167.5,-103.61 167.5,-96.16"/>
<polygon fill="#63b8ff" stroke="#63b8ff" points="164,-121.8 167.5,-131.8 171,-121.8 164,-121.8"/>
</a>
</g>
</g>
<!-- Node2 -->
<g id="Node000002" class="node">
<title>Node2</title>
<g id="a_Node000002"><a xlink:href="class_ogre_1_1_region_scene_query.html" target="_top" xlink:title="Abstract class defining a query which returns single results from a region.">
<polygon fill="white" stroke="#666666" points="236.5,-217 98.5,-217 98.5,-198 236.5,-198 236.5,-217"/>
<text text-anchor="middle" x="167.5" y="-205" font-family="Helvetica,sans-Serif" font-size="10.00">Ogre::RegionSceneQuery</text>
</a>
</g>
</g>
<!-- Node2&#45;&gt;Node1 -->
<g id="edge1_Node000001_Node000002" class="edge">
<title>Node2&#45;&gt;Node1</title>
<g id="a_edge1_Node000001_Node000002"><a xlink:title=" ">
<path fill="none" stroke="#63b8ff" d="M167.5,-187.65C167.5,-179.36 167.5,-169.78 167.5,-162.11"/>
<polygon fill="#63b8ff" stroke="#63b8ff" points="164,-187.87 167.5,-197.87 171,-187.87 164,-187.87"/>
</a>
</g>
</g>
<!-- Node3 -->
<g id="Node000003" class="node">
<title>Node3</title>
<g id="a_Node000003"><a xlink:href="class_ogre_1_1_scene_query.html" target="_top" xlink:title="A class for performing queries on a scene.">
<polygon fill="white" stroke="#666666" points="148.5,-272 44.5,-272 44.5,-253 148.5,-253 148.5,-272"/>
<text text-anchor="middle" x="96.5" y="-260" font-family="Helvetica,sans-Serif" font-size="10.00">Ogre::SceneQuery</text>
</a>
</g>
</g>
<!-- Node3&#45;&gt;Node2 -->
<g id="edge2_Node000002_Node000003" class="edge">
<title>Node3&#45;&gt;Node2</title>
<g id="a_edge2_Node000002_Node000003"><a xlink:title=" ">
<path fill="none" stroke="#63b8ff" d="M116.09,-246.88C128.87,-237.34 145.11,-225.21 155.89,-217.17"/>
<polygon fill="#63b8ff" stroke="#63b8ff" points="113.83,-244.2 107.91,-252.98 118.01,-249.81 113.83,-244.2"/>
</a>
</g>
</g>
<!-- Node4 -->
<g id="Node000004" class="node">
<title>Node4</title>
<g id="a_Node000004"><a xlink:title=" ">
<polygon fill="white" stroke="#666666" points="141,-327 52,-327 52,-308 141,-308 141,-327"/>
<text text-anchor="middle" x="96.5" y="-315" font-family="Helvetica,sans-Serif" font-size="10.00">SceneMgtAlloc</text>
</a>
</g>
</g>
<!-- Node4&#45;&gt;Node3 -->
<g id="edge3_Node000003_Node000004" class="edge">
<title>Node4&#45;&gt;Node3</title>
<g id="a_edge3_Node000003_Node000004"><a xlink:title=" ">
<path fill="none" stroke="#63b8ff" d="M96.5,-297.66C96.5,-288.93 96.5,-278.99 96.5,-272.09"/>
<polygon fill="#63b8ff" stroke="#63b8ff" points="93,-297.75 96.5,-307.75 100,-297.75 93,-297.75"/>
</a>
</g>
</g>
<!-- Node5 -->
<g id="Node000005" class="node">
<title>Node5</title>
<g id="a_Node000005"><a xlink:href="class_ogre_1_1_scene_query_listener.html" target="_top" xlink:title="This optional class allows you to receive per&#45;result callbacks from SceneQuery executions instead of ...">
<polygon fill="white" stroke="#666666" points="310,-272 167,-272 167,-253 310,-253 310,-272"/>
<text text-anchor="middle" x="238.5" y="-260" font-family="Helvetica,sans-Serif" font-size="10.00">Ogre::SceneQueryListener</text>
</a>
</g>
</g>
<!-- Node5&#45;&gt;Node2 -->
<g id="edge4_Node000002_Node000005" class="edge">
<title>Node5&#45;&gt;Node2</title>
<g id="a_edge4_Node000002_Node000005"><a xlink:title=" ">
<path fill="none" stroke="#63b8ff" d="M218.91,-246.88C206.13,-237.34 189.89,-225.21 179.11,-217.17"/>
<polygon fill="#63b8ff" stroke="#63b8ff" points="216.99,-249.81 227.09,-252.98 221.17,-244.2 216.99,-249.81"/>
</a>
</g>
</g>
<!-- Node7 -->
<g id="Node000007" class="node">
<title>Node7</title>
<g id="a_Node000007"><a xlink:href="class_ogre_1_1_octree_axis_aligned_box_scene_query.html" target="_top" xlink:title="Octree implementation of AxisAlignedBoxSceneQuery.">
<polygon fill="white" stroke="#666666" points="155,-30 0,-30 0,0 155,0 155,-30"/>
<text text-anchor="start" x="8" y="-18" font-family="Helvetica,sans-Serif" font-size="10.00">Ogre::OctreeAxisAlignedBox</text>
<text text-anchor="middle" x="77.5" y="-7" font-family="Helvetica,sans-Serif" font-size="10.00">SceneQuery</text>
</a>
</g>
</g>
<!-- Node6&#45;&gt;Node7 -->
<g id="edge6_Node000006_Node000007" class="edge">
<title>Node6&#45;&gt;Node7</title>
<g id="a_edge6_Node000006_Node000007"><a xlink:title=" ">
<path fill="none" stroke="#63b8ff" d="M139.03,-59.75C125.49,-50.13 109.64,-38.86 97.42,-30.16"/>
<polygon fill="#63b8ff" stroke="#63b8ff" points="137.35,-62.85 147.53,-65.8 141.4,-57.15 137.35,-62.85"/>
</a>
</g>
</g>
<!-- Node8 -->
<g id="Node000008" class="node">
<title>Node8</title>
<g id="a_Node000008"><a xlink:href="class_ogre_1_1_p_c_z_axis_aligned_box_scene_query.html" target="_top" xlink:title="PCZ implementation of AxisAlignedBoxSceneQuery.">
<polygon fill="white" stroke="#666666" points="344,-30 173,-30 173,0 344,0 344,-30"/>
<text text-anchor="start" x="181" y="-18" font-family="Helvetica,sans-Serif" font-size="10.00">Ogre::PCZAxisAlignedBoxScene</text>
<text text-anchor="middle" x="258.5" y="-7" font-family="Helvetica,sans-Serif" font-size="10.00">Query</text>
</a>
</g>
</g>
<!-- Node6&#45;&gt;Node8 -->
<g id="edge7_Node000006_Node000008" class="edge">
<title>Node6&#45;&gt;Node8</title>
<g id="a_edge7_Node000006_Node000008"><a xlink:title=" ">
<path fill="none" stroke="#63b8ff" d="M195.9,-60.03C209.67,-50.34 225.88,-38.94 238.36,-30.16"/>
<polygon fill="#63b8ff" stroke="#63b8ff" points="193.86,-57.18 187.7,-65.8 197.89,-62.91 193.86,-57.18"/>
</a>
</g>
</g>
</g>
</svg>
