<?xml version="1.0" encoding="UTF-8" standalone="no"?>
<!DOCTYPE svg PUBLIC "-//W3C//DTD SVG 1.1//EN"
 "http://www.w3.org/Graphics/SVG/1.1/DTD/svg11.dtd">
<!-- Generated by graphviz version 2.43.0 (0)
 -->
<!-- Title: Ogre::FloatGpuParameterControllerValue Pages: 1 -->
<svg width="197pt" height="159pt"
 viewBox="0.00 0.00 197.00 159.00" xmlns="http://www.w3.org/2000/svg" xmlns:xlink="http://www.w3.org/1999/xlink">
<g id="graph0" class="graph" transform="scale(1 1) rotate(0) translate(4 155)">
<title>Ogre::FloatGpuParameterControllerValue</title>
<!-- Node1 -->
<g id="Node000001" class="node">
<title>Node1</title>
<g id="a_Node000001"><a xlink:title="Predefined controller value for setting a single floating&#45; point value in a constant parameter of a v...">
<polygon fill="#999999" stroke="#666666" points="189,-30 0,-30 0,0 189,0 189,-30"/>
<text text-anchor="start" x="8" y="-18" font-family="Helvetica,sans-Serif" font-size="10.00">Ogre::FloatGpuParameterController</text>
<text text-anchor="middle" x="94.5" y="-7" font-family="Helvetica,sans-Serif" font-size="10.00">Value</text>
</a>
</g>
</g>
<!-- Node2 -->
<g id="Node000002" class="node">
<title>Node2</title>
<g id="a_Node000002"><a xlink:href="class_ogre_1_1_controller_value.html" target="_top" xlink:title=" ">
<polygon fill="white" stroke="#666666" points="155.5,-96 33.5,-96 33.5,-66 155.5,-66 155.5,-96"/>
<text text-anchor="start" x="41.5" y="-84" font-family="Helvetica,sans-Serif" font-size="10.00">Ogre::ControllerValue</text>
<text text-anchor="middle" x="94.5" y="-73" font-family="Helvetica,sans-Serif" font-size="10.00">&lt; float &gt;</text>
</a>
</g>
</g>
<!-- Node2&#45;&gt;Node1 -->
<g id="edge1_Node000001_Node000002" class="edge">
<title>Node2&#45;&gt;Node1</title>
<g id="a_edge1_Node000001_Node000002"><a xlink:title=" ">
<path fill="none" stroke="#63b8ff" d="M94.5,-55.54C94.5,-46.96 94.5,-37.61 94.5,-30.16"/>
<polygon fill="#63b8ff" stroke="#63b8ff" points="91,-55.8 94.5,-65.8 98,-55.8 91,-55.8"/>
</a>
</g>
</g>
<!-- Node3 -->
<g id="Node000003" class="node">
<title>Node3</title>
<g id="a_Node000003"><a xlink:title=" ">
<polygon fill="white" stroke="#666666" points="139,-151 50,-151 50,-132 139,-132 139,-151"/>
<text text-anchor="middle" x="94.5" y="-139" font-family="Helvetica,sans-Serif" font-size="10.00">ControllerAlloc</text>
</a>
</g>
</g>
<!-- Node3&#45;&gt;Node2 -->
<g id="edge2_Node000002_Node000003" class="edge">
<title>Node3&#45;&gt;Node2</title>
<g id="a_edge2_Node000002_Node000003"><a xlink:title=" ">
<path fill="none" stroke="#63b8ff" d="M94.5,-121.65C94.5,-113.36 94.5,-103.78 94.5,-96.11"/>
<polygon fill="#63b8ff" stroke="#63b8ff" points="91,-121.87 94.5,-131.87 98,-121.87 91,-121.87"/>
</a>
</g>
</g>
</g>
</svg>
