<?xml version="1.0" encoding="UTF-8" standalone="no"?>
<!DOCTYPE svg PUBLIC "-//W3C//DTD SVG 1.1//EN"
 "http://www.w3.org/Graphics/SVG/1.1/DTD/svg11.dtd">
<!-- Generated by graphviz version 2.43.0 (0)
 -->
<!-- Title: Ogre::AnimableObject Pages: 1 -->
<svg width="859pt" height="520pt"
 viewBox="0.00 0.00 859.00 520.00" xmlns="http://www.w3.org/2000/svg" xmlns:xlink="http://www.w3.org/1999/xlink">
<g id="graph0" class="graph" transform="scale(1 1) rotate(0) translate(4 516)">
<title>Ogre::AnimableObject</title>
<!-- Node1 -->
<g id="Node000001" class="node">
<title>Node1</title>
<g id="a_Node000001"><a xlink:title="Defines an interface to classes which have one or more AnimableValue instances to expose.">
<polygon fill="#999999" stroke="#666666" points="124,-271 0,-271 0,-252 124,-252 124,-271"/>
<text text-anchor="middle" x="62" y="-259" font-family="Helvetica,sans-Serif" font-size="10.00">Ogre::AnimableObject</text>
</a>
</g>
</g>
<!-- Node2 -->
<g id="Node000002" class="node">
<title>Node2</title>
<g id="a_Node000002"><a xlink:href="class_ogre_1_1_movable_object.html" target="_top" xlink:title="Abstract class defining a movable object in a scene.">
<polygon fill="white" stroke="#666666" points="279,-271 160,-271 160,-252 279,-252 279,-271"/>
<text text-anchor="middle" x="219.5" y="-259" font-family="Helvetica,sans-Serif" font-size="10.00">Ogre::MovableObject</text>
</a>
</g>
</g>
<!-- Node1&#45;&gt;Node2 -->
<g id="edge1_Node000001_Node000002" class="edge">
<title>Node1&#45;&gt;Node2</title>
<g id="a_edge1_Node000001_Node000002"><a xlink:title=" ">
<path fill="none" stroke="#63b8ff" d="M134.09,-261.5C142.75,-261.5 151.51,-261.5 159.95,-261.5"/>
<polygon fill="#63b8ff" stroke="#63b8ff" points="134.01,-258 124.01,-261.5 134.01,-265 134.01,-258"/>
</a>
</g>
</g>
<!-- Node3 -->
<g id="Node000003" class="node">
<title>Node3</title>
<g id="a_Node000003"><a xlink:href="class_ogre_1_1_billboard_chain.html" target="_top" xlink:title="Allows the rendering of a chain of connected billboards.">
<polygon fill="white" stroke="#666666" points="448.5,-512 331.5,-512 331.5,-493 448.5,-493 448.5,-512"/>
<text text-anchor="middle" x="390" y="-500" font-family="Helvetica,sans-Serif" font-size="10.00">Ogre::BillboardChain</text>
</a>
</g>
</g>
<!-- Node2&#45;&gt;Node3 -->
<g id="edge2_Node000002_Node000003" class="edge">
<title>Node2&#45;&gt;Node3</title>
<g id="a_edge2_Node000002_Node000003"><a xlink:title=" ">
<path fill="none" stroke="#63b8ff" d="M222.92,-281.27C229.37,-324.97 251.03,-430.15 315,-484.5 319.84,-488.61 325.46,-491.81 331.41,-494.3"/>
<polygon fill="#63b8ff" stroke="#63b8ff" points="226.39,-280.77 221.57,-271.34 219.45,-281.72 226.39,-280.77"/>
</a>
</g>
</g>
<!-- Node5 -->
<g id="Node000005" class="node">
<title>Node5</title>
<g id="a_Node000005"><a xlink:href="class_ogre_1_1_billboard_set.html" target="_top" xlink:title="A collection of billboards (faces which are always facing the given direction) with the same (default...">
<polygon fill="white" stroke="#666666" points="442.5,-475 337.5,-475 337.5,-456 442.5,-456 442.5,-475"/>
<text text-anchor="middle" x="390" y="-463" font-family="Helvetica,sans-Serif" font-size="10.00">Ogre::BillboardSet</text>
</a>
</g>
</g>
<!-- Node2&#45;&gt;Node5 -->
<g id="edge4_Node000002_Node000005" class="edge">
<title>Node2&#45;&gt;Node5</title>
<g id="a_edge4_Node000002_Node000005"><a xlink:title=" ">
<path fill="none" stroke="#63b8ff" d="M224.77,-281.35C234.08,-319.68 259.95,-403.91 315,-447.5 321.53,-452.67 329.33,-456.39 337.37,-459.05"/>
<polygon fill="#63b8ff" stroke="#63b8ff" points="228.14,-280.39 222.48,-271.43 221.32,-281.96 228.14,-280.39"/>
</a>
</g>
</g>
<!-- Node6 -->
<g id="Node000006" class="node">
<title>Node6</title>
<g id="a_Node000006"><a xlink:href="class_ogre_1_1_entity.html" target="_top" xlink:title="Defines an instance of a discrete, movable object based on a Mesh.">
<polygon fill="white" stroke="#666666" points="427,-438 353,-438 353,-419 427,-419 427,-438"/>
<text text-anchor="middle" x="390" y="-426" font-family="Helvetica,sans-Serif" font-size="10.00">Ogre::Entity</text>
</a>
</g>
</g>
<!-- Node2&#45;&gt;Node6 -->
<g id="edge5_Node000002_Node000006" class="edge">
<title>Node2&#45;&gt;Node6</title>
<g id="a_edge5_Node000002_Node000006"><a xlink:title=" ">
<path fill="none" stroke="#63b8ff" d="M227.27,-280.93C239.52,-313.09 268.48,-377.14 315,-410.5 325.96,-418.36 339.93,-422.81 352.78,-425.33"/>
<polygon fill="#63b8ff" stroke="#63b8ff" points="230.49,-279.52 223.76,-271.33 223.91,-281.93 230.49,-279.52"/>
</a>
</g>
</g>
<!-- Node7 -->
<g id="Node000007" class="node">
<title>Node7</title>
<g id="a_Node000007"><a xlink:href="class_ogre_1_1_frustum.html" target="_top" xlink:title="A frustum represents a pyramid, capped at the near and far end which is used to represent either a vi...">
<polygon fill="white" stroke="#666666" points="433,-401 347,-401 347,-382 433,-382 433,-401"/>
<text text-anchor="middle" x="390" y="-389" font-family="Helvetica,sans-Serif" font-size="10.00">Ogre::Frustum</text>
</a>
</g>
</g>
<!-- Node2&#45;&gt;Node7 -->
<g id="edge6_Node000002_Node000007" class="edge">
<title>Node2&#45;&gt;Node7</title>
<g id="a_edge6_Node000002_Node000007"><a xlink:title=" ">
<path fill="none" stroke="#63b8ff" d="M230.89,-279.95C246.04,-305.11 276.61,-349.74 315,-373.5 324.56,-379.42 335.92,-383.39 346.85,-386.05"/>
<polygon fill="#63b8ff" stroke="#63b8ff" points="233.76,-277.93 225.69,-271.06 227.72,-281.46 233.76,-277.93"/>
</a>
</g>
</g>
<!-- Node11 -->
<g id="Node000011" class="node">
<title>Node11</title>
<g id="a_Node000011"><a xlink:href="class_ogre_1_1_instance_batch.html" target="_top" xlink:title="InstanceBatch forms part of the new Instancing system This is an abstract class that must be derived ...">
<polygon fill="white" stroke="#666666" points="447.5,-364 332.5,-364 332.5,-345 447.5,-345 447.5,-364"/>
<text text-anchor="middle" x="390" y="-352" font-family="Helvetica,sans-Serif" font-size="10.00">Ogre::InstanceBatch</text>
</a>
</g>
</g>
<!-- Node2&#45;&gt;Node11 -->
<g id="edge10_Node000002_Node000011" class="edge">
<title>Node2&#45;&gt;Node11</title>
<g id="a_edge10_Node000002_Node000011"><a xlink:title=" ">
<path fill="none" stroke="#63b8ff" d="M236.98,-278.33C254.71,-295.47 284.49,-321.58 315,-336.5 321.89,-339.87 329.46,-342.63 337.04,-344.9"/>
<polygon fill="#63b8ff" stroke="#63b8ff" points="239.3,-275.7 229.73,-271.16 234.38,-280.68 239.3,-275.7"/>
</a>
</g>
</g>
<!-- Node17 -->
<g id="Node000017" class="node">
<title>Node17</title>
<g id="a_Node000017"><a xlink:href="class_ogre_1_1_instanced_entity.html" target="_top" xlink:title=" ">
<polygon fill="white" stroke="#666666" points="451,-327 329,-327 329,-308 451,-308 451,-327"/>
<text text-anchor="middle" x="390" y="-315" font-family="Helvetica,sans-Serif" font-size="10.00">Ogre::InstancedEntity</text>
</a>
</g>
</g>
<!-- Node2&#45;&gt;Node17 -->
<g id="edge16_Node000002_Node000017" class="edge">
<title>Node2&#45;&gt;Node17</title>
<g id="a_edge16_Node000002_Node000017"><a xlink:title=" ">
<path fill="none" stroke="#63b8ff" d="M251.23,-275.16C269.51,-282.96 293.31,-292.54 315,-299.5 324.69,-302.61 335.25,-305.48 345.28,-307.97"/>
<polygon fill="#63b8ff" stroke="#63b8ff" points="252.51,-271.9 241.95,-271.15 249.74,-278.33 252.51,-271.9"/>
</a>
</g>
</g>
<!-- Node18 -->
<g id="Node000018" class="node">
<title>Node18</title>
<g id="a_Node000018"><a xlink:href="class_ogre_1_1_light.html" target="_top" xlink:title="Representation of a dynamic light source in the scene.">
<polygon fill="white" stroke="#666666" points="425,-290 355,-290 355,-271 425,-271 425,-290"/>
<text text-anchor="middle" x="390" y="-278" font-family="Helvetica,sans-Serif" font-size="10.00">Ogre::Light</text>
</a>
</g>
</g>
<!-- Node2&#45;&gt;Node18 -->
<g id="edge17_Node000002_Node000018" class="edge">
<title>Node2&#45;&gt;Node18</title>
<g id="a_edge17_Node000002_Node000018"><a xlink:title=" ">
<path fill="none" stroke="#63b8ff" d="M289.64,-269.3C312.15,-271.83 336.14,-274.54 354.91,-276.66"/>
<polygon fill="#63b8ff" stroke="#63b8ff" points="289.76,-265.79 279.43,-268.15 288.98,-272.74 289.76,-265.79"/>
</a>
</g>
</g>
<!-- Node20 -->
<g id="Node000020" class="node">
<title>Node20</title>
<g id="a_Node000020"><a xlink:href="class_ogre_1_1_manual_object.html" target="_top" xlink:title="Class providing a much simplified interface to generating manual objects with custom geometry.">
<polygon fill="white" stroke="#666666" points="446.5,-253 333.5,-253 333.5,-234 446.5,-234 446.5,-253"/>
<text text-anchor="middle" x="390" y="-241" font-family="Helvetica,sans-Serif" font-size="10.00">Ogre::ManualObject</text>
</a>
</g>
</g>
<!-- Node2&#45;&gt;Node20 -->
<g id="edge19_Node000002_Node000020" class="edge">
<title>Node2&#45;&gt;Node20</title>
<g id="a_edge19_Node000002_Node000020"><a xlink:title=" ">
<path fill="none" stroke="#63b8ff" d="M289.46,-254.13C304.12,-252.57 319.41,-250.93 333.49,-249.43"/>
<polygon fill="#63b8ff" stroke="#63b8ff" points="289,-250.66 279.43,-255.2 289.75,-257.62 289,-250.66"/>
</a>
</g>
</g>
<!-- Node21 -->
<g id="Node000021" class="node">
<title>Node21</title>
<g id="a_Node000021"><a xlink:href="class_ogre_1_1_movable_plane.html" target="_top" xlink:title="Definition of a Plane that may be attached to a node, and the derived details of it retrieved simply.">
<polygon fill="white" stroke="#666666" points="447.5,-216 332.5,-216 332.5,-197 447.5,-197 447.5,-216"/>
<text text-anchor="middle" x="390" y="-204" font-family="Helvetica,sans-Serif" font-size="10.00">Ogre::MovablePlane</text>
</a>
</g>
</g>
<!-- Node2&#45;&gt;Node21 -->
<g id="edge20_Node000002_Node000021" class="edge">
<title>Node2&#45;&gt;Node21</title>
<g id="a_edge20_Node000002_Node000021"><a xlink:title=" ">
<path fill="none" stroke="#63b8ff" d="M253.03,-248.07C271.11,-240.87 294.11,-232.14 315,-225.5 325.74,-222.09 337.51,-218.84 348.44,-216.04"/>
<polygon fill="#63b8ff" stroke="#63b8ff" points="251.51,-244.91 243.54,-251.89 254.13,-251.4 251.51,-244.91"/>
</a>
</g>
</g>
<!-- Node22 -->
<g id="Node000022" class="node">
<title>Node22</title>
<g id="a_Node000022"><a xlink:href="class_ogre_1_1_particle_system.html" target="_top" xlink:title="Class defining particle system based special effects.">
<polygon fill="white" stroke="#666666" points="449.5,-179 330.5,-179 330.5,-160 449.5,-160 449.5,-179"/>
<text text-anchor="middle" x="390" y="-167" font-family="Helvetica,sans-Serif" font-size="10.00">Ogre::ParticleSystem</text>
</a>
</g>
</g>
<!-- Node2&#45;&gt;Node22 -->
<g id="edge21_Node000002_Node000022" class="edge">
<title>Node2&#45;&gt;Node22</title>
<g id="a_edge21_Node000002_Node000022"><a xlink:title=" ">
<path fill="none" stroke="#63b8ff" d="M237.39,-244.95C255.26,-228.34 284.96,-203.18 315,-188.5 322.87,-184.66 331.59,-181.53 340.22,-179.01"/>
<polygon fill="#63b8ff" stroke="#63b8ff" points="234.91,-242.49 230.06,-251.91 239.72,-247.56 234.91,-242.49"/>
</a>
</g>
</g>
<!-- Node23 -->
<g id="Node000023" class="node">
<title>Node23</title>
<g id="a_Node000023"><a xlink:href="class_ogre_1_1_portal_base.html" target="_top" xlink:title="PortalBase &#45; Base class to Portal and AntiPortal classes.">
<polygon fill="white" stroke="#666666" points="439,-142 341,-142 341,-123 439,-123 439,-142"/>
<text text-anchor="middle" x="390" y="-130" font-family="Helvetica,sans-Serif" font-size="10.00">Ogre::PortalBase</text>
</a>
</g>
</g>
<!-- Node2&#45;&gt;Node23 -->
<g id="edge22_Node000002_Node000023" class="edge">
<title>Node2&#45;&gt;Node23</title>
<g id="a_edge22_Node000002_Node000023"><a xlink:title=" ">
<path fill="none" stroke="#63b8ff" d="M231.25,-243.08C246.62,-218.39 277.25,-174.97 315,-151.5 322.77,-146.67 331.73,-143.06 340.67,-140.37"/>
<polygon fill="#63b8ff" stroke="#63b8ff" points="228.13,-241.46 225.95,-251.83 234.12,-245.09 228.13,-241.46"/>
</a>
</g>
</g>
<!-- Node26 -->
<g id="Node000026" class="node">
<title>Node26</title>
<g id="a_Node000026"><a xlink:href="class_ogre_1_1_simple_renderable.html" target="_top" xlink:title="Simple implementation of MovableObject and Renderable for single&#45;part custom objects.">
<polygon fill="white" stroke="#666666" points="457.5,-105 322.5,-105 322.5,-86 457.5,-86 457.5,-105"/>
<text text-anchor="middle" x="390" y="-93" font-family="Helvetica,sans-Serif" font-size="10.00">Ogre::SimpleRenderable</text>
</a>
</g>
</g>
<!-- Node2&#45;&gt;Node26 -->
<g id="edge25_Node000002_Node000026" class="edge">
<title>Node2&#45;&gt;Node26</title>
<g id="a_edge25_Node000002_Node000026"><a xlink:title=" ">
<path fill="none" stroke="#63b8ff" d="M227.4,-242.39C239.82,-210.76 269.03,-147.69 315,-114.5 320.38,-110.62 326.48,-107.53 332.81,-105.07"/>
<polygon fill="#63b8ff" stroke="#63b8ff" points="224.09,-241.24 223.82,-251.83 230.64,-243.72 224.09,-241.24"/>
</a>
</g>
</g>
<!-- Node30 -->
<g id="Node000030" class="node">
<title>Node30</title>
<g id="a_Node000030"><a xlink:href="class_ogre_1_1_static_geometry_1_1_region.html" target="_top" xlink:title="The details of a topological region which is the highest level of partitioning for this class.">
<polygon fill="white" stroke="#666666" points="451,-67.5 329,-67.5 329,-37.5 451,-37.5 451,-67.5"/>
<text text-anchor="start" x="337" y="-55.5" font-family="Helvetica,sans-Serif" font-size="10.00">Ogre::StaticGeometry</text>
<text text-anchor="middle" x="390" y="-44.5" font-family="Helvetica,sans-Serif" font-size="10.00">::Region</text>
</a>
</g>
</g>
<!-- Node2&#45;&gt;Node30 -->
<g id="edge29_Node000002_Node000030" class="edge">
<title>Node2&#45;&gt;Node30</title>
<g id="a_edge29_Node000002_Node000030"><a xlink:title=" ">
<path fill="none" stroke="#63b8ff" d="M225.31,-241.79C235.43,-204.37 262.48,-122.74 315,-77.5 319.52,-73.61 324.67,-70.31 330.11,-67.53"/>
<polygon fill="#63b8ff" stroke="#63b8ff" points="221.81,-241.34 222.7,-251.9 228.59,-243.09 221.81,-241.34"/>
</a>
</g>
</g>
<!-- Node31 -->
<g id="Node000031" class="node">
<title>Node31</title>
<g id="a_Node000031"><a xlink:href="class_ogre_1_1_terrain_quad_tree_node.html" target="_top" xlink:title="A node in a quad tree used to store a patch of terrain.">
<polygon fill="white" stroke="#666666" points="465,-19 315,-19 315,0 465,0 465,-19"/>
<text text-anchor="middle" x="390" y="-7" font-family="Helvetica,sans-Serif" font-size="10.00">Ogre::TerrainQuadTreeNode</text>
</a>
</g>
</g>
<!-- Node2&#45;&gt;Node31 -->
<g id="edge30_Node000002_Node000031" class="edge">
<title>Node2&#45;&gt;Node31</title>
<g id="a_edge30_Node000002_Node000031"><a xlink:title=" ">
<path fill="none" stroke="#8b1a1a" d="M222.6,-241.55C228.45,-196.45 249.09,-86.12 315,-28.5 319.39,-24.66 324.46,-21.58 329.85,-19.11"/>
<polygon fill="#8b1a1a" stroke="#8b1a1a" points="219.09,-241.42 221.39,-251.76 226.05,-242.24 219.09,-241.42"/>
</a>
</g>
</g>
<!-- Node4 -->
<g id="Node000004" class="node">
<title>Node4</title>
<g id="a_Node000004"><a xlink:href="class_ogre_1_1_ribbon_trail.html" target="_top" xlink:title="Subclass of BillboardChain which automatically leaves a trail behind one or more Node instances.">
<polygon fill="white" stroke="#666666" points="630.5,-512 529.5,-512 529.5,-493 630.5,-493 630.5,-512"/>
<text text-anchor="middle" x="580" y="-500" font-family="Helvetica,sans-Serif" font-size="10.00">Ogre::RibbonTrail</text>
</a>
</g>
</g>
<!-- Node3&#45;&gt;Node4 -->
<g id="edge3_Node000003_Node000004" class="edge">
<title>Node3&#45;&gt;Node4</title>
<g id="a_edge3_Node000003_Node000004"><a xlink:title=" ">
<path fill="none" stroke="#63b8ff" d="M458.85,-502.5C482.15,-502.5 507.78,-502.5 529.36,-502.5"/>
<polygon fill="#63b8ff" stroke="#63b8ff" points="458.68,-499 448.68,-502.5 458.68,-506 458.68,-499"/>
</a>
</g>
</g>
<!-- Node8 -->
<g id="Node000008" class="node">
<title>Node8</title>
<g id="a_Node000008"><a xlink:href="class_ogre_1_1_camera.html" target="_top" xlink:title="A viewpoint from which the scene will be rendered.">
<polygon fill="white" stroke="#666666" points="622,-438 538,-438 538,-419 622,-419 622,-438"/>
<text text-anchor="middle" x="580" y="-426" font-family="Helvetica,sans-Serif" font-size="10.00">Ogre::Camera</text>
</a>
</g>
</g>
<!-- Node7&#45;&gt;Node8 -->
<g id="edge7_Node000007_Node000008" class="edge">
<title>Node7&#45;&gt;Node8</title>
<g id="a_edge7_Node000007_Node000008"><a xlink:title=" ">
<path fill="none" stroke="#63b8ff" d="M443.04,-401.74C472.98,-407.63 510.05,-414.93 537.92,-420.42"/>
<polygon fill="#63b8ff" stroke="#63b8ff" points="443.68,-398.3 433.19,-399.8 442.33,-405.17 443.68,-398.3"/>
</a>
</g>
</g>
<!-- Node9 -->
<g id="Node000009" class="node">
<title>Node9</title>
<g id="a_Node000009"><a xlink:href="class_ogre_1_1_octree_camera.html" target="_top" xlink:title="Specialized viewpoint from which an Octree can be rendered.">
<polygon fill="white" stroke="#666666" points="831,-475 715,-475 715,-456 831,-456 831,-475"/>
<text text-anchor="middle" x="773" y="-463" font-family="Helvetica,sans-Serif" font-size="10.00">Ogre::OctreeCamera</text>
</a>
</g>
</g>
<!-- Node8&#45;&gt;Node9 -->
<g id="edge8_Node000008_Node000009" class="edge">
<title>Node8&#45;&gt;Node9</title>
<g id="a_edge8_Node000008_Node000009"><a xlink:title=" ">
<path fill="none" stroke="#63b8ff" d="M632.47,-438.47C660.56,-443.91 695.15,-450.61 722.86,-455.98"/>
<polygon fill="#63b8ff" stroke="#63b8ff" points="632.93,-434.99 622.44,-436.53 631.6,-441.87 632.93,-434.99"/>
</a>
</g>
</g>
<!-- Node10 -->
<g id="Node000010" class="node">
<title>Node10</title>
<g id="a_Node000010"><a xlink:href="class_ogre_1_1_p_c_z_camera.html" target="_top" xlink:title="Specialized viewpoint from which an PCZone Scene can be rendered.">
<polygon fill="white" stroke="#666666" points="825,-438 721,-438 721,-419 825,-419 825,-438"/>
<text text-anchor="middle" x="773" y="-426" font-family="Helvetica,sans-Serif" font-size="10.00">Ogre::PCZCamera</text>
</a>
</g>
</g>
<!-- Node8&#45;&gt;Node10 -->
<g id="edge9_Node000008_Node000010" class="edge">
<title>Node8&#45;&gt;Node10</title>
<g id="a_edge9_Node000008_Node000010"><a xlink:title=" ">
<path fill="none" stroke="#63b8ff" d="M632.6,-428.5C659.96,-428.5 693.46,-428.5 720.76,-428.5"/>
<polygon fill="#63b8ff" stroke="#63b8ff" points="632.44,-425 622.44,-428.5 632.44,-432 632.44,-425"/>
</a>
</g>
</g>
<!-- Node12 -->
<g id="Node000012" class="node">
<title>Node12</title>
<g id="a_Node000012"><a xlink:href="class_ogre_1_1_base_instance_batch_v_t_f.html" target="_top" xlink:title="Instancing implementation using vertex texture through Vertex Texture Fetch (VTF) This implementation...">
<polygon fill="white" stroke="#666666" points="659,-401 501,-401 501,-382 659,-382 659,-401"/>
<text text-anchor="middle" x="580" y="-389" font-family="Helvetica,sans-Serif" font-size="10.00">Ogre::BaseInstanceBatchVTF</text>
</a>
</g>
</g>
<!-- Node11&#45;&gt;Node12 -->
<g id="edge11_Node000011_Node000012" class="edge">
<title>Node11&#45;&gt;Node12</title>
<g id="a_edge11_Node000011_Node000012"><a xlink:title=" ">
<path fill="none" stroke="#63b8ff" d="M449.51,-366.02C475.5,-371.13 505.72,-377.08 530.42,-381.94"/>
<polygon fill="#63b8ff" stroke="#63b8ff" points="449.9,-362.53 439.41,-364.03 448.55,-369.39 449.9,-362.53"/>
</a>
</g>
</g>
<!-- Node15 -->
<g id="Node000015" class="node">
<title>Node15</title>
<g id="a_Node000015"><a xlink:href="class_ogre_1_1_instance_batch_h_w.html" target="_top" xlink:title="This is technique requires true instancing hardware support.">
<polygon fill="white" stroke="#666666" points="646,-364 514,-364 514,-345 646,-345 646,-364"/>
<text text-anchor="middle" x="580" y="-352" font-family="Helvetica,sans-Serif" font-size="10.00">Ogre::InstanceBatchHW</text>
</a>
</g>
</g>
<!-- Node11&#45;&gt;Node15 -->
<g id="edge14_Node000011_Node000015" class="edge">
<title>Node11&#45;&gt;Node15</title>
<g id="a_edge14_Node000011_Node000015"><a xlink:title=" ">
<path fill="none" stroke="#63b8ff" d="M457.89,-354.5C476.09,-354.5 495.78,-354.5 513.88,-354.5"/>
<polygon fill="#63b8ff" stroke="#63b8ff" points="457.66,-351 447.66,-354.5 457.66,-358 457.66,-351"/>
</a>
</g>
</g>
<!-- Node16 -->
<g id="Node000016" class="node">
<title>Node16</title>
<g id="a_Node000016"><a xlink:href="class_ogre_1_1_instance_batch_shader.html" target="_top" xlink:title="This is the same technique the old InstancedGeometry implementation used (with improvements).">
<polygon fill="white" stroke="#666666" points="654.5,-327 505.5,-327 505.5,-308 654.5,-308 654.5,-327"/>
<text text-anchor="middle" x="580" y="-315" font-family="Helvetica,sans-Serif" font-size="10.00">Ogre::InstanceBatchShader</text>
</a>
</g>
</g>
<!-- Node11&#45;&gt;Node16 -->
<g id="edge15_Node000011_Node000016" class="edge">
<title>Node11&#45;&gt;Node16</title>
<g id="a_edge15_Node000011_Node000016"><a xlink:title=" ">
<path fill="none" stroke="#63b8ff" d="M449.51,-342.98C475.5,-337.87 505.72,-331.92 530.42,-327.06"/>
<polygon fill="#63b8ff" stroke="#63b8ff" points="448.55,-339.61 439.41,-344.97 449.9,-346.47 448.55,-339.61"/>
</a>
</g>
</g>
<!-- Node13 -->
<g id="Node000013" class="node">
<title>Node13</title>
<g id="a_Node000013"><a xlink:href="class_ogre_1_1_instance_batch_h_w___v_t_f.html" target="_top" xlink:title="Instancing implementation using vertex texture through Vertex Texture Fetch (VTF) and hardware instan...">
<polygon fill="white" stroke="#666666" points="851,-401 695,-401 695,-382 851,-382 851,-401"/>
<text text-anchor="middle" x="773" y="-389" font-family="Helvetica,sans-Serif" font-size="10.00">Ogre::InstanceBatchHW_VTF</text>
</a>
</g>
</g>
<!-- Node12&#45;&gt;Node13 -->
<g id="edge12_Node000012_Node000013" class="edge">
<title>Node12&#45;&gt;Node13</title>
<g id="a_edge12_Node000012_Node000013"><a xlink:title=" ">
<path fill="none" stroke="#63b8ff" d="M669.5,-391.5C677.95,-391.5 686.48,-391.5 694.81,-391.5"/>
<polygon fill="#63b8ff" stroke="#63b8ff" points="669.24,-388 659.24,-391.5 669.24,-395 669.24,-388"/>
</a>
</g>
</g>
<!-- Node14 -->
<g id="Node000014" class="node">
<title>Node14</title>
<g id="a_Node000014"><a xlink:href="class_ogre_1_1_instance_batch_v_t_f.html" target="_top" xlink:title=" ">
<polygon fill="white" stroke="#666666" points="840,-364 706,-364 706,-345 840,-345 840,-364"/>
<text text-anchor="middle" x="773" y="-352" font-family="Helvetica,sans-Serif" font-size="10.00">Ogre::InstanceBatchVTF</text>
</a>
</g>
</g>
<!-- Node12&#45;&gt;Node14 -->
<g id="edge13_Node000012_Node000014" class="edge">
<title>Node12&#45;&gt;Node14</title>
<g id="a_edge13_Node000012_Node000014"><a xlink:title=" ">
<path fill="none" stroke="#63b8ff" d="M640.1,-380.05C666.57,-374.92 697.43,-368.94 722.65,-364.06"/>
<polygon fill="#63b8ff" stroke="#63b8ff" points="639.34,-376.63 630.19,-381.97 640.67,-383.51 639.34,-376.63"/>
</a>
</g>
</g>
<!-- Node19 -->
<g id="Node000019" class="node">
<title>Node19</title>
<g id="a_Node000019"><a xlink:href="class_ogre_1_1_p_c_z_light.html" target="_top" xlink:title="Specialized version of Ogre::Light which caches which zones the light affects.">
<polygon fill="white" stroke="#666666" points="624.5,-290 535.5,-290 535.5,-271 624.5,-271 624.5,-290"/>
<text text-anchor="middle" x="580" y="-278" font-family="Helvetica,sans-Serif" font-size="10.00">Ogre::PCZLight</text>
</a>
</g>
</g>
<!-- Node18&#45;&gt;Node19 -->
<g id="edge18_Node000018_Node000019" class="edge">
<title>Node18&#45;&gt;Node19</title>
<g id="a_edge18_Node000018_Node000019"><a xlink:title=" ">
<path fill="none" stroke="#63b8ff" d="M435.28,-280.5C465.45,-280.5 505.22,-280.5 535.27,-280.5"/>
<polygon fill="#63b8ff" stroke="#63b8ff" points="435.05,-277 425.05,-280.5 435.05,-284 435.05,-277"/>
</a>
</g>
</g>
<!-- Node24 -->
<g id="Node000024" class="node">
<title>Node24</title>
<g id="a_Node000024"><a xlink:href="class_ogre_1_1_anti_portal.html" target="_top" xlink:title="AntiPortal datastructure for occlusion culling.">
<polygon fill="white" stroke="#666666" points="627,-179 533,-179 533,-160 627,-160 627,-179"/>
<text text-anchor="middle" x="580" y="-167" font-family="Helvetica,sans-Serif" font-size="10.00">Ogre::AntiPortal</text>
</a>
</g>
</g>
<!-- Node23&#45;&gt;Node24 -->
<g id="edge23_Node000023_Node000024" class="edge">
<title>Node23&#45;&gt;Node24</title>
<g id="a_edge23_Node000023_Node000024"><a xlink:title=" ">
<path fill="none" stroke="#63b8ff" d="M449.44,-144C476.24,-149.28 507.56,-155.44 532.69,-160.39"/>
<polygon fill="#63b8ff" stroke="#63b8ff" points="449.9,-140.53 439.41,-142.03 448.55,-147.39 449.9,-140.53"/>
</a>
</g>
</g>
<!-- Node25 -->
<g id="Node000025" class="node">
<title>Node25</title>
<g id="a_Node000025"><a xlink:href="class_ogre_1_1_portal.html" target="_top" xlink:title="Portal datastructure for connecting zones.">
<polygon fill="white" stroke="#666666" points="617,-142 543,-142 543,-123 617,-123 617,-142"/>
<text text-anchor="middle" x="580" y="-130" font-family="Helvetica,sans-Serif" font-size="10.00">Ogre::Portal</text>
</a>
</g>
</g>
<!-- Node23&#45;&gt;Node25 -->
<g id="edge24_Node000023_Node000025" class="edge">
<title>Node23&#45;&gt;Node25</title>
<g id="a_edge24_Node000023_Node000025"><a xlink:title=" ">
<path fill="none" stroke="#63b8ff" d="M449.53,-132.5C480.09,-132.5 516.51,-132.5 542.92,-132.5"/>
<polygon fill="#63b8ff" stroke="#63b8ff" points="449.41,-129 439.41,-132.5 449.41,-136 449.41,-129"/>
</a>
</g>
</g>
<!-- Node27 -->
<g id="Node000027" class="node">
<title>Node27</title>
<g id="a_Node000027"><a xlink:href="class_ogre_1_1_rectangle2_d.html" target="_top" xlink:title="Allows the rendering of a simple 2D rectangle This class renders a simple 2D rectangle; this rectangl...">
<polygon fill="white" stroke="#666666" points="634,-105 526,-105 526,-86 634,-86 634,-105"/>
<text text-anchor="middle" x="580" y="-93" font-family="Helvetica,sans-Serif" font-size="10.00">Ogre::Rectangle2D</text>
</a>
</g>
</g>
<!-- Node26&#45;&gt;Node27 -->
<g id="edge26_Node000026_Node000027" class="edge">
<title>Node26&#45;&gt;Node27</title>
<g id="a_edge26_Node000026_Node000027"><a xlink:title=" ">
<path fill="none" stroke="#63b8ff" d="M467.65,-95.5C487.19,-95.5 507.76,-95.5 525.84,-95.5"/>
<polygon fill="#63b8ff" stroke="#63b8ff" points="467.55,-92 457.55,-95.5 467.55,-99 467.55,-92"/>
</a>
</g>
</g>
<!-- Node28 -->
<g id="Node000028" class="node">
<title>Node28</title>
<g id="a_Node000028"><a xlink:href="class_ogre_1_1_volume_1_1_chunk.html" target="_top" xlink:title="A single volume chunk mesh.">
<polygon fill="white" stroke="#666666" points="640,-68 520,-68 520,-49 640,-49 640,-68"/>
<text text-anchor="middle" x="580" y="-56" font-family="Helvetica,sans-Serif" font-size="10.00">Ogre::Volume::Chunk</text>
</a>
</g>
</g>
<!-- Node26&#45;&gt;Node28 -->
<g id="edge27_Node000026_Node000028" class="edge">
<title>Node26&#45;&gt;Node28</title>
<g id="a_edge27_Node000026_Node000028"><a xlink:title=" ">
<path fill="none" stroke="#63b8ff" d="M449.51,-83.98C475.5,-78.87 505.72,-72.92 530.42,-68.06"/>
<polygon fill="#63b8ff" stroke="#63b8ff" points="448.55,-80.61 439.41,-85.97 449.9,-87.47 448.55,-80.61"/>
</a>
</g>
</g>
<!-- Node29 -->
<g id="Node000029" class="node">
<title>Node29</title>
<g id="a_Node000029"><a xlink:href="class_ogre_1_1_wire_bounding_box.html" target="_top" xlink:title="Allows the rendering of a wireframe bounding box.">
<polygon fill="white" stroke="#666666" points="646.5,-31 513.5,-31 513.5,-12 646.5,-12 646.5,-31"/>
<text text-anchor="middle" x="580" y="-19" font-family="Helvetica,sans-Serif" font-size="10.00">Ogre::WireBoundingBox</text>
</a>
</g>
</g>
<!-- Node26&#45;&gt;Node29 -->
<g id="edge28_Node000026_Node000029" class="edge">
<title>Node26&#45;&gt;Node29</title>
<g id="a_edge28_Node000026_Node000029"><a xlink:title=" ">
<path fill="none" stroke="#63b8ff" d="M452.81,-82.44C457.04,-80.7 461.15,-78.73 465,-76.5 484.85,-65 481.01,-50.76 501,-39.5 507.05,-36.09 513.72,-33.33 520.53,-31.08"/>
<polygon fill="#63b8ff" stroke="#63b8ff" points="451.56,-79.17 443.38,-85.91 453.97,-85.74 451.56,-79.17"/>
</a>
</g>
</g>
</g>
</svg>
