<?xml version="1.0" encoding="UTF-8" standalone="no"?>
<!DOCTYPE svg PUBLIC "-//W3C//DTD SVG 1.1//EN"
 "http://www.w3.org/Graphics/SVG/1.1/DTD/svg11.dtd">
<!-- Generated by graphviz version 2.43.0 (0)
 -->
<!-- Title: Ogre::DefaultDebugDrawer Pages: 1 -->
<svg width="157pt" height="148pt"
 viewBox="0.00 0.00 157.00 148.00" xmlns="http://www.w3.org/2000/svg" xmlns:xlink="http://www.w3.org/1999/xlink">
<g id="graph0" class="graph" transform="scale(1 1) rotate(0) translate(4 144)">
<title>Ogre::DefaultDebugDrawer</title>
<!-- Node1 -->
<g id="Node000001" class="node">
<title>Node1</title>
<g id="a_Node000001"><a xlink:title=" ">
<polygon fill="#999999" stroke="#666666" points="149,-19 0,-19 0,0 149,0 149,-19"/>
<text text-anchor="middle" x="74.5" y="-7" font-family="Helvetica,sans-Serif" font-size="10.00">Ogre::DefaultDebugDrawer</text>
</a>
</g>
</g>
<!-- Node2 -->
<g id="Node000002" class="node">
<title>Node2</title>
<g id="a_Node000002"><a xlink:href="class_ogre_1_1_debug_drawer.html" target="_top" xlink:title="Interface for visualising debugging the SceneManager state.">
<polygon fill="white" stroke="#666666" points="131,-74 18,-74 18,-55 131,-55 131,-74"/>
<text text-anchor="middle" x="74.5" y="-62" font-family="Helvetica,sans-Serif" font-size="10.00">Ogre::DebugDrawer</text>
</a>
</g>
</g>
<!-- Node2&#45;&gt;Node1 -->
<g id="edge1_Node000001_Node000002" class="edge">
<title>Node2&#45;&gt;Node1</title>
<g id="a_edge1_Node000001_Node000002"><a xlink:title=" ">
<path fill="none" stroke="#63b8ff" d="M74.5,-44.66C74.5,-35.93 74.5,-25.99 74.5,-19.09"/>
<polygon fill="#63b8ff" stroke="#63b8ff" points="71,-44.75 74.5,-54.75 78,-44.75 71,-44.75"/>
</a>
</g>
</g>
<!-- Node3 -->
<g id="Node000003" class="node">
<title>Node3</title>
<g id="a_Node000003"><a xlink:href="class_ogre_1_1_scene_manager_1_1_listener.html" target="_top" xlink:title="Class that allows listening in on the various stages of SceneManager processing, so that custom behav...">
<polygon fill="white" stroke="#666666" points="133.5,-140 15.5,-140 15.5,-110 133.5,-110 133.5,-140"/>
<text text-anchor="start" x="23.5" y="-128" font-family="Helvetica,sans-Serif" font-size="10.00">Ogre::SceneManager</text>
<text text-anchor="middle" x="74.5" y="-117" font-family="Helvetica,sans-Serif" font-size="10.00">::Listener</text>
</a>
</g>
</g>
<!-- Node3&#45;&gt;Node2 -->
<g id="edge2_Node000002_Node000003" class="edge">
<title>Node3&#45;&gt;Node2</title>
<g id="a_edge2_Node000002_Node000003"><a xlink:title=" ">
<path fill="none" stroke="#63b8ff" d="M74.5,-99.75C74.5,-90.72 74.5,-81.03 74.5,-74.27"/>
<polygon fill="#63b8ff" stroke="#63b8ff" points="71,-99.84 74.5,-109.84 78,-99.84 71,-99.84"/>
</a>
</g>
</g>
</g>
</svg>
