<?xml version="1.0" encoding="UTF-8" standalone="no"?>
<!DOCTYPE svg PUBLIC "-//W3C//DTD SVG 1.1//EN"
 "http://www.w3.org/Graphics/SVG/1.1/DTD/svg11.dtd">
<!-- Generated by graphviz version 2.43.0 (0)
 -->
<!-- Title: Ogre::OverlayContainer Pages: 1 -->
<svg width="343pt" height="258pt"
 viewBox="0.00 0.00 342.50 258.00" xmlns="http://www.w3.org/2000/svg" xmlns:xlink="http://www.w3.org/1999/xlink">
<g id="graph0" class="graph" transform="scale(1 1) rotate(0) translate(4 254)">
<title>Ogre::OverlayContainer</title>
<!-- Node1 -->
<g id="Node000001" class="node">
<title>Node1</title>
<g id="a_Node000001"><a xlink:title="A 2D element which contains other OverlayElement instances.">
<polygon fill="#999999" stroke="#666666" points="252.5,-140 121.5,-140 121.5,-121 252.5,-121 252.5,-140"/>
<text text-anchor="middle" x="187" y="-128" font-family="Helvetica,sans-Serif" font-size="10.00">Ogre::OverlayContainer</text>
</a>
</g>
</g>
<!-- Node6 -->
<g id="Node000006" class="node">
<title>Node6</title>
<g id="a_Node000006"><a xlink:href="class_ogre_1_1_panel_overlay_element.html" target="_top" xlink:title="OverlayElement representing a flat, single&#45;material (or transparent) panel which can contain other el...">
<polygon fill="white" stroke="#666666" points="263,-85 111,-85 111,-66 263,-66 263,-85"/>
<text text-anchor="middle" x="187" y="-73" font-family="Helvetica,sans-Serif" font-size="10.00">Ogre::PanelOverlayElement</text>
</a>
</g>
</g>
<!-- Node1&#45;&gt;Node6 -->
<g id="edge5_Node000001_Node000006" class="edge">
<title>Node1&#45;&gt;Node6</title>
<g id="a_edge5_Node000001_Node000006"><a xlink:title=" ">
<path fill="none" stroke="#63b8ff" d="M187,-110.66C187,-101.93 187,-91.99 187,-85.09"/>
<polygon fill="#63b8ff" stroke="#63b8ff" points="183.5,-110.75 187,-120.75 190.5,-110.75 183.5,-110.75"/>
</a>
</g>
</g>
<!-- Node2 -->
<g id="Node000002" class="node">
<title>Node2</title>
<g id="a_Node000002"><a xlink:href="class_ogre_1_1_overlay_element.html" target="_top" xlink:title="Abstract definition of a 2D element to be displayed in an Overlay.">
<polygon fill="white" stroke="#666666" points="249.5,-195 124.5,-195 124.5,-176 249.5,-176 249.5,-195"/>
<text text-anchor="middle" x="187" y="-183" font-family="Helvetica,sans-Serif" font-size="10.00">Ogre::OverlayElement</text>
</a>
</g>
</g>
<!-- Node2&#45;&gt;Node1 -->
<g id="edge1_Node000001_Node000002" class="edge">
<title>Node2&#45;&gt;Node1</title>
<g id="a_edge1_Node000001_Node000002"><a xlink:title=" ">
<path fill="none" stroke="#63b8ff" d="M187,-165.66C187,-156.93 187,-146.99 187,-140.09"/>
<polygon fill="#63b8ff" stroke="#63b8ff" points="183.5,-165.75 187,-175.75 190.5,-165.75 183.5,-165.75"/>
</a>
</g>
</g>
<!-- Node3 -->
<g id="Node000003" class="node">
<title>Node3</title>
<g id="a_Node000003"><a xlink:href="class_ogre_1_1_string_interface.html" target="_top" xlink:title="Class defining the common interface which classes can use to present a reflection&#45;style,...">
<polygon fill="white" stroke="#666666" points="118,-250 0,-250 0,-231 118,-231 118,-250"/>
<text text-anchor="middle" x="59" y="-238" font-family="Helvetica,sans-Serif" font-size="10.00">Ogre::StringInterface</text>
</a>
</g>
</g>
<!-- Node3&#45;&gt;Node2 -->
<g id="edge2_Node000002_Node000003" class="edge">
<title>Node3&#45;&gt;Node2</title>
<g id="a_edge2_Node000002_Node000003"><a xlink:title=" ">
<path fill="none" stroke="#63b8ff" d="M89.12,-227.03C112.79,-217.23 145.15,-203.83 166.06,-195.17"/>
<polygon fill="#63b8ff" stroke="#63b8ff" points="87.47,-223.93 79.57,-230.98 90.14,-230.39 87.47,-223.93"/>
</a>
</g>
</g>
<!-- Node4 -->
<g id="Node000004" class="node">
<title>Node4</title>
<g id="a_Node000004"><a xlink:href="class_ogre_1_1_renderable.html" target="_top" xlink:title="Abstract class defining the interface all renderable objects must implement.">
<polygon fill="white" stroke="#666666" points="237.5,-250 136.5,-250 136.5,-231 237.5,-231 237.5,-250"/>
<text text-anchor="middle" x="187" y="-238" font-family="Helvetica,sans-Serif" font-size="10.00">Ogre::Renderable</text>
</a>
</g>
</g>
<!-- Node4&#45;&gt;Node2 -->
<g id="edge3_Node000002_Node000004" class="edge">
<title>Node4&#45;&gt;Node2</title>
<g id="a_edge3_Node000002_Node000004"><a xlink:title=" ">
<path fill="none" stroke="#63b8ff" d="M187,-220.66C187,-211.93 187,-201.99 187,-195.09"/>
<polygon fill="#63b8ff" stroke="#63b8ff" points="183.5,-220.75 187,-230.75 190.5,-220.75 183.5,-220.75"/>
</a>
</g>
</g>
<!-- Node5 -->
<g id="Node000005" class="node">
<title>Node5</title>
<g id="a_Node000005"><a xlink:title=" ">
<polygon fill="white" stroke="#666666" points="334.5,-250 255.5,-250 255.5,-231 334.5,-231 334.5,-250"/>
<text text-anchor="middle" x="295" y="-238" font-family="Helvetica,sans-Serif" font-size="10.00">OverlayAlloc</text>
</a>
</g>
</g>
<!-- Node5&#45;&gt;Node2 -->
<g id="edge4_Node000002_Node000005" class="edge">
<title>Node5&#45;&gt;Node2</title>
<g id="a_edge4_Node000002_Node000005"><a xlink:title=" ">
<path fill="none" stroke="#63b8ff" d="M268.51,-226.5C248.64,-216.75 222,-203.68 204.67,-195.17"/>
<polygon fill="#63b8ff" stroke="#63b8ff" points="267.13,-229.72 277.65,-230.98 270.21,-223.44 267.13,-229.72"/>
</a>
</g>
</g>
<!-- Node7 -->
<g id="Node000007" class="node">
<title>Node7</title>
<g id="a_Node000007"><a xlink:href="class_ogre_1_1_border_panel_overlay_element.html" target="_top" xlink:title="A specialisation of the PanelOverlayElement to provide a panel with a border.">
<polygon fill="white" stroke="#666666" points="258.5,-30 115.5,-30 115.5,0 258.5,0 258.5,-30"/>
<text text-anchor="start" x="123.5" y="-18" font-family="Helvetica,sans-Serif" font-size="10.00">Ogre::BorderPanelOverlay</text>
<text text-anchor="middle" x="187" y="-7" font-family="Helvetica,sans-Serif" font-size="10.00">Element</text>
</a>
</g>
</g>
<!-- Node6&#45;&gt;Node7 -->
<g id="edge6_Node000006_Node000007" class="edge">
<title>Node6&#45;&gt;Node7</title>
<g id="a_edge6_Node000006_Node000007"><a xlink:title=" ">
<path fill="none" stroke="#63b8ff" d="M187,-55.65C187,-47.36 187,-37.78 187,-30.11"/>
<polygon fill="#63b8ff" stroke="#63b8ff" points="183.5,-55.87 187,-65.87 190.5,-55.87 183.5,-55.87"/>
</a>
</g>
</g>
</g>
</svg>
