<?xml version="1.0" encoding="UTF-8" standalone="no"?>
<!DOCTYPE svg PUBLIC "-//W3C//DTD SVG 1.1//EN"
 "http://www.w3.org/Graphics/SVG/1.1/DTD/svg11.dtd">
<!-- Generated by graphviz version 2.43.0 (0)
 -->
<!-- Title: Ogre::SkeletonManager Pages: 1 -->
<svg width="349pt" height="148pt"
 viewBox="0.00 0.00 349.00 148.00" xmlns="http://www.w3.org/2000/svg" xmlns:xlink="http://www.w3.org/1999/xlink">
<g id="graph0" class="graph" transform="scale(1 1) rotate(0) translate(4 144)">
<title>Ogre::SkeletonManager</title>
<!-- Node1 -->
<g id="Node000001" class="node">
<title>Node1</title>
<g id="a_Node000001"><a xlink:title="Handles the management of skeleton resources.">
<polygon fill="#999999" stroke="#666666" points="255,-19 124,-19 124,0 255,0 255,-19"/>
<text text-anchor="middle" x="189.5" y="-7" font-family="Helvetica,sans-Serif" font-size="10.00">Ogre::SkeletonManager</text>
</a>
</g>
</g>
<!-- Node2 -->
<g id="Node000002" class="node">
<title>Node2</title>
<g id="a_Node000002"><a xlink:href="class_ogre_1_1_resource_manager.html" target="_top" xlink:title="Defines a generic resource handler.">
<polygon fill="white" stroke="#666666" points="177.5,-79.5 43.5,-79.5 43.5,-60.5 177.5,-60.5 177.5,-79.5"/>
<text text-anchor="middle" x="110.5" y="-67.5" font-family="Helvetica,sans-Serif" font-size="10.00">Ogre::ResourceManager</text>
</a>
</g>
</g>
<!-- Node2&#45;&gt;Node1 -->
<g id="edge1_Node000001_Node000002" class="edge">
<title>Node2&#45;&gt;Node1</title>
<g id="a_edge1_Node000001_Node000002"><a xlink:title=" ">
<path fill="none" stroke="#63b8ff" d="M130.29,-54.35C145.25,-43.27 165.29,-28.43 177.8,-19.17"/>
<polygon fill="#63b8ff" stroke="#63b8ff" points="128.11,-51.6 122.16,-60.37 132.28,-57.23 128.11,-51.6"/>
</a>
</g>
</g>
<!-- Node3 -->
<g id="Node000003" class="node">
<title>Node3</title>
<g id="a_Node000003"><a xlink:href="class_ogre_1_1_script_loader.html" target="_top" xlink:title="Abstract class defining the interface used by classes which wish to perform script loading to define ...">
<polygon fill="white" stroke="#666666" points="107,-140 0,-140 0,-121 107,-121 107,-140"/>
<text text-anchor="middle" x="53.5" y="-128" font-family="Helvetica,sans-Serif" font-size="10.00">Ogre::ScriptLoader</text>
</a>
</g>
</g>
<!-- Node3&#45;&gt;Node2 -->
<g id="edge2_Node000002_Node000003" class="edge">
<title>Node3&#45;&gt;Node2</title>
<g id="a_edge2_Node000002_Node000003"><a xlink:title=" ">
<path fill="none" stroke="#63b8ff" d="M69,-113.59C79.65,-102.67 93.37,-88.58 102.05,-79.67"/>
<polygon fill="#63b8ff" stroke="#63b8ff" points="66.38,-111.26 61.91,-120.87 71.4,-116.15 66.38,-111.26"/>
</a>
</g>
</g>
<!-- Node4 -->
<g id="Node000004" class="node">
<title>Node4</title>
<g id="a_Node000004"><a xlink:title=" ">
<polygon fill="white" stroke="#666666" points="211.5,-140 125.5,-140 125.5,-121 211.5,-121 211.5,-140"/>
<text text-anchor="middle" x="168.5" y="-128" font-family="Helvetica,sans-Serif" font-size="10.00">ResourceAlloc</text>
</a>
</g>
</g>
<!-- Node4&#45;&gt;Node2 -->
<g id="edge3_Node000002_Node000004" class="edge">
<title>Node4&#45;&gt;Node2</title>
<g id="a_edge3_Node000002_Node000004"><a xlink:title=" ">
<path fill="none" stroke="#63b8ff" d="M152.73,-113.59C141.9,-102.67 127.93,-88.58 119.09,-79.67"/>
<polygon fill="#63b8ff" stroke="#63b8ff" points="150.42,-116.23 159.94,-120.87 155.39,-111.3 150.42,-116.23"/>
</a>
</g>
</g>
<!-- Node5 -->
<g id="Node000005" class="node">
<title>Node5</title>
<g id="a_Node000005"><a xlink:href="class_ogre_1_1_singleton.html" target="_top" xlink:title=" ">
<polygon fill="white" stroke="#666666" points="341,-85 196,-85 196,-55 341,-55 341,-85"/>
<text text-anchor="start" x="204" y="-73" font-family="Helvetica,sans-Serif" font-size="10.00">Ogre::Singleton&lt; Skeleton</text>
<text text-anchor="middle" x="268.5" y="-62" font-family="Helvetica,sans-Serif" font-size="10.00">Manager &gt;</text>
</a>
</g>
</g>
<!-- Node5&#45;&gt;Node1 -->
<g id="edge4_Node000001_Node000005" class="edge">
<title>Node5&#45;&gt;Node1</title>
<g id="a_edge4_Node000001_Node000005"><a xlink:title=" ">
<path fill="none" stroke="#63b8ff" d="M241.24,-48.82C227.63,-38.73 211.85,-27.05 201.34,-19.27"/>
<polygon fill="#63b8ff" stroke="#63b8ff" points="239.26,-51.7 249.38,-54.84 243.42,-46.07 239.26,-51.7"/>
</a>
</g>
</g>
</g>
</svg>
