<?xml version="1.0" encoding="UTF-8" standalone="no"?>
<!DOCTYPE svg PUBLIC "-//W3C//DTD SVG 1.1//EN"
 "http://www.w3.org/Graphics/SVG/1.1/DTD/svg11.dtd">
<!-- Generated by graphviz version 2.43.0 (0)
 -->
<!-- Title: Ogre::PCZone Pages: 1 -->
<svg width="236pt" height="137pt"
 viewBox="0.00 0.00 236.00 137.00" xmlns="http://www.w3.org/2000/svg" xmlns:xlink="http://www.w3.org/1999/xlink">
<g id="graph0" class="graph" transform="scale(1 1) rotate(0) translate(4 133)">
<title>Ogre::PCZone</title>
<!-- Node1 -->
<g id="Node000001" class="node">
<title>Node1</title>
<g id="a_Node000001"><a xlink:title="Portal&#45;Connected Zone datastructure for managing scene nodes.">
<polygon fill="#999999" stroke="#666666" points="156,-74 73,-74 73,-55 156,-55 156,-74"/>
<text text-anchor="middle" x="114.5" y="-62" font-family="Helvetica,sans-Serif" font-size="10.00">Ogre::PCZone</text>
</a>
</g>
</g>
<!-- Node3 -->
<g id="Node000003" class="node">
<title>Node3</title>
<g id="a_Node000003"><a xlink:href="class_ogre_1_1_default_zone.html" target="_top" xlink:title=" ">
<polygon fill="white" stroke="#666666" points="107,-19 0,-19 0,0 107,0 107,-19"/>
<text text-anchor="middle" x="53.5" y="-7" font-family="Helvetica,sans-Serif" font-size="10.00">Ogre::DefaultZone</text>
</a>
</g>
</g>
<!-- Node1&#45;&gt;Node3 -->
<g id="edge2_Node000001_Node000003" class="edge">
<title>Node1&#45;&gt;Node3</title>
<g id="a_edge2_Node000001_Node000003"><a xlink:title=" ">
<path fill="none" stroke="#63b8ff" d="M97.03,-48.32C86.16,-38.87 72.56,-27.06 63.48,-19.17"/>
<polygon fill="#63b8ff" stroke="#63b8ff" points="94.85,-51.07 104.7,-54.98 99.45,-45.78 94.85,-51.07"/>
</a>
</g>
</g>
<!-- Node4 -->
<g id="Node000004" class="node">
<title>Node4</title>
<g id="a_Node000004"><a xlink:href="class_ogre_1_1_octree_zone.html" target="_top" xlink:title=" ">
<polygon fill="white" stroke="#666666" points="228,-19 125,-19 125,0 228,0 228,-19"/>
<text text-anchor="middle" x="176.5" y="-7" font-family="Helvetica,sans-Serif" font-size="10.00">Ogre::OctreeZone</text>
</a>
</g>
</g>
<!-- Node1&#45;&gt;Node4 -->
<g id="edge3_Node000001_Node000004" class="edge">
<title>Node1&#45;&gt;Node4</title>
<g id="a_edge3_Node000001_Node000004"><a xlink:title=" ">
<path fill="none" stroke="#63b8ff" d="M132.25,-48.32C143.31,-38.87 157.13,-27.06 166.36,-19.17"/>
<polygon fill="#63b8ff" stroke="#63b8ff" points="129.79,-45.83 124.46,-54.98 134.34,-51.15 129.79,-45.83"/>
</a>
</g>
</g>
<!-- Node2 -->
<g id="Node000002" class="node">
<title>Node2</title>
<g id="a_Node000002"><a xlink:title=" ">
<polygon fill="white" stroke="#666666" points="183,-129 46,-129 46,-110 183,-110 183,-129"/>
<text text-anchor="middle" x="114.5" y="-117" font-family="Helvetica,sans-Serif" font-size="10.00">SceneCtlAllocatedObject</text>
</a>
</g>
</g>
<!-- Node2&#45;&gt;Node1 -->
<g id="edge1_Node000001_Node000002" class="edge">
<title>Node2&#45;&gt;Node1</title>
<g id="a_edge1_Node000001_Node000002"><a xlink:title=" ">
<path fill="none" stroke="#63b8ff" d="M114.5,-99.66C114.5,-90.93 114.5,-80.99 114.5,-74.09"/>
<polygon fill="#63b8ff" stroke="#63b8ff" points="111,-99.75 114.5,-109.75 118,-99.75 111,-99.75"/>
</a>
</g>
</g>
</g>
</svg>
