<?xml version="1.0" encoding="UTF-8" standalone="no"?>
<!DOCTYPE svg PUBLIC "-//W3C//DTD SVG 1.1//EN"
 "http://www.w3.org/Graphics/SVG/1.1/DTD/svg11.dtd">
<!-- Generated by graphviz version 2.43.0 (0)
 -->
<!-- Title: Ogre::AbstractNode Pages: 1 -->
<svg width="485pt" height="175pt"
 viewBox="0.00 0.00 485.00 175.00" xmlns="http://www.w3.org/2000/svg" xmlns:xlink="http://www.w3.org/1999/xlink">
<g id="graph0" class="graph" transform="scale(1 1) rotate(0) translate(4 171)">
<title>Ogre::AbstractNode</title>
<!-- Node1 -->
<g id="Node000001" class="node">
<title>Node1</title>
<g id="a_Node000001"><a xlink:title=" ">
<polygon fill="#999999" stroke="#666666" points="255,-93 143,-93 143,-74 255,-74 255,-93"/>
<text text-anchor="middle" x="199" y="-81" font-family="Helvetica,sans-Serif" font-size="10.00">Ogre::AbstractNode</text>
</a>
</g>
</g>
<!-- Node3 -->
<g id="Node000003" class="node">
<title>Node3</title>
<g id="a_Node000003"><a xlink:href="class_ogre_1_1_atom_abstract_node.html" target="_top" xlink:title="This is an abstract node which cannot be broken down further.">
<polygon fill="white" stroke="#666666" points="453,-167 315,-167 315,-148 453,-148 453,-167"/>
<text text-anchor="middle" x="384" y="-155" font-family="Helvetica,sans-Serif" font-size="10.00">Ogre::AtomAbstractNode</text>
</a>
</g>
</g>
<!-- Node1&#45;&gt;Node3 -->
<g id="edge2_Node000001_Node000003" class="edge">
<title>Node1&#45;&gt;Node3</title>
<g id="a_edge2_Node000001_Node000003"><a xlink:title=" ">
<path fill="none" stroke="#63b8ff" d="M220.6,-99.18C238.34,-111.92 265.1,-129.38 291,-139.5 299.64,-142.88 308.99,-145.64 318.32,-147.9"/>
<polygon fill="#63b8ff" stroke="#63b8ff" points="222.33,-96.1 212.2,-93.01 218.19,-101.75 222.33,-96.1"/>
</a>
</g>
</g>
<!-- Node4 -->
<g id="Node000004" class="node">
<title>Node4</title>
<g id="a_Node000004"><a xlink:href="class_ogre_1_1_import_abstract_node.html" target="_top" xlink:title="This abstract node represents an import statement.">
<polygon fill="white" stroke="#666666" points="456,-130 312,-130 312,-111 456,-111 456,-130"/>
<text text-anchor="middle" x="384" y="-118" font-family="Helvetica,sans-Serif" font-size="10.00">Ogre::ImportAbstractNode</text>
</a>
</g>
</g>
<!-- Node1&#45;&gt;Node4 -->
<g id="edge3_Node000001_Node000004" class="edge">
<title>Node1&#45;&gt;Node4</title>
<g id="a_edge3_Node000001_Node000004"><a xlink:title=" ">
<path fill="none" stroke="#63b8ff" d="M255.46,-95.2C267.19,-97.64 279.5,-100.17 291,-102.5 304.88,-105.31 319.95,-108.28 333.8,-110.99"/>
<polygon fill="#63b8ff" stroke="#63b8ff" points="255.84,-91.7 245.34,-93.08 254.41,-98.55 255.84,-91.7"/>
</a>
</g>
</g>
<!-- Node5 -->
<g id="Node000005" class="node">
<title>Node5</title>
<g id="a_Node000005"><a xlink:href="class_ogre_1_1_object_abstract_node.html" target="_top" xlink:title="This specific abstract node represents a script object.">
<polygon fill="white" stroke="#666666" points="455.5,-93 312.5,-93 312.5,-74 455.5,-74 455.5,-93"/>
<text text-anchor="middle" x="384" y="-81" font-family="Helvetica,sans-Serif" font-size="10.00">Ogre::ObjectAbstractNode</text>
</a>
</g>
</g>
<!-- Node1&#45;&gt;Node5 -->
<g id="edge4_Node000001_Node000005" class="edge">
<title>Node1&#45;&gt;Node5</title>
<g id="a_edge4_Node000001_Node000005"><a xlink:title=" ">
<path fill="none" stroke="#63b8ff" d="M265.67,-83.5C280.77,-83.5 296.89,-83.5 312.2,-83.5"/>
<polygon fill="#63b8ff" stroke="#63b8ff" points="265.4,-80 255.4,-83.5 265.4,-87 265.4,-80"/>
</a>
</g>
</g>
<!-- Node6 -->
<g id="Node000006" class="node">
<title>Node6</title>
<g id="a_Node000006"><a xlink:href="class_ogre_1_1_property_abstract_node.html" target="_top" xlink:title="This abstract node represents a script property.">
<polygon fill="white" stroke="#666666" points="460.5,-56 307.5,-56 307.5,-37 460.5,-37 460.5,-56"/>
<text text-anchor="middle" x="384" y="-44" font-family="Helvetica,sans-Serif" font-size="10.00">Ogre::PropertyAbstractNode</text>
</a>
</g>
</g>
<!-- Node1&#45;&gt;Node6 -->
<g id="edge5_Node000001_Node000006" class="edge">
<title>Node1&#45;&gt;Node6</title>
<g id="a_edge5_Node000001_Node000006"><a xlink:title=" ">
<path fill="none" stroke="#63b8ff" d="M255.46,-71.8C267.19,-69.36 279.5,-66.83 291,-64.5 304.88,-61.69 319.95,-58.72 333.8,-56.01"/>
<polygon fill="#63b8ff" stroke="#63b8ff" points="254.41,-68.45 245.34,-73.92 255.84,-75.3 254.41,-68.45"/>
</a>
</g>
</g>
<!-- Node7 -->
<g id="Node000007" class="node">
<title>Node7</title>
<g id="a_Node000007"><a xlink:href="class_ogre_1_1_variable_access_abstract_node.html" target="_top" xlink:title="This abstract node represents a variable assignment.">
<polygon fill="white" stroke="#666666" points="477,-19 291,-19 291,0 477,0 477,-19"/>
<text text-anchor="middle" x="384" y="-7" font-family="Helvetica,sans-Serif" font-size="10.00">Ogre::VariableAccessAbstractNode</text>
</a>
</g>
</g>
<!-- Node1&#45;&gt;Node7 -->
<g id="edge6_Node000001_Node000007" class="edge">
<title>Node1&#45;&gt;Node7</title>
<g id="a_edge6_Node000001_Node000007"><a xlink:title=" ">
<path fill="none" stroke="#63b8ff" d="M220.6,-67.82C238.34,-55.08 265.1,-37.62 291,-27.5 299.64,-24.12 308.99,-21.36 318.32,-19.1"/>
<polygon fill="#63b8ff" stroke="#63b8ff" points="218.19,-65.25 212.2,-73.99 222.33,-70.9 218.19,-65.25"/>
</a>
</g>
</g>
<!-- Node2 -->
<g id="Node000002" class="node">
<title>Node2</title>
<g id="a_Node000002"><a xlink:title=" ">
<polygon fill="white" stroke="#666666" points="107,-93 0,-93 0,-74 107,-74 107,-93"/>
<text text-anchor="middle" x="53.5" y="-81" font-family="Helvetica,sans-Serif" font-size="10.00">AbstractNodeAlloc</text>
</a>
</g>
</g>
<!-- Node2&#45;&gt;Node1 -->
<g id="edge1_Node000001_Node000002" class="edge">
<title>Node2&#45;&gt;Node1</title>
<g id="a_edge1_Node000001_Node000002"><a xlink:title=" ">
<path fill="none" stroke="#63b8ff" d="M117.4,-83.5C125.92,-83.5 134.61,-83.5 142.98,-83.5"/>
<polygon fill="#63b8ff" stroke="#63b8ff" points="117.12,-80 107.12,-83.5 117.12,-87 117.12,-80"/>
</a>
</g>
</g>
</g>
</svg>
