<?xml version="1.0" encoding="UTF-8" standalone="no"?>
<!DOCTYPE svg PUBLIC "-//W3C//DTD SVG 1.1//EN"
 "http://www.w3.org/Graphics/SVG/1.1/DTD/svg11.dtd">
<!-- Generated by graphviz version 2.43.0 (0)
 -->
<!-- Title: Ogre::ExternalTextureSourceManager Pages: 1 -->
<svg width="256pt" height="104pt"
 viewBox="0.00 0.00 255.50 104.00" xmlns="http://www.w3.org/2000/svg" xmlns:xlink="http://www.w3.org/1999/xlink">
<g id="graph0" class="graph" transform="scale(1 1) rotate(0) translate(4 100)">
<title>Ogre::ExternalTextureSourceManager</title>
<!-- Node1 -->
<g id="Node000001" class="node">
<title>Node1</title>
<g id="a_Node000001"><a xlink:title="Singleton Class which handles the registering and control of texture plugins.">
<polygon fill="#999999" stroke="#666666" points="215,-30 60,-30 60,0 215,0 215,-30"/>
<text text-anchor="start" x="68" y="-18" font-family="Helvetica,sans-Serif" font-size="10.00">Ogre::ExternalTextureSource</text>
<text text-anchor="middle" x="137.5" y="-7" font-family="Helvetica,sans-Serif" font-size="10.00">Manager</text>
</a>
</g>
</g>
<!-- Node2 -->
<g id="Node000002" class="node">
<title>Node2</title>
<g id="a_Node000002"><a xlink:href="class_ogre_1_1_singleton.html" target="_top" xlink:title=" ">
<polygon fill="white" stroke="#666666" points="143,-96 0,-96 0,-66 143,-66 143,-96"/>
<text text-anchor="start" x="8" y="-84" font-family="Helvetica,sans-Serif" font-size="10.00">Ogre::Singleton&lt; External</text>
<text text-anchor="middle" x="71.5" y="-73" font-family="Helvetica,sans-Serif" font-size="10.00">TextureSourceManager &gt;</text>
</a>
</g>
</g>
<!-- Node2&#45;&gt;Node1 -->
<g id="edge1_Node000001_Node000002" class="edge">
<title>Node2&#45;&gt;Node1</title>
<g id="a_edge1_Node000001_Node000002"><a xlink:title=" ">
<path fill="none" stroke="#63b8ff" d="M93.52,-58.65C103.19,-49.27 114.27,-38.53 122.89,-30.16"/>
<polygon fill="#63b8ff" stroke="#63b8ff" points="90.89,-56.32 86.15,-65.8 95.76,-61.35 90.89,-56.32"/>
</a>
</g>
</g>
<!-- Node3 -->
<g id="Node000003" class="node">
<title>Node3</title>
<g id="a_Node000003"><a xlink:title=" ">
<polygon fill="white" stroke="#666666" points="247.5,-90.5 161.5,-90.5 161.5,-71.5 247.5,-71.5 247.5,-90.5"/>
<text text-anchor="middle" x="204.5" y="-78.5" font-family="Helvetica,sans-Serif" font-size="10.00">ResourceAlloc</text>
</a>
</g>
</g>
<!-- Node3&#45;&gt;Node1 -->
<g id="edge2_Node000001_Node000003" class="edge">
<title>Node3&#45;&gt;Node1</title>
<g id="a_edge2_Node000001_Node000003"><a xlink:title=" ">
<path fill="none" stroke="#63b8ff" d="M188.18,-64.41C177.22,-53.94 162.9,-40.26 152.28,-30.12"/>
<polygon fill="#63b8ff" stroke="#63b8ff" points="185.82,-66.99 195.46,-71.37 190.65,-61.93 185.82,-66.99"/>
</a>
</g>
</g>
</g>
</svg>
