<?xml version="1.0" encoding="UTF-8" standalone="no"?>
<!DOCTYPE svg PUBLIC "-//W3C//DTD SVG 1.1//EN"
 "http://www.w3.org/Graphics/SVG/1.1/DTD/svg11.dtd">
<!-- Generated by graphviz version 2.43.0 (0)
 -->
<!-- Title: Ogre::SmallVectorTemplateBase&lt; T, isPodLike &gt; Pages: 1 -->
<svg width="672pt" height="134pt"
 viewBox="0.00 0.00 672.00 134.00" xmlns="http://www.w3.org/2000/svg" xmlns:xlink="http://www.w3.org/1999/xlink">
<g id="graph0" class="graph" transform="scale(1 1) rotate(0) translate(4 130)">
<title>Ogre::SmallVectorTemplateBase&lt; T, isPodLike &gt;</title>
<!-- Node1 -->
<g id="Node000001" class="node">
<title>Node1</title>
<g id="a_Node000001"><a xlink:title="SmallVectorTemplateBase&lt;isPodLike = false&gt; &#45; This is where we put method implementations that are des...">
<polygon fill="#999999" stroke="#666666" points="501,-78 351,-78 351,-48 501,-48 501,-78"/>
<text text-anchor="start" x="359" y="-66" font-family="Helvetica,sans-Serif" font-size="10.00">Ogre::SmallVectorTemplate</text>
<text text-anchor="middle" x="426" y="-55" font-family="Helvetica,sans-Serif" font-size="10.00">Base&lt; T, isPodLike &gt;</text>
</a>
</g>
</g>
<!-- Node4 -->
<g id="Node000004" class="node">
<title>Node4</title>
<g id="a_Node000004"><a xlink:href="class_ogre_1_1_small_vector_impl.html" target="_top" xlink:title=" ">
<polygon fill="white" stroke="#666666" points="664,-126 537,-126 537,-96 664,-96 664,-126"/>
<text text-anchor="start" x="545" y="-114" font-family="Helvetica,sans-Serif" font-size="10.00">Ogre::SmallVectorImpl</text>
<text text-anchor="middle" x="600.5" y="-103" font-family="Helvetica,sans-Serif" font-size="10.00">&lt; Edge &gt;</text>
</a>
</g>
</g>
<!-- Node1&#45;&gt;Node4 -->
<g id="edge3_Node000001_Node000004" class="edge">
<title>Node1&#45;&gt;Node4</title>
<g id="a_edge3_Node000001_Node000004"><a xlink:title=" ">
<path fill="none" stroke="#63b8ff" d="M490.93,-80.79C508.9,-85.79 528.26,-91.18 545.59,-96"/>
<polygon fill="#63b8ff" stroke="#63b8ff" points="491.68,-77.36 481.11,-78.06 489.8,-84.11 491.68,-77.36"/>
</a>
</g>
</g>
<!-- Node5 -->
<g id="Node000005" class="node">
<title>Node5</title>
<g id="a_Node000005"><a xlink:href="class_ogre_1_1_small_vector_impl.html" target="_top" xlink:title=" ">
<polygon fill="white" stroke="#666666" points="664,-78 537,-78 537,-48 664,-48 664,-78"/>
<text text-anchor="start" x="545" y="-66" font-family="Helvetica,sans-Serif" font-size="10.00">Ogre::SmallVectorImpl</text>
<text text-anchor="middle" x="600.5" y="-55" font-family="Helvetica,sans-Serif" font-size="10.00">&lt; Line * &gt;</text>
</a>
</g>
</g>
<!-- Node1&#45;&gt;Node5 -->
<g id="edge4_Node000001_Node000005" class="edge">
<title>Node1&#45;&gt;Node5</title>
<g id="a_edge4_Node000001_Node000005"><a xlink:title=" ">
<path fill="none" stroke="#63b8ff" d="M511.23,-63C519.83,-63 528.46,-63 536.78,-63"/>
<polygon fill="#63b8ff" stroke="#63b8ff" points="511.16,-59.5 501.16,-63 511.16,-66.5 511.16,-59.5"/>
</a>
</g>
</g>
<!-- Node6 -->
<g id="Node000006" class="node">
<title>Node6</title>
<g id="a_Node000006"><a xlink:href="class_ogre_1_1_small_vector_impl.html" target="_top" xlink:title=" ">
<polygon fill="white" stroke="#666666" points="664,-30 537,-30 537,0 664,0 664,-30"/>
<text text-anchor="start" x="545" y="-18" font-family="Helvetica,sans-Serif" font-size="10.00">Ogre::SmallVectorImpl</text>
<text text-anchor="middle" x="600.5" y="-7" font-family="Helvetica,sans-Serif" font-size="10.00">&lt; Triangle * &gt;</text>
</a>
</g>
</g>
<!-- Node1&#45;&gt;Node6 -->
<g id="edge5_Node000001_Node000006" class="edge">
<title>Node1&#45;&gt;Node6</title>
<g id="a_edge5_Node000001_Node000006"><a xlink:title=" ">
<path fill="none" stroke="#63b8ff" d="M490.93,-45.21C508.9,-40.21 528.26,-34.82 545.59,-30"/>
<polygon fill="#63b8ff" stroke="#63b8ff" points="489.8,-41.89 481.11,-47.94 491.68,-48.64 489.8,-41.89"/>
</a>
</g>
</g>
<!-- Node2 -->
<g id="Node000002" class="node">
<title>Node2</title>
<g id="a_Node000002"><a xlink:href="class_ogre_1_1_small_vector_template_common.html" target="_top" xlink:title=" ">
<polygon fill="white" stroke="#666666" points="315,-78 165,-78 165,-48 315,-48 315,-78"/>
<text text-anchor="start" x="173" y="-66" font-family="Helvetica,sans-Serif" font-size="10.00">Ogre::SmallVectorTemplate</text>
<text text-anchor="middle" x="240" y="-55" font-family="Helvetica,sans-Serif" font-size="10.00">Common&lt; T &gt;</text>
</a>
</g>
</g>
<!-- Node2&#45;&gt;Node1 -->
<g id="edge1_Node000001_Node000002" class="edge">
<title>Node2&#45;&gt;Node1</title>
<g id="a_edge1_Node000001_Node000002"><a xlink:title=" ">
<path fill="none" stroke="#63b8ff" d="M325.07,-63C333.65,-63 342.34,-63 350.81,-63"/>
<polygon fill="#63b8ff" stroke="#63b8ff" points="325.04,-59.5 315.04,-63 325.04,-66.5 325.04,-59.5"/>
</a>
</g>
</g>
<!-- Node3 -->
<g id="Node000003" class="node">
<title>Node3</title>
<g id="a_Node000003"><a xlink:href="class_ogre_1_1_small_vector_base.html" target="_top" xlink:title="SmallVectorBase &#45; This is all the non&#45;templated stuff common to all SmallVectors.">
<polygon fill="white" stroke="#666666" points="129,-72.5 0,-72.5 0,-53.5 129,-53.5 129,-72.5"/>
<text text-anchor="middle" x="64.5" y="-60.5" font-family="Helvetica,sans-Serif" font-size="10.00">Ogre::SmallVectorBase</text>
</a>
</g>
</g>
<!-- Node3&#45;&gt;Node2 -->
<g id="edge2_Node000002_Node000003" class="edge">
<title>Node3&#45;&gt;Node2</title>
<g id="a_edge2_Node000002_Node000003"><a xlink:title=" ">
<path fill="none" stroke="#63b8ff" d="M139.31,-63C147.75,-63 156.36,-63 164.81,-63"/>
<polygon fill="#63b8ff" stroke="#63b8ff" points="139.12,-59.5 129.12,-63 139.12,-66.5 139.12,-59.5"/>
</a>
</g>
</g>
</g>
</svg>
