<?xml version="1.0" encoding="UTF-8" standalone="no"?>
<!DOCTYPE svg PUBLIC "-//W3C//DTD SVG 1.1//EN"
 "http://www.w3.org/Graphics/SVG/1.1/DTD/svg11.dtd">
<!-- Generated by graphviz version 2.43.0 (0)
 -->
<!-- Title: Ogre::RTShader::FunctionInvocation Pages: 1 -->
<svg width="174pt" height="148pt"
 viewBox="0.00 0.00 174.00 148.00" xmlns="http://www.w3.org/2000/svg" xmlns:xlink="http://www.w3.org/1999/xlink">
<g id="graph0" class="graph" transform="scale(1 1) rotate(0) translate(4 144)">
<title>Ogre::RTShader::FunctionInvocation</title>
<!-- Node1 -->
<g id="Node000001" class="node">
<title>Node1</title>
<g id="a_Node000001"><a xlink:title="A class that represents function invocation code from shader based program function.">
<polygon fill="#999999" stroke="#666666" points="153,-30 13,-30 13,0 153,0 153,-30"/>
<text text-anchor="start" x="21" y="-18" font-family="Helvetica,sans-Serif" font-size="10.00">Ogre::RTShader::Function</text>
<text text-anchor="middle" x="83" y="-7" font-family="Helvetica,sans-Serif" font-size="10.00">Invocation</text>
</a>
</g>
</g>
<!-- Node2 -->
<g id="Node000002" class="node">
<title>Node2</title>
<g id="a_Node000002"><a xlink:href="class_ogre_1_1_r_t_shader_1_1_function_atom.html" target="_top" xlink:title="A class that represents an atomic code section of shader based program function.">
<polygon fill="white" stroke="#666666" points="166,-85 0,-85 0,-66 166,-66 166,-85"/>
<text text-anchor="middle" x="83" y="-73" font-family="Helvetica,sans-Serif" font-size="10.00">Ogre::RTShader::FunctionAtom</text>
</a>
</g>
</g>
<!-- Node2&#45;&gt;Node1 -->
<g id="edge1_Node000001_Node000002" class="edge">
<title>Node2&#45;&gt;Node1</title>
<g id="a_edge1_Node000001_Node000002"><a xlink:title=" ">
<path fill="none" stroke="#63b8ff" d="M83,-55.65C83,-47.36 83,-37.78 83,-30.11"/>
<polygon fill="#63b8ff" stroke="#63b8ff" points="79.5,-55.87 83,-65.87 86.5,-55.87 79.5,-55.87"/>
</a>
</g>
</g>
<!-- Node3 -->
<g id="Node000003" class="node">
<title>Node3</title>
<g id="a_Node000003"><a xlink:title=" ">
<polygon fill="white" stroke="#666666" points="145,-140 21,-140 21,-121 145,-121 145,-140"/>
<text text-anchor="middle" x="83" y="-128" font-family="Helvetica,sans-Serif" font-size="10.00">RTShaderSystemAlloc</text>
</a>
</g>
</g>
<!-- Node3&#45;&gt;Node2 -->
<g id="edge2_Node000002_Node000003" class="edge">
<title>Node3&#45;&gt;Node2</title>
<g id="a_edge2_Node000002_Node000003"><a xlink:title=" ">
<path fill="none" stroke="#63b8ff" d="M83,-110.66C83,-101.93 83,-91.99 83,-85.09"/>
<polygon fill="#63b8ff" stroke="#63b8ff" points="79.5,-110.75 83,-120.75 86.5,-110.75 79.5,-110.75"/>
</a>
</g>
</g>
</g>
</svg>
