<?xml version="1.0" encoding="UTF-8" standalone="no"?>
<!DOCTYPE svg PUBLIC "-//W3C//DTD SVG 1.1//EN"
 "http://www.w3.org/Graphics/SVG/1.1/DTD/svg11.dtd">
<!-- Generated by graphviz version 2.43.0 (0)
 -->
<!-- Title: Ogre::KeyFrame Pages: 1 -->
<svg width="424pt" height="138pt"
 viewBox="0.00 0.00 424.00 138.00" xmlns="http://www.w3.org/2000/svg" xmlns:xlink="http://www.w3.org/1999/xlink">
<g id="graph0" class="graph" transform="scale(1 1) rotate(0) translate(4 134)">
<title>Ogre::KeyFrame</title>
<!-- Node1 -->
<g id="Node000001" class="node">
<title>Node1</title>
<g id="a_Node000001"><a xlink:title="A key frame in an animation sequence defined by an AnimationTrack.">
<polygon fill="#999999" stroke="#666666" points="222,-74 127,-74 127,-55 222,-55 222,-74"/>
<text text-anchor="middle" x="174.5" y="-62" font-family="Helvetica,sans-Serif" font-size="10.00">Ogre::KeyFrame</text>
</a>
</g>
</g>
<!-- Node3 -->
<g id="Node000003" class="node">
<title>Node3</title>
<g id="a_Node000003"><a xlink:href="class_ogre_1_1_numeric_key_frame.html" target="_top" xlink:title="Specialised KeyFrame which stores any numeric value.">
<polygon fill="white" stroke="#666666" points="405,-130 269,-130 269,-111 405,-111 405,-130"/>
<text text-anchor="middle" x="337" y="-118" font-family="Helvetica,sans-Serif" font-size="10.00">Ogre::NumericKeyFrame</text>
</a>
</g>
</g>
<!-- Node1&#45;&gt;Node3 -->
<g id="edge2_Node000001_Node000003" class="edge">
<title>Node1&#45;&gt;Node3</title>
<g id="a_edge2_Node000001_Node000003"><a xlink:title=" ">
<path fill="none" stroke="#63b8ff" d="M202.6,-78.69C218.43,-86.54 238.97,-96 258,-102.5 267.47,-105.74 277.78,-108.57 287.71,-110.98"/>
<polygon fill="#63b8ff" stroke="#63b8ff" points="203.91,-75.44 193.41,-74.05 200.76,-81.68 203.91,-75.44"/>
</a>
</g>
</g>
<!-- Node4 -->
<g id="Node000004" class="node">
<title>Node4</title>
<g id="a_Node000004"><a xlink:href="class_ogre_1_1_transform_key_frame.html" target="_top" xlink:title="Specialised KeyFrame which stores a full transform.">
<polygon fill="white" stroke="#666666" points="409,-93 265,-93 265,-74 409,-74 409,-93"/>
<text text-anchor="middle" x="337" y="-81" font-family="Helvetica,sans-Serif" font-size="10.00">Ogre::TransformKeyFrame</text>
</a>
</g>
</g>
<!-- Node1&#45;&gt;Node4 -->
<g id="edge3_Node000001_Node000004" class="edge">
<title>Node1&#45;&gt;Node4</title>
<g id="a_edge3_Node000001_Node000004"><a xlink:title=" ">
<path fill="none" stroke="#63b8ff" d="M232.6,-71.26C243.06,-72.5 254.1,-73.8 264.92,-75.09"/>
<polygon fill="#63b8ff" stroke="#63b8ff" points="232.7,-67.75 222.35,-70.05 231.87,-74.7 232.7,-67.75"/>
</a>
</g>
</g>
<!-- Node5 -->
<g id="Node000005" class="node">
<title>Node5</title>
<g id="a_Node000005"><a xlink:href="class_ogre_1_1_vertex_morph_key_frame.html" target="_top" xlink:title="Specialised KeyFrame which stores absolute vertex positions for a complete buffer,...">
<polygon fill="white" stroke="#666666" points="416,-56 258,-56 258,-37 416,-37 416,-56"/>
<text text-anchor="middle" x="337" y="-44" font-family="Helvetica,sans-Serif" font-size="10.00">Ogre::VertexMorphKeyFrame</text>
</a>
</g>
</g>
<!-- Node1&#45;&gt;Node5 -->
<g id="edge4_Node000001_Node000005" class="edge">
<title>Node1&#45;&gt;Node5</title>
<g id="a_edge4_Node000001_Node000005"><a xlink:title=" ">
<path fill="none" stroke="#63b8ff" d="M232.3,-58.13C240.63,-57.2 249.32,-56.22 257.98,-55.25"/>
<polygon fill="#63b8ff" stroke="#63b8ff" points="231.9,-54.65 222.35,-59.25 232.68,-61.61 231.9,-54.65"/>
</a>
</g>
</g>
<!-- Node6 -->
<g id="Node000006" class="node">
<title>Node6</title>
<g id="a_Node000006"><a xlink:href="class_ogre_1_1_vertex_pose_key_frame.html" target="_top" xlink:title="Specialised KeyFrame which references a Mesh::Pose at a certain influence level, which stores offsets...">
<polygon fill="white" stroke="#666666" points="412,-19 262,-19 262,0 412,0 412,-19"/>
<text text-anchor="middle" x="337" y="-7" font-family="Helvetica,sans-Serif" font-size="10.00">Ogre::VertexPoseKeyFrame</text>
</a>
</g>
</g>
<!-- Node1&#45;&gt;Node6 -->
<g id="edge5_Node000001_Node000006" class="edge">
<title>Node1&#45;&gt;Node6</title>
<g id="a_edge5_Node000001_Node000006"><a xlink:title=" ">
<path fill="none" stroke="#63b8ff" d="M203.26,-50.42C219.01,-42.84 239.27,-33.79 258,-27.5 267.48,-24.31 277.8,-21.49 287.74,-19.09"/>
<polygon fill="#63b8ff" stroke="#63b8ff" points="201.53,-47.37 194.09,-54.91 204.61,-53.66 201.53,-47.37"/>
</a>
</g>
</g>
<!-- Node2 -->
<g id="Node000002" class="node">
<title>Node2</title>
<g id="a_Node000002"><a xlink:title=" ">
<polygon fill="white" stroke="#666666" points="91,-74 0,-74 0,-55 91,-55 91,-74"/>
<text text-anchor="middle" x="45.5" y="-62" font-family="Helvetica,sans-Serif" font-size="10.00">AnimationAlloc</text>
</a>
</g>
</g>
<!-- Node2&#45;&gt;Node1 -->
<g id="edge1_Node000001_Node000002" class="edge">
<title>Node2&#45;&gt;Node1</title>
<g id="a_edge1_Node000001_Node000002"><a xlink:title=" ">
<path fill="none" stroke="#63b8ff" d="M101.49,-64.5C109.99,-64.5 118.69,-64.5 126.98,-64.5"/>
<polygon fill="#63b8ff" stroke="#63b8ff" points="101.28,-61 91.28,-64.5 101.28,-68 101.28,-61"/>
</a>
</g>
</g>
</g>
</svg>
