<?xml version="1.0" encoding="UTF-8" standalone="no"?>
<!DOCTYPE svg PUBLIC "-//W3C//DTD SVG 1.1//EN"
 "http://www.w3.org/Graphics/SVG/1.1/DTD/svg11.dtd">
<!-- Generated by graphviz version 2.43.0 (0)
 -->
<!-- Title: Graphical Class Hierarchy Pages: 1 -->
<svg width="367pt" height="217pt"
 viewBox="0.00 0.00 367.00 216.50" xmlns="http://www.w3.org/2000/svg" xmlns:xlink="http://www.w3.org/1999/xlink">
<g id="graph0" class="graph" transform="scale(1 1) rotate(0) translate(4 212.5)">
<title>Graphical Class Hierarchy</title>
<!-- Node0 -->
<g id="Node000000" class="node">
<title>Node0</title>
<g id="a_Node000000"><a xlink:href="class_ogre_1_1_resource_group_listener.html" target="_top" xlink:title="This class defines an interface which is called back during resource group loading to indicate the pr...">
<polygon fill="white" stroke="#666666" points="159,-208.5 0,-208.5 0,-189.5 159,-189.5 159,-208.5"/>
<text text-anchor="middle" x="79.5" y="-196.5" font-family="Helvetica,sans-Serif" font-size="10.00">Ogre::ResourceGroupListener</text>
</a>
</g>
</g>
<!-- Node1 -->
<g id="Node000001" class="node">
<title>Node1</title>
<g id="a_Node000001"><a xlink:href="class_ogre_bites_1_1_tray_manager.html" target="_top" xlink:title="Main class to manage a cursor, backdrop, trays and widgets.">
<polygon fill="white" stroke="#666666" points="344,-190.5 210,-190.5 210,-171.5 344,-171.5 344,-190.5"/>
<text text-anchor="middle" x="277" y="-178.5" font-family="Helvetica,sans-Serif" font-size="10.00">OgreBites::TrayManager</text>
</a>
</g>
</g>
<!-- Node0&#45;&gt;Node1 -->
<g id="edge428_Node000000_Node000001" class="edge">
<title>Node0&#45;&gt;Node1</title>
<g id="a_edge428_Node000000_Node000001"><a xlink:title=" ">
<path fill="none" stroke="#63b8ff" d="M169.47,-190.81C183.01,-189.56 196.78,-188.29 209.72,-187.1"/>
<polygon fill="#63b8ff" stroke="#63b8ff" points="168.81,-187.35 159.17,-191.76 169.45,-194.32 168.81,-187.35"/>
</a>
</g>
</g>
<!-- Node2 -->
<g id="Node000002" class="node">
<title>Node2</title>
<g id="a_Node000002"><a xlink:href="struct_ogre_bites_1_1_input_listener.html" target="_top" xlink:title="the return values of the callbacks are ignored by ApplicationContext however they can be used to cont...">
<polygon fill="white" stroke="#666666" points="146.5,-104.5 12.5,-104.5 12.5,-85.5 146.5,-85.5 146.5,-104.5"/>
<text text-anchor="middle" x="79.5" y="-92.5" font-family="Helvetica,sans-Serif" font-size="10.00">OgreBites::InputListener</text>
</a>
</g>
</g>
<!-- Node2&#45;&gt;Node1 -->
<g id="edge433_Node000002_Node000001" class="edge">
<title>Node2&#45;&gt;Node1</title>
<g id="a_edge433_Node000002_Node000001"><a xlink:title=" ">
<path fill="none" stroke="#63b8ff" d="M104.52,-110.21C132.39,-127.64 176.84,-154.75 195,-162 204.39,-165.75 214.7,-168.87 224.73,-171.42"/>
<polygon fill="#63b8ff" stroke="#63b8ff" points="106.1,-107.06 95.77,-104.71 102.38,-112.99 106.1,-107.06"/>
</a>
</g>
</g>
<!-- Node3 -->
<g id="Node000003" class="node">
<title>Node3</title>
<g id="a_Node000003"><a xlink:href="class_ogre_bites_1_1_advanced_render_controls.html" target="_top" xlink:title=" ">
<polygon fill="white" stroke="#666666" points="353.5,-153 200.5,-153 200.5,-123 353.5,-123 353.5,-153"/>
<text text-anchor="start" x="208.5" y="-141" font-family="Helvetica,sans-Serif" font-size="10.00">OgreBites::AdvancedRender</text>
<text text-anchor="middle" x="277" y="-130" font-family="Helvetica,sans-Serif" font-size="10.00">Controls</text>
</a>
</g>
</g>
<!-- Node2&#45;&gt;Node3 -->
<g id="edge429_Node000002_Node000003" class="edge">
<title>Node2&#45;&gt;Node3</title>
<g id="a_edge429_Node000002_Node000003"><a xlink:title=" ">
<path fill="none" stroke="#63b8ff" d="M133.73,-106.71C156.56,-111.73 183.51,-117.66 207.77,-122.99"/>
<polygon fill="#63b8ff" stroke="#63b8ff" points="134.41,-103.27 123.89,-104.54 132.9,-110.11 134.41,-103.27"/>
</a>
</g>
</g>
<!-- Node4 -->
<g id="Node000004" class="node">
<title>Node4</title>
<g id="a_Node000004"><a xlink:href="class_ogre_bites_1_1_camera_man.html" target="_top" xlink:title="Utility class for controlling the camera in samples.">
<polygon fill="white" stroke="#666666" points="342,-104.5 212,-104.5 212,-85.5 342,-85.5 342,-104.5"/>
<text text-anchor="middle" x="277" y="-92.5" font-family="Helvetica,sans-Serif" font-size="10.00">OgreBites::CameraMan</text>
</a>
</g>
</g>
<!-- Node2&#45;&gt;Node4 -->
<g id="edge430_Node000002_Node000004" class="edge">
<title>Node2&#45;&gt;Node4</title>
<g id="a_edge430_Node000002_Node000004"><a xlink:title=" ">
<path fill="none" stroke="#63b8ff" d="M156.7,-95C174.94,-95 194.23,-95 211.87,-95"/>
<polygon fill="#63b8ff" stroke="#63b8ff" points="156.69,-91.5 146.69,-95 156.69,-98.5 156.69,-91.5"/>
</a>
</g>
</g>
<!-- Node5 -->
<g id="Node000005" class="node">
<title>Node5</title>
<g id="a_Node000005"><a xlink:href="struct_ogre_bites_1_1_im_gui_input_listener.html" target="_top" xlink:title=" ">
<polygon fill="white" stroke="#666666" points="359,-67.5 195,-67.5 195,-48.5 359,-48.5 359,-67.5"/>
<text text-anchor="middle" x="277" y="-55.5" font-family="Helvetica,sans-Serif" font-size="10.00">OgreBites::ImGuiInputListener</text>
</a>
</g>
</g>
<!-- Node2&#45;&gt;Node5 -->
<g id="edge431_Node000002_Node000005" class="edge">
<title>Node2&#45;&gt;Node5</title>
<g id="a_edge431_Node000002_Node000005"><a xlink:title=" ">
<path fill="none" stroke="#63b8ff" d="M140.99,-83.55C168.09,-78.42 199.68,-72.44 225.49,-67.56"/>
<polygon fill="#63b8ff" stroke="#63b8ff" points="140.02,-80.17 130.85,-85.47 141.32,-87.05 140.02,-80.17"/>
</a>
</g>
</g>
<!-- Node6 -->
<g id="Node000006" class="node">
<title>Node6</title>
<g id="a_Node000006"><a xlink:href="class_ogre_bites_1_1_input_listener_chain.html" target="_top" xlink:title="Chain of multiple InputListeners that acts as a single InputListener.">
<polygon fill="white" stroke="#666666" points="344,-30 210,-30 210,0 344,0 344,-30"/>
<text text-anchor="start" x="218" y="-18" font-family="Helvetica,sans-Serif" font-size="10.00">OgreBites::InputListener</text>
<text text-anchor="middle" x="277" y="-7" font-family="Helvetica,sans-Serif" font-size="10.00">Chain</text>
</a>
</g>
</g>
<!-- Node2&#45;&gt;Node6 -->
<g id="edge432_Node000002_Node000006" class="edge">
<title>Node2&#45;&gt;Node6</title>
<g id="a_edge432_Node000002_Node000006"><a xlink:title=" ">
<path fill="none" stroke="#63b8ff" d="M107,-80.47C129.85,-68.32 163.97,-51.09 195,-39 203.2,-35.81 212.01,-32.79 220.68,-30.05"/>
<polygon fill="#63b8ff" stroke="#63b8ff" points="105.09,-77.52 97.94,-85.33 108.4,-83.68 105.09,-77.52"/>
</a>
</g>
</g>
<!-- Node7 -->
<g id="Node000007" class="node">
<title>Node7</title>
<g id="a_Node000007"><a xlink:href="class_ogre_bites_1_1_tray_listener.html" target="_top" xlink:title="Listener class for responding to tray events.">
<polygon fill="white" stroke="#666666" points="145,-171.5 14,-171.5 14,-152.5 145,-152.5 145,-171.5"/>
<text text-anchor="middle" x="79.5" y="-159.5" font-family="Helvetica,sans-Serif" font-size="10.00">OgreBites::TrayListener</text>
</a>
</g>
</g>
<!-- Node7&#45;&gt;Node1 -->
<g id="edge434_Node000007_Node000001" class="edge">
<title>Node7&#45;&gt;Node1</title>
<g id="a_edge434_Node000007_Node000001"><a xlink:title=" ">
<path fill="none" stroke="#63b8ff" d="M155.21,-169.26C173.19,-171.01 192.28,-172.86 209.84,-174.57"/>
<polygon fill="#63b8ff" stroke="#63b8ff" points="155.35,-165.76 145.06,-168.27 154.67,-172.72 155.35,-165.76"/>
</a>
</g>
</g>
</g>
</svg>
