<?xml version="1.0" encoding="UTF-8" standalone="no"?>
<!DOCTYPE svg PUBLIC "-//W3C//DTD SVG 1.1//EN"
 "http://www.w3.org/Graphics/SVG/1.1/DTD/svg11.dtd">
<!-- Generated by graphviz version 2.43.0 (0)
 -->
<!-- Title: Graphical Class Hierarchy Pages: 1 -->
<svg width="357pt" height="64pt"
 viewBox="0.00 0.00 357.00 64.00" xmlns="http://www.w3.org/2000/svg" xmlns:xlink="http://www.w3.org/1999/xlink">
<g id="graph0" class="graph" transform="scale(1 1) rotate(0) translate(4 60)">
<title>Graphical Class Hierarchy</title>
<!-- Node0 -->
<g id="Node000000" class="node">
<title>Node0</title>
<g id="a_Node000000"><a xlink:title=" ">
<polygon fill="#e0e0e0" stroke="#999999" points="132.5,-56 58.5,-56 58.5,-37 132.5,-37 132.5,-56"/>
<text text-anchor="middle" x="95.5" y="-44" font-family="Helvetica,sans-Serif" font-size="10.00">DynLibAlloc</text>
</a>
</g>
</g>
<!-- Node1 -->
<g id="Node000001" class="node">
<title>Node1</title>
<g id="a_Node000001"><a xlink:href="class_ogre_1_1_dyn_lib.html" target="_top" xlink:title="Resource holding data about a dynamic library.">
<polygon fill="white" stroke="#666666" points="328,-56 248,-56 248,-37 328,-37 328,-56"/>
<text text-anchor="middle" x="288" y="-44" font-family="Helvetica,sans-Serif" font-size="10.00">Ogre::DynLib</text>
</a>
</g>
</g>
<!-- Node0&#45;&gt;Node1 -->
<g id="edge307_Node000000_Node000001" class="edge">
<title>Node0&#45;&gt;Node1</title>
<g id="a_edge307_Node000000_Node000001"><a xlink:title=" ">
<path fill="none" stroke="#63b8ff" d="M142.84,-46.5C175.02,-46.5 217.43,-46.5 247.9,-46.5"/>
<polygon fill="#63b8ff" stroke="#63b8ff" points="142.78,-43 132.78,-46.5 142.78,-50 142.78,-43"/>
</a>
</g>
</g>
<!-- Node2 -->
<g id="Node000002" class="node">
<title>Node2</title>
<g id="a_Node000002"><a xlink:href="class_ogre_1_1_dyn_lib_manager.html" target="_top" xlink:title="Manager for Dynamic&#45;loading Libraries.">
<polygon fill="white" stroke="#666666" points="349,-19 227,-19 227,0 349,0 349,-19"/>
<text text-anchor="middle" x="288" y="-7" font-family="Helvetica,sans-Serif" font-size="10.00">Ogre::DynLibManager</text>
</a>
</g>
</g>
<!-- Node0&#45;&gt;Node2 -->
<g id="edge308_Node000000_Node000002" class="edge">
<title>Node0&#45;&gt;Node2</title>
<g id="a_edge308_Node000000_Node000002"><a xlink:title=" ">
<path fill="none" stroke="#63b8ff" d="M143.11,-37.69C158.37,-34.79 175.41,-31.53 191,-28.5 206.68,-25.46 223.79,-22.09 239.16,-19.04"/>
<polygon fill="#63b8ff" stroke="#63b8ff" points="142.03,-34.33 132.86,-39.64 143.34,-41.21 142.03,-34.33"/>
</a>
</g>
</g>
<!-- Node3 -->
<g id="Node000003" class="node">
<title>Node3</title>
<g id="a_Node000003"><a xlink:href="class_ogre_1_1_singleton.html" target="_top" xlink:title=" ">
<polygon fill="white" stroke="#666666" points="191,-19 0,-19 0,0 191,0 191,-19"/>
<text text-anchor="middle" x="95.5" y="-7" font-family="Helvetica,sans-Serif" font-size="10.00">Ogre::Singleton&lt; DynLibManager &gt;</text>
</a>
</g>
</g>
<!-- Node3&#45;&gt;Node2 -->
<g id="edge309_Node000003_Node000002" class="edge">
<title>Node3&#45;&gt;Node2</title>
<g id="a_edge309_Node000003_Node000002"><a xlink:title=" ">
<path fill="none" stroke="#63b8ff" d="M201.42,-9.5C210.1,-9.5 218.68,-9.5 226.86,-9.5"/>
<polygon fill="#63b8ff" stroke="#63b8ff" points="201.19,-6 191.19,-9.5 201.19,-13 201.19,-6"/>
</a>
</g>
</g>
</g>
</svg>
