<?xml version="1.0" encoding="UTF-8" standalone="no"?>
<!DOCTYPE svg PUBLIC "-//W3C//DTD SVG 1.1//EN"
 "http://www.w3.org/Graphics/SVG/1.1/DTD/svg11.dtd">
<!-- Generated by graphviz version 2.43.0 (0)
 -->
<!-- Title: Graphical Class Hierarchy Pages: 1 -->
<svg width="293pt" height="1106pt"
 viewBox="0.00 0.00 293.00 1106.00" xmlns="http://www.w3.org/2000/svg" xmlns:xlink="http://www.w3.org/1999/xlink">
<g id="graph0" class="graph" transform="scale(1 1) rotate(0) translate(4 1102)">
<title>Graphical Class Hierarchy</title>
<!-- Node0 -->
<g id="Node000000" class="node">
<title>Node0</title>
<g id="a_Node000000"><a xlink:title=" ">
<polygon fill="#e0e0e0" stroke="#999999" points="68,-569 0,-569 0,-550 68,-550 68,-569"/>
<text text-anchor="middle" x="34" y="-557" font-family="Helvetica,sans-Serif" font-size="10.00">shared_ptr</text>
</a>
</g>
</g>
<!-- Node1 -->
<g id="Node000001" class="node">
<title>Node1</title>
<g id="a_Node000001"><a xlink:href="class_ogre_1_1_shared_ptr.html" target="_top" xlink:title=" ">
<polygon fill="white" stroke="#666666" points="273.5,-1098 115.5,-1098 115.5,-1079 273.5,-1079 273.5,-1098"/>
<text text-anchor="middle" x="194.5" y="-1086" font-family="Helvetica,sans-Serif" font-size="10.00">Ogre::SharedPtr&lt; Skeleton &gt;</text>
</a>
</g>
</g>
<!-- Node0&#45;&gt;Node1 -->
<g id="edge608_Node000000_Node000001" class="edge">
<title>Node0&#45;&gt;Node1</title>
<g id="a_edge608_Node000000_Node000001"><a xlink:title=" ">
<path fill="none" stroke="#63b8ff" d="M34.74,-579.43C34.04,-664.7 35.8,-997.77 104,-1070.5 107.36,-1074.08 111.22,-1077.06 115.41,-1079.53"/>
<polygon fill="#63b8ff" stroke="#63b8ff" points="38.24,-579.33 34.84,-569.29 31.24,-579.25 38.24,-579.33"/>
</a>
</g>
</g>
<!-- Node2 -->
<g id="Node000002" class="node">
<title>Node2</title>
<g id="a_Node000002"><a xlink:href="class_ogre_1_1_shared_ptr.html" target="_top" xlink:title=" ">
<polygon fill="white" stroke="#666666" points="270.5,-1061 118.5,-1061 118.5,-1042 270.5,-1042 270.5,-1061"/>
<text text-anchor="middle" x="194.5" y="-1049" font-family="Helvetica,sans-Serif" font-size="10.00">Ogre::SharedPtr&lt; Texture &gt;</text>
</a>
</g>
</g>
<!-- Node0&#45;&gt;Node2 -->
<g id="edge609_Node000000_Node000002" class="edge">
<title>Node0&#45;&gt;Node2</title>
<g id="a_edge609_Node000000_Node000002"><a xlink:title=" ">
<path fill="none" stroke="#63b8ff" d="M34.97,-579.78C35.29,-661.67 40.76,-966.76 104,-1033.5 108.14,-1037.87 113.03,-1041.34 118.34,-1044.08"/>
<polygon fill="#63b8ff" stroke="#63b8ff" points="38.47,-579.37 34.96,-569.37 31.47,-579.38 38.47,-579.37"/>
</a>
</g>
</g>
<!-- Node3 -->
<g id="Node000003" class="node">
<title>Node3</title>
<g id="a_Node000003"><a xlink:href="class_ogre_1_1_shared_ptr.html" target="_top" xlink:title=" ">
<polygon fill="white" stroke="#666666" points="272.5,-1024 116.5,-1024 116.5,-1005 272.5,-1005 272.5,-1024"/>
<text text-anchor="middle" x="194.5" y="-1012" font-family="Helvetica,sans-Serif" font-size="10.00">Ogre::SharedPtr&lt; Material &gt;</text>
</a>
</g>
</g>
<!-- Node0&#45;&gt;Node3 -->
<g id="edge610_Node000000_Node000003" class="edge">
<title>Node0&#45;&gt;Node3</title>
<g id="a_edge610_Node000000_Node000003"><a xlink:title=" ">
<path fill="none" stroke="#63b8ff" d="M35.25,-579.67C36.62,-657.32 45.6,-935.6 104,-996.5 107.62,-1000.27 111.79,-1003.38 116.32,-1005.91"/>
<polygon fill="#63b8ff" stroke="#63b8ff" points="38.74,-579.3 35.09,-569.36 31.74,-579.41 38.74,-579.3"/>
</a>
</g>
</g>
<!-- Node4 -->
<g id="Node000004" class="node">
<title>Node4</title>
<g id="a_Node000004"><a xlink:href="class_ogre_1_1_shared_ptr.html" target="_top" xlink:title=" ">
<polygon fill="white" stroke="#666666" points="274.5,-987 114.5,-987 114.5,-968 274.5,-968 274.5,-987"/>
<text text-anchor="middle" x="194.5" y="-975" font-family="Helvetica,sans-Serif" font-size="10.00">Ogre::SharedPtr&lt; BspLevel &gt;</text>
</a>
</g>
</g>
<!-- Node0&#45;&gt;Node4 -->
<g id="edge611_Node000000_Node000004" class="edge">
<title>Node0&#45;&gt;Node4</title>
<g id="a_edge611_Node000000_Node000004"><a xlink:title=" ">
<path fill="none" stroke="#63b8ff" d="M35.59,-579.29C38.15,-652.04 50.78,-903.22 104,-958.5 107.64,-962.28 111.82,-965.39 116.35,-967.96"/>
<polygon fill="#63b8ff" stroke="#63b8ff" points="39.08,-579.09 35.26,-569.21 32.08,-579.32 39.08,-579.09"/>
</a>
</g>
</g>
<!-- Node5 -->
<g id="Node000005" class="node">
<title>Node5</title>
<g id="a_Node000005"><a xlink:href="class_ogre_1_1_shared_ptr.html" target="_top" xlink:title=" ">
<polygon fill="white" stroke="#666666" points="263.5,-949.5 125.5,-949.5 125.5,-919.5 263.5,-919.5 263.5,-949.5"/>
<text text-anchor="start" x="133.5" y="-937.5" font-family="Helvetica,sans-Serif" font-size="10.00">Ogre::SharedPtr&lt; Ogre</text>
<text text-anchor="middle" x="194.5" y="-926.5" font-family="Helvetica,sans-Serif" font-size="10.00">::ControllerValue&lt; T &gt; &gt;</text>
</a>
</g>
</g>
<!-- Node0&#45;&gt;Node5 -->
<g id="edge612_Node000000_Node000005" class="edge">
<title>Node0&#45;&gt;Node5</title>
<g id="a_edge612_Node000000_Node000005"><a xlink:title=" ">
<path fill="none" stroke="#63b8ff" d="M36.2,-579.37C40.65,-646.24 58.31,-861.6 104,-910.5 109.93,-916.85 117.34,-921.59 125.34,-925.11"/>
<polygon fill="#63b8ff" stroke="#63b8ff" points="39.69,-579.08 35.56,-569.32 32.7,-579.52 39.69,-579.08"/>
</a>
</g>
</g>
<!-- Node6 -->
<g id="Node000006" class="node">
<title>Node6</title>
<g id="a_Node000006"><a xlink:href="class_ogre_1_1_shared_ptr.html" target="_top" xlink:title=" ">
<polygon fill="white" stroke="#666666" points="258.5,-901 130.5,-901 130.5,-860 258.5,-860 258.5,-901"/>
<text text-anchor="start" x="138.5" y="-889" font-family="Helvetica,sans-Serif" font-size="10.00">Ogre::SharedPtr&lt; Ogre</text>
<text text-anchor="start" x="138.5" y="-878" font-family="Helvetica,sans-Serif" font-size="10.00">::ControllerFunction</text>
<text text-anchor="middle" x="194.5" y="-867" font-family="Helvetica,sans-Serif" font-size="10.00">&lt; T &gt; &gt;</text>
</a>
</g>
</g>
<!-- Node0&#45;&gt;Node6 -->
<g id="edge613_Node000000_Node000006" class="edge">
<title>Node0&#45;&gt;Node6</title>
<g id="a_edge613_Node000000_Node000006"><a xlink:title=" ">
<path fill="none" stroke="#63b8ff" d="M37.18,-579.22C44.05,-637.93 66.99,-809.97 104,-850.5 111.18,-858.37 120.49,-864.17 130.38,-868.46"/>
<polygon fill="#63b8ff" stroke="#63b8ff" points="40.63,-578.61 36.02,-569.07 33.68,-579.4 40.63,-578.61"/>
</a>
</g>
</g>
<!-- Node7 -->
<g id="Node000007" class="node">
<title>Node7</title>
<g id="a_Node000007"><a xlink:href="class_ogre_1_1_shared_ptr.html" target="_top" xlink:title=" ">
<polygon fill="white" stroke="#666666" points="270.5,-841.5 118.5,-841.5 118.5,-811.5 270.5,-811.5 270.5,-841.5"/>
<text text-anchor="start" x="126.5" y="-829.5" font-family="Helvetica,sans-Serif" font-size="10.00">Ogre::SharedPtr&lt; Controller</text>
<text text-anchor="middle" x="194.5" y="-818.5" font-family="Helvetica,sans-Serif" font-size="10.00">Value&lt; float &gt; &gt;</text>
</a>
</g>
</g>
<!-- Node0&#45;&gt;Node7 -->
<g id="edge614_Node000000_Node000007" class="edge">
<title>Node0&#45;&gt;Node7</title>
<g id="a_edge614_Node000000_Node000007"><a xlink:title=" ">
<path fill="none" stroke="#63b8ff" d="M34.49,-579.15C34.43,-625.1 40.94,-740.35 104,-802.5 108.24,-806.68 113.12,-810.15 118.38,-813.03"/>
<polygon fill="#63b8ff" stroke="#63b8ff" points="37.99,-579.08 34.62,-569.04 30.99,-578.99 37.99,-579.08"/>
</a>
</g>
</g>
<!-- Node8 -->
<g id="Node000008" class="node">
<title>Node8</title>
<g id="a_Node000008"><a xlink:href="class_ogre_1_1_shared_ptr.html" target="_top" xlink:title=" ">
<polygon fill="white" stroke="#666666" points="270.5,-793.5 118.5,-793.5 118.5,-763.5 270.5,-763.5 270.5,-793.5"/>
<text text-anchor="start" x="126.5" y="-781.5" font-family="Helvetica,sans-Serif" font-size="10.00">Ogre::SharedPtr&lt; Controller</text>
<text text-anchor="middle" x="194.5" y="-770.5" font-family="Helvetica,sans-Serif" font-size="10.00">Function&lt; float &gt; &gt;</text>
</a>
</g>
</g>
<!-- Node0&#45;&gt;Node8 -->
<g id="edge615_Node000000_Node000008" class="edge">
<title>Node0&#45;&gt;Node8</title>
<g id="a_edge615_Node000000_Node000008"><a xlink:title=" ">
<path fill="none" stroke="#63b8ff" d="M36.14,-579.48C39.49,-618.9 52.65,-707.01 104,-754.5 108.25,-758.43 113.08,-761.73 118.23,-764.5"/>
<polygon fill="#63b8ff" stroke="#63b8ff" points="39.62,-579.03 35.41,-569.31 32.64,-579.54 39.62,-579.03"/>
</a>
</g>
</g>
<!-- Node9 -->
<g id="Node000009" class="node">
<title>Node9</title>
<g id="a_Node000009"><a xlink:href="class_ogre_1_1_shared_ptr.html" target="_top" xlink:title=" ">
<polygon fill="white" stroke="#666666" points="281.5,-745 107.5,-745 107.5,-726 281.5,-726 281.5,-745"/>
<text text-anchor="middle" x="194.5" y="-733" font-family="Helvetica,sans-Serif" font-size="10.00">Ogre::SharedPtr&lt; DataStream &gt;</text>
</a>
</g>
</g>
<!-- Node0&#45;&gt;Node9 -->
<g id="edge616_Node000000_Node000009" class="edge">
<title>Node0&#45;&gt;Node9</title>
<g id="a_edge616_Node000000_Node000009"><a xlink:title=" ">
<path fill="none" stroke="#63b8ff" d="M37.69,-579.18C43.4,-613.03 60.04,-682.04 104,-717.5 108.07,-720.78 112.58,-723.52 117.35,-725.8"/>
<polygon fill="#63b8ff" stroke="#63b8ff" points="41.12,-578.5 36.14,-569.15 34.2,-579.56 41.12,-578.5"/>
</a>
</g>
</g>
<!-- Node10 -->
<g id="Node000010" class="node">
<title>Node10</title>
<g id="a_Node000010"><a xlink:href="class_ogre_1_1_shared_ptr.html" target="_top" xlink:title=" ">
<polygon fill="white" stroke="#666666" points="265.5,-708 123.5,-708 123.5,-689 265.5,-689 265.5,-708"/>
<text text-anchor="middle" x="194.5" y="-696" font-family="Helvetica,sans-Serif" font-size="10.00">Ogre::SharedPtr&lt; Mesh &gt;</text>
</a>
</g>
</g>
<!-- Node0&#45;&gt;Node10 -->
<g id="edge617_Node000000_Node000010" class="edge">
<title>Node0&#45;&gt;Node10</title>
<g id="a_edge617_Node000000_Node000010"><a xlink:title=" ">
<path fill="none" stroke="#63b8ff" d="M40.62,-578.93C49.47,-605.92 69.33,-654.27 104,-679.5 109.78,-683.71 116.29,-687.02 123.1,-689.63"/>
<polygon fill="#63b8ff" stroke="#63b8ff" points="43.88,-577.63 37.58,-569.11 37.19,-579.7 43.88,-577.63"/>
</a>
</g>
</g>
<!-- Node11 -->
<g id="Node000011" class="node">
<title>Node11</title>
<g id="a_Node000011"><a xlink:href="class_ogre_1_1_shared_ptr.html" target="_top" xlink:title=" ">
<polygon fill="white" stroke="#666666" points="270.5,-670.5 118.5,-670.5 118.5,-640.5 270.5,-640.5 270.5,-670.5"/>
<text text-anchor="start" x="126.5" y="-658.5" font-family="Helvetica,sans-Serif" font-size="10.00">Ogre::SharedPtr&lt; Hardware</text>
<text text-anchor="middle" x="194.5" y="-647.5" font-family="Helvetica,sans-Serif" font-size="10.00">VertexBuffer &gt;</text>
</a>
</g>
</g>
<!-- Node0&#45;&gt;Node11 -->
<g id="edge618_Node000000_Node000011" class="edge">
<title>Node0&#45;&gt;Node11</title>
<g id="a_edge618_Node000000_Node000011"><a xlink:title=" ">
<path fill="none" stroke="#63b8ff" d="M47.5,-577.28C59.97,-593.73 80.62,-617.66 104,-631.5 109.81,-634.94 116.13,-637.9 122.63,-640.44"/>
<polygon fill="#63b8ff" stroke="#63b8ff" points="50.18,-575.02 41.44,-569.03 44.53,-579.16 50.18,-575.02"/>
</a>
</g>
</g>
<!-- Node12 -->
<g id="Node000012" class="node">
<title>Node12</title>
<g id="a_Node000012"><a xlink:href="class_ogre_1_1_shared_ptr.html" target="_top" xlink:title=" ">
<polygon fill="white" stroke="#666666" points="273.5,-622.5 115.5,-622.5 115.5,-592.5 273.5,-592.5 273.5,-622.5"/>
<text text-anchor="start" x="123.5" y="-610.5" font-family="Helvetica,sans-Serif" font-size="10.00">Ogre::SharedPtr&lt; GpuLogical</text>
<text text-anchor="middle" x="194.5" y="-599.5" font-family="Helvetica,sans-Serif" font-size="10.00">BufferStruct &gt;</text>
</a>
</g>
</g>
<!-- Node0&#45;&gt;Node12 -->
<g id="edge619_Node000000_Node000012" class="edge">
<title>Node0&#45;&gt;Node12</title>
<g id="a_edge619_Node000000_Node000012"><a xlink:title=" ">
<path fill="none" stroke="#63b8ff" d="M70.53,-572.41C81.23,-576.15 93.05,-580.13 104,-583.5 113.99,-586.57 124.68,-589.63 135.07,-592.49"/>
<polygon fill="#63b8ff" stroke="#63b8ff" points="71.66,-569.1 61.06,-569.07 69.33,-575.7 71.66,-569.1"/>
</a>
</g>
</g>
<!-- Node13 -->
<g id="Node000013" class="node">
<title>Node13</title>
<g id="a_Node000013"><a xlink:href="class_ogre_1_1_shared_ptr.html" target="_top" xlink:title=" ">
<polygon fill="white" stroke="#666666" points="274,-574.5 115,-574.5 115,-544.5 274,-544.5 274,-574.5"/>
<text text-anchor="start" x="123" y="-562.5" font-family="Helvetica,sans-Serif" font-size="10.00">Ogre::SharedPtr&lt; GpuNamed</text>
<text text-anchor="middle" x="194.5" y="-551.5" font-family="Helvetica,sans-Serif" font-size="10.00">Constants &gt;</text>
</a>
</g>
</g>
<!-- Node0&#45;&gt;Node13 -->
<g id="edge620_Node000000_Node000013" class="edge">
<title>Node0&#45;&gt;Node13</title>
<g id="a_edge620_Node000000_Node000013"><a xlink:title=" ">
<path fill="none" stroke="#63b8ff" d="M78.29,-559.5C89.67,-559.5 102.31,-559.5 114.93,-559.5"/>
<polygon fill="#63b8ff" stroke="#63b8ff" points="78.23,-556 68.23,-559.5 78.23,-563 78.23,-556"/>
</a>
</g>
</g>
<!-- Node14 -->
<g id="Node000014" class="node">
<title>Node14</title>
<g id="a_Node000014"><a xlink:href="class_ogre_1_1_shared_ptr.html" target="_top" xlink:title=" ">
<polygon fill="white" stroke="#666666" points="282.5,-526 106.5,-526 106.5,-507 282.5,-507 282.5,-526"/>
<text text-anchor="middle" x="194.5" y="-514" font-family="Helvetica,sans-Serif" font-size="10.00">Ogre::SharedPtr&lt; GpuProgram &gt;</text>
</a>
</g>
</g>
<!-- Node0&#45;&gt;Node14 -->
<g id="edge621_Node000000_Node000014" class="edge">
<title>Node0&#45;&gt;Node14</title>
<g id="a_edge621_Node000000_Node000014"><a xlink:title=" ">
<path fill="none" stroke="#63b8ff" d="M69.61,-546.51C80.52,-542.67 92.68,-538.66 104,-535.5 116.55,-532 130.24,-528.79 143.05,-526.05"/>
<polygon fill="#63b8ff" stroke="#63b8ff" points="68.23,-543.29 59.99,-549.96 70.59,-549.88 68.23,-543.29"/>
</a>
</g>
</g>
<!-- Node15 -->
<g id="Node000015" class="node">
<title>Node15</title>
<g id="a_Node000015"><a xlink:href="class_ogre_1_1_shared_ptr.html" target="_top" xlink:title=" ">
<polygon fill="white" stroke="#666666" points="270.5,-488.5 118.5,-488.5 118.5,-458.5 270.5,-458.5 270.5,-488.5"/>
<text text-anchor="start" x="126.5" y="-476.5" font-family="Helvetica,sans-Serif" font-size="10.00">Ogre::SharedPtr&lt; Hardware</text>
<text text-anchor="middle" x="194.5" y="-465.5" font-family="Helvetica,sans-Serif" font-size="10.00">Buffer &gt;</text>
</a>
</g>
</g>
<!-- Node0&#45;&gt;Node15 -->
<g id="edge622_Node000000_Node000015" class="edge">
<title>Node0&#45;&gt;Node15</title>
<g id="a_edge622_Node000000_Node000015"><a xlink:title=" ">
<path fill="none" stroke="#63b8ff" d="M50.17,-542.35C63.19,-528.63 83.1,-509.87 104,-498.5 111.09,-494.65 118.82,-491.34 126.67,-488.52"/>
<polygon fill="#63b8ff" stroke="#63b8ff" points="47.55,-540.02 43.35,-549.75 52.7,-544.77 47.55,-540.02"/>
</a>
</g>
</g>
<!-- Node16 -->
<g id="Node000016" class="node">
<title>Node16</title>
<g id="a_Node000016"><a xlink:href="class_ogre_1_1_shared_ptr.html" target="_top" xlink:title=" ">
<polygon fill="white" stroke="#666666" points="273.5,-440.5 115.5,-440.5 115.5,-410.5 273.5,-410.5 273.5,-440.5"/>
<text text-anchor="start" x="123.5" y="-428.5" font-family="Helvetica,sans-Serif" font-size="10.00">Ogre::SharedPtr&lt; GpuShared</text>
<text text-anchor="middle" x="194.5" y="-417.5" font-family="Helvetica,sans-Serif" font-size="10.00">Parameters &gt;</text>
</a>
</g>
</g>
<!-- Node0&#45;&gt;Node16 -->
<g id="edge623_Node000000_Node000016" class="edge">
<title>Node0&#45;&gt;Node16</title>
<g id="a_edge623_Node000000_Node000016"><a xlink:title=" ">
<path fill="none" stroke="#63b8ff" d="M41.82,-540.47C51.68,-515.74 72.27,-472.94 104,-449.5 108.66,-446.06 113.78,-443.11 119.13,-440.59"/>
<polygon fill="#63b8ff" stroke="#63b8ff" points="38.54,-539.27 38.25,-549.86 45.08,-541.75 38.54,-539.27"/>
</a>
</g>
</g>
<!-- Node17 -->
<g id="Node000017" class="node">
<title>Node17</title>
<g id="a_Node000017"><a xlink:href="class_ogre_1_1_shared_ptr.html" target="_top" xlink:title=" ">
<polygon fill="white" stroke="#666666" points="285,-392.5 104,-392.5 104,-362.5 285,-362.5 285,-392.5"/>
<text text-anchor="start" x="112" y="-380.5" font-family="Helvetica,sans-Serif" font-size="10.00">Ogre::SharedPtr&lt; ShadowCamera</text>
<text text-anchor="middle" x="194.5" y="-369.5" font-family="Helvetica,sans-Serif" font-size="10.00">Setup &gt;</text>
</a>
</g>
</g>
<!-- Node0&#45;&gt;Node17 -->
<g id="edge624_Node000000_Node000017" class="edge">
<title>Node0&#45;&gt;Node17</title>
<g id="a_edge624_Node000000_Node000017"><a xlink:title=" ">
<path fill="none" stroke="#63b8ff" d="M38.01,-539.63C44.17,-506.04 61.4,-438.16 104,-401.5 108.02,-398.04 112.5,-395.07 117.24,-392.52"/>
<polygon fill="#63b8ff" stroke="#63b8ff" points="34.54,-539.16 36.33,-549.6 41.44,-540.33 34.54,-539.16"/>
</a>
</g>
</g>
<!-- Node18 -->
<g id="Node000018" class="node">
<title>Node18</title>
<g id="a_Node000018"><a xlink:href="class_ogre_1_1_shared_ptr.html" target="_top" xlink:title=" ">
<polygon fill="white" stroke="#666666" points="270,-344.5 119,-344.5 119,-314.5 270,-314.5 270,-344.5"/>
<text text-anchor="start" x="127" y="-332.5" font-family="Helvetica,sans-Serif" font-size="10.00">Ogre::SharedPtr&lt; Animable</text>
<text text-anchor="middle" x="194.5" y="-321.5" font-family="Helvetica,sans-Serif" font-size="10.00">Value &gt;</text>
</a>
</g>
</g>
<!-- Node0&#45;&gt;Node18 -->
<g id="edge625_Node000000_Node000018" class="edge">
<title>Node0&#45;&gt;Node18</title>
<g id="a_edge625_Node000000_Node000018"><a xlink:title=" ">
<path fill="none" stroke="#63b8ff" d="M35.7,-539.53C38.25,-498.5 50.01,-404.28 104,-353.5 108.34,-349.42 113.29,-346.02 118.59,-343.19"/>
<polygon fill="#63b8ff" stroke="#63b8ff" points="32.2,-539.45 35.2,-549.62 39.19,-539.8 32.2,-539.45"/>
</a>
</g>
</g>
<!-- Node19 -->
<g id="Node000019" class="node">
<title>Node19</title>
<g id="a_Node000019"><a xlink:href="class_ogre_1_1_shared_ptr.html" target="_top" xlink:title=" ">
<polygon fill="white" stroke="#666666" points="278.5,-296.5 110.5,-296.5 110.5,-266.5 278.5,-266.5 278.5,-296.5"/>
<text text-anchor="start" x="118.5" y="-284.5" font-family="Helvetica,sans-Serif" font-size="10.00">Ogre::SharedPtr&lt; MemoryData</text>
<text text-anchor="middle" x="194.5" y="-273.5" font-family="Helvetica,sans-Serif" font-size="10.00">Stream &gt;</text>
</a>
</g>
</g>
<!-- Node0&#45;&gt;Node19 -->
<g id="edge626_Node000000_Node000019" class="edge">
<title>Node0&#45;&gt;Node19</title>
<g id="a_edge626_Node000000_Node000019"><a xlink:title=" ">
<path fill="none" stroke="#63b8ff" d="M34.2,-539.61C33.42,-492.07 38.37,-370.91 104,-305.5 107.42,-302.09 111.26,-299.15 115.39,-296.62"/>
<polygon fill="#63b8ff" stroke="#63b8ff" points="30.7,-539.9 34.48,-549.8 37.7,-539.71 30.7,-539.9"/>
</a>
</g>
</g>
<!-- Node20 -->
<g id="Node000020" class="node">
<title>Node20</title>
<g id="a_Node000020"><a xlink:href="class_ogre_1_1_shared_ptr.html" target="_top" xlink:title=" ">
<polygon fill="white" stroke="#666666" points="273,-248.5 116,-248.5 116,-218.5 273,-218.5 273,-248.5"/>
<text text-anchor="start" x="124" y="-236.5" font-family="Helvetica,sans-Serif" font-size="10.00">Ogre::SharedPtr&lt; SubRender</text>
<text text-anchor="middle" x="194.5" y="-225.5" font-family="Helvetica,sans-Serif" font-size="10.00">StateAccessor &gt;</text>
</a>
</g>
</g>
<!-- Node0&#45;&gt;Node20 -->
<g id="edge627_Node000000_Node000020" class="edge">
<title>Node0&#45;&gt;Node20</title>
<g id="a_edge627_Node000000_Node000020"><a xlink:title=" ">
<path fill="none" stroke="#63b8ff" d="M36.88,-539.71C43.02,-479.26 64.39,-298.62 104,-257.5 107.46,-253.91 111.39,-250.83 115.64,-248.21"/>
<polygon fill="#63b8ff" stroke="#63b8ff" points="33.38,-539.54 35.88,-549.83 40.35,-540.23 33.38,-539.54"/>
</a>
</g>
</g>
<!-- Node21 -->
<g id="Node000021" class="node">
<title>Node21</title>
<g id="a_Node000021"><a xlink:href="class_ogre_1_1_shared_ptr.html" target="_top" xlink:title=" ">
<polygon fill="white" stroke="#666666" points="277,-200.5 112,-200.5 112,-170.5 277,-170.5 277,-200.5"/>
<text text-anchor="start" x="120" y="-188.5" font-family="Helvetica,sans-Serif" font-size="10.00">Ogre::SharedPtr&lt; GpuProgram</text>
<text text-anchor="middle" x="194.5" y="-177.5" font-family="Helvetica,sans-Serif" font-size="10.00">Parameters &gt;</text>
</a>
</g>
</g>
<!-- Node0&#45;&gt;Node21 -->
<g id="edge628_Node000000_Node000021" class="edge">
<title>Node0&#45;&gt;Node21</title>
<g id="a_edge628_Node000000_Node000021"><a xlink:title=" ">
<path fill="none" stroke="#63b8ff" d="M36.21,-539.68C40.68,-473 58.42,-258.26 104,-209.5 107.19,-206.09 110.8,-203.15 114.7,-200.61"/>
<polygon fill="#63b8ff" stroke="#63b8ff" points="32.72,-539.5 35.57,-549.71 39.7,-539.95 32.72,-539.5"/>
</a>
</g>
</g>
<!-- Node22 -->
<g id="Node000022" class="node">
<title>Node22</title>
<g id="a_Node000022"><a xlink:href="class_ogre_1_1_shared_ptr.html" target="_top" xlink:title=" ">
<polygon fill="white" stroke="#666666" points="267,-152.5 122,-152.5 122,-122.5 267,-122.5 267,-152.5"/>
<text text-anchor="start" x="130" y="-140.5" font-family="Helvetica,sans-Serif" font-size="10.00">Ogre::SharedPtr&lt; Abstract</text>
<text text-anchor="middle" x="194.5" y="-129.5" font-family="Helvetica,sans-Serif" font-size="10.00">NodeList &gt;</text>
</a>
</g>
</g>
<!-- Node0&#45;&gt;Node22 -->
<g id="edge629_Node000000_Node000022" class="edge">
<title>Node0&#45;&gt;Node22</title>
<g id="a_edge629_Node000000_Node000022"><a xlink:title=" ">
<path fill="none" stroke="#63b8ff" d="M35.69,-539.84C38.62,-467.6 52.37,-218.02 104,-161.5 108.99,-156.04 115.08,-151.76 121.71,-148.42"/>
<polygon fill="#63b8ff" stroke="#63b8ff" points="32.19,-539.73 35.31,-549.86 39.19,-540 32.19,-539.73"/>
</a>
</g>
</g>
<!-- Node23 -->
<g id="Node000023" class="node">
<title>Node23</title>
<g id="a_Node000023"><a xlink:href="class_ogre_1_1_shared_ptr.html" target="_top" xlink:title=" ">
<polygon fill="white" stroke="#666666" points="263,-104.5 126,-104.5 126,-74.5 263,-74.5 263,-104.5"/>
<text text-anchor="start" x="134" y="-92.5" font-family="Helvetica,sans-Serif" font-size="10.00">Ogre::SharedPtr&lt; Terrain</text>
<text text-anchor="middle" x="194.5" y="-81.5" font-family="Helvetica,sans-Serif" font-size="10.00">MaterialGenerator &gt;</text>
</a>
</g>
</g>
<!-- Node0&#45;&gt;Node23 -->
<g id="edge630_Node000000_Node000023" class="edge">
<title>Node0&#45;&gt;Node23</title>
<g id="a_edge630_Node000000_Node000023"><a xlink:title=" ">
<path fill="none" stroke="#63b8ff" d="M35.29,-539.54C36.84,-461.43 46.4,-177.72 104,-113.5 110.02,-106.79 117.68,-101.87 125.99,-98.28"/>
<polygon fill="#63b8ff" stroke="#63b8ff" points="31.79,-539.82 35.11,-549.88 38.78,-539.94 31.79,-539.82"/>
</a>
</g>
</g>
<!-- Node24 -->
<g id="Node000024" class="node">
<title>Node24</title>
<g id="a_Node000024"><a xlink:href="class_ogre_1_1_shared_ptr.html" target="_top" xlink:title=" ">
<polygon fill="white" stroke="#666666" points="263,-56 126,-56 126,-37 263,-37 263,-56"/>
<text text-anchor="middle" x="194.5" y="-44" font-family="Helvetica,sans-Serif" font-size="10.00">Ogre::SharedPtr&lt; Font &gt;</text>
</a>
</g>
</g>
<!-- Node0&#45;&gt;Node24 -->
<g id="edge631_Node000000_Node000024" class="edge">
<title>Node0&#45;&gt;Node24</title>
<g id="a_edge631_Node000000_Node000024"><a xlink:title=" ">
<path fill="none" stroke="#63b8ff" d="M34.86,-539.46C34.7,-455.83 38.45,-135.84 104,-65.5 109.96,-59.11 117.48,-54.59 125.63,-51.43"/>
<polygon fill="#63b8ff" stroke="#63b8ff" points="31.36,-539.65 34.9,-549.64 38.36,-539.62 31.36,-539.65"/>
</a>
</g>
</g>
<!-- Node25 -->
<g id="Node000025" class="node">
<title>Node25</title>
<g id="a_Node000025"><a xlink:href="class_ogre_1_1_shared_ptr.html" target="_top" xlink:title=" ">
<polygon fill="white" stroke="#666666" points="255.5,-19 133.5,-19 133.5,0 255.5,0 255.5,-19"/>
<text text-anchor="middle" x="194.5" y="-7" font-family="Helvetica,sans-Serif" font-size="10.00">Ogre::SharedPtr&lt; T &gt;</text>
</a>
</g>
</g>
<!-- Node0&#45;&gt;Node25 -->
<g id="edge632_Node000000_Node000025" class="edge">
<title>Node0&#45;&gt;Node25</title>
<g id="a_edge632_Node000000_Node000025"><a xlink:title=" ">
<path fill="none" stroke="#63b8ff" d="M34.65,-539.65C33.52,-452.51 33.55,-104.82 104,-28.5 111.76,-20.1 122.23,-14.92 133.28,-11.81"/>
<polygon fill="#63b8ff" stroke="#63b8ff" points="31.15,-539.82 34.8,-549.76 38.15,-539.71 31.15,-539.82"/>
</a>
</g>
</g>
</g>
</svg>
