<?xml version="1.0" encoding="UTF-8" standalone="no"?>
<!DOCTYPE svg PUBLIC "-//W3C//DTD SVG 1.1//EN"
 "http://www.w3.org/Graphics/SVG/1.1/DTD/svg11.dtd">
<!-- Generated by graphviz version 2.43.0 (0)
 -->
<!-- Title: Graphical Class Hierarchy Pages: 1 -->
<svg width="312pt" height="101pt"
 viewBox="0.00 0.00 312.00 101.00" xmlns="http://www.w3.org/2000/svg" xmlns:xlink="http://www.w3.org/1999/xlink">
<g id="graph0" class="graph" transform="scale(1 1) rotate(0) translate(4 97)">
<title>Graphical Class Hierarchy</title>
<!-- Node0 -->
<g id="Node000000" class="node">
<title>Node0</title>
<g id="a_Node000000"><a xlink:title=" ">
<polygon fill="#e0e0e0" stroke="#999999" points="112.5,-56 36.5,-56 36.5,-37 112.5,-37 112.5,-56"/>
<text text-anchor="middle" x="74.5" y="-44" font-family="Helvetica,sans-Serif" font-size="10.00">ProfilerAlloc</text>
</a>
</g>
</g>
<!-- Node1 -->
<g id="Node000001" class="node">
<title>Node1</title>
<g id="a_Node000001"><a xlink:href="class_ogre_1_1_profile.html" target="_top" xlink:title="An individual profile that will be processed by the Profiler.">
<polygon fill="white" stroke="#666666" points="283,-93 206,-93 206,-74 283,-74 283,-93"/>
<text text-anchor="middle" x="244.5" y="-81" font-family="Helvetica,sans-Serif" font-size="10.00">Ogre::Profile</text>
</a>
</g>
</g>
<!-- Node0&#45;&gt;Node1 -->
<g id="edge553_Node000000_Node000001" class="edge">
<title>Node0&#45;&gt;Node1</title>
<g id="a_edge553_Node000000_Node000001"><a xlink:title=" ">
<path fill="none" stroke="#63b8ff" d="M122.88,-56.93C149.1,-62.71 181.23,-69.79 205.74,-75.18"/>
<polygon fill="#63b8ff" stroke="#63b8ff" points="123.3,-53.44 112.78,-54.71 121.8,-60.28 123.3,-53.44"/>
</a>
</g>
</g>
<!-- Node2 -->
<g id="Node000002" class="node">
<title>Node2</title>
<g id="a_Node000002"><a xlink:href="class_ogre_1_1_profile_instance.html" target="_top" xlink:title="Represents an individual profile call.">
<polygon fill="white" stroke="#666666" points="304,-56 185,-56 185,-37 304,-37 304,-56"/>
<text text-anchor="middle" x="244.5" y="-44" font-family="Helvetica,sans-Serif" font-size="10.00">Ogre::ProfileInstance</text>
</a>
</g>
</g>
<!-- Node0&#45;&gt;Node2 -->
<g id="edge554_Node000000_Node000002" class="edge">
<title>Node0&#45;&gt;Node2</title>
<g id="a_edge554_Node000000_Node000002"><a xlink:title=" ">
<path fill="none" stroke="#63b8ff" d="M122.83,-46.5C142.1,-46.5 164.58,-46.5 184.87,-46.5"/>
<polygon fill="#63b8ff" stroke="#63b8ff" points="122.78,-43 112.78,-46.5 122.78,-50 122.78,-43"/>
</a>
</g>
</g>
<!-- Node3 -->
<g id="Node000003" class="node">
<title>Node3</title>
<g id="a_Node000003"><a xlink:href="class_ogre_1_1_profiler.html" target="_top" xlink:title="The profiler allows you to measure the performance of your code.">
<polygon fill="white" stroke="#666666" points="285,-19 204,-19 204,0 285,0 285,-19"/>
<text text-anchor="middle" x="244.5" y="-7" font-family="Helvetica,sans-Serif" font-size="10.00">Ogre::Profiler</text>
</a>
</g>
</g>
<!-- Node0&#45;&gt;Node3 -->
<g id="edge555_Node000000_Node000003" class="edge">
<title>Node0&#45;&gt;Node3</title>
<g id="a_edge555_Node000000_Node000003"><a xlink:title=" ">
<path fill="none" stroke="#63b8ff" d="M122.66,-36.11C148.3,-30.47 179.64,-23.56 203.98,-18.2"/>
<polygon fill="#63b8ff" stroke="#63b8ff" points="121.8,-32.72 112.78,-38.29 123.3,-39.56 121.8,-32.72"/>
</a>
</g>
</g>
<!-- Node4 -->
<g id="Node000004" class="node">
<title>Node4</title>
<g id="a_Node000004"><a xlink:href="class_ogre_1_1_singleton.html" target="_top" xlink:title=" ">
<polygon fill="white" stroke="#666666" points="149,-19 0,-19 0,0 149,0 149,-19"/>
<text text-anchor="middle" x="74.5" y="-7" font-family="Helvetica,sans-Serif" font-size="10.00">Ogre::Singleton&lt; Profiler &gt;</text>
</a>
</g>
</g>
<!-- Node4&#45;&gt;Node3 -->
<g id="edge556_Node000004_Node000003" class="edge">
<title>Node4&#45;&gt;Node3</title>
<g id="a_edge556_Node000004_Node000003"><a xlink:title=" ">
<path fill="none" stroke="#63b8ff" d="M159.31,-9.5C174.74,-9.5 190.19,-9.5 203.56,-9.5"/>
<polygon fill="#63b8ff" stroke="#63b8ff" points="159.19,-6 149.19,-9.5 159.19,-13 159.19,-6"/>
</a>
</g>
</g>
</g>
</svg>
