<?xml version="1.0" encoding="UTF-8" standalone="no"?>
<!DOCTYPE svg PUBLIC "-//W3C//DTD SVG 1.1//EN"
 "http://www.w3.org/Graphics/SVG/1.1/DTD/svg11.dtd">
<!-- Generated by graphviz version 2.43.0 (0)
 -->
<!-- Title: Graphical Class Hierarchy Pages: 1 -->
<svg width="423pt" height="64pt"
 viewBox="0.00 0.00 423.00 64.00" xmlns="http://www.w3.org/2000/svg" xmlns:xlink="http://www.w3.org/1999/xlink">
<g id="graph0" class="graph" transform="scale(1 1) rotate(0) translate(4 60)">
<title>Graphical Class Hierarchy</title>
<!-- Node0 -->
<g id="Node000000" class="node">
<title>Node0</title>
<g id="a_Node000000"><a xlink:href="class_ogre_1_1_transform_base.html" target="_top" xlink:title=" ">
<polygon fill="white" stroke="#666666" points="119,-42.5 0,-42.5 0,-12.5 119,-12.5 119,-42.5"/>
<text text-anchor="start" x="8" y="-30.5" font-family="Helvetica,sans-Serif" font-size="10.00">Ogre::TransformBase</text>
<text text-anchor="middle" x="59.5" y="-19.5" font-family="Helvetica,sans-Serif" font-size="10.00">&lt; 4, Real &gt;</text>
</a>
</g>
</g>
<!-- Node1 -->
<g id="Node000001" class="node">
<title>Node1</title>
<g id="a_Node000001"><a xlink:href="struct_ogre_1_1_transform_base_real.html" target="_top" xlink:title=" ">
<polygon fill="white" stroke="#666666" points="296,-37 155,-37 155,-18 296,-18 296,-37"/>
<text text-anchor="middle" x="225.5" y="-25" font-family="Helvetica,sans-Serif" font-size="10.00">Ogre::TransformBaseReal</text>
</a>
</g>
</g>
<!-- Node0&#45;&gt;Node1 -->
<g id="edge489_Node000000_Node000001" class="edge">
<title>Node0&#45;&gt;Node1</title>
<g id="a_edge489_Node000000_Node000001"><a xlink:title=" ">
<path fill="none" stroke="#63b8ff" d="M129.43,-27.5C137.88,-27.5 146.52,-27.5 154.98,-27.5"/>
<polygon fill="#63b8ff" stroke="#63b8ff" points="129.24,-24 119.24,-27.5 129.24,-31 129.24,-24"/>
</a>
</g>
</g>
<!-- Node2 -->
<g id="Node000002" class="node">
<title>Node2</title>
<g id="a_Node000002"><a xlink:href="class_ogre_1_1_affine3.html" target="_top" xlink:title="Transform specialization for 3D Affine &#45; encapsulating a 3x4 Matrix.">
<polygon fill="white" stroke="#666666" points="413.5,-56 333.5,-56 333.5,-37 413.5,-37 413.5,-56"/>
<text text-anchor="middle" x="373.5" y="-44" font-family="Helvetica,sans-Serif" font-size="10.00">Ogre::Affine3</text>
</a>
</g>
</g>
<!-- Node1&#45;&gt;Node2 -->
<g id="edge490_Node000001_Node000002" class="edge">
<title>Node1&#45;&gt;Node2</title>
<g id="a_edge490_Node000001_Node000002"><a xlink:title=" ">
<path fill="none" stroke="#63b8ff" d="M306.26,-37.88C315.62,-39.1 324.83,-40.3 333.27,-41.39"/>
<polygon fill="#63b8ff" stroke="#63b8ff" points="306.45,-34.37 296.08,-36.55 305.54,-41.32 306.45,-34.37"/>
</a>
</g>
</g>
<!-- Node3 -->
<g id="Node000003" class="node">
<title>Node3</title>
<g id="a_Node000003"><a xlink:href="class_ogre_1_1_matrix4.html" target="_top" xlink:title="Transform specialization for projective &#45; encapsulating a 4x4 Matrix.">
<polygon fill="white" stroke="#666666" points="415,-19 332,-19 332,0 415,0 415,-19"/>
<text text-anchor="middle" x="373.5" y="-7" font-family="Helvetica,sans-Serif" font-size="10.00">Ogre::Matrix4</text>
</a>
</g>
</g>
<!-- Node1&#45;&gt;Node3 -->
<g id="edge491_Node000001_Node000003" class="edge">
<title>Node1&#45;&gt;Node3</title>
<g id="a_edge491_Node000001_Node000003"><a xlink:title=" ">
<path fill="none" stroke="#63b8ff" d="M306.08,-17.69C314.92,-16.6 323.62,-15.53 331.67,-14.53"/>
<polygon fill="#63b8ff" stroke="#63b8ff" points="305.58,-14.22 296.08,-18.92 306.43,-21.17 305.58,-14.22"/>
</a>
</g>
</g>
</g>
</svg>
