<?xml version="1.0" encoding="UTF-8" standalone="no"?>
<!DOCTYPE svg PUBLIC "-//W3C//DTD SVG 1.1//EN"
 "http://www.w3.org/Graphics/SVG/1.1/DTD/svg11.dtd">
<!-- Generated by graphviz version 2.43.0 (0)
 -->
<!-- Title: Graphical Class Hierarchy Pages: 1 -->
<svg width="717pt" height="273pt"
 viewBox="0.00 0.00 717.00 272.50" xmlns="http://www.w3.org/2000/svg" xmlns:xlink="http://www.w3.org/1999/xlink">
<g id="graph0" class="graph" transform="scale(1 1) rotate(0) translate(4 268.5)">
<title>Graphical Class Hierarchy</title>
<!-- Node0 -->
<g id="Node000000" class="node">
<title>Node0</title>
<g id="a_Node000000"><a xlink:title=" ">
<polygon fill="#e0e0e0" stroke="#999999" points="121,-209.5 55,-209.5 55,-190.5 121,-190.5 121,-209.5"/>
<text text-anchor="middle" x="88" y="-197.5" font-family="Helvetica,sans-Serif" font-size="10.00">NodeAlloc</text>
</a>
</g>
</g>
<!-- Node1 -->
<g id="Node000001" class="node">
<title>Node1</title>
<g id="a_Node000001"><a xlink:href="class_ogre_1_1_bsp_node.html" target="_top" xlink:title="Encapsulates a node in a BSP tree.">
<polygon fill="white" stroke="#666666" points="337.5,-246.5 248.5,-246.5 248.5,-227.5 337.5,-227.5 337.5,-246.5"/>
<text text-anchor="middle" x="293" y="-234.5" font-family="Helvetica,sans-Serif" font-size="10.00">Ogre::BspNode</text>
</a>
</g>
</g>
<!-- Node0&#45;&gt;Node1 -->
<g id="edge345_Node000000_Node000001" class="edge">
<title>Node0&#45;&gt;Node1</title>
<g id="a_edge345_Node000000_Node000001"><a xlink:title=" ">
<path fill="none" stroke="#63b8ff" d="M131.32,-207.71C165.58,-213.96 213.65,-222.72 248.28,-229.03"/>
<polygon fill="#63b8ff" stroke="#63b8ff" points="131.63,-204.21 121.17,-205.86 130.38,-211.1 131.63,-204.21"/>
</a>
</g>
</g>
<!-- Node2 -->
<g id="Node000002" class="node">
<title>Node2</title>
<g id="a_Node000002"><a xlink:href="class_ogre_1_1_node.html" target="_top" xlink:title="Class representing a general&#45;purpose node an articulated scene graph.">
<polygon fill="white" stroke="#666666" points="328.5,-209.5 257.5,-209.5 257.5,-190.5 328.5,-190.5 328.5,-209.5"/>
<text text-anchor="middle" x="293" y="-197.5" font-family="Helvetica,sans-Serif" font-size="10.00">Ogre::Node</text>
</a>
</g>
</g>
<!-- Node0&#45;&gt;Node2 -->
<g id="edge346_Node000000_Node000002" class="edge">
<title>Node0&#45;&gt;Node2</title>
<g id="a_edge346_Node000000_Node000002"><a xlink:title=" ">
<path fill="none" stroke="#63b8ff" d="M131.23,-200C168.57,-200 222.37,-200 257.27,-200"/>
<polygon fill="#63b8ff" stroke="#63b8ff" points="131.17,-196.5 121.17,-200 131.17,-203.5 131.17,-196.5"/>
</a>
</g>
</g>
<!-- Node9 -->
<g id="Node000009" class="node">
<title>Node9</title>
<g id="a_Node000009"><a xlink:href="class_ogre_1_1_octree.html" target="_top" xlink:title="Octree datastructure for managing scene nodes.">
<polygon fill="white" stroke="#666666" points="332,-172.5 254,-172.5 254,-153.5 332,-153.5 332,-172.5"/>
<text text-anchor="middle" x="293" y="-160.5" font-family="Helvetica,sans-Serif" font-size="10.00">Ogre::Octree</text>
</a>
</g>
</g>
<!-- Node0&#45;&gt;Node9 -->
<g id="edge353_Node000000_Node000009" class="edge">
<title>Node0&#45;&gt;Node9</title>
<g id="a_edge353_Node000000_Node000009"><a xlink:title=" ">
<path fill="none" stroke="#63b8ff" d="M131.38,-192.28C167.48,-185.7 218.89,-176.32 253.76,-169.97"/>
<polygon fill="#63b8ff" stroke="#63b8ff" points="130.38,-188.9 121.17,-194.14 131.63,-195.79 130.38,-188.9"/>
</a>
</g>
</g>
<!-- Node3 -->
<g id="Node000003" class="node">
<title>Node3</title>
<g id="a_Node000003"><a xlink:href="class_ogre_1_1_bone.html" target="_top" xlink:title="A bone in a skeleton.">
<polygon fill="white" stroke="#666666" points="517,-264.5 446,-264.5 446,-245.5 517,-245.5 517,-264.5"/>
<text text-anchor="middle" x="481.5" y="-252.5" font-family="Helvetica,sans-Serif" font-size="10.00">Ogre::Bone</text>
</a>
</g>
</g>
<!-- Node2&#45;&gt;Node3 -->
<g id="edge347_Node000002_Node000003" class="edge">
<title>Node2&#45;&gt;Node3</title>
<g id="a_edge347_Node000002_Node000003"><a xlink:title=" ">
<path fill="none" stroke="#63b8ff" d="M338.72,-209.85C350.27,-212.6 362.64,-215.74 374,-219 401.76,-226.97 433.02,-237.76 454.45,-245.44"/>
<polygon fill="#63b8ff" stroke="#63b8ff" points="339.37,-206.4 328.83,-207.53 337.77,-213.22 339.37,-206.4"/>
</a>
</g>
</g>
<!-- Node5 -->
<g id="Node000005" class="node">
<title>Node5</title>
<g id="a_Node000005"><a xlink:href="class_ogre_1_1_scene_node.html" target="_top" xlink:title="Class representing a node in the scene graph.">
<polygon fill="white" stroke="#666666" points="532,-209.5 431,-209.5 431,-190.5 532,-190.5 532,-209.5"/>
<text text-anchor="middle" x="481.5" y="-197.5" font-family="Helvetica,sans-Serif" font-size="10.00">Ogre::SceneNode</text>
</a>
</g>
</g>
<!-- Node2&#45;&gt;Node5 -->
<g id="edge349_Node000002_Node000005" class="edge">
<title>Node2&#45;&gt;Node5</title>
<g id="a_edge349_Node000002_Node000005"><a xlink:title=" ">
<path fill="none" stroke="#63b8ff" d="M338.87,-200C366.63,-200 402.32,-200 430.92,-200"/>
<polygon fill="#63b8ff" stroke="#63b8ff" points="338.64,-196.5 328.64,-200 338.64,-203.5 338.64,-196.5"/>
</a>
</g>
</g>
<!-- Node4 -->
<g id="Node000004" class="node">
<title>Node4</title>
<g id="a_Node000004"><a xlink:href="class_ogre_1_1_tag_point.html" target="_top" xlink:title="A tagged point on a skeleton, which can be used to attach entities to on specific other entities.">
<polygon fill="white" stroke="#666666" points="692.5,-264.5 605.5,-264.5 605.5,-245.5 692.5,-245.5 692.5,-264.5"/>
<text text-anchor="middle" x="649" y="-252.5" font-family="Helvetica,sans-Serif" font-size="10.00">Ogre::TagPoint</text>
</a>
</g>
</g>
<!-- Node3&#45;&gt;Node4 -->
<g id="edge348_Node000003_Node000004" class="edge">
<title>Node3&#45;&gt;Node4</title>
<g id="a_edge348_Node000003_Node000004"><a xlink:title=" ">
<path fill="none" stroke="#63b8ff" d="M527.24,-255C551.55,-255 581.45,-255 605.41,-255"/>
<polygon fill="#63b8ff" stroke="#63b8ff" points="527.19,-251.5 517.19,-255 527.19,-258.5 527.19,-251.5"/>
</a>
</g>
</g>
<!-- Node6 -->
<g id="Node000006" class="node">
<title>Node6</title>
<g id="a_Node000006"><a xlink:href="class_ogre_1_1_bsp_scene_node.html" target="_top" xlink:title="Specialisation of SceneNode for the BspSceneManager.">
<polygon fill="white" stroke="#666666" points="708.5,-227.5 589.5,-227.5 589.5,-208.5 708.5,-208.5 708.5,-227.5"/>
<text text-anchor="middle" x="649" y="-215.5" font-family="Helvetica,sans-Serif" font-size="10.00">Ogre::BspSceneNode</text>
</a>
</g>
</g>
<!-- Node5&#45;&gt;Node6 -->
<g id="edge350_Node000005_Node000006" class="edge">
<title>Node5&#45;&gt;Node6</title>
<g id="a_edge350_Node000005_Node000006"><a xlink:title=" ">
<path fill="none" stroke="#63b8ff" d="M542.51,-206.53C557.77,-208.19 574.15,-209.97 589.34,-211.62"/>
<polygon fill="#63b8ff" stroke="#63b8ff" points="542.48,-203 532.16,-205.4 541.72,-209.96 542.48,-203"/>
</a>
</g>
</g>
<!-- Node7 -->
<g id="Node000007" class="node">
<title>Node7</title>
<g id="a_Node000007"><a xlink:href="class_ogre_1_1_octree_node.html" target="_top" xlink:title="Specialized SceneNode that is customized for working within an Octree.">
<polygon fill="white" stroke="#666666" points="701,-190.5 597,-190.5 597,-171.5 701,-171.5 701,-190.5"/>
<text text-anchor="middle" x="649" y="-178.5" font-family="Helvetica,sans-Serif" font-size="10.00">Ogre::OctreeNode</text>
</a>
</g>
</g>
<!-- Node5&#45;&gt;Node7 -->
<g id="edge351_Node000005_Node000007" class="edge">
<title>Node5&#45;&gt;Node7</title>
<g id="a_edge351_Node000005_Node000007"><a xlink:title=" ">
<path fill="none" stroke="#63b8ff" d="M542.21,-193.14C560.14,-191.09 579.63,-188.85 596.95,-186.86"/>
<polygon fill="#63b8ff" stroke="#63b8ff" points="541.69,-189.68 532.16,-194.3 542.49,-196.64 541.69,-189.68"/>
</a>
</g>
</g>
<!-- Node8 -->
<g id="Node000008" class="node">
<title>Node8</title>
<g id="a_Node000008"><a xlink:href="class_ogre_1_1_p_c_z_scene_node.html" target="_top" xlink:title="The PCZSceneNode is an extension used to store zone information and provide additional functionality ...">
<polygon fill="white" stroke="#666666" points="709,-153.5 589,-153.5 589,-134.5 709,-134.5 709,-153.5"/>
<text text-anchor="middle" x="649" y="-141.5" font-family="Helvetica,sans-Serif" font-size="10.00">Ogre::PCZSceneNode</text>
</a>
</g>
</g>
<!-- Node5&#45;&gt;Node8 -->
<g id="edge352_Node000005_Node000008" class="edge">
<title>Node5&#45;&gt;Node8</title>
<g id="a_edge352_Node000005_Node000008"><a xlink:title=" ">
<path fill="none" stroke="#63b8ff" d="M536.66,-187.57C542.23,-185.87 547.77,-184.02 553,-182 569.88,-175.49 572.33,-170.02 589,-163 597.23,-159.53 606.33,-156.32 614.86,-153.55"/>
<polygon fill="#63b8ff" stroke="#63b8ff" points="535.28,-184.32 526.63,-190.44 537.2,-191.05 535.28,-184.32"/>
</a>
</g>
</g>
<!-- Node10 -->
<g id="Node000010" class="node">
<title>Node10</title>
<g id="a_Node000010"><a xlink:title=" ">
<polygon fill="#e0e0e0" stroke="#999999" points="156.5,-98.5 19.5,-98.5 19.5,-79.5 156.5,-79.5 156.5,-98.5"/>
<text text-anchor="middle" x="88" y="-86.5" font-family="Helvetica,sans-Serif" font-size="10.00">SceneCtlAllocatedObject</text>
</a>
</g>
</g>
<!-- Node10&#45;&gt;Node9 -->
<g id="edge354_Node000010_Node000009" class="edge">
<title>Node10&#45;&gt;Node9</title>
<g id="a_edge354_Node000010_Node000009"><a xlink:title=" ">
<path fill="none" stroke="#63b8ff" d="M115.89,-103.2C140.39,-115.65 177.84,-133.52 212,-145 225.36,-149.49 240.35,-153.2 253.71,-156.06"/>
<polygon fill="#63b8ff" stroke="#63b8ff" points="117.36,-100.01 106.86,-98.55 114.15,-106.24 117.36,-100.01"/>
</a>
</g>
</g>
<!-- Node11 -->
<g id="Node000011" class="node">
<title>Node11</title>
<g id="a_Node000011"><a xlink:href="class_ogre_1_1_p_c_zone.html" target="_top" xlink:title="Portal&#45;Connected Zone datastructure for managing scene nodes.">
<polygon fill="white" stroke="#666666" points="334.5,-135.5 251.5,-135.5 251.5,-116.5 334.5,-116.5 334.5,-135.5"/>
<text text-anchor="middle" x="293" y="-123.5" font-family="Helvetica,sans-Serif" font-size="10.00">Ogre::PCZone</text>
</a>
</g>
</g>
<!-- Node10&#45;&gt;Node11 -->
<g id="edge355_Node000010_Node000011" class="edge">
<title>Node10&#45;&gt;Node11</title>
<g id="a_edge355_Node000010_Node000011"><a xlink:title=" ">
<path fill="none" stroke="#63b8ff" d="M151.17,-100.33C183.76,-106.27 222.75,-113.38 251.43,-118.61"/>
<polygon fill="#63b8ff" stroke="#63b8ff" points="151.74,-96.88 141.28,-98.53 150.49,-103.76 151.74,-96.88"/>
</a>
</g>
</g>
<!-- Node14 -->
<g id="Node000014" class="node">
<title>Node14</title>
<g id="a_Node000014"><a xlink:href="class_ogre_1_1_p_c_zone_factory.html" target="_top" xlink:title="Factory for PCZones.">
<polygon fill="white" stroke="#666666" points="352.5,-98.5 233.5,-98.5 233.5,-79.5 352.5,-79.5 352.5,-98.5"/>
<text text-anchor="middle" x="293" y="-86.5" font-family="Helvetica,sans-Serif" font-size="10.00">Ogre::PCZoneFactory</text>
</a>
</g>
</g>
<!-- Node10&#45;&gt;Node14 -->
<g id="edge358_Node000010_Node000014" class="edge">
<title>Node10&#45;&gt;Node14</title>
<g id="a_edge358_Node000010_Node000014"><a xlink:title=" ">
<path fill="none" stroke="#63b8ff" d="M166.62,-89C188.72,-89 212.42,-89 233.21,-89"/>
<polygon fill="#63b8ff" stroke="#63b8ff" points="166.6,-85.5 156.6,-89 166.6,-92.5 166.6,-85.5"/>
</a>
</g>
</g>
<!-- Node17 -->
<g id="Node000017" class="node">
<title>Node17</title>
<g id="a_Node000017"><a xlink:href="class_ogre_1_1_p_c_zone_factory_manager.html" target="_top" xlink:title=" ">
<polygon fill="white" stroke="#666666" points="374,-24.5 212,-24.5 212,-5.5 374,-5.5 374,-24.5"/>
<text text-anchor="middle" x="293" y="-12.5" font-family="Helvetica,sans-Serif" font-size="10.00">Ogre::PCZoneFactoryManager</text>
</a>
</g>
</g>
<!-- Node10&#45;&gt;Node17 -->
<g id="edge361_Node000010_Node000017" class="edge">
<title>Node10&#45;&gt;Node17</title>
<g id="a_edge361_Node000010_Node000017"><a xlink:title=" ">
<path fill="none" stroke="#63b8ff" d="M116.81,-74.76C141.35,-62.63 178.36,-45.4 212,-34 222.55,-30.43 234.09,-27.27 245.05,-24.6"/>
<polygon fill="#63b8ff" stroke="#63b8ff" points="115.11,-71.69 107.73,-79.29 118.24,-77.96 115.11,-71.69"/>
</a>
</g>
</g>
<!-- Node19 -->
<g id="Node000019" class="node">
<title>Node19</title>
<g id="a_Node000019"><a xlink:href="class_ogre_1_1_zone_data.html" target="_top" xlink:title=" ">
<polygon fill="white" stroke="#666666" points="340,-61.5 246,-61.5 246,-42.5 340,-42.5 340,-61.5"/>
<text text-anchor="middle" x="293" y="-49.5" font-family="Helvetica,sans-Serif" font-size="10.00">Ogre::ZoneData</text>
</a>
</g>
</g>
<!-- Node10&#45;&gt;Node19 -->
<g id="edge362_Node000010_Node000019" class="edge">
<title>Node10&#45;&gt;Node19</title>
<g id="a_edge362_Node000010_Node000019"><a xlink:title=" ">
<path fill="none" stroke="#63b8ff" d="M151.37,-77.63C181.83,-72.08 217.83,-65.52 245.78,-60.42"/>
<polygon fill="#63b8ff" stroke="#63b8ff" points="150.49,-74.24 141.28,-79.47 151.74,-81.12 150.49,-74.24"/>
</a>
</g>
</g>
<!-- Node12 -->
<g id="Node000012" class="node">
<title>Node12</title>
<g id="a_Node000012"><a xlink:href="class_ogre_1_1_default_zone.html" target="_top" xlink:title=" ">
<polygon fill="white" stroke="#666666" points="535,-172.5 428,-172.5 428,-153.5 535,-153.5 535,-172.5"/>
<text text-anchor="middle" x="481.5" y="-160.5" font-family="Helvetica,sans-Serif" font-size="10.00">Ogre::DefaultZone</text>
</a>
</g>
</g>
<!-- Node11&#45;&gt;Node12 -->
<g id="edge356_Node000011_Node000012" class="edge">
<title>Node11&#45;&gt;Node12</title>
<g id="a_edge356_Node000011_Node000012"><a xlink:title=" ">
<path fill="none" stroke="#63b8ff" d="M345.05,-136.13C372.29,-141.53 405.62,-148.15 432.41,-153.46"/>
<polygon fill="#63b8ff" stroke="#63b8ff" points="345.42,-132.63 334.93,-134.12 344.06,-139.5 345.42,-132.63"/>
</a>
</g>
</g>
<!-- Node13 -->
<g id="Node000013" class="node">
<title>Node13</title>
<g id="a_Node000013"><a xlink:href="class_ogre_1_1_octree_zone.html" target="_top" xlink:title=" ">
<polygon fill="white" stroke="#666666" points="533,-135.5 430,-135.5 430,-116.5 533,-116.5 533,-135.5"/>
<text text-anchor="middle" x="481.5" y="-123.5" font-family="Helvetica,sans-Serif" font-size="10.00">Ogre::OctreeZone</text>
</a>
</g>
</g>
<!-- Node11&#45;&gt;Node13 -->
<g id="edge357_Node000011_Node000013" class="edge">
<title>Node11&#45;&gt;Node13</title>
<g id="a_edge357_Node000011_Node000013"><a xlink:title=" ">
<path fill="none" stroke="#63b8ff" d="M345.08,-126C371.4,-126 403.4,-126 429.68,-126"/>
<polygon fill="#63b8ff" stroke="#63b8ff" points="344.93,-122.5 334.93,-126 344.93,-129.5 344.93,-122.5"/>
</a>
</g>
</g>
<!-- Node15 -->
<g id="Node000015" class="node">
<title>Node15</title>
<g id="a_Node000015"><a xlink:href="class_ogre_1_1_default_zone_factory.html" target="_top" xlink:title=" ">
<polygon fill="white" stroke="#666666" points="553,-98.5 410,-98.5 410,-79.5 553,-79.5 553,-98.5"/>
<text text-anchor="middle" x="481.5" y="-86.5" font-family="Helvetica,sans-Serif" font-size="10.00">Ogre::DefaultZoneFactory</text>
</a>
</g>
</g>
<!-- Node14&#45;&gt;Node15 -->
<g id="edge359_Node000014_Node000015" class="edge">
<title>Node14&#45;&gt;Node15</title>
<g id="a_edge359_Node000014_Node000015"><a xlink:title=" ">
<path fill="none" stroke="#63b8ff" d="M363.16,-89C378.43,-89 394.62,-89 409.95,-89"/>
<polygon fill="#63b8ff" stroke="#63b8ff" points="362.75,-85.5 352.75,-89 362.75,-92.5 362.75,-85.5"/>
</a>
</g>
</g>
<!-- Node16 -->
<g id="Node000016" class="node">
<title>Node16</title>
<g id="a_Node000016"><a xlink:href="class_ogre_1_1_octree_zone_factory.html" target="_top" xlink:title="Factory for OctreeZone.">
<polygon fill="white" stroke="#666666" points="551,-61.5 412,-61.5 412,-42.5 551,-42.5 551,-61.5"/>
<text text-anchor="middle" x="481.5" y="-49.5" font-family="Helvetica,sans-Serif" font-size="10.00">Ogre::OctreeZoneFactory</text>
</a>
</g>
</g>
<!-- Node14&#45;&gt;Node16 -->
<g id="edge360_Node000014_Node000016" class="edge">
<title>Node14&#45;&gt;Node16</title>
<g id="a_edge360_Node000014_Node000016"><a xlink:title=" ">
<path fill="none" stroke="#63b8ff" d="M352.05,-77.48C377.82,-72.37 407.8,-66.42 432.31,-61.56"/>
<polygon fill="#63b8ff" stroke="#63b8ff" points="351.16,-74.09 342.03,-79.47 352.52,-80.96 351.16,-74.09"/>
</a>
</g>
</g>
<!-- Node20 -->
<g id="Node000020" class="node">
<title>Node20</title>
<g id="a_Node000020"><a xlink:href="class_ogre_1_1_octree_zone_data.html" target="_top" xlink:title=" ">
<polygon fill="white" stroke="#666666" points="544.5,-24.5 418.5,-24.5 418.5,-5.5 544.5,-5.5 544.5,-24.5"/>
<text text-anchor="middle" x="481.5" y="-12.5" font-family="Helvetica,sans-Serif" font-size="10.00">Ogre::OctreeZoneData</text>
</a>
</g>
</g>
<!-- Node19&#45;&gt;Node20 -->
<g id="edge363_Node000019_Node000020" class="edge">
<title>Node19&#45;&gt;Node20</title>
<g id="a_edge363_Node000019_Node000020"><a xlink:title=" ">
<path fill="none" stroke="#63b8ff" d="M350.25,-40.84C376.43,-35.65 407.24,-29.53 432.33,-24.56"/>
<polygon fill="#63b8ff" stroke="#63b8ff" points="349.23,-37.47 340.1,-42.85 350.59,-44.34 349.23,-37.47"/>
</a>
</g>
</g>
<!-- Node18 -->
<g id="Node000018" class="node">
<title>Node18</title>
<g id="a_Node000018"><a xlink:href="class_ogre_1_1_singleton.html" target="_top" xlink:title=" ">
<polygon fill="white" stroke="#666666" points="176,-30 0,-30 0,0 176,0 176,-30"/>
<text text-anchor="start" x="8" y="-18" font-family="Helvetica,sans-Serif" font-size="10.00">Ogre::Singleton&lt; PCZoneFactory</text>
<text text-anchor="middle" x="88" y="-7" font-family="Helvetica,sans-Serif" font-size="10.00">Manager &gt;</text>
</a>
</g>
</g>
<!-- Node18&#45;&gt;Node17 -->
<g id="edge364_Node000018_Node000017" class="edge">
<title>Node18&#45;&gt;Node17</title>
<g id="a_edge364_Node000018_Node000017"><a xlink:title=" ">
<path fill="none" stroke="#63b8ff" d="M186.29,-15C194.85,-15 203.46,-15 211.86,-15"/>
<polygon fill="#63b8ff" stroke="#63b8ff" points="186.27,-11.5 176.27,-15 186.27,-18.5 186.27,-11.5"/>
</a>
</g>
</g>
</g>
</svg>
