<?xml version="1.0" encoding="UTF-8" standalone="no"?>
<!DOCTYPE svg PUBLIC "-//W3C//DTD SVG 1.1//EN"
 "http://www.w3.org/Graphics/SVG/1.1/DTD/svg11.dtd">
<!-- Generated by graphviz version 2.43.0 (0)
 -->
<!-- Title: Graphical Class Hierarchy Pages: 1 -->
<svg width="439pt" height="169pt"
 viewBox="0.00 0.00 439.00 168.50" xmlns="http://www.w3.org/2000/svg" xmlns:xlink="http://www.w3.org/1999/xlink">
<g id="graph0" class="graph" transform="scale(1 1) rotate(0) translate(4 164.5)">
<title>Graphical Class Hierarchy</title>
<!-- Node0 -->
<g id="Node000000" class="node">
<title>Node0</title>
<g id="a_Node000000"><a xlink:title=" ">
<polygon fill="#e0e0e0" stroke="#999999" points="76,-67.5 0,-67.5 0,-48.5 76,-48.5 76,-67.5"/>
<text text-anchor="middle" x="38" y="-55.5" font-family="Helvetica,sans-Serif" font-size="10.00">StreamAlloc</text>
</a>
</g>
</g>
<!-- Node1 -->
<g id="Node000001" class="node">
<title>Node1</title>
<g id="a_Node000001"><a xlink:href="class_ogre_1_1_data_stream.html" target="_top" xlink:title="General purpose class used for encapsulating the reading and writing of data.">
<polygon fill="white" stroke="#666666" points="227.5,-104.5 123.5,-104.5 123.5,-85.5 227.5,-85.5 227.5,-104.5"/>
<text text-anchor="middle" x="175.5" y="-92.5" font-family="Helvetica,sans-Serif" font-size="10.00">Ogre::DataStream</text>
</a>
</g>
</g>
<!-- Node0&#45;&gt;Node1 -->
<g id="edge645_Node000000_Node000001" class="edge">
<title>Node0&#45;&gt;Node1</title>
<g id="a_edge645_Node000000_Node000001"><a xlink:title=" ">
<path fill="none" stroke="#63b8ff" d="M83.64,-70.19C101.71,-75.12 122.27,-80.74 139.25,-85.38"/>
<polygon fill="#63b8ff" stroke="#63b8ff" points="84.46,-66.79 73.89,-67.53 82.62,-73.54 84.46,-66.79"/>
</a>
</g>
</g>
<!-- Node6 -->
<g id="Node000006" class="node">
<title>Node6</title>
<g id="a_Node000006"><a xlink:href="class_ogre_1_1_stream_serialiser.html" target="_top" xlink:title="Utility class providing helper methods for reading / writing structured data held in a DataStream.">
<polygon fill="white" stroke="#666666" points="239,-67.5 112,-67.5 112,-48.5 239,-48.5 239,-67.5"/>
<text text-anchor="middle" x="175.5" y="-55.5" font-family="Helvetica,sans-Serif" font-size="10.00">Ogre::StreamSerialiser</text>
</a>
</g>
</g>
<!-- Node0&#45;&gt;Node6 -->
<g id="edge650_Node000000_Node000006" class="edge">
<title>Node0&#45;&gt;Node6</title>
<g id="a_edge650_Node000000_Node000006"><a xlink:title=" ">
<path fill="none" stroke="#63b8ff" d="M86.26,-58C94.57,-58 103.33,-58 111.98,-58"/>
<polygon fill="#63b8ff" stroke="#63b8ff" points="86.03,-54.5 76.03,-58 86.03,-61.5 86.03,-54.5"/>
</a>
</g>
</g>
<!-- Node7 -->
<g id="Node000007" class="node">
<title>Node7</title>
<g id="a_Node000007"><a xlink:href="struct_ogre_1_1_stream_serialiser_1_1_chunk.html" target="_top" xlink:title="Definition of a chunk of data in a file.">
<polygon fill="white" stroke="#666666" points="239,-30 112,-30 112,0 239,0 239,-30"/>
<text text-anchor="start" x="120" y="-18" font-family="Helvetica,sans-Serif" font-size="10.00">Ogre::StreamSerialiser</text>
<text text-anchor="middle" x="175.5" y="-7" font-family="Helvetica,sans-Serif" font-size="10.00">::Chunk</text>
</a>
</g>
</g>
<!-- Node0&#45;&gt;Node7 -->
<g id="edge651_Node000000_Node000007" class="edge">
<title>Node0&#45;&gt;Node7</title>
<g id="a_edge651_Node000000_Node000007"><a xlink:title=" ">
<path fill="none" stroke="#63b8ff" d="M78.69,-45.41C93.89,-40.58 111.37,-35.03 127.21,-30.01"/>
<polygon fill="#63b8ff" stroke="#63b8ff" points="77.54,-42.1 69.07,-48.46 79.66,-48.77 77.54,-42.1"/>
</a>
</g>
</g>
<!-- Node2 -->
<g id="Node000002" class="node">
<title>Node2</title>
<g id="a_Node000002"><a xlink:href="class_ogre_1_1_deflate_stream.html" target="_top" xlink:title="Stream which compresses / uncompresses data using the &#39;deflate&#39; compression algorithm.">
<polygon fill="white" stroke="#666666" points="411.5,-160.5 294.5,-160.5 294.5,-141.5 411.5,-141.5 411.5,-160.5"/>
<text text-anchor="middle" x="353" y="-148.5" font-family="Helvetica,sans-Serif" font-size="10.00">Ogre::DeflateStream</text>
</a>
</g>
</g>
<!-- Node1&#45;&gt;Node2 -->
<g id="edge646_Node000001_Node000002" class="edge">
<title>Node1&#45;&gt;Node2</title>
<g id="a_edge646_Node000001_Node000002"><a xlink:title=" ">
<path fill="none" stroke="#63b8ff" d="M208.3,-108.56C227.4,-116.38 252.33,-126.01 275,-133 285.1,-136.11 296.09,-138.98 306.52,-141.47"/>
<polygon fill="#63b8ff" stroke="#63b8ff" points="209.46,-105.25 198.88,-104.66 206.78,-111.72 209.46,-105.25"/>
</a>
</g>
</g>
<!-- Node3 -->
<g id="Node000003" class="node">
<title>Node3</title>
<g id="a_Node000003"><a xlink:href="class_ogre_1_1_file_handle_data_stream.html" target="_top" xlink:title="Common subclass of DataStream for handling data from C&#45;style file handles.">
<polygon fill="white" stroke="#666666" points="430.5,-123.5 275.5,-123.5 275.5,-104.5 430.5,-104.5 430.5,-123.5"/>
<text text-anchor="middle" x="353" y="-111.5" font-family="Helvetica,sans-Serif" font-size="10.00">Ogre::FileHandleDataStream</text>
</a>
</g>
</g>
<!-- Node1&#45;&gt;Node3 -->
<g id="edge647_Node000001_Node000003" class="edge">
<title>Node1&#45;&gt;Node3</title>
<g id="a_edge647_Node000001_Node000003"><a xlink:title=" ">
<path fill="none" stroke="#63b8ff" d="M237.72,-101.63C249.83,-102.94 262.7,-104.33 275.26,-105.69"/>
<polygon fill="#63b8ff" stroke="#63b8ff" points="238.05,-98.14 227.73,-100.55 237.3,-105.1 238.05,-98.14"/>
</a>
</g>
</g>
<!-- Node4 -->
<g id="Node000004" class="node">
<title>Node4</title>
<g id="a_Node000004"><a xlink:href="class_ogre_1_1_file_stream_data_stream.html" target="_top" xlink:title="Common subclass of DataStream for handling data from std::basic_istream.">
<polygon fill="white" stroke="#666666" points="431,-86.5 275,-86.5 275,-67.5 431,-67.5 431,-86.5"/>
<text text-anchor="middle" x="353" y="-74.5" font-family="Helvetica,sans-Serif" font-size="10.00">Ogre::FileStreamDataStream</text>
</a>
</g>
</g>
<!-- Node1&#45;&gt;Node4 -->
<g id="edge648_Node000001_Node000004" class="edge">
<title>Node1&#45;&gt;Node4</title>
<g id="a_edge648_Node000001_Node000004"><a xlink:title=" ">
<path fill="none" stroke="#63b8ff" d="M238.01,-88.69C249.94,-87.47 262.58,-86.17 274.93,-84.9"/>
<polygon fill="#63b8ff" stroke="#63b8ff" points="237.32,-85.24 227.73,-89.75 238.04,-92.21 237.32,-85.24"/>
</a>
</g>
</g>
<!-- Node5 -->
<g id="Node000005" class="node">
<title>Node5</title>
<g id="a_Node000005"><a xlink:href="class_ogre_1_1_memory_data_stream.html" target="_top" xlink:title="Common subclass of DataStream for handling data from chunks of memory.">
<polygon fill="white" stroke="#666666" points="425.5,-49.5 280.5,-49.5 280.5,-30.5 425.5,-30.5 425.5,-49.5"/>
<text text-anchor="middle" x="353" y="-37.5" font-family="Helvetica,sans-Serif" font-size="10.00">Ogre::MemoryDataStream</text>
</a>
</g>
</g>
<!-- Node1&#45;&gt;Node5 -->
<g id="edge649_Node000001_Node000005" class="edge">
<title>Node1&#45;&gt;Node5</title>
<g id="a_edge649_Node000001_Node000005"><a xlink:title=" ">
<path fill="none" stroke="#63b8ff" d="M224.04,-82.42C229.14,-80.74 234.21,-78.93 239,-77 255.78,-70.24 258.05,-64.33 275,-58 283.74,-54.73 293.28,-51.93 302.56,-49.58"/>
<polygon fill="#63b8ff" stroke="#63b8ff" points="222.77,-79.15 214.27,-85.48 224.86,-85.83 222.77,-79.15"/>
</a>
</g>
</g>
</g>
</svg>
