<?xml version="1.0" encoding="UTF-8" standalone="no"?>
<!DOCTYPE svg PUBLIC "-//W3C//DTD SVG 1.1//EN"
 "http://www.w3.org/Graphics/SVG/1.1/DTD/svg11.dtd">
<!-- Generated by graphviz version 2.43.0 (0)
 -->
<!-- Title: Graphical Class Hierarchy Pages: 1 -->
<svg width="493pt" height="138pt"
 viewBox="0.00 0.00 493.00 138.00" xmlns="http://www.w3.org/2000/svg" xmlns:xlink="http://www.w3.org/1999/xlink">
<g id="graph0" class="graph" transform="scale(1 1) rotate(0) translate(4 134)">
<title>Graphical Class Hierarchy</title>
<!-- Node0 -->
<g id="Node000000" class="node">
<title>Node0</title>
<g id="a_Node000000"><a xlink:title=" ">
<polygon fill="#e0e0e0" stroke="#999999" points="86,-92 0,-92 0,-73 86,-73 86,-92"/>
<text text-anchor="middle" x="43" y="-80" font-family="Helvetica,sans-Serif" font-size="10.00">SerializerAlloc</text>
</a>
</g>
</g>
<!-- Node1 -->
<g id="Node000001" class="node">
<title>Node1</title>
<g id="a_Node000001"><a xlink:href="class_ogre_1_1_material_serializer.html" target="_top" xlink:title="Class for serializing Materials to a .material script.">
<polygon fill="white" stroke="#666666" points="254,-111 122,-111 122,-92 254,-92 254,-111"/>
<text text-anchor="middle" x="188" y="-99" font-family="Helvetica,sans-Serif" font-size="10.00">Ogre::MaterialSerializer</text>
</a>
</g>
</g>
<!-- Node0&#45;&gt;Node1 -->
<g id="edge602_Node000000_Node000001" class="edge">
<title>Node0&#45;&gt;Node1</title>
<g id="a_edge602_Node000000_Node000001"><a xlink:title=" ">
<path fill="none" stroke="#63b8ff" d="M96.11,-89.42C104.47,-90.53 113.21,-91.7 121.83,-92.84"/>
<polygon fill="#63b8ff" stroke="#63b8ff" points="96.51,-85.95 86.13,-88.1 95.58,-92.88 96.51,-85.95"/>
</a>
</g>
</g>
<!-- Node2 -->
<g id="Node000002" class="node">
<title>Node2</title>
<g id="a_Node000002"><a xlink:href="class_ogre_1_1_serializer.html" target="_top" xlink:title="Generic class for serialising data to / from binary stream&#45;based files.">
<polygon fill="white" stroke="#666666" points="234,-74 142,-74 142,-55 234,-55 234,-74"/>
<text text-anchor="middle" x="188" y="-62" font-family="Helvetica,sans-Serif" font-size="10.00">Ogre::Serializer</text>
</a>
</g>
</g>
<!-- Node0&#45;&gt;Node2 -->
<g id="edge603_Node000000_Node000002" class="edge">
<title>Node0&#45;&gt;Node2</title>
<g id="a_edge603_Node000000_Node000002"><a xlink:title=" ">
<path fill="none" stroke="#63b8ff" d="M96.27,-75.92C111.24,-74.04 127.43,-72 141.93,-70.17"/>
<polygon fill="#63b8ff" stroke="#63b8ff" points="95.62,-72.48 86.13,-77.2 96.49,-79.42 95.62,-72.48"/>
</a>
</g>
</g>
<!-- Node3 -->
<g id="Node000003" class="node">
<title>Node3</title>
<g id="a_Node000003"><a xlink:href="class_ogre_1_1_gpu_named_constants_serializer.html" target="_top" xlink:title="Simple class for loading / saving GpuNamedConstants.">
<polygon fill="white" stroke="#666666" points="485,-130 290,-130 290,-111 485,-111 485,-130"/>
<text text-anchor="middle" x="387.5" y="-118" font-family="Helvetica,sans-Serif" font-size="10.00">Ogre::GpuNamedConstantsSerializer</text>
</a>
</g>
</g>
<!-- Node2&#45;&gt;Node3 -->
<g id="edge604_Node000002_Node000003" class="edge">
<title>Node2&#45;&gt;Node3</title>
<g id="a_edge604_Node000002_Node000003"><a xlink:title=" ">
<path fill="none" stroke="#63b8ff" d="M236.51,-77.18C242.46,-79.12 248.42,-81.24 254,-83.5 270.77,-90.29 272.91,-96.55 290,-102.5 299.74,-105.89 310.26,-108.68 320.66,-110.97"/>
<polygon fill="#63b8ff" stroke="#63b8ff" points="237.15,-73.71 226.56,-74.08 235.07,-80.4 237.15,-73.71"/>
</a>
</g>
</g>
<!-- Node4 -->
<g id="Node000004" class="node">
<title>Node4</title>
<g id="a_Node000004"><a xlink:href="class_ogre_1_1_lod_config_serializer.html" target="_top" xlink:title=" ">
<polygon fill="white" stroke="#666666" points="457.5,-93 317.5,-93 317.5,-74 457.5,-74 457.5,-93"/>
<text text-anchor="middle" x="387.5" y="-81" font-family="Helvetica,sans-Serif" font-size="10.00">Ogre::LodConfigSerializer</text>
</a>
</g>
</g>
<!-- Node2&#45;&gt;Node4 -->
<g id="edge605_Node000002_Node000004" class="edge">
<title>Node2&#45;&gt;Node4</title>
<g id="a_edge605_Node000002_Node000004"><a xlink:title=" ">
<path fill="none" stroke="#63b8ff" d="M244.42,-69.83C267.07,-72.01 293.5,-74.55 317.38,-76.85"/>
<polygon fill="#63b8ff" stroke="#63b8ff" points="244.6,-66.33 234.31,-68.86 243.93,-73.3 244.6,-66.33"/>
</a>
</g>
</g>
<!-- Node5 -->
<g id="Node000005" class="node">
<title>Node5</title>
<g id="a_Node000005"><a xlink:href="class_ogre_1_1_mesh_serializer.html" target="_top" xlink:title="Class for serialising mesh data to/from an OGRE .mesh file.">
<polygon fill="white" stroke="#666666" points="446.5,-56 328.5,-56 328.5,-37 446.5,-37 446.5,-56"/>
<text text-anchor="middle" x="387.5" y="-44" font-family="Helvetica,sans-Serif" font-size="10.00">Ogre::MeshSerializer</text>
</a>
</g>
</g>
<!-- Node2&#45;&gt;Node5 -->
<g id="edge606_Node000002_Node000005" class="edge">
<title>Node2&#45;&gt;Node5</title>
<g id="a_edge606_Node000002_Node000005"><a xlink:title=" ">
<path fill="none" stroke="#63b8ff" d="M244.43,-59.45C270.58,-57.07 301.78,-54.22 328.27,-51.81"/>
<polygon fill="#63b8ff" stroke="#63b8ff" points="243.95,-55.98 234.31,-60.37 244.59,-62.95 243.95,-55.98"/>
</a>
</g>
</g>
<!-- Node6 -->
<g id="Node000006" class="node">
<title>Node6</title>
<g id="a_Node000006"><a xlink:href="class_ogre_1_1_skeleton_serializer.html" target="_top" xlink:title="Class for serialising skeleton data to/from an OGRE .skeleton file.">
<polygon fill="white" stroke="#666666" points="454.5,-19 320.5,-19 320.5,0 454.5,0 454.5,-19"/>
<text text-anchor="middle" x="387.5" y="-7" font-family="Helvetica,sans-Serif" font-size="10.00">Ogre::SkeletonSerializer</text>
</a>
</g>
</g>
<!-- Node2&#45;&gt;Node6 -->
<g id="edge607_Node000002_Node000006" class="edge">
<title>Node2&#45;&gt;Node6</title>
<g id="a_edge607_Node000002_Node000006"><a xlink:title=" ">
<path fill="none" stroke="#63b8ff" d="M222.12,-51.29C241.65,-43.86 266.97,-34.83 290,-28.5 303.09,-24.9 317.35,-21.7 330.8,-19.01"/>
<polygon fill="#63b8ff" stroke="#63b8ff" points="220.83,-48.04 212.76,-54.9 223.35,-54.57 220.83,-48.04"/>
</a>
</g>
</g>
</g>
</svg>
