<?xml version="1.0" encoding="UTF-8" standalone="no"?><svg xmlns="http://www.w3.org/2000/svg" xmlns:xlink="http://www.w3.org/1999/xlink" contentScriptType="application/ecmascript" contentStyleType="text/css" height="758px" preserveAspectRatio="none" style="width:747px;height:758px;" version="1.1" viewBox="0 0 747 758" width="747px" zoomAndPan="magnify"><defs><filter height="300%" id="f1qjybv0jj1fe0" width="300%" x="-1" y="-1"><feGaussianBlur result="blurOut" stdDeviation="2.0"/><feColorMatrix in="blurOut" result="blurOut2" type="matrix" values="0 0 0 0 0 0 0 0 0 0 0 0 0 0 0 0 0 0 .4 0"/><feOffset dx="4.0" dy="4.0" in="blurOut2" result="blurOut3"/><feBlend in="SourceGraphic" in2="blurOut3" mode="normal"/></filter></defs><g><rect fill="#FFFFFF" filter="url(#f1qjybv0jj1fe0)" height="110.3984" style="stroke: #A80036; stroke-width: 1.0;" width="10" x="334.5" y="230.0938"/><rect fill="#FFFFFF" filter="url(#f1qjybv0jj1fe0)" height="29.1328" style="stroke: #A80036; stroke-width: 1.0;" width="10" x="334.5" y="462.0234"/><rect fill="#FFFFFF" filter="url(#f1qjybv0jj1fe0)" height="97.3984" style="stroke: #A80036; stroke-width: 1.0;" width="10" x="334.5" y="638.8203"/><rect fill="#FFFFFF" filter="url(#f1qjybv0jj1fe0)" height="95.3984" style="stroke: #A80036; stroke-width: 1.0;" width="10" x="511" y="230.0938"/><rect fill="#FFFFFF" filter="url(#f1qjybv0jj1fe0)" height="158.6641" style="stroke: #A80036; stroke-width: 1.0;" width="10" x="511" y="361.625"/><rect fill="#FFFFFF" filter="url(#f1qjybv0jj1fe0)" height="100.3984" style="stroke: #A80036; stroke-width: 1.0;" width="10" x="668" y="390.7578"/><rect fill="#FFFFFF" filter="url(#f1qjybv0jj1fe0)" height="88.3984" style="stroke: #000000; stroke-width: 2.0;" width="446.5" x="13" y="84.4297"/><rect fill="#FFFFFF" filter="url(#f1qjybv0jj1fe0)" height="88.3984" style="stroke: #000000; stroke-width: 2.0;" width="292" x="433.5" y="245.0938"/><rect fill="#FFFFFF" filter="url(#f1qjybv0jj1fe0)" height="46.2656" style="stroke: #000000; stroke-width: 2.0;" width="490" x="235.5" y="564.4219"/><rect fill="#FFFFFF" filter="url(#f1qjybv0jj1fe0)" height="75.3984" style="stroke: #000000; stroke-width: 2.0;" width="490" x="235.5" y="653.8203"/><line style="stroke: #A80036; stroke-width: 1.0; stroke-dasharray: 5.0,5.0;" x1="69" x2="69" y1="38.2969" y2="746.2188"/><line style="stroke: #A80036; stroke-width: 1.0; stroke-dasharray: 5.0,5.0;" x1="339.5" x2="339.5" y1="38.2969" y2="746.2188"/><line style="stroke: #A80036; stroke-width: 1.0; stroke-dasharray: 5.0,5.0;" x1="515.5" x2="515.5" y1="38.2969" y2="746.2188"/><line style="stroke: #A80036; stroke-width: 1.0; stroke-dasharray: 5.0,5.0;" x1="672.5" x2="672.5" y1="38.2969" y2="746.2188"/><rect fill="#FEFECE" filter="url(#f1qjybv0jj1fe0)" height="30.2969" style="stroke: #A80036; stroke-width: 1.5;" width="89" x="23" y="3"/><text fill="#000000" font-family="sans-serif" font-size="14" lengthAdjust="spacingAndGlyphs" textLength="75" x="30" y="22.9951">Application</text><rect fill="#FEFECE" filter="url(#f1qjybv0jj1fe0)" height="30.2969" style="stroke: #A80036; stroke-width: 1.5;" width="184" x="245.5" y="3"/><text fill="#000000" font-family="sans-serif" font-size="14" lengthAdjust="spacingAndGlyphs" textLength="170" x="252.5" y="22.9951">ResourceGroupManager</text><rect fill="#FEFECE" filter="url(#f1qjybv0jj1fe0)" height="30.2969" style="stroke: #A80036; stroke-width: 1.5;" width="141" x="443.5" y="3"/><text fill="#000000" font-family="sans-serif" font-size="14" lengthAdjust="spacingAndGlyphs" textLength="127" x="450.5" y="22.9951">ResourceManager</text><rect fill="#FEFECE" filter="url(#f1qjybv0jj1fe0)" height="30.2969" style="stroke: #A80036; stroke-width: 1.5;" width="81" x="630.5" y="3"/><text fill="#000000" font-family="sans-serif" font-size="14" lengthAdjust="spacingAndGlyphs" textLength="67" x="637.5" y="22.9951">Resource</text><rect fill="#FFFFFF" filter="url(#f1qjybv0jj1fe0)" height="110.3984" style="stroke: #A80036; stroke-width: 1.0;" width="10" x="334.5" y="230.0938"/><rect fill="#FFFFFF" filter="url(#f1qjybv0jj1fe0)" height="29.1328" style="stroke: #A80036; stroke-width: 1.0;" width="10" x="334.5" y="462.0234"/><rect fill="#FFFFFF" filter="url(#f1qjybv0jj1fe0)" height="97.3984" style="stroke: #A80036; stroke-width: 1.0;" width="10" x="334.5" y="638.8203"/><rect fill="#FFFFFF" filter="url(#f1qjybv0jj1fe0)" height="95.3984" style="stroke: #A80036; stroke-width: 1.0;" width="10" x="511" y="230.0938"/><rect fill="#FFFFFF" filter="url(#f1qjybv0jj1fe0)" height="158.6641" style="stroke: #A80036; stroke-width: 1.0;" width="10" x="511" y="361.625"/><rect fill="#FFFFFF" filter="url(#f1qjybv0jj1fe0)" height="100.3984" style="stroke: #A80036; stroke-width: 1.0;" width="10" x="668" y="390.7578"/><polygon fill="#A80036" points="327.5,65.4297,337.5,69.4297,327.5,73.4297,331.5,69.4297" style="stroke: #A80036; stroke-width: 1.0;"/><line style="stroke: #A80036; stroke-width: 1.0;" x1="69.5" x2="333.5" y1="69.4297" y2="69.4297"/><text fill="#000000" font-family="sans-serif" font-size="13" lengthAdjust="spacingAndGlyphs" textLength="186" x="76.5" y="64.3638">createResourceGroup(group)</text><path d="M13,84.4297 L90,84.4297 L90,91.4297 L80,101.4297 L13,101.4297 L13,84.4297 " fill="#EEEEEE" style="stroke: #000000; stroke-width: 1.0;"/><rect fill="none" height="88.3984" style="stroke: #000000; stroke-width: 2.0;" width="446.5" x="13" y="84.4297"/><text fill="#000000" font-family="sans-serif" font-size="13" font-weight="bold" lengthAdjust="spacingAndGlyphs" textLength="32" x="28" y="97.4966">loop</text><text fill="#000000" font-family="sans-serif" font-size="11" font-weight="bold" lengthAdjust="spacingAndGlyphs" textLength="97" x="105" y="96.6401">[resources.cfg]</text><polygon fill="#A80036" points="327.5,118.6953,337.5,122.6953,327.5,126.6953,331.5,122.6953" style="stroke: #A80036; stroke-width: 1.0;"/><line style="stroke: #A80036; stroke-width: 1.0;" x1="69.5" x2="333.5" y1="122.6953" y2="122.6953"/><text fill="#000000" font-family="sans-serif" font-size="13" lengthAdjust="spacingAndGlyphs" textLength="246" x="76.5" y="117.6294">addResourceLocation(loc, type, group)</text><line style="stroke: #A80036; stroke-width: 1.0;" x1="339.5" x2="381.5" y1="151.8281" y2="151.8281"/><line style="stroke: #A80036; stroke-width: 1.0;" x1="381.5" x2="381.5" y1="151.8281" y2="164.8281"/><line style="stroke: #A80036; stroke-width: 1.0;" x1="340.5" x2="381.5" y1="164.8281" y2="164.8281"/><polygon fill="#A80036" points="350.5,160.8281,340.5,164.8281,350.5,168.8281,346.5,164.8281" style="stroke: #A80036; stroke-width: 1.0;"/><text fill="#000000" font-family="sans-serif" font-size="13" lengthAdjust="spacingAndGlyphs" textLength="101" x="346.5" y="146.7622">addToIndex(file)</text><polygon fill="#A80036" points="327.5,196.9609,337.5,200.9609,327.5,204.9609,331.5,200.9609" style="stroke: #A80036; stroke-width: 1.0;"/><line style="stroke: #A80036; stroke-width: 1.0;" x1="69.5" x2="333.5" y1="200.9609" y2="200.9609"/><text fill="#000000" font-family="sans-serif" font-size="13" lengthAdjust="spacingAndGlyphs" textLength="196" x="76.5" y="195.895">initialiseResourceGroup(group)</text><polygon fill="#A80036" points="499,226.0938,509,230.0938,499,234.0938,503,230.0938" style="stroke: #A80036; stroke-width: 1.0;"/><line style="stroke: #A80036; stroke-width: 1.0;" x1="344.5" x2="505" y1="230.0938" y2="230.0938"/><text fill="#000000" font-family="sans-serif" font-size="13" lengthAdjust="spacingAndGlyphs" textLength="101" x="351.5" y="225.0278">parseScript(file)</text><path d="M433.5,245.0938 L510.5,245.0938 L510.5,252.0938 L500.5,262.0938 L433.5,262.0938 L433.5,245.0938 " fill="#EEEEEE" style="stroke: #000000; stroke-width: 1.0;"/><rect fill="none" height="88.3984" style="stroke: #000000; stroke-width: 2.0;" width="292" x="433.5" y="245.0938"/><text fill="#000000" font-family="sans-serif" font-size="13" font-weight="bold" lengthAdjust="spacingAndGlyphs" textLength="32" x="448.5" y="258.1606">loop</text><text fill="#000000" font-family="sans-serif" font-size="11" font-weight="bold" lengthAdjust="spacingAndGlyphs" textLength="128" x="525.5" y="257.3042">[Examples.material]</text><line style="stroke: #A80036; stroke-width: 1.0;" x1="521" x2="563" y1="283.3594" y2="283.3594"/><line style="stroke: #A80036; stroke-width: 1.0;" x1="563" x2="563" y1="283.3594" y2="296.3594"/><line style="stroke: #A80036; stroke-width: 1.0;" x1="522" x2="563" y1="296.3594" y2="296.3594"/><polygon fill="#A80036" points="532,292.3594,522,296.3594,532,300.3594,528,296.3594" style="stroke: #A80036; stroke-width: 1.0;"/><text fill="#000000" font-family="sans-serif" font-size="13" lengthAdjust="spacingAndGlyphs" textLength="133" x="528" y="278.2935">create(name, group)</text><polygon fill="#A80036" points="661,321.4922,671,325.4922,661,329.4922,665,325.4922" style="stroke: #A80036; stroke-width: 1.0;"/><line style="stroke: #A80036; stroke-width: 1.0;" x1="516" x2="667" y1="325.4922" y2="325.4922"/><text fill="#000000" font-family="sans-serif" font-size="13" lengthAdjust="spacingAndGlyphs" textLength="77" x="523" y="320.4263">&lt;&lt; new &gt;&gt;</text><polygon fill="#A80036" points="499,357.625,509,361.625,499,365.625,503,361.625" style="stroke: #A80036; stroke-width: 1.0;"/><line style="stroke: #A80036; stroke-width: 1.0;" x1="69.5" x2="505" y1="361.625" y2="361.625"/><text fill="#000000" font-family="sans-serif" font-size="13" lengthAdjust="spacingAndGlyphs" textLength="119" x="76.5" y="356.5591">load(name, group)</text><polygon fill="#A80036" points="656,386.7578,666,390.7578,656,394.7578,660,390.7578" style="stroke: #A80036; stroke-width: 1.0;"/><line style="stroke: #A80036; stroke-width: 1.0;" x1="521" x2="662" y1="390.7578" y2="390.7578"/><text fill="#000000" font-family="sans-serif" font-size="13" lengthAdjust="spacingAndGlyphs" textLength="77" x="528" y="385.6919">&lt;&lt; new &gt;&gt;</text><line style="stroke: #A80036; stroke-width: 1.0;" x1="678" x2="720" y1="419.8906" y2="419.8906"/><line style="stroke: #A80036; stroke-width: 1.0;" x1="720" x2="720" y1="419.8906" y2="432.8906"/><line style="stroke: #A80036; stroke-width: 1.0;" x1="679" x2="720" y1="432.8906" y2="432.8906"/><polygon fill="#A80036" points="689,428.8906,679,432.8906,689,436.8906,685,432.8906" style="stroke: #A80036; stroke-width: 1.0;"/><text fill="#000000" font-family="sans-serif" font-size="13" lengthAdjust="spacingAndGlyphs" textLength="50" x="685" y="414.8247">prepare</text><polygon fill="#A80036" points="355.5,458.0234,345.5,462.0234,355.5,466.0234,351.5,462.0234" style="stroke: #A80036; stroke-width: 1.0;"/><line style="stroke: #A80036; stroke-width: 1.0;" x1="349.5" x2="667" y1="462.0234" y2="462.0234"/><text fill="#000000" font-family="sans-serif" font-size="13" lengthAdjust="spacingAndGlyphs" textLength="183" x="361.5" y="456.9575">openResource(name, group)</text><polygon fill="#A80036" points="661,487.1563,671,491.1563,661,495.1563,665,491.1563" style="stroke: #A80036; stroke-width: 1.0;"/><line style="stroke: #A80036; stroke-width: 1.0; stroke-dasharray: 2.0,2.0;" x1="339.5" x2="667" y1="491.1563" y2="491.1563"/><text fill="#000000" font-family="sans-serif" font-size="13" lengthAdjust="spacingAndGlyphs" textLength="97" x="346.5" y="486.0903">DataStreamPtr</text><polygon fill="#A80036" points="80.5,516.2891,70.5,520.2891,80.5,524.2891,76.5,520.2891" style="stroke: #A80036; stroke-width: 1.0;"/><line style="stroke: #A80036; stroke-width: 1.0; stroke-dasharray: 2.0,2.0;" x1="74.5" x2="515" y1="520.2891" y2="520.2891"/><text fill="#000000" font-family="sans-serif" font-size="13" lengthAdjust="spacingAndGlyphs" textLength="77" x="86.5" y="515.2231">ResourcePtr</text><polygon fill="#A80036" points="327.5,545.4219,337.5,549.4219,327.5,553.4219,331.5,549.4219" style="stroke: #A80036; stroke-width: 1.0;"/><line style="stroke: #A80036; stroke-width: 1.0;" x1="69.5" x2="333.5" y1="549.4219" y2="549.4219"/><text fill="#000000" font-family="sans-serif" font-size="13" lengthAdjust="spacingAndGlyphs" textLength="172" x="76.5" y="544.356">loadResourceGroup(group)</text><path d="M235.5,564.4219 L312.5,564.4219 L312.5,571.4219 L302.5,581.4219 L235.5,581.4219 L235.5,564.4219 " fill="#EEEEEE" style="stroke: #000000; stroke-width: 1.0;"/><rect fill="none" height="46.2656" style="stroke: #000000; stroke-width: 2.0;" width="490" x="235.5" y="564.4219"/><text fill="#000000" font-family="sans-serif" font-size="13" font-weight="bold" lengthAdjust="spacingAndGlyphs" textLength="32" x="250.5" y="577.4888">loop</text><text fill="#000000" font-family="sans-serif" font-size="11" font-weight="bold" lengthAdjust="spacingAndGlyphs" textLength="47" x="327.5" y="576.6323">[group]</text><polygon fill="#A80036" points="661,598.6875,671,602.6875,661,606.6875,665,602.6875" style="stroke: #A80036; stroke-width: 1.0;"/><line style="stroke: #A80036; stroke-width: 1.0;" x1="339.5" x2="667" y1="602.6875" y2="602.6875"/><text fill="#000000" font-family="sans-serif" font-size="13" lengthAdjust="spacingAndGlyphs" textLength="27" x="346.5" y="597.6216">load</text><polygon fill="#A80036" points="322.5,634.8203,332.5,638.8203,322.5,642.8203,326.5,638.8203" style="stroke: #A80036; stroke-width: 1.0;"/><line style="stroke: #A80036; stroke-width: 1.0;" x1="69.5" x2="328.5" y1="638.8203" y2="638.8203"/><text fill="#000000" font-family="sans-serif" font-size="13" lengthAdjust="spacingAndGlyphs" textLength="176" x="76.5" y="633.7544">clearResourceGroup(group)</text><path d="M235.5,653.8203 L312.5,653.8203 L312.5,660.8203 L302.5,670.8203 L235.5,670.8203 L235.5,653.8203 " fill="#EEEEEE" style="stroke: #000000; stroke-width: 1.0;"/><rect fill="none" height="75.3984" style="stroke: #000000; stroke-width: 2.0;" width="490" x="235.5" y="653.8203"/><text fill="#000000" font-family="sans-serif" font-size="13" font-weight="bold" lengthAdjust="spacingAndGlyphs" textLength="32" x="250.5" y="666.8872">loop</text><text fill="#000000" font-family="sans-serif" font-size="11" font-weight="bold" lengthAdjust="spacingAndGlyphs" textLength="47" x="327.5" y="666.0308">[group]</text><polygon fill="#A80036" points="504,688.0859,514,692.0859,504,696.0859,508,692.0859" style="stroke: #A80036; stroke-width: 1.0;"/><line style="stroke: #A80036; stroke-width: 1.0;" x1="344.5" x2="510" y1="692.0859" y2="692.0859"/><text fill="#000000" font-family="sans-serif" font-size="13" lengthAdjust="spacingAndGlyphs" textLength="96" x="351.5" y="687.02">remove(name)</text><polygon fill="#A80036" points="661,717.2188,671,721.2188,661,725.2188,665,721.2188" style="stroke: #A80036; stroke-width: 1.0;"/><line style="stroke: #A80036; stroke-width: 1.0;" x1="516" x2="667" y1="721.2188" y2="721.2188"/><text fill="#000000" font-family="sans-serif" font-size="13" lengthAdjust="spacingAndGlyphs" textLength="92" x="523" y="716.1528">&lt;&lt; delete &gt;&gt;</text><!--
@startuml
hide footbox

Application -> ResourceGroupManager: createResourceGroup(group)
loop resources.cfg
Application -> ResourceGroupManager: addResourceLocation(loc, type, group)
ResourceGroupManager -> ResourceGroupManager: addToIndex(file)
end
Application -> ResourceGroupManager: initialiseResourceGroup(group)

ResourceGroupManager -> ResourceManager: parseScript(file)
activate ResourceGroupManager
loop Examples.material
activate ResourceManager
ResourceManager -> ResourceManager: create(name, group)
ResourceManager -> Resource: << new >>
deactivate ResourceManager
end
deactivate ResourceGroupManager

Application -> ResourceManager: load(name, group)
activate ResourceManager
ResourceManager -> Resource: << new >>
activate Resource
Resource -> Resource: prepare
Resource -> ResourceGroupManager: openResource(name, group)
activate ResourceGroupManager
ResourceGroupManager - -> Resource: DataStreamPtr
deactivate ResourceGroupManager
deactivate Resource
ResourceManager - -> Application: ResourcePtr
deactivate ResourceManager

Application -> ResourceGroupManager: loadResourceGroup(group)
loop group
ResourceGroupManager -> Resource: load
end

Application -> ResourceGroupManager: clearResourceGroup(group)
activate ResourceGroupManager
loop group
ResourceGroupManager -> ResourceManager: remove(name)
ResourceManager -> Resource: << delete >>
end
deactivate ResourceGroupManager
@enduml 

PlantUML version 1.2019.09(Mon Aug 26 18:19:51 CEST 2019)
(GPL source distribution)
Java Runtime: OpenJDK Runtime Environment
JVM: OpenJDK 64-Bit Server VM
Java Version: 11.0.6+10-post-Ubuntu-1ubuntu118.04.1
Operating System: Linux
OS Version: 5.3.0-28-generic
Default Encoding: UTF-8
Language: de
Country: DE
--></g></svg>