<?xml version="1.0" encoding="UTF-8" standalone="no"?>
<!DOCTYPE svg PUBLIC "-//W3C//DTD SVG 1.1//EN"
 "http://www.w3.org/Graphics/SVG/1.1/DTD/svg11.dtd">
<!-- Generated by graphviz version 2.43.0 (0)
 -->
<!-- Title: OgreBites::InputListener Pages: 1 -->
<svg width="342pt" height="273pt"
 viewBox="0.00 0.00 342.00 272.50" xmlns="http://www.w3.org/2000/svg" xmlns:xlink="http://www.w3.org/1999/xlink">
<g id="graph0" class="graph" transform="scale(1 1) rotate(0) translate(4 268.5)">
<title>OgreBites::InputListener</title>
<!-- Node1 -->
<g id="Node000001" class="node">
<title>Node1</title>
<g id="a_Node000001"><a xlink:title="the return values of the callbacks are ignored by ApplicationContext however they can be used to cont...">
<polygon fill="#999999" stroke="#666666" points="134,-142 0,-142 0,-123 134,-123 134,-142"/>
<text text-anchor="middle" x="67" y="-130" font-family="Helvetica,sans-Serif" font-size="10.00">OgreBites::InputListener</text>
</a>
</g>
</g>
<!-- Node2 -->
<g id="Node000002" class="node">
<title>Node2</title>
<g id="a_Node000002"><a xlink:href="class_ogre_bites_1_1_advanced_render_controls.html" target="_top" xlink:title=" ">
<polygon fill="white" stroke="#666666" points="328.5,-264.5 175.5,-264.5 175.5,-234.5 328.5,-234.5 328.5,-264.5"/>
<text text-anchor="start" x="183.5" y="-252.5" font-family="Helvetica,sans-Serif" font-size="10.00">OgreBites::AdvancedRender</text>
<text text-anchor="middle" x="252" y="-241.5" font-family="Helvetica,sans-Serif" font-size="10.00">Controls</text>
</a>
</g>
</g>
<!-- Node1&#45;&gt;Node2 -->
<g id="edge1_Node000001_Node000002" class="edge">
<title>Node1&#45;&gt;Node2</title>
<g id="a_edge1_Node000001_Node000002"><a xlink:title=" ">
<path fill="none" stroke="#63b8ff" d="M82.62,-149.97C100.98,-170.83 134.41,-205.42 170,-225.5 176,-228.89 182.53,-231.84 189.19,-234.4"/>
<polygon fill="#63b8ff" stroke="#63b8ff" points="85.11,-147.49 75.93,-142.2 79.8,-152.06 85.11,-147.49"/>
</a>
</g>
</g>
<!-- Node3 -->
<g id="Node000003" class="node">
<title>Node3</title>
<g id="a_Node000003"><a xlink:href="class_ogre_bites_1_1_camera_gizmo.html" target="_top" xlink:title=" ">
<polygon fill="white" stroke="#666666" points="322,-216 182,-216 182,-197 322,-197 322,-216"/>
<text text-anchor="middle" x="252" y="-204" font-family="Helvetica,sans-Serif" font-size="10.00">OgreBites::CameraGizmo</text>
</a>
</g>
</g>
<!-- Node1&#45;&gt;Node3 -->
<g id="edge2_Node000001_Node000003" class="edge">
<title>Node1&#45;&gt;Node3</title>
<g id="a_edge2_Node000001_Node000003"><a xlink:title=" ">
<path fill="none" stroke="#63b8ff" d="M90.69,-147.42C110.79,-160.02 141.31,-177.69 170,-188.5 178.76,-191.8 188.3,-194.59 197.65,-196.91"/>
<polygon fill="#63b8ff" stroke="#63b8ff" points="92.55,-144.45 82.24,-142.03 88.79,-150.35 92.55,-144.45"/>
</a>
</g>
</g>
<!-- Node4 -->
<g id="Node000004" class="node">
<title>Node4</title>
<g id="a_Node000004"><a xlink:href="class_ogre_bites_1_1_camera_man.html" target="_top" xlink:title="Utility class for controlling the camera in samples.">
<polygon fill="white" stroke="#666666" points="317,-179 187,-179 187,-160 317,-160 317,-179"/>
<text text-anchor="middle" x="252" y="-167" font-family="Helvetica,sans-Serif" font-size="10.00">OgreBites::CameraMan</text>
</a>
</g>
</g>
<!-- Node1&#45;&gt;Node4 -->
<g id="edge3_Node000001_Node000004" class="edge">
<title>Node1&#45;&gt;Node4</title>
<g id="a_edge3_Node000001_Node000004"><a xlink:title=" ">
<path fill="none" stroke="#63b8ff" d="M124.96,-144.02C150.25,-149.13 179.66,-155.08 203.71,-159.94"/>
<polygon fill="#63b8ff" stroke="#63b8ff" points="125.62,-140.58 115.13,-142.03 124.24,-147.44 125.62,-140.58"/>
</a>
</g>
</g>
<!-- Node5 -->
<g id="Node000005" class="node">
<title>Node5</title>
<g id="a_Node000005"><a xlink:href="class_ogre_bites_1_1_gizmo.html" target="_top" xlink:title="Class which applies a manipulable gizmo to a SceneNode.">
<polygon fill="white" stroke="#666666" points="303,-142 201,-142 201,-123 303,-123 303,-142"/>
<text text-anchor="middle" x="252" y="-130" font-family="Helvetica,sans-Serif" font-size="10.00">OgreBites::Gizmo</text>
</a>
</g>
</g>
<!-- Node1&#45;&gt;Node5 -->
<g id="edge4_Node000001_Node000005" class="edge">
<title>Node1&#45;&gt;Node5</title>
<g id="a_edge4_Node000001_Node000005"><a xlink:title=" ">
<path fill="none" stroke="#63b8ff" d="M144.26,-132.5C163.35,-132.5 183.36,-132.5 200.83,-132.5"/>
<polygon fill="#63b8ff" stroke="#63b8ff" points="144.07,-129 134.07,-132.5 144.07,-136 144.07,-129"/>
</a>
</g>
</g>
<!-- Node6 -->
<g id="Node000006" class="node">
<title>Node6</title>
<g id="a_Node000006"><a xlink:href="struct_ogre_bites_1_1_im_gui_input_listener.html" target="_top" xlink:title=" ">
<polygon fill="white" stroke="#666666" points="334,-105 170,-105 170,-86 334,-86 334,-105"/>
<text text-anchor="middle" x="252" y="-93" font-family="Helvetica,sans-Serif" font-size="10.00">OgreBites::ImGuiInputListener</text>
</a>
</g>
</g>
<!-- Node1&#45;&gt;Node6 -->
<g id="edge5_Node000001_Node000006" class="edge">
<title>Node1&#45;&gt;Node6</title>
<g id="a_edge5_Node000001_Node000006"><a xlink:title=" ">
<path fill="none" stroke="#63b8ff" d="M124.96,-120.98C150.25,-115.87 179.66,-109.92 203.71,-105.06"/>
<polygon fill="#63b8ff" stroke="#63b8ff" points="124.24,-117.56 115.13,-122.97 125.62,-124.42 124.24,-117.56"/>
</a>
</g>
</g>
<!-- Node7 -->
<g id="Node000007" class="node">
<title>Node7</title>
<g id="a_Node000007"><a xlink:href="class_ogre_bites_1_1_input_listener_chain.html" target="_top" xlink:title="Chain of multiple InputListeners that acts as a single InputListener.">
<polygon fill="white" stroke="#666666" points="319,-67.5 185,-67.5 185,-37.5 319,-37.5 319,-67.5"/>
<text text-anchor="start" x="193" y="-55.5" font-family="Helvetica,sans-Serif" font-size="10.00">OgreBites::InputListener</text>
<text text-anchor="middle" x="252" y="-44.5" font-family="Helvetica,sans-Serif" font-size="10.00">Chain</text>
</a>
</g>
</g>
<!-- Node1&#45;&gt;Node7 -->
<g id="edge6_Node000001_Node000007" class="edge">
<title>Node1&#45;&gt;Node7</title>
<g id="a_edge6_Node000001_Node000007"><a xlink:title=" ">
<path fill="none" stroke="#63b8ff" d="M92.28,-117.66C112.54,-105.7 142.45,-89.05 170,-77.5 178.55,-73.92 187.8,-70.58 196.88,-67.59"/>
<polygon fill="#63b8ff" stroke="#63b8ff" points="90.22,-114.81 83.43,-122.94 93.81,-120.82 90.22,-114.81"/>
</a>
</g>
</g>
<!-- Node8 -->
<g id="Node000008" class="node">
<title>Node8</title>
<g id="a_Node000008"><a xlink:href="class_ogre_bites_1_1_tray_manager.html" target="_top" xlink:title="Main class to manage a cursor, backdrop, trays and widgets.">
<polygon fill="white" stroke="#666666" points="319,-19 185,-19 185,0 319,0 319,-19"/>
<text text-anchor="middle" x="252" y="-7" font-family="Helvetica,sans-Serif" font-size="10.00">OgreBites::TrayManager</text>
</a>
</g>
</g>
<!-- Node1&#45;&gt;Node8 -->
<g id="edge7_Node000001_Node000008" class="edge">
<title>Node1&#45;&gt;Node8</title>
<g id="a_edge7_Node000001_Node000008"><a xlink:title=" ">
<path fill="none" stroke="#63b8ff" d="M80.65,-114.29C98.01,-90.74 131.48,-50.19 170,-28.5 176.92,-24.6 184.61,-21.5 192.41,-19.04"/>
<polygon fill="#63b8ff" stroke="#63b8ff" points="77.61,-112.52 74.62,-122.69 83.29,-116.61 77.61,-112.52"/>
</a>
</g>
</g>
</g>
</svg>
