<?xml version="1.0" encoding="UTF-8" standalone="no"?><svg xmlns="http://www.w3.org/2000/svg" xmlns:xlink="http://www.w3.org/1999/xlink" contentScriptType="application/ecmascript" contentStyleType="text/css" height="393px" preserveAspectRatio="none" style="width:631px;height:393px;background:#00000000;" version="1.1" viewBox="0 0 631 393" width="631px" zoomAndPan="magnify"><defs><filter height="300%" id="fpeboasbixc3p" width="300%" x="-1" y="-1"><feGaussianBlur result="blurOut" stdDeviation="2.0"/><feColorMatrix in="blurOut" result="blurOut2" type="matrix" values="0 0 0 0 0 0 0 0 0 0 0 0 0 0 0 0 0 0 .4 0"/><feOffset dx="4.0" dy="4.0" in="blurOut2" result="blurOut3"/><feBlend in="SourceGraphic" in2="blurOut3" mode="normal"/></filter></defs><g><!--MD5=[43dfcda671c155a465448b348640af38]
class ExternalTextureSource--><rect codeLine="4" fill="#FEFECE" filter="url(#fpeboasbixc3p)" height="52.8047" id="ExternalTextureSource" style="stroke:#A80036;stroke-width:1.5;" width="174" x="7" y="175.5"/><ellipse cx="22" cy="191.5" fill="#ADD1B2" rx="11" ry="11" style="stroke:#A80036;stroke-width:1.0;"/><path d="M24.9688,197.1406 Q24.3906,197.4375 23.75,197.5781 Q23.1094,197.7344 22.4063,197.7344 Q19.9063,197.7344 18.5781,196.0938 Q17.2656,194.4375 17.2656,191.3125 Q17.2656,188.1875 18.5781,186.5313 Q19.9063,184.875 22.4063,184.875 Q23.1094,184.875 23.75,185.0313 Q24.4063,185.1875 24.9688,185.4844 L24.9688,188.2031 Q24.3438,187.625 23.75,187.3594 Q23.1563,187.0781 22.5313,187.0781 Q21.1875,187.0781 20.5,188.1563 Q19.8125,189.2188 19.8125,191.3125 Q19.8125,193.4063 20.5,194.4844 Q21.1875,195.5469 22.5313,195.5469 Q23.1563,195.5469 23.75,195.2813 Q24.3438,195 24.9688,194.4219 L24.9688,197.1406 Z " fill="#000000"/><text fill="#000000" font-family="sans-serif" font-size="12" lengthAdjust="spacing" textLength="142" x="36" y="195.6543">ExternalTextureSource</text><line style="stroke:#A80036;stroke-width:1.5;" x1="8" x2="180" y1="207.5" y2="207.5"/><ellipse cx="18" cy="218.5" fill="#84BE84" rx="3" ry="3" style="stroke:#038048;stroke-width:1.0;"/><text fill="#000000" font-family="sans-serif" font-size="11" lengthAdjust="spacing" textLength="86" x="27" y="221.7104">setParameter()</text><!--MD5=[c296cf9d4262965a4560a150edfa6a7b]
class ExternalTextureSourceManager--><rect codeLine="7" fill="#FEFECE" filter="url(#fpeboasbixc3p)" height="78.4141" id="ExternalTextureSourceManager" style="stroke:#A80036;stroke-width:1.5;" width="229" x="184.5" y="301"/><ellipse cx="199.5" cy="317" fill="#ADD1B2" rx="11" ry="11" style="stroke:#A80036;stroke-width:1.0;"/><path d="M202.4688,322.6406 Q201.8906,322.9375 201.25,323.0781 Q200.6094,323.2344 199.9063,323.2344 Q197.4063,323.2344 196.0781,321.5938 Q194.7656,319.9375 194.7656,316.8125 Q194.7656,313.6875 196.0781,312.0313 Q197.4063,310.375 199.9063,310.375 Q200.6094,310.375 201.25,310.5313 Q201.9063,310.6875 202.4688,310.9844 L202.4688,313.7031 Q201.8438,313.125 201.25,312.8594 Q200.6563,312.5781 200.0313,312.5781 Q198.6875,312.5781 198,313.6563 Q197.3125,314.7188 197.3125,316.8125 Q197.3125,318.9063 198,319.9844 Q198.6875,321.0469 200.0313,321.0469 Q200.6563,321.0469 201.25,320.7813 Q201.8438,320.5 202.4688,319.9219 L202.4688,322.6406 Z " fill="#000000"/><text fill="#000000" font-family="sans-serif" font-size="12" lengthAdjust="spacing" textLength="197" x="213.5" y="321.1543">ExternalTextureSourceManager</text><line style="stroke:#A80036;stroke-width:1.5;" x1="185.5" x2="412.5" y1="333" y2="333"/><ellipse cx="195.5" cy="344" fill="#84BE84" rx="3" ry="3" style="stroke:#038048;stroke-width:1.0;"/><text fill="#000000" font-family="sans-serif" font-size="11" lengthAdjust="spacing" textLength="155" x="204.5" y="347.2104">setExternalTextureSource()</text><ellipse cx="195.5" cy="356.8047" fill="#84BE84" rx="3" ry="3" style="stroke:#038048;stroke-width:1.0;"/><text fill="#000000" font-family="sans-serif" font-size="11" lengthAdjust="spacing" textLength="103" x="204.5" y="360.0151">setCurrentPlugin()</text><ellipse cx="195.5" cy="369.6094" fill="#84BE84" rx="3" ry="3" style="stroke:#038048;stroke-width:1.0;"/><text fill="#000000" font-family="sans-serif" font-size="11" lengthAdjust="spacing" textLength="130" x="204.5" y="372.8198">createDefinedTexture()</text><!--MD5=[1899f59c2060c75db56ce145e3058c61]
class ScriptTranslator--><rect codeLine="13" fill="#FEFECE" filter="url(#fpeboasbixc3p)" height="78.4141" id="ScriptTranslator" style="stroke:#A80036;stroke-width:1.5;" width="166" x="216" y="163"/><ellipse cx="246.3" cy="179" fill="#ADD1B2" rx="11" ry="11" style="stroke:#A80036;stroke-width:1.0;"/><path d="M249.2688,184.6406 Q248.6906,184.9375 248.05,185.0781 Q247.4094,185.2344 246.7063,185.2344 Q244.2063,185.2344 242.8781,183.5938 Q241.5656,181.9375 241.5656,178.8125 Q241.5656,175.6875 242.8781,174.0313 Q244.2063,172.375 246.7063,172.375 Q247.4094,172.375 248.05,172.5313 Q248.7063,172.6875 249.2688,172.9844 L249.2688,175.7031 Q248.6438,175.125 248.05,174.8594 Q247.4563,174.5781 246.8313,174.5781 Q245.4875,174.5781 244.8,175.6563 Q244.1125,176.7188 244.1125,178.8125 Q244.1125,180.9063 244.8,181.9844 Q245.4875,183.0469 246.8313,183.0469 Q247.4563,183.0469 248.05,182.7813 Q248.6438,182.5 249.2688,181.9219 L249.2688,184.6406 Z " fill="#000000"/><text fill="#000000" font-family="sans-serif" font-size="12" lengthAdjust="spacing" textLength="100" x="263.7" y="183.1543">ScriptTranslator</text><line style="stroke:#A80036;stroke-width:1.5;" x1="217" x2="381" y1="195" y2="195"/><ellipse cx="227" cy="206" fill="#000000" rx="3" ry="3" style="stroke:#000000;stroke-width:1.0;"/><text fill="#000000" font-family="sans-serif" font-size="11" lengthAdjust="spacing" textLength="138" x="236" y="209.2104">Set "video" plugin active</text><ellipse cx="227" cy="218.8047" fill="#000000" rx="3" ry="3" style="stroke:#000000;stroke-width:1.0;"/><text fill="#000000" font-family="sans-serif" font-size="11" lengthAdjust="spacing" textLength="140" x="236" y="222.0151">Parse &amp; set parameters</text><ellipse cx="227" cy="231.6094" fill="#000000" rx="3" ry="3" style="stroke:#000000;stroke-width:1.0;"/><text fill="#000000" font-family="sans-serif" font-size="11" lengthAdjust="spacing" textLength="85" x="236" y="234.8198">Create Texture</text><!--MD5=[b50850b67d443f4b52142d1c5e914037]
class Plugin_TheoraVideoSystem--><rect codeLine="18" fill="#FEFECE" filter="url(#fpeboasbixc3p)" height="52.8047" id="Plugin_TheoraVideoSystem" style="stroke:#A80036;stroke-width:1.5;" width="200" x="417" y="175.5"/><ellipse cx="432" cy="191.5" fill="#ADD1B2" rx="11" ry="11" style="stroke:#A80036;stroke-width:1.0;"/><path d="M434.9688,197.1406 Q434.3906,197.4375 433.75,197.5781 Q433.1094,197.7344 432.4063,197.7344 Q429.9063,197.7344 428.5781,196.0938 Q427.2656,194.4375 427.2656,191.3125 Q427.2656,188.1875 428.5781,186.5313 Q429.9063,184.875 432.4063,184.875 Q433.1094,184.875 433.75,185.0313 Q434.4063,185.1875 434.9688,185.4844 L434.9688,188.2031 Q434.3438,187.625 433.75,187.3594 Q433.1563,187.0781 432.5313,187.0781 Q431.1875,187.0781 430.5,188.1563 Q429.8125,189.2188 429.8125,191.3125 Q429.8125,193.4063 430.5,194.4844 Q431.1875,195.5469 432.5313,195.5469 Q433.1563,195.5469 433.75,195.2813 Q434.3438,195 434.9688,194.4219 L434.9688,197.1406 Z " fill="#000000"/><text fill="#000000" font-family="sans-serif" font-size="12" lengthAdjust="spacing" textLength="168" x="446" y="195.6543">Plugin_TheoraVideoSystem</text><line style="stroke:#A80036;stroke-width:1.5;" x1="418" x2="616" y1="207.5" y2="207.5"/><ellipse cx="428" cy="218.5" fill="#84BE84" rx="3" ry="3" style="stroke:#038048;stroke-width:1.0;"/><text fill="#000000" font-family="sans-serif" font-size="11" lengthAdjust="spacing" textLength="42" x="437" y="221.7104">install()</text><rect fill="#FEFECE" filter="url(#fpeboasbixc3p)" height="60.8906" style="stroke:#A80036;stroke-width:1.5;" width="181" x="426.5" y="24.5"/><text fill="#000000" font-family="sans-serif" font-size="12" lengthAdjust="spacing" textLength="68" x="483" y="37.6387">Plugins.cfg</text><line style="stroke:#A80036;stroke-width:1.5;" x1="427.5" x2="606.5" y1="42.4688" y2="42.4688"/><text fill="#000000" font-family="sans-serif" font-size="10" lengthAdjust="spacing" textLength="43" x="432.5" y="55.751">Plugin=..</text><text fill="#000000" font-family="sans-serif" font-size="10" lengthAdjust="spacing" textLength="169" x="432.5" y="67.3916">Plugin=Plugin_TheoraVideoSystem</text><text fill="#000000" font-family="sans-serif" font-size="10" lengthAdjust="spacing" textLength="43" x="432.5" y="79.0322">Plugin=..</text><rect fill="#FEFECE" filter="url(#fpeboasbixc3p)" height="95.8125" style="stroke:#A80036;stroke-width:1.5;" width="154" x="222" y="7"/><text fill="#000000" font-family="sans-serif" font-size="12" lengthAdjust="spacing" textLength="140" x="229" y="20.1387">Sample Material Script</text><line style="stroke:#A80036;stroke-width:1.5;" x1="223" x2="375" y1="24.9688" y2="24.9688"/><text fill="#000000" font-family="sans-serif" font-size="10" lengthAdjust="spacing" textLength="102" x="228" y="38.251">texture_source video</text><text fill="#000000" font-family="sans-serif" font-size="10" lengthAdjust="spacing" textLength="6" x="228" y="49.8916">{</text><text fill="#000000" font-family="sans-serif" font-size="10" lengthAdjust="spacing" textLength="95" x="252" y="61.5322">filename test.mpeg</text><text fill="#000000" font-family="sans-serif" font-size="10" lengthAdjust="spacing" textLength="76" x="252" y="73.1729">play_mode play</text><text fill="#000000" font-family="sans-serif" font-size="10" lengthAdjust="spacing" textLength="77" x="252" y="84.8135">sound_mode on</text><text fill="#000000" font-family="sans-serif" font-size="10" lengthAdjust="spacing" textLength="6" x="228" y="96.4541">}</text><!--MD5=[1f40bc5e1c9e0b9a08375e7249914fee]
link ExternalTextureSource to ExternalTextureSourceManager--><path codeLine="12" d="M132.56,228.58 C160.17,246.9 198.1,272.06 230.77,293.73 " fill="none" id="ExternalTextureSource-to-ExternalTextureSourceManager" style="stroke:#A80036;stroke-width:1.0;"/><polygon points="241.63,300.94,238.8423,294.2895,231.6312,294.3049,234.4189,300.9554,241.63,300.94" style="stroke:#A80036;stroke-width:1.0;fill:none;"/><!--MD5=[5d530e8717b95892f08fe173cbd22149]
link Plugins.cfg to Plugin_TheoraVideoSystem--><path codeLine="26" d="M517,85.69 C517,112.04 517,150.14 517,175.23 " fill="none" id="Plugins.cfg-Plugin_TheoraVideoSystem" style="stroke:#A80036;stroke-width:1.0;"/><!--MD5=[4c53286138301324fad19211f4dfd377]
link Plugin_TheoraVideoSystem to ExternalTextureSourceManager--><path codeLine="27" d="M476,228.58 C444.59,248.17 400.64,275.59 364.39,298.2 " fill="none" id="Plugin_TheoraVideoSystem-to-ExternalTextureSourceManager" style="stroke:#A80036;stroke-width:1.0;"/><polygon fill="#A80036" points="360.01,300.94,369.7641,299.5768,364.254,298.2964,365.5343,292.7864,360.01,300.94" style="stroke:#A80036;stroke-width:1.0;"/><!--MD5=[03854906d1c889472a549b845fc5fbc8]
link ScriptTranslator to ExternalTextureSourceManager--><path codeLine="28" d="M299,241.25 C299,258.05 299,277.87 299,295.26 " fill="none" id="ScriptTranslator-to-ExternalTextureSourceManager" style="stroke:#A80036;stroke-width:1.0;"/><polygon fill="#A80036" points="299,300.57,303,291.57,299,295.57,295,291.57,299,300.57" style="stroke:#A80036;stroke-width:1.0;"/><!--MD5=[28c30032e8918045edaba23e9fb61f9c]
link material to ScriptTranslator--><path codeLine="38" d="M299,103.08 C299,122.43 299,144.54 299,162.86 " fill="none" id="material-ScriptTranslator" style="stroke:#A80036;stroke-width:1.0;"/></g></svg>