<?xml version="1.0" encoding="UTF-8" standalone="no"?>
<!DOCTYPE svg PUBLIC "-//W3C//DTD SVG 1.1//EN"
 "http://www.w3.org/Graphics/SVG/1.1/DTD/svg11.dtd">
<!-- Generated by graphviz version 2.38.0 (20140413.2041)
 -->
<!-- Title: Ogre::WireBoundingBox Pages: 1 -->
<svg width="357pt" height="196pt"
 viewBox="0.00 0.00 356.50 196.00" xmlns="http://www.w3.org/2000/svg" xmlns:xlink="http://www.w3.org/1999/xlink">
<g id="graph0" class="graph" transform="scale(1 1) rotate(0) translate(4 192)">
<title>Ogre::WireBoundingBox</title>
<!-- Node0 -->
<g id="node1" class="node"><title>Node0</title>
<polygon fill="#bfbfbf" stroke="black" points="181,-0.5 181,-19.5 303,-19.5 303,-0.5 181,-0.5"/>
<text text-anchor="middle" x="242" y="-7.5" font-family="Helvetica,sans-Serif" font-size="10.00">Ogre::WireBoundingBox</text>
</g>
<!-- Node1 -->
<g id="node2" class="node"><title>Node1</title>
<g id="a_node2"><a xlink:href="class_ogre_1_1_simple_renderable.html" target="_top" xlink:title="Simple implementation of MovableObject and Renderable for single&#45;part custom objects. ">
<polygon fill="none" stroke="black" points="180.5,-56.5 180.5,-75.5 303.5,-75.5 303.5,-56.5 180.5,-56.5"/>
<text text-anchor="middle" x="242" y="-63.5" font-family="Helvetica,sans-Serif" font-size="10.00">Ogre::SimpleRenderable</text>
</a>
</g>
</g>
<!-- Node1&#45;&gt;Node0 -->
<g id="edge1" class="edge"><title>Node1&#45;&gt;Node0</title>
<path fill="none" stroke="midnightblue" d="M242,-45.8045C242,-36.9102 242,-26.7798 242,-19.7511"/>
<polygon fill="midnightblue" stroke="midnightblue" points="238.5,-46.083 242,-56.083 245.5,-46.083 238.5,-46.083"/>
</g>
<!-- Node2 -->
<g id="node3" class="node"><title>Node2</title>
<g id="a_node3"><a xlink:href="class_ogre_1_1_movable_object.html" target="_top" xlink:title="Abstract class defining a movable object in a scene. ">
<polygon fill="none" stroke="black" points="128.5,-112.5 128.5,-131.5 237.5,-131.5 237.5,-112.5 128.5,-112.5"/>
<text text-anchor="middle" x="183" y="-119.5" font-family="Helvetica,sans-Serif" font-size="10.00">Ogre::MovableObject</text>
</a>
</g>
</g>
<!-- Node2&#45;&gt;Node1 -->
<g id="edge2" class="edge"><title>Node2&#45;&gt;Node1</title>
<path fill="none" stroke="midnightblue" d="M199.895,-105.537C210.415,-95.9087 223.569,-83.8694 232.348,-75.8339"/>
<polygon fill="midnightblue" stroke="midnightblue" points="197.493,-102.99 192.479,-112.324 202.219,-108.154 197.493,-102.99"/>
</g>
<!-- Node3 -->
<g id="node4" class="node"><title>Node3</title>
<g id="a_node4"><a xlink:href="class_ogre_1_1_shadow_caster.html" target="_top" xlink:title="This class defines the interface that must be implemented by shadow casters. ">
<polygon fill="none" stroke="black" points="0,-168.5 0,-187.5 108,-187.5 108,-168.5 0,-168.5"/>
<text text-anchor="middle" x="54" y="-175.5" font-family="Helvetica,sans-Serif" font-size="10.00">Ogre::ShadowCaster</text>
</a>
</g>
</g>
<!-- Node3&#45;&gt;Node2 -->
<g id="edge3" class="edge"><title>Node3&#45;&gt;Node2</title>
<path fill="none" stroke="midnightblue" d="M83.854,-164.503C108.038,-154.38 141.462,-140.388 162.655,-131.516"/>
<polygon fill="midnightblue" stroke="midnightblue" points="82.3133,-161.354 74.4404,-168.444 85.0164,-167.811 82.3133,-161.354"/>
</g>
<!-- Node4 -->
<g id="node5" class="node"><title>Node4</title>
<g id="a_node5"><a xlink:href="class_ogre_1_1_animable_object.html" target="_top" xlink:title="Defines an interface to classes which have one or more AnimableValue instances to expose...">
<polygon fill="none" stroke="black" points="126.5,-168.5 126.5,-187.5 239.5,-187.5 239.5,-168.5 126.5,-168.5"/>
<text text-anchor="middle" x="183" y="-175.5" font-family="Helvetica,sans-Serif" font-size="10.00">Ogre::AnimableObject</text>
</a>
</g>
</g>
<!-- Node4&#45;&gt;Node2 -->
<g id="edge4" class="edge"><title>Node4&#45;&gt;Node2</title>
<path fill="none" stroke="midnightblue" d="M183,-157.805C183,-148.91 183,-138.78 183,-131.751"/>
<polygon fill="midnightblue" stroke="midnightblue" points="179.5,-158.083 183,-168.083 186.5,-158.083 179.5,-158.083"/>
</g>
<!-- Node5 -->
<g id="node6" class="node"><title>Node5</title>
<g id="a_node6"><a xlink:href="class_ogre_1_1_allocated_object.html" target="_top" xlink:title="Superclass for all objects that wish to use custom memory allocators when their new / delete operator...">
<polygon fill="none" stroke="black" points="257.5,-168.5 257.5,-187.5 332.5,-187.5 332.5,-168.5 257.5,-168.5"/>
<text text-anchor="middle" x="295" y="-175.5" font-family="Helvetica,sans-Serif" font-size="10.00">MovableAlloc</text>
</a>
</g>
</g>
<!-- Node5&#45;&gt;Node2 -->
<g id="edge5" class="edge"><title>Node5&#45;&gt;Node2</title>
<path fill="none" stroke="midnightblue" d="M267.751,-163.862C246.984,-153.849 218.977,-140.346 200.95,-131.655"/>
<polygon fill="midnightblue" stroke="midnightblue" points="266.477,-167.134 277.005,-168.324 269.518,-160.828 266.477,-167.134"/>
</g>
<!-- Node6 -->
<g id="node7" class="node"><title>Node6</title>
<g id="a_node7"><a xlink:href="class_ogre_1_1_renderable.html" target="_top" xlink:title="Abstract class defining the interface all renderable objects must implement. ">
<polygon fill="none" stroke="black" points="255.5,-112.5 255.5,-131.5 348.5,-131.5 348.5,-112.5 255.5,-112.5"/>
<text text-anchor="middle" x="302" y="-119.5" font-family="Helvetica,sans-Serif" font-size="10.00">Ogre::Renderable</text>
</a>
</g>
</g>
<!-- Node6&#45;&gt;Node1 -->
<g id="edge6" class="edge"><title>Node6&#45;&gt;Node1</title>
<path fill="none" stroke="midnightblue" d="M284.819,-105.537C274.121,-95.9087 260.744,-83.8694 251.815,-75.8339"/>
<polygon fill="midnightblue" stroke="midnightblue" points="282.586,-108.236 292.36,-112.324 287.268,-103.033 282.586,-108.236"/>
</g>
</g>
</svg>
