<?xml version="1.0" encoding="UTF-8" standalone="no"?>
<!DOCTYPE svg PUBLIC "-//W3C//DTD SVG 1.1//EN"
 "http://www.w3.org/Graphics/SVG/1.1/DTD/svg11.dtd">
<!-- Generated by graphviz version 2.38.0 (20140413.2041)
 -->
<!-- Title: Ogre::ShadowCaster Pages: 1 -->
<svg width="794pt" height="608pt"
 viewBox="0.00 0.00 794.00 608.00" xmlns="http://www.w3.org/2000/svg" xmlns:xlink="http://www.w3.org/1999/xlink">
<g id="graph0" class="graph" transform="scale(1 1) rotate(0) translate(4 604)">
<title>Ogre::ShadowCaster</title>
<!-- Node0 -->
<g id="node1" class="node"><title>Node0</title>
<polygon fill="#bfbfbf" stroke="black" points="0,-324.5 0,-343.5 108,-343.5 108,-324.5 0,-324.5"/>
<text text-anchor="middle" x="54" y="-331.5" font-family="Helvetica,sans-Serif" font-size="10.00">Ogre::ShadowCaster</text>
</g>
<!-- Node1 -->
<g id="node2" class="node"><title>Node1</title>
<g id="a_node2"><a xlink:href="class_ogre_1_1_movable_object.html" target="_top" xlink:title="Abstract class defining a movable object in a scene. ">
<polygon fill="none" stroke="black" points="144,-324.5 144,-343.5 253,-343.5 253,-324.5 144,-324.5"/>
<text text-anchor="middle" x="198.5" y="-331.5" font-family="Helvetica,sans-Serif" font-size="10.00">Ogre::MovableObject</text>
</a>
</g>
</g>
<!-- Node0&#45;&gt;Node1 -->
<g id="edge1" class="edge"><title>Node0&#45;&gt;Node1</title>
<path fill="none" stroke="midnightblue" d="M118.079,-334C126.702,-334 135.487,-334 143.919,-334"/>
<polygon fill="midnightblue" stroke="midnightblue" points="118.062,-330.5 108.062,-334 118.062,-337.5 118.062,-330.5"/>
</g>
<!-- Node2 -->
<g id="node3" class="node"><title>Node2</title>
<g id="a_node3"><a xlink:href="class_ogre_1_1_billboard_chain.html" target="_top" xlink:title="Allows the rendering of a chain of connected billboards. ">
<polygon fill="none" stroke="black" points="300,-580.5 300,-599.5 407,-599.5 407,-580.5 300,-580.5"/>
<text text-anchor="middle" x="353.5" y="-587.5" font-family="Helvetica,sans-Serif" font-size="10.00">Ogre::BillboardChain</text>
</a>
</g>
</g>
<!-- Node1&#45;&gt;Node2 -->
<g id="edge2" class="edge"><title>Node1&#45;&gt;Node2</title>
<path fill="none" stroke="midnightblue" d="M201.165,-353.792C206.043,-399.032 224.34,-510.735 289,-571 293.125,-574.844 297.997,-577.913 303.179,-580.362"/>
<polygon fill="midnightblue" stroke="midnightblue" points="204.645,-353.409 200.194,-343.795 197.678,-354.086 204.645,-353.409"/>
</g>
<!-- Node4 -->
<g id="node5" class="node"><title>Node4</title>
<g id="a_node5"><a xlink:href="class_ogre_1_1_billboard_set.html" target="_top" xlink:title="A collection of billboards (faces which are always facing the given direction) with the same (default...">
<polygon fill="none" stroke="black" points="305.5,-542.5 305.5,-561.5 401.5,-561.5 401.5,-542.5 305.5,-542.5"/>
<text text-anchor="middle" x="353.5" y="-549.5" font-family="Helvetica,sans-Serif" font-size="10.00">Ogre::BillboardSet</text>
</a>
</g>
</g>
<!-- Node1&#45;&gt;Node4 -->
<g id="edge4" class="edge"><title>Node1&#45;&gt;Node4</title>
<path fill="none" stroke="midnightblue" d="M202.729,-353.544C210.334,-393.319 233.123,-484.047 289,-533 293.76,-537.171 299.406,-540.426 305.338,-542.967"/>
<polygon fill="midnightblue" stroke="midnightblue" points="206.147,-352.774 200.938,-343.548 199.257,-354.009 206.147,-352.774"/>
</g>
<!-- Node5 -->
<g id="node6" class="node"><title>Node5</title>
<g id="a_node6"><a xlink:href="class_ogre_1_1_entity.html" target="_top" xlink:title="Defines an instance of a discrete, movable object based on a Mesh. ">
<polygon fill="none" stroke="black" points="319,-504.5 319,-523.5 388,-523.5 388,-504.5 319,-504.5"/>
<text text-anchor="middle" x="353.5" y="-511.5" font-family="Helvetica,sans-Serif" font-size="10.00">Ogre::Entity</text>
</a>
</g>
</g>
<!-- Node1&#45;&gt;Node5 -->
<g id="edge5" class="edge"><title>Node1&#45;&gt;Node5</title>
<path fill="none" stroke="midnightblue" d="M204.92,-353.266C215.422,-387.06 241.769,-457.033 289,-495 297.52,-501.849 308.462,-506.231 318.854,-509.034"/>
<polygon fill="midnightblue" stroke="midnightblue" points="208.266,-352.239 202.061,-343.651 201.556,-354.234 208.266,-352.239"/>
</g>
<!-- Node6 -->
<g id="node7" class="node"><title>Node6</title>
<g id="a_node7"><a xlink:href="class_ogre_1_1_frustum.html" target="_top" xlink:title="A frustum represents a pyramid, capped at the near and far end which is used to represent either a vi...">
<polygon fill="none" stroke="black" points="313.5,-466.5 313.5,-485.5 393.5,-485.5 393.5,-466.5 313.5,-466.5"/>
<text text-anchor="middle" x="353.5" y="-473.5" font-family="Helvetica,sans-Serif" font-size="10.00">Ogre::Frustum</text>
</a>
</g>
</g>
<!-- Node1&#45;&gt;Node6 -->
<g id="edge6" class="edge"><title>Node1&#45;&gt;Node6</title>
<path fill="none" stroke="midnightblue" d="M208.223,-352.819C221.719,-379.875 250.207,-429.525 289,-457 296.231,-462.121 304.856,-465.881 313.384,-468.634"/>
<polygon fill="midnightblue" stroke="midnightblue" points="211.295,-351.132 203.795,-343.649 204.992,-354.176 211.295,-351.132"/>
</g>
<!-- Node10 -->
<g id="node11" class="node"><title>Node10</title>
<g id="a_node11"><a xlink:href="class_ogre_1_1_instance_batch.html" target="_top" xlink:title="InstanceBatch forms part of the new Instancing system This is an abstract class that must be derived ...">
<polygon fill="none" stroke="black" points="300,-428.5 300,-447.5 407,-447.5 407,-428.5 300,-428.5"/>
<text text-anchor="middle" x="353.5" y="-435.5" font-family="Helvetica,sans-Serif" font-size="10.00">Ogre::InstanceBatch</text>
</a>
</g>
</g>
<!-- Node1&#45;&gt;Node10 -->
<g id="edge10" class="edge"><title>Node1&#45;&gt;Node10</title>
<path fill="none" stroke="midnightblue" d="M213.603,-351.645C229.853,-370.855 258.29,-401.205 289,-419 295.571,-422.808 302.975,-425.915 310.345,-428.43"/>
<polygon fill="midnightblue" stroke="midnightblue" points="216.098,-349.169 207.031,-343.688 210.701,-353.627 216.098,-349.169"/>
</g>
<!-- Node16 -->
<g id="node17" class="node"><title>Node16</title>
<g id="a_node17"><a xlink:href="class_ogre_1_1_instanced_entity.html" target="_top" xlink:title="Ogre::InstancedEntity">
<polygon fill="none" stroke="black" points="297.5,-390.5 297.5,-409.5 409.5,-409.5 409.5,-390.5 297.5,-390.5"/>
<text text-anchor="middle" x="353.5" y="-397.5" font-family="Helvetica,sans-Serif" font-size="10.00">Ogre::InstancedEntity</text>
</a>
</g>
</g>
<!-- Node1&#45;&gt;Node16 -->
<g id="edge16" class="edge"><title>Node1&#45;&gt;Node16</title>
<path fill="none" stroke="midnightblue" d="M224.983,-348.568C242.6,-358.27 266.776,-370.866 289,-380 298.408,-383.866 308.851,-387.438 318.506,-390.46"/>
<polygon fill="midnightblue" stroke="midnightblue" points="226.363,-345.33 215.925,-343.516 222.953,-351.443 226.363,-345.33"/>
</g>
<!-- Node17 -->
<g id="node18" class="node"><title>Node17</title>
<g id="a_node18"><a xlink:href="class_ogre_1_1_instanced_geometry_1_1_batch_instance.html" target="_top" xlink:title="The details of a topological BatchInstance which is the highest level of partitioning for this class...">
<polygon fill="none" stroke="black" points="289,-341 289,-371 418,-371 418,-341 289,-341"/>
<text text-anchor="start" x="297" y="-359" font-family="Helvetica,sans-Serif" font-size="10.00">Ogre::InstancedGeometry</text>
<text text-anchor="middle" x="353.5" y="-348" font-family="Helvetica,sans-Serif" font-size="10.00">::BatchInstance</text>
</a>
</g>
</g>
<!-- Node1&#45;&gt;Node17 -->
<g id="edge17" class="edge"><title>Node1&#45;&gt;Node17</title>
<path fill="none" stroke="midnightblue" d="M262.911,-343.118C271.454,-344.346 280.222,-345.607 288.771,-346.836"/>
<polygon fill="midnightblue" stroke="midnightblue" points="263.408,-339.654 253.012,-341.695 262.412,-346.582 263.408,-339.654"/>
</g>
<!-- Node18 -->
<g id="node19" class="node"><title>Node18</title>
<g id="a_node19"><a xlink:href="class_ogre_1_1_light.html" target="_top" xlink:title="Representation of a dynamic light source in the scene. ">
<polygon fill="none" stroke="black" points="321,-302.5 321,-321.5 386,-321.5 386,-302.5 321,-302.5"/>
<text text-anchor="middle" x="353.5" y="-309.5" font-family="Helvetica,sans-Serif" font-size="10.00">Ogre::Light</text>
</a>
</g>
</g>
<!-- Node1&#45;&gt;Node18 -->
<g id="edge18" class="edge"><title>Node1&#45;&gt;Node18</title>
<path fill="none" stroke="midnightblue" d="M262.959,-324.875C282.842,-322.016 303.936,-318.983 320.653,-316.579"/>
<polygon fill="midnightblue" stroke="midnightblue" points="262.412,-321.418 253.012,-326.305 263.408,-328.346 262.412,-321.418"/>
</g>
<!-- Node20 -->
<g id="node21" class="node"><title>Node20</title>
<g id="a_node21"><a xlink:href="class_ogre_1_1_manual_object.html" target="_top" xlink:title="Class providing a much simplified interface to generating manual objects with custom geometry...">
<polygon fill="none" stroke="black" points="301.5,-264.5 301.5,-283.5 405.5,-283.5 405.5,-264.5 301.5,-264.5"/>
<text text-anchor="middle" x="353.5" y="-271.5" font-family="Helvetica,sans-Serif" font-size="10.00">Ogre::ManualObject</text>
</a>
</g>
</g>
<!-- Node1&#45;&gt;Node20 -->
<g id="edge20" class="edge"><title>Node1&#45;&gt;Node20</title>
<path fill="none" stroke="midnightblue" d="M227.442,-319.985C244.883,-311.542 267.947,-300.928 289,-293 298.046,-289.594 307.992,-286.377 317.274,-283.592"/>
<polygon fill="midnightblue" stroke="midnightblue" points="225.822,-316.881 218.379,-324.42 228.899,-323.168 225.822,-316.881"/>
</g>
<!-- Node21 -->
<g id="node22" class="node"><title>Node21</title>
<g id="a_node22"><a xlink:href="class_ogre_1_1_movable_plane.html" target="_top" xlink:title="Definition of a Plane that may be attached to a node, and the derived details of it retrieved simply...">
<polygon fill="none" stroke="black" points="301,-226.5 301,-245.5 406,-245.5 406,-226.5 301,-226.5"/>
<text text-anchor="middle" x="353.5" y="-233.5" font-family="Helvetica,sans-Serif" font-size="10.00">Ogre::MovablePlane</text>
</a>
</g>
</g>
<!-- Node1&#45;&gt;Node21 -->
<g id="edge21" class="edge"><title>Node1&#45;&gt;Node21</title>
<path fill="none" stroke="midnightblue" d="M214.65,-316.801C231.247,-298.955 259.461,-271.405 289,-255 295.841,-251.201 303.528,-248.08 311.129,-245.544"/>
<polygon fill="midnightblue" stroke="midnightblue" points="212.02,-314.491 207.88,-324.244 217.198,-319.202 212.02,-314.491"/>
</g>
<!-- Node22 -->
<g id="node23" class="node"><title>Node22</title>
<g id="a_node23"><a xlink:href="class_ogre_1_1_particle_system.html" target="_top" xlink:title="Class defining particle system based special effects. ">
<polygon fill="none" stroke="black" points="298.5,-188.5 298.5,-207.5 408.5,-207.5 408.5,-188.5 298.5,-188.5"/>
<text text-anchor="middle" x="353.5" y="-195.5" font-family="Helvetica,sans-Serif" font-size="10.00">Ogre::ParticleSystem</text>
</a>
</g>
</g>
<!-- Node1&#45;&gt;Node22 -->
<g id="edge22" class="edge"><title>Node1&#45;&gt;Node22</title>
<path fill="none" stroke="midnightblue" d="M208.853,-315.38C222.797,-289.497 251.47,-242.911 289,-217 294.587,-213.143 300.972,-210.054 307.489,-207.585"/>
<polygon fill="midnightblue" stroke="midnightblue" points="205.619,-314.012 204.092,-324.496 211.824,-317.252 205.619,-314.012"/>
</g>
<!-- Node23 -->
<g id="node24" class="node"><title>Node23</title>
<g id="a_node24"><a xlink:href="class_ogre_1_1_portal_base.html" target="_top" xlink:title="PortalBase &#45; Base class to Portal and AntiPortal classes. ">
<polygon fill="none" stroke="black" points="307.5,-150.5 307.5,-169.5 399.5,-169.5 399.5,-150.5 307.5,-150.5"/>
<text text-anchor="middle" x="353.5" y="-157.5" font-family="Helvetica,sans-Serif" font-size="10.00">Ogre::PortalBase</text>
</a>
</g>
</g>
<!-- Node1&#45;&gt;Node23 -->
<g id="edge23" class="edge"><title>Node1&#45;&gt;Node23</title>
<path fill="none" stroke="midnightblue" d="M205.429,-314.551C216.451,-281.678 243.227,-215.185 289,-179 294.416,-174.718 300.782,-171.4 307.354,-168.828"/>
<polygon fill="midnightblue" stroke="midnightblue" points="202.018,-313.726 202.291,-324.317 208.682,-315.868 202.018,-313.726"/>
</g>
<!-- Node26 -->
<g id="node27" class="node"><title>Node26</title>
<g id="a_node27"><a xlink:href="class_ogre_1_1_simple_renderable.html" target="_top" xlink:title="Simple implementation of MovableObject and Renderable for single&#45;part custom objects. ">
<polygon fill="none" stroke="black" points="292,-98.5 292,-117.5 415,-117.5 415,-98.5 292,-98.5"/>
<text text-anchor="middle" x="353.5" y="-105.5" font-family="Helvetica,sans-Serif" font-size="10.00">Ogre::SimpleRenderable</text>
</a>
</g>
</g>
<!-- Node1&#45;&gt;Node26 -->
<g id="edge26" class="edge"><title>Node1&#45;&gt;Node26</title>
<path fill="none" stroke="midnightblue" d="M204.014,-314.556C213.656,-276.805 239.523,-192.758 289,-141 298.873,-130.672 312.69,-122.964 324.915,-117.606"/>
<polygon fill="midnightblue" stroke="midnightblue" points="200.605,-313.761 201.626,-324.307 207.404,-315.427 200.605,-313.761"/>
</g>
<!-- Node31 -->
<g id="node32" class="node"><title>Node31</title>
<g id="a_node32"><a xlink:href="class_ogre_1_1_static_geometry_1_1_region.html" target="_top" xlink:title="The details of a topological region which is the highest level of partitioning for this class...">
<polygon fill="none" stroke="black" points="297.5,-49 297.5,-79 409.5,-79 409.5,-49 297.5,-49"/>
<text text-anchor="start" x="305.5" y="-67" font-family="Helvetica,sans-Serif" font-size="10.00">Ogre::StaticGeometry</text>
<text text-anchor="middle" x="353.5" y="-56" font-family="Helvetica,sans-Serif" font-size="10.00">::Region</text>
</a>
</g>
</g>
<!-- Node1&#45;&gt;Node31 -->
<g id="edge31" class="edge"><title>Node1&#45;&gt;Node31</title>
<path fill="none" stroke="midnightblue" d="M201.32,-313.934C206.522,-267.996 225.452,-154.145 289,-89 292.723,-85.1835 297.099,-81.9363 301.784,-79.1761"/>
<polygon fill="midnightblue" stroke="midnightblue" points="197.818,-313.773 200.274,-324.079 204.781,-314.49 197.818,-313.773"/>
</g>
<!-- Node3 -->
<g id="node4" class="node"><title>Node3</title>
<g id="a_node4"><a xlink:href="class_ogre_1_1_ribbon_trail.html" target="_top" xlink:title="Subclass of BillboardChain which automatically leaves a trail behind one or more Node instances...">
<polygon fill="none" stroke="black" points="481.5,-580.5 481.5,-599.5 574.5,-599.5 574.5,-580.5 481.5,-580.5"/>
<text text-anchor="middle" x="528" y="-587.5" font-family="Helvetica,sans-Serif" font-size="10.00">Ogre::RibbonTrail</text>
</a>
</g>
</g>
<!-- Node2&#45;&gt;Node3 -->
<g id="edge3" class="edge"><title>Node2&#45;&gt;Node3</title>
<path fill="none" stroke="midnightblue" d="M417.396,-590C438.561,-590 461.756,-590 481.336,-590"/>
<polygon fill="midnightblue" stroke="midnightblue" points="417.193,-586.5 407.193,-590 417.193,-593.5 417.193,-586.5"/>
</g>
<!-- Node7 -->
<g id="node8" class="node"><title>Node7</title>
<g id="a_node8"><a xlink:href="class_ogre_1_1_camera.html" target="_top" xlink:title="A viewpoint from which the scene will be rendered. ">
<polygon fill="none" stroke="black" points="489,-485.5 489,-504.5 567,-504.5 567,-485.5 489,-485.5"/>
<text text-anchor="middle" x="528" y="-492.5" font-family="Helvetica,sans-Serif" font-size="10.00">Ogre::Camera</text>
</a>
</g>
</g>
<!-- Node6&#45;&gt;Node7 -->
<g id="edge7" class="edge"><title>Node6&#45;&gt;Node7</title>
<path fill="none" stroke="midnightblue" d="M403.691,-481.418C430.752,-484.399 463.824,-488.041 488.902,-490.804"/>
<polygon fill="midnightblue" stroke="midnightblue" points="403.966,-477.927 393.643,-480.311 403.2,-484.885 403.966,-477.927"/>
</g>
<!-- Node8 -->
<g id="node9" class="node"><title>Node8</title>
<g id="a_node9"><a xlink:href="class_ogre_1_1_octree_camera.html" target="_top" xlink:title="Specialized viewpoint from which an Octree can be rendered. ">
<polygon fill="none" stroke="black" points="658.5,-523.5 658.5,-542.5 765.5,-542.5 765.5,-523.5 658.5,-523.5"/>
<text text-anchor="middle" x="712" y="-530.5" font-family="Helvetica,sans-Serif" font-size="10.00">Ogre::OctreeCamera</text>
</a>
</g>
</g>
<!-- Node7&#45;&gt;Node8 -->
<g id="edge8" class="edge"><title>Node7&#45;&gt;Node8</title>
<path fill="none" stroke="midnightblue" d="M577.278,-505.08C604.621,-510.789 638.621,-517.888 665.495,-523.499"/>
<polygon fill="midnightblue" stroke="midnightblue" points="577.657,-501.584 567.153,-502.966 576.227,-508.436 577.657,-501.584"/>
</g>
<!-- Node9 -->
<g id="node10" class="node"><title>Node9</title>
<g id="a_node10"><a xlink:href="class_ogre_1_1_p_c_z_camera.html" target="_top" xlink:title="Specialized viewpoint from which an PCZone Scene can be rendered. ">
<polygon fill="none" stroke="black" points="663,-485.5 663,-504.5 761,-504.5 761,-485.5 663,-485.5"/>
<text text-anchor="middle" x="712" y="-492.5" font-family="Helvetica,sans-Serif" font-size="10.00">Ogre::PCZCamera</text>
</a>
</g>
</g>
<!-- Node7&#45;&gt;Node9 -->
<g id="edge9" class="edge"><title>Node7&#45;&gt;Node9</title>
<path fill="none" stroke="midnightblue" d="M577.324,-495C603.762,-495 636.413,-495 662.827,-495"/>
<polygon fill="midnightblue" stroke="midnightblue" points="577.153,-491.5 567.153,-495 577.153,-498.5 577.153,-491.5"/>
</g>
<!-- Node11 -->
<g id="node12" class="node"><title>Node11</title>
<g id="a_node12"><a xlink:href="class_ogre_1_1_base_instance_batch_v_t_f.html" target="_top" xlink:title="Instancing implementation using vertex texture through Vertex Texture Fetch (VTF) This implementation...">
<polygon fill="none" stroke="black" points="454,-447.5 454,-466.5 602,-466.5 602,-447.5 454,-447.5"/>
<text text-anchor="middle" x="528" y="-454.5" font-family="Helvetica,sans-Serif" font-size="10.00">Ogre::BaseInstanceBatchVTF</text>
</a>
</g>
</g>
<!-- Node10&#45;&gt;Node11 -->
<g id="edge11" class="edge"><title>Node10&#45;&gt;Node11</title>
<path fill="none" stroke="midnightblue" d="M417.441,-444.933C429.319,-446.241 441.834,-447.619 453.989,-448.958"/>
<polygon fill="midnightblue" stroke="midnightblue" points="417.516,-441.42 407.193,-443.804 416.75,-448.378 417.516,-441.42"/>
</g>
<!-- Node14 -->
<g id="node15" class="node"><title>Node14</title>
<g id="a_node15"><a xlink:href="class_ogre_1_1_instance_batch_h_w.html" target="_top" xlink:title="This is technique requires true instancing hardware support. ">
<polygon fill="none" stroke="black" points="466,-409.5 466,-428.5 590,-428.5 590,-409.5 466,-409.5"/>
<text text-anchor="middle" x="528" y="-416.5" font-family="Helvetica,sans-Serif" font-size="10.00">Ogre::InstanceBatchHW</text>
</a>
</g>
</g>
<!-- Node10&#45;&gt;Node14 -->
<g id="edge14" class="edge"><title>Node10&#45;&gt;Node14</title>
<path fill="none" stroke="midnightblue" d="M417.393,-431.073C433.201,-429.332 450.14,-427.466 465.861,-425.734"/>
<polygon fill="midnightblue" stroke="midnightblue" points="416.75,-427.622 407.193,-432.196 417.516,-434.58 416.75,-427.622"/>
</g>
<!-- Node15 -->
<g id="node16" class="node"><title>Node15</title>
<g id="a_node16"><a xlink:href="class_ogre_1_1_instance_batch_shader.html" target="_top" xlink:title="This is the same technique the old &quot;InstancedGeometry&quot; implementation used (with improvements). ">
<polygon fill="none" stroke="black" points="459.5,-371.5 459.5,-390.5 596.5,-390.5 596.5,-371.5 459.5,-371.5"/>
<text text-anchor="middle" x="528" y="-378.5" font-family="Helvetica,sans-Serif" font-size="10.00">Ogre::InstanceBatchShader</text>
</a>
</g>
</g>
<!-- Node10&#45;&gt;Node15 -->
<g id="edge15" class="edge"><title>Node10&#45;&gt;Node15</title>
<path fill="none" stroke="midnightblue" d="M400.69,-425.336C406.578,-423.385 412.473,-421.26 418,-419 434.746,-412.152 437.133,-406.544 454,-400 463.401,-396.352 473.751,-393.18 483.628,-390.527"/>
<polygon fill="midnightblue" stroke="midnightblue" points="399.334,-422.094 390.857,-428.449 401.447,-428.767 399.334,-422.094"/>
</g>
<!-- Node12 -->
<g id="node13" class="node"><title>Node12</title>
<g id="a_node13"><a xlink:href="class_ogre_1_1_instance_batch_h_w___v_t_f.html" target="_top" xlink:title="Instancing implementation using vertex texture through Vertex Texture Fetch (VTF) and hardware instan...">
<polygon fill="none" stroke="black" points="638,-447.5 638,-466.5 786,-466.5 786,-447.5 638,-447.5"/>
<text text-anchor="middle" x="712" y="-454.5" font-family="Helvetica,sans-Serif" font-size="10.00">Ogre::InstanceBatchHW_VTF</text>
</a>
</g>
</g>
<!-- Node11&#45;&gt;Node12 -->
<g id="edge12" class="edge"><title>Node11&#45;&gt;Node12</title>
<path fill="none" stroke="midnightblue" d="M612.516,-457C620.992,-457 629.556,-457 637.91,-457"/>
<polygon fill="midnightblue" stroke="midnightblue" points="612.24,-453.5 602.24,-457 612.24,-460.5 612.24,-453.5"/>
</g>
<!-- Node13 -->
<g id="node14" class="node"><title>Node13</title>
<g id="a_node14"><a xlink:href="class_ogre_1_1_instance_batch_v_t_f.html" target="_top" xlink:title="Ogre::InstanceBatchVTF">
<polygon fill="none" stroke="black" points="649.5,-409.5 649.5,-428.5 774.5,-428.5 774.5,-409.5 649.5,-409.5"/>
<text text-anchor="middle" x="712" y="-416.5" font-family="Helvetica,sans-Serif" font-size="10.00">Ogre::InstanceBatchVTF</text>
</a>
</g>
</g>
<!-- Node11&#45;&gt;Node13 -->
<g id="edge13" class="edge"><title>Node11&#45;&gt;Node13</title>
<path fill="none" stroke="midnightblue" d="M584.946,-445.319C610.756,-439.93 641.007,-433.614 665.404,-428.52"/>
<polygon fill="midnightblue" stroke="midnightblue" points="584,-441.941 574.926,-447.411 585.431,-448.793 584,-441.941"/>
</g>
<!-- Node19 -->
<g id="node20" class="node"><title>Node19</title>
<g id="a_node20"><a xlink:href="class_ogre_1_1_p_c_z_light.html" target="_top" xlink:title="Specialized version of Ogre::Light which caches which zones the light affects. ">
<polygon fill="none" stroke="black" points="485.5,-302.5 485.5,-321.5 570.5,-321.5 570.5,-302.5 485.5,-302.5"/>
<text text-anchor="middle" x="528" y="-309.5" font-family="Helvetica,sans-Serif" font-size="10.00">Ogre::PCZLight</text>
</a>
</g>
</g>
<!-- Node18&#45;&gt;Node19 -->
<g id="edge19" class="edge"><title>Node18&#45;&gt;Node19</title>
<path fill="none" stroke="midnightblue" d="M396.45,-312C423.493,-312 458.513,-312 485.473,-312"/>
<polygon fill="midnightblue" stroke="midnightblue" points="396.139,-308.5 386.139,-312 396.139,-315.5 396.139,-308.5"/>
</g>
<!-- Node24 -->
<g id="node25" class="node"><title>Node24</title>
<g id="a_node25"><a xlink:href="class_ogre_1_1_anti_portal.html" target="_top" xlink:title="AntiPortal datastructure for occlusion culling. ">
<polygon fill="none" stroke="black" points="485,-202.5 485,-221.5 571,-221.5 571,-202.5 485,-202.5"/>
<text text-anchor="middle" x="528" y="-209.5" font-family="Helvetica,sans-Serif" font-size="10.00">Ogre::AntiPortal</text>
</a>
</g>
</g>
<!-- Node23&#45;&gt;Node24 -->
<g id="edge24" class="edge"><title>Node23&#45;&gt;Node24</title>
<path fill="none" stroke="midnightblue" d="M397.986,-172.507C404.716,-174.587 411.565,-176.79 418,-179 434.236,-184.576 437.666,-187.718 454,-193 464.591,-196.425 476.197,-199.67 486.976,-202.477"/>
<polygon fill="midnightblue" stroke="midnightblue" points="398.86,-169.114 388.275,-169.559 396.827,-175.813 398.86,-169.114"/>
</g>
<!-- Node25 -->
<g id="node26" class="node"><title>Node25</title>
<g id="a_node26"><a xlink:href="class_ogre_1_1_portal.html" target="_top" xlink:title="Portal datastructure for connecting zones. ">
<polygon fill="none" stroke="black" points="493.5,-164.5 493.5,-183.5 562.5,-183.5 562.5,-164.5 493.5,-164.5"/>
<text text-anchor="middle" x="528" y="-171.5" font-family="Helvetica,sans-Serif" font-size="10.00">Ogre::Portal</text>
</a>
</g>
</g>
<!-- Node23&#45;&gt;Node25 -->
<g id="edge25" class="edge"><title>Node23&#45;&gt;Node25</title>
<path fill="none" stroke="midnightblue" d="M410.085,-164.511C437.544,-166.74 469.77,-169.355 493.427,-171.275"/>
<polygon fill="midnightblue" stroke="midnightblue" points="410.073,-160.999 399.822,-163.678 409.506,-167.976 410.073,-160.999"/>
</g>
<!-- Node27 -->
<g id="node28" class="node"><title>Node27</title>
<g id="a_node28"><a xlink:href="class_ogre_1_1_instanced_geometry_1_1_geometry_bucket.html" target="_top" xlink:title="A GeometryBucket is a the lowest level bucket where geometry with the same vertex &amp; index format is s...">
<polygon fill="none" stroke="black" points="463.5,-115 463.5,-145 592.5,-145 592.5,-115 463.5,-115"/>
<text text-anchor="start" x="471.5" y="-133" font-family="Helvetica,sans-Serif" font-size="10.00">Ogre::InstancedGeometry</text>
<text text-anchor="middle" x="528" y="-122" font-family="Helvetica,sans-Serif" font-size="10.00">::GeometryBucket</text>
</a>
</g>
</g>
<!-- Node26&#45;&gt;Node27 -->
<g id="edge27" class="edge"><title>Node26&#45;&gt;Node27</title>
<path fill="none" stroke="midnightblue" d="M425.278,-117.027C437.846,-118.63 450.867,-120.29 463.227,-121.867"/>
<polygon fill="midnightblue" stroke="midnightblue" points="425.68,-113.55 415.317,-115.756 424.794,-120.493 425.68,-113.55"/>
</g>
<!-- Node28 -->
<g id="node29" class="node"><title>Node28</title>
<g id="a_node29"><a xlink:href="class_ogre_1_1_rectangle2_d.html" target="_top" xlink:title="Allows the rendering of a simple 2D rectangle This class renders a simple 2D rectangle; this rectangl...">
<polygon fill="none" stroke="black" points="477.5,-76.5 477.5,-95.5 578.5,-95.5 578.5,-76.5 477.5,-76.5"/>
<text text-anchor="middle" x="528" y="-83.5" font-family="Helvetica,sans-Serif" font-size="10.00">Ogre::Rectangle2D</text>
</a>
</g>
</g>
<!-- Node26&#45;&gt;Node28 -->
<g id="edge28" class="edge"><title>Node26&#45;&gt;Node28</title>
<path fill="none" stroke="midnightblue" d="M425.439,-98.9527C442.837,-96.7339 461.093,-94.4055 477.253,-92.3445"/>
<polygon fill="midnightblue" stroke="midnightblue" points="424.794,-95.5065 415.317,-100.244 425.68,-102.45 424.794,-95.5065"/>
</g>
<!-- Node29 -->
<g id="node30" class="node"><title>Node29</title>
<g id="a_node30"><a xlink:href="class_ogre_1_1_volume_1_1_chunk.html" target="_top" xlink:title="A single volume chunk mesh. ">
<polygon fill="none" stroke="black" points="472.5,-38.5 472.5,-57.5 583.5,-57.5 583.5,-38.5 472.5,-38.5"/>
<text text-anchor="middle" x="528" y="-45.5" font-family="Helvetica,sans-Serif" font-size="10.00">Ogre::Volume::Chunk</text>
</a>
</g>
</g>
<!-- Node26&#45;&gt;Node29 -->
<g id="edge29" class="edge"><title>Node26&#45;&gt;Node29</title>
<path fill="none" stroke="midnightblue" d="M399.45,-95.2224C405.763,-93.0305 412.104,-90.6089 418,-88 434.939,-80.5045 436.877,-74.0654 454,-67 462.958,-63.3035 472.837,-60.1565 482.356,-57.5501"/>
<polygon fill="midnightblue" stroke="midnightblue" points="398.017,-92.0097 389.621,-98.4719 400.215,-98.6559 398.017,-92.0097"/>
</g>
<!-- Node30 -->
<g id="node31" class="node"><title>Node30</title>
<g id="a_node31"><a xlink:href="class_ogre_1_1_wire_bounding_box.html" target="_top" xlink:title="Allows the rendering of a wireframe bounding box. ">
<polygon fill="none" stroke="black" points="467,-0.5 467,-19.5 589,-19.5 589,-0.5 467,-0.5"/>
<text text-anchor="middle" x="528" y="-7.5" font-family="Helvetica,sans-Serif" font-size="10.00">Ogre::WireBoundingBox</text>
</a>
</g>
</g>
<!-- Node26&#45;&gt;Node30 -->
<g id="edge30" class="edge"><title>Node26&#45;&gt;Node30</title>
<path fill="none" stroke="midnightblue" d="M408.454,-94.1632C411.83,-92.3528 415.05,-90.3084 418,-88 442.191,-69.0686 429.339,-47.3146 454,-29 459.257,-25.096 465.245,-21.9923 471.478,-19.525"/>
<polygon fill="midnightblue" stroke="midnightblue" points="406.842,-91.0525 399.237,-98.4289 409.783,-97.4051 406.842,-91.0525"/>
</g>
</g>
</svg>
