<?xml version="1.0" encoding="UTF-8" standalone="no"?>
<!DOCTYPE svg PUBLIC "-//W3C//DTD SVG 1.1//EN"
 "http://www.w3.org/Graphics/SVG/1.1/DTD/svg11.dtd">
<!-- Generated by graphviz version 2.38.0 (20140413.2041)
 -->
<!-- Title: Ogre::AreaEmitter Pages: 1 -->
<svg width="474pt" height="308pt"
 viewBox="0.00 0.00 473.50 308.00" xmlns="http://www.w3.org/2000/svg" xmlns:xlink="http://www.w3.org/1999/xlink">
<g id="graph0" class="graph" transform="scale(1 1) rotate(0) translate(4 304)">
<title>Ogre::AreaEmitter</title>
<!-- Node0 -->
<g id="node1" class="node"><title>Node0</title>
<polygon fill="#bfbfbf" stroke="black" points="183.5,-112.5 183.5,-131.5 278.5,-131.5 278.5,-112.5 183.5,-112.5"/>
<text text-anchor="middle" x="231" y="-119.5" font-family="Helvetica,sans-Serif" font-size="10.00">Ogre::AreaEmitter</text>
</g>
<!-- Node5 -->
<g id="node6" class="node"><title>Node5</title>
<g id="a_node6"><a xlink:href="class_ogre_1_1_box_emitter.html" target="_top" xlink:title="Particle emitter which emits particles randomly from points inside a box. ">
<polygon fill="none" stroke="black" points="0,-56.5 0,-75.5 92,-75.5 92,-56.5 0,-56.5"/>
<text text-anchor="middle" x="46" y="-63.5" font-family="Helvetica,sans-Serif" font-size="10.00">Ogre::BoxEmitter</text>
</a>
</g>
</g>
<!-- Node0&#45;&gt;Node5 -->
<g id="edge5" class="edge"><title>Node0&#45;&gt;Node5</title>
<path fill="none" stroke="midnightblue" d="M191.834,-109.568C156.935,-99.381 106.651,-84.7034 75.1767,-75.5164"/>
<polygon fill="midnightblue" stroke="midnightblue" points="191.106,-113.001 201.686,-112.444 193.067,-106.282 191.106,-113.001"/>
</g>
<!-- Node6 -->
<g id="node7" class="node"><title>Node6</title>
<g id="a_node7"><a xlink:href="class_ogre_1_1_cylinder_emitter.html" target="_top" xlink:title="Particle emitter which emits particles randomly from points inside a cylinder. ">
<polygon fill="none" stroke="black" points="110.5,-56.5 110.5,-75.5 221.5,-75.5 221.5,-56.5 110.5,-56.5"/>
<text text-anchor="middle" x="166" y="-63.5" font-family="Helvetica,sans-Serif" font-size="10.00">Ogre::CylinderEmitter</text>
</a>
</g>
</g>
<!-- Node0&#45;&gt;Node6 -->
<g id="edge6" class="edge"><title>Node0&#45;&gt;Node6</title>
<path fill="none" stroke="midnightblue" d="M212.727,-105.82C201.082,-96.1452 186.401,-83.9481 176.633,-75.8339"/>
<polygon fill="midnightblue" stroke="midnightblue" points="210.628,-108.626 220.557,-112.324 215.101,-103.242 210.628,-108.626"/>
</g>
<!-- Node7 -->
<g id="node8" class="node"><title>Node7</title>
<g id="a_node8"><a xlink:href="class_ogre_1_1_ellipsoid_emitter.html" target="_top" xlink:title="Particle emitter which emits particles randomly from points inside an ellipsoid. ">
<polygon fill="none" stroke="black" points="240,-56.5 240,-75.5 352,-75.5 352,-56.5 240,-56.5"/>
<text text-anchor="middle" x="296" y="-63.5" font-family="Helvetica,sans-Serif" font-size="10.00">Ogre::EllipsoidEmitter</text>
</a>
</g>
</g>
<!-- Node0&#45;&gt;Node7 -->
<g id="edge7" class="edge"><title>Node0&#45;&gt;Node7</title>
<path fill="none" stroke="midnightblue" d="M249.273,-105.82C260.918,-96.1452 275.599,-83.9481 285.367,-75.8339"/>
<polygon fill="midnightblue" stroke="midnightblue" points="246.899,-103.242 241.443,-112.324 251.372,-108.626 246.899,-103.242"/>
</g>
<!-- Node9 -->
<g id="node10" class="node"><title>Node9</title>
<g id="a_node10"><a xlink:href="class_ogre_1_1_ring_emitter.html" target="_top" xlink:title="Particle emitter which emits particles randomly from points inside a ring (e.g. ">
<polygon fill="none" stroke="black" points="370.5,-56.5 370.5,-75.5 465.5,-75.5 465.5,-56.5 370.5,-56.5"/>
<text text-anchor="middle" x="418" y="-63.5" font-family="Helvetica,sans-Serif" font-size="10.00">Ogre::RingEmitter</text>
</a>
</g>
</g>
<!-- Node0&#45;&gt;Node9 -->
<g id="edge9" class="edge"><title>Node0&#45;&gt;Node9</title>
<path fill="none" stroke="midnightblue" d="M270.59,-109.568C305.866,-99.381 356.694,-84.7034 388.508,-75.5164"/>
<polygon fill="midnightblue" stroke="midnightblue" points="269.267,-106.307 260.631,-112.444 271.209,-113.032 269.267,-106.307"/>
</g>
<!-- Node1 -->
<g id="node2" class="node"><title>Node1</title>
<g id="a_node2"><a xlink:href="class_ogre_1_1_particle_emitter.html" target="_top" xlink:title="Abstract class defining the interface to be implemented by particle emitters. ">
<polygon fill="none" stroke="black" points="177,-168.5 177,-187.5 285,-187.5 285,-168.5 177,-168.5"/>
<text text-anchor="middle" x="231" y="-175.5" font-family="Helvetica,sans-Serif" font-size="10.00">Ogre::ParticleEmitter</text>
</a>
</g>
</g>
<!-- Node1&#45;&gt;Node0 -->
<g id="edge1" class="edge"><title>Node1&#45;&gt;Node0</title>
<path fill="none" stroke="midnightblue" d="M231,-157.805C231,-148.91 231,-138.78 231,-131.751"/>
<polygon fill="midnightblue" stroke="midnightblue" points="227.5,-158.083 231,-168.083 234.5,-158.083 227.5,-158.083"/>
</g>
<!-- Node2 -->
<g id="node3" class="node"><title>Node2</title>
<g id="a_node3"><a xlink:href="class_ogre_1_1_string_interface.html" target="_top" xlink:title="Class defining the common interface which classes can use to present a reflection&#45;style, self&#45;defining parameter set to callers. ">
<polygon fill="none" stroke="black" points="122.5,-224.5 122.5,-243.5 229.5,-243.5 229.5,-224.5 122.5,-224.5"/>
<text text-anchor="middle" x="176" y="-231.5" font-family="Helvetica,sans-Serif" font-size="10.00">Ogre::StringInterface</text>
</a>
</g>
</g>
<!-- Node2&#45;&gt;Node1 -->
<g id="edge2" class="edge"><title>Node2&#45;&gt;Node1</title>
<path fill="none" stroke="midnightblue" d="M192.294,-217.002C202.041,-207.433 214.053,-195.639 222.087,-187.751"/>
<polygon fill="midnightblue" stroke="midnightblue" points="189.766,-214.58 185.082,-224.083 194.67,-219.575 189.766,-214.58"/>
</g>
<!-- Node3 -->
<g id="node4" class="node"><title>Node3</title>
<g id="a_node4"><a xlink:href="class_ogre_1_1_particle.html" target="_top" xlink:title="Class representing a single particle instance. ">
<polygon fill="none" stroke="black" points="247.5,-224.5 247.5,-243.5 324.5,-243.5 324.5,-224.5 247.5,-224.5"/>
<text text-anchor="middle" x="286" y="-231.5" font-family="Helvetica,sans-Serif" font-size="10.00">Ogre::Particle</text>
</a>
</g>
</g>
<!-- Node3&#45;&gt;Node1 -->
<g id="edge3" class="edge"><title>Node3&#45;&gt;Node1</title>
<path fill="none" stroke="midnightblue" d="M269.706,-217.002C259.959,-207.433 247.947,-195.639 239.913,-187.751"/>
<polygon fill="midnightblue" stroke="midnightblue" points="267.33,-219.575 276.918,-224.083 272.234,-214.58 267.33,-219.575"/>
</g>
<!-- Node4 -->
<g id="node5" class="node"><title>Node4</title>
<g id="a_node5"><a xlink:href="class_ogre_1_1_allocated_object.html" target="_top" xlink:title="Superclass for all objects that wish to use custom memory allocators when their new / delete operator...">
<polygon fill="none" stroke="black" points="260.5,-280.5 260.5,-299.5 311.5,-299.5 311.5,-280.5 260.5,-280.5"/>
<text text-anchor="middle" x="286" y="-287.5" font-family="Helvetica,sans-Serif" font-size="10.00">FXAlloc</text>
</a>
</g>
</g>
<!-- Node4&#45;&gt;Node3 -->
<g id="edge4" class="edge"><title>Node4&#45;&gt;Node3</title>
<path fill="none" stroke="midnightblue" d="M286,-269.805C286,-260.91 286,-250.78 286,-243.751"/>
<polygon fill="midnightblue" stroke="midnightblue" points="282.5,-270.083 286,-280.083 289.5,-270.083 282.5,-270.083"/>
</g>
<!-- Node8 -->
<g id="node9" class="node"><title>Node8</title>
<g id="a_node9"><a xlink:href="class_ogre_1_1_hollow_ellipsoid_emitter.html" target="_top" xlink:title="Particle emitter which emits particles randomly from points inside a hollow ellipsoid. ">
<polygon fill="none" stroke="black" points="225,-0.5 225,-19.5 367,-19.5 367,-0.5 225,-0.5"/>
<text text-anchor="middle" x="296" y="-7.5" font-family="Helvetica,sans-Serif" font-size="10.00">Ogre::HollowEllipsoidEmitter</text>
</a>
</g>
</g>
<!-- Node7&#45;&gt;Node8 -->
<g id="edge8" class="edge"><title>Node7&#45;&gt;Node8</title>
<path fill="none" stroke="midnightblue" d="M296,-45.8045C296,-36.9102 296,-26.7798 296,-19.7511"/>
<polygon fill="midnightblue" stroke="midnightblue" points="292.5,-46.083 296,-56.083 299.5,-46.083 292.5,-46.083"/>
</g>
</g>
</svg>
