<?xml version="1.0" encoding="UTF-8" standalone="no"?>
<!DOCTYPE svg PUBLIC "-//W3C//DTD SVG 1.1//EN"
 "http://www.w3.org/Graphics/SVG/1.1/DTD/svg11.dtd">
<!-- Generated by graphviz version 2.38.0 (20140413.2041)
 -->
<!-- Title: Ogre::GLSLMonolithicProgram Pages: 1 -->
<svg width="157pt" height="140pt"
 viewBox="0.00 0.00 157.00 140.00" xmlns="http://www.w3.org/2000/svg" xmlns:xlink="http://www.w3.org/1999/xlink">
<g id="graph0" class="graph" transform="scale(1 1) rotate(0) translate(4 136)">
<title>Ogre::GLSLMonolithicProgram</title>
<!-- Node0 -->
<g id="node1" class="node"><title>Node0</title>
<polygon fill="#bfbfbf" stroke="black" points="-1.42109e-14,-0.5 -1.42109e-14,-19.5 149,-19.5 149,-0.5 -1.42109e-14,-0.5"/>
<text text-anchor="middle" x="74.5" y="-7.5" font-family="Helvetica,sans-Serif" font-size="10.00">Ogre::GLSLMonolithicProgram</text>
</g>
<!-- Node1 -->
<g id="node2" class="node"><title>Node1</title>
<g id="a_node2"><a xlink:href="class_ogre_1_1_g_l_s_l_program.html" target="_top" xlink:title="C++ encapsulation of GLSL program object. ">
<polygon fill="none" stroke="black" points="22,-56.5 22,-75.5 127,-75.5 127,-56.5 22,-56.5"/>
<text text-anchor="middle" x="74.5" y="-63.5" font-family="Helvetica,sans-Serif" font-size="10.00">Ogre::GLSLProgram</text>
</a>
</g>
</g>
<!-- Node1&#45;&gt;Node0 -->
<g id="edge1" class="edge"><title>Node1&#45;&gt;Node0</title>
<path fill="none" stroke="midnightblue" d="M74.5,-45.8045C74.5,-36.9102 74.5,-26.7798 74.5,-19.7511"/>
<polygon fill="midnightblue" stroke="midnightblue" points="71.0001,-46.083 74.5,-56.083 78.0001,-46.083 71.0001,-46.083"/>
</g>
<!-- Node2 -->
<g id="node3" class="node"><title>Node2</title>
<g id="a_node3"><a xlink:href="class_ogre_1_1_g_l_s_l_program_common.html" target="_top" xlink:title="Ogre::GLSLProgramCommon">
<polygon fill="none" stroke="black" points="2,-112.5 2,-131.5 147,-131.5 147,-112.5 2,-112.5"/>
<text text-anchor="middle" x="74.5" y="-119.5" font-family="Helvetica,sans-Serif" font-size="10.00">Ogre::GLSLProgramCommon</text>
</a>
</g>
</g>
<!-- Node2&#45;&gt;Node1 -->
<g id="edge2" class="edge"><title>Node2&#45;&gt;Node1</title>
<path fill="none" stroke="midnightblue" d="M74.5,-101.805C74.5,-92.9102 74.5,-82.7798 74.5,-75.7511"/>
<polygon fill="midnightblue" stroke="midnightblue" points="71.0001,-102.083 74.5,-112.083 78.0001,-102.083 71.0001,-102.083"/>
</g>
</g>
</svg>
