<?xml version="1.0" encoding="UTF-8" standalone="no"?>
<!DOCTYPE svg PUBLIC "-//W3C//DTD SVG 1.1//EN"
 "http://www.w3.org/Graphics/SVG/1.1/DTD/svg11.dtd">
<!-- Generated by graphviz version 2.38.0 (20140413.2041)
 -->
<!-- Title: Ogre::GLHardwarePixelBufferCommon Pages: 1 -->
<svg width="931pt" height="218pt"
 viewBox="0.00 0.00 931.00 218.00" xmlns="http://www.w3.org/2000/svg" xmlns:xlink="http://www.w3.org/1999/xlink">
<g id="graph0" class="graph" transform="scale(1 1) rotate(0) translate(4 214)">
<title>Ogre::GLHardwarePixelBufferCommon</title>
<!-- Node0 -->
<g id="node1" class="node"><title>Node0</title>
<polygon fill="#bfbfbf" stroke="black" points="419,-88 419,-118 565,-118 565,-88 419,-88"/>
<text text-anchor="start" x="427" y="-106" font-family="Helvetica,sans-Serif" font-size="10.00">Ogre::GLHardwarePixelBuffer</text>
<text text-anchor="middle" x="492" y="-95" font-family="Helvetica,sans-Serif" font-size="10.00">Common</text>
</g>
<!-- Node4 -->
<g id="node5" class="node"><title>Node4</title>
<g id="a_node5"><a xlink:href="class_ogre_1_1_g_l3_plus_hardware_pixel_buffer.html" target="_top" xlink:title="Ogre::GL3PlusHardwarePixel\lBuffer">
<polygon fill="none" stroke="black" points="601.5,-147 601.5,-177 746.5,-177 746.5,-147 601.5,-147"/>
<text text-anchor="start" x="609.5" y="-165" font-family="Helvetica,sans-Serif" font-size="10.00">Ogre::GL3PlusHardwarePixel</text>
<text text-anchor="middle" x="674" y="-154" font-family="Helvetica,sans-Serif" font-size="10.00">Buffer</text>
</a>
</g>
</g>
<!-- Node0&#45;&gt;Node4 -->
<g id="edge4" class="edge"><title>Node0&#45;&gt;Node4</title>
<path fill="none" stroke="midnightblue" d="M548.677,-121.25C573.878,-129.51 603.302,-139.154 627.196,-146.987"/>
<polygon fill="midnightblue" stroke="midnightblue" points="549.48,-117.83 538.887,-118.041 547.3,-124.482 549.48,-117.83"/>
</g>
<!-- Node7 -->
<g id="node8" class="node"><title>Node7</title>
<g id="a_node8"><a xlink:href="class_ogre_1_1_g_l_e_s2_hardware_pixel_buffer.html" target="_top" xlink:title="Ogre::GLES2HardwarePixel\lBuffer">
<polygon fill="none" stroke="black" points="604.5,-88 604.5,-118 743.5,-118 743.5,-88 604.5,-88"/>
<text text-anchor="start" x="612.5" y="-106" font-family="Helvetica,sans-Serif" font-size="10.00">Ogre::GLES2HardwarePixel</text>
<text text-anchor="middle" x="674" y="-95" font-family="Helvetica,sans-Serif" font-size="10.00">Buffer</text>
</a>
</g>
</g>
<!-- Node0&#45;&gt;Node7 -->
<g id="edge7" class="edge"><title>Node0&#45;&gt;Node7</title>
<path fill="none" stroke="midnightblue" d="M575.244,-103C584.966,-103 594.809,-103 604.316,-103"/>
<polygon fill="midnightblue" stroke="midnightblue" points="575.176,-99.5001 565.176,-103 575.176,-106.5 575.176,-99.5001"/>
</g>
<!-- Node10 -->
<g id="node11" class="node"><title>Node10</title>
<g id="a_node11"><a xlink:href="class_ogre_1_1_g_l_hardware_pixel_buffer.html" target="_top" xlink:title="Ogre::GLHardwarePixelBuffer">
<polygon fill="none" stroke="black" points="601,-38.5 601,-57.5 747,-57.5 747,-38.5 601,-38.5"/>
<text text-anchor="middle" x="674" y="-45.5" font-family="Helvetica,sans-Serif" font-size="10.00">Ogre::GLHardwarePixelBuffer</text>
</a>
</g>
</g>
<!-- Node0&#45;&gt;Node10 -->
<g id="edge10" class="edge"><title>Node0&#45;&gt;Node10</title>
<path fill="none" stroke="midnightblue" d="M552.102,-84.9409C581.995,-75.807 617.064,-65.0915 641.711,-57.5606"/>
<polygon fill="midnightblue" stroke="midnightblue" points="550.727,-81.7015 542.186,-87.971 552.772,-88.396 550.727,-81.7015"/>
</g>
<!-- Node1 -->
<g id="node2" class="node"><title>Node1</title>
<g id="a_node2"><a xlink:href="class_ogre_1_1_hardware_pixel_buffer.html" target="_top" xlink:title="Specialisation of HardwareBuffer for a pixel buffer. ">
<polygon fill="none" stroke="black" points="249,-93.5 249,-112.5 383,-112.5 383,-93.5 249,-93.5"/>
<text text-anchor="middle" x="316" y="-100.5" font-family="Helvetica,sans-Serif" font-size="10.00">Ogre::HardwarePixelBuffer</text>
</a>
</g>
</g>
<!-- Node1&#45;&gt;Node0 -->
<g id="edge1" class="edge"><title>Node1&#45;&gt;Node0</title>
<path fill="none" stroke="midnightblue" d="M393.465,-103C401.889,-103 410.446,-103 418.815,-103"/>
<polygon fill="midnightblue" stroke="midnightblue" points="393.278,-99.5001 383.278,-103 393.278,-106.5 393.278,-99.5001"/>
</g>
<!-- Node2 -->
<g id="node3" class="node"><title>Node2</title>
<g id="a_node3"><a xlink:href="class_ogre_1_1_hardware_buffer.html" target="_top" xlink:title="Abstract class defining common features of hardware buffers. ">
<polygon fill="none" stroke="black" points="101,-93.5 101,-112.5 213,-112.5 213,-93.5 101,-93.5"/>
<text text-anchor="middle" x="157" y="-100.5" font-family="Helvetica,sans-Serif" font-size="10.00">Ogre::HardwareBuffer</text>
</a>
</g>
</g>
<!-- Node2&#45;&gt;Node1 -->
<g id="edge2" class="edge"><title>Node2&#45;&gt;Node1</title>
<path fill="none" stroke="midnightblue" d="M223.46,-103C231.851,-103 240.447,-103 248.85,-103"/>
<polygon fill="midnightblue" stroke="midnightblue" points="223.352,-99.5001 213.352,-103 223.352,-106.5 223.352,-99.5001"/>
</g>
<!-- Node3 -->
<g id="node4" class="node"><title>Node3</title>
<g id="a_node4"><a xlink:href="class_ogre_1_1_allocated_object.html" target="_top" xlink:title="Superclass for all objects that wish to use custom memory allocators when their new / delete operator...">
<polygon fill="none" stroke="black" points="0,-93.5 0,-112.5 65,-112.5 65,-93.5 0,-93.5"/>
<text text-anchor="middle" x="32.5" y="-100.5" font-family="Helvetica,sans-Serif" font-size="10.00">BufferAlloc</text>
</a>
</g>
</g>
<!-- Node3&#45;&gt;Node2 -->
<g id="edge3" class="edge"><title>Node3&#45;&gt;Node2</title>
<path fill="none" stroke="midnightblue" d="M75.1571,-103C83.4035,-103 92.1796,-103 100.795,-103"/>
<polygon fill="midnightblue" stroke="midnightblue" points="75.0468,-99.5001 65.0468,-103 75.0468,-106.5 75.0468,-99.5001"/>
</g>
<!-- Node5 -->
<g id="node6" class="node"><title>Node5</title>
<g id="a_node6"><a xlink:href="class_ogre_1_1_g_l3_plus_render_buffer.html" target="_top" xlink:title="Renderbuffer surface. ">
<polygon fill="none" stroke="black" points="783.5,-190.5 783.5,-209.5 922.5,-209.5 922.5,-190.5 783.5,-190.5"/>
<text text-anchor="middle" x="853" y="-197.5" font-family="Helvetica,sans-Serif" font-size="10.00">Ogre::GL3PlusRenderBuffer</text>
</a>
</g>
</g>
<!-- Node4&#45;&gt;Node5 -->
<g id="edge5" class="edge"><title>Node4&#45;&gt;Node5</title>
<path fill="none" stroke="midnightblue" d="M754.964,-179.167C773.104,-183.062 791.727,-187.06 807.746,-190.499"/>
<polygon fill="midnightblue" stroke="midnightblue" points="755.467,-175.696 744.955,-177.019 753.998,-182.54 755.467,-175.696"/>
</g>
<!-- Node6 -->
<g id="node7" class="node"><title>Node6</title>
<g id="a_node7"><a xlink:href="class_ogre_1_1_g_l3_plus_texture_buffer.html" target="_top" xlink:title="Texture surface. ">
<polygon fill="none" stroke="black" points="783,-152.5 783,-171.5 923,-171.5 923,-152.5 783,-152.5"/>
<text text-anchor="middle" x="853" y="-159.5" font-family="Helvetica,sans-Serif" font-size="10.00">Ogre::GL3PlusTextureBuffer</text>
</a>
</g>
</g>
<!-- Node4&#45;&gt;Node6 -->
<g id="edge6" class="edge"><title>Node4&#45;&gt;Node6</title>
<path fill="none" stroke="midnightblue" d="M756.843,-162C765.502,-162 774.246,-162 782.741,-162"/>
<polygon fill="midnightblue" stroke="midnightblue" points="756.738,-158.5 746.738,-162 756.737,-165.5 756.738,-158.5"/>
</g>
<!-- Node8 -->
<g id="node9" class="node"><title>Node8</title>
<g id="a_node9"><a xlink:href="class_ogre_1_1_g_l_e_s2_render_buffer.html" target="_top" xlink:title="Renderbuffer surface. ">
<polygon fill="none" stroke="black" points="786.5,-114.5 786.5,-133.5 919.5,-133.5 919.5,-114.5 786.5,-114.5"/>
<text text-anchor="middle" x="853" y="-121.5" font-family="Helvetica,sans-Serif" font-size="10.00">Ogre::GLES2RenderBuffer</text>
</a>
</g>
</g>
<!-- Node7&#45;&gt;Node8 -->
<g id="edge8" class="edge"><title>Node7&#45;&gt;Node8</title>
<path fill="none" stroke="midnightblue" d="M753.621,-112.328C764.521,-113.621 775.624,-114.938 786.257,-116.2"/>
<polygon fill="midnightblue" stroke="midnightblue" points="754.029,-108.852 743.686,-111.149 753.204,-115.803 754.029,-108.852"/>
</g>
<!-- Node9 -->
<g id="node10" class="node"><title>Node9</title>
<g id="a_node10"><a xlink:href="class_ogre_1_1_g_l_e_s2_texture_buffer.html" target="_top" xlink:title="Texture surface. ">
<polygon fill="none" stroke="black" points="786,-76.5 786,-95.5 920,-95.5 920,-76.5 786,-76.5"/>
<text text-anchor="middle" x="853" y="-83.5" font-family="Helvetica,sans-Serif" font-size="10.00">Ogre::GLES2TextureBuffer</text>
</a>
</g>
</g>
<!-- Node7&#45;&gt;Node9 -->
<g id="edge9" class="edge"><title>Node7&#45;&gt;Node9</title>
<path fill="none" stroke="midnightblue" d="M753.882,-95.4237C764.6,-94.3944 775.508,-93.3467 785.967,-92.3421"/>
<polygon fill="midnightblue" stroke="midnightblue" points="753.306,-91.9629 743.686,-96.403 753.975,-98.9309 753.306,-91.9629"/>
</g>
<!-- Node11 -->
<g id="node12" class="node"><title>Node11</title>
<g id="a_node12"><a xlink:href="class_ogre_1_1_g_l_render_buffer.html" target="_top" xlink:title="Renderbuffer surface. ">
<polygon fill="none" stroke="black" points="796,-38.5 796,-57.5 910,-57.5 910,-38.5 796,-38.5"/>
<text text-anchor="middle" x="853" y="-45.5" font-family="Helvetica,sans-Serif" font-size="10.00">Ogre::GLRenderBuffer</text>
</a>
</g>
</g>
<!-- Node10&#45;&gt;Node11 -->
<g id="edge11" class="edge"><title>Node10&#45;&gt;Node11</title>
<path fill="none" stroke="midnightblue" d="M757.611,-48C770.605,-48 783.769,-48 795.976,-48"/>
<polygon fill="midnightblue" stroke="midnightblue" points="757.248,-44.5001 747.248,-48 757.248,-51.5001 757.248,-44.5001"/>
</g>
<!-- Node12 -->
<g id="node13" class="node"><title>Node12</title>
<g id="a_node13"><a xlink:href="class_ogre_1_1_g_l_texture_buffer.html" target="_top" xlink:title="Texture surface. ">
<polygon fill="none" stroke="black" points="795,-0.5 795,-19.5 911,-19.5 911,-0.5 795,-0.5"/>
<text text-anchor="middle" x="853" y="-7.5" font-family="Helvetica,sans-Serif" font-size="10.00">Ogre::GLTextureBuffer</text>
</a>
</g>
</g>
<!-- Node10&#45;&gt;Node12 -->
<g id="edge12" class="edge"><title>Node10&#45;&gt;Node12</title>
<path fill="none" stroke="midnightblue" d="M729.742,-36.2474C754.77,-30.8742 784.035,-24.5914 807.657,-19.5201"/>
<polygon fill="midnightblue" stroke="midnightblue" points="728.707,-32.8898 719.665,-38.411 730.176,-39.7339 728.707,-32.8898"/>
</g>
</g>
</svg>
