<?xml version="1.0" encoding="UTF-8" standalone="no"?>
<!DOCTYPE svg PUBLIC "-//W3C//DTD SVG 1.1//EN"
 "http://www.w3.org/Graphics/SVG/1.1/DTD/svg11.dtd">
<!-- Generated by graphviz version 2.38.0 (20140413.2041)
 -->
<!-- Title: Ogre::Plugin Pages: 1 -->
<svg width="369pt" height="408pt"
 viewBox="0.00 0.00 369.00 408.00" xmlns="http://www.w3.org/2000/svg" xmlns:xlink="http://www.w3.org/1999/xlink">
<g id="graph0" class="graph" transform="scale(1 1) rotate(0) translate(4 404)">
<title>Ogre::Plugin</title>
<!-- Node0 -->
<g id="node1" class="node"><title>Node0</title>
<polygon fill="#bfbfbf" stroke="black" points="101,-190.5 101,-209.5 172,-209.5 172,-190.5 101,-190.5"/>
<text text-anchor="middle" x="136.5" y="-197.5" font-family="Helvetica,sans-Serif" font-size="10.00">Ogre::Plugin</text>
</g>
<!-- Node2 -->
<g id="node3" class="node"><title>Node2</title>
<g id="a_node3"><a xlink:href="class_ogre_1_1_bsp_scene_manager_plugin.html" target="_top" xlink:title="Plugin instance for BSPSceneManager. ">
<polygon fill="none" stroke="black" points="208,-380.5 208,-399.5 361,-399.5 361,-380.5 208,-380.5"/>
<text text-anchor="middle" x="284.5" y="-387.5" font-family="Helvetica,sans-Serif" font-size="10.00">Ogre::BspSceneManagerPlugin</text>
</a>
</g>
</g>
<!-- Node0&#45;&gt;Node2 -->
<g id="edge2" class="edge"><title>Node0&#45;&gt;Node2</title>
<path fill="none" stroke="midnightblue" d="M139.907,-220.055C145.304,-255.914 161.76,-331.002 208,-371 212.498,-374.891 217.68,-378.005 223.178,-380.496"/>
<polygon fill="midnightblue" stroke="midnightblue" points="143.339,-219.32 138.519,-209.885 136.403,-220.266 143.339,-219.32"/>
</g>
<!-- Node3 -->
<g id="node4" class="node"><title>Node3</title>
<g id="a_node4"><a xlink:href="class_ogre_1_1_cg_plugin.html" target="_top" xlink:title="Plugin instance for Cg Program Manager. ">
<polygon fill="none" stroke="black" points="243,-342.5 243,-361.5 326,-361.5 326,-342.5 243,-342.5"/>
<text text-anchor="middle" x="284.5" y="-349.5" font-family="Helvetica,sans-Serif" font-size="10.00">Ogre::CgPlugin</text>
</a>
</g>
</g>
<!-- Node0&#45;&gt;Node3 -->
<g id="edge3" class="edge"><title>Node0&#45;&gt;Node3</title>
<path fill="none" stroke="midnightblue" d="M142.415,-219.665C150.777,-248.945 170.616,-303.688 208,-333 217.892,-340.756 230.561,-345.384 242.683,-348.134"/>
<polygon fill="midnightblue" stroke="midnightblue" points="145.738,-218.544 139.759,-209.797 138.978,-220.363 145.738,-218.544"/>
</g>
<!-- Node4 -->
<g id="node5" class="node"><title>Node4</title>
<g id="a_node5"><a xlink:href="class_ogre_1_1_d3_d11_plugin.html" target="_top" xlink:title="Plugin instance for D3D11 Manager. ">
<polygon fill="none" stroke="black" points="234,-304.5 234,-323.5 335,-323.5 335,-304.5 234,-304.5"/>
<text text-anchor="middle" x="284.5" y="-311.5" font-family="Helvetica,sans-Serif" font-size="10.00">Ogre::D3D11Plugin</text>
</a>
</g>
</g>
<!-- Node0&#45;&gt;Node4 -->
<g id="edge4" class="edge"><title>Node0&#45;&gt;Node4</title>
<path fill="none" stroke="midnightblue" d="M146.355,-218.695C157.613,-240.399 179.113,-275.681 208,-295 215.752,-300.185 224.811,-303.955 233.908,-306.696"/>
<polygon fill="midnightblue" stroke="midnightblue" points="149.378,-216.914 141.788,-209.522 143.112,-220.033 149.378,-216.914"/>
</g>
<!-- Node5 -->
<g id="node6" class="node"><title>Node5</title>
<g id="a_node6"><a xlink:href="class_ogre_1_1_d3_d9_plugin.html" target="_top" xlink:title="Plugin instance for D3D9 Manager. ">
<polygon fill="none" stroke="black" points="236.5,-266.5 236.5,-285.5 332.5,-285.5 332.5,-266.5 236.5,-266.5"/>
<text text-anchor="middle" x="284.5" y="-273.5" font-family="Helvetica,sans-Serif" font-size="10.00">Ogre::D3D9Plugin</text>
</a>
</g>
</g>
<!-- Node0&#45;&gt;Node5 -->
<g id="edge5" class="edge"><title>Node0&#45;&gt;Node5</title>
<path fill="none" stroke="midnightblue" d="M154.045,-216.906C167.471,-229.695 187.477,-246.749 208,-257 216.827,-261.409 226.759,-264.848 236.448,-267.513"/>
<polygon fill="midnightblue" stroke="midnightblue" points="156.181,-214.098 146.591,-209.594 151.279,-219.095 156.181,-214.098"/>
</g>
<!-- Node6 -->
<g id="node7" class="node"><title>Node6</title>
<g id="a_node7"><a xlink:href="class_ogre_1_1_g_l3_plus_plugin.html" target="_top" xlink:title="Plugin instance for GL3Plus Manager. ">
<polygon fill="none" stroke="black" points="230.5,-228.5 230.5,-247.5 338.5,-247.5 338.5,-228.5 230.5,-228.5"/>
<text text-anchor="middle" x="284.5" y="-235.5" font-family="Helvetica,sans-Serif" font-size="10.00">Ogre::GL3PlusPlugin</text>
</a>
</g>
</g>
<!-- Node0&#45;&gt;Node6 -->
<g id="edge6" class="edge"><title>Node0&#45;&gt;Node6</title>
<path fill="none" stroke="midnightblue" d="M182.118,-212.146C190.701,-214.448 199.624,-216.818 208,-219 220.033,-222.135 233.168,-225.471 245.059,-228.458"/>
<polygon fill="midnightblue" stroke="midnightblue" points="182.818,-208.71 172.252,-209.49 180.999,-215.469 182.818,-208.71"/>
</g>
<!-- Node7 -->
<g id="node8" class="node"><title>Node7</title>
<g id="a_node8"><a xlink:href="class_ogre_1_1_g_l_e_s2_plugin.html" target="_top" xlink:title="Plugin instance for GL ES 2 Manager. ">
<polygon fill="none" stroke="black" points="233.5,-190.5 233.5,-209.5 335.5,-209.5 335.5,-190.5 233.5,-190.5"/>
<text text-anchor="middle" x="284.5" y="-197.5" font-family="Helvetica,sans-Serif" font-size="10.00">Ogre::GLES2Plugin</text>
</a>
</g>
</g>
<!-- Node0&#45;&gt;Node7 -->
<g id="edge7" class="edge"><title>Node0&#45;&gt;Node7</title>
<path fill="none" stroke="midnightblue" d="M182.359,-200C198.508,-200 216.826,-200 233.394,-200"/>
<polygon fill="midnightblue" stroke="midnightblue" points="182.1,-196.5 172.1,-200 182.1,-203.5 182.1,-196.5"/>
</g>
<!-- Node8 -->
<g id="node9" class="node"><title>Node8</title>
<g id="a_node9"><a xlink:href="class_ogre_1_1_g_l_plugin.html" target="_top" xlink:title="Plugin instance for GL Manager. ">
<polygon fill="none" stroke="black" points="243,-152.5 243,-171.5 326,-171.5 326,-152.5 243,-152.5"/>
<text text-anchor="middle" x="284.5" y="-159.5" font-family="Helvetica,sans-Serif" font-size="10.00">Ogre::GLPlugin</text>
</a>
</g>
</g>
<!-- Node0&#45;&gt;Node8 -->
<g id="edge8" class="edge"><title>Node0&#45;&gt;Node8</title>
<path fill="none" stroke="midnightblue" d="M182.118,-187.854C190.701,-185.552 199.624,-183.182 208,-181 220.033,-177.865 233.168,-174.529 245.059,-171.542"/>
<polygon fill="midnightblue" stroke="midnightblue" points="180.999,-184.531 172.252,-190.51 182.818,-191.29 180.999,-184.531"/>
</g>
<!-- Node9 -->
<g id="node10" class="node"><title>Node9</title>
<g id="a_node10"><a xlink:href="class_ogre_1_1_octree_plugin.html" target="_top" xlink:title="Plugin instance for Octree Manager. ">
<polygon fill="none" stroke="black" points="234.5,-114.5 234.5,-133.5 334.5,-133.5 334.5,-114.5 234.5,-114.5"/>
<text text-anchor="middle" x="284.5" y="-121.5" font-family="Helvetica,sans-Serif" font-size="10.00">Ogre::OctreePlugin</text>
</a>
</g>
</g>
<!-- Node0&#45;&gt;Node9 -->
<g id="edge9" class="edge"><title>Node0&#45;&gt;Node9</title>
<path fill="none" stroke="midnightblue" d="M154.045,-183.094C167.471,-170.305 187.477,-153.251 208,-143 216.223,-138.893 225.404,-135.627 234.454,-133.046"/>
<polygon fill="midnightblue" stroke="midnightblue" points="151.279,-180.905 146.591,-190.406 156.181,-185.902 151.279,-180.905"/>
</g>
<!-- Node10 -->
<g id="node11" class="node"><title>Node10</title>
<g id="a_node11"><a xlink:href="class_ogre_1_1_octree_zone_plugin.html" target="_top" xlink:title="Plugin instance for OctreeZone. ">
<polygon fill="none" stroke="black" points="223.5,-76.5 223.5,-95.5 345.5,-95.5 345.5,-76.5 223.5,-76.5"/>
<text text-anchor="middle" x="284.5" y="-83.5" font-family="Helvetica,sans-Serif" font-size="10.00">Ogre::OctreeZonePlugin</text>
</a>
</g>
</g>
<!-- Node0&#45;&gt;Node10 -->
<g id="edge10" class="edge"><title>Node0&#45;&gt;Node10</title>
<path fill="none" stroke="midnightblue" d="M146.355,-181.305C157.613,-159.601 179.113,-124.319 208,-105 213.842,-101.093 220.426,-97.989 227.21,-95.5234"/>
<polygon fill="midnightblue" stroke="midnightblue" points="143.112,-179.967 141.788,-190.478 149.378,-183.086 143.112,-179.967"/>
</g>
<!-- Node11 -->
<g id="node12" class="node"><title>Node11</title>
<g id="a_node12"><a xlink:href="class_ogre_1_1_particle_f_x_plugin.html" target="_top" xlink:title="Plugin instance for ParticleFX Manager. ">
<polygon fill="none" stroke="black" points="226.5,-38.5 226.5,-57.5 342.5,-57.5 342.5,-38.5 226.5,-38.5"/>
<text text-anchor="middle" x="284.5" y="-45.5" font-family="Helvetica,sans-Serif" font-size="10.00">Ogre::ParticleFXPlugin</text>
</a>
</g>
</g>
<!-- Node0&#45;&gt;Node11 -->
<g id="edge11" class="edge"><title>Node0&#45;&gt;Node11</title>
<path fill="none" stroke="midnightblue" d="M142.415,-180.335C150.777,-151.055 170.616,-96.3119 208,-67 213.425,-62.7466 219.684,-59.4339 226.231,-56.8558"/>
<polygon fill="midnightblue" stroke="midnightblue" points="138.978,-179.637 139.759,-190.203 145.738,-181.456 138.978,-179.637"/>
</g>
<!-- Node12 -->
<g id="node13" class="node"><title>Node12</title>
<g id="a_node13"><a xlink:href="class_ogre_1_1_p_c_z_plugin.html" target="_top" xlink:title="Plugin instance for PCZ Manager. ">
<polygon fill="none" stroke="black" points="239,-0.5 239,-19.5 330,-19.5 330,-0.5 239,-0.5"/>
<text text-anchor="middle" x="284.5" y="-7.5" font-family="Helvetica,sans-Serif" font-size="10.00">Ogre::PCZPlugin</text>
</a>
</g>
</g>
<!-- Node0&#45;&gt;Node12 -->
<g id="edge12" class="edge"><title>Node0&#45;&gt;Node12</title>
<path fill="none" stroke="midnightblue" d="M139.907,-179.945C145.304,-144.086 161.76,-68.9978 208,-29 216.587,-21.5722 227.667,-16.9733 238.681,-14.1465"/>
<polygon fill="midnightblue" stroke="midnightblue" points="136.403,-179.734 138.519,-190.115 143.339,-180.68 136.403,-179.734"/>
</g>
<!-- Node1 -->
<g id="node2" class="node"><title>Node1</title>
<g id="a_node2"><a xlink:href="class_ogre_1_1_allocated_object.html" target="_top" xlink:title="Superclass for all objects that wish to use custom memory allocators when their new / delete operator...">
<polygon fill="none" stroke="black" points="0,-190.5 0,-209.5 65,-209.5 65,-190.5 0,-190.5"/>
<text text-anchor="middle" x="32.5" y="-197.5" font-family="Helvetica,sans-Serif" font-size="10.00">PluginAlloc</text>
</a>
</g>
</g>
<!-- Node1&#45;&gt;Node0 -->
<g id="edge1" class="edge"><title>Node1&#45;&gt;Node0</title>
<path fill="none" stroke="midnightblue" d="M75.3605,-200C83.8761,-200 92.7431,-200 100.97,-200"/>
<polygon fill="midnightblue" stroke="midnightblue" points="75.2143,-196.5 65.2143,-200 75.2143,-203.5 75.2143,-196.5"/>
</g>
</g>
</svg>
