<?xml version="1.0" encoding="UTF-8" standalone="no"?>
<!DOCTYPE svg PUBLIC "-//W3C//DTD SVG 1.1//EN"
 "http://www.w3.org/Graphics/SVG/1.1/DTD/svg11.dtd">
<!-- Generated by graphviz version 2.38.0 (20140413.2041)
 -->
<!-- Title: Ogre::D3D11RenderSystem Pages: 1 -->
<svg width="282pt" height="151pt"
 viewBox="0.00 0.00 282.00 151.00" xmlns="http://www.w3.org/2000/svg" xmlns:xlink="http://www.w3.org/1999/xlink">
<g id="graph0" class="graph" transform="scale(1 1) rotate(0) translate(4 147)">
<title>Ogre::D3D11RenderSystem</title>
<!-- Node0 -->
<g id="node1" class="node"><title>Node0</title>
<polygon fill="#bfbfbf" stroke="black" points="57.5,-0.5 57.5,-19.5 197.5,-19.5 197.5,-0.5 57.5,-0.5"/>
<text text-anchor="middle" x="127.5" y="-7.5" font-family="Helvetica,sans-Serif" font-size="10.00">Ogre::D3D11RenderSystem</text>
</g>
<!-- Node1 -->
<g id="node2" class="node"><title>Node1</title>
<g id="a_node2"><a xlink:href="class_ogre_1_1_render_system.html" target="_top" xlink:title="Defines the functionality of a 3D API. ">
<polygon fill="none" stroke="black" points="0,-62 0,-81 109,-81 109,-62 0,-62"/>
<text text-anchor="middle" x="54.5" y="-69" font-family="Helvetica,sans-Serif" font-size="10.00">Ogre::RenderSystem</text>
</a>
</g>
</g>
<!-- Node1&#45;&gt;Node0 -->
<g id="edge1" class="edge"><title>Node1&#45;&gt;Node0</title>
<path fill="none" stroke="midnightblue" d="M72.9368,-55.4727C86.8991,-44.0925 105.576,-28.8694 117.06,-19.5091"/>
<polygon fill="midnightblue" stroke="midnightblue" points="70.4992,-52.9442 64.9591,-61.9751 74.9218,-58.3701 70.4992,-52.9442"/>
</g>
<!-- Node2 -->
<g id="node3" class="node"><title>Node2</title>
<g id="a_node3"><a xlink:href="class_ogre_1_1_allocated_object.html" target="_top" xlink:title="Superclass for all objects that wish to use custom memory allocators when their new / delete operator...">
<polygon fill="none" stroke="black" points="11,-123.5 11,-142.5 98,-142.5 98,-123.5 11,-123.5"/>
<text text-anchor="middle" x="54.5" y="-130.5" font-family="Helvetica,sans-Serif" font-size="10.00">RenderSysAlloc</text>
</a>
</g>
</g>
<!-- Node2&#45;&gt;Node1 -->
<g id="edge2" class="edge"><title>Node2&#45;&gt;Node1</title>
<path fill="none" stroke="midnightblue" d="M54.5,-113.317C54.5,-102.496 54.5,-89.398 54.5,-81.0091"/>
<polygon fill="midnightblue" stroke="midnightblue" points="51.0001,-113.475 54.5,-123.475 58.0001,-113.475 51.0001,-113.475"/>
</g>
<!-- Node3 -->
<g id="node4" class="node"><title>Node3</title>
<g id="a_node4"><a xlink:href="class_ogre_1_1_d3_d11_device_resource_manager.html" target="_top" xlink:title="Singleton that is used to propagate device state changed notifications. ">
<polygon fill="none" stroke="black" points="127,-56.5 127,-86.5 274,-86.5 274,-56.5 127,-56.5"/>
<text text-anchor="start" x="135" y="-74.5" font-family="Helvetica,sans-Serif" font-size="10.00">Ogre::D3D11DeviceResource</text>
<text text-anchor="middle" x="200.5" y="-63.5" font-family="Helvetica,sans-Serif" font-size="10.00">Manager</text>
</a>
</g>
</g>
<!-- Node3&#45;&gt;Node0 -->
<g id="edge3" class="edge"><title>Node3&#45;&gt;Node0</title>
<path fill="none" stroke="#8b1a1a" d="M175.218,-49.8934C162.519,-39.5432 147.814,-27.5577 138.122,-19.6578"/>
<polygon fill="#8b1a1a" stroke="#8b1a1a" points="173.237,-52.7944 183.2,-56.3993 177.66,-47.3684 173.237,-52.7944"/>
</g>
</g>
</svg>
