<?xml version="1.0" encoding="UTF-8" standalone="no"?>
<!DOCTYPE svg PUBLIC "-//W3C//DTD SVG 1.1//EN"
 "http://www.w3.org/Graphics/SVG/1.1/DTD/svg11.dtd">
<!-- Generated by graphviz version 2.38.0 (20140413.2041)
 -->
<!-- Title: Ogre::OctreeSphereSceneQuery Pages: 1 -->
<svg width="256pt" height="263pt"
 viewBox="0.00 0.00 256.00 263.00" xmlns="http://www.w3.org/2000/svg" xmlns:xlink="http://www.w3.org/1999/xlink">
<g id="graph0" class="graph" transform="scale(1 1) rotate(0) translate(4 259)">
<title>Ogre::OctreeSphereSceneQuery</title>
<!-- Node0 -->
<g id="node1" class="node"><title>Node0</title>
<polygon fill="#bfbfbf" stroke="black" points="36,-0.5 36,-19.5 194,-19.5 194,-0.5 36,-0.5"/>
<text text-anchor="middle" x="115" y="-7.5" font-family="Helvetica,sans-Serif" font-size="10.00">Ogre::OctreeSphereSceneQuery</text>
</g>
<!-- Node1 -->
<g id="node2" class="node"><title>Node1</title>
<g id="a_node2"><a xlink:href="class_ogre_1_1_default_sphere_scene_query.html" target="_top" xlink:title="Default implementation of SphereSceneQuery. ">
<polygon fill="none" stroke="black" points="48,-56.5 48,-86.5 182,-86.5 182,-56.5 48,-56.5"/>
<text text-anchor="start" x="56" y="-74.5" font-family="Helvetica,sans-Serif" font-size="10.00">Ogre::DefaultSphereScene</text>
<text text-anchor="middle" x="115" y="-63.5" font-family="Helvetica,sans-Serif" font-size="10.00">Query</text>
</a>
</g>
</g>
<!-- Node1&#45;&gt;Node0 -->
<g id="edge1" class="edge"><title>Node1&#45;&gt;Node0</title>
<path fill="none" stroke="midnightblue" d="M115,-46.2892C115,-36.857 115,-26.6548 115,-19.6578"/>
<polygon fill="midnightblue" stroke="midnightblue" points="111.5,-46.3993 115,-56.3993 118.5,-46.3994 111.5,-46.3993"/>
</g>
<!-- Node2 -->
<g id="node3" class="node"><title>Node2</title>
<g id="a_node3"><a xlink:href="class_ogre_1_1_sphere_scene_query.html" target="_top" xlink:title="Specialises the SceneQuery class for querying within a sphere. ">
<polygon fill="none" stroke="black" points="51,-123.5 51,-142.5 179,-142.5 179,-123.5 51,-123.5"/>
<text text-anchor="middle" x="115" y="-130.5" font-family="Helvetica,sans-Serif" font-size="10.00">Ogre::SphereSceneQuery</text>
</a>
</g>
</g>
<!-- Node2&#45;&gt;Node1 -->
<g id="edge2" class="edge"><title>Node2&#45;&gt;Node1</title>
<path fill="none" stroke="midnightblue" d="M115,-113.235C115,-104.586 115,-94.4969 115,-86.523"/>
<polygon fill="midnightblue" stroke="midnightblue" points="111.5,-113.475 115,-123.475 118.5,-113.475 111.5,-113.475"/>
</g>
<!-- Node3 -->
<g id="node4" class="node"><title>Node3</title>
<g id="a_node4"><a xlink:href="class_ogre_1_1_region_scene_query.html" target="_top" xlink:title="Abstract class defining a query which returns single results from a region. ">
<polygon fill="none" stroke="black" points="51,-179.5 51,-198.5 179,-198.5 179,-179.5 51,-179.5"/>
<text text-anchor="middle" x="115" y="-186.5" font-family="Helvetica,sans-Serif" font-size="10.00">Ogre::RegionSceneQuery</text>
</a>
</g>
</g>
<!-- Node3&#45;&gt;Node2 -->
<g id="edge3" class="edge"><title>Node3&#45;&gt;Node2</title>
<path fill="none" stroke="midnightblue" d="M115,-168.805C115,-159.91 115,-149.78 115,-142.751"/>
<polygon fill="midnightblue" stroke="midnightblue" points="111.5,-169.083 115,-179.083 118.5,-169.083 111.5,-169.083"/>
</g>
<!-- Node4 -->
<g id="node5" class="node"><title>Node4</title>
<g id="a_node5"><a xlink:href="class_ogre_1_1_scene_query.html" target="_top" xlink:title="A class for performing queries on a scene. ">
<polygon fill="none" stroke="red" points="0,-235.5 0,-254.5 98,-254.5 98,-235.5 0,-235.5"/>
<text text-anchor="middle" x="49" y="-242.5" font-family="Helvetica,sans-Serif" font-size="10.00">Ogre::SceneQuery</text>
</a>
</g>
</g>
<!-- Node4&#45;&gt;Node3 -->
<g id="edge4" class="edge"><title>Node4&#45;&gt;Node3</title>
<path fill="none" stroke="midnightblue" d="M67.5537,-228.82C79.3781,-219.145 94.2856,-206.948 104.203,-198.834"/>
<polygon fill="midnightblue" stroke="midnightblue" points="65.1273,-226.283 59.604,-235.324 69.56,-231.7 65.1273,-226.283"/>
</g>
<!-- Node6 -->
<g id="node6" class="node"><title>Node6</title>
<g id="a_node6"><a xlink:href="class_ogre_1_1_scene_query_listener.html" target="_top" xlink:title="This optional class allows you to receive per&#45;result callbacks from SceneQuery executions instead of ...">
<polygon fill="none" stroke="black" points="116,-235.5 116,-254.5 248,-254.5 248,-235.5 116,-235.5"/>
<text text-anchor="middle" x="182" y="-242.5" font-family="Helvetica,sans-Serif" font-size="10.00">Ogre::SceneQueryListener</text>
</a>
</g>
</g>
<!-- Node6&#45;&gt;Node3 -->
<g id="edge5" class="edge"><title>Node6&#45;&gt;Node3</title>
<path fill="none" stroke="midnightblue" d="M163.165,-228.82C151.162,-219.145 136.028,-206.948 125.961,-198.834"/>
<polygon fill="midnightblue" stroke="midnightblue" points="161.253,-231.774 171.235,-235.324 165.646,-226.324 161.253,-231.774"/>
</g>
</g>
</svg>
