<?xml version="1.0" encoding="UTF-8" standalone="no"?>
<!DOCTYPE svg PUBLIC "-//W3C//DTD SVG 1.1//EN"
 "http://www.w3.org/Graphics/SVG/1.1/DTD/svg11.dtd">
<!-- Generated by graphviz version 2.38.0 (20140413.2041)
 -->
<!-- Title: Ogre::SimpleRenderable Pages: 1 -->
<svg width="590pt" height="154pt"
 viewBox="0.00 0.00 590.00 153.50" xmlns="http://www.w3.org/2000/svg" xmlns:xlink="http://www.w3.org/1999/xlink">
<g id="graph0" class="graph" transform="scale(1 1) rotate(0) translate(4 149.5)">
<title>Ogre::SimpleRenderable</title>
<!-- Node0 -->
<g id="node1" class="node"><title>Node0</title>
<polygon fill="#bfbfbf" stroke="black" points="294,-57.5 294,-76.5 417,-76.5 417,-57.5 294,-57.5"/>
<text text-anchor="middle" x="355.5" y="-64.5" font-family="Helvetica,sans-Serif" font-size="10.00">Ogre::SimpleRenderable</text>
</g>
<!-- Node6 -->
<g id="node7" class="node"><title>Node6</title>
<g id="a_node7"><a xlink:href="class_ogre_1_1_instanced_geometry_1_1_geometry_bucket.html" target="_top" xlink:title="A GeometryBucket is a the lowest level bucket where geometry with the same vertex &amp; index format is s...">
<polygon fill="none" stroke="black" points="453,-115 453,-145 582,-145 582,-115 453,-115"/>
<text text-anchor="start" x="461" y="-133" font-family="Helvetica,sans-Serif" font-size="10.00">Ogre::InstancedGeometry</text>
<text text-anchor="middle" x="517.5" y="-122" font-family="Helvetica,sans-Serif" font-size="10.00">::GeometryBucket</text>
</a>
</g>
</g>
<!-- Node0&#45;&gt;Node6 -->
<g id="edge6" class="edge"><title>Node0&#45;&gt;Node6</title>
<path fill="none" stroke="midnightblue" d="M390.15,-80.2498C415.895,-90.3867 451.415,-104.373 478.24,-114.935"/>
<polygon fill="midnightblue" stroke="midnightblue" points="391.388,-76.9755 380.801,-76.5683 388.823,-83.4888 391.388,-76.9755"/>
</g>
<!-- Node7 -->
<g id="node8" class="node"><title>Node7</title>
<g id="a_node8"><a xlink:href="class_ogre_1_1_rectangle2_d.html" target="_top" xlink:title="Allows the rendering of a simple 2D rectangle This class renders a simple 2D rectangle; this rectangl...">
<polygon fill="none" stroke="black" points="467,-76.5 467,-95.5 568,-95.5 568,-76.5 467,-76.5"/>
<text text-anchor="middle" x="517.5" y="-83.5" font-family="Helvetica,sans-Serif" font-size="10.00">Ogre::Rectangle2D</text>
</a>
</g>
</g>
<!-- Node0&#45;&gt;Node7 -->
<g id="edge7" class="edge"><title>Node0&#45;&gt;Node7</title>
<path fill="none" stroke="midnightblue" d="M427.516,-75.4332C440.803,-77.011 454.424,-78.6285 466.89,-80.1088"/>
<polygon fill="midnightblue" stroke="midnightblue" points="427.789,-71.941 417.446,-74.2373 426.963,-78.8922 427.789,-71.941"/>
</g>
<!-- Node8 -->
<g id="node9" class="node"><title>Node8</title>
<g id="a_node9"><a xlink:href="class_ogre_1_1_volume_1_1_chunk.html" target="_top" xlink:title="A single volume chunk mesh. ">
<polygon fill="none" stroke="black" points="462,-38.5 462,-57.5 573,-57.5 573,-38.5 462,-38.5"/>
<text text-anchor="middle" x="517.5" y="-45.5" font-family="Helvetica,sans-Serif" font-size="10.00">Ogre::Volume::Chunk</text>
</a>
</g>
</g>
<!-- Node0&#45;&gt;Node8 -->
<g id="edge8" class="edge"><title>Node0&#45;&gt;Node8</title>
<path fill="none" stroke="midnightblue" d="M427.463,-58.5731C438.964,-57.2074 450.718,-55.8117 461.756,-54.5008"/>
<polygon fill="midnightblue" stroke="midnightblue" points="426.963,-55.1078 417.446,-59.7627 427.789,-62.059 426.963,-55.1078"/>
</g>
<!-- Node9 -->
<g id="node10" class="node"><title>Node9</title>
<g id="a_node10"><a xlink:href="class_ogre_1_1_wire_bounding_box.html" target="_top" xlink:title="Allows the rendering of a wireframe bounding box. ">
<polygon fill="none" stroke="black" points="456.5,-0.5 456.5,-19.5 578.5,-19.5 578.5,-0.5 456.5,-0.5"/>
<text text-anchor="middle" x="517.5" y="-7.5" font-family="Helvetica,sans-Serif" font-size="10.00">Ogre::WireBoundingBox</text>
</a>
</g>
</g>
<!-- Node0&#45;&gt;Node9 -->
<g id="edge9" class="edge"><title>Node0&#45;&gt;Node9</title>
<path fill="none" stroke="midnightblue" d="M388.787,-53.4969C407.414,-45.9059 431.363,-36.4821 453,-29 462.57,-25.6905 473.064,-22.4112 482.716,-19.5324"/>
<polygon fill="midnightblue" stroke="midnightblue" points="387.226,-50.3545 379.304,-57.3902 389.884,-56.83 387.226,-50.3545"/>
</g>
<!-- Node1 -->
<g id="node2" class="node"><title>Node1</title>
<g id="a_node2"><a xlink:href="class_ogre_1_1_movable_object.html" target="_top" xlink:title="Abstract class defining a movable object in a scene. ">
<polygon fill="none" stroke="black" points="149,-76.5 149,-95.5 258,-95.5 258,-76.5 149,-76.5"/>
<text text-anchor="middle" x="203.5" y="-83.5" font-family="Helvetica,sans-Serif" font-size="10.00">Ogre::MovableObject</text>
</a>
</g>
</g>
<!-- Node1&#45;&gt;Node0 -->
<g id="edge1" class="edge"><title>Node1&#45;&gt;Node0</title>
<path fill="none" stroke="midnightblue" d="M268.371,-77.9097C276.786,-76.8438 285.392,-75.7536 293.754,-74.6945"/>
<polygon fill="midnightblue" stroke="midnightblue" points="267.711,-74.4653 258.23,-79.1942 268.59,-81.4098 267.711,-74.4653"/>
</g>
<!-- Node2 -->
<g id="node3" class="node"><title>Node2</title>
<g id="a_node3"><a xlink:href="class_ogre_1_1_shadow_caster.html" target="_top" xlink:title="This class defines the interface that must be implemented by shadow casters. ">
<polygon fill="none" stroke="black" points="2.5,-114.5 2.5,-133.5 110.5,-133.5 110.5,-114.5 2.5,-114.5"/>
<text text-anchor="middle" x="56.5" y="-121.5" font-family="Helvetica,sans-Serif" font-size="10.00">Ogre::ShadowCaster</text>
</a>
</g>
</g>
<!-- Node2&#45;&gt;Node1 -->
<g id="edge2" class="edge"><title>Node2&#45;&gt;Node1</title>
<path fill="none" stroke="midnightblue" d="M103.993,-111.816C124.124,-106.54 147.338,-100.456 166.173,-95.5201"/>
<polygon fill="midnightblue" stroke="midnightblue" points="102.876,-108.49 94.0896,-114.411 104.65,-115.262 102.876,-108.49"/>
</g>
<!-- Node3 -->
<g id="node4" class="node"><title>Node3</title>
<g id="a_node4"><a xlink:href="class_ogre_1_1_animable_object.html" target="_top" xlink:title="Defines an interface to classes which have one or more AnimableValue instances to expose...">
<polygon fill="none" stroke="black" points="0,-76.5 0,-95.5 113,-95.5 113,-76.5 0,-76.5"/>
<text text-anchor="middle" x="56.5" y="-83.5" font-family="Helvetica,sans-Serif" font-size="10.00">Ogre::AnimableObject</text>
</a>
</g>
</g>
<!-- Node3&#45;&gt;Node1 -->
<g id="edge3" class="edge"><title>Node3&#45;&gt;Node1</title>
<path fill="none" stroke="midnightblue" d="M123.381,-86C131.846,-86 140.433,-86 148.675,-86"/>
<polygon fill="midnightblue" stroke="midnightblue" points="123.146,-82.5001 113.146,-86 123.146,-89.5001 123.146,-82.5001"/>
</g>
<!-- Node4 -->
<g id="node5" class="node"><title>Node4</title>
<g id="a_node5"><a xlink:href="class_ogre_1_1_allocated_object.html" target="_top" xlink:title="Superclass for all objects that wish to use custom memory allocators when their new / delete operator...">
<polygon fill="none" stroke="black" points="19,-38.5 19,-57.5 94,-57.5 94,-38.5 19,-38.5"/>
<text text-anchor="middle" x="56.5" y="-45.5" font-family="Helvetica,sans-Serif" font-size="10.00">MovableAlloc</text>
</a>
</g>
</g>
<!-- Node4&#45;&gt;Node1 -->
<g id="edge4" class="edge"><title>Node4&#45;&gt;Node1</title>
<path fill="none" stroke="midnightblue" d="M103.993,-60.1843C124.124,-65.46 147.338,-71.5438 166.173,-76.4799"/>
<polygon fill="midnightblue" stroke="midnightblue" points="104.65,-56.7385 94.0896,-57.589 102.876,-63.5098 104.65,-56.7385"/>
</g>
<!-- Node5 -->
<g id="node6" class="node"><title>Node5</title>
<g id="a_node6"><a xlink:href="class_ogre_1_1_renderable.html" target="_top" xlink:title="Abstract class defining the interface all renderable objects must implement. ">
<polygon fill="none" stroke="black" points="157,-38.5 157,-57.5 250,-57.5 250,-38.5 157,-38.5"/>
<text text-anchor="middle" x="203.5" y="-45.5" font-family="Helvetica,sans-Serif" font-size="10.00">Ogre::Renderable</text>
</a>
</g>
</g>
<!-- Node5&#45;&gt;Node0 -->
<g id="edge5" class="edge"><title>Node5&#45;&gt;Node0</title>
<path fill="none" stroke="midnightblue" d="M260.512,-55.0948C271.356,-56.4685 282.768,-57.914 293.756,-59.3058"/>
<polygon fill="midnightblue" stroke="midnightblue" points="260.681,-51.5883 250.32,-53.8039 259.801,-58.5328 260.681,-51.5883"/>
</g>
</g>
</svg>
