<?xml version="1.0" encoding="UTF-8" standalone="no"?>
<!DOCTYPE svg PUBLIC "-//W3C//DTD SVG 1.1//EN"
 "http://www.w3.org/Graphics/SVG/1.1/DTD/svg11.dtd">
<!-- Generated by graphviz version 2.38.0 (20140413.2041)
 -->
<!-- Title: Ogre::SceneQuery Pages: 1 -->
<svg width="971pt" height="476pt"
 viewBox="0.00 0.00 971.00 475.50" xmlns="http://www.w3.org/2000/svg" xmlns:xlink="http://www.w3.org/1999/xlink">
<g id="graph0" class="graph" transform="scale(1 1) rotate(0) translate(4 471.5)">
<title>Ogre::SceneQuery</title>
<!-- Node0 -->
<g id="node1" class="node"><title>Node0</title>
<polygon fill="#bfbfbf" stroke="black" points="119,-262.5 119,-281.5 217,-281.5 217,-262.5 119,-262.5"/>
<text text-anchor="middle" x="168" y="-269.5" font-family="Helvetica,sans-Serif" font-size="10.00">Ogre::SceneQuery</text>
</g>
<!-- Node2 -->
<g id="node3" class="node"><title>Node2</title>
<g id="a_node3"><a xlink:href="class_ogre_1_1_intersection_scene_query.html" target="_top" xlink:title="Separate SceneQuery class to query for pairs of objects which are possibly intersecting one another...">
<polygon fill="none" stroke="black" points="253,-322.5 253,-341.5 402,-341.5 402,-322.5 253,-322.5"/>
<text text-anchor="middle" x="327.5" y="-329.5" font-family="Helvetica,sans-Serif" font-size="10.00">Ogre::IntersectionSceneQuery</text>
</a>
</g>
</g>
<!-- Node0&#45;&gt;Node2 -->
<g id="edge2" class="edge"><title>Node0&#45;&gt;Node2</title>
<path fill="none" stroke="midnightblue" d="M203.469,-285.131C233.03,-296.392 274.926,-312.353 301.4,-322.438"/>
<polygon fill="midnightblue" stroke="midnightblue" points="204.547,-281.796 193.956,-281.507 202.055,-288.338 204.547,-281.796"/>
</g>
<!-- Node7 -->
<g id="node8" class="node"><title>Node7</title>
<g id="a_node8"><a xlink:href="class_ogre_1_1_ray_scene_query.html" target="_top" xlink:title="Specialises the SceneQuery class for querying along a ray. ">
<polygon fill="none" stroke="black" points="269.5,-262.5 269.5,-281.5 385.5,-281.5 385.5,-262.5 269.5,-262.5"/>
<text text-anchor="middle" x="327.5" y="-269.5" font-family="Helvetica,sans-Serif" font-size="10.00">Ogre::RaySceneQuery</text>
</a>
</g>
</g>
<!-- Node0&#45;&gt;Node7 -->
<g id="edge7" class="edge"><title>Node0&#45;&gt;Node7</title>
<path fill="none" stroke="midnightblue" d="M227.376,-272C241.064,-272 255.633,-272 269.27,-272"/>
<polygon fill="midnightblue" stroke="midnightblue" points="227.111,-268.5 217.111,-272 227.111,-275.5 227.111,-268.5"/>
</g>
<!-- Node12 -->
<g id="node13" class="node"><title>Node12</title>
<g id="a_node13"><a xlink:href="class_ogre_1_1_region_scene_query.html" target="_top" xlink:title="Abstract class defining a query which returns single results from a region. ">
<polygon fill="none" stroke="black" points="263.5,-155.5 263.5,-174.5 391.5,-174.5 391.5,-155.5 263.5,-155.5"/>
<text text-anchor="middle" x="327.5" y="-162.5" font-family="Helvetica,sans-Serif" font-size="10.00">Ogre::RegionSceneQuery</text>
</a>
</g>
</g>
<!-- Node0&#45;&gt;Node12 -->
<g id="edge12" class="edge"><title>Node0&#45;&gt;Node12</title>
<path fill="none" stroke="midnightblue" d="M191.807,-256.506C224.859,-234.051 285.098,-193.127 312.391,-174.585"/>
<polygon fill="midnightblue" stroke="midnightblue" points="189.56,-253.801 183.255,-262.316 193.493,-259.591 189.56,-253.801"/>
</g>
<!-- Node1 -->
<g id="node2" class="node"><title>Node1</title>
<g id="a_node2"><a xlink:href="class_ogre_1_1_allocated_object.html" target="_top" xlink:title="Superclass for all objects that wish to use custom memory allocators when their new / delete operator...">
<polygon fill="none" stroke="black" points="0,-262.5 0,-281.5 83,-281.5 83,-262.5 0,-262.5"/>
<text text-anchor="middle" x="41.5" y="-269.5" font-family="Helvetica,sans-Serif" font-size="10.00">SceneMgtAlloc</text>
</a>
</g>
</g>
<!-- Node1&#45;&gt;Node0 -->
<g id="edge1" class="edge"><title>Node1&#45;&gt;Node0</title>
<path fill="none" stroke="midnightblue" d="M93.3346,-272C101.741,-272 110.436,-272 118.776,-272"/>
<polygon fill="midnightblue" stroke="midnightblue" points="93.266,-268.5 83.266,-272 93.2659,-275.5 93.266,-268.5"/>
</g>
<!-- Node3 -->
<g id="node4" class="node"><title>Node3</title>
<g id="a_node4"><a xlink:href="class_ogre_1_1_default_intersection_scene_query.html" target="_top" xlink:title="Default implementation of IntersectionSceneQuery. ">
<polygon fill="none" stroke="black" points="448.5,-363 448.5,-393 574.5,-393 574.5,-363 448.5,-363"/>
<text text-anchor="start" x="456.5" y="-381" font-family="Helvetica,sans-Serif" font-size="10.00">Ogre::DefaultIntersection</text>
<text text-anchor="middle" x="511.5" y="-370" font-family="Helvetica,sans-Serif" font-size="10.00">SceneQuery</text>
</a>
</g>
</g>
<!-- Node2&#45;&gt;Node3 -->
<g id="edge3" class="edge"><title>Node2&#45;&gt;Node3</title>
<path fill="none" stroke="midnightblue" d="M376.042,-344.016C398.958,-349.808 426.679,-356.815 450.983,-362.957"/>
<polygon fill="midnightblue" stroke="midnightblue" points="376.763,-340.588 366.211,-341.531 375.048,-347.375 376.763,-340.588"/>
</g>
<!-- Node4 -->
<g id="node5" class="node"><title>Node4</title>
<g id="a_node5"><a xlink:href="class_ogre_1_1_bsp_intersection_scene_query.html" target="_top" xlink:title="BSP specialisation of IntersectionSceneQuery. ">
<polygon fill="none" stroke="black" points="623.5,-437 623.5,-467 763.5,-467 763.5,-437 623.5,-437"/>
<text text-anchor="start" x="631.5" y="-455" font-family="Helvetica,sans-Serif" font-size="10.00">Ogre::BspIntersectionScene</text>
<text text-anchor="middle" x="693.5" y="-444" font-family="Helvetica,sans-Serif" font-size="10.00">Query</text>
</a>
</g>
</g>
<!-- Node3&#45;&gt;Node4 -->
<g id="edge4" class="edge"><title>Node3&#45;&gt;Node4</title>
<path fill="none" stroke="midnightblue" d="M553.214,-397.409C573.418,-406.779 598.302,-417.927 621,-427 629.547,-430.417 638.766,-433.834 647.651,-436.996"/>
<polygon fill="midnightblue" stroke="midnightblue" points="554.535,-394.164 543.993,-393.107 551.576,-400.507 554.535,-394.164"/>
</g>
<!-- Node5 -->
<g id="node6" class="node"><title>Node5</title>
<g id="a_node6"><a xlink:href="class_ogre_1_1_octree_intersection_scene_query.html" target="_top" xlink:title="Octree implementation of IntersectionSceneQuery. ">
<polygon fill="none" stroke="black" points="631.5,-388 631.5,-418 755.5,-418 755.5,-388 631.5,-388"/>
<text text-anchor="start" x="639.5" y="-406" font-family="Helvetica,sans-Serif" font-size="10.00">Ogre::OctreeIntersection</text>
<text text-anchor="middle" x="693.5" y="-395" font-family="Helvetica,sans-Serif" font-size="10.00">SceneQuery</text>
</a>
</g>
</g>
<!-- Node3&#45;&gt;Node5 -->
<g id="edge5" class="edge"><title>Node3&#45;&gt;Node5</title>
<path fill="none" stroke="midnightblue" d="M584.702,-388.028C600.116,-390.169 616.255,-392.41 631.213,-394.488"/>
<polygon fill="midnightblue" stroke="midnightblue" points="585.084,-384.548 574.698,-386.639 584.121,-391.481 585.084,-384.548"/>
</g>
<!-- Node6 -->
<g id="node7" class="node"><title>Node6</title>
<g id="a_node7"><a xlink:href="class_ogre_1_1_p_c_z_intersection_scene_query.html" target="_top" xlink:title="PCZ implementation of IntersectionSceneQuery. ">
<polygon fill="none" stroke="black" points="622,-339 622,-369 765,-369 765,-339 622,-339"/>
<text text-anchor="start" x="630" y="-357" font-family="Helvetica,sans-Serif" font-size="10.00">Ogre::PCZIntersectionScene</text>
<text text-anchor="middle" x="693.5" y="-346" font-family="Helvetica,sans-Serif" font-size="10.00">Query</text>
</a>
</g>
</g>
<!-- Node3&#45;&gt;Node6 -->
<g id="edge6" class="edge"><title>Node3&#45;&gt;Node6</title>
<path fill="none" stroke="midnightblue" d="M584.849,-368.353C597.086,-366.722 609.776,-365.03 621.966,-363.405"/>
<polygon fill="midnightblue" stroke="midnightblue" points="584.148,-364.916 574.698,-369.707 585.073,-371.855 584.148,-364.916"/>
</g>
<!-- Node8 -->
<g id="node9" class="node"><title>Node8</title>
<g id="a_node9"><a xlink:href="class_ogre_1_1_default_ray_scene_query.html" target="_top" xlink:title="Default implementation of RaySceneQuery. ">
<polygon fill="none" stroke="black" points="438,-262.5 438,-281.5 585,-281.5 585,-262.5 438,-262.5"/>
<text text-anchor="middle" x="511.5" y="-269.5" font-family="Helvetica,sans-Serif" font-size="10.00">Ogre::DefaultRaySceneQuery</text>
</a>
</g>
</g>
<!-- Node7&#45;&gt;Node8 -->
<g id="edge8" class="edge"><title>Node7&#45;&gt;Node8</title>
<path fill="none" stroke="midnightblue" d="M395.881,-272C409.569,-272 424.022,-272 437.881,-272"/>
<polygon fill="midnightblue" stroke="midnightblue" points="395.587,-268.5 385.587,-272 395.587,-275.5 395.587,-268.5"/>
</g>
<!-- Node9 -->
<g id="node10" class="node"><title>Node9</title>
<g id="a_node10"><a xlink:href="class_ogre_1_1_bsp_ray_scene_query.html" target="_top" xlink:title="BSP specialisation of RaySceneQuery. ">
<polygon fill="none" stroke="black" points="627,-300.5 627,-319.5 760,-319.5 760,-300.5 627,-300.5"/>
<text text-anchor="middle" x="693.5" y="-307.5" font-family="Helvetica,sans-Serif" font-size="10.00">Ogre::BspRaySceneQuery</text>
</a>
</g>
</g>
<!-- Node8&#45;&gt;Node9 -->
<g id="edge9" class="edge"><title>Node8&#45;&gt;Node9</title>
<path fill="none" stroke="midnightblue" d="M567.831,-283.681C593.357,-289.07 623.276,-295.386 647.405,-300.48"/>
<polygon fill="midnightblue" stroke="midnightblue" points="568.429,-280.23 557.922,-281.589 566.983,-287.079 568.429,-280.23"/>
</g>
<!-- Node10 -->
<g id="node11" class="node"><title>Node10</title>
<g id="a_node11"><a xlink:href="class_ogre_1_1_octree_ray_scene_query.html" target="_top" xlink:title="Octree implementation of RaySceneQuery. ">
<polygon fill="none" stroke="black" points="621,-262.5 621,-281.5 766,-281.5 766,-262.5 621,-262.5"/>
<text text-anchor="middle" x="693.5" y="-269.5" font-family="Helvetica,sans-Serif" font-size="10.00">Ogre::OctreeRaySceneQuery</text>
</a>
</g>
</g>
<!-- Node8&#45;&gt;Node10 -->
<g id="edge10" class="edge"><title>Node8&#45;&gt;Node10</title>
<path fill="none" stroke="midnightblue" d="M595.234,-272C603.838,-272 612.532,-272 620.997,-272"/>
<polygon fill="midnightblue" stroke="midnightblue" points="595.194,-268.5 585.194,-272 595.194,-275.5 595.194,-268.5"/>
</g>
<!-- Node11 -->
<g id="node12" class="node"><title>Node11</title>
<g id="a_node12"><a xlink:href="class_ogre_1_1_p_c_z_ray_scene_query.html" target="_top" xlink:title="PCZ implementation of RaySceneQuery. ">
<polygon fill="none" stroke="black" points="625.5,-224.5 625.5,-243.5 761.5,-243.5 761.5,-224.5 625.5,-224.5"/>
<text text-anchor="middle" x="693.5" y="-231.5" font-family="Helvetica,sans-Serif" font-size="10.00">Ogre::PCZRaySceneQuery</text>
</a>
</g>
</g>
<!-- Node8&#45;&gt;Node11 -->
<g id="edge11" class="edge"><title>Node8&#45;&gt;Node11</title>
<path fill="none" stroke="midnightblue" d="M567.831,-260.319C593.357,-254.93 623.276,-248.614 647.405,-243.52"/>
<polygon fill="midnightblue" stroke="midnightblue" points="566.983,-256.921 557.922,-262.411 568.429,-263.77 566.983,-256.921"/>
</g>
<!-- Node13 -->
<g id="node14" class="node"><title>Node13</title>
<g id="a_node14"><a xlink:href="class_ogre_1_1_axis_aligned_box_scene_query.html" target="_top" xlink:title="Specialises the SceneQuery class for querying within an axis aligned box. ">
<polygon fill="none" stroke="black" points="441.5,-175 441.5,-205 581.5,-205 581.5,-175 441.5,-175"/>
<text text-anchor="start" x="449.5" y="-193" font-family="Helvetica,sans-Serif" font-size="10.00">Ogre::AxisAlignedBoxScene</text>
<text text-anchor="middle" x="511.5" y="-182" font-family="Helvetica,sans-Serif" font-size="10.00">Query</text>
</a>
</g>
</g>
<!-- Node12&#45;&gt;Node13 -->
<g id="edge13" class="edge"><title>Node12&#45;&gt;Node13</title>
<path fill="none" stroke="midnightblue" d="M401.928,-175.086C414.91,-176.87 428.389,-178.721 441.252,-180.488"/>
<polygon fill="midnightblue" stroke="midnightblue" points="402.027,-171.567 391.644,-173.674 401.075,-178.502 402.027,-171.567"/>
</g>
<!-- Node17 -->
<g id="node18" class="node"><title>Node17</title>
<g id="a_node18"><a xlink:href="class_ogre_1_1_plane_bounded_volume_list_scene_query.html" target="_top" xlink:title="Specialises the SceneQuery class for querying within a plane&#45;bounded volume. ">
<polygon fill="none" stroke="black" points="441.5,-126 441.5,-156 581.5,-156 581.5,-126 441.5,-126"/>
<text text-anchor="start" x="449.5" y="-144" font-family="Helvetica,sans-Serif" font-size="10.00">Ogre::PlaneBoundedVolume</text>
<text text-anchor="middle" x="511.5" y="-133" font-family="Helvetica,sans-Serif" font-size="10.00">ListSceneQuery</text>
</a>
</g>
</g>
<!-- Node12&#45;&gt;Node17 -->
<g id="edge17" class="edge"><title>Node12&#45;&gt;Node17</title>
<path fill="none" stroke="midnightblue" d="M401.928,-155.317C414.91,-153.605 428.389,-151.828 441.252,-150.132"/>
<polygon fill="midnightblue" stroke="midnightblue" points="401.101,-151.896 391.644,-156.673 402.016,-158.836 401.101,-151.896"/>
</g>
<!-- Node21 -->
<g id="node22" class="node"><title>Node21</title>
<g id="a_node22"><a xlink:href="class_ogre_1_1_sphere_scene_query.html" target="_top" xlink:title="Specialises the SceneQuery class for querying within a sphere. ">
<polygon fill="none" stroke="black" points="447.5,-63.5 447.5,-82.5 575.5,-82.5 575.5,-63.5 447.5,-63.5"/>
<text text-anchor="middle" x="511.5" y="-70.5" font-family="Helvetica,sans-Serif" font-size="10.00">Ogre::SphereSceneQuery</text>
</a>
</g>
</g>
<!-- Node12&#45;&gt;Node21 -->
<g id="edge21" class="edge"><title>Node12&#45;&gt;Node21</title>
<path fill="none" stroke="midnightblue" d="M357.003,-150.592C394.57,-131.602 459.628,-98.7156 491.623,-82.5421"/>
<polygon fill="midnightblue" stroke="midnightblue" points="354.979,-147.693 347.633,-155.328 358.137,-153.941 354.979,-147.693"/>
</g>
<!-- Node14 -->
<g id="node15" class="node"><title>Node14</title>
<g id="a_node15"><a xlink:href="class_ogre_1_1_default_axis_aligned_box_scene_query.html" target="_top" xlink:title="Default implementation of AxisAlignedBoxSceneQuery. ">
<polygon fill="none" stroke="black" points="630,-175 630,-205 757,-205 757,-175 630,-175"/>
<text text-anchor="start" x="638" y="-193" font-family="Helvetica,sans-Serif" font-size="10.00">Ogre::DefaultAxisAligned</text>
<text text-anchor="middle" x="693.5" y="-182" font-family="Helvetica,sans-Serif" font-size="10.00">BoxSceneQuery</text>
</a>
</g>
</g>
<!-- Node13&#45;&gt;Node14 -->
<g id="edge14" class="edge"><title>Node13&#45;&gt;Node14</title>
<path fill="none" stroke="midnightblue" d="M591.719,-190C604.466,-190 617.507,-190 629.797,-190"/>
<polygon fill="midnightblue" stroke="midnightblue" points="591.578,-186.5 581.578,-190 591.578,-193.5 591.578,-186.5"/>
</g>
<!-- Node15 -->
<g id="node16" class="node"><title>Node15</title>
<g id="a_node16"><a xlink:href="class_ogre_1_1_octree_axis_aligned_box_scene_query.html" target="_top" xlink:title="Octree implementation of AxisAlignedBoxSceneQuery. ">
<polygon fill="none" stroke="black" points="811.5,-224 811.5,-254 953.5,-254 953.5,-224 811.5,-224"/>
<text text-anchor="start" x="819.5" y="-242" font-family="Helvetica,sans-Serif" font-size="10.00">Ogre::OctreeAxisAlignedBox</text>
<text text-anchor="middle" x="882.5" y="-231" font-family="Helvetica,sans-Serif" font-size="10.00">SceneQuery</text>
</a>
</g>
</g>
<!-- Node14&#45;&gt;Node15 -->
<g id="edge15" class="edge"><title>Node14&#45;&gt;Node15</title>
<path fill="none" stroke="midnightblue" d="M761.755,-207.623C782.213,-212.984 804.496,-218.823 824.231,-223.994"/>
<polygon fill="midnightblue" stroke="midnightblue" points="762.438,-204.184 751.877,-205.035 760.663,-210.955 762.438,-204.184"/>
</g>
<!-- Node16 -->
<g id="node17" class="node"><title>Node16</title>
<g id="a_node17"><a xlink:href="class_ogre_1_1_p_c_z_axis_aligned_box_scene_query.html" target="_top" xlink:title="PCZ implementation of AxisAlignedBoxSceneQuery. ">
<polygon fill="none" stroke="black" points="802,-175 802,-205 963,-205 963,-175 802,-175"/>
<text text-anchor="start" x="810" y="-193" font-family="Helvetica,sans-Serif" font-size="10.00">Ogre::PCZAxisAlignedBoxScene</text>
<text text-anchor="middle" x="882.5" y="-182" font-family="Helvetica,sans-Serif" font-size="10.00">Query</text>
</a>
</g>
</g>
<!-- Node14&#45;&gt;Node16 -->
<g id="edge16" class="edge"><title>Node14&#45;&gt;Node16</title>
<path fill="none" stroke="midnightblue" d="M767.267,-190C778.568,-190 790.294,-190 801.74,-190"/>
<polygon fill="midnightblue" stroke="midnightblue" points="767.028,-186.5 757.028,-190 767.028,-193.5 767.028,-186.5"/>
</g>
<!-- Node18 -->
<g id="node19" class="node"><title>Node18</title>
<g id="a_node19"><a xlink:href="class_ogre_1_1_default_plane_bounded_volume_list_scene_query.html" target="_top" xlink:title="Default implementation of PlaneBoundedVolumeListSceneQuery. ">
<polygon fill="none" stroke="black" points="624.5,-126 624.5,-156 762.5,-156 762.5,-126 624.5,-126"/>
<text text-anchor="start" x="632.5" y="-144" font-family="Helvetica,sans-Serif" font-size="10.00">Ogre::DefaultPlaneBounded</text>
<text text-anchor="middle" x="693.5" y="-133" font-family="Helvetica,sans-Serif" font-size="10.00">VolumeListSceneQuery</text>
</a>
</g>
</g>
<!-- Node17&#45;&gt;Node18 -->
<g id="edge18" class="edge"><title>Node17&#45;&gt;Node18</title>
<path fill="none" stroke="midnightblue" d="M591.913,-141C602.781,-141 613.858,-141 624.498,-141"/>
<polygon fill="midnightblue" stroke="midnightblue" points="591.578,-137.5 581.578,-141 591.578,-144.5 591.578,-137.5"/>
</g>
<!-- Node19 -->
<g id="node20" class="node"><title>Node19</title>
<g id="a_node20"><a xlink:href="class_ogre_1_1_octree_plane_bounded_volume_list_scene_query.html" target="_top" xlink:title="Octree implementation of PlaneBoundedVolumeListSceneQuery. ">
<polygon fill="none" stroke="black" points="814.5,-126 814.5,-156 950.5,-156 950.5,-126 814.5,-126"/>
<text text-anchor="start" x="822.5" y="-144" font-family="Helvetica,sans-Serif" font-size="10.00">Ogre::OctreePlaneBounded</text>
<text text-anchor="middle" x="882.5" y="-133" font-family="Helvetica,sans-Serif" font-size="10.00">VolumeListSceneQuery</text>
</a>
</g>
</g>
<!-- Node18&#45;&gt;Node19 -->
<g id="edge19" class="edge"><title>Node18&#45;&gt;Node19</title>
<path fill="none" stroke="midnightblue" d="M772.572,-141C786.489,-141 800.874,-141 814.449,-141"/>
<polygon fill="midnightblue" stroke="midnightblue" points="772.54,-137.5 762.54,-141 772.54,-144.5 772.54,-137.5"/>
</g>
<!-- Node20 -->
<g id="node21" class="node"><title>Node20</title>
<g id="a_node21"><a xlink:href="class_ogre_1_1_p_c_z_plane_bounded_volume_list_scene_query.html" target="_top" xlink:title="PCZ implementation of PlaneBoundedVolumeListSceneQuery. ">
<polygon fill="none" stroke="black" points="802.5,-77 802.5,-107 962.5,-107 962.5,-77 802.5,-77"/>
<text text-anchor="start" x="810.5" y="-95" font-family="Helvetica,sans-Serif" font-size="10.00">Ogre::PCZPlaneBoundedVolume</text>
<text text-anchor="middle" x="882.5" y="-84" font-family="Helvetica,sans-Serif" font-size="10.00">ListSceneQuery</text>
</a>
</g>
</g>
<!-- Node18&#45;&gt;Node20 -->
<g id="edge20" class="edge"><title>Node18&#45;&gt;Node20</title>
<path fill="none" stroke="midnightblue" d="M761.755,-123.377C782.213,-118.016 804.496,-112.177 824.231,-107.006"/>
<polygon fill="midnightblue" stroke="midnightblue" points="760.663,-120.045 751.877,-125.965 762.438,-126.816 760.663,-120.045"/>
</g>
<!-- Node22 -->
<g id="node23" class="node"><title>Node22</title>
<g id="a_node23"><a xlink:href="class_ogre_1_1_default_sphere_scene_query.html" target="_top" xlink:title="Default implementation of SphereSceneQuery. ">
<polygon fill="none" stroke="black" points="626.5,-33 626.5,-63 760.5,-63 760.5,-33 626.5,-33"/>
<text text-anchor="start" x="634.5" y="-51" font-family="Helvetica,sans-Serif" font-size="10.00">Ogre::DefaultSphereScene</text>
<text text-anchor="middle" x="693.5" y="-40" font-family="Helvetica,sans-Serif" font-size="10.00">Query</text>
</a>
</g>
</g>
<!-- Node21&#45;&gt;Node22 -->
<g id="edge22" class="edge"><title>Node21&#45;&gt;Node22</title>
<path fill="none" stroke="midnightblue" d="M585.849,-62.8126C599.269,-60.9488 613.2,-59.014 626.392,-57.1817"/>
<polygon fill="midnightblue" stroke="midnightblue" points="585.132,-59.3786 575.708,-64.2211 586.095,-66.312 585.132,-59.3786"/>
</g>
<!-- Node23 -->
<g id="node24" class="node"><title>Node23</title>
<g id="a_node24"><a xlink:href="class_ogre_1_1_octree_sphere_scene_query.html" target="_top" xlink:title="Octree implementation of SphereSceneQuery. ">
<polygon fill="none" stroke="black" points="803.5,-38.5 803.5,-57.5 961.5,-57.5 961.5,-38.5 803.5,-38.5"/>
<text text-anchor="middle" x="882.5" y="-45.5" font-family="Helvetica,sans-Serif" font-size="10.00">Ogre::OctreeSphereSceneQuery</text>
</a>
</g>
</g>
<!-- Node22&#45;&gt;Node23 -->
<g id="edge23" class="edge"><title>Node22&#45;&gt;Node23</title>
<path fill="none" stroke="midnightblue" d="M770.826,-48C781.514,-48 792.512,-48 803.236,-48"/>
<polygon fill="midnightblue" stroke="midnightblue" points="770.692,-44.5001 760.692,-48 770.692,-51.5001 770.692,-44.5001"/>
</g>
<!-- Node24 -->
<g id="node25" class="node"><title>Node24</title>
<g id="a_node25"><a xlink:href="class_ogre_1_1_p_c_z_sphere_scene_query.html" target="_top" xlink:title="PCZ implementation of SphereSceneQuery. ">
<polygon fill="none" stroke="black" points="808,-0.5 808,-19.5 957,-19.5 957,-0.5 808,-0.5"/>
<text text-anchor="middle" x="882.5" y="-7.5" font-family="Helvetica,sans-Serif" font-size="10.00">Ogre::PCZSphereSceneQuery</text>
</a>
</g>
</g>
<!-- Node22&#45;&gt;Node24 -->
<g id="edge24" class="edge"><title>Node22&#45;&gt;Node24</title>
<path fill="none" stroke="midnightblue" d="M770.531,-32.5499C792.18,-28.1506 815.124,-23.4881 834.497,-19.5514"/>
<polygon fill="midnightblue" stroke="midnightblue" points="769.795,-29.1278 760.692,-34.5491 771.189,-35.9876 769.795,-29.1278"/>
</g>
</g>
</svg>
