<?xml version="1.0" encoding="UTF-8" standalone="no"?>
<!DOCTYPE svg PUBLIC "-//W3C//DTD SVG 1.1//EN"
 "http://www.w3.org/Graphics/SVG/1.1/DTD/svg11.dtd">
<!-- Generated by graphviz version 2.38.0 (20140413.2041)
 -->
<!-- Title: Ogre::RTShader::PerPixelLighting Pages: 1 -->
<svg width="152pt" height="229pt"
 viewBox="0.00 0.00 152.00 229.00" xmlns="http://www.w3.org/2000/svg" xmlns:xlink="http://www.w3.org/1999/xlink">
<g id="graph0" class="graph" transform="scale(1 1) rotate(0) translate(4 225)">
<title>Ogre::RTShader::PerPixelLighting</title>
<!-- Node0 -->
<g id="node1" class="node"><title>Node0</title>
<polygon fill="#bfbfbf" stroke="black" points="6.5,-67.5 6.5,-97.5 137.5,-97.5 137.5,-67.5 6.5,-67.5"/>
<text text-anchor="start" x="14.5" y="-85.5" font-family="Helvetica,sans-Serif" font-size="10.00">Ogre::RTShader::PerPixel</text>
<text text-anchor="middle" x="72" y="-74.5" font-family="Helvetica,sans-Serif" font-size="10.00">Lighting</text>
</g>
<!-- Node3 -->
<g id="node4" class="node"><title>Node3</title>
<g id="a_node4"><a xlink:href="class_ogre_1_1_r_t_shader_1_1_normal_map_lighting.html" target="_top" xlink:title="Normal Map Lighting extension sub render state implementation. ">
<polygon fill="none" stroke="black" points="0,-0.5 0,-30.5 144,-30.5 144,-0.5 0,-0.5"/>
<text text-anchor="start" x="8" y="-18.5" font-family="Helvetica,sans-Serif" font-size="10.00">Ogre::RTShader::NormalMap</text>
<text text-anchor="middle" x="72" y="-7.5" font-family="Helvetica,sans-Serif" font-size="10.00">Lighting</text>
</a>
</g>
</g>
<!-- Node0&#45;&gt;Node3 -->
<g id="edge3" class="edge"><title>Node0&#45;&gt;Node3</title>
<path fill="none" stroke="midnightblue" d="M72,-57.1081C72,-48.1539 72,-38.3227 72,-30.5765"/>
<polygon fill="midnightblue" stroke="midnightblue" points="68.5001,-57.3959 72,-67.396 75.5001,-57.396 68.5001,-57.3959"/>
</g>
<!-- Node1 -->
<g id="node2" class="node"><title>Node1</title>
<g id="a_node2"><a xlink:href="class_ogre_1_1_r_t_shader_1_1_sub_render_state.html" target="_top" xlink:title="This class is the base interface of sub part from a shader based rendering pipeline. ">
<polygon fill="none" stroke="black" points="0.5,-134.5 0.5,-164.5 143.5,-164.5 143.5,-134.5 0.5,-134.5"/>
<text text-anchor="start" x="8.5" y="-152.5" font-family="Helvetica,sans-Serif" font-size="10.00">Ogre::RTShader::SubRender</text>
<text text-anchor="middle" x="72" y="-141.5" font-family="Helvetica,sans-Serif" font-size="10.00">State</text>
</a>
</g>
</g>
<!-- Node1&#45;&gt;Node0 -->
<g id="edge1" class="edge"><title>Node1&#45;&gt;Node0</title>
<path fill="none" stroke="midnightblue" d="M72,-124.108C72,-115.154 72,-105.323 72,-97.5765"/>
<polygon fill="midnightblue" stroke="midnightblue" points="68.5001,-124.396 72,-134.396 75.5001,-124.396 68.5001,-124.396"/>
</g>
<!-- Node2 -->
<g id="node3" class="node"><title>Node2</title>
<g id="a_node3"><a xlink:href="class_ogre_1_1_allocated_object.html" target="_top" xlink:title="Superclass for all objects that wish to use custom memory allocators when their new / delete operator...">
<polygon fill="none" stroke="black" points="14,-201.5 14,-220.5 130,-220.5 130,-201.5 14,-201.5"/>
<text text-anchor="middle" x="72" y="-208.5" font-family="Helvetica,sans-Serif" font-size="10.00">RTShaderSystemAlloc</text>
</a>
</g>
</g>
<!-- Node2&#45;&gt;Node1 -->
<g id="edge2" class="edge"><title>Node2&#45;&gt;Node1</title>
<path fill="none" stroke="midnightblue" d="M72,-191.235C72,-182.586 72,-172.497 72,-164.523"/>
<polygon fill="midnightblue" stroke="midnightblue" points="68.5001,-191.475 72,-201.475 75.5001,-191.475 68.5001,-191.475"/>
</g>
</g>
</svg>
