<?xml version="1.0" encoding="UTF-8" standalone="no"?>
<!DOCTYPE svg PUBLIC "-//W3C//DTD SVG 1.1//EN"
 "http://www.w3.org/Graphics/SVG/1.1/DTD/svg11.dtd">
<!-- Generated by graphviz version 2.38.0 (20140413.2041)
 -->
<!-- Title: Ogre::PortalBaseFactory Pages: 1 -->
<svg width="248pt" height="196pt"
 viewBox="0.00 0.00 247.50 196.00" xmlns="http://www.w3.org/2000/svg" xmlns:xlink="http://www.w3.org/1999/xlink">
<g id="graph0" class="graph" transform="scale(1 1) rotate(0) translate(4 192)">
<title>Ogre::PortalBaseFactory</title>
<!-- Node0 -->
<g id="node1" class="node"><title>Node0</title>
<polygon fill="#bfbfbf" stroke="black" points="61,-56.5 61,-75.5 186,-75.5 186,-56.5 61,-56.5"/>
<text text-anchor="middle" x="123.5" y="-63.5" font-family="Helvetica,sans-Serif" font-size="10.00">Ogre::PortalBaseFactory</text>
</g>
<!-- Node3 -->
<g id="node4" class="node"><title>Node3</title>
<g id="a_node4"><a xlink:href="class_ogre_1_1_anti_portal_factory.html" target="_top" xlink:title="Factory object for creating AntiPortal instances. ">
<polygon fill="none" stroke="black" points="0,-0.5 0,-19.5 119,-19.5 119,-0.5 0,-0.5"/>
<text text-anchor="middle" x="59.5" y="-7.5" font-family="Helvetica,sans-Serif" font-size="10.00">Ogre::AntiPortalFactory</text>
</a>
</g>
</g>
<!-- Node0&#45;&gt;Node3 -->
<g id="edge3" class="edge"><title>Node0&#45;&gt;Node3</title>
<path fill="none" stroke="midnightblue" d="M105.509,-49.8197C94.0424,-40.1452 79.5867,-27.9481 69.9698,-19.8339"/>
<polygon fill="midnightblue" stroke="midnightblue" points="103.317,-52.5502 113.217,-56.324 107.831,-47.2002 103.317,-52.5502"/>
</g>
<!-- Node4 -->
<g id="node5" class="node"><title>Node4</title>
<g id="a_node5"><a xlink:href="class_ogre_1_1_portal_factory.html" target="_top" xlink:title="Factory object for creating Portal instances. ">
<polygon fill="none" stroke="black" points="137.5,-0.5 137.5,-19.5 239.5,-19.5 239.5,-0.5 137.5,-0.5"/>
<text text-anchor="middle" x="188.5" y="-7.5" font-family="Helvetica,sans-Serif" font-size="10.00">Ogre::PortalFactory</text>
</a>
</g>
</g>
<!-- Node0&#45;&gt;Node4 -->
<g id="edge4" class="edge"><title>Node0&#45;&gt;Node4</title>
<path fill="none" stroke="midnightblue" d="M141.773,-49.8197C153.418,-40.1452 168.099,-27.9481 177.867,-19.8339"/>
<polygon fill="midnightblue" stroke="midnightblue" points="139.399,-47.2416 133.943,-56.324 143.872,-52.6259 139.399,-47.2416"/>
</g>
<!-- Node1 -->
<g id="node2" class="node"><title>Node1</title>
<g id="a_node2"><a xlink:href="class_ogre_1_1_movable_object_factory.html" target="_top" xlink:title="Interface definition for a factory class which produces a certain kind of MovableObject, and can be registered with Root in order to allow all clients to produce new instances of this object, integrated with the standard Ogre processing. ">
<polygon fill="none" stroke="black" points="52.5,-112.5 52.5,-131.5 194.5,-131.5 194.5,-112.5 52.5,-112.5"/>
<text text-anchor="middle" x="123.5" y="-119.5" font-family="Helvetica,sans-Serif" font-size="10.00">Ogre::MovableObjectFactory</text>
</a>
</g>
</g>
<!-- Node1&#45;&gt;Node0 -->
<g id="edge1" class="edge"><title>Node1&#45;&gt;Node0</title>
<path fill="none" stroke="midnightblue" d="M123.5,-101.805C123.5,-92.9102 123.5,-82.7798 123.5,-75.7511"/>
<polygon fill="midnightblue" stroke="midnightblue" points="120,-102.083 123.5,-112.083 127,-102.083 120,-102.083"/>
</g>
<!-- Node2 -->
<g id="node3" class="node"><title>Node2</title>
<g id="a_node3"><a xlink:href="class_ogre_1_1_allocated_object.html" target="_top" xlink:title="Superclass for all objects that wish to use custom memory allocators when their new / delete operator...">
<polygon fill="none" stroke="black" points="86,-168.5 86,-187.5 161,-187.5 161,-168.5 86,-168.5"/>
<text text-anchor="middle" x="123.5" y="-175.5" font-family="Helvetica,sans-Serif" font-size="10.00">MovableAlloc</text>
</a>
</g>
</g>
<!-- Node2&#45;&gt;Node1 -->
<g id="edge2" class="edge"><title>Node2&#45;&gt;Node1</title>
<path fill="none" stroke="midnightblue" d="M123.5,-157.805C123.5,-148.91 123.5,-138.78 123.5,-131.751"/>
<polygon fill="midnightblue" stroke="midnightblue" points="120,-158.083 123.5,-168.083 127,-158.083 120,-158.083"/>
</g>
</g>
</svg>
