<?xml version="1.0" encoding="UTF-8" standalone="no"?>
<!DOCTYPE svg PUBLIC "-//W3C//DTD SVG 1.1//EN"
 "http://www.w3.org/Graphics/SVG/1.1/DTD/svg11.dtd">
<!-- Generated by graphviz version 2.38.0 (20140413.2041)
 -->
<!-- Title: Ogre::GLES2FBOManager Pages: 1 -->
<svg width="180pt" height="140pt"
 viewBox="0.00 0.00 180.00 140.00" xmlns="http://www.w3.org/2000/svg" xmlns:xlink="http://www.w3.org/1999/xlink">
<g id="graph0" class="graph" transform="scale(1 1) rotate(0) translate(4 136)">
<title>Ogre::GLES2FBOManager</title>
<!-- Node0 -->
<g id="node1" class="node"><title>Node0</title>
<polygon fill="#bfbfbf" stroke="black" points="19.5,-0.5 19.5,-19.5 152.5,-19.5 152.5,-0.5 19.5,-0.5"/>
<text text-anchor="middle" x="86" y="-7.5" font-family="Helvetica,sans-Serif" font-size="10.00">Ogre::GLES2FBOManager</text>
</g>
<!-- Node1 -->
<g id="node2" class="node"><title>Node1</title>
<g id="a_node2"><a xlink:href="class_ogre_1_1_g_l_r_t_t_manager.html" target="_top" xlink:title="Manager/factory for RenderTextures. ">
<polygon fill="none" stroke="black" points="29.5,-56.5 29.5,-75.5 142.5,-75.5 142.5,-56.5 29.5,-56.5"/>
<text text-anchor="middle" x="86" y="-63.5" font-family="Helvetica,sans-Serif" font-size="10.00">Ogre::GLRTTManager</text>
</a>
</g>
</g>
<!-- Node1&#45;&gt;Node0 -->
<g id="edge1" class="edge"><title>Node1&#45;&gt;Node0</title>
<path fill="none" stroke="midnightblue" d="M86,-45.8045C86,-36.9102 86,-26.7798 86,-19.7511"/>
<polygon fill="midnightblue" stroke="midnightblue" points="82.5001,-46.083 86,-56.083 89.5001,-46.083 82.5001,-46.083"/>
</g>
<!-- Node2 -->
<g id="node3" class="node"><title>Node2</title>
<g id="a_node3"><a xlink:href="class_ogre_1_1_singleton.html" target="_top" xlink:title="Ogre::Singleton\&lt; GLRTTManager \&gt;">
<polygon fill="none" stroke="black" points="0,-112.5 0,-131.5 172,-131.5 172,-112.5 0,-112.5"/>
<text text-anchor="middle" x="86" y="-119.5" font-family="Helvetica,sans-Serif" font-size="10.00">Ogre::Singleton&lt; GLRTTManager &gt;</text>
</a>
</g>
</g>
<!-- Node2&#45;&gt;Node1 -->
<g id="edge2" class="edge"><title>Node2&#45;&gt;Node1</title>
<path fill="none" stroke="midnightblue" d="M86,-101.805C86,-92.9102 86,-82.7798 86,-75.7511"/>
<polygon fill="midnightblue" stroke="midnightblue" points="82.5001,-102.083 86,-112.083 89.5001,-102.083 82.5001,-102.083"/>
</g>
</g>
</svg>
