<?xml version="1.0" encoding="UTF-8" standalone="no"?>
<!DOCTYPE svg PUBLIC "-//W3C//DTD SVG 1.1//EN"
 "http://www.w3.org/Graphics/SVG/1.1/DTD/svg11.dtd">
<!-- Generated by graphviz version 2.38.0 (20140413.2041)
 -->
<!-- Title: Ogre::RenderTarget Pages: 1 -->
<svg width="796pt" height="453pt"
 viewBox="0.00 0.00 796.00 453.00" xmlns="http://www.w3.org/2000/svg" xmlns:xlink="http://www.w3.org/1999/xlink">
<g id="graph0" class="graph" transform="scale(1 1) rotate(0) translate(4 449)">
<title>Ogre::RenderTarget</title>
<!-- Node0 -->
<g id="node1" class="node"><title>Node0</title>
<polygon fill="#bfbfbf" stroke="black" points="123,-174.5 123,-193.5 226,-193.5 226,-174.5 123,-174.5"/>
<text text-anchor="middle" x="174.5" y="-181.5" font-family="Helvetica,sans-Serif" font-size="10.00">Ogre::RenderTarget</text>
</g>
<!-- Node2 -->
<g id="node3" class="node"><title>Node2</title>
<g id="a_node3"><a xlink:href="class_ogre_1_1_multi_render_target.html" target="_top" xlink:title="This class represents a render target that renders to multiple RenderTextures at once. ">
<polygon fill="none" stroke="black" points="262,-318.5 262,-337.5 386,-337.5 386,-318.5 262,-318.5"/>
<text text-anchor="middle" x="324" y="-325.5" font-family="Helvetica,sans-Serif" font-size="10.00">Ogre::MultiRenderTarget</text>
</a>
</g>
</g>
<!-- Node0&#45;&gt;Node2 -->
<g id="edge2" class="edge"><title>Node0&#45;&gt;Node2</title>
<path fill="none" stroke="midnightblue" d="M192.794,-200.884C223.952,-231.302 288.559,-294.376 313.179,-318.412"/>
<polygon fill="midnightblue" stroke="midnightblue" points="195.239,-198.379 185.638,-193.898 190.349,-203.388 195.239,-198.379"/>
</g>
<!-- Node8 -->
<g id="node9" class="node"><title>Node8</title>
<g id="a_node9"><a xlink:href="class_ogre_1_1_render_texture.html" target="_top" xlink:title="This class represents a RenderTarget that renders to a Texture. ">
<polygon fill="none" stroke="black" points="270,-174.5 270,-193.5 378,-193.5 378,-174.5 270,-174.5"/>
<text text-anchor="middle" x="324" y="-181.5" font-family="Helvetica,sans-Serif" font-size="10.00">Ogre::RenderTexture</text>
</a>
</g>
</g>
<!-- Node0&#45;&gt;Node8 -->
<g id="edge8" class="edge"><title>Node0&#45;&gt;Node8</title>
<path fill="none" stroke="midnightblue" d="M236.338,-184C247.467,-184 259.002,-184 269.884,-184"/>
<polygon fill="midnightblue" stroke="midnightblue" points="236.261,-180.5 226.261,-184 236.261,-187.5 236.261,-180.5"/>
</g>
<!-- Node17 -->
<g id="node18" class="node"><title>Node17</title>
<g id="a_node18"><a xlink:href="class_ogre_1_1_render_window.html" target="_top" xlink:title="Manages the target rendering window. ">
<polygon fill="none" stroke="black" points="269,-57.5 269,-76.5 379,-76.5 379,-57.5 269,-57.5"/>
<text text-anchor="middle" x="324" y="-64.5" font-family="Helvetica,sans-Serif" font-size="10.00">Ogre::RenderWindow</text>
</a>
</g>
</g>
<!-- Node0&#45;&gt;Node17 -->
<g id="edge17" class="edge"><title>Node0&#45;&gt;Node17</title>
<path fill="none" stroke="midnightblue" d="M195.538,-168.105C226.573,-143.488 285.334,-96.8773 310.763,-76.7069"/>
<polygon fill="midnightblue" stroke="midnightblue" points="193.23,-165.469 187.571,-174.425 197.58,-170.953 193.23,-165.469"/>
</g>
<!-- Node1 -->
<g id="node2" class="node"><title>Node1</title>
<g id="a_node2"><a xlink:href="class_ogre_1_1_allocated_object.html" target="_top" xlink:title="Superclass for all objects that wish to use custom memory allocators when their new / delete operator...">
<polygon fill="none" stroke="black" points="0,-174.5 0,-193.5 87,-193.5 87,-174.5 0,-174.5"/>
<text text-anchor="middle" x="43.5" y="-181.5" font-family="Helvetica,sans-Serif" font-size="10.00">RenderSysAlloc</text>
</a>
</g>
</g>
<!-- Node1&#45;&gt;Node0 -->
<g id="edge1" class="edge"><title>Node1&#45;&gt;Node0</title>
<path fill="none" stroke="midnightblue" d="M97.2458,-184C105.713,-184 114.461,-184 122.877,-184"/>
<polygon fill="midnightblue" stroke="midnightblue" points="97.097,-180.5 87.0969,-184 97.0969,-187.5 97.097,-180.5"/>
</g>
<!-- Node3 -->
<g id="node4" class="node"><title>Node3</title>
<g id="a_node4"><a xlink:href="class_ogre_1_1_d3_d11_multi_render_target.html" target="_top" xlink:title="Ogre::D3D11MultiRenderTarget">
<polygon fill="none" stroke="black" points="426.5,-425.5 426.5,-444.5 581.5,-444.5 581.5,-425.5 426.5,-425.5"/>
<text text-anchor="middle" x="504" y="-432.5" font-family="Helvetica,sans-Serif" font-size="10.00">Ogre::D3D11MultiRenderTarget</text>
</a>
</g>
</g>
<!-- Node2&#45;&gt;Node3 -->
<g id="edge3" class="edge"><title>Node2&#45;&gt;Node3</title>
<path fill="none" stroke="midnightblue" d="M339.245,-345.436C356.65,-365.553 388.005,-398.146 422,-416 429.417,-419.895 437.631,-423.001 445.9,-425.475"/>
<polygon fill="midnightblue" stroke="midnightblue" points="341.801,-343.038 332.673,-337.658 336.454,-347.556 341.801,-343.038"/>
</g>
<!-- Node4 -->
<g id="node5" class="node"><title>Node4</title>
<g id="a_node5"><a xlink:href="class_ogre_1_1_d3_d9_multi_render_target.html" target="_top" xlink:title="Ogre::D3D9MultiRenderTarget">
<polygon fill="none" stroke="black" points="429.5,-387.5 429.5,-406.5 578.5,-406.5 578.5,-387.5 429.5,-387.5"/>
<text text-anchor="middle" x="504" y="-394.5" font-family="Helvetica,sans-Serif" font-size="10.00">Ogre::D3D9MultiRenderTarget</text>
</a>
</g>
</g>
<!-- Node2&#45;&gt;Node4 -->
<g id="edge4" class="edge"><title>Node2&#45;&gt;Node4</title>
<path fill="none" stroke="midnightblue" d="M349.264,-342.636C368.439,-353.672 396.182,-368.483 422,-378 432.029,-381.697 443.028,-384.844 453.598,-387.451"/>
<polygon fill="midnightblue" stroke="midnightblue" points="350.984,-339.588 340.585,-337.562 347.451,-345.631 350.984,-339.588"/>
</g>
<!-- Node5 -->
<g id="node6" class="node"><title>Node5</title>
<g id="a_node6"><a xlink:href="class_ogre_1_1_g_l3_plus_f_b_o_multi_render_target.html" target="_top" xlink:title="MultiRenderTarget for OpenGL. ">
<polygon fill="none" stroke="black" points="427,-338 427,-368 581,-368 581,-338 427,-338"/>
<text text-anchor="start" x="435" y="-356" font-family="Helvetica,sans-Serif" font-size="10.00">Ogre::GL3PlusFBOMultiRender</text>
<text text-anchor="middle" x="504" y="-345" font-family="Helvetica,sans-Serif" font-size="10.00">Target</text>
</a>
</g>
</g>
<!-- Node2&#45;&gt;Node5 -->
<g id="edge5" class="edge"><title>Node2&#45;&gt;Node5</title>
<path fill="none" stroke="midnightblue" d="M396.209,-338.001C406.286,-339.417 416.68,-340.876 426.846,-342.304"/>
<polygon fill="midnightblue" stroke="midnightblue" points="396.647,-334.529 386.258,-336.604 395.673,-341.46 396.647,-334.529"/>
</g>
<!-- Node6 -->
<g id="node7" class="node"><title>Node6</title>
<g id="a_node7"><a xlink:href="class_ogre_1_1_g_l_e_s2_f_b_o_multi_render_target.html" target="_top" xlink:title="MultiRenderTarget for GL ES 2.x. ">
<polygon fill="none" stroke="black" points="430,-289 430,-319 578,-319 578,-289 430,-289"/>
<text text-anchor="start" x="438" y="-307" font-family="Helvetica,sans-Serif" font-size="10.00">Ogre::GLES2FBOMultiRender</text>
<text text-anchor="middle" x="504" y="-296" font-family="Helvetica,sans-Serif" font-size="10.00">Target</text>
</a>
</g>
</g>
<!-- Node2&#45;&gt;Node6 -->
<g id="edge6" class="edge"><title>Node2&#45;&gt;Node6</title>
<path fill="none" stroke="midnightblue" d="M396.306,-318.386C407.386,-316.892 418.848,-315.346 429.967,-313.847"/>
<polygon fill="midnightblue" stroke="midnightblue" points="395.7,-314.936 386.258,-319.741 396.636,-321.873 395.7,-314.936"/>
</g>
<!-- Node7 -->
<g id="node8" class="node"><title>Node7</title>
<g id="a_node8"><a xlink:href="class_ogre_1_1_g_l_f_b_o_multi_render_target.html" target="_top" xlink:title="MultiRenderTarget for GL. ">
<polygon fill="none" stroke="black" points="425.5,-250.5 425.5,-269.5 582.5,-269.5 582.5,-250.5 425.5,-250.5"/>
<text text-anchor="middle" x="504" y="-257.5" font-family="Helvetica,sans-Serif" font-size="10.00">Ogre::GLFBOMultiRenderTarget</text>
</a>
</g>
</g>
<!-- Node2&#45;&gt;Node7 -->
<g id="edge7" class="edge"><title>Node2&#45;&gt;Node7</title>
<path fill="none" stroke="midnightblue" d="M349.644,-313.49C368.827,-302.71 396.404,-288.317 422,-279 432.18,-275.295 443.347,-272.13 454.05,-269.506"/>
<polygon fill="midnightblue" stroke="midnightblue" points="347.897,-310.457 340.947,-318.454 351.367,-316.536 347.897,-310.457"/>
</g>
<!-- Node9 -->
<g id="node10" class="node"><title>Node9</title>
<g id="a_node10"><a xlink:href="class_ogre_1_1_d3_d11_render_texture.html" target="_top" xlink:title="RenderTexture implementation for D3D11. ">
<polygon fill="none" stroke="black" points="434.5,-212.5 434.5,-231.5 573.5,-231.5 573.5,-212.5 434.5,-212.5"/>
<text text-anchor="middle" x="504" y="-219.5" font-family="Helvetica,sans-Serif" font-size="10.00">Ogre::D3D11RenderTexture</text>
</a>
</g>
</g>
<!-- Node8&#45;&gt;Node9 -->
<g id="edge9" class="edge"><title>Node8&#45;&gt;Node9</title>
<path fill="none" stroke="midnightblue" d="M379.716,-195.681C404.959,-201.07 434.545,-207.386 458.406,-212.48"/>
<polygon fill="midnightblue" stroke="midnightblue" points="380.427,-192.254 369.917,-193.589 378.966,-199.1 380.427,-192.254"/>
</g>
<!-- Node10 -->
<g id="node11" class="node"><title>Node10</title>
<g id="a_node11"><a xlink:href="class_ogre_1_1_d3_d9_render_texture.html" target="_top" xlink:title="RenderTexture implementation for D3D9. ">
<polygon fill="none" stroke="black" points="437,-174.5 437,-193.5 571,-193.5 571,-174.5 437,-174.5"/>
<text text-anchor="middle" x="504" y="-181.5" font-family="Helvetica,sans-Serif" font-size="10.00">Ogre::D3D9RenderTexture</text>
</a>
</g>
</g>
<!-- Node8&#45;&gt;Node10 -->
<g id="edge10" class="edge"><title>Node8&#45;&gt;Node10</title>
<path fill="none" stroke="midnightblue" d="M388.498,-184C404.142,-184 420.933,-184 436.706,-184"/>
<polygon fill="midnightblue" stroke="midnightblue" points="388.406,-180.5 378.406,-184 388.406,-187.5 388.406,-180.5"/>
</g>
<!-- Node11 -->
<g id="node12" class="node"><title>Node11</title>
<g id="a_node12"><a xlink:href="class_ogre_1_1_g_l_render_texture.html" target="_top" xlink:title="Base class for GL Render Textures. ">
<polygon fill="none" stroke="black" points="443.5,-136.5 443.5,-155.5 564.5,-155.5 564.5,-136.5 443.5,-136.5"/>
<text text-anchor="middle" x="504" y="-143.5" font-family="Helvetica,sans-Serif" font-size="10.00">Ogre::GLRenderTexture</text>
</a>
</g>
</g>
<!-- Node8&#45;&gt;Node11 -->
<g id="edge11" class="edge"><title>Node8&#45;&gt;Node11</title>
<path fill="none" stroke="midnightblue" d="M379.716,-172.319C404.959,-166.93 434.545,-160.614 458.406,-155.52"/>
<polygon fill="midnightblue" stroke="midnightblue" points="378.966,-168.9 369.917,-174.411 380.427,-175.746 378.966,-168.9"/>
</g>
<!-- Node12 -->
<g id="node13" class="node"><title>Node12</title>
<g id="a_node13"><a xlink:href="class_ogre_1_1_g_l3_plus_f_b_o_render_texture.html" target="_top" xlink:title="RenderTexture for GL FBO. ">
<polygon fill="none" stroke="black" points="622,-231.5 622,-250.5 788,-250.5 788,-231.5 622,-231.5"/>
<text text-anchor="middle" x="705" y="-238.5" font-family="Helvetica,sans-Serif" font-size="10.00">Ogre::GL3PlusFBORenderTexture</text>
</a>
</g>
</g>
<!-- Node11&#45;&gt;Node12 -->
<g id="edge12" class="edge"><title>Node11&#45;&gt;Node12</title>
<path fill="none" stroke="midnightblue" d="M574.185,-158.17C578.346,-160.123 582.327,-162.384 586,-165 610.405,-182.384 597.572,-204.649 622,-222 627.48,-225.893 633.639,-229 640.055,-231.478"/>
<polygon fill="midnightblue" stroke="midnightblue" points="575.424,-154.896 564.842,-154.368 572.785,-161.379 575.424,-154.896"/>
</g>
<!-- Node13 -->
<g id="node14" class="node"><title>Node13</title>
<g id="a_node14"><a xlink:href="class_ogre_1_1_g_l_copying_render_texture.html" target="_top" xlink:title="Ogre::GLCopyingRenderTexture">
<polygon fill="none" stroke="black" points="626.5,-193.5 626.5,-212.5 783.5,-212.5 783.5,-193.5 626.5,-193.5"/>
<text text-anchor="middle" x="705" y="-200.5" font-family="Helvetica,sans-Serif" font-size="10.00">Ogre::GLCopyingRenderTexture</text>
</a>
</g>
</g>
<!-- Node11&#45;&gt;Node13 -->
<g id="edge13" class="edge"><title>Node11&#45;&gt;Node13</title>
<path fill="none" stroke="midnightblue" d="M564.716,-158.17C571.97,-160.185 579.21,-162.46 586,-165 602.945,-171.34 605.047,-177.683 622,-184 631.996,-187.725 642.959,-190.87 653.525,-193.464"/>
<polygon fill="midnightblue" stroke="midnightblue" points="565.419,-154.736 554.858,-155.582 563.641,-161.507 565.419,-154.736"/>
</g>
<!-- Node14 -->
<g id="node15" class="node"><title>Node14</title>
<g id="a_node15"><a xlink:href="class_ogre_1_1_g_l_e_s2_f_b_o_render_texture.html" target="_top" xlink:title="RenderTexture for GL ES 2 FBO. ">
<polygon fill="none" stroke="black" points="625,-155.5 625,-174.5 785,-174.5 785,-155.5 625,-155.5"/>
<text text-anchor="middle" x="705" y="-162.5" font-family="Helvetica,sans-Serif" font-size="10.00">Ogre::GLES2FBORenderTexture</text>
</a>
</g>
</g>
<!-- Node11&#45;&gt;Node14 -->
<g id="edge14" class="edge"><title>Node11&#45;&gt;Node14</title>
<path fill="none" stroke="midnightblue" d="M575.091,-152.692C591.172,-154.227 608.378,-155.87 624.812,-157.439"/>
<polygon fill="midnightblue" stroke="midnightblue" points="574.994,-149.167 564.707,-151.701 574.329,-156.135 574.994,-149.167"/>
</g>
<!-- Node15 -->
<g id="node16" class="node"><title>Node15</title>
<g id="a_node16"><a xlink:href="class_ogre_1_1_g_l_f_b_o_render_texture.html" target="_top" xlink:title="RenderTexture for GL FBO. ">
<polygon fill="none" stroke="black" points="634.5,-117.5 634.5,-136.5 775.5,-136.5 775.5,-117.5 634.5,-117.5"/>
<text text-anchor="middle" x="705" y="-124.5" font-family="Helvetica,sans-Serif" font-size="10.00">Ogre::GLFBORenderTexture</text>
</a>
</g>
</g>
<!-- Node11&#45;&gt;Node15 -->
<g id="edge15" class="edge"><title>Node11&#45;&gt;Node15</title>
<path fill="none" stroke="midnightblue" d="M574.895,-139.327C594.119,-137.491 614.964,-135.501 634.183,-133.666"/>
<polygon fill="midnightblue" stroke="midnightblue" points="574.329,-135.865 564.707,-140.299 574.994,-142.833 574.329,-135.865"/>
</g>
<!-- Node16 -->
<g id="node17" class="node"><title>Node16</title>
<g id="a_node17"><a xlink:href="class_ogre_1_1_g_l_p_b_render_texture.html" target="_top" xlink:title="Ogre::GLPBRenderTexture">
<polygon fill="none" stroke="black" points="638,-79.5 638,-98.5 772,-98.5 772,-79.5 638,-79.5"/>
<text text-anchor="middle" x="705" y="-86.5" font-family="Helvetica,sans-Serif" font-size="10.00">Ogre::GLPBRenderTexture</text>
</a>
</g>
</g>
<!-- Node11&#45;&gt;Node16 -->
<g id="edge16" class="edge"><title>Node11&#45;&gt;Node16</title>
<path fill="none" stroke="midnightblue" d="M541.882,-133.117C564.792,-125.341 594.932,-115.516 622,-108 634.109,-104.637 647.337,-101.39 659.564,-98.5595"/>
<polygon fill="midnightblue" stroke="midnightblue" points="540.55,-129.874 532.22,-136.421 542.814,-136.497 540.55,-129.874"/>
</g>
<!-- Node18 -->
<g id="node19" class="node"><title>Node18</title>
<g id="a_node19"><a xlink:href="class_ogre_1_1_d3_d11_render_window_base.html" target="_top" xlink:title="Ogre::D3D11RenderWindowBase">
<polygon fill="none" stroke="black" points="422,-76.5 422,-95.5 586,-95.5 586,-76.5 422,-76.5"/>
<text text-anchor="middle" x="504" y="-83.5" font-family="Helvetica,sans-Serif" font-size="10.00">Ogre::D3D11RenderWindowBase</text>
</a>
</g>
</g>
<!-- Node17&#45;&gt;Node18 -->
<g id="edge18" class="edge"><title>Node17&#45;&gt;Node18</title>
<path fill="none" stroke="midnightblue" d="M389.627,-73.8984C400.066,-75.0126 410.99,-76.1787 421.761,-77.3284"/>
<polygon fill="midnightblue" stroke="midnightblue" points="389.688,-70.3851 379.373,-72.8039 388.945,-77.3456 389.688,-70.3851"/>
</g>
<!-- Node20 -->
<g id="node21" class="node"><title>Node20</title>
<g id="a_node21"><a xlink:href="class_ogre_1_1_d3_d9_render_window.html" target="_top" xlink:title="Ogre::D3D9RenderWindow">
<polygon fill="none" stroke="black" points="436,-38.5 436,-57.5 572,-57.5 572,-38.5 436,-38.5"/>
<text text-anchor="middle" x="504" y="-45.5" font-family="Helvetica,sans-Serif" font-size="10.00">Ogre::D3D9RenderWindow</text>
</a>
</g>
</g>
<!-- Node17&#45;&gt;Node20 -->
<g id="edge20" class="edge"><title>Node17&#45;&gt;Node20</title>
<path fill="none" stroke="midnightblue" d="M389.587,-60.1059C404.606,-58.5027 420.631,-56.7922 435.761,-55.1772"/>
<polygon fill="midnightblue" stroke="midnightblue" points="388.945,-56.6544 379.373,-61.1961 389.688,-63.6149 388.945,-56.6544"/>
</g>
<!-- Node21 -->
<g id="node22" class="node"><title>Node21</title>
<g id="a_node22"><a xlink:href="class_ogre_1_1_na_cl_window.html" target="_top" xlink:title="Ogre::NaClWindow">
<polygon fill="none" stroke="black" points="453.5,-0.5 453.5,-19.5 554.5,-19.5 554.5,-0.5 453.5,-0.5"/>
<text text-anchor="middle" x="504" y="-7.5" font-family="Helvetica,sans-Serif" font-size="10.00">Ogre::NaClWindow</text>
</a>
</g>
</g>
<!-- Node17&#45;&gt;Node21 -->
<g id="edge21" class="edge"><title>Node17&#45;&gt;Node21</title>
<path fill="none" stroke="midnightblue" d="M355.923,-53.5781C374.778,-45.7239 399.501,-36.0063 422,-29 433.309,-25.4784 445.683,-22.2634 457.281,-19.52"/>
<polygon fill="midnightblue" stroke="midnightblue" points="354.496,-50.3815 346.641,-57.4913 357.215,-56.8317 354.496,-50.3815"/>
</g>
<!-- Node19 -->
<g id="node20" class="node"><title>Node19</title>
<g id="a_node20"><a xlink:href="class_ogre_1_1_d3_d11_render_window_swap_chain_based.html" target="_top" xlink:title="Ogre::D3D11RenderWindowSwap\lChainBased">
<polygon fill="none" stroke="black" points="622,-30 622,-60 788,-60 788,-30 622,-30"/>
<text text-anchor="start" x="630" y="-48" font-family="Helvetica,sans-Serif" font-size="10.00">Ogre::D3D11RenderWindowSwap</text>
<text text-anchor="middle" x="705" y="-37" font-family="Helvetica,sans-Serif" font-size="10.00">ChainBased</text>
</a>
</g>
</g>
<!-- Node18&#45;&gt;Node19 -->
<g id="edge19" class="edge"><title>Node18&#45;&gt;Node19</title>
<path fill="none" stroke="midnightblue" d="M561.155,-74.4305C582.785,-69.9739 607.813,-64.8175 630.818,-60.0777"/>
<polygon fill="midnightblue" stroke="midnightblue" points="560.243,-71.0447 551.155,-76.4907 561.655,-77.9007 560.243,-71.0447"/>
</g>
</g>
</svg>
