<?xml version="1.0" encoding="UTF-8" standalone="no"?>
<!DOCTYPE svg PUBLIC "-//W3C//DTD SVG 1.1//EN"
 "http://www.w3.org/Graphics/SVG/1.1/DTD/svg11.dtd">
<!-- Generated by graphviz version 2.38.0 (20140413.2041)
 -->
<!-- Title: Ogre::HardwareVertexBuffer Pages: 1 -->
<svg width="586pt" height="274pt"
 viewBox="0.00 0.00 586.00 273.50" xmlns="http://www.w3.org/2000/svg" xmlns:xlink="http://www.w3.org/1999/xlink">
<g id="graph0" class="graph" transform="scale(1 1) rotate(0) translate(4 269.5)">
<title>Ogre::HardwareVertexBuffer</title>
<!-- Node0 -->
<g id="node1" class="node"><title>Node0</title>
<polygon fill="#bfbfbf" stroke="black" points="249,-117.5 249,-136.5 389,-136.5 389,-117.5 249,-117.5"/>
<text text-anchor="middle" x="319" y="-124.5" font-family="Helvetica,sans-Serif" font-size="10.00">Ogre::HardwareVertexBuffer</text>
</g>
<!-- Node3 -->
<g id="node4" class="node"><title>Node3</title>
<g id="a_node4"><a xlink:href="class_ogre_1_1_d3_d11_hardware_vertex_buffer.html" target="_top" xlink:title="Specialisation of HardwareVertexBuffer for D3D11. ">
<polygon fill="none" stroke="black" points="429,-235 429,-265 574,-265 574,-235 429,-235"/>
<text text-anchor="start" x="437" y="-253" font-family="Helvetica,sans-Serif" font-size="10.00">Ogre::D3D11HardwareVertex</text>
<text text-anchor="middle" x="501.5" y="-242" font-family="Helvetica,sans-Serif" font-size="10.00">Buffer</text>
</a>
</g>
</g>
<!-- Node0&#45;&gt;Node3 -->
<g id="edge3" class="edge"><title>Node0&#45;&gt;Node3</title>
<path fill="none" stroke="midnightblue" d="M334.165,-144.528C352.813,-166.521 387.637,-204.014 425,-226 430.69,-229.348 436.9,-232.285 443.236,-234.846"/>
<polygon fill="midnightblue" stroke="midnightblue" points="336.709,-142.114 327.625,-136.661 331.326,-146.589 336.709,-142.114"/>
</g>
<!-- Node4 -->
<g id="node5" class="node"><title>Node4</title>
<g id="a_node5"><a xlink:href="class_ogre_1_1_d3_d9_hardware_vertex_buffer.html" target="_top" xlink:title="Specialisation of HardwareVertexBuffer for D3D9. ">
<polygon fill="none" stroke="black" points="431.5,-186 431.5,-216 571.5,-216 571.5,-186 431.5,-186"/>
<text text-anchor="start" x="439.5" y="-204" font-family="Helvetica,sans-Serif" font-size="10.00">Ogre::D3D9HardwareVertex</text>
<text text-anchor="middle" x="501.5" y="-193" font-family="Helvetica,sans-Serif" font-size="10.00">Buffer</text>
</a>
</g>
</g>
<!-- Node0&#45;&gt;Node4 -->
<g id="edge4" class="edge"><title>Node0&#45;&gt;Node4</title>
<path fill="none" stroke="midnightblue" d="M347.2,-141.215C368.135,-151.845 397.967,-166.325 425,-177 432.931,-180.132 441.449,-183.155 449.805,-185.937"/>
<polygon fill="midnightblue" stroke="midnightblue" points="348.745,-138.074 338.249,-136.63 345.553,-144.304 348.745,-138.074"/>
</g>
<!-- Node5 -->
<g id="node6" class="node"><title>Node5</title>
<g id="a_node6"><a xlink:href="class_ogre_1_1_default_hardware_vertex_buffer.html" target="_top" xlink:title="Specialisation of HardwareVertexBuffer for emulation. ">
<polygon fill="none" stroke="black" points="428.5,-137 428.5,-167 574.5,-167 574.5,-137 428.5,-137"/>
<text text-anchor="start" x="436.5" y="-155" font-family="Helvetica,sans-Serif" font-size="10.00">Ogre::DefaultHardwareVertex</text>
<text text-anchor="middle" x="501.5" y="-144" font-family="Helvetica,sans-Serif" font-size="10.00">Buffer</text>
</a>
</g>
</g>
<!-- Node0&#45;&gt;Node5 -->
<g id="edge5" class="edge"><title>Node0&#45;&gt;Node5</title>
<path fill="none" stroke="midnightblue" d="M398.877,-137.925C408.672,-139.281 418.65,-140.663 428.337,-142.005"/>
<polygon fill="midnightblue" stroke="midnightblue" points="399.14,-134.428 388.754,-136.523 398.179,-141.362 399.14,-134.428"/>
</g>
<!-- Node6 -->
<g id="node7" class="node"><title>Node6</title>
<g id="a_node7"><a xlink:href="class_ogre_1_1_g_l3_plus_hardware_vertex_buffer.html" target="_top" xlink:title="Specialisation of HardwareVertexBuffer for OpenGL. ">
<polygon fill="none" stroke="black" points="425.5,-88 425.5,-118 577.5,-118 577.5,-88 425.5,-88"/>
<text text-anchor="start" x="433.5" y="-106" font-family="Helvetica,sans-Serif" font-size="10.00">Ogre::GL3PlusHardwareVertex</text>
<text text-anchor="middle" x="501.5" y="-95" font-family="Helvetica,sans-Serif" font-size="10.00">Buffer</text>
</a>
</g>
</g>
<!-- Node0&#45;&gt;Node6 -->
<g id="edge6" class="edge"><title>Node0&#45;&gt;Node6</title>
<path fill="none" stroke="midnightblue" d="M399.108,-116.482C407.779,-115.329 416.59,-114.157 425.213,-113.01"/>
<polygon fill="midnightblue" stroke="midnightblue" points="398.463,-113.036 389.012,-117.824 399.386,-119.975 398.463,-113.036"/>
</g>
<!-- Node7 -->
<g id="node8" class="node"><title>Node7</title>
<g id="a_node8"><a xlink:href="class_ogre_1_1_g_l_e_s2_hardware_vertex_buffer.html" target="_top" xlink:title="Specialisation of HardwareVertexBuffer for OpenGL ES. ">
<polygon fill="none" stroke="black" points="428.5,-39 428.5,-69 574.5,-69 574.5,-39 428.5,-39"/>
<text text-anchor="start" x="436.5" y="-57" font-family="Helvetica,sans-Serif" font-size="10.00">Ogre::GLES2HardwareVertex</text>
<text text-anchor="middle" x="501.5" y="-46" font-family="Helvetica,sans-Serif" font-size="10.00">Buffer</text>
</a>
</g>
</g>
<!-- Node0&#45;&gt;Node7 -->
<g id="edge7" class="edge"><title>Node0&#45;&gt;Node7</title>
<path fill="none" stroke="midnightblue" d="M347.613,-112.921C368.545,-102.542 398.187,-88.4678 425,-78 432.944,-74.8988 441.468,-71.8921 449.826,-69.1159"/>
<polygon fill="midnightblue" stroke="midnightblue" points="346.028,-109.8 338.65,-117.403 349.159,-116.06 346.028,-109.8"/>
</g>
<!-- Node8 -->
<g id="node9" class="node"><title>Node8</title>
<g id="a_node9"><a xlink:href="class_ogre_1_1_g_l_hardware_vertex_buffer.html" target="_top" xlink:title="Specialisation of HardwareVertexBuffer for OpenGL. ">
<polygon fill="none" stroke="black" points="425,-0.5 425,-19.5 578,-19.5 578,-0.5 425,-0.5"/>
<text text-anchor="middle" x="501.5" y="-7.5" font-family="Helvetica,sans-Serif" font-size="10.00">Ogre::GLHardwareVertexBuffer</text>
</a>
</g>
</g>
<!-- Node0&#45;&gt;Node8 -->
<g id="edge8" class="edge"><title>Node0&#45;&gt;Node8</title>
<path fill="none" stroke="midnightblue" d="M333.998,-109.294C352.471,-87.1478 387.11,-49.6373 425,-29 432.122,-25.121 440.053,-22.0165 448.022,-19.5367"/>
<polygon fill="midnightblue" stroke="midnightblue" points="331.137,-107.265 327.527,-117.226 336.561,-111.69 331.137,-107.265"/>
</g>
<!-- Node1 -->
<g id="node2" class="node"><title>Node1</title>
<g id="a_node2"><a xlink:href="class_ogre_1_1_hardware_buffer.html" target="_top" xlink:title="Abstract class defining common features of hardware buffers. ">
<polygon fill="none" stroke="black" points="101,-117.5 101,-136.5 213,-136.5 213,-117.5 101,-117.5"/>
<text text-anchor="middle" x="157" y="-124.5" font-family="Helvetica,sans-Serif" font-size="10.00">Ogre::HardwareBuffer</text>
</a>
</g>
</g>
<!-- Node1&#45;&gt;Node0 -->
<g id="edge1" class="edge"><title>Node1&#45;&gt;Node0</title>
<path fill="none" stroke="midnightblue" d="M223.264,-127C231.742,-127 240.448,-127 248.985,-127"/>
<polygon fill="midnightblue" stroke="midnightblue" points="223.063,-123.5 213.063,-127 223.063,-130.5 223.063,-123.5"/>
</g>
<!-- Node2 -->
<g id="node3" class="node"><title>Node2</title>
<g id="a_node3"><a xlink:href="class_ogre_1_1_allocated_object.html" target="_top" xlink:title="Superclass for all objects that wish to use custom memory allocators when their new / delete operator...">
<polygon fill="none" stroke="black" points="0,-117.5 0,-136.5 65,-136.5 65,-117.5 0,-117.5"/>
<text text-anchor="middle" x="32.5" y="-124.5" font-family="Helvetica,sans-Serif" font-size="10.00">BufferAlloc</text>
</a>
</g>
</g>
<!-- Node2&#45;&gt;Node1 -->
<g id="edge2" class="edge"><title>Node2&#45;&gt;Node1</title>
<path fill="none" stroke="midnightblue" d="M75.1571,-127C83.4035,-127 92.1796,-127 100.795,-127"/>
<polygon fill="midnightblue" stroke="midnightblue" points="75.0468,-123.5 65.0468,-127 75.0468,-130.5 75.0468,-123.5"/>
</g>
</g>
</svg>
