<?xml version="1.0" encoding="UTF-8" standalone="no"?>
<!DOCTYPE svg PUBLIC "-//W3C//DTD SVG 1.1//EN"
 "http://www.w3.org/Graphics/SVG/1.1/DTD/svg11.dtd">
<!-- Generated by graphviz version 2.38.0 (20140413.2041)
 -->
<!-- Title: Ogre::ResourceManager Pages: 1 -->
<svg width="646pt" height="420pt"
 viewBox="0.00 0.00 646.00 420.00" xmlns="http://www.w3.org/2000/svg" xmlns:xlink="http://www.w3.org/1999/xlink">
<g id="graph0" class="graph" transform="scale(1 1) rotate(0) translate(4 416)">
<title>Ogre::ResourceManager</title>
<!-- Node0 -->
<g id="node1" class="node"><title>Node0</title>
<polygon fill="#bfbfbf" stroke="black" points="134,-234.5 134,-253.5 257,-253.5 257,-234.5 134,-234.5"/>
<text text-anchor="middle" x="195.5" y="-241.5" font-family="Helvetica,sans-Serif" font-size="10.00">Ogre::ResourceManager</text>
</g>
<!-- Node3 -->
<g id="node4" class="node"><title>Node3</title>
<g id="a_node4"><a xlink:href="class_ogre_1_1_bsp_resource_manager.html" target="_top" xlink:title="Manages the locating and loading of BSP&#45;based indoor levels. ">
<polygon fill="none" stroke="black" points="294,-392.5 294,-411.5 434,-411.5 434,-392.5 294,-392.5"/>
<text text-anchor="middle" x="364" y="-399.5" font-family="Helvetica,sans-Serif" font-size="10.00">Ogre::BspResourceManager</text>
</a>
</g>
</g>
<!-- Node0&#45;&gt;Node3 -->
<g id="edge3" class="edge"><title>Node0&#45;&gt;Node3</title>
<path fill="none" stroke="midnightblue" d="M204.565,-263.27C218.214,-293.489 248.768,-351.789 293,-383 298.453,-386.848 304.649,-389.917 311.045,-392.365"/>
<polygon fill="midnightblue" stroke="midnightblue" points="207.657,-261.606 200.447,-253.843 201.242,-264.408 207.657,-261.606"/>
</g>
<!-- Node4 -->
<g id="node5" class="node"><title>Node4</title>
<g id="a_node5"><a xlink:href="class_ogre_1_1_compositor_manager.html" target="_top" xlink:title="Class for managing Compositor settings for Ogre. ">
<polygon fill="none" stroke="black" points="298.5,-354.5 298.5,-373.5 429.5,-373.5 429.5,-354.5 298.5,-354.5"/>
<text text-anchor="middle" x="364" y="-361.5" font-family="Helvetica,sans-Serif" font-size="10.00">Ogre::CompositorManager</text>
</a>
</g>
</g>
<!-- Node0&#45;&gt;Node4 -->
<g id="edge4" class="edge"><title>Node0&#45;&gt;Node4</title>
<path fill="none" stroke="midnightblue" d="M208.941,-262.145C225.496,-284.903 256.911,-323.533 293,-345 299.494,-348.863 306.788,-351.958 314.152,-354.434"/>
<polygon fill="midnightblue" stroke="midnightblue" points="211.612,-259.861 202.971,-253.729 205.902,-263.911 211.612,-259.861"/>
</g>
<!-- Node5 -->
<g id="node6" class="node"><title>Node5</title>
<g id="a_node6"><a xlink:href="class_ogre_1_1_font_manager.html" target="_top" xlink:title="Manages Font resources, parsing .fontdef files and generally organising them. ">
<polygon fill="none" stroke="black" points="313.5,-316.5 313.5,-335.5 414.5,-335.5 414.5,-316.5 313.5,-316.5"/>
<text text-anchor="middle" x="364" y="-323.5" font-family="Helvetica,sans-Serif" font-size="10.00">Ogre::FontManager</text>
</a>
</g>
</g>
<!-- Node0&#45;&gt;Node5 -->
<g id="edge5" class="edge"><title>Node0&#45;&gt;Node5</title>
<path fill="none" stroke="midnightblue" d="M216.669,-259.883C235.477,-274.013 264.791,-294.345 293,-307 301.272,-310.711 310.429,-313.838 319.317,-316.415"/>
<polygon fill="midnightblue" stroke="midnightblue" points="218.641,-256.984 208.57,-253.691 214.389,-262.545 218.641,-256.984"/>
</g>
<!-- Node6 -->
<g id="node7" class="node"><title>Node6</title>
<g id="a_node7"><a xlink:href="class_ogre_1_1_gpu_program_manager.html" target="_top" xlink:title="Ogre::GpuProgramManager">
<polygon fill="none" stroke="black" points="296,-278.5 296,-297.5 432,-297.5 432,-278.5 296,-278.5"/>
<text text-anchor="middle" x="364" y="-285.5" font-family="Helvetica,sans-Serif" font-size="10.00">Ogre::GpuProgramManager</text>
</a>
</g>
</g>
<!-- Node0&#45;&gt;Node6 -->
<g id="edge6" class="edge"><title>Node0&#45;&gt;Node6</title>
<path fill="none" stroke="midnightblue" d="M242.494,-256.155C269.137,-263.195 302.194,-271.931 326.942,-278.471"/>
<polygon fill="midnightblue" stroke="midnightblue" points="243.19,-252.719 232.628,-253.547 241.402,-259.486 243.19,-252.719"/>
</g>
<!-- Node12 -->
<g id="node13" class="node"><title>Node12</title>
<g id="a_node13"><a xlink:href="class_ogre_1_1_high_level_gpu_program_manager.html" target="_top" xlink:title="This ResourceManager manages high&#45;level vertex and fragment programs. ">
<polygon fill="none" stroke="black" points="293,-229 293,-259 435,-259 435,-229 293,-229"/>
<text text-anchor="start" x="301" y="-247" font-family="Helvetica,sans-Serif" font-size="10.00">Ogre::HighLevelGpuProgram</text>
<text text-anchor="middle" x="364" y="-236" font-family="Helvetica,sans-Serif" font-size="10.00">Manager</text>
</a>
</g>
</g>
<!-- Node0&#45;&gt;Node12 -->
<g id="edge12" class="edge"><title>Node0&#45;&gt;Node12</title>
<path fill="none" stroke="midnightblue" d="M267.296,-244C275.762,-244 284.403,-244 292.859,-244"/>
<polygon fill="midnightblue" stroke="midnightblue" points="267.081,-240.5 257.081,-244 267.081,-247.5 267.081,-240.5"/>
</g>
<!-- Node13 -->
<g id="node14" class="node"><title>Node13</title>
<g id="a_node14"><a xlink:href="class_ogre_1_1_material_manager.html" target="_top" xlink:title="Class for managing Material settings for Ogre. ">
<polygon fill="none" stroke="black" points="306,-190.5 306,-209.5 422,-209.5 422,-190.5 306,-190.5"/>
<text text-anchor="middle" x="364" y="-197.5" font-family="Helvetica,sans-Serif" font-size="10.00">Ogre::MaterialManager</text>
</a>
</g>
</g>
<!-- Node0&#45;&gt;Node13 -->
<g id="edge13" class="edge"><title>Node0&#45;&gt;Node13</title>
<path fill="none" stroke="midnightblue" d="M242.494,-231.845C269.137,-224.805 302.194,-216.069 326.942,-209.529"/>
<polygon fill="midnightblue" stroke="midnightblue" points="241.402,-228.514 232.628,-234.453 243.19,-235.281 241.402,-228.514"/>
</g>
<!-- Node14 -->
<g id="node15" class="node"><title>Node14</title>
<g id="a_node15"><a xlink:href="class_ogre_1_1_mesh_manager.html" target="_top" xlink:title="Handles the management of mesh resources. ">
<polygon fill="none" stroke="black" points="311.5,-152.5 311.5,-171.5 416.5,-171.5 416.5,-152.5 311.5,-152.5"/>
<text text-anchor="middle" x="364" y="-159.5" font-family="Helvetica,sans-Serif" font-size="10.00">Ogre::MeshManager</text>
</a>
</g>
</g>
<!-- Node0&#45;&gt;Node14 -->
<g id="edge14" class="edge"><title>Node0&#45;&gt;Node14</title>
<path fill="none" stroke="midnightblue" d="M216.669,-228.117C235.477,-213.987 264.791,-193.655 293,-181 301.272,-177.289 310.429,-174.162 319.317,-171.585"/>
<polygon fill="midnightblue" stroke="midnightblue" points="214.389,-225.455 208.57,-234.309 218.641,-231.016 214.389,-225.455"/>
</g>
<!-- Node15 -->
<g id="node16" class="node"><title>Node15</title>
<g id="a_node16"><a xlink:href="class_ogre_1_1_skeleton_manager.html" target="_top" xlink:title="Handles the management of skeleton resources. ">
<polygon fill="none" stroke="black" points="304.5,-114.5 304.5,-133.5 423.5,-133.5 423.5,-114.5 304.5,-114.5"/>
<text text-anchor="middle" x="364" y="-121.5" font-family="Helvetica,sans-Serif" font-size="10.00">Ogre::SkeletonManager</text>
</a>
</g>
</g>
<!-- Node0&#45;&gt;Node15 -->
<g id="edge15" class="edge"><title>Node0&#45;&gt;Node15</title>
<path fill="none" stroke="midnightblue" d="M208.941,-225.855C225.496,-203.097 256.911,-164.467 293,-143 299.494,-139.137 306.788,-136.042 314.152,-133.566"/>
<polygon fill="midnightblue" stroke="midnightblue" points="205.902,-224.089 202.971,-234.271 211.612,-228.139 205.902,-224.089"/>
</g>
<!-- Node16 -->
<g id="node17" class="node"><title>Node16</title>
<g id="a_node17"><a xlink:href="class_ogre_1_1_texture_manager.html" target="_top" xlink:title="Class for loading &amp; managing textures. ">
<polygon fill="none" stroke="black" points="307,-76.5 307,-95.5 421,-95.5 421,-76.5 307,-76.5"/>
<text text-anchor="middle" x="364" y="-83.5" font-family="Helvetica,sans-Serif" font-size="10.00">Ogre::TextureManager</text>
</a>
</g>
</g>
<!-- Node0&#45;&gt;Node16 -->
<g id="edge16" class="edge"><title>Node0&#45;&gt;Node16</title>
<path fill="none" stroke="midnightblue" d="M204.565,-224.73C218.214,-194.511 248.768,-136.211 293,-105 298.453,-101.152 304.649,-98.0831 311.045,-95.6355"/>
<polygon fill="midnightblue" stroke="midnightblue" points="201.242,-223.592 200.447,-234.157 207.657,-226.394 201.242,-223.592"/>
</g>
<!-- Node1 -->
<g id="node2" class="node"><title>Node1</title>
<g id="a_node2"><a xlink:href="class_ogre_1_1_script_loader.html" target="_top" xlink:title="Abstract class defining the interface used by classes which wish to perform script loading to define ...">
<polygon fill="none" stroke="black" points="0,-253.5 0,-272.5 98,-272.5 98,-253.5 0,-253.5"/>
<text text-anchor="middle" x="49" y="-260.5" font-family="Helvetica,sans-Serif" font-size="10.00">Ogre::ScriptLoader</text>
</a>
</g>
</g>
<!-- Node1&#45;&gt;Node0 -->
<g id="edge1" class="edge"><title>Node1&#45;&gt;Node0</title>
<path fill="none" stroke="midnightblue" d="M108.282,-255.337C116.751,-254.223 125.486,-253.075 133.997,-251.955"/>
<polygon fill="midnightblue" stroke="midnightblue" points="107.575,-251.899 98.1164,-256.673 108.487,-258.84 107.575,-251.899"/>
</g>
<!-- Node2 -->
<g id="node3" class="node"><title>Node2</title>
<g id="a_node3"><a xlink:href="class_ogre_1_1_allocated_object.html" target="_top" xlink:title="Superclass for all objects that wish to use custom memory allocators when their new / delete operator...">
<polygon fill="none" stroke="black" points="9,-215.5 9,-234.5 89,-234.5 89,-215.5 9,-215.5"/>
<text text-anchor="middle" x="49" y="-222.5" font-family="Helvetica,sans-Serif" font-size="10.00">ResourceAlloc</text>
</a>
</g>
</g>
<!-- Node2&#45;&gt;Node0 -->
<g id="edge2" class="edge"><title>Node2&#45;&gt;Node0</title>
<path fill="none" stroke="midnightblue" d="M99.1042,-231.457C110.285,-232.927 122.293,-234.506 133.89,-236.031"/>
<polygon fill="midnightblue" stroke="midnightblue" points="99.4748,-227.975 89.1038,-230.142 98.5621,-234.916 99.4748,-227.975"/>
</g>
<!-- Node7 -->
<g id="node8" class="node"><title>Node7</title>
<g id="a_node8"><a xlink:href="class_ogre_1_1_d3_d11_gpu_program_manager.html" target="_top" xlink:title="Ogre::D3D11GpuProgramManager">
<polygon fill="none" stroke="black" points="471,-354.5 471,-373.5 638,-373.5 638,-354.5 471,-354.5"/>
<text text-anchor="middle" x="554.5" y="-361.5" font-family="Helvetica,sans-Serif" font-size="10.00">Ogre::D3D11GpuProgramManager</text>
</a>
</g>
</g>
<!-- Node6&#45;&gt;Node7 -->
<g id="edge7" class="edge"><title>Node6&#45;&gt;Node7</title>
<path fill="none" stroke="midnightblue" d="M423.422,-301.166C427.449,-302.884 431.352,-304.82 435,-307 454.969,-318.936 450.804,-333.453 471,-345 477.763,-348.866 485.261,-351.946 492.901,-354.4"/>
<polygon fill="midnightblue" stroke="midnightblue" points="424.453,-297.814 413.862,-297.541 421.972,-304.359 424.453,-297.814"/>
</g>
<!-- Node8 -->
<g id="node9" class="node"><title>Node8</title>
<g id="a_node9"><a xlink:href="class_ogre_1_1_d3_d9_gpu_program_manager.html" target="_top" xlink:title="Ogre::D3D9GpuProgramManager">
<polygon fill="none" stroke="black" points="474,-316.5 474,-335.5 635,-335.5 635,-316.5 474,-316.5"/>
<text text-anchor="middle" x="554.5" y="-323.5" font-family="Helvetica,sans-Serif" font-size="10.00">Ogre::D3D9GpuProgramManager</text>
</a>
</g>
</g>
<!-- Node6&#45;&gt;Node8 -->
<g id="edge8" class="edge"><title>Node6&#45;&gt;Node8</title>
<path fill="none" stroke="midnightblue" d="M422.589,-299.61C449.398,-305.014 480.895,-311.364 506.276,-316.48"/>
<polygon fill="midnightblue" stroke="midnightblue" points="423.061,-296.134 412.567,-297.589 421.678,-302.996 423.061,-296.134"/>
</g>
<!-- Node9 -->
<g id="node10" class="node"><title>Node9</title>
<g id="a_node10"><a xlink:href="class_ogre_1_1_g_l_e_s2_gpu_program_manager.html" target="_top" xlink:title="Ogre::GLES2GpuProgramManager">
<polygon fill="none" stroke="black" points="471,-278.5 471,-297.5 638,-297.5 638,-278.5 471,-278.5"/>
<text text-anchor="middle" x="554.5" y="-285.5" font-family="Helvetica,sans-Serif" font-size="10.00">Ogre::GLES2GpuProgramManager</text>
</a>
</g>
</g>
<!-- Node6&#45;&gt;Node9 -->
<g id="edge9" class="edge"><title>Node6&#45;&gt;Node9</title>
<path fill="none" stroke="midnightblue" d="M442.324,-288C451.704,-288 461.316,-288 470.771,-288"/>
<polygon fill="midnightblue" stroke="midnightblue" points="442.255,-284.5 432.254,-288 442.254,-291.5 442.255,-284.5"/>
</g>
<!-- Node10 -->
<g id="node11" class="node"><title>Node10</title>
<g id="a_node11"><a xlink:href="class_ogre_1_1_g_l_gpu_program_manager.html" target="_top" xlink:title="Ogre::GLGpuProgramManager">
<polygon fill="none" stroke="black" points="480,-240.5 480,-259.5 629,-259.5 629,-240.5 480,-240.5"/>
<text text-anchor="middle" x="554.5" y="-247.5" font-family="Helvetica,sans-Serif" font-size="10.00">Ogre::GLGpuProgramManager</text>
</a>
</g>
</g>
<!-- Node6&#45;&gt;Node10 -->
<g id="edge10" class="edge"><title>Node6&#45;&gt;Node10</title>
<path fill="none" stroke="midnightblue" d="M422.589,-276.39C449.398,-270.986 480.895,-264.636 506.276,-259.52"/>
<polygon fill="midnightblue" stroke="midnightblue" points="421.678,-273.004 412.567,-278.411 423.061,-279.866 421.678,-273.004"/>
</g>
<!-- Node11 -->
<g id="node12" class="node"><title>Node11</title>
<g id="a_node12"><a xlink:href="class_ogre_1_1_g_l_s_l_shader_manager.html" target="_top" xlink:title="Ogre::GLSLShaderManager">
<polygon fill="none" stroke="black" points="486,-202.5 486,-221.5 623,-221.5 623,-202.5 486,-202.5"/>
<text text-anchor="middle" x="554.5" y="-209.5" font-family="Helvetica,sans-Serif" font-size="10.00">Ogre::GLSLShaderManager</text>
</a>
</g>
</g>
<!-- Node6&#45;&gt;Node11 -->
<g id="edge11" class="edge"><title>Node6&#45;&gt;Node11</title>
<path fill="none" stroke="midnightblue" d="M420.839,-274.975C425.773,-272.959 430.571,-270.647 435,-268 454.694,-256.229 451.006,-242.255 471,-231 477.916,-227.107 485.586,-224.01 493.382,-221.548"/>
<polygon fill="midnightblue" stroke="midnightblue" points="419.422,-271.766 411.24,-278.496 421.833,-278.338 419.422,-271.766"/>
</g>
<!-- Node17 -->
<g id="node18" class="node"><title>Node17</title>
<g id="a_node18"><a xlink:href="class_ogre_1_1_d3_d11_texture_manager.html" target="_top" xlink:title="Ogre::D3D11TextureManager">
<polygon fill="none" stroke="black" points="482,-152.5 482,-171.5 627,-171.5 627,-152.5 482,-152.5"/>
<text text-anchor="middle" x="554.5" y="-159.5" font-family="Helvetica,sans-Serif" font-size="10.00">Ogre::D3D11TextureManager</text>
</a>
</g>
</g>
<!-- Node16&#45;&gt;Node17 -->
<g id="edge17" class="edge"><title>Node16&#45;&gt;Node17</title>
<path fill="none" stroke="midnightblue" d="M423.422,-99.1661C427.449,-100.884 431.352,-102.82 435,-105 454.969,-116.936 450.804,-131.453 471,-143 477.763,-146.866 485.261,-149.946 492.901,-152.4"/>
<polygon fill="midnightblue" stroke="midnightblue" points="424.453,-95.814 413.862,-95.5414 421.972,-102.359 424.453,-95.814"/>
</g>
<!-- Node18 -->
<g id="node19" class="node"><title>Node18</title>
<g id="a_node19"><a xlink:href="class_ogre_1_1_d3_d9_texture_manager.html" target="_top" xlink:title="Ogre::D3D9TextureManager">
<polygon fill="none" stroke="black" points="484.5,-114.5 484.5,-133.5 624.5,-133.5 624.5,-114.5 484.5,-114.5"/>
<text text-anchor="middle" x="554.5" y="-121.5" font-family="Helvetica,sans-Serif" font-size="10.00">Ogre::D3D9TextureManager</text>
</a>
</g>
</g>
<!-- Node16&#45;&gt;Node18 -->
<g id="edge18" class="edge"><title>Node16&#45;&gt;Node18</title>
<path fill="none" stroke="midnightblue" d="M422.589,-97.6095C449.398,-103.014 480.895,-109.364 506.276,-114.48"/>
<polygon fill="midnightblue" stroke="midnightblue" points="423.061,-94.1343 412.567,-95.589 421.678,-100.996 423.061,-94.1343"/>
</g>
<!-- Node19 -->
<g id="node20" class="node"><title>Node19</title>
<g id="a_node20"><a xlink:href="class_ogre_1_1_g_l3_plus_texture_manager.html" target="_top" xlink:title="GL3Plus&#45;specific implementation of a TextureManager. ">
<polygon fill="none" stroke="black" points="478.5,-76.5 478.5,-95.5 630.5,-95.5 630.5,-76.5 478.5,-76.5"/>
<text text-anchor="middle" x="554.5" y="-83.5" font-family="Helvetica,sans-Serif" font-size="10.00">Ogre::GL3PlusTextureManager</text>
</a>
</g>
</g>
<!-- Node16&#45;&gt;Node19 -->
<g id="edge19" class="edge"><title>Node16&#45;&gt;Node19</title>
<path fill="none" stroke="midnightblue" d="M431.394,-86C446.618,-86 462.909,-86 478.469,-86"/>
<polygon fill="midnightblue" stroke="midnightblue" points="431.046,-82.5001 421.046,-86 431.046,-89.5001 431.046,-82.5001"/>
</g>
<!-- Node20 -->
<g id="node21" class="node"><title>Node20</title>
<g id="a_node21"><a xlink:href="class_ogre_1_1_g_l_e_s2_texture_manager.html" target="_top" xlink:title="GL ES&#45;specific implementation of a TextureManager. ">
<polygon fill="none" stroke="black" points="481.5,-38.5 481.5,-57.5 627.5,-57.5 627.5,-38.5 481.5,-38.5"/>
<text text-anchor="middle" x="554.5" y="-45.5" font-family="Helvetica,sans-Serif" font-size="10.00">Ogre::GLES2TextureManager</text>
</a>
</g>
</g>
<!-- Node16&#45;&gt;Node20 -->
<g id="edge20" class="edge"><title>Node16&#45;&gt;Node20</title>
<path fill="none" stroke="midnightblue" d="M422.589,-74.3905C449.398,-68.986 480.895,-62.6365 506.276,-57.5201"/>
<polygon fill="midnightblue" stroke="midnightblue" points="421.678,-71.0038 412.567,-76.411 423.061,-77.8657 421.678,-71.0038"/>
</g>
<!-- Node21 -->
<g id="node22" class="node"><title>Node21</title>
<g id="a_node22"><a xlink:href="class_ogre_1_1_g_l_texture_manager.html" target="_top" xlink:title="GL&#45;specific implementation of a TextureManager. ">
<polygon fill="none" stroke="black" points="491,-0.5 491,-19.5 618,-19.5 618,-0.5 491,-0.5"/>
<text text-anchor="middle" x="554.5" y="-7.5" font-family="Helvetica,sans-Serif" font-size="10.00">Ogre::GLTextureManager</text>
</a>
</g>
</g>
<!-- Node16&#45;&gt;Node21 -->
<g id="edge21" class="edge"><title>Node16&#45;&gt;Node21</title>
<path fill="none" stroke="midnightblue" d="M388.369,-71.0704C409.294,-58.2865 441.188,-40.2168 471,-29 480.905,-25.2734 491.764,-22.1401 502.257,-19.5611"/>
<polygon fill="midnightblue" stroke="midnightblue" points="386.495,-68.1139 379.842,-76.3592 390.185,-74.0625 386.495,-68.1139"/>
</g>
</g>
</svg>
