<?xml version="1.0" encoding="UTF-8" standalone="no"?>
<!DOCTYPE svg PUBLIC "-//W3C//DTD SVG 1.1//EN"
 "http://www.w3.org/Graphics/SVG/1.1/DTD/svg11.dtd">
<!-- Generated by graphviz version 2.38.0 (20140413.2041)
 -->
<!-- Title: Ogre::DefaultSphereSceneQuery Pages: 1 -->
<svg width="333pt" height="319pt"
 viewBox="0.00 0.00 332.50 319.00" xmlns="http://www.w3.org/2000/svg" xmlns:xlink="http://www.w3.org/1999/xlink">
<g id="graph0" class="graph" transform="scale(1 1) rotate(0) translate(4 315)">
<title>Ogre::DefaultSphereSceneQuery</title>
<!-- Node0 -->
<g id="node1" class="node"><title>Node0</title>
<polygon fill="#bfbfbf" stroke="black" points="97,-56.5 97,-86.5 231,-86.5 231,-56.5 97,-56.5"/>
<text text-anchor="start" x="105" y="-74.5" font-family="Helvetica,sans-Serif" font-size="10.00">Ogre::DefaultSphereScene</text>
<text text-anchor="middle" x="164" y="-63.5" font-family="Helvetica,sans-Serif" font-size="10.00">Query</text>
</g>
<!-- Node6 -->
<g id="node7" class="node"><title>Node6</title>
<g id="a_node7"><a xlink:href="class_ogre_1_1_octree_sphere_scene_query.html" target="_top" xlink:title="Octree implementation of SphereSceneQuery. ">
<polygon fill="none" stroke="black" points="0,-0.5 0,-19.5 158,-19.5 158,-0.5 0,-0.5"/>
<text text-anchor="middle" x="79" y="-7.5" font-family="Helvetica,sans-Serif" font-size="10.00">Ogre::OctreeSphereSceneQuery</text>
</a>
</g>
</g>
<!-- Node0&#45;&gt;Node6 -->
<g id="edge6" class="edge"><title>Node0&#45;&gt;Node6</title>
<path fill="none" stroke="midnightblue" d="M135.404,-50.483C120.43,-40.0013 102.869,-27.7081 91.3683,-19.6578"/>
<polygon fill="midnightblue" stroke="midnightblue" points="133.657,-53.532 143.856,-56.3993 137.671,-47.7973 133.657,-53.532"/>
</g>
<!-- Node7 -->
<g id="node8" class="node"><title>Node7</title>
<g id="a_node8"><a xlink:href="class_ogre_1_1_p_c_z_sphere_scene_query.html" target="_top" xlink:title="PCZ implementation of SphereSceneQuery. ">
<polygon fill="none" stroke="black" points="175.5,-0.5 175.5,-19.5 324.5,-19.5 324.5,-0.5 175.5,-0.5"/>
<text text-anchor="middle" x="250" y="-7.5" font-family="Helvetica,sans-Serif" font-size="10.00">Ogre::PCZSphereSceneQuery</text>
</a>
</g>
</g>
<!-- Node0&#45;&gt;Node7 -->
<g id="edge7" class="edge"><title>Node0&#45;&gt;Node7</title>
<path fill="none" stroke="midnightblue" d="M192.932,-50.483C208.082,-40.0013 225.85,-27.7081 237.486,-19.6578"/>
<polygon fill="midnightblue" stroke="midnightblue" points="190.613,-47.8314 184.381,-56.3993 194.596,-53.588 190.613,-47.8314"/>
</g>
<!-- Node1 -->
<g id="node2" class="node"><title>Node1</title>
<g id="a_node2"><a xlink:href="class_ogre_1_1_sphere_scene_query.html" target="_top" xlink:title="Specialises the SceneQuery class for querying within a sphere. ">
<polygon fill="none" stroke="black" points="100,-123.5 100,-142.5 228,-142.5 228,-123.5 100,-123.5"/>
<text text-anchor="middle" x="164" y="-130.5" font-family="Helvetica,sans-Serif" font-size="10.00">Ogre::SphereSceneQuery</text>
</a>
</g>
</g>
<!-- Node1&#45;&gt;Node0 -->
<g id="edge1" class="edge"><title>Node1&#45;&gt;Node0</title>
<path fill="none" stroke="midnightblue" d="M164,-113.235C164,-104.586 164,-94.4969 164,-86.523"/>
<polygon fill="midnightblue" stroke="midnightblue" points="160.5,-113.475 164,-123.475 167.5,-113.475 160.5,-113.475"/>
</g>
<!-- Node2 -->
<g id="node3" class="node"><title>Node2</title>
<g id="a_node3"><a xlink:href="class_ogre_1_1_region_scene_query.html" target="_top" xlink:title="Abstract class defining a query which returns single results from a region. ">
<polygon fill="none" stroke="black" points="100,-179.5 100,-198.5 228,-198.5 228,-179.5 100,-179.5"/>
<text text-anchor="middle" x="164" y="-186.5" font-family="Helvetica,sans-Serif" font-size="10.00">Ogre::RegionSceneQuery</text>
</a>
</g>
</g>
<!-- Node2&#45;&gt;Node1 -->
<g id="edge2" class="edge"><title>Node2&#45;&gt;Node1</title>
<path fill="none" stroke="midnightblue" d="M164,-168.805C164,-159.91 164,-149.78 164,-142.751"/>
<polygon fill="midnightblue" stroke="midnightblue" points="160.5,-169.083 164,-179.083 167.5,-169.083 160.5,-169.083"/>
</g>
<!-- Node3 -->
<g id="node4" class="node"><title>Node3</title>
<g id="a_node4"><a xlink:href="class_ogre_1_1_scene_query.html" target="_top" xlink:title="A class for performing queries on a scene. ">
<polygon fill="none" stroke="black" points="49,-235.5 49,-254.5 147,-254.5 147,-235.5 49,-235.5"/>
<text text-anchor="middle" x="98" y="-242.5" font-family="Helvetica,sans-Serif" font-size="10.00">Ogre::SceneQuery</text>
</a>
</g>
</g>
<!-- Node3&#45;&gt;Node2 -->
<g id="edge3" class="edge"><title>Node3&#45;&gt;Node2</title>
<path fill="none" stroke="midnightblue" d="M116.554,-228.82C128.378,-219.145 143.286,-206.948 153.203,-198.834"/>
<polygon fill="midnightblue" stroke="midnightblue" points="114.127,-226.283 108.604,-235.324 118.56,-231.7 114.127,-226.283"/>
</g>
<!-- Node4 -->
<g id="node5" class="node"><title>Node4</title>
<g id="a_node5"><a xlink:href="class_ogre_1_1_allocated_object.html" target="_top" xlink:title="Superclass for all objects that wish to use custom memory allocators when their new / delete operator...">
<polygon fill="none" stroke="black" points="56.5,-291.5 56.5,-310.5 139.5,-310.5 139.5,-291.5 56.5,-291.5"/>
<text text-anchor="middle" x="98" y="-298.5" font-family="Helvetica,sans-Serif" font-size="10.00">SceneMgtAlloc</text>
</a>
</g>
</g>
<!-- Node4&#45;&gt;Node3 -->
<g id="edge4" class="edge"><title>Node4&#45;&gt;Node3</title>
<path fill="none" stroke="midnightblue" d="M98,-280.805C98,-271.91 98,-261.78 98,-254.751"/>
<polygon fill="midnightblue" stroke="midnightblue" points="94.5001,-281.083 98,-291.083 101.5,-281.083 94.5001,-281.083"/>
</g>
<!-- Node5 -->
<g id="node6" class="node"><title>Node5</title>
<g id="a_node6"><a xlink:href="class_ogre_1_1_scene_query_listener.html" target="_top" xlink:title="This optional class allows you to receive per&#45;result callbacks from SceneQuery executions instead of ...">
<polygon fill="none" stroke="black" points="165,-235.5 165,-254.5 297,-254.5 297,-235.5 165,-235.5"/>
<text text-anchor="middle" x="231" y="-242.5" font-family="Helvetica,sans-Serif" font-size="10.00">Ogre::SceneQueryListener</text>
</a>
</g>
</g>
<!-- Node5&#45;&gt;Node2 -->
<g id="edge5" class="edge"><title>Node5&#45;&gt;Node2</title>
<path fill="none" stroke="midnightblue" d="M212.165,-228.82C200.162,-219.145 185.028,-206.948 174.961,-198.834"/>
<polygon fill="midnightblue" stroke="midnightblue" points="210.253,-231.774 220.235,-235.324 214.646,-226.324 210.253,-231.774"/>
</g>
</g>
</svg>
