<?xml version="1.0" encoding="UTF-8" standalone="no"?>
<!DOCTYPE svg PUBLIC "-//W3C//DTD SVG 1.1//EN"
 "http://www.w3.org/Graphics/SVG/1.1/DTD/svg11.dtd">
<!-- Generated by graphviz version 2.38.0 (20140413.2041)
 -->
<!-- Title: Ogre::DefaultHardwareBufferManagerBase Pages: 1 -->
<svg width="180pt" height="151pt"
 viewBox="0.00 0.00 180.00 151.00" xmlns="http://www.w3.org/2000/svg" xmlns:xlink="http://www.w3.org/1999/xlink">
<g id="graph0" class="graph" transform="scale(1 1) rotate(0) translate(4 147)">
<title>Ogre::DefaultHardwareBufferManagerBase</title>
<!-- Node0 -->
<g id="node1" class="node"><title>Node0</title>
<polygon fill="#bfbfbf" stroke="black" points="14.5,-0.5 14.5,-30.5 157.5,-30.5 157.5,-0.5 14.5,-0.5"/>
<text text-anchor="start" x="22.5" y="-18.5" font-family="Helvetica,sans-Serif" font-size="10.00">Ogre::DefaultHardwareBuffer</text>
<text text-anchor="middle" x="86" y="-7.5" font-family="Helvetica,sans-Serif" font-size="10.00">ManagerBase</text>
</g>
<!-- Node1 -->
<g id="node2" class="node"><title>Node1</title>
<g id="a_node2"><a xlink:href="class_ogre_1_1_hardware_buffer_manager_base.html" target="_top" xlink:title="Base definition of a hardware buffer manager. ">
<polygon fill="none" stroke="black" points="0,-67.5 0,-86.5 172,-86.5 172,-67.5 0,-67.5"/>
<text text-anchor="middle" x="86" y="-74.5" font-family="Helvetica,sans-Serif" font-size="10.00">Ogre::HardwareBufferManagerBase</text>
</a>
</g>
</g>
<!-- Node1&#45;&gt;Node0 -->
<g id="edge1" class="edge"><title>Node1&#45;&gt;Node0</title>
<path fill="none" stroke="midnightblue" d="M86,-57.2349C86,-48.5864 86,-38.4969 86,-30.523"/>
<polygon fill="midnightblue" stroke="midnightblue" points="82.5001,-57.4751 86,-67.4751 89.5001,-57.4751 82.5001,-57.4751"/>
</g>
<!-- Node2 -->
<g id="node3" class="node"><title>Node2</title>
<g id="a_node3"><a xlink:href="class_ogre_1_1_allocated_object.html" target="_top" xlink:title="Superclass for all objects that wish to use custom memory allocators when their new / delete operator...">
<polygon fill="none" stroke="black" points="53.5,-123.5 53.5,-142.5 118.5,-142.5 118.5,-123.5 53.5,-123.5"/>
<text text-anchor="middle" x="86" y="-130.5" font-family="Helvetica,sans-Serif" font-size="10.00">BufferAlloc</text>
</a>
</g>
</g>
<!-- Node2&#45;&gt;Node1 -->
<g id="edge2" class="edge"><title>Node2&#45;&gt;Node1</title>
<path fill="none" stroke="midnightblue" d="M86,-112.805C86,-103.91 86,-93.7798 86,-86.7511"/>
<polygon fill="midnightblue" stroke="midnightblue" points="82.5001,-113.083 86,-123.083 89.5001,-113.083 82.5001,-113.083"/>
</g>
</g>
</svg>
