<?xml version="1.0" encoding="UTF-8" standalone="no"?>
<!DOCTYPE svg PUBLIC "-//W3C//DTD SVG 1.1//EN"
 "http://www.w3.org/Graphics/SVG/1.1/DTD/svg11.dtd">
<!-- Generated by graphviz version 2.38.0 (20140413.2041)
 -->
<!-- Title: Ogre::MeshSerializerImpl_v1_3 Pages: 1 -->
<svg width="161pt" height="375pt"
 viewBox="0.00 0.00 161.00 375.00" xmlns="http://www.w3.org/2000/svg" xmlns:xlink="http://www.w3.org/1999/xlink">
<g id="graph0" class="graph" transform="scale(1 1) rotate(0) translate(4 371)">
<title>Ogre::MeshSerializerImpl_v1_3</title>
<!-- Node0 -->
<g id="node1" class="node"><title>Node0</title>
<polygon fill="#bfbfbf" stroke="black" points="0,-112.5 0,-131.5 153,-131.5 153,-112.5 0,-112.5"/>
<text text-anchor="middle" x="76.5" y="-119.5" font-family="Helvetica,sans-Serif" font-size="10.00">Ogre::MeshSerializerImpl_v1_3</text>
</g>
<!-- Node7 -->
<g id="node6" class="node"><title>Node7</title>
<g id="a_node6"><a xlink:href="class_ogre_1_1_mesh_serializer_impl__v1__2.html" target="_top" xlink:title="Class for providing backwards&#45;compatibility for loading version 1.2 of the .mesh format. ">
<polygon fill="none" stroke="black" points="0,-56.5 0,-75.5 153,-75.5 153,-56.5 0,-56.5"/>
<text text-anchor="middle" x="76.5" y="-63.5" font-family="Helvetica,sans-Serif" font-size="10.00">Ogre::MeshSerializerImpl_v1_2</text>
</a>
</g>
</g>
<!-- Node0&#45;&gt;Node7 -->
<g id="edge5" class="edge"><title>Node0&#45;&gt;Node7</title>
<path fill="none" stroke="midnightblue" d="M76.5,-101.805C76.5,-92.9102 76.5,-82.7798 76.5,-75.7511"/>
<polygon fill="midnightblue" stroke="midnightblue" points="73.0001,-102.083 76.5,-112.083 80.0001,-102.083 73.0001,-102.083"/>
</g>
<!-- Node1 -->
<g id="node2" class="node"><title>Node1</title>
<g id="a_node2"><a xlink:href="class_ogre_1_1_mesh_serializer_impl__v1__4.html" target="_top" xlink:title="Class for providing backwards&#45;compatibility for loading version 1.4 of the .mesh format. ">
<polygon fill="none" stroke="black" points="0,-168.5 0,-187.5 153,-187.5 153,-168.5 0,-168.5"/>
<text text-anchor="middle" x="76.5" y="-175.5" font-family="Helvetica,sans-Serif" font-size="10.00">Ogre::MeshSerializerImpl_v1_4</text>
</a>
</g>
</g>
<!-- Node1&#45;&gt;Node0 -->
<g id="edge1" class="edge"><title>Node1&#45;&gt;Node0</title>
<path fill="none" stroke="midnightblue" d="M76.5,-157.805C76.5,-148.91 76.5,-138.78 76.5,-131.751"/>
<polygon fill="midnightblue" stroke="midnightblue" points="73.0001,-158.083 76.5,-168.083 80.0001,-158.083 73.0001,-158.083"/>
</g>
<!-- Node2 -->
<g id="node3" class="node"><title>Node2</title>
<g id="a_node3"><a xlink:href="class_ogre_1_1_mesh_serializer_impl__v1__41.html" target="_top" xlink:title="Class for providing backwards&#45;compatibility for loading version 1.41 of the .mesh format...">
<polygon fill="none" stroke="black" points="13,-224.5 13,-254.5 140,-254.5 140,-224.5 13,-224.5"/>
<text text-anchor="start" x="21" y="-242.5" font-family="Helvetica,sans-Serif" font-size="10.00">Ogre::MeshSerializerImpl</text>
<text text-anchor="middle" x="76.5" y="-231.5" font-family="Helvetica,sans-Serif" font-size="10.00">_v1_41</text>
</a>
</g>
</g>
<!-- Node2&#45;&gt;Node1 -->
<g id="edge2" class="edge"><title>Node2&#45;&gt;Node1</title>
<path fill="none" stroke="midnightblue" d="M76.5,-214.289C76.5,-204.857 76.5,-194.655 76.5,-187.658"/>
<polygon fill="midnightblue" stroke="midnightblue" points="73.0001,-214.399 76.5,-224.399 80.0001,-214.399 73.0001,-214.399"/>
</g>
<!-- Node3 -->
<g id="node4" class="node"><title>Node3</title>
<g id="a_node4"><a xlink:href="class_ogre_1_1_mesh_serializer_impl__v1__8.html" target="_top" xlink:title="Class for providing backwards&#45;compatibility for loading version 1.8 of the .mesh format. ">
<polygon fill="none" stroke="black" points="0,-291.5 0,-310.5 153,-310.5 153,-291.5 0,-291.5"/>
<text text-anchor="middle" x="76.5" y="-298.5" font-family="Helvetica,sans-Serif" font-size="10.00">Ogre::MeshSerializerImpl_v1_8</text>
</a>
</g>
</g>
<!-- Node3&#45;&gt;Node2 -->
<g id="edge3" class="edge"><title>Node3&#45;&gt;Node2</title>
<path fill="none" stroke="midnightblue" d="M76.5,-281.235C76.5,-272.586 76.5,-262.497 76.5,-254.523"/>
<polygon fill="midnightblue" stroke="midnightblue" points="73.0001,-281.475 76.5,-291.475 80.0001,-281.475 73.0001,-281.475"/>
</g>
<!-- Node4 -->
<g id="node5" class="node"><title>Node4</title>
<g id="a_node5"><a xlink:href="class_ogre_1_1_mesh_serializer_impl.html" target="_top" xlink:title="Internal implementation of Mesh reading / writing for the latest version of the .mesh format...">
<polygon fill="none" stroke="red" points="13,-347.5 13,-366.5 140,-366.5 140,-347.5 13,-347.5"/>
<text text-anchor="middle" x="76.5" y="-354.5" font-family="Helvetica,sans-Serif" font-size="10.00">Ogre::MeshSerializerImpl</text>
</a>
</g>
</g>
<!-- Node4&#45;&gt;Node3 -->
<g id="edge4" class="edge"><title>Node4&#45;&gt;Node3</title>
<path fill="none" stroke="midnightblue" d="M76.5,-336.805C76.5,-327.91 76.5,-317.78 76.5,-310.751"/>
<polygon fill="midnightblue" stroke="midnightblue" points="73.0001,-337.083 76.5,-347.083 80.0001,-337.083 73.0001,-337.083"/>
</g>
<!-- Node8 -->
<g id="node7" class="node"><title>Node8</title>
<g id="a_node7"><a xlink:href="class_ogre_1_1_mesh_serializer_impl__v1__1.html" target="_top" xlink:title="Class for providing backwards&#45;compatibility for loading version 1.1 of the .mesh format. ">
<polygon fill="none" stroke="black" points="0,-0.5 0,-19.5 153,-19.5 153,-0.5 0,-0.5"/>
<text text-anchor="middle" x="76.5" y="-7.5" font-family="Helvetica,sans-Serif" font-size="10.00">Ogre::MeshSerializerImpl_v1_1</text>
</a>
</g>
</g>
<!-- Node7&#45;&gt;Node8 -->
<g id="edge6" class="edge"><title>Node7&#45;&gt;Node8</title>
<path fill="none" stroke="midnightblue" d="M76.5,-45.8045C76.5,-36.9102 76.5,-26.7798 76.5,-19.7511"/>
<polygon fill="midnightblue" stroke="midnightblue" points="73.0001,-46.083 76.5,-56.083 80.0001,-46.083 73.0001,-46.083"/>
</g>
</g>
</svg>
