<?xml version="1.0" encoding="UTF-8" standalone="no"?>
<!DOCTYPE svg PUBLIC "-//W3C//DTD SVG 1.1//EN"
 "http://www.w3.org/Graphics/SVG/1.1/DTD/svg11.dtd">
<!-- Generated by graphviz version 2.38.0 (20140413.2041)
 -->
<!-- Title: Ogre::RTShader::ProgramWriter Pages: 1 -->
<svg width="713pt" height="137pt"
 viewBox="0.00 0.00 713.00 137.00" xmlns="http://www.w3.org/2000/svg" xmlns:xlink="http://www.w3.org/1999/xlink">
<g id="graph0" class="graph" transform="scale(1 1) rotate(0) translate(4 133)">
<title>Ogre::RTShader::ProgramWriter</title>
<!-- Node0 -->
<g id="node1" class="node"><title>Node0</title>
<polygon fill="#bfbfbf" stroke="black" points="152,-55 152,-74 309,-74 309,-55 152,-55"/>
<text text-anchor="middle" x="230.5" y="-62" font-family="Helvetica,sans-Serif" font-size="10.00">Ogre::RTShader::ProgramWriter</text>
</g>
<!-- Node2 -->
<g id="node3" class="node"><title>Node2</title>
<g id="a_node3"><a xlink:href="class_ogre_1_1_r_t_shader_1_1_c_g_program_writer.html" target="_top" xlink:title="CG target language writer implementation. ">
<polygon fill="none" stroke="black" points="349.5,-98.5 349.5,-128.5 495.5,-128.5 495.5,-98.5 349.5,-98.5"/>
<text text-anchor="start" x="357.5" y="-116.5" font-family="Helvetica,sans-Serif" font-size="10.00">Ogre::RTShader::CGProgram</text>
<text text-anchor="middle" x="422.5" y="-105.5" font-family="Helvetica,sans-Serif" font-size="10.00">Writer</text>
</a>
</g>
</g>
<!-- Node0&#45;&gt;Node2 -->
<g id="edge2" class="edge"><title>Node0&#45;&gt;Node2</title>
<path fill="none" stroke="midnightblue" d="M278.425,-76.6018C304.041,-83.208 335.989,-91.4471 363.193,-98.463"/>
<polygon fill="midnightblue" stroke="midnightblue" points="279.142,-73.1722 268.585,-74.064 277.394,-79.9504 279.142,-73.1722"/>
</g>
<!-- Node3 -->
<g id="node4" class="node"><title>Node3</title>
<g id="a_node4"><a xlink:href="class_ogre_1_1_r_t_shader_1_1_g_l_s_l_program_writer.html" target="_top" xlink:title="GLSL target language writer implementation. ">
<polygon fill="none" stroke="black" points="345,-49.5 345,-79.5 500,-79.5 500,-49.5 345,-49.5"/>
<text text-anchor="start" x="353" y="-67.5" font-family="Helvetica,sans-Serif" font-size="10.00">Ogre::RTShader::GLSLProgram</text>
<text text-anchor="middle" x="422.5" y="-56.5" font-family="Helvetica,sans-Serif" font-size="10.00">Writer</text>
</a>
</g>
</g>
<!-- Node0&#45;&gt;Node3 -->
<g id="edge3" class="edge"><title>Node0&#45;&gt;Node3</title>
<path fill="none" stroke="midnightblue" d="M319.082,-64.5C327.671,-64.5 336.34,-64.5 344.809,-64.5"/>
<polygon fill="midnightblue" stroke="midnightblue" points="319.054,-61.0001 309.054,-64.5 319.054,-68.0001 319.054,-61.0001"/>
</g>
<!-- Node5 -->
<g id="node6" class="node"><title>Node5</title>
<g id="a_node6"><a xlink:href="class_ogre_1_1_r_t_shader_1_1_h_l_s_l_program_writer.html" target="_top" xlink:title="HLSL target language writer implementation. ">
<polygon fill="none" stroke="black" points="345,-0.5 345,-30.5 500,-30.5 500,-0.5 345,-0.5"/>
<text text-anchor="start" x="353" y="-18.5" font-family="Helvetica,sans-Serif" font-size="10.00">Ogre::RTShader::HLSLProgram</text>
<text text-anchor="middle" x="422.5" y="-7.5" font-family="Helvetica,sans-Serif" font-size="10.00">Writer</text>
</a>
</g>
</g>
<!-- Node0&#45;&gt;Node5 -->
<g id="edge5" class="edge"><title>Node0&#45;&gt;Node5</title>
<path fill="none" stroke="midnightblue" d="M278.425,-52.3982C304.041,-45.792 335.989,-37.5529 363.193,-30.537"/>
<polygon fill="midnightblue" stroke="midnightblue" points="277.394,-49.0496 268.585,-54.936 279.142,-55.8278 277.394,-49.0496"/>
</g>
<!-- Node1 -->
<g id="node2" class="node"><title>Node1</title>
<g id="a_node2"><a xlink:href="class_ogre_1_1_allocated_object.html" target="_top" xlink:title="Superclass for all objects that wish to use custom memory allocators when their new / delete operator...">
<polygon fill="none" stroke="black" points="0,-55 0,-74 116,-74 116,-55 0,-55"/>
<text text-anchor="middle" x="58" y="-62" font-family="Helvetica,sans-Serif" font-size="10.00">RTShaderSystemAlloc</text>
</a>
</g>
</g>
<!-- Node1&#45;&gt;Node0 -->
<g id="edge1" class="edge"><title>Node1&#45;&gt;Node0</title>
<path fill="none" stroke="midnightblue" d="M126.314,-64.5C134.683,-64.5 143.293,-64.5 151.802,-64.5"/>
<polygon fill="midnightblue" stroke="midnightblue" points="126.248,-61.0001 116.248,-64.5 126.248,-68.0001 126.248,-61.0001"/>
</g>
<!-- Node4 -->
<g id="node5" class="node"><title>Node4</title>
<g id="a_node5"><a xlink:href="class_ogre_1_1_r_t_shader_1_1_g_l_s_l_e_s_program_writer.html" target="_top" xlink:title="GLSL ES target language writer implementation. ">
<polygon fill="none" stroke="black" points="536,-49.5 536,-79.5 705,-79.5 705,-49.5 536,-49.5"/>
<text text-anchor="start" x="544" y="-67.5" font-family="Helvetica,sans-Serif" font-size="10.00">Ogre::RTShader::GLSLESProgram</text>
<text text-anchor="middle" x="620.5" y="-56.5" font-family="Helvetica,sans-Serif" font-size="10.00">Writer</text>
</a>
</g>
</g>
<!-- Node3&#45;&gt;Node4 -->
<g id="edge4" class="edge"><title>Node3&#45;&gt;Node4</title>
<path fill="none" stroke="midnightblue" d="M510.36,-64.5C518.813,-64.5 527.379,-64.5 535.8,-64.5"/>
<polygon fill="midnightblue" stroke="midnightblue" points="510.121,-61.0001 500.121,-64.5 510.121,-68.0001 510.121,-61.0001"/>
</g>
</g>
</svg>
