<?xml version="1.0" encoding="UTF-8" standalone="no"?>
<!DOCTYPE svg PUBLIC "-//W3C//DTD SVG 1.1//EN"
 "http://www.w3.org/Graphics/SVG/1.1/DTD/svg11.dtd">
<!-- Generated by graphviz version 2.38.0 (20140413.2041)
 -->
<!-- Title: Ogre::SceneManagerFactory Pages: 1 -->
<svg width="467pt" height="165pt"
 viewBox="0.00 0.00 467.00 165.00" xmlns="http://www.w3.org/2000/svg" xmlns:xlink="http://www.w3.org/1999/xlink">
<g id="graph0" class="graph" transform="scale(1 1) rotate(0) translate(4 161)">
<title>Ogre::SceneManagerFactory</title>
<!-- Node0 -->
<g id="node1" class="node"><title>Node0</title>
<polygon fill="#bfbfbf" stroke="black" points="119,-68.5 119,-87.5 261,-87.5 261,-68.5 119,-68.5"/>
<text text-anchor="middle" x="190" y="-75.5" font-family="Helvetica,sans-Serif" font-size="10.00">Ogre::SceneManagerFactory</text>
</g>
<!-- Node2 -->
<g id="node3" class="node"><title>Node2</title>
<g id="a_node3"><a xlink:href="class_ogre_1_1_bsp_scene_manager_factory.html" target="_top" xlink:title="Factory for BspSceneManager. ">
<polygon fill="none" stroke="black" points="298.5,-137.5 298.5,-156.5 457.5,-156.5 457.5,-137.5 298.5,-137.5"/>
<text text-anchor="middle" x="378" y="-144.5" font-family="Helvetica,sans-Serif" font-size="10.00">Ogre::BspSceneManagerFactory</text>
</a>
</g>
</g>
<!-- Node0&#45;&gt;Node2 -->
<g id="edge2" class="edge"><title>Node0&#45;&gt;Node2</title>
<path fill="none" stroke="midnightblue" d="M217.5,-92.3916C238.56,-103.36 269.024,-118.199 297,-128 307.374,-131.634 318.745,-134.801 329.574,-137.453"/>
<polygon fill="midnightblue" stroke="midnightblue" points="219.006,-89.2289 208.529,-87.6563 215.739,-95.4195 219.006,-89.2289"/>
</g>
<!-- Node3 -->
<g id="node4" class="node"><title>Node3</title>
<g id="a_node4"><a xlink:href="class_ogre_1_1_default_scene_manager_factory.html" target="_top" xlink:title="Factory for default scene manager. ">
<polygon fill="none" stroke="black" points="308,-88 308,-118 448,-118 448,-88 308,-88"/>
<text text-anchor="start" x="316" y="-106" font-family="Helvetica,sans-Serif" font-size="10.00">Ogre::DefaultSceneManager</text>
<text text-anchor="middle" x="378" y="-95" font-family="Helvetica,sans-Serif" font-size="10.00">Factory</text>
</a>
</g>
</g>
<!-- Node0&#45;&gt;Node3 -->
<g id="edge3" class="edge"><title>Node0&#45;&gt;Node3</title>
<path fill="none" stroke="midnightblue" d="M271.232,-88.7838C283.455,-90.4267 295.978,-92.11 307.935,-93.7171"/>
<polygon fill="midnightblue" stroke="midnightblue" points="271.431,-85.2792 261.054,-87.4158 270.498,-92.2168 271.431,-85.2792"/>
</g>
<!-- Node4 -->
<g id="node5" class="node"><title>Node4</title>
<g id="a_node5"><a xlink:href="class_ogre_1_1_octree_scene_manager_factory.html" target="_top" xlink:title="Factory for OctreeSceneManager. ">
<polygon fill="none" stroke="black" points="309,-39 309,-69 447,-69 447,-39 309,-39"/>
<text text-anchor="start" x="317" y="-57" font-family="Helvetica,sans-Serif" font-size="10.00">Ogre::OctreeSceneManager</text>
<text text-anchor="middle" x="378" y="-46" font-family="Helvetica,sans-Serif" font-size="10.00">Factory</text>
</a>
</g>
</g>
<!-- Node0&#45;&gt;Node4 -->
<g id="edge4" class="edge"><title>Node0&#45;&gt;Node4</title>
<path fill="none" stroke="midnightblue" d="M271.064,-67.6691C283.656,-66.0444 296.569,-64.3781 308.858,-62.7925"/>
<polygon fill="midnightblue" stroke="midnightblue" points="270.523,-64.2098 261.054,-68.9608 271.419,-71.1523 270.523,-64.2098"/>
</g>
<!-- Node5 -->
<g id="node6" class="node"><title>Node5</title>
<g id="a_node6"><a xlink:href="class_ogre_1_1_p_c_z_scene_manager_factory.html" target="_top" xlink:title="Factory for PCZSceneManager. ">
<polygon fill="none" stroke="black" points="297,-0.5 297,-19.5 459,-19.5 459,-0.5 297,-0.5"/>
<text text-anchor="middle" x="378" y="-7.5" font-family="Helvetica,sans-Serif" font-size="10.00">Ogre::PCZSceneManagerFactory</text>
</a>
</g>
</g>
<!-- Node0&#45;&gt;Node5 -->
<g id="edge5" class="edge"><title>Node0&#45;&gt;Node5</title>
<path fill="none" stroke="midnightblue" d="M217.913,-63.7335C238.977,-53.0195 269.253,-38.6 297,-29 307.523,-25.3593 319.06,-22.1733 330.016,-19.5029"/>
<polygon fill="midnightblue" stroke="midnightblue" points="216.211,-60.673 208.925,-68.3648 219.418,-66.8954 216.211,-60.673"/>
</g>
<!-- Node1 -->
<g id="node2" class="node"><title>Node1</title>
<g id="a_node2"><a xlink:href="class_ogre_1_1_allocated_object.html" target="_top" xlink:title="Superclass for all objects that wish to use custom memory allocators when their new / delete operator...">
<polygon fill="none" stroke="black" points="0,-68.5 0,-87.5 83,-87.5 83,-68.5 0,-68.5"/>
<text text-anchor="middle" x="41.5" y="-75.5" font-family="Helvetica,sans-Serif" font-size="10.00">SceneMgtAlloc</text>
</a>
</g>
</g>
<!-- Node1&#45;&gt;Node0 -->
<g id="edge1" class="edge"><title>Node1&#45;&gt;Node0</title>
<path fill="none" stroke="midnightblue" d="M93.4795,-78C101.713,-78 110.361,-78 118.95,-78"/>
<polygon fill="midnightblue" stroke="midnightblue" points="93.3085,-74.5001 83.3084,-78 93.3084,-81.5001 93.3085,-74.5001"/>
</g>
</g>
</svg>
