<?xml version="1.0" encoding="UTF-8" standalone="no"?>
<!DOCTYPE svg PUBLIC "-//W3C//DTD SVG 1.1//EN"
 "http://www.w3.org/Graphics/SVG/1.1/DTD/svg11.dtd">
<!-- Generated by graphviz version 2.38.0 (20140413.2041)
 -->
<!-- Title: Ogre::OverlaySystem Pages: 1 -->
<svg width="364pt" height="95pt"
 viewBox="0.00 0.00 363.50 95.00" xmlns="http://www.w3.org/2000/svg" xmlns:xlink="http://www.w3.org/1999/xlink">
<g id="graph0" class="graph" transform="scale(1 1) rotate(0) translate(4 91)">
<title>Ogre::OverlaySystem</title>
<!-- Node0 -->
<g id="node1" class="node"><title>Node0</title>
<polygon fill="#bfbfbf" stroke="black" points="103.5,-0.5 103.5,-19.5 214.5,-19.5 214.5,-0.5 103.5,-0.5"/>
<text text-anchor="middle" x="159" y="-7.5" font-family="Helvetica,sans-Serif" font-size="10.00">Ogre::OverlaySystem</text>
</g>
<!-- Node1 -->
<g id="node2" class="node"><title>Node1</title>
<g id="a_node2"><a xlink:href="class_ogre_1_1_allocated_object.html" target="_top" xlink:title="Superclass for all objects that wish to use custom memory allocators when their new / delete operator...">
<polygon fill="none" stroke="black" points="0,-62 0,-81 72,-81 72,-62 0,-62"/>
<text text-anchor="middle" x="36" y="-69" font-family="Helvetica,sans-Serif" font-size="10.00">OverlayAlloc</text>
</a>
</g>
</g>
<!-- Node1&#45;&gt;Node0 -->
<g id="edge1" class="edge"><title>Node1&#45;&gt;Node0</title>
<path fill="none" stroke="midnightblue" d="M62.8312,-57.5207C86.6851,-45.9816 120.873,-29.4433 141.41,-19.5091"/>
<polygon fill="midnightblue" stroke="midnightblue" points="61.1008,-54.4697 53.6229,-61.9751 64.1491,-60.7711 61.1008,-54.4697"/>
</g>
<!-- Node2 -->
<g id="node3" class="node"><title>Node2</title>
<g id="a_node3"><a xlink:href="class_ogre_1_1_render_queue_listener.html" target="_top" xlink:title="Abstract interface which classes must implement if they wish to receive events from the render queue...">
<polygon fill="none" stroke="black" points="90,-62 90,-81 228,-81 228,-62 90,-62"/>
<text text-anchor="middle" x="159" y="-69" font-family="Helvetica,sans-Serif" font-size="10.00">Ogre::RenderQueueListener</text>
</a>
</g>
</g>
<!-- Node2&#45;&gt;Node0 -->
<g id="edge2" class="edge"><title>Node2&#45;&gt;Node0</title>
<path fill="none" stroke="midnightblue" d="M159,-51.8165C159,-40.9962 159,-27.898 159,-19.5091"/>
<polygon fill="midnightblue" stroke="midnightblue" points="155.5,-51.9751 159,-61.9751 162.5,-51.9751 155.5,-51.9751"/>
</g>
<!-- Node3 -->
<g id="node4" class="node"><title>Node3</title>
<g id="a_node4"><a xlink:href="class_ogre_1_1_render_system_1_1_listener.html" target="_top" xlink:title="Defines a listener on the custom events that this render system can raise. ">
<polygon fill="none" stroke="black" points="246.5,-56.5 246.5,-86.5 355.5,-86.5 355.5,-56.5 246.5,-56.5"/>
<text text-anchor="start" x="254.5" y="-74.5" font-family="Helvetica,sans-Serif" font-size="10.00">Ogre::RenderSystem</text>
<text text-anchor="middle" x="301" y="-63.5" font-family="Helvetica,sans-Serif" font-size="10.00">::Listener</text>
</a>
</g>
</g>
<!-- Node3&#45;&gt;Node0 -->
<g id="edge3" class="edge"><title>Node3&#45;&gt;Node0</title>
<path fill="none" stroke="midnightblue" d="M258.078,-52.5152C232.095,-41.6279 200.132,-28.2348 179.662,-19.6578"/>
<polygon fill="midnightblue" stroke="midnightblue" points="256.772,-55.7628 267.348,-56.3993 259.478,-49.3066 256.772,-55.7628"/>
</g>
</g>
</svg>
