<?xml version="1.0" encoding="UTF-8" standalone="no"?>
<!DOCTYPE svg PUBLIC "-//W3C//DTD SVG 1.1//EN"
 "http://www.w3.org/Graphics/SVG/1.1/DTD/svg11.dtd">
<!-- Generated by graphviz version 2.38.0 (20140413.2041)
 -->
<!-- Title: Ogre::OctreeRaySceneQuery Pages: 1 -->
<svg width="274pt" height="252pt"
 viewBox="0.00 0.00 274.00 252.00" xmlns="http://www.w3.org/2000/svg" xmlns:xlink="http://www.w3.org/1999/xlink">
<g id="graph0" class="graph" transform="scale(1 1) rotate(0) translate(4 248)">
<title>Ogre::OctreeRaySceneQuery</title>
<!-- Node0 -->
<g id="node1" class="node"><title>Node0</title>
<polygon fill="#bfbfbf" stroke="black" points="47.5,-0.5 47.5,-19.5 192.5,-19.5 192.5,-0.5 47.5,-0.5"/>
<text text-anchor="middle" x="120" y="-7.5" font-family="Helvetica,sans-Serif" font-size="10.00">Ogre::OctreeRaySceneQuery</text>
</g>
<!-- Node1 -->
<g id="node2" class="node"><title>Node1</title>
<g id="a_node2"><a xlink:href="class_ogre_1_1_default_ray_scene_query.html" target="_top" xlink:title="Default implementation of RaySceneQuery. ">
<polygon fill="none" stroke="black" points="46.5,-56.5 46.5,-75.5 193.5,-75.5 193.5,-56.5 46.5,-56.5"/>
<text text-anchor="middle" x="120" y="-63.5" font-family="Helvetica,sans-Serif" font-size="10.00">Ogre::DefaultRaySceneQuery</text>
</a>
</g>
</g>
<!-- Node1&#45;&gt;Node0 -->
<g id="edge1" class="edge"><title>Node1&#45;&gt;Node0</title>
<path fill="none" stroke="midnightblue" d="M120,-45.8045C120,-36.9102 120,-26.7798 120,-19.7511"/>
<polygon fill="midnightblue" stroke="midnightblue" points="116.5,-46.083 120,-56.083 123.5,-46.083 116.5,-46.083"/>
</g>
<!-- Node2 -->
<g id="node3" class="node"><title>Node2</title>
<g id="a_node3"><a xlink:href="class_ogre_1_1_ray_scene_query.html" target="_top" xlink:title="Specialises the SceneQuery class for querying along a ray. ">
<polygon fill="none" stroke="black" points="62,-112.5 62,-131.5 178,-131.5 178,-112.5 62,-112.5"/>
<text text-anchor="middle" x="120" y="-119.5" font-family="Helvetica,sans-Serif" font-size="10.00">Ogre::RaySceneQuery</text>
</a>
</g>
</g>
<!-- Node2&#45;&gt;Node1 -->
<g id="edge2" class="edge"><title>Node2&#45;&gt;Node1</title>
<path fill="none" stroke="midnightblue" d="M120,-101.805C120,-92.9102 120,-82.7798 120,-75.7511"/>
<polygon fill="midnightblue" stroke="midnightblue" points="116.5,-102.083 120,-112.083 123.5,-102.083 116.5,-102.083"/>
</g>
<!-- Node3 -->
<g id="node4" class="node"><title>Node3</title>
<g id="a_node4"><a xlink:href="class_ogre_1_1_scene_query.html" target="_top" xlink:title="A class for performing queries on a scene. ">
<polygon fill="none" stroke="black" points="0,-168.5 0,-187.5 98,-187.5 98,-168.5 0,-168.5"/>
<text text-anchor="middle" x="49" y="-175.5" font-family="Helvetica,sans-Serif" font-size="10.00">Ogre::SceneQuery</text>
</a>
</g>
</g>
<!-- Node3&#45;&gt;Node2 -->
<g id="edge3" class="edge"><title>Node3&#45;&gt;Node2</title>
<path fill="none" stroke="midnightblue" d="M68.5897,-162.101C81.3676,-152.382 97.6127,-140.027 108.385,-131.834"/>
<polygon fill="midnightblue" stroke="midnightblue" points="66.2481,-159.484 60.4074,-168.324 70.4857,-165.056 66.2481,-159.484"/>
</g>
<!-- Node4 -->
<g id="node5" class="node"><title>Node4</title>
<g id="a_node5"><a xlink:href="class_ogre_1_1_allocated_object.html" target="_top" xlink:title="Superclass for all objects that wish to use custom memory allocators when their new / delete operator...">
<polygon fill="none" stroke="black" points="7.5,-224.5 7.5,-243.5 90.5,-243.5 90.5,-224.5 7.5,-224.5"/>
<text text-anchor="middle" x="49" y="-231.5" font-family="Helvetica,sans-Serif" font-size="10.00">SceneMgtAlloc</text>
</a>
</g>
</g>
<!-- Node4&#45;&gt;Node3 -->
<g id="edge4" class="edge"><title>Node4&#45;&gt;Node3</title>
<path fill="none" stroke="midnightblue" d="M49,-213.805C49,-204.91 49,-194.78 49,-187.751"/>
<polygon fill="midnightblue" stroke="midnightblue" points="45.5001,-214.083 49,-224.083 52.5001,-214.083 45.5001,-214.083"/>
</g>
<!-- Node5 -->
<g id="node6" class="node"><title>Node5</title>
<g id="a_node6"><a xlink:href="class_ogre_1_1_ray_scene_query_listener.html" target="_top" xlink:title="Alternative listener class for dealing with RaySceneQuery. ">
<polygon fill="none" stroke="black" points="116,-168.5 116,-187.5 266,-187.5 266,-168.5 116,-168.5"/>
<text text-anchor="middle" x="191" y="-175.5" font-family="Helvetica,sans-Serif" font-size="10.00">Ogre::RaySceneQueryListener</text>
</a>
</g>
</g>
<!-- Node5&#45;&gt;Node2 -->
<g id="edge5" class="edge"><title>Node5&#45;&gt;Node2</title>
<path fill="none" stroke="midnightblue" d="M171.41,-162.101C158.632,-152.382 142.387,-140.027 131.615,-131.834"/>
<polygon fill="midnightblue" stroke="midnightblue" points="169.514,-165.056 179.593,-168.324 173.752,-159.484 169.514,-165.056"/>
</g>
</g>
</svg>
