<?xml version="1.0" encoding="UTF-8" standalone="no"?>
<!DOCTYPE svg PUBLIC "-//W3C//DTD SVG 1.1//EN"
 "http://www.w3.org/Graphics/SVG/1.1/DTD/svg11.dtd">
<!-- Generated by graphviz version 2.38.0 (20140413.2041)
 -->
<!-- Title: Ogre::OverlayElement Pages: 1 -->
<svg width="333pt" height="263pt"
 viewBox="0.00 0.00 333.00 263.00" xmlns="http://www.w3.org/2000/svg" xmlns:xlink="http://www.w3.org/1999/xlink">
<g id="graph0" class="graph" transform="scale(1 1) rotate(0) translate(4 259)">
<title>Ogre::OverlayElement</title>
<!-- Node0 -->
<g id="node1" class="node"><title>Node0</title>
<polygon fill="#bfbfbf" stroke="black" points="115,-179.5 115,-198.5 228,-198.5 228,-179.5 115,-179.5"/>
<text text-anchor="middle" x="171.5" y="-186.5" font-family="Helvetica,sans-Serif" font-size="10.00">Ogre::OverlayElement</text>
</g>
<!-- Node4 -->
<g id="node5" class="node"><title>Node4</title>
<g id="a_node5"><a xlink:href="class_ogre_1_1_overlay_container.html" target="_top" xlink:title="A 2D element which contains other OverlayElement instances. ">
<polygon fill="none" stroke="black" points="35,-123.5 35,-142.5 154,-142.5 154,-123.5 35,-123.5"/>
<text text-anchor="middle" x="94.5" y="-130.5" font-family="Helvetica,sans-Serif" font-size="10.00">Ogre::OverlayContainer</text>
</a>
</g>
</g>
<!-- Node0&#45;&gt;Node4 -->
<g id="edge4" class="edge"><title>Node0&#45;&gt;Node4</title>
<path fill="none" stroke="midnightblue" d="M150.599,-173.342C136.589,-163.517 118.617,-150.913 106.841,-142.655"/>
<polygon fill="midnightblue" stroke="midnightblue" points="148.932,-176.448 159.129,-179.324 152.951,-170.717 148.932,-176.448"/>
</g>
<!-- Node7 -->
<g id="node8" class="node"><title>Node7</title>
<g id="a_node8"><a xlink:href="class_ogre_1_1_text_area_overlay_element.html" target="_top" xlink:title="This class implements an overlay element which contains simple unformatted text. ">
<polygon fill="none" stroke="black" points="172,-123.5 172,-142.5 325,-142.5 325,-123.5 172,-123.5"/>
<text text-anchor="middle" x="248.5" y="-130.5" font-family="Helvetica,sans-Serif" font-size="10.00">Ogre::TextAreaOverlayElement</text>
</a>
</g>
</g>
<!-- Node0&#45;&gt;Node7 -->
<g id="edge7" class="edge"><title>Node0&#45;&gt;Node7</title>
<path fill="none" stroke="midnightblue" d="M192.401,-173.342C206.411,-163.517 224.383,-150.913 236.159,-142.655"/>
<polygon fill="midnightblue" stroke="midnightblue" points="190.049,-170.717 183.871,-179.324 194.068,-176.448 190.049,-170.717"/>
</g>
<!-- Node1 -->
<g id="node2" class="node"><title>Node1</title>
<g id="a_node2"><a xlink:href="class_ogre_1_1_string_interface.html" target="_top" xlink:title="Class defining the common interface which classes can use to present a reflection&#45;style, self&#45;defining parameter set to callers. ">
<polygon fill="none" stroke="black" points="0,-235.5 0,-254.5 107,-254.5 107,-235.5 0,-235.5"/>
<text text-anchor="middle" x="53.5" y="-242.5" font-family="Helvetica,sans-Serif" font-size="10.00">Ogre::StringInterface</text>
</a>
</g>
</g>
<!-- Node1&#45;&gt;Node0 -->
<g id="edge1" class="edge"><title>Node1&#45;&gt;Node0</title>
<path fill="none" stroke="midnightblue" d="M81.4002,-231.232C103.473,-221.131 133.676,-207.309 152.89,-198.516"/>
<polygon fill="midnightblue" stroke="midnightblue" points="79.8341,-228.1 72.1975,-235.444 82.747,-234.465 79.8341,-228.1"/>
</g>
<!-- Node2 -->
<g id="node3" class="node"><title>Node2</title>
<g id="a_node3"><a xlink:href="class_ogre_1_1_renderable.html" target="_top" xlink:title="Abstract class defining the interface all renderable objects must implement. ">
<polygon fill="none" stroke="black" points="125,-235.5 125,-254.5 218,-254.5 218,-235.5 125,-235.5"/>
<text text-anchor="middle" x="171.5" y="-242.5" font-family="Helvetica,sans-Serif" font-size="10.00">Ogre::Renderable</text>
</a>
</g>
</g>
<!-- Node2&#45;&gt;Node0 -->
<g id="edge2" class="edge"><title>Node2&#45;&gt;Node0</title>
<path fill="none" stroke="midnightblue" d="M171.5,-224.805C171.5,-215.91 171.5,-205.78 171.5,-198.751"/>
<polygon fill="midnightblue" stroke="midnightblue" points="168,-225.083 171.5,-235.083 175,-225.083 168,-225.083"/>
</g>
<!-- Node3 -->
<g id="node4" class="node"><title>Node3</title>
<g id="a_node4"><a xlink:href="class_ogre_1_1_allocated_object.html" target="_top" xlink:title="Superclass for all objects that wish to use custom memory allocators when their new / delete operator...">
<polygon fill="none" stroke="black" points="236.5,-235.5 236.5,-254.5 308.5,-254.5 308.5,-235.5 236.5,-235.5"/>
<text text-anchor="middle" x="272.5" y="-242.5" font-family="Helvetica,sans-Serif" font-size="10.00">OverlayAlloc</text>
</a>
</g>
</g>
<!-- Node3&#45;&gt;Node0 -->
<g id="edge3" class="edge"><title>Node3&#45;&gt;Node0</title>
<path fill="none" stroke="midnightblue" d="M247.417,-230.59C228.743,-220.605 203.796,-207.267 187.687,-198.655"/>
<polygon fill="midnightblue" stroke="midnightblue" points="245.804,-233.696 256.273,-235.324 249.104,-227.522 245.804,-233.696"/>
</g>
<!-- Node5 -->
<g id="node6" class="node"><title>Node5</title>
<g id="a_node6"><a xlink:href="class_ogre_1_1_panel_overlay_element.html" target="_top" xlink:title="OverlayElement representing a flat, single&#45;material (or transparent) panel which can contain other el...">
<polygon fill="none" stroke="black" points="25.5,-67.5 25.5,-86.5 163.5,-86.5 163.5,-67.5 25.5,-67.5"/>
<text text-anchor="middle" x="94.5" y="-74.5" font-family="Helvetica,sans-Serif" font-size="10.00">Ogre::PanelOverlayElement</text>
</a>
</g>
</g>
<!-- Node4&#45;&gt;Node5 -->
<g id="edge5" class="edge"><title>Node4&#45;&gt;Node5</title>
<path fill="none" stroke="midnightblue" d="M94.5,-112.805C94.5,-103.91 94.5,-93.7798 94.5,-86.7511"/>
<polygon fill="midnightblue" stroke="midnightblue" points="91.0001,-113.083 94.5,-123.083 98.0001,-113.083 91.0001,-113.083"/>
</g>
<!-- Node6 -->
<g id="node7" class="node"><title>Node6</title>
<g id="a_node7"><a xlink:href="class_ogre_1_1_border_panel_overlay_element.html" target="_top" xlink:title="A specialisation of the PanelOverlayElement to provide a panel with a border. ">
<polygon fill="none" stroke="black" points="29,-0.5 29,-30.5 160,-30.5 160,-0.5 29,-0.5"/>
<text text-anchor="start" x="37" y="-18.5" font-family="Helvetica,sans-Serif" font-size="10.00">Ogre::BorderPanelOverlay</text>
<text text-anchor="middle" x="94.5" y="-7.5" font-family="Helvetica,sans-Serif" font-size="10.00">Element</text>
</a>
</g>
</g>
<!-- Node5&#45;&gt;Node6 -->
<g id="edge6" class="edge"><title>Node5&#45;&gt;Node6</title>
<path fill="none" stroke="midnightblue" d="M94.5,-57.2349C94.5,-48.5864 94.5,-38.4969 94.5,-30.523"/>
<polygon fill="midnightblue" stroke="midnightblue" points="91.0001,-57.4751 94.5,-67.4751 98.0001,-57.4751 91.0001,-57.4751"/>
</g>
</g>
</svg>
