<?xml version="1.0" encoding="UTF-8" standalone="no"?>
<!DOCTYPE svg PUBLIC "-//W3C//DTD SVG 1.1//EN"
 "http://www.w3.org/Graphics/SVG/1.1/DTD/svg11.dtd">
<!-- Generated by graphviz version 2.38.0 (20140413.2041)
 -->
<!-- Title: Ogre::GLTextureCommon Pages: 1 -->
<svg width="356pt" height="252pt"
 viewBox="0.00 0.00 355.50 252.00" xmlns="http://www.w3.org/2000/svg" xmlns:xlink="http://www.w3.org/1999/xlink">
<g id="graph0" class="graph" transform="scale(1 1) rotate(0) translate(4 248)">
<title>Ogre::GLTextureCommon</title>
<!-- Node0 -->
<g id="node1" class="node"><title>Node0</title>
<polygon fill="#bfbfbf" stroke="black" points="121.5,-56.5 121.5,-75.5 250.5,-75.5 250.5,-56.5 121.5,-56.5"/>
<text text-anchor="middle" x="186" y="-63.5" font-family="Helvetica,sans-Serif" font-size="10.00">Ogre::GLTextureCommon</text>
</g>
<!-- Node5 -->
<g id="node6" class="node"><title>Node5</title>
<g id="a_node6"><a xlink:href="class_ogre_1_1_g_l3_plus_texture.html" target="_top" xlink:title="Ogre::GL3PlusTexture">
<polygon fill="none" stroke="black" points="0,-0.5 0,-19.5 114,-19.5 114,-0.5 0,-0.5"/>
<text text-anchor="middle" x="57" y="-7.5" font-family="Helvetica,sans-Serif" font-size="10.00">Ogre::GL3PlusTexture</text>
</a>
</g>
</g>
<!-- Node0&#45;&gt;Node5 -->
<g id="edge5" class="edge"><title>Node0&#45;&gt;Node5</title>
<path fill="none" stroke="midnightblue" d="M156.146,-52.503C131.962,-42.3795 98.538,-28.388 77.3448,-19.5164"/>
<polygon fill="midnightblue" stroke="midnightblue" points="154.984,-55.8106 165.56,-56.4435 157.687,-49.3536 154.984,-55.8106"/>
</g>
<!-- Node6 -->
<g id="node7" class="node"><title>Node6</title>
<g id="a_node7"><a xlink:href="class_ogre_1_1_g_l_e_s2_texture.html" target="_top" xlink:title="Ogre::GLES2Texture">
<polygon fill="none" stroke="black" points="132,-0.5 132,-19.5 240,-19.5 240,-0.5 132,-0.5"/>
<text text-anchor="middle" x="186" y="-7.5" font-family="Helvetica,sans-Serif" font-size="10.00">Ogre::GLES2Texture</text>
</a>
</g>
</g>
<!-- Node0&#45;&gt;Node6 -->
<g id="edge6" class="edge"><title>Node0&#45;&gt;Node6</title>
<path fill="none" stroke="midnightblue" d="M186,-45.8045C186,-36.9102 186,-26.7798 186,-19.7511"/>
<polygon fill="midnightblue" stroke="midnightblue" points="182.5,-46.083 186,-56.083 189.5,-46.083 182.5,-46.083"/>
</g>
<!-- Node7 -->
<g id="node8" class="node"><title>Node7</title>
<g id="a_node8"><a xlink:href="class_ogre_1_1_g_l_texture.html" target="_top" xlink:title="Ogre::GLTexture">
<polygon fill="none" stroke="black" points="258.5,-0.5 258.5,-19.5 347.5,-19.5 347.5,-0.5 258.5,-0.5"/>
<text text-anchor="middle" x="303" y="-7.5" font-family="Helvetica,sans-Serif" font-size="10.00">Ogre::GLTexture</text>
</a>
</g>
</g>
<!-- Node0&#45;&gt;Node7 -->
<g id="edge7" class="edge"><title>Node0&#45;&gt;Node7</title>
<path fill="none" stroke="midnightblue" d="M213.664,-52.2321C235.549,-42.1312 265.497,-28.3091 284.548,-19.5164"/>
<polygon fill="midnightblue" stroke="midnightblue" points="212.152,-49.075 204.539,-56.4435 215.085,-55.4308 212.152,-49.075"/>
</g>
<!-- Node1 -->
<g id="node2" class="node"><title>Node1</title>
<g id="a_node2"><a xlink:href="class_ogre_1_1_texture.html" target="_top" xlink:title="Abstract class representing a Texture resource. ">
<polygon fill="none" stroke="black" points="147.5,-112.5 147.5,-131.5 224.5,-131.5 224.5,-112.5 147.5,-112.5"/>
<text text-anchor="middle" x="186" y="-119.5" font-family="Helvetica,sans-Serif" font-size="10.00">Ogre::Texture</text>
</a>
</g>
</g>
<!-- Node1&#45;&gt;Node0 -->
<g id="edge1" class="edge"><title>Node1&#45;&gt;Node0</title>
<path fill="none" stroke="midnightblue" d="M186,-101.805C186,-92.9102 186,-82.7798 186,-75.7511"/>
<polygon fill="midnightblue" stroke="midnightblue" points="182.5,-102.083 186,-112.083 189.5,-102.083 182.5,-102.083"/>
</g>
<!-- Node2 -->
<g id="node3" class="node"><title>Node2</title>
<g id="a_node3"><a xlink:href="class_ogre_1_1_resource.html" target="_top" xlink:title="Abstract class representing a loadable resource (e.g. ">
<polygon fill="none" stroke="black" points="143,-168.5 143,-187.5 229,-187.5 229,-168.5 143,-168.5"/>
<text text-anchor="middle" x="186" y="-175.5" font-family="Helvetica,sans-Serif" font-size="10.00">Ogre::Resource</text>
</a>
</g>
</g>
<!-- Node2&#45;&gt;Node1 -->
<g id="edge2" class="edge"><title>Node2&#45;&gt;Node1</title>
<path fill="none" stroke="midnightblue" d="M186,-157.805C186,-148.91 186,-138.78 186,-131.751"/>
<polygon fill="midnightblue" stroke="midnightblue" points="182.5,-158.083 186,-168.083 189.5,-158.083 182.5,-158.083"/>
</g>
<!-- Node3 -->
<g id="node4" class="node"><title>Node3</title>
<g id="a_node4"><a xlink:href="class_ogre_1_1_string_interface.html" target="_top" xlink:title="Class defining the common interface which classes can use to present a reflection&#45;style, self&#45;defining parameter set to callers. ">
<polygon fill="none" stroke="black" points="76.5,-224.5 76.5,-243.5 183.5,-243.5 183.5,-224.5 76.5,-224.5"/>
<text text-anchor="middle" x="130" y="-231.5" font-family="Helvetica,sans-Serif" font-size="10.00">Ogre::StringInterface</text>
</a>
</g>
</g>
<!-- Node3&#45;&gt;Node2 -->
<g id="edge3" class="edge"><title>Node3&#45;&gt;Node2</title>
<path fill="none" stroke="midnightblue" d="M146.33,-217.253C156.265,-207.673 168.588,-195.791 176.839,-187.834"/>
<polygon fill="midnightblue" stroke="midnightblue" points="143.766,-214.863 138.997,-224.324 148.625,-219.902 143.766,-214.863"/>
</g>
<!-- Node4 -->
<g id="node5" class="node"><title>Node4</title>
<g id="a_node5"><a xlink:href="class_ogre_1_1_allocated_object.html" target="_top" xlink:title="Superclass for all objects that wish to use custom memory allocators when their new / delete operator...">
<polygon fill="none" stroke="black" points="202,-224.5 202,-243.5 282,-243.5 282,-224.5 202,-224.5"/>
<text text-anchor="middle" x="242" y="-231.5" font-family="Helvetica,sans-Serif" font-size="10.00">ResourceAlloc</text>
</a>
</g>
</g>
<!-- Node4&#45;&gt;Node2 -->
<g id="edge4" class="edge"><title>Node4&#45;&gt;Node2</title>
<path fill="none" stroke="midnightblue" d="M225.67,-217.253C215.735,-207.673 203.412,-195.791 195.161,-187.834"/>
<polygon fill="midnightblue" stroke="midnightblue" points="223.375,-219.902 233.003,-224.324 228.234,-214.863 223.375,-219.902"/>
</g>
</g>
</svg>
