<?xml version="1.0" encoding="UTF-8" standalone="no"?>
<!DOCTYPE svg PUBLIC "-//W3C//DTD SVG 1.1//EN"
 "http://www.w3.org/Graphics/SVG/1.1/DTD/svg11.dtd">
<!-- Generated by graphviz version 2.38.0 (20140413.2041)
 -->
<!-- Title: Ogre::TextureManager Pages: 1 -->
<svg width="606pt" height="180pt"
 viewBox="0.00 0.00 606.00 180.00" xmlns="http://www.w3.org/2000/svg" xmlns:xlink="http://www.w3.org/1999/xlink">
<g id="graph0" class="graph" transform="scale(1 1) rotate(0) translate(4 176)">
<title>Ogre::TextureManager</title>
<!-- Node0 -->
<g id="node1" class="node"><title>Node0</title>
<polygon fill="#bfbfbf" stroke="black" points="296,-76.5 296,-95.5 410,-95.5 410,-76.5 296,-76.5"/>
<text text-anchor="middle" x="353" y="-83.5" font-family="Helvetica,sans-Serif" font-size="10.00">Ogre::TextureManager</text>
</g>
<!-- Node5 -->
<g id="node6" class="node"><title>Node5</title>
<g id="a_node6"><a xlink:href="class_ogre_1_1_d3_d11_texture_manager.html" target="_top" xlink:title="Ogre::D3D11TextureManager">
<polygon fill="none" stroke="black" points="449.5,-152.5 449.5,-171.5 594.5,-171.5 594.5,-152.5 449.5,-152.5"/>
<text text-anchor="middle" x="522" y="-159.5" font-family="Helvetica,sans-Serif" font-size="10.00">Ogre::D3D11TextureManager</text>
</a>
</g>
</g>
<!-- Node0&#45;&gt;Node5 -->
<g id="edge5" class="edge"><title>Node0&#45;&gt;Node5</title>
<path fill="none" stroke="midnightblue" d="M375.266,-101.811C393.283,-114.541 420.225,-132.06 446,-143 454.779,-146.726 464.457,-149.847 473.861,-152.411"/>
<polygon fill="midnightblue" stroke="midnightblue" points="376.872,-98.6538 366.712,-95.6498 372.781,-104.334 376.872,-98.6538"/>
</g>
<!-- Node6 -->
<g id="node7" class="node"><title>Node6</title>
<g id="a_node7"><a xlink:href="class_ogre_1_1_d3_d9_texture_manager.html" target="_top" xlink:title="Ogre::D3D9TextureManager">
<polygon fill="none" stroke="black" points="452,-114.5 452,-133.5 592,-133.5 592,-114.5 452,-114.5"/>
<text text-anchor="middle" x="522" y="-121.5" font-family="Helvetica,sans-Serif" font-size="10.00">Ogre::D3D9TextureManager</text>
</a>
</g>
</g>
<!-- Node0&#45;&gt;Node6 -->
<g id="edge6" class="edge"><title>Node0&#45;&gt;Node6</title>
<path fill="none" stroke="midnightblue" d="M405.965,-97.8243C429.509,-103.182 456.974,-109.431 479.162,-114.48"/>
<polygon fill="midnightblue" stroke="midnightblue" points="406.668,-94.3951 396.141,-95.589 405.115,-101.221 406.668,-94.3951"/>
</g>
<!-- Node7 -->
<g id="node8" class="node"><title>Node7</title>
<g id="a_node8"><a xlink:href="class_ogre_1_1_g_l3_plus_texture_manager.html" target="_top" xlink:title="GL3Plus&#45;specific implementation of a TextureManager. ">
<polygon fill="none" stroke="black" points="446,-76.5 446,-95.5 598,-95.5 598,-76.5 446,-76.5"/>
<text text-anchor="middle" x="522" y="-83.5" font-family="Helvetica,sans-Serif" font-size="10.00">Ogre::GL3PlusTextureManager</text>
</a>
</g>
</g>
<!-- Node0&#45;&gt;Node7 -->
<g id="edge7" class="edge"><title>Node0&#45;&gt;Node7</title>
<path fill="none" stroke="midnightblue" d="M420.186,-86C428.597,-86 437.252,-86 445.791,-86"/>
<polygon fill="midnightblue" stroke="midnightblue" points="420.073,-82.5001 410.073,-86 420.073,-89.5001 420.073,-82.5001"/>
</g>
<!-- Node8 -->
<g id="node9" class="node"><title>Node8</title>
<g id="a_node9"><a xlink:href="class_ogre_1_1_g_l_e_s2_texture_manager.html" target="_top" xlink:title="GL ES&#45;specific implementation of a TextureManager. ">
<polygon fill="none" stroke="black" points="449,-38.5 449,-57.5 595,-57.5 595,-38.5 449,-38.5"/>
<text text-anchor="middle" x="522" y="-45.5" font-family="Helvetica,sans-Serif" font-size="10.00">Ogre::GLES2TextureManager</text>
</a>
</g>
</g>
<!-- Node0&#45;&gt;Node8 -->
<g id="edge8" class="edge"><title>Node0&#45;&gt;Node8</title>
<path fill="none" stroke="midnightblue" d="M405.965,-74.1757C429.509,-68.8184 456.974,-62.5689 479.162,-57.5201"/>
<polygon fill="midnightblue" stroke="midnightblue" points="405.115,-70.7794 396.141,-76.411 406.668,-77.6049 405.115,-70.7794"/>
</g>
<!-- Node9 -->
<g id="node10" class="node"><title>Node9</title>
<g id="a_node10"><a xlink:href="class_ogre_1_1_g_l_texture_manager.html" target="_top" xlink:title="GL&#45;specific implementation of a TextureManager. ">
<polygon fill="none" stroke="black" points="458.5,-0.5 458.5,-19.5 585.5,-19.5 585.5,-0.5 458.5,-0.5"/>
<text text-anchor="middle" x="522" y="-7.5" font-family="Helvetica,sans-Serif" font-size="10.00">Ogre::GLTextureManager</text>
</a>
</g>
</g>
<!-- Node0&#45;&gt;Node9 -->
<g id="edge9" class="edge"><title>Node0&#45;&gt;Node9</title>
<path fill="none" stroke="midnightblue" d="M375.266,-70.1894C393.283,-57.4585 420.225,-39.9399 446,-29 454.779,-25.2739 464.457,-22.1532 473.861,-19.5886"/>
<polygon fill="midnightblue" stroke="midnightblue" points="372.781,-67.6659 366.712,-76.3502 376.872,-73.3462 372.781,-67.6659"/>
</g>
<!-- Node1 -->
<g id="node2" class="node"><title>Node1</title>
<g id="a_node2"><a xlink:href="class_ogre_1_1_resource_manager.html" target="_top" xlink:title="Defines a generic resource handler. ">
<polygon fill="none" stroke="black" points="135.5,-98.5 135.5,-117.5 258.5,-117.5 258.5,-98.5 135.5,-98.5"/>
<text text-anchor="middle" x="197" y="-105.5" font-family="Helvetica,sans-Serif" font-size="10.00">Ogre::ResourceManager</text>
</a>
</g>
</g>
<!-- Node1&#45;&gt;Node0 -->
<g id="edge1" class="edge"><title>Node1&#45;&gt;Node0</title>
<path fill="none" stroke="midnightblue" d="M268.895,-97.8721C277.844,-96.5938 286.903,-95.2996 295.585,-94.0593"/>
<polygon fill="midnightblue" stroke="midnightblue" points="268.269,-94.4259 258.865,-99.305 269.259,-101.356 268.269,-94.4259"/>
</g>
<!-- Node2 -->
<g id="node3" class="node"><title>Node2</title>
<g id="a_node3"><a xlink:href="class_ogre_1_1_script_loader.html" target="_top" xlink:title="Abstract class defining the interface used by classes which wish to perform script loading to define ...">
<polygon fill="none" stroke="black" points="0,-117.5 0,-136.5 98,-136.5 98,-117.5 0,-117.5"/>
<text text-anchor="middle" x="49" y="-124.5" font-family="Helvetica,sans-Serif" font-size="10.00">Ogre::ScriptLoader</text>
</a>
</g>
</g>
<!-- Node2&#45;&gt;Node1 -->
<g id="edge2" class="edge"><title>Node2&#45;&gt;Node1</title>
<path fill="none" stroke="midnightblue" d="M108.146,-119.433C117.09,-118.269 126.345,-117.065 135.342,-115.894"/>
<polygon fill="midnightblue" stroke="midnightblue" points="107.675,-115.965 98.2105,-120.726 108.579,-122.906 107.675,-115.965"/>
</g>
<!-- Node3 -->
<g id="node4" class="node"><title>Node3</title>
<g id="a_node4"><a xlink:href="class_ogre_1_1_allocated_object.html" target="_top" xlink:title="Superclass for all objects that wish to use custom memory allocators when their new / delete operator...">
<polygon fill="none" stroke="black" points="9,-79.5 9,-98.5 89,-98.5 89,-79.5 9,-79.5"/>
<text text-anchor="middle" x="49" y="-86.5" font-family="Helvetica,sans-Serif" font-size="10.00">ResourceAlloc</text>
</a>
</g>
</g>
<!-- Node3&#45;&gt;Node1 -->
<g id="edge3" class="edge"><title>Node3&#45;&gt;Node1</title>
<path fill="none" stroke="midnightblue" d="M99.0738,-95.3863C110.7,-96.8994 123.237,-98.5309 135.312,-100.102"/>
<polygon fill="midnightblue" stroke="midnightblue" points="99.4934,-91.9115 89.1253,-94.0917 98.59,-98.853 99.4934,-91.9115"/>
</g>
<!-- Node4 -->
<g id="node5" class="node"><title>Node4</title>
<g id="a_node5"><a xlink:href="class_ogre_1_1_singleton.html" target="_top" xlink:title="Ogre::Singleton\&lt; Texture\lManager \&gt;">
<polygon fill="none" stroke="black" points="134,-49 134,-79 260,-79 260,-49 134,-49"/>
<text text-anchor="start" x="142" y="-67" font-family="Helvetica,sans-Serif" font-size="10.00">Ogre::Singleton&lt; Texture</text>
<text text-anchor="middle" x="197" y="-56" font-family="Helvetica,sans-Serif" font-size="10.00">Manager &gt;</text>
</a>
</g>
</g>
<!-- Node4&#45;&gt;Node0 -->
<g id="edge4" class="edge"><title>Node4&#45;&gt;Node0</title>
<path fill="none" stroke="midnightblue" d="M270.142,-74.3059C278.668,-75.5241 287.275,-76.7536 295.541,-77.9344"/>
<polygon fill="midnightblue" stroke="midnightblue" points="270.588,-70.8343 260.194,-72.8848 269.598,-77.764 270.588,-70.8343"/>
</g>
</g>
</svg>
