<?xml version="1.0" encoding="UTF-8" standalone="no"?>
<!DOCTYPE svg PUBLIC "-//W3C//DTD SVG 1.1//EN"
 "http://www.w3.org/Graphics/SVG/1.1/DTD/svg11.dtd">
<!-- Generated by graphviz version 2.38.0 (20140413.2041)
 -->
<!-- Title: Ogre::Entity Pages: 1 -->
<svg width="390pt" height="140pt"
 viewBox="0.00 0.00 390.00 140.00" xmlns="http://www.w3.org/2000/svg" xmlns:xlink="http://www.w3.org/1999/xlink">
<g id="graph0" class="graph" transform="scale(1 1) rotate(0) translate(4 136)">
<title>Ogre::Entity</title>
<!-- Node0 -->
<g id="node1" class="node"><title>Node0</title>
<polygon fill="#bfbfbf" stroke="black" points="216.5,-0.5 216.5,-19.5 285.5,-19.5 285.5,-0.5 216.5,-0.5"/>
<text text-anchor="middle" x="251" y="-7.5" font-family="Helvetica,sans-Serif" font-size="10.00">Ogre::Entity</text>
</g>
<!-- Node1 -->
<g id="node2" class="node"><title>Node1</title>
<g id="a_node2"><a xlink:href="class_ogre_1_1_movable_object.html" target="_top" xlink:title="Abstract class defining a movable object in a scene. ">
<polygon fill="none" stroke="black" points="128.5,-56.5 128.5,-75.5 237.5,-75.5 237.5,-56.5 128.5,-56.5"/>
<text text-anchor="middle" x="183" y="-63.5" font-family="Helvetica,sans-Serif" font-size="10.00">Ogre::MovableObject</text>
</a>
</g>
</g>
<!-- Node1&#45;&gt;Node0 -->
<g id="edge1" class="edge"><title>Node1&#45;&gt;Node0</title>
<path fill="none" stroke="midnightblue" d="M201.762,-50.1008C214,-40.3824 229.559,-28.0269 239.876,-19.8339"/>
<polygon fill="midnightblue" stroke="midnightblue" points="199.58,-47.3642 193.925,-56.324 203.933,-52.846 199.58,-47.3642"/>
</g>
<!-- Node2 -->
<g id="node3" class="node"><title>Node2</title>
<g id="a_node3"><a xlink:href="class_ogre_1_1_shadow_caster.html" target="_top" xlink:title="This class defines the interface that must be implemented by shadow casters. ">
<polygon fill="none" stroke="black" points="0,-112.5 0,-131.5 108,-131.5 108,-112.5 0,-112.5"/>
<text text-anchor="middle" x="54" y="-119.5" font-family="Helvetica,sans-Serif" font-size="10.00">Ogre::ShadowCaster</text>
</a>
</g>
</g>
<!-- Node2&#45;&gt;Node1 -->
<g id="edge2" class="edge"><title>Node2&#45;&gt;Node1</title>
<path fill="none" stroke="midnightblue" d="M83.854,-108.503C108.038,-98.3795 141.462,-84.388 162.655,-75.5164"/>
<polygon fill="midnightblue" stroke="midnightblue" points="82.3133,-105.354 74.4404,-112.444 85.0164,-111.811 82.3133,-105.354"/>
</g>
<!-- Node3 -->
<g id="node4" class="node"><title>Node3</title>
<g id="a_node4"><a xlink:href="class_ogre_1_1_animable_object.html" target="_top" xlink:title="Defines an interface to classes which have one or more AnimableValue instances to expose...">
<polygon fill="none" stroke="black" points="126.5,-112.5 126.5,-131.5 239.5,-131.5 239.5,-112.5 126.5,-112.5"/>
<text text-anchor="middle" x="183" y="-119.5" font-family="Helvetica,sans-Serif" font-size="10.00">Ogre::AnimableObject</text>
</a>
</g>
</g>
<!-- Node3&#45;&gt;Node1 -->
<g id="edge3" class="edge"><title>Node3&#45;&gt;Node1</title>
<path fill="none" stroke="midnightblue" d="M183,-101.805C183,-92.9102 183,-82.7798 183,-75.7511"/>
<polygon fill="midnightblue" stroke="midnightblue" points="179.5,-102.083 183,-112.083 186.5,-102.083 179.5,-102.083"/>
</g>
<!-- Node4 -->
<g id="node5" class="node"><title>Node4</title>
<g id="a_node5"><a xlink:href="class_ogre_1_1_allocated_object.html" target="_top" xlink:title="Superclass for all objects that wish to use custom memory allocators when their new / delete operator...">
<polygon fill="none" stroke="black" points="257.5,-112.5 257.5,-131.5 332.5,-131.5 332.5,-112.5 257.5,-112.5"/>
<text text-anchor="middle" x="295" y="-119.5" font-family="Helvetica,sans-Serif" font-size="10.00">MovableAlloc</text>
</a>
</g>
</g>
<!-- Node4&#45;&gt;Node1 -->
<g id="edge4" class="edge"><title>Node4&#45;&gt;Node1</title>
<path fill="none" stroke="midnightblue" d="M267.751,-107.862C246.984,-97.8492 218.977,-84.3458 200.95,-75.6545"/>
<polygon fill="midnightblue" stroke="midnightblue" points="266.477,-111.134 277.005,-112.324 269.518,-104.828 266.477,-111.134"/>
</g>
<!-- Node5 -->
<g id="node6" class="node"><title>Node5</title>
<g id="a_node6"><a xlink:href="class_ogre_1_1_resource_1_1_listener.html" target="_top" xlink:title="Ogre::Resource::Listener">
<polygon fill="none" stroke="black" points="256,-56.5 256,-75.5 382,-75.5 382,-56.5 256,-56.5"/>
<text text-anchor="middle" x="319" y="-63.5" font-family="Helvetica,sans-Serif" font-size="10.00">Ogre::Resource::Listener</text>
</a>
</g>
</g>
<!-- Node5&#45;&gt;Node0 -->
<g id="edge5" class="edge"><title>Node5&#45;&gt;Node0</title>
<path fill="none" stroke="midnightblue" d="M300.238,-50.1008C288,-40.3824 272.441,-28.0269 262.124,-19.8339"/>
<polygon fill="midnightblue" stroke="midnightblue" points="298.067,-52.846 308.075,-56.324 302.42,-47.3642 298.067,-52.846"/>
</g>
</g>
</svg>
