<?xml version="1.0" encoding="UTF-8" standalone="no"?>
<!DOCTYPE svg PUBLIC "-//W3C//DTD SVG 1.1//EN"
 "http://www.w3.org/Graphics/SVG/1.1/DTD/svg11.dtd">
<!-- Generated by graphviz version 2.38.0 (20140413.2041)
 -->
<!-- Title: Ogre::RenderSystem Pages: 1 -->
<svg width="609pt" height="196pt"
 viewBox="0.00 0.00 609.00 196.00" xmlns="http://www.w3.org/2000/svg" xmlns:xlink="http://www.w3.org/1999/xlink">
<g id="graph0" class="graph" transform="scale(1 1) rotate(0) translate(4 192)">
<title>Ogre::RenderSystem</title>
<!-- Node0 -->
<g id="node1" class="node"><title>Node0</title>
<polygon fill="#bfbfbf" stroke="black" points="170.5,-112.5 170.5,-131.5 279.5,-131.5 279.5,-112.5 170.5,-112.5"/>
<text text-anchor="middle" x="225" y="-119.5" font-family="Helvetica,sans-Serif" font-size="10.00">Ogre::RenderSystem</text>
</g>
<!-- Node2 -->
<g id="node3" class="node"><title>Node2</title>
<g id="a_node3"><a xlink:href="class_ogre_1_1_d3_d11_render_system.html" target="_top" xlink:title="Implementation of DirectX11 as a rendering system. ">
<polygon fill="none" stroke="black" points="0,-56.5 0,-75.5 140,-75.5 140,-56.5 0,-56.5"/>
<text text-anchor="middle" x="70" y="-63.5" font-family="Helvetica,sans-Serif" font-size="10.00">Ogre::D3D11RenderSystem</text>
</a>
</g>
</g>
<!-- Node0&#45;&gt;Node2 -->
<g id="edge2" class="edge"><title>Node0&#45;&gt;Node2</title>
<path fill="none" stroke="midnightblue" d="M190.668,-109.039C161.503,-98.8786 120.363,-84.5457 94.4453,-75.5164"/>
<polygon fill="midnightblue" stroke="midnightblue" points="189.845,-112.459 200.44,-112.444 192.148,-105.848 189.845,-112.459"/>
</g>
<!-- Node3 -->
<g id="node4" class="node"><title>Node3</title>
<g id="a_node4"><a xlink:href="class_ogre_1_1_d3_d9_render_system.html" target="_top" xlink:title="Implementation of DirectX9 as a rendering system. ">
<polygon fill="none" stroke="black" points="158,-56.5 158,-75.5 292,-75.5 292,-56.5 158,-56.5"/>
<text text-anchor="middle" x="225" y="-63.5" font-family="Helvetica,sans-Serif" font-size="10.00">Ogre::D3D9RenderSystem</text>
</a>
</g>
</g>
<!-- Node0&#45;&gt;Node3 -->
<g id="edge3" class="edge"><title>Node0&#45;&gt;Node3</title>
<path fill="none" stroke="midnightblue" d="M225,-101.805C225,-92.9102 225,-82.7798 225,-75.7511"/>
<polygon fill="midnightblue" stroke="midnightblue" points="221.5,-102.083 225,-112.083 228.5,-102.083 221.5,-102.083"/>
</g>
<!-- Node4 -->
<g id="node5" class="node"><title>Node4</title>
<g id="a_node5"><a xlink:href="class_ogre_1_1_g_l_render_system_common.html" target="_top" xlink:title="Ogre::GLRenderSystemCommon">
<polygon fill="none" stroke="black" points="310.5,-56.5 310.5,-75.5 471.5,-75.5 471.5,-56.5 310.5,-56.5"/>
<text text-anchor="middle" x="391" y="-63.5" font-family="Helvetica,sans-Serif" font-size="10.00">Ogre::GLRenderSystemCommon</text>
</a>
</g>
</g>
<!-- Node0&#45;&gt;Node4 -->
<g id="edge4" class="edge"><title>Node0&#45;&gt;Node4</title>
<path fill="none" stroke="midnightblue" d="M260.953,-109.304C292.232,-99.1294 336.821,-84.6246 364.82,-75.5164"/>
<polygon fill="midnightblue" stroke="midnightblue" points="259.73,-106.022 251.303,-112.444 261.895,-112.678 259.73,-106.022"/>
</g>
<!-- Node1 -->
<g id="node2" class="node"><title>Node1</title>
<g id="a_node2"><a xlink:href="class_ogre_1_1_allocated_object.html" target="_top" xlink:title="Superclass for all objects that wish to use custom memory allocators when their new / delete operator...">
<polygon fill="none" stroke="black" points="181.5,-168.5 181.5,-187.5 268.5,-187.5 268.5,-168.5 181.5,-168.5"/>
<text text-anchor="middle" x="225" y="-175.5" font-family="Helvetica,sans-Serif" font-size="10.00">RenderSysAlloc</text>
</a>
</g>
</g>
<!-- Node1&#45;&gt;Node0 -->
<g id="edge1" class="edge"><title>Node1&#45;&gt;Node0</title>
<path fill="none" stroke="midnightblue" d="M225,-157.805C225,-148.91 225,-138.78 225,-131.751"/>
<polygon fill="midnightblue" stroke="midnightblue" points="221.5,-158.083 225,-168.083 228.5,-158.083 221.5,-158.083"/>
</g>
<!-- Node5 -->
<g id="node6" class="node"><title>Node5</title>
<g id="a_node6"><a xlink:href="class_ogre_1_1_g_l3_plus_render_system.html" target="_top" xlink:title="Implementation of GL 3 as a rendering system. ">
<polygon fill="none" stroke="black" points="157,-0.5 157,-19.5 303,-19.5 303,-0.5 157,-0.5"/>
<text text-anchor="middle" x="230" y="-7.5" font-family="Helvetica,sans-Serif" font-size="10.00">Ogre::GL3PlusRenderSystem</text>
</a>
</g>
</g>
<!-- Node4&#45;&gt;Node5 -->
<g id="edge5" class="edge"><title>Node4&#45;&gt;Node5</title>
<path fill="none" stroke="midnightblue" d="M355.735,-53.172C325.419,-43.0039 282.43,-28.5852 255.392,-19.5164"/>
<polygon fill="midnightblue" stroke="midnightblue" points="354.895,-56.5819 365.489,-56.4435 357.121,-49.9452 354.895,-56.5819"/>
</g>
<!-- Node6 -->
<g id="node7" class="node"><title>Node6</title>
<g id="a_node7"><a xlink:href="class_ogre_1_1_g_l_e_s2_render_system.html" target="_top" xlink:title="Implementation of GL ES 2.x as a rendering system. ">
<polygon fill="none" stroke="black" points="321,-0.5 321,-19.5 461,-19.5 461,-0.5 321,-0.5"/>
<text text-anchor="middle" x="391" y="-7.5" font-family="Helvetica,sans-Serif" font-size="10.00">Ogre::GLES2RenderSystem</text>
</a>
</g>
</g>
<!-- Node4&#45;&gt;Node6 -->
<g id="edge6" class="edge"><title>Node4&#45;&gt;Node6</title>
<path fill="none" stroke="midnightblue" d="M391,-45.8045C391,-36.9102 391,-26.7798 391,-19.7511"/>
<polygon fill="midnightblue" stroke="midnightblue" points="387.5,-46.083 391,-56.083 394.5,-46.083 387.5,-46.083"/>
</g>
<!-- Node7 -->
<g id="node8" class="node"><title>Node7</title>
<g id="a_node8"><a xlink:href="class_ogre_1_1_g_l_render_system.html" target="_top" xlink:title="Implementation of GL as a rendering system. ">
<polygon fill="none" stroke="black" points="479,-0.5 479,-19.5 601,-19.5 601,-0.5 479,-0.5"/>
<text text-anchor="middle" x="540" y="-7.5" font-family="Helvetica,sans-Serif" font-size="10.00">Ogre::GLRenderSystem</text>
</a>
</g>
</g>
<!-- Node4&#45;&gt;Node7 -->
<g id="edge7" class="edge"><title>Node4&#45;&gt;Node7</title>
<path fill="none" stroke="midnightblue" d="M424.371,-52.9058C452.384,-42.7536 491.696,-28.5063 516.501,-19.5164"/>
<polygon fill="midnightblue" stroke="midnightblue" points="422.819,-49.7456 414.609,-56.4435 425.204,-56.3267 422.819,-49.7456"/>
</g>
</g>
</svg>
