<?xml version="1.0" encoding="UTF-8" standalone="no"?>
<!DOCTYPE svg PUBLIC "-//W3C//DTD SVG 1.1//EN"
 "http://www.w3.org/Graphics/SVG/1.1/DTD/svg11.dtd">
<!-- Generated by graphviz version 2.38.0 (20140413.2041)
 -->
<!-- Title: Graphical Class Hierarchy Pages: 1 -->
<svg width="368pt" height="186pt"
 viewBox="0.00 0.00 368.00 186.00" xmlns="http://www.w3.org/2000/svg" xmlns:xlink="http://www.w3.org/1999/xlink">
<g id="graph0" class="graph" transform="scale(1 1) rotate(0) translate(4 182)">
<title>Graphical Class Hierarchy</title>
<!-- Node1022 -->
<g id="node1" class="node"><title>Node1022</title>
<g id="a_node1"><a xlink:href="class_ogre_1_1_g_l_s_l_program_manager_common.html" target="_top" xlink:title="Ogre assumes that there are separate programs to deal with but GLSL has one program object that repre...">
<polygon fill="none" stroke="black" points="12.5,-98.5 12.5,-128.5 155.5,-128.5 155.5,-98.5 12.5,-98.5"/>
<text text-anchor="start" x="20.5" y="-116.5" font-family="Helvetica,sans-Serif" font-size="10.00">Ogre::GLSLProgramManager</text>
<text text-anchor="middle" x="84" y="-105.5" font-family="Helvetica,sans-Serif" font-size="10.00">Common</text>
</a>
</g>
</g>
<!-- Node302 -->
<g id="node2" class="node"><title>Node302</title>
<g id="a_node2"><a xlink:href="class_ogre_1_1_g_l_s_l_1_1_g_l_s_l_link_program_manager.html" target="_top" xlink:title="Ogre::GLSL::GLSLLinkProgram\lManager">
<polygon fill="none" stroke="black" points="205,-122.5 205,-152.5 359,-152.5 359,-122.5 205,-122.5"/>
<text text-anchor="start" x="213" y="-140.5" font-family="Helvetica,sans-Serif" font-size="10.00">Ogre::GLSL::GLSLLinkProgram</text>
<text text-anchor="middle" x="282" y="-129.5" font-family="Helvetica,sans-Serif" font-size="10.00">Manager</text>
</a>
</g>
</g>
<!-- Node1022&#45;&gt;Node302 -->
<g id="edge1" class="edge"><title>Node1022&#45;&gt;Node302</title>
<path fill="none" stroke="midnightblue" d="M165.943,-123.411C178.769,-124.982 191.998,-126.602 204.713,-128.159"/>
<polygon fill="midnightblue" stroke="midnightblue" points="166.112,-119.906 155.76,-122.165 165.261,-126.854 166.112,-119.906"/>
</g>
<!-- Node304 -->
<g id="node3" class="node"><title>Node304</title>
<g id="a_node3"><a xlink:href="class_ogre_1_1_g_l_s_l_e_s_program_manager.html" target="_top" xlink:title="Ogre assumes that there are separate vertex and fragment programs to deal with but GLSL ES has one pr...">
<polygon fill="none" stroke="black" points="204,-69 204,-88 360,-88 360,-69 204,-69"/>
<text text-anchor="middle" x="282" y="-76" font-family="Helvetica,sans-Serif" font-size="10.00">Ogre::GLSLESProgramManager</text>
</a>
</g>
</g>
<!-- Node1022&#45;&gt;Node304 -->
<g id="edge2" class="edge"><title>Node1022&#45;&gt;Node304</title>
<path fill="none" stroke="midnightblue" d="M165.872,-99.0585C186.679,-95.343 208.549,-91.4377 227.572,-88.0408"/>
<polygon fill="midnightblue" stroke="midnightblue" points="164.989,-95.6607 155.76,-100.864 166.22,-102.552 164.989,-95.6607"/>
</g>
<!-- Node1 -->
<g id="node4" class="node"><title>Node1</title>
<g id="a_node4"><a xlink:href="class_ogre_1_1_g_l_s_l_program_manager.html" target="_top" xlink:title="Ogre assumes that there are separate vertex and fragment programs to deal with but GLSL has one progr...">
<polygon fill="none" stroke="black" points="210.5,-26 210.5,-45 353.5,-45 353.5,-26 210.5,-26"/>
<text text-anchor="middle" x="282" y="-33" font-family="Helvetica,sans-Serif" font-size="10.00">Ogre::GLSLProgramManager</text>
</a>
</g>
</g>
<!-- Node1022&#45;&gt;Node1 -->
<g id="edge3" class="edge"><title>Node1022&#45;&gt;Node1</title>
<path fill="none" stroke="midnightblue" d="M154.623,-94.7456C159.231,-92.8303 163.732,-90.751 168,-88.5 186.173,-78.9153 185.873,-69.1717 204,-59.5 215.242,-53.5017 228.221,-48.7353 240.282,-45.0828"/>
<polygon fill="midnightblue" stroke="midnightblue" points="153.115,-91.5759 145.053,-98.4491 155.642,-98.1041 153.115,-91.5759"/>
</g>
<!-- Node303 -->
<g id="node5" class="node"><title>Node303</title>
<g id="a_node5"><a xlink:href="class_ogre_1_1_singleton.html" target="_top" xlink:title="Ogre::Singleton\&lt; GLSLESProgram\lManager \&gt;">
<polygon fill="none" stroke="black" points="0,-49.5 0,-79.5 168,-79.5 168,-49.5 0,-49.5"/>
<text text-anchor="start" x="8" y="-67.5" font-family="Helvetica,sans-Serif" font-size="10.00">Ogre::Singleton&lt; GLSLESProgram</text>
<text text-anchor="middle" x="84" y="-56.5" font-family="Helvetica,sans-Serif" font-size="10.00">Manager &gt;</text>
</a>
</g>
</g>
<!-- Node303&#45;&gt;Node304 -->
<g id="edge4" class="edge"><title>Node303&#45;&gt;Node304</title>
<path fill="none" stroke="midnightblue" d="M178.212,-71.158C186.841,-71.7744 195.52,-72.3943 203.98,-72.9985"/>
<polygon fill="midnightblue" stroke="midnightblue" points="178.346,-67.6587 168.122,-70.4373 177.847,-74.6409 178.346,-67.6587"/>
</g>
<!-- Node301 -->
<g id="node6" class="node"><title>Node301</title>
<g id="a_node6"><a xlink:href="class_ogre_1_1_singleton.html" target="_top" xlink:title="Ogre::Singleton\&lt; GLSLLink\lProgramManager \&gt;">
<polygon fill="none" stroke="black" points="16,-147.5 16,-177.5 152,-177.5 152,-147.5 16,-147.5"/>
<text text-anchor="start" x="24" y="-165.5" font-family="Helvetica,sans-Serif" font-size="10.00">Ogre::Singleton&lt; GLSLLink</text>
<text text-anchor="middle" x="84" y="-154.5" font-family="Helvetica,sans-Serif" font-size="10.00">ProgramManager &gt;</text>
</a>
</g>
</g>
<!-- Node301&#45;&gt;Node302 -->
<g id="edge5" class="edge"><title>Node301&#45;&gt;Node302</title>
<path fill="none" stroke="midnightblue" d="M162.252,-152.646C176.254,-150.86 190.849,-148.999 204.821,-147.217"/>
<polygon fill="midnightblue" stroke="midnightblue" points="161.655,-149.194 152.178,-153.931 162.54,-156.138 161.655,-149.194"/>
</g>
<!-- Node0 -->
<g id="node7" class="node"><title>Node0</title>
<g id="a_node7"><a xlink:href="class_ogre_1_1_singleton.html" target="_top" xlink:title="Ogre::Singleton\&lt; GLSLProgram\lManager \&gt;">
<polygon fill="none" stroke="black" points="6.5,-0.5 6.5,-30.5 161.5,-30.5 161.5,-0.5 6.5,-0.5"/>
<text text-anchor="start" x="14.5" y="-18.5" font-family="Helvetica,sans-Serif" font-size="10.00">Ogre::Singleton&lt; GLSLProgram</text>
<text text-anchor="middle" x="84" y="-7.5" font-family="Helvetica,sans-Serif" font-size="10.00">Manager &gt;</text>
</a>
</g>
</g>
<!-- Node0&#45;&gt;Node1 -->
<g id="edge6" class="edge"><title>Node0&#45;&gt;Node1</title>
<path fill="none" stroke="midnightblue" d="M171.834,-24.3606C184.659,-25.6693 197.743,-27.0044 210.191,-28.2746"/>
<polygon fill="midnightblue" stroke="midnightblue" points="171.924,-20.8518 161.621,-23.3185 171.214,-27.8156 171.924,-20.8518"/>
</g>
</g>
</svg>
