/* XPM */
static char * close_xpm[] = {
"16 16 90 1",
" 	c None",
".	c #FF777A",
"+	c #FE7679",
"@	c #F86164",
"#	c #F9686A",
"$	c #F35154",
"%	c #FF7E81",
"&	c #FE7E81",
"*	c #FD7174",
"=	c #F85F62",
"-	c #FB6D6F",
";	c #FF7C7E",
">	c #FE7174",
",	c #FE7A7D",
"'	c #FF878A",
")	c #FD797C",
"!	c #FB696C",
"~	c #F85E61",
"{	c #FA6C6E",
"]	c #FF7A7D",
"^	c #F75F61",
"/	c #F04649",
"(	c #FC6B6E",
"_	c #FD7477",
":	c #FF8286",
"<	c #FC7376",
"[	c #F86264",
"}	c #F75D60",
"|	c #FA6A6D",
"1	c #FF797B",
"2	c #EF4548",
"3	c #F96366",
"4	c #FB6D70",
"5	c #FF7E80",
"6	c #FF7B7E",
"7	c #FF797C",
"8	c #FF7779",
"9	c #F75C5E",
"0	c #EF4447",
"a	c #F65A5D",
"b	c #FF797D",
"c	c #FF5B5E",
"d	c #FF585B",
"e	c #FF7476",
"f	c #EF4346",
"g	c #F75B5D",
"h	c #FF7679",
"i	c #FF5659",
"j	c #FF5457",
"k	c #FF7072",
"l	c #F04648",
"m	c #F65A5C",
"n	c #FA6467",
"o	c #FF7274",
"p	c #FF7073",
"q	c #FF6E70",
"r	c #FF6C6E",
"s	c #F75557",
"t	c #EE3D3F",
"u	c #F6595B",
"v	c #FA6366",
"w	c #FF7174",
"x	c #F6585A",
"y	c #EE4143",
"z	c #EC3C3E",
"A	c #F44D50",
"B	c #FF6768",
"C	c #F54E50",
"D	c #EB3436",
"E	c #F6585B",
"F	c #FA6265",
"G	c #FF7071",
"H	c #F65659",
"I	c #EE4042",
"J	c #E93235",
"K	c #F24547",
"L	c #FF6263",
"M	c #F4484A",
"N	c #E92D2F",
"O	c #F55658",
"P	c #FA6163",
"Q	c #F65558",
"R	c #ED3F41",
"S	c #E62A2C",
"T	c #F13F41",
"U	c #F64A4C",
"V	c #EA2F31",
"W	c #F24C4F",
"X	c #ED3E40",
"Y	c #E42224",
"                ",
"                ",
"   .+      @#$  ",
"  .%&*    =-;=  ",
"  >,')!  ~{]^/  ",
"   (_:<[}|1}2   ",
"    34567890    ",
"     abcdef     ",
"     ghijkl     ",
"    mnopqrst    ",
"   uvwxyzABCD   ",
"  EFGHI  JKLMN  ",
"  OPQR    STUV  ",
"   WX      YV   ",
"                ",
"                "};
