/* XPM */
static char * copy_xpm[] = {
"16 16 111 2",
"  	c None",
". 	c #4779C7",
"+ 	c #5586CC",
"@ 	c #5788CC",
"# 	c #5688CB",
"$ 	c #5688CC",
"% 	c #5787CB",
"& 	c #5083CA",
"* 	c #5485CA",
"= 	c #FFFFFF",
"- 	c #E9F3FD",
"; 	c #EAF3FD",
"> 	c #E8F2FC",
", 	c #E3EFFA",
"' 	c #E7F2FA",
") 	c #88BBEA",
"! 	c #5585CF",
"~ 	c #5686CB",
"{ 	c #EDF5FE",
"] 	c #C5DEFC",
"^ 	c #C7E0FB",
"/ 	c #C2DCF9",
"( 	c #B4D3F5",
"_ 	c #F3F9FE",
": 	c #C4E2FA",
"< 	c #93C1EC",
"[ 	c #487DC3",
"} 	c #5586CB",
"| 	c #F0F6FE",
"1 	c #CDE2FC",
"2 	c #CDE3FC",
"3 	c #C8DFFA",
"4 	c #BCD9F7",
"5 	c #DDE9F5",
"6 	c #EBF3FA",
"7 	c #F3F8FB",
"8 	c #6595CD",
"9 	c #F1F7FE",
"0 	c #D2E5FC",
"a 	c #D1E4FC",
"b 	c #CCE2FB",
"c 	c #C4DDF9",
"d 	c #9DC3EA",
"e 	c #96BFE6",
"f 	c #92BBE4",
"g 	c #6CA0D1",
"h 	c #6D9ED0",
"i 	c #5F96CC",
"j 	c #5486CB",
"k 	c #F2F7FF",
"l 	c #D5E7FE",
"m 	c #D1E5FD",
"n 	c #CAE0FA",
"o 	c #96BEE5",
"p 	c #FEFFFF",
"q 	c #5385CB",
"r 	c #F0F7FF",
"s 	c #D5E7FF",
"t 	c #D6E7FD",
"u 	c #D4E6FD",
"v 	c #D0E4FC",
"w 	c #93BBE4",
"x 	c #5284CA",
"y 	c #F1F7FF",
"z 	c #D9E9FF",
"A 	c #DBEAFF",
"B 	c #D7E7FF",
"C 	c #5383CA",
"D 	c #5283CC",
"E 	c #EEF5FB",
"F 	c #BBD7F6",
"G 	c #AFD1F3",
"H 	c #E4EFFA",
"I 	c #5887CC",
"J 	c #5382CF",
"K 	c #E7F1EF",
"L 	c #91BBE4",
"M 	c #C4DEF9",
"N 	c #E7F2FD",
"O 	c #5787CC",
"P 	c #4E7CC8",
"Q 	c #ECF3FC",
"R 	c #E8F1FA",
"S 	c #E7F0FA",
"T 	c #E9F1FB",
"U 	c #EAF2FB",
"V 	c #91BAE4",
"W 	c #CBE3FB",
"X 	c #C2DCFA",
"Y 	c #E8F3FE",
"Z 	c #5686CC",
"` 	c #4A79C7",
" .	c #4B79C8",
"..	c #4575C8",
"+.	c #4575C7",
"@.	c #D2E5FF",
"#.	c #CBE2FF",
"$.	c #5585CB",
"%.	c #EFF6FB",
"&.	c #5583CC",
"*.	c #E8F2EF",
"=.	c #5681CE",
"-.	c #4979C7",
";.	c #EBF2FB",
">.	c #EEF4FD",
",.	c #5480CA",
"'.	c #4273C5",
").	c #4575C6",
"!.	c #4675C8",
"~.	c #4474C5",
"{.	c #537FCA",
". + @ # $ % &                   ",
"* = - ; > , ' ) !               ",
"~ { ] ^ / ( _ : < [             ",
"} | 1 2 3 4 5 6 7 8             ",
"} 9 0 a b c d e f f g h i       ",
"j k l l m n o p - ; > , ' ) !   ",
"q r s t u v w { ] ^ / ( _ : < [ ",
"x y z A z B f | 1 2 3 4 5 6 7 C ",
"D E z A z B f 9 0 a b c F G H I ",
"J K z A z B L k l l m n M 4 N O ",
"P Q R S T U V r s t u v W X Y Z ",
"`  ...+...+.x y z A z B @.#.y $.",
"            D E z A z B @.#.%.&.",
"            J K z A z B @.#.*.=.",
"            -.Q R S T U U ;.>.,.",
"            '.)...+...+.+.!.~.{."};
