/* XPM */
static char * cut_xpm[] = {
"16 16 74 1",
" 	c None",
".	c #3E7BA7",
"+	c #87AECB",
"@	c #9DBCD5",
"#	c #4C85AE",
"$	c #AEC8DE",
"%	c #93B6D1",
"&	c #6797BB",
"*	c #C0D4E6",
"=	c #99B9D3",
"-	c #97B8D3",
";	c #5087AF",
">	c #CEDEED",
",	c #8FB3CE",
"'	c #C3D6E7",
")	c #548AB2",
"!	c #D3E2F1",
"~	c #8EB3CF",
"{	c #DCE9F5",
"]	c #598FB6",
"^	c #DDE9F5",
"/	c #B4CDE2",
"(	c #6194B9",
"_	c #32699D",
":	c #427EB1",
"<	c #2C689E",
"[	c #6797BC",
"}	c #D0E0F0",
"|	c #5F91B6",
"1	c #60AADC",
"2	c #549ED0",
"3	c #65B3EA",
"4	c #99BAD8",
"5	c #E1EBF8",
"6	c #5789AE",
"7	c #326A9C",
"8	c #5EA5D6",
"9	c #60ADE4",
"0	c #9BBDDC",
"a	c #A5CDEF",
"b	c #67B7EF",
"c	c #5DA6D8",
"d	c #4A8ABE",
"e	c #417EA8",
"f	c #326E96",
"g	c #66B0E7",
"h	c #74A2CA",
"i	c #67B1E5",
"j	c #2D5E94",
"k	c #4D8DB8",
"l	c #3B70AF",
"m	c #4482B5",
"n	c #5AA4D6",
"o	c #4182AE",
"p	c #66B6EC",
"q	c #366EA7",
"r	c #376CAC",
"s	c #5195C4",
"t	c #4078B7",
"u	c #5197C7",
"v	c #5AA6D8",
"w	c #366CA6",
"x	c #3568A8",
"y	c #57A0D1",
"z	c #366A8E",
"A	c #3F75B4",
"B	c #2F5E9F",
"C	c #63B2E7",
"D	c #4F92BF",
"E	c #62ABDD",
"F	c #3262A2",
"G	c #3161A0",
"H	c #3F76B6",
"I	c #3465A4",
"        .       ",
"        +       ",
"        @    #  ",
"        $   %&  ",
"        *  =-   ",
"       ;> ,'    ",
"       )!~{     ",
"       ]^/(     ",
"    _:<[}|      ",
"   :123456      ",
"  78  90abc     ",
"  de fghijkl    ",
"  mnopqrs  t    ",
"   uvw xy zA    ",
"       BCDEF    ",
"        GHI     "};
