/* XPM */
static char * material_xpm[] = {
"16 16 159 2",
"  	c None",
". 	c #D4935F",
"+ 	c #D1915C",
"@ 	c #CF8F59",
"# 	c #CC8D55",
"$ 	c #D59461",
"% 	c #DCA477",
"& 	c #E4B992",
"* 	c #ECCAA9",
"= 	c #ECC7A6",
"- 	c #E2B68E",
"; 	c #D29B69",
"> 	c #C3844A",
", 	c #D59460",
"' 	c #E3B78F",
") 	c #F3D7BA",
"! 	c #FBD55E",
"~ 	c #FFD52B",
"{ 	c #FBD142",
"] 	c #F2D2B4",
"^ 	c #F1D0B2",
"/ 	c #E2B993",
"( 	c #CC9663",
"_ 	c #B97C3E",
": 	c #D69562",
"< 	c #E1AF86",
"[ 	c #F9B35B",
"} 	c #FFA42C",
"| 	c #FBAA41",
"1 	c #FED331",
"2 	c #FFE26D",
"3 	c #FFD52C",
"4 	c #E8B180",
"5 	c #E7AE7D",
"6 	c #EFCAAA",
"7 	c #EDC6A6",
"8 	c #B67838",
"9 	c #E1B087",
"0 	c #FEA733",
"a 	c #FFC06D",
"b 	c #F0BF67",
"c 	c #FBCE3B",
"d 	c #F1BF5B",
"e 	c #A1B453",
"f 	c #7AB83C",
"g 	c #91B448",
"h 	c #EEC8A8",
"i 	c #D6A678",
"j 	c #AF7230",
"k 	c #D2925D",
"l 	c #F5A593",
"m 	c #F65B5A",
"n 	c #F48752",
"o 	c #FBA73C",
"p 	c #F2AC5D",
"q 	c #E7B07F",
"r 	c #E7AE7C",
"s 	c #E6AB79",
"t 	c #81B740",
"u 	c #98C861",
"v 	c #7BB83C",
"w 	c #E7AD7E",
"x 	c #E3B690",
"y 	c #AB6F2B",
"z 	c #E5BA93",
"A 	c #F6756F",
"B 	c #F58582",
"C 	c #F04141",
"D 	c #EBBC91",
"E 	c #F0CDAF",
"F 	c #F0CCAD",
"G 	c #F0CAAB",
"H 	c #E9B386",
"I 	c #C2AA5F",
"J 	c #8EB445",
"K 	c #B7A957",
"L 	c #E4A271",
"M 	c #E8BB98",
"N 	c #A76B26",
"O 	c #CE8E58",
"P 	c #EDC9A9",
"Q 	c #EDA885",
"R 	c #ED6B59",
"S 	c #E98F6B",
"T 	c #F0CDAE",
"U 	c #D29E6E",
"V 	c #BA7D3F",
"W 	c #CE9A68",
"X 	c #EEC6A6",
"Y 	c #6A9B96",
"Z 	c #2798AE",
"` 	c #4E989E",
" .	c #E29C67",
"..	c #EABC99",
"+.	c #A36822",
"@.	c #CB8B53",
"#.	c #F0CFB1",
"$.	c #ECC099",
"%.	c #E7AF7F",
"&.	c #EFCAAB",
"*.	c #B47736",
"=.	c #EDC4A3",
"-.	c #3298A9",
";.	c #5BB6C5",
">.	c #2798AD",
",.	c #DF945C",
"'.	c #EBBC99",
").	c #A0651D",
"!.	c #C7884F",
"~.	c #CF9865",
"{.	c #D9A97C",
"].	c #E2B58E",
"^.	c #EDC5A4",
"/.	c #EEC7A8",
"(.	c #CD9865",
"_.	c #B37635",
":.	c #C99460",
"<.	c #EDC1A0",
"[.	c #A49779",
"}.	c #49979F",
"|.	c #92957D",
"1.	c #E9B48E",
"2.	c #D8A67A",
"3.	c #9D6219",
"4.	c #BD7F42",
"5.	c #B87A3B",
"6.	c #D7A577",
"7.	c #EDC3A2",
"8.	c #EDC09E",
"9.	c #E4A475",
"0.	c #DF935B",
"a.	c #DE9159",
"b.	c #E6A87C",
"c.	c #E8B793",
"d.	c #B88044",
"e.	c #B17432",
"f.	c #ECC09E",
"g.	c #E29D6A",
"h.	c #DF9259",
"i.	c #E09560",
"j.	c #EAB996",
"k.	c #E1AE87",
"l.	c #BC844A",
"m.	c #995F14",
"n.	c #AD702D",
"o.	c #D19E6E",
"p.	c #EBBD9A",
"q.	c #E3A172",
"r.	c #EABA97",
"s.	c #EAB995",
"t.	c #CA9461",
"u.	c #9A6016",
"v.	c #A66B25",
"w.	c #DCA97F",
"x.	c #C99360",
"y.	c #AC7331",
"z.	c #9A6015",
"A.	c #9E631A",
"B.	c #9B6117",
"              . + @ #           ",
"          $ % & * = - ; >       ",
"        , ' ) ! ~ { ] ^ / ( _   ",
"    : < [ } | 1 2 3 4 5 6 7 8   ",
"  $ 9 ) 0 a } b c d e f g h i j ",
"  k l m n o p q r s t u v w x y ",
"+ z A B C D E F G H I J K L M N ",
"O P Q R S T U V W X Y Z `  ...+.",
"@.E #.$.%.&._   *.=.-.;.>.,.'.).",
"!.~.{.].^./.(._.:.<.[.}.|.1.2.3.",
"    4.V 5.6.7.<.8.9.0.a.b.c.d.  ",
"          e.f.g.,.h.i.j.k.l.m.  ",
"          n.o.p.q.r.s.t.u.      ",
"            v.k.w.x.y.z.        ",
"              ).A.B.            ",
"                                "};
