/* XPM */
static char * material_script_xpm[] = {
"16 16 185 2",
"  	c None",
". 	c #5FACE2",
"+ 	c #81BCEA",
"@ 	c #77B7E8",
"# 	c #6DB2E6",
"$ 	c #68B0E4",
"% 	c #8CC0EA",
"& 	c #FFFFFF",
"* 	c #F4F9FD",
"= 	c #EAF3FB",
"- 	c #D9EBF8",
"; 	c #D3E6F8",
"> 	c #C6DFF5",
", 	c #A6CBE9",
"' 	c #5DA8DE",
") 	c #5BA4DA",
"! 	c #94B5D1",
"~ 	c #C0AC9A",
"{ 	c #AF8E75",
"] 	c #AF8F74",
"^ 	c #B8A79A",
"/ 	c #DADBDD",
"( 	c #F1F8FD",
"_ 	c #F7FAFD",
": 	c #FAFCFF",
"< 	c #F7FBFE",
"[ 	c #C0DAF4",
"} 	c #6E7E88",
"| 	c #A6866D",
"1 	c #CBA37D",
"2 	c #E2BD7C",
"3 	c #E2BC8A",
"4 	c #CEA581",
"5 	c #B48E6A",
"6 	c #B9B4AC",
"7 	c #E2EDF9",
"8 	c #E4F0FC",
"9 	c #70A0E0",
"0 	c #F9FBFF",
"a 	c #87B8DF",
"b 	c #957151",
"c 	c #BF9061",
"d 	c #EAAD66",
"e 	c #FCCF63",
"f 	c #FFE23C",
"g 	c #FDDC44",
"h 	c #EEC0A0",
"i 	c #ECC6A5",
"j 	c #CA9F73",
"k 	c #B8BBBC",
"l 	c #DBEAFC",
"m 	c #FDFFFF",
"n 	c #719DD2",
"o 	c #C1D9EE",
"p 	c #559AD0",
"q 	c #926D4C",
"r 	c #CEA184",
"s 	c #F9B974",
"t 	c #FAB243",
"u 	c #F7B145",
"v 	c #FCD948",
"w 	c #F1D446",
"x 	c #8EB945",
"y 	c #97BC4E",
"z 	c #E6BA96",
"A 	c #B1A087",
"B 	c #D0E5FA",
"C 	c #FDFEFF",
"D 	c #5A8FCB",
"E 	c #5294CA",
"F 	c #AC7D57",
"G 	c #F67467",
"H 	c #F56859",
"I 	c #F6B052",
"J 	c #F5B865",
"K 	c #EEBD9E",
"L 	c #D3AD71",
"M 	c #91BB44",
"N 	c #97B645",
"O 	c #EBB289",
"P 	c #BC9D75",
"Q 	c #C8E1FB",
"R 	c #FBFDFF",
"S 	c #5794C8",
"T 	c #B38462",
"U 	c #F57767",
"V 	c #F36E5D",
"W 	c #E8BDA0",
"X 	c #C19972",
"Y 	c #CEA076",
"Z 	c #CEB699",
"` 	c #3D9CA8",
" .	c #4899A2",
"..	c #EEA97B",
"+.	c #BE9A6D",
"@.	c #C9E0FB",
"#.	c #538DC1",
"$.	c #B28561",
"%.	c #E1BD9E",
"&.	c #EDC29C",
"*.	c #DBB28E",
"=.	c #9F876E",
"-.	c #AB8662",
";.	c #BCB19A",
">.	c #349CB6",
",.	c #3F98AA",
"'.	c #EEAA79",
").	c #BE996A",
"!.	c #CBE2FB",
"~.	c #F5F9FC",
"{.	c #4782B7",
"].	c #946E49",
"^.	c #A27851",
"/.	c #B0845C",
"(.	c #E2B791",
"_.	c #D5A77D",
":.	c #DAAA7F",
"<.	c #E2A477",
"[.	c #AB8963",
"}.	c #CAA27F",
"|.	c #E1AF82",
"1.	c #A8A08B",
"2.	c #D4E7FB",
"3.	c #E2EDF5",
"4.	c #437BB1",
"5.	c #5D7A98",
"6.	c #B58A5E",
"7.	c #EDBC98",
"8.	c #E49D6B",
"9.	c #E49561",
"0.	c #F0A777",
"a.	c #DEA777",
"b.	c #AD9979",
"c.	c #B5C9E0",
"d.	c #DEEBFD",
"e.	c #CDDCEC",
"f.	c #4075AA",
"g.	c #3C6FA4",
"h.	c #8CAED5",
"i.	c #B3A593",
"j.	c #D2A578",
"k.	c #E8B18A",
"l.	c #DDAB7F",
"m.	c #C69A6A",
"n.	c #A39D89",
"o.	c #B8CEE1",
"p.	c #CCE4FA",
"q.	c #ECF5FD",
"r.	c #BACEE2",
"s.	c #39699E",
"t.	c #5985B4",
"u.	c #789CC7",
"v.	c #9B8D74",
"w.	c #AD916B",
"x.	c #7F8484",
"y.	c #5F83AC",
"z.	c #598FD4",
"A.	c #578ED3",
"B.	c #699DE2",
"C.	c #D1E3FA",
"D.	c #A2BBD8",
"E.	c #366499",
"F.	c #85A4C7",
"G.	c #FCFEFF",
"H.	c #F1F7FE",
"I.	c #F1F6FE",
"J.	c #86AEE4",
"K.	c #DBE8FA",
"L.	c #95AFCE",
"M.	c #6D90B8",
"N.	c #A3BAD6",
"O.	c #B3C6DF",
"P.	c #C3D4E7",
"Q.	c #D3DFEE",
"R.	c #E2EAF5",
"S.	c #EFF4FB",
"T.	c #F6FAFD",
"U.	c #DFEBFB",
"V.	c #E6EFFB",
"W.	c #809DC1",
"X.	c #315B90",
"Y.	c #396195",
"Z.	c #41699A",
"`.	c #4F74A3",
" +	c #5F82AD",
"      . + @ # $ . . . . . .     ",
"      % & & & & * = - ; > , '   ",
"    ) ! ~ { ] ^ / ( _ : & < [ ) ",
"    } | 1 2 3 4 5 6 7 8 & 9 0 a ",
"  b c d e f g h i j k l m n o p ",
"q r s t u v w x y z A B C D E   ",
"F G H I J K L M N O P Q R S     ",
"T U V W X Y Z `  ...+.@.: #.    ",
"$.%.&.*.=.-.;.>.,.'.).!.~.{.    ",
"].^./.(._.:.<.[.}.|.1.2.3.4.    ",
"    5.6.7.8.9.0.a.b.c.d.e.f.    ",
"  g.h.i.j.k.l.m.n.o.p.q.r.g.    ",
"  s.t.u.v.w.x.y.z.A.B.C.D.s.    ",
"E.F.& & & & G.< H.I.J.K.L.E.    ",
"  M.N.O.P.Q.R.S.T.C U.V.W.      ",
"  X.X.X.X.X.X.X.Y.Z.`. +X.      "};
