/* XPM */
static char * ogre_xpm[] = {
"16 16 170 2",
"  	c None",
". 	c #75A53F",
"+ 	c #5B8F2B",
"@ 	c #69922C",
"# 	c #58882C",
"$ 	c #77AA41",
"% 	c #6CA539",
"& 	c #599429",
"* 	c #599622",
"= 	c #4A8A22",
"- 	c #3C6C20",
"; 	c #3F7724",
"> 	c #33691D",
", 	c #305B08",
"' 	c #6B9C35",
") 	c #659227",
"! 	c #275405",
"~ 	c #324F08",
"{ 	c #0F2C00",
"] 	c #0F2E00",
"^ 	c #3F7022",
"/ 	c #357018",
"( 	c #488630",
"_ 	c #306716",
": 	c #A2752E",
"< 	c #58881F",
"[ 	c #3A5E08",
"} 	c #AF7741",
"| 	c #FFAA56",
"1 	c #F1A76E",
"2 	c #29510D",
"3 	c #2E5911",
"4 	c #336914",
"5 	c #549027",
"6 	c #305811",
"7 	c #375607",
"8 	c #295903",
"9 	c #376B0F",
"0 	c #4F771F",
"a 	c #336711",
"b 	c #4D8626",
"c 	c #5D862E",
"d 	c #527822",
"e 	c #355B0D",
"f 	c #4F7F29",
"g 	c #659B30",
"h 	c #6B9E35",
"i 	c #589227",
"j 	c #609C37",
"k 	c #599730",
"l 	c #599427",
"m 	c #70A235",
"n 	c #70A03E",
"o 	c #59861F",
"p 	c #608627",
"q 	c #B3C89E",
"r 	c #5D9230",
"s 	c #7FAF4F",
"t 	c #6CA230",
"u 	c #569427",
"v 	c #67A035",
"w 	c #4F8A22",
"x 	c #5D9422",
"y 	c #77AA3F",
"z 	c #5E9435",
"A 	c #AECE59",
"B 	c #FFFF07",
"C 	c #96B17A",
"D 	c #62923F",
"E 	c #649C37",
"F 	c #6BA037",
"G 	c #529232",
"H 	c #518F26",
"I 	c #629929",
"J 	c #649732",
"K 	c #56832E",
"L 	c #C2DEAF",
"M 	c #FFFFD5",
"N 	c #5E883E",
"O 	c #4A8130",
"P 	c #548D30",
"Q 	c #5B9235",
"R 	c #6EA043",
"S 	c #5B9432",
"T 	c #468120",
"U 	c #5E9026",
"V 	c #5B8A2C",
"W 	c #4B7D24",
"X 	c #3E6B18",
"Y 	c #94B183",
"Z 	c #FFFFFF",
"` 	c #4B7F2B",
" .	c #6BAA45",
"..	c #83BB54",
"+.	c #709235",
"@.	c #78AC46",
"#.	c #70A943",
"$.	c #69A02C",
"%.	c #83B34B",
"&.	c #8BBD58",
"*.	c #4A811F",
"=.	c #457A1B",
"-.	c #A3C188",
";.	c #A2B86C",
">.	c #1B3C07",
",.	c #3E6E1F",
"'.	c #518A27",
").	c #69A23E",
"!.	c #75993A",
"~.	c #67A043",
"{.	c #6E9E3F",
"].	c #77A046",
"^.	c #6B993C",
"/.	c #5E9430",
"(.	c #569624",
"_.	c #649E39",
":.	c #D5F4AE",
"<.	c #92B65E",
"[.	c #082200",
"}.	c #22480F",
"|.	c #2B560D",
"1.	c #35620F",
"2.	c #48711F",
"3.	c #3C711D",
"4.	c #5B8433",
"5.	c #527826",
"6.	c #4F8127",
"7.	c #528429",
"8.	c #417513",
"9.	c #588F2B",
"0.	c #468322",
"a.	c #3F701B",
"b.	c #3A601D",
"c.	c #0A2600",
"d.	c #052200",
"e.	c #082700",
"f.	c #1A3900",
"g.	c #204A0F",
"h.	c #304B0A",
"i.	c #3C601A",
"j.	c #305B16",
"k.	c #335E18",
"l.	c #325D13",
"m.	c #336013",
"n.	c #26520A",
"o.	c #143900",
"p.	c #0A2700",
"q.	c #0C2E00",
"r.	c #2E4A14",
"s.	c #294B0D",
"t.	c #334B0D",
"u.	c #203F07",
"v.	c #1B3500",
"w.	c #274F08",
"x.	c #27520D",
"y.	c #0D2C00",
"z.	c #052000",
"A.	c #001800",
"B.	c #000F00",
"C.	c #000D00",
"D.	c #000800",
"E.	c #032000",
"F.	c #1D3903",
"G.	c #182C00",
"H.	c #264807",
"I.	c #1B4303",
"J.	c #001100",
"K.	c #000C00",
"L.	c #011400",
"M.	c #001600",
"            . + @               ",
"        # $ % & * = -     ; >   ",
"        , ' ) ! ~ { ] ^ / ( _   ",
"        : < [ } | 1 2 3 4 5     ",
"        6 7 8 9 0 a b c d e     ",
"      f g h i j k l m n o p     ",
"    q r s t u v w x y z A B     ",
"    C D E F G H I t J K L M     ",
"  N O P Q R S T U V W X Y Z     ",
"  `  ...+.@.#.$.%.&.*.=.-.Z ;.  ",
">.,.'.).!.~.{.].J ^./.(._.:.<.  ",
"[.}.|.1.2.3.4.5.6.7.8.9.0.a.b.  ",
"c.d.e.{ f.g.h.i.j.k.l.m.n.o.p.  ",
"  q.r.s.t.u.v.w.x.y.c.z.A.B.C.  ",
"    D.E.F.c.G.H.I.J.J.K.        ",
"        L.K.K.M.B.              "};
