/* XPM */
static char * pass_xpm[] = {
"16 16 102 2",
"  	c None",
". 	c #74C768",
"+ 	c #73C668",
"@ 	c #71C265",
"# 	c #6EBE62",
"$ 	c #6ABA5F",
"% 	c #65B55C",
"& 	c #61AF58",
"* 	c #5CA953",
"= 	c #57A34F",
"- 	c #4D9746",
"; 	c #73C667",
"> 	c #42883B",
", 	c #6EC063",
"' 	c #72C567",
") 	c #70C164",
"! 	c #6CBD61",
"~ 	c #68B95D",
"{ 	c #64B45A",
"] 	c #60AE56",
"^ 	c #59A650",
"/ 	c #56A24D",
"( 	c #509A47",
"_ 	c #4E9746",
": 	c #499141",
"< 	c #6ABB5F",
"[ 	c #64B259",
"} 	c #60AE57",
"| 	c #5DAB54",
"1 	c #5AA751",
"2 	c #509947",
"3 	c #478E40",
"4 	c #478F40",
"5 	c #65B55B",
"6 	c #6FC164",
"7 	c #65B45A",
"8 	c #61AF57",
"9 	c #5EAB54",
"0 	c #5AA651",
"a 	c #56A14C",
"b 	c #519B49",
"c 	c #4A9343",
"d 	c #479040",
"e 	c #41873B",
"f 	c #41873A",
"g 	c #3B8035",
"h 	c #6BBC60",
"i 	c #62B058",
"j 	c #59A651",
"k 	c #55A04C",
"l 	c #509A48",
"m 	c #4B9443",
"n 	c #458B3D",
"o 	c #3B7F35",
"p 	c #3A7F34",
"q 	c #357830",
"r 	c #58A34E",
"s 	c #66B65C",
"t 	c #5BA852",
"u 	c #57A34E",
"v 	c #529D4A",
"w 	c #4D9745",
"x 	c #489041",
"y 	c #438A3C",
"z 	c #3E8337",
"A 	c #35782F",
"B 	c #34772F",
"C 	c #2F712A",
"D 	c #549F4C",
"E 	c #59A54F",
"F 	c #549E4B",
"G 	c #4E9846",
"H 	c #489142",
"I 	c #438A3D",
"J 	c #3E8438",
"K 	c #397D33",
"L 	c #2F7029",
"M 	c #2E6F29",
"N 	c #2A6A25",
"O 	c #5BA751",
"P 	c #4B9444",
"Q 	c #468E3F",
"R 	c #3C8136",
"S 	c #377A31",
"T 	c #32752D",
"U 	c #296925",
"V 	c #256421",
"W 	c #4F9947",
"X 	c #4A9242",
"Y 	c #458C3D",
"Z 	c #3F8539",
"` 	c #30722B",
" .	c #2C6D27",
"..	c #286824",
"+.	c #246320",
"@.	c #215F1D",
"#.	c #3E8338",
"$.	c #2B6B26",
"%.	c #276623",
"&.	c #236220",
"*.	c #205E1D",
"=.	c #1E5B1A",
"                                ",
"                                ",
"                                ",
"    . + @ # $ % & * = -         ",
"    ;                     >     ",
"    ,   ; ' ) ! ~ { ] ^ / ( _ : ",
"    <   ;   [ } | 1 / 2 _ 3 4 > ",
"    5   6 7 8 9 0 a b c d e f g ",
"    ]   h i 9 j k l m n f o p q ",
"    r   s t u v w x y z o A B C ",
"    D   8 E F G H I J K B L M N ",
"    _ : O b P Q e R S T M U U V ",
"        D W X Y Z p q `  ...+.@.",
"        _ : y #.K B C $.%.&.*.=.",
"                                ",
"                                "};
