/* XPM */
static char * paste_xpm[] = {
"16 16 157 2",
"  	c None",
". 	c #986320",
"+ 	c #A47537",
"@ 	c #FEEFB6",
"# 	c #F3DB80",
"$ 	c #A16E2E",
"% 	c #E0C994",
"& 	c #F2E2AE",
"* 	c #DF9D4E",
"= 	c #FDEEB5",
"- 	c #F0D475",
"; 	c #DE9B4B",
"> 	c #E9CB8E",
", 	c #E8CA8D",
"' 	c #F2E1B0",
") 	c #E2BD79",
"! 	c #DD9844",
"~ 	c #DC9744",
"{ 	c #DC9643",
"] 	c #DC9642",
"^ 	c #DC9542",
"/ 	c #DB9541",
"( 	c #D49E53",
"_ 	c #E6C689",
": 	c #F1DDAA",
"< 	c #E0B974",
"[ 	c #DFB670",
"} 	c #DDB36C",
"| 	c #DCB26B",
"1 	c #84AFD9",
"2 	c #81AED7",
"3 	c #7FACD7",
"4 	c #70A0CC",
"5 	c #719FCD",
"6 	c #678FB3",
"7 	c #5688CB",
"8 	c #EFDAA5",
"9 	c #DEB56F",
"0 	c #DCB068",
"a 	c #D9A960",
"b 	c #D9A95F",
"c 	c #81ADD7",
"d 	c #FEFFFF",
"e 	c #E9F3FD",
"f 	c #EAF3FD",
"g 	c #E8F2FC",
"h 	c #E3EFFA",
"i 	c #E7F2FA",
"j 	c #88BBEA",
"k 	c #5989CE",
"l 	c #EDD69E",
"m 	c #DCAF66",
"n 	c #DAAA60",
"o 	c #EDF5FE",
"p 	c #C5DEFC",
"q 	c #C7E0FB",
"r 	c #C2DCF9",
"s 	c #B4D3F5",
"t 	c #F3F9FE",
"u 	c #C4E2FA",
"v 	c #93C1EC",
"w 	c #5788CB",
"x 	c #EBD298",
"y 	c #DAAE65",
"z 	c #D9AA60",
"A 	c #D8A65D",
"B 	c #D7A55C",
"C 	c #F0F6FE",
"D 	c #CDE2FC",
"E 	c #CDE3FC",
"F 	c #C8DFFA",
"G 	c #BCD9F7",
"H 	c #DDE9F5",
"I 	c #EBF3FA",
"J 	c #F3F8FB",
"K 	c #5383CA",
"L 	c #E9CD91",
"M 	c #D8A55D",
"N 	c #D6A05A",
"O 	c #D69F59",
"P 	c #81ADD8",
"Q 	c #F1F7FE",
"R 	c #D2E5FC",
"S 	c #D1E4FC",
"T 	c #CCE2FB",
"U 	c #C4DDF9",
"V 	c #BBD7F6",
"W 	c #AFD1F3",
"X 	c #E4EFFA",
"Y 	c #5887CC",
"Z 	c #E7C98B",
"` 	c #D5A059",
" .	c #D39C57",
"..	c #D39A56",
"+.	c #F2F7FF",
"@.	c #D5E7FE",
"#.	c #D1E5FD",
"$.	c #CAE0FA",
"%.	c #C4DEF9",
"&.	c #E7F2FD",
"*.	c #5787CC",
"=.	c #E6C488",
"-.	c #D39B56",
";.	c #D19753",
">.	c #D19553",
",.	c #F0F7FF",
"'.	c #D5E7FF",
").	c #D6E7FD",
"!.	c #D4E6FD",
"~.	c #D0E4FC",
"{.	c #CBE3FB",
"].	c #C2DCFA",
"^.	c #E8F3FE",
"/.	c #5686CC",
"(.	c #E2BF84",
"_.	c #CF9250",
":.	c #CF9150",
"<.	c #7DA9D6",
"[.	c #F1F7FF",
"}.	c #D9E9FF",
"|.	c #DBEAFF",
"1.	c #D7E7FF",
"2.	c #D2E5FF",
"3.	c #CBE2FF",
"4.	c #5585CB",
"5.	c #E1B980",
"6.	c #D09250",
"7.	c #CE8E4E",
"8.	c #CD8C4D",
"9.	c #EEF5FB",
"0.	c #EFF6FB",
"a.	c #5583CC",
"b.	c #D8AD74",
"c.	c #DDB27B",
"d.	c #DCAE78",
"e.	c #DAAA75",
"f.	c #DAA974",
"g.	c #7DA9DA",
"h.	c #E7F1EF",
"i.	c #E8F2EF",
"j.	c #5681CE",
"k.	c #678FC9",
"l.	c #ECF3FC",
"m.	c #E8F1FA",
"n.	c #E7F0FA",
"o.	c #E9F1FB",
"p.	c #EAF2FB",
"q.	c #EBF2FB",
"r.	c #EEF4FD",
"s.	c #5480CA",
"t.	c #4273C5",
"u.	c #4575C6",
"v.	c #4575C8",
"w.	c #4575C7",
"x.	c #4675C8",
"y.	c #4474C5",
"z.	c #537FCA",
"      . . . . . .               ",
"  . . + @ # # @ $ . .           ",
". % & * = - - = ; > , .         ",
". ' ) ! ~ { ] ^ / ( _ .         ",
". : < [ } | 1 2 3 3 4 5 6 7     ",
". 8 9 0 a b c d e f g h i j k   ",
". l | m n b 1 o p q r s t u v w ",
". x y z A B 1 C D E F G H I J K ",
". L b M N O P Q R S T U V W X Y ",
". Z B `  ...3 +.@.@.#.$.%.G &.*.",
". =.O -.;.>.3 ,.'.).!.~.{.].^./.",
". (...;._.:.<.[.}.|.}.1.2.3.[.4.",
". 5.>.6.7.8.<.9.}.|.}.1.2.3.0.a.",
". b.c.d.e.f.g.h.}.|.}.1.2.3.i.j.",
"  . . . . . k.l.m.n.o.p.p.q.r.s.",
"            t.u.v.w.v.w.w.x.y.z."};
