/* XPM */
static char * program_script_xpm[] = {
"16 16 175 2",
"  	c None",
". 	c #5FACE2",
"+ 	c #81BCEA",
"@ 	c #77B7E8",
"# 	c #6DB2E6",
"$ 	c #68B0E4",
"% 	c #8CC0EA",
"& 	c #FFFFFF",
"* 	c #F4F9FD",
"= 	c #EAF3FB",
"- 	c #D9EBF8",
"; 	c #D3E6F8",
"> 	c #C6DFF5",
", 	c #A6CBE9",
"' 	c #5DA8DE",
") 	c #5BA4DA",
"! 	c #9AC6EB",
"~ 	c #E2EFFC",
"{ 	c #E7F0FD",
"] 	c #EBF1FD",
"^ 	c #EEF5FD",
"/ 	c #F1F8FD",
"( 	c #F7FAFD",
"_ 	c #FAFCFF",
": 	c #F7FBFE",
"< 	c #C0DAF4",
"[ 	c #589FD5",
"} 	c #A5CAEB",
"| 	c #FBFDFF",
"1 	c #D5E9FD",
"2 	c #D8EBFD",
"3 	c #DBEAFD",
"4 	c #DFEDFD",
"5 	c #E2F0FD",
"6 	c #E4F1FD",
"7 	c #E4F0FC",
"8 	c #70A0E0",
"9 	c #F9FBFF",
"0 	c #87B8DF",
"a 	c #559AD0",
"b 	c #B2D0ED",
"c 	c #F0F6FF",
"d 	c #CAE1FA",
"e 	c #CCE3FB",
"f 	c #D0E3FB",
"g 	c #D3E6FB",
"h 	c #D5E9FB",
"i 	c #D8E9FC",
"j 	c #DBEAFC",
"k 	c #FDFFFF",
"l 	c #719DD2",
"m 	c #C1D9EE",
"n 	c #5294CA",
"o 	c #C1D9F0",
"p 	c #E1EDFB",
"q 	c #C0DAF9",
"r 	c #C2DCF9",
"s 	c #C5DEF9",
"t 	c #C7E0FA",
"u 	c #CAE2FA",
"v 	c #CDE2FA",
"w 	c #D0E5FA",
"x 	c #FDFEFF",
"y 	c #5A8FCB",
"z 	c #4E8EC4",
"A 	c #D8E7F5",
"B 	c #D2E5FA",
"C 	c #BCDAF9",
"D 	c #BCDBF9",
"E 	c #BFDBFA",
"F 	c #C1DDFA",
"G 	c #B8B9BA",
"H 	c #B4B4B4",
"I 	c #5794C8",
"J 	c #4B88BD",
"K 	c #F0F6FC",
"L 	c #C7DFF9",
"M 	c #BDDCF9",
"N 	c #BFDCFA",
"O 	c #C0CEDE",
"P 	c #BBBCBD",
"Q 	c #C0D5EC",
"R 	c #C0C0C0",
"S 	c #BEBEBE",
"T 	c #E6E7E9",
"U 	c #9DA4AA",
"V 	c #A0A2A4",
"W 	c #4B85B9",
"X 	c #C1DCF9",
"Y 	c #BFDCF8",
"Z 	c #BABABA",
"` 	c #DADADA",
" .	c #BFBFBF",
"..	c #D6D6D6",
"+.	c #D8D8D8",
"@.	c #B8B8B8",
"#.	c #D4D4D4",
"$.	c #888888",
"%.	c #5286B9",
"&.	c #F9FCFE",
"*.	c #BFDCF9",
"=.	c #BFDBF8",
"-.	c #C0DCF8",
";.	c #BBC7D5",
">.	c #D2D2D2",
",.	c #ABABAB",
"'.	c #818181",
").	c #8A8A8A",
"!.	c #CACACA",
"~.	c #939393",
"{.	c #5686B7",
"].	c #FDFEFE",
"^.	c #C2DEFA",
"/.	c #E8E8E8",
"(.	c #868686",
"_.	c #C3DCFA",
":.	c #DEEBFD",
"<.	c #989999",
"[.	c #E2E2E2",
"}.	c #B6B6B6",
"|.	c #878787",
"1.	c #3C6FA4",
"2.	c #8CAED5",
"3.	c #E5F0FD",
"4.	c #A2C7F7",
"5.	c #ADCFF7",
"6.	c #A5A5A5",
"7.	c #B7B7B7",
"8.	c #E1E1E1",
"9.	c #9C9C9C",
"0.	c #CCE4FA",
"a.	c #ECF5FD",
"b.	c #97989A",
"c.	c #D5D5D5",
"d.	c #999999",
"e.	c #656565",
"f.	c #39699E",
"g.	c #5985B4",
"h.	c #7BA5D9",
"i.	c #6F9ED8",
"j.	c #6A9BD7",
"k.	c #6897D4",
"l.	c #8099B9",
"m.	c #C9C9C9",
"n.	c #BDBDBD",
"o.	c #96989B",
"p.	c #98999A",
"q.	c #B5B5B5",
"r.	c #C2C2C2",
"s.	c #6D6D6D",
"t.	c #366499",
"u.	c #85A4C7",
"v.	c #FCFEFF",
"w.	c #A0A0A0",
"x.	c #A1A1A1",
"y.	c #C4C4C4",
"z.	c #6D90B8",
"A.	c #A3BAD6",
"B.	c #B3C6DF",
"C.	c #C3D4E7",
"D.	c #D3DFEE",
"E.	c #E2EAF5",
"F.	c #B0B2B4",
"G.	c #696969",
"H.	c #D6D7D8",
"I.	c #A2A2A2",
"J.	c #8B8B8B",
"K.	c #778AA2",
"L.	c #5D5D5D",
"M.	c #595959",
"N.	c #315B90",
"O.	c #396195",
"P.	c #41699A",
"Q.	c #727272",
"R.	c #5C5C5C",
"      . + @ # $ . . . . . .     ",
"      % & & & & * = - ; > , '   ",
"    ) ! & ~ { ] ^ / ( _ & : < ) ",
"    [ } | 1 2 3 4 5 6 7 & 8 9 0 ",
"    a b c d e f g h i j k l m a ",
"    n o p q r s t u v w x y n   ",
"    z A B C D E F F G H | I     ",
"    J K L M N O P Q R S T U V   ",
"    W : X Y Y Z `  ...+.@.#.$.  ",
"    %.&.*.=.-.;.>.,.'.).H !.~.  ",
"    {.].^.N H !./.(._.:.<.[.}.|.",
"  1.2.3.4.5.6.7.8.9.0.a.b.c.d.e.",
"  f.g.h.i.j.k.l.m.n.o.p.q.r.s.  ",
"t.u.& & & & v.w.m.6.!.r.x.y.s.  ",
"  z.A.B.C.D.E.F.G.H.I.J.K.L.M.  ",
"  N.N.N.N.N.N.N.O.P.Q.R.N.      "};
