/* XPM */
static char * project_save_xpm[] = {
"16 16 158 2",
"  	c None",
". 	c #BABABA",
"+ 	c #B8B8B8",
"@ 	c #B7B7B7",
"# 	c #B6B6B6",
"$ 	c #B4B4B4",
"% 	c #B3B3B3",
"& 	c #BBBBBB",
"* 	c #D0D0D0",
"= 	c #E8E8E8",
"- 	c #F3F3F3",
"; 	c #FDFDFD",
"> 	c #FCFCFC",
", 	c #EDEDED",
"' 	c #E0E0E0",
") 	c #C2C2C2",
"! 	c #ADADAD",
"~ 	c #E1E1E1",
"{ 	c #FEFEFE",
"] 	c #FFFFFF",
"^ 	c #FBFBFB",
"/ 	c #CFCFCF",
"( 	c #A9A9A9",
"_ 	c #B9B9B9",
": 	c #F8F8F8",
"< 	c #EAEAEA",
"[ 	c #A7A7A7",
"} 	c #F7F7F7",
"| 	c #E7E7E7",
"1 	c #EFEFEF",
"2 	c #F6F6F6",
"3 	c #FAFAFA",
"4 	c #F0F0F0",
"5 	c #DEDEDE",
"6 	c #C3C3C3",
"7 	c #E6E6E6",
"8 	c #A5A5A5",
"9 	c #B5B5B5",
"0 	c #EBEBEB",
"a 	c #D6D6D6",
"b 	c #D5D5D5",
"c 	c #D1D1D1",
"d 	c #BCBCBC",
"e 	c #C0C0C0",
"f 	c #E5E5E5",
"g 	c #A3A3A3",
"h 	c #F5F5F5",
"i 	c #EEEEEE",
"j 	c #E2E2E2",
"k 	c #6E97D4",
"l 	c #7B9ED4",
"m 	c #7198D0",
"n 	c #82A4D6",
"o 	c #688ECD",
"p 	c #6990CD",
"q 	c #759AD0",
"r 	c #7399D1",
"s 	c #628BC8",
"t 	c #B2B2B2",
"u 	c #F4F4F4",
"v 	c #DDDDDD",
"w 	c #E3E3E3",
"x 	c #658DCC",
"y 	c #B0CDF3",
"z 	c #B3C7E3",
"A 	c #A1BFEA",
"B 	c #6089C9",
"C 	c #B0B0B0",
"D 	c #D9D9D9",
"E 	c #5B86C7",
"F 	c #9EC0EF",
"G 	c #6E93CC",
"H 	c #F7FBFF",
"I 	c #F1F8FF",
"J 	c #8CAFE4",
"K 	c #618AC7",
"L 	c #AEAEAE",
"M 	c #F2F2F2",
"N 	c #D8D8D8",
"O 	c #DCDCDC",
"P 	c #5D88C8",
"Q 	c #A1BFEF",
"R 	c #FAFCFD",
"S 	c #FBFCFE",
"T 	c #FDFDFE",
"U 	c #FCFDFE",
"V 	c #FAFBFD",
"W 	c #FBFCFD",
"X 	c #85A8DD",
"Y 	c #537FC1",
"Z 	c #ACACAC",
"` 	c #D4D4D4",
" .	c #D2D2D2",
"..	c #DBDBDB",
"+.	c #658DCA",
"@.	c #99B8EA",
"#.	c #7EA5DD",
"$.	c #80A6DD",
"%.	c #7CA3DB",
"&.	c #7AA0D9",
"*.	c #79A0D9",
"=.	c #789FD8",
"-.	c #789ED8",
";.	c #5D84BF",
">.	c #618BC9",
",.	c #92B5E6",
"'.	c #81A7E2",
").	c #81A7E1",
"!.	c #7DA3DE",
"~.	c #7BA1DC",
"{.	c #799FDB",
"].	c #779ED9",
"^.	c #739AD4",
"/.	c #577EBB",
"(.	c #CECECE",
"_.	c #5481C4",
":.	c #97B6EA",
"<.	c #EAF3F3",
"[.	c #E6F1ED",
"}.	c #E6F1EF",
"|.	c #E6F0EF",
"1.	c #E5F1ED",
"2.	c #EDF5F3",
"3.	c #799CD5",
"4.	c #4470B0",
"5.	c #A1A1A1",
"6.	c #9F9F9F",
"7.	c #ABABAB",
"8.	c #517FC3",
"9.	c #9AB6EF",
"0.	c #E8F3EA",
"a.	c #84BF51",
"b.	c #98C96F",
"c.	c #99C971",
"d.	c #84BF54",
"e.	c #E9F4E4",
"f.	c #7B9CDD",
"g.	c #3A69AA",
"h.	c #5583C6",
"i.	c #BACEEF",
"j.	c #FFFFDD",
"k.	c #C7EE87",
"l.	c #D7F4A2",
"m.	c #D7F6A2",
"n.	c #C7EE8C",
"o.	c #FFFFE0",
"p.	c #85A2DD",
"q.	c #3E6AAB",
"r.	c #3368BA",
"s.	c #5884C3",
"t.	c #688BD3",
"u.	c #708FE1",
"v.	c #6C8DDC",
"w.	c #6D8BDA",
"x.	c #6E8AD7",
"y.	c #6C8BCD",
"z.	c #446DAB",
"A.	c #2E5FA6",
"      . + @ # $ %               ",
"  & * = - ; > , ' ) !           ",
". ~ { ] ] ] ] ] ] ^ / (         ",
"_ : { ] ] ] ] ] ] ^ < [         ",
"@ } | 1 2 ^ 3 4 5 6 7 8         ",
"9 2 0 5 a b c 6 d e f g         ",
"$ h i 7 j 7 k l m n o p q r s   ",
"t u < ~ v w x y ] z ] ] ] ] A B ",
"C - | v D ' E F ] G ] ] H I J K ",
"L M j N b O P Q R S T U V W X Y ",
"Z 4 5 `  ...+.@.#.$.%.&.*.=.-.;.",
"( 5 - .. ...>.,.'.).!.~.{.].^./.",
"  8 (., u h _.:.<.[.}.|.1.2.3.4.",
"    5.6.5.7.8.9.0.a.b.c.d.e.f.g.",
"            h.i.j.k.l.m.n.o.p.q.",
"            r.s.t.u.v.w.x.y.z.A."};
