/* XPM */
static char * shader_xpm[] = {
"16 16 172 2",
"  	c None",
". 	c #5FACE2",
"+ 	c #81BCEA",
"@ 	c #77B7E8",
"# 	c #6DB2E6",
"$ 	c #68B0E4",
"% 	c #8CC0EA",
"& 	c #FFFFFF",
"* 	c #F4F9FD",
"= 	c #EAF3FB",
"- 	c #D9EBF8",
"; 	c #D3E6F8",
"> 	c #C6DFF5",
", 	c #A6CBE9",
"' 	c #5DA8DE",
") 	c #5BA4DA",
"! 	c #9AC6EB",
"~ 	c #E2EFFC",
"{ 	c #E7F0FD",
"] 	c #EBF1FD",
"^ 	c #EEF5FD",
"/ 	c #F1F8FD",
"( 	c #F7FAFD",
"_ 	c #FAFCFF",
": 	c #F7FBFE",
"< 	c #C0DAF4",
"[ 	c #589FD5",
"} 	c #9EC6EA",
"| 	c #FBFDFF",
"1 	c #D5E9FD",
"2 	c #D8EBFD",
"3 	c #DBEAFD",
"4 	c #DFEDFD",
"5 	c #E2F0FD",
"6 	c #E4F1FD",
"7 	c #E4F0FC",
"8 	c #70A0E0",
"9 	c #F9FBFF",
"0 	c #87B8DF",
"a 	c #5298D1",
"b 	c #60A9E7",
"c 	c #61AEE8",
"d 	c #CAE1FA",
"e 	c #64B6EC",
"f 	c #69B1EB",
"g 	c #C9E1F9",
"h 	c #D5E9FB",
"i 	c #D8E9FC",
"j 	c #DBEAFC",
"k 	c #FDFFFF",
"l 	c #719DD2",
"m 	c #C1D9EE",
"n 	c #559AD0",
"o 	c #4A9AE0",
"p 	c #72B6EB",
"q 	c #62A7E8",
"r 	c #C0DAF9",
"s 	c #62B0EB",
"t 	c #76BBEC",
"u 	c #64AAEA",
"v 	c #BFDBF8",
"w 	c #CDE2FA",
"x 	c #D0E5FA",
"y 	c #FDFEFF",
"z 	c #5A8FCB",
"A 	c #5294CA",
"B 	c #5BABE9",
"C 	c #71B5EA",
"D 	c #60A4E7",
"E 	c #C0D9F6",
"F 	c #BCDAF9",
"G 	c #ADD2F6",
"H 	c #5EA9E9",
"I 	c #5BA7E8",
"J 	c #8EB7EE",
"K 	c #C8E1FB",
"L 	c #5794C8",
"M 	c #57A7E7",
"N 	c #79B8EC",
"O 	c #58A5E5",
"P 	c #C7DAF4",
"Q 	c #C7DFF9",
"R 	c #BDDCF9",
"S 	c #BFDCFA",
"T 	c #A3C7F4",
"U 	c #5AA6E6",
"V 	c #75B2E9",
"W 	c #579DE4",
"X 	c #C5DDFA",
"Y 	c #538DC1",
"Z 	c #559FE5",
"` 	c #6AAAE8",
" .	c #5F9CE4",
"..	c #B0CFF5",
"+.	c #BFDCF8",
"@.	c #AFD1F5",
"#.	c #5A9EE5",
"$.	c #559BE3",
"%.	c #8AB1EC",
"&.	c #CBE2FB",
"*.	c #F5F9FC",
"=.	c #4782B7",
"-.	c #4281D4",
";.	c #65A3E5",
">.	c #558FE1",
",.	c #599CE5",
"'.	c #68A8E7",
").	c #5B95E2",
"!.	c #B6D4F6",
"~.	c #C3DDFA",
"{.	c #D4E7FB",
"].	c #E2EDF5",
"^.	c #437BB1",
"/.	c #5383B8",
"(.	c #6595E1",
"_.	c #528EE0",
":.	c #5698E2",
"<.	c #5A92E2",
"[.	c #B7D5F7",
"}.	c #C0DBFA",
"|.	c #C3DCFA",
"1.	c #DEEBFD",
"2.	c #CDDCEC",
"3.	c #4075AA",
"4.	c #3C6FA4",
"5.	c #8CAED5",
"6.	c #E5F0FD",
"7.	c #A2C7F7",
"8.	c #ADCFF7",
"9.	c #B5D5F9",
"0.	c #BDDAF8",
"a.	c #C2DEF8",
"b.	c #C6E1FA",
"c.	c #CCE4FA",
"d.	c #ECF5FD",
"e.	c #BACEE2",
"f.	c #39699E",
"g.	c #5985B4",
"h.	c #7BA5D9",
"i.	c #6F9ED8",
"j.	c #6A9BD7",
"k.	c #6396D8",
"l.	c #5D92D6",
"m.	c #598FD4",
"n.	c #578ED3",
"o.	c #699DE2",
"p.	c #D1E3FA",
"q.	c #A2BBD8",
"r.	c #366499",
"s.	c #85A4C7",
"t.	c #FCFEFF",
"u.	c #F1F7FE",
"v.	c #F1F6FE",
"w.	c #86AEE4",
"x.	c #DBE8FA",
"y.	c #95AFCE",
"z.	c #6D90B8",
"A.	c #A3BAD6",
"B.	c #B3C6DF",
"C.	c #C3D4E7",
"D.	c #D3DFEE",
"E.	c #E2EAF5",
"F.	c #EFF4FB",
"G.	c #F6FAFD",
"H.	c #DFEBFB",
"I.	c #E6EFFB",
"J.	c #809DC1",
"K.	c #315B90",
"L.	c #396195",
"M.	c #41699A",
"N.	c #4F74A3",
"O.	c #5F82AD",
"      . + @ # $ . . . . . .     ",
"      % & & & & * = - ; > , '   ",
"    ) ! & ~ { ] ^ / ( _ & : < ) ",
"    [ } | 1 2 3 4 5 6 7 & 8 9 0 ",
"    a b c d e f g h i j k l m n ",
"    o p q r s t u v w x y z A   ",
"  B C D E F G H C I J K | L     ",
"M N O P Q R S T U V W X _ Y     ",
"  Z `  ...+.@.#.` $.%.&.*.=.    ",
"    -.;.>.v ,.'.).!.~.{.].^.    ",
"    /.(._.S :.<.[.}.|.1.2.3.    ",
"  4.5.6.7.8.9.0.a.b.c.d.e.4.    ",
"  f.g.h.i.j.k.l.m.n.o.p.q.f.    ",
"r.s.& & & & t.: u.v.w.x.y.r.    ",
"  z.A.B.C.D.E.F.G.y H.I.J.      ",
"  K.K.K.K.K.K.K.L.M.N.O.K.      "};
