/* XPM */
static char * technique_xpm[] = {
"16 16 37 1",
" 	c None",
".	c #717171",
"+	c #828282",
"@	c #9F9F9F",
"#	c #9D9D9D",
"$	c #7E7E7E",
"%	c #818181",
"&	c #6B99D2",
"*	c #85B2E7",
"=	c #95BBEB",
"-	c #8CB6E9",
";	c #6A9FE2",
">	c #9E9E9E",
",	c #878787",
"'	c #727376",
")	c #88B0E1",
"!	c #679EE2",
"~	c #619AE0",
"{	c #5996E0",
"]	c #5A96E0",
"^	c #94B8E3",
"/	c #74A6E3",
"(	c #80AEE6",
"_	c #80AEE7",
":	c #81AEE6",
"<	c #88B3E7",
"[	c #72A5E3",
"}	c #90B8E8",
"|	c #5F99E0",
"1	c #92B9EA",
"2	c #4B84D9",
"3	c #91B8E9",
"4	c #518DDA",
"5	c #87B2E7",
"6	c #6EA3E2",
"7	c #79AAE5",
"8	c #78AAE3",
"         .      ",
"        . .     ",
"        +.      ",
"       @        ",
"     #@         ",
"    $%&*=-;     ",
"   >,')!~{~]    ",
"   @ ^          ",
" .+ /(          ",
". . (_          ",
" .  :<          ",
"    [}          ",
"    |1          ",
"    234         ",
"     56         ",
"     78         "};
