/* XPM */
static char * workspace_xpm[] = {
"16 16 90 1",
" 	c None",
".	c #8DB1DD",
"+	c #7BA7DC",
"@	c #7AA6DC",
"#	c #7AA4DA",
"$	c #79A2D8",
"%	c #76A0D5",
"&	c #759ED4",
"*	c #739DD2",
"=	c #729ACF",
"-	c #7099CE",
";	c #6F96CB",
">	c #6C94C9",
",	c #7A9AC4",
"'	c #85ACDD",
")	c #92B9E8",
"!	c #6F90C1",
"~	c #668BC0",
"{	c #7AA4DB",
"]	c #FFFFFF",
"^	c #6387BD",
"/	c #79A3D9",
"(	c #F9FBFC",
"_	c #F8FBFC",
":	c #F7F9FB",
"<	c #F4F7FB",
"[	c #F2F7FA",
"}	c #F0F5F9",
"|	c #EDF3F7",
"1	c #EAEFF6",
"2	c #E7EBF5",
"3	c #E4EAF3",
"4	c #DEE7F2",
"5	c #6085BA",
"6	c #FAFDFD",
"7	c #FAFCFC",
"8	c #F6FAFB",
"9	c #F5F8FB",
"0	c #F1F6FB",
"a	c #EEF4F8",
"b	c #EBF2F7",
"c	c #EAF0F7",
"d	c #E8ECF6",
"e	c #5E81B7",
"f	c #FCFDFD",
"g	c #FBFDFD",
"h	c #F9FCFC",
"i	c #F7FBFC",
"j	c #F5F9FB",
"k	c #F4F8FB",
"l	c #F3F7FB",
"m	c #F2F5FB",
"n	c #EFF3FA",
"o	c #ECF2F8",
"p	c #5C7EB5",
"q	c #FCFEFE",
"r	c #F9FDFD",
"s	c #F8FCFC",
"t	c #F2F7FB",
"u	c #5A7CB2",
"v	c #739CD1",
"w	c #F8FDFD",
"x	c #F9FBFB",
"y	c #F7FAFB",
"z	c #587AB0",
"A	c #6F97CC",
"B	c #FCFFFF",
"C	c #FDFFFF",
"D	c #FBFEFE",
"E	c #F7FCFC",
"F	c #F6FBFB",
"G	c #5475AC",
"H	c #6E94CA",
"I	c #FEFFFF",
"J	c #FDFEFE",
"K	c #FAFEFE",
"L	c #5373AA",
"M	c #6C92C8",
"N	c #5172A9",
"O	c #5171A9",
"P	c #688EC3",
"Q	c #6488BE",
"R	c #6185BB",
"S	c #5F83B9",
"T	c #5C7EB4",
"U	c #587BB1",
"V	c #5779AE",
"W	c #5676AD",
"X	c #5475AB",
"Y	c #5373A9",
"                ",
" .+@#$%&*=-;>,  ",
"')))))))))))))! ",
"++++++++++++++~ ",
"{]]]]]]]]]]]]]^ ",
"/](_:<[}|1234]5 ",
"$]67(89<0abcd]e ",
"%]fg6hijklmno]p ",
"&]qgfgrs:jktm]u ",
"v]qqqgg6wxy8k]z ",
"A]BCqqD6666EF]G ",
"H]]ICJqqqqKKh]L ",
"M]]]]]]]]]]]]]N ",
"OP~QRSTuUVWXYOO ",
"                ",
"                "};
