<?xml version="1.0" encoding="UTF-8" standalone="no"?>
<!DOCTYPE svg PUBLIC "-//W3C//DTD SVG 1.1//EN"
 "http://www.w3.org/Graphics/SVG/1.1/DTD/svg11.dtd">
<!-- Generated by graphviz version 2.40.1 (20161225.0304)
 -->
<!-- Title: Ogre::v1::HardwareBufferManager Pages: 1 -->
<svg width="609pt" height="333pt"
 viewBox="0.00 0.00 609.00 333.00" xmlns="http://www.w3.org/2000/svg" xmlns:xlink="http://www.w3.org/1999/xlink">
<g id="graph0" class="graph" transform="scale(1 1) rotate(0) translate(4 329)">
<title>Ogre::v1::HardwareBufferManager</title>
<!-- Node0 -->
<g id="node1" class="node">
<title>Node0</title>
<polygon fill="#bfbfbf" stroke="#000000" points="272,-147.5 272,-177.5 400,-177.5 400,-147.5 272,-147.5"/>
<text text-anchor="start" x="280" y="-165.5" font-family="Helvetica,sans-Serif" font-size="10.00" fill="#000000">Ogre::v1::HardwareBuffer</text>
<text text-anchor="middle" x="336" y="-154.5" font-family="Helvetica,sans-Serif" font-size="10.00" fill="#000000">Manager</text>
</g>
<!-- Node4 -->
<g id="node5" class="node">
<title>Node4</title>
<g id="a_node5"><a xlink:href="class_ogre_1_1v1_1_1_d3_d11_hardware_buffer_manager.html" target="_top" xlink:title="D3D11HardwareBufferManagerBase as a Singleton. ">
<polygon fill="none" stroke="#000000" points="439,-294.5 439,-324.5 598,-324.5 598,-294.5 439,-294.5"/>
<text text-anchor="start" x="447" y="-312.5" font-family="Helvetica,sans-Serif" font-size="10.00" fill="#000000">Ogre::v1::D3D11HardwareBuffer</text>
<text text-anchor="middle" x="518.5" y="-301.5" font-family="Helvetica,sans-Serif" font-size="10.00" fill="#000000">Manager</text>
</a>
</g>
</g>
<!-- Node0&#45;&gt;Node4 -->
<g id="edge4" class="edge">
<title>Node0&#45;&gt;Node4</title>
<path fill="none" stroke="#191970" d="M349.3963,-186.6009C366.1092,-214.4729 397.2614,-259.8065 436,-285.5 441.221,-288.9628 446.9495,-291.9354 452.8784,-294.4854"/>
<polygon fill="#191970" stroke="#191970" points="352.3612,-184.7374 344.2919,-177.8716 346.3184,-188.2709 352.3612,-184.7374"/>
</g>
<!-- Node5 -->
<g id="node6" class="node">
<title>Node5</title>
<g id="a_node6"><a xlink:href="class_ogre_1_1v1_1_1_default_hardware_buffer_manager.html" target="_top" xlink:title="DefaultHardwareBufferManager as a Singleton. ">
<polygon fill="none" stroke="#000000" points="451.5,-245.5 451.5,-275.5 585.5,-275.5 585.5,-245.5 451.5,-245.5"/>
<text text-anchor="start" x="459.5" y="-263.5" font-family="Helvetica,sans-Serif" font-size="10.00" fill="#000000">Ogre::v1::DefaultHardware</text>
<text text-anchor="middle" x="518.5" y="-252.5" font-family="Helvetica,sans-Serif" font-size="10.00" fill="#000000">BufferManager</text>
</a>
</g>
</g>
<!-- Node0&#45;&gt;Node5 -->
<g id="edge5" class="edge">
<title>Node0&#45;&gt;Node5</title>
<path fill="none" stroke="#191970" d="M360.1716,-184.2449C379.4872,-200.6256 407.8914,-222.5707 436,-236.5 442.8164,-239.8779 450.1912,-242.8624 457.6314,-245.4763"/>
<polygon fill="#191970" stroke="#191970" points="362.3347,-181.4885 352.4773,-177.6048 357.7613,-186.788 362.3347,-181.4885"/>
</g>
<!-- Node6 -->
<g id="node7" class="node">
<title>Node6</title>
<g id="a_node7"><a xlink:href="class_ogre_1_1v1_1_1_g_l3_plus_default_hardware_buffer_manager.html" target="_top" xlink:title="GL3PlusDefaultHardwareBufferManagerBase as a Singleton. ">
<polygon fill="none" stroke="#000000" points="454,-196.5 454,-226.5 583,-226.5 583,-196.5 454,-196.5"/>
<text text-anchor="start" x="462" y="-214.5" font-family="Helvetica,sans-Serif" font-size="10.00" fill="#000000">Ogre::v1::GL3PlusDefault</text>
<text text-anchor="middle" x="518.5" y="-203.5" font-family="Helvetica,sans-Serif" font-size="10.00" fill="#000000">HardwareBufferManager</text>
</a>
</g>
</g>
<!-- Node0&#45;&gt;Node6 -->
<g id="edge6" class="edge">
<title>Node0&#45;&gt;Node6</title>
<path fill="none" stroke="#191970" d="M402.104,-180.2485C421.8834,-185.5591 443.3725,-191.3288 462.4406,-196.4484"/>
<polygon fill="#191970" stroke="#191970" points="402.8107,-176.8143 392.2452,-177.6014 400.9955,-183.5749 402.8107,-176.8143"/>
</g>
<!-- Node7 -->
<g id="node8" class="node">
<title>Node7</title>
<g id="a_node8"><a xlink:href="class_ogre_1_1v1_1_1_g_l3_plus_hardware_buffer_manager.html" target="_top" xlink:title="GL3PlusHardwareBufferManagerBase as a Singleton. ">
<polygon fill="none" stroke="#000000" points="448.5,-147.5 448.5,-177.5 588.5,-177.5 588.5,-147.5 448.5,-147.5"/>
<text text-anchor="start" x="456.5" y="-165.5" font-family="Helvetica,sans-Serif" font-size="10.00" fill="#000000">Ogre::v1::GL3PlusHardware</text>
<text text-anchor="middle" x="518.5" y="-154.5" font-family="Helvetica,sans-Serif" font-size="10.00" fill="#000000">BufferManager</text>
</a>
</g>
</g>
<!-- Node0&#45;&gt;Node7 -->
<g id="edge7" class="edge">
<title>Node0&#45;&gt;Node7</title>
<path fill="none" stroke="#191970" d="M410.1015,-162.5C422.7357,-162.5 435.8249,-162.5 448.3526,-162.5"/>
<polygon fill="#191970" stroke="#191970" points="410.0861,-159.0001 400.0861,-162.5 410.086,-166.0001 410.0861,-159.0001"/>
</g>
<!-- Node8 -->
<g id="node9" class="node">
<title>Node8</title>
<g id="a_node9"><a xlink:href="class_ogre_1_1v1_1_1_g_l_e_s2_default_hardware_buffer_manager.html" target="_top" xlink:title="GLES2DefaultHardwareBufferManagerBase as a Singleton. ">
<polygon fill="none" stroke="#000000" points="436,-98.5 436,-128.5 601,-128.5 601,-98.5 436,-98.5"/>
<text text-anchor="start" x="444" y="-116.5" font-family="Helvetica,sans-Serif" font-size="10.00" fill="#000000">Ogre::v1::GLES2DefaultHardware</text>
<text text-anchor="middle" x="518.5" y="-105.5" font-family="Helvetica,sans-Serif" font-size="10.00" fill="#000000">BufferManager</text>
</a>
</g>
</g>
<!-- Node0&#45;&gt;Node8 -->
<g id="edge8" class="edge">
<title>Node0&#45;&gt;Node8</title>
<path fill="none" stroke="#191970" d="M402.104,-144.7515C421.8834,-139.4409 443.3725,-133.6712 462.4406,-128.5516"/>
<polygon fill="#191970" stroke="#191970" points="400.9955,-141.4251 392.2452,-147.3986 402.8107,-148.1857 400.9955,-141.4251"/>
</g>
<!-- Node9 -->
<g id="node10" class="node">
<title>Node9</title>
<g id="a_node10"><a xlink:href="class_ogre_1_1v1_1_1_g_l_e_s2_hardware_buffer_manager.html" target="_top" xlink:title="GLES2HardwareBufferManagerBase as a Singleton. ">
<polygon fill="none" stroke="#000000" points="438.5,-49.5 438.5,-79.5 598.5,-79.5 598.5,-49.5 438.5,-49.5"/>
<text text-anchor="start" x="446.5" y="-67.5" font-family="Helvetica,sans-Serif" font-size="10.00" fill="#000000">Ogre::v1::GLES2HardwareBuffer</text>
<text text-anchor="middle" x="518.5" y="-56.5" font-family="Helvetica,sans-Serif" font-size="10.00" fill="#000000">Manager</text>
</a>
</g>
</g>
<!-- Node0&#45;&gt;Node9 -->
<g id="edge9" class="edge">
<title>Node0&#45;&gt;Node9</title>
<path fill="none" stroke="#191970" d="M360.1716,-140.7551C379.4872,-124.3744 407.8914,-102.4293 436,-88.5 442.8164,-85.1221 450.1912,-82.1376 457.6314,-79.5237"/>
<polygon fill="#191970" stroke="#191970" points="357.7613,-138.212 352.4773,-147.3952 362.3347,-143.5115 357.7613,-138.212"/>
</g>
<!-- Node10 -->
<g id="node11" class="node">
<title>Node10</title>
<g id="a_node11"><a xlink:href="class_ogre_1_1v1_1_1_metal_hardware_buffer_manager.html" target="_top" xlink:title="MetalHardwareBufferManagerBase as a Singleton. ">
<polygon fill="none" stroke="#000000" points="442.5,-.5 442.5,-30.5 594.5,-30.5 594.5,-.5 442.5,-.5"/>
<text text-anchor="start" x="450.5" y="-18.5" font-family="Helvetica,sans-Serif" font-size="10.00" fill="#000000">Ogre::v1::MetalHardwareBuffer</text>
<text text-anchor="middle" x="518.5" y="-7.5" font-family="Helvetica,sans-Serif" font-size="10.00" fill="#000000">Manager</text>
</a>
</g>
</g>
<!-- Node0&#45;&gt;Node10 -->
<g id="edge10" class="edge">
<title>Node0&#45;&gt;Node10</title>
<path fill="none" stroke="#191970" d="M349.3963,-138.3991C366.1092,-110.5271 397.2614,-65.1935 436,-39.5 441.221,-36.0372 446.9495,-33.0646 452.8784,-30.5146"/>
<polygon fill="#191970" stroke="#191970" points="346.3184,-136.7291 344.2919,-147.1284 352.3612,-140.2626 346.3184,-136.7291"/>
</g>
<!-- Node1 -->
<g id="node2" class="node">
<title>Node1</title>
<g id="a_node2"><a xlink:href="class_ogre_1_1v1_1_1_hardware_buffer_manager_base.html" target="_top" xlink:title="Base definition of a hardware buffer manager. ">
<polygon fill="none" stroke="#000000" points="104.5,-172.5 104.5,-202.5 232.5,-202.5 232.5,-172.5 104.5,-172.5"/>
<text text-anchor="start" x="112.5" y="-190.5" font-family="Helvetica,sans-Serif" font-size="10.00" fill="#000000">Ogre::v1::HardwareBuffer</text>
<text text-anchor="middle" x="168.5" y="-179.5" font-family="Helvetica,sans-Serif" font-size="10.00" fill="#000000">ManagerBase</text>
</a>
</g>
</g>
<!-- Node1&#45;&gt;Node0 -->
<g id="edge1" class="edge">
<title>Node1&#45;&gt;Node0</title>
<path fill="none" stroke="#191970" d="M242.8056,-176.4096C252.5061,-174.9618 262.3778,-173.4884 271.8912,-172.0685"/>
<polygon fill="#191970" stroke="#191970" points="242.1546,-172.9679 232.7808,-177.9058 243.188,-179.8912 242.1546,-172.9679"/>
</g>
<!-- Node2 -->
<g id="node3" class="node">
<title>Node2</title>
<g id="a_node3"><a xlink:href="class_ogre_1_1_allocated_object.html" target="_top" xlink:title="Superclass for all objects that wish to use custom memory allocators when their new / delete operator...">
<polygon fill="none" stroke="#000000" points="0,-178 0,-197 65,-197 65,-178 0,-178"/>
<text text-anchor="middle" x="32.5" y="-185" font-family="Helvetica,sans-Serif" font-size="10.00" fill="#000000">BufferAlloc</text>
</a>
</g>
</g>
<!-- Node2&#45;&gt;Node1 -->
<g id="edge2" class="edge">
<title>Node2&#45;&gt;Node1</title>
<path fill="none" stroke="#191970" d="M75.2119,-187.5C84.5066,-187.5 94.5364,-187.5 104.4536,-187.5"/>
<polygon fill="#191970" stroke="#191970" points="75.0754,-184.0001 65.0754,-187.5 75.0754,-191.0001 75.0754,-184.0001"/>
</g>
<!-- Node3 -->
<g id="node4" class="node">
<title>Node3</title>
<g id="a_node4"><a xlink:href="class_ogre_1_1_singleton.html" target="_top" xlink:title="Ogre::Singleton\&lt; Hardware\lBufferManager \&gt;">
<polygon fill="none" stroke="#000000" points="101,-123.5 101,-153.5 236,-153.5 236,-123.5 101,-123.5"/>
<text text-anchor="start" x="109" y="-141.5" font-family="Helvetica,sans-Serif" font-size="10.00" fill="#000000">Ogre::Singleton&lt; Hardware</text>
<text text-anchor="middle" x="168.5" y="-130.5" font-family="Helvetica,sans-Serif" font-size="10.00" fill="#000000">BufferManager &gt;</text>
</a>
</g>
</g>
<!-- Node3&#45;&gt;Node0 -->
<g id="edge3" class="edge">
<title>Node3&#45;&gt;Node0</title>
<path fill="none" stroke="#191970" d="M246.1883,-149.6315C254.7953,-150.8647 263.4881,-152.1102 271.9005,-153.3156"/>
<polygon fill="#191970" stroke="#191970" points="246.5412,-146.1464 236.1458,-148.1925 245.5483,-153.0756 246.5412,-146.1464"/>
</g>
</g>
</svg>
