<?xml version="1.0" encoding="UTF-8" standalone="no"?>
<!DOCTYPE svg PUBLIC "-//W3C//DTD SVG 1.1//EN"
 "http://www.w3.org/Graphics/SVG/1.1/DTD/svg11.dtd">
<!-- Generated by graphviz version 2.40.1 (20161225.0304)
 -->
<!-- Title: Ogre::D3D9StereoDriverAMD Pages: 1 -->
<svg width="469pt" height="151pt"
 viewBox="0.00 0.00 468.50 151.00" xmlns="http://www.w3.org/2000/svg" xmlns:xlink="http://www.w3.org/1999/xlink">
<g id="graph0" class="graph" transform="scale(1 1) rotate(0) translate(4 147)">
<title>Ogre::D3D9StereoDriverAMD</title>
<!-- Node0 -->
<g id="node1" class="node">
<title>Node0</title>
<polygon fill="#bfbfbf" stroke="#000000" points="154,-.5 154,-19.5 312,-19.5 312,-.5 154,-.5"/>
<text text-anchor="middle" x="233" y="-7.5" font-family="Helvetica,sans-Serif" font-size="10.00" fill="#000000">Ogre::D3D9StereoDriverAMD</text>
</g>
<!-- Node1 -->
<g id="node2" class="node">
<title>Node1</title>
<g id="a_node2"><a xlink:href="class_ogre_1_1_d3_d9_stereo_driver_impl.html" target="_top" xlink:title="Virtual interface of the stereo driver. ">
<polygon fill="none" stroke="#000000" points="0,-62 0,-81 156,-81 156,-62 0,-62"/>
<text text-anchor="middle" x="78" y="-69" font-family="Helvetica,sans-Serif" font-size="10.00" fill="#000000">Ogre::D3D9StereoDriverImpl</text>
</a>
</g>
</g>
<!-- Node1&#45;&gt;Node0 -->
<g id="edge1" class="edge">
<title>Node1&#45;&gt;Node0</title>
<path fill="none" stroke="#191970" d="M111.6521,-58.1477C141.0024,-46.5023 182.8577,-29.8952 208.9513,-19.5419"/>
<polygon fill="#191970" stroke="#191970" points="110.223,-54.9492 102.2188,-61.8906 112.8047,-61.4558 110.223,-54.9492"/>
</g>
<!-- Node2 -->
<g id="node3" class="node">
<title>Node2</title>
<g id="a_node3"><a xlink:href="class_ogre_1_1_allocated_object.html" target="_top" xlink:title="Superclass for all objects that wish to use custom memory allocators when their new / delete operator...">
<polygon fill="none" stroke="#000000" points="35,-123.5 35,-142.5 121,-142.5 121,-123.5 35,-123.5"/>
<text text-anchor="middle" x="78" y="-130.5" font-family="Helvetica,sans-Serif" font-size="10.00" fill="#000000">ResourceAlloc</text>
</a>
</g>
</g>
<!-- Node2&#45;&gt;Node1 -->
<g id="edge2" class="edge">
<title>Node2&#45;&gt;Node1</title>
<path fill="none" stroke="#191970" d="M78,-113.2462C78,-102.5519 78,-89.814 78,-81.2449"/>
<polygon fill="#191970" stroke="#191970" points="74.5001,-113.3906 78,-123.3906 81.5001,-113.3907 74.5001,-113.3906"/>
</g>
<!-- Node3 -->
<g id="node4" class="node">
<title>Node3</title>
<g id="a_node4"><a xlink:href="class_ogre_1_1_render_system_1_1_listener.html" target="_top" xlink:title="Defines a listener on the custom events that this render system can raise. ">
<polygon fill="none" stroke="#000000" points="174.5,-56.5 174.5,-86.5 291.5,-86.5 291.5,-56.5 174.5,-56.5"/>
<text text-anchor="start" x="182.5" y="-74.5" font-family="Helvetica,sans-Serif" font-size="10.00" fill="#000000">Ogre::RenderSystem</text>
<text text-anchor="middle" x="233" y="-63.5" font-family="Helvetica,sans-Serif" font-size="10.00" fill="#000000">::Listener</text>
</a>
</g>
</g>
<!-- Node3&#45;&gt;Node0 -->
<g id="edge3" class="edge">
<title>Node3&#45;&gt;Node0</title>
<path fill="none" stroke="#191970" d="M233,-46.2849C233,-36.9858 233,-26.9883 233,-19.8469"/>
<polygon fill="#191970" stroke="#191970" points="229.5001,-46.2977 233,-56.2977 236.5001,-46.2978 229.5001,-46.2977"/>
</g>
<!-- Node4 -->
<g id="node5" class="node">
<title>Node4</title>
<g id="a_node5"><a xlink:href="class_ogre_1_1_render_target_listener.html" target="_top" xlink:title="A interface class defining a listener which can be used to receive notifications of RenderTarget even...">
<polygon fill="none" stroke="#000000" points="309.5,-62 309.5,-81 460.5,-81 460.5,-62 309.5,-62"/>
<text text-anchor="middle" x="385" y="-69" font-family="Helvetica,sans-Serif" font-size="10.00" fill="#000000">Ogre::RenderTargetListener</text>
</a>
</g>
</g>
<!-- Node4&#45;&gt;Node0 -->
<g id="edge4" class="edge">
<title>Node4&#45;&gt;Node0</title>
<path fill="none" stroke="#191970" d="M351.6231,-57.9955C322.8604,-46.358 282.0605,-29.8501 256.5832,-19.5419"/>
<polygon fill="#191970" stroke="#191970" points="350.6673,-61.3844 361.25,-61.8906 353.2928,-54.8954 350.6673,-61.3844"/>
</g>
</g>
</svg>
