<?xml version="1.0" encoding="UTF-8" standalone="no"?>
<!DOCTYPE svg PUBLIC "-//W3C//DTD SVG 1.1//EN"
 "http://www.w3.org/Graphics/SVG/1.1/DTD/svg11.dtd">
<!-- Generated by graphviz version 2.40.1 (20161225.0304)
 -->
<!-- Title: Ogre::GLES2StateCacheManagerImp Pages: 1 -->
<svg width="189pt" height="84pt"
 viewBox="0.00 0.00 189.00 84.00" xmlns="http://www.w3.org/2000/svg" xmlns:xlink="http://www.w3.org/1999/xlink">
<g id="graph0" class="graph" transform="scale(1 1) rotate(0) translate(4 80)">
<title>Ogre::GLES2StateCacheManagerImp</title>
<!-- Node0 -->
<g id="node1" class="node">
<title>Node0</title>
<polygon fill="#bfbfbf" stroke="#000000" points="0,-.5 0,-19.5 181,-19.5 181,-.5 0,-.5"/>
<text text-anchor="middle" x="90.5" y="-7.5" font-family="Helvetica,sans-Serif" font-size="10.00" fill="#000000">Ogre::GLES2StateCacheManagerImp</text>
</g>
<!-- Node1 -->
<g id="node2" class="node">
<title>Node1</title>
<g id="a_node2"><a xlink:href="class_ogre_1_1_allocated_object.html" target="_top" xlink:title="Superclass for all objects that wish to use custom memory allocators when their new / delete operator...">
<polygon fill="none" stroke="#000000" points="45.5,-56.5 45.5,-75.5 135.5,-75.5 135.5,-56.5 45.5,-56.5"/>
<text text-anchor="middle" x="90.5" y="-63.5" font-family="Helvetica,sans-Serif" font-size="10.00" fill="#000000">StateCacheAlloc</text>
</a>
</g>
</g>
<!-- Node1&#45;&gt;Node0 -->
<g id="edge1" class="edge">
<title>Node1&#45;&gt;Node0</title>
<path fill="none" stroke="#191970" d="M84.0113,-46.1575C83.419,-37.155 83.8335,-26.9199 85.2549,-19.6427"/>
<polygon fill="#191970" stroke="#191970" points="80.5561,-46.739 85.2332,-56.2455 87.5053,-45.8972 80.5561,-46.739"/>
</g>
<!-- Node1&#45;&gt;Node0 -->
<g id="edge2" class="edge">
<title>Node1&#45;&gt;Node0</title>
<path fill="none" stroke="#191970" d="M96.9887,-46.1575C97.581,-37.155 97.1665,-26.9199 95.7451,-19.6427"/>
<polygon fill="#191970" stroke="#191970" points="93.4947,-45.8972 95.7668,-56.2455 100.4439,-46.739 93.4947,-45.8972"/>
</g>
</g>
</svg>
