<?xml version="1.0" encoding="UTF-8" standalone="no"?>
<!DOCTYPE svg PUBLIC "-//W3C//DTD SVG 1.1//EN"
 "http://www.w3.org/Graphics/SVG/1.1/DTD/svg11.dtd">
<!-- Generated by graphviz version 2.40.1 (20161225.0304)
 -->
<!-- Title: Ogre::StringInterface Pages: 1 -->
<svg width="941pt" height="825pt"
 viewBox="0.00 0.00 941.00 824.50" xmlns="http://www.w3.org/2000/svg" xmlns:xlink="http://www.w3.org/1999/xlink">
<g id="graph0" class="graph" transform="scale(1 1) rotate(0) translate(4 820.5)">
<title>Ogre::StringInterface</title>
<!-- Node0 -->
<g id="node1" class="node">
<title>Node0</title>
<polygon fill="#bfbfbf" stroke="#000000" points="0,-344 0,-363 118,-363 118,-344 0,-344"/>
<text text-anchor="middle" x="59" y="-351" font-family="Helvetica,sans-Serif" font-size="10.00" fill="#000000">Ogre::StringInterface</text>
</g>
<!-- Node1 -->
<g id="node2" class="node">
<title>Node1</title>
<g id="a_node2"><a xlink:href="class_ogre_1_1_external_texture_source.html" target="_top" xlink:title="IMPORTANT: Plugins must override default dictionary name! Base class that texture plugins derive from...">
<polygon fill="none" stroke="#000000" points="157.5,-458 157.5,-477 314.5,-477 314.5,-458 157.5,-458"/>
<text text-anchor="middle" x="236" y="-465" font-family="Helvetica,sans-Serif" font-size="10.00" fill="#000000">Ogre::ExternalTextureSource</text>
</a>
</g>
</g>
<!-- Node0&#45;&gt;Node1 -->
<g id="edge1" class="edge">
<title>Node0&#45;&gt;Node1</title>
<path fill="none" stroke="#191970" d="M71.7854,-371.375C88.273,-393.0526 119.0213,-429.0928 154,-448.5 161.028,-452.3994 168.8211,-455.5002 176.7262,-457.9657"/>
<polygon fill="#191970" stroke="#191970" points="74.3865,-369.0063 65.6216,-363.0542 68.7617,-373.1731 74.3865,-369.0063"/>
</g>
<!-- Node2 -->
<g id="node3" class="node">
<title>Node2</title>
<g id="a_node3"><a xlink:href="class_ogre_1_1_particle_affector.html" target="_top" xlink:title="Abstract class defining the interface to be implemented by particle affectors. ">
<polygon fill="none" stroke="#000000" points="175,-420 175,-439 297,-439 297,-420 175,-420"/>
<text text-anchor="middle" x="236" y="-427" font-family="Helvetica,sans-Serif" font-size="10.00" fill="#000000">Ogre::ParticleAffector</text>
</a>
</g>
</g>
<!-- Node0&#45;&gt;Node2 -->
<g id="edge2" class="edge">
<title>Node0&#45;&gt;Node2</title>
<path fill="none" stroke="#191970" d="M80.1527,-368.8453C98.7655,-381.6829 127.0277,-399.5999 154,-410.5 163.3486,-414.278 173.6148,-417.3997 183.6248,-419.9444"/>
<polygon fill="#191970" stroke="#191970" points="82.0332,-365.889 71.8386,-363.0043 78.0091,-371.6168 82.0332,-365.889"/>
</g>
<!-- Node3 -->
<g id="node4" class="node">
<title>Node3</title>
<g id="a_node4"><a xlink:href="class_ogre_1_1_particle_emitter.html" target="_top" xlink:title="Abstract class defining the interface to be implemented by particle emitters. ">
<polygon fill="none" stroke="#000000" points="176.5,-382 176.5,-401 295.5,-401 295.5,-382 176.5,-382"/>
<text text-anchor="middle" x="236" y="-389" font-family="Helvetica,sans-Serif" font-size="10.00" fill="#000000">Ogre::ParticleEmitter</text>
</a>
</g>
</g>
<!-- Node0&#45;&gt;Node3 -->
<g id="edge3" class="edge">
<title>Node0&#45;&gt;Node3</title>
<path fill="none" stroke="#191970" d="M113.7423,-365.2526C138.77,-370.6258 168.0348,-376.9086 191.6566,-381.9799"/>
<polygon fill="#191970" stroke="#191970" points="114.1765,-361.7661 103.6646,-363.089 112.7071,-368.6102 114.1765,-361.7661"/>
</g>
<!-- Node4 -->
<g id="node5" class="node">
<title>Node4</title>
<g id="a_node5"><a xlink:href="class_ogre_1_1_particle_system.html" target="_top" xlink:title="Class defining particle system based special effects. ">
<polygon fill="none" stroke="#000000" points="176.5,-344 176.5,-363 295.5,-363 295.5,-344 176.5,-344"/>
<text text-anchor="middle" x="236" y="-351" font-family="Helvetica,sans-Serif" font-size="10.00" fill="#000000">Ogre::ParticleSystem</text>
</a>
</g>
</g>
<!-- Node0&#45;&gt;Node4 -->
<g id="edge4" class="edge">
<title>Node0&#45;&gt;Node4</title>
<path fill="none" stroke="#191970" d="M128.6663,-353.5C144.4601,-353.5 161.0931,-353.5 176.4247,-353.5"/>
<polygon fill="#191970" stroke="#191970" points="128.4309,-350.0001 118.4308,-353.5 128.4308,-357.0001 128.4309,-350.0001"/>
</g>
<!-- Node5 -->
<g id="node6" class="node">
<title>Node5</title>
<g id="a_node6"><a xlink:href="class_ogre_1_1_particle_system_renderer.html" target="_top" xlink:title="Abstract class defining the interface required to be implemented by classes which provide rendering c...">
<polygon fill="none" stroke="#000000" points="154,-306 154,-325 318,-325 318,-306 154,-306"/>
<text text-anchor="middle" x="236" y="-313" font-family="Helvetica,sans-Serif" font-size="10.00" fill="#000000">Ogre::ParticleSystemRenderer</text>
</a>
</g>
</g>
<!-- Node0&#45;&gt;Node5 -->
<g id="edge5" class="edge">
<title>Node0&#45;&gt;Node5</title>
<path fill="none" stroke="#191970" d="M113.7423,-341.7474C138.77,-336.3742 168.0348,-330.0914 191.6566,-325.0201"/>
<polygon fill="#191970" stroke="#191970" points="112.7071,-338.3898 103.6646,-343.911 114.1765,-345.2339 112.7071,-338.3898"/>
</g>
<!-- Node7 -->
<g id="node8" class="node">
<title>Node7</title>
<g id="a_node8"><a xlink:href="class_ogre_1_1_resource.html" target="_top" xlink:title="Abstract class representing a loadable resource (e.g. ">
<polygon fill="none" stroke="#000000" points="190.5,-268 190.5,-287 281.5,-287 281.5,-268 190.5,-268"/>
<text text-anchor="middle" x="236" y="-275" font-family="Helvetica,sans-Serif" font-size="10.00" fill="#000000">Ogre::Resource</text>
</a>
</g>
</g>
<!-- Node0&#45;&gt;Node7 -->
<g id="edge7" class="edge">
<title>Node0&#45;&gt;Node7</title>
<path fill="none" stroke="#191970" d="M80.1527,-338.1547C98.7655,-325.3171 127.0277,-307.4001 154,-296.5 165.3809,-291.9007 178.1218,-288.2741 190.1047,-285.4769"/>
<polygon fill="#191970" stroke="#191970" points="78.0091,-335.3832 71.8386,-343.9957 82.0332,-341.111 78.0091,-335.3832"/>
</g>
<!-- Node50 -->
<g id="node46" class="node">
<title>Node50</title>
<g id="a_node46"><a xlink:href="class_ogre_1_1v1_1_1_overlay_element.html" target="_top" xlink:title="Abstract definition of a 2D element to be displayed in an Overlay. ">
<polygon fill="none" stroke="#000000" points="164.5,-50 164.5,-69 307.5,-69 307.5,-50 164.5,-50"/>
<text text-anchor="middle" x="236" y="-57" font-family="Helvetica,sans-Serif" font-size="10.00" fill="#000000">Ogre::v1::OverlayElement</text>
</a>
</g>
</g>
<!-- Node0&#45;&gt;Node50 -->
<g id="edge45" class="edge">
<title>Node0&#45;&gt;Node50</title>
<path fill="none" stroke="#191970" d="M70.0501,-335.1456C103.8476,-279.0074 205.0637,-110.8857 230.2678,-69.0213"/>
<polygon fill="#191970" stroke="#191970" points="67.0484,-333.3456 64.8891,-343.7181 73.0455,-336.9561 67.0484,-333.3456"/>
</g>
<!-- Node6 -->
<g id="node7" class="node">
<title>Node6</title>
<g id="a_node7"><a xlink:href="class_ogre_1_1v1_1_1_billboard_particle_renderer.html" target="_top" xlink:title="Specialisation of ParticleSystemRenderer to render particles using a BillboardSet. ">
<polygon fill="none" stroke="#000000" points="356.5,-483.5 356.5,-513.5 500.5,-513.5 500.5,-483.5 356.5,-483.5"/>
<text text-anchor="start" x="364.5" y="-501.5" font-family="Helvetica,sans-Serif" font-size="10.00" fill="#000000">Ogre::v1::BillboardParticle</text>
<text text-anchor="middle" x="428.5" y="-490.5" font-family="Helvetica,sans-Serif" font-size="10.00" fill="#000000">Renderer</text>
</a>
</g>
</g>
<!-- Node5&#45;&gt;Node6 -->
<g id="edge6" class="edge">
<title>Node5&#45;&gt;Node6</title>
<path fill="none" stroke="#191970" d="M313.4067,-330.5409C315.0124,-331.7673 316.5479,-333.0848 318,-334.5 363.7017,-379.0404 310.4898,-426.8164 354,-473.5 357.6277,-477.3923 361.8791,-480.6788 366.48,-483.4539"/>
<polygon fill="#191970" stroke="#191970" points="315.1789,-327.5205 304.8552,-325.1388 311.4404,-333.4386 315.1789,-327.5205"/>
</g>
<!-- Node8 -->
<g id="node9" class="node">
<title>Node8</title>
<g id="a_node9"><a xlink:href="class_ogre_1_1_font.html" target="_top" xlink:title="Class representing a font in the system. ">
<polygon fill="none" stroke="#000000" points="394.5,-445 394.5,-464 462.5,-464 462.5,-445 394.5,-445"/>
<text text-anchor="middle" x="428.5" y="-452" font-family="Helvetica,sans-Serif" font-size="10.00" fill="#000000">Ogre::Font</text>
</a>
</g>
</g>
<!-- Node7&#45;&gt;Node8 -->
<g id="edge8" class="edge">
<title>Node7&#45;&gt;Node8</title>
<path fill="none" stroke="#191970" d="M291.4641,-281.7405C301.2914,-284.7381 310.7005,-289.386 318,-296.5 363.7017,-341.0404 308.7915,-390.4591 354,-435.5 364.5907,-446.0515 380.1743,-451.0071 394.3549,-453.2437"/>
<polygon fill="#191970" stroke="#191970" points="292.1106,-278.2945 281.5601,-279.263 290.4117,-285.0852 292.1106,-278.2945"/>
</g>
<!-- Node9 -->
<g id="node10" class="node">
<title>Node9</title>
<g id="a_node10"><a xlink:href="class_ogre_1_1_gpu_program.html" target="_top" xlink:title="Defines a program which runs on the GPU such as a vertex or fragment program. ">
<polygon fill="none" stroke="#000000" points="375,-407 375,-426 482,-426 482,-407 375,-407"/>
<text text-anchor="middle" x="428.5" y="-414" font-family="Helvetica,sans-Serif" font-size="10.00" fill="#000000">Ogre::GpuProgram</text>
</a>
</g>
</g>
<!-- Node7&#45;&gt;Node9 -->
<g id="edge9" class="edge">
<title>Node7&#45;&gt;Node9</title>
<path fill="none" stroke="#191970" d="M291.5948,-285.6054C300.782,-288.2673 309.9309,-291.8031 318,-296.5 321.2278,-298.3788 394.2015,-378.6809 419.7565,-406.8541"/>
<polygon fill="#191970" stroke="#191970" points="292.217,-282.1515 281.66,-283.0465 290.4709,-288.9302 292.217,-282.1515"/>
</g>
<!-- Node32 -->
<g id="node31" class="node">
<title>Node32</title>
<g id="a_node31"><a xlink:href="class_ogre_1_1_material.html" target="_top" xlink:title="Class encapsulates rendering properties of an object. ">
<polygon fill="none" stroke="#000000" points="385.5,-306 385.5,-325 471.5,-325 471.5,-306 385.5,-306"/>
<text text-anchor="middle" x="428.5" y="-313" font-family="Helvetica,sans-Serif" font-size="10.00" fill="#000000">Ogre::Material</text>
</a>
</g>
</g>
<!-- Node7&#45;&gt;Node32 -->
<g id="edge30" class="edge">
<title>Node7&#45;&gt;Node32</title>
<path fill="none" stroke="#191970" d="M291.4613,-288.4482C321.2683,-294.3322 357.4788,-301.4802 385.1905,-306.9506"/>
<polygon fill="#191970" stroke="#191970" points="292.1083,-285.0085 281.6198,-286.5055 290.7526,-291.8759 292.1083,-285.0085"/>
</g>
<!-- Node33 -->
<g id="node32" class="node">
<title>Node33</title>
<g id="a_node32"><a xlink:href="class_ogre_1_1_mesh.html" target="_top" xlink:title="Resource holding data about 3D mesh. ">
<polygon fill="none" stroke="#000000" points="392.5,-268 392.5,-287 464.5,-287 464.5,-268 392.5,-268"/>
<text text-anchor="middle" x="428.5" y="-275" font-family="Helvetica,sans-Serif" font-size="10.00" fill="#000000">Ogre::Mesh</text>
</a>
</g>
</g>
<!-- Node7&#45;&gt;Node33 -->
<g id="edge31" class="edge">
<title>Node7&#45;&gt;Node33</title>
<path fill="none" stroke="#191970" d="M291.8311,-277.5C324.1602,-277.5 363.9236,-277.5 392.2074,-277.5"/>
<polygon fill="#191970" stroke="#191970" points="291.6198,-274.0001 281.6198,-277.5 291.6198,-281.0001 291.6198,-274.0001"/>
</g>
<!-- Node34 -->
<g id="node33" class="node">
<title>Node34</title>
<g id="a_node33"><a xlink:href="class_ogre_1_1_texture.html" target="_top" xlink:title="Abstract class representing a Texture resource. ">
<polygon fill="none" stroke="#000000" points="387,-230 387,-249 470,-249 470,-230 387,-230"/>
<text text-anchor="middle" x="428.5" y="-237" font-family="Helvetica,sans-Serif" font-size="10.00" fill="#000000">Ogre::Texture</text>
</a>
</g>
</g>
<!-- Node7&#45;&gt;Node34 -->
<g id="edge32" class="edge">
<title>Node7&#45;&gt;Node34</title>
<path fill="none" stroke="#191970" d="M291.6406,-266.5164C322.0022,-260.523 358.9654,-253.2263 386.8211,-247.7275"/>
<polygon fill="#191970" stroke="#191970" points="290.7526,-263.1241 281.6198,-268.4945 292.1083,-269.9915 290.7526,-263.1241"/>
</g>
<!-- Node46 -->
<g id="node42" class="node">
<title>Node46</title>
<g id="a_node42"><a xlink:href="class_ogre_1_1v1_1_1_mesh.html" target="_top" xlink:title="Resource holding data about 3D mesh. ">
<polygon fill="none" stroke="#000000" points="383.5,-183 383.5,-202 473.5,-202 473.5,-183 383.5,-183"/>
<text text-anchor="middle" x="428.5" y="-190" font-family="Helvetica,sans-Serif" font-size="10.00" fill="#000000">Ogre::v1::Mesh</text>
</a>
</g>
</g>
<!-- Node7&#45;&gt;Node46 -->
<g id="edge41" class="edge">
<title>Node7&#45;&gt;Node46</title>
<path fill="none" stroke="#191970" d="M263.6656,-263.2576C287.3732,-251.2657 322.5696,-233.9649 354,-220.5 369.4951,-213.8618 387.1413,-207.1915 401.3692,-202.0273"/>
<polygon fill="#191970" stroke="#191970" points="261.8876,-260.2351 254.5606,-267.888 265.0608,-266.4746 261.8876,-260.2351"/>
</g>
<!-- Node48 -->
<g id="node44" class="node">
<title>Node48</title>
<g id="a_node44"><a xlink:href="class_ogre_1_1v1_1_1_skeleton.html" target="_top" xlink:title="A collection of OldBone objects used to animate a skinned mesh. ">
<polygon fill="none" stroke="#000000" points="375,-126 375,-145 482,-145 482,-126 375,-126"/>
<text text-anchor="middle" x="428.5" y="-133" font-family="Helvetica,sans-Serif" font-size="10.00" fill="#000000">Ogre::v1::Skeleton</text>
</a>
</g>
</g>
<!-- Node7&#45;&gt;Node48 -->
<g id="edge43" class="edge">
<title>Node7&#45;&gt;Node48</title>
<path fill="none" stroke="#191970" d="M252.2584,-260.7584C274.0527,-238.9069 314.5784,-200.299 354,-173.5 370.5704,-162.2353 390.9247,-152.073 406.1682,-145.098"/>
<polygon fill="#191970" stroke="#191970" points="249.6467,-258.4221 245.1131,-267.9979 254.6288,-263.3393 249.6467,-258.4221"/>
</g>
<!-- Node10 -->
<g id="node11" class="node">
<title>Node10</title>
<g id="a_node11"><a xlink:href="class_ogre_1_1_d3_d11_gpu_program.html" target="_top" xlink:title="Direct3D implementation of a few things common to low&#45;level vertex &amp; fragment programs. ">
<polygon fill="none" stroke="#000000" points="554,-702 554,-721 694,-721 694,-702 554,-702"/>
<text text-anchor="middle" x="624" y="-709" font-family="Helvetica,sans-Serif" font-size="10.00" fill="#000000">Ogre::D3D11GpuProgram</text>
</a>
</g>
</g>
<!-- Node9&#45;&gt;Node10 -->
<g id="edge10" class="edge">
<title>Node9&#45;&gt;Node10</title>
<path fill="none" stroke="#191970" d="M491.2997,-426.6753C495.6027,-429.0657 499.5798,-431.972 503,-435.5 554.3379,-488.4568 508.2747,-530.4481 539,-597.5 558.7459,-640.5915 596.6855,-683.1707 614.4211,-701.7672"/>
<polygon fill="#191970" stroke="#191970" points="492.6328,-423.4364 482.0831,-422.4594 489.721,-429.802 492.6328,-423.4364"/>
</g>
<!-- Node16 -->
<g id="node17" class="node">
<title>Node16</title>
<g id="a_node17"><a xlink:href="class_ogre_1_1_d3_d9_gpu_program.html" target="_top" xlink:title="Direct3D implementation of a few things common to low&#45;level vertex &amp; fragment programs. ">
<polygon fill="none" stroke="#000000" points="557,-569 557,-588 691,-588 691,-569 557,-569"/>
<text text-anchor="middle" x="624" y="-576" font-family="Helvetica,sans-Serif" font-size="10.00" fill="#000000">Ogre::D3D9GpuProgram</text>
</a>
</g>
</g>
<!-- Node9&#45;&gt;Node16 -->
<g id="edge16" class="edge">
<title>Node9&#45;&gt;Node16</title>
<path fill="none" stroke="#191970" d="M491.637,-427.5091C495.7481,-429.7231 499.5968,-432.3606 503,-435.5 539.2608,-468.9504 505.7226,-504.0803 539,-540.5 551.4301,-554.1039 569.6455,-563.1273 586.0286,-568.9521"/>
<polygon fill="#191970" stroke="#191970" points="492.8452,-424.215 482.2892,-423.3086 489.976,-430.6 492.8452,-424.215"/>
</g>
<!-- Node19 -->
<g id="node20" class="node">
<title>Node19</title>
<g id="a_node20"><a xlink:href="class_ogre_1_1_g_l3_plus_gpu_program.html" target="_top" xlink:title="Generalised low&#45;level GL program, can be applied to multiple types (eg ARB and NV) ...">
<polygon fill="none" stroke="#000000" points="551,-512 551,-531 697,-531 697,-512 551,-512"/>
<text text-anchor="middle" x="624" y="-519" font-family="Helvetica,sans-Serif" font-size="10.00" fill="#000000">Ogre::GL3PlusGpuProgram</text>
</a>
</g>
</g>
<!-- Node9&#45;&gt;Node19 -->
<g id="edge19" class="edge">
<title>Node9&#45;&gt;Node19</title>
<path fill="none" stroke="#191970" d="M488.3044,-429.2905C493.3784,-431.1101 498.3445,-433.1707 503,-435.5 521.3741,-444.6932 522.4522,-452.3224 539,-464.5 562.8986,-482.0869 591.7889,-500.9849 608.9882,-511.9993"/>
<polygon fill="#191970" stroke="#191970" points="489.0596,-425.8553 478.4672,-426.0808 486.8883,-432.5101 489.0596,-425.8553"/>
</g>
<!-- Node21 -->
<g id="node22" class="node">
<title>Node21</title>
<g id="a_node22"><a xlink:href="class_ogre_1_1_g_l_e_s2_gpu_program.html" target="_top" xlink:title="Generalised low&#45;level GL program, can be applied to multiple types (eg ARB and NV) ...">
<polygon fill="none" stroke="#000000" points="555.5,-436 555.5,-455 692.5,-455 692.5,-436 555.5,-436"/>
<text text-anchor="middle" x="624" y="-443" font-family="Helvetica,sans-Serif" font-size="10.00" fill="#000000">Ogre::GLES2GpuProgram</text>
</a>
</g>
</g>
<!-- Node9&#45;&gt;Node21 -->
<g id="edge21" class="edge">
<title>Node9&#45;&gt;Node21</title>
<path fill="none" stroke="#191970" d="M492.2395,-425.955C513.8564,-429.1616 538.0083,-432.7442 559.6708,-435.9576"/>
<polygon fill="#191970" stroke="#191970" points="492.5852,-422.468 482.1798,-424.4627 491.558,-429.3923 492.5852,-422.468"/>
</g>
<!-- Node23 -->
<g id="node24" class="node">
<title>Node23</title>
<g id="a_node24"><a xlink:href="class_ogre_1_1_high_level_gpu_program.html" target="_top" xlink:title="Abstract base class representing a high&#45;level program (a vertex or fragment program). ">
<polygon fill="none" stroke="#000000" points="546.5,-379 546.5,-398 701.5,-398 701.5,-379 546.5,-379"/>
<text text-anchor="middle" x="624" y="-386" font-family="Helvetica,sans-Serif" font-size="10.00" fill="#000000">Ogre::HighLevelGpuProgram</text>
</a>
</g>
</g>
<!-- Node9&#45;&gt;Node23 -->
<g id="edge23" class="edge">
<title>Node9&#45;&gt;Node23</title>
<path fill="none" stroke="#191970" d="M492.234,-407.3719C513.1436,-404.3771 536.4256,-401.0426 557.5324,-398.0197"/>
<polygon fill="#191970" stroke="#191970" points="491.5826,-403.9294 482.1798,-408.8118 492.5751,-410.8586 491.5826,-403.9294"/>
</g>
<!-- Node11 -->
<g id="node12" class="node">
<title>Node11</title>
<g id="a_node12"><a xlink:href="class_ogre_1_1_d3_d11_gpu_domain_program.html" target="_top" xlink:title="Direct3D implementation of low&#45;level vertex programs. ">
<polygon fill="none" stroke="#000000" points="750,-797 750,-816 928,-816 928,-797 750,-797"/>
<text text-anchor="middle" x="839" y="-804" font-family="Helvetica,sans-Serif" font-size="10.00" fill="#000000">Ogre::D3D11GpuDomainProgram</text>
</a>
</g>
</g>
<!-- Node10&#45;&gt;Node11 -->
<g id="edge11" class="edge">
<title>Node10&#45;&gt;Node11</title>
<path fill="none" stroke="#191970" d="M643.879,-727.1894C666.9007,-744.5684 706.5981,-772.1559 745,-787.5 754.6631,-791.3611 765.2107,-794.4693 775.635,-796.9622"/>
<polygon fill="#191970" stroke="#191970" points="645.9741,-724.3854 635.9096,-721.0754 641.7132,-729.9393 645.9741,-724.3854"/>
</g>
<!-- Node12 -->
<g id="node13" class="node">
<title>Node12</title>
<g id="a_node13"><a xlink:href="class_ogre_1_1_d3_d11_gpu_fragment_program.html" target="_top" xlink:title="Direct3D implementation of low&#45;level fragment programs. ">
<polygon fill="none" stroke="#000000" points="745.5,-759 745.5,-778 932.5,-778 932.5,-759 745.5,-759"/>
<text text-anchor="middle" x="839" y="-766" font-family="Helvetica,sans-Serif" font-size="10.00" fill="#000000">Ogre::D3D11GpuFragmentProgram</text>
</a>
</g>
</g>
<!-- Node10&#45;&gt;Node12 -->
<g id="edge12" class="edge">
<title>Node10&#45;&gt;Node12</title>
<path fill="none" stroke="#191970" d="M661.3157,-724.333C685.0877,-732.2303 716.6393,-742.2019 745,-749.5 758.3831,-752.9439 772.9691,-756.1519 786.5713,-758.9149"/>
<polygon fill="#191970" stroke="#191970" points="662.2298,-720.9481 651.636,-721.0892 660.0056,-727.5853 662.2298,-720.9481"/>
</g>
<!-- Node13 -->
<g id="node14" class="node">
<title>Node13</title>
<g id="a_node14"><a xlink:href="class_ogre_1_1_d3_d11_gpu_geometry_program.html" target="_top" xlink:title="Direct3D implementation of low&#45;level geometry programs. ">
<polygon fill="none" stroke="#000000" points="745,-721 745,-740 933,-740 933,-721 745,-721"/>
<text text-anchor="middle" x="839" y="-728" font-family="Helvetica,sans-Serif" font-size="10.00" fill="#000000">Ogre::D3D11GpuGeometryProgram</text>
</a>
</g>
</g>
<!-- Node10&#45;&gt;Node13 -->
<g id="edge13" class="edge">
<title>Node10&#45;&gt;Node13</title>
<path fill="none" stroke="#191970" d="M704.1036,-718.5789C717.354,-719.7499 731.1994,-720.9734 744.759,-722.1717"/>
<polygon fill="#191970" stroke="#191970" points="704.3709,-715.089 694.1015,-717.695 703.7546,-722.0618 704.3709,-715.089"/>
</g>
<!-- Node14 -->
<g id="node15" class="node">
<title>Node14</title>
<g id="a_node15"><a xlink:href="class_ogre_1_1_d3_d11_gpu_hull_program.html" target="_top" xlink:title="Direct3D implementation of low&#45;level vertex programs. ">
<polygon fill="none" stroke="#000000" points="759.5,-683 759.5,-702 918.5,-702 918.5,-683 759.5,-683"/>
<text text-anchor="middle" x="839" y="-690" font-family="Helvetica,sans-Serif" font-size="10.00" fill="#000000">Ogre::D3D11GpuHullProgram</text>
</a>
</g>
</g>
<!-- Node10&#45;&gt;Node14 -->
<g id="edge14" class="edge">
<title>Node10&#45;&gt;Node14</title>
<path fill="none" stroke="#191970" d="M704.2601,-704.4072C722.2515,-702.8173 741.3327,-701.1311 759.3012,-699.5432"/>
<polygon fill="#191970" stroke="#191970" points="703.7546,-700.9382 694.1015,-705.305 704.3709,-707.911 703.7546,-700.9382"/>
</g>
<!-- Node15 -->
<g id="node16" class="node">
<title>Node15</title>
<g id="a_node16"><a xlink:href="class_ogre_1_1_d3_d11_gpu_vertex_program.html" target="_top" xlink:title="Direct3D implementation of low&#45;level vertex programs. ">
<polygon fill="none" stroke="#000000" points="753,-645 753,-664 925,-664 925,-645 753,-645"/>
<text text-anchor="middle" x="839" y="-652" font-family="Helvetica,sans-Serif" font-size="10.00" fill="#000000">Ogre::D3D11GpuVertexProgram</text>
</a>
</g>
</g>
<!-- Node10&#45;&gt;Node15 -->
<g id="edge15" class="edge">
<title>Node10&#45;&gt;Node15</title>
<path fill="none" stroke="#191970" d="M661.3157,-698.667C685.0877,-690.7697 716.6393,-680.7981 745,-673.5 758.3831,-670.0561 772.9691,-666.8481 786.5713,-664.0851"/>
<polygon fill="#191970" stroke="#191970" points="660.0056,-695.4147 651.636,-701.9108 662.2298,-702.0519 660.0056,-695.4147"/>
</g>
<!-- Node17 -->
<g id="node18" class="node">
<title>Node17</title>
<g id="a_node18"><a xlink:href="class_ogre_1_1_d3_d9_gpu_fragment_program.html" target="_top" xlink:title="Direct3D implementation of low&#45;level fragment programs. ">
<polygon fill="none" stroke="#000000" points="748.5,-607 748.5,-626 929.5,-626 929.5,-607 748.5,-607"/>
<text text-anchor="middle" x="839" y="-614" font-family="Helvetica,sans-Serif" font-size="10.00" fill="#000000">Ogre::D3D9GpuFragmentProgram</text>
</a>
</g>
</g>
<!-- Node16&#45;&gt;Node17 -->
<g id="edge17" class="edge">
<title>Node16&#45;&gt;Node17</title>
<path fill="none" stroke="#191970" d="M688.1999,-589.847C719.0474,-595.2991 755.6064,-601.7607 785.0017,-606.9561"/>
<polygon fill="#191970" stroke="#191970" points="688.4326,-586.3339 677.9761,-588.04 687.2142,-593.2271 688.4326,-586.3339"/>
</g>
<!-- Node18 -->
<g id="node19" class="node">
<title>Node18</title>
<g id="a_node19"><a xlink:href="class_ogre_1_1_d3_d9_gpu_vertex_program.html" target="_top" xlink:title="Direct3D implementation of low&#45;level vertex programs. ">
<polygon fill="none" stroke="#000000" points="756,-569 756,-588 922,-588 922,-569 756,-569"/>
<text text-anchor="middle" x="839" y="-576" font-family="Helvetica,sans-Serif" font-size="10.00" fill="#000000">Ogre::D3D9GpuVertexProgram</text>
</a>
</g>
</g>
<!-- Node16&#45;&gt;Node18 -->
<g id="edge18" class="edge">
<title>Node16&#45;&gt;Node18</title>
<path fill="none" stroke="#191970" d="M701.3777,-578.5C719.0187,-578.5 737.8371,-578.5 755.7131,-578.5"/>
<polygon fill="#191970" stroke="#191970" points="701.143,-575.0001 691.143,-578.5 701.1429,-582.0001 701.143,-575.0001"/>
</g>
<!-- Node20 -->
<g id="node21" class="node">
<title>Node20</title>
<g id="a_node21"><a xlink:href="class_ogre_1_1_g_l_s_l_gpu_program.html" target="_top" xlink:title="GLSL low level compiled shader object &#45; this class is used to get at the linked program object and pr...">
<polygon fill="none" stroke="#000000" points="773.5,-531 773.5,-550 904.5,-550 904.5,-531 773.5,-531"/>
<text text-anchor="middle" x="839" y="-538" font-family="Helvetica,sans-Serif" font-size="10.00" fill="#000000">Ogre::GLSLGpuProgram</text>
</a>
</g>
</g>
<!-- Node19&#45;&gt;Node20 -->
<g id="edge20" class="edge">
<title>Node19&#45;&gt;Node20</title>
<path fill="none" stroke="#191970" d="M707.0649,-528.8406C729.0276,-530.7815 752.4272,-532.8494 773.3275,-534.6964"/>
<polygon fill="#191970" stroke="#191970" points="707.3585,-525.353 697.0892,-527.959 706.7422,-532.3258 707.3585,-525.353"/>
</g>
<!-- Node22 -->
<g id="node23" class="node">
<title>Node22</title>
<g id="a_node23"><a xlink:href="class_ogre_1_1_g_l_s_l_e_s_gpu_program.html" target="_top" xlink:title="GLSL ES low level compiled shader object &#45; this class is used to get at the linked program object and...">
<polygon fill="none" stroke="#000000" points="767.5,-493 767.5,-512 910.5,-512 910.5,-493 767.5,-493"/>
<text text-anchor="middle" x="839" y="-500" font-family="Helvetica,sans-Serif" font-size="10.00" fill="#000000">Ogre::GLSLESGpuProgram</text>
</a>
</g>
</g>
<!-- Node21&#45;&gt;Node22 -->
<g id="edge22" class="edge">
<title>Node21&#45;&gt;Node22</title>
<path fill="none" stroke="#191970" d="M661.3157,-458.333C685.0877,-466.2303 716.6393,-476.2019 745,-483.5 758.3831,-486.9439 772.9691,-490.1519 786.5713,-492.9149"/>
<polygon fill="#191970" stroke="#191970" points="662.2298,-454.9481 651.636,-455.0892 660.0056,-461.5853 662.2298,-454.9481"/>
</g>
<!-- Node24 -->
<g id="node25" class="node">
<title>Node24</title>
<g id="a_node25"><a xlink:href="class_ogre_1_1_d3_d11_h_l_s_l_program.html" target="_top" xlink:title="Specialization of HighLevelGpuProgram to provide support for D3D11 High&#45;Level Shader Language (HLSL)...">
<polygon fill="none" stroke="#000000" points="767,-455 767,-474 911,-474 911,-455 767,-455"/>
<text text-anchor="middle" x="839" y="-462" font-family="Helvetica,sans-Serif" font-size="10.00" fill="#000000">Ogre::D3D11HLSLProgram</text>
</a>
</g>
</g>
<!-- Node23&#45;&gt;Node24 -->
<g id="edge24" class="edge">
<title>Node23&#45;&gt;Node24</title>
<path fill="none" stroke="#191970" d="M656.0143,-402.223C672.0394,-409.241 691.6682,-418.0633 709,-426.5 725.2668,-434.4183 727.9593,-439.4235 745,-445.5 755.6639,-449.3026 767.295,-452.4257 778.627,-454.9619"/>
<polygon fill="#191970" stroke="#191970" points="657.1209,-398.8875 646.5549,-398.1061 654.3274,-405.306 657.1209,-398.8875"/>
</g>
<!-- Node25 -->
<g id="node26" class="node">
<title>Node25</title>
<g id="a_node26"><a xlink:href="class_ogre_1_1_d3_d9_h_l_s_l_program.html" target="_top" xlink:title="Specialisation of HighLevelGpuProgram to provide support for D3D9 High&#45;Level Shader Language (HLSL)...">
<polygon fill="none" stroke="#000000" points="770,-417 770,-436 908,-436 908,-417 770,-417"/>
<text text-anchor="middle" x="839" y="-424" font-family="Helvetica,sans-Serif" font-size="10.00" fill="#000000">Ogre::D3D9HLSLProgram</text>
</a>
</g>
</g>
<!-- Node23&#45;&gt;Node25 -->
<g id="edge25" class="edge">
<title>Node23&#45;&gt;Node25</title>
<path fill="none" stroke="#191970" d="M688.1999,-399.847C719.0474,-405.2991 755.6064,-411.7607 785.0017,-416.9561"/>
<polygon fill="#191970" stroke="#191970" points="688.4326,-396.3339 677.9761,-398.04 687.2142,-403.2271 688.4326,-396.3339"/>
</g>
<!-- Node26 -->
<g id="node27" class="node">
<title>Node26</title>
<g id="a_node27"><a xlink:href="class_ogre_1_1_g_l_s_l_program.html" target="_top" xlink:title="C++ encapsulation of GLSL program object. ">
<polygon fill="none" stroke="#ff0000" points="783.5,-379 783.5,-398 894.5,-398 894.5,-379 783.5,-379"/>
<text text-anchor="middle" x="839" y="-386" font-family="Helvetica,sans-Serif" font-size="10.00" fill="#000000">Ogre::GLSLProgram</text>
</a>
</g>
</g>
<!-- Node23&#45;&gt;Node26 -->
<g id="edge26" class="edge">
<title>Node23&#45;&gt;Node26</title>
<path fill="none" stroke="#191970" d="M711.8824,-388.5C736.0588,-388.5 761.6054,-388.5 783.405,-388.5"/>
<polygon fill="#191970" stroke="#191970" points="711.62,-385.0001 701.6199,-388.5 711.6199,-392.0001 711.62,-385.0001"/>
</g>
<!-- Node29 -->
<g id="node28" class="node">
<title>Node29</title>
<g id="a_node28"><a xlink:href="class_ogre_1_1_g_l_s_l_shader.html" target="_top" xlink:title="Specialisation of HighLevelGpuProgram to encapsulate shader objects obtained from compiled shaders wr...">
<polygon fill="none" stroke="#000000" points="787,-341 787,-360 891,-360 891,-341 787,-341"/>
<text text-anchor="middle" x="839" y="-348" font-family="Helvetica,sans-Serif" font-size="10.00" fill="#000000">Ogre::GLSLShader</text>
</a>
</g>
</g>
<!-- Node23&#45;&gt;Node29 -->
<g id="edge27" class="edge">
<title>Node23&#45;&gt;Node29</title>
<path fill="none" stroke="#191970" d="M687.9888,-377.1903C719.5328,-371.6151 757.0898,-364.9772 786.858,-359.7158"/>
<polygon fill="#191970" stroke="#191970" points="687.2142,-373.7729 677.9761,-378.96 688.4326,-380.6661 687.2142,-373.7729"/>
</g>
<!-- Node30 -->
<g id="node29" class="node">
<title>Node30</title>
<g id="a_node29"><a xlink:href="class_ogre_1_1_metal_program.html" target="_top" xlink:title="Specialisation of HighLevelGpuProgram to provide support for Metal Shader Language. ">
<polygon fill="none" stroke="#000000" points="781.5,-303 781.5,-322 896.5,-322 896.5,-303 781.5,-303"/>
<text text-anchor="middle" x="839" y="-310" font-family="Helvetica,sans-Serif" font-size="10.00" fill="#000000">Ogre::MetalProgram</text>
</a>
</g>
</g>
<!-- Node23&#45;&gt;Node30 -->
<g id="edge28" class="edge">
<title>Node23&#45;&gt;Node30</title>
<path fill="none" stroke="#191970" d="M649.9227,-374.0419C673.9255,-361.2041 710.9446,-342.7796 745,-331.5 756.5377,-327.6786 769.1389,-324.4916 781.2588,-321.8879"/>
<polygon fill="#191970" stroke="#191970" points="648.2136,-370.9871 641.0894,-378.8292 651.549,-377.1414 648.2136,-370.9871"/>
</g>
<!-- Node31 -->
<g id="node30" class="node">
<title>Node31</title>
<g id="a_node30"><a xlink:href="class_ogre_1_1_unified_high_level_gpu_program.html" target="_top" xlink:title="Specialisation of HighLevelGpuProgram which just delegates its implementation to one other high level...">
<polygon fill="none" stroke="#000000" points="764.5,-253.5 764.5,-283.5 913.5,-283.5 913.5,-253.5 764.5,-253.5"/>
<text text-anchor="start" x="772.5" y="-271.5" font-family="Helvetica,sans-Serif" font-size="10.00" fill="#000000">Ogre::UnifiedHighLevelGpu</text>
<text text-anchor="middle" x="839" y="-260.5" font-family="Helvetica,sans-Serif" font-size="10.00" fill="#000000">Program</text>
</a>
</g>
</g>
<!-- Node23&#45;&gt;Node31 -->
<g id="edge29" class="edge">
<title>Node23&#45;&gt;Node31</title>
<path fill="none" stroke="#191970" d="M651.3286,-373.8134C668.6976,-363.8509 691.184,-349.7548 709,-334.5 727.42,-318.7281 724.3913,-306.2801 745,-293.5 751.171,-289.6731 757.9211,-286.4265 764.8815,-283.6732"/>
<polygon fill="#191970" stroke="#191970" points="649.2718,-370.9544 642.2678,-378.9039 652.7005,-377.0572 649.2718,-370.9544"/>
</g>
<!-- Node35 -->
<g id="node34" class="node">
<title>Node35</title>
<g id="a_node34"><a xlink:href="class_ogre_1_1_d3_d11_texture.html" target="_top" xlink:title="Ogre::D3D11Texture">
<polygon fill="none" stroke="#000000" points="566,-306 566,-325 682,-325 682,-306 566,-306"/>
<text text-anchor="middle" x="624" y="-313" font-family="Helvetica,sans-Serif" font-size="10.00" fill="#000000">Ogre::D3D11Texture</text>
</a>
</g>
</g>
<!-- Node34&#45;&gt;Node35 -->
<g id="edge33" class="edge">
<title>Node34&#45;&gt;Node35</title>
<path fill="none" stroke="#191970" d="M480.05,-248.5823C488.0378,-251.1241 495.963,-254.3668 503,-258.5 523.0602,-270.2823 518.7665,-285.0178 539,-296.5 547.1537,-301.1271 556.3436,-304.6274 565.5895,-307.2752"/>
<polygon fill="#191970" stroke="#191970" points="480.9074,-245.1874 470.3313,-245.8168 478.9915,-251.9201 480.9074,-245.1874"/>
</g>
<!-- Node38 -->
<g id="node37" class="node">
<title>Node38</title>
<g id="a_node37"><a xlink:href="class_ogre_1_1_d3_d9_texture.html" target="_top" xlink:title="Ogre::D3D9Texture">
<polygon fill="none" stroke="#000000" points="569,-268 569,-287 679,-287 679,-268 569,-268"/>
<text text-anchor="middle" x="624" y="-275" font-family="Helvetica,sans-Serif" font-size="10.00" fill="#000000">Ogre::D3D9Texture</text>
</a>
</g>
</g>
<!-- Node34&#45;&gt;Node38 -->
<g id="edge36" class="edge">
<title>Node34&#45;&gt;Node38</title>
<path fill="none" stroke="#191970" d="M480.4739,-249.6024C509.7442,-255.2917 546.0878,-262.3559 574.8791,-267.9522"/>
<polygon fill="#191970" stroke="#191970" points="480.9238,-246.1244 470.4397,-247.652 479.5881,-252.9958 480.9238,-246.1244"/>
</g>
<!-- Node39 -->
<g id="node38" class="node">
<title>Node39</title>
<g id="a_node38"><a xlink:href="class_ogre_1_1_g_l3_plus_texture.html" target="_top" xlink:title="Ogre::GL3PlusTexture">
<polygon fill="none" stroke="#ff0000" points="563,-230 563,-249 685,-249 685,-230 563,-230"/>
<text text-anchor="middle" x="624" y="-237" font-family="Helvetica,sans-Serif" font-size="10.00" fill="#000000">Ogre::GL3PlusTexture</text>
</a>
</g>
</g>
<!-- Node34&#45;&gt;Node39 -->
<g id="edge37" class="edge">
<title>Node34&#45;&gt;Node39</title>
<path fill="none" stroke="#191970" d="M480.5709,-239.5C505.867,-239.5 536.4284,-239.5 562.8296,-239.5"/>
<polygon fill="#191970" stroke="#191970" points="480.4397,-236.0001 470.4397,-239.5 480.4396,-243.0001 480.4397,-236.0001"/>
</g>
<!-- Node42 -->
<g id="node40" class="node">
<title>Node42</title>
<g id="a_node40"><a xlink:href="class_ogre_1_1_metal_texture.html" target="_top" xlink:title="Ogre::MetalTexture">
<polygon fill="none" stroke="#ff0000" points="568.5,-192 568.5,-211 679.5,-211 679.5,-192 568.5,-192"/>
<text text-anchor="middle" x="624" y="-199" font-family="Helvetica,sans-Serif" font-size="10.00" fill="#000000">Ogre::MetalTexture</text>
</a>
</g>
</g>
<!-- Node34&#45;&gt;Node42 -->
<g id="edge39" class="edge">
<title>Node34&#45;&gt;Node42</title>
<path fill="none" stroke="#191970" d="M480.4739,-229.3976C509.7442,-223.7083 546.0878,-216.6441 574.8791,-211.0478"/>
<polygon fill="#191970" stroke="#191970" points="479.5881,-226.0042 470.4397,-231.348 480.9238,-232.8756 479.5881,-226.0042"/>
</g>
<!-- Node45 -->
<g id="node41" class="node">
<title>Node45</title>
<g id="a_node41"><a xlink:href="class_ogre_1_1_n_u_l_l_texture.html" target="_top" xlink:title="Ogre::NULLTexture">
<polygon fill="none" stroke="#000000" points="570,-154 570,-173 678,-173 678,-154 570,-154"/>
<text text-anchor="middle" x="624" y="-161" font-family="Helvetica,sans-Serif" font-size="10.00" fill="#000000">Ogre::NULLTexture</text>
</a>
</g>
</g>
<!-- Node34&#45;&gt;Node45 -->
<g id="edge40" class="edge">
<title>Node34&#45;&gt;Node45</title>
<path fill="none" stroke="#191970" d="M470.1319,-226.5173C481.1398,-222.3761 492.7914,-217.329 503,-211.5 520.842,-201.3125 520.491,-191.4185 539,-182.5 548.5356,-177.9054 559.2116,-174.4028 569.6916,-171.7387"/>
<polygon fill="#191970" stroke="#191970" points="468.9004,-223.2407 460.6764,-229.9202 471.2709,-229.8271 468.9004,-223.2407"/>
</g>
<!-- Node36 -->
<g id="node35" class="node">
<title>Node36</title>
<g id="a_node35"><a xlink:href="class_ogre_1_1_d3_d11_depth_texture.html" target="_top" xlink:title="Ogre::D3D11DepthTexture">
<polygon fill="none" stroke="#000000" points="766,-215 766,-234 912,-234 912,-215 766,-215"/>
<text text-anchor="middle" x="839" y="-222" font-family="Helvetica,sans-Serif" font-size="10.00" fill="#000000">Ogre::D3D11DepthTexture</text>
</a>
</g>
</g>
<!-- Node35&#45;&gt;Node36 -->
<g id="edge34" class="edge">
<title>Node35&#45;&gt;Node36</title>
<path fill="none" stroke="#191970" d="M691.8432,-305.3023C697.9046,-302.9415 703.7319,-300.047 709,-296.5 732.3166,-280.8009 721.6031,-260.0791 745,-244.5 751.5272,-240.1538 758.8261,-236.7293 766.3934,-234.0346"/>
<polygon fill="#191970" stroke="#191970" points="690.5138,-302.0574 682.1723,-308.5896 692.7667,-308.685 690.5138,-302.0574"/>
</g>
<!-- Node37 -->
<g id="node36" class="node">
<title>Node37</title>
<g id="a_node36"><a xlink:href="class_ogre_1_1_d3_d11_null_texture.html" target="_top" xlink:title="Ogre::D3D11NullTexture">
<polygon fill="none" stroke="#000000" points="771,-177 771,-196 907,-196 907,-177 771,-177"/>
<text text-anchor="middle" x="839" y="-184" font-family="Helvetica,sans-Serif" font-size="10.00" fill="#000000">Ogre::D3D11NullTexture</text>
</a>
</g>
</g>
<!-- Node35&#45;&gt;Node37 -->
<g id="edge35" class="edge">
<title>Node35&#45;&gt;Node37</title>
<path fill="none" stroke="#191970" d="M692.2126,-306.7568C698.2927,-304.1127 704.0204,-300.7542 709,-296.5 742.0693,-268.248 711.6432,-233.412 745,-205.5 752.4059,-199.3029 761.2812,-194.9386 770.5797,-191.8947"/>
<polygon fill="#191970" stroke="#191970" points="690.606,-303.6182 682.4248,-310.35 693.0184,-310.1894 690.606,-303.6182"/>
</g>
<!-- Node40 -->
<g id="node39" class="node">
<title>Node40</title>
<g id="a_node39"><a xlink:href="class_ogre_1_1_g_l3_plus_depth_texture.html" target="_top" xlink:title="Ogre::GL3PlusDepthTexture">
<polygon fill="none" stroke="#000000" points="763,-139 763,-158 915,-158 915,-139 763,-139"/>
<text text-anchor="middle" x="839" y="-146" font-family="Helvetica,sans-Serif" font-size="10.00" fill="#000000">Ogre::GL3PlusDepthTexture</text>
</a>
</g>
</g>
<!-- Node39&#45;&gt;Node40 -->
<g id="edge38" class="edge">
<title>Node39&#45;&gt;Node40</title>
<path fill="none" stroke="#191970" d="M694.9955,-228.0719C699.9266,-225.954 704.6563,-223.4527 709,-220.5 732.5497,-204.4914 721.2876,-183.2667 745,-167.5 750.8231,-163.6282 757.2656,-160.5154 763.9675,-158.0168"/>
<polygon fill="#191970" stroke="#191970" points="693.4551,-224.911 685.313,-231.6902 695.9056,-231.4682 693.4551,-224.911"/>
</g>
<!-- Node47 -->
<g id="node43" class="node">
<title>Node47</title>
<g id="a_node43"><a xlink:href="class_ogre_1_1v1_1_1_patch_mesh.html" target="_top" xlink:title="Patch specialisation of Mesh. ">
<polygon fill="none" stroke="#000000" points="565.5,-116 565.5,-135 682.5,-135 682.5,-116 565.5,-116"/>
<text text-anchor="middle" x="624" y="-123" font-family="Helvetica,sans-Serif" font-size="10.00" fill="#000000">Ogre::v1::PatchMesh</text>
</a>
</g>
</g>
<!-- Node46&#45;&gt;Node47 -->
<g id="edge42" class="edge">
<title>Node46&#45;&gt;Node47</title>
<path fill="none" stroke="#191970" d="M456.725,-178.4636C478.7165,-167.966 510.2422,-153.8661 539,-144.5 550.0709,-140.8943 562.1718,-137.7388 573.6816,-135.0888"/>
<polygon fill="#191970" stroke="#191970" points="455.1087,-175.3574 447.6283,-182.8603 458.1549,-181.6598 455.1087,-175.3574"/>
</g>
<!-- Node49 -->
<g id="node45" class="node">
<title>Node49</title>
<g id="a_node45"><a xlink:href="class_ogre_1_1v1_1_1_old_skeleton_instance.html" target="_top" xlink:title="A OldSkeletonInstance is a single instance of a Skeleton used by a world object. ">
<polygon fill="none" stroke="#000000" points="542,-78 542,-97 706,-97 706,-78 542,-78"/>
<text text-anchor="middle" x="624" y="-85" font-family="Helvetica,sans-Serif" font-size="10.00" fill="#000000">Ogre::v1::OldSkeletonInstance</text>
</a>
</g>
</g>
<!-- Node48&#45;&gt;Node49 -->
<g id="edge44" class="edge">
<title>Node48&#45;&gt;Node49</title>
<path fill="none" stroke="#191970" d="M473.5299,-123.2819C493.537,-117.9568 517.4011,-111.7464 539,-106.5 552.2245,-103.2878 566.6562,-99.9858 579.8118,-97.0542"/>
<polygon fill="#191970" stroke="#191970" points="472.5063,-119.9325 463.7492,-125.8961 474.3139,-126.6951 472.5063,-119.9325"/>
</g>
<!-- Node51 -->
<g id="node47" class="node">
<title>Node51</title>
<g id="a_node47"><a xlink:href="class_ogre_1_1v1_1_1_overlay_container.html" target="_top" xlink:title="A 2D element which contains other OverlayElement instances. ">
<polygon fill="none" stroke="#000000" points="354,-50 354,-69 503,-69 503,-50 354,-50"/>
<text text-anchor="middle" x="428.5" y="-57" font-family="Helvetica,sans-Serif" font-size="10.00" fill="#000000">Ogre::v1::OverlayContainer</text>
</a>
</g>
</g>
<!-- Node50&#45;&gt;Node51 -->
<g id="edge46" class="edge">
<title>Node50&#45;&gt;Node51</title>
<path fill="none" stroke="#191970" d="M318.0382,-59.5C329.9333,-59.5 342.1246,-59.5 353.8635,-59.5"/>
<polygon fill="#191970" stroke="#191970" points="317.6799,-56.0001 307.6799,-59.5 317.6799,-63.0001 317.6799,-56.0001"/>
</g>
<!-- Node54 -->
<g id="node49" class="node">
<title>Node54</title>
<g id="a_node49"><a xlink:href="class_ogre_1_1v1_1_1_text_area_overlay_element.html" target="_top" xlink:title="This class implements an overlay element which contains simple unformatted text. ">
<polygon fill="none" stroke="#000000" points="355.5,-.5 355.5,-30.5 501.5,-30.5 501.5,-.5 355.5,-.5"/>
<text text-anchor="start" x="363.5" y="-18.5" font-family="Helvetica,sans-Serif" font-size="10.00" fill="#000000">Ogre::v1::TextAreaOverlay</text>
<text text-anchor="middle" x="428.5" y="-7.5" font-family="Helvetica,sans-Serif" font-size="10.00" fill="#000000">Element</text>
</a>
</g>
</g>
<!-- Node50&#45;&gt;Node54 -->
<g id="edge48" class="edge">
<title>Node50&#45;&gt;Node54</title>
<path fill="none" stroke="#191970" d="M287.6826,-47.6868C310.7115,-42.4231 338.1086,-36.1609 362.589,-30.5654"/>
<polygon fill="#191970" stroke="#191970" points="286.7383,-44.3123 277.7696,-49.9527 288.2981,-51.1363 286.7383,-44.3123"/>
</g>
<!-- Node52 -->
<g id="node48" class="node">
<title>Node52</title>
<g id="a_node48"><a xlink:href="class_ogre_1_1v1_1_1_panel_overlay_element.html" target="_top" xlink:title="OverlayElement representing a flat, single&#45;material (or transparent) panel which can contain other el...">
<polygon fill="none" stroke="#ff0000" points="539,-40 539,-59 709,-59 709,-40 539,-40"/>
<text text-anchor="middle" x="624" y="-47" font-family="Helvetica,sans-Serif" font-size="10.00" fill="#000000">Ogre::v1::PanelOverlayElement</text>
</a>
</g>
</g>
<!-- Node51&#45;&gt;Node52 -->
<g id="edge47" class="edge">
<title>Node51&#45;&gt;Node52</title>
<path fill="none" stroke="#191970" d="M513.441,-55.1552C521.8649,-54.7243 530.4179,-54.2868 538.844,-53.8558"/>
<polygon fill="#191970" stroke="#191970" points="513.0551,-51.6703 503.247,-55.6766 513.4128,-58.6611 513.0551,-51.6703"/>
</g>
</g>
</svg>
