<?xml version="1.0" encoding="UTF-8" standalone="no"?>
<!DOCTYPE svg PUBLIC "-//W3C//DTD SVG 1.1//EN"
 "http://www.w3.org/Graphics/SVG/1.1/DTD/svg11.dtd">
<!-- Generated by graphviz version 2.38.0 (20140413.2041)
 -->
<!-- Title: Ogre::RTShader::ProgramWriterFactory Pages: 1 -->
<svg width="514pt" height="186pt"
 viewBox="0.00 0.00 514.00 186.00" xmlns="http://www.w3.org/2000/svg" xmlns:xlink="http://www.w3.org/1999/xlink">
<g id="graph0" class="graph" transform="scale(1 1) rotate(0) translate(4 182)">
<title>Ogre::RTShader::ProgramWriterFactory</title>
<!-- Node1 -->
<g id="node1" class="node"><title>Node1</title>
<polygon fill="#bfbfbf" stroke="black" points="152,-73.5 152,-103.5 309,-103.5 309,-73.5 152,-73.5"/>
<text text-anchor="start" x="160" y="-91.5" font-family="Helvetica,sans-Serif" font-size="10.00">Ogre::RTShader::ProgramWriter</text>
<text text-anchor="middle" x="230.5" y="-80.5" font-family="Helvetica,sans-Serif" font-size="10.00">Factory</text>
</g>
<!-- Node3 -->
<g id="node3" class="node"><title>Node3</title>
<g id="a_node3"><a xlink:href="class_ogre_1_1_r_t_shader_1_1_shader_program_writer_c_g_factory.html" target="_top" xlink:title="CG program writer factory implementation. ">
<polygon fill="none" stroke="black" points="345,-147.5 345,-177.5 506,-177.5 506,-147.5 345,-147.5"/>
<text text-anchor="start" x="353" y="-165.5" font-family="Helvetica,sans-Serif" font-size="10.00">Ogre::RTShader::ShaderProgram</text>
<text text-anchor="middle" x="425.5" y="-154.5" font-family="Helvetica,sans-Serif" font-size="10.00">WriterCGFactory</text>
</a>
</g>
</g>
<!-- Node1&#45;&gt;Node3 -->
<g id="edge2" class="edge"><title>Node1&#45;&gt;Node3</title>
<path fill="none" stroke="midnightblue" d="M272.009,-107.781C293.449,-117.619 320.37,-129.396 345,-138.5 353.384,-141.599 362.37,-144.605 371.175,-147.381"/>
<polygon fill="midnightblue" stroke="midnightblue" points="273.422,-104.579 262.876,-103.557 270.483,-110.932 273.422,-104.579"/>
</g>
<!-- Node4 -->
<g id="node4" class="node"><title>Node4</title>
<g id="a_node4"><a xlink:href="class_ogre_1_1_r_t_shader_1_1_shader_program_writer_g_l_s_l_e_s_factory.html" target="_top" xlink:title="GLSL ES program writer factory implementation. ">
<polygon fill="none" stroke="black" points="345,-98.5 345,-128.5 506,-128.5 506,-98.5 345,-98.5"/>
<text text-anchor="start" x="353" y="-116.5" font-family="Helvetica,sans-Serif" font-size="10.00">Ogre::RTShader::ShaderProgram</text>
<text text-anchor="middle" x="425.5" y="-105.5" font-family="Helvetica,sans-Serif" font-size="10.00">WriterGLSLESFactory</text>
</a>
</g>
</g>
<!-- Node1&#45;&gt;Node4 -->
<g id="edge3" class="edge"><title>Node1&#45;&gt;Node4</title>
<path fill="none" stroke="midnightblue" d="M319.14,-99.8523C327.687,-100.959 336.327,-102.079 344.789,-103.175"/>
<polygon fill="midnightblue" stroke="midnightblue" points="319.533,-96.3741 309.166,-98.5604 318.634,-103.316 319.533,-96.3741"/>
</g>
<!-- Node5 -->
<g id="node5" class="node"><title>Node5</title>
<g id="a_node5"><a xlink:href="class_ogre_1_1_r_t_shader_1_1_shader_program_writer_g_l_s_l_factory.html" target="_top" xlink:title="GLSL program writer factory implementation. ">
<polygon fill="none" stroke="black" points="345,-49.5 345,-79.5 506,-79.5 506,-49.5 345,-49.5"/>
<text text-anchor="start" x="353" y="-67.5" font-family="Helvetica,sans-Serif" font-size="10.00">Ogre::RTShader::ShaderProgram</text>
<text text-anchor="middle" x="425.5" y="-56.5" font-family="Helvetica,sans-Serif" font-size="10.00">WriterGLSLFactory</text>
</a>
</g>
</g>
<!-- Node1&#45;&gt;Node5 -->
<g id="edge4" class="edge"><title>Node1&#45;&gt;Node5</title>
<path fill="none" stroke="midnightblue" d="M319.14,-77.6017C327.687,-76.5389 336.327,-75.4645 344.789,-74.4122"/>
<polygon fill="midnightblue" stroke="midnightblue" points="318.658,-74.1347 309.166,-78.842 319.522,-81.0812 318.658,-74.1347"/>
</g>
<!-- Node6 -->
<g id="node6" class="node"><title>Node6</title>
<g id="a_node6"><a xlink:href="class_ogre_1_1_r_t_shader_1_1_shader_program_writer_h_l_s_l_factory.html" target="_top" xlink:title="HLSL program writer factory implementation. ">
<polygon fill="none" stroke="black" points="345,-0.5 345,-30.5 506,-30.5 506,-0.5 345,-0.5"/>
<text text-anchor="start" x="353" y="-18.5" font-family="Helvetica,sans-Serif" font-size="10.00">Ogre::RTShader::ShaderProgram</text>
<text text-anchor="middle" x="425.5" y="-7.5" font-family="Helvetica,sans-Serif" font-size="10.00">WriterHLSLFactory</text>
</a>
</g>
</g>
<!-- Node1&#45;&gt;Node6 -->
<g id="edge5" class="edge"><title>Node1&#45;&gt;Node6</title>
<path fill="none" stroke="midnightblue" d="M273.256,-69.1128C294.503,-59.5976 320.876,-48.3161 345,-39.5 353.531,-36.3824 362.678,-33.3457 371.621,-30.539"/>
<polygon fill="midnightblue" stroke="midnightblue" points="271.556,-66.0404 263.881,-73.3452 274.436,-72.4204 271.556,-66.0404"/>
</g>
<!-- Node2 -->
<g id="node2" class="node"><title>Node2</title>
<g id="a_node2"><a xlink:href="class_ogre_1_1_allocated_object.html" target="_top" xlink:title="Superclass for all objects that wish to use custom memory allocators when their new / delete operator...">
<polygon fill="none" stroke="black" points="0,-79 0,-98 116,-98 116,-79 0,-79"/>
<text text-anchor="middle" x="58" y="-86" font-family="Helvetica,sans-Serif" font-size="10.00">RTShaderSystemAlloc</text>
</a>
</g>
</g>
<!-- Node2&#45;&gt;Node1 -->
<g id="edge1" class="edge"><title>Node2&#45;&gt;Node1</title>
<path fill="none" stroke="midnightblue" d="M126.314,-88.5C134.683,-88.5 143.293,-88.5 151.802,-88.5"/>
<polygon fill="midnightblue" stroke="midnightblue" points="126.248,-85.0001 116.248,-88.5 126.248,-92.0001 126.248,-85.0001"/>
</g>
</g>
</svg>
