<?xml version="1.0" encoding="UTF-8" standalone="no"?>
<!DOCTYPE svg PUBLIC "-//W3C//DTD SVG 1.1//EN"
 "http://www.w3.org/Graphics/SVG/1.1/DTD/svg11.dtd">
<!-- Generated by graphviz version 2.40.1 (20161225.0304)
 -->
<!-- Title: Ogre::D3D9MultiRenderTarget Pages: 1 -->
<svg width="218pt" height="196pt"
 viewBox="0.00 0.00 217.50 196.00" xmlns="http://www.w3.org/2000/svg" xmlns:xlink="http://www.w3.org/1999/xlink">
<g id="graph0" class="graph" transform="scale(1 1) rotate(0) translate(4 192)">
<title>Ogre::D3D9MultiRenderTarget</title>
<!-- Node0 -->
<g id="node1" class="node">
<title>Node0</title>
<polygon fill="#bfbfbf" stroke="#000000" points="34.5,-.5 34.5,-19.5 183.5,-19.5 183.5,-.5 34.5,-.5"/>
<text text-anchor="middle" x="109" y="-7.5" font-family="Helvetica,sans-Serif" font-size="10.00" fill="#000000">Ogre::D3D9MultiRenderTarget</text>
</g>
<!-- Node1 -->
<g id="node2" class="node">
<title>Node1</title>
<g id="a_node2"><a xlink:href="class_ogre_1_1_multi_render_target.html" target="_top" xlink:title="This class represents a render target that renders to multiple RenderTextures at once. ">
<polygon fill="none" stroke="#000000" points="47,-56.5 47,-75.5 171,-75.5 171,-56.5 47,-56.5"/>
<text text-anchor="middle" x="109" y="-63.5" font-family="Helvetica,sans-Serif" font-size="10.00" fill="#000000">Ogre::MultiRenderTarget</text>
</a>
</g>
</g>
<!-- Node1&#45;&gt;Node0 -->
<g id="edge1" class="edge">
<title>Node1&#45;&gt;Node0</title>
<path fill="none" stroke="#191970" d="M109,-46.1575C109,-37.155 109,-26.9199 109,-19.6427"/>
<polygon fill="#191970" stroke="#191970" points="105.5001,-46.2455 109,-56.2455 112.5001,-46.2456 105.5001,-46.2455"/>
</g>
<!-- Node2 -->
<g id="node3" class="node">
<title>Node2</title>
<g id="a_node3"><a xlink:href="class_ogre_1_1_render_target.html" target="_top" xlink:title="A &#39;canvas&#39; which can receive the results of a rendering operation. ">
<polygon fill="none" stroke="#000000" points="57.5,-112.5 57.5,-131.5 160.5,-131.5 160.5,-112.5 57.5,-112.5"/>
<text text-anchor="middle" x="109" y="-119.5" font-family="Helvetica,sans-Serif" font-size="10.00" fill="#000000">Ogre::RenderTarget</text>
</a>
</g>
</g>
<!-- Node2&#45;&gt;Node1 -->
<g id="edge2" class="edge">
<title>Node2&#45;&gt;Node1</title>
<path fill="none" stroke="#191970" d="M109,-102.1575C109,-93.155 109,-82.9199 109,-75.6427"/>
<polygon fill="#191970" stroke="#191970" points="105.5001,-102.2455 109,-112.2455 112.5001,-102.2456 105.5001,-102.2455"/>
</g>
<!-- Node3 -->
<g id="node4" class="node">
<title>Node3</title>
<g id="a_node4"><a xlink:href="struct_ogre_1_1_gpu_resource.html" target="_top" xlink:title="Ogre::GpuResource">
<polygon fill="none" stroke="#000000" points="0,-168.5 0,-187.5 104,-187.5 104,-168.5 0,-168.5"/>
<text text-anchor="middle" x="52" y="-175.5" font-family="Helvetica,sans-Serif" font-size="10.00" fill="#000000">Ogre::GpuResource</text>
</a>
</g>
</g>
<!-- Node3&#45;&gt;Node2 -->
<g id="edge3" class="edge">
<title>Node3&#45;&gt;Node2</title>
<path fill="none" stroke="#191970" d="M69.2271,-161.0751C79.0341,-151.4402 90.964,-139.7196 99.1851,-131.6427"/>
<polygon fill="#191970" stroke="#191970" points="66.6091,-158.7406 61.9286,-168.2455 71.5149,-163.734 66.6091,-158.7406"/>
</g>
<!-- Node4 -->
<g id="node5" class="node">
<title>Node4</title>
<g id="a_node5"><a xlink:href="class_ogre_1_1_allocated_object.html" target="_top" xlink:title="Superclass for all objects that wish to use custom memory allocators when their new / delete operator...">
<polygon fill="none" stroke="#000000" points="122.5,-168.5 122.5,-187.5 209.5,-187.5 209.5,-168.5 122.5,-168.5"/>
<text text-anchor="middle" x="166" y="-175.5" font-family="Helvetica,sans-Serif" font-size="10.00" fill="#000000">RenderSysAlloc</text>
</a>
</g>
</g>
<!-- Node4&#45;&gt;Node2 -->
<g id="edge4" class="edge">
<title>Node4&#45;&gt;Node2</title>
<path fill="none" stroke="#191970" d="M148.7729,-161.0751C138.9659,-151.4402 127.036,-139.7196 118.8149,-131.6427"/>
<polygon fill="#191970" stroke="#191970" points="146.4851,-163.734 156.0714,-168.2455 151.3909,-158.7406 146.4851,-163.734"/>
</g>
</g>
</svg>
