<?xml version="1.0" encoding="UTF-8" standalone="no"?>
<!DOCTYPE svg PUBLIC "-//W3C//DTD SVG 1.1//EN"
 "http://www.w3.org/Graphics/SVG/1.1/DTD/svg11.dtd">
<!-- Generated by graphviz version 2.38.0 (20140413.2041)
 -->
<!-- Title: Ogre::RTShader::ProgramWriter Pages: 1 -->
<svg width="522pt" height="186pt"
 viewBox="0.00 0.00 522.00 186.00" xmlns="http://www.w3.org/2000/svg" xmlns:xlink="http://www.w3.org/1999/xlink">
<g id="graph0" class="graph" transform="scale(1 1) rotate(0) translate(4 182)">
<title>Ogre::RTShader::ProgramWriter</title>
<!-- Node1 -->
<g id="node1" class="node"><title>Node1</title>
<polygon fill="#bfbfbf" stroke="black" points="152,-79 152,-98 309,-98 309,-79 152,-79"/>
<text text-anchor="middle" x="230.5" y="-86" font-family="Helvetica,sans-Serif" font-size="10.00">Ogre::RTShader::ProgramWriter</text>
</g>
<!-- Node3 -->
<g id="node3" class="node"><title>Node3</title>
<g id="a_node3"><a xlink:href="class_ogre_1_1_r_t_shader_1_1_c_g_program_writer.html" target="_top" xlink:title="CG target language writer implementation. ">
<polygon fill="none" stroke="black" points="356.5,-147.5 356.5,-177.5 502.5,-177.5 502.5,-147.5 356.5,-147.5"/>
<text text-anchor="start" x="364.5" y="-165.5" font-family="Helvetica,sans-Serif" font-size="10.00">Ogre::RTShader::CGProgram</text>
<text text-anchor="middle" x="429.5" y="-154.5" font-family="Helvetica,sans-Serif" font-size="10.00">Writer</text>
</a>
</g>
</g>
<!-- Node1&#45;&gt;Node3 -->
<g id="edge2" class="edge"><title>Node1&#45;&gt;Node3</title>
<path fill="none" stroke="midnightblue" d="M260.336,-102.498C283.018,-113.191 315.593,-127.852 345,-138.5 353.651,-141.633 362.921,-144.635 372.022,-147.391"/>
<polygon fill="midnightblue" stroke="midnightblue" points="261.794,-99.3156 251.26,-98.1819 258.787,-105.637 261.794,-99.3156"/>
</g>
<!-- Node4 -->
<g id="node4" class="node"><title>Node4</title>
<g id="a_node4"><a xlink:href="class_ogre_1_1_r_t_shader_1_1_g_l_s_l_e_s_program_writer.html" target="_top" xlink:title="GLSL ES target language writer implementation. ">
<polygon fill="none" stroke="black" points="345,-98.5 345,-128.5 514,-128.5 514,-98.5 345,-98.5"/>
<text text-anchor="start" x="353" y="-116.5" font-family="Helvetica,sans-Serif" font-size="10.00">Ogre::RTShader::GLSLESProgram</text>
<text text-anchor="middle" x="429.5" y="-105.5" font-family="Helvetica,sans-Serif" font-size="10.00">Writer</text>
</a>
</g>
</g>
<!-- Node1&#45;&gt;Node4 -->
<g id="edge3" class="edge"><title>Node1&#45;&gt;Node4</title>
<path fill="none" stroke="midnightblue" d="M316.601,-99.2996C325.948,-100.486 335.458,-101.693 344.788,-102.877"/>
<polygon fill="midnightblue" stroke="midnightblue" points="316.9,-95.8096 306.539,-98.0227 316.019,-102.754 316.9,-95.8096"/>
</g>
<!-- Node5 -->
<g id="node5" class="node"><title>Node5</title>
<g id="a_node5"><a xlink:href="class_ogre_1_1_r_t_shader_1_1_g_l_s_l_program_writer.html" target="_top" xlink:title="GLSL target language writer implementation. ">
<polygon fill="none" stroke="black" points="352,-49.5 352,-79.5 507,-79.5 507,-49.5 352,-49.5"/>
<text text-anchor="start" x="360" y="-67.5" font-family="Helvetica,sans-Serif" font-size="10.00">Ogre::RTShader::GLSLProgram</text>
<text text-anchor="middle" x="429.5" y="-56.5" font-family="Helvetica,sans-Serif" font-size="10.00">Writer</text>
</a>
</g>
</g>
<!-- Node1&#45;&gt;Node5 -->
<g id="edge4" class="edge"><title>Node1&#45;&gt;Node5</title>
<path fill="none" stroke="midnightblue" d="M319.077,-77.8307C330.04,-76.4951 341.186,-75.1373 351.962,-73.8245"/>
<polygon fill="midnightblue" stroke="midnightblue" points="318.58,-74.3653 309.077,-79.049 319.427,-81.3139 318.58,-74.3653"/>
</g>
<!-- Node6 -->
<g id="node6" class="node"><title>Node6</title>
<g id="a_node6"><a xlink:href="class_ogre_1_1_r_t_shader_1_1_h_l_s_l_program_writer.html" target="_top" xlink:title="HLSL target language writer implementation. ">
<polygon fill="none" stroke="black" points="352,-0.5 352,-30.5 507,-30.5 507,-0.5 352,-0.5"/>
<text text-anchor="start" x="360" y="-18.5" font-family="Helvetica,sans-Serif" font-size="10.00">Ogre::RTShader::HLSLProgram</text>
<text text-anchor="middle" x="429.5" y="-7.5" font-family="Helvetica,sans-Serif" font-size="10.00">Writer</text>
</a>
</g>
</g>
<!-- Node1&#45;&gt;Node6 -->
<g id="edge5" class="edge"><title>Node1&#45;&gt;Node6</title>
<path fill="none" stroke="midnightblue" d="M260.779,-74.6318C283.458,-64.191 315.826,-49.9421 345,-39.5 353.805,-36.3486 363.242,-33.3159 372.49,-30.5294"/>
<polygon fill="midnightblue" stroke="midnightblue" points="259.286,-71.4658 251.69,-78.851 262.234,-77.815 259.286,-71.4658"/>
</g>
<!-- Node2 -->
<g id="node2" class="node"><title>Node2</title>
<g id="a_node2"><a xlink:href="class_ogre_1_1_allocated_object.html" target="_top" xlink:title="Superclass for all objects that wish to use custom memory allocators when their new / delete operator...">
<polygon fill="none" stroke="black" points="0,-79 0,-98 116,-98 116,-79 0,-79"/>
<text text-anchor="middle" x="58" y="-86" font-family="Helvetica,sans-Serif" font-size="10.00">RTShaderSystemAlloc</text>
</a>
</g>
</g>
<!-- Node2&#45;&gt;Node1 -->
<g id="edge1" class="edge"><title>Node2&#45;&gt;Node1</title>
<path fill="none" stroke="midnightblue" d="M126.314,-88.5C134.683,-88.5 143.293,-88.5 151.802,-88.5"/>
<polygon fill="midnightblue" stroke="midnightblue" points="126.248,-85.0001 116.248,-88.5 126.248,-92.0001 126.248,-85.0001"/>
</g>
</g>
</svg>
