<?xml version="1.0" encoding="UTF-8" standalone="no"?>
<!DOCTYPE svg PUBLIC "-//W3C//DTD SVG 1.1//EN"
 "http://www.w3.org/Graphics/SVG/1.1/DTD/svg11.dtd">
<!-- Generated by graphviz version 2.38.0 (20140413.2041)
 -->
<!-- Title: Ogre::MetalRenderWindow Pages: 1 -->
<svg width="358pt" height="196pt"
 viewBox="0.00 0.00 357.50 196.00" xmlns="http://www.w3.org/2000/svg" xmlns:xlink="http://www.w3.org/1999/xlink">
<g id="graph0" class="graph" transform="scale(1 1) rotate(0) translate(4 192)">
<title>Ogre::MetalRenderWindow</title>
<!-- Node1 -->
<g id="node1" class="node"><title>Node1</title>
<polygon fill="#bfbfbf" stroke="black" points="120,-0.5 120,-19.5 254,-19.5 254,-0.5 120,-0.5"/>
<text text-anchor="middle" x="187" y="-7.5" font-family="Helvetica,sans-Serif" font-size="10.00">Ogre::MetalRenderWindow</text>
</g>
<!-- Node2 -->
<g id="node2" class="node"><title>Node2</title>
<g id="a_node2"><a xlink:href="class_ogre_1_1_render_window.html" target="_top" xlink:title="Manages the target rendering window. ">
<polygon fill="none" stroke="black" points="54,-56.5 54,-75.5 164,-75.5 164,-56.5 54,-56.5"/>
<text text-anchor="middle" x="109" y="-63.5" font-family="Helvetica,sans-Serif" font-size="10.00">Ogre::RenderWindow</text>
</a>
</g>
</g>
<!-- Node2&#45;&gt;Node1 -->
<g id="edge1" class="edge"><title>Node2&#45;&gt;Node1</title>
<path fill="none" stroke="midnightblue" d="M129.768,-50.6221C144.017,-40.7574 162.456,-27.9919 174.499,-19.6545"/>
<polygon fill="midnightblue" stroke="midnightblue" points="127.762,-47.7541 121.532,-56.324 131.746,-53.5095 127.762,-47.7541"/>
</g>
<!-- Node3 -->
<g id="node3" class="node"><title>Node3</title>
<g id="a_node3"><a xlink:href="class_ogre_1_1_render_target.html" target="_top" xlink:title="A &#39;canvas&#39; which can receive the results of a rendering operation. ">
<polygon fill="none" stroke="black" points="57.5,-112.5 57.5,-131.5 160.5,-131.5 160.5,-112.5 57.5,-112.5"/>
<text text-anchor="middle" x="109" y="-119.5" font-family="Helvetica,sans-Serif" font-size="10.00">Ogre::RenderTarget</text>
</a>
</g>
</g>
<!-- Node3&#45;&gt;Node2 -->
<g id="edge2" class="edge"><title>Node3&#45;&gt;Node2</title>
<path fill="none" stroke="midnightblue" d="M109,-101.805C109,-92.9102 109,-82.7798 109,-75.7511"/>
<polygon fill="midnightblue" stroke="midnightblue" points="105.5,-102.083 109,-112.083 112.5,-102.083 105.5,-102.083"/>
</g>
<!-- Node4 -->
<g id="node4" class="node"><title>Node4</title>
<g id="a_node4"><a xlink:href="struct_ogre_1_1_gpu_resource.html" target="_top" xlink:title="Ogre::GpuResource">
<polygon fill="none" stroke="black" points="0,-168.5 0,-187.5 104,-187.5 104,-168.5 0,-168.5"/>
<text text-anchor="middle" x="52" y="-175.5" font-family="Helvetica,sans-Serif" font-size="10.00">Ogre::GpuResource</text>
</a>
</g>
</g>
<!-- Node4&#45;&gt;Node3 -->
<g id="edge3" class="edge"><title>Node4&#45;&gt;Node3</title>
<path fill="none" stroke="midnightblue" d="M68.6215,-161.253C78.734,-151.673 91.2766,-139.791 99.6753,-131.834"/>
<polygon fill="midnightblue" stroke="midnightblue" points="66.0105,-158.906 61.158,-168.324 70.8247,-163.987 66.0105,-158.906"/>
</g>
<!-- Node5 -->
<g id="node5" class="node"><title>Node5</title>
<g id="a_node5"><a xlink:href="class_ogre_1_1_allocated_object.html" target="_top" xlink:title="Superclass for all objects that wish to use custom memory allocators when their new / delete operator...">
<polygon fill="none" stroke="black" points="122.5,-168.5 122.5,-187.5 209.5,-187.5 209.5,-168.5 122.5,-168.5"/>
<text text-anchor="middle" x="166" y="-175.5" font-family="Helvetica,sans-Serif" font-size="10.00">RenderSysAlloc</text>
</a>
</g>
</g>
<!-- Node5&#45;&gt;Node3 -->
<g id="edge4" class="edge"><title>Node5&#45;&gt;Node3</title>
<path fill="none" stroke="midnightblue" d="M149.379,-161.253C139.266,-151.673 126.723,-139.791 118.325,-131.834"/>
<polygon fill="midnightblue" stroke="midnightblue" points="147.175,-163.987 156.842,-168.324 151.99,-158.906 147.175,-163.987"/>
</g>
<!-- Node6 -->
<g id="node6" class="node"><title>Node6</title>
<g id="a_node6"><a xlink:href="class_ogre_1_1_metal_render_target_common.html" target="_top" xlink:title="Ogre::MetalRenderTargetCommon">
<polygon fill="none" stroke="black" points="182.5,-56.5 182.5,-75.5 349.5,-75.5 349.5,-56.5 182.5,-56.5"/>
<text text-anchor="middle" x="266" y="-63.5" font-family="Helvetica,sans-Serif" font-size="10.00">Ogre::MetalRenderTargetCommon</text>
</a>
</g>
</g>
<!-- Node6&#45;&gt;Node1 -->
<g id="edge5" class="edge"><title>Node6&#45;&gt;Node1</title>
<path fill="none" stroke="midnightblue" d="M244.966,-50.6221C230.534,-40.7574 211.859,-27.9919 199.661,-19.6545"/>
<polygon fill="midnightblue" stroke="midnightblue" points="243.077,-53.5703 253.307,-56.324 247.027,-47.7914 243.077,-53.5703"/>
</g>
</g>
</svg>
