<?xml version="1.0" encoding="UTF-8" standalone="no"?>
<!DOCTYPE svg PUBLIC "-//W3C//DTD SVG 1.1//EN"
 "http://www.w3.org/Graphics/SVG/1.1/DTD/svg11.dtd">
<!-- Generated by graphviz version 2.40.1 (20161225.0304)
 -->
<!-- Title: Ogre::GLES2RenderTexture Pages: 1 -->
<svg width="218pt" height="263pt"
 viewBox="0.00 0.00 217.50 263.00" xmlns="http://www.w3.org/2000/svg" xmlns:xlink="http://www.w3.org/1999/xlink">
<g id="graph0" class="graph" transform="scale(1 1) rotate(0) translate(4 259)">
<title>Ogre::GLES2RenderTexture</title>
<!-- Node0 -->
<g id="node1" class="node">
<title>Node0</title>
<polygon fill="#bfbfbf" stroke="#000000" points="39,-67.5 39,-86.5 179,-86.5 179,-67.5 39,-67.5"/>
<text text-anchor="middle" x="109" y="-74.5" font-family="Helvetica,sans-Serif" font-size="10.00" fill="#000000">Ogre::GLES2RenderTexture</text>
</g>
<!-- Node5 -->
<g id="node6" class="node">
<title>Node5</title>
<g id="a_node6"><a xlink:href="class_ogre_1_1_g_l_e_s2_copying_render_texture.html" target="_top" xlink:title="Ogre::GLES2CopyingRender\lTexture">
<polygon fill="none" stroke="#000000" points="37.5,-.5 37.5,-30.5 180.5,-30.5 180.5,-.5 37.5,-.5"/>
<text text-anchor="start" x="45.5" y="-18.5" font-family="Helvetica,sans-Serif" font-size="10.00" fill="#000000">Ogre::GLES2CopyingRender</text>
<text text-anchor="middle" x="109" y="-7.5" font-family="Helvetica,sans-Serif" font-size="10.00" fill="#000000">Texture</text>
</a>
</g>
</g>
<!-- Node0&#45;&gt;Node5 -->
<g id="edge5" class="edge">
<title>Node0&#45;&gt;Node5</title>
<path fill="none" stroke="#191970" d="M109,-57.3693C109,-48.681 109,-38.6241 109,-30.5446"/>
<polygon fill="#191970" stroke="#191970" points="105.5001,-57.3906 109,-67.3906 112.5001,-57.3907 105.5001,-57.3906"/>
</g>
<!-- Node1 -->
<g id="node2" class="node">
<title>Node1</title>
<g id="a_node2"><a xlink:href="class_ogre_1_1_render_texture.html" target="_top" xlink:title="This class represents a RenderTarget that renders to a Texture. ">
<polygon fill="none" stroke="#000000" points="55,-123.5 55,-142.5 163,-142.5 163,-123.5 55,-123.5"/>
<text text-anchor="middle" x="109" y="-130.5" font-family="Helvetica,sans-Serif" font-size="10.00" fill="#000000">Ogre::RenderTexture</text>
</a>
</g>
</g>
<!-- Node1&#45;&gt;Node0 -->
<g id="edge1" class="edge">
<title>Node1&#45;&gt;Node0</title>
<path fill="none" stroke="#191970" d="M109,-113.1575C109,-104.155 109,-93.9199 109,-86.6427"/>
<polygon fill="#191970" stroke="#191970" points="105.5001,-113.2455 109,-123.2455 112.5001,-113.2456 105.5001,-113.2455"/>
</g>
<!-- Node2 -->
<g id="node3" class="node">
<title>Node2</title>
<g id="a_node3"><a xlink:href="class_ogre_1_1_render_target.html" target="_top" xlink:title="A &#39;canvas&#39; which can receive the results of a rendering operation. ">
<polygon fill="none" stroke="#000000" points="57.5,-179.5 57.5,-198.5 160.5,-198.5 160.5,-179.5 57.5,-179.5"/>
<text text-anchor="middle" x="109" y="-186.5" font-family="Helvetica,sans-Serif" font-size="10.00" fill="#000000">Ogre::RenderTarget</text>
</a>
</g>
</g>
<!-- Node2&#45;&gt;Node1 -->
<g id="edge2" class="edge">
<title>Node2&#45;&gt;Node1</title>
<path fill="none" stroke="#191970" d="M109,-169.1575C109,-160.155 109,-149.9199 109,-142.6427"/>
<polygon fill="#191970" stroke="#191970" points="105.5001,-169.2455 109,-179.2455 112.5001,-169.2456 105.5001,-169.2455"/>
</g>
<!-- Node3 -->
<g id="node4" class="node">
<title>Node3</title>
<g id="a_node4"><a xlink:href="struct_ogre_1_1_gpu_resource.html" target="_top" xlink:title="Ogre::GpuResource">
<polygon fill="none" stroke="#000000" points="0,-235.5 0,-254.5 104,-254.5 104,-235.5 0,-235.5"/>
<text text-anchor="middle" x="52" y="-242.5" font-family="Helvetica,sans-Serif" font-size="10.00" fill="#000000">Ogre::GpuResource</text>
</a>
</g>
</g>
<!-- Node3&#45;&gt;Node2 -->
<g id="edge3" class="edge">
<title>Node3&#45;&gt;Node2</title>
<path fill="none" stroke="#191970" d="M69.2271,-228.0751C79.0341,-218.4402 90.964,-206.7196 99.1851,-198.6427"/>
<polygon fill="#191970" stroke="#191970" points="66.6091,-225.7406 61.9286,-235.2455 71.5149,-230.734 66.6091,-225.7406"/>
</g>
<!-- Node4 -->
<g id="node5" class="node">
<title>Node4</title>
<g id="a_node5"><a xlink:href="class_ogre_1_1_allocated_object.html" target="_top" xlink:title="Superclass for all objects that wish to use custom memory allocators when their new / delete operator...">
<polygon fill="none" stroke="#000000" points="122.5,-235.5 122.5,-254.5 209.5,-254.5 209.5,-235.5 122.5,-235.5"/>
<text text-anchor="middle" x="166" y="-242.5" font-family="Helvetica,sans-Serif" font-size="10.00" fill="#000000">RenderSysAlloc</text>
</a>
</g>
</g>
<!-- Node4&#45;&gt;Node2 -->
<g id="edge4" class="edge">
<title>Node4&#45;&gt;Node2</title>
<path fill="none" stroke="#191970" d="M148.7729,-228.0751C138.9659,-218.4402 127.036,-206.7196 118.8149,-198.6427"/>
<polygon fill="#191970" stroke="#191970" points="146.4851,-230.734 156.0714,-235.2455 151.3909,-225.7406 146.4851,-230.734"/>
</g>
</g>
</svg>
