<?xml version="1.0" encoding="UTF-8" standalone="no"?>
<!DOCTYPE svg PUBLIC "-//W3C//DTD SVG 1.1//EN"
 "http://www.w3.org/Graphics/SVG/1.1/DTD/svg11.dtd">
<!-- Generated by graphviz version 2.38.0 (20140413.2041)
 -->
<!-- Title: Ogre::CompositorPass Pages: 1 -->
<svg width="467pt" height="294pt"
 viewBox="0.00 0.00 467.00 294.00" xmlns="http://www.w3.org/2000/svg" xmlns:xlink="http://www.w3.org/1999/xlink">
<g id="graph0" class="graph" transform="scale(1 1) rotate(0) translate(4 290)">
<title>Ogre::CompositorPass</title>
<!-- Node1 -->
<g id="node1" class="node"><title>Node1</title>
<polygon fill="#bfbfbf" stroke="black" points="141,-133.5 141,-152.5 257,-152.5 257,-133.5 141,-133.5"/>
<text text-anchor="middle" x="199" y="-140.5" font-family="Helvetica,sans-Serif" font-size="10.00">Ogre::CompositorPass</text>
</g>
<!-- Node3 -->
<g id="node3" class="node"><title>Node3</title>
<g id="a_node3"><a xlink:href="class_ogre_1_1_compositor_pass_clear.html" target="_top" xlink:title="Implementation of CompositorPass This implementation will clear the RenderTarget using the parameters...">
<polygon fill="none" stroke="black" points="306,-266.5 306,-285.5 446,-285.5 446,-266.5 306,-266.5"/>
<text text-anchor="middle" x="376" y="-273.5" font-family="Helvetica,sans-Serif" font-size="10.00">Ogre::CompositorPassClear</text>
</a>
</g>
</g>
<!-- Node1&#45;&gt;Node3 -->
<g id="edge2" class="edge"><title>Node1&#45;&gt;Node3</title>
<path fill="none" stroke="midnightblue" d="M210.029,-161.846C224.709,-187.522 254.53,-233.037 293,-257 299.202,-260.863 306.109,-263.942 313.21,-266.396"/>
<polygon fill="midnightblue" stroke="midnightblue" points="212.907,-159.817 204.999,-152.766 206.784,-163.21 212.907,-159.817"/>
</g>
<!-- Node4 -->
<g id="node4" class="node"><title>Node4</title>
<g id="a_node4"><a xlink:href="class_ogre_1_1_compositor_pass_compute.html" target="_top" xlink:title="Implementation of CompositorPass This implementation will render a fullscreen triangle/quad to the Re...">
<polygon fill="none" stroke="black" points="298,-228.5 298,-247.5 454,-247.5 454,-228.5 298,-228.5"/>
<text text-anchor="middle" x="376" y="-235.5" font-family="Helvetica,sans-Serif" font-size="10.00">Ogre::CompositorPassCompute</text>
</a>
</g>
</g>
<!-- Node1&#45;&gt;Node4 -->
<g id="edge3" class="edge"><title>Node1&#45;&gt;Node4</title>
<path fill="none" stroke="midnightblue" d="M215.814,-159.862C233.119,-177.295 262.485,-204.018 293,-219 300.87,-222.864 309.556,-225.961 318.242,-228.437"/>
<polygon fill="midnightblue" stroke="midnightblue" points="218.226,-157.322 208.751,-152.581 213.202,-162.196 218.226,-157.322"/>
</g>
<!-- Node5 -->
<g id="node5" class="node"><title>Node5</title>
<g id="a_node5"><a xlink:href="class_ogre_1_1_compositor_pass_depth_copy.html" target="_top" xlink:title="Implementation of CompositorPass This implementation will copy one DepthBuffer to another DepthBuffer...">
<polygon fill="none" stroke="black" points="293,-190.5 293,-209.5 459,-209.5 459,-190.5 293,-190.5"/>
<text text-anchor="middle" x="376" y="-197.5" font-family="Helvetica,sans-Serif" font-size="10.00">Ogre::CompositorPassDepthCopy</text>
</a>
</g>
</g>
<!-- Node1&#45;&gt;Node5 -->
<g id="edge4" class="edge"><title>Node1&#45;&gt;Node5</title>
<path fill="none" stroke="midnightblue" d="M230.084,-156.727C248.076,-164.574 271.542,-174.179 293,-181 304.141,-184.542 316.327,-187.725 327.816,-190.429"/>
<polygon fill="midnightblue" stroke="midnightblue" points="231.261,-153.421 220.7,-152.578 228.43,-159.823 231.261,-153.421"/>
</g>
<!-- Node6 -->
<g id="node6" class="node"><title>Node6</title>
<g id="a_node6"><a xlink:href="class_ogre_1_1_compositor_pass_mipmap.html" target="_top" xlink:title="Implementation of CompositorPass This implementation will Mipmap the texture used by this RenderTarge...">
<polygon fill="none" stroke="black" points="300.5,-152.5 300.5,-171.5 451.5,-171.5 451.5,-152.5 300.5,-152.5"/>
<text text-anchor="middle" x="376" y="-159.5" font-family="Helvetica,sans-Serif" font-size="10.00">Ogre::CompositorPassMipmap</text>
</a>
</g>
</g>
<!-- Node1&#45;&gt;Node6 -->
<g id="edge5" class="edge"><title>Node1&#45;&gt;Node6</title>
<path fill="none" stroke="midnightblue" d="M267.473,-150.326C278.243,-151.495 289.44,-152.711 300.364,-153.897"/>
<polygon fill="midnightblue" stroke="midnightblue" points="267.621,-146.821 257.302,-149.221 266.865,-153.78 267.621,-146.821"/>
</g>
<!-- Node7 -->
<g id="node7" class="node"><title>Node7</title>
<g id="a_node7"><a xlink:href="class_ogre_1_1_compositor_pass_quad.html" target="_top" xlink:title="Implementation of CompositorPass This implementation will render a fullscreen triangle/quad to the Re...">
<polygon fill="none" stroke="black" points="306,-114.5 306,-133.5 446,-133.5 446,-114.5 306,-114.5"/>
<text text-anchor="middle" x="376" y="-121.5" font-family="Helvetica,sans-Serif" font-size="10.00">Ogre::CompositorPassQuad</text>
</a>
</g>
</g>
<!-- Node1&#45;&gt;Node7 -->
<g id="edge6" class="edge"><title>Node1&#45;&gt;Node7</title>
<path fill="none" stroke="midnightblue" d="M267.314,-135.692C279.985,-134.316 293.254,-132.875 305.977,-131.494"/>
<polygon fill="midnightblue" stroke="midnightblue" points="266.865,-132.22 257.302,-136.779 267.621,-139.179 266.865,-132.22"/>
</g>
<!-- Node8 -->
<g id="node8" class="node"><title>Node8</title>
<g id="a_node8"><a xlink:href="class_ogre_1_1_compositor_pass_scene.html" target="_top" xlink:title="Implementation of CompositorPass This implementation will perform main rendering, selecting several p...">
<polygon fill="none" stroke="black" points="304,-76.5 304,-95.5 448,-95.5 448,-76.5 304,-76.5"/>
<text text-anchor="middle" x="376" y="-83.5" font-family="Helvetica,sans-Serif" font-size="10.00">Ogre::CompositorPassScene</text>
</a>
</g>
</g>
<!-- Node1&#45;&gt;Node8 -->
<g id="edge7" class="edge"><title>Node1&#45;&gt;Node8</title>
<path fill="none" stroke="midnightblue" d="M230.084,-129.273C248.076,-121.426 271.542,-111.821 293,-105 304.141,-101.458 316.327,-98.2746 327.816,-95.5712"/>
<polygon fill="midnightblue" stroke="midnightblue" points="228.43,-126.177 220.7,-133.422 231.261,-132.579 228.43,-126.177"/>
</g>
<!-- Node9 -->
<g id="node9" class="node"><title>Node9</title>
<g id="a_node9"><a xlink:href="class_ogre_1_1_compositor_pass_stencil.html" target="_top" xlink:title="Implementation of CompositorPass This implementation will clear the RenderTarget using the parameters...">
<polygon fill="none" stroke="black" points="303,-38.5 303,-57.5 449,-57.5 449,-38.5 303,-38.5"/>
<text text-anchor="middle" x="376" y="-45.5" font-family="Helvetica,sans-Serif" font-size="10.00">Ogre::CompositorPassStencil</text>
</a>
</g>
</g>
<!-- Node1&#45;&gt;Node9 -->
<g id="edge8" class="edge"><title>Node1&#45;&gt;Node9</title>
<path fill="none" stroke="midnightblue" d="M215.814,-126.138C233.119,-108.705 262.485,-81.9825 293,-67 300.87,-63.1357 309.556,-60.039 318.242,-57.5625"/>
<polygon fill="midnightblue" stroke="midnightblue" points="213.202,-123.804 208.751,-133.419 218.226,-128.678 213.202,-123.804"/>
</g>
<!-- Node10 -->
<g id="node10" class="node"><title>Node10</title>
<g id="a_node10"><a xlink:href="class_ogre_1_1_compositor_pass_uav.html" target="_top" xlink:title="Implementation of CompositorPass This implementation will set UAVs. ">
<polygon fill="none" stroke="black" points="309,-0.5 309,-19.5 443,-19.5 443,-0.5 309,-0.5"/>
<text text-anchor="middle" x="376" y="-7.5" font-family="Helvetica,sans-Serif" font-size="10.00">Ogre::CompositorPassUav</text>
</a>
</g>
</g>
<!-- Node1&#45;&gt;Node10 -->
<g id="edge9" class="edge"><title>Node1&#45;&gt;Node10</title>
<path fill="none" stroke="midnightblue" d="M210.029,-124.154C224.709,-98.478 254.53,-52.9634 293,-29 299.202,-25.1368 306.109,-22.0579 313.21,-19.6042"/>
<polygon fill="midnightblue" stroke="midnightblue" points="206.784,-122.79 204.999,-133.234 212.907,-126.183 206.784,-122.79"/>
</g>
<!-- Node2 -->
<g id="node2" class="node"><title>Node2</title>
<g id="a_node2"><a xlink:href="class_ogre_1_1_allocated_object.html" target="_top" xlink:title="Superclass for all objects that wish to use custom memory allocators when their new / delete operator...">
<polygon fill="none" stroke="black" points="0,-133.5 0,-152.5 105,-152.5 105,-133.5 0,-133.5"/>
<text text-anchor="middle" x="52.5" y="-140.5" font-family="Helvetica,sans-Serif" font-size="10.00">CompositorInstAlloc</text>
</a>
</g>
</g>
<!-- Node2&#45;&gt;Node1 -->
<g id="edge1" class="edge"><title>Node2&#45;&gt;Node1</title>
<path fill="none" stroke="midnightblue" d="M115.39,-143C123.798,-143 132.397,-143 140.72,-143"/>
<polygon fill="midnightblue" stroke="midnightblue" points="115.26,-139.5 105.26,-143 115.26,-146.5 115.26,-139.5"/>
</g>
</g>
</svg>
