<?xml version="1.0" encoding="UTF-8" standalone="no"?>
<!DOCTYPE svg PUBLIC "-//W3C//DTD SVG 1.1//EN"
 "http://www.w3.org/Graphics/SVG/1.1/DTD/svg11.dtd">
<!-- Generated by graphviz version 2.38.0 (20140413.2041)
 -->
<!-- Title: Ogre::AndroidEGLSupport Pages: 1 -->
<svg width="138pt" height="140pt"
 viewBox="0.00 0.00 138.00 140.00" xmlns="http://www.w3.org/2000/svg" xmlns:xlink="http://www.w3.org/1999/xlink">
<g id="graph0" class="graph" transform="scale(1 1) rotate(0) translate(4 136)">
<title>Ogre::AndroidEGLSupport</title>
<!-- Node1 -->
<g id="node1" class="node"><title>Node1</title>
<polygon fill="#bfbfbf" stroke="black" points="0,-0.5 0,-19.5 130,-19.5 130,-0.5 0,-0.5"/>
<text text-anchor="middle" x="65" y="-7.5" font-family="Helvetica,sans-Serif" font-size="10.00">Ogre::AndroidEGLSupport</text>
</g>
<!-- Node2 -->
<g id="node2" class="node"><title>Node2</title>
<g id="a_node2"><a xlink:href="class_ogre_1_1_e_g_l_support.html" target="_top" xlink:title="Ogre::EGLSupport">
<polygon fill="none" stroke="black" points="16.5,-56.5 16.5,-75.5 113.5,-75.5 113.5,-56.5 16.5,-56.5"/>
<text text-anchor="middle" x="65" y="-63.5" font-family="Helvetica,sans-Serif" font-size="10.00">Ogre::EGLSupport</text>
</a>
</g>
</g>
<!-- Node2&#45;&gt;Node1 -->
<g id="edge1" class="edge"><title>Node2&#45;&gt;Node1</title>
<path fill="none" stroke="midnightblue" d="M65,-45.8045C65,-36.9102 65,-26.7798 65,-19.7511"/>
<polygon fill="midnightblue" stroke="midnightblue" points="61.5001,-46.083 65,-56.083 68.5001,-46.083 61.5001,-46.083"/>
</g>
<!-- Node3 -->
<g id="node3" class="node"><title>Node3</title>
<g id="a_node3"><a xlink:href="class_ogre_1_1_g_l_e_s2_support.html" target="_top" xlink:title="Ogre::GLES2Support">
<polygon fill="none" stroke="black" points="10.5,-112.5 10.5,-131.5 119.5,-131.5 119.5,-112.5 10.5,-112.5"/>
<text text-anchor="middle" x="65" y="-119.5" font-family="Helvetica,sans-Serif" font-size="10.00">Ogre::GLES2Support</text>
</a>
</g>
</g>
<!-- Node3&#45;&gt;Node2 -->
<g id="edge2" class="edge"><title>Node3&#45;&gt;Node2</title>
<path fill="none" stroke="midnightblue" d="M65,-101.805C65,-92.9102 65,-82.7798 65,-75.7511"/>
<polygon fill="midnightblue" stroke="midnightblue" points="61.5001,-102.083 65,-112.083 68.5001,-102.083 61.5001,-102.083"/>
</g>
</g>
</svg>
