<?xml version="1.0" encoding="UTF-8" standalone="no"?>
<!DOCTYPE svg PUBLIC "-//W3C//DTD SVG 1.1//EN"
 "http://www.w3.org/Graphics/SVG/1.1/DTD/svg11.dtd">
<!-- Generated by graphviz version 2.40.1 (20161225.0304)
 -->
<!-- Title: Ogre::D3D11Texture Pages: 1 -->
<svg width="308pt" height="252pt"
 viewBox="0.00 0.00 308.00 252.00" xmlns="http://www.w3.org/2000/svg" xmlns:xlink="http://www.w3.org/1999/xlink">
<g id="graph0" class="graph" transform="scale(1 1) rotate(0) translate(4 248)">
<title>Ogre::D3D11Texture</title>
<!-- Node0 -->
<g id="node1" class="node">
<title>Node0</title>
<polygon fill="#bfbfbf" stroke="#000000" points="94,-56.5 94,-75.5 210,-75.5 210,-56.5 94,-56.5"/>
<text text-anchor="middle" x="152" y="-63.5" font-family="Helvetica,sans-Serif" font-size="10.00" fill="#000000">Ogre::D3D11Texture</text>
</g>
<!-- Node5 -->
<g id="node6" class="node">
<title>Node5</title>
<g id="a_node6"><a xlink:href="class_ogre_1_1_d3_d11_depth_texture.html" target="_top" xlink:title="Ogre::D3D11DepthTexture">
<polygon fill="none" stroke="#000000" points="0,-.5 0,-19.5 146,-19.5 146,-.5 0,-.5"/>
<text text-anchor="middle" x="73" y="-7.5" font-family="Helvetica,sans-Serif" font-size="10.00" fill="#000000">Ogre::D3D11DepthTexture</text>
</a>
</g>
</g>
<!-- Node0&#45;&gt;Node5 -->
<g id="edge5" class="edge">
<title>Node0&#45;&gt;Node5</title>
<path fill="none" stroke="#191970" d="M129.7244,-50.2097C115.8495,-40.3743 98.4485,-28.0394 86.6031,-19.6427"/>
<polygon fill="#191970" stroke="#191970" points="128.0569,-53.3178 138.2393,-56.2455 132.1051,-47.6071 128.0569,-53.3178"/>
</g>
<!-- Node6 -->
<g id="node7" class="node">
<title>Node6</title>
<g id="a_node7"><a xlink:href="class_ogre_1_1_d3_d11_null_texture.html" target="_top" xlink:title="Ogre::D3D11NullTexture">
<polygon fill="none" stroke="#000000" points="164,-.5 164,-19.5 300,-19.5 300,-.5 164,-.5"/>
<text text-anchor="middle" x="232" y="-7.5" font-family="Helvetica,sans-Serif" font-size="10.00" fill="#000000">Ogre::D3D11NullTexture</text>
</a>
</g>
</g>
<!-- Node0&#45;&gt;Node6 -->
<g id="edge6" class="edge">
<title>Node0&#45;&gt;Node6</title>
<path fill="none" stroke="#191970" d="M174.1571,-50.49C188.272,-40.6096 206.1151,-28.1194 218.2248,-19.6427"/>
<polygon fill="#191970" stroke="#191970" points="172.1201,-47.6436 165.9349,-56.2455 176.1344,-53.3782 172.1201,-47.6436"/>
</g>
<!-- Node1 -->
<g id="node2" class="node">
<title>Node1</title>
<g id="a_node2"><a xlink:href="class_ogre_1_1_texture.html" target="_top" xlink:title="Abstract class representing a Texture resource. ">
<polygon fill="none" stroke="#000000" points="110.5,-112.5 110.5,-131.5 193.5,-131.5 193.5,-112.5 110.5,-112.5"/>
<text text-anchor="middle" x="152" y="-119.5" font-family="Helvetica,sans-Serif" font-size="10.00" fill="#000000">Ogre::Texture</text>
</a>
</g>
</g>
<!-- Node1&#45;&gt;Node0 -->
<g id="edge1" class="edge">
<title>Node1&#45;&gt;Node0</title>
<path fill="none" stroke="#191970" d="M152,-102.1575C152,-93.155 152,-82.9199 152,-75.6427"/>
<polygon fill="#191970" stroke="#191970" points="148.5001,-102.2455 152,-112.2455 155.5001,-102.2456 148.5001,-102.2455"/>
</g>
<!-- Node2 -->
<g id="node3" class="node">
<title>Node2</title>
<g id="a_node3"><a xlink:href="class_ogre_1_1_resource.html" target="_top" xlink:title="Abstract class representing a loadable resource (e.g. ">
<polygon fill="none" stroke="#000000" points="106.5,-168.5 106.5,-187.5 197.5,-187.5 197.5,-168.5 106.5,-168.5"/>
<text text-anchor="middle" x="152" y="-175.5" font-family="Helvetica,sans-Serif" font-size="10.00" fill="#000000">Ogre::Resource</text>
</a>
</g>
</g>
<!-- Node2&#45;&gt;Node1 -->
<g id="edge2" class="edge">
<title>Node2&#45;&gt;Node1</title>
<path fill="none" stroke="#191970" d="M152,-158.1575C152,-149.155 152,-138.9199 152,-131.6427"/>
<polygon fill="#191970" stroke="#191970" points="148.5001,-158.2455 152,-168.2455 155.5001,-158.2456 148.5001,-158.2455"/>
</g>
<!-- Node3 -->
<g id="node4" class="node">
<title>Node3</title>
<g id="a_node4"><a xlink:href="class_ogre_1_1_string_interface.html" target="_top" xlink:title="Class defining the common interface which classes can use to present a reflection&#45;style, self&#45;defining parameter set to callers. ">
<polygon fill="none" stroke="#000000" points="33,-224.5 33,-243.5 151,-243.5 151,-224.5 33,-224.5"/>
<text text-anchor="middle" x="92" y="-231.5" font-family="Helvetica,sans-Serif" font-size="10.00" fill="#000000">Ogre::StringInterface</text>
</a>
</g>
</g>
<!-- Node3&#45;&gt;Node2 -->
<g id="edge3" class="edge">
<title>Node3&#45;&gt;Node2</title>
<path fill="none" stroke="#191970" d="M109.8278,-217.3607C120.2078,-207.6727 132.9291,-195.7995 141.6686,-187.6427"/>
<polygon fill="#191970" stroke="#191970" points="107.3737,-214.8636 102.4512,-224.2455 112.1499,-219.981 107.3737,-214.8636"/>
</g>
<!-- Node4 -->
<g id="node5" class="node">
<title>Node4</title>
<g id="a_node5"><a xlink:href="class_ogre_1_1_allocated_object.html" target="_top" xlink:title="Superclass for all objects that wish to use custom memory allocators when their new / delete operator...">
<polygon fill="none" stroke="#000000" points="169,-224.5 169,-243.5 255,-243.5 255,-224.5 169,-224.5"/>
<text text-anchor="middle" x="212" y="-231.5" font-family="Helvetica,sans-Serif" font-size="10.00" fill="#000000">ResourceAlloc</text>
</a>
</g>
</g>
<!-- Node4&#45;&gt;Node2 -->
<g id="edge4" class="edge">
<title>Node4&#45;&gt;Node2</title>
<path fill="none" stroke="#191970" d="M194.1722,-217.3607C183.7922,-207.6727 171.0709,-195.7995 162.3314,-187.6427"/>
<polygon fill="#191970" stroke="#191970" points="191.8501,-219.981 201.5488,-224.2455 196.6263,-214.8636 191.8501,-219.981"/>
</g>
</g>
</svg>
