<?xml version="1.0" encoding="UTF-8" standalone="no"?>
<!DOCTYPE svg PUBLIC "-//W3C//DTD SVG 1.1//EN"
 "http://www.w3.org/Graphics/SVG/1.1/DTD/svg11.dtd">
<!-- Generated by graphviz version 2.40.1 (20161225.0304)
 -->
<!-- Title: Ogre::ScriptLoader Pages: 1 -->
<svg width="739pt" height="446pt"
 viewBox="0.00 0.00 739.00 446.00" xmlns="http://www.w3.org/2000/svg" xmlns:xlink="http://www.w3.org/1999/xlink">
<g id="graph0" class="graph" transform="scale(1 1) rotate(0) translate(4 442)">
<title>Ogre::ScriptLoader</title>
<!-- Node0 -->
<g id="node1" class="node">
<title>Node0</title>
<polygon fill="#bfbfbf" stroke="#000000" points="0,-177.5 0,-196.5 107,-196.5 107,-177.5 0,-177.5"/>
<text text-anchor="middle" x="53.5" y="-184.5" font-family="Helvetica,sans-Serif" font-size="10.00" fill="#000000">Ogre::ScriptLoader</text>
</g>
<!-- Node1 -->
<g id="node2" class="node">
<title>Node1</title>
<g id="a_node2"><a xlink:href="class_ogre_1_1_hlms_manager.html" target="_top" xlink:title="HLMS stands for &quot;High Level Material System&quot;. ">
<polygon fill="none" stroke="#000000" points="167,-253.5 167,-272.5 281,-272.5 281,-253.5 167,-253.5"/>
<text text-anchor="middle" x="224" y="-260.5" font-family="Helvetica,sans-Serif" font-size="10.00" fill="#000000">Ogre::HlmsManager</text>
</a>
</g>
</g>
<!-- Node0&#45;&gt;Node1 -->
<g id="edge1" class="edge">
<title>Node0&#45;&gt;Node1</title>
<path fill="none" stroke="#191970" d="M73.7725,-202.7385C91.2284,-215.5754 117.5563,-233.2802 143,-244 152.0515,-247.8135 162.0095,-250.9417 171.7537,-253.4796"/>
<polygon fill="#191970" stroke="#191970" points="75.6032,-199.7364 65.5045,-196.5322 71.4009,-205.3347 75.6032,-199.7364"/>
</g>
<!-- Node2 -->
<g id="node3" class="node">
<title>Node2</title>
<g id="a_node3"><a xlink:href="class_ogre_1_1_particle_system_manager.html" target="_top" xlink:title="Manages particle systems, particle system scripts (templates) and the available emitter &amp; affector fa...">
<polygon fill="none" stroke="#000000" points="143,-215.5 143,-234.5 305,-234.5 305,-215.5 143,-215.5"/>
<text text-anchor="middle" x="224" y="-222.5" font-family="Helvetica,sans-Serif" font-size="10.00" fill="#000000">Ogre::ParticleSystemManager</text>
</a>
</g>
</g>
<!-- Node0&#45;&gt;Node2 -->
<g id="edge2" class="edge">
<title>Node0&#45;&gt;Node2</title>
<path fill="none" stroke="#191970" d="M106.5536,-198.8243C130.5911,-204.1816 158.6318,-210.4311 181.285,-215.4799"/>
<polygon fill="#191970" stroke="#191970" points="107.0463,-195.3483 96.5243,-196.589 105.5235,-202.1806 107.0463,-195.3483"/>
</g>
<!-- Node3 -->
<g id="node4" class="node">
<title>Node3</title>
<g id="a_node4"><a xlink:href="class_ogre_1_1_resource_manager.html" target="_top" xlink:title="Defines a generic resource handler. ">
<polygon fill="none" stroke="#000000" points="157,-177.5 157,-196.5 291,-196.5 291,-177.5 157,-177.5"/>
<text text-anchor="middle" x="224" y="-184.5" font-family="Helvetica,sans-Serif" font-size="10.00" fill="#000000">Ogre::ResourceManager</text>
</a>
</g>
</g>
<!-- Node0&#45;&gt;Node3 -->
<g id="edge3" class="edge">
<title>Node0&#45;&gt;Node3</title>
<path fill="none" stroke="#191970" d="M117.5825,-187C130.4337,-187 143.9701,-187 156.9198,-187"/>
<polygon fill="#191970" stroke="#191970" points="117.4473,-183.5001 107.4473,-187 117.4472,-190.5001 117.4473,-183.5001"/>
</g>
<!-- Node24 -->
<g id="node25" class="node">
<title>Node24</title>
<g id="a_node25"><a xlink:href="class_ogre_1_1_script_compiler_manager.html" target="_top" xlink:title="Manages threaded compilation of scripts. ">
<polygon fill="none" stroke="#000000" points="143.5,-139.5 143.5,-158.5 304.5,-158.5 304.5,-139.5 143.5,-139.5"/>
<text text-anchor="middle" x="224" y="-146.5" font-family="Helvetica,sans-Serif" font-size="10.00" fill="#000000">Ogre::ScriptCompilerManager</text>
</a>
</g>
</g>
<!-- Node0&#45;&gt;Node24 -->
<g id="edge24" class="edge">
<title>Node0&#45;&gt;Node24</title>
<path fill="none" stroke="#191970" d="M106.5536,-175.1757C130.5911,-169.8184 158.6318,-163.5689 181.285,-158.5201"/>
<polygon fill="#191970" stroke="#191970" points="105.5235,-171.8194 96.5243,-177.411 107.0463,-178.6517 105.5235,-171.8194"/>
</g>
<!-- Node25 -->
<g id="node26" class="node">
<title>Node25</title>
<g id="a_node26"><a xlink:href="class_ogre_1_1v1_1_1_overlay_manager.html" target="_top" xlink:title="Manages Overlay objects, parsing them from .overlay files and storing a lookup library of them...">
<polygon fill="none" stroke="#000000" points="151.5,-101.5 151.5,-120.5 296.5,-120.5 296.5,-101.5 151.5,-101.5"/>
<text text-anchor="middle" x="224" y="-108.5" font-family="Helvetica,sans-Serif" font-size="10.00" fill="#000000">Ogre::v1::OverlayManager</text>
</a>
</g>
</g>
<!-- Node0&#45;&gt;Node25 -->
<g id="edge25" class="edge">
<title>Node0&#45;&gt;Node25</title>
<path fill="none" stroke="#191970" d="M73.7725,-171.2615C91.2284,-158.4246 117.5563,-140.7198 143,-130 152.0515,-126.1865 162.0095,-123.0583 171.7537,-120.5204"/>
<polygon fill="#191970" stroke="#191970" points="71.4009,-168.6653 65.5045,-177.4678 75.6032,-174.2636 71.4009,-168.6653"/>
</g>
<!-- Node4 -->
<g id="node5" class="node">
<title>Node4</title>
<g id="a_node5"><a xlink:href="class_ogre_1_1_font_manager.html" target="_top" xlink:title="Manages Font resources, parsing .fontdef files and generally organising them. ">
<polygon fill="none" stroke="#000000" points="369,-335.5 369,-354.5 479,-354.5 479,-335.5 369,-335.5"/>
<text text-anchor="middle" x="424" y="-342.5" font-family="Helvetica,sans-Serif" font-size="10.00" fill="#000000">Ogre::FontManager</text>
</a>
</g>
</g>
<!-- Node3&#45;&gt;Node4 -->
<g id="edge4" class="edge">
<title>Node3&#45;&gt;Node4</title>
<path fill="none" stroke="#191970" d="M299.7069,-201.6507C301.5624,-202.9852 303.3331,-204.4319 305,-206 345.5563,-244.1528 300.3415,-287.9562 341,-326 348.6638,-333.171 358.4609,-337.8258 368.6185,-340.8085"/>
<polygon fill="#191970" stroke="#191970" points="301.4665,-198.6249 291.0888,-196.4913 297.8709,-204.6309 301.4665,-198.6249"/>
</g>
<!-- Node5 -->
<g id="node6" class="node">
<title>Node5</title>
<g id="a_node6"><a xlink:href="class_ogre_1_1_gpu_program_manager.html" target="_top" xlink:title="Ogre::GpuProgramManager">
<polygon fill="none" stroke="#000000" points="349.5,-297.5 349.5,-316.5 498.5,-316.5 498.5,-297.5 349.5,-297.5"/>
<text text-anchor="middle" x="424" y="-304.5" font-family="Helvetica,sans-Serif" font-size="10.00" fill="#000000">Ogre::GpuProgramManager</text>
</a>
</g>
</g>
<!-- Node3&#45;&gt;Node5 -->
<g id="edge5" class="edge">
<title>Node3&#45;&gt;Node5</title>
<path fill="none" stroke="#191970" d="M297.7172,-201.1193C300.2606,-202.5926 302.7003,-204.2146 305,-206 332.3223,-227.2118 315.2004,-251.9604 341,-275 352.6342,-285.3896 368.0077,-292.5621 382.3589,-297.4388"/>
<polygon fill="#191970" stroke="#191970" points="299.237,-197.9663 288.7228,-196.6616 296.1286,-204.2383 299.237,-197.9663"/>
</g>
<!-- Node12 -->
<g id="node13" class="node">
<title>Node12</title>
<g id="a_node13"><a xlink:href="class_ogre_1_1_high_level_gpu_program_manager.html" target="_top" xlink:title="This ResourceManager manages high&#45;level vertex and fragment programs. ">
<polygon fill="none" stroke="#000000" points="346.5,-235 346.5,-265 501.5,-265 501.5,-235 346.5,-235"/>
<text text-anchor="start" x="354.5" y="-253" font-family="Helvetica,sans-Serif" font-size="10.00" fill="#000000">Ogre::HighLevelGpuProgram</text>
<text text-anchor="middle" x="424" y="-242" font-family="Helvetica,sans-Serif" font-size="10.00" fill="#000000">Manager</text>
</a>
</g>
</g>
<!-- Node3&#45;&gt;Node12 -->
<g id="edge12" class="edge">
<title>Node3&#45;&gt;Node12</title>
<path fill="none" stroke="#191970" d="M283.7161,-199.1701C290.9699,-201.1853 298.2105,-203.4598 305,-206 321.9446,-212.3396 324.2606,-218.137 341,-225 349.7723,-228.5966 359.2537,-231.937 368.5638,-234.9296"/>
<polygon fill="#191970" stroke="#191970" points="284.4185,-195.7359 273.8575,-196.582 282.641,-202.5065 284.4185,-195.7359"/>
</g>
<!-- Node13 -->
<g id="node14" class="node">
<title>Node13</title>
<g id="a_node14"><a xlink:href="class_ogre_1_1_material_manager.html" target="_top" xlink:title="Class for managing Material settings for Ogre. ">
<polygon fill="none" stroke="#000000" points="359.5,-196.5 359.5,-215.5 488.5,-215.5 488.5,-196.5 359.5,-196.5"/>
<text text-anchor="middle" x="424" y="-203.5" font-family="Helvetica,sans-Serif" font-size="10.00" fill="#000000">Ogre::MaterialManager</text>
</a>
</g>
</g>
<!-- Node3&#45;&gt;Node13 -->
<g id="edge13" class="edge">
<title>Node3&#45;&gt;Node13</title>
<path fill="none" stroke="#191970" d="M301.3639,-194.3496C320.5446,-196.1717 340.8978,-198.1053 359.3958,-199.8626"/>
<polygon fill="#191970" stroke="#191970" points="301.4397,-190.8411 291.1535,-193.3796 300.7776,-197.8097 301.4397,-190.8411"/>
</g>
<!-- Node14 -->
<g id="node15" class="node">
<title>Node14</title>
<g id="a_node15"><a xlink:href="class_ogre_1_1_mesh_manager.html" target="_top" xlink:title="Handles the management of mesh resources. ">
<polygon fill="none" stroke="#000000" points="366.5,-158.5 366.5,-177.5 481.5,-177.5 481.5,-158.5 366.5,-158.5"/>
<text text-anchor="middle" x="424" y="-165.5" font-family="Helvetica,sans-Serif" font-size="10.00" fill="#000000">Ogre::MeshManager</text>
</a>
</g>
</g>
<!-- Node3&#45;&gt;Node14 -->
<g id="edge14" class="edge">
<title>Node3&#45;&gt;Node14</title>
<path fill="none" stroke="#191970" d="M301.3079,-179.6558C322.954,-177.5994 346.0978,-175.4007 366.3855,-173.4734"/>
<polygon fill="#191970" stroke="#191970" points="300.7776,-176.1903 291.1535,-180.6204 301.4397,-183.1589 300.7776,-176.1903"/>
</g>
<!-- Node15 -->
<g id="node16" class="node">
<title>Node15</title>
<g id="a_node16"><a xlink:href="class_ogre_1_1_texture_manager.html" target="_top" xlink:title="Class for loading &amp; managing textures. ">
<polygon fill="none" stroke="#000000" points="361,-120.5 361,-139.5 487,-139.5 487,-120.5 361,-120.5"/>
<text text-anchor="middle" x="424" y="-127.5" font-family="Helvetica,sans-Serif" font-size="10.00" fill="#000000">Ogre::TextureManager</text>
</a>
</g>
</g>
<!-- Node3&#45;&gt;Node15 -->
<g id="edge15" class="edge">
<title>Node3&#45;&gt;Node15</title>
<path fill="none" stroke="#191970" d="M283.7161,-174.8299C290.9699,-172.8147 298.2105,-170.5402 305,-168 321.9446,-161.6604 324.0385,-155.2941 341,-149 350.9785,-145.2972 361.9095,-142.1743 372.468,-139.598"/>
<polygon fill="#191970" stroke="#191970" points="282.641,-171.4935 273.8575,-177.418 284.4185,-178.2641 282.641,-171.4935"/>
</g>
<!-- Node22 -->
<g id="node23" class="node">
<title>Node22</title>
<g id="a_node23"><a xlink:href="class_ogre_1_1v1_1_1_mesh_manager.html" target="_top" xlink:title="Handles the management of mesh resources. ">
<polygon fill="none" stroke="#000000" points="357.5,-82.5 357.5,-101.5 490.5,-101.5 490.5,-82.5 357.5,-82.5"/>
<text text-anchor="middle" x="424" y="-89.5" font-family="Helvetica,sans-Serif" font-size="10.00" fill="#000000">Ogre::v1::MeshManager</text>
</a>
</g>
</g>
<!-- Node3&#45;&gt;Node22 -->
<g id="edge22" class="edge">
<title>Node3&#45;&gt;Node22</title>
<path fill="none" stroke="#191970" d="M296.4315,-173.2225C299.4206,-171.6619 302.2941,-169.9274 305,-168 329.4046,-150.6163 316.5489,-128.3182 341,-111 346.4284,-107.1552 352.513,-104.075 358.8554,-101.6094"/>
<polygon fill="#191970" stroke="#191970" points="294.8446,-170.0987 287.1691,-177.4019 297.7237,-176.4792 294.8446,-170.0987"/>
</g>
<!-- Node23 -->
<g id="node24" class="node">
<title>Node23</title>
<g id="a_node24"><a xlink:href="class_ogre_1_1v1_1_1_old_skeleton_manager.html" target="_top" xlink:title="Handles the management of skeleton resources. ">
<polygon fill="none" stroke="#000000" points="341,-44.5 341,-63.5 507,-63.5 507,-44.5 341,-44.5"/>
<text text-anchor="middle" x="424" y="-51.5" font-family="Helvetica,sans-Serif" font-size="10.00" fill="#000000">Ogre::v1::OldSkeletonManager</text>
</a>
</g>
</g>
<!-- Node3&#45;&gt;Node23 -->
<g id="edge23" class="edge">
<title>Node3&#45;&gt;Node23</title>
<path fill="none" stroke="#191970" d="M299.4171,-172.2899C301.3669,-170.9738 303.2346,-169.5468 305,-168 338.9609,-138.2448 306.9594,-102.664 341,-73 345.3464,-69.2124 350.2948,-66.1379 355.561,-63.6471"/>
<polygon fill="#191970" stroke="#191970" points="297.3914,-169.4142 290.4042,-177.3784 300.8329,-175.5098 297.3914,-169.4142"/>
</g>
<!-- Node6 -->
<g id="node7" class="node">
<title>Node6</title>
<g id="a_node7"><a xlink:href="class_ogre_1_1_d3_d11_gpu_program_manager.html" target="_top" xlink:title="Ogre::D3D11GpuProgramManager">
<polygon fill="none" stroke="#000000" points="546,-418.5 546,-437.5 728,-437.5 728,-418.5 546,-418.5"/>
<text text-anchor="middle" x="637" y="-425.5" font-family="Helvetica,sans-Serif" font-size="10.00" fill="#000000">Ogre::D3D11GpuProgramManager</text>
</a>
</g>
</g>
<!-- Node5&#45;&gt;Node6 -->
<g id="edge6" class="edge">
<title>Node5&#45;&gt;Node6</title>
<path fill="none" stroke="#191970" d="M500.7085,-321.441C502.9047,-322.8308 505.0103,-324.3468 507,-326 537.9268,-351.6968 511.7469,-383.7012 543,-409 547.6588,-412.7712 552.8661,-415.8574 558.3757,-418.3769"/>
<polygon fill="#191970" stroke="#191970" points="502.3074,-318.3269 491.8409,-316.6827 498.9976,-324.495 502.3074,-318.3269"/>
</g>
<!-- Node7 -->
<g id="node8" class="node">
<title>Node7</title>
<g id="a_node8"><a xlink:href="class_ogre_1_1_d3_d9_gpu_program_manager.html" target="_top" xlink:title="Ogre::D3D9GpuProgramManager">
<polygon fill="none" stroke="#000000" points="549,-380.5 549,-399.5 725,-399.5 725,-380.5 549,-380.5"/>
<text text-anchor="middle" x="637" y="-387.5" font-family="Helvetica,sans-Serif" font-size="10.00" fill="#000000">Ogre::D3D9GpuProgramManager</text>
</a>
</g>
</g>
<!-- Node5&#45;&gt;Node7 -->
<g id="edge7" class="edge">
<title>Node5&#45;&gt;Node7</title>
<path fill="none" stroke="#191970" d="M496.3939,-320.3545C500.0829,-322.0207 503.645,-323.894 507,-326 528.6929,-339.6169 521.1346,-357.6619 543,-371 549.254,-374.815 556.1351,-377.8799 563.2428,-380.3398"/>
<polygon fill="#191970" stroke="#191970" points="497.5938,-317.0652 487.0082,-316.6247 495.0087,-323.5704 497.5938,-317.0652"/>
</g>
<!-- Node8 -->
<g id="node9" class="node">
<title>Node8</title>
<g id="a_node9"><a xlink:href="class_ogre_1_1_g_l3_plus_gpu_program_manager.html" target="_top" xlink:title="Ogre::GL3PlusGpuProgramManager">
<polygon fill="none" stroke="#000000" points="543,-342.5 543,-361.5 731,-361.5 731,-342.5 543,-342.5"/>
<text text-anchor="middle" x="637" y="-349.5" font-family="Helvetica,sans-Serif" font-size="10.00" fill="#000000">Ogre::GL3PlusGpuProgramManager</text>
</a>
</g>
</g>
<!-- Node5&#45;&gt;Node8 -->
<g id="edge8" class="edge">
<title>Node5&#45;&gt;Node8</title>
<path fill="none" stroke="#191970" d="M476.777,-318.717C497.4184,-323.2509 521.3032,-328.4373 543,-333 557.9897,-336.1522 574.3456,-339.4927 589.15,-342.4789"/>
<polygon fill="#191970" stroke="#191970" points="477.4469,-315.2808 466.9283,-316.5493 475.9422,-322.1172 477.4469,-315.2808"/>
</g>
<!-- Node9 -->
<g id="node10" class="node">
<title>Node9</title>
<g id="a_node10"><a xlink:href="class_ogre_1_1_g_l_e_s2_gpu_program_manager.html" target="_top" xlink:title="Ogre::GLES2GpuProgramManager">
<polygon fill="none" stroke="#000000" points="547,-304.5 547,-323.5 727,-323.5 727,-304.5 547,-304.5"/>
<text text-anchor="middle" x="637" y="-311.5" font-family="Helvetica,sans-Serif" font-size="10.00" fill="#000000">Ogre::GLES2GpuProgramManager</text>
</a>
</g>
</g>
<!-- Node5&#45;&gt;Node9 -->
<g id="edge9" class="edge">
<title>Node5&#45;&gt;Node9</title>
<path fill="none" stroke="#191970" d="M509.0695,-309.7957C521.4304,-310.2019 534.1931,-310.6214 546.6537,-311.0309"/>
<polygon fill="#191970" stroke="#191970" points="508.9059,-306.2885 498.7963,-309.4581 508.6759,-313.2848 508.9059,-306.2885"/>
</g>
<!-- Node10 -->
<g id="node11" class="node">
<title>Node10</title>
<g id="a_node11"><a xlink:href="class_ogre_1_1_g_l_s_l_shader_manager.html" target="_top" xlink:title="Ogre::GLSLShaderManager">
<polygon fill="none" stroke="#000000" points="564,-266.5 564,-285.5 710,-285.5 710,-266.5 564,-266.5"/>
<text text-anchor="middle" x="637" y="-273.5" font-family="Helvetica,sans-Serif" font-size="10.00" fill="#000000">Ogre::GLSLShaderManager</text>
</a>
</g>
</g>
<!-- Node5&#45;&gt;Node10 -->
<g id="edge10" class="edge">
<title>Node5&#45;&gt;Node10</title>
<path fill="none" stroke="#191970" d="M499.2892,-296.0424C522.824,-292.6172 548.5893,-288.8673 571.4021,-285.5471"/>
<polygon fill="#191970" stroke="#191970" points="498.7462,-292.5845 489.3546,-297.4883 499.7544,-299.5115 498.7462,-292.5845"/>
</g>
<!-- Node11 -->
<g id="node12" class="node">
<title>Node11</title>
<g id="a_node12"><a xlink:href="class_ogre_1_1_metal_gpu_program_manager.html" target="_top" xlink:title="Ogre::MetalGpuProgramManager">
<polygon fill="none" stroke="#000000" points="548.5,-228.5 548.5,-247.5 725.5,-247.5 725.5,-228.5 548.5,-228.5"/>
<text text-anchor="middle" x="637" y="-235.5" font-family="Helvetica,sans-Serif" font-size="10.00" fill="#000000">Ogre::MetalGpuProgramManager</text>
</a>
</g>
</g>
<!-- Node5&#45;&gt;Node11 -->
<g id="edge11" class="edge">
<title>Node5&#45;&gt;Node11</title>
<path fill="none" stroke="#191970" d="M460.4898,-293.7942C475.082,-288.29 491.9629,-281.6398 507,-275 523.3642,-267.7742 526.0857,-262.8228 543,-257 554.0199,-253.2064 566.0415,-250.0668 577.6931,-247.5072"/>
<polygon fill="#191970" stroke="#191970" points="458.9499,-290.633 450.8039,-297.4075 461.3966,-297.1915 458.9499,-290.633"/>
</g>
<!-- Node16 -->
<g id="node17" class="node">
<title>Node16</title>
<g id="a_node17"><a xlink:href="class_ogre_1_1_d3_d11_texture_manager.html" target="_top" xlink:title="Ogre::D3D11TextureManager">
<polygon fill="none" stroke="#000000" points="557.5,-190.5 557.5,-209.5 716.5,-209.5 716.5,-190.5 557.5,-190.5"/>
<text text-anchor="middle" x="637" y="-197.5" font-family="Helvetica,sans-Serif" font-size="10.00" fill="#000000">Ogre::D3D11TextureManager</text>
</a>
</g>
</g>
<!-- Node15&#45;&gt;Node16 -->
<g id="edge16" class="edge">
<title>Node15&#45;&gt;Node16</title>
<path fill="none" stroke="#191970" d="M492.6017,-142.7742C497.5822,-144.5843 502.4358,-146.6479 507,-149 526.0291,-158.8064 523.8469,-171.438 543,-181 550.7461,-184.8672 559.2237,-187.9472 567.8161,-190.4004"/>
<polygon fill="#191970" stroke="#191970" points="493.5031,-139.3865 482.9103,-139.5966 491.3221,-146.0381 493.5031,-139.3865"/>
</g>
<!-- Node17 -->
<g id="node18" class="node">
<title>Node17</title>
<g id="a_node18"><a xlink:href="class_ogre_1_1_d3_d9_texture_manager.html" target="_top" xlink:title="Ogre::D3D9TextureManager">
<polygon fill="none" stroke="#000000" points="560.5,-152.5 560.5,-171.5 713.5,-171.5 713.5,-152.5 560.5,-152.5"/>
<text text-anchor="middle" x="637" y="-159.5" font-family="Helvetica,sans-Serif" font-size="10.00" fill="#000000">Ogre::D3D9TextureManager</text>
</a>
</g>
</g>
<!-- Node15&#45;&gt;Node17 -->
<g id="edge17" class="edge">
<title>Node15&#45;&gt;Node17</title>
<path fill="none" stroke="#191970" d="M497.1672,-140.9923C522.0748,-144.7342 549.6875,-148.8826 573.7512,-152.4978"/>
<polygon fill="#191970" stroke="#191970" points="497.4515,-137.4958 487.0425,-139.4712 496.4115,-144.4181 497.4515,-137.4958"/>
</g>
<!-- Node18 -->
<g id="node19" class="node">
<title>Node18</title>
<g id="a_node19"><a xlink:href="class_ogre_1_1_g_l3_plus_texture_manager.html" target="_top" xlink:title="GL3Plus&#45;specific implementation of a TextureManager. ">
<polygon fill="none" stroke="#000000" points="554.5,-114.5 554.5,-133.5 719.5,-133.5 719.5,-114.5 554.5,-114.5"/>
<text text-anchor="middle" x="637" y="-121.5" font-family="Helvetica,sans-Serif" font-size="10.00" fill="#000000">Ogre::GL3PlusTextureManager</text>
</a>
</g>
</g>
<!-- Node15&#45;&gt;Node18 -->
<g id="edge18" class="edge">
<title>Node15&#45;&gt;Node18</title>
<path fill="none" stroke="#191970" d="M497.1181,-127.9403C515.5582,-127.4209 535.4837,-126.8596 554.3557,-126.328"/>
<polygon fill="#191970" stroke="#191970" points="496.9399,-124.4439 487.0425,-128.2242 497.1371,-131.4411 496.9399,-124.4439"/>
</g>
<!-- Node19 -->
<g id="node20" class="node">
<title>Node19</title>
<g id="a_node20"><a xlink:href="class_ogre_1_1_g_l_e_s2_texture_manager.html" target="_top" xlink:title="GL ES&#45;specific implementation of a TextureManager. ">
<polygon fill="none" stroke="#000000" points="558.5,-76.5 558.5,-95.5 715.5,-95.5 715.5,-76.5 558.5,-76.5"/>
<text text-anchor="middle" x="637" y="-83.5" font-family="Helvetica,sans-Serif" font-size="10.00" fill="#000000">Ogre::GLES2TextureManager</text>
</a>
</g>
</g>
<!-- Node15&#45;&gt;Node19 -->
<g id="edge19" class="edge">
<title>Node15&#45;&gt;Node19</title>
<path fill="none" stroke="#191970" d="M478.8577,-118.3839C499.0198,-114.1387 522.04,-109.3199 543,-105 558.0022,-101.908 574.3617,-98.5845 589.1654,-95.5953"/>
<polygon fill="#191970" stroke="#191970" points="477.9702,-114.994 468.907,-120.4813 479.4139,-121.8435 477.9702,-114.994"/>
</g>
<!-- Node20 -->
<g id="node21" class="node">
<title>Node20</title>
<g id="a_node21"><a xlink:href="class_ogre_1_1_metal_texture_manager.html" target="_top" xlink:title="Ogre::MetalTextureManager">
<polygon fill="none" stroke="#000000" points="560,-38.5 560,-57.5 714,-57.5 714,-38.5 560,-38.5"/>
<text text-anchor="middle" x="637" y="-45.5" font-family="Helvetica,sans-Serif" font-size="10.00" fill="#000000">Ogre::MetalTextureManager</text>
</a>
</g>
</g>
<!-- Node15&#45;&gt;Node20 -->
<g id="edge20" class="edge">
<title>Node15&#45;&gt;Node20</title>
<path fill="none" stroke="#191970" d="M496.1397,-116.7021C499.9164,-115.022 503.5647,-113.1301 507,-111 528.4737,-97.6846 521.3576,-80.0395 543,-67 549.4175,-63.1335 556.4833,-60.0392 563.7713,-57.5652"/>
<polygon fill="#191970" stroke="#191970" points="494.5743,-113.5561 486.5358,-120.4577 497.1237,-120.0754 494.5743,-113.5561"/>
</g>
<!-- Node21 -->
<g id="node22" class="node">
<title>Node21</title>
<g id="a_node22"><a xlink:href="class_ogre_1_1_n_u_l_l_texture_manager.html" target="_top" xlink:title="Ogre::NULLTextureManager">
<polygon fill="none" stroke="#000000" points="561.5,-.5 561.5,-19.5 712.5,-19.5 712.5,-.5 561.5,-.5"/>
<text text-anchor="middle" x="637" y="-7.5" font-family="Helvetica,sans-Serif" font-size="10.00" fill="#000000">Ogre::NULLTextureManager</text>
</a>
</g>
</g>
<!-- Node15&#45;&gt;Node21 -->
<g id="edge21" class="edge">
<title>Node15&#45;&gt;Node21</title>
<path fill="none" stroke="#191970" d="M496.3776,-118.0555C500.1546,-116.0386 503.7323,-113.7029 507,-111 537.6699,-85.6316 512.0079,-53.9737 543,-29 548.445,-24.6124 554.6335,-21.153 561.175,-18.4355"/>
<polygon fill="#191970" stroke="#191970" points="494.9076,-114.8789 487.2545,-122.2056 497.8062,-121.2506 494.9076,-114.8789"/>
</g>
</g>
</svg>
