<?xml version="1.0" encoding="UTF-8" standalone="no"?>
<!DOCTYPE svg PUBLIC "-//W3C//DTD SVG 1.1//EN"
 "http://www.w3.org/Graphics/SVG/1.1/DTD/svg11.dtd">
<!-- Generated by graphviz version 2.40.1 (20161225.0304)
 -->
<!-- Title: Ogre::GLSLESProgramPipelineManager Pages: 1 -->
<svg width="372pt" height="106pt"
 viewBox="0.00 0.00 372.00 106.00" xmlns="http://www.w3.org/2000/svg" xmlns:xlink="http://www.w3.org/1999/xlink">
<g id="graph0" class="graph" transform="scale(1 1) rotate(0) translate(4 102)">
<title>Ogre::GLSLESProgramPipelineManager</title>
<!-- Node0 -->
<g id="node1" class="node">
<title>Node0</title>
<polygon fill="#bfbfbf" stroke="#000000" points="97,-.5 97,-30.5 259,-30.5 259,-.5 97,-.5"/>
<text text-anchor="start" x="105" y="-18.5" font-family="Helvetica,sans-Serif" font-size="10.00" fill="#000000">Ogre::GLSLESProgramPipeline</text>
<text text-anchor="middle" x="178" y="-7.5" font-family="Helvetica,sans-Serif" font-size="10.00" fill="#000000">Manager</text>
</g>
<!-- Node1 -->
<g id="node2" class="node">
<title>Node1</title>
<g id="a_node2"><a xlink:href="class_ogre_1_1_g_l_s_l_e_s_program_manager_common.html" target="_top" xlink:title="Ogre assumes that there are separate vertex and fragment programs to deal with but GLSL ES has one pr...">
<polygon fill="none" stroke="#000000" points="0,-67.5 0,-97.5 166,-97.5 166,-67.5 0,-67.5"/>
<text text-anchor="start" x="8" y="-85.5" font-family="Helvetica,sans-Serif" font-size="10.00" fill="#000000">Ogre::GLSLESProgramManager</text>
<text text-anchor="middle" x="83" y="-74.5" font-family="Helvetica,sans-Serif" font-size="10.00" fill="#000000">Common</text>
</a>
</g>
</g>
<!-- Node1&#45;&gt;Node0 -->
<g id="edge1" class="edge">
<title>Node1&#45;&gt;Node0</title>
<path fill="none" stroke="#191970" d="M112.9932,-61.3469C127.1288,-51.3776 143.6695,-39.7121 156.5283,-30.6432"/>
<polygon fill="#191970" stroke="#191970" points="110.7118,-58.6729 104.557,-67.2967 114.7463,-64.3934 110.7118,-58.6729"/>
</g>
<!-- Node2 -->
<g id="node3" class="node">
<title>Node2</title>
<g id="a_node3"><a xlink:href="class_ogre_1_1_singleton.html" target="_top" xlink:title="Ogre::Singleton\&lt; GLSLESProgram\lPipelineManager \&gt;">
<polygon fill="none" stroke="#000000" points="184,-67.5 184,-97.5 364,-97.5 364,-67.5 184,-67.5"/>
<text text-anchor="start" x="192" y="-85.5" font-family="Helvetica,sans-Serif" font-size="10.00" fill="#000000">Ogre::Singleton&lt; GLSLESProgram</text>
<text text-anchor="middle" x="274" y="-74.5" font-family="Helvetica,sans-Serif" font-size="10.00" fill="#000000">PipelineManager &gt;</text>
</a>
</g>
</g>
<!-- Node2&#45;&gt;Node0 -->
<g id="edge2" class="edge">
<title>Node2&#45;&gt;Node0</title>
<path fill="none" stroke="#191970" d="M243.6911,-61.3469C229.4067,-51.3776 212.6919,-39.7121 199.6977,-30.6432"/>
<polygon fill="#191970" stroke="#191970" points="242.0126,-64.4436 252.2161,-67.2967 246.0189,-58.7033 242.0126,-64.4436"/>
</g>
</g>
</svg>
