<?xml version="1.0" encoding="UTF-8" standalone="no"?>
<!DOCTYPE svg PUBLIC "-//W3C//DTD SVG 1.1//EN"
 "http://www.w3.org/Graphics/SVG/1.1/DTD/svg11.dtd">
<!-- Generated by graphviz version 2.40.1 (20161225.0304)
 -->
<!-- Title: Ogre::Volume::Source Pages: 1 -->
<svg width="556pt" height="356pt"
 viewBox="0.00 0.00 556.00 356.00" xmlns="http://www.w3.org/2000/svg" xmlns:xlink="http://www.w3.org/1999/xlink">
<g id="graph0" class="graph" transform="scale(1 1) rotate(0) translate(4 352)">
<title>Ogre::Volume::Source</title>
<!-- Node0 -->
<g id="node1" class="node">
<title>Node0</title>
<polygon fill="#bfbfbf" stroke="#000000" points="0,-202.5 0,-221.5 122,-221.5 122,-202.5 0,-202.5"/>
<text text-anchor="middle" x="61" y="-209.5" font-family="Helvetica,sans-Serif" font-size="10.00" fill="#000000">Ogre::Volume::Source</text>
</g>
<!-- Node1 -->
<g id="node2" class="node">
<title>Node1</title>
<g id="a_node2"><a xlink:href="class_ogre_1_1_volume_1_1_cache_source.html" target="_top" xlink:title="A caching Source. ">
<polygon fill="none" stroke="#000000" points="170,-328.5 170,-347.5 322,-347.5 322,-328.5 170,-328.5"/>
<text text-anchor="middle" x="246" y="-335.5" font-family="Helvetica,sans-Serif" font-size="10.00" fill="#000000">Ogre::Volume::CacheSource</text>
</a>
</g>
</g>
<!-- Node0&#45;&gt;Node1 -->
<g id="edge1" class="edge">
<title>Node0&#45;&gt;Node1</title>
<path fill="none" stroke="#191970" d="M72.148,-230.1213C88.0641,-254.3669 119.6589,-296.8682 158,-319 164.7683,-322.9069 172.2496,-326.0124 179.9073,-328.4806"/>
<polygon fill="#191970" stroke="#191970" points="74.9897,-228.068 66.6594,-221.5214 69.089,-231.834 74.9897,-228.068"/>
</g>
<!-- Node2 -->
<g id="node3" class="node">
<title>Node2</title>
<g id="a_node3"><a xlink:href="class_ogre_1_1_volume_1_1_c_s_g_cube_source.html" target="_top" xlink:title="A not rotated cube. ">
<polygon fill="none" stroke="#000000" points="162.5,-290.5 162.5,-309.5 329.5,-309.5 329.5,-290.5 162.5,-290.5"/>
<text text-anchor="middle" x="246" y="-297.5" font-family="Helvetica,sans-Serif" font-size="10.00" fill="#000000">Ogre::Volume::CSGCubeSource</text>
</a>
</g>
</g>
<!-- Node0&#45;&gt;Node2 -->
<g id="edge2" class="edge">
<title>Node0&#45;&gt;Node2</title>
<path fill="none" stroke="#191970" d="M79.0804,-228.3317C97.5855,-244.1663 127.8297,-267.6904 158,-281 166.7231,-284.8482 176.2855,-287.9413 185.7921,-290.4206"/>
<polygon fill="#191970" stroke="#191970" points="81.2799,-225.6057 71.4465,-221.6617 76.6741,-230.8771 81.2799,-225.6057"/>
</g>
<!-- Node3 -->
<g id="node4" class="node">
<title>Node3</title>
<g id="a_node4"><a xlink:href="class_ogre_1_1_volume_1_1_c_s_g_operation_source.html" target="_top" xlink:title="Abstract operation volume source holding two sources as operants. ">
<polygon fill="none" stroke="#000000" points="167,-241 167,-271 325,-271 325,-241 167,-241"/>
<text text-anchor="start" x="175" y="-259" font-family="Helvetica,sans-Serif" font-size="10.00" fill="#000000">Ogre::Volume::CSGOperation</text>
<text text-anchor="middle" x="246" y="-248" font-family="Helvetica,sans-Serif" font-size="10.00" fill="#000000">Source</text>
</a>
</g>
</g>
<!-- Node0&#45;&gt;Node3 -->
<g id="edge3" class="edge">
<title>Node0&#45;&gt;Node3</title>
<path fill="none" stroke="#191970" d="M110.967,-223.884C133.0367,-229.1331 159.2359,-235.3642 182.657,-240.9346"/>
<polygon fill="#191970" stroke="#191970" points="111.6807,-220.4562 101.1422,-221.5473 110.061,-227.2663 111.6807,-220.4562"/>
</g>
<!-- Node7 -->
<g id="node8" class="node">
<title>Node7</title>
<g id="a_node8"><a xlink:href="class_ogre_1_1_volume_1_1_c_s_g_plane_source.html" target="_top" xlink:title="A plane. ">
<polygon fill="none" stroke="#000000" points="161,-202.5 161,-221.5 331,-221.5 331,-202.5 161,-202.5"/>
<text text-anchor="middle" x="246" y="-209.5" font-family="Helvetica,sans-Serif" font-size="10.00" fill="#000000">Ogre::Volume::CSGPlaneSource</text>
</a>
</g>
</g>
<!-- Node0&#45;&gt;Node7 -->
<g id="edge7" class="edge">
<title>Node0&#45;&gt;Node7</title>
<path fill="none" stroke="#191970" d="M132.1468,-212C141.5469,-212 151.2582,-212 160.8629,-212"/>
<polygon fill="#191970" stroke="#191970" points="132.0887,-208.5001 122.0886,-212 132.0886,-215.5001 132.0887,-208.5001"/>
</g>
<!-- Node8 -->
<g id="node9" class="node">
<title>Node8</title>
<g id="a_node9"><a xlink:href="class_ogre_1_1_volume_1_1_c_s_g_sphere_source.html" target="_top" xlink:title="A sphere. ">
<polygon fill="none" stroke="#000000" points="158,-164.5 158,-183.5 334,-183.5 334,-164.5 158,-164.5"/>
<text text-anchor="middle" x="246" y="-171.5" font-family="Helvetica,sans-Serif" font-size="10.00" fill="#000000">Ogre::Volume::CSGSphereSource</text>
</a>
</g>
</g>
<!-- Node0&#45;&gt;Node8 -->
<g id="edge8" class="edge">
<title>Node0&#45;&gt;Node8</title>
<path fill="none" stroke="#191970" d="M117.52,-200.3905C143.8312,-194.986 174.7435,-188.6365 199.6524,-183.5201"/>
<polygon fill="#191970" stroke="#191970" points="116.7746,-196.9704 107.6833,-202.411 118.183,-203.8273 116.7746,-196.9704"/>
</g>
<!-- Node9 -->
<g id="node10" class="node">
<title>Node9</title>
<g id="a_node10"><a xlink:href="class_ogre_1_1_volume_1_1_c_s_g_unary_source.html" target="_top" xlink:title="Source which does a unary operation to another one. ">
<polygon fill="none" stroke="#000000" points="160,-126.5 160,-145.5 332,-145.5 332,-126.5 160,-126.5"/>
<text text-anchor="middle" x="246" y="-133.5" font-family="Helvetica,sans-Serif" font-size="10.00" fill="#000000">Ogre::Volume::CSGUnarySource</text>
</a>
</g>
</g>
<!-- Node0&#45;&gt;Node9 -->
<g id="edge9" class="edge">
<title>Node0&#45;&gt;Node9</title>
<path fill="none" stroke="#191970" d="M82.3481,-196.7483C101.3544,-183.8471 130.3521,-165.786 158,-155 167.7559,-151.194 178.4329,-148.0788 188.8806,-145.5535"/>
<polygon fill="#191970" stroke="#191970" points="80.3502,-193.8745 74.1148,-202.4402 84.3308,-199.6325 80.3502,-193.8745"/>
</g>
<!-- Node13 -->
<g id="node14" class="node">
<title>Node13</title>
<g id="a_node14"><a xlink:href="class_ogre_1_1_volume_1_1_grid_source.html" target="_top" xlink:title="A volume source from a discrete 3d grid. ">
<polygon fill="none" stroke="#000000" points="174.5,-44.5 174.5,-63.5 317.5,-63.5 317.5,-44.5 174.5,-44.5"/>
<text text-anchor="middle" x="246" y="-51.5" font-family="Helvetica,sans-Serif" font-size="10.00" fill="#000000">Ogre::Volume::GridSource</text>
</a>
</g>
</g>
<!-- Node0&#45;&gt;Node13 -->
<g id="edge13" class="edge">
<title>Node0&#45;&gt;Node13</title>
<path fill="none" stroke="#191970" d="M76.7951,-195.0192C95.4199,-175.3629 127.6884,-142.4356 158,-117 182.4685,-96.4676 213.2459,-75.4231 231.1631,-63.601"/>
<polygon fill="#191970" stroke="#191970" points="74.2169,-192.6518 69.9146,-202.3338 79.3156,-197.4479 74.2169,-192.6518"/>
</g>
<!-- Node4 -->
<g id="node5" class="node">
<title>Node4</title>
<g id="a_node5"><a xlink:href="class_ogre_1_1_volume_1_1_c_s_g_difference_source.html" target="_top" xlink:title="Builds the difference between two sources. ">
<polygon fill="none" stroke="#000000" points="378.5,-290 378.5,-320 539.5,-320 539.5,-290 378.5,-290"/>
<text text-anchor="start" x="386.5" y="-308" font-family="Helvetica,sans-Serif" font-size="10.00" fill="#000000">Ogre::Volume::CSGDifference</text>
<text text-anchor="middle" x="459" y="-297" font-family="Helvetica,sans-Serif" font-size="10.00" fill="#000000">Source</text>
</a>
</g>
</g>
<!-- Node3&#45;&gt;Node4 -->
<g id="edge4" class="edge">
<title>Node3&#45;&gt;Node4</title>
<path fill="none" stroke="#191970" d="M321.3366,-273.3309C344.9849,-278.7712 370.8811,-284.7285 393.769,-289.9938"/>
<polygon fill="#191970" stroke="#191970" points="321.8847,-269.8657 311.3546,-271.0346 320.3153,-276.6875 321.8847,-269.8657"/>
</g>
<!-- Node5 -->
<g id="node6" class="node">
<title>Node5</title>
<g id="a_node6"><a xlink:href="class_ogre_1_1_volume_1_1_c_s_g_intersection_source.html" target="_top" xlink:title="Builds the intersection between two sources. ">
<polygon fill="none" stroke="#000000" points="375.5,-241 375.5,-271 542.5,-271 542.5,-241 375.5,-241"/>
<text text-anchor="start" x="383.5" y="-259" font-family="Helvetica,sans-Serif" font-size="10.00" fill="#000000">Ogre::Volume::CSGIntersection</text>
<text text-anchor="middle" x="459" y="-248" font-family="Helvetica,sans-Serif" font-size="10.00" fill="#000000">Source</text>
</a>
</g>
</g>
<!-- Node3&#45;&gt;Node5 -->
<g id="edge5" class="edge">
<title>Node3&#45;&gt;Node5</title>
<path fill="none" stroke="#191970" d="M335.1409,-256C348.5025,-256 362.2388,-256 375.4776,-256"/>
<polygon fill="#191970" stroke="#191970" points="335.0107,-252.5001 325.0106,-256 335.0106,-259.5001 335.0107,-252.5001"/>
</g>
<!-- Node6 -->
<g id="node7" class="node">
<title>Node6</title>
<g id="a_node7"><a xlink:href="class_ogre_1_1_volume_1_1_c_s_g_union_source.html" target="_top" xlink:title="Builds the union between two sources. ">
<polygon fill="none" stroke="#000000" points="373.5,-202.5 373.5,-221.5 544.5,-221.5 544.5,-202.5 373.5,-202.5"/>
<text text-anchor="middle" x="459" y="-209.5" font-family="Helvetica,sans-Serif" font-size="10.00" fill="#000000">Ogre::Volume::CSGUnionSource</text>
</a>
</g>
</g>
<!-- Node3&#45;&gt;Node6 -->
<g id="edge6" class="edge">
<title>Node3&#45;&gt;Node6</title>
<path fill="none" stroke="#191970" d="M328.7127,-238.9138C357.3267,-233.0029 388.3549,-226.5933 412.9512,-221.5124"/>
<polygon fill="#191970" stroke="#191970" points="327.7919,-235.53 318.7068,-240.9808 329.2081,-242.3853 327.7919,-235.53"/>
</g>
<!-- Node10 -->
<g id="node11" class="node">
<title>Node10</title>
<g id="a_node11"><a xlink:href="class_ogre_1_1_volume_1_1_c_s_g_negate_source.html" target="_top" xlink:title="Negates the given volume. ">
<polygon fill="none" stroke="#000000" points="370,-164.5 370,-183.5 548,-183.5 548,-164.5 370,-164.5"/>
<text text-anchor="middle" x="459" y="-171.5" font-family="Helvetica,sans-Serif" font-size="10.00" fill="#000000">Ogre::Volume::CSGNegateSource</text>
</a>
</g>
</g>
<!-- Node9&#45;&gt;Node10 -->
<g id="edge10" class="edge">
<title>Node9&#45;&gt;Node10</title>
<path fill="none" stroke="#191970" d="M309.6026,-147.347C340.1632,-152.7991 376.3821,-159.2607 405.504,-164.4561"/>
<polygon fill="#191970" stroke="#191970" points="309.9333,-143.8507 299.474,-145.54 308.7038,-150.7419 309.9333,-143.8507"/>
</g>
<!-- Node11 -->
<g id="node12" class="node">
<title>Node11</title>
<g id="a_node12"><a xlink:href="class_ogre_1_1_volume_1_1_c_s_g_noise_source.html" target="_top" xlink:title="Ogre::Volume::CSGNoiseSource">
<polygon fill="none" stroke="#000000" points="374,-126.5 374,-145.5 544,-145.5 544,-126.5 374,-126.5"/>
<text text-anchor="middle" x="459" y="-133.5" font-family="Helvetica,sans-Serif" font-size="10.00" fill="#000000">Ogre::Volume::CSGNoiseSource</text>
</a>
</g>
</g>
<!-- Node9&#45;&gt;Node11 -->
<g id="edge11" class="edge">
<title>Node9&#45;&gt;Node11</title>
<path fill="none" stroke="#191970" d="M342.0735,-136C352.6164,-136 363.2968,-136 373.6962,-136"/>
<polygon fill="#191970" stroke="#191970" points="342.0213,-132.5001 332.0213,-136 342.0213,-139.5001 342.0213,-132.5001"/>
</g>
<!-- Node12 -->
<g id="node13" class="node">
<title>Node12</title>
<g id="a_node13"><a xlink:href="class_ogre_1_1_volume_1_1_c_s_g_scale_source.html" target="_top" xlink:title="Scales the given volume source. ">
<polygon fill="none" stroke="#000000" points="374.5,-88.5 374.5,-107.5 543.5,-107.5 543.5,-88.5 374.5,-88.5"/>
<text text-anchor="middle" x="459" y="-95.5" font-family="Helvetica,sans-Serif" font-size="10.00" fill="#000000">Ogre::Volume::CSGScaleSource</text>
</a>
</g>
</g>
<!-- Node9&#45;&gt;Node12 -->
<g id="edge12" class="edge">
<title>Node9&#45;&gt;Node12</title>
<path fill="none" stroke="#191970" d="M309.6026,-124.653C340.1632,-119.2009 376.3821,-112.7393 405.504,-107.5439"/>
<polygon fill="#191970" stroke="#191970" points="308.7038,-121.2581 299.474,-126.46 309.9333,-128.1493 308.7038,-121.2581"/>
</g>
<!-- Node14 -->
<g id="node15" class="node">
<title>Node14</title>
<g id="a_node15"><a xlink:href="class_ogre_1_1_volume_1_1_half_float_grid_source.html" target="_top" xlink:title="A volume source from a 16 Bit float 3D grid capable of loading volume serializations. ">
<polygon fill="none" stroke="#000000" points="381.5,-39 381.5,-69 536.5,-69 536.5,-39 381.5,-39"/>
<text text-anchor="start" x="389.5" y="-57" font-family="Helvetica,sans-Serif" font-size="10.00" fill="#000000">Ogre::Volume::HalfFloatGrid</text>
<text text-anchor="middle" x="459" y="-46" font-family="Helvetica,sans-Serif" font-size="10.00" fill="#000000">Source</text>
</a>
</g>
</g>
<!-- Node13&#45;&gt;Node14 -->
<g id="edge14" class="edge">
<title>Node13&#45;&gt;Node14</title>
<path fill="none" stroke="#191970" d="M327.7728,-54C345.4035,-54 363.9912,-54 381.4548,-54"/>
<polygon fill="#191970" stroke="#191970" points="327.5185,-50.5001 317.5185,-54 327.5184,-57.5001 327.5185,-50.5001"/>
</g>
<!-- Node15 -->
<g id="node16" class="node">
<title>Node15</title>
<g id="a_node16"><a xlink:href="class_ogre_1_1_volume_1_1_texture_source.html" target="_top" xlink:title="A volume source from a 3D texture. ">
<polygon fill="none" stroke="#000000" points="379,-.5 379,-19.5 539,-19.5 539,-.5 379,-.5"/>
<text text-anchor="middle" x="459" y="-7.5" font-family="Helvetica,sans-Serif" font-size="10.00" fill="#000000">Ogre::Volume::TextureSource</text>
</a>
</g>
</g>
<!-- Node13&#45;&gt;Node15 -->
<g id="edge15" class="edge">
<title>Node13&#45;&gt;Node15</title>
<path fill="none" stroke="#191970" d="M302.1546,-42.4C336.6807,-35.2678 380.3757,-26.2416 412.8724,-19.5287"/>
<polygon fill="#191970" stroke="#191970" points="301.303,-39.0019 292.2178,-44.4527 302.7191,-45.8572 301.303,-39.0019"/>
</g>
</g>
</svg>
