<?xml version="1.0" encoding="UTF-8" standalone="no"?>
<!DOCTYPE svg PUBLIC "-//W3C//DTD SVG 1.1//EN"
 "http://www.w3.org/Graphics/SVG/1.1/DTD/svg11.dtd">
<!-- Generated by graphviz version 2.38.0 (20140413.2041)
 -->
<!-- Title: Ogre::ResourceManager::ResourcePool Pages: 1 -->
<svg width="242pt" height="95pt"
 viewBox="0.00 0.00 242.00 95.00" xmlns="http://www.w3.org/2000/svg" xmlns:xlink="http://www.w3.org/1999/xlink">
<g id="graph0" class="graph" transform="scale(1 1) rotate(0) translate(4 91)">
<title>Ogre::ResourceManager::ResourcePool</title>
<!-- Node1 -->
<g id="node1" class="node"><title>Node1</title>
<polygon fill="#bfbfbf" stroke="black" points="69.5,-0.5 69.5,-30.5 192.5,-30.5 192.5,-0.5 69.5,-0.5"/>
<text text-anchor="start" x="77.5" y="-18.5" font-family="Helvetica,sans-Serif" font-size="10.00">Ogre::ResourceManager</text>
<text text-anchor="middle" x="131" y="-7.5" font-family="Helvetica,sans-Serif" font-size="10.00">::ResourcePool</text>
</g>
<!-- Node2 -->
<g id="node2" class="node"><title>Node2</title>
<g id="a_node2"><a xlink:href="class_ogre_1_1_pool.html" target="_top" xlink:title="Ogre::Pool\&lt; ResourcePtr \&gt;">
<polygon fill="none" stroke="black" points="0,-67.5 0,-86.5 136,-86.5 136,-67.5 0,-67.5"/>
<text text-anchor="middle" x="68" y="-74.5" font-family="Helvetica,sans-Serif" font-size="10.00">Ogre::Pool&lt; ResourcePtr &gt;</text>
</a>
</g>
</g>
<!-- Node2&#45;&gt;Node1 -->
<g id="edge1" class="edge"><title>Node2&#45;&gt;Node1</title>
<path fill="none" stroke="midnightblue" d="M84.5505,-60.369C94.3512,-51.1127 106.666,-39.4824 116.152,-30.523"/>
<polygon fill="midnightblue" stroke="midnightblue" points="81.8933,-58.0643 77.0264,-67.4751 86.6997,-63.1534 81.8933,-58.0643"/>
</g>
<!-- Node3 -->
<g id="node3" class="node"><title>Node3</title>
<g id="a_node3"><a xlink:href="class_ogre_1_1_allocated_object.html" target="_top" xlink:title="Superclass for all objects that wish to use custom memory allocators when their new / delete operator...">
<polygon fill="none" stroke="black" points="154,-67.5 154,-86.5 234,-86.5 234,-67.5 154,-67.5"/>
<text text-anchor="middle" x="194" y="-74.5" font-family="Helvetica,sans-Serif" font-size="10.00">ResourceAlloc</text>
</a>
</g>
</g>
<!-- Node3&#45;&gt;Node1 -->
<g id="edge2" class="edge"><title>Node3&#45;&gt;Node1</title>
<path fill="none" stroke="midnightblue" d="M177.45,-60.369C167.649,-51.1127 155.334,-39.4824 145.848,-30.523"/>
<polygon fill="midnightblue" stroke="midnightblue" points="175.3,-63.1534 184.974,-67.4751 180.107,-58.0643 175.3,-63.1534"/>
</g>
</g>
</svg>
