<?xml version="1.0" encoding="UTF-8" standalone="no"?>
<!DOCTYPE svg PUBLIC "-//W3C//DTD SVG 1.1//EN"
 "http://www.w3.org/Graphics/SVG/1.1/DTD/svg11.dtd">
<!-- Generated by graphviz version 2.40.1 (20161225.0304)
 -->
<!-- Title: Ogre::v1::OverlayElement Pages: 1 -->
<svg width="324pt" height="274pt"
 viewBox="0.00 0.00 323.50 274.00" xmlns="http://www.w3.org/2000/svg" xmlns:xlink="http://www.w3.org/1999/xlink">
<g id="graph0" class="graph" transform="scale(1 1) rotate(0) translate(4 270)">
<title>Ogre::v1::OverlayElement</title>
<!-- Node0 -->
<g id="node1" class="node">
<title>Node0</title>
<polygon fill="#bfbfbf" stroke="#000000" points="106.5,-190.5 106.5,-209.5 236.5,-209.5 236.5,-190.5 106.5,-190.5"/>
<text text-anchor="middle" x="171.5" y="-197.5" font-family="Helvetica,sans-Serif" font-size="10.00" fill="#000000">Ogre::v1::OverlayElement</text>
</g>
<!-- Node4 -->
<g id="node5" class="node">
<title>Node4</title>
<g id="a_node5"><a xlink:href="class_ogre_1_1v1_1_1_overlay_container.html" target="_top" xlink:title="A 2D element which contains other OverlayElement instances. ">
<polygon fill="none" stroke="#000000" points="27.5,-129 27.5,-148 163.5,-148 163.5,-129 27.5,-129"/>
<text text-anchor="middle" x="95.5" y="-136" font-family="Helvetica,sans-Serif" font-size="10.00" fill="#000000">Ogre::v1::OverlayContainer</text>
</a>
</g>
</g>
<!-- Node0&#45;&gt;Node4 -->
<g id="edge4" class="edge">
<title>Node0&#45;&gt;Node4</title>
<path fill="none" stroke="#191970" d="M151.566,-183.8692C137.5875,-172.5576 119.3581,-157.8062 107.5424,-148.2449"/>
<polygon fill="#191970" stroke="#191970" points="149.6496,-186.8209 159.625,-190.3906 154.053,-181.3793 149.6496,-186.8209"/>
</g>
<!-- Node7 -->
<g id="node8" class="node">
<title>Node7</title>
<g id="a_node8"><a xlink:href="class_ogre_1_1v1_1_1_text_area_overlay_element.html" target="_top" xlink:title="This class implements an overlay element which contains simple unformatted text. ">
<polygon fill="none" stroke="#000000" points="181.5,-123.5 181.5,-153.5 315.5,-153.5 315.5,-123.5 181.5,-123.5"/>
<text text-anchor="start" x="189.5" y="-141.5" font-family="Helvetica,sans-Serif" font-size="10.00" fill="#000000">Ogre::v1::TextAreaOverlay</text>
<text text-anchor="middle" x="248.5" y="-130.5" font-family="Helvetica,sans-Serif" font-size="10.00" fill="#000000">Element</text>
</a>
</g>
</g>
<!-- Node0&#45;&gt;Node7 -->
<g id="edge7" class="edge">
<title>Node0&#45;&gt;Node7</title>
<path fill="none" stroke="#191970" d="M191.4844,-184.0385C203.2671,-174.6276 218.0867,-162.7911 229.6637,-153.5446"/>
<polygon fill="#191970" stroke="#191970" points="189.1606,-181.415 183.5313,-190.3906 193.5292,-186.8846 189.1606,-181.415"/>
</g>
<!-- Node1 -->
<g id="node2" class="node">
<title>Node1</title>
<g id="a_node2"><a xlink:href="class_ogre_1_1_string_interface.html" target="_top" xlink:title="Class defining the common interface which classes can use to present a reflection&#45;style, self&#45;defining parameter set to callers. ">
<polygon fill="none" stroke="#000000" points="0,-246.5 0,-265.5 107,-265.5 107,-246.5 0,-246.5"/>
<text text-anchor="middle" x="53.5" y="-253.5" font-family="Helvetica,sans-Serif" font-size="10.00" fill="#000000">Ogre::StringInterface</text>
</a>
</g>
</g>
<!-- Node1&#45;&gt;Node0 -->
<g id="edge1" class="edge">
<title>Node1&#45;&gt;Node0</title>
<path fill="none" stroke="#191970" d="M83.0547,-241.9741C104.4195,-231.8348 132.7116,-218.408 151.4798,-209.5011"/>
<polygon fill="#191970" stroke="#191970" points="81.3186,-238.9238 73.7849,-246.3733 84.3198,-245.2478 81.3186,-238.9238"/>
</g>
<!-- Node2 -->
<g id="node3" class="node">
<title>Node2</title>
<g id="a_node3"><a xlink:href="class_ogre_1_1_renderable.html" target="_top" xlink:title="Abstract class defining the interface all renderable objects must implement. ">
<polygon fill="none" stroke="#000000" points="125,-246.5 125,-265.5 218,-265.5 218,-246.5 125,-246.5"/>
<text text-anchor="middle" x="171.5" y="-253.5" font-family="Helvetica,sans-Serif" font-size="10.00" fill="#000000">Ogre::Renderable</text>
</a>
</g>
</g>
<!-- Node2&#45;&gt;Node0 -->
<g id="edge2" class="edge">
<title>Node2&#45;&gt;Node0</title>
<path fill="none" stroke="#191970" d="M171.5,-236.1575C171.5,-227.155 171.5,-216.9199 171.5,-209.6427"/>
<polygon fill="#191970" stroke="#191970" points="168.0001,-236.2455 171.5,-246.2455 175.0001,-236.2456 168.0001,-236.2455"/>
</g>
<!-- Node3 -->
<g id="node4" class="node">
<title>Node3</title>
<g id="a_node4"><a xlink:href="class_ogre_1_1_allocated_object.html" target="_top" xlink:title="Superclass for all objects that wish to use custom memory allocators when their new / delete operator...">
<polygon fill="none" stroke="#000000" points="236.5,-246.5 236.5,-265.5 308.5,-265.5 308.5,-246.5 236.5,-246.5"/>
<text text-anchor="middle" x="272.5" y="-253.5" font-family="Helvetica,sans-Serif" font-size="10.00" fill="#000000">OverlayAlloc</text>
</a>
</g>
</g>
<!-- Node3&#45;&gt;Node0 -->
<g id="edge3" class="edge">
<title>Node3&#45;&gt;Node0</title>
<path fill="none" stroke="#191970" d="M246.0281,-241.3225C227.9875,-231.3198 204.6123,-218.3593 188.8913,-209.6427"/>
<polygon fill="#191970" stroke="#191970" points="244.4643,-244.4574 254.9071,-246.2455 247.8587,-238.3354 244.4643,-244.4574"/>
</g>
<!-- Node5 -->
<g id="node6" class="node">
<title>Node5</title>
<g id="a_node6"><a xlink:href="class_ogre_1_1v1_1_1_panel_overlay_element.html" target="_top" xlink:title="OverlayElement representing a flat, single&#45;material (or transparent) panel which can contain other el...">
<polygon fill="none" stroke="#000000" points="18,-67.5 18,-86.5 173,-86.5 173,-67.5 18,-67.5"/>
<text text-anchor="middle" x="95.5" y="-74.5" font-family="Helvetica,sans-Serif" font-size="10.00" fill="#000000">Ogre::v1::PanelOverlayElement</text>
</a>
</g>
</g>
<!-- Node4&#45;&gt;Node5 -->
<g id="edge5" class="edge">
<title>Node4&#45;&gt;Node5</title>
<path fill="none" stroke="#191970" d="M95.5,-118.7462C95.5,-108.0519 95.5,-95.314 95.5,-86.7449"/>
<polygon fill="#191970" stroke="#191970" points="92.0001,-118.8906 95.5,-128.8906 99.0001,-118.8907 92.0001,-118.8906"/>
</g>
<!-- Node6 -->
<g id="node7" class="node">
<title>Node6</title>
<g id="a_node7"><a xlink:href="class_ogre_1_1v1_1_1_border_panel_overlay_element.html" target="_top" xlink:title="A specialisation of the PanelOverlayElement to provide a panel with a border. ">
<polygon fill="none" stroke="#000000" points="22,-.5 22,-30.5 169,-30.5 169,-.5 22,-.5"/>
<text text-anchor="start" x="30" y="-18.5" font-family="Helvetica,sans-Serif" font-size="10.00" fill="#000000">Ogre::v1::BorderPanelOverlay</text>
<text text-anchor="middle" x="95.5" y="-7.5" font-family="Helvetica,sans-Serif" font-size="10.00" fill="#000000">Element</text>
</a>
</g>
</g>
<!-- Node5&#45;&gt;Node6 -->
<g id="edge6" class="edge">
<title>Node5&#45;&gt;Node6</title>
<path fill="none" stroke="#191970" d="M95.5,-57.3693C95.5,-48.681 95.5,-38.6241 95.5,-30.5446"/>
<polygon fill="#191970" stroke="#191970" points="92.0001,-57.3906 95.5,-67.3906 99.0001,-57.3907 92.0001,-57.3906"/>
</g>
</g>
</svg>
