<?xml version="1.0" encoding="UTF-8" standalone="no"?>
<!DOCTYPE svg PUBLIC "-//W3C//DTD SVG 1.1//EN"
 "http://www.w3.org/Graphics/SVG/1.1/DTD/svg11.dtd">
<!-- Generated by graphviz version 2.38.0 (20140413.2041)
 -->
<!-- Title: Ogre::ScriptLoader Pages: 1 -->
<svg width="686pt" height="446pt"
 viewBox="0.00 0.00 686.00 446.00" xmlns="http://www.w3.org/2000/svg" xmlns:xlink="http://www.w3.org/1999/xlink">
<g id="graph0" class="graph" transform="scale(1 1) rotate(0) translate(4 442)">
<title>Ogre::ScriptLoader</title>
<!-- Node1 -->
<g id="node1" class="node"><title>Node1</title>
<polygon fill="#bfbfbf" stroke="black" points="0,-178.5 0,-197.5 98,-197.5 98,-178.5 0,-178.5"/>
<text text-anchor="middle" x="49" y="-185.5" font-family="Helvetica,sans-Serif" font-size="10.00">Ogre::ScriptLoader</text>
</g>
<!-- Node2 -->
<g id="node2" class="node"><title>Node2</title>
<g id="a_node2"><a xlink:href="class_ogre_1_1_hlms_manager.html" target="_top" xlink:title="HLMS stands for &quot;High Level Material System&quot;. ">
<polygon fill="none" stroke="black" points="156,-254.5 156,-273.5 260,-273.5 260,-254.5 156,-254.5"/>
<text text-anchor="middle" x="208" y="-261.5" font-family="Helvetica,sans-Serif" font-size="10.00">Ogre::HlmsManager</text>
</a>
</g>
</g>
<!-- Node1&#45;&gt;Node2 -->
<g id="edge1" class="edge"><title>Node1&#45;&gt;Node2</title>
<path fill="none" stroke="midnightblue" d="M69.6647,-204.216C85.9917,-216.947 110.297,-234.261 134,-245 142.35,-248.783 151.592,-251.918 160.613,-254.476"/>
<polygon fill="midnightblue" stroke="midnightblue" points="71.4713,-201.18 61.4695,-197.685 67.1089,-206.655 71.4713,-201.18"/>
</g>
<!-- Node3 -->
<g id="node3" class="node"><title>Node3</title>
<g id="a_node3"><a xlink:href="class_ogre_1_1_particle_system_manager.html" target="_top" xlink:title="Manages particle systems, particle system scripts (templates) and the available emitter &amp; affector fa...">
<polygon fill="none" stroke="black" points="134,-216.5 134,-235.5 282,-235.5 282,-216.5 134,-216.5"/>
<text text-anchor="middle" x="208" y="-223.5" font-family="Helvetica,sans-Serif" font-size="10.00">Ogre::ParticleSystemManager</text>
</a>
</g>
</g>
<!-- Node1&#45;&gt;Node3 -->
<g id="edge2" class="edge"><title>Node1&#45;&gt;Node3</title>
<path fill="none" stroke="midnightblue" d="M99.4467,-199.968C121.448,-205.293 146.994,-211.476 167.667,-216.48"/>
<polygon fill="midnightblue" stroke="midnightblue" points="100.16,-196.54 89.6177,-197.589 98.5137,-203.343 100.16,-196.54"/>
</g>
<!-- Node4 -->
<g id="node4" class="node"><title>Node4</title>
<g id="a_node4"><a xlink:href="class_ogre_1_1_resource_manager.html" target="_top" xlink:title="Defines a generic resource handler. ">
<polygon fill="none" stroke="black" points="146.5,-178.5 146.5,-197.5 269.5,-197.5 269.5,-178.5 146.5,-178.5"/>
<text text-anchor="middle" x="208" y="-185.5" font-family="Helvetica,sans-Serif" font-size="10.00">Ogre::ResourceManager</text>
</a>
</g>
</g>
<!-- Node1&#45;&gt;Node4 -->
<g id="edge3" class="edge"><title>Node1&#45;&gt;Node4</title>
<path fill="none" stroke="midnightblue" d="M108.543,-188C120.866,-188 133.892,-188 146.293,-188"/>
<polygon fill="midnightblue" stroke="midnightblue" points="108.386,-184.5 98.3862,-188 108.386,-191.5 108.386,-184.5"/>
</g>
<!-- Node25 -->
<g id="node25" class="node"><title>Node25</title>
<g id="a_node25"><a xlink:href="class_ogre_1_1_script_compiler_manager.html" target="_top" xlink:title="Manages threaded compilation of scripts. ">
<polygon fill="none" stroke="black" points="135,-140.5 135,-159.5 281,-159.5 281,-140.5 135,-140.5"/>
<text text-anchor="middle" x="208" y="-147.5" font-family="Helvetica,sans-Serif" font-size="10.00">Ogre::ScriptCompilerManager</text>
</a>
</g>
</g>
<!-- Node1&#45;&gt;Node25 -->
<g id="edge24" class="edge"><title>Node1&#45;&gt;Node25</title>
<path fill="none" stroke="midnightblue" d="M99.4467,-176.032C121.448,-170.707 146.994,-164.524 167.667,-159.52"/>
<polygon fill="midnightblue" stroke="midnightblue" points="98.5137,-172.657 89.6177,-178.411 100.16,-179.46 98.5137,-172.657"/>
</g>
<!-- Node26 -->
<g id="node26" class="node"><title>Node26</title>
<g id="a_node26"><a xlink:href="class_ogre_1_1v1_1_1_overlay_manager.html" target="_top" xlink:title="Manages Overlay objects, parsing them from .overlay files and storing a lookup library of them...">
<polygon fill="none" stroke="black" points="142.5,-102.5 142.5,-121.5 273.5,-121.5 273.5,-102.5 142.5,-102.5"/>
<text text-anchor="middle" x="208" y="-109.5" font-family="Helvetica,sans-Serif" font-size="10.00">Ogre::v1::OverlayManager</text>
</a>
</g>
</g>
<!-- Node1&#45;&gt;Node26 -->
<g id="edge25" class="edge"><title>Node1&#45;&gt;Node26</title>
<path fill="none" stroke="midnightblue" d="M69.6647,-171.784C85.9917,-159.053 110.297,-141.739 134,-131 142.35,-127.217 151.592,-124.082 160.613,-121.524"/>
<polygon fill="midnightblue" stroke="midnightblue" points="67.1089,-169.345 61.4695,-178.315 71.4713,-174.82 67.1089,-169.345"/>
</g>
<!-- Node5 -->
<g id="node5" class="node"><title>Node5</title>
<g id="a_node5"><a xlink:href="class_ogre_1_1_font_manager.html" target="_top" xlink:title="Manages Font resources, parsing .fontdef files and generally organising them. ">
<polygon fill="none" stroke="black" points="343,-336.5 343,-355.5 444,-355.5 444,-336.5 343,-336.5"/>
<text text-anchor="middle" x="393.5" y="-343.5" font-family="Helvetica,sans-Serif" font-size="10.00">Ogre::FontManager</text>
</a>
</g>
</g>
<!-- Node4&#45;&gt;Node5 -->
<g id="edge4" class="edge"><title>Node4&#45;&gt;Node5</title>
<path fill="none" stroke="midnightblue" d="M277.281,-203.011C278.936,-204.241 280.515,-205.569 282,-207 322.091,-245.641 277.814,-288.457 318,-327 324.84,-333.56 333.616,-337.943 342.729,-340.851"/>
<polygon fill="midnightblue" stroke="midnightblue" points="278.809,-199.844 268.448,-197.632 275.168,-205.822 278.809,-199.844"/>
</g>
<!-- Node6 -->
<g id="node6" class="node"><title>Node6</title>
<g id="a_node6"><a xlink:href="class_ogre_1_1_gpu_program_manager.html" target="_top" xlink:title="Ogre::GpuProgramManager">
<polygon fill="none" stroke="black" points="325.5,-298.5 325.5,-317.5 461.5,-317.5 461.5,-298.5 325.5,-298.5"/>
<text text-anchor="middle" x="393.5" y="-305.5" font-family="Helvetica,sans-Serif" font-size="10.00">Ogre::GpuProgramManager</text>
</a>
</g>
</g>
<!-- Node4&#45;&gt;Node6 -->
<g id="edge5" class="edge"><title>Node4&#45;&gt;Node6</title>
<path fill="none" stroke="midnightblue" d="M274.64,-202.023C277.22,-203.518 279.689,-205.172 282,-207 308.819,-228.216 292.989,-251.68 318,-275 329.381,-285.612 344.736,-293.197 358.55,-298.397"/>
<polygon fill="midnightblue" stroke="midnightblue" points="276.017,-198.8 265.499,-197.523 272.925,-205.08 276.017,-198.8"/>
</g>
<!-- Node13 -->
<g id="node13" class="node"><title>Node13</title>
<g id="a_node13"><a xlink:href="class_ogre_1_1_high_level_gpu_program_manager.html" target="_top" xlink:title="This ResourceManager manages high&#45;level vertex and fragment programs. ">
<polygon fill="none" stroke="black" points="322.5,-236 322.5,-266 464.5,-266 464.5,-236 322.5,-236"/>
<text text-anchor="start" x="330.5" y="-254" font-family="Helvetica,sans-Serif" font-size="10.00">Ogre::HighLevelGpuProgram</text>
<text text-anchor="middle" x="393.5" y="-243" font-family="Helvetica,sans-Serif" font-size="10.00">Manager</text>
</a>
</g>
</g>
<!-- Node4&#45;&gt;Node13 -->
<g id="edge12" class="edge"><title>Node4&#45;&gt;Node13</title>
<path fill="none" stroke="midnightblue" d="M262.197,-200.305C268.939,-202.313 275.684,-204.549 282,-207 298.867,-213.544 301.37,-218.877 318,-226 326.277,-229.545 335.238,-232.924 343.98,-235.987"/>
<polygon fill="midnightblue" stroke="midnightblue" points="262.947,-196.88 252.372,-197.527 261.042,-203.616 262.947,-196.88"/>
</g>
<!-- Node14 -->
<g id="node14" class="node"><title>Node14</title>
<g id="a_node14"><a xlink:href="class_ogre_1_1_material_manager.html" target="_top" xlink:title="Class for managing Material settings for Ogre. ">
<polygon fill="none" stroke="black" points="335.5,-197.5 335.5,-216.5 451.5,-216.5 451.5,-197.5 335.5,-197.5"/>
<text text-anchor="middle" x="393.5" y="-204.5" font-family="Helvetica,sans-Serif" font-size="10.00">Ogre::MaterialManager</text>
</a>
</g>
</g>
<!-- Node4&#45;&gt;Node14 -->
<g id="edge13" class="edge"><title>Node4&#45;&gt;Node14</title>
<path fill="none" stroke="midnightblue" d="M279.691,-195.32C298.125,-197.228 317.759,-199.261 335.391,-201.087"/>
<polygon fill="midnightblue" stroke="midnightblue" points="279.901,-191.823 269.593,-194.274 279.18,-198.785 279.901,-191.823"/>
</g>
<!-- Node15 -->
<g id="node15" class="node"><title>Node15</title>
<g id="a_node15"><a xlink:href="class_ogre_1_1_mesh_manager.html" target="_top" xlink:title="Handles the management of mesh resources. ">
<polygon fill="none" stroke="black" points="341,-159.5 341,-178.5 446,-178.5 446,-159.5 341,-159.5"/>
<text text-anchor="middle" x="393.5" y="-166.5" font-family="Helvetica,sans-Serif" font-size="10.00">Ogre::MeshManager</text>
</a>
</g>
</g>
<!-- Node4&#45;&gt;Node15 -->
<g id="edge14" class="edge"><title>Node4&#45;&gt;Node15</title>
<path fill="none" stroke="midnightblue" d="M279.763,-180.673C300.114,-178.566 321.921,-176.308 340.88,-174.345"/>
<polygon fill="midnightblue" stroke="midnightblue" points="279.18,-177.215 269.593,-181.726 279.901,-184.177 279.18,-177.215"/>
</g>
<!-- Node16 -->
<g id="node16" class="node"><title>Node16</title>
<g id="a_node16"><a xlink:href="class_ogre_1_1_texture_manager.html" target="_top" xlink:title="Class for loading &amp; managing textures. ">
<polygon fill="none" stroke="black" points="336.5,-121.5 336.5,-140.5 450.5,-140.5 450.5,-121.5 336.5,-121.5"/>
<text text-anchor="middle" x="393.5" y="-128.5" font-family="Helvetica,sans-Serif" font-size="10.00">Ogre::TextureManager</text>
</a>
</g>
</g>
<!-- Node4&#45;&gt;Node16 -->
<g id="edge15" class="edge"><title>Node4&#45;&gt;Node16</title>
<path fill="none" stroke="midnightblue" d="M262.197,-175.695C268.939,-173.687 275.684,-171.451 282,-169 298.867,-162.456 301.117,-156.503 318,-150 327.467,-146.354 337.878,-143.198 347.84,-140.563"/>
<polygon fill="midnightblue" stroke="midnightblue" points="261.042,-172.384 252.372,-178.473 262.947,-179.12 261.042,-172.384"/>
</g>
<!-- Node23 -->
<g id="node23" class="node"><title>Node23</title>
<g id="a_node23"><a xlink:href="class_ogre_1_1v1_1_1_mesh_manager.html" target="_top" xlink:title="Handles the management of mesh resources. ">
<polygon fill="none" stroke="black" points="332.5,-83.5 332.5,-102.5 454.5,-102.5 454.5,-83.5 332.5,-83.5"/>
<text text-anchor="middle" x="393.5" y="-90.5" font-family="Helvetica,sans-Serif" font-size="10.00">Ogre::v1::MeshManager</text>
</a>
</g>
</g>
<!-- Node4&#45;&gt;Node23 -->
<g id="edge22" class="edge"><title>Node4&#45;&gt;Node23</title>
<path fill="none" stroke="midnightblue" d="M273.59,-174.227C276.533,-172.667 279.357,-170.932 282,-169 306.192,-151.322 293.764,-129.618 318,-112 323.29,-108.154 329.285,-105.084 335.52,-102.635"/>
<polygon fill="midnightblue" stroke="midnightblue" points="272.105,-171.057 264.464,-178.396 275.014,-177.424 272.105,-171.057"/>
</g>
<!-- Node24 -->
<g id="node24" class="node"><title>Node24</title>
<g id="a_node24"><a xlink:href="class_ogre_1_1v1_1_1_old_skeleton_manager.html" target="_top" xlink:title="Handles the management of skeleton resources. ">
<polygon fill="none" stroke="black" points="318,-45.5 318,-64.5 469,-64.5 469,-45.5 318,-45.5"/>
<text text-anchor="middle" x="393.5" y="-52.5" font-family="Helvetica,sans-Serif" font-size="10.00">Ogre::v1::OldSkeletonManager</text>
</a>
</g>
</g>
<!-- Node4&#45;&gt;Node24 -->
<g id="edge23" class="edge"><title>Node4&#45;&gt;Node24</title>
<path fill="none" stroke="midnightblue" d="M276.461,-173.324C278.404,-172.002 280.258,-170.564 282,-169 315.598,-138.836 284.328,-104.082 318,-74 322.28,-70.1761 327.225,-67.1007 332.489,-64.6303"/>
<polygon fill="midnightblue" stroke="midnightblue" points="274.438,-170.447 267.45,-178.411 277.879,-176.543 274.438,-170.447"/>
</g>
<!-- Node7 -->
<g id="node7" class="node"><title>Node7</title>
<g id="a_node7"><a xlink:href="class_ogre_1_1_d3_d11_gpu_program_manager.html" target="_top" xlink:title="Ogre::D3D11GpuProgramManager">
<polygon fill="none" stroke="black" points="508,-418.5 508,-437.5 675,-437.5 675,-418.5 508,-418.5"/>
<text text-anchor="middle" x="591.5" y="-425.5" font-family="Helvetica,sans-Serif" font-size="10.00">Ogre::D3D11GpuProgramManager</text>
</a>
</g>
</g>
<!-- Node6&#45;&gt;Node7 -->
<g id="edge6" class="edge"><title>Node6&#45;&gt;Node7</title>
<path fill="none" stroke="midnightblue" d="M462.623,-322.335C464.859,-323.75 466.996,-325.3 469,-327 499.355,-352.745 474.249,-383.729 505,-409 509.699,-412.862 515.017,-415.981 520.646,-418.494"/>
<polygon fill="midnightblue" stroke="midnightblue" points="464.041,-319.125 453.567,-317.527 460.758,-325.308 464.041,-319.125"/>
</g>
<!-- Node8 -->
<g id="node8" class="node"><title>Node8</title>
<g id="a_node8"><a xlink:href="class_ogre_1_1_d3_d9_gpu_program_manager.html" target="_top" xlink:title="Ogre::D3D9GpuProgramManager">
<polygon fill="none" stroke="black" points="511,-380.5 511,-399.5 672,-399.5 672,-380.5 511,-380.5"/>
<text text-anchor="middle" x="591.5" y="-387.5" font-family="Helvetica,sans-Serif" font-size="10.00">Ogre::D3D9GpuProgramManager</text>
</a>
</g>
</g>
<!-- Node6&#45;&gt;Node8 -->
<g id="edge7" class="edge"><title>Node6&#45;&gt;Node8</title>
<path fill="none" stroke="midnightblue" d="M458.45,-321.326C462.127,-322.999 465.676,-324.882 469,-327 490.308,-340.579 483.484,-357.753 505,-371 511.345,-374.906 518.393,-378.013 525.643,-380.484"/>
<polygon fill="midnightblue" stroke="midnightblue" points="459.685,-318.05 449.1,-317.585 457.084,-324.549 459.685,-318.05"/>
</g>
<!-- Node9 -->
<g id="node9" class="node"><title>Node9</title>
<g id="a_node9"><a xlink:href="class_ogre_1_1_g_l3_plus_gpu_program_manager.html" target="_top" xlink:title="Ogre::GL3PlusGpuProgramManager">
<polygon fill="none" stroke="black" points="505,-342.5 505,-361.5 678,-361.5 678,-342.5 505,-342.5"/>
<text text-anchor="middle" x="591.5" y="-349.5" font-family="Helvetica,sans-Serif" font-size="10.00">Ogre::GL3PlusGpuProgramManager</text>
</a>
</g>
</g>
<!-- Node6&#45;&gt;Node9 -->
<g id="edge8" class="edge"><title>Node6&#45;&gt;Node9</title>
<path fill="none" stroke="midnightblue" d="M446.453,-319.797C464.933,-323.982 485.892,-328.715 505,-333 518.799,-336.094 533.856,-339.448 547.435,-342.464"/>
<polygon fill="midnightblue" stroke="midnightblue" points="446.995,-316.331 436.469,-317.535 445.448,-323.158 446.995,-316.331"/>
</g>
<!-- Node10 -->
<g id="node10" class="node"><title>Node10</title>
<g id="a_node10"><a xlink:href="class_ogre_1_1_g_l_e_s2_gpu_program_manager.html" target="_top" xlink:title="Ogre::GLES2GpuProgramManager">
<polygon fill="none" stroke="black" points="508,-304.5 508,-323.5 675,-323.5 675,-304.5 508,-304.5"/>
<text text-anchor="middle" x="591.5" y="-311.5" font-family="Helvetica,sans-Serif" font-size="10.00">Ogre::GLES2GpuProgramManager</text>
</a>
</g>
</g>
<!-- Node6&#45;&gt;Node10 -->
<g id="edge9" class="edge"><title>Node6&#45;&gt;Node10</title>
<path fill="none" stroke="midnightblue" d="M471.914,-310.37C483.706,-310.731 495.913,-311.104 507.812,-311.469"/>
<polygon fill="midnightblue" stroke="midnightblue" points="471.78,-306.864 461.678,-310.056 471.566,-313.861 471.78,-306.864"/>
</g>
<!-- Node11 -->
<g id="node11" class="node"><title>Node11</title>
<g id="a_node11"><a xlink:href="class_ogre_1_1_g_l_s_l_shader_manager.html" target="_top" xlink:title="Ogre::GLSLShaderManager">
<polygon fill="none" stroke="black" points="523,-266.5 523,-285.5 660,-285.5 660,-266.5 523,-266.5"/>
<text text-anchor="middle" x="591.5" y="-273.5" font-family="Helvetica,sans-Serif" font-size="10.00">Ogre::GLSLShaderManager</text>
</a>
</g>
</g>
<!-- Node6&#45;&gt;Node11 -->
<g id="edge10" class="edge"><title>Node6&#45;&gt;Node11</title>
<path fill="none" stroke="midnightblue" d="M462.653,-296.873C485.291,-293.177 510.277,-289.098 532.11,-285.533"/>
<polygon fill="midnightblue" stroke="midnightblue" points="462.081,-293.42 452.776,-298.486 463.209,-300.328 462.081,-293.42"/>
</g>
<!-- Node12 -->
<g id="node12" class="node"><title>Node12</title>
<g id="a_node12"><a xlink:href="class_ogre_1_1_metal_gpu_program_manager.html" target="_top" xlink:title="Ogre::MetalGpuProgramManager">
<polygon fill="none" stroke="black" points="511.5,-228.5 511.5,-247.5 671.5,-247.5 671.5,-228.5 511.5,-228.5"/>
<text text-anchor="middle" x="591.5" y="-235.5" font-family="Helvetica,sans-Serif" font-size="10.00">Ogre::MetalGpuProgramManager</text>
</a>
</g>
</g>
<!-- Node6&#45;&gt;Node12 -->
<g id="edge11" class="edge"><title>Node6&#45;&gt;Node12</title>
<path fill="none" stroke="midnightblue" d="M426.025,-294.424C439.35,-288.586 454.995,-281.598 469,-275 485.182,-267.375 488.142,-262.985 505,-257 515.461,-253.286 526.908,-250.145 537.928,-247.553"/>
<polygon fill="midnightblue" stroke="midnightblue" points="424.558,-291.246 416.79,-298.45 427.356,-297.662 424.558,-291.246"/>
</g>
<!-- Node17 -->
<g id="node17" class="node"><title>Node17</title>
<g id="a_node17"><a xlink:href="class_ogre_1_1_d3_d11_texture_manager.html" target="_top" xlink:title="Ogre::D3D11TextureManager">
<polygon fill="none" stroke="black" points="519,-190.5 519,-209.5 664,-209.5 664,-190.5 519,-190.5"/>
<text text-anchor="middle" x="591.5" y="-197.5" font-family="Helvetica,sans-Serif" font-size="10.00">Ogre::D3D11TextureManager</text>
</a>
</g>
</g>
<!-- Node16&#45;&gt;Node17 -->
<g id="edge16" class="edge"><title>Node16&#45;&gt;Node17</title>
<path fill="none" stroke="midnightblue" d="M454.862,-143.801C459.753,-145.614 464.528,-147.67 469,-150 487.726,-159.756 486.125,-171.536 505,-181 512.748,-184.885 521.284,-187.982 529.874,-190.449"/>
<polygon fill="midnightblue" stroke="midnightblue" points="455.957,-140.477 445.363,-140.609 453.727,-147.112 455.957,-140.477"/>
</g>
<!-- Node18 -->
<g id="node18" class="node"><title>Node18</title>
<g id="a_node18"><a xlink:href="class_ogre_1_1_d3_d9_texture_manager.html" target="_top" xlink:title="Ogre::D3D9TextureManager">
<polygon fill="none" stroke="black" points="521.5,-152.5 521.5,-171.5 661.5,-171.5 661.5,-152.5 521.5,-152.5"/>
<text text-anchor="middle" x="591.5" y="-159.5" font-family="Helvetica,sans-Serif" font-size="10.00">Ogre::D3D9TextureManager</text>
</a>
</g>
</g>
<!-- Node16&#45;&gt;Node18 -->
<g id="edge17" class="edge"><title>Node16&#45;&gt;Node18</title>
<path fill="none" stroke="midnightblue" d="M460.796,-141.486C483.27,-145.04 508.236,-148.989 530.215,-152.465"/>
<polygon fill="midnightblue" stroke="midnightblue" points="461.09,-137.989 450.666,-139.883 459.996,-144.903 461.09,-137.989"/>
</g>
<!-- Node19 -->
<g id="node19" class="node"><title>Node19</title>
<g id="a_node19"><a xlink:href="class_ogre_1_1_g_l3_plus_texture_manager.html" target="_top" xlink:title="GL3Plus&#45;specific implementation of a TextureManager. ">
<polygon fill="none" stroke="black" points="515.5,-114.5 515.5,-133.5 667.5,-133.5 667.5,-114.5 515.5,-114.5"/>
<text text-anchor="middle" x="591.5" y="-121.5" font-family="Helvetica,sans-Serif" font-size="10.00">Ogre::GL3PlusTextureManager</text>
</a>
</g>
</g>
<!-- Node16&#45;&gt;Node19 -->
<g id="edge18" class="edge"><title>Node16&#45;&gt;Node19</title>
<path fill="none" stroke="midnightblue" d="M460.791,-128.632C478.318,-128.006 497.362,-127.326 515.323,-126.685"/>
<polygon fill="midnightblue" stroke="midnightblue" points="460.534,-125.139 450.666,-128.994 460.784,-132.135 460.534,-125.139"/>
</g>
<!-- Node20 -->
<g id="node20" class="node"><title>Node20</title>
<g id="a_node20"><a xlink:href="class_ogre_1_1_g_l_e_s2_texture_manager.html" target="_top" xlink:title="GL ES&#45;specific implementation of a TextureManager. ">
<polygon fill="none" stroke="black" points="518.5,-76.5 518.5,-95.5 664.5,-95.5 664.5,-76.5 518.5,-76.5"/>
<text text-anchor="middle" x="591.5" y="-83.5" font-family="Helvetica,sans-Serif" font-size="10.00">Ogre::GLES2TextureManager</text>
</a>
</g>
</g>
<!-- Node16&#45;&gt;Node20 -->
<g id="edge19" class="edge"><title>Node16&#45;&gt;Node20</title>
<path fill="none" stroke="midnightblue" d="M444.298,-119.144C463.284,-114.66 485.132,-109.545 505,-105 518.637,-101.881 533.515,-98.5493 546.98,-95.5614"/>
<polygon fill="midnightblue" stroke="midnightblue" points="443.292,-115.785 434.367,-121.494 444.904,-122.597 443.292,-115.785"/>
</g>
<!-- Node21 -->
<g id="node21" class="node"><title>Node21</title>
<g id="a_node21"><a xlink:href="class_ogre_1_1_metal_texture_manager.html" target="_top" xlink:title="Ogre::MetalTextureManager">
<polygon fill="none" stroke="black" points="522.5,-38.5 522.5,-57.5 660.5,-57.5 660.5,-38.5 522.5,-38.5"/>
<text text-anchor="middle" x="591.5" y="-45.5" font-family="Helvetica,sans-Serif" font-size="10.00">Ogre::MetalTextureManager</text>
</a>
</g>
</g>
<!-- Node16&#45;&gt;Node21 -->
<g id="edge20" class="edge"><title>Node16&#45;&gt;Node21</title>
<path fill="none" stroke="midnightblue" d="M458.478,-117.717C462.148,-116.033 465.688,-114.137 469,-112 490.523,-98.1166 483.264,-80.5477 505,-67 511.194,-63.1393 518.071,-60.0584 525.158,-57.6006"/>
<polygon fill="midnightblue" stroke="midnightblue" points="457.108,-114.495 449.14,-121.477 459.724,-120.988 457.108,-114.495"/>
</g>
<!-- Node22 -->
<g id="node22" class="node"><title>Node22</title>
<g id="a_node22"><a xlink:href="class_ogre_1_1_n_u_l_l_texture_manager.html" target="_top" xlink:title="Ogre::NULLTextureManager">
<polygon fill="none" stroke="black" points="521.5,-0.5 521.5,-19.5 661.5,-19.5 661.5,-0.5 521.5,-0.5"/>
<text text-anchor="middle" x="591.5" y="-7.5" font-family="Helvetica,sans-Serif" font-size="10.00">Ogre::NULLTextureManager</text>
</a>
</g>
</g>
<!-- Node16&#45;&gt;Node22 -->
<g id="edge21" class="edge"><title>Node16&#45;&gt;Node22</title>
<path fill="none" stroke="midnightblue" d="M459.696,-118.431C463.006,-116.568 466.139,-114.437 469,-112 499.607,-85.9237 473.992,-54.5981 505,-29 509.925,-24.9342 515.535,-21.6911 521.474,-19.1102"/>
<polygon fill="midnightblue" stroke="midnightblue" points="458.114,-115.308 450.584,-122.761 461.118,-121.63 458.114,-115.308"/>
</g>
</g>
</svg>
