<?xml version="1.0" encoding="UTF-8" standalone="no"?>
<!DOCTYPE svg PUBLIC "-//W3C//DTD SVG 1.1//EN"
 "http://www.w3.org/Graphics/SVG/1.1/DTD/svg11.dtd">
<!-- Generated by graphviz version 2.40.1 (20161225.0304)
 -->
<!-- Title: Ogre::RTShader::ProgramWriterFactory Pages: 1 -->
<svg width="547pt" height="186pt"
 viewBox="0.00 0.00 547.00 186.00" xmlns="http://www.w3.org/2000/svg" xmlns:xlink="http://www.w3.org/1999/xlink">
<g id="graph0" class="graph" transform="scale(1 1) rotate(0) translate(4 182)">
<title>Ogre::RTShader::ProgramWriterFactory</title>
<!-- Node0 -->
<g id="node1" class="node">
<title>Node0</title>
<polygon fill="#bfbfbf" stroke="#000000" points="160,-73.5 160,-103.5 330,-103.5 330,-73.5 160,-73.5"/>
<text text-anchor="start" x="168" y="-91.5" font-family="Helvetica,sans-Serif" font-size="10.00" fill="#000000">Ogre::RTShader::ProgramWriter</text>
<text text-anchor="middle" x="245" y="-80.5" font-family="Helvetica,sans-Serif" font-size="10.00" fill="#000000">Factory</text>
</g>
<!-- Node2 -->
<g id="node3" class="node">
<title>Node2</title>
<g id="a_node3"><a xlink:href="class_ogre_1_1_r_t_shader_1_1_shader_program_writer_c_g_factory.html" target="_top" xlink:title="CG program writer factory implementation. ">
<polygon fill="none" stroke="#000000" points="366,-147.5 366,-177.5 539,-177.5 539,-147.5 366,-147.5"/>
<text text-anchor="start" x="374" y="-165.5" font-family="Helvetica,sans-Serif" font-size="10.00" fill="#000000">Ogre::RTShader::ShaderProgram</text>
<text text-anchor="middle" x="452.5" y="-154.5" font-family="Helvetica,sans-Serif" font-size="10.00" fill="#000000">WriterCGFactory</text>
</a>
</g>
</g>
<!-- Node0&#45;&gt;Node2 -->
<g id="edge2" class="edge">
<title>Node0&#45;&gt;Node2</title>
<path fill="none" stroke="#191970" d="M287.6705,-107.6166C310.6261,-117.5218 339.5757,-129.4121 366,-138.5 375.1372,-141.6425 384.9222,-144.6706 394.5053,-147.4553"/>
<polygon fill="#191970" stroke="#191970" points="288.7902,-104.2869 278.2242,-103.507 285.9977,-110.7058 288.7902,-104.2869"/>
</g>
<!-- Node3 -->
<g id="node4" class="node">
<title>Node3</title>
<g id="a_node4"><a xlink:href="class_ogre_1_1_r_t_shader_1_1_shader_program_writer_g_l_s_l_e_s_factory.html" target="_top" xlink:title="GLSL ES program writer factory implementation. ">
<polygon fill="none" stroke="#000000" points="366,-98.5 366,-128.5 539,-128.5 539,-98.5 366,-98.5"/>
<text text-anchor="start" x="374" y="-116.5" font-family="Helvetica,sans-Serif" font-size="10.00" fill="#000000">Ogre::RTShader::ShaderProgram</text>
<text text-anchor="middle" x="452.5" y="-105.5" font-family="Helvetica,sans-Serif" font-size="10.00" fill="#000000">WriterGLSLESFactory</text>
</a>
</g>
</g>
<!-- Node0&#45;&gt;Node3 -->
<g id="edge3" class="edge">
<title>Node0&#45;&gt;Node3</title>
<path fill="none" stroke="#191970" d="M340.2628,-99.9774C348.7946,-101.0054 357.4036,-102.0426 365.8567,-103.061"/>
<polygon fill="#191970" stroke="#191970" points="340.6434,-96.4981 330.2965,-98.7767 339.806,-103.4478 340.6434,-96.4981"/>
</g>
<!-- Node4 -->
<g id="node5" class="node">
<title>Node4</title>
<g id="a_node5"><a xlink:href="class_ogre_1_1_r_t_shader_1_1_shader_program_writer_g_l_s_l_factory.html" target="_top" xlink:title="GLSL program writer factory implementation. ">
<polygon fill="none" stroke="#000000" points="366,-49.5 366,-79.5 539,-79.5 539,-49.5 366,-49.5"/>
<text text-anchor="start" x="374" y="-67.5" font-family="Helvetica,sans-Serif" font-size="10.00" fill="#000000">Ogre::RTShader::ShaderProgram</text>
<text text-anchor="middle" x="452.5" y="-56.5" font-family="Helvetica,sans-Serif" font-size="10.00" fill="#000000">WriterGLSLFactory</text>
</a>
</g>
</g>
<!-- Node0&#45;&gt;Node4 -->
<g id="edge4" class="edge">
<title>Node0&#45;&gt;Node4</title>
<path fill="none" stroke="#191970" d="M340.2628,-77.4817C348.7946,-76.4948 357.4036,-75.4991 365.8567,-74.5214"/>
<polygon fill="#191970" stroke="#191970" points="339.8281,-74.0085 330.2965,-78.6344 340.6324,-80.9622 339.8281,-74.0085"/>
</g>
<!-- Node5 -->
<g id="node6" class="node">
<title>Node5</title>
<g id="a_node6"><a xlink:href="class_ogre_1_1_r_t_shader_1_1_shader_program_writer_h_l_s_l_factory.html" target="_top" xlink:title="HLSL program writer factory implementation. ">
<polygon fill="none" stroke="#000000" points="366,-.5 366,-30.5 539,-30.5 539,-.5 366,-.5"/>
<text text-anchor="start" x="374" y="-18.5" font-family="Helvetica,sans-Serif" font-size="10.00" fill="#000000">Ogre::RTShader::ShaderProgram</text>
<text text-anchor="middle" x="452.5" y="-7.5" font-family="Helvetica,sans-Serif" font-size="10.00" fill="#000000">WriterHLSLFactory</text>
</a>
</g>
</g>
<!-- Node0&#45;&gt;Node5 -->
<g id="edge5" class="edge">
<title>Node0&#45;&gt;Node5</title>
<path fill="none" stroke="#191970" d="M288.6909,-69.401C311.496,-59.7919 339.9957,-48.3407 366,-39.5 375.1483,-36.3899 384.939,-33.3785 394.5244,-30.6005"/>
<polygon fill="#191970" stroke="#191970" points="287.1261,-66.2629 279.2898,-73.3934 289.8623,-72.706 287.1261,-66.2629"/>
</g>
<!-- Node1 -->
<g id="node2" class="node">
<title>Node1</title>
<g id="a_node2"><a xlink:href="class_ogre_1_1_allocated_object.html" target="_top" xlink:title="Superclass for all objects that wish to use custom memory allocators when their new / delete operator...">
<polygon fill="none" stroke="#000000" points="0,-79 0,-98 124,-98 124,-79 0,-79"/>
<text text-anchor="middle" x="62" y="-86" font-family="Helvetica,sans-Serif" font-size="10.00" fill="#000000">RTShaderSystemAlloc</text>
</a>
</g>
</g>
<!-- Node1&#45;&gt;Node0 -->
<g id="edge1" class="edge">
<title>Node1&#45;&gt;Node0</title>
<path fill="none" stroke="#191970" d="M134.3375,-88.5C142.7481,-88.5 151.385,-88.5 159.9461,-88.5"/>
<polygon fill="#191970" stroke="#191970" points="134.2108,-85.0001 124.2108,-88.5 134.2108,-92.0001 134.2108,-85.0001"/>
</g>
</g>
</svg>
