<?xml version="1.0" encoding="UTF-8" standalone="no"?>
<!DOCTYPE svg PUBLIC "-//W3C//DTD SVG 1.1//EN"
 "http://www.w3.org/Graphics/SVG/1.1/DTD/svg11.dtd">
<!-- Generated by graphviz version 2.40.1 (20161225.0304)
 -->
<!-- Title: Ogre::UavBufferPacked Pages: 1 -->
<svg width="638pt" height="142pt"
 viewBox="0.00 0.00 638.00 142.00" xmlns="http://www.w3.org/2000/svg" xmlns:xlink="http://www.w3.org/1999/xlink">
<g id="graph0" class="graph" transform="scale(1 1) rotate(0) translate(4 138)">
<title>Ogre::UavBufferPacked</title>
<!-- Node0 -->
<g id="node1" class="node">
<title>Node0</title>
<polygon fill="#bfbfbf" stroke="#000000" points="293,-57.5 293,-76.5 424,-76.5 424,-57.5 293,-57.5"/>
<text text-anchor="middle" x="358.5" y="-64.5" font-family="Helvetica,sans-Serif" font-size="10.00" fill="#000000">Ogre::UavBufferPacked</text>
</g>
<!-- Node4 -->
<g id="node5" class="node">
<title>Node4</title>
<g id="a_node5"><a xlink:href="class_ogre_1_1_d3_d11_uav_buffer_packed.html" target="_top" xlink:title="Ogre::D3D11UavBufferPacked">
<polygon fill="none" stroke="#000000" points="463,-114.5 463,-133.5 627,-133.5 627,-114.5 463,-114.5"/>
<text text-anchor="middle" x="545" y="-121.5" font-family="Helvetica,sans-Serif" font-size="10.00" fill="#000000">Ogre::D3D11UavBufferPacked</text>
</a>
</g>
</g>
<!-- Node0&#45;&gt;Node4 -->
<g id="edge4" class="edge">
<title>Node0&#45;&gt;Node4</title>
<path fill="none" stroke="#191970" d="M390.6187,-80.3269C410.3941,-88.2046 436.3942,-97.9796 460,-105 471.8849,-108.5346 484.877,-111.7542 497.0476,-114.498"/>
<polygon fill="#191970" stroke="#191970" points="391.7535,-77.0107 381.1701,-76.5189 389.1369,-83.5033 391.7535,-77.0107"/>
</g>
<!-- Node5 -->
<g id="node6" class="node">
<title>Node5</title>
<g id="a_node6"><a xlink:href="class_ogre_1_1_g_l3_plus_uav_buffer_packed.html" target="_top" xlink:title="Ogre::GL3PlusUavBufferPacked">
<polygon fill="none" stroke="#000000" points="460,-76.5 460,-95.5 630,-95.5 630,-76.5 460,-76.5"/>
<text text-anchor="middle" x="545" y="-83.5" font-family="Helvetica,sans-Serif" font-size="10.00" fill="#000000">Ogre::GL3PlusUavBufferPacked</text>
</a>
</g>
</g>
<!-- Node0&#45;&gt;Node5 -->
<g id="edge5" class="edge">
<title>Node0&#45;&gt;Node5</title>
<path fill="none" stroke="#191970" d="M434.392,-74.7316C442.7994,-75.5881 451.4019,-76.4645 459.913,-77.3316"/>
<polygon fill="#191970" stroke="#191970" points="434.5562,-71.2303 424.2529,-73.6987 433.8467,-78.1943 434.5562,-71.2303"/>
</g>
<!-- Node6 -->
<g id="node7" class="node">
<title>Node6</title>
<g id="a_node7"><a xlink:href="class_ogre_1_1_metal_uav_buffer_packed.html" target="_top" xlink:title="Ogre::MetalUavBufferPacked">
<polygon fill="none" stroke="#000000" points="466,-38.5 466,-57.5 624,-57.5 624,-38.5 466,-38.5"/>
<text text-anchor="middle" x="545" y="-45.5" font-family="Helvetica,sans-Serif" font-size="10.00" fill="#000000">Ogre::MetalUavBufferPacked</text>
</a>
</g>
</g>
<!-- Node0&#45;&gt;Node6 -->
<g id="edge6" class="edge">
<title>Node0&#45;&gt;Node6</title>
<path fill="none" stroke="#191970" d="M434.4575,-59.2617C444.7794,-58.2101 455.3943,-57.1287 465.772,-56.0715"/>
<polygon fill="#191970" stroke="#191970" points="433.8467,-55.8057 424.2529,-60.3013 434.5562,-62.7697 433.8467,-55.8057"/>
</g>
<!-- Node7 -->
<g id="node8" class="node">
<title>Node7</title>
<g id="a_node8"><a xlink:href="class_ogre_1_1_n_u_l_l_uav_buffer_packed.html" target="_top" xlink:title="Ogre::NULLUavBufferPacked">
<polygon fill="none" stroke="#000000" points="467,-.5 467,-19.5 623,-19.5 623,-.5 467,-.5"/>
<text text-anchor="middle" x="545" y="-7.5" font-family="Helvetica,sans-Serif" font-size="10.00" fill="#000000">Ogre::NULLUavBufferPacked</text>
</a>
</g>
</g>
<!-- Node0&#45;&gt;Node7 -->
<g id="edge7" class="edge">
<title>Node0&#45;&gt;Node7</title>
<path fill="none" stroke="#191970" d="M390.6187,-53.6731C410.3941,-45.7954 436.3942,-36.0204 460,-29 471.8849,-25.4654 484.877,-22.2458 497.0476,-19.502"/>
<polygon fill="#191970" stroke="#191970" points="389.1369,-50.4967 381.1701,-57.4811 391.7535,-56.9893 389.1369,-50.4967"/>
</g>
<!-- Node1 -->
<g id="node2" class="node">
<title>Node1</title>
<g id="a_node2"><a xlink:href="class_ogre_1_1_buffer_packed.html" target="_top" xlink:title="Ogre::BufferPacked">
<polygon fill="none" stroke="#000000" points="146,-57.5 146,-76.5 257,-76.5 257,-57.5 146,-57.5"/>
<text text-anchor="middle" x="201.5" y="-64.5" font-family="Helvetica,sans-Serif" font-size="10.00" fill="#000000">Ogre::BufferPacked</text>
</a>
</g>
</g>
<!-- Node1&#45;&gt;Node0 -->
<g id="edge1" class="edge">
<title>Node1&#45;&gt;Node0</title>
<path fill="none" stroke="#191970" d="M267.4595,-67C275.896,-67 284.5309,-67 292.9607,-67"/>
<polygon fill="#191970" stroke="#191970" points="267.2944,-63.5001 257.2944,-67 267.2944,-70.5001 267.2944,-63.5001"/>
</g>
<!-- Node2 -->
<g id="node3" class="node">
<title>Node2</title>
<g id="a_node3"><a xlink:href="struct_ogre_1_1_gpu_resource.html" target="_top" xlink:title="Ogre::GpuResource">
<polygon fill="none" stroke="#000000" points="0,-76.5 0,-95.5 110,-95.5 110,-76.5 0,-76.5"/>
<text text-anchor="middle" x="55" y="-83.5" font-family="Helvetica,sans-Serif" font-size="10.00" fill="#000000">Ogre::GpuResource</text>
</a>
</g>
</g>
<!-- Node2&#45;&gt;Node1 -->
<g id="edge2" class="edge">
<title>Node2&#45;&gt;Node1</title>
<path fill="none" stroke="#191970" d="M120.4904,-77.5064C128.8546,-76.4216 137.3553,-75.3191 145.5497,-74.2564"/>
<polygon fill="#191970" stroke="#191970" points="119.8521,-74.0597 110.3854,-78.8169 120.7525,-81.0016 119.8521,-74.0597"/>
</g>
<!-- Node3 -->
<g id="node4" class="node">
<title>Node3</title>
<g id="a_node4"><a xlink:href="class_ogre_1_1_allocated_object.html" target="_top" xlink:title="Superclass for all objects that wish to use custom memory allocators when their new / delete operator...">
<polygon fill="none" stroke="#000000" points="2,-38.5 2,-57.5 108,-57.5 108,-38.5 2,-38.5"/>
<text text-anchor="middle" x="55" y="-45.5" font-family="Helvetica,sans-Serif" font-size="10.00" fill="#000000">BufferPackedAlloc</text>
</a>
</g>
</g>
<!-- Node3&#45;&gt;Node1 -->
<g id="edge3" class="edge">
<title>Node3&#45;&gt;Node1</title>
<path fill="none" stroke="#191970" d="M118.3834,-56.2204C127.4138,-57.3916 136.6481,-58.5892 145.5235,-59.7403"/>
<polygon fill="#191970" stroke="#191970" points="118.6714,-52.7285 108.3043,-54.9132 117.771,-59.6704 118.6714,-52.7285"/>
</g>
</g>
</svg>
