<?xml version="1.0" encoding="UTF-8" standalone="no"?>
<!DOCTYPE svg PUBLIC "-//W3C//DTD SVG 1.1//EN"
 "http://www.w3.org/Graphics/SVG/1.1/DTD/svg11.dtd">
<!-- Generated by graphviz version 2.40.1 (20161225.0304)
 -->
<!-- Title: Ogre::RenderTarget Pages: 1 -->
<svg width="813pt" height="1100pt"
 viewBox="0.00 0.00 813.00 1100.00" xmlns="http://www.w3.org/2000/svg" xmlns:xlink="http://www.w3.org/1999/xlink">
<g id="graph0" class="graph" transform="scale(1 1) rotate(0) translate(4 1096)">
<title>Ogre::RenderTarget</title>
<!-- Node0 -->
<g id="node1" class="node">
<title>Node0</title>
<polygon fill="#bfbfbf" stroke="#000000" points="140,-630.5 140,-649.5 243,-649.5 243,-630.5 140,-630.5"/>
<text text-anchor="middle" x="191.5" y="-637.5" font-family="Helvetica,sans-Serif" font-size="10.00" fill="#000000">Ogre::RenderTarget</text>
</g>
<!-- Node3 -->
<g id="node4" class="node">
<title>Node3</title>
<g id="a_node4"><a xlink:href="class_ogre_1_1_multi_render_target.html" target="_top" xlink:title="This class represents a render target that renders to multiple RenderTextures at once. ">
<polygon fill="none" stroke="#000000" points="279,-965.5 279,-984.5 403,-984.5 403,-965.5 279,-965.5"/>
<text text-anchor="middle" x="341" y="-972.5" font-family="Helvetica,sans-Serif" font-size="10.00" fill="#000000">Ogre::MultiRenderTarget</text>
</a>
</g>
</g>
<!-- Node0&#45;&gt;Node3 -->
<g id="edge3" class="edge">
<title>Node0&#45;&gt;Node3</title>
<path fill="none" stroke="#191970" d="M200.0326,-659.1199C227.9695,-721.7209 316.0845,-919.1692 336.6695,-965.2962"/>
<polygon fill="#191970" stroke="#191970" points="203.0845,-657.3702 195.813,-649.6646 196.6922,-660.2229 203.0845,-657.3702"/>
</g>
<!-- Node9 -->
<g id="node10" class="node">
<title>Node9</title>
<g id="a_node10"><a xlink:href="class_ogre_1_1_render_texture.html" target="_top" xlink:title="This class represents a RenderTarget that renders to a Texture. ">
<polygon fill="none" stroke="#000000" points="287,-630.5 287,-649.5 395,-649.5 395,-630.5 287,-630.5"/>
<text text-anchor="middle" x="341" y="-637.5" font-family="Helvetica,sans-Serif" font-size="10.00" fill="#000000">Ogre::RenderTexture</text>
</a>
</g>
</g>
<!-- Node0&#45;&gt;Node9 -->
<g id="edge9" class="edge">
<title>Node0&#45;&gt;Node9</title>
<path fill="none" stroke="#191970" d="M253.4393,-640C264.5567,-640 276.0638,-640 286.9371,-640"/>
<polygon fill="#191970" stroke="#191970" points="253.3683,-636.5001 243.3683,-640 253.3682,-643.5001 253.3683,-636.5001"/>
</g>
<!-- Node24 -->
<g id="node25" class="node">
<title>Node24</title>
<g id="a_node25"><a xlink:href="class_ogre_1_1_render_window.html" target="_top" xlink:title="Manages the target rendering window. ">
<polygon fill="none" stroke="#000000" points="286,-209.5 286,-228.5 396,-228.5 396,-209.5 286,-209.5"/>
<text text-anchor="middle" x="341" y="-216.5" font-family="Helvetica,sans-Serif" font-size="10.00" fill="#000000">Ogre::RenderWindow</text>
</a>
</g>
</g>
<!-- Node0&#45;&gt;Node24 -->
<g id="edge24" class="edge">
<title>Node0&#45;&gt;Node24</title>
<path fill="none" stroke="#191970" d="M198.4084,-620.5457C224.7436,-546.3843 318.3224,-282.8614 337.5365,-228.7535"/>
<polygon fill="#191970" stroke="#191970" points="194.9516,-619.8211 194.9034,-630.4158 201.548,-622.1636 194.9516,-619.8211"/>
</g>
<!-- Node1 -->
<g id="node2" class="node">
<title>Node1</title>
<g id="a_node2"><a xlink:href="struct_ogre_1_1_gpu_resource.html" target="_top" xlink:title="Ogre::GpuResource">
<polygon fill="none" stroke="#000000" points="0,-649.5 0,-668.5 104,-668.5 104,-649.5 0,-649.5"/>
<text text-anchor="middle" x="52" y="-656.5" font-family="Helvetica,sans-Serif" font-size="10.00" fill="#000000">Ogre::GpuResource</text>
</a>
</g>
</g>
<!-- Node1&#45;&gt;Node0 -->
<g id="edge1" class="edge">
<title>Node1&#45;&gt;Node0</title>
<path fill="none" stroke="#191970" d="M114.258,-650.5204C122.7911,-649.3582 131.4754,-648.1754 139.7923,-647.0426"/>
<polygon fill="#191970" stroke="#191970" points="113.7777,-647.0534 104.3415,-651.871 114.7224,-653.9894 113.7777,-647.0534"/>
</g>
<!-- Node2 -->
<g id="node3" class="node">
<title>Node2</title>
<g id="a_node3"><a xlink:href="class_ogre_1_1_allocated_object.html" target="_top" xlink:title="Superclass for all objects that wish to use custom memory allocators when their new / delete operator...">
<polygon fill="none" stroke="#000000" points="8.5,-611.5 8.5,-630.5 95.5,-630.5 95.5,-611.5 8.5,-611.5"/>
<text text-anchor="middle" x="52" y="-618.5" font-family="Helvetica,sans-Serif" font-size="10.00" fill="#000000">RenderSysAlloc</text>
</a>
</g>
</g>
<!-- Node2&#45;&gt;Node0 -->
<g id="edge2" class="edge">
<title>Node2&#45;&gt;Node0</title>
<path fill="none" stroke="#191970" d="M105.7619,-628.3224C116.8702,-629.8354 128.5502,-631.4262 139.591,-632.93"/>
<polygon fill="#191970" stroke="#191970" points="106.1368,-624.8412 95.7559,-626.9596 105.1921,-631.7772 106.1368,-624.8412"/>
</g>
<!-- Node4 -->
<g id="node5" class="node">
<title>Node4</title>
<g id="a_node5"><a xlink:href="class_ogre_1_1_d3_d11_multi_render_target.html" target="_top" xlink:title="Ogre::D3D11MultiRenderTarget">
<polygon fill="none" stroke="#000000" points="443.5,-1072.5 443.5,-1091.5 598.5,-1091.5 598.5,-1072.5 443.5,-1072.5"/>
<text text-anchor="middle" x="521" y="-1079.5" font-family="Helvetica,sans-Serif" font-size="10.00" fill="#000000">Ogre::D3D11MultiRenderTarget</text>
</a>
</g>
</g>
<!-- Node3&#45;&gt;Node4 -->
<g id="edge4" class="edge">
<title>Node3&#45;&gt;Node4</title>
<path fill="none" stroke="#191970" d="M355.4228,-992.4477C373.0361,-1012.5754 404.7422,-1045.1786 439,-1063 446.3895,-1066.8441 454.5536,-1069.9183 462.7809,-1072.3749"/>
<polygon fill="#191970" stroke="#191970" points="357.9286,-989.9925 348.7707,-984.6648 352.6074,-994.5406 357.9286,-989.9925"/>
</g>
<!-- Node5 -->
<g id="node6" class="node">
<title>Node5</title>
<g id="a_node6"><a xlink:href="class_ogre_1_1_d3_d9_multi_render_target.html" target="_top" xlink:title="Ogre::D3D9MultiRenderTarget">
<polygon fill="none" stroke="#000000" points="446.5,-1034.5 446.5,-1053.5 595.5,-1053.5 595.5,-1034.5 446.5,-1034.5"/>
<text text-anchor="middle" x="521" y="-1041.5" font-family="Helvetica,sans-Serif" font-size="10.00" fill="#000000">Ogre::D3D9MultiRenderTarget</text>
</a>
</g>
</g>
<!-- Node3&#45;&gt;Node5 -->
<g id="edge5" class="edge">
<title>Node3&#45;&gt;Node5</title>
<path fill="none" stroke="#191970" d="M365.5268,-989.643C384.9062,-1000.682 412.939,-1015.4949 439,-1025 449.1592,-1028.7053 460.2968,-1031.8561 470.9983,-1034.4633"/>
<polygon fill="#191970" stroke="#191970" points="367.1633,-986.5462 356.755,-984.5668 363.6571,-992.6049 367.1633,-986.5462"/>
</g>
<!-- Node6 -->
<g id="node7" class="node">
<title>Node6</title>
<g id="a_node7"><a xlink:href="class_ogre_1_1_g_l3_plus_f_b_o_multi_render_target.html" target="_top" xlink:title="MultiRenderTarget for OpenGL. ">
<polygon fill="none" stroke="#000000" points="444,-985 444,-1015 598,-1015 598,-985 444,-985"/>
<text text-anchor="start" x="452" y="-1003" font-family="Helvetica,sans-Serif" font-size="10.00" fill="#000000">Ogre::GL3PlusFBOMultiRender</text>
<text text-anchor="middle" x="521" y="-992" font-family="Helvetica,sans-Serif" font-size="10.00" fill="#000000">Target</text>
</a>
</g>
</g>
<!-- Node3&#45;&gt;Node6 -->
<g id="edge6" class="edge">
<title>Node3&#45;&gt;Node6</title>
<path fill="none" stroke="#191970" d="M413.1731,-985.024C423.2722,-986.4267 433.6833,-987.8727 443.8698,-989.2875"/>
<polygon fill="#191970" stroke="#191970" points="413.5843,-981.5476 403.1978,-983.6386 412.6212,-988.4811 413.5843,-981.5476"/>
</g>
<!-- Node7 -->
<g id="node8" class="node">
<title>Node7</title>
<g id="a_node8"><a xlink:href="class_ogre_1_1_g_l_e_s2_f_b_o_multi_render_target.html" target="_top" xlink:title="MultiRenderTarget for GL ES 2.x. ">
<polygon fill="none" stroke="#000000" points="447,-936 447,-966 595,-966 595,-936 447,-936"/>
<text text-anchor="start" x="455" y="-954" font-family="Helvetica,sans-Serif" font-size="10.00" fill="#000000">Ogre::GLES2FBOMultiRender</text>
<text text-anchor="middle" x="521" y="-943" font-family="Helvetica,sans-Serif" font-size="10.00" fill="#000000">Target</text>
</a>
</g>
</g>
<!-- Node3&#45;&gt;Node7 -->
<g id="edge7" class="edge">
<title>Node3&#45;&gt;Node7</title>
<path fill="none" stroke="#191970" d="M413.2024,-965.373C424.2319,-963.9024 435.6327,-962.3823 446.7062,-960.9058"/>
<polygon fill="#191970" stroke="#191970" points="412.6475,-961.9159 403.1978,-966.707 413.5727,-968.8545 412.6475,-961.9159"/>
</g>
<!-- Node8 -->
<g id="node9" class="node">
<title>Node8</title>
<g id="a_node9"><a xlink:href="class_ogre_1_1_metal_multi_render_target.html" target="_top" xlink:title="Ogre::MetalMultiRenderTarget">
<polygon fill="none" stroke="#000000" points="447,-897.5 447,-916.5 595,-916.5 595,-897.5 447,-897.5"/>
<text text-anchor="middle" x="521" y="-904.5" font-family="Helvetica,sans-Serif" font-size="10.00" fill="#000000">Ogre::MetalMultiRenderTarget</text>
</a>
</g>
</g>
<!-- Node3&#45;&gt;Node8 -->
<g id="edge8" class="edge">
<title>Node3&#45;&gt;Node8</title>
<path fill="none" stroke="#191970" d="M366.6764,-960.5142C386.0656,-950.0517 413.5876,-936.1998 439,-927 450.1605,-922.9597 462.4677,-919.4739 474.0787,-916.5962"/>
<polygon fill="#191970" stroke="#191970" points="364.9471,-957.4707 357.8562,-965.3429 368.3085,-963.6108 364.9471,-957.4707"/>
</g>
<!-- Node10 -->
<g id="node11" class="node">
<title>Node10</title>
<g id="a_node11"><a xlink:href="class_ogre_1_1_d3_d11_depth_texture_target.html" target="_top" xlink:title="Ogre::D3D11DepthTextureTarget">
<polygon fill="none" stroke="#000000" points="440.5,-859.5 440.5,-878.5 601.5,-878.5 601.5,-859.5 440.5,-859.5"/>
<text text-anchor="middle" x="521" y="-866.5" font-family="Helvetica,sans-Serif" font-size="10.00" fill="#000000">Ogre::D3D11DepthTextureTarget</text>
</a>
</g>
</g>
<!-- Node9&#45;&gt;Node10 -->
<g id="edge10" class="edge">
<title>Node9&#45;&gt;Node10</title>
<path fill="none" stroke="#191970" d="M344.2975,-659.8209C352.3646,-701.793 377.1483,-799.8878 439,-850 443.7688,-853.8637 449.18,-856.971 454.8945,-859.4662"/>
<polygon fill="#191970" stroke="#191970" points="347.7045,-658.9915 342.4846,-649.7718 340.8157,-660.2344 347.7045,-658.9915"/>
</g>
<!-- Node11 -->
<g id="node12" class="node">
<title>Node11</title>
<g id="a_node12"><a xlink:href="class_ogre_1_1_d3_d11_null_texture_target.html" target="_top" xlink:title="Ogre::D3D11NullTextureTarget">
<polygon fill="none" stroke="#000000" points="445,-821.5 445,-840.5 597,-840.5 597,-821.5 445,-821.5"/>
<text text-anchor="middle" x="521" y="-828.5" font-family="Helvetica,sans-Serif" font-size="10.00" fill="#000000">Ogre::D3D11NullTextureTarget</text>
</a>
</g>
</g>
<!-- Node9&#45;&gt;Node11 -->
<g id="edge11" class="edge">
<title>Node9&#45;&gt;Node11</title>
<path fill="none" stroke="#191970" d="M346.3693,-659.4129C357.3798,-695.4384 386.0497,-772.5518 439,-812 444.1562,-815.8414 449.9623,-818.9236 456.0426,-821.3941"/>
<polygon fill="#191970" stroke="#191970" points="349.6773,-658.255 343.5118,-649.6389 342.9586,-660.2193 349.6773,-658.255"/>
</g>
<!-- Node12 -->
<g id="node13" class="node">
<title>Node12</title>
<g id="a_node13"><a xlink:href="class_ogre_1_1_d3_d11_render_texture.html" target="_top" xlink:title="RenderTexture implementation for D3D11. ">
<polygon fill="none" stroke="#000000" points="451.5,-783.5 451.5,-802.5 590.5,-802.5 590.5,-783.5 451.5,-783.5"/>
<text text-anchor="middle" x="521" y="-790.5" font-family="Helvetica,sans-Serif" font-size="10.00" fill="#000000">Ogre::D3D11RenderTexture</text>
</a>
</g>
</g>
<!-- Node9&#45;&gt;Node12 -->
<g id="edge12" class="edge">
<title>Node9&#45;&gt;Node12</title>
<path fill="none" stroke="#191970" d="M349.3304,-658.7718C363.3859,-688.1722 394.6777,-744.7382 439,-774 444.8537,-777.8646 451.3951,-780.948 458.1605,-783.4072"/>
<polygon fill="#191970" stroke="#191970" points="352.4601,-657.2008 345.0846,-649.5947 346.1071,-660.1401 352.4601,-657.2008"/>
</g>
<!-- Node13 -->
<g id="node14" class="node">
<title>Node13</title>
<g id="a_node14"><a xlink:href="class_ogre_1_1_d3_d9_render_texture.html" target="_top" xlink:title="RenderTexture implementation for D3D9. ">
<polygon fill="none" stroke="#000000" points="454,-745.5 454,-764.5 588,-764.5 588,-745.5 454,-745.5"/>
<text text-anchor="middle" x="521" y="-752.5" font-family="Helvetica,sans-Serif" font-size="10.00" fill="#000000">Ogre::D3D9RenderTexture</text>
</a>
</g>
</g>
<!-- Node9&#45;&gt;Node13 -->
<g id="edge13" class="edge">
<title>Node9&#45;&gt;Node13</title>
<path fill="none" stroke="#191970" d="M354.1262,-657.5089C371.2486,-679.0743 403.2665,-715.2674 439,-735 446.8248,-739.321 455.5764,-742.7183 464.3688,-745.3868"/>
<polygon fill="#191970" stroke="#191970" points="356.8188,-655.2695 347.9265,-649.5095 351.2859,-659.5576 356.8188,-655.2695"/>
</g>
<!-- Node14 -->
<g id="node15" class="node">
<title>Node14</title>
<g id="a_node15"><a xlink:href="class_ogre_1_1_g_l3_plus_depth_texture_target.html" target="_top" xlink:title="Ogre::GL3PlusDepthTexture\lTarget">
<polygon fill="none" stroke="#000000" points="451,-696 451,-726 591,-726 591,-696 451,-696"/>
<text text-anchor="start" x="459" y="-714" font-family="Helvetica,sans-Serif" font-size="10.00" fill="#000000">Ogre::GL3PlusDepthTexture</text>
<text text-anchor="middle" x="521" y="-703" font-family="Helvetica,sans-Serif" font-size="10.00" fill="#000000">Target</text>
</a>
</g>
</g>
<!-- Node9&#45;&gt;Node14 -->
<g id="edge14" class="edge">
<title>Node9&#45;&gt;Node14</title>
<path fill="none" stroke="#191970" d="M368.5944,-654.2491C387.9815,-663.9372 414.691,-676.6443 439,-686 448.1673,-689.5282 458.058,-692.8988 467.6898,-695.9587"/>
<polygon fill="#191970" stroke="#191970" points="369.9462,-651.0109 359.442,-649.6279 366.7912,-657.2595 369.9462,-651.0109"/>
</g>
<!-- Node15 -->
<g id="node16" class="node">
<title>Node15</title>
<g id="a_node16"><a xlink:href="class_ogre_1_1_g_l3_plus_null_texture_target.html" target="_top" xlink:title="Ogre::GL3PlusNullTexture\lTarget">
<polygon fill="none" stroke="#000000" points="455.5,-647 455.5,-677 586.5,-677 586.5,-647 455.5,-647"/>
<text text-anchor="start" x="463.5" y="-665" font-family="Helvetica,sans-Serif" font-size="10.00" fill="#000000">Ogre::GL3PlusNullTexture</text>
<text text-anchor="middle" x="521" y="-654" font-family="Helvetica,sans-Serif" font-size="10.00" fill="#000000">Target</text>
</a>
</g>
</g>
<!-- Node9&#45;&gt;Node15 -->
<g id="edge15" class="edge">
<title>Node9&#45;&gt;Node15</title>
<path fill="none" stroke="#191970" d="M404.9817,-647.82C421.297,-649.8141 438.8602,-651.9607 455.2618,-653.9653"/>
<polygon fill="#191970" stroke="#191970" points="405.3567,-644.3399 395.0059,-646.6007 404.5074,-651.2882 405.3567,-644.3399"/>
</g>
<!-- Node16 -->
<g id="node17" class="node">
<title>Node16</title>
<g id="a_node17"><a xlink:href="class_ogre_1_1_g_l3_plus_render_texture.html" target="_top" xlink:title="Base class for GL Render Textures. ">
<polygon fill="none" stroke="#000000" points="448,-608.5 448,-627.5 594,-627.5 594,-608.5 448,-608.5"/>
<text text-anchor="middle" x="521" y="-615.5" font-family="Helvetica,sans-Serif" font-size="10.00" fill="#000000">Ogre::GL3PlusRenderTexture</text>
</a>
</g>
</g>
<!-- Node9&#45;&gt;Node16 -->
<g id="edge16" class="edge">
<title>Node9&#45;&gt;Node16</title>
<path fill="none" stroke="#191970" d="M405.32,-632.1387C419.0608,-630.4592 433.6732,-628.6733 447.7222,-626.9562"/>
<polygon fill="#191970" stroke="#191970" points="404.5074,-628.7118 395.0059,-633.3993 405.3567,-635.6601 404.5074,-628.7118"/>
</g>
<!-- Node18 -->
<g id="node19" class="node">
<title>Node18</title>
<g id="a_node19"><a xlink:href="class_ogre_1_1_g_l_e_s2_render_texture.html" target="_top" xlink:title="Base class for GL Render Textures. ">
<polygon fill="none" stroke="#000000" points="451,-570.5 451,-589.5 591,-589.5 591,-570.5 451,-570.5"/>
<text text-anchor="middle" x="521" y="-577.5" font-family="Helvetica,sans-Serif" font-size="10.00" fill="#000000">Ogre::GLES2RenderTexture</text>
</a>
</g>
</g>
<!-- Node9&#45;&gt;Node18 -->
<g id="edge18" class="edge">
<title>Node9&#45;&gt;Node18</title>
<path fill="none" stroke="#191970" d="M370.3993,-626.1682C389.6126,-617.5133 415.4253,-606.6027 439,-599 450.1263,-595.4118 462.3065,-592.2108 473.7954,-589.5053"/>
<polygon fill="#191970" stroke="#191970" points="368.9131,-622.9991 361.2687,-630.3349 371.8193,-629.3673 368.9131,-622.9991"/>
</g>
<!-- Node20 -->
<g id="node21" class="node">
<title>Node20</title>
<g id="a_node21"><a xlink:href="class_ogre_1_1_metal_depth_texture_target.html" target="_top" xlink:title="Ogre::MetalDepthTextureTarget">
<polygon fill="none" stroke="#000000" points="443.5,-532.5 443.5,-551.5 598.5,-551.5 598.5,-532.5 443.5,-532.5"/>
<text text-anchor="middle" x="521" y="-539.5" font-family="Helvetica,sans-Serif" font-size="10.00" fill="#000000">Ogre::MetalDepthTextureTarget</text>
</a>
</g>
</g>
<!-- Node9&#45;&gt;Node20 -->
<g id="edge20" class="edge">
<title>Node9&#45;&gt;Node20</title>
<path fill="none" stroke="#191970" d="M357.4219,-622.7695C375.6584,-604.6629 406.7961,-576.6786 439,-561 446.8833,-557.162 455.5757,-554.0793 464.2649,-551.6088"/>
<polygon fill="#191970" stroke="#191970" points="354.5155,-620.7327 349.9933,-630.314 359.5034,-625.644 354.5155,-620.7327"/>
</g>
<!-- Node21 -->
<g id="node22" class="node">
<title>Node21</title>
<g id="a_node22"><a xlink:href="class_ogre_1_1_metal_null_texture_target.html" target="_top" xlink:title="Ogre::MetalNullTextureTarget">
<polygon fill="none" stroke="#000000" points="448,-494.5 448,-513.5 594,-513.5 594,-494.5 448,-494.5"/>
<text text-anchor="middle" x="521" y="-501.5" font-family="Helvetica,sans-Serif" font-size="10.00" fill="#000000">Ogre::MetalNullTextureTarget</text>
</a>
</g>
</g>
<!-- Node9&#45;&gt;Node21 -->
<g id="edge21" class="edge">
<title>Node9&#45;&gt;Node21</title>
<path fill="none" stroke="#191970" d="M351.2641,-621.3993C366.7309,-595.1921 398.5545,-547.8316 439,-523 445.3513,-519.1006 452.4264,-516.0008 459.6849,-513.5368"/>
<polygon fill="#191970" stroke="#191970" points="348.0892,-619.9002 346.1533,-630.3167 354.1625,-623.381 348.0892,-619.9002"/>
</g>
<!-- Node22 -->
<g id="node23" class="node">
<title>Node22</title>
<g id="a_node23"><a xlink:href="class_ogre_1_1_metal_render_texture.html" target="_top" xlink:title="Ogre::MetalRenderTexture">
<polygon fill="none" stroke="#000000" points="455,-456.5 455,-475.5 587,-475.5 587,-456.5 455,-456.5"/>
<text text-anchor="middle" x="521" y="-463.5" font-family="Helvetica,sans-Serif" font-size="10.00" fill="#000000">Ogre::MetalRenderTexture</text>
</a>
</g>
</g>
<!-- Node9&#45;&gt;Node22 -->
<g id="edge22" class="edge">
<title>Node9&#45;&gt;Node22</title>
<path fill="none" stroke="#191970" d="M347.6226,-620.6477C360.0318,-587.422 390.0408,-519.7563 439,-485 444.4813,-481.1088 450.6404,-478.0025 457.0567,-475.5247"/>
<polygon fill="#191970" stroke="#191970" points="344.2997,-619.5452 344.2103,-630.1397 350.8869,-621.9133 344.2997,-619.5452"/>
</g>
<!-- Node23 -->
<g id="node24" class="node">
<title>Node23</title>
<g id="a_node24"><a xlink:href="class_ogre_1_1_n_u_l_l_render_texture.html" target="_top" xlink:title="Ogre::NULLRenderTexture">
<polygon fill="none" stroke="#000000" points="454,-418.5 454,-437.5 588,-437.5 588,-418.5 454,-418.5"/>
<text text-anchor="middle" x="521" y="-425.5" font-family="Helvetica,sans-Serif" font-size="10.00" fill="#000000">Ogre::NULLRenderTexture</text>
</a>
</g>
</g>
<!-- Node9&#45;&gt;Node23 -->
<g id="edge23" class="edge">
<title>Node9&#45;&gt;Node23</title>
<path fill="none" stroke="#191970" d="M345.1858,-620.1595C354.5911,-580.6854 381.248,-492.2227 439,-447 443.9474,-443.1259 449.5463,-440.0173 455.4382,-437.5262"/>
<polygon fill="#191970" stroke="#191970" points="341.7245,-619.5981 342.9351,-630.1235 348.5525,-621.1404 341.7245,-619.5981"/>
</g>
<!-- Node17 -->
<g id="node18" class="node">
<title>Node17</title>
<g id="a_node18"><a xlink:href="class_ogre_1_1_g_l3_plus_f_b_o_render_texture.html" target="_top" xlink:title="RenderTexture for GL FBO. ">
<polygon fill="none" stroke="#000000" points="639,-611.5 639,-630.5 805,-630.5 805,-611.5 639,-611.5"/>
<text text-anchor="middle" x="722" y="-618.5" font-family="Helvetica,sans-Serif" font-size="10.00" fill="#000000">Ogre::GL3PlusFBORenderTexture</text>
</a>
</g>
</g>
<!-- Node16&#45;&gt;Node17 -->
<g id="edge17" class="edge">
<title>Node16&#45;&gt;Node17</title>
<path fill="none" stroke="#191970" d="M604.4335,-619.2453C615.7581,-619.4143 627.3805,-619.5878 638.7028,-619.7568"/>
<polygon fill="#191970" stroke="#191970" points="604.1854,-615.7413 594.1342,-619.0916 604.0808,-622.7405 604.1854,-615.7413"/>
</g>
<!-- Node19 -->
<g id="node20" class="node">
<title>Node19</title>
<g id="a_node20"><a xlink:href="class_ogre_1_1_g_l_e_s2_copying_render_texture.html" target="_top" xlink:title="Ogre::GLES2CopyingRender\lTexture">
<polygon fill="none" stroke="#000000" points="650.5,-562 650.5,-592 793.5,-592 793.5,-562 650.5,-562"/>
<text text-anchor="start" x="658.5" y="-580" font-family="Helvetica,sans-Serif" font-size="10.00" fill="#000000">Ogre::GLES2CopyingRender</text>
<text text-anchor="middle" x="722" y="-569" font-family="Helvetica,sans-Serif" font-size="10.00" fill="#000000">Texture</text>
</a>
</g>
</g>
<!-- Node18&#45;&gt;Node19 -->
<g id="edge19" class="edge">
<title>Node18&#45;&gt;Node19</title>
<path fill="none" stroke="#191970" d="M601.0191,-578.8057C617.2623,-578.5632 634.2509,-578.3097 650.1888,-578.0718"/>
<polygon fill="#191970" stroke="#191970" points="600.9645,-575.306 591.0179,-578.955 601.069,-582.3052 600.9645,-575.306"/>
</g>
<!-- Node25 -->
<g id="node26" class="node">
<title>Node25</title>
<g id="a_node26"><a xlink:href="class_ogre_1_1_cocoa_window.html" target="_top" xlink:title="Ogre::CocoaWindow">
<polygon fill="none" stroke="#000000" points="467.5,-380.5 467.5,-399.5 574.5,-399.5 574.5,-380.5 467.5,-380.5"/>
<text text-anchor="middle" x="521" y="-387.5" font-family="Helvetica,sans-Serif" font-size="10.00" fill="#000000">Ogre::CocoaWindow</text>
</a>
</g>
</g>
<!-- Node24&#45;&gt;Node25 -->
<g id="edge25" class="edge">
<title>Node24&#45;&gt;Node25</title>
<path fill="none" stroke="#191970" d="M347.8958,-238.4072C360.5699,-271.1453 390.7741,-337.0847 439,-371 447.3673,-376.8844 457.2898,-380.9714 467.2912,-383.8039"/>
<polygon fill="#191970" stroke="#191970" points="351.0399,-236.8208 344.269,-228.6718 344.4803,-239.2645 351.0399,-236.8208"/>
</g>
<!-- Node26 -->
<g id="node27" class="node">
<title>Node26</title>
<g id="a_node27"><a xlink:href="class_ogre_1_1_d3_d11_render_window_base.html" target="_top" xlink:title="Ogre::D3D11RenderWindowBase">
<polygon fill="none" stroke="#000000" points="439,-342.5 439,-361.5 603,-361.5 603,-342.5 439,-342.5"/>
<text text-anchor="middle" x="521" y="-349.5" font-family="Helvetica,sans-Serif" font-size="10.00" fill="#000000">Ogre::D3D11RenderWindowBase</text>
</a>
</g>
</g>
<!-- Node24&#45;&gt;Node26 -->
<g id="edge26" class="edge">
<title>Node24&#45;&gt;Node26</title>
<path fill="none" stroke="#191970" d="M351.6191,-237.5021C367.3184,-263.1101 399.2028,-308.9161 439,-333 445.3761,-336.8586 452.4662,-339.9339 459.7327,-342.3848"/>
<polygon fill="#191970" stroke="#191970" points="354.5377,-235.5626 346.4118,-228.7639 348.5244,-239.146 354.5377,-235.5626"/>
</g>
<!-- Node28 -->
<g id="node29" class="node">
<title>Node28</title>
<g id="a_node29"><a xlink:href="class_ogre_1_1_d3_d9_render_window.html" target="_top" xlink:title="Ogre::D3D9RenderWindow">
<polygon fill="none" stroke="#000000" points="453,-304.5 453,-323.5 589,-323.5 589,-304.5 453,-304.5"/>
<text text-anchor="middle" x="521" y="-311.5" font-family="Helvetica,sans-Serif" font-size="10.00" fill="#000000">Ogre::D3D9RenderWindow</text>
</a>
</g>
</g>
<!-- Node24&#45;&gt;Node28 -->
<g id="edge28" class="edge">
<title>Node24&#45;&gt;Node28</title>
<path fill="none" stroke="#191970" d="M357.8431,-235.8282C376.2278,-253.2333 407.2967,-279.9328 439,-295 447.0511,-298.8263 455.9211,-301.908 464.7627,-304.3826"/>
<polygon fill="#191970" stroke="#191970" points="359.9523,-232.9988 350.3319,-228.5605 355.0847,-238.0294 359.9523,-232.9988"/>
</g>
<!-- Node29 -->
<g id="node30" class="node">
<title>Node29</title>
<g id="a_node30"><a xlink:href="class_ogre_1_1_e_g_l_window.html" target="_top" xlink:title="Ogre::EGLWindow">
<polygon fill="none" stroke="#000000" points="472,-266.5 472,-285.5 570,-285.5 570,-266.5 472,-266.5"/>
<text text-anchor="middle" x="521" y="-273.5" font-family="Helvetica,sans-Serif" font-size="10.00" fill="#000000">Ogre::EGLWindow</text>
</a>
</g>
</g>
<!-- Node24&#45;&gt;Node29 -->
<g id="edge29" class="edge">
<title>Node24&#45;&gt;Node29</title>
<path fill="none" stroke="#191970" d="M372.2483,-232.4274C391.3003,-240.2836 416.2781,-250.0012 439,-257 450.4519,-260.5274 462.9807,-263.7445 474.7214,-266.4881"/>
<polygon fill="#191970" stroke="#191970" points="373.4455,-229.1344 362.8689,-228.513 370.7495,-235.5945 373.4455,-229.1344"/>
</g>
<!-- Node34 -->
<g id="node35" class="node">
<title>Node34</title>
<g id="a_node35"><a xlink:href="class_ogre_1_1_g_l_x_window.html" target="_top" xlink:title="Ogre::GLXWindow">
<polygon fill="none" stroke="#000000" points="472,-228.5 472,-247.5 570,-247.5 570,-228.5 472,-228.5"/>
<text text-anchor="middle" x="521" y="-235.5" font-family="Helvetica,sans-Serif" font-size="10.00" fill="#000000">Ogre::GLXWindow</text>
</a>
</g>
</g>
<!-- Node24&#45;&gt;Node34 -->
<g id="edge34" class="edge">
<title>Node24&#45;&gt;Node34</title>
<path fill="none" stroke="#191970" d="M406.5424,-225.9184C428.0992,-228.1938 451.6817,-230.6831 471.8096,-232.8077"/>
<polygon fill="#191970" stroke="#191970" points="406.7869,-222.4248 396.4747,-224.8557 406.052,-229.3861 406.7869,-222.4248"/>
</g>
<!-- Node35 -->
<g id="node36" class="node">
<title>Node35</title>
<g id="a_node36"><a xlink:href="class_ogre_1_1_g_t_k_window.html" target="_top" xlink:title="Ogre::GTKWindow">
<polygon fill="none" stroke="#000000" points="471.5,-190.5 471.5,-209.5 570.5,-209.5 570.5,-190.5 471.5,-190.5"/>
<text text-anchor="middle" x="521" y="-197.5" font-family="Helvetica,sans-Serif" font-size="10.00" fill="#000000">Ogre::GTKWindow</text>
</a>
</g>
</g>
<!-- Node24&#45;&gt;Node35 -->
<g id="edge35" class="edge">
<title>Node24&#45;&gt;Node35</title>
<path fill="none" stroke="#191970" d="M406.4545,-212.0909C427.8208,-209.8356 451.1855,-207.3693 471.2081,-205.2558"/>
<polygon fill="#191970" stroke="#191970" points="406.052,-208.6139 396.4747,-213.1443 406.7869,-215.5752 406.052,-208.6139"/>
</g>
<!-- Node36 -->
<g id="node37" class="node">
<title>Node36</title>
<g id="a_node37"><a xlink:href="class_ogre_1_1_metal_render_window.html" target="_top" xlink:title="Ogre::MetalRenderWindow">
<polygon fill="none" stroke="#000000" points="454,-152.5 454,-171.5 588,-171.5 588,-152.5 454,-152.5"/>
<text text-anchor="middle" x="521" y="-159.5" font-family="Helvetica,sans-Serif" font-size="10.00" fill="#000000">Ogre::MetalRenderWindow</text>
</a>
</g>
</g>
<!-- Node24&#45;&gt;Node36 -->
<g id="edge36" class="edge">
<title>Node24&#45;&gt;Node36</title>
<path fill="none" stroke="#191970" d="M372.2483,-205.5726C391.3003,-197.7164 416.2781,-187.9988 439,-181 450.4519,-177.4726 462.9807,-174.2555 474.7214,-171.5119"/>
<polygon fill="#191970" stroke="#191970" points="370.7495,-202.4055 362.8689,-209.487 373.4455,-208.8656 370.7495,-202.4055"/>
</g>
<!-- Node37 -->
<g id="node38" class="node">
<title>Node37</title>
<g id="a_node38"><a xlink:href="class_ogre_1_1_na_cl_window.html" target="_top" xlink:title="Ogre::NaClWindow">
<polygon fill="none" stroke="#000000" points="470.5,-114.5 470.5,-133.5 571.5,-133.5 571.5,-114.5 470.5,-114.5"/>
<text text-anchor="middle" x="521" y="-121.5" font-family="Helvetica,sans-Serif" font-size="10.00" fill="#000000">Ogre::NaClWindow</text>
</a>
</g>
</g>
<!-- Node24&#45;&gt;Node37 -->
<g id="edge37" class="edge">
<title>Node24&#45;&gt;Node37</title>
<path fill="none" stroke="#191970" d="M357.8431,-202.1718C376.2278,-184.7667 407.2967,-158.0672 439,-143 448.7669,-138.3582 459.739,-134.8124 470.4034,-132.1167"/>
<polygon fill="#191970" stroke="#191970" points="355.0847,-199.9706 350.3319,-209.4395 359.9523,-205.0012 355.0847,-199.9706"/>
</g>
<!-- Node38 -->
<g id="node39" class="node">
<title>Node38</title>
<g id="a_node39"><a xlink:href="class_ogre_1_1_n_u_l_l_render_window.html" target="_top" xlink:title="Ogre::NULLRenderWindow">
<polygon fill="none" stroke="#000000" points="453,-76.5 453,-95.5 589,-95.5 589,-76.5 453,-76.5"/>
<text text-anchor="middle" x="521" y="-83.5" font-family="Helvetica,sans-Serif" font-size="10.00" fill="#000000">Ogre::NULLRenderWindow</text>
</a>
</g>
</g>
<!-- Node24&#45;&gt;Node38 -->
<g id="edge38" class="edge">
<title>Node24&#45;&gt;Node38</title>
<path fill="none" stroke="#191970" d="M351.6191,-200.4979C367.3184,-174.8899 399.2028,-129.0839 439,-105 445.3761,-101.1414 452.4662,-98.0661 459.7327,-95.6152"/>
<polygon fill="#191970" stroke="#191970" points="348.5244,-198.854 346.4118,-209.2361 354.5377,-202.4374 348.5244,-198.854"/>
</g>
<!-- Node39 -->
<g id="node40" class="node">
<title>Node39</title>
<g id="a_node40"><a xlink:href="class_ogre_1_1_s_d_l_window.html" target="_top" xlink:title="Ogre::SDLWindow">
<polygon fill="none" stroke="#000000" points="472,-38.5 472,-57.5 570,-57.5 570,-38.5 472,-38.5"/>
<text text-anchor="middle" x="521" y="-45.5" font-family="Helvetica,sans-Serif" font-size="10.00" fill="#000000">Ogre::SDLWindow</text>
</a>
</g>
</g>
<!-- Node24&#45;&gt;Node39 -->
<g id="edge39" class="edge">
<title>Node24&#45;&gt;Node39</title>
<path fill="none" stroke="#191970" d="M347.8958,-199.5928C360.5699,-166.8547 390.7741,-100.9153 439,-67 448.5627,-60.275 460.1565,-55.8976 471.5781,-53.0574"/>
<polygon fill="#191970" stroke="#191970" points="344.4803,-198.7355 344.269,-209.3282 351.0399,-201.1792 344.4803,-198.7355"/>
</g>
<!-- Node40 -->
<g id="node41" class="node">
<title>Node40</title>
<g id="a_node41"><a xlink:href="class_ogre_1_1_win32_window.html" target="_top" xlink:title="Ogre::Win32Window">
<polygon fill="none" stroke="#000000" points="467.5,-.5 467.5,-19.5 574.5,-19.5 574.5,-.5 467.5,-.5"/>
<text text-anchor="middle" x="521" y="-7.5" font-family="Helvetica,sans-Serif" font-size="10.00" fill="#000000">Ogre::Win32Window</text>
</a>
</g>
</g>
<!-- Node24&#45;&gt;Node40 -->
<g id="edge40" class="edge">
<title>Node24&#45;&gt;Node40</title>
<path fill="none" stroke="#191970" d="M345.3442,-199.2113C354.9779,-160.2172 381.9414,-73.3881 439,-29 447.1892,-22.6293 457.1434,-18.3309 467.2536,-15.4453"/>
<polygon fill="#191970" stroke="#191970" points="341.8602,-198.7389 342.9856,-209.2738 348.6755,-200.3364 341.8602,-198.7389"/>
</g>
<!-- Node27 -->
<g id="node28" class="node">
<title>Node27</title>
<g id="a_node28"><a xlink:href="class_ogre_1_1_d3_d11_render_window_swap_chain_based.html" target="_top" xlink:title="Ogre::D3D11RenderWindowSwap\lChainBased">
<polygon fill="none" stroke="#000000" points="639,-343 639,-373 805,-373 805,-343 639,-343"/>
<text text-anchor="start" x="647" y="-361" font-family="Helvetica,sans-Serif" font-size="10.00" fill="#000000">Ogre::D3D11RenderWindowSwap</text>
<text text-anchor="middle" x="722" y="-350" font-family="Helvetica,sans-Serif" font-size="10.00" fill="#000000">ChainBased</text>
</a>
</g>
</g>
<!-- Node26&#45;&gt;Node27 -->
<g id="edge27" class="edge">
<title>Node26&#45;&gt;Node27</title>
<path fill="none" stroke="#191970" d="M613.0963,-354.7491C621.7045,-355.0061 630.3956,-355.2655 638.9144,-355.5198"/>
<polygon fill="#191970" stroke="#191970" points="613.1443,-351.2491 603.0443,-354.4491 612.9354,-358.246 613.1443,-351.2491"/>
</g>
<!-- Node30 -->
<g id="node31" class="node">
<title>Node30</title>
<g id="a_node31"><a xlink:href="class_ogre_1_1_android_e_g_l_window.html" target="_top" xlink:title="Ogre::AndroidEGLWindow">
<polygon fill="none" stroke="#000000" points="656.5,-304.5 656.5,-323.5 787.5,-323.5 787.5,-304.5 656.5,-304.5"/>
<text text-anchor="middle" x="722" y="-311.5" font-family="Helvetica,sans-Serif" font-size="10.00" fill="#000000">Ogre::AndroidEGLWindow</text>
</a>
</g>
</g>
<!-- Node29&#45;&gt;Node30 -->
<g id="edge30" class="edge">
<title>Node29&#45;&gt;Node30</title>
<path fill="none" stroke="#191970" d="M580.1881,-287.1898C609.2249,-292.6793 643.8323,-299.222 671.5903,-304.4698"/>
<polygon fill="#191970" stroke="#191970" points="580.6463,-283.7145 570.1701,-285.2958 579.3459,-290.5926 580.6463,-283.7145"/>
</g>
<!-- Node31 -->
<g id="node32" class="node">
<title>Node31</title>
<g id="a_node32"><a xlink:href="class_ogre_1_1_emscripten_e_g_l_window.html" target="_top" xlink:title="Ogre::EmscriptenEGLWindow">
<polygon fill="none" stroke="#000000" points="648,-266.5 648,-285.5 796,-285.5 796,-266.5 648,-266.5"/>
<text text-anchor="middle" x="722" y="-273.5" font-family="Helvetica,sans-Serif" font-size="10.00" fill="#000000">Ogre::EmscriptenEGLWindow</text>
</a>
</g>
</g>
<!-- Node29&#45;&gt;Node31 -->
<g id="edge31" class="edge">
<title>Node29&#45;&gt;Node31</title>
<path fill="none" stroke="#191970" d="M580.3044,-276C601.4738,-276 625.5922,-276 647.8542,-276"/>
<polygon fill="#191970" stroke="#191970" points="580.1702,-272.5001 570.1701,-276 580.1701,-279.5001 580.1702,-272.5001"/>
</g>
<!-- Node32 -->
<g id="node33" class="node">
<title>Node32</title>
<g id="a_node33"><a xlink:href="class_ogre_1_1_win32_e_g_l_window.html" target="_top" xlink:title="Ogre::Win32EGLWindow">
<polygon fill="none" stroke="#000000" points="659,-228.5 659,-247.5 785,-247.5 785,-228.5 659,-228.5"/>
<text text-anchor="middle" x="722" y="-235.5" font-family="Helvetica,sans-Serif" font-size="10.00" fill="#000000">Ogre::Win32EGLWindow</text>
</a>
</g>
</g>
<!-- Node29&#45;&gt;Node32 -->
<g id="edge32" class="edge">
<title>Node29&#45;&gt;Node32</title>
<path fill="none" stroke="#191970" d="M580.1881,-264.8102C609.2249,-259.3207 643.8323,-252.778 671.5903,-247.5302"/>
<polygon fill="#191970" stroke="#191970" points="579.3459,-261.4074 570.1701,-266.7042 580.6463,-268.2855 579.3459,-261.4074"/>
</g>
<!-- Node33 -->
<g id="node34" class="node">
<title>Node33</title>
<g id="a_node34"><a xlink:href="class_ogre_1_1_x11_e_g_l_window.html" target="_top" xlink:title="Ogre::X11EGLWindow">
<polygon fill="none" stroke="#000000" points="664,-190.5 664,-209.5 780,-209.5 780,-190.5 664,-190.5"/>
<text text-anchor="middle" x="722" y="-197.5" font-family="Helvetica,sans-Serif" font-size="10.00" fill="#000000">Ogre::X11EGLWindow</text>
</a>
</g>
</g>
<!-- Node29&#45;&gt;Node33 -->
<g id="edge33" class="edge">
<title>Node29&#45;&gt;Node33</title>
<path fill="none" stroke="#191970" d="M579.8713,-266.7979C587.9336,-264.2819 595.8777,-261.0785 603,-257 623.1887,-245.4393 618.796,-230.534 639,-219 646.5743,-214.676 655.066,-211.3359 663.6498,-208.7559"/>
<polygon fill="#191970" stroke="#191970" points="578.7206,-263.4851 570.0255,-269.5386 580.5979,-270.2287 578.7206,-263.4851"/>
</g>
</g>
</svg>
