<?xml version="1.0" encoding="UTF-8" standalone="no"?>
<!DOCTYPE svg PUBLIC "-//W3C//DTD SVG 1.1//EN"
 "http://www.w3.org/Graphics/SVG/1.1/DTD/svg11.dtd">
<!-- Generated by graphviz version 2.38.0 (20140413.2041)
 -->
<!-- Title: Ogre::GLES2FBOMultiRenderTarget Pages: 1 -->
<svg width="218pt" height="207pt"
 viewBox="0.00 0.00 217.50 207.00" xmlns="http://www.w3.org/2000/svg" xmlns:xlink="http://www.w3.org/1999/xlink">
<g id="graph0" class="graph" transform="scale(1 1) rotate(0) translate(4 203)">
<title>Ogre::GLES2FBOMultiRenderTarget</title>
<!-- Node1 -->
<g id="node1" class="node"><title>Node1</title>
<polygon fill="#bfbfbf" stroke="black" points="35,-0.5 35,-30.5 183,-30.5 183,-0.5 35,-0.5"/>
<text text-anchor="start" x="43" y="-18.5" font-family="Helvetica,sans-Serif" font-size="10.00">Ogre::GLES2FBOMultiRender</text>
<text text-anchor="middle" x="109" y="-7.5" font-family="Helvetica,sans-Serif" font-size="10.00">Target</text>
</g>
<!-- Node2 -->
<g id="node2" class="node"><title>Node2</title>
<g id="a_node2"><a xlink:href="class_ogre_1_1_multi_render_target.html" target="_top" xlink:title="This class represents a render target that renders to multiple RenderTextures at once. ">
<polygon fill="none" stroke="black" points="47,-67.5 47,-86.5 171,-86.5 171,-67.5 47,-67.5"/>
<text text-anchor="middle" x="109" y="-74.5" font-family="Helvetica,sans-Serif" font-size="10.00">Ogre::MultiRenderTarget</text>
</a>
</g>
</g>
<!-- Node2&#45;&gt;Node1 -->
<g id="edge1" class="edge"><title>Node2&#45;&gt;Node1</title>
<path fill="none" stroke="midnightblue" d="M109,-57.2349C109,-48.5864 109,-38.4969 109,-30.523"/>
<polygon fill="midnightblue" stroke="midnightblue" points="105.5,-57.4751 109,-67.4751 112.5,-57.4751 105.5,-57.4751"/>
</g>
<!-- Node3 -->
<g id="node3" class="node"><title>Node3</title>
<g id="a_node3"><a xlink:href="class_ogre_1_1_render_target.html" target="_top" xlink:title="A &#39;canvas&#39; which can receive the results of a rendering operation. ">
<polygon fill="none" stroke="black" points="57.5,-123.5 57.5,-142.5 160.5,-142.5 160.5,-123.5 57.5,-123.5"/>
<text text-anchor="middle" x="109" y="-130.5" font-family="Helvetica,sans-Serif" font-size="10.00">Ogre::RenderTarget</text>
</a>
</g>
</g>
<!-- Node3&#45;&gt;Node2 -->
<g id="edge2" class="edge"><title>Node3&#45;&gt;Node2</title>
<path fill="none" stroke="midnightblue" d="M109,-112.805C109,-103.91 109,-93.7798 109,-86.7511"/>
<polygon fill="midnightblue" stroke="midnightblue" points="105.5,-113.083 109,-123.083 112.5,-113.083 105.5,-113.083"/>
</g>
<!-- Node4 -->
<g id="node4" class="node"><title>Node4</title>
<g id="a_node4"><a xlink:href="struct_ogre_1_1_gpu_resource.html" target="_top" xlink:title="Ogre::GpuResource">
<polygon fill="none" stroke="black" points="0,-179.5 0,-198.5 104,-198.5 104,-179.5 0,-179.5"/>
<text text-anchor="middle" x="52" y="-186.5" font-family="Helvetica,sans-Serif" font-size="10.00">Ogre::GpuResource</text>
</a>
</g>
</g>
<!-- Node4&#45;&gt;Node3 -->
<g id="edge3" class="edge"><title>Node4&#45;&gt;Node3</title>
<path fill="none" stroke="midnightblue" d="M68.6215,-172.253C78.734,-162.673 91.2766,-150.791 99.6753,-142.834"/>
<polygon fill="midnightblue" stroke="midnightblue" points="66.0105,-169.906 61.158,-179.324 70.8247,-174.987 66.0105,-169.906"/>
</g>
<!-- Node5 -->
<g id="node5" class="node"><title>Node5</title>
<g id="a_node5"><a xlink:href="class_ogre_1_1_allocated_object.html" target="_top" xlink:title="Superclass for all objects that wish to use custom memory allocators when their new / delete operator...">
<polygon fill="none" stroke="black" points="122.5,-179.5 122.5,-198.5 209.5,-198.5 209.5,-179.5 122.5,-179.5"/>
<text text-anchor="middle" x="166" y="-186.5" font-family="Helvetica,sans-Serif" font-size="10.00">RenderSysAlloc</text>
</a>
</g>
</g>
<!-- Node5&#45;&gt;Node3 -->
<g id="edge4" class="edge"><title>Node5&#45;&gt;Node3</title>
<path fill="none" stroke="midnightblue" d="M149.379,-172.253C139.266,-162.673 126.723,-150.791 118.325,-142.834"/>
<polygon fill="midnightblue" stroke="midnightblue" points="147.175,-174.987 156.842,-179.324 151.99,-169.906 147.175,-174.987"/>
</g>
</g>
</svg>
