<?xml version="1.0" encoding="UTF-8" standalone="no"?>
<!DOCTYPE svg PUBLIC "-//W3C//DTD SVG 1.1//EN"
 "http://www.w3.org/Graphics/SVG/1.1/DTD/svg11.dtd">
<!-- Generated by graphviz version 2.38.0 (20140413.2041)
 -->
<!-- Title: Ogre::AbstractNode Pages: 1 -->
<svg width="454pt" height="180pt"
 viewBox="0.00 0.00 454.00 180.00" xmlns="http://www.w3.org/2000/svg" xmlns:xlink="http://www.w3.org/1999/xlink">
<g id="graph0" class="graph" transform="scale(1 1) rotate(0) translate(4 176)">
<title>Ogre::AbstractNode</title>
<!-- Node1 -->
<g id="node1" class="node"><title>Node1</title>
<polygon fill="#bfbfbf" stroke="black" points="134,-76.5 134,-95.5 238,-95.5 238,-76.5 134,-76.5"/>
<text text-anchor="middle" x="186" y="-83.5" font-family="Helvetica,sans-Serif" font-size="10.00">Ogre::AbstractNode</text>
</g>
<!-- Node3 -->
<g id="node3" class="node"><title>Node3</title>
<g id="a_node3"><a xlink:href="class_ogre_1_1_atom_abstract_node.html" target="_top" xlink:title="This is an abstract node which cannot be broken down further. ">
<polygon fill="none" stroke="black" points="296.5,-152.5 296.5,-171.5 423.5,-171.5 423.5,-152.5 296.5,-152.5"/>
<text text-anchor="middle" x="360" y="-159.5" font-family="Helvetica,sans-Serif" font-size="10.00">Ogre::AtomAbstractNode</text>
</a>
</g>
</g>
<!-- Node1&#45;&gt;Node3 -->
<g id="edge2" class="edge"><title>Node1&#45;&gt;Node3</title>
<path fill="none" stroke="midnightblue" d="M206.606,-101.832C223.513,-114.726 249.073,-132.462 274,-143 283.053,-146.827 292.989,-149.936 302.775,-152.444"/>
<polygon fill="midnightblue" stroke="midnightblue" points="208.641,-98.9812 198.602,-95.5948 204.338,-104.503 208.641,-98.9812"/>
</g>
<!-- Node4 -->
<g id="node4" class="node"><title>Node4</title>
<g id="a_node4"><a xlink:href="class_ogre_1_1_import_abstract_node.html" target="_top" xlink:title="This abstract node represents an import statement. ">
<polygon fill="none" stroke="black" points="294.5,-114.5 294.5,-133.5 425.5,-133.5 425.5,-114.5 294.5,-114.5"/>
<text text-anchor="middle" x="360" y="-121.5" font-family="Helvetica,sans-Serif" font-size="10.00">Ogre::ImportAbstractNode</text>
</a>
</g>
</g>
<!-- Node1&#45;&gt;Node4 -->
<g id="edge3" class="edge"><title>Node1&#45;&gt;Node4</title>
<path fill="none" stroke="midnightblue" d="M240.196,-97.7526C264.517,-103.126 292.955,-109.409 315.909,-114.48"/>
<polygon fill="midnightblue" stroke="midnightblue" points="240.922,-94.3288 230.403,-95.589 239.412,-101.164 240.922,-94.3288"/>
</g>
<!-- Node5 -->
<g id="node5" class="node"><title>Node5</title>
<g id="a_node5"><a xlink:href="class_ogre_1_1_object_abstract_node.html" target="_top" xlink:title="This specific abstract node represents a script object. ">
<polygon fill="none" stroke="black" points="294,-76.5 294,-95.5 426,-95.5 426,-76.5 294,-76.5"/>
<text text-anchor="middle" x="360" y="-83.5" font-family="Helvetica,sans-Serif" font-size="10.00">Ogre::ObjectAbstractNode</text>
</a>
</g>
</g>
<!-- Node1&#45;&gt;Node5 -->
<g id="edge4" class="edge"><title>Node1&#45;&gt;Node5</title>
<path fill="none" stroke="midnightblue" d="M248.22,-86C263.064,-86 278.985,-86 293.996,-86"/>
<polygon fill="midnightblue" stroke="midnightblue" points="248.14,-82.5001 238.14,-86 248.14,-89.5001 248.14,-82.5001"/>
</g>
<!-- Node6 -->
<g id="node6" class="node"><title>Node6</title>
<g id="a_node6"><a xlink:href="class_ogre_1_1_property_abstract_node.html" target="_top" xlink:title="This abstract node represents a script property. ">
<polygon fill="none" stroke="black" points="290,-38.5 290,-57.5 430,-57.5 430,-38.5 290,-38.5"/>
<text text-anchor="middle" x="360" y="-45.5" font-family="Helvetica,sans-Serif" font-size="10.00">Ogre::PropertyAbstractNode</text>
</a>
</g>
</g>
<!-- Node1&#45;&gt;Node6 -->
<g id="edge5" class="edge"><title>Node1&#45;&gt;Node6</title>
<path fill="none" stroke="midnightblue" d="M240.196,-74.2474C264.517,-68.8742 292.955,-62.5914 315.909,-57.5201"/>
<polygon fill="midnightblue" stroke="midnightblue" points="239.412,-70.836 230.403,-76.411 240.922,-77.6712 239.412,-70.836"/>
</g>
<!-- Node7 -->
<g id="node7" class="node"><title>Node7</title>
<g id="a_node7"><a xlink:href="class_ogre_1_1_variable_access_abstract_node.html" target="_top" xlink:title="This abstract node represents a variable assignment. ">
<polygon fill="none" stroke="black" points="274,-0.5 274,-19.5 446,-19.5 446,-0.5 274,-0.5"/>
<text text-anchor="middle" x="360" y="-7.5" font-family="Helvetica,sans-Serif" font-size="10.00">Ogre::VariableAccessAbstractNode</text>
</a>
</g>
</g>
<!-- Node1&#45;&gt;Node7 -->
<g id="edge6" class="edge"><title>Node1&#45;&gt;Node7</title>
<path fill="none" stroke="midnightblue" d="M206.606,-70.1677C223.513,-57.2738 249.073,-39.5379 274,-29 283.053,-25.1729 292.989,-22.0643 302.775,-19.5562"/>
<polygon fill="midnightblue" stroke="midnightblue" points="204.338,-67.4975 198.602,-76.4052 208.641,-73.0188 204.338,-67.4975"/>
</g>
<!-- Node2 -->
<g id="node2" class="node"><title>Node2</title>
<g id="a_node2"><a xlink:href="class_ogre_1_1_allocated_object.html" target="_top" xlink:title="Superclass for all objects that wish to use custom memory allocators when their new / delete operator...">
<polygon fill="none" stroke="black" points="0,-76.5 0,-95.5 98,-95.5 98,-76.5 0,-76.5"/>
<text text-anchor="middle" x="49" y="-83.5" font-family="Helvetica,sans-Serif" font-size="10.00">AbstractNodeAlloc</text>
</a>
</g>
</g>
<!-- Node2&#45;&gt;Node1 -->
<g id="edge1" class="edge"><title>Node2&#45;&gt;Node1</title>
<path fill="none" stroke="midnightblue" d="M108.496,-86C116.915,-86 125.525,-86 133.788,-86"/>
<polygon fill="midnightblue" stroke="midnightblue" points="108.357,-82.5001 98.3568,-86 108.357,-89.5001 108.357,-82.5001"/>
</g>
</g>
</svg>
