<?xml version="1.0" encoding="UTF-8" standalone="no"?>
<!DOCTYPE svg PUBLIC "-//W3C//DTD SVG 1.1//EN"
 "http://www.w3.org/Graphics/SVG/1.1/DTD/svg11.dtd">
<!-- Generated by graphviz version 2.40.1 (20161225.0304)
 -->
<!-- Title: Ogre::HighLevelGpuProgramFactory Pages: 1 -->
<svg width="462pt" height="268pt"
 viewBox="0.00 0.00 462.00 267.50" xmlns="http://www.w3.org/2000/svg" xmlns:xlink="http://www.w3.org/1999/xlink">
<g id="graph0" class="graph" transform="scale(1 1) rotate(0) translate(4 263.5)">
<title>Ogre::HighLevelGpuProgramFactory</title>
<!-- Node0 -->
<g id="node1" class="node">
<title>Node0</title>
<polygon fill="#bfbfbf" stroke="#000000" points="107,-120.5 107,-150.5 249,-150.5 249,-120.5 107,-120.5"/>
<text text-anchor="start" x="115" y="-138.5" font-family="Helvetica,sans-Serif" font-size="10.00" fill="#000000">Ogre::HighLevelGpuProgram</text>
<text text-anchor="middle" x="178" y="-127.5" font-family="Helvetica,sans-Serif" font-size="10.00" fill="#000000">Factory</text>
</g>
<!-- Node2 -->
<g id="node3" class="node">
<title>Node2</title>
<g id="a_node3"><a xlink:href="class_ogre_1_1_d3_d11_h_l_s_l_program_factory.html" target="_top" xlink:title="Factory class for D3D11 HLSL programs. ">
<polygon fill="none" stroke="#000000" points="285,-240 285,-259 454,-259 454,-240 285,-240"/>
<text text-anchor="middle" x="369.5" y="-247" font-family="Helvetica,sans-Serif" font-size="10.00" fill="#000000">Ogre::D3D11HLSLProgramFactory</text>
</a>
</g>
</g>
<!-- Node0&#45;&gt;Node2 -->
<g id="edge2" class="edge">
<title>Node0&#45;&gt;Node2</title>
<path fill="none" stroke="#191970" d="M197.1477,-158.1482C216.9128,-180.0293 249.7564,-212.4368 285,-230.5 292.6273,-234.4092 301.0473,-237.5195 309.5287,-239.9929"/>
<polygon fill="#191970" stroke="#191970" points="199.725,-155.7792 190.4773,-150.609 194.4824,-160.4177 199.725,-155.7792"/>
</g>
<!-- Node3 -->
<g id="node4" class="node">
<title>Node3</title>
<g id="a_node4"><a xlink:href="class_ogre_1_1_d3_d9_h_l_s_l_program_factory.html" target="_top" xlink:title="Factory class for D3D9 HLSL programs. ">
<polygon fill="none" stroke="#000000" points="287.5,-202 287.5,-221 451.5,-221 451.5,-202 287.5,-202"/>
<text text-anchor="middle" x="369.5" y="-209" font-family="Helvetica,sans-Serif" font-size="10.00" fill="#000000">Ogre::D3D9HLSLProgramFactory</text>
</a>
</g>
</g>
<!-- Node0&#45;&gt;Node3 -->
<g id="edge3" class="edge">
<title>Node0&#45;&gt;Node3</title>
<path fill="none" stroke="#191970" d="M210.4687,-155.7495C231.1483,-167.8905 258.8722,-182.8047 285,-192.5 295.009,-196.2141 305.9658,-199.3294 316.5748,-201.8926"/>
<polygon fill="#191970" stroke="#191970" points="212.1603,-152.6832 201.7788,-150.5676 208.5751,-158.6954 212.1603,-152.6832"/>
</g>
<!-- Node4 -->
<g id="node5" class="node">
<title>Node4</title>
<g id="a_node5"><a xlink:href="class_ogre_1_1_g_l_s_l_e_s_cg_program_factory.html" target="_top" xlink:title="Factory class for GLSL ES programs. ">
<polygon fill="none" stroke="#000000" points="287.5,-164 287.5,-183 451.5,-183 451.5,-164 287.5,-164"/>
<text text-anchor="middle" x="369.5" y="-171" font-family="Helvetica,sans-Serif" font-size="10.00" fill="#000000">Ogre::GLSLESCgProgramFactory</text>
</a>
</g>
</g>
<!-- Node0&#45;&gt;Node4 -->
<g id="edge4" class="edge">
<title>Node0&#45;&gt;Node4</title>
<path fill="none" stroke="#191970" d="M259.055,-151.584C280.3373,-155.8071 302.6118,-160.2271 321.537,-163.9825"/>
<polygon fill="#191970" stroke="#191970" points="259.5254,-148.1092 249.0354,-149.5958 258.1629,-154.9753 259.5254,-148.1092"/>
</g>
<!-- Node5 -->
<g id="node6" class="node">
<title>Node5</title>
<g id="a_node6"><a xlink:href="class_ogre_1_1_g_l_s_l_e_s_program_factory.html" target="_top" xlink:title="Factory class for GLSL ES programs. ">
<polygon fill="none" stroke="#000000" points="293.5,-126 293.5,-145 445.5,-145 445.5,-126 293.5,-126"/>
<text text-anchor="middle" x="369.5" y="-133" font-family="Helvetica,sans-Serif" font-size="10.00" fill="#000000">Ogre::GLSLESProgramFactory</text>
</a>
</g>
</g>
<!-- Node0&#45;&gt;Node5 -->
<g id="edge5" class="edge">
<title>Node0&#45;&gt;Node5</title>
<path fill="none" stroke="#191970" d="M259.3287,-135.5C270.6414,-135.5 282.229,-135.5 293.4402,-135.5"/>
<polygon fill="#191970" stroke="#191970" points="259.0354,-132.0001 249.0354,-135.5 259.0354,-139.0001 259.0354,-132.0001"/>
</g>
<!-- Node6 -->
<g id="node7" class="node">
<title>Node6</title>
<g id="a_node7"><a xlink:href="class_ogre_1_1_g_l_s_l_shader_factory.html" target="_top" xlink:title="Factory class for GLSL shaders. ">
<polygon fill="none" stroke="#000000" points="303.5,-88 303.5,-107 435.5,-107 435.5,-88 303.5,-88"/>
<text text-anchor="middle" x="369.5" y="-95" font-family="Helvetica,sans-Serif" font-size="10.00" fill="#000000">Ogre::GLSLShaderFactory</text>
</a>
</g>
</g>
<!-- Node0&#45;&gt;Node6 -->
<g id="edge6" class="edge">
<title>Node0&#45;&gt;Node6</title>
<path fill="none" stroke="#191970" d="M259.055,-119.416C280.3373,-115.1929 302.6118,-110.7729 321.537,-107.0175"/>
<polygon fill="#191970" stroke="#191970" points="258.1629,-116.0247 249.0354,-121.4042 259.5254,-122.8908 258.1629,-116.0247"/>
</g>
<!-- Node7 -->
<g id="node8" class="node">
<title>Node7</title>
<g id="a_node8"><a xlink:href="class_ogre_1_1_metal_program_factory.html" target="_top" xlink:title="Factory class for Metal programs. ">
<polygon fill="none" stroke="#000000" points="301,-50 301,-69 438,-69 438,-50 301,-50"/>
<text text-anchor="middle" x="369.5" y="-57" font-family="Helvetica,sans-Serif" font-size="10.00" fill="#000000">Ogre::MetalProgramFactory</text>
</a>
</g>
</g>
<!-- Node0&#45;&gt;Node7 -->
<g id="edge7" class="edge">
<title>Node0&#45;&gt;Node7</title>
<path fill="none" stroke="#191970" d="M210.4687,-115.2505C231.1483,-103.1095 258.8722,-88.1953 285,-78.5 295.009,-74.7859 305.9658,-71.6706 316.5748,-69.1074"/>
<polygon fill="#191970" stroke="#191970" points="208.5751,-112.3046 201.7788,-120.4324 212.1603,-118.3168 208.5751,-112.3046"/>
</g>
<!-- Node8 -->
<g id="node9" class="node">
<title>Node8</title>
<g id="a_node9"><a xlink:href="class_ogre_1_1_unified_high_level_gpu_program_factory.html" target="_top" xlink:title="Factory class for Unified programs. ">
<polygon fill="none" stroke="#000000" points="301.5,-.5 301.5,-30.5 437.5,-30.5 437.5,-.5 301.5,-.5"/>
<text text-anchor="start" x="309.5" y="-18.5" font-family="Helvetica,sans-Serif" font-size="10.00" fill="#000000">Ogre::UnifiedHighLevelGpu</text>
<text text-anchor="middle" x="369.5" y="-7.5" font-family="Helvetica,sans-Serif" font-size="10.00" fill="#000000">ProgramFactory</text>
</a>
</g>
</g>
<!-- Node0&#45;&gt;Node8 -->
<g id="edge8" class="edge">
<title>Node0&#45;&gt;Node8</title>
<path fill="none" stroke="#191970" d="M197.7482,-112.9863C217.7491,-91.4884 250.5696,-59.6171 285,-40.5 291.8214,-36.7125 299.2785,-33.4419 306.8474,-30.6325"/>
<polygon fill="#191970" stroke="#191970" points="195.1411,-110.6509 190.9802,-120.3944 200.3091,-115.3723 195.1411,-110.6509"/>
</g>
<!-- Node1 -->
<g id="node2" class="node">
<title>Node1</title>
<g id="a_node2"><a xlink:href="class_ogre_1_1_allocated_object.html" target="_top" xlink:title="Superclass for all objects that wish to use custom memory allocators when their new / delete operator...">
<polygon fill="none" stroke="#000000" points="0,-126 0,-145 71,-145 71,-126 0,-126"/>
<text text-anchor="middle" x="35.5" y="-133" font-family="Helvetica,sans-Serif" font-size="10.00" fill="#000000">FactoryAlloc</text>
</a>
</g>
</g>
<!-- Node1&#45;&gt;Node0 -->
<g id="edge1" class="edge">
<title>Node1&#45;&gt;Node0</title>
<path fill="none" stroke="#191970" d="M81.1388,-135.5C89.3216,-135.5 98.0241,-135.5 106.7272,-135.5"/>
<polygon fill="#191970" stroke="#191970" points="81.0912,-132.0001 71.0912,-135.5 81.0911,-139.0001 81.0912,-132.0001"/>
</g>
</g>
</svg>
