<?xml version="1.0" encoding="UTF-8" standalone="no"?>
<!DOCTYPE svg PUBLIC "-//W3C//DTD SVG 1.1//EN"
 "http://www.w3.org/Graphics/SVG/1.1/DTD/svg11.dtd">
<!-- Generated by graphviz version 2.38.0 (20140413.2041)
 -->
<!-- Title: Ogre::v1::DefaultHardwareIndexBuffer Pages: 1 -->
<svg width="160pt" height="207pt"
 viewBox="0.00 0.00 160.00 207.00" xmlns="http://www.w3.org/2000/svg" xmlns:xlink="http://www.w3.org/1999/xlink">
<g id="graph0" class="graph" transform="scale(1 1) rotate(0) translate(4 203)">
<title>Ogre::v1::DefaultHardwareIndexBuffer</title>
<!-- Node1 -->
<g id="node1" class="node"><title>Node1</title>
<polygon fill="#bfbfbf" stroke="black" points="9,-0.5 9,-30.5 143,-30.5 143,-0.5 9,-0.5"/>
<text text-anchor="start" x="17" y="-18.5" font-family="Helvetica,sans-Serif" font-size="10.00">Ogre::v1::DefaultHardware</text>
<text text-anchor="middle" x="76" y="-7.5" font-family="Helvetica,sans-Serif" font-size="10.00">IndexBuffer</text>
</g>
<!-- Node2 -->
<g id="node2" class="node"><title>Node2</title>
<g id="a_node2"><a xlink:href="class_ogre_1_1v1_1_1_hardware_index_buffer.html" target="_top" xlink:title="Specialisation of HardwareBuffer for vertex index buffers, still abstract. ">
<polygon fill="none" stroke="black" points="0,-67.5 0,-86.5 152,-86.5 152,-67.5 0,-67.5"/>
<text text-anchor="middle" x="76" y="-74.5" font-family="Helvetica,sans-Serif" font-size="10.00">Ogre::v1::HardwareIndexBuffer</text>
</a>
</g>
</g>
<!-- Node2&#45;&gt;Node1 -->
<g id="edge1" class="edge"><title>Node2&#45;&gt;Node1</title>
<path fill="none" stroke="midnightblue" d="M76,-57.2349C76,-48.5864 76,-38.4969 76,-30.523"/>
<polygon fill="midnightblue" stroke="midnightblue" points="72.5001,-57.4751 76,-67.4751 79.5001,-57.4751 72.5001,-57.4751"/>
</g>
<!-- Node3 -->
<g id="node3" class="node"><title>Node3</title>
<g id="a_node3"><a xlink:href="class_ogre_1_1v1_1_1_hardware_buffer.html" target="_top" xlink:title="Abstract class defining common features of hardware buffers. ">
<polygon fill="none" stroke="black" points="12,-123.5 12,-142.5 140,-142.5 140,-123.5 12,-123.5"/>
<text text-anchor="middle" x="76" y="-130.5" font-family="Helvetica,sans-Serif" font-size="10.00">Ogre::v1::HardwareBuffer</text>
</a>
</g>
</g>
<!-- Node3&#45;&gt;Node2 -->
<g id="edge2" class="edge"><title>Node3&#45;&gt;Node2</title>
<path fill="none" stroke="midnightblue" d="M76,-112.805C76,-103.91 76,-93.7798 76,-86.7511"/>
<polygon fill="midnightblue" stroke="midnightblue" points="72.5001,-113.083 76,-123.083 79.5001,-113.083 72.5001,-113.083"/>
</g>
<!-- Node4 -->
<g id="node4" class="node"><title>Node4</title>
<g id="a_node4"><a xlink:href="class_ogre_1_1_allocated_object.html" target="_top" xlink:title="Superclass for all objects that wish to use custom memory allocators when their new / delete operator...">
<polygon fill="none" stroke="black" points="43.5,-179.5 43.5,-198.5 108.5,-198.5 108.5,-179.5 43.5,-179.5"/>
<text text-anchor="middle" x="76" y="-186.5" font-family="Helvetica,sans-Serif" font-size="10.00">BufferAlloc</text>
</a>
</g>
</g>
<!-- Node4&#45;&gt;Node3 -->
<g id="edge3" class="edge"><title>Node4&#45;&gt;Node3</title>
<path fill="none" stroke="midnightblue" d="M76,-168.805C76,-159.91 76,-149.78 76,-142.751"/>
<polygon fill="midnightblue" stroke="midnightblue" points="72.5001,-169.083 76,-179.083 79.5001,-169.083 72.5001,-169.083"/>
</g>
</g>
</svg>
