<?xml version="1.0" encoding="UTF-8" standalone="no"?>
<!DOCTYPE svg PUBLIC "-//W3C//DTD SVG 1.1//EN"
 "http://www.w3.org/Graphics/SVG/1.1/DTD/svg11.dtd">
<!-- Generated by graphviz version 2.40.1 (20161225.0304)
 -->
<!-- Title: Ogre::v1::MeshSerializerImpl_v1_3 Pages: 1 -->
<svg width="133pt" height="441pt"
 viewBox="0.00 0.00 133.00 441.00" xmlns="http://www.w3.org/2000/svg" xmlns:xlink="http://www.w3.org/1999/xlink">
<g id="graph0" class="graph" transform="scale(1 1) rotate(0) translate(4 437)">
<title>Ogre::v1::MeshSerializerImpl_v1_3</title>
<!-- Node0 -->
<g id="node1" class="node">
<title>Node0</title>
<polygon fill="#bfbfbf" stroke="#000000" points="0,-134.5 0,-164.5 125,-164.5 125,-134.5 0,-134.5"/>
<text text-anchor="start" x="8" y="-152.5" font-family="Helvetica,sans-Serif" font-size="10.00" fill="#000000">Ogre::v1::MeshSerializer</text>
<text text-anchor="middle" x="62.5" y="-141.5" font-family="Helvetica,sans-Serif" font-size="10.00" fill="#000000">Impl_v1_3</text>
</g>
<!-- Node8 -->
<g id="node6" class="node">
<title>Node8</title>
<g id="a_node6"><a xlink:href="class_ogre_1_1v1_1_1_mesh_serializer_impl__v1__2.html" target="_top" xlink:title="Class for providing backwards&#45;compatibility for loading version 1.2 of the .mesh format. ">
<polygon fill="none" stroke="#000000" points="0,-67.5 0,-97.5 125,-97.5 125,-67.5 0,-67.5"/>
<text text-anchor="start" x="8" y="-85.5" font-family="Helvetica,sans-Serif" font-size="10.00" fill="#000000">Ogre::v1::MeshSerializer</text>
<text text-anchor="middle" x="62.5" y="-74.5" font-family="Helvetica,sans-Serif" font-size="10.00" fill="#000000">Impl_v1_2</text>
</a>
</g>
</g>
<!-- Node0&#45;&gt;Node8 -->
<g id="edge5" class="edge">
<title>Node0&#45;&gt;Node8</title>
<path fill="none" stroke="#191970" d="M62.5,-124.0249C62.5,-115.128 62.5,-105.4287 62.5,-97.6432"/>
<polygon fill="#191970" stroke="#191970" points="59.0001,-124.2966 62.5,-134.2967 66.0001,-124.2967 59.0001,-124.2966"/>
</g>
<!-- Node1 -->
<g id="node2" class="node">
<title>Node1</title>
<g id="a_node2"><a xlink:href="class_ogre_1_1v1_1_1_mesh_serializer_impl__v1__4.html" target="_top" xlink:title="Class for providing backwards&#45;compatibility for loading version 1.4 of the .mesh format. ">
<polygon fill="none" stroke="#000000" points="0,-201.5 0,-231.5 125,-231.5 125,-201.5 0,-201.5"/>
<text text-anchor="start" x="8" y="-219.5" font-family="Helvetica,sans-Serif" font-size="10.00" fill="#000000">Ogre::v1::MeshSerializer</text>
<text text-anchor="middle" x="62.5" y="-208.5" font-family="Helvetica,sans-Serif" font-size="10.00" fill="#000000">Impl_v1_4</text>
</a>
</g>
</g>
<!-- Node1&#45;&gt;Node0 -->
<g id="edge1" class="edge">
<title>Node1&#45;&gt;Node0</title>
<path fill="none" stroke="#191970" d="M62.5,-191.0249C62.5,-182.128 62.5,-172.4287 62.5,-164.6432"/>
<polygon fill="#191970" stroke="#191970" points="59.0001,-191.2966 62.5,-201.2967 66.0001,-191.2967 59.0001,-191.2966"/>
</g>
<!-- Node2 -->
<g id="node3" class="node">
<title>Node2</title>
<g id="a_node3"><a xlink:href="class_ogre_1_1v1_1_1_mesh_serializer_impl__v1__41.html" target="_top" xlink:title="Class for providing backwards&#45;compatibility for loading version 1.41 of the .mesh format...">
<polygon fill="none" stroke="#000000" points="0,-268.5 0,-298.5 125,-298.5 125,-268.5 0,-268.5"/>
<text text-anchor="start" x="8" y="-286.5" font-family="Helvetica,sans-Serif" font-size="10.00" fill="#000000">Ogre::v1::MeshSerializer</text>
<text text-anchor="middle" x="62.5" y="-275.5" font-family="Helvetica,sans-Serif" font-size="10.00" fill="#000000">Impl_v1_41</text>
</a>
</g>
</g>
<!-- Node2&#45;&gt;Node1 -->
<g id="edge2" class="edge">
<title>Node2&#45;&gt;Node1</title>
<path fill="none" stroke="#191970" d="M62.5,-258.0249C62.5,-249.128 62.5,-239.4287 62.5,-231.6432"/>
<polygon fill="#191970" stroke="#191970" points="59.0001,-258.2966 62.5,-268.2967 66.0001,-258.2967 59.0001,-258.2966"/>
</g>
<!-- Node3 -->
<g id="node4" class="node">
<title>Node3</title>
<g id="a_node4"><a xlink:href="class_ogre_1_1v1_1_1_mesh_serializer_impl__v1__8.html" target="_top" xlink:title="Class for providing backwards&#45;compatibility for loading version 1.8 of the .mesh format. ">
<polygon fill="none" stroke="#000000" points="0,-335.5 0,-365.5 125,-365.5 125,-335.5 0,-335.5"/>
<text text-anchor="start" x="8" y="-353.5" font-family="Helvetica,sans-Serif" font-size="10.00" fill="#000000">Ogre::v1::MeshSerializer</text>
<text text-anchor="middle" x="62.5" y="-342.5" font-family="Helvetica,sans-Serif" font-size="10.00" fill="#000000">Impl_v1_8</text>
</a>
</g>
</g>
<!-- Node3&#45;&gt;Node2 -->
<g id="edge3" class="edge">
<title>Node3&#45;&gt;Node2</title>
<path fill="none" stroke="#191970" d="M62.5,-325.0249C62.5,-316.128 62.5,-306.4287 62.5,-298.6432"/>
<polygon fill="#191970" stroke="#191970" points="59.0001,-325.2966 62.5,-335.2967 66.0001,-325.2967 59.0001,-325.2966"/>
</g>
<!-- Node4 -->
<g id="node5" class="node">
<title>Node4</title>
<g id="a_node5"><a xlink:href="class_ogre_1_1v1_1_1_mesh_serializer_impl__v1__10.html" target="_top" xlink:title="Class for providing backwards&#45;compatibility for loading version 1.10 of the .mesh format...">
<polygon fill="none" stroke="#ff0000" points="0,-402.5 0,-432.5 125,-432.5 125,-402.5 0,-402.5"/>
<text text-anchor="start" x="8" y="-420.5" font-family="Helvetica,sans-Serif" font-size="10.00" fill="#000000">Ogre::v1::MeshSerializer</text>
<text text-anchor="middle" x="62.5" y="-409.5" font-family="Helvetica,sans-Serif" font-size="10.00" fill="#000000">Impl_v1_10</text>
</a>
</g>
</g>
<!-- Node4&#45;&gt;Node3 -->
<g id="edge4" class="edge">
<title>Node4&#45;&gt;Node3</title>
<path fill="none" stroke="#191970" d="M62.5,-392.0249C62.5,-383.128 62.5,-373.4287 62.5,-365.6432"/>
<polygon fill="#191970" stroke="#191970" points="59.0001,-392.2966 62.5,-402.2967 66.0001,-392.2967 59.0001,-392.2966"/>
</g>
<!-- Node9 -->
<g id="node7" class="node">
<title>Node9</title>
<g id="a_node7"><a xlink:href="class_ogre_1_1v1_1_1_mesh_serializer_impl__v1__1.html" target="_top" xlink:title="Class for providing backwards&#45;compatibility for loading version 1.1 of the .mesh format. ">
<polygon fill="none" stroke="#000000" points="0,-.5 0,-30.5 125,-30.5 125,-.5 0,-.5"/>
<text text-anchor="start" x="8" y="-18.5" font-family="Helvetica,sans-Serif" font-size="10.00" fill="#000000">Ogre::v1::MeshSerializer</text>
<text text-anchor="middle" x="62.5" y="-7.5" font-family="Helvetica,sans-Serif" font-size="10.00" fill="#000000">Impl_v1_1</text>
</a>
</g>
</g>
<!-- Node8&#45;&gt;Node9 -->
<g id="edge6" class="edge">
<title>Node8&#45;&gt;Node9</title>
<path fill="none" stroke="#191970" d="M62.5,-57.0249C62.5,-48.128 62.5,-38.4287 62.5,-30.6432"/>
<polygon fill="#191970" stroke="#191970" points="59.0001,-57.2966 62.5,-67.2967 66.0001,-57.2967 59.0001,-57.2966"/>
</g>
</g>
</svg>
