<?xml version="1.0" encoding="UTF-8" standalone="no"?>
<!DOCTYPE svg PUBLIC "-//W3C//DTD SVG 1.1//EN"
 "http://www.w3.org/Graphics/SVG/1.1/DTD/svg11.dtd">
<!-- Generated by graphviz version 2.38.0 (20140413.2041)
 -->
<!-- Title: Ogre::MovablePlane Pages: 1 -->
<svg width="313pt" height="140pt"
 viewBox="0.00 0.00 312.50 140.00" xmlns="http://www.w3.org/2000/svg" xmlns:xlink="http://www.w3.org/1999/xlink">
<g id="graph0" class="graph" transform="scale(1 1) rotate(0) translate(4 136)">
<title>Ogre::MovablePlane</title>
<!-- Node1 -->
<g id="node1" class="node"><title>Node1</title>
<polygon fill="#bfbfbf" stroke="black" points="62,-0.5 62,-19.5 167,-19.5 167,-0.5 62,-0.5"/>
<text text-anchor="middle" x="114.5" y="-7.5" font-family="Helvetica,sans-Serif" font-size="10.00">Ogre::MovablePlane</text>
</g>
<!-- Node2 -->
<g id="node2" class="node"><title>Node2</title>
<g id="a_node2"><a xlink:href="class_ogre_1_1_plane.html" target="_top" xlink:title="Defines a plane in 3D space. ">
<polygon fill="none" stroke="black" points="27.5,-56.5 27.5,-75.5 95.5,-75.5 95.5,-56.5 27.5,-56.5"/>
<text text-anchor="middle" x="61.5" y="-63.5" font-family="Helvetica,sans-Serif" font-size="10.00">Ogre::Plane</text>
</a>
</g>
</g>
<!-- Node2&#45;&gt;Node1 -->
<g id="edge1" class="edge"><title>Node2&#45;&gt;Node1</title>
<path fill="none" stroke="midnightblue" d="M77.4809,-48.7175C86.8225,-39.1997 98.2459,-27.5608 105.911,-19.7511"/>
<polygon fill="midnightblue" stroke="midnightblue" points="74.7587,-46.4945 70.2519,-56.083 79.7545,-51.3978 74.7587,-46.4945"/>
</g>
<!-- Node3 -->
<g id="node3" class="node"><title>Node3</title>
<g id="a_node3"><a xlink:href="class_ogre_1_1_movable_object.html" target="_top" xlink:title="Abstract class defining a movable object in a scene. ">
<polygon fill="none" stroke="black" points="114,-56.5 114,-75.5 223,-75.5 223,-56.5 114,-56.5"/>
<text text-anchor="middle" x="168.5" y="-63.5" font-family="Helvetica,sans-Serif" font-size="10.00">Ogre::MovableObject</text>
</a>
</g>
</g>
<!-- Node3&#45;&gt;Node1 -->
<g id="edge2" class="edge"><title>Node3&#45;&gt;Node1</title>
<path fill="none" stroke="midnightblue" d="M152.502,-49.0024C142.933,-39.4329 131.139,-27.6389 123.251,-19.7511"/>
<polygon fill="midnightblue" stroke="midnightblue" points="150.037,-51.4868 159.583,-56.083 154.987,-46.537 150.037,-51.4868"/>
</g>
<!-- Node4 -->
<g id="node4" class="node"><title>Node4</title>
<g id="a_node4"><a xlink:href="class_ogre_1_1_animable_object.html" target="_top" xlink:title="Defines an interface to classes which have one or more AnimableValue instances to expose...">
<polygon fill="none" stroke="black" points="0,-112.5 0,-131.5 113,-131.5 113,-112.5 0,-112.5"/>
<text text-anchor="middle" x="56.5" y="-119.5" font-family="Helvetica,sans-Serif" font-size="10.00">Ogre::AnimableObject</text>
</a>
</g>
</g>
<!-- Node4&#45;&gt;Node3 -->
<g id="edge3" class="edge"><title>Node4&#45;&gt;Node3</title>
<path fill="none" stroke="midnightblue" d="M83.7487,-107.862C104.516,-97.8492 132.523,-84.3458 150.55,-75.6545"/>
<polygon fill="midnightblue" stroke="midnightblue" points="81.9824,-104.828 74.4947,-112.324 85.0225,-111.134 81.9824,-104.828"/>
</g>
<!-- Node5 -->
<g id="node5" class="node"><title>Node5</title>
<g id="a_node5"><a xlink:href="class_ogre_1_1_allocated_object.html" target="_top" xlink:title="Superclass for all objects that wish to use custom memory allocators when their new / delete operator...">
<polygon fill="none" stroke="black" points="131,-112.5 131,-131.5 206,-131.5 206,-112.5 131,-112.5"/>
<text text-anchor="middle" x="168.5" y="-119.5" font-family="Helvetica,sans-Serif" font-size="10.00">MovableAlloc</text>
</a>
</g>
</g>
<!-- Node5&#45;&gt;Node3 -->
<g id="edge4" class="edge"><title>Node5&#45;&gt;Node3</title>
<path fill="none" stroke="midnightblue" d="M168.5,-101.805C168.5,-92.9102 168.5,-82.7798 168.5,-75.7511"/>
<polygon fill="midnightblue" stroke="midnightblue" points="165,-102.083 168.5,-112.083 172,-102.083 165,-102.083"/>
</g>
<!-- Node6 -->
<g id="node6" class="node"><title>Node6</title>
<g id="a_node6"><a xlink:href="class_ogre_1_1_id_object.html" target="_top" xlink:title="Ogre::IdObject">
<polygon fill="none" stroke="black" points="224.5,-112.5 224.5,-131.5 304.5,-131.5 304.5,-112.5 224.5,-112.5"/>
<text text-anchor="middle" x="264.5" y="-119.5" font-family="Helvetica,sans-Serif" font-size="10.00">Ogre::IdObject</text>
</a>
</g>
</g>
<!-- Node6&#45;&gt;Node3 -->
<g id="edge5" class="edge"><title>Node6&#45;&gt;Node3</title>
<path fill="none" stroke="midnightblue" d="M239.926,-107.177C222.261,-97.2407 198.987,-84.1492 183.886,-75.6545"/>
<polygon fill="midnightblue" stroke="midnightblue" points="238.644,-110.472 249.076,-112.324 242.076,-104.371 238.644,-110.472"/>
</g>
</g>
</svg>
