<?xml version="1.0" encoding="UTF-8" standalone="no"?>
<!DOCTYPE svg PUBLIC "-//W3C//DTD SVG 1.1//EN"
 "http://www.w3.org/Graphics/SVG/1.1/DTD/svg11.dtd">
<!-- Generated by graphviz version 2.38.0 (20140413.2041)
 -->
<!-- Title: Ogre::PageStrategy Pages: 1 -->
<svg width="294pt" height="140pt"
 viewBox="0.00 0.00 294.00 140.00" xmlns="http://www.w3.org/2000/svg" xmlns:xlink="http://www.w3.org/1999/xlink">
<g id="graph0" class="graph" transform="scale(1 1) rotate(0) translate(4 136)">
<title>Ogre::PageStrategy</title>
<!-- Node1 -->
<g id="node1" class="node"><title>Node1</title>
<polygon fill="#bfbfbf" stroke="black" points="91.5,-56.5 91.5,-75.5 194.5,-75.5 194.5,-56.5 91.5,-56.5"/>
<text text-anchor="middle" x="143" y="-63.5" font-family="Helvetica,sans-Serif" font-size="10.00">Ogre::PageStrategy</text>
</g>
<!-- Node3 -->
<g id="node3" class="node"><title>Node3</title>
<g id="a_node3"><a xlink:href="class_ogre_1_1_grid2_d_page_strategy.html" target="_top" xlink:title="Page strategy which loads new pages based on a regular 2D grid. ">
<polygon fill="none" stroke="black" points="0,-0.5 0,-19.5 134,-19.5 134,-0.5 0,-0.5"/>
<text text-anchor="middle" x="67" y="-7.5" font-family="Helvetica,sans-Serif" font-size="10.00">Ogre::Grid2DPageStrategy</text>
</a>
</g>
</g>
<!-- Node1&#45;&gt;Node3 -->
<g id="edge2" class="edge"><title>Node1&#45;&gt;Node3</title>
<path fill="none" stroke="midnightblue" d="M122.424,-50.3804C108.688,-40.6204 91.0747,-28.1057 79.4329,-19.8339"/>
<polygon fill="midnightblue" stroke="midnightblue" points="120.61,-53.385 130.789,-56.324 124.665,-47.6787 120.61,-53.385"/>
</g>
<!-- Node4 -->
<g id="node4" class="node"><title>Node4</title>
<g id="a_node4"><a xlink:href="class_ogre_1_1_grid3_d_page_strategy.html" target="_top" xlink:title="Page strategy which loads new pages based on a regular 3D grid. ">
<polygon fill="none" stroke="black" points="152,-0.5 152,-19.5 286,-19.5 286,-0.5 152,-0.5"/>
<text text-anchor="middle" x="219" y="-7.5" font-family="Helvetica,sans-Serif" font-size="10.00">Ogre::Grid3DPageStrategy</text>
</a>
</g>
</g>
<!-- Node1&#45;&gt;Node4 -->
<g id="edge3" class="edge"><title>Node1&#45;&gt;Node4</title>
<path fill="none" stroke="midnightblue" d="M163.576,-50.3804C177.312,-40.6204 194.925,-28.1057 206.567,-19.8339"/>
<polygon fill="midnightblue" stroke="midnightblue" points="161.335,-47.6787 155.211,-56.324 165.39,-53.385 161.335,-47.6787"/>
</g>
<!-- Node2 -->
<g id="node2" class="node"><title>Node2</title>
<g id="a_node2"><a xlink:href="class_ogre_1_1_allocated_object.html" target="_top" xlink:title="Superclass for all objects that wish to use custom memory allocators when their new / delete operator...">
<polygon fill="none" stroke="black" points="112.5,-112.5 112.5,-131.5 173.5,-131.5 173.5,-112.5 112.5,-112.5"/>
<text text-anchor="middle" x="143" y="-119.5" font-family="Helvetica,sans-Serif" font-size="10.00">PageAlloc</text>
</a>
</g>
</g>
<!-- Node2&#45;&gt;Node1 -->
<g id="edge1" class="edge"><title>Node2&#45;&gt;Node1</title>
<path fill="none" stroke="midnightblue" d="M143,-101.805C143,-92.9102 143,-82.7798 143,-75.7511"/>
<polygon fill="midnightblue" stroke="midnightblue" points="139.5,-102.083 143,-112.083 146.5,-102.083 139.5,-102.083"/>
</g>
</g>
</svg>
