<?xml version="1.0" encoding="UTF-8" standalone="no"?>
<!DOCTYPE svg PUBLIC "-//W3C//DTD SVG 1.1//EN"
 "http://www.w3.org/Graphics/SVG/1.1/DTD/svg11.dtd">
<!-- Generated by graphviz version 2.40.1 (20161225.0304)
 -->
<!-- Title: Ogre::v1::HardwareVertexBuffer Pages: 1 -->
<svg width="649pt" height="284pt"
 viewBox="0.00 0.00 649.00 284.00" xmlns="http://www.w3.org/2000/svg" xmlns:xlink="http://www.w3.org/1999/xlink">
<g id="graph0" class="graph" transform="scale(1 1) rotate(0) translate(4 280)">
<title>Ogre::v1::HardwareVertexBuffer</title>
<!-- Node0 -->
<g id="node1" class="node">
<title>Node0</title>
<polygon fill="#bfbfbf" stroke="#000000" points="284,-122.5 284,-152.5 427,-152.5 427,-122.5 284,-122.5"/>
<text text-anchor="start" x="292" y="-140.5" font-family="Helvetica,sans-Serif" font-size="10.00" fill="#000000">Ogre::v1::HardwareVertex</text>
<text text-anchor="middle" x="355.5" y="-129.5" font-family="Helvetica,sans-Serif" font-size="10.00" fill="#000000">Buffer</text>
</g>
<!-- Node3 -->
<g id="node4" class="node">
<title>Node3</title>
<g id="a_node4"><a xlink:href="class_ogre_1_1v1_1_1_d3_d11_hardware_vertex_buffer.html" target="_top" xlink:title="Specialisation of HardwareVertexBuffer for D3D11. ">
<polygon fill="none" stroke="#000000" points="464,-245.5 464,-275.5 640,-275.5 640,-245.5 464,-245.5"/>
<text text-anchor="start" x="472" y="-263.5" font-family="Helvetica,sans-Serif" font-size="10.00" fill="#000000">Ogre::v1::D3D11HardwareVertex</text>
<text text-anchor="middle" x="552" y="-252.5" font-family="Helvetica,sans-Serif" font-size="10.00" fill="#000000">Buffer</text>
</a>
</g>
</g>
<!-- Node0&#45;&gt;Node3 -->
<g id="edge3" class="edge">
<title>Node0&#45;&gt;Node3</title>
<path fill="none" stroke="#191970" d="M374.3998,-160.424C394.2156,-182.9973 427.3801,-216.8633 463,-236.5 469.1665,-239.8995 475.8424,-242.8394 482.6705,-245.3773"/>
<polygon fill="#191970" stroke="#191970" points="376.8991,-157.9625 367.7233,-152.6657 371.5932,-162.5285 376.8991,-157.9625"/>
</g>
<!-- Node4 -->
<g id="node5" class="node">
<title>Node4</title>
<g id="a_node5"><a xlink:href="class_ogre_1_1v1_1_1_default_hardware_vertex_buffer.html" target="_top" xlink:title="Specialisation of HardwareVertexBuffer for emulation. ">
<polygon fill="none" stroke="#000000" points="478.5,-196.5 478.5,-226.5 625.5,-226.5 625.5,-196.5 478.5,-196.5"/>
<text text-anchor="start" x="486.5" y="-214.5" font-family="Helvetica,sans-Serif" font-size="10.00" fill="#000000">Ogre::v1::DefaultHardware</text>
<text text-anchor="middle" x="552" y="-203.5" font-family="Helvetica,sans-Serif" font-size="10.00" fill="#000000">VertexBuffer</text>
</a>
</g>
</g>
<!-- Node0&#45;&gt;Node4 -->
<g id="edge4" class="edge">
<title>Node0&#45;&gt;Node4</title>
<path fill="none" stroke="#191970" d="M393.7711,-157.2589C414.0011,-167.199 439.4592,-178.9236 463,-187.5 471.8715,-190.7321 481.3812,-193.7492 490.7635,-196.4787"/>
<polygon fill="#191970" stroke="#191970" points="395.0938,-154.0079 384.5813,-152.6901 391.9776,-160.276 395.0938,-154.0079"/>
</g>
<!-- Node5 -->
<g id="node6" class="node">
<title>Node5</title>
<g id="a_node6"><a xlink:href="class_ogre_1_1v1_1_1_g_l3_plus_default_hardware_vertex_buffer.html" target="_top" xlink:title="Specialisation of HardwareVertexBuffer for emulation. ">
<polygon fill="none" stroke="#000000" points="482.5,-147.5 482.5,-177.5 621.5,-177.5 621.5,-147.5 482.5,-147.5"/>
<text text-anchor="start" x="490.5" y="-165.5" font-family="Helvetica,sans-Serif" font-size="10.00" fill="#000000">Ogre::v1::GL3PlusDefault</text>
<text text-anchor="middle" x="552" y="-154.5" font-family="Helvetica,sans-Serif" font-size="10.00" fill="#000000">HardwareVertexBuffer</text>
</a>
</g>
</g>
<!-- Node0&#45;&gt;Node5 -->
<g id="edge5" class="edge">
<title>Node0&#45;&gt;Node5</title>
<path fill="none" stroke="#191970" d="M437.5062,-147.9334C452.4284,-149.8319 467.8647,-151.7958 482.3866,-153.6433"/>
<polygon fill="#191970" stroke="#191970" points="437.6369,-144.4219 427.2751,-146.6317 436.7534,-151.3659 437.6369,-144.4219"/>
</g>
<!-- Node6 -->
<g id="node7" class="node">
<title>Node6</title>
<g id="a_node7"><a xlink:href="class_ogre_1_1v1_1_1_g_l3_plus_hardware_vertex_buffer.html" target="_top" xlink:title="Specialisation of HardwareVertexBuffer for OpenGL. ">
<polygon fill="none" stroke="#000000" points="477,-98.5 477,-128.5 627,-128.5 627,-98.5 477,-98.5"/>
<text text-anchor="start" x="485" y="-116.5" font-family="Helvetica,sans-Serif" font-size="10.00" fill="#000000">Ogre::v1::GL3PlusHardware</text>
<text text-anchor="middle" x="552" y="-105.5" font-family="Helvetica,sans-Serif" font-size="10.00" fill="#000000">VertexBuffer</text>
</a>
</g>
</g>
<!-- Node0&#45;&gt;Node6 -->
<g id="edge6" class="edge">
<title>Node0&#45;&gt;Node6</title>
<path fill="none" stroke="#191970" d="M437.207,-127.5205C450.3191,-125.919 463.8359,-124.2681 476.7868,-122.6863"/>
<polygon fill="#191970" stroke="#191970" points="436.777,-124.0469 427.2751,-128.7336 437.6257,-130.9953 436.777,-124.0469"/>
</g>
<!-- Node7 -->
<g id="node8" class="node">
<title>Node7</title>
<g id="a_node8"><a xlink:href="class_ogre_1_1v1_1_1_g_l_e_s2_default_hardware_vertex_buffer.html" target="_top" xlink:title="Specialisation of HardwareVertexBuffer for emulation. ">
<polygon fill="none" stroke="#000000" points="463,-49.5 463,-79.5 641,-79.5 641,-49.5 463,-49.5"/>
<text text-anchor="start" x="471" y="-67.5" font-family="Helvetica,sans-Serif" font-size="10.00" fill="#000000">Ogre::v1::GLES2DefaultHardware</text>
<text text-anchor="middle" x="552" y="-56.5" font-family="Helvetica,sans-Serif" font-size="10.00" fill="#000000">VertexBuffer</text>
</a>
</g>
</g>
<!-- Node0&#45;&gt;Node7 -->
<g id="edge7" class="edge">
<title>Node0&#45;&gt;Node7</title>
<path fill="none" stroke="#191970" d="M394.2441,-117.9712C414.415,-108.2858 439.6763,-96.8961 463,-88.5 471.8839,-85.302 481.4002,-82.3033 490.7855,-79.5819"/>
<polygon fill="#191970" stroke="#191970" points="392.5379,-114.9089 385.0716,-122.426 395.596,-121.2056 392.5379,-114.9089"/>
</g>
<!-- Node8 -->
<g id="node9" class="node">
<title>Node8</title>
<g id="a_node9"><a xlink:href="class_ogre_1_1v1_1_1_metal_hardware_vertex_buffer.html" target="_top" xlink:title="Specialisation of HardwareVertexBuffer for Metal. ">
<polygon fill="none" stroke="#000000" points="466.5,-.5 466.5,-30.5 637.5,-30.5 637.5,-.5 466.5,-.5"/>
<text text-anchor="start" x="474.5" y="-18.5" font-family="Helvetica,sans-Serif" font-size="10.00" fill="#000000">Ogre::v1::MetalHardwareVertex</text>
<text text-anchor="middle" x="552" y="-7.5" font-family="Helvetica,sans-Serif" font-size="10.00" fill="#000000">Buffer</text>
</a>
</g>
</g>
<!-- Node0&#45;&gt;Node8 -->
<g id="edge8" class="edge">
<title>Node0&#45;&gt;Node8</title>
<path fill="none" stroke="#191970" d="M374.4481,-114.815C394.3019,-92.4756 427.4954,-58.9562 463,-39.5 469.1751,-36.1161 475.8566,-33.1865 482.6881,-30.6548"/>
<polygon fill="#191970" stroke="#191970" points="371.6887,-112.6542 367.7576,-122.4928 376.9661,-117.2531 371.6887,-112.6542"/>
</g>
<!-- Node1 -->
<g id="node2" class="node">
<title>Node1</title>
<g id="a_node2"><a xlink:href="class_ogre_1_1v1_1_1_hardware_buffer.html" target="_top" xlink:title="Abstract class defining common features of hardware buffers. ">
<polygon fill="none" stroke="#000000" points="107,-128 107,-147 248,-147 248,-128 107,-128"/>
<text text-anchor="middle" x="177.5" y="-135" font-family="Helvetica,sans-Serif" font-size="10.00" fill="#000000">Ogre::v1::HardwareBuffer</text>
</a>
</g>
</g>
<!-- Node1&#45;&gt;Node0 -->
<g id="edge1" class="edge">
<title>Node1&#45;&gt;Node0</title>
<path fill="none" stroke="#191970" d="M258.3819,-137.5C266.8638,-137.5 275.4448,-137.5 283.8134,-137.5"/>
<polygon fill="#191970" stroke="#191970" points="258.106,-134.0001 248.106,-137.5 258.1059,-141.0001 258.106,-134.0001"/>
</g>
<!-- Node2 -->
<g id="node3" class="node">
<title>Node2</title>
<g id="a_node3"><a xlink:href="class_ogre_1_1_allocated_object.html" target="_top" xlink:title="Superclass for all objects that wish to use custom memory allocators when their new / delete operator...">
<polygon fill="none" stroke="#000000" points="0,-128 0,-147 71,-147 71,-128 0,-128"/>
<text text-anchor="middle" x="35.5" y="-135" font-family="Helvetica,sans-Serif" font-size="10.00" fill="#000000">BufferAlloc</text>
</a>
</g>
</g>
<!-- Node2&#45;&gt;Node1 -->
<g id="edge2" class="edge">
<title>Node2&#45;&gt;Node1</title>
<path fill="none" stroke="#191970" d="M81.3402,-137.5C89.4858,-137.5 98.1387,-137.5 106.786,-137.5"/>
<polygon fill="#191970" stroke="#191970" points="81.3326,-134.0001 71.3326,-137.5 81.3326,-141.0001 81.3326,-134.0001"/>
</g>
</g>
</svg>
