<?xml version="1.0" encoding="UTF-8" standalone="no"?>
<!DOCTYPE svg PUBLIC "-//W3C//DTD SVG 1.1//EN"
 "http://www.w3.org/Graphics/SVG/1.1/DTD/svg11.dtd">
<!-- Generated by graphviz version 2.40.1 (20161225.0304)
 -->
<!-- Title: Ogre::v1::OldSkeletonManager Pages: 1 -->
<svg width="336pt" height="151pt"
 viewBox="0.00 0.00 336.00 151.00" xmlns="http://www.w3.org/2000/svg" xmlns:xlink="http://www.w3.org/1999/xlink">
<g id="graph0" class="graph" transform="scale(1 1) rotate(0) translate(4 147)">
<title>Ogre::v1::OldSkeletonManager</title>
<!-- Node0 -->
<g id="node1" class="node">
<title>Node0</title>
<polygon fill="#bfbfbf" stroke="#000000" points="102.5,-.5 102.5,-19.5 253.5,-19.5 253.5,-.5 102.5,-.5"/>
<text text-anchor="middle" x="178" y="-7.5" font-family="Helvetica,sans-Serif" font-size="10.00" fill="#000000">Ogre::v1::OldSkeletonManager</text>
</g>
<!-- Node1 -->
<g id="node2" class="node">
<title>Node1</title>
<g id="a_node2"><a xlink:href="class_ogre_1_1_resource_manager.html" target="_top" xlink:title="Defines a generic resource handler. ">
<polygon fill="none" stroke="#000000" points="40.5,-62 40.5,-81 163.5,-81 163.5,-62 40.5,-62"/>
<text text-anchor="middle" x="102" y="-69" font-family="Helvetica,sans-Serif" font-size="10.00" fill="#000000">Ogre::ResourceManager</text>
</a>
</g>
</g>
<!-- Node1&#45;&gt;Node0 -->
<g id="edge1" class="edge">
<title>Node1&#45;&gt;Node0</title>
<path fill="none" stroke="#191970" d="M121.934,-55.3692C135.9125,-44.0576 154.1419,-29.3062 165.9576,-19.7449"/>
<polygon fill="#191970" stroke="#191970" points="119.447,-52.8793 113.875,-61.8906 123.8504,-58.3209 119.447,-52.8793"/>
</g>
<!-- Node2 -->
<g id="node3" class="node">
<title>Node2</title>
<g id="a_node3"><a xlink:href="class_ogre_1_1_script_loader.html" target="_top" xlink:title="Abstract class defining the interface used by classes which wish to perform script loading to define ...">
<polygon fill="none" stroke="#000000" points="0,-123.5 0,-142.5 98,-142.5 98,-123.5 0,-123.5"/>
<text text-anchor="middle" x="49" y="-130.5" font-family="Helvetica,sans-Serif" font-size="10.00" fill="#000000">Ogre::ScriptLoader</text>
</a>
</g>
</g>
<!-- Node2&#45;&gt;Node1 -->
<g id="edge2" class="edge">
<title>Node2&#45;&gt;Node1</title>
<path fill="none" stroke="#191970" d="M64.0172,-115.5744C73.6026,-104.4517 85.6731,-90.4454 93.602,-81.2449"/>
<polygon fill="#191970" stroke="#191970" points="61.1582,-113.5306 57.2813,-123.3906 66.4608,-118.1003 61.1582,-113.5306"/>
</g>
<!-- Node3 -->
<g id="node4" class="node">
<title>Node3</title>
<g id="a_node4"><a xlink:href="class_ogre_1_1_allocated_object.html" target="_top" xlink:title="Superclass for all objects that wish to use custom memory allocators when their new / delete operator...">
<polygon fill="none" stroke="#000000" points="116,-123.5 116,-142.5 196,-142.5 196,-123.5 116,-123.5"/>
<text text-anchor="middle" x="156" y="-130.5" font-family="Helvetica,sans-Serif" font-size="10.00" fill="#000000">ResourceAlloc</text>
</a>
</g>
</g>
<!-- Node3&#45;&gt;Node1 -->
<g id="edge3" class="edge">
<title>Node3&#45;&gt;Node1</title>
<path fill="none" stroke="#191970" d="M140.6995,-115.5744C130.9332,-104.4517 118.635,-90.4454 110.5565,-81.2449"/>
<polygon fill="#191970" stroke="#191970" points="138.3344,-118.1855 147.5625,-123.3906 143.5945,-113.5669 138.3344,-118.1855"/>
</g>
<!-- Node4 -->
<g id="node5" class="node">
<title>Node4</title>
<g id="a_node5"><a xlink:href="class_ogre_1_1_singleton.html" target="_top" xlink:title="Ogre::Singleton\&lt; OldSkeleton\lManager \&gt;">
<polygon fill="none" stroke="#000000" points="182,-56.5 182,-86.5 328,-86.5 328,-56.5 182,-56.5"/>
<text text-anchor="start" x="190" y="-74.5" font-family="Helvetica,sans-Serif" font-size="10.00" fill="#000000">Ogre::Singleton&lt; OldSkeleton</text>
<text text-anchor="middle" x="255" y="-63.5" font-family="Helvetica,sans-Serif" font-size="10.00" fill="#000000">Manager &gt;</text>
</a>
</g>
</g>
<!-- Node4&#45;&gt;Node0 -->
<g id="edge4" class="edge">
<title>Node4&#45;&gt;Node0</title>
<path fill="none" stroke="#191970" d="M227.8836,-49.8421C215.0768,-39.6133 200.4236,-27.9097 190.3287,-19.8469"/>
<polygon fill="#191970" stroke="#191970" points="225.9684,-52.7917 235.9663,-56.2977 230.3369,-47.3222 225.9684,-52.7917"/>
</g>
</g>
</svg>
