<?xml version="1.0" encoding="UTF-8" standalone="no"?>
<!DOCTYPE svg PUBLIC "-//W3C//DTD SVG 1.1//EN"
 "http://www.w3.org/Graphics/SVG/1.1/DTD/svg11.dtd">
<!-- Generated by graphviz version 2.38.0 (20140413.2041)
 -->
<!-- Title: Ogre::Hlms Pages: 1 -->
<svg width="463pt" height="199pt"
 viewBox="0.00 0.00 463.00 199.00" xmlns="http://www.w3.org/2000/svg" xmlns:xlink="http://www.w3.org/1999/xlink">
<g id="graph0" class="graph" transform="scale(1 1) rotate(0) translate(4 195)">
<title>Ogre::Hlms</title>
<!-- Node1 -->
<g id="node1" class="node"><title>Node1</title>
<polygon fill="#bfbfbf" stroke="black" points="98,-76.5 98,-95.5 165,-95.5 165,-76.5 98,-76.5"/>
<text text-anchor="middle" x="131.5" y="-83.5" font-family="Helvetica,sans-Serif" font-size="10.00">Ogre::Hlms</text>
</g>
<!-- Node3 -->
<g id="node3" class="node"><title>Node3</title>
<g id="a_node3"><a xlink:href="class_ogre_1_1_hlms_buffer_manager.html" target="_top" xlink:title="Managing constant and texture buffers for sending shader parameters is a very similar process to most...">
<polygon fill="none" stroke="black" points="201,-152.5 201,-171.5 332,-171.5 332,-152.5 201,-152.5"/>
<text text-anchor="middle" x="266.5" y="-159.5" font-family="Helvetica,sans-Serif" font-size="10.00">Ogre::HlmsBufferManager</text>
</a>
</g>
</g>
<!-- Node1&#45;&gt;Node3 -->
<g id="edge2" class="edge"><title>Node1&#45;&gt;Node3</title>
<path fill="none" stroke="midnightblue" d="M149.05,-103.136C162.104,-115.765 181.333,-132.504 201,-143 208.106,-146.793 216.067,-149.921 223.906,-152.468"/>
<polygon fill="midnightblue" stroke="midnightblue" points="151.33,-100.467 141.772,-95.8968 146.394,-105.43 151.33,-100.467"/>
</g>
<!-- Node6 -->
<g id="node6" class="node"><title>Node6</title>
<g id="a_node6"><a xlink:href="class_ogre_1_1_hlms_compute.html" target="_top" xlink:title="HLMS implementation that handles compute shaders. ">
<polygon fill="none" stroke="black" points="213,-114.5 213,-133.5 320,-133.5 320,-114.5 213,-114.5"/>
<text text-anchor="middle" x="266.5" y="-121.5" font-family="Helvetica,sans-Serif" font-size="10.00">Ogre::HlmsCompute</text>
</a>
</g>
</g>
<!-- Node1&#45;&gt;Node6 -->
<g id="edge5" class="edge"><title>Node1&#45;&gt;Node6</title>
<path fill="none" stroke="midnightblue" d="M174.676,-98.0503C193.153,-103.33 214.537,-109.439 231.912,-114.403"/>
<polygon fill="midnightblue" stroke="midnightblue" points="175.612,-94.6778 165.035,-95.2958 173.689,-101.408 175.612,-94.6778"/>
</g>
<!-- Node7 -->
<g id="node7" class="node"><title>Node7</title>
<g id="a_node7"><a xlink:href="class_ogre_1_1_hlms_low_level.html" target="_top" xlink:title="This is an HLMS implementation that acts as proxy to use the Material system from Ogre 1...">
<polygon fill="none" stroke="black" points="212.5,-76.5 212.5,-95.5 320.5,-95.5 320.5,-76.5 212.5,-76.5"/>
<text text-anchor="middle" x="266.5" y="-83.5" font-family="Helvetica,sans-Serif" font-size="10.00">Ogre::HlmsLowLevel</text>
</a>
</g>
</g>
<!-- Node1&#45;&gt;Node7 -->
<g id="edge6" class="edge"><title>Node1&#45;&gt;Node7</title>
<path fill="none" stroke="midnightblue" d="M175.097,-86C186.939,-86 199.948,-86 212.316,-86"/>
<polygon fill="midnightblue" stroke="midnightblue" points="175.035,-82.5001 165.035,-86 175.035,-89.5001 175.035,-82.5001"/>
</g>
<!-- Node8 -->
<g id="node8" class="node"><title>Node8</title>
<g id="a_node8"><a xlink:href="class_ogre_1_1_hlms_pbs_mobile.html" target="_top" xlink:title="Physically based shading implementation specfically designed for OpenGL ES 2.0 and other RenderSystem...">
<polygon fill="none" stroke="black" points="210,-38.5 210,-57.5 323,-57.5 323,-38.5 210,-38.5"/>
<text text-anchor="middle" x="266.5" y="-45.5" font-family="Helvetica,sans-Serif" font-size="10.00">Ogre::HlmsPbsMobile</text>
</a>
</g>
</g>
<!-- Node1&#45;&gt;Node8 -->
<g id="edge7" class="edge"><title>Node1&#45;&gt;Node8</title>
<path fill="none" stroke="midnightblue" d="M174.676,-73.9497C193.153,-68.6704 214.537,-62.561 231.912,-57.5967"/>
<polygon fill="midnightblue" stroke="midnightblue" points="173.689,-70.5915 165.035,-76.7042 175.612,-77.3222 173.689,-70.5915"/>
</g>
<!-- Node9 -->
<g id="node9" class="node"><title>Node9</title>
<g id="a_node9"><a xlink:href="class_ogre_1_1_hlms_unlit_mobile.html" target="_top" xlink:title="User Interface (2D) implementation specfically designed for OpenGL ES 2.0 and other RenderSystems whi...">
<polygon fill="none" stroke="black" points="208.5,-0.5 208.5,-19.5 324.5,-19.5 324.5,-0.5 208.5,-0.5"/>
<text text-anchor="middle" x="266.5" y="-7.5" font-family="Helvetica,sans-Serif" font-size="10.00">Ogre::HlmsUnlitMobile</text>
</a>
</g>
</g>
<!-- Node1&#45;&gt;Node9 -->
<g id="edge8" class="edge"><title>Node1&#45;&gt;Node9</title>
<path fill="none" stroke="midnightblue" d="M149.05,-68.8639C162.104,-56.2354 181.333,-39.4965 201,-29 208.106,-25.2074 216.067,-22.079 223.906,-19.5322"/>
<polygon fill="midnightblue" stroke="midnightblue" points="146.394,-66.5696 141.772,-76.1032 151.33,-71.5326 146.394,-66.5696"/>
</g>
<!-- Node2 -->
<g id="node2" class="node"><title>Node2</title>
<g id="a_node2"><a xlink:href="class_ogre_1_1_allocated_object.html" target="_top" xlink:title="Superclass for all objects that wish to use custom memory allocators when their new / delete operator...">
<polygon fill="none" stroke="black" points="0,-76.5 0,-95.5 62,-95.5 62,-76.5 0,-76.5"/>
<text text-anchor="middle" x="31" y="-83.5" font-family="Helvetica,sans-Serif" font-size="10.00">HlmsAlloc</text>
</a>
</g>
</g>
<!-- Node2&#45;&gt;Node1 -->
<g id="edge1" class="edge"><title>Node2&#45;&gt;Node1</title>
<path fill="none" stroke="midnightblue" d="M72.2298,-86C80.7546,-86 89.6527,-86 97.8548,-86"/>
<polygon fill="midnightblue" stroke="midnightblue" points="72.0885,-82.5001 62.0885,-86 72.0884,-89.5001 72.0885,-82.5001"/>
</g>
<!-- Node4 -->
<g id="node4" class="node"><title>Node4</title>
<g id="a_node4"><a xlink:href="class_ogre_1_1_hlms_pbs.html" target="_top" xlink:title="Physically based shading implementation specfically designed for OpenGL 3+, D3D11 and other RenderSys...">
<polygon fill="none" stroke="black" points="369.5,-171.5 369.5,-190.5 453.5,-190.5 453.5,-171.5 369.5,-171.5"/>
<text text-anchor="middle" x="411.5" y="-178.5" font-family="Helvetica,sans-Serif" font-size="10.00">Ogre::HlmsPbs</text>
</a>
</g>
</g>
<!-- Node3&#45;&gt;Node4 -->
<g id="edge3" class="edge"><title>Node3&#45;&gt;Node4</title>
<path fill="none" stroke="midnightblue" d="M342.346,-171.945C351.599,-173.174 360.777,-174.393 369.258,-175.52"/>
<polygon fill="midnightblue" stroke="midnightblue" points="342.68,-168.458 332.306,-170.611 341.757,-175.397 342.68,-168.458"/>
</g>
<!-- Node5 -->
<g id="node5" class="node"><title>Node5</title>
<g id="a_node5"><a xlink:href="class_ogre_1_1_hlms_unlit.html" target="_top" xlink:title="Implementation without lighting or skeletal animation specfically designed for OpenGL 3+...">
<polygon fill="none" stroke="black" points="368,-133.5 368,-152.5 455,-152.5 455,-133.5 368,-133.5"/>
<text text-anchor="middle" x="411.5" y="-140.5" font-family="Helvetica,sans-Serif" font-size="10.00">Ogre::HlmsUnlit</text>
</a>
</g>
</g>
<!-- Node3&#45;&gt;Node5 -->
<g id="edge4" class="edge"><title>Node3&#45;&gt;Node5</title>
<path fill="none" stroke="midnightblue" d="M342.436,-152.043C351.066,-150.897 359.628,-149.759 367.62,-148.697"/>
<polygon fill="midnightblue" stroke="midnightblue" points="341.757,-148.603 332.306,-153.389 342.68,-155.542 341.757,-148.603"/>
</g>
</g>
</svg>
