<?xml version="1.0" encoding="UTF-8" standalone="no"?>
<!DOCTYPE svg PUBLIC "-//W3C//DTD SVG 1.1//EN"
 "http://www.w3.org/Graphics/SVG/1.1/DTD/svg11.dtd">
<!-- Generated by graphviz version 2.38.0 (20140413.2041)
 -->
<!-- Title: Ogre::Exception Pages: 1 -->
<svg width="411pt" height="370pt"
 viewBox="0.00 0.00 411.00 370.00" xmlns="http://www.w3.org/2000/svg" xmlns:xlink="http://www.w3.org/1999/xlink">
<g id="graph0" class="graph" transform="scale(1 1) rotate(0) translate(4 366)">
<title>Ogre::Exception</title>
<!-- Node1 -->
<g id="node1" class="node"><title>Node1</title>
<polygon fill="#bfbfbf" stroke="black" points="114,-171.5 114,-190.5 201,-190.5 201,-171.5 114,-171.5"/>
<text text-anchor="middle" x="157.5" y="-178.5" font-family="Helvetica,sans-Serif" font-size="10.00">Ogre::Exception</text>
</g>
<!-- Node3 -->
<g id="node3" class="node"><title>Node3</title>
<g id="a_node3"><a xlink:href="class_ogre_1_1_file_not_found_exception.html" target="_top" xlink:title="Ogre::FileNotFoundException">
<polygon fill="none" stroke="black" points="247,-342.5 247,-361.5 393,-361.5 393,-342.5 247,-342.5"/>
<text text-anchor="middle" x="320" y="-349.5" font-family="Helvetica,sans-Serif" font-size="10.00">Ogre::FileNotFoundException</text>
</a>
</g>
</g>
<!-- Node1&#45;&gt;Node3 -->
<g id="edge2" class="edge"><title>Node1&#45;&gt;Node3</title>
<path fill="none" stroke="midnightblue" d="M162.984,-200.767C171.488,-233.548 193.164,-298.917 237,-333 241.961,-336.857 247.568,-339.954 253.466,-342.438"/>
<polygon fill="midnightblue" stroke="midnightblue" points="166.283,-199.521 160.511,-190.636 159.483,-201.181 166.283,-199.521"/>
</g>
<!-- Node4 -->
<g id="node4" class="node"><title>Node4</title>
<g id="a_node4"><a xlink:href="class_ogre_1_1_internal_error_exception.html" target="_top" xlink:title="Ogre::InternalErrorException">
<polygon fill="none" stroke="black" points="250,-304.5 250,-323.5 390,-323.5 390,-304.5 250,-304.5"/>
<text text-anchor="middle" x="320" y="-311.5" font-family="Helvetica,sans-Serif" font-size="10.00">Ogre::InternalErrorException</text>
</a>
</g>
</g>
<!-- Node1&#45;&gt;Node4 -->
<g id="edge3" class="edge"><title>Node1&#45;&gt;Node4</title>
<path fill="none" stroke="midnightblue" d="M166.335,-200.178C177.867,-225.904 201.909,-271.11 237,-295 242.677,-298.865 249.034,-301.952 255.629,-304.415"/>
<polygon fill="midnightblue" stroke="midnightblue" points="169.451,-198.565 162.285,-190.761 163.02,-201.33 169.451,-198.565"/>
</g>
<!-- Node5 -->
<g id="node5" class="node"><title>Node5</title>
<g id="a_node5"><a xlink:href="class_ogre_1_1_invalid_call_exception.html" target="_top" xlink:title="Ogre::InvalidCallException">
<polygon fill="none" stroke="black" points="253.5,-266.5 253.5,-285.5 386.5,-285.5 386.5,-266.5 253.5,-266.5"/>
<text text-anchor="middle" x="320" y="-273.5" font-family="Helvetica,sans-Serif" font-size="10.00">Ogre::InvalidCallException</text>
</a>
</g>
</g>
<!-- Node1&#45;&gt;Node5 -->
<g id="edge4" class="edge"><title>Node1&#45;&gt;Node5</title>
<path fill="none" stroke="midnightblue" d="M172.067,-198.895C186.315,-216.4 210.327,-242.482 237,-257 244.188,-260.912 252.155,-264.022 260.216,-266.493"/>
<polygon fill="midnightblue" stroke="midnightblue" points="174.486,-196.311 165.544,-190.629 168.991,-200.648 174.486,-196.311"/>
</g>
<!-- Node6 -->
<g id="node6" class="node"><title>Node6</title>
<g id="a_node6"><a xlink:href="class_ogre_1_1_invalid_parameters_exception.html" target="_top" xlink:title="Ogre::InvalidParametersException">
<polygon fill="none" stroke="black" points="237,-228.5 237,-247.5 403,-247.5 403,-228.5 237,-228.5"/>
<text text-anchor="middle" x="320" y="-235.5" font-family="Helvetica,sans-Serif" font-size="10.00">Ogre::InvalidParametersException</text>
</a>
</g>
</g>
<!-- Node1&#45;&gt;Node6 -->
<g id="edge5" class="edge"><title>Node1&#45;&gt;Node6</title>
<path fill="none" stroke="midnightblue" d="M184.635,-195.473C199.611,-203.298 218.963,-212.635 237,-219 247.335,-222.647 258.653,-225.788 269.49,-228.407"/>
<polygon fill="midnightblue" stroke="midnightblue" points="185.954,-192.21 175.483,-190.595 182.662,-198.387 185.954,-192.21"/>
</g>
<!-- Node7 -->
<g id="node7" class="node"><title>Node7</title>
<g id="a_node7"><a xlink:href="class_ogre_1_1_invalid_state_exception.html" target="_top" xlink:title="Ogre::InvalidStateException">
<polygon fill="none" stroke="black" points="250.5,-190.5 250.5,-209.5 389.5,-209.5 389.5,-190.5 250.5,-190.5"/>
<text text-anchor="middle" x="320" y="-197.5" font-family="Helvetica,sans-Serif" font-size="10.00">Ogre::InvalidStateException</text>
</a>
</g>
</g>
<!-- Node1&#45;&gt;Node7 -->
<g id="edge6" class="edge"><title>Node1&#45;&gt;Node7</title>
<path fill="none" stroke="midnightblue" d="M211.324,-187.253C223.828,-188.734 237.342,-190.333 250.433,-191.883"/>
<polygon fill="midnightblue" stroke="midnightblue" points="211.432,-183.742 201.09,-186.042 210.609,-190.693 211.432,-183.742"/>
</g>
<!-- Node8 -->
<g id="node8" class="node"><title>Node8</title>
<g id="a_node8"><a xlink:href="class_ogre_1_1_i_o_exception.html" target="_top" xlink:title="Ogre::IOException">
<polygon fill="none" stroke="black" points="271,-152.5 271,-171.5 369,-171.5 369,-152.5 271,-152.5"/>
<text text-anchor="middle" x="320" y="-159.5" font-family="Helvetica,sans-Serif" font-size="10.00">Ogre::IOException</text>
</a>
</g>
</g>
<!-- Node1&#45;&gt;Node8 -->
<g id="edge7" class="edge"><title>Node1&#45;&gt;Node8</title>
<path fill="none" stroke="midnightblue" d="M211.187,-174.763C230.403,-172.488 252.018,-169.929 270.822,-167.703"/>
<polygon fill="midnightblue" stroke="midnightblue" points="210.609,-171.307 201.09,-175.958 211.432,-178.258 210.609,-171.307"/>
</g>
<!-- Node9 -->
<g id="node9" class="node"><title>Node9</title>
<g id="a_node9"><a xlink:href="class_ogre_1_1_item_identity_exception.html" target="_top" xlink:title="Ogre::ItemIdentityException">
<polygon fill="none" stroke="black" points="250.5,-114.5 250.5,-133.5 389.5,-133.5 389.5,-114.5 250.5,-114.5"/>
<text text-anchor="middle" x="320" y="-121.5" font-family="Helvetica,sans-Serif" font-size="10.00">Ogre::ItemIdentityException</text>
</a>
</g>
</g>
<!-- Node1&#45;&gt;Node9 -->
<g id="edge8" class="edge"><title>Node1&#45;&gt;Node9</title>
<path fill="none" stroke="midnightblue" d="M184.635,-166.527C199.611,-158.702 218.963,-149.365 237,-143 247.335,-139.353 258.653,-136.212 269.49,-133.593"/>
<polygon fill="midnightblue" stroke="midnightblue" points="182.662,-163.613 175.483,-171.405 185.954,-169.79 182.662,-163.613"/>
</g>
<!-- Node10 -->
<g id="node10" class="node"><title>Node10</title>
<g id="a_node10"><a xlink:href="class_ogre_1_1_rendering_a_p_i_exception.html" target="_top" xlink:title="Ogre::RenderingAPIException">
<polygon fill="none" stroke="black" points="246,-76.5 246,-95.5 394,-95.5 394,-76.5 246,-76.5"/>
<text text-anchor="middle" x="320" y="-83.5" font-family="Helvetica,sans-Serif" font-size="10.00">Ogre::RenderingAPIException</text>
</a>
</g>
</g>
<!-- Node1&#45;&gt;Node10 -->
<g id="edge9" class="edge"><title>Node1&#45;&gt;Node10</title>
<path fill="none" stroke="midnightblue" d="M172.067,-163.105C186.315,-145.6 210.327,-119.518 237,-105 244.188,-101.088 252.155,-97.9779 260.216,-95.5067"/>
<polygon fill="midnightblue" stroke="midnightblue" points="168.991,-161.352 165.544,-171.371 174.486,-165.689 168.991,-161.352"/>
</g>
<!-- Node11 -->
<g id="node11" class="node"><title>Node11</title>
<g id="a_node11"><a xlink:href="class_ogre_1_1_runtime_assertion_exception.html" target="_top" xlink:title="Ogre::RuntimeAssertionException">
<polygon fill="none" stroke="black" points="237.5,-38.5 237.5,-57.5 402.5,-57.5 402.5,-38.5 237.5,-38.5"/>
<text text-anchor="middle" x="320" y="-45.5" font-family="Helvetica,sans-Serif" font-size="10.00">Ogre::RuntimeAssertionException</text>
</a>
</g>
</g>
<!-- Node1&#45;&gt;Node11 -->
<g id="edge10" class="edge"><title>Node1&#45;&gt;Node11</title>
<path fill="none" stroke="midnightblue" d="M166.335,-161.822C177.867,-136.096 201.909,-90.8903 237,-67 242.677,-63.1348 249.034,-60.0484 255.629,-57.5852"/>
<polygon fill="midnightblue" stroke="midnightblue" points="163.02,-160.67 162.285,-171.239 169.451,-163.435 163.02,-160.67"/>
</g>
<!-- Node12 -->
<g id="node12" class="node"><title>Node12</title>
<g id="a_node12"><a xlink:href="class_ogre_1_1_unimplemented_exception.html" target="_top" xlink:title="Template struct which creates a distinct type for each exception code. ">
<polygon fill="none" stroke="black" points="242.5,-0.5 242.5,-19.5 397.5,-19.5 397.5,-0.5 242.5,-0.5"/>
<text text-anchor="middle" x="320" y="-7.5" font-family="Helvetica,sans-Serif" font-size="10.00">Ogre::UnimplementedException</text>
</a>
</g>
</g>
<!-- Node1&#45;&gt;Node12 -->
<g id="edge11" class="edge"><title>Node1&#45;&gt;Node12</title>
<path fill="none" stroke="midnightblue" d="M162.984,-161.233C171.488,-128.452 193.164,-63.0832 237,-29 241.961,-25.143 247.568,-22.0456 253.466,-19.5615"/>
<polygon fill="midnightblue" stroke="midnightblue" points="159.483,-160.819 160.511,-171.364 166.283,-162.479 159.483,-160.819"/>
</g>
<!-- Node2 -->
<g id="node2" class="node"><title>Node2</title>
<polygon fill="none" stroke="#bfbfbf" points="0,-171.5 0,-190.5 78,-190.5 78,-171.5 0,-171.5"/>
<text text-anchor="middle" x="39" y="-178.5" font-family="Helvetica,sans-Serif" font-size="10.00">std::exception</text>
</g>
<!-- Node2&#45;&gt;Node1 -->
<g id="edge1" class="edge"><title>Node2&#45;&gt;Node1</title>
<path fill="none" stroke="midnightblue" d="M88.2885,-181C96.7622,-181 105.526,-181 113.833,-181"/>
<polygon fill="midnightblue" stroke="midnightblue" points="88.1465,-177.5 78.1465,-181 88.1464,-184.5 88.1465,-177.5"/>
</g>
</g>
</svg>
