<?xml version="1.0" encoding="UTF-8" standalone="no"?>
<!DOCTYPE svg PUBLIC "-//W3C//DTD SVG 1.1//EN"
 "http://www.w3.org/Graphics/SVG/1.1/DTD/svg11.dtd">
<!-- Generated by graphviz version 2.40.1 (20161225.0304)
 -->
<!-- Title: Ogre::SmallVector&lt; T, 0 &gt; Pages: 1 -->
<svg width="163pt" height="296pt"
 viewBox="0.00 0.00 163.00 296.00" xmlns="http://www.w3.org/2000/svg" xmlns:xlink="http://www.w3.org/1999/xlink">
<g id="graph0" class="graph" transform="scale(1 1) rotate(0) translate(4 292)">
<title>Ogre::SmallVector&lt; T, 0 &gt;</title>
<!-- Node0 -->
<g id="node1" class="node">
<title>Node0</title>
<polygon fill="#bfbfbf" stroke="#000000" points="21,-.5 21,-30.5 134,-30.5 134,-.5 21,-.5"/>
<text text-anchor="start" x="29" y="-18.5" font-family="Helvetica,sans-Serif" font-size="10.00" fill="#000000">Ogre::SmallVector&lt;</text>
<text text-anchor="middle" x="77.5" y="-7.5" font-family="Helvetica,sans-Serif" font-size="10.00" fill="#000000"> T, 0 &gt;</text>
</g>
<!-- Node1 -->
<g id="node2" class="node">
<title>Node1</title>
<g id="a_node2"><a xlink:href="class_ogre_1_1_small_vector_impl.html" target="_top" xlink:title="SmallVectorImpl &#45; This class consists of common code factored out of the SmallVector class to reduce ...">
<polygon fill="none" stroke="#000000" points="0,-67.5 0,-86.5 155,-86.5 155,-67.5 0,-67.5"/>
<text text-anchor="middle" x="77.5" y="-74.5" font-family="Helvetica,sans-Serif" font-size="10.00" fill="#000000">Ogre::SmallVectorImpl&lt; T &gt;</text>
</a>
</g>
</g>
<!-- Node1&#45;&gt;Node0 -->
<g id="edge1" class="edge">
<title>Node1&#45;&gt;Node0</title>
<path fill="none" stroke="#191970" d="M71.1586,-57.3693C70.4926,-48.681 70.6407,-38.6241 71.6029,-30.5446"/>
<polygon fill="#191970" stroke="#191970" points="67.6997,-57.9142 72.4375,-67.3906 74.6433,-57.028 67.6997,-57.9142"/>
</g>
<!-- Node1&#45;&gt;Node0 -->
<g id="edge8" class="edge">
<title>Node1&#45;&gt;Node0</title>
<path fill="none" stroke="#191970" d="M83.8414,-57.3693C84.5074,-48.681 84.3593,-38.6241 83.3971,-30.5446"/>
<polygon fill="#191970" stroke="#191970" points="80.3567,-57.028 82.5625,-67.3906 87.3003,-57.9142 80.3567,-57.028"/>
</g>
<!-- Node2 -->
<g id="node3" class="node">
<title>Node2</title>
<g id="a_node3"><a xlink:href="class_ogre_1_1_small_vector_template_base.html" target="_top" xlink:title="Ogre::SmallVectorTemplate\lBase\&lt; T, isPodLike\&lt; T \&gt;\l::value \&gt;">
<polygon fill="none" stroke="#000000" points="1.5,-123.5 1.5,-164.5 153.5,-164.5 153.5,-123.5 1.5,-123.5"/>
<text text-anchor="start" x="9.5" y="-152.5" font-family="Helvetica,sans-Serif" font-size="10.00" fill="#000000">Ogre::SmallVectorTemplate</text>
<text text-anchor="start" x="9.5" y="-141.5" font-family="Helvetica,sans-Serif" font-size="10.00" fill="#000000">Base&lt; T, isPodLike&lt; T &gt;</text>
<text text-anchor="middle" x="77.5" y="-130.5" font-family="Helvetica,sans-Serif" font-size="10.00" fill="#000000">::value &gt;</text>
</a>
</g>
</g>
<!-- Node2&#45;&gt;Node1 -->
<g id="edge2" class="edge">
<title>Node2&#45;&gt;Node1</title>
<path fill="none" stroke="#191970" d="M70.768,-113.0909C70.6356,-103.5672 71.2345,-93.7625 72.5646,-86.7805"/>
<polygon fill="#191970" stroke="#191970" points="67.2748,-113.3266 71.1987,-123.168 74.2684,-113.0277 67.2748,-113.3266"/>
</g>
<!-- Node2&#45;&gt;Node1 -->
<g id="edge7" class="edge">
<title>Node2&#45;&gt;Node1</title>
<path fill="none" stroke="#191970" d="M84.232,-113.0909C84.3644,-103.5672 83.7655,-93.7625 82.4354,-86.7805"/>
<polygon fill="#191970" stroke="#191970" points="80.7316,-113.0277 83.8013,-123.168 87.7252,-113.3266 80.7316,-113.0277"/>
</g>
<!-- Node3 -->
<g id="node4" class="node">
<title>Node3</title>
<g id="a_node4"><a xlink:href="class_ogre_1_1_small_vector_template_common.html" target="_top" xlink:title="Ogre::SmallVectorTemplate\lCommon\&lt; T \&gt;">
<polygon fill="none" stroke="#000000" points="1.5,-201.5 1.5,-231.5 153.5,-231.5 153.5,-201.5 1.5,-201.5"/>
<text text-anchor="start" x="9.5" y="-219.5" font-family="Helvetica,sans-Serif" font-size="10.00" fill="#000000">Ogre::SmallVectorTemplate</text>
<text text-anchor="middle" x="77.5" y="-208.5" font-family="Helvetica,sans-Serif" font-size="10.00" fill="#000000">Common&lt; T &gt;</text>
</a>
</g>
</g>
<!-- Node3&#45;&gt;Node2 -->
<g id="edge3" class="edge">
<title>Node3&#45;&gt;Node2</title>
<path fill="none" stroke="#191970" d="M71.0423,-191.4016C70.5679,-182.6173 70.671,-172.8652 71.3514,-164.5015"/>
<polygon fill="#191970" stroke="#191970" points="67.5647,-191.814 71.9073,-201.478 74.5391,-191.2152 67.5647,-191.814"/>
</g>
<!-- Node3&#45;&gt;Node2 -->
<g id="edge6" class="edge">
<title>Node3&#45;&gt;Node2</title>
<path fill="none" stroke="#191970" d="M83.9577,-191.4016C84.4321,-182.6173 84.329,-172.8652 83.6486,-164.5015"/>
<polygon fill="#191970" stroke="#191970" points="80.4609,-191.2152 83.0927,-201.478 87.4353,-191.814 80.4609,-191.2152"/>
</g>
<!-- Node4 -->
<g id="node5" class="node">
<title>Node4</title>
<g id="a_node5"><a xlink:href="class_ogre_1_1_small_vector_base.html" target="_top" xlink:title="SmallVectorBase &#45; This is all the non&#45;templated stuff common to all SmallVectors. ...">
<polygon fill="none" stroke="#000000" points="13,-268.5 13,-287.5 142,-287.5 142,-268.5 13,-268.5"/>
<text text-anchor="middle" x="77.5" y="-275.5" font-family="Helvetica,sans-Serif" font-size="10.00" fill="#000000">Ogre::SmallVectorBase</text>
</a>
</g>
</g>
<!-- Node4&#45;&gt;Node3 -->
<g id="edge4" class="edge">
<title>Node4&#45;&gt;Node3</title>
<path fill="none" stroke="#191970" d="M71.1586,-258.3693C70.4926,-249.681 70.6407,-239.6241 71.6029,-231.5446"/>
<polygon fill="#191970" stroke="#191970" points="67.6997,-258.9142 72.4375,-268.3906 74.6433,-258.028 67.6997,-258.9142"/>
</g>
<!-- Node4&#45;&gt;Node3 -->
<g id="edge5" class="edge">
<title>Node4&#45;&gt;Node3</title>
<path fill="none" stroke="#191970" d="M83.8414,-258.3693C84.5074,-249.681 84.3593,-239.6241 83.3971,-231.5446"/>
<polygon fill="#191970" stroke="#191970" points="80.3567,-258.028 82.5625,-268.3906 87.3003,-258.9142 80.3567,-258.028"/>
</g>
</g>
</svg>
