<?xml version="1.0" encoding="UTF-8" standalone="no"?>
<!DOCTYPE svg PUBLIC "-//W3C//DTD SVG 1.1//EN"
 "http://www.w3.org/Graphics/SVG/1.1/DTD/svg11.dtd">
<!-- Generated by graphviz version 2.40.1 (20161225.0304)
 -->
<!-- Title: Ogre::v1::GLES2DefaultHardwareBufferManagerBase Pages: 1 -->
<svg width="186pt" height="162pt"
 viewBox="0.00 0.00 186.00 162.00" xmlns="http://www.w3.org/2000/svg" xmlns:xlink="http://www.w3.org/1999/xlink">
<g id="graph0" class="graph" transform="scale(1 1) rotate(0) translate(4 158)">
<title>Ogre::v1::GLES2DefaultHardwareBufferManagerBase</title>
<!-- Node0 -->
<g id="node1" class="node">
<title>Node0</title>
<polygon fill="#bfbfbf" stroke="#000000" points="0,-.5 0,-30.5 178,-30.5 178,-.5 0,-.5"/>
<text text-anchor="start" x="8" y="-18.5" font-family="Helvetica,sans-Serif" font-size="10.00" fill="#000000">Ogre::v1::GLES2DefaultHardware</text>
<text text-anchor="middle" x="89" y="-7.5" font-family="Helvetica,sans-Serif" font-size="10.00" fill="#000000">BufferManagerBase</text>
</g>
<!-- Node1 -->
<g id="node2" class="node">
<title>Node1</title>
<g id="a_node2"><a xlink:href="class_ogre_1_1v1_1_1_hardware_buffer_manager_base.html" target="_top" xlink:title="Base definition of a hardware buffer manager. ">
<polygon fill="none" stroke="#000000" points="18.5,-67.5 18.5,-97.5 159.5,-97.5 159.5,-67.5 18.5,-67.5"/>
<text text-anchor="start" x="26.5" y="-85.5" font-family="Helvetica,sans-Serif" font-size="10.00" fill="#000000">Ogre::v1::HardwareBuffer</text>
<text text-anchor="middle" x="89" y="-74.5" font-family="Helvetica,sans-Serif" font-size="10.00" fill="#000000">ManagerBase</text>
</a>
</g>
</g>
<!-- Node1&#45;&gt;Node0 -->
<g id="edge1" class="edge">
<title>Node1&#45;&gt;Node0</title>
<path fill="none" stroke="#191970" d="M89,-57.0249C89,-48.128 89,-38.4287 89,-30.6432"/>
<polygon fill="#191970" stroke="#191970" points="85.5001,-57.2966 89,-67.2967 92.5001,-57.2967 85.5001,-57.2966"/>
</g>
<!-- Node2 -->
<g id="node3" class="node">
<title>Node2</title>
<g id="a_node3"><a xlink:href="class_ogre_1_1_allocated_object.html" target="_top" xlink:title="Superclass for all objects that wish to use custom memory allocators when their new / delete operator...">
<polygon fill="none" stroke="#000000" points="53.5,-134.5 53.5,-153.5 124.5,-153.5 124.5,-134.5 53.5,-134.5"/>
<text text-anchor="middle" x="89" y="-141.5" font-family="Helvetica,sans-Serif" font-size="10.00" fill="#000000">BufferAlloc</text>
</a>
</g>
</g>
<!-- Node2&#45;&gt;Node1 -->
<g id="edge2" class="edge">
<title>Node2&#45;&gt;Node1</title>
<path fill="none" stroke="#191970" d="M89,-124.3693C89,-115.681 89,-105.6241 89,-97.5446"/>
<polygon fill="#191970" stroke="#191970" points="85.5001,-124.3906 89,-134.3906 92.5001,-124.3907 85.5001,-124.3906"/>
</g>
</g>
</svg>
