<?xml version="1.0" encoding="UTF-8" standalone="no"?>
<!DOCTYPE svg PUBLIC "-//W3C//DTD SVG 1.1//EN"
 "http://www.w3.org/Graphics/SVG/1.1/DTD/svg11.dtd">
<!-- Generated by graphviz version 2.38.0 (20140413.2041)
 -->
<!-- Title: Ogre::ResourceGroupManager Pages: 1 -->
<svg width="242pt" height="95pt"
 viewBox="0.00 0.00 241.50 95.00" xmlns="http://www.w3.org/2000/svg" xmlns:xlink="http://www.w3.org/1999/xlink">
<g id="graph0" class="graph" transform="scale(1 1) rotate(0) translate(4 91)">
<title>Ogre::ResourceGroupManager</title>
<!-- Node1 -->
<g id="node1" class="node"><title>Node1</title>
<polygon fill="#bfbfbf" stroke="black" points="56,-0.5 56,-19.5 205,-19.5 205,-0.5 56,-0.5"/>
<text text-anchor="middle" x="130.5" y="-7.5" font-family="Helvetica,sans-Serif" font-size="10.00">Ogre::ResourceGroupManager</text>
</g>
<!-- Node2 -->
<g id="node2" class="node"><title>Node2</title>
<g id="a_node2"><a xlink:href="class_ogre_1_1_singleton.html" target="_top" xlink:title="Ogre::Singleton\&lt; Resource\lGroupManager \&gt;">
<polygon fill="none" stroke="black" points="0,-56.5 0,-86.5 135,-86.5 135,-56.5 0,-56.5"/>
<text text-anchor="start" x="8" y="-74.5" font-family="Helvetica,sans-Serif" font-size="10.00">Ogre::Singleton&lt; Resource</text>
<text text-anchor="middle" x="67.5" y="-63.5" font-family="Helvetica,sans-Serif" font-size="10.00">GroupManager &gt;</text>
</a>
</g>
</g>
<!-- Node2&#45;&gt;Node1 -->
<g id="edge1" class="edge"><title>Node2&#45;&gt;Node1</title>
<path fill="none" stroke="midnightblue" d="M89.9469,-49.3002C100.76,-39.0881 113.128,-27.4072 121.333,-19.6578"/>
<polygon fill="midnightblue" stroke="midnightblue" points="87.2971,-46.9885 82.4301,-56.3993 92.1035,-52.0776 87.2971,-46.9885"/>
</g>
<!-- Node3 -->
<g id="node3" class="node"><title>Node3</title>
<g id="a_node3"><a xlink:href="class_ogre_1_1_allocated_object.html" target="_top" xlink:title="Superclass for all objects that wish to use custom memory allocators when their new / delete operator...">
<polygon fill="none" stroke="black" points="153.5,-62 153.5,-81 233.5,-81 233.5,-62 153.5,-62"/>
<text text-anchor="middle" x="193.5" y="-69" font-family="Helvetica,sans-Serif" font-size="10.00">ResourceAlloc</text>
</a>
</g>
</g>
<!-- Node3&#45;&gt;Node1 -->
<g id="edge2" class="edge"><title>Node3&#45;&gt;Node1</title>
<path fill="none" stroke="midnightblue" d="M176.902,-54.8245C164.933,-43.5202 149.234,-28.6928 139.51,-19.5091"/>
<polygon fill="midnightblue" stroke="midnightblue" points="174.8,-57.6534 184.474,-61.9751 179.607,-52.5643 174.8,-57.6534"/>
</g>
</g>
</svg>
