<?xml version="1.0" encoding="UTF-8" standalone="no"?>
<!DOCTYPE svg PUBLIC "-//W3C//DTD SVG 1.1//EN"
 "http://www.w3.org/Graphics/SVG/1.1/DTD/svg11.dtd">
<!-- Generated by graphviz version 2.38.0 (20140413.2041)
 -->
<!-- Title: Ogre::D3D9Resource Pages: 1 -->
<svg width="517pt" height="260pt"
 viewBox="0.00 0.00 517.00 260.00" xmlns="http://www.w3.org/2000/svg" xmlns:xlink="http://www.w3.org/1999/xlink">
<g id="graph0" class="graph" transform="scale(1 1) rotate(0) translate(4 256)">
<title>Ogre::D3D9Resource</title>
<!-- Node1 -->
<g id="node1" class="node"><title>Node1</title>
<polygon fill="#bfbfbf" stroke="black" points="0,-106.5 0,-125.5 111,-125.5 111,-106.5 0,-106.5"/>
<text text-anchor="middle" x="55.5" y="-113.5" font-family="Helvetica,sans-Serif" font-size="10.00">Ogre::D3D9Resource</text>
</g>
<!-- Node2 -->
<g id="node2" class="node"><title>Node2</title>
<g id="a_node2"><a xlink:href="class_ogre_1_1_d3_d9_gpu_program.html" target="_top" xlink:title="Direct3D implementation of a few things common to low&#45;level vertex &amp; fragment programs. ">
<polygon fill="none" stroke="black" points="165.5,-213.5 165.5,-232.5 289.5,-232.5 289.5,-213.5 165.5,-213.5"/>
<text text-anchor="middle" x="227.5" y="-220.5" font-family="Helvetica,sans-Serif" font-size="10.00">Ogre::D3D9GpuProgram</text>
</a>
</g>
</g>
<!-- Node1&#45;&gt;Node2 -->
<g id="edge1" class="edge"><title>Node1&#45;&gt;Node2</title>
<path fill="none" stroke="midnightblue" d="M69.7599,-133.711C85.8064,-153.853 114.719,-186.239 147,-204 154.087,-207.899 161.959,-211.004 169.916,-213.475"/>
<polygon fill="midnightblue" stroke="midnightblue" points="72.4082,-131.415 63.5122,-125.661 66.8782,-135.707 72.4082,-131.415"/>
</g>
<!-- Node5 -->
<g id="node5" class="node"><title>Node5</title>
<g id="a_node5"><a xlink:href="class_ogre_1_1_d3_d9_hardware_index_buffer.html" target="_top" xlink:title="Ogre::D3D9HardwareIndexBuffer">
<polygon fill="none" stroke="black" points="147,-175.5 147,-194.5 308,-194.5 308,-175.5 147,-175.5"/>
<text text-anchor="middle" x="227.5" y="-182.5" font-family="Helvetica,sans-Serif" font-size="10.00">Ogre::D3D9HardwareIndexBuffer</text>
</a>
</g>
</g>
<!-- Node1&#45;&gt;Node5 -->
<g id="edge4" class="edge"><title>Node1&#45;&gt;Node5</title>
<path fill="none" stroke="midnightblue" d="M79.5017,-130.994C97.3063,-142.025 122.912,-156.666 147,-166 156.659,-169.743 167.274,-172.896 177.515,-175.492"/>
<polygon fill="midnightblue" stroke="midnightblue" points="81.277,-127.976 70.9515,-125.601 77.5428,-133.896 81.277,-127.976"/>
</g>
<!-- Node6 -->
<g id="node6" class="node"><title>Node6</title>
<g id="a_node6"><a xlink:href="class_ogre_1_1_d3_d9_hardware_occlusion_query.html" target="_top" xlink:title="This is a class that is the DirectX9 implementation of hardware occlusion testing. ">
<polygon fill="none" stroke="black" points="150,-126 150,-156 305,-156 305,-126 150,-126"/>
<text text-anchor="start" x="158" y="-144" font-family="Helvetica,sans-Serif" font-size="10.00">Ogre::D3D9HardwareOcclusion</text>
<text text-anchor="middle" x="227.5" y="-133" font-family="Helvetica,sans-Serif" font-size="10.00">Query</text>
</a>
</g>
</g>
<!-- Node1&#45;&gt;Node6 -->
<g id="edge5" class="edge"><title>Node1&#45;&gt;Node6</title>
<path fill="none" stroke="midnightblue" d="M121.231,-125.519C130.601,-126.897 140.319,-128.326 149.894,-129.734"/>
<polygon fill="midnightblue" stroke="midnightblue" points="121.628,-122.04 111.225,-124.048 120.609,-128.966 121.628,-122.04"/>
</g>
<!-- Node7 -->
<g id="node7" class="node"><title>Node7</title>
<g id="a_node7"><a xlink:href="class_ogre_1_1_d3_d9_hardware_vertex_buffer.html" target="_top" xlink:title="Specialisation of HardwareVertexBuffer for D3D9. ">
<polygon fill="none" stroke="black" points="157.5,-77 157.5,-107 297.5,-107 297.5,-77 157.5,-77"/>
<text text-anchor="start" x="165.5" y="-95" font-family="Helvetica,sans-Serif" font-size="10.00">Ogre::D3D9HardwareVertex</text>
<text text-anchor="middle" x="227.5" y="-84" font-family="Helvetica,sans-Serif" font-size="10.00">Buffer</text>
</a>
</g>
</g>
<!-- Node1&#45;&gt;Node7 -->
<g id="edge6" class="edge"><title>Node1&#45;&gt;Node7</title>
<path fill="none" stroke="midnightblue" d="M121.375,-106.841C133.112,-105.184 145.393,-103.45 157.249,-101.777"/>
<polygon fill="midnightblue" stroke="midnightblue" points="120.637,-103.411 111.225,-108.274 121.616,-110.342 120.637,-103.411"/>
</g>
<!-- Node8 -->
<g id="node8" class="node"><title>Node8</title>
<g id="a_node8"><a xlink:href="class_ogre_1_1_d3_d9_texture.html" target="_top" xlink:title="Ogre::D3D9Texture">
<polygon fill="none" stroke="black" points="176.5,-38.5 176.5,-57.5 278.5,-57.5 278.5,-38.5 176.5,-38.5"/>
<text text-anchor="middle" x="227.5" y="-45.5" font-family="Helvetica,sans-Serif" font-size="10.00">Ogre::D3D9Texture</text>
</a>
</g>
</g>
<!-- Node1&#45;&gt;Node8 -->
<g id="edge7" class="edge"><title>Node1&#45;&gt;Node8</title>
<path fill="none" stroke="midnightblue" d="M80.2529,-101.36C98.0859,-90.8814 123.393,-77.0767 147,-68 157.627,-63.914 169.376,-60.4286 180.508,-57.5675"/>
<polygon fill="midnightblue" stroke="midnightblue" points="78.4478,-98.3616 71.6573,-106.494 82.0373,-104.371 78.4478,-98.3616"/>
</g>
<!-- Node9 -->
<g id="node9" class="node"><title>Node9</title>
<g id="a_node9"><a xlink:href="class_ogre_1_1_d3_d9_vertex_declaration.html" target="_top" xlink:title="Specialisation of VertexDeclaration for D3D9. ">
<polygon fill="none" stroke="black" points="154,-0.5 154,-19.5 301,-19.5 301,-0.5 154,-0.5"/>
<text text-anchor="middle" x="227.5" y="-7.5" font-family="Helvetica,sans-Serif" font-size="10.00">Ogre::D3D9VertexDeclaration</text>
</a>
</g>
</g>
<!-- Node1&#45;&gt;Node9 -->
<g id="edge8" class="edge"><title>Node1&#45;&gt;Node9</title>
<path fill="none" stroke="midnightblue" d="M69.8049,-98.4942C85.8939,-78.5853 114.847,-46.5711 147,-29 154.098,-25.1211 161.976,-22.0275 169.936,-19.562"/>
<polygon fill="midnightblue" stroke="midnightblue" points="66.9759,-96.4296 63.5387,-106.451 72.4754,-100.76 66.9759,-96.4296"/>
</g>
<!-- Node3 -->
<g id="node3" class="node"><title>Node3</title>
<g id="a_node3"><a xlink:href="class_ogre_1_1_d3_d9_gpu_fragment_program.html" target="_top" xlink:title="Direct3D implementation of low&#45;level fragment programs. ">
<polygon fill="none" stroke="black" points="344,-232.5 344,-251.5 509,-251.5 509,-232.5 344,-232.5"/>
<text text-anchor="middle" x="426.5" y="-239.5" font-family="Helvetica,sans-Serif" font-size="10.00">Ogre::D3D9GpuFragmentProgram</text>
</a>
</g>
</g>
<!-- Node2&#45;&gt;Node3 -->
<g id="edge2" class="edge"><title>Node2&#45;&gt;Node3</title>
<path fill="none" stroke="midnightblue" d="M299.927,-229.889C314.123,-231.258 329.133,-232.706 343.646,-234.105"/>
<polygon fill="midnightblue" stroke="midnightblue" points="300.042,-226.384 289.752,-228.908 299.37,-233.352 300.042,-226.384"/>
</g>
<!-- Node4 -->
<g id="node4" class="node"><title>Node4</title>
<g id="a_node4"><a xlink:href="class_ogre_1_1_d3_d9_gpu_vertex_program.html" target="_top" xlink:title="Direct3D implementation of low&#45;level vertex programs. ">
<polygon fill="none" stroke="black" points="350.5,-194.5 350.5,-213.5 502.5,-213.5 502.5,-194.5 350.5,-194.5"/>
<text text-anchor="middle" x="426.5" y="-201.5" font-family="Helvetica,sans-Serif" font-size="10.00">Ogre::D3D9GpuVertexProgram</text>
</a>
</g>
</g>
<!-- Node2&#45;&gt;Node4 -->
<g id="edge3" class="edge"><title>Node2&#45;&gt;Node4</title>
<path fill="none" stroke="midnightblue" d="M299.831,-216.12C316.275,-214.534 333.814,-212.843 350.412,-211.242"/>
<polygon fill="midnightblue" stroke="midnightblue" points="299.37,-212.648 289.752,-217.092 300.042,-219.616 299.37,-212.648"/>
</g>
</g>
</svg>
