<?xml version="1.0" encoding="UTF-8" standalone="no"?>
<!DOCTYPE svg PUBLIC "-//W3C//DTD SVG 1.1//EN"
 "http://www.w3.org/Graphics/SVG/1.1/DTD/svg11.dtd">
<!-- Generated by graphviz version 2.38.0 (20140413.2041)
 -->
<!-- Title: Ogre::v1::InstanceBatch Pages: 1 -->
<svg width="825pt" height="142pt"
 viewBox="0.00 0.00 825.00 142.00" xmlns="http://www.w3.org/2000/svg" xmlns:xlink="http://www.w3.org/1999/xlink">
<g id="graph0" class="graph" transform="scale(1 1) rotate(0) translate(4 138)">
<title>Ogre::v1::InstanceBatch</title>
<!-- Node1 -->
<g id="node1" class="node"><title>Node1</title>
<polygon fill="#bfbfbf" stroke="black" points="294,-57.5 294,-76.5 417,-76.5 417,-57.5 294,-57.5"/>
<text text-anchor="middle" x="355.5" y="-64.5" font-family="Helvetica,sans-Serif" font-size="10.00">Ogre::v1::InstanceBatch</text>
</g>
<!-- Node7 -->
<g id="node7" class="node"><title>Node7</title>
<g id="a_node7"><a xlink:href="class_ogre_1_1v1_1_1_base_instance_batch_v_t_f.html" target="_top" xlink:title="Instancing implementation using vertex texture through Vertex Texture Fetch (VTF) This implementation...">
<polygon fill="none" stroke="black" points="453,-95.5 453,-114.5 617,-114.5 617,-95.5 453,-95.5"/>
<text text-anchor="middle" x="535" y="-102.5" font-family="Helvetica,sans-Serif" font-size="10.00">Ogre::v1::BaseInstanceBatchVTF</text>
</a>
</g>
</g>
<!-- Node1&#45;&gt;Node7 -->
<g id="edge6" class="edge"><title>Node1&#45;&gt;Node7</title>
<path fill="none" stroke="midnightblue" d="M411.397,-78.7526C436.495,-84.1258 465.843,-90.4086 489.531,-95.4799"/>
<polygon fill="midnightblue" stroke="midnightblue" points="411.802,-75.26 401.291,-76.589 410.336,-82.1049 411.802,-75.26"/>
</g>
<!-- Node10 -->
<g id="node10" class="node"><title>Node10</title>
<g id="a_node10"><a xlink:href="class_ogre_1_1v1_1_1_instance_batch_h_w.html" target="_top" xlink:title="This is technique requires true instancing hardware support. ">
<polygon fill="none" stroke="black" points="465,-57.5 465,-76.5 605,-76.5 605,-57.5 465,-57.5"/>
<text text-anchor="middle" x="535" y="-64.5" font-family="Helvetica,sans-Serif" font-size="10.00">Ogre::v1::InstanceBatchHW</text>
</a>
</g>
</g>
<!-- Node1&#45;&gt;Node10 -->
<g id="edge9" class="edge"><title>Node1&#45;&gt;Node10</title>
<path fill="none" stroke="midnightblue" d="M427.331,-67C439.686,-67 452.524,-67 464.833,-67"/>
<polygon fill="midnightblue" stroke="midnightblue" points="427.089,-63.5001 417.089,-67 427.089,-70.5001 427.089,-63.5001"/>
</g>
<!-- Node11 -->
<g id="node11" class="node"><title>Node11</title>
<g id="a_node11"><a xlink:href="class_ogre_1_1v1_1_1_instance_batch_shader.html" target="_top" xlink:title="This is the same technique the old &quot;InstancedGeometry&quot; implementation used (with improvements). ">
<polygon fill="none" stroke="black" points="458,-19.5 458,-38.5 612,-38.5 612,-19.5 458,-19.5"/>
<text text-anchor="middle" x="535" y="-26.5" font-family="Helvetica,sans-Serif" font-size="10.00">Ogre::v1::InstanceBatchShader</text>
</a>
</g>
</g>
<!-- Node1&#45;&gt;Node11 -->
<g id="edge10" class="edge"><title>Node1&#45;&gt;Node11</title>
<path fill="none" stroke="midnightblue" d="M411.397,-55.2474C436.495,-49.8742 465.843,-43.5914 489.531,-38.5201"/>
<polygon fill="midnightblue" stroke="midnightblue" points="410.336,-51.8951 401.291,-57.411 411.802,-58.74 410.336,-51.8951"/>
</g>
<!-- Node2 -->
<g id="node2" class="node"><title>Node2</title>
<g id="a_node2"><a xlink:href="class_ogre_1_1_renderable.html" target="_top" xlink:title="Abstract class defining the interface all renderable objects must implement. ">
<polygon fill="none" stroke="black" points="157,-76.5 157,-95.5 250,-95.5 250,-76.5 157,-76.5"/>
<text text-anchor="middle" x="203.5" y="-83.5" font-family="Helvetica,sans-Serif" font-size="10.00">Ogre::Renderable</text>
</a>
</g>
</g>
<!-- Node2&#45;&gt;Node1 -->
<g id="edge1" class="edge"><title>Node2&#45;&gt;Node1</title>
<path fill="none" stroke="midnightblue" d="M260.512,-78.9052C271.356,-77.5315 282.768,-76.086 293.756,-74.6942"/>
<polygon fill="midnightblue" stroke="midnightblue" points="259.801,-75.4672 250.32,-80.1961 260.681,-82.4117 259.801,-75.4672"/>
</g>
<!-- Node3 -->
<g id="node3" class="node"><title>Node3</title>
<g id="a_node3"><a xlink:href="class_ogre_1_1_movable_object.html" target="_top" xlink:title="Abstract class defining a movable object in a scene. ">
<polygon fill="none" stroke="black" points="149,-38.5 149,-57.5 258,-57.5 258,-38.5 149,-38.5"/>
<text text-anchor="middle" x="203.5" y="-45.5" font-family="Helvetica,sans-Serif" font-size="10.00">Ogre::MovableObject</text>
</a>
</g>
</g>
<!-- Node3&#45;&gt;Node1 -->
<g id="edge2" class="edge"><title>Node3&#45;&gt;Node1</title>
<path fill="none" stroke="midnightblue" d="M268.371,-56.0903C276.786,-57.1562 285.392,-58.2464 293.754,-59.3055"/>
<polygon fill="midnightblue" stroke="midnightblue" points="268.59,-52.5902 258.23,-54.8058 267.711,-59.5347 268.59,-52.5902"/>
</g>
<!-- Node4 -->
<g id="node4" class="node"><title>Node4</title>
<g id="a_node4"><a xlink:href="class_ogre_1_1_animable_object.html" target="_top" xlink:title="Defines an interface to classes which have one or more AnimableValue instances to expose...">
<polygon fill="none" stroke="black" points="0,-76.5 0,-95.5 113,-95.5 113,-76.5 0,-76.5"/>
<text text-anchor="middle" x="56.5" y="-83.5" font-family="Helvetica,sans-Serif" font-size="10.00">Ogre::AnimableObject</text>
</a>
</g>
</g>
<!-- Node4&#45;&gt;Node3 -->
<g id="edge3" class="edge"><title>Node4&#45;&gt;Node3</title>
<path fill="none" stroke="midnightblue" d="M103.993,-73.8157C124.124,-68.54 147.338,-62.4562 166.173,-57.5201"/>
<polygon fill="midnightblue" stroke="midnightblue" points="102.876,-70.4902 94.0896,-76.411 104.65,-77.2615 102.876,-70.4902"/>
</g>
<!-- Node5 -->
<g id="node5" class="node"><title>Node5</title>
<g id="a_node5"><a xlink:href="class_ogre_1_1_allocated_object.html" target="_top" xlink:title="Superclass for all objects that wish to use custom memory allocators when their new / delete operator...">
<polygon fill="none" stroke="black" points="19,-38.5 19,-57.5 94,-57.5 94,-38.5 19,-38.5"/>
<text text-anchor="middle" x="56.5" y="-45.5" font-family="Helvetica,sans-Serif" font-size="10.00">MovableAlloc</text>
</a>
</g>
</g>
<!-- Node5&#45;&gt;Node3 -->
<g id="edge4" class="edge"><title>Node5&#45;&gt;Node3</title>
<path fill="none" stroke="midnightblue" d="M104.17,-48C118.439,-48 134.243,-48 148.932,-48"/>
<polygon fill="midnightblue" stroke="midnightblue" points="104.09,-44.5001 94.0896,-48 104.09,-51.5001 104.09,-44.5001"/>
</g>
<!-- Node6 -->
<g id="node6" class="node"><title>Node6</title>
<g id="a_node6"><a xlink:href="class_ogre_1_1_id_object.html" target="_top" xlink:title="Ogre::IdObject">
<polygon fill="none" stroke="black" points="16.5,-0.5 16.5,-19.5 96.5,-19.5 96.5,-0.5 16.5,-0.5"/>
<text text-anchor="middle" x="56.5" y="-7.5" font-family="Helvetica,sans-Serif" font-size="10.00">Ogre::IdObject</text>
</a>
</g>
</g>
<!-- Node6&#45;&gt;Node3 -->
<g id="edge5" class="edge"><title>Node6&#45;&gt;Node3</title>
<path fill="none" stroke="midnightblue" d="M103.993,-22.1843C124.124,-27.46 147.338,-33.5438 166.173,-38.4799"/>
<polygon fill="midnightblue" stroke="midnightblue" points="104.65,-18.7385 94.0896,-19.589 102.876,-25.5098 104.65,-18.7385"/>
</g>
<!-- Node8 -->
<g id="node8" class="node"><title>Node8</title>
<g id="a_node8"><a xlink:href="class_ogre_1_1v1_1_1_instance_batch_h_w___v_t_f.html" target="_top" xlink:title="Instancing implementation using vertex texture through Vertex Texture Fetch (VTF) and hardware instan...">
<polygon fill="none" stroke="black" points="653,-114.5 653,-133.5 817,-133.5 817,-114.5 653,-114.5"/>
<text text-anchor="middle" x="735" y="-121.5" font-family="Helvetica,sans-Serif" font-size="10.00">Ogre::v1::InstanceBatchHW_VTF</text>
</a>
</g>
</g>
<!-- Node7&#45;&gt;Node8 -->
<g id="edge7" class="edge"><title>Node7&#45;&gt;Node8</title>
<path fill="none" stroke="midnightblue" d="M627.085,-113.74C635.63,-114.56 644.254,-115.388 652.7,-116.199"/>
<polygon fill="midnightblue" stroke="midnightblue" points="627.394,-110.254 617.105,-112.783 626.725,-117.222 627.394,-110.254"/>
</g>
<!-- Node9 -->
<g id="node9" class="node"><title>Node9</title>
<g id="a_node9"><a xlink:href="class_ogre_1_1v1_1_1_instance_batch_v_t_f.html" target="_top" xlink:title="Ogre::v1::InstanceBatchVTF">
<polygon fill="none" stroke="black" points="664,-76.5 664,-95.5 806,-95.5 806,-76.5 664,-76.5"/>
<text text-anchor="middle" x="735" y="-83.5" font-family="Helvetica,sans-Serif" font-size="10.00">Ogre::v1::InstanceBatchVTF</text>
</a>
</g>
</g>
<!-- Node7&#45;&gt;Node9 -->
<g id="edge8" class="edge"><title>Node7&#45;&gt;Node9</title>
<path fill="none" stroke="midnightblue" d="M627.338,-96.2352C639.584,-95.0602 651.986,-93.87 663.791,-92.7372"/>
<polygon fill="midnightblue" stroke="midnightblue" points="626.725,-92.7779 617.105,-97.2172 627.394,-99.7459 626.725,-92.7779"/>
</g>
</g>
</svg>
