<?xml version="1.0" encoding="UTF-8" standalone="no"?>
<!DOCTYPE svg PUBLIC "-//W3C//DTD SVG 1.1//EN"
 "http://www.w3.org/Graphics/SVG/1.1/DTD/svg11.dtd">
<!-- Generated by graphviz version 2.38.0 (20140413.2041)
 -->
<!-- Title: Ogre::GL3PlusSupport Pages: 1 -->
<svg width="295pt" height="180pt"
 viewBox="0.00 0.00 295.00 180.00" xmlns="http://www.w3.org/2000/svg" xmlns:xlink="http://www.w3.org/1999/xlink">
<g id="graph0" class="graph" transform="scale(1 1) rotate(0) translate(4 176)">
<title>Ogre::GL3PlusSupport</title>
<!-- Node1 -->
<g id="node1" class="node"><title>Node1</title>
<polygon fill="#bfbfbf" stroke="black" points="0,-76.5 0,-95.5 115,-95.5 115,-76.5 0,-76.5"/>
<text text-anchor="middle" x="57.5" y="-83.5" font-family="Helvetica,sans-Serif" font-size="10.00">Ogre::GL3PlusSupport</text>
</g>
<!-- Node2 -->
<g id="node2" class="node"><title>Node2</title>
<g id="a_node2"><a xlink:href="class_ogre_1_1_g_l_x_g_l_support.html" target="_top" xlink:title="Ogre::GLXGLSupport">
<polygon fill="none" stroke="black" points="164,-152.5 164,-171.5 274,-171.5 274,-152.5 164,-152.5"/>
<text text-anchor="middle" x="219" y="-159.5" font-family="Helvetica,sans-Serif" font-size="10.00">Ogre::GLXGLSupport</text>
</a>
</g>
</g>
<!-- Node1&#45;&gt;Node2 -->
<g id="edge1" class="edge"><title>Node1&#45;&gt;Node2</title>
<path fill="none" stroke="midnightblue" d="M79.9776,-101.614C98.1488,-114.227 125.268,-131.684 151,-143 159.301,-146.65 168.489,-149.792 177.331,-152.411"/>
<polygon fill="midnightblue" stroke="midnightblue" points="81.533,-98.4273 71.3456,-95.5173 77.4947,-104.145 81.533,-98.4273"/>
</g>
<!-- Node3 -->
<g id="node3" class="node"><title>Node3</title>
<g id="a_node3"><a xlink:href="class_ogre_1_1_g_t_k_g_l_support.html" target="_top" xlink:title="GL support in a GTK window. ">
<polygon fill="none" stroke="black" points="164,-114.5 164,-133.5 274,-133.5 274,-114.5 164,-114.5"/>
<text text-anchor="middle" x="219" y="-121.5" font-family="Helvetica,sans-Serif" font-size="10.00">Ogre::GTKGLSupport</text>
</a>
</g>
</g>
<!-- Node1&#45;&gt;Node3 -->
<g id="edge2" class="edge"><title>Node1&#45;&gt;Node3</title>
<path fill="none" stroke="midnightblue" d="M108.734,-97.968C131.086,-103.293 157.038,-109.476 178.041,-114.48"/>
<polygon fill="midnightblue" stroke="midnightblue" points="109.288,-94.502 98.7486,-95.589 107.665,-101.311 109.288,-94.502"/>
</g>
<!-- Node4 -->
<g id="node4" class="node"><title>Node4</title>
<g id="a_node4"><a xlink:href="class_ogre_1_1_o_s_x_g_l3_plus_support.html" target="_top" xlink:title="Ogre::OSXGL3PlusSupport">
<polygon fill="none" stroke="black" points="151,-76.5 151,-95.5 287,-95.5 287,-76.5 151,-76.5"/>
<text text-anchor="middle" x="219" y="-83.5" font-family="Helvetica,sans-Serif" font-size="10.00">Ogre::OSXGL3PlusSupport</text>
</a>
</g>
</g>
<!-- Node1&#45;&gt;Node4 -->
<g id="edge3" class="edge"><title>Node1&#45;&gt;Node4</title>
<path fill="none" stroke="midnightblue" d="M125.35,-86C133.788,-86 142.423,-86 150.865,-86"/>
<polygon fill="midnightblue" stroke="midnightblue" points="125.183,-82.5001 115.183,-86 125.183,-89.5001 125.183,-82.5001"/>
</g>
<!-- Node5 -->
<g id="node5" class="node"><title>Node5</title>
<g id="a_node5"><a xlink:href="class_ogre_1_1_s_d_l_g_l_support.html" target="_top" xlink:title="Ogre::SDLGLSupport">
<polygon fill="none" stroke="black" points="164,-38.5 164,-57.5 274,-57.5 274,-38.5 164,-38.5"/>
<text text-anchor="middle" x="219" y="-45.5" font-family="Helvetica,sans-Serif" font-size="10.00">Ogre::SDLGLSupport</text>
</a>
</g>
</g>
<!-- Node1&#45;&gt;Node5 -->
<g id="edge4" class="edge"><title>Node1&#45;&gt;Node5</title>
<path fill="none" stroke="midnightblue" d="M108.734,-74.032C131.086,-68.7069 157.038,-62.5238 178.041,-57.5201"/>
<polygon fill="midnightblue" stroke="midnightblue" points="107.665,-70.6886 98.7486,-76.411 109.288,-77.498 107.665,-70.6886"/>
</g>
<!-- Node6 -->
<g id="node6" class="node"><title>Node6</title>
<g id="a_node6"><a xlink:href="class_ogre_1_1_win32_g_l_support.html" target="_top" xlink:title="Ogre::Win32GLSupport">
<polygon fill="none" stroke="black" points="160,-0.5 160,-19.5 278,-19.5 278,-0.5 160,-0.5"/>
<text text-anchor="middle" x="219" y="-7.5" font-family="Helvetica,sans-Serif" font-size="10.00">Ogre::Win32GLSupport</text>
</a>
</g>
</g>
<!-- Node1&#45;&gt;Node6 -->
<g id="edge5" class="edge"><title>Node1&#45;&gt;Node6</title>
<path fill="none" stroke="midnightblue" d="M79.9776,-70.3862C98.1488,-57.7726 125.268,-40.3157 151,-29 159.301,-25.3498 168.489,-22.2076 177.331,-19.589"/>
<polygon fill="midnightblue" stroke="midnightblue" points="77.4947,-67.8549 71.3456,-76.4827 81.533,-73.5727 77.4947,-67.8549"/>
</g>
</g>
</svg>
