<?xml version="1.0" encoding="UTF-8" standalone="no"?>
<!DOCTYPE svg PUBLIC "-//W3C//DTD SVG 1.1//EN"
 "http://www.w3.org/Graphics/SVG/1.1/DTD/svg11.dtd">
<!-- Generated by graphviz version 2.40.1 (20161225.0304)
 -->
<!-- Title: Ogre::PixelFormatToShaderType Pages: 1 -->
<svg width="389pt" height="176pt"
 viewBox="0.00 0.00 389.00 175.50" xmlns="http://www.w3.org/2000/svg" xmlns:xlink="http://www.w3.org/1999/xlink">
<g id="graph0" class="graph" transform="scale(1 1) rotate(0) translate(4 171.5)">
<title>Ogre::PixelFormatToShaderType</title>
<!-- Node0 -->
<g id="node1" class="node">
<title>Node0</title>
<polygon fill="#bfbfbf" stroke="#000000" points="0,-68.5 0,-87.5 160,-87.5 160,-68.5 0,-68.5"/>
<text text-anchor="middle" x="80" y="-75.5" font-family="Helvetica,sans-Serif" font-size="10.00" fill="#000000">Ogre::PixelFormatToShaderType</text>
</g>
<!-- Node1 -->
<g id="node2" class="node">
<title>Node1</title>
<g id="a_node2"><a xlink:href="class_ogre_1_1_d3_d11_pixel_format_to_shader_type.html" target="_top" xlink:title="Ogre::D3D11PixelFormatTo\lShaderType">
<polygon fill="none" stroke="#000000" points="219.5,-137 219.5,-167 357.5,-167 357.5,-137 219.5,-137"/>
<text text-anchor="start" x="227.5" y="-155" font-family="Helvetica,sans-Serif" font-size="10.00" fill="#000000">Ogre::D3D11PixelFormatTo</text>
<text text-anchor="middle" x="288.5" y="-144" font-family="Helvetica,sans-Serif" font-size="10.00" fill="#000000">ShaderType</text>
</a>
</g>
</g>
<!-- Node0&#45;&gt;Node1 -->
<g id="edge1" class="edge">
<title>Node0&#45;&gt;Node1</title>
<path fill="none" stroke="#191970" d="M109.0116,-91.9799C132.186,-102.7848 165.6881,-117.6033 196,-128 205.2591,-131.1758 215.1635,-134.1625 224.924,-136.8786"/>
<polygon fill="#191970" stroke="#191970" points="110.2897,-88.7131 99.7514,-87.6195 107.3076,-95.0461 110.2897,-88.7131"/>
</g>
<!-- Node2 -->
<g id="node3" class="node">
<title>Node2</title>
<g id="a_node3"><a xlink:href="class_ogre_1_1_g_l3_plus_pixel_format_to_shader_type.html" target="_top" xlink:title="Ogre::GL3PlusPixelFormat\lToShaderType">
<polygon fill="none" stroke="#000000" points="221.5,-88 221.5,-118 355.5,-118 355.5,-88 221.5,-88"/>
<text text-anchor="start" x="229.5" y="-106" font-family="Helvetica,sans-Serif" font-size="10.00" fill="#000000">Ogre::GL3PlusPixelFormat</text>
<text text-anchor="middle" x="288.5" y="-95" font-family="Helvetica,sans-Serif" font-size="10.00" fill="#000000">ToShaderType</text>
</a>
</g>
</g>
<!-- Node0&#45;&gt;Node2 -->
<g id="edge2" class="edge">
<title>Node0&#45;&gt;Node2</title>
<path fill="none" stroke="#191970" d="M169.5389,-88.7361C186.8592,-90.8129 204.7324,-92.9559 221.194,-94.9297"/>
<polygon fill="#191970" stroke="#191970" points="169.7653,-85.2382 159.4197,-87.5227 168.9319,-92.1885 169.7653,-85.2382"/>
</g>
<!-- Node3 -->
<g id="node4" class="node">
<title>Node3</title>
<g id="a_node4"><a xlink:href="class_ogre_1_1_metal_pixel_format_to_shader_type.html" target="_top" xlink:title="Ogre::MetalPixelFormatTo\lShaderType">
<polygon fill="none" stroke="#000000" points="223,-39 223,-69 354,-69 354,-39 223,-39"/>
<text text-anchor="start" x="231" y="-57" font-family="Helvetica,sans-Serif" font-size="10.00" fill="#000000">Ogre::MetalPixelFormatTo</text>
<text text-anchor="middle" x="288.5" y="-46" font-family="Helvetica,sans-Serif" font-size="10.00" fill="#000000">ShaderType</text>
</a>
</g>
</g>
<!-- Node0&#45;&gt;Node3 -->
<g id="edge3" class="edge">
<title>Node0&#45;&gt;Node3</title>
<path fill="none" stroke="#191970" d="M170.34,-67.6011C188.009,-65.5673 206.2208,-63.471 222.8959,-61.5515"/>
<polygon fill="#191970" stroke="#191970" points="169.5494,-64.169 160.0152,-68.7896 170.3499,-71.123 169.5494,-64.169"/>
</g>
<!-- Node4 -->
<g id="node5" class="node">
<title>Node4</title>
<g id="a_node5"><a xlink:href="class_ogre_1_1_n_u_l_l_pixel_format_to_shader_type.html" target="_top" xlink:title="Ogre::NULLPixelFormatToShaderType">
<polygon fill="none" stroke="#000000" points="196,-.5 196,-19.5 381,-19.5 381,-.5 196,-.5"/>
<text text-anchor="middle" x="288.5" y="-7.5" font-family="Helvetica,sans-Serif" font-size="10.00" fill="#000000">Ogre::NULLPixelFormatToShaderType</text>
</a>
</g>
</g>
<!-- Node0&#45;&gt;Node4 -->
<g id="edge4" class="edge">
<title>Node0&#45;&gt;Node4</title>
<path fill="none" stroke="#191970" d="M109.3795,-64.1198C132.5109,-53.6159 165.7816,-39.4351 196,-30 208.8604,-25.9846 222.9726,-22.4896 236.2152,-19.5935"/>
<polygon fill="#191970" stroke="#191970" points="107.7508,-61.0163 100.1253,-68.3717 110.6734,-67.377 107.7508,-61.0163"/>
</g>
</g>
</svg>
