<?xml version="1.0" encoding="UTF-8" standalone="no"?>
<!DOCTYPE svg PUBLIC "-//W3C//DTD SVG 1.1//EN"
 "http://www.w3.org/Graphics/SVG/1.1/DTD/svg11.dtd">
<!-- Generated by graphviz version 2.38.0 (20140413.2041)
 -->
<!-- Title: Ogre::ConstBufferPacked Pages: 1 -->
<svg width="612pt" height="154pt"
 viewBox="0.00 0.00 612.00 154.00" xmlns="http://www.w3.org/2000/svg" xmlns:xlink="http://www.w3.org/1999/xlink">
<g id="graph0" class="graph" transform="scale(1 1) rotate(0) translate(4 150)">
<title>Ogre::ConstBufferPacked</title>
<!-- Node1 -->
<g id="node1" class="node"><title>Node1</title>
<polygon fill="#bfbfbf" stroke="black" points="279,-60.5 279,-79.5 408,-79.5 408,-60.5 279,-60.5"/>
<text text-anchor="middle" x="343.5" y="-67.5" font-family="Helvetica,sans-Serif" font-size="10.00">Ogre::ConstBufferPacked</text>
</g>
<!-- Node5 -->
<g id="node5" class="node"><title>Node5</title>
<g id="a_node5"><a xlink:href="class_ogre_1_1_d3_d11_const_buffer_packed.html" target="_top" xlink:title="Ogre::D3D11ConstBufferPacked">
<polygon fill="none" stroke="black" points="444,-126.5 444,-145.5 604,-145.5 604,-126.5 444,-126.5"/>
<text text-anchor="middle" x="524" y="-133.5" font-family="Helvetica,sans-Serif" font-size="10.00">Ogre::D3D11ConstBufferPacked</text>
</a>
</g>
</g>
<!-- Node1&#45;&gt;Node5 -->
<g id="edge4" class="edge"><title>Node1&#45;&gt;Node5</title>
<path fill="none" stroke="midnightblue" d="M370.983,-84.342C390.677,-94.5508 418.449,-108 444,-117 454.245,-120.609 465.474,-123.765 476.168,-126.415"/>
<polygon fill="midnightblue" stroke="midnightblue" points="372.489,-81.1797 362.009,-79.6245 369.232,-87.3757 372.489,-81.1797"/>
</g>
<!-- Node6 -->
<g id="node6" class="node"><title>Node6</title>
<g id="a_node6"><a xlink:href="class_ogre_1_1_g_l3_plus_const_buffer_packed.html" target="_top" xlink:title="Ogre::GL3PlusConstBuffer\lPacked">
<polygon fill="none" stroke="black" points="457,-77 457,-107 591,-107 591,-77 457,-77"/>
<text text-anchor="start" x="465" y="-95" font-family="Helvetica,sans-Serif" font-size="10.00">Ogre::GL3PlusConstBuffer</text>
<text text-anchor="middle" x="524" y="-84" font-family="Helvetica,sans-Serif" font-size="10.00">Packed</text>
</a>
</g>
</g>
<!-- Node1&#45;&gt;Node6 -->
<g id="edge5" class="edge"><title>Node1&#45;&gt;Node6</title>
<path fill="none" stroke="midnightblue" d="M418.333,-79.0998C431.126,-80.6766 444.356,-82.3072 456.926,-83.8565"/>
<polygon fill="midnightblue" stroke="midnightblue" points="418.54,-75.5989 408.187,-77.8493 417.683,-82.5464 418.54,-75.5989"/>
</g>
<!-- Node7 -->
<g id="node7" class="node"><title>Node7</title>
<g id="a_node7"><a xlink:href="class_ogre_1_1_metal_const_buffer_packed.html" target="_top" xlink:title="Ogre::MetalConstBufferPacked">
<polygon fill="none" stroke="black" points="447.5,-38.5 447.5,-57.5 600.5,-57.5 600.5,-38.5 447.5,-38.5"/>
<text text-anchor="middle" x="524" y="-45.5" font-family="Helvetica,sans-Serif" font-size="10.00">Ogre::MetalConstBufferPacked</text>
</a>
</g>
</g>
<!-- Node1&#45;&gt;Node7 -->
<g id="edge6" class="edge"><title>Node1&#45;&gt;Node7</title>
<path fill="none" stroke="midnightblue" d="M418.152,-60.9224C427.822,-59.7307 437.743,-58.5078 447.444,-57.3122"/>
<polygon fill="midnightblue" stroke="midnightblue" points="417.683,-57.4536 408.187,-62.1507 418.54,-64.4011 417.683,-57.4536"/>
</g>
<!-- Node8 -->
<g id="node8" class="node"><title>Node8</title>
<g id="a_node8"><a xlink:href="class_ogre_1_1_n_u_l_l_const_buffer_packed.html" target="_top" xlink:title="Ogre::NULLConstBufferPacked">
<polygon fill="none" stroke="black" points="446.5,-0.5 446.5,-19.5 601.5,-19.5 601.5,-0.5 446.5,-0.5"/>
<text text-anchor="middle" x="524" y="-7.5" font-family="Helvetica,sans-Serif" font-size="10.00">Ogre::NULLConstBufferPacked</text>
</a>
</g>
</g>
<!-- Node1&#45;&gt;Node8 -->
<g id="edge7" class="edge"><title>Node1&#45;&gt;Node8</title>
<path fill="none" stroke="midnightblue" d="M374.393,-56.2593C393.918,-47.6411 420.129,-36.7372 444,-29 454.869,-25.4769 466.77,-22.2811 477.96,-19.5583"/>
<polygon fill="midnightblue" stroke="midnightblue" points="372.815,-53.1307 365.113,-60.4054 375.671,-59.5218 372.815,-53.1307"/>
</g>
<!-- Node2 -->
<g id="node2" class="node"><title>Node2</title>
<g id="a_node2"><a xlink:href="class_ogre_1_1_buffer_packed.html" target="_top" xlink:title="Ogre::BufferPacked">
<polygon fill="none" stroke="black" points="140,-60.5 140,-79.5 243,-79.5 243,-60.5 140,-60.5"/>
<text text-anchor="middle" x="191.5" y="-67.5" font-family="Helvetica,sans-Serif" font-size="10.00">Ogre::BufferPacked</text>
</a>
</g>
</g>
<!-- Node2&#45;&gt;Node1 -->
<g id="edge1" class="edge"><title>Node2&#45;&gt;Node1</title>
<path fill="none" stroke="midnightblue" d="M253.339,-70C261.707,-70 270.319,-70 278.737,-70"/>
<polygon fill="midnightblue" stroke="midnightblue" points="253.283,-66.5001 243.283,-70 253.283,-73.5001 253.283,-66.5001"/>
</g>
<!-- Node3 -->
<g id="node3" class="node"><title>Node3</title>
<g id="a_node3"><a xlink:href="struct_ogre_1_1_gpu_resource.html" target="_top" xlink:title="Ogre::GpuResource">
<polygon fill="none" stroke="black" points="0,-79.5 0,-98.5 104,-98.5 104,-79.5 0,-79.5"/>
<text text-anchor="middle" x="52" y="-86.5" font-family="Helvetica,sans-Serif" font-size="10.00">Ogre::GpuResource</text>
</a>
</g>
</g>
<!-- Node3&#45;&gt;Node2 -->
<g id="edge2" class="edge"><title>Node3&#45;&gt;Node2</title>
<path fill="none" stroke="midnightblue" d="M114.13,-80.553C122.678,-79.3717 131.386,-78.1685 139.715,-77.0175"/>
<polygon fill="midnightblue" stroke="midnightblue" points="113.627,-77.0891 104.2,-81.9251 114.585,-84.0233 113.627,-77.0891"/>
</g>
<!-- Node4 -->
<g id="node4" class="node"><title>Node4</title>
<g id="a_node4"><a xlink:href="class_ogre_1_1_allocated_object.html" target="_top" xlink:title="Superclass for all objects that wish to use custom memory allocators when their new / delete operator...">
<polygon fill="none" stroke="black" points="3,-41.5 3,-60.5 101,-60.5 101,-41.5 3,-41.5"/>
<text text-anchor="middle" x="52" y="-48.5" font-family="Helvetica,sans-Serif" font-size="10.00">BufferPackedAlloc</text>
</a>
</g>
</g>
<!-- Node4&#45;&gt;Node2 -->
<g id="edge3" class="edge"><title>Node4&#45;&gt;Node2</title>
<path fill="none" stroke="midnightblue" d="M111.267,-59.0514C120.777,-60.3655 130.561,-61.7175 139.868,-63.0035"/>
<polygon fill="midnightblue" stroke="midnightblue" points="111.476,-55.5471 101.091,-57.6453 110.518,-62.4812 111.476,-55.5471"/>
</g>
</g>
</svg>
