<?xml version="1.0" encoding="UTF-8" standalone="no"?>
<!DOCTYPE svg PUBLIC "-//W3C//DTD SVG 1.1//EN"
 "http://www.w3.org/Graphics/SVG/1.1/DTD/svg11.dtd">
<!-- Generated by graphviz version 2.38.0 (20140413.2041)
 -->
<!-- Title: Ogre::SceneManagerEnumerator Pages: 1 -->
<svg width="268pt" height="95pt"
 viewBox="0.00 0.00 267.50 95.00" xmlns="http://www.w3.org/2000/svg" xmlns:xlink="http://www.w3.org/1999/xlink">
<g id="graph0" class="graph" transform="scale(1 1) rotate(0) translate(4 91)">
<title>Ogre::SceneManagerEnumerator</title>
<!-- Node1 -->
<g id="node1" class="node"><title>Node1</title>
<polygon fill="#bfbfbf" stroke="black" points="68.5,-0.5 68.5,-19.5 227.5,-19.5 227.5,-0.5 68.5,-0.5"/>
<text text-anchor="middle" x="148" y="-7.5" font-family="Helvetica,sans-Serif" font-size="10.00">Ogre::SceneManagerEnumerator</text>
</g>
<!-- Node2 -->
<g id="node2" class="node"><title>Node2</title>
<g id="a_node2"><a xlink:href="class_ogre_1_1_singleton.html" target="_top" xlink:title="Ogre::Singleton\&lt; SceneManager\lEnumerator \&gt;">
<polygon fill="none" stroke="black" points="0,-56.5 0,-86.5 158,-86.5 158,-56.5 0,-56.5"/>
<text text-anchor="start" x="8" y="-74.5" font-family="Helvetica,sans-Serif" font-size="10.00">Ogre::Singleton&lt; SceneManager</text>
<text text-anchor="middle" x="79" y="-63.5" font-family="Helvetica,sans-Serif" font-size="10.00">Enumerator &gt;</text>
</a>
</g>
</g>
<!-- Node2&#45;&gt;Node1 -->
<g id="edge1" class="edge"><title>Node2&#45;&gt;Node1</title>
<path fill="none" stroke="midnightblue" d="M103.24,-49.5972C115.164,-39.3153 128.886,-27.4824 137.96,-19.6578"/>
<polygon fill="midnightblue" stroke="midnightblue" points="100.64,-47.2182 95.352,-56.3993 105.211,-52.5194 100.64,-47.2182"/>
</g>
<!-- Node3 -->
<g id="node3" class="node"><title>Node3</title>
<g id="a_node3"><a xlink:href="class_ogre_1_1_allocated_object.html" target="_top" xlink:title="Superclass for all objects that wish to use custom memory allocators when their new / delete operator...">
<polygon fill="none" stroke="black" points="176.5,-62 176.5,-81 259.5,-81 259.5,-62 176.5,-62"/>
<text text-anchor="middle" x="218" y="-69" font-family="Helvetica,sans-Serif" font-size="10.00">SceneMgtAlloc</text>
</a>
</g>
</g>
<!-- Node3&#45;&gt;Node1 -->
<g id="edge2" class="edge"><title>Node3&#45;&gt;Node1</title>
<path fill="none" stroke="midnightblue" d="M200.321,-55.4727C186.932,-44.0925 169.023,-28.8694 158.011,-19.5091"/>
<polygon fill="midnightblue" stroke="midnightblue" points="198.085,-58.1654 207.971,-61.9751 202.618,-52.8318 198.085,-58.1654"/>
</g>
</g>
</svg>
