<?xml version="1.0" encoding="UTF-8" standalone="no"?>
<!DOCTYPE svg PUBLIC "-//W3C//DTD SVG 1.1//EN"
 "http://www.w3.org/Graphics/SVG/1.1/DTD/svg11.dtd">
<!-- Generated by graphviz version 2.40.1 (20161225.0304)
 -->
<!-- Title: Ogre::EGLSupport Pages: 1 -->
<svg width="453pt" height="142pt"
 viewBox="0.00 0.00 453.00 142.00" xmlns="http://www.w3.org/2000/svg" xmlns:xlink="http://www.w3.org/1999/xlink">
<g id="graph0" class="graph" transform="scale(1 1) rotate(0) translate(4 138)">
<title>Ogre::EGLSupport</title>
<!-- Node0 -->
<g id="node1" class="node">
<title>Node0</title>
<polygon fill="#bfbfbf" stroke="#000000" points="150,-57.5 150,-76.5 252,-76.5 252,-57.5 150,-57.5"/>
<text text-anchor="middle" x="201" y="-64.5" font-family="Helvetica,sans-Serif" font-size="10.00" fill="#000000">Ogre::EGLSupport</text>
</g>
<!-- Node2 -->
<g id="node3" class="node">
<title>Node2</title>
<g id="a_node3"><a xlink:href="class_ogre_1_1_android_e_g_l_support.html" target="_top" xlink:title="Ogre::AndroidEGLSupport">
<polygon fill="none" stroke="#000000" points="296.5,-114.5 296.5,-133.5 436.5,-133.5 436.5,-114.5 296.5,-114.5"/>
<text text-anchor="middle" x="366.5" y="-121.5" font-family="Helvetica,sans-Serif" font-size="10.00" fill="#000000">Ogre::AndroidEGLSupport</text>
</a>
</g>
</g>
<!-- Node0&#45;&gt;Node2 -->
<g id="edge2" class="edge">
<title>Node0&#45;&gt;Node2</title>
<path fill="none" stroke="#191970" d="M229.5436,-80.9717C246.2894,-88.7858 268.0208,-98.2761 288,-105 298.6316,-108.578 310.2845,-111.7753 321.2821,-114.4803"/>
<polygon fill="#191970" stroke="#191970" points="230.8466,-77.7161 220.3109,-76.5981 227.8498,-84.0422 230.8466,-77.7161"/>
</g>
<!-- Node3 -->
<g id="node4" class="node">
<title>Node3</title>
<g id="a_node4"><a xlink:href="class_ogre_1_1_emscripten_e_g_l_support.html" target="_top" xlink:title="Ogre::EmscriptenEGLSupport">
<polygon fill="none" stroke="#000000" points="288,-76.5 288,-95.5 445,-95.5 445,-76.5 288,-76.5"/>
<text text-anchor="middle" x="366.5" y="-83.5" font-family="Helvetica,sans-Serif" font-size="10.00" fill="#000000">Ogre::EmscriptenEGLSupport</text>
</a>
</g>
</g>
<!-- Node0&#45;&gt;Node3 -->
<g id="edge3" class="edge">
<title>Node0&#45;&gt;Node3</title>
<path fill="none" stroke="#191970" d="M262.1009,-74.0146C270.5292,-74.9822 279.2798,-75.9868 287.9682,-76.9843"/>
<polygon fill="#191970" stroke="#191970" points="262.3399,-70.5191 252.0059,-72.8557 261.5414,-77.4735 262.3399,-70.5191"/>
</g>
<!-- Node4 -->
<g id="node5" class="node">
<title>Node4</title>
<g id="a_node5"><a xlink:href="class_ogre_1_1_win32_e_g_l_support.html" target="_top" xlink:title="Ogre::Win32EGLSupport">
<polygon fill="none" stroke="#000000" points="300,-38.5 300,-57.5 433,-57.5 433,-38.5 300,-38.5"/>
<text text-anchor="middle" x="366.5" y="-45.5" font-family="Helvetica,sans-Serif" font-size="10.00" fill="#000000">Ogre::Win32EGLSupport</text>
</a>
</g>
</g>
<!-- Node0&#45;&gt;Node4 -->
<g id="edge4" class="edge">
<title>Node0&#45;&gt;Node4</title>
<path fill="none" stroke="#191970" d="M262.1287,-59.9822C274.4017,-58.5732 287.3571,-57.0859 299.808,-55.6565"/>
<polygon fill="#191970" stroke="#191970" points="261.5414,-56.5265 252.0059,-61.1443 262.3399,-63.4809 261.5414,-56.5265"/>
</g>
<!-- Node5 -->
<g id="node6" class="node">
<title>Node5</title>
<g id="a_node6"><a xlink:href="class_ogre_1_1_x11_e_g_l_support.html" target="_top" xlink:title="Ogre::X11EGLSupport">
<polygon fill="none" stroke="#000000" points="306,-.5 306,-19.5 427,-19.5 427,-.5 306,-.5"/>
<text text-anchor="middle" x="366.5" y="-7.5" font-family="Helvetica,sans-Serif" font-size="10.00" fill="#000000">Ogre::X11EGLSupport</text>
</a>
</g>
</g>
<!-- Node0&#45;&gt;Node5 -->
<g id="edge5" class="edge">
<title>Node0&#45;&gt;Node5</title>
<path fill="none" stroke="#191970" d="M229.5436,-53.0283C246.2894,-45.2142 268.0208,-35.7239 288,-29 298.6316,-25.422 310.2845,-22.2247 321.2821,-19.5197"/>
<polygon fill="#191970" stroke="#191970" points="227.8498,-49.9578 220.3109,-57.4019 230.8466,-56.2839 227.8498,-49.9578"/>
</g>
<!-- Node1 -->
<g id="node2" class="node">
<title>Node1</title>
<g id="a_node2"><a xlink:href="class_ogre_1_1_g_l_e_s2_support.html" target="_top" xlink:title="Ogre::GLES2Support">
<polygon fill="none" stroke="#000000" points="0,-57.5 0,-76.5 114,-76.5 114,-57.5 0,-57.5"/>
<text text-anchor="middle" x="57" y="-64.5" font-family="Helvetica,sans-Serif" font-size="10.00" fill="#000000">Ogre::GLES2Support</text>
</a>
</g>
</g>
<!-- Node1&#45;&gt;Node0 -->
<g id="edge1" class="edge">
<title>Node1&#45;&gt;Node0</title>
<path fill="none" stroke="#191970" d="M124.3528,-67C132.9538,-67 141.6436,-67 149.9285,-67"/>
<polygon fill="#191970" stroke="#191970" points="124.3264,-63.5001 114.3264,-67 124.3263,-70.5001 124.3264,-63.5001"/>
</g>
</g>
</svg>
