<?xml version="1.0" encoding="UTF-8" standalone="no"?>
<!DOCTYPE svg PUBLIC "-//W3C//DTD SVG 1.1//EN"
 "http://www.w3.org/Graphics/SVG/1.1/DTD/svg11.dtd">
<!-- Generated by graphviz version 2.38.0 (20140413.2041)
 -->
<!-- Title: Ogre::WorkQueue Pages: 1 -->
<svg width="157pt" height="196pt"
 viewBox="0.00 0.00 157.00 196.00" xmlns="http://www.w3.org/2000/svg" xmlns:xlink="http://www.w3.org/1999/xlink">
<g id="graph0" class="graph" transform="scale(1 1) rotate(0) translate(4 192)">
<title>Ogre::WorkQueue</title>
<!-- Node1 -->
<g id="node1" class="node"><title>Node1</title>
<polygon fill="#bfbfbf" stroke="black" points="27,-112.5 27,-131.5 122,-131.5 122,-112.5 27,-112.5"/>
<text text-anchor="middle" x="74.5" y="-119.5" font-family="Helvetica,sans-Serif" font-size="10.00">Ogre::WorkQueue</text>
</g>
<!-- Node3 -->
<g id="node3" class="node"><title>Node3</title>
<g id="a_node3"><a xlink:href="class_ogre_1_1_default_work_queue_base.html" target="_top" xlink:title="Base for a general purpose request / response style background work queue. ">
<polygon fill="none" stroke="black" points="-1.42109e-14,-56.5 -1.42109e-14,-75.5 149,-75.5 149,-56.5 -1.42109e-14,-56.5"/>
<text text-anchor="middle" x="74.5" y="-63.5" font-family="Helvetica,sans-Serif" font-size="10.00">Ogre::DefaultWorkQueueBase</text>
</a>
</g>
</g>
<!-- Node1&#45;&gt;Node3 -->
<g id="edge2" class="edge"><title>Node1&#45;&gt;Node3</title>
<path fill="none" stroke="midnightblue" d="M74.5,-101.805C74.5,-92.9102 74.5,-82.7798 74.5,-75.7511"/>
<polygon fill="midnightblue" stroke="midnightblue" points="71.0001,-102.083 74.5,-112.083 78.0001,-102.083 71.0001,-102.083"/>
</g>
<!-- Node2 -->
<g id="node2" class="node"><title>Node2</title>
<g id="a_node2"><a xlink:href="class_ogre_1_1_allocated_object.html" target="_top" xlink:title="Superclass for all objects that wish to use custom memory allocators when their new / delete operator...">
<polygon fill="none" stroke="black" points="42.5,-168.5 42.5,-187.5 106.5,-187.5 106.5,-168.5 42.5,-168.5"/>
<text text-anchor="middle" x="74.5" y="-175.5" font-family="Helvetica,sans-Serif" font-size="10.00">UtilityAlloc</text>
</a>
</g>
</g>
<!-- Node2&#45;&gt;Node1 -->
<g id="edge1" class="edge"><title>Node2&#45;&gt;Node1</title>
<path fill="none" stroke="midnightblue" d="M74.5,-157.805C74.5,-148.91 74.5,-138.78 74.5,-131.751"/>
<polygon fill="midnightblue" stroke="midnightblue" points="71.0001,-158.083 74.5,-168.083 78.0001,-158.083 71.0001,-158.083"/>
</g>
<!-- Node4 -->
<g id="node4" class="node"><title>Node4</title>
<g id="a_node4"><a xlink:href="class_ogre_1_1_default_work_queue.html" target="_top" xlink:title="Implementation of a general purpose request / response style background work queue. ">
<polygon fill="none" stroke="black" points="11,-0.5 11,-19.5 138,-19.5 138,-0.5 11,-0.5"/>
<text text-anchor="middle" x="74.5" y="-7.5" font-family="Helvetica,sans-Serif" font-size="10.00">Ogre::DefaultWorkQueue</text>
</a>
</g>
</g>
<!-- Node3&#45;&gt;Node4 -->
<g id="edge3" class="edge"><title>Node3&#45;&gt;Node4</title>
<path fill="none" stroke="midnightblue" d="M68.0276,-46.1005C67.3956,-37.1357 67.8427,-26.8579 69.369,-19.7511"/>
<polygon fill="midnightblue" stroke="midnightblue" points="64.5658,-46.6216 69.3337,-56.083 71.5067,-45.7134 64.5658,-46.6216"/>
</g>
<!-- Node3&#45;&gt;Node4 -->
<g id="edge4" class="edge"><title>Node3&#45;&gt;Node4</title>
<path fill="none" stroke="midnightblue" d="M80.9724,-46.1005C81.6044,-37.1357 81.1573,-26.8579 79.631,-19.7511"/>
<polygon fill="midnightblue" stroke="midnightblue" points="77.4933,-45.7134 79.6663,-56.083 84.4342,-46.6216 77.4933,-45.7134"/>
</g>
</g>
</svg>
