<?xml version="1.0" encoding="UTF-8" standalone="no"?>
<!DOCTYPE svg PUBLIC "-//W3C//DTD SVG 1.1//EN"
 "http://www.w3.org/Graphics/SVG/1.1/DTD/svg11.dtd">
<!-- Generated by graphviz version 2.38.0 (20140413.2041)
 -->
<!-- Title: Ogre::SceneNode Pages: 1 -->
<svg width="168pt" height="196pt"
 viewBox="0.00 0.00 168.00 196.00" xmlns="http://www.w3.org/2000/svg" xmlns:xlink="http://www.w3.org/1999/xlink">
<g id="graph0" class="graph" transform="scale(1 1) rotate(0) translate(4 192)">
<title>Ogre::SceneNode</title>
<!-- Node1 -->
<g id="node1" class="node"><title>Node1</title>
<polygon fill="#bfbfbf" stroke="black" points="27.5,-56.5 27.5,-75.5 122.5,-75.5 122.5,-56.5 27.5,-56.5"/>
<text text-anchor="middle" x="75" y="-63.5" font-family="Helvetica,sans-Serif" font-size="10.00">Ogre::SceneNode</text>
</g>
<!-- Node5 -->
<g id="node5" class="node"><title>Node5</title>
<g id="a_node5"><a xlink:href="class_ogre_1_1_tag_point.html" target="_top" xlink:title="TagPoints are like SceneNodes, that can be children of a Bone. ">
<polygon fill="none" stroke="black" points="33.5,-0.5 33.5,-19.5 116.5,-19.5 116.5,-0.5 33.5,-0.5"/>
<text text-anchor="middle" x="75" y="-7.5" font-family="Helvetica,sans-Serif" font-size="10.00">Ogre::TagPoint</text>
</a>
</g>
</g>
<!-- Node1&#45;&gt;Node5 -->
<g id="edge4" class="edge"><title>Node1&#45;&gt;Node5</title>
<path fill="none" stroke="midnightblue" d="M75,-45.8045C75,-36.9102 75,-26.7798 75,-19.7511"/>
<polygon fill="midnightblue" stroke="midnightblue" points="71.5001,-46.083 75,-56.083 78.5001,-46.083 71.5001,-46.083"/>
</g>
<!-- Node2 -->
<g id="node2" class="node"><title>Node2</title>
<g id="a_node2"><a xlink:href="class_ogre_1_1_node.html" target="_top" xlink:title="Class representing a general&#45;purpose node an articulated scene graph. ">
<polygon fill="none" stroke="black" points="41.5,-112.5 41.5,-131.5 108.5,-131.5 108.5,-112.5 41.5,-112.5"/>
<text text-anchor="middle" x="75" y="-119.5" font-family="Helvetica,sans-Serif" font-size="10.00">Ogre::Node</text>
</a>
</g>
</g>
<!-- Node2&#45;&gt;Node1 -->
<g id="edge1" class="edge"><title>Node2&#45;&gt;Node1</title>
<path fill="none" stroke="midnightblue" d="M75,-101.805C75,-92.9102 75,-82.7798 75,-75.7511"/>
<polygon fill="midnightblue" stroke="midnightblue" points="71.5001,-102.083 75,-112.083 78.5001,-102.083 71.5001,-102.083"/>
</g>
<!-- Node3 -->
<g id="node3" class="node"><title>Node3</title>
<g id="a_node3"><a xlink:href="class_ogre_1_1_allocated_object.html" target="_top" xlink:title="Superclass for all objects that wish to use custom memory allocators when their new / delete operator...">
<polygon fill="none" stroke="black" points="0,-168.5 0,-187.5 62,-187.5 62,-168.5 0,-168.5"/>
<text text-anchor="middle" x="31" y="-175.5" font-family="Helvetica,sans-Serif" font-size="10.00">NodeAlloc</text>
</a>
</g>
</g>
<!-- Node3&#45;&gt;Node2 -->
<g id="edge2" class="edge"><title>Node3&#45;&gt;Node2</title>
<path fill="none" stroke="midnightblue" d="M44.7345,-160.144C52.4005,-150.736 61.6333,-139.405 67.8695,-131.751"/>
<polygon fill="midnightblue" stroke="midnightblue" points="41.8691,-158.12 38.2657,-168.083 47.2958,-162.541 41.8691,-158.12"/>
</g>
<!-- Node4 -->
<g id="node4" class="node"><title>Node4</title>
<g id="a_node4"><a xlink:href="class_ogre_1_1_id_object.html" target="_top" xlink:title="Ogre::IdObject">
<polygon fill="none" stroke="black" points="80,-168.5 80,-187.5 160,-187.5 160,-168.5 80,-168.5"/>
<text text-anchor="middle" x="120" y="-175.5" font-family="Helvetica,sans-Serif" font-size="10.00">Ogre::IdObject</text>
</a>
</g>
</g>
<!-- Node4&#45;&gt;Node2 -->
<g id="edge3" class="edge"><title>Node4&#45;&gt;Node2</title>
<path fill="none" stroke="midnightblue" d="M105.953,-160.144C98.1131,-150.736 88.6705,-139.405 82.2926,-131.751"/>
<polygon fill="midnightblue" stroke="midnightblue" points="103.479,-162.641 112.569,-168.083 108.856,-158.16 103.479,-162.641"/>
</g>
</g>
</svg>
