<?xml version="1.0" encoding="UTF-8" standalone="no"?>
<!DOCTYPE svg PUBLIC "-//W3C//DTD SVG 1.1//EN"
 "http://www.w3.org/Graphics/SVG/1.1/DTD/svg11.dtd">
<!-- Generated by graphviz version 2.38.0 (20140413.2041)
 -->
<!-- Title: Ogre::LodStrategy Pages: 1 -->
<svg width="599pt" height="165pt"
 viewBox="0.00 0.00 599.00 164.50" xmlns="http://www.w3.org/2000/svg" xmlns:xlink="http://www.w3.org/1999/xlink">
<g id="graph0" class="graph" transform="scale(1 1) rotate(0) translate(4 160.5)">
<title>Ogre::LodStrategy</title>
<!-- Node1 -->
<g id="node1" class="node"><title>Node1</title>
<polygon fill="#bfbfbf" stroke="black" points="90,-77 90,-96 186,-96 186,-77 90,-77"/>
<text text-anchor="middle" x="138" y="-84" font-family="Helvetica,sans-Serif" font-size="10.00">Ogre::LodStrategy</text>
</g>
<!-- Node3 -->
<g id="node3" class="node"><title>Node3</title>
<g id="a_node3"><a xlink:href="class_ogre_1_1_distance_lod_strategy_base.html" target="_top" xlink:title="Level of detail strategy based on distance from camera. ">
<polygon fill="none" stroke="black" points="226.5,-99 226.5,-118 384.5,-118 384.5,-99 226.5,-99"/>
<text text-anchor="middle" x="305.5" y="-106" font-family="Helvetica,sans-Serif" font-size="10.00">Ogre::DistanceLodStrategyBase</text>
</a>
</g>
</g>
<!-- Node1&#45;&gt;Node3 -->
<g id="edge2" class="edge"><title>Node1&#45;&gt;Node3</title>
<path fill="none" stroke="midnightblue" d="M196.542,-94.149C208.304,-95.7126 220.817,-97.376 233,-98.9954"/>
<polygon fill="midnightblue" stroke="midnightblue" points="196.8,-90.6526 186.426,-92.8043 195.877,-97.5916 196.8,-90.6526"/>
</g>
<!-- Node6 -->
<g id="node6" class="node"><title>Node6</title>
<g id="a_node6"><a xlink:href="class_ogre_1_1_pixel_count_lod_strategy_base.html" target="_top" xlink:title="Abstract base class for level of detail strategy based on pixel count approximations from bounding sp...">
<polygon fill="none" stroke="black" points="222,-55 222,-74 389,-74 389,-55 222,-55"/>
<text text-anchor="middle" x="305.5" y="-62" font-family="Helvetica,sans-Serif" font-size="10.00">Ogre::PixelCountLodStrategyBase</text>
</a>
</g>
</g>
<!-- Node1&#45;&gt;Node6 -->
<g id="edge5" class="edge"><title>Node1&#45;&gt;Node6</title>
<path fill="none" stroke="midnightblue" d="M196.542,-78.851C208.304,-77.2874 220.817,-75.624 233,-74.0046"/>
<polygon fill="midnightblue" stroke="midnightblue" points="195.877,-75.4084 186.426,-80.1957 196.8,-82.3474 195.877,-75.4084"/>
</g>
<!-- Node2 -->
<g id="node2" class="node"><title>Node2</title>
<g id="a_node2"><a xlink:href="class_ogre_1_1_allocated_object.html" target="_top" xlink:title="Superclass for all objects that wish to use custom memory allocators when their new / delete operator...">
<polygon fill="none" stroke="black" points="0,-77 0,-96 54,-96 54,-77 0,-77"/>
<text text-anchor="middle" x="27" y="-84" font-family="Helvetica,sans-Serif" font-size="10.00">LodAlloc</text>
</a>
</g>
</g>
<!-- Node2&#45;&gt;Node1 -->
<g id="edge1" class="edge"><title>Node2&#45;&gt;Node1</title>
<path fill="none" stroke="midnightblue" d="M64.1142,-86.5C72.3327,-86.5 81.183,-86.5 89.7866,-86.5"/>
<polygon fill="midnightblue" stroke="midnightblue" points="64.1083,-83.0001 54.1082,-86.5 64.1082,-90.0001 64.1083,-83.0001"/>
</g>
<!-- Node4 -->
<g id="node4" class="node"><title>Node4</title>
<g id="a_node4"><a xlink:href="class_ogre_1_1_distance_lod_box_strategy.html" target="_top" xlink:title="Level of detail strategy based on distance from camera to an object&#39;s bounding box. ">
<polygon fill="none" stroke="black" points="432,-137 432,-156 584,-156 584,-137 432,-137"/>
<text text-anchor="middle" x="508" y="-144" font-family="Helvetica,sans-Serif" font-size="10.00">Ogre::DistanceLodBoxStrategy</text>
</a>
</g>
</g>
<!-- Node3&#45;&gt;Node4 -->
<g id="edge3" class="edge"><title>Node3&#45;&gt;Node4</title>
<path fill="none" stroke="midnightblue" d="M366.746,-119.918C395.434,-125.355 429.35,-131.783 456.643,-136.956"/>
<polygon fill="midnightblue" stroke="midnightblue" points="367.313,-116.463 356.836,-118.04 366.009,-123.341 367.313,-116.463"/>
</g>
<!-- Node5 -->
<g id="node5" class="node"><title>Node5</title>
<g id="a_node5"><a xlink:href="class_ogre_1_1_distance_lod_sphere_strategy.html" target="_top" xlink:title="Level of detail strategy based on distance from camera to an object&#39;s bounding sphere. ">
<polygon fill="none" stroke="black" points="425,-99 425,-118 591,-118 591,-99 425,-99"/>
<text text-anchor="middle" x="508" y="-106" font-family="Helvetica,sans-Serif" font-size="10.00">Ogre::DistanceLodSphereStrategy</text>
</a>
</g>
</g>
<!-- Node3&#45;&gt;Node5 -->
<g id="edge4" class="edge"><title>Node3&#45;&gt;Node5</title>
<path fill="none" stroke="midnightblue" d="M394.889,-108.5C404.84,-108.5 414.949,-108.5 424.816,-108.5"/>
<polygon fill="midnightblue" stroke="midnightblue" points="394.593,-105 384.593,-108.5 394.593,-112 394.593,-105"/>
</g>
<!-- Node7 -->
<g id="node7" class="node"><title>Node7</title>
<g id="a_node7"><a xlink:href="class_ogre_1_1_absolute_pixel_count_lod_strategy.html" target="_top" xlink:title="Ogre::AbsolutePixelCount\lLodStrategy">
<polygon fill="none" stroke="black" points="443,-49.5 443,-79.5 573,-79.5 573,-49.5 443,-49.5"/>
<text text-anchor="start" x="451" y="-67.5" font-family="Helvetica,sans-Serif" font-size="10.00">Ogre::AbsolutePixelCount</text>
<text text-anchor="middle" x="508" y="-56.5" font-family="Helvetica,sans-Serif" font-size="10.00">LodStrategy</text>
</a>
</g>
</g>
<!-- Node6&#45;&gt;Node7 -->
<g id="edge6" class="edge"><title>Node6&#45;&gt;Node7</title>
<path fill="none" stroke="midnightblue" d="M399.347,-64.5C414.063,-64.5 428.992,-64.5 442.858,-64.5"/>
<polygon fill="midnightblue" stroke="midnightblue" points="399.209,-61.0001 389.209,-64.5 399.209,-68.0001 399.209,-61.0001"/>
</g>
<!-- Node8 -->
<g id="node8" class="node"><title>Node8</title>
<g id="a_node8"><a xlink:href="class_ogre_1_1_screen_ratio_pixel_count_lod_strategy.html" target="_top" xlink:title="Ogre::ScreenRatioPixelCount\lLodStrategy">
<polygon fill="none" stroke="black" points="435,-0.5 435,-30.5 581,-30.5 581,-0.5 435,-0.5"/>
<text text-anchor="start" x="443" y="-18.5" font-family="Helvetica,sans-Serif" font-size="10.00">Ogre::ScreenRatioPixelCount</text>
<text text-anchor="middle" x="508" y="-7.5" font-family="Helvetica,sans-Serif" font-size="10.00">LodStrategy</text>
</a>
</g>
</g>
<!-- Node6&#45;&gt;Node8 -->
<g id="edge7" class="edge"><title>Node6&#45;&gt;Node8</title>
<path fill="none" stroke="midnightblue" d="M355.66,-52.4858C382.751,-45.865 416.636,-37.5839 445.471,-30.537"/>
<polygon fill="midnightblue" stroke="midnightblue" points="354.518,-49.1619 345.634,-54.936 356.179,-55.9618 354.518,-49.1619"/>
</g>
</g>
</svg>
