<?xml version="1.0" encoding="UTF-8" standalone="no"?>
<!DOCTYPE svg PUBLIC "-//W3C//DTD SVG 1.1//EN"
 "http://www.w3.org/Graphics/SVG/1.1/DTD/svg11.dtd">
<!-- Generated by graphviz version 2.40.1 (20161225.0304)
 -->
<!-- Title: Ogre::GL3PlusTexture Pages: 1 -->
<svg width="320pt" height="252pt"
 viewBox="0.00 0.00 320.00 252.00" xmlns="http://www.w3.org/2000/svg" xmlns:xlink="http://www.w3.org/1999/xlink">
<g id="graph0" class="graph" transform="scale(1 1) rotate(0) translate(4 248)">
<title>Ogre::GL3PlusTexture</title>
<!-- Node0 -->
<g id="node1" class="node">
<title>Node0</title>
<polygon fill="#bfbfbf" stroke="#000000" points="97,-56.5 97,-75.5 219,-75.5 219,-56.5 97,-56.5"/>
<text text-anchor="middle" x="158" y="-63.5" font-family="Helvetica,sans-Serif" font-size="10.00" fill="#000000">Ogre::GL3PlusTexture</text>
</g>
<!-- Node5 -->
<g id="node6" class="node">
<title>Node5</title>
<g id="a_node6"><a xlink:href="class_ogre_1_1_g_l3_plus_depth_texture.html" target="_top" xlink:title="Ogre::GL3PlusDepthTexture">
<polygon fill="none" stroke="#000000" points="0,-.5 0,-19.5 152,-19.5 152,-.5 0,-.5"/>
<text text-anchor="middle" x="76" y="-7.5" font-family="Helvetica,sans-Serif" font-size="10.00" fill="#000000">Ogre::GL3PlusDepthTexture</text>
</a>
</g>
</g>
<!-- Node0&#45;&gt;Node5 -->
<g id="edge5" class="edge">
<title>Node0&#45;&gt;Node5</title>
<path fill="none" stroke="#191970" d="M135.289,-50.49C120.8212,-40.6096 102.532,-28.1194 90.1196,-19.6427"/>
<polygon fill="#191970" stroke="#191970" points="133.4848,-53.4962 143.7167,-56.2455 137.4325,-47.7156 133.4848,-53.4962"/>
</g>
<!-- Node6 -->
<g id="node7" class="node">
<title>Node6</title>
<g id="a_node7"><a xlink:href="class_ogre_1_1_g_l3_plus_null_texture.html" target="_top" xlink:title="Ogre::GL3PlusNullTexture">
<polygon fill="none" stroke="#000000" points="170,-.5 170,-19.5 312,-19.5 312,-.5 170,-.5"/>
<text text-anchor="middle" x="241" y="-7.5" font-family="Helvetica,sans-Serif" font-size="10.00" fill="#000000">Ogre::GL3PlusNullTexture</text>
</a>
</g>
</g>
<!-- Node0&#45;&gt;Node6 -->
<g id="edge6" class="edge">
<title>Node0&#45;&gt;Node6</title>
<path fill="none" stroke="#191970" d="M180.988,-50.49C195.6322,-40.6096 214.1444,-28.1194 226.7082,-19.6427"/>
<polygon fill="#191970" stroke="#191970" points="178.7896,-47.7511 172.4575,-56.2455 182.7047,-53.5539 178.7896,-47.7511"/>
</g>
<!-- Node1 -->
<g id="node2" class="node">
<title>Node1</title>
<g id="a_node2"><a xlink:href="class_ogre_1_1_texture.html" target="_top" xlink:title="Abstract class representing a Texture resource. ">
<polygon fill="none" stroke="#000000" points="116.5,-112.5 116.5,-131.5 199.5,-131.5 199.5,-112.5 116.5,-112.5"/>
<text text-anchor="middle" x="158" y="-119.5" font-family="Helvetica,sans-Serif" font-size="10.00" fill="#000000">Ogre::Texture</text>
</a>
</g>
</g>
<!-- Node1&#45;&gt;Node0 -->
<g id="edge1" class="edge">
<title>Node1&#45;&gt;Node0</title>
<path fill="none" stroke="#191970" d="M158,-102.1575C158,-93.155 158,-82.9199 158,-75.6427"/>
<polygon fill="#191970" stroke="#191970" points="154.5001,-102.2455 158,-112.2455 161.5001,-102.2456 154.5001,-102.2455"/>
</g>
<!-- Node2 -->
<g id="node3" class="node">
<title>Node2</title>
<g id="a_node3"><a xlink:href="class_ogre_1_1_resource.html" target="_top" xlink:title="Abstract class representing a loadable resource (e.g. ">
<polygon fill="none" stroke="#000000" points="112.5,-168.5 112.5,-187.5 203.5,-187.5 203.5,-168.5 112.5,-168.5"/>
<text text-anchor="middle" x="158" y="-175.5" font-family="Helvetica,sans-Serif" font-size="10.00" fill="#000000">Ogre::Resource</text>
</a>
</g>
</g>
<!-- Node2&#45;&gt;Node1 -->
<g id="edge2" class="edge">
<title>Node2&#45;&gt;Node1</title>
<path fill="none" stroke="#191970" d="M158,-158.1575C158,-149.155 158,-138.9199 158,-131.6427"/>
<polygon fill="#191970" stroke="#191970" points="154.5001,-158.2455 158,-168.2455 161.5001,-158.2456 154.5001,-158.2455"/>
</g>
<!-- Node3 -->
<g id="node4" class="node">
<title>Node3</title>
<g id="a_node4"><a xlink:href="class_ogre_1_1_string_interface.html" target="_top" xlink:title="Class defining the common interface which classes can use to present a reflection&#45;style, self&#45;defining parameter set to callers. ">
<polygon fill="none" stroke="#000000" points="39,-224.5 39,-243.5 157,-243.5 157,-224.5 39,-224.5"/>
<text text-anchor="middle" x="98" y="-231.5" font-family="Helvetica,sans-Serif" font-size="10.00" fill="#000000">Ogre::StringInterface</text>
</a>
</g>
</g>
<!-- Node3&#45;&gt;Node2 -->
<g id="edge3" class="edge">
<title>Node3&#45;&gt;Node2</title>
<path fill="none" stroke="#191970" d="M115.8278,-217.3607C126.2078,-207.6727 138.9291,-195.7995 147.6686,-187.6427"/>
<polygon fill="#191970" stroke="#191970" points="113.3737,-214.8636 108.4512,-224.2455 118.1499,-219.981 113.3737,-214.8636"/>
</g>
<!-- Node4 -->
<g id="node5" class="node">
<title>Node4</title>
<g id="a_node5"><a xlink:href="class_ogre_1_1_allocated_object.html" target="_top" xlink:title="Superclass for all objects that wish to use custom memory allocators when their new / delete operator...">
<polygon fill="none" stroke="#000000" points="175,-224.5 175,-243.5 261,-243.5 261,-224.5 175,-224.5"/>
<text text-anchor="middle" x="218" y="-231.5" font-family="Helvetica,sans-Serif" font-size="10.00" fill="#000000">ResourceAlloc</text>
</a>
</g>
</g>
<!-- Node4&#45;&gt;Node2 -->
<g id="edge4" class="edge">
<title>Node4&#45;&gt;Node2</title>
<path fill="none" stroke="#191970" d="M200.1722,-217.3607C189.7922,-207.6727 177.0709,-195.7995 168.3314,-187.6427"/>
<polygon fill="#191970" stroke="#191970" points="197.8501,-219.981 207.5488,-224.2455 202.6263,-214.8636 197.8501,-219.981"/>
</g>
</g>
</svg>
