<?xml version="1.0" encoding="UTF-8" standalone="no"?>
<!DOCTYPE svg PUBLIC "-//W3C//DTD SVG 1.1//EN"
 "http://www.w3.org/Graphics/SVG/1.1/DTD/svg11.dtd">
<!-- Generated by graphviz version 2.38.0 (20140413.2041)
 -->
<!-- Title: Ogre::v1::D3D11HardwareUniformBuffer Pages: 1 -->
<svg width="175pt" height="218pt"
 viewBox="0.00 0.00 175.00 218.00" xmlns="http://www.w3.org/2000/svg" xmlns:xlink="http://www.w3.org/1999/xlink">
<g id="graph0" class="graph" transform="scale(1 1) rotate(0) translate(4 214)">
<title>Ogre::v1::D3D11HardwareUniformBuffer</title>
<!-- Node1 -->
<g id="node1" class="node"><title>Node1</title>
<polygon fill="#bfbfbf" stroke="black" points="-1.42109e-14,-0.5 -1.42109e-14,-30.5 167,-30.5 167,-0.5 -1.42109e-14,-0.5"/>
<text text-anchor="start" x="8" y="-18.5" font-family="Helvetica,sans-Serif" font-size="10.00">Ogre::v1::D3D11HardwareUniform</text>
<text text-anchor="middle" x="83.5" y="-7.5" font-family="Helvetica,sans-Serif" font-size="10.00">Buffer</text>
</g>
<!-- Node2 -->
<g id="node2" class="node"><title>Node2</title>
<g id="a_node2"><a xlink:href="class_ogre_1_1v1_1_1_hardware_uniform_buffer.html" target="_top" xlink:title="Specialisation of HardwareBuffer for a uniform buffer. ">
<polygon fill="none" stroke="black" points="15,-67.5 15,-97.5 152,-97.5 152,-67.5 15,-67.5"/>
<text text-anchor="start" x="23" y="-85.5" font-family="Helvetica,sans-Serif" font-size="10.00">Ogre::v1::HardwareUniform</text>
<text text-anchor="middle" x="83.5" y="-74.5" font-family="Helvetica,sans-Serif" font-size="10.00">Buffer</text>
</a>
</g>
</g>
<!-- Node2&#45;&gt;Node1 -->
<g id="edge1" class="edge"><title>Node2&#45;&gt;Node1</title>
<path fill="none" stroke="midnightblue" d="M83.5,-57.1081C83.5,-48.1539 83.5,-38.3227 83.5,-30.5765"/>
<polygon fill="midnightblue" stroke="midnightblue" points="80.0001,-57.3959 83.5,-67.396 87.0001,-57.396 80.0001,-57.3959"/>
</g>
<!-- Node3 -->
<g id="node3" class="node"><title>Node3</title>
<g id="a_node3"><a xlink:href="class_ogre_1_1v1_1_1_hardware_buffer.html" target="_top" xlink:title="Abstract class defining common features of hardware buffers. ">
<polygon fill="none" stroke="black" points="19.5,-134.5 19.5,-153.5 147.5,-153.5 147.5,-134.5 19.5,-134.5"/>
<text text-anchor="middle" x="83.5" y="-141.5" font-family="Helvetica,sans-Serif" font-size="10.00">Ogre::v1::HardwareBuffer</text>
</a>
</g>
</g>
<!-- Node3&#45;&gt;Node2 -->
<g id="edge2" class="edge"><title>Node3&#45;&gt;Node2</title>
<path fill="none" stroke="midnightblue" d="M83.5,-124.235C83.5,-115.586 83.5,-105.497 83.5,-97.523"/>
<polygon fill="midnightblue" stroke="midnightblue" points="80.0001,-124.475 83.5,-134.475 87.0001,-124.475 80.0001,-124.475"/>
</g>
<!-- Node4 -->
<g id="node4" class="node"><title>Node4</title>
<g id="a_node4"><a xlink:href="class_ogre_1_1_allocated_object.html" target="_top" xlink:title="Superclass for all objects that wish to use custom memory allocators when their new / delete operator...">
<polygon fill="none" stroke="black" points="51,-190.5 51,-209.5 116,-209.5 116,-190.5 51,-190.5"/>
<text text-anchor="middle" x="83.5" y="-197.5" font-family="Helvetica,sans-Serif" font-size="10.00">BufferAlloc</text>
</a>
</g>
</g>
<!-- Node4&#45;&gt;Node3 -->
<g id="edge3" class="edge"><title>Node4&#45;&gt;Node3</title>
<path fill="none" stroke="midnightblue" d="M83.5,-179.805C83.5,-170.91 83.5,-160.78 83.5,-153.751"/>
<polygon fill="midnightblue" stroke="midnightblue" points="80.0001,-180.083 83.5,-190.083 87.0001,-180.083 80.0001,-180.083"/>
</g>
</g>
</svg>
