<?xml version="1.0" encoding="UTF-8" standalone="no"?>
<!DOCTYPE svg PUBLIC "-//W3C//DTD SVG 1.1//EN"
 "http://www.w3.org/Graphics/SVG/1.1/DTD/svg11.dtd">
<!-- Generated by graphviz version 2.38.0 (20140413.2041)
 -->
<!-- Title: Ogre::ScriptCompilerManager Pages: 1 -->
<svg width="404pt" height="95pt"
 viewBox="0.00 0.00 403.50 95.00" xmlns="http://www.w3.org/2000/svg" xmlns:xlink="http://www.w3.org/1999/xlink">
<g id="graph0" class="graph" transform="scale(1 1) rotate(0) translate(4 91)">
<title>Ogre::ScriptCompilerManager</title>
<!-- Node1 -->
<g id="node1" class="node"><title>Node1</title>
<polygon fill="#bfbfbf" stroke="black" points="152,-0.5 152,-19.5 298,-19.5 298,-0.5 152,-0.5"/>
<text text-anchor="middle" x="225" y="-7.5" font-family="Helvetica,sans-Serif" font-size="10.00">Ogre::ScriptCompilerManager</text>
</g>
<!-- Node2 -->
<g id="node2" class="node"><title>Node2</title>
<g id="a_node2"><a xlink:href="class_ogre_1_1_singleton.html" target="_top" xlink:title="Ogre::Singleton\&lt; ScriptCompiler\lManager \&gt;">
<polygon fill="none" stroke="black" points="0,-56.5 0,-86.5 158,-86.5 158,-56.5 0,-56.5"/>
<text text-anchor="start" x="8" y="-74.5" font-family="Helvetica,sans-Serif" font-size="10.00">Ogre::Singleton&lt; ScriptCompiler</text>
<text text-anchor="middle" x="79" y="-63.5" font-family="Helvetica,sans-Serif" font-size="10.00">Manager &gt;</text>
</a>
</g>
</g>
<!-- Node2&#45;&gt;Node1 -->
<g id="edge1" class="edge"><title>Node2&#45;&gt;Node1</title>
<path fill="none" stroke="midnightblue" d="M123.131,-52.5152C149.846,-41.6279 182.71,-28.2348 203.756,-19.6578"/>
<polygon fill="midnightblue" stroke="midnightblue" points="121.54,-49.3841 113.6,-56.3993 124.181,-55.8665 121.54,-49.3841"/>
</g>
<!-- Node3 -->
<g id="node3" class="node"><title>Node3</title>
<g id="a_node3"><a xlink:href="class_ogre_1_1_script_loader.html" target="_top" xlink:title="Abstract class defining the interface used by classes which wish to perform script loading to define ...">
<polygon fill="none" stroke="black" points="176,-62 176,-81 274,-81 274,-62 176,-62"/>
<text text-anchor="middle" x="225" y="-69" font-family="Helvetica,sans-Serif" font-size="10.00">Ogre::ScriptLoader</text>
</a>
</g>
</g>
<!-- Node3&#45;&gt;Node1 -->
<g id="edge2" class="edge"><title>Node3&#45;&gt;Node1</title>
<path fill="none" stroke="midnightblue" d="M225,-51.8165C225,-40.9962 225,-27.898 225,-19.5091"/>
<polygon fill="midnightblue" stroke="midnightblue" points="221.5,-51.9751 225,-61.9751 228.5,-51.9751 221.5,-51.9751"/>
</g>
<!-- Node4 -->
<g id="node4" class="node"><title>Node4</title>
<g id="a_node4"><a xlink:href="class_ogre_1_1_allocated_object.html" target="_top" xlink:title="Superclass for all objects that wish to use custom memory allocators when their new / delete operator...">
<polygon fill="none" stroke="black" points="292.5,-62 292.5,-81 395.5,-81 395.5,-62 292.5,-62"/>
<text text-anchor="middle" x="344" y="-69" font-family="Helvetica,sans-Serif" font-size="10.00">ScriptCompilerAlloc</text>
</a>
</g>
</g>
<!-- Node4&#45;&gt;Node1 -->
<g id="edge3" class="edge"><title>Node4&#45;&gt;Node1</title>
<path fill="none" stroke="midnightblue" d="M317.733,-57.3665C294.669,-45.8347 261.798,-29.3992 242.018,-19.5091"/>
<polygon fill="midnightblue" stroke="midnightblue" points="316.441,-60.6334 326.95,-61.9751 319.571,-54.3724 316.441,-60.6334"/>
</g>
</g>
</svg>
