<?xml version="1.0" encoding="UTF-8" standalone="no"?>
<!DOCTYPE svg PUBLIC "-//W3C//DTD SVG 1.1//EN"
 "http://www.w3.org/Graphics/SVG/1.1/DTD/svg11.dtd">
<!-- Generated by graphviz version 2.38.0 (20140413.2041)
 -->
<!-- Title: Ogre::PageStrategyData Pages: 1 -->
<svg width="336pt" height="140pt"
 viewBox="0.00 0.00 336.00 140.00" xmlns="http://www.w3.org/2000/svg" xmlns:xlink="http://www.w3.org/1999/xlink">
<g id="graph0" class="graph" transform="scale(1 1) rotate(0) translate(4 136)">
<title>Ogre::PageStrategyData</title>
<!-- Node1 -->
<g id="node1" class="node"><title>Node1</title>
<polygon fill="#bfbfbf" stroke="black" points="101.5,-56.5 101.5,-75.5 225.5,-75.5 225.5,-56.5 101.5,-56.5"/>
<text text-anchor="middle" x="163.5" y="-63.5" font-family="Helvetica,sans-Serif" font-size="10.00">Ogre::PageStrategyData</text>
</g>
<!-- Node3 -->
<g id="node3" class="node"><title>Node3</title>
<g id="a_node3"><a xlink:href="class_ogre_1_1_grid2_d_page_strategy_data.html" target="_top" xlink:title="Specialisation of PageStrategyData for Grid2DPageStrategy. ">
<polygon fill="none" stroke="black" points="0,-0.5 0,-19.5 155,-19.5 155,-0.5 0,-0.5"/>
<text text-anchor="middle" x="77.5" y="-7.5" font-family="Helvetica,sans-Serif" font-size="10.00">Ogre::Grid2DPageStrategyData</text>
</a>
</g>
</g>
<!-- Node1&#45;&gt;Node3 -->
<g id="edge2" class="edge"><title>Node1&#45;&gt;Node3</title>
<path fill="none" stroke="midnightblue" d="M141.045,-50.9005C125.276,-40.9986 104.686,-28.0705 91.2831,-19.6545"/>
<polygon fill="midnightblue" stroke="midnightblue" points="139.352,-53.9704 149.683,-56.324 143.075,-48.0421 139.352,-53.9704"/>
</g>
<!-- Node4 -->
<g id="node4" class="node"><title>Node4</title>
<g id="a_node4"><a xlink:href="class_ogre_1_1_grid3_d_page_strategy_data.html" target="_top" xlink:title="Specialisation of PageStrategyData for Grid3DPageStrategy. ">
<polygon fill="none" stroke="black" points="173,-0.5 173,-19.5 328,-19.5 328,-0.5 173,-0.5"/>
<text text-anchor="middle" x="250.5" y="-7.5" font-family="Helvetica,sans-Serif" font-size="10.00">Ogre::Grid3DPageStrategyData</text>
</a>
</g>
</g>
<!-- Node1&#45;&gt;Node4 -->
<g id="edge3" class="edge"><title>Node1&#45;&gt;Node4</title>
<path fill="none" stroke="midnightblue" d="M186.216,-50.9005C202.169,-40.9986 222.997,-28.0705 236.557,-19.6545"/>
<polygon fill="midnightblue" stroke="midnightblue" points="184.129,-48.0765 177.478,-56.324 187.82,-54.024 184.129,-48.0765"/>
</g>
<!-- Node2 -->
<g id="node2" class="node"><title>Node2</title>
<g id="a_node2"><a xlink:href="class_ogre_1_1_allocated_object.html" target="_top" xlink:title="Superclass for all objects that wish to use custom memory allocators when their new / delete operator...">
<polygon fill="none" stroke="black" points="133,-112.5 133,-131.5 194,-131.5 194,-112.5 133,-112.5"/>
<text text-anchor="middle" x="163.5" y="-119.5" font-family="Helvetica,sans-Serif" font-size="10.00">PageAlloc</text>
</a>
</g>
</g>
<!-- Node2&#45;&gt;Node1 -->
<g id="edge1" class="edge"><title>Node2&#45;&gt;Node1</title>
<path fill="none" stroke="midnightblue" d="M163.5,-101.805C163.5,-92.9102 163.5,-82.7798 163.5,-75.7511"/>
<polygon fill="midnightblue" stroke="midnightblue" points="160,-102.083 163.5,-112.083 167,-102.083 160,-102.083"/>
</g>
</g>
</svg>
