<?xml version="1.0" encoding="UTF-8" standalone="no"?>
<!DOCTYPE svg PUBLIC "-//W3C//DTD SVG 1.1//EN"
 "http://www.w3.org/Graphics/SVG/1.1/DTD/svg11.dtd">
<!-- Generated by graphviz version 2.38.0 (20140413.2041)
 -->
<!-- Title: Ogre::RTShader::Parameter Pages: 1 -->
<svg width="364pt" height="151pt"
 viewBox="0.00 0.00 364.00 151.00" xmlns="http://www.w3.org/2000/svg" xmlns:xlink="http://www.w3.org/1999/xlink">
<g id="graph0" class="graph" transform="scale(1 1) rotate(0) translate(4 147)">
<title>Ogre::RTShader::Parameter</title>
<!-- Node1 -->
<g id="node1" class="node"><title>Node1</title>
<polygon fill="#bfbfbf" stroke="black" points="106,-67.5 106,-86.5 245,-86.5 245,-67.5 106,-67.5"/>
<text text-anchor="middle" x="175.5" y="-74.5" font-family="Helvetica,sans-Serif" font-size="10.00">Ogre::RTShader::Parameter</text>
</g>
<!-- Node3 -->
<g id="node3" class="node"><title>Node3</title>
<g id="a_node3"><a xlink:href="class_ogre_1_1_r_t_shader_1_1_const_parameter.html" target="_top" xlink:title="Helper template which is the base for our ConstParameters. ">
<polygon fill="none" stroke="black" points="0,-0.5 0,-30.5 165,-30.5 165,-0.5 0,-0.5"/>
<text text-anchor="start" x="8" y="-18.5" font-family="Helvetica,sans-Serif" font-size="10.00">Ogre::RTShader::ConstParameter</text>
<text text-anchor="middle" x="82.5" y="-7.5" font-family="Helvetica,sans-Serif" font-size="10.00">&lt; valueType &gt;</text>
</a>
</g>
</g>
<!-- Node1&#45;&gt;Node3 -->
<g id="edge2" class="edge"><title>Node1&#45;&gt;Node3</title>
<path fill="none" stroke="midnightblue" d="M153.631,-62.0084C138.797,-52.518 119.262,-40.02 104.418,-30.523"/>
<polygon fill="midnightblue" stroke="midnightblue" points="151.866,-65.034 162.175,-67.4751 155.638,-59.1376 151.866,-65.034"/>
</g>
<!-- Node4 -->
<g id="node4" class="node"><title>Node4</title>
<g id="a_node4"><a xlink:href="class_ogre_1_1_r_t_shader_1_1_uniform_parameter.html" target="_top" xlink:title="Uniform parameter class. ">
<polygon fill="none" stroke="black" points="183,-6 183,-25 356,-25 356,-6 183,-6"/>
<text text-anchor="middle" x="269.5" y="-13" font-family="Helvetica,sans-Serif" font-size="10.00">Ogre::RTShader::UniformParameter</text>
</a>
</g>
</g>
<!-- Node1&#45;&gt;Node4 -->
<g id="edge3" class="edge"><title>Node1&#45;&gt;Node4</title>
<path fill="none" stroke="midnightblue" d="M197.729,-61.9295C215.851,-50.4589 240.851,-34.6343 256.057,-25.0091"/>
<polygon fill="midnightblue" stroke="midnightblue" points="195.546,-59.1693 188.968,-67.4751 199.289,-65.084 195.546,-59.1693"/>
</g>
<!-- Node2 -->
<g id="node2" class="node"><title>Node2</title>
<g id="a_node2"><a xlink:href="class_ogre_1_1_allocated_object.html" target="_top" xlink:title="Superclass for all objects that wish to use custom memory allocators when their new / delete operator...">
<polygon fill="none" stroke="black" points="117.5,-123.5 117.5,-142.5 233.5,-142.5 233.5,-123.5 117.5,-123.5"/>
<text text-anchor="middle" x="175.5" y="-130.5" font-family="Helvetica,sans-Serif" font-size="10.00">RTShaderSystemAlloc</text>
</a>
</g>
</g>
<!-- Node2&#45;&gt;Node1 -->
<g id="edge1" class="edge"><title>Node2&#45;&gt;Node1</title>
<path fill="none" stroke="midnightblue" d="M175.5,-112.805C175.5,-103.91 175.5,-93.7798 175.5,-86.7511"/>
<polygon fill="midnightblue" stroke="midnightblue" points="172,-113.083 175.5,-123.083 179,-113.083 172,-113.083"/>
</g>
</g>
</svg>
