<?xml version="1.0" encoding="UTF-8" standalone="no"?>
<!DOCTYPE svg PUBLIC "-//W3C//DTD SVG 1.1//EN"
 "http://www.w3.org/Graphics/SVG/1.1/DTD/svg11.dtd">
<!-- Generated by graphviz version 2.40.1 (20161225.0304)
 -->
<!-- Title: Ogre::RTShader::FunctionAtom Pages: 1 -->
<svg width="175pt" height="151pt"
 viewBox="0.00 0.00 175.00 151.00" xmlns="http://www.w3.org/2000/svg" xmlns:xlink="http://www.w3.org/1999/xlink">
<g id="graph0" class="graph" transform="scale(1 1) rotate(0) translate(4 147)">
<title>Ogre::RTShader::FunctionAtom</title>
<!-- Node0 -->
<g id="node1" class="node">
<title>Node0</title>
<polygon fill="#bfbfbf" stroke="#000000" points="0,-67.5 0,-86.5 167,-86.5 167,-67.5 0,-67.5"/>
<text text-anchor="middle" x="83.5" y="-74.5" font-family="Helvetica,sans-Serif" font-size="10.00" fill="#000000">Ogre::RTShader::FunctionAtom</text>
</g>
<!-- Node2 -->
<g id="node3" class="node">
<title>Node2</title>
<g id="a_node3"><a xlink:href="class_ogre_1_1_r_t_shader_1_1_function_invocation.html" target="_top" xlink:title="A class that represents function invocation code from shader based program function. ">
<polygon fill="none" stroke="#000000" points="13.5,-.5 13.5,-30.5 153.5,-30.5 153.5,-.5 13.5,-.5"/>
<text text-anchor="start" x="21.5" y="-18.5" font-family="Helvetica,sans-Serif" font-size="10.00" fill="#000000">Ogre::RTShader::Function</text>
<text text-anchor="middle" x="83.5" y="-7.5" font-family="Helvetica,sans-Serif" font-size="10.00" fill="#000000">Invocation</text>
</a>
</g>
</g>
<!-- Node0&#45;&gt;Node2 -->
<g id="edge2" class="edge">
<title>Node0&#45;&gt;Node2</title>
<path fill="none" stroke="#191970" d="M83.5,-57.3693C83.5,-48.681 83.5,-38.6241 83.5,-30.5446"/>
<polygon fill="#191970" stroke="#191970" points="80.0001,-57.3906 83.5,-67.3906 87.0001,-57.3907 80.0001,-57.3906"/>
</g>
<!-- Node1 -->
<g id="node2" class="node">
<title>Node1</title>
<g id="a_node2"><a xlink:href="class_ogre_1_1_allocated_object.html" target="_top" xlink:title="Superclass for all objects that wish to use custom memory allocators when their new / delete operator...">
<polygon fill="none" stroke="#000000" points="21.5,-123.5 21.5,-142.5 145.5,-142.5 145.5,-123.5 21.5,-123.5"/>
<text text-anchor="middle" x="83.5" y="-130.5" font-family="Helvetica,sans-Serif" font-size="10.00" fill="#000000">RTShaderSystemAlloc</text>
</a>
</g>
</g>
<!-- Node1&#45;&gt;Node0 -->
<g id="edge1" class="edge">
<title>Node1&#45;&gt;Node0</title>
<path fill="none" stroke="#191970" d="M83.5,-113.1575C83.5,-104.155 83.5,-93.9199 83.5,-86.6427"/>
<polygon fill="#191970" stroke="#191970" points="80.0001,-113.2455 83.5,-123.2455 87.0001,-113.2456 80.0001,-113.2455"/>
</g>
</g>
</svg>
