<?xml version="1.0" encoding="UTF-8" standalone="no"?>
<!DOCTYPE svg PUBLIC "-//W3C//DTD SVG 1.1//EN"
 "http://www.w3.org/Graphics/SVG/1.1/DTD/svg11.dtd">
<!-- Generated by graphviz version 2.38.0 (20140413.2041)
 -->
<!-- Title: Ogre::VectorIterator&lt; T &gt; Pages: 1 -->
<svg width="148pt" height="173pt"
 viewBox="0.00 0.00 148.00 173.00" xmlns="http://www.w3.org/2000/svg" xmlns:xlink="http://www.w3.org/1999/xlink">
<g id="graph0" class="graph" transform="scale(1 1) rotate(0) translate(4 169)">
<title>Ogre::VectorIterator&lt; T &gt;</title>
<!-- Node1 -->
<g id="node1" class="node"><title>Node1</title>
<polygon fill="#bfbfbf" stroke="black" points="6.5,-0.5 6.5,-19.5 133.5,-19.5 133.5,-0.5 6.5,-0.5"/>
<text text-anchor="middle" x="70" y="-7.5" font-family="Helvetica,sans-Serif" font-size="10.00">Ogre::VectorIterator&lt; T &gt;</text>
</g>
<!-- Node2 -->
<g id="node2" class="node"><title>Node2</title>
<g id="a_node2"><a xlink:href="class_ogre_1_1_vector_iterator_wrapper.html" target="_top" xlink:title="Ogre::VectorIteratorWrapper\l\&lt; T, T::iterator \&gt;">
<polygon fill="none" stroke="black" points="0,-56.5 0,-86.5 140,-86.5 140,-56.5 0,-56.5"/>
<text text-anchor="start" x="8" y="-74.5" font-family="Helvetica,sans-Serif" font-size="10.00">Ogre::VectorIteratorWrapper</text>
<text text-anchor="middle" x="70" y="-63.5" font-family="Helvetica,sans-Serif" font-size="10.00">&lt; T, T::iterator &gt;</text>
</a>
</g>
</g>
<!-- Node2&#45;&gt;Node1 -->
<g id="edge1" class="edge"><title>Node2&#45;&gt;Node1</title>
<path fill="none" stroke="midnightblue" d="M70,-46.2892C70,-36.857 70,-26.6548 70,-19.6578"/>
<polygon fill="midnightblue" stroke="midnightblue" points="66.5001,-46.3993 70,-56.3993 73.5001,-46.3994 66.5001,-46.3993"/>
</g>
<!-- Node3 -->
<g id="node3" class="node"><title>Node3</title>
<g id="a_node3"><a xlink:href="class_ogre_1_1_iterator_wrapper.html" target="_top" xlink:title="Ogre::IteratorWrapper\l\&lt; T, T::iterator, T::\lvalue_type \&gt;">
<polygon fill="none" stroke="black" points="14.5,-123.5 14.5,-164.5 125.5,-164.5 125.5,-123.5 14.5,-123.5"/>
<text text-anchor="start" x="22.5" y="-152.5" font-family="Helvetica,sans-Serif" font-size="10.00">Ogre::IteratorWrapper</text>
<text text-anchor="start" x="22.5" y="-141.5" font-family="Helvetica,sans-Serif" font-size="10.00">&lt; T, T::iterator, T::</text>
<text text-anchor="middle" x="70" y="-130.5" font-family="Helvetica,sans-Serif" font-size="10.00">value_type &gt;</text>
</a>
</g>
</g>
<!-- Node3&#45;&gt;Node2 -->
<g id="edge2" class="edge"><title>Node3&#45;&gt;Node2</title>
<path fill="none" stroke="midnightblue" d="M70,-113.08C70,-104.006 70,-94.4498 70,-86.8916"/>
<polygon fill="midnightblue" stroke="midnightblue" points="66.5001,-113.362 70,-123.362 73.5001,-113.362 66.5001,-113.362"/>
</g>
</g>
</svg>
