<?xml version="1.0" encoding="UTF-8" standalone="no"?>
<!DOCTYPE svg PUBLIC "-//W3C//DTD SVG 1.1//EN"
 "http://www.w3.org/Graphics/SVG/1.1/DTD/svg11.dtd">
<!-- Generated by graphviz version 2.38.0 (20140413.2041)
 -->
<!-- Title: Ogre::EGLContext Pages: 1 -->
<svg width="435pt" height="142pt"
 viewBox="0.00 0.00 435.00 142.00" xmlns="http://www.w3.org/2000/svg" xmlns:xlink="http://www.w3.org/1999/xlink">
<g id="graph0" class="graph" transform="scale(1 1) rotate(0) translate(4 138)">
<title>Ogre::EGLContext</title>
<!-- Node1 -->
<g id="node1" class="node"><title>Node1</title>
<polygon fill="#bfbfbf" stroke="black" points="146,-57.5 146,-76.5 244,-76.5 244,-57.5 146,-57.5"/>
<text text-anchor="middle" x="195" y="-64.5" font-family="Helvetica,sans-Serif" font-size="10.00">Ogre::EGLContext</text>
</g>
<!-- Node3 -->
<g id="node3" class="node"><title>Node3</title>
<g id="a_node3"><a xlink:href="class_ogre_1_1_android_e_g_l_context.html" target="_top" xlink:title="Ogre::AndroidEGLContext">
<polygon fill="none" stroke="black" points="288,-114.5 288,-133.5 419,-133.5 419,-114.5 288,-114.5"/>
<text text-anchor="middle" x="353.5" y="-121.5" font-family="Helvetica,sans-Serif" font-size="10.00">Ogre::AndroidEGLContext</text>
</a>
</g>
</g>
<!-- Node1&#45;&gt;Node3 -->
<g id="edge2" class="edge"><title>Node1&#45;&gt;Node3</title>
<path fill="none" stroke="midnightblue" d="M224.01,-81.1047C240.114,-88.8488 260.885,-98.2259 280,-105 289.934,-108.52 300.84,-111.715 311.108,-114.438"/>
<polygon fill="midnightblue" stroke="midnightblue" points="225.164,-77.7733 214.642,-76.5318 222.093,-84.0638 225.164,-77.7733"/>
</g>
<!-- Node4 -->
<g id="node4" class="node"><title>Node4</title>
<g id="a_node4"><a xlink:href="class_ogre_1_1_emscripten_e_g_l_context.html" target="_top" xlink:title="Ogre::EmscriptenEGLContext">
<polygon fill="none" stroke="black" points="280,-76.5 280,-95.5 427,-95.5 427,-76.5 280,-76.5"/>
<text text-anchor="middle" x="353.5" y="-83.5" font-family="Helvetica,sans-Serif" font-size="10.00">Ogre::EmscriptenEGLContext</text>
</a>
</g>
</g>
<!-- Node1&#45;&gt;Node4 -->
<g id="edge3" class="edge"><title>Node1&#45;&gt;Node4</title>
<path fill="none" stroke="midnightblue" d="M254.265,-74.0737C262.646,-75.0912 271.355,-76.1485 279.971,-77.1946"/>
<polygon fill="midnightblue" stroke="midnightblue" points="254.581,-70.5865 244.232,-72.8557 253.737,-77.5354 254.581,-70.5865"/>
</g>
<!-- Node5 -->
<g id="node5" class="node"><title>Node5</title>
<g id="a_node5"><a xlink:href="class_ogre_1_1_win32_e_g_l_context.html" target="_top" xlink:title="Ogre::Win32EGLContext">
<polygon fill="none" stroke="black" points="291,-38.5 291,-57.5 416,-57.5 416,-38.5 291,-38.5"/>
<text text-anchor="middle" x="353.5" y="-45.5" font-family="Helvetica,sans-Serif" font-size="10.00">Ogre::Win32EGLContext</text>
</a>
</g>
</g>
<!-- Node1&#45;&gt;Node5 -->
<g id="edge4" class="edge"><title>Node1&#45;&gt;Node5</title>
<path fill="none" stroke="midnightblue" d="M254.471,-59.9013C266.346,-58.4595 278.873,-56.9388 290.854,-55.4842"/>
<polygon fill="midnightblue" stroke="midnightblue" points="253.737,-56.4646 244.232,-61.1443 254.581,-63.4135 253.737,-56.4646"/>
</g>
<!-- Node6 -->
<g id="node6" class="node"><title>Node6</title>
<g id="a_node6"><a xlink:href="class_ogre_1_1_x11_e_g_l_context.html" target="_top" xlink:title="Ogre::X11EGLContext">
<polygon fill="none" stroke="black" points="296,-0.5 296,-19.5 411,-19.5 411,-0.5 296,-0.5"/>
<text text-anchor="middle" x="353.5" y="-7.5" font-family="Helvetica,sans-Serif" font-size="10.00">Ogre::X11EGLContext</text>
</a>
</g>
</g>
<!-- Node1&#45;&gt;Node6 -->
<g id="edge5" class="edge"><title>Node1&#45;&gt;Node6</title>
<path fill="none" stroke="midnightblue" d="M224.01,-52.8953C240.114,-45.1512 260.885,-35.7741 280,-29 289.934,-25.4795 300.84,-22.2847 311.108,-19.5619"/>
<polygon fill="midnightblue" stroke="midnightblue" points="222.093,-49.9362 214.642,-57.4682 225.164,-56.2267 222.093,-49.9362"/>
</g>
<!-- Node2 -->
<g id="node2" class="node"><title>Node2</title>
<g id="a_node2"><a xlink:href="class_ogre_1_1_g_l_e_s2_context.html" target="_top" xlink:title="Class that encapsulates an GL context. ">
<polygon fill="none" stroke="black" points="0,-57.5 0,-76.5 110,-76.5 110,-57.5 0,-57.5"/>
<text text-anchor="middle" x="55" y="-64.5" font-family="Helvetica,sans-Serif" font-size="10.00">Ogre::GLES2Context</text>
</a>
</g>
</g>
<!-- Node2&#45;&gt;Node1 -->
<g id="edge1" class="edge"><title>Node2&#45;&gt;Node1</title>
<path fill="none" stroke="midnightblue" d="M120.196,-67C128.824,-67 137.554,-67 145.84,-67"/>
<polygon fill="midnightblue" stroke="midnightblue" points="120.145,-63.5001 110.145,-67 120.145,-70.5001 120.145,-63.5001"/>
</g>
</g>
</svg>
