<?xml version="1.0" encoding="UTF-8" standalone="no"?>
<!DOCTYPE svg PUBLIC "-//W3C//DTD SVG 1.1//EN"
 "http://www.w3.org/Graphics/SVG/1.1/DTD/svg11.dtd">
<!-- Generated by graphviz version 2.40.1 (20161225.0304)
 -->
<!-- Title: Ogre::TexBufferPacked Pages: 1 -->
<svg width="645pt" height="192pt"
 viewBox="0.00 0.00 645.00 192.00" xmlns="http://www.w3.org/2000/svg" xmlns:xlink="http://www.w3.org/1999/xlink">
<g id="graph0" class="graph" transform="scale(1 1) rotate(0) translate(4 188)">
<title>Ogre::TexBufferPacked</title>
<!-- Node0 -->
<g id="node1" class="node">
<title>Node0</title>
<polygon fill="#bfbfbf" stroke="#000000" points="293,-76.5 293,-95.5 422,-95.5 422,-76.5 293,-76.5"/>
<text text-anchor="middle" x="357.5" y="-83.5" font-family="Helvetica,sans-Serif" font-size="10.00" fill="#000000">Ogre::TexBufferPacked</text>
</g>
<!-- Node4 -->
<g id="node5" class="node">
<title>Node4</title>
<g id="a_node5"><a xlink:href="class_ogre_1_1_d3_d11_tex_buffer_packed.html" target="_top" xlink:title="Ogre::D3D11TexBufferPacked">
<polygon fill="none" stroke="#000000" points="466.5,-164.5 466.5,-183.5 628.5,-183.5 628.5,-164.5 466.5,-164.5"/>
<text text-anchor="middle" x="547.5" y="-171.5" font-family="Helvetica,sans-Serif" font-size="10.00" fill="#000000">Ogre::D3D11TexBufferPacked</text>
</a>
</g>
</g>
<!-- Node0&#45;&gt;Node4 -->
<g id="edge4" class="edge">
<title>Node0&#45;&gt;Node4</title>
<path fill="none" stroke="#191970" d="M376.0696,-102.1142C395.2931,-117.9471 426.8274,-141.6208 458,-155 467.05,-158.8842 476.9661,-162.0015 486.7978,-164.4954"/>
<polygon fill="#191970" stroke="#191970" points="378.2935,-99.4113 368.3853,-95.6591 373.791,-104.7711 378.2935,-99.4113"/>
</g>
<!-- Node5 -->
<g id="node6" class="node">
<title>Node5</title>
<g id="a_node6"><a xlink:href="class_ogre_1_1_g_l3_plus_tex_buffer_emulated_packed.html" target="_top" xlink:title="Ogre::GL3PlusTexBufferEmulated\lPacked">
<polygon fill="none" stroke="#000000" points="458,-115 458,-145 637,-145 637,-115 458,-115"/>
<text text-anchor="start" x="466" y="-133" font-family="Helvetica,sans-Serif" font-size="10.00" fill="#000000">Ogre::GL3PlusTexBufferEmulated</text>
<text text-anchor="middle" x="547.5" y="-122" font-family="Helvetica,sans-Serif" font-size="10.00" fill="#000000">Packed</text>
</a>
</g>
</g>
<!-- Node0&#45;&gt;Node5 -->
<g id="edge5" class="edge">
<title>Node0&#45;&gt;Node5</title>
<path fill="none" stroke="#191970" d="M408.5114,-97.8132C431.2412,-103.0769 458.2825,-109.3391 482.445,-114.9346"/>
<polygon fill="#191970" stroke="#191970" points="409.259,-94.3937 398.7272,-95.5473 407.6797,-101.2133 409.259,-94.3937"/>
</g>
<!-- Node6 -->
<g id="node7" class="node">
<title>Node6</title>
<g id="a_node7"><a xlink:href="class_ogre_1_1_g_l3_plus_tex_buffer_packed.html" target="_top" xlink:title="Ogre::GL3PlusTexBufferPacked">
<polygon fill="none" stroke="#000000" points="463.5,-76.5 463.5,-95.5 631.5,-95.5 631.5,-76.5 463.5,-76.5"/>
<text text-anchor="middle" x="547.5" y="-83.5" font-family="Helvetica,sans-Serif" font-size="10.00" fill="#000000">Ogre::GL3PlusTexBufferPacked</text>
</a>
</g>
</g>
<!-- Node0&#45;&gt;Node6 -->
<g id="edge6" class="edge">
<title>Node0&#45;&gt;Node6</title>
<path fill="none" stroke="#191970" d="M432.1612,-86C442.3599,-86 452.8867,-86 463.2411,-86"/>
<polygon fill="#191970" stroke="#191970" points="432.0905,-82.5001 422.0905,-86 432.0904,-89.5001 432.0905,-82.5001"/>
</g>
<!-- Node7 -->
<g id="node8" class="node">
<title>Node7</title>
<g id="a_node8"><a xlink:href="class_ogre_1_1_metal_tex_buffer_packed.html" target="_top" xlink:title="Ogre::MetalTexBufferPacked">
<polygon fill="none" stroke="#000000" points="469,-38.5 469,-57.5 626,-57.5 626,-38.5 469,-38.5"/>
<text text-anchor="middle" x="547.5" y="-45.5" font-family="Helvetica,sans-Serif" font-size="10.00" fill="#000000">Ogre::MetalTexBufferPacked</text>
</a>
</g>
</g>
<!-- Node0&#45;&gt;Node7 -->
<g id="edge7" class="edge">
<title>Node0&#45;&gt;Node7</title>
<path fill="none" stroke="#191970" d="M415.5475,-74.3905C442.5699,-68.986 474.3176,-62.6365 499.8997,-57.5201"/>
<polygon fill="#191970" stroke="#191970" points="414.5644,-71.0177 405.445,-76.411 415.9373,-77.8818 414.5644,-71.0177"/>
</g>
<!-- Node8 -->
<g id="node9" class="node">
<title>Node8</title>
<g id="a_node9"><a xlink:href="class_ogre_1_1_n_u_l_l_tex_buffer_packed.html" target="_top" xlink:title="Ogre::NULLTexBufferPacked">
<polygon fill="none" stroke="#000000" points="470.5,-.5 470.5,-19.5 624.5,-19.5 624.5,-.5 470.5,-.5"/>
<text text-anchor="middle" x="547.5" y="-7.5" font-family="Helvetica,sans-Serif" font-size="10.00" fill="#000000">Ogre::NULLTexBufferPacked</text>
</a>
</g>
</g>
<!-- Node0&#45;&gt;Node8 -->
<g id="edge8" class="edge">
<title>Node0&#45;&gt;Node8</title>
<path fill="none" stroke="#191970" d="M379.6926,-70.7597C399.4323,-57.8659 429.5043,-39.8091 458,-29 467.9508,-25.2254 478.8234,-22.1252 489.4537,-19.6048"/>
<polygon fill="#191970" stroke="#191970" points="377.5277,-67.9962 371.1388,-76.448 381.4039,-73.825 377.5277,-67.9962"/>
</g>
<!-- Node1 -->
<g id="node2" class="node">
<title>Node1</title>
<g id="a_node2"><a xlink:href="class_ogre_1_1_buffer_packed.html" target="_top" xlink:title="Ogre::BufferPacked">
<polygon fill="none" stroke="#000000" points="146,-76.5 146,-95.5 257,-95.5 257,-76.5 146,-76.5"/>
<text text-anchor="middle" x="201.5" y="-83.5" font-family="Helvetica,sans-Serif" font-size="10.00" fill="#000000">Ogre::BufferPacked</text>
</a>
</g>
</g>
<!-- Node1&#45;&gt;Node0 -->
<g id="edge1" class="edge">
<title>Node1&#45;&gt;Node0</title>
<path fill="none" stroke="#191970" d="M267.5358,-86C275.9626,-86 284.5803,-86 292.9826,-86"/>
<polygon fill="#191970" stroke="#191970" points="267.379,-82.5001 257.379,-86 267.3789,-89.5001 267.379,-82.5001"/>
</g>
<!-- Node2 -->
<g id="node3" class="node">
<title>Node2</title>
<g id="a_node3"><a xlink:href="struct_ogre_1_1_gpu_resource.html" target="_top" xlink:title="Ogre::GpuResource">
<polygon fill="none" stroke="#000000" points="0,-95.5 0,-114.5 110,-114.5 110,-95.5 0,-95.5"/>
<text text-anchor="middle" x="55" y="-102.5" font-family="Helvetica,sans-Serif" font-size="10.00" fill="#000000">Ogre::GpuResource</text>
</a>
</g>
</g>
<!-- Node2&#45;&gt;Node1 -->
<g id="edge2" class="edge">
<title>Node2&#45;&gt;Node1</title>
<path fill="none" stroke="#191970" d="M120.4904,-96.5064C128.8546,-95.4216 137.3553,-94.3191 145.5497,-93.2564"/>
<polygon fill="#191970" stroke="#191970" points="119.8521,-93.0597 110.3854,-97.8169 120.7525,-100.0016 119.8521,-93.0597"/>
</g>
<!-- Node3 -->
<g id="node4" class="node">
<title>Node3</title>
<g id="a_node4"><a xlink:href="class_ogre_1_1_allocated_object.html" target="_top" xlink:title="Superclass for all objects that wish to use custom memory allocators when their new / delete operator...">
<polygon fill="none" stroke="#000000" points="2,-57.5 2,-76.5 108,-76.5 108,-57.5 2,-57.5"/>
<text text-anchor="middle" x="55" y="-64.5" font-family="Helvetica,sans-Serif" font-size="10.00" fill="#000000">BufferPackedAlloc</text>
</a>
</g>
</g>
<!-- Node3&#45;&gt;Node1 -->
<g id="edge3" class="edge">
<title>Node3&#45;&gt;Node1</title>
<path fill="none" stroke="#191970" d="M118.3834,-75.2204C127.4138,-76.3916 136.6481,-77.5892 145.5235,-78.7403"/>
<polygon fill="#191970" stroke="#191970" points="118.6714,-71.7285 108.3043,-73.9132 117.771,-78.6704 118.6714,-71.7285"/>
</g>
</g>
</svg>
