<?xml version="1.0" encoding="UTF-8" standalone="no"?>
<!DOCTYPE svg PUBLIC "-//W3C//DTD SVG 1.1//EN"
 "http://www.w3.org/Graphics/SVG/1.1/DTD/svg11.dtd">
<!-- Generated by graphviz version 2.40.1 (20161225.0304)
 -->
<!-- Title: Ogre::ConstBufferPacked Pages: 1 -->
<svg width="648pt" height="154pt"
 viewBox="0.00 0.00 648.00 154.00" xmlns="http://www.w3.org/2000/svg" xmlns:xlink="http://www.w3.org/1999/xlink">
<g id="graph0" class="graph" transform="scale(1 1) rotate(0) translate(4 150)">
<title>Ogre::ConstBufferPacked</title>
<!-- Node0 -->
<g id="node1" class="node">
<title>Node0</title>
<polygon fill="#bfbfbf" stroke="#000000" points="293,-60.5 293,-79.5 432,-79.5 432,-60.5 293,-60.5"/>
<text text-anchor="middle" x="362.5" y="-67.5" font-family="Helvetica,sans-Serif" font-size="10.00" fill="#000000">Ogre::ConstBufferPacked</text>
</g>
<!-- Node4 -->
<g id="node5" class="node">
<title>Node4</title>
<g id="a_node5"><a xlink:href="class_ogre_1_1_d3_d11_const_buffer_packed.html" target="_top" xlink:title="Ogre::D3D11ConstBufferPacked">
<polygon fill="none" stroke="#000000" points="468,-126.5 468,-145.5 640,-145.5 640,-126.5 468,-126.5"/>
<text text-anchor="middle" x="554" y="-133.5" font-family="Helvetica,sans-Serif" font-size="10.00" fill="#000000">Ogre::D3D11ConstBufferPacked</text>
</a>
</g>
</g>
<!-- Node0&#45;&gt;Node4 -->
<g id="edge4" class="edge">
<title>Node0&#45;&gt;Node4</title>
<path fill="none" stroke="#191970" d="M390.0638,-84.1249C411.0035,-94.3972 440.7503,-108.022 468,-117 479.0372,-120.6364 491.1007,-123.7883 502.6083,-126.4228"/>
<polygon fill="#191970" stroke="#191970" points="391.6158,-80.9878 381.1033,-79.6698 388.4994,-87.2559 391.6158,-80.9878"/>
</g>
<!-- Node5 -->
<g id="node6" class="node">
<title>Node5</title>
<g id="a_node6"><a xlink:href="class_ogre_1_1_g_l3_plus_const_buffer_packed.html" target="_top" xlink:title="Ogre::GL3PlusConstBuffer\lPacked">
<polygon fill="none" stroke="#000000" points="482.5,-77 482.5,-107 625.5,-107 625.5,-77 482.5,-77"/>
<text text-anchor="start" x="490.5" y="-95" font-family="Helvetica,sans-Serif" font-size="10.00" fill="#000000">Ogre::GL3PlusConstBuffer</text>
<text text-anchor="middle" x="554" y="-84" font-family="Helvetica,sans-Serif" font-size="10.00" fill="#000000">Packed</text>
</a>
</g>
</g>
<!-- Node0&#45;&gt;Node5 -->
<g id="edge5" class="edge">
<title>Node0&#45;&gt;Node5</title>
<path fill="none" stroke="#191970" d="M442.2667,-79.1638C455.5916,-80.6946 469.3416,-82.2742 482.4446,-83.7795"/>
<polygon fill="#191970" stroke="#191970" points="442.5118,-75.669 432.1776,-78.0047 441.7128,-82.6233 442.5118,-75.669"/>
</g>
<!-- Node6 -->
<g id="node7" class="node">
<title>Node6</title>
<g id="a_node7"><a xlink:href="class_ogre_1_1_metal_const_buffer_packed.html" target="_top" xlink:title="Ogre::MetalConstBufferPacked">
<polygon fill="none" stroke="#000000" points="470.5,-38.5 470.5,-57.5 637.5,-57.5 637.5,-38.5 470.5,-38.5"/>
<text text-anchor="middle" x="554" y="-45.5" font-family="Helvetica,sans-Serif" font-size="10.00" fill="#000000">Ogre::MetalConstBufferPacked</text>
</a>
</g>
</g>
<!-- Node0&#45;&gt;Node6 -->
<g id="edge6" class="edge">
<title>Node0&#45;&gt;Node6</title>
<path fill="none" stroke="#191970" d="M442.3538,-60.8262C451.8258,-59.738 461.5114,-58.6253 471.0256,-57.5323"/>
<polygon fill="#191970" stroke="#191970" points="441.7128,-57.3767 432.1776,-61.9953 442.5118,-64.331 441.7128,-57.3767"/>
</g>
<!-- Node7 -->
<g id="node8" class="node">
<title>Node7</title>
<g id="a_node8"><a xlink:href="class_ogre_1_1_n_u_l_l_const_buffer_packed.html" target="_top" xlink:title="Ogre::NULLConstBufferPacked">
<polygon fill="none" stroke="#000000" points="472,-.5 472,-19.5 636,-19.5 636,-.5 472,-.5"/>
<text text-anchor="middle" x="554" y="-7.5" font-family="Helvetica,sans-Serif" font-size="10.00" fill="#000000">Ogre::NULLConstBufferPacked</text>
</a>
</g>
</g>
<!-- Node0&#45;&gt;Node7 -->
<g id="edge7" class="edge">
<title>Node0&#45;&gt;Node7</title>
<path fill="none" stroke="#191970" d="M393.6644,-56.4359C414.4387,-47.7571 442.5098,-36.7192 468,-29 479.7074,-25.4547 492.4962,-22.2697 504.5471,-19.5661"/>
<polygon fill="#191970" stroke="#191970" points="392.2308,-53.242 384.3825,-60.3593 394.9562,-59.6897 392.2308,-53.242"/>
</g>
<!-- Node1 -->
<g id="node2" class="node">
<title>Node1</title>
<g id="a_node2"><a xlink:href="class_ogre_1_1_buffer_packed.html" target="_top" xlink:title="Ogre::BufferPacked">
<polygon fill="none" stroke="#000000" points="146,-60.5 146,-79.5 257,-79.5 257,-60.5 146,-60.5"/>
<text text-anchor="middle" x="201.5" y="-67.5" font-family="Helvetica,sans-Serif" font-size="10.00" fill="#000000">Ogre::BufferPacked</text>
</a>
</g>
</g>
<!-- Node1&#45;&gt;Node0 -->
<g id="edge1" class="edge">
<title>Node1&#45;&gt;Node0</title>
<path fill="none" stroke="#191970" d="M267.4406,-70C275.8158,-70 284.4085,-70 292.8395,-70"/>
<polygon fill="#191970" stroke="#191970" points="267.3582,-66.5001 257.3581,-70 267.3581,-73.5001 267.3582,-66.5001"/>
</g>
<!-- Node2 -->
<g id="node3" class="node">
<title>Node2</title>
<g id="a_node3"><a xlink:href="struct_ogre_1_1_gpu_resource.html" target="_top" xlink:title="Ogre::GpuResource">
<polygon fill="none" stroke="#000000" points="0,-79.5 0,-98.5 110,-98.5 110,-79.5 0,-79.5"/>
<text text-anchor="middle" x="55" y="-86.5" font-family="Helvetica,sans-Serif" font-size="10.00" fill="#000000">Ogre::GpuResource</text>
</a>
</g>
</g>
<!-- Node2&#45;&gt;Node1 -->
<g id="edge2" class="edge">
<title>Node2&#45;&gt;Node1</title>
<path fill="none" stroke="#191970" d="M120.4904,-80.5064C128.8546,-79.4216 137.3553,-78.3191 145.5497,-77.2564"/>
<polygon fill="#191970" stroke="#191970" points="119.8521,-77.0597 110.3854,-81.8169 120.7525,-84.0016 119.8521,-77.0597"/>
</g>
<!-- Node3 -->
<g id="node4" class="node">
<title>Node3</title>
<g id="a_node4"><a xlink:href="class_ogre_1_1_allocated_object.html" target="_top" xlink:title="Superclass for all objects that wish to use custom memory allocators when their new / delete operator...">
<polygon fill="none" stroke="#000000" points="2,-41.5 2,-60.5 108,-60.5 108,-41.5 2,-41.5"/>
<text text-anchor="middle" x="55" y="-48.5" font-family="Helvetica,sans-Serif" font-size="10.00" fill="#000000">BufferPackedAlloc</text>
</a>
</g>
</g>
<!-- Node3&#45;&gt;Node1 -->
<g id="edge3" class="edge">
<title>Node3&#45;&gt;Node1</title>
<path fill="none" stroke="#191970" d="M118.3834,-59.2204C127.4138,-60.3916 136.6481,-61.5892 145.5235,-62.7403"/>
<polygon fill="#191970" stroke="#191970" points="118.6714,-55.7285 108.3043,-57.9132 117.771,-62.6704 118.6714,-55.7285"/>
</g>
</g>
</svg>
