<?xml version="1.0" encoding="UTF-8" standalone="no"?>
<!DOCTYPE svg PUBLIC "-//W3C//DTD SVG 1.1//EN"
 "http://www.w3.org/Graphics/SVG/1.1/DTD/svg11.dtd">
<!-- Generated by graphviz version 2.40.1 (20161225.0304)
 -->
<!-- Title: Ogre::SmallVectorImpl&lt; T &gt; Pages: 1 -->
<svg width="417pt" height="352pt"
 viewBox="0.00 0.00 417.00 352.00" xmlns="http://www.w3.org/2000/svg" xmlns:xlink="http://www.w3.org/1999/xlink">
<g id="graph0" class="graph" transform="scale(1 1) rotate(0) translate(4 348)">
<title>Ogre::SmallVectorImpl&lt; T &gt;</title>
<!-- Node0 -->
<g id="node1" class="node">
<title>Node0</title>
<polygon fill="#bfbfbf" stroke="#000000" points="131.5,-123.5 131.5,-142.5 286.5,-142.5 286.5,-123.5 131.5,-123.5"/>
<text text-anchor="middle" x="209" y="-130.5" font-family="Helvetica,sans-Serif" font-size="10.00" fill="#000000">Ogre::SmallVectorImpl&lt; T &gt;</text>
</g>
<!-- Node4 -->
<g id="node5" class="node">
<title>Node4</title>
<g id="a_node5"><a xlink:href="class_ogre_1_1_small_vector.html" target="_top" xlink:title="SmallVector &#45; This is a &#39;vector&#39; (really, a variable&#45;sized array), optimized for the case when the ar...">
<polygon fill="none" stroke="#000000" points="0,-62 0,-81 134,-81 134,-62 0,-62"/>
<text text-anchor="middle" x="67" y="-69" font-family="Helvetica,sans-Serif" font-size="10.00" fill="#000000">Ogre::SmallVector&lt; T &gt;</text>
</a>
</g>
</g>
<!-- Node0&#45;&gt;Node4 -->
<g id="edge7" class="edge">
<title>Node0&#45;&gt;Node4</title>
<path fill="none" stroke="#191970" d="M172.1185,-119.4955C143.6577,-107.858 105.759,-91.3501 83.9824,-81.0419"/>
<polygon fill="#191970" stroke="#191970" points="171.1672,-122.8861 181.75,-123.3906 173.7916,-116.3967 171.1672,-122.8861"/>
</g>
<!-- Node0&#45;&gt;Node4 -->
<g id="edge8" class="edge">
<title>Node0&#45;&gt;Node4</title>
<path fill="none" stroke="#191970" d="M182.5192,-119.0357C157.2372,-107.4265 119.5683,-91.2151 94.081,-81.0419"/>
<polygon fill="#191970" stroke="#191970" points="181.332,-122.3436 191.875,-123.3906 184.2861,-115.9975 181.332,-122.3436"/>
</g>
<!-- Node5 -->
<g id="node6" class="node">
<title>Node5</title>
<g id="a_node6"><a xlink:href="class_ogre_1_1_small_vector_3_01_t_00_010_01_4.html" target="_top" xlink:title="Specialize SmallVector at N=0. ">
<polygon fill="none" stroke="#000000" points="152.5,-56.5 152.5,-86.5 265.5,-86.5 265.5,-56.5 152.5,-56.5"/>
<text text-anchor="start" x="160.5" y="-74.5" font-family="Helvetica,sans-Serif" font-size="10.00" fill="#000000">Ogre::SmallVector&lt;</text>
<text text-anchor="middle" x="209" y="-63.5" font-family="Helvetica,sans-Serif" font-size="10.00" fill="#000000"> T, 0 &gt;</text>
</a>
</g>
</g>
<!-- Node0&#45;&gt;Node5 -->
<g id="edge9" class="edge">
<title>Node0&#45;&gt;Node5</title>
<path fill="none" stroke="#191970" d="M202.6586,-113.3693C201.9926,-104.681 202.1407,-94.6241 203.1029,-86.5446"/>
<polygon fill="#191970" stroke="#191970" points="199.1997,-113.9142 203.9375,-123.3906 206.1433,-113.028 199.1997,-113.9142"/>
</g>
<!-- Node0&#45;&gt;Node5 -->
<g id="edge10" class="edge">
<title>Node0&#45;&gt;Node5</title>
<path fill="none" stroke="#191970" d="M215.3414,-113.3693C216.0074,-104.681 215.8593,-94.6241 214.8971,-86.5446"/>
<polygon fill="#191970" stroke="#191970" points="211.8567,-113.028 214.0625,-123.3906 218.8003,-113.9142 211.8567,-113.028"/>
</g>
<!-- Node6 -->
<g id="node7" class="node">
<title>Node6</title>
<g id="a_node7"><a xlink:href="class_ogre_1_1_small_vector.html" target="_top" xlink:title="SmallVector\&lt; T, S \&gt;">
<polygon fill="none" stroke="#000000" points="284,-62 284,-81 400,-81 400,-62 284,-62"/>
<text text-anchor="middle" x="342" y="-69" font-family="Helvetica,sans-Serif" font-size="10.00" fill="#000000">SmallVector&lt; T, S &gt;</text>
</a>
</g>
</g>
<!-- Node0&#45;&gt;Node6 -->
<g id="edge11" class="edge">
<title>Node0&#45;&gt;Node6</title>
<path fill="none" stroke="#191970" d="M233.751,-118.8813C257.3325,-107.2832 292.423,-91.1701 316.3154,-81.0419"/>
<polygon fill="#191970" stroke="#191970" points="232.1023,-115.7924 224.7188,-123.3906 235.2291,-122.0553 232.1023,-115.7924"/>
</g>
<!-- Node0&#45;&gt;Node6 -->
<g id="edge13" class="edge">
<title>Node0&#45;&gt;Node6</title>
<path fill="none" stroke="#191970" d="M244.2562,-119.3428C270.9726,-107.7139 306.2344,-91.3051 326.414,-81.0419"/>
<polygon fill="#191970" stroke="#191970" points="242.6475,-116.2246 234.8438,-123.3906 245.413,-122.6552 242.6475,-116.2246"/>
</g>
<!-- Node1 -->
<g id="node2" class="node">
<title>Node1</title>
<g id="a_node2"><a xlink:href="class_ogre_1_1_small_vector_template_base.html" target="_top" xlink:title="Ogre::SmallVectorTemplate\lBase\&lt; T, isPodLike\&lt; T \&gt;\l::value \&gt;">
<polygon fill="none" stroke="#000000" points="133,-179.5 133,-220.5 285,-220.5 285,-179.5 133,-179.5"/>
<text text-anchor="start" x="141" y="-208.5" font-family="Helvetica,sans-Serif" font-size="10.00" fill="#000000">Ogre::SmallVectorTemplate</text>
<text text-anchor="start" x="141" y="-197.5" font-family="Helvetica,sans-Serif" font-size="10.00" fill="#000000">Base&lt; T, isPodLike&lt; T &gt;</text>
<text text-anchor="middle" x="209" y="-186.5" font-family="Helvetica,sans-Serif" font-size="10.00" fill="#000000">::value &gt;</text>
</a>
</g>
</g>
<!-- Node1&#45;&gt;Node0 -->
<g id="edge1" class="edge">
<title>Node1&#45;&gt;Node0</title>
<path fill="none" stroke="#191970" d="M202.268,-169.0909C202.1356,-159.5672 202.7345,-149.7625 204.0646,-142.7805"/>
<polygon fill="#191970" stroke="#191970" points="198.7748,-169.3266 202.6987,-179.168 205.7684,-169.0277 198.7748,-169.3266"/>
</g>
<!-- Node1&#45;&gt;Node0 -->
<g id="edge6" class="edge">
<title>Node1&#45;&gt;Node0</title>
<path fill="none" stroke="#191970" d="M215.732,-169.0909C215.8644,-159.5672 215.2655,-149.7625 213.9354,-142.7805"/>
<polygon fill="#191970" stroke="#191970" points="212.2316,-169.0277 215.3013,-179.168 219.2252,-169.3266 212.2316,-169.0277"/>
</g>
<!-- Node2 -->
<g id="node3" class="node">
<title>Node2</title>
<g id="a_node3"><a xlink:href="class_ogre_1_1_small_vector_template_common.html" target="_top" xlink:title="Ogre::SmallVectorTemplate\lCommon\&lt; T \&gt;">
<polygon fill="none" stroke="#000000" points="133,-257.5 133,-287.5 285,-287.5 285,-257.5 133,-257.5"/>
<text text-anchor="start" x="141" y="-275.5" font-family="Helvetica,sans-Serif" font-size="10.00" fill="#000000">Ogre::SmallVectorTemplate</text>
<text text-anchor="middle" x="209" y="-264.5" font-family="Helvetica,sans-Serif" font-size="10.00" fill="#000000">Common&lt; T &gt;</text>
</a>
</g>
</g>
<!-- Node2&#45;&gt;Node1 -->
<g id="edge2" class="edge">
<title>Node2&#45;&gt;Node1</title>
<path fill="none" stroke="#191970" d="M202.5423,-247.4016C202.0679,-238.6173 202.171,-228.8652 202.8514,-220.5015"/>
<polygon fill="#191970" stroke="#191970" points="199.0647,-247.814 203.4073,-257.478 206.0391,-247.2152 199.0647,-247.814"/>
</g>
<!-- Node2&#45;&gt;Node1 -->
<g id="edge5" class="edge">
<title>Node2&#45;&gt;Node1</title>
<path fill="none" stroke="#191970" d="M215.4577,-247.4016C215.9321,-238.6173 215.829,-228.8652 215.1486,-220.5015"/>
<polygon fill="#191970" stroke="#191970" points="211.9609,-247.2152 214.5927,-257.478 218.9353,-247.814 211.9609,-247.2152"/>
</g>
<!-- Node3 -->
<g id="node4" class="node">
<title>Node3</title>
<g id="a_node4"><a xlink:href="class_ogre_1_1_small_vector_base.html" target="_top" xlink:title="SmallVectorBase &#45; This is all the non&#45;templated stuff common to all SmallVectors. ...">
<polygon fill="none" stroke="#000000" points="144.5,-324.5 144.5,-343.5 273.5,-343.5 273.5,-324.5 144.5,-324.5"/>
<text text-anchor="middle" x="209" y="-331.5" font-family="Helvetica,sans-Serif" font-size="10.00" fill="#000000">Ogre::SmallVectorBase</text>
</a>
</g>
</g>
<!-- Node3&#45;&gt;Node2 -->
<g id="edge3" class="edge">
<title>Node3&#45;&gt;Node2</title>
<path fill="none" stroke="#191970" d="M202.6586,-314.3693C201.9926,-305.681 202.1407,-295.6241 203.1029,-287.5446"/>
<polygon fill="#191970" stroke="#191970" points="199.1997,-314.9142 203.9375,-324.3906 206.1433,-314.028 199.1997,-314.9142"/>
</g>
<!-- Node3&#45;&gt;Node2 -->
<g id="edge4" class="edge">
<title>Node3&#45;&gt;Node2</title>
<path fill="none" stroke="#191970" d="M215.3414,-314.3693C216.0074,-305.681 215.8593,-295.6241 214.8971,-287.5446"/>
<polygon fill="#191970" stroke="#191970" points="211.8567,-314.028 214.0625,-324.3906 218.8003,-314.9142 211.8567,-314.028"/>
</g>
<!-- Node7 -->
<g id="node8" class="node">
<title>Node7</title>
<g id="a_node8"><a xlink:href="struct_ogre_1_1_vector_set.html" target="_top" xlink:title="VectorSet is basically a helper to use a vector as a small set container. ">
<polygon fill="none" stroke="#000000" points="275,-.5 275,-19.5 409,-19.5 409,-.5 275,-.5"/>
<text text-anchor="middle" x="342" y="-7.5" font-family="Helvetica,sans-Serif" font-size="10.00" fill="#000000">Ogre::VectorSet&lt; T, S &gt;</text>
</a>
</g>
</g>
<!-- Node6&#45;&gt;Node7 -->
<g id="edge12" class="edge">
<title>Node6&#45;&gt;Node7</title>
<path fill="none" stroke="#191970" d="M342,-51.7462C342,-41.0519 342,-28.314 342,-19.7449"/>
<polygon fill="#191970" stroke="#191970" points="338.5001,-51.8906 342,-61.8906 345.5001,-51.8907 338.5001,-51.8906"/>
</g>
</g>
</svg>
