<?xml version="1.0" encoding="UTF-8" standalone="no"?>
<!DOCTYPE svg PUBLIC "-//W3C//DTD SVG 1.1//EN"
 "http://www.w3.org/Graphics/SVG/1.1/DTD/svg11.dtd">
<!-- Generated by graphviz version 2.40.1 (20161225.0304)
 -->
<!-- Title: Ogre::MovableObject Pages: 1 -->
<svg width="898pt" height="686pt"
 viewBox="0.00 0.00 898.00 686.00" xmlns="http://www.w3.org/2000/svg" xmlns:xlink="http://www.w3.org/1999/xlink">
<g id="graph0" class="graph" transform="scale(1 1) rotate(0) translate(4 682)">
<title>Ogre::MovableObject</title>
<!-- Node0 -->
<g id="node1" class="node">
<title>Node0</title>
<polygon fill="#bfbfbf" stroke="#000000" points="160,-335.5 160,-354.5 279,-354.5 279,-335.5 160,-335.5"/>
<text text-anchor="middle" x="219.5" y="-342.5" font-family="Helvetica,sans-Serif" font-size="10.00" fill="#000000">Ogre::MovableObject</text>
</g>
<!-- Node4 -->
<g id="node5" class="node">
<title>Node4</title>
<g id="a_node5"><a xlink:href="class_ogre_1_1_frustum.html" target="_top" xlink:title="A frustum represents a pyramid, capped at the near and far end which is used to represent either a vi...">
<polygon fill="none" stroke="#000000" points="348.5,-658.5 348.5,-677.5 434.5,-677.5 434.5,-658.5 348.5,-658.5"/>
<text text-anchor="middle" x="391.5" y="-665.5" font-family="Helvetica,sans-Serif" font-size="10.00" fill="#000000">Ogre::Frustum</text>
</a>
</g>
</g>
<!-- Node0&#45;&gt;Node4 -->
<g id="edge4" class="edge">
<title>Node0&#45;&gt;Node4</title>
<path fill="none" stroke="#191970" d="M223.0852,-364.6394C234.558,-425.4031 272.1386,-608.6742 315,-649 324.0699,-657.5333 336.358,-662.4008 348.4304,-665.1303"/>
<polygon fill="#191970" stroke="#191970" points="226.5212,-363.9724 221.2514,-354.7812 219.6393,-365.2526 226.5212,-363.9724"/>
</g>
<!-- Node6 -->
<g id="node7" class="node">
<title>Node6</title>
<g id="a_node7"><a xlink:href="class_ogre_1_1_item.html" target="_top" xlink:title="Defines an instance of a discrete, movable object based on a Mesh. ">
<polygon fill="none" stroke="#000000" points="357.5,-620.5 357.5,-639.5 425.5,-639.5 425.5,-620.5 357.5,-620.5"/>
<text text-anchor="middle" x="391.5" y="-627.5" font-family="Helvetica,sans-Serif" font-size="10.00" fill="#000000">Ogre::Item</text>
</a>
</g>
</g>
<!-- Node0&#45;&gt;Node6 -->
<g id="edge6" class="edge">
<title>Node0&#45;&gt;Node6</title>
<path fill="none" stroke="#191970" d="M220.497,-364.7492C224.0933,-414.1095 240.5247,-543.7078 315,-611 326.4739,-621.3672 342.7237,-626.2841 357.2976,-628.5423"/>
<polygon fill="#191970" stroke="#191970" points="223.9886,-364.5034 219.8689,-354.7423 217.0023,-364.942 223.9886,-364.5034"/>
</g>
<!-- Node7 -->
<g id="node8" class="node">
<title>Node7</title>
<g id="a_node8"><a xlink:href="class_ogre_1_1_light.html" target="_top" xlink:title="Representation of a dynamic light source in the scene. ">
<polygon fill="none" stroke="#000000" points="356.5,-582.5 356.5,-601.5 426.5,-601.5 426.5,-582.5 356.5,-582.5"/>
<text text-anchor="middle" x="391.5" y="-589.5" font-family="Helvetica,sans-Serif" font-size="10.00" fill="#000000">Ogre::Light</text>
</a>
</g>
</g>
<!-- Node0&#45;&gt;Node7 -->
<g id="edge7" class="edge">
<title>Node0&#45;&gt;Node7</title>
<path fill="none" stroke="#191970" d="M221.805,-364.5764C228.0874,-408.812 249.6646,-516.9798 315,-573 326.4277,-582.7984 342.159,-587.6843 356.3856,-590.0703"/>
<polygon fill="#191970" stroke="#191970" points="225.2615,-364.0155 220.4933,-354.5543 218.3207,-364.924 225.2615,-364.0155"/>
</g>
<!-- Node8 -->
<g id="node9" class="node">
<title>Node8</title>
<g id="a_node9"><a xlink:href="class_ogre_1_1_manual_object.html" target="_top" xlink:title="Ogre::ManualObject">
<polygon fill="none" stroke="#000000" points="335,-544.5 335,-563.5 448,-563.5 448,-544.5 335,-544.5"/>
<text text-anchor="middle" x="391.5" y="-551.5" font-family="Helvetica,sans-Serif" font-size="10.00" fill="#000000">Ogre::ManualObject</text>
</a>
</g>
</g>
<!-- Node0&#45;&gt;Node8 -->
<g id="edge8" class="edge">
<title>Node0&#45;&gt;Node8</title>
<path fill="none" stroke="#191970" d="M223.6357,-364.7021C232.8489,-403.5417 258.8274,-490.1078 315,-535 320.8796,-539.6989 327.7639,-543.2558 334.9498,-545.9444"/>
<polygon fill="#191970" stroke="#191970" points="226.9914,-363.6711 221.3845,-354.6815 220.1616,-365.2055 226.9914,-363.6711"/>
</g>
<!-- Node9 -->
<g id="node10" class="node">
<title>Node9</title>
<g id="a_node10"><a xlink:href="class_ogre_1_1_movable_plane.html" target="_top" xlink:title="Definition of a Plane that may be attached to a node, and the derived details of it retrieved simply...">
<polygon fill="none" stroke="#000000" points="334,-506.5 334,-525.5 449,-525.5 449,-506.5 334,-506.5"/>
<text text-anchor="middle" x="391.5" y="-513.5" font-family="Helvetica,sans-Serif" font-size="10.00" fill="#000000">Ogre::MovablePlane</text>
</a>
</g>
</g>
<!-- Node0&#45;&gt;Node9 -->
<g id="edge9" class="edge">
<title>Node0&#45;&gt;Node9</title>
<path fill="none" stroke="#191970" d="M226.1335,-364.3215C238.3544,-396.931 267.5987,-462.6825 315,-497 320.6532,-501.0928 327.0901,-504.3089 333.7741,-506.8353"/>
<polygon fill="#191970" stroke="#191970" points="229.3228,-362.8478 222.6399,-354.6265 222.7373,-365.2209 229.3228,-362.8478"/>
</g>
<!-- Node10 -->
<g id="node11" class="node">
<title>Node10</title>
<g id="a_node11"><a xlink:href="class_ogre_1_1_null_entity.html" target="_top" xlink:title="Ogre::NullEntity">
<polygon fill="none" stroke="#000000" points="344.5,-468.5 344.5,-487.5 438.5,-487.5 438.5,-468.5 344.5,-468.5"/>
<text text-anchor="middle" x="391.5" y="-475.5" font-family="Helvetica,sans-Serif" font-size="10.00" fill="#000000">Ogre::NullEntity</text>
</a>
</g>
</g>
<!-- Node0&#45;&gt;Node10 -->
<g id="edge10" class="edge">
<title>Node0&#45;&gt;Node10</title>
<path fill="none" stroke="#191970" d="M229.7807,-363.4192C244.9991,-388.9282 275.9745,-434.6167 315,-459 323.8203,-464.511 334.1459,-468.4243 344.3056,-471.203"/>
<polygon fill="#191970" stroke="#191970" points="232.7793,-361.613 224.7357,-354.7172 226.7234,-365.1239 232.7793,-361.613"/>
</g>
<!-- Node11 -->
<g id="node12" class="node">
<title>Node11</title>
<g id="a_node12"><a xlink:href="class_ogre_1_1_particle_system.html" target="_top" xlink:title="Class defining particle system based special effects. ">
<polygon fill="none" stroke="#000000" points="332,-430.5 332,-449.5 451,-449.5 451,-430.5 332,-430.5"/>
<text text-anchor="middle" x="391.5" y="-437.5" font-family="Helvetica,sans-Serif" font-size="10.00" fill="#000000">Ogre::ParticleSystem</text>
</a>
</g>
</g>
<!-- Node0&#45;&gt;Node11 -->
<g id="edge11" class="edge">
<title>Node0&#45;&gt;Node11</title>
<path fill="none" stroke="#191970" d="M235.8766,-361.7486C253.7615,-379.0872 284.0123,-405.7316 315,-421 322.7336,-424.8105 331.2938,-427.8962 339.8054,-430.3831"/>
<polygon fill="#191970" stroke="#191970" points="238.1385,-359.0628 228.5711,-354.5113 233.212,-364.0357 238.1385,-359.0628"/>
</g>
<!-- Node12 -->
<g id="node13" class="node">
<title>Node12</title>
<g id="a_node13"><a xlink:href="class_ogre_1_1v1_1_1_billboard_chain.html" target="_top" xlink:title="Allows the rendering of a chain of connected billboards. ">
<polygon fill="none" stroke="#000000" points="324,-392.5 324,-411.5 459,-411.5 459,-392.5 324,-392.5"/>
<text text-anchor="middle" x="391.5" y="-399.5" font-family="Helvetica,sans-Serif" font-size="10.00" fill="#000000">Ogre::v1::BillboardChain</text>
</a>
</g>
</g>
<!-- Node0&#45;&gt;Node12 -->
<g id="edge12" class="edge">
<title>Node0&#45;&gt;Node12</title>
<path fill="none" stroke="#191970" d="M250.5778,-358.6037C269.0658,-366.3837 293.1123,-375.9629 315,-383 325.8132,-386.4765 337.6563,-389.696 348.7247,-392.4596"/>
<polygon fill="#191970" stroke="#191970" points="251.765,-355.3052 241.1931,-354.6085 249.0231,-361.7458 251.765,-355.3052"/>
</g>
<!-- Node14 -->
<g id="node15" class="node">
<title>Node14</title>
<g id="a_node15"><a xlink:href="class_ogre_1_1v1_1_1_billboard_set.html" target="_top" xlink:title="A collection of billboards (faces which are always facing the given direction) with the same (default...">
<polygon fill="none" stroke="#000000" points="330,-354.5 330,-373.5 453,-373.5 453,-354.5 330,-354.5"/>
<text text-anchor="middle" x="391.5" y="-361.5" font-family="Helvetica,sans-Serif" font-size="10.00" fill="#000000">Ogre::v1::BillboardSet</text>
</a>
</g>
</g>
<!-- Node0&#45;&gt;Node14 -->
<g id="edge14" class="edge">
<title>Node0&#45;&gt;Node14</title>
<path fill="none" stroke="#191970" d="M289.3189,-352.7126C302.7537,-354.1966 316.7351,-355.7411 329.887,-357.1939"/>
<polygon fill="#191970" stroke="#191970" points="289.4984,-349.2112 279.1745,-351.592 288.7298,-356.1689 289.4984,-349.2112"/>
</g>
<!-- Node15 -->
<g id="node16" class="node">
<title>Node15</title>
<g id="a_node16"><a xlink:href="class_ogre_1_1v1_1_1_entity.html" target="_top" xlink:title="Defines an instance of a discrete, movable object based on a Mesh. ">
<polygon fill="none" stroke="#000000" points="345.5,-316.5 345.5,-335.5 437.5,-335.5 437.5,-316.5 345.5,-316.5"/>
<text text-anchor="middle" x="391.5" y="-323.5" font-family="Helvetica,sans-Serif" font-size="10.00" fill="#000000">Ogre::v1::Entity</text>
</a>
</g>
</g>
<!-- Node0&#45;&gt;Node15 -->
<g id="edge15" class="edge">
<title>Node0&#45;&gt;Node15</title>
<path fill="none" stroke="#191970" d="M289.2581,-337.2942C308.1977,-335.202 328.2278,-332.9894 345.4919,-331.0823"/>
<polygon fill="#191970" stroke="#191970" points="288.7298,-333.8311 279.1745,-338.408 289.4984,-340.7888 288.7298,-333.8311"/>
</g>
<!-- Node16 -->
<g id="node17" class="node">
<title>Node16</title>
<g id="a_node17"><a xlink:href="class_ogre_1_1v1_1_1_instance_batch.html" target="_top" xlink:title="InstanceBatch forms part of the new Instancing system This is an abstract class that must be derived ...">
<polygon fill="none" stroke="#000000" points="325,-278.5 325,-297.5 458,-297.5 458,-278.5 325,-278.5"/>
<text text-anchor="middle" x="391.5" y="-285.5" font-family="Helvetica,sans-Serif" font-size="10.00" fill="#000000">Ogre::v1::InstanceBatch</text>
</a>
</g>
</g>
<!-- Node0&#45;&gt;Node16 -->
<g id="edge16" class="edge">
<title>Node0&#45;&gt;Node16</title>
<path fill="none" stroke="#191970" d="M250.5778,-331.3963C269.0658,-323.6163 293.1123,-314.0371 315,-307 325.8132,-303.5235 337.6563,-300.304 348.7247,-297.5404"/>
<polygon fill="#191970" stroke="#191970" points="249.0231,-328.2542 241.1931,-335.3915 251.765,-334.6948 249.0231,-328.2542"/>
</g>
<!-- Node22 -->
<g id="node23" class="node">
<title>Node22</title>
<g id="a_node23"><a xlink:href="class_ogre_1_1v1_1_1_instanced_entity.html" target="_top" xlink:title="Ogre::v1::InstancedEntity">
<polygon fill="none" stroke="#000000" points="321.5,-240.5 321.5,-259.5 461.5,-259.5 461.5,-240.5 321.5,-240.5"/>
<text text-anchor="middle" x="391.5" y="-247.5" font-family="Helvetica,sans-Serif" font-size="10.00" fill="#000000">Ogre::v1::InstancedEntity</text>
</a>
</g>
</g>
<!-- Node0&#45;&gt;Node22 -->
<g id="edge22" class="edge">
<title>Node0&#45;&gt;Node22</title>
<path fill="none" stroke="#191970" d="M235.8766,-328.2514C253.7615,-310.9128 284.0123,-284.2684 315,-269 322.7336,-265.1895 331.2938,-262.1038 339.8054,-259.6169"/>
<polygon fill="#191970" stroke="#191970" points="233.212,-325.9643 228.5711,-335.4887 238.1385,-330.9372 233.212,-325.9643"/>
</g>
<!-- Node23 -->
<g id="node24" class="node">
<title>Node23</title>
<g id="a_node24"><a xlink:href="class_ogre_1_1v1_1_1_manual_object.html" target="_top" xlink:title="Class providing a much simplified interface to generating manual objects with custom geometry...">
<polygon fill="none" stroke="#000000" points="326,-202.5 326,-221.5 457,-221.5 457,-202.5 326,-202.5"/>
<text text-anchor="middle" x="391.5" y="-209.5" font-family="Helvetica,sans-Serif" font-size="10.00" fill="#000000">Ogre::v1::ManualObject</text>
</a>
</g>
</g>
<!-- Node0&#45;&gt;Node23 -->
<g id="edge23" class="edge">
<title>Node0&#45;&gt;Node23</title>
<path fill="none" stroke="#191970" d="M229.7807,-326.5808C244.9991,-301.0718 275.9745,-255.3833 315,-231 321.2671,-227.0843 328.294,-223.9752 335.4815,-221.5065"/>
<polygon fill="#191970" stroke="#191970" points="226.7234,-324.8761 224.7357,-335.2828 232.7793,-328.387 226.7234,-324.8761"/>
</g>
<!-- Node24 -->
<g id="node25" class="node">
<title>Node24</title>
<g id="a_node25"><a xlink:href="class_ogre_1_1v1_1_1_overlay.html" target="_top" xlink:title="Represents a layer which is rendered on top of the &#39;normal&#39; scene contents. ">
<polygon fill="none" stroke="#000000" points="340.5,-164.5 340.5,-183.5 442.5,-183.5 442.5,-164.5 340.5,-164.5"/>
<text text-anchor="middle" x="391.5" y="-171.5" font-family="Helvetica,sans-Serif" font-size="10.00" fill="#000000">Ogre::v1::Overlay</text>
</a>
</g>
</g>
<!-- Node0&#45;&gt;Node24 -->
<g id="edge24" class="edge">
<title>Node0&#45;&gt;Node24</title>
<path fill="none" stroke="#191970" d="M226.1335,-325.6785C238.3544,-293.069 267.5987,-227.3175 315,-193 322.4268,-187.6232 331.2061,-183.7594 340.1212,-180.9849"/>
<polygon fill="#191970" stroke="#191970" points="222.7373,-324.7791 222.6399,-335.3735 229.3228,-327.1522 222.7373,-324.7791"/>
</g>
<!-- Node25 -->
<g id="node26" class="node">
<title>Node25</title>
<g id="a_node26"><a xlink:href="class_ogre_1_1v1_1_1_rectangle2_d.html" target="_top" xlink:title="Allows the rendering of a simple 2D rectangle This class renders a simple 2D rectangle; this rectangl...">
<polygon fill="none" stroke="#000000" points="328.5,-126.5 328.5,-145.5 454.5,-145.5 454.5,-126.5 328.5,-126.5"/>
<text text-anchor="middle" x="391.5" y="-133.5" font-family="Helvetica,sans-Serif" font-size="10.00" fill="#000000">Ogre::v1::Rectangle2D</text>
</a>
</g>
</g>
<!-- Node0&#45;&gt;Node25 -->
<g id="edge25" class="edge">
<title>Node0&#45;&gt;Node25</title>
<path fill="none" stroke="#191970" d="M223.6357,-325.2979C232.8489,-286.4583 258.8274,-199.8922 315,-155 319.8106,-151.1554 325.2938,-148.0754 331.0644,-145.6099"/>
<polygon fill="#191970" stroke="#191970" points="220.1616,-324.7945 221.3845,-335.3185 226.9914,-326.3289 220.1616,-324.7945"/>
</g>
<!-- Node26 -->
<g id="node27" class="node">
<title>Node26</title>
<g id="a_node27"><a xlink:href="class_ogre_1_1v1_1_1_simple_renderable.html" target="_top" xlink:title="Simple implementation of MovableObject and Renderable for single&#45;part custom objects. ">
<polygon fill="none" stroke="#000000" points="315,-88.5 315,-107.5 468,-107.5 468,-88.5 315,-88.5"/>
<text text-anchor="middle" x="391.5" y="-95.5" font-family="Helvetica,sans-Serif" font-size="10.00" fill="#000000">Ogre::v1::SimpleRenderable</text>
</a>
</g>
</g>
<!-- Node0&#45;&gt;Node26 -->
<g id="edge26" class="edge">
<title>Node0&#45;&gt;Node26</title>
<path fill="none" stroke="#191970" d="M221.805,-325.4236C228.0874,-281.188 249.6646,-173.0202 315,-117 319.4672,-113.1697 324.592,-110.0901 330.0275,-107.6171"/>
<polygon fill="#191970" stroke="#191970" points="218.3207,-325.076 220.4933,-335.4457 225.2615,-325.9845 218.3207,-325.076"/>
</g>
<!-- Node28 -->
<g id="node29" class="node">
<title>Node28</title>
<g id="a_node29"><a xlink:href="class_ogre_1_1v1_1_1_static_geometry_1_1_region.html" target="_top" xlink:title="The details of a topological region which is the highest level of partitioning for this class...">
<polygon fill="none" stroke="#000000" points="321.5,-39 321.5,-69 461.5,-69 461.5,-39 321.5,-39"/>
<text text-anchor="start" x="329.5" y="-57" font-family="Helvetica,sans-Serif" font-size="10.00" fill="#000000">Ogre::v1::StaticGeometry</text>
<text text-anchor="middle" x="391.5" y="-46" font-family="Helvetica,sans-Serif" font-size="10.00" fill="#000000">::Region</text>
</a>
</g>
</g>
<!-- Node0&#45;&gt;Node28 -->
<g id="edge28" class="edge">
<title>Node0&#45;&gt;Node28</title>
<path fill="none" stroke="#191970" d="M220.8253,-325.2639C225.1675,-276.4173 243.161,-148.7969 315,-79 319.0086,-75.1054 323.6321,-71.8175 328.5807,-69.0418"/>
<polygon fill="#191970" stroke="#191970" points="217.3212,-325.1781 220.0234,-335.4226 224.2995,-325.729 217.3212,-325.1781"/>
</g>
<!-- Node29 -->
<g id="node30" class="node">
<title>Node29</title>
<g id="a_node30"><a xlink:href="class_ogre_1_1_wire_aabb.html" target="_top" xlink:title="Helper class to display the Aabb of a MovableObject as lines. ">
<polygon fill="none" stroke="#000000" points="345,-.5 345,-19.5 438,-19.5 438,-.5 345,-.5"/>
<text text-anchor="middle" x="391.5" y="-7.5" font-family="Helvetica,sans-Serif" font-size="10.00" fill="#000000">Ogre::WireAabb</text>
</a>
</g>
</g>
<!-- Node0&#45;&gt;Node29 -->
<g id="edge29" class="edge">
<title>Node0&#45;&gt;Node29</title>
<path fill="none" stroke="#191970" d="M222.8263,-325.4246C233.7893,-263.1453 270.6288,-71.2043 315,-29 323.1309,-21.2662 333.9018,-16.5375 344.7873,-13.6822"/>
<polygon fill="#191970" stroke="#191970" points="219.3428,-325.0286 221.0844,-335.4793 226.2401,-326.2235 219.3428,-325.0286"/>
</g>
<!-- Node1 -->
<g id="node2" class="node">
<title>Node1</title>
<g id="a_node2"><a xlink:href="class_ogre_1_1_animable_object.html" target="_top" xlink:title="Defines an interface to classes which have one or more AnimableValue instances to expose...">
<polygon fill="none" stroke="#000000" points="0,-373.5 0,-392.5 124,-392.5 124,-373.5 0,-373.5"/>
<text text-anchor="middle" x="62" y="-380.5" font-family="Helvetica,sans-Serif" font-size="10.00" fill="#000000">Ogre::AnimableObject</text>
</a>
</g>
</g>
<!-- Node1&#45;&gt;Node0 -->
<g id="edge1" class="edge">
<title>Node1&#45;&gt;Node0</title>
<path fill="none" stroke="#191970" d="M111.6041,-371.032C133.6753,-365.7069 159.3027,-359.5238 180.0419,-354.5201"/>
<polygon fill="#191970" stroke="#191970" points="110.6441,-367.6631 101.7439,-373.411 112.2859,-374.4679 110.6441,-367.6631"/>
</g>
<!-- Node2 -->
<g id="node3" class="node">
<title>Node2</title>
<g id="a_node3"><a xlink:href="class_ogre_1_1_allocated_object.html" target="_top" xlink:title="Superclass for all objects that wish to use custom memory allocators when their new / delete operator...">
<polygon fill="none" stroke="#000000" points="20.5,-335.5 20.5,-354.5 103.5,-354.5 103.5,-335.5 20.5,-335.5"/>
<text text-anchor="middle" x="62" y="-342.5" font-family="Helvetica,sans-Serif" font-size="10.00" fill="#000000">MovableAlloc</text>
</a>
</g>
</g>
<!-- Node2&#45;&gt;Node0 -->
<g id="edge2" class="edge">
<title>Node2&#45;&gt;Node0</title>
<path fill="none" stroke="#191970" d="M114.1442,-345C128.7407,-345 144.7191,-345 159.7209,-345"/>
<polygon fill="#191970" stroke="#191970" points="113.7936,-341.5001 103.7936,-345 113.7936,-348.5001 113.7936,-341.5001"/>
</g>
<!-- Node3 -->
<g id="node4" class="node">
<title>Node3</title>
<g id="a_node4"><a xlink:href="class_ogre_1_1_id_object.html" target="_top" xlink:title="Ogre::IdObject">
<polygon fill="none" stroke="#000000" points="19,-297.5 19,-316.5 105,-316.5 105,-297.5 19,-297.5"/>
<text text-anchor="middle" x="62" y="-304.5" font-family="Helvetica,sans-Serif" font-size="10.00" fill="#000000">Ogre::IdObject</text>
</a>
</g>
</g>
<!-- Node3&#45;&gt;Node0 -->
<g id="edge3" class="edge">
<title>Node3&#45;&gt;Node0</title>
<path fill="none" stroke="#191970" d="M111.6041,-318.968C133.6753,-324.2931 159.3027,-330.4762 180.0419,-335.4799"/>
<polygon fill="#191970" stroke="#191970" points="112.2859,-315.5321 101.7439,-316.589 110.6441,-322.3369 112.2859,-315.5321"/>
</g>
<!-- Node5 -->
<g id="node6" class="node">
<title>Node5</title>
<g id="a_node6"><a xlink:href="class_ogre_1_1_camera.html" target="_top" xlink:title="A viewpoint from which the scene will be rendered. ">
<polygon fill="none" stroke="#000000" points="550,-658.5 550,-677.5 634,-677.5 634,-658.5 550,-658.5"/>
<text text-anchor="middle" x="592" y="-665.5" font-family="Helvetica,sans-Serif" font-size="10.00" fill="#000000">Ogre::Camera</text>
</a>
</g>
</g>
<!-- Node4&#45;&gt;Node5 -->
<g id="edge5" class="edge">
<title>Node4&#45;&gt;Node5</title>
<path fill="none" stroke="#191970" d="M444.845,-668C477.6846,-668 519.1934,-668 549.747,-668"/>
<polygon fill="#191970" stroke="#191970" points="444.5123,-664.5001 434.5123,-668 444.5122,-671.5001 444.5123,-664.5001"/>
</g>
<!-- Node13 -->
<g id="node14" class="node">
<title>Node13</title>
<g id="a_node14"><a xlink:href="class_ogre_1_1v1_1_1_ribbon_trail.html" target="_top" xlink:title="Subclass of BillboardChain which automatically leaves a trail behind one or more Node instances...">
<polygon fill="none" stroke="#000000" points="532.5,-392.5 532.5,-411.5 651.5,-411.5 651.5,-392.5 532.5,-392.5"/>
<text text-anchor="middle" x="592" y="-399.5" font-family="Helvetica,sans-Serif" font-size="10.00" fill="#000000">Ogre::v1::RibbonTrail</text>
</a>
</g>
</g>
<!-- Node12&#45;&gt;Node13 -->
<g id="edge13" class="edge">
<title>Node12&#45;&gt;Node13</title>
<path fill="none" stroke="#191970" d="M469.2703,-402C490.2479,-402 512.61,-402 532.4207,-402"/>
<polygon fill="#191970" stroke="#191970" points="469.1007,-398.5001 459.1006,-402 469.1006,-405.5001 469.1007,-398.5001"/>
</g>
<!-- Node17 -->
<g id="node18" class="node">
<title>Node17</title>
<g id="a_node18"><a xlink:href="class_ogre_1_1v1_1_1_base_instance_batch_v_t_f.html" target="_top" xlink:title="Instancing implementation using vertex texture through Vertex Texture Fetch (VTF) This implementation...">
<polygon fill="none" stroke="#000000" points="504,-316.5 504,-335.5 680,-335.5 680,-316.5 504,-316.5"/>
<text text-anchor="middle" x="592" y="-323.5" font-family="Helvetica,sans-Serif" font-size="10.00" fill="#000000">Ogre::v1::BaseInstanceBatchVTF</text>
</a>
</g>
</g>
<!-- Node16&#45;&gt;Node17 -->
<g id="edge17" class="edge">
<title>Node16&#45;&gt;Node17</title>
<path fill="none" stroke="#191970" d="M451.7456,-299.4181C480.4336,-304.8552 514.3498,-311.2832 541.6435,-316.4561"/>
<polygon fill="#191970" stroke="#191970" points="452.3127,-295.9634 441.8358,-297.54 451.0091,-302.8409 452.3127,-295.9634"/>
</g>
<!-- Node20 -->
<g id="node21" class="node">
<title>Node20</title>
<g id="a_node21"><a xlink:href="class_ogre_1_1v1_1_1_instance_batch_h_w.html" target="_top" xlink:title="This is technique requires true instancing hardware support. ">
<polygon fill="none" stroke="#000000" points="517,-278.5 517,-297.5 667,-297.5 667,-278.5 517,-278.5"/>
<text text-anchor="middle" x="592" y="-285.5" font-family="Helvetica,sans-Serif" font-size="10.00" fill="#000000">Ogre::v1::InstanceBatchHW</text>
</a>
</g>
</g>
<!-- Node16&#45;&gt;Node20 -->
<g id="edge20" class="edge">
<title>Node16&#45;&gt;Node20</title>
<path fill="none" stroke="#191970" d="M468.5499,-288C484.4099,-288 501.0895,-288 516.88,-288"/>
<polygon fill="#191970" stroke="#191970" points="468.2636,-284.5001 458.2636,-288 468.2636,-291.5001 468.2636,-284.5001"/>
</g>
<!-- Node21 -->
<g id="node22" class="node">
<title>Node21</title>
<g id="a_node22"><a xlink:href="class_ogre_1_1v1_1_1_instance_batch_shader.html" target="_top" xlink:title="This is the same technique the old &quot;InstancedGeometry&quot; implementation used (with improvements). ">
<polygon fill="none" stroke="#000000" points="508.5,-240.5 508.5,-259.5 675.5,-259.5 675.5,-240.5 508.5,-240.5"/>
<text text-anchor="middle" x="592" y="-247.5" font-family="Helvetica,sans-Serif" font-size="10.00" fill="#000000">Ogre::v1::InstanceBatchShader</text>
</a>
</g>
</g>
<!-- Node16&#45;&gt;Node21 -->
<g id="edge21" class="edge">
<title>Node16&#45;&gt;Node21</title>
<path fill="none" stroke="#191970" d="M451.7456,-276.5819C480.4336,-271.1448 514.3498,-264.7168 541.6435,-259.5439"/>
<polygon fill="#191970" stroke="#191970" points="451.0091,-273.1591 441.8358,-278.46 452.3127,-280.0366 451.0091,-273.1591"/>
</g>
<!-- Node18 -->
<g id="node19" class="node">
<title>Node18</title>
<g id="a_node19"><a xlink:href="class_ogre_1_1v1_1_1_instance_batch_h_w___v_t_f.html" target="_top" xlink:title="Instancing implementation using vertex texture through Vertex Texture Fetch (VTF) and hardware instan...">
<polygon fill="none" stroke="#000000" points="716,-335.5 716,-354.5 890,-354.5 890,-335.5 716,-335.5"/>
<text text-anchor="middle" x="803" y="-342.5" font-family="Helvetica,sans-Serif" font-size="10.00" fill="#000000">Ogre::v1::InstanceBatchHW_VTF</text>
</a>
</g>
</g>
<!-- Node17&#45;&gt;Node18 -->
<g id="edge18" class="edge">
<title>Node17&#45;&gt;Node18</title>
<path fill="none" stroke="#191970" d="M690.226,-334.845C698.7516,-335.6127 707.3408,-336.3861 715.7695,-337.1451"/>
<polygon fill="#191970" stroke="#191970" points="690.5341,-331.3587 680.2604,-333.9476 689.9062,-338.3305 690.5341,-331.3587"/>
</g>
<!-- Node19 -->
<g id="node20" class="node">
<title>Node19</title>
<g id="a_node20"><a xlink:href="class_ogre_1_1v1_1_1_instance_batch_v_t_f.html" target="_top" xlink:title="Ogre::v1::InstanceBatchVTF">
<polygon fill="none" stroke="#000000" points="727,-297.5 727,-316.5 879,-316.5 879,-297.5 727,-297.5"/>
<text text-anchor="middle" x="803" y="-304.5" font-family="Helvetica,sans-Serif" font-size="10.00" fill="#000000">Ogre::v1::InstanceBatchVTF</text>
</a>
</g>
</g>
<!-- Node17&#45;&gt;Node19 -->
<g id="edge19" class="edge">
<title>Node17&#45;&gt;Node19</title>
<path fill="none" stroke="#191970" d="M690.472,-317.1329C702.681,-316.0335 715.0162,-314.9227 726.8195,-313.8599"/>
<polygon fill="#191970" stroke="#191970" points="689.9062,-313.6695 680.2604,-318.0524 690.5341,-320.6413 689.9062,-313.6695"/>
</g>
<!-- Node27 -->
<g id="node28" class="node">
<title>Node27</title>
<g id="a_node28"><a xlink:href="class_ogre_1_1v1_1_1_wire_bounding_box.html" target="_top" xlink:title="Allows the rendering of a wireframe bounding box. ">
<polygon fill="none" stroke="#000000" points="516.5,-88.5 516.5,-107.5 667.5,-107.5 667.5,-88.5 516.5,-88.5"/>
<text text-anchor="middle" x="592" y="-95.5" font-family="Helvetica,sans-Serif" font-size="10.00" fill="#000000">Ogre::v1::WireBoundingBox</text>
</a>
</g>
</g>
<!-- Node26&#45;&gt;Node27 -->
<g id="edge27" class="edge">
<title>Node26&#45;&gt;Node27</title>
<path fill="none" stroke="#191970" d="M478.2575,-98C490.9482,-98 503.9328,-98 516.3776,-98"/>
<polygon fill="#191970" stroke="#191970" points="478.1587,-94.5001 468.1587,-98 478.1586,-101.5001 478.1587,-94.5001"/>
</g>
</g>
</svg>
