<?xml version="1.0" encoding="UTF-8" standalone="no"?>
<!DOCTYPE svg PUBLIC "-//W3C//DTD SVG 1.1//EN"
 "http://www.w3.org/Graphics/SVG/1.1/DTD/svg11.dtd">
<!-- Generated by graphviz version 2.40.1 (20161225.0304)
 -->
<!-- Title: Ogre::ShadowCameraSetup Pages: 1 -->
<svg width="319pt" height="274pt"
 viewBox="0.00 0.00 319.00 274.00" xmlns="http://www.w3.org/2000/svg" xmlns:xlink="http://www.w3.org/1999/xlink">
<g id="graph0" class="graph" transform="scale(1 1) rotate(0) translate(4 270)">
<title>Ogre::ShadowCameraSetup</title>
<!-- Node0 -->
<g id="node1" class="node">
<title>Node0</title>
<polygon fill="#bfbfbf" stroke="#000000" points="93,-190.5 93,-209.5 232,-209.5 232,-190.5 93,-190.5"/>
<text text-anchor="middle" x="162.5" y="-197.5" font-family="Helvetica,sans-Serif" font-size="10.00" fill="#000000">Ogre::ShadowCameraSetup</text>
</g>
<!-- Node2 -->
<g id="node3" class="node">
<title>Node2</title>
<g id="a_node3"><a xlink:href="class_ogre_1_1_default_shadow_camera_setup.html" target="_top" xlink:title="Implements default shadow camera setup. ">
<polygon fill="none" stroke="#000000" points="11,-123.5 11,-153.5 156,-153.5 156,-123.5 11,-123.5"/>
<text text-anchor="start" x="19" y="-141.5" font-family="Helvetica,sans-Serif" font-size="10.00" fill="#000000">Ogre::DefaultShadowCamera</text>
<text text-anchor="middle" x="83.5" y="-130.5" font-family="Helvetica,sans-Serif" font-size="10.00" fill="#000000">Setup</text>
</a>
</g>
</g>
<!-- Node0&#45;&gt;Node2 -->
<g id="edge2" class="edge">
<title>Node0&#45;&gt;Node2</title>
<path fill="none" stroke="#191970" d="M141.9965,-184.0385C129.9078,-174.6276 114.7033,-162.7911 102.8256,-153.5446"/>
<polygon fill="#191970" stroke="#191970" points="140.1154,-187.0095 150.1563,-190.3906 144.4154,-181.4859 140.1154,-187.0095"/>
</g>
<!-- Node5 -->
<g id="node6" class="node">
<title>Node5</title>
<g id="a_node6"><a xlink:href="class_ogre_1_1_plane_optimal_shadow_camera_setup.html" target="_top" xlink:title="Implements the plane optimal shadow camera algorithm. ">
<polygon fill="none" stroke="#000000" points="174,-123.5 174,-153.5 311,-153.5 311,-123.5 174,-123.5"/>
<text text-anchor="start" x="182" y="-141.5" font-family="Helvetica,sans-Serif" font-size="10.00" fill="#000000">Ogre::PlaneOptimalShadow</text>
<text text-anchor="middle" x="242.5" y="-130.5" font-family="Helvetica,sans-Serif" font-size="10.00" fill="#000000">CameraSetup</text>
</a>
</g>
</g>
<!-- Node0&#45;&gt;Node5 -->
<g id="edge5" class="edge">
<title>Node0&#45;&gt;Node5</title>
<path fill="none" stroke="#191970" d="M183.263,-184.0385C195.5048,-174.6276 210.9018,-162.7911 222.9298,-153.5446"/>
<polygon fill="#191970" stroke="#191970" points="180.7949,-181.521 175,-190.3906 185.0613,-187.0707 180.7949,-181.521"/>
</g>
<!-- Node1 -->
<g id="node2" class="node">
<title>Node1</title>
<g id="a_node2"><a xlink:href="class_ogre_1_1_allocated_object.html" target="_top" xlink:title="Superclass for all objects that wish to use custom memory allocators when their new / delete operator...">
<polygon fill="none" stroke="#000000" points="115,-246.5 115,-265.5 210,-265.5 210,-246.5 115,-246.5"/>
<text text-anchor="middle" x="162.5" y="-253.5" font-family="Helvetica,sans-Serif" font-size="10.00" fill="#000000">ShadowDataAlloc</text>
</a>
</g>
</g>
<!-- Node1&#45;&gt;Node0 -->
<g id="edge1" class="edge">
<title>Node1&#45;&gt;Node0</title>
<path fill="none" stroke="#191970" d="M162.5,-236.1575C162.5,-227.155 162.5,-216.9199 162.5,-209.6427"/>
<polygon fill="#191970" stroke="#191970" points="159.0001,-236.2455 162.5,-246.2455 166.0001,-236.2456 159.0001,-236.2455"/>
</g>
<!-- Node3 -->
<g id="node4" class="node">
<title>Node3</title>
<g id="a_node4"><a xlink:href="class_ogre_1_1_focused_shadow_camera_setup.html" target="_top" xlink:title="Implements the uniform shadow mapping algorithm in focused mode. ">
<polygon fill="none" stroke="#000000" points="8,-56.5 8,-86.5 159,-86.5 159,-56.5 8,-56.5"/>
<text text-anchor="start" x="16" y="-74.5" font-family="Helvetica,sans-Serif" font-size="10.00" fill="#000000">Ogre::FocusedShadowCamera</text>
<text text-anchor="middle" x="83.5" y="-63.5" font-family="Helvetica,sans-Serif" font-size="10.00" fill="#000000">Setup</text>
</a>
</g>
</g>
<!-- Node2&#45;&gt;Node3 -->
<g id="edge3" class="edge">
<title>Node2&#45;&gt;Node3</title>
<path fill="none" stroke="#191970" d="M83.5,-113.0249C83.5,-104.128 83.5,-94.4287 83.5,-86.6432"/>
<polygon fill="#191970" stroke="#191970" points="80.0001,-113.2966 83.5,-123.2967 87.0001,-113.2967 80.0001,-113.2966"/>
</g>
<!-- Node4 -->
<g id="node5" class="node">
<title>Node4</title>
<g id="a_node5"><a xlink:href="class_ogre_1_1_p_s_s_m_shadow_camera_setup.html" target="_top" xlink:title="Parallel Split Shadow Map (PSSM) shadow camera setup. ">
<polygon fill="none" stroke="#000000" points="0,-.5 0,-19.5 167,-19.5 167,-.5 0,-.5"/>
<text text-anchor="middle" x="83.5" y="-7.5" font-family="Helvetica,sans-Serif" font-size="10.00" fill="#000000">Ogre::PSSMShadowCameraSetup</text>
</a>
</g>
</g>
<!-- Node3&#45;&gt;Node4 -->
<g id="edge4" class="edge">
<title>Node3&#45;&gt;Node4</title>
<path fill="none" stroke="#191970" d="M83.5,-46.2849C83.5,-36.9858 83.5,-26.9883 83.5,-19.8469"/>
<polygon fill="#191970" stroke="#191970" points="80.0001,-46.2977 83.5,-56.2977 87.0001,-46.2978 80.0001,-46.2977"/>
</g>
</g>
</svg>
