<?xml version="1.0" encoding="UTF-8" standalone="no"?>
<!DOCTYPE svg PUBLIC "-//W3C//DTD SVG 1.1//EN"
 "http://www.w3.org/Graphics/SVG/1.1/DTD/svg11.dtd">
<!-- Generated by graphviz version 2.40.1 (20161225.0304)
 -->
<!-- Title: Ogre::HlmsJsonListener Pages: 1 -->
<svg width="157pt" height="151pt"
 viewBox="0.00 0.00 157.00 151.00" xmlns="http://www.w3.org/2000/svg" xmlns:xlink="http://www.w3.org/1999/xlink">
<g id="graph0" class="graph" transform="scale(1 1) rotate(0) translate(4 147)">
<title>Ogre::HlmsJsonListener</title>
<!-- Node0 -->
<g id="node1" class="node">
<title>Node0</title>
<polygon fill="#bfbfbf" stroke="#000000" points="9,-123.5 9,-142.5 140,-142.5 140,-123.5 9,-123.5"/>
<text text-anchor="middle" x="74.5" y="-130.5" font-family="Helvetica,sans-Serif" font-size="10.00" fill="#000000">Ogre::HlmsJsonListener</text>
</g>
<!-- Node1 -->
<g id="node2" class="node">
<title>Node1</title>
<g id="a_node2"><a xlink:href="class_ogre_1_1_scene_format_listener.html" target="_top" xlink:title="Override this listener if you want to filter which objects get exported. ">
<polygon fill="none" stroke="#000000" points="0,-67.5 0,-86.5 149,-86.5 149,-67.5 0,-67.5"/>
<text text-anchor="middle" x="74.5" y="-74.5" font-family="Helvetica,sans-Serif" font-size="10.00" fill="#000000">Ogre::SceneFormatListener</text>
</a>
</g>
</g>
<!-- Node0&#45;&gt;Node1 -->
<g id="edge1" class="edge">
<title>Node0&#45;&gt;Node1</title>
<path fill="none" stroke="#191970" d="M74.5,-113.1575C74.5,-104.155 74.5,-93.9199 74.5,-86.6427"/>
<polygon fill="#191970" stroke="#191970" points="71.0001,-113.2455 74.5,-123.2455 78.0001,-113.2456 71.0001,-113.2455"/>
</g>
<!-- Node2 -->
<g id="node3" class="node">
<title>Node2</title>
<g id="a_node3"><a xlink:href="class_ogre_1_1_default_scene_format_listener.html" target="_top" xlink:title="Default implementation that prevents a SceneNode from being exported if the only attached objects...">
<polygon fill="none" stroke="#000000" points="1.5,-.5 1.5,-30.5 147.5,-30.5 147.5,-.5 1.5,-.5"/>
<text text-anchor="start" x="9.5" y="-18.5" font-family="Helvetica,sans-Serif" font-size="10.00" fill="#000000">Ogre::DefaultSceneFormat</text>
<text text-anchor="middle" x="74.5" y="-7.5" font-family="Helvetica,sans-Serif" font-size="10.00" fill="#000000">Listener</text>
</a>
</g>
</g>
<!-- Node1&#45;&gt;Node2 -->
<g id="edge2" class="edge">
<title>Node1&#45;&gt;Node2</title>
<path fill="none" stroke="#191970" d="M74.5,-57.3693C74.5,-48.681 74.5,-38.6241 74.5,-30.5446"/>
<polygon fill="#191970" stroke="#191970" points="71.0001,-57.3906 74.5,-67.3906 78.0001,-57.3907 71.0001,-57.3906"/>
</g>
</g>
</svg>
