<?xml version="1.0" encoding="UTF-8" standalone="no"?>
<!DOCTYPE svg PUBLIC "-//W3C//DTD SVG 1.1//EN"
 "http://www.w3.org/Graphics/SVG/1.1/DTD/svg11.dtd">
<!-- Generated by graphviz version 2.40.1 (20161225.0304)
 -->
<!-- Title: Ogre::iterator_range&lt; T &gt; Pages: 1 -->
<svg width="322pt" height="142pt"
 viewBox="0.00 0.00 322.00 142.00" xmlns="http://www.w3.org/2000/svg" xmlns:xlink="http://www.w3.org/1999/xlink">
<g id="graph0" class="graph" transform="scale(1 1) rotate(0) translate(4 138)">
<title>Ogre::iterator_range&lt; T &gt;</title>
<!-- Node0 -->
<g id="node1" class="node">
<title>Node0</title>
<polygon fill="#bfbfbf" stroke="#000000" points="0,-57.5 0,-76.5 127,-76.5 127,-57.5 0,-57.5"/>
<text text-anchor="middle" x="63.5" y="-64.5" font-family="Helvetica,sans-Serif" font-size="10.00" fill="#000000">Ogre::iterator_range&lt; T &gt;</text>
</g>
<!-- Node1 -->
<g id="node2" class="node">
<title>Node1</title>
<g id="a_node2"><a xlink:href="struct_ogre_1_1_const_map_range.html" target="_top" xlink:title="Predefined type. ">
<polygon fill="none" stroke="#000000" points="168,-114.5 168,-133.5 309,-133.5 309,-114.5 168,-114.5"/>
<text text-anchor="middle" x="238.5" y="-121.5" font-family="Helvetica,sans-Serif" font-size="10.00" fill="#000000">Ogre::ConstMapRange&lt; T &gt;</text>
</a>
</g>
</g>
<!-- Node0&#45;&gt;Node1 -->
<g id="edge1" class="edge">
<title>Node0&#45;&gt;Node1</title>
<path fill="none" stroke="#191970" d="M95.6755,-80.3985C114.9944,-88.1635 140.1749,-97.7972 163,-105 173.8274,-108.4168 185.6781,-111.6369 196.7148,-114.4216"/>
<polygon fill="#191970" stroke="#191970" points="96.7329,-77.0504 86.1508,-76.531 94.0993,-83.5361 96.7329,-77.0504"/>
</g>
<!-- Node2 -->
<g id="node3" class="node">
<title>Node2</title>
<g id="a_node3"><a xlink:href="struct_ogre_1_1_const_vector_range.html" target="_top" xlink:title="Predefined type. ">
<polygon fill="none" stroke="#000000" points="163,-76.5 163,-95.5 314,-95.5 314,-76.5 163,-76.5"/>
<text text-anchor="middle" x="238.5" y="-83.5" font-family="Helvetica,sans-Serif" font-size="10.00" fill="#000000">Ogre::ConstVectorRange&lt; T &gt;</text>
</a>
</g>
</g>
<!-- Node0&#45;&gt;Node2 -->
<g id="edge2" class="edge">
<title>Node0&#45;&gt;Node2</title>
<path fill="none" stroke="#191970" d="M137.3895,-75.0223C145.8532,-75.9412 154.491,-76.879 162.9758,-77.8002"/>
<polygon fill="#191970" stroke="#191970" points="137.4934,-71.5131 127.1741,-73.9132 136.7378,-78.4722 137.4934,-71.5131"/>
</g>
<!-- Node3 -->
<g id="node4" class="node">
<title>Node3</title>
<g id="a_node4"><a xlink:href="struct_ogre_1_1_map_range.html" target="_top" xlink:title="Predefined type. ">
<polygon fill="none" stroke="#000000" points="181,-38.5 181,-57.5 296,-57.5 296,-38.5 181,-38.5"/>
<text text-anchor="middle" x="238.5" y="-45.5" font-family="Helvetica,sans-Serif" font-size="10.00" fill="#000000">Ogre::MapRange&lt; T &gt;</text>
</a>
</g>
</g>
<!-- Node0&#45;&gt;Node3 -->
<g id="edge3" class="edge">
<title>Node0&#45;&gt;Node3</title>
<path fill="none" stroke="#191970" d="M137.1949,-58.9988C151.8214,-57.4108 166.9758,-55.7655 180.9674,-54.2464"/>
<polygon fill="#191970" stroke="#191970" points="136.7378,-55.5278 127.1741,-60.0868 137.4934,-62.4869 136.7378,-55.5278"/>
</g>
<!-- Node4 -->
<g id="node5" class="node">
<title>Node4</title>
<g id="a_node5"><a xlink:href="struct_ogre_1_1_vector_range.html" target="_top" xlink:title="Predefined type. ">
<polygon fill="none" stroke="#000000" points="176,-.5 176,-19.5 301,-19.5 301,-.5 176,-.5"/>
<text text-anchor="middle" x="238.5" y="-7.5" font-family="Helvetica,sans-Serif" font-size="10.00" fill="#000000">Ogre::VectorRange&lt; T &gt;</text>
</a>
</g>
</g>
<!-- Node0&#45;&gt;Node4 -->
<g id="edge4" class="edge">
<title>Node0&#45;&gt;Node4</title>
<path fill="none" stroke="#191970" d="M95.6755,-53.6015C114.9944,-45.8365 140.1749,-36.2028 163,-29 173.8274,-25.5832 185.6781,-22.3631 196.7148,-19.5784"/>
<polygon fill="#191970" stroke="#191970" points="94.0993,-50.4639 86.1508,-57.469 96.7329,-56.9496 94.0993,-50.4639"/>
</g>
</g>
</svg>
