<?xml version="1.0" encoding="UTF-8" standalone="no"?>
<!DOCTYPE svg PUBLIC "-//W3C//DTD SVG 1.1//EN"
 "http://www.w3.org/Graphics/SVG/1.1/DTD/svg11.dtd">
<!-- Generated by graphviz version 2.38.0 (20140413.2041)
 -->
<!-- Title: Ogre::RTShader::ProgramProcessor Pages: 1 -->
<svg width="540pt" height="186pt"
 viewBox="0.00 0.00 540.00 186.00" xmlns="http://www.w3.org/2000/svg" xmlns:xlink="http://www.w3.org/1999/xlink">
<g id="graph0" class="graph" transform="scale(1 1) rotate(0) translate(4 182)">
<title>Ogre::RTShader::ProgramProcessor</title>
<!-- Node1 -->
<g id="node1" class="node"><title>Node1</title>
<polygon fill="#bfbfbf" stroke="black" points="152,-79 152,-98 327,-98 327,-79 152,-79"/>
<text text-anchor="middle" x="239.5" y="-86" font-family="Helvetica,sans-Serif" font-size="10.00">Ogre::RTShader::ProgramProcessor</text>
</g>
<!-- Node3 -->
<g id="node3" class="node"><title>Node3</title>
<g id="a_node3"><a xlink:href="class_ogre_1_1_r_t_shader_1_1_c_g_program_processor.html" target="_top" xlink:title="CG Language program processor class. ">
<polygon fill="none" stroke="black" points="374.5,-147.5 374.5,-177.5 520.5,-177.5 520.5,-147.5 374.5,-147.5"/>
<text text-anchor="start" x="382.5" y="-165.5" font-family="Helvetica,sans-Serif" font-size="10.00">Ogre::RTShader::CGProgram</text>
<text text-anchor="middle" x="447.5" y="-154.5" font-family="Helvetica,sans-Serif" font-size="10.00">Processor</text>
</a>
</g>
</g>
<!-- Node1&#45;&gt;Node3 -->
<g id="edge2" class="edge"><title>Node1&#45;&gt;Node3</title>
<path fill="none" stroke="midnightblue" d="M271.088,-102.058C295.66,-112.687 331.194,-127.474 363,-138.5 371.978,-141.613 381.595,-144.647 390.991,-147.452"/>
<polygon fill="midnightblue" stroke="midnightblue" points="272.483,-98.8476 261.917,-98.0632 269.688,-105.265 272.483,-98.8476"/>
</g>
<!-- Node4 -->
<g id="node4" class="node"><title>Node4</title>
<g id="a_node4"><a xlink:href="class_ogre_1_1_r_t_shader_1_1_g_l_s_l_e_s_program_processor.html" target="_top" xlink:title="GLSL ES Language program processor class. ">
<polygon fill="none" stroke="black" points="363,-98.5 363,-128.5 532,-128.5 532,-98.5 363,-98.5"/>
<text text-anchor="start" x="371" y="-116.5" font-family="Helvetica,sans-Serif" font-size="10.00">Ogre::RTShader::GLSLESProgram</text>
<text text-anchor="middle" x="447.5" y="-105.5" font-family="Helvetica,sans-Serif" font-size="10.00">Processor</text>
</a>
</g>
</g>
<!-- Node1&#45;&gt;Node4 -->
<g id="edge3" class="edge"><title>Node1&#45;&gt;Node4</title>
<path fill="none" stroke="midnightblue" d="M329.136,-99.2568C340.296,-100.611 351.685,-101.993 362.765,-103.338"/>
<polygon fill="midnightblue" stroke="midnightblue" points="329.316,-95.7531 318.967,-98.0227 328.473,-102.702 329.316,-95.7531"/>
</g>
<!-- Node5 -->
<g id="node5" class="node"><title>Node5</title>
<g id="a_node5"><a xlink:href="class_ogre_1_1_r_t_shader_1_1_g_l_s_l_program_processor.html" target="_top" xlink:title="GLSL Language program processor class. ">
<polygon fill="none" stroke="black" points="370,-49.5 370,-79.5 525,-79.5 525,-49.5 370,-49.5"/>
<text text-anchor="start" x="378" y="-67.5" font-family="Helvetica,sans-Serif" font-size="10.00">Ogre::RTShader::GLSLProgram</text>
<text text-anchor="middle" x="447.5" y="-56.5" font-family="Helvetica,sans-Serif" font-size="10.00">Processor</text>
</a>
</g>
</g>
<!-- Node1&#45;&gt;Node5 -->
<g id="edge4" class="edge"><title>Node1&#45;&gt;Node5</title>
<path fill="none" stroke="midnightblue" d="M332.242,-77.8116C344.827,-76.3454 357.639,-74.8527 369.914,-73.4226"/>
<polygon fill="midnightblue" stroke="midnightblue" points="331.74,-74.3463 322.213,-78.9801 332.55,-81.2993 331.74,-74.3463"/>
</g>
<!-- Node6 -->
<g id="node6" class="node"><title>Node6</title>
<g id="a_node6"><a xlink:href="class_ogre_1_1_r_t_shader_1_1_h_l_s_l_program_processor.html" target="_top" xlink:title="CG Language program processor class. ">
<polygon fill="none" stroke="black" points="370,-0.5 370,-30.5 525,-30.5 525,-0.5 370,-0.5"/>
<text text-anchor="start" x="378" y="-18.5" font-family="Helvetica,sans-Serif" font-size="10.00">Ogre::RTShader::HLSLProgram</text>
<text text-anchor="middle" x="447.5" y="-7.5" font-family="Helvetica,sans-Serif" font-size="10.00">Processor</text>
</a>
</g>
</g>
<!-- Node1&#45;&gt;Node6 -->
<g id="edge5" class="edge"><title>Node1&#45;&gt;Node6</title>
<path fill="none" stroke="midnightblue" d="M271.889,-74.9299C296.444,-64.5622 331.577,-50.27 363,-39.5 371.989,-36.419 381.611,-33.401 391.01,-30.6015"/>
<polygon fill="midnightblue" stroke="midnightblue" points="270.213,-71.8392 262.379,-78.9723 272.951,-78.2814 270.213,-71.8392"/>
</g>
<!-- Node2 -->
<g id="node2" class="node"><title>Node2</title>
<g id="a_node2"><a xlink:href="class_ogre_1_1_allocated_object.html" target="_top" xlink:title="Superclass for all objects that wish to use custom memory allocators when their new / delete operator...">
<polygon fill="none" stroke="black" points="0,-79 0,-98 116,-98 116,-79 0,-79"/>
<text text-anchor="middle" x="58" y="-86" font-family="Helvetica,sans-Serif" font-size="10.00">RTShaderSystemAlloc</text>
</a>
</g>
</g>
<!-- Node2&#45;&gt;Node1 -->
<g id="edge1" class="edge"><title>Node2&#45;&gt;Node1</title>
<path fill="none" stroke="midnightblue" d="M126.345,-88.5C134.721,-88.5 143.374,-88.5 151.988,-88.5"/>
<polygon fill="midnightblue" stroke="midnightblue" points="126.288,-85.0001 116.288,-88.5 126.288,-92.0001 126.288,-85.0001"/>
</g>
</g>
</svg>
