<?xml version="1.0" encoding="UTF-8" standalone="no"?>
<!DOCTYPE svg PUBLIC "-//W3C//DTD SVG 1.1//EN"
 "http://www.w3.org/Graphics/SVG/1.1/DTD/svg11.dtd">
<!-- Generated by graphviz version 2.40.1 (20161225.0304)
 -->
<!-- Title: Ogre::v1::GL3PlusDefaultHardwareIndexBuffer Pages: 1 -->
<svg width="160pt" height="207pt"
 viewBox="0.00 0.00 160.00 207.00" xmlns="http://www.w3.org/2000/svg" xmlns:xlink="http://www.w3.org/1999/xlink">
<g id="graph0" class="graph" transform="scale(1 1) rotate(0) translate(4 203)">
<title>Ogre::v1::GL3PlusDefaultHardwareIndexBuffer</title>
<!-- Node0 -->
<g id="node1" class="node">
<title>Node0</title>
<polygon fill="#bfbfbf" stroke="#000000" points="11.5,-.5 11.5,-30.5 140.5,-30.5 140.5,-.5 11.5,-.5"/>
<text text-anchor="start" x="19.5" y="-18.5" font-family="Helvetica,sans-Serif" font-size="10.00" fill="#000000">Ogre::v1::GL3PlusDefault</text>
<text text-anchor="middle" x="76" y="-7.5" font-family="Helvetica,sans-Serif" font-size="10.00" fill="#000000">HardwareIndexBuffer</text>
</g>
<!-- Node1 -->
<g id="node2" class="node">
<title>Node1</title>
<g id="a_node2"><a xlink:href="class_ogre_1_1v1_1_1_hardware_index_buffer.html" target="_top" xlink:title="Specialisation of HardwareBuffer for vertex index buffers, still abstract. ">
<polygon fill="none" stroke="#000000" points="0,-67.5 0,-86.5 152,-86.5 152,-67.5 0,-67.5"/>
<text text-anchor="middle" x="76" y="-74.5" font-family="Helvetica,sans-Serif" font-size="10.00" fill="#000000">Ogre::v1::HardwareIndexBuffer</text>
</a>
</g>
</g>
<!-- Node1&#45;&gt;Node0 -->
<g id="edge1" class="edge">
<title>Node1&#45;&gt;Node0</title>
<path fill="none" stroke="#191970" d="M76,-57.3693C76,-48.681 76,-38.6241 76,-30.5446"/>
<polygon fill="#191970" stroke="#191970" points="72.5001,-57.3906 76,-67.3906 79.5001,-57.3907 72.5001,-57.3906"/>
</g>
<!-- Node2 -->
<g id="node3" class="node">
<title>Node2</title>
<g id="a_node3"><a xlink:href="class_ogre_1_1v1_1_1_hardware_buffer.html" target="_top" xlink:title="Abstract class defining common features of hardware buffers. ">
<polygon fill="none" stroke="#000000" points="12,-123.5 12,-142.5 140,-142.5 140,-123.5 12,-123.5"/>
<text text-anchor="middle" x="76" y="-130.5" font-family="Helvetica,sans-Serif" font-size="10.00" fill="#000000">Ogre::v1::HardwareBuffer</text>
</a>
</g>
</g>
<!-- Node2&#45;&gt;Node1 -->
<g id="edge2" class="edge">
<title>Node2&#45;&gt;Node1</title>
<path fill="none" stroke="#191970" d="M76,-113.1575C76,-104.155 76,-93.9199 76,-86.6427"/>
<polygon fill="#191970" stroke="#191970" points="72.5001,-113.2455 76,-123.2455 79.5001,-113.2456 72.5001,-113.2455"/>
</g>
<!-- Node3 -->
<g id="node4" class="node">
<title>Node3</title>
<g id="a_node4"><a xlink:href="class_ogre_1_1_allocated_object.html" target="_top" xlink:title="Superclass for all objects that wish to use custom memory allocators when their new / delete operator...">
<polygon fill="none" stroke="#000000" points="43.5,-179.5 43.5,-198.5 108.5,-198.5 108.5,-179.5 43.5,-179.5"/>
<text text-anchor="middle" x="76" y="-186.5" font-family="Helvetica,sans-Serif" font-size="10.00" fill="#000000">BufferAlloc</text>
</a>
</g>
</g>
<!-- Node3&#45;&gt;Node2 -->
<g id="edge3" class="edge">
<title>Node3&#45;&gt;Node2</title>
<path fill="none" stroke="#191970" d="M76,-169.1575C76,-160.155 76,-149.9199 76,-142.6427"/>
<polygon fill="#191970" stroke="#191970" points="72.5001,-169.2455 76,-179.2455 79.5001,-169.2456 72.5001,-169.2455"/>
</g>
</g>
</svg>
