<?xml version="1.0" encoding="UTF-8" standalone="no"?>
<!DOCTYPE svg PUBLIC "-//W3C//DTD SVG 1.1//EN"
 "http://www.w3.org/Graphics/SVG/1.1/DTD/svg11.dtd">
<!-- Generated by graphviz version 2.40.1 (20161225.0304)
 -->
<!-- Title: Ogre::CompositorNodeTranslator Pages: 1 -->
<svg width="169pt" height="207pt"
 viewBox="0.00 0.00 169.00 207.00" xmlns="http://www.w3.org/2000/svg" xmlns:xlink="http://www.w3.org/1999/xlink">
<g id="graph0" class="graph" transform="scale(1 1) rotate(0) translate(4 203)">
<title>Ogre::CompositorNodeTranslator</title>
<!-- Node0 -->
<g id="node1" class="node">
<title>Node0</title>
<polygon fill="#bfbfbf" stroke="#000000" points="0,-.5 0,-19.5 161,-19.5 161,-.5 0,-.5"/>
<text text-anchor="middle" x="80.5" y="-7.5" font-family="Helvetica,sans-Serif" font-size="10.00" fill="#000000">Ogre::CompositorNodeTranslator</text>
</g>
<!-- Node1 -->
<g id="node2" class="node">
<title>Node1</title>
<g id="a_node2"><a xlink:href="class_ogre_1_1_compositor_texture_base_translator.html" target="_top" xlink:title="Ogre::CompositorTextureBase\lTranslator">
<polygon fill="none" stroke="#000000" points="6,-56.5 6,-86.5 155,-86.5 155,-56.5 6,-56.5"/>
<text text-anchor="start" x="14" y="-74.5" font-family="Helvetica,sans-Serif" font-size="10.00" fill="#000000">Ogre::CompositorTextureBase</text>
<text text-anchor="middle" x="80.5" y="-63.5" font-family="Helvetica,sans-Serif" font-size="10.00" fill="#000000">Translator</text>
</a>
</g>
</g>
<!-- Node1&#45;&gt;Node0 -->
<g id="edge1" class="edge">
<title>Node1&#45;&gt;Node0</title>
<path fill="none" stroke="#191970" d="M80.5,-46.2849C80.5,-36.9858 80.5,-26.9883 80.5,-19.8469"/>
<polygon fill="#191970" stroke="#191970" points="77.0001,-46.2977 80.5,-56.2977 84.0001,-46.2978 77.0001,-46.2977"/>
</g>
<!-- Node2 -->
<g id="node3" class="node">
<title>Node2</title>
<g id="a_node3"><a xlink:href="class_ogre_1_1_script_translator.html" target="_top" xlink:title="This class translates script AST (abstract syntax tree) into Ogre resources. ">
<polygon fill="none" stroke="#000000" points="24,-123.5 24,-142.5 137,-142.5 137,-123.5 24,-123.5"/>
<text text-anchor="middle" x="80.5" y="-130.5" font-family="Helvetica,sans-Serif" font-size="10.00" fill="#000000">Ogre::ScriptTranslator</text>
</a>
</g>
</g>
<!-- Node2&#45;&gt;Node1 -->
<g id="edge2" class="edge">
<title>Node2&#45;&gt;Node1</title>
<path fill="none" stroke="#191970" d="M80.5,-113.3693C80.5,-104.681 80.5,-94.6241 80.5,-86.5446"/>
<polygon fill="#191970" stroke="#191970" points="77.0001,-113.3906 80.5,-123.3906 84.0001,-113.3907 77.0001,-113.3906"/>
</g>
<!-- Node3 -->
<g id="node4" class="node">
<title>Node3</title>
<g id="a_node4"><a xlink:href="class_ogre_1_1_allocated_object.html" target="_top" xlink:title="Superclass for all objects that wish to use custom memory allocators when their new / delete operator...">
<polygon fill="none" stroke="#000000" points="27,-179.5 27,-198.5 134,-198.5 134,-179.5 27,-179.5"/>
<text text-anchor="middle" x="80.5" y="-186.5" font-family="Helvetica,sans-Serif" font-size="10.00" fill="#000000">ScriptTranslatorAlloc</text>
</a>
</g>
</g>
<!-- Node3&#45;&gt;Node2 -->
<g id="edge3" class="edge">
<title>Node3&#45;&gt;Node2</title>
<path fill="none" stroke="#191970" d="M80.5,-169.1575C80.5,-160.155 80.5,-149.9199 80.5,-142.6427"/>
<polygon fill="#191970" stroke="#191970" points="77.0001,-169.2455 80.5,-179.2455 84.0001,-169.2456 77.0001,-169.2455"/>
</g>
</g>
</svg>
