<?xml version="1.0" encoding="UTF-8" standalone="no"?>
<!DOCTYPE svg PUBLIC "-//W3C//DTD SVG 1.1//EN"
 "http://www.w3.org/Graphics/SVG/1.1/DTD/svg11.dtd">
<!-- Generated by graphviz version 2.38.0 (20140413.2041)
 -->
<!-- Title: Ogre::ScreenRatioPixelCountLodStrategy Pages: 1 -->
<svg width="579pt" height="78pt"
 viewBox="0.00 0.00 579.00 77.50" xmlns="http://www.w3.org/2000/svg" xmlns:xlink="http://www.w3.org/1999/xlink">
<g id="graph0" class="graph" transform="scale(1 1) rotate(0) translate(4 73.5)">
<title>Ogre::ScreenRatioPixelCountLodStrategy</title>
<!-- Node1 -->
<g id="node1" class="node"><title>Node1</title>
<polygon fill="#bfbfbf" stroke="black" points="425,-22.5 425,-52.5 571,-52.5 571,-22.5 425,-22.5"/>
<text text-anchor="start" x="433" y="-40.5" font-family="Helvetica,sans-Serif" font-size="10.00">Ogre::ScreenRatioPixelCount</text>
<text text-anchor="middle" x="498" y="-29.5" font-family="Helvetica,sans-Serif" font-size="10.00">LodStrategy</text>
</g>
<!-- Node2 -->
<g id="node2" class="node"><title>Node2</title>
<g id="a_node2"><a xlink:href="class_ogre_1_1_pixel_count_lod_strategy_base.html" target="_top" xlink:title="Abstract base class for level of detail strategy based on pixel count approximations from bounding sp...">
<polygon fill="none" stroke="black" points="222,-50 222,-69 389,-69 389,-50 222,-50"/>
<text text-anchor="middle" x="305.5" y="-57" font-family="Helvetica,sans-Serif" font-size="10.00">Ogre::PixelCountLodStrategyBase</text>
</a>
</g>
</g>
<!-- Node2&#45;&gt;Node1 -->
<g id="edge1" class="edge"><title>Node2&#45;&gt;Node1</title>
<path fill="none" stroke="midnightblue" d="M399.093,-48.8069C407.76,-47.8059 416.457,-46.8015 424.896,-45.8269"/>
<polygon fill="midnightblue" stroke="midnightblue" points="398.481,-45.3542 388.948,-49.9784 399.284,-52.308 398.481,-45.3542"/>
</g>
<!-- Node3 -->
<g id="node3" class="node"><title>Node3</title>
<g id="a_node3"><a xlink:href="class_ogre_1_1_lod_strategy.html" target="_top" xlink:title="Strategy for determining level of detail. ">
<polygon fill="none" stroke="black" points="90,-50 90,-69 186,-69 186,-50 90,-50"/>
<text text-anchor="middle" x="138" y="-57" font-family="Helvetica,sans-Serif" font-size="10.00">Ogre::LodStrategy</text>
</a>
</g>
</g>
<!-- Node3&#45;&gt;Node2 -->
<g id="edge2" class="edge"><title>Node3&#45;&gt;Node2</title>
<path fill="none" stroke="midnightblue" d="M196.542,-59.5C204.702,-59.5 213.224,-59.5 221.746,-59.5"/>
<polygon fill="midnightblue" stroke="midnightblue" points="196.426,-56.0001 186.426,-59.5 196.426,-63.0001 196.426,-56.0001"/>
</g>
<!-- Node4 -->
<g id="node4" class="node"><title>Node4</title>
<g id="a_node4"><a xlink:href="class_ogre_1_1_allocated_object.html" target="_top" xlink:title="Superclass for all objects that wish to use custom memory allocators when their new / delete operator...">
<polygon fill="none" stroke="black" points="0,-50 0,-69 54,-69 54,-50 0,-50"/>
<text text-anchor="middle" x="27" y="-57" font-family="Helvetica,sans-Serif" font-size="10.00">LodAlloc</text>
</a>
</g>
</g>
<!-- Node4&#45;&gt;Node3 -->
<g id="edge3" class="edge"><title>Node4&#45;&gt;Node3</title>
<path fill="none" stroke="midnightblue" d="M64.1142,-59.5C72.3327,-59.5 81.183,-59.5 89.7866,-59.5"/>
<polygon fill="midnightblue" stroke="midnightblue" points="64.1083,-56.0001 54.1082,-59.5 64.1082,-63.0001 64.1083,-56.0001"/>
</g>
<!-- Node5 -->
<g id="node5" class="node"><title>Node5</title>
<g id="a_node5"><a xlink:href="class_ogre_1_1_singleton.html" target="_top" xlink:title="Ogre::Singleton\&lt; ScreenRatio\lPixelCountLodStrategy \&gt;">
<polygon fill="none" stroke="black" points="232,-0.5 232,-30.5 379,-30.5 379,-0.5 232,-0.5"/>
<text text-anchor="start" x="240" y="-18.5" font-family="Helvetica,sans-Serif" font-size="10.00">Ogre::Singleton&lt; ScreenRatio</text>
<text text-anchor="middle" x="305.5" y="-7.5" font-family="Helvetica,sans-Serif" font-size="10.00">PixelCountLodStrategy &gt;</text>
</a>
</g>
</g>
<!-- Node5&#45;&gt;Node1 -->
<g id="edge4" class="edge"><title>Node5&#45;&gt;Node1</title>
<path fill="none" stroke="midnightblue" d="M389.029,-25.0309C400.989,-26.4121 413.221,-27.8248 424.954,-29.1797"/>
<polygon fill="midnightblue" stroke="midnightblue" points="389.399,-21.5504 379.063,-23.88 388.596,-28.5042 389.399,-21.5504"/>
</g>
</g>
</svg>
