<?xml version="1.0" encoding="UTF-8" standalone="no"?>
<!DOCTYPE svg PUBLIC "-//W3C//DTD SVG 1.1//EN"
 "http://www.w3.org/Graphics/SVG/1.1/DTD/svg11.dtd">
<!-- Generated by graphviz version 2.40.1 (20161225.0304)
 -->
<!-- Title: Ogre::DefaultRaySceneQuery Pages: 1 -->
<svg width="292pt" height="196pt"
 viewBox="0.00 0.00 292.00 196.00" xmlns="http://www.w3.org/2000/svg" xmlns:xlink="http://www.w3.org/1999/xlink">
<g id="graph0" class="graph" transform="scale(1 1) rotate(0) translate(4 192)">
<title>Ogre::DefaultRaySceneQuery</title>
<!-- Node0 -->
<g id="node1" class="node">
<title>Node0</title>
<polygon fill="#bfbfbf" stroke="#000000" points="47.5,-.5 47.5,-19.5 206.5,-19.5 206.5,-.5 47.5,-.5"/>
<text text-anchor="middle" x="127" y="-7.5" font-family="Helvetica,sans-Serif" font-size="10.00" fill="#000000">Ogre::DefaultRaySceneQuery</text>
</g>
<!-- Node1 -->
<g id="node2" class="node">
<title>Node1</title>
<g id="a_node2"><a xlink:href="class_ogre_1_1_ray_scene_query.html" target="_top" xlink:title="Specialises the SceneQuery class for querying along a ray. ">
<polygon fill="none" stroke="#000000" points="65.5,-56.5 65.5,-75.5 188.5,-75.5 188.5,-56.5 65.5,-56.5"/>
<text text-anchor="middle" x="127" y="-63.5" font-family="Helvetica,sans-Serif" font-size="10.00" fill="#000000">Ogre::RaySceneQuery</text>
</a>
</g>
</g>
<!-- Node1&#45;&gt;Node0 -->
<g id="edge1" class="edge">
<title>Node1&#45;&gt;Node0</title>
<path fill="none" stroke="#191970" d="M127,-46.1575C127,-37.155 127,-26.9199 127,-19.6427"/>
<polygon fill="#191970" stroke="#191970" points="123.5001,-46.2455 127,-56.2455 130.5001,-46.2456 123.5001,-46.2455"/>
</g>
<!-- Node2 -->
<g id="node3" class="node">
<title>Node2</title>
<g id="a_node3"><a xlink:href="class_ogre_1_1_scene_query.html" target="_top" xlink:title="A class for performing queries on a scene. ">
<polygon fill="none" stroke="#000000" points="0,-112.5 0,-131.5 104,-131.5 104,-112.5 0,-112.5"/>
<text text-anchor="middle" x="52" y="-119.5" font-family="Helvetica,sans-Serif" font-size="10.00" fill="#000000">Ogre::SceneQuery</text>
</a>
</g>
</g>
<!-- Node2&#45;&gt;Node1 -->
<g id="edge2" class="edge">
<title>Node2&#45;&gt;Node1</title>
<path fill="none" stroke="#191970" d="M73.1477,-106.2097C86.3201,-96.3743 102.84,-84.0394 114.0857,-75.6427"/>
<polygon fill="#191970" stroke="#191970" points="70.9828,-103.4581 65.064,-112.2455 75.1709,-109.0671 70.9828,-103.4581"/>
</g>
<!-- Node3 -->
<g id="node4" class="node">
<title>Node3</title>
<g id="a_node4"><a xlink:href="class_ogre_1_1_allocated_object.html" target="_top" xlink:title="Superclass for all objects that wish to use custom memory allocators when their new / delete operator...">
<polygon fill="none" stroke="#000000" points="7.5,-168.5 7.5,-187.5 96.5,-187.5 96.5,-168.5 7.5,-168.5"/>
<text text-anchor="middle" x="52" y="-175.5" font-family="Helvetica,sans-Serif" font-size="10.00" fill="#000000">SceneMgtAlloc</text>
</a>
</g>
</g>
<!-- Node3&#45;&gt;Node2 -->
<g id="edge3" class="edge">
<title>Node3&#45;&gt;Node2</title>
<path fill="none" stroke="#191970" d="M52,-158.1575C52,-149.155 52,-138.9199 52,-131.6427"/>
<polygon fill="#191970" stroke="#191970" points="48.5001,-158.2455 52,-168.2455 55.5001,-158.2456 48.5001,-158.2455"/>
</g>
<!-- Node4 -->
<g id="node5" class="node">
<title>Node4</title>
<g id="a_node5"><a xlink:href="class_ogre_1_1_ray_scene_query_listener.html" target="_top" xlink:title="Alternative listener class for dealing with RaySceneQuery. ">
<polygon fill="none" stroke="#000000" points="122,-112.5 122,-131.5 284,-131.5 284,-112.5 122,-112.5"/>
<text text-anchor="middle" x="203" y="-119.5" font-family="Helvetica,sans-Serif" font-size="10.00" fill="#000000">Ogre::RaySceneQueryListener</text>
</a>
</g>
</g>
<!-- Node4&#45;&gt;Node1 -->
<g id="edge4" class="edge">
<title>Node4&#45;&gt;Node1</title>
<path fill="none" stroke="#191970" d="M181.5703,-106.2097C168.2223,-96.3743 151.4821,-84.0394 140.0865,-75.6427"/>
<polygon fill="#191970" stroke="#191970" points="179.635,-109.1312 189.7618,-112.2455 183.7874,-103.4958 179.635,-109.1312"/>
</g>
</g>
</svg>
