<?xml version="1.0" encoding="UTF-8" standalone="no"?>
<!DOCTYPE svg PUBLIC "-//W3C//DTD SVG 1.1//EN"
 "http://www.w3.org/Graphics/SVG/1.1/DTD/svg11.dtd">
<!-- Generated by graphviz version 2.38.0 (20140413.2041)
 -->
<!-- Title: Ogre::v1::MetalDepthPixelBuffer Pages: 1 -->
<svg width="158pt" height="207pt"
 viewBox="0.00 0.00 158.00 207.00" xmlns="http://www.w3.org/2000/svg" xmlns:xlink="http://www.w3.org/1999/xlink">
<g id="graph0" class="graph" transform="scale(1 1) rotate(0) translate(4 203)">
<title>Ogre::v1::MetalDepthPixelBuffer</title>
<!-- Node1 -->
<g id="node1" class="node"><title>Node1</title>
<polygon fill="#bfbfbf" stroke="black" points="9,-0.5 9,-30.5 141,-30.5 141,-0.5 9,-0.5"/>
<text text-anchor="start" x="17" y="-18.5" font-family="Helvetica,sans-Serif" font-size="10.00">Ogre::v1::MetalDepthPixel</text>
<text text-anchor="middle" x="75" y="-7.5" font-family="Helvetica,sans-Serif" font-size="10.00">Buffer</text>
</g>
<!-- Node2 -->
<g id="node2" class="node"><title>Node2</title>
<g id="a_node2"><a xlink:href="class_ogre_1_1v1_1_1_hardware_pixel_buffer.html" target="_top" xlink:title="Specialisation of HardwareBuffer for a pixel buffer. ">
<polygon fill="none" stroke="black" points="-1.42109e-14,-67.5 -1.42109e-14,-86.5 150,-86.5 150,-67.5 -1.42109e-14,-67.5"/>
<text text-anchor="middle" x="75" y="-74.5" font-family="Helvetica,sans-Serif" font-size="10.00">Ogre::v1::HardwarePixelBuffer</text>
</a>
</g>
</g>
<!-- Node2&#45;&gt;Node1 -->
<g id="edge1" class="edge"><title>Node2&#45;&gt;Node1</title>
<path fill="none" stroke="midnightblue" d="M75,-57.2349C75,-48.5864 75,-38.4969 75,-30.523"/>
<polygon fill="midnightblue" stroke="midnightblue" points="71.5001,-57.4751 75,-67.4751 78.5001,-57.4751 71.5001,-57.4751"/>
</g>
<!-- Node3 -->
<g id="node3" class="node"><title>Node3</title>
<g id="a_node3"><a xlink:href="class_ogre_1_1v1_1_1_hardware_buffer.html" target="_top" xlink:title="Abstract class defining common features of hardware buffers. ">
<polygon fill="none" stroke="black" points="11,-123.5 11,-142.5 139,-142.5 139,-123.5 11,-123.5"/>
<text text-anchor="middle" x="75" y="-130.5" font-family="Helvetica,sans-Serif" font-size="10.00">Ogre::v1::HardwareBuffer</text>
</a>
</g>
</g>
<!-- Node3&#45;&gt;Node2 -->
<g id="edge2" class="edge"><title>Node3&#45;&gt;Node2</title>
<path fill="none" stroke="midnightblue" d="M75,-112.805C75,-103.91 75,-93.7798 75,-86.7511"/>
<polygon fill="midnightblue" stroke="midnightblue" points="71.5001,-113.083 75,-123.083 78.5001,-113.083 71.5001,-113.083"/>
</g>
<!-- Node4 -->
<g id="node4" class="node"><title>Node4</title>
<g id="a_node4"><a xlink:href="class_ogre_1_1_allocated_object.html" target="_top" xlink:title="Superclass for all objects that wish to use custom memory allocators when their new / delete operator...">
<polygon fill="none" stroke="black" points="42.5,-179.5 42.5,-198.5 107.5,-198.5 107.5,-179.5 42.5,-179.5"/>
<text text-anchor="middle" x="75" y="-186.5" font-family="Helvetica,sans-Serif" font-size="10.00">BufferAlloc</text>
</a>
</g>
</g>
<!-- Node4&#45;&gt;Node3 -->
<g id="edge3" class="edge"><title>Node4&#45;&gt;Node3</title>
<path fill="none" stroke="midnightblue" d="M75,-168.805C75,-159.91 75,-149.78 75,-142.751"/>
<polygon fill="midnightblue" stroke="midnightblue" points="71.5001,-169.083 75,-179.083 78.5001,-169.083 71.5001,-169.083"/>
</g>
</g>
</svg>
