<?xml version="1.0" encoding="UTF-8" standalone="no"?>
<!DOCTYPE svg PUBLIC "-//W3C//DTD SVG 1.1//EN"
 "http://www.w3.org/Graphics/SVG/1.1/DTD/svg11.dtd">
<!-- Generated by graphviz version 2.38.0 (20140413.2041)
 -->
<!-- Title: Ogre::StringInterface Pages: 1 -->
<svg width="872pt" height="853pt"
 viewBox="0.00 0.00 872.00 852.50" xmlns="http://www.w3.org/2000/svg" xmlns:xlink="http://www.w3.org/1999/xlink">
<g id="graph0" class="graph" transform="scale(1 1) rotate(0) translate(4 848.5)">
<title>Ogre::StringInterface</title>
<!-- Node1 -->
<g id="node1" class="node"><title>Node1</title>
<polygon fill="#bfbfbf" stroke="black" points="0,-344 0,-363 107,-363 107,-344 0,-344"/>
<text text-anchor="middle" x="53.5" y="-351" font-family="Helvetica,sans-Serif" font-size="10.00">Ogre::StringInterface</text>
</g>
<!-- Node2 -->
<g id="node2" class="node"><title>Node2</title>
<g id="a_node2"><a xlink:href="class_ogre_1_1_external_texture_source.html" target="_top" xlink:title="IMPORTANT: Plugins must override default dictionary name! Base class that texture plugins derive from...">
<polygon fill="none" stroke="black" points="146.5,-458 146.5,-477 289.5,-477 289.5,-458 146.5,-458"/>
<text text-anchor="middle" x="218" y="-465" font-family="Helvetica,sans-Serif" font-size="10.00">Ogre::ExternalTextureSource</text>
</a>
</g>
</g>
<!-- Node1&#45;&gt;Node2 -->
<g id="edge1" class="edge"><title>Node1&#45;&gt;Node2</title>
<path fill="none" stroke="midnightblue" d="M66.4311,-371.596C81.6316,-393.196 109.935,-428.856 143,-448.5 149.5,-452.362 156.774,-455.445 164.155,-457.907"/>
<polygon fill="midnightblue" stroke="midnightblue" points="69.2802,-369.562 60.7432,-363.287 63.504,-373.516 69.2802,-369.562"/>
</g>
<!-- Node3 -->
<g id="node3" class="node"><title>Node3</title>
<g id="a_node3"><a xlink:href="class_ogre_1_1_particle_affector.html" target="_top" xlink:title="Abstract class defining the interface to be implemented by particle affectors. ">
<polygon fill="none" stroke="black" points="162.5,-420 162.5,-439 273.5,-439 273.5,-420 162.5,-420"/>
<text text-anchor="middle" x="218" y="-427" font-family="Helvetica,sans-Serif" font-size="10.00">Ogre::ParticleAffector</text>
</a>
</g>
</g>
<!-- Node1&#45;&gt;Node3 -->
<g id="edge2" class="edge"><title>Node1&#45;&gt;Node3</title>
<path fill="none" stroke="midnightblue" d="M74.8713,-369.331C92.151,-382.075 118.041,-399.6 143,-410.5 151.63,-414.269 161.165,-417.409 170.44,-419.979"/>
<polygon fill="midnightblue" stroke="midnightblue" points="76.7663,-366.377 66.6706,-363.164 72.5589,-371.972 76.7663,-366.377"/>
</g>
<!-- Node4 -->
<g id="node4" class="node"><title>Node4</title>
<g id="a_node4"><a xlink:href="class_ogre_1_1_particle_emitter.html" target="_top" xlink:title="Abstract class defining the interface to be implemented by particle emitters. ">
<polygon fill="none" stroke="black" points="164,-382 164,-401 272,-401 272,-382 164,-382"/>
<text text-anchor="middle" x="218" y="-389" font-family="Helvetica,sans-Serif" font-size="10.00">Ogre::ParticleEmitter</text>
</a>
</g>
</g>
<!-- Node1&#45;&gt;Node4 -->
<g id="edge3" class="edge"><title>Node1&#45;&gt;Node4</title>
<path fill="none" stroke="midnightblue" d="M105.371,-365.396C128.212,-370.737 154.795,-376.954 176.289,-381.98"/>
<polygon fill="midnightblue" stroke="midnightblue" points="106.04,-361.958 95.5056,-363.089 104.446,-368.774 106.04,-361.958"/>
</g>
<!-- Node5 -->
<g id="node5" class="node"><title>Node5</title>
<g id="a_node5"><a xlink:href="class_ogre_1_1_particle_system.html" target="_top" xlink:title="Class defining particle system based special effects. ">
<polygon fill="none" stroke="black" points="163,-344 163,-363 273,-363 273,-344 163,-344"/>
<text text-anchor="middle" x="218" y="-351" font-family="Helvetica,sans-Serif" font-size="10.00">Ogre::ParticleSystem</text>
</a>
</g>
</g>
<!-- Node1&#45;&gt;Node5 -->
<g id="edge4" class="edge"><title>Node1&#45;&gt;Node5</title>
<path fill="none" stroke="midnightblue" d="M117.461,-353.5C132.438,-353.5 148.289,-353.5 162.833,-353.5"/>
<polygon fill="midnightblue" stroke="midnightblue" points="117.259,-350 107.259,-353.5 117.259,-357 117.259,-350"/>
</g>
<!-- Node6 -->
<g id="node6" class="node"><title>Node6</title>
<g id="a_node6"><a xlink:href="class_ogre_1_1_particle_system_renderer.html" target="_top" xlink:title="Abstract class defining the interface required to be implemented by classes which provide rendering c...">
<polygon fill="none" stroke="black" points="143,-306 143,-325 293,-325 293,-306 143,-306"/>
<text text-anchor="middle" x="218" y="-313" font-family="Helvetica,sans-Serif" font-size="10.00">Ogre::ParticleSystemRenderer</text>
</a>
</g>
</g>
<!-- Node1&#45;&gt;Node6 -->
<g id="edge5" class="edge"><title>Node1&#45;&gt;Node6</title>
<path fill="none" stroke="midnightblue" d="M105.371,-341.604C128.212,-336.263 154.795,-330.046 176.289,-325.02"/>
<polygon fill="midnightblue" stroke="midnightblue" points="104.446,-338.226 95.5056,-343.911 106.04,-345.042 104.446,-338.226"/>
</g>
<!-- Node8 -->
<g id="node8" class="node"><title>Node8</title>
<g id="a_node8"><a xlink:href="class_ogre_1_1_resource.html" target="_top" xlink:title="Abstract class representing a loadable resource (e.g. ">
<polygon fill="none" stroke="black" points="175,-268 175,-287 261,-287 261,-268 175,-268"/>
<text text-anchor="middle" x="218" y="-275" font-family="Helvetica,sans-Serif" font-size="10.00">Ogre::Resource</text>
</a>
</g>
</g>
<!-- Node1&#45;&gt;Node8 -->
<g id="edge7" class="edge"><title>Node1&#45;&gt;Node8</title>
<path fill="none" stroke="midnightblue" d="M74.8713,-337.669C92.151,-324.925 118.041,-307.4 143,-296.5 152.967,-292.147 164.142,-288.633 174.727,-285.868"/>
<polygon fill="midnightblue" stroke="midnightblue" points="72.5589,-335.028 66.6706,-343.836 76.7663,-340.623 72.5589,-335.028"/>
</g>
<!-- Node46 -->
<g id="node46" class="node"><title>Node46</title>
<g id="a_node46"><a xlink:href="class_ogre_1_1v1_1_1_overlay_element.html" target="_top" xlink:title="Abstract definition of a 2D element to be displayed in an Overlay. ">
<polygon fill="none" stroke="black" points="153,-50 153,-69 283,-69 283,-50 153,-50"/>
<text text-anchor="middle" x="218" y="-57" font-family="Helvetica,sans-Serif" font-size="10.00">Ogre::v1::OverlayElement</text>
</a>
</g>
</g>
<!-- Node1&#45;&gt;Node46 -->
<g id="edge45" class="edge"><title>Node1&#45;&gt;Node46</title>
<path fill="none" stroke="midnightblue" d="M64.838,-334.796C96.0573,-278.313 188.646,-110.799 211.737,-69.0213"/>
<polygon fill="midnightblue" stroke="midnightblue" points="61.6809,-333.273 59.9067,-343.718 67.8074,-336.659 61.6809,-333.273"/>
</g>
<!-- Node7 -->
<g id="node7" class="node"><title>Node7</title>
<g id="a_node7"><a xlink:href="class_ogre_1_1v1_1_1_billboard_particle_renderer.html" target="_top" xlink:title="Specialisation of ParticleSystemRenderer to render particles using a BillboardSet. ">
<polygon fill="none" stroke="black" points="331.5,-521.5 331.5,-551.5 462.5,-551.5 462.5,-521.5 331.5,-521.5"/>
<text text-anchor="start" x="339.5" y="-539.5" font-family="Helvetica,sans-Serif" font-size="10.00">Ogre::v1::BillboardParticle</text>
<text text-anchor="middle" x="397" y="-528.5" font-family="Helvetica,sans-Serif" font-size="10.00">Renderer</text>
</a>
</g>
</g>
<!-- Node6&#45;&gt;Node7 -->
<g id="edge6" class="edge"><title>Node6&#45;&gt;Node7</title>
<path fill="none" stroke="midnightblue" d="M289.007,-330.79C290.408,-331.943 291.743,-333.178 293,-334.5 348.308,-392.685 276.846,-450.472 329,-511.5 332.307,-515.37 336.273,-518.641 340.603,-521.407"/>
<polygon fill="midnightblue" stroke="midnightblue" points="290.606,-327.651 280.338,-325.04 286.737,-333.485 290.606,-327.651"/>
</g>
<!-- Node9 -->
<g id="node9" class="node"><title>Node9</title>
<g id="a_node9"><a xlink:href="class_ogre_1_1_font.html" target="_top" xlink:title="Class representing a font in the system. ">
<polygon fill="none" stroke="black" points="365.5,-483 365.5,-502 428.5,-502 428.5,-483 365.5,-483"/>
<text text-anchor="middle" x="397" y="-490" font-family="Helvetica,sans-Serif" font-size="10.00">Ogre::Font</text>
</a>
</g>
</g>
<!-- Node8&#45;&gt;Node9 -->
<g id="edge8" class="edge"><title>Node8&#45;&gt;Node9</title>
<path fill="none" stroke="midnightblue" d="M271.038,-282.957C279.27,-285.897 287.023,-290.212 293,-296.5 348.308,-354.685 274.423,-414.629 329,-473.5 338.288,-483.519 352.431,-488.395 365.333,-490.717"/>
<polygon fill="midnightblue" stroke="midnightblue" points="271.812,-279.537 261.232,-280.102 269.855,-286.258 271.812,-279.537"/>
</g>
<!-- Node10 -->
<g id="node10" class="node"><title>Node10</title>
<g id="a_node10"><a xlink:href="class_ogre_1_1_gpu_program.html" target="_top" xlink:title="Defines a program which runs on the GPU such as a vertex or fragment program. ">
<polygon fill="none" stroke="black" points="348,-445 348,-464 446,-464 446,-445 348,-445"/>
<text text-anchor="middle" x="397" y="-452" font-family="Helvetica,sans-Serif" font-size="10.00">Ogre::GpuProgram</text>
</a>
</g>
</g>
<!-- Node8&#45;&gt;Node10 -->
<g id="edge9" class="edge"><title>Node8&#45;&gt;Node10</title>
<path fill="none" stroke="midnightblue" d="M270.899,-285.551C278.747,-288.221 286.41,-291.773 293,-296.5 321.47,-316.92 374.317,-413.609 390.891,-444.786"/>
<polygon fill="midnightblue" stroke="midnightblue" points="271.877,-282.19 261.295,-282.713 269.893,-288.903 271.877,-282.19"/>
</g>
<!-- Node31 -->
<g id="node31" class="node"><title>Node31</title>
<g id="a_node31"><a xlink:href="class_ogre_1_1_material.html" target="_top" xlink:title="Class encapsulates rendering properties of an object. ">
<polygon fill="none" stroke="black" points="358,-306 358,-325 436,-325 436,-306 358,-306"/>
<text text-anchor="middle" x="397" y="-313" font-family="Helvetica,sans-Serif" font-size="10.00">Ogre::Material</text>
</a>
</g>
</g>
<!-- Node8&#45;&gt;Node31 -->
<g id="edge30" class="edge"><title>Node8&#45;&gt;Node31</title>
<path fill="none" stroke="midnightblue" d="M271.338,-288.736C299.099,-294.696 332.592,-301.887 357.869,-307.314"/>
<polygon fill="midnightblue" stroke="midnightblue" points="271.908,-285.279 261.396,-286.602 270.438,-292.123 271.908,-285.279"/>
</g>
<!-- Node32 -->
<g id="node32" class="node"><title>Node32</title>
<g id="a_node32"><a xlink:href="class_ogre_1_1_mesh.html" target="_top" xlink:title="Resource holding data about 3D mesh. ">
<polygon fill="none" stroke="black" points="363,-268 363,-287 431,-287 431,-268 363,-268"/>
<text text-anchor="middle" x="397" y="-275" font-family="Helvetica,sans-Serif" font-size="10.00">Ogre::Mesh</text>
</a>
</g>
</g>
<!-- Node8&#45;&gt;Node32 -->
<g id="edge31" class="edge"><title>Node8&#45;&gt;Node32</title>
<path fill="none" stroke="midnightblue" d="M271.557,-277.5C301.123,-277.5 337.136,-277.5 362.799,-277.5"/>
<polygon fill="midnightblue" stroke="midnightblue" points="271.396,-274 261.396,-277.5 271.396,-281 271.396,-274"/>
</g>
<!-- Node33 -->
<g id="node33" class="node"><title>Node33</title>
<g id="a_node33"><a xlink:href="class_ogre_1_1_texture.html" target="_top" xlink:title="Abstract class representing a Texture resource. ">
<polygon fill="none" stroke="black" points="358.5,-230 358.5,-249 435.5,-249 435.5,-230 358.5,-230"/>
<text text-anchor="middle" x="397" y="-237" font-family="Helvetica,sans-Serif" font-size="10.00">Ogre::Texture</text>
</a>
</g>
</g>
<!-- Node8&#45;&gt;Node33 -->
<g id="edge32" class="edge"><title>Node8&#45;&gt;Node33</title>
<path fill="none" stroke="midnightblue" d="M271.41,-266.248C299.373,-260.245 333.138,-252.996 358.46,-247.559"/>
<polygon fill="midnightblue" stroke="midnightblue" points="270.438,-262.877 261.396,-268.398 271.908,-269.721 270.438,-262.877"/>
</g>
<!-- Node42 -->
<g id="node42" class="node"><title>Node42</title>
<g id="a_node42"><a xlink:href="class_ogre_1_1v1_1_1_mesh.html" target="_top" xlink:title="Resource holding data about 3D mesh. ">
<polygon fill="none" stroke="black" points="355,-154 355,-173 439,-173 439,-154 355,-154"/>
<text text-anchor="middle" x="397" y="-161" font-family="Helvetica,sans-Serif" font-size="10.00">Ogre::v1::Mesh</text>
</a>
</g>
</g>
<!-- Node8&#45;&gt;Node42 -->
<g id="edge41" class="edge"><title>Node8&#45;&gt;Node42</title>
<path fill="none" stroke="midnightblue" d="M242.393,-262.433C279.284,-238.673 349.955,-193.156 380.88,-173.238"/>
<polygon fill="midnightblue" stroke="midnightblue" points="240.298,-259.619 233.786,-267.977 244.089,-265.504 240.298,-259.619"/>
</g>
<!-- Node44 -->
<g id="node44" class="node"><title>Node44</title>
<g id="a_node44"><a xlink:href="class_ogre_1_1v1_1_1_skeleton.html" target="_top" xlink:title="A collection of OldBone objects used to animate a skinned mesh. ">
<polygon fill="none" stroke="black" points="348,-97 348,-116 446,-116 446,-97 348,-97"/>
<text text-anchor="middle" x="397" y="-104" font-family="Helvetica,sans-Serif" font-size="10.00">Ogre::v1::Skeleton</text>
</a>
</g>
</g>
<!-- Node8&#45;&gt;Node44 -->
<g id="edge43" class="edge"><title>Node8&#45;&gt;Node44</title>
<path fill="none" stroke="midnightblue" d="M230.911,-259.184C249.416,-231.745 287.308,-179.464 329,-144.5 342.935,-132.814 360.973,-122.82 374.822,-116.018"/>
<polygon fill="midnightblue" stroke="midnightblue" points="227.816,-257.518 225.199,-267.784 233.647,-261.39 227.816,-257.518"/>
</g>
<!-- Node11 -->
<g id="node11" class="node"><title>Node11</title>
<g id="a_node11"><a xlink:href="class_ogre_1_1_d3_d11_gpu_program.html" target="_top" xlink:title="Direct3D implementation of a few things common to low&#45;level vertex &amp; fragment programs. ">
<polygon fill="none" stroke="black" points="514,-730 514,-749 643,-749 643,-730 514,-730"/>
<text text-anchor="middle" x="578.5" y="-737" font-family="Helvetica,sans-Serif" font-size="10.00">Ogre::D3D11GpuProgram</text>
</a>
</g>
</g>
<!-- Node10&#45;&gt;Node11 -->
<g id="edge10" class="edge"><title>Node10&#45;&gt;Node11</title>
<path fill="none" stroke="midnightblue" d="M455.385,-465.901C458.906,-468.028 462.165,-470.538 465,-473.5 513.004,-523.653 473.213,-561.879 501,-625.5 519.412,-667.656 553.543,-711.043 569.227,-729.845"/>
<polygon fill="midnightblue" stroke="midnightblue" points="456.701,-462.648 446.184,-461.367 453.606,-468.927 456.701,-462.648"/>
</g>
<!-- Node17 -->
<g id="node17" class="node"><title>Node17</title>
<g id="a_node17"><a xlink:href="class_ogre_1_1_d3_d9_gpu_program.html" target="_top" xlink:title="Direct3D implementation of a few things common to low&#45;level vertex &amp; fragment programs. ">
<polygon fill="none" stroke="black" points="516.5,-597 516.5,-616 640.5,-616 640.5,-597 516.5,-597"/>
<text text-anchor="middle" x="578.5" y="-604" font-family="Helvetica,sans-Serif" font-size="10.00">Ogre::D3D9GpuProgram</text>
</a>
</g>
</g>
<!-- Node10&#45;&gt;Node17 -->
<g id="edge16" class="edge"><title>Node10&#45;&gt;Node17</title>
<path fill="none" stroke="midnightblue" d="M455.55,-467.059C458.919,-468.918 462.107,-471.052 465,-473.5 493.529,-497.646 477.313,-520.589 501,-549.5 517.69,-569.87 543.158,-586.925 560.062,-596.925"/>
<polygon fill="midnightblue" stroke="midnightblue" points="456.834,-463.796 446.291,-462.751 453.881,-470.143 456.834,-463.796"/>
</g>
<!-- Node20 -->
<g id="node20" class="node"><title>Node20</title>
<g id="a_node20"><a xlink:href="class_ogre_1_1_g_l3_plus_gpu_program.html" target="_top" xlink:title="Generalised low&#45;level GL program, can be applied to multiple types (eg ARB and NV) ...">
<polygon fill="none" stroke="black" points="510.5,-521 510.5,-540 646.5,-540 646.5,-521 510.5,-521"/>
<text text-anchor="middle" x="578.5" y="-528" font-family="Helvetica,sans-Serif" font-size="10.00">Ogre::GL3PlusGpuProgram</text>
</a>
</g>
</g>
<!-- Node10&#45;&gt;Node20 -->
<g id="edge19" class="edge"><title>Node10&#45;&gt;Node20</title>
<path fill="none" stroke="midnightblue" d="M446.768,-467.031C452.971,-469.003 459.181,-471.169 465,-473.5 481.795,-480.227 484.897,-484.253 501,-492.5 520.271,-502.37 542.443,-513.341 557.939,-520.948"/>
<polygon fill="midnightblue" stroke="midnightblue" points="447.666,-463.646 437.081,-464.095 445.636,-470.345 447.666,-463.646"/>
</g>
<!-- Node22 -->
<g id="node22" class="node"><title>Node22</title>
<g id="a_node22"><a xlink:href="class_ogre_1_1_g_l_e_s2_gpu_program.html" target="_top" xlink:title="Generalised low&#45;level GL program, can be applied to multiple types (eg ARB and NV) ...">
<polygon fill="none" stroke="black" points="513.5,-464 513.5,-483 643.5,-483 643.5,-464 513.5,-464"/>
<text text-anchor="middle" x="578.5" y="-471" font-family="Helvetica,sans-Serif" font-size="10.00">Ogre::GLES2GpuProgram</text>
</a>
</g>
</g>
<!-- Node10&#45;&gt;Node22 -->
<g id="edge21" class="edge"><title>Node10&#45;&gt;Node22</title>
<path fill="none" stroke="midnightblue" d="M456.298,-460.671C474.542,-462.602 494.77,-464.743 513.391,-466.714"/>
<polygon fill="midnightblue" stroke="midnightblue" points="456.416,-457.164 446.103,-459.592 455.679,-464.125 456.416,-457.164"/>
</g>
<!-- Node24 -->
<g id="node24" class="node"><title>Node24</title>
<g id="a_node24"><a xlink:href="class_ogre_1_1_high_level_gpu_program.html" target="_top" xlink:title="Abstract base class representing a high&#45;level program (a vertex or fragment program). ">
<polygon fill="none" stroke="black" points="507.5,-407 507.5,-426 649.5,-426 649.5,-407 507.5,-407"/>
<text text-anchor="middle" x="578.5" y="-414" font-family="Helvetica,sans-Serif" font-size="10.00">Ogre::HighLevelGpuProgram</text>
</a>
</g>
</g>
<!-- Node10&#45;&gt;Node24 -->
<g id="edge23" class="edge"><title>Node10&#45;&gt;Node24</title>
<path fill="none" stroke="midnightblue" d="M453.177,-442.819C478.633,-437.43 508.468,-431.114 532.53,-426.02"/>
<polygon fill="midnightblue" stroke="midnightblue" points="452.354,-439.416 443.295,-444.911 453.804,-446.264 452.354,-439.416"/>
</g>
<!-- Node12 -->
<g id="node12" class="node"><title>Node12</title>
<g id="a_node12"><a xlink:href="class_ogre_1_1_d3_d11_gpu_domain_program.html" target="_top" xlink:title="Direct3D implementation of low&#45;level vertex programs. ">
<polygon fill="none" stroke="black" points="696.5,-825 696.5,-844 859.5,-844 859.5,-825 696.5,-825"/>
<text text-anchor="middle" x="778" y="-832" font-family="Helvetica,sans-Serif" font-size="10.00">Ogre::D3D11GpuDomainProgram</text>
</a>
</g>
</g>
<!-- Node11&#45;&gt;Node12 -->
<g id="edge11" class="edge"><title>Node11&#45;&gt;Node12</title>
<path fill="none" stroke="midnightblue" d="M598.41,-755.572C619.771,-772.905 656.235,-800.082 692,-815.5 700.887,-819.331 710.643,-822.434 720.278,-824.934"/>
<polygon fill="midnightblue" stroke="midnightblue" points="600.422,-752.694 590.483,-749.025 595.964,-758.092 600.422,-752.694"/>
</g>
<!-- Node13 -->
<g id="node13" class="node"><title>Node13</title>
<g id="a_node13"><a xlink:href="class_ogre_1_1_d3_d11_gpu_fragment_program.html" target="_top" xlink:title="Direct3D implementation of low&#45;level fragment programs. ">
<polygon fill="none" stroke="black" points="693,-787 693,-806 863,-806 863,-787 693,-787"/>
<text text-anchor="middle" x="778" y="-794" font-family="Helvetica,sans-Serif" font-size="10.00">Ogre::D3D11GpuFragmentProgram</text>
</a>
</g>
</g>
<!-- Node11&#45;&gt;Node13 -->
<g id="edge12" class="edge"><title>Node11&#45;&gt;Node13</title>
<path fill="none" stroke="midnightblue" d="M614.763,-752.482C636.786,-760.322 665.831,-770.178 692,-777.5 704.232,-780.923 717.588,-784.145 730.014,-786.93"/>
<polygon fill="midnightblue" stroke="midnightblue" points="615.769,-749.124 605.174,-749.038 613.403,-755.712 615.769,-749.124"/>
</g>
<!-- Node14 -->
<g id="node14" class="node"><title>Node14</title>
<g id="a_node14"><a xlink:href="class_ogre_1_1_d3_d11_gpu_geometry_program.html" target="_top" xlink:title="Direct3D implementation of low&#45;level geometry programs. ">
<polygon fill="none" stroke="black" points="692,-749 692,-768 864,-768 864,-749 692,-749"/>
<text text-anchor="middle" x="778" y="-756" font-family="Helvetica,sans-Serif" font-size="10.00">Ogre::D3D11GpuGeometryProgram</text>
</a>
</g>
</g>
<!-- Node11&#45;&gt;Node14 -->
<g id="edge13" class="edge"><title>Node11&#45;&gt;Node14</title>
<path fill="none" stroke="midnightblue" d="M653.086,-746.579C665.747,-747.797 678.998,-749.072 691.93,-750.316"/>
<polygon fill="midnightblue" stroke="midnightblue" points="653.367,-743.09 643.077,-745.616 652.696,-750.058 653.367,-743.09"/>
</g>
<!-- Node15 -->
<g id="node15" class="node"><title>Node15</title>
<g id="a_node15"><a xlink:href="class_ogre_1_1_d3_d11_gpu_hull_program.html" target="_top" xlink:title="Direct3D implementation of low&#45;level vertex programs. ">
<polygon fill="none" stroke="black" points="705,-711 705,-730 851,-730 851,-711 705,-711"/>
<text text-anchor="middle" x="778" y="-718" font-family="Helvetica,sans-Serif" font-size="10.00">Ogre::D3D11GpuHullProgram</text>
</a>
</g>
</g>
<!-- Node11&#45;&gt;Node15 -->
<g id="edge14" class="edge"><title>Node11&#45;&gt;Node15</title>
<path fill="none" stroke="midnightblue" d="M653.424,-732.388C670.288,-730.766 688.184,-729.044 704.967,-727.43"/>
<polygon fill="midnightblue" stroke="midnightblue" points="652.696,-728.942 643.077,-733.384 653.367,-735.91 652.696,-728.942"/>
</g>
<!-- Node16 -->
<g id="node16" class="node"><title>Node16</title>
<g id="a_node16"><a xlink:href="class_ogre_1_1_d3_d11_gpu_vertex_program.html" target="_top" xlink:title="Direct3D implementation of low&#45;level vertex programs. ">
<polygon fill="none" stroke="black" points="699,-673 699,-692 857,-692 857,-673 699,-673"/>
<text text-anchor="middle" x="778" y="-680" font-family="Helvetica,sans-Serif" font-size="10.00">Ogre::D3D11GpuVertexProgram</text>
</a>
</g>
</g>
<!-- Node11&#45;&gt;Node16 -->
<g id="edge15" class="edge"><title>Node11&#45;&gt;Node16</title>
<path fill="none" stroke="midnightblue" d="M614.763,-726.518C636.786,-718.678 665.831,-708.822 692,-701.5 704.232,-698.077 717.588,-694.855 730.014,-692.07"/>
<polygon fill="midnightblue" stroke="midnightblue" points="613.403,-723.288 605.174,-729.962 615.769,-729.876 613.403,-723.288"/>
</g>
<!-- Node18 -->
<g id="node18" class="node"><title>Node18</title>
<g id="a_node18"><a xlink:href="class_ogre_1_1_d3_d9_gpu_fragment_program.html" target="_top" xlink:title="Direct3D implementation of low&#45;level fragment programs. ">
<polygon fill="none" stroke="black" points="695.5,-635 695.5,-654 860.5,-654 860.5,-635 695.5,-635"/>
<text text-anchor="middle" x="778" y="-642" font-family="Helvetica,sans-Serif" font-size="10.00">Ogre::D3D9GpuFragmentProgram</text>
</a>
</g>
</g>
<!-- Node17&#45;&gt;Node18 -->
<g id="edge17" class="edge"><title>Node17&#45;&gt;Node18</title>
<path fill="none" stroke="midnightblue" d="M639.215,-617.989C667.395,-623.411 700.629,-629.806 727.397,-634.956"/>
<polygon fill="midnightblue" stroke="midnightblue" points="639.564,-614.492 629.083,-616.04 638.241,-621.366 639.564,-614.492"/>
</g>
<!-- Node19 -->
<g id="node19" class="node"><title>Node19</title>
<g id="a_node19"><a xlink:href="class_ogre_1_1_d3_d9_gpu_vertex_program.html" target="_top" xlink:title="Direct3D implementation of low&#45;level vertex programs. ">
<polygon fill="none" stroke="black" points="702,-597 702,-616 854,-616 854,-597 702,-597"/>
<text text-anchor="middle" x="778" y="-604" font-family="Helvetica,sans-Serif" font-size="10.00">Ogre::D3D9GpuVertexProgram</text>
</a>
</g>
</g>
<!-- Node17&#45;&gt;Node19 -->
<g id="edge18" class="edge"><title>Node17&#45;&gt;Node19</title>
<path fill="none" stroke="midnightblue" d="M650.809,-606.5C667.408,-606.5 685.131,-606.5 701.889,-606.5"/>
<polygon fill="midnightblue" stroke="midnightblue" points="650.638,-603 640.638,-606.5 650.638,-610 650.638,-603"/>
</g>
<!-- Node21 -->
<g id="node21" class="node"><title>Node21</title>
<g id="a_node21"><a xlink:href="class_ogre_1_1_g_l_s_l_gpu_program.html" target="_top" xlink:title="GLSL low level compiled shader object &#45; this class is used to get at the linked program object and pr...">
<polygon fill="none" stroke="black" points="716.5,-559 716.5,-578 839.5,-578 839.5,-559 716.5,-559"/>
<text text-anchor="middle" x="778" y="-566" font-family="Helvetica,sans-Serif" font-size="10.00">Ogre::GLSLGpuProgram</text>
</a>
</g>
</g>
<!-- Node20&#45;&gt;Node21 -->
<g id="edge20" class="edge"><title>Node20&#45;&gt;Node21</title>
<path fill="none" stroke="midnightblue" d="M639.215,-541.989C667.395,-547.411 700.629,-553.806 727.397,-558.956"/>
<polygon fill="midnightblue" stroke="midnightblue" points="639.564,-538.492 629.083,-540.04 638.241,-545.366 639.564,-538.492"/>
</g>
<!-- Node23 -->
<g id="node23" class="node"><title>Node23</title>
<g id="a_node23"><a xlink:href="class_ogre_1_1_g_l_s_l_e_s_gpu_program.html" target="_top" xlink:title="GLSL ES low level compiled shader object &#45; this class is used to get at the linked program object and...">
<polygon fill="none" stroke="black" points="709.5,-521 709.5,-540 846.5,-540 846.5,-521 709.5,-521"/>
<text text-anchor="middle" x="778" y="-528" font-family="Helvetica,sans-Serif" font-size="10.00">Ogre::GLSLESGpuProgram</text>
</a>
</g>
</g>
<!-- Node22&#45;&gt;Node23 -->
<g id="edge22" class="edge"><title>Node22&#45;&gt;Node23</title>
<path fill="none" stroke="midnightblue" d="M614.763,-486.482C636.786,-494.322 665.831,-504.178 692,-511.5 704.232,-514.923 717.588,-518.145 730.014,-520.93"/>
<polygon fill="midnightblue" stroke="midnightblue" points="615.769,-483.124 605.174,-483.038 613.403,-489.712 615.769,-483.124"/>
</g>
<!-- Node25 -->
<g id="node25" class="node"><title>Node25</title>
<g id="a_node25"><a xlink:href="class_ogre_1_1_d3_d11_h_l_s_l_program.html" target="_top" xlink:title="Specialization of HighLevelGpuProgram to provide support for D3D11 High&#45;Level Shader Language (HLSL)...">
<polygon fill="none" stroke="black" points="710,-483 710,-502 846,-502 846,-483 710,-483"/>
<text text-anchor="middle" x="778" y="-490" font-family="Helvetica,sans-Serif" font-size="10.00">Ogre::D3D11HLSLProgram</text>
</a>
</g>
</g>
<!-- Node24&#45;&gt;Node25 -->
<g id="edge24" class="edge"><title>Node24&#45;&gt;Node25</title>
<path fill="none" stroke="midnightblue" d="M608.418,-430.656C622.77,-437.734 640.343,-446.481 656,-454.5 672.103,-462.747 675.022,-467.249 692,-473.5 702.217,-477.261 713.41,-480.41 724.223,-482.993"/>
<polygon fill="midnightblue" stroke="midnightblue" points="609.579,-427.326 599.061,-426.052 606.488,-433.607 609.579,-427.326"/>
</g>
<!-- Node26 -->
<g id="node26" class="node"><title>Node26</title>
<g id="a_node26"><a xlink:href="class_ogre_1_1_d3_d9_h_l_s_l_program.html" target="_top" xlink:title="Specialisation of HighLevelGpuProgram to provide support for D3D9 High&#45;Level Shader Language (HLSL)...">
<polygon fill="none" stroke="black" points="712.5,-445 712.5,-464 843.5,-464 843.5,-445 712.5,-445"/>
<text text-anchor="middle" x="778" y="-452" font-family="Helvetica,sans-Serif" font-size="10.00">Ogre::D3D9HLSLProgram</text>
</a>
</g>
</g>
<!-- Node24&#45;&gt;Node26 -->
<g id="edge25" class="edge"><title>Node24&#45;&gt;Node26</title>
<path fill="none" stroke="midnightblue" d="M639.215,-427.989C667.395,-433.411 700.629,-439.806 727.397,-444.956"/>
<polygon fill="midnightblue" stroke="midnightblue" points="639.564,-424.492 629.083,-426.04 638.241,-431.366 639.564,-424.492"/>
</g>
<!-- Node27 -->
<g id="node27" class="node"><title>Node27</title>
<g id="a_node27"><a xlink:href="class_ogre_1_1_g_l_s_l_program.html" target="_top" xlink:title="C++ encapsulation of GLSL program object. ">
<polygon fill="none" stroke="red" points="725.5,-407 725.5,-426 830.5,-426 830.5,-407 725.5,-407"/>
<text text-anchor="middle" x="778" y="-414" font-family="Helvetica,sans-Serif" font-size="10.00">Ogre::GLSLProgram</text>
</a>
</g>
</g>
<!-- Node24&#45;&gt;Node27 -->
<g id="edge26" class="edge"><title>Node24&#45;&gt;Node27</title>
<path fill="none" stroke="midnightblue" d="M659.751,-416.5C681.888,-416.5 705.311,-416.5 725.353,-416.5"/>
<polygon fill="midnightblue" stroke="midnightblue" points="659.687,-413 649.687,-416.5 659.687,-420 659.687,-413"/>
</g>
<!-- Node28 -->
<g id="node28" class="node"><title>Node28</title>
<g id="a_node28"><a xlink:href="class_ogre_1_1_g_l_s_l_shader.html" target="_top" xlink:title="Specialisation of HighLevelGpuProgram to encapsulate shader objects obtained from compiled shaders wr...">
<polygon fill="none" stroke="black" points="728.5,-369 728.5,-388 827.5,-388 827.5,-369 728.5,-369"/>
<text text-anchor="middle" x="778" y="-376" font-family="Helvetica,sans-Serif" font-size="10.00">Ogre::GLSLShader</text>
</a>
</g>
</g>
<!-- Node24&#45;&gt;Node28 -->
<g id="edge27" class="edge"><title>Node24&#45;&gt;Node28</title>
<path fill="none" stroke="midnightblue" d="M638.958,-405.06C667.553,-399.558 701.4,-393.046 728.422,-387.847"/>
<polygon fill="midnightblue" stroke="midnightblue" points="638.241,-401.634 629.083,-406.96 639.564,-408.508 638.241,-401.634"/>
</g>
<!-- Node29 -->
<g id="node29" class="node"><title>Node29</title>
<g id="a_node29"><a xlink:href="class_ogre_1_1_metal_program.html" target="_top" xlink:title="Specialisation of HighLevelGpuProgram to provide support for Metal Shader Language. ">
<polygon fill="none" stroke="black" points="726,-331 726,-350 830,-350 830,-331 726,-331"/>
<text text-anchor="middle" x="778" y="-338" font-family="Helvetica,sans-Serif" font-size="10.00">Ogre::MetalProgram</text>
</a>
</g>
</g>
<!-- Node24&#45;&gt;Node29 -->
<g id="edge28" class="edge"><title>Node24&#45;&gt;Node29</title>
<path fill="none" stroke="midnightblue" d="M604.112,-401.768C626.387,-388.992 660.442,-370.821 692,-359.5 702.675,-355.671 714.39,-352.454 725.621,-349.82"/>
<polygon fill="midnightblue" stroke="midnightblue" points="602.213,-398.824 595.329,-406.878 605.733,-404.875 602.213,-398.824"/>
</g>
<!-- Node30 -->
<g id="node30" class="node"><title>Node30</title>
<g id="a_node30"><a xlink:href="class_ogre_1_1_unified_high_level_gpu_program.html" target="_top" xlink:title="Specialisation of HighLevelGpuProgram which just delegates its implementation to one other high level...">
<polygon fill="none" stroke="black" points="710,-281.5 710,-311.5 846,-311.5 846,-281.5 710,-281.5"/>
<text text-anchor="start" x="718" y="-299.5" font-family="Helvetica,sans-Serif" font-size="10.00">Ogre::UnifiedHighLevelGpu</text>
<text text-anchor="middle" x="778" y="-288.5" font-family="Helvetica,sans-Serif" font-size="10.00">Program</text>
</a>
</g>
</g>
<!-- Node24&#45;&gt;Node30 -->
<g id="edge29" class="edge"><title>Node24&#45;&gt;Node30</title>
<path fill="none" stroke="midnightblue" d="M595.059,-399.592C615.409,-378.436 653.076,-342.445 692,-321.5 699.044,-317.71 706.733,-314.428 714.515,-311.604"/>
<polygon fill="midnightblue" stroke="midnightblue" points="592.466,-397.24 588.141,-406.912 597.554,-402.049 592.466,-397.24"/>
</g>
<!-- Node34 -->
<g id="node34" class="node"><title>Node34</title>
<g id="a_node34"><a xlink:href="class_ogre_1_1_d3_d11_texture.html" target="_top" xlink:title="Ogre::D3D11Texture">
<polygon fill="none" stroke="black" points="525,-306 525,-325 632,-325 632,-306 525,-306"/>
<text text-anchor="middle" x="578.5" y="-313" font-family="Helvetica,sans-Serif" font-size="10.00">Ogre::D3D11Texture</text>
</a>
</g>
</g>
<!-- Node33&#45;&gt;Node34 -->
<g id="edge33" class="edge"><title>Node33&#45;&gt;Node34</title>
<path fill="none" stroke="midnightblue" d="M445.552,-249.526C452.332,-251.929 459.024,-254.882 465,-258.5 484.902,-270.548 480.903,-284.781 501,-296.5 508.329,-300.774 516.596,-304.092 524.915,-306.667"/>
<polygon fill="midnightblue" stroke="midnightblue" points="446.219,-246.066 435.629,-246.384 444.106,-252.739 446.219,-246.066"/>
</g>
<!-- Node37 -->
<g id="node37" class="node"><title>Node37</title>
<g id="a_node37"><a xlink:href="class_ogre_1_1_d3_d9_texture.html" target="_top" xlink:title="Ogre::D3D9Texture">
<polygon fill="none" stroke="black" points="527.5,-268 527.5,-287 629.5,-287 629.5,-268 527.5,-268"/>
<text text-anchor="middle" x="578.5" y="-275" font-family="Helvetica,sans-Serif" font-size="10.00">Ogre::D3D9Texture</text>
</a>
</g>
</g>
<!-- Node33&#45;&gt;Node37 -->
<g id="edge36" class="edge"><title>Node33&#45;&gt;Node37</title>
<path fill="none" stroke="midnightblue" d="M445.615,-249.58C472.583,-255.289 506.116,-262.388 532.62,-267.999"/>
<polygon fill="midnightblue" stroke="midnightblue" points="446.137,-246.113 435.629,-247.466 444.687,-252.961 446.137,-246.113"/>
</g>
<!-- Node38 -->
<g id="node38" class="node"><title>Node38</title>
<g id="a_node38"><a xlink:href="class_ogre_1_1_g_l3_plus_texture.html" target="_top" xlink:title="Ogre::GL3PlusTexture">
<polygon fill="none" stroke="red" points="521.5,-230 521.5,-249 635.5,-249 635.5,-230 521.5,-230"/>
<text text-anchor="middle" x="578.5" y="-237" font-family="Helvetica,sans-Serif" font-size="10.00">Ogre::GL3PlusTexture</text>
</a>
</g>
</g>
<!-- Node33&#45;&gt;Node38 -->
<g id="edge37" class="edge"><title>Node33&#45;&gt;Node38</title>
<path fill="none" stroke="midnightblue" d="M445.899,-239.5C469.051,-239.5 496.991,-239.5 521.16,-239.5"/>
<polygon fill="midnightblue" stroke="midnightblue" points="445.629,-236 435.629,-239.5 445.629,-243 445.629,-236"/>
</g>
<!-- Node40 -->
<g id="node40" class="node"><title>Node40</title>
<g id="a_node40"><a xlink:href="class_ogre_1_1_metal_texture.html" target="_top" xlink:title="Ogre::MetalTexture">
<polygon fill="none" stroke="red" points="528,-192 528,-211 629,-211 629,-192 528,-192"/>
<text text-anchor="middle" x="578.5" y="-199" font-family="Helvetica,sans-Serif" font-size="10.00">Ogre::MetalTexture</text>
</a>
</g>
</g>
<!-- Node33&#45;&gt;Node40 -->
<g id="edge39" class="edge"><title>Node33&#45;&gt;Node40</title>
<path fill="none" stroke="midnightblue" d="M445.615,-229.42C472.583,-223.711 506.116,-216.612 532.62,-211.001"/>
<polygon fill="midnightblue" stroke="midnightblue" points="444.687,-226.039 435.629,-231.534 446.137,-232.887 444.687,-226.039"/>
</g>
<!-- Node41 -->
<g id="node41" class="node"><title>Node41</title>
<g id="a_node41"><a xlink:href="class_ogre_1_1_n_u_l_l_texture.html" target="_top" xlink:title="Ogre::NULLTexture">
<polygon fill="none" stroke="black" points="527.5,-154 527.5,-173 629.5,-173 629.5,-154 527.5,-154"/>
<text text-anchor="middle" x="578.5" y="-161" font-family="Helvetica,sans-Serif" font-size="10.00">Ogre::NULLTexture</text>
</a>
</g>
</g>
<!-- Node33&#45;&gt;Node41 -->
<g id="edge40" class="edge"><title>Node33&#45;&gt;Node41</title>
<path fill="none" stroke="midnightblue" d="M420.968,-224.486C441.295,-211.769 472.134,-193.844 501,-182.5 510.425,-178.796 520.793,-175.646 530.772,-173.039"/>
<polygon fill="midnightblue" stroke="midnightblue" points="418.977,-221.605 412.412,-229.921 422.73,-227.513 418.977,-221.605"/>
</g>
<!-- Node35 -->
<g id="node35" class="node"><title>Node35</title>
<g id="a_node35"><a xlink:href="class_ogre_1_1_d3_d11_depth_texture.html" target="_top" xlink:title="Ogre::D3D11DepthTexture">
<polygon fill="none" stroke="black" points="711,-243 711,-262 845,-262 845,-243 711,-243"/>
<text text-anchor="middle" x="778" y="-250" font-family="Helvetica,sans-Serif" font-size="10.00">Ogre::D3D11DepthTexture</text>
</a>
</g>
</g>
<!-- Node34&#45;&gt;Node35 -->
<g id="edge34" class="edge"><title>Node34&#45;&gt;Node35</title>
<path fill="none" stroke="midnightblue" d="M639.149,-302.959C644.942,-301.068 650.649,-298.923 656,-296.5 673.745,-288.464 674.162,-279.326 692,-271.5 700.724,-267.673 710.301,-264.578 719.785,-262.088"/>
<polygon fill="midnightblue" stroke="midnightblue" points="637.93,-299.671 629.365,-305.908 639.95,-306.373 637.93,-299.671"/>
</g>
<!-- Node36 -->
<g id="node36" class="node"><title>Node36</title>
<g id="a_node36"><a xlink:href="class_ogre_1_1_d3_d11_null_texture.html" target="_top" xlink:title="Ogre::D3D11NullTexture">
<polygon fill="none" stroke="black" points="715.5,-205 715.5,-224 840.5,-224 840.5,-205 715.5,-205"/>
<text text-anchor="middle" x="778" y="-212" font-family="Helvetica,sans-Serif" font-size="10.00">Ogre::D3D11NullTexture</text>
</a>
</g>
</g>
<!-- Node34&#45;&gt;Node36 -->
<g id="edge35" class="edge"><title>Node34&#45;&gt;Node36</title>
<path fill="none" stroke="midnightblue" d="M641.656,-304.799C646.765,-302.536 651.634,-299.802 656,-296.5 681.721,-277.046 666.052,-252.65 692,-233.5 698.935,-228.382 706.996,-224.601 715.337,-221.816"/>
<polygon fill="midnightblue" stroke="midnightblue" points="640.355,-301.549 632.259,-308.384 642.85,-308.09 640.355,-301.549"/>
</g>
<!-- Node39 -->
<g id="node39" class="node"><title>Node39</title>
<g id="a_node39"><a xlink:href="class_ogre_1_1_g_l3_plus_depth_texture.html" target="_top" xlink:title="Ogre::GL3PlusDepthTexture">
<polygon fill="none" stroke="black" points="708,-167 708,-186 848,-186 848,-167 708,-167"/>
<text text-anchor="middle" x="778" y="-174" font-family="Helvetica,sans-Serif" font-size="10.00">Ogre::GL3PlusDepthTexture</text>
</a>
</g>
</g>
<!-- Node38&#45;&gt;Node39 -->
<g id="edge38" class="edge"><title>Node38&#45;&gt;Node39</title>
<path fill="none" stroke="midnightblue" d="M639.149,-226.959C644.942,-225.068 650.649,-222.923 656,-220.5 673.745,-212.464 674.162,-203.326 692,-195.5 700.724,-191.673 710.301,-188.578 719.785,-186.088"/>
<polygon fill="midnightblue" stroke="midnightblue" points="637.93,-223.671 629.365,-229.908 639.95,-230.373 637.93,-223.671"/>
</g>
<!-- Node43 -->
<g id="node43" class="node"><title>Node43</title>
<g id="a_node43"><a xlink:href="class_ogre_1_1v1_1_1_patch_mesh.html" target="_top" xlink:title="Patch specialisation of Mesh. ">
<polygon fill="none" stroke="black" points="523.5,-116 523.5,-135 633.5,-135 633.5,-116 523.5,-116"/>
<text text-anchor="middle" x="578.5" y="-123" font-family="Helvetica,sans-Serif" font-size="10.00">Ogre::v1::PatchMesh</text>
</a>
</g>
</g>
<!-- Node42&#45;&gt;Node43 -->
<g id="edge42" class="edge"><title>Node42&#45;&gt;Node43</title>
<path fill="none" stroke="midnightblue" d="M449.31,-152.638C475.529,-147.087 507.146,-140.394 532.419,-135.044"/>
<polygon fill="midnightblue" stroke="midnightblue" points="448.239,-149.287 439.181,-154.782 449.689,-156.135 448.239,-149.287"/>
</g>
<!-- Node45 -->
<g id="node45" class="node"><title>Node45</title>
<g id="a_node45"><a xlink:href="class_ogre_1_1v1_1_1_old_skeleton_instance.html" target="_top" xlink:title="A OldSkeletonInstance is a single instance of a Skeleton used by a world object. ">
<polygon fill="none" stroke="black" points="503,-78 503,-97 654,-97 654,-78 503,-78"/>
<text text-anchor="middle" x="578.5" y="-85" font-family="Helvetica,sans-Serif" font-size="10.00">Ogre::v1::OldSkeletonInstance</text>
</a>
</g>
</g>
<!-- Node44&#45;&gt;Node45 -->
<g id="edge44" class="edge"><title>Node44&#45;&gt;Node45</title>
<path fill="none" stroke="midnightblue" d="M456.177,-100.342C471.07,-98.7656 487.292,-97.0485 502.887,-95.3978"/>
<polygon fill="midnightblue" stroke="midnightblue" points="455.679,-96.8751 446.103,-101.408 456.416,-103.836 455.679,-96.8751"/>
</g>
<!-- Node47 -->
<g id="node47" class="node"><title>Node47</title>
<g id="a_node47"><a xlink:href="class_ogre_1_1v1_1_1_overlay_container.html" target="_top" xlink:title="A 2D element which contains other OverlayElement instances. ">
<polygon fill="none" stroke="black" points="329,-50 329,-69 465,-69 465,-50 329,-50"/>
<text text-anchor="middle" x="397" y="-57" font-family="Helvetica,sans-Serif" font-size="10.00">Ogre::v1::OverlayContainer</text>
</a>
</g>
</g>
<!-- Node46&#45;&gt;Node47 -->
<g id="edge46" class="edge"><title>Node46&#45;&gt;Node47</title>
<path fill="none" stroke="midnightblue" d="M293.369,-59.5C305.12,-59.5 317.213,-59.5 328.789,-59.5"/>
<polygon fill="midnightblue" stroke="midnightblue" points="293.151,-56.0001 283.151,-59.5 293.151,-63.0001 293.151,-56.0001"/>
</g>
<!-- Node49 -->
<g id="node49" class="node"><title>Node49</title>
<g id="a_node49"><a xlink:href="class_ogre_1_1v1_1_1_text_area_overlay_element.html" target="_top" xlink:title="This class implements an overlay element which contains simple unformatted text. ">
<polygon fill="none" stroke="black" points="330,-0.5 330,-30.5 464,-30.5 464,-0.5 330,-0.5"/>
<text text-anchor="start" x="338" y="-18.5" font-family="Helvetica,sans-Serif" font-size="10.00">Ogre::v1::TextAreaOverlay</text>
<text text-anchor="middle" x="397" y="-7.5" font-family="Helvetica,sans-Serif" font-size="10.00">Element</text>
</a>
</g>
</g>
<!-- Node46&#45;&gt;Node49 -->
<g id="edge48" class="edge"><title>Node46&#45;&gt;Node49</title>
<path fill="none" stroke="midnightblue" d="M267.378,-47.4739C288.373,-42.2547 313.19,-36.0856 335.396,-30.5654"/>
<polygon fill="midnightblue" stroke="midnightblue" points="266.267,-44.1435 257.406,-49.9527 267.955,-50.9368 266.267,-44.1435"/>
</g>
<!-- Node48 -->
<g id="node48" class="node"><title>Node48</title>
<g id="a_node48"><a xlink:href="class_ogre_1_1v1_1_1_panel_overlay_element.html" target="_top" xlink:title="OverlayElement representing a flat, single&#45;material (or transparent) panel which can contain other el...">
<polygon fill="none" stroke="red" points="501,-40 501,-59 656,-59 656,-40 501,-40"/>
<text text-anchor="middle" x="578.5" y="-47" font-family="Helvetica,sans-Serif" font-size="10.00">Ogre::v1::PanelOverlayElement</text>
</a>
</g>
</g>
<!-- Node47&#45;&gt;Node48 -->
<g id="edge47" class="edge"><title>Node47&#45;&gt;Node48</title>
<path fill="none" stroke="midnightblue" d="M475.314,-55.1928C483.77,-54.7217 492.376,-54.2423 500.824,-53.7716"/>
<polygon fill="midnightblue" stroke="midnightblue" points="474.884,-51.7112 465.094,-55.7621 475.274,-58.7004 474.884,-51.7112"/>
</g>
</g>
</svg>
