<?xml version="1.0" encoding="UTF-8" standalone="no"?>
<!DOCTYPE svg PUBLIC "-//W3C//DTD SVG 1.1//EN"
 "http://www.w3.org/Graphics/SVG/1.1/DTD/svg11.dtd">
<!-- Generated by graphviz version 2.40.1 (20161225.0304)
 -->
<!-- Title: Ogre::v1::OverlaySystem Pages: 1 -->
<svg width="256pt" height="84pt"
 viewBox="0.00 0.00 256.00 84.00" xmlns="http://www.w3.org/2000/svg" xmlns:xlink="http://www.w3.org/1999/xlink">
<g id="graph0" class="graph" transform="scale(1 1) rotate(0) translate(4 80)">
<title>Ogre::v1::OverlaySystem</title>
<!-- Node0 -->
<g id="node1" class="node">
<title>Node0</title>
<polygon fill="#bfbfbf" stroke="#000000" points="36,-.5 36,-19.5 175,-19.5 175,-.5 36,-.5"/>
<text text-anchor="middle" x="105.5" y="-7.5" font-family="Helvetica,sans-Serif" font-size="10.00" fill="#000000">Ogre::v1::OverlaySystem</text>
</g>
<!-- Node1 -->
<g id="node2" class="node">
<title>Node1</title>
<g id="a_node2"><a xlink:href="class_ogre_1_1_allocated_object.html" target="_top" xlink:title="Superclass for all objects that wish to use custom memory allocators when their new / delete operator...">
<polygon fill="none" stroke="#000000" points="0,-56.5 0,-75.5 79,-75.5 79,-56.5 0,-56.5"/>
<text text-anchor="middle" x="39.5" y="-63.5" font-family="Helvetica,sans-Serif" font-size="10.00" fill="#000000">OverlayAlloc</text>
</a>
</g>
</g>
<!-- Node1&#45;&gt;Node0 -->
<g id="edge1" class="edge">
<title>Node1&#45;&gt;Node0</title>
<path fill="none" stroke="#191970" d="M58.7755,-49.645C70.2538,-39.9058 84.4277,-27.8795 94.1354,-19.6427"/>
<polygon fill="#191970" stroke="#191970" points="56.357,-47.1069 50.9963,-56.2455 60.8859,-52.4445 56.357,-47.1069"/>
</g>
<!-- Node2 -->
<g id="node3" class="node">
<title>Node2</title>
<g id="a_node3"><a xlink:href="class_ogre_1_1_render_queue_listener.html" target="_top" xlink:title="Abstract interface which classes must implement if they wish to receive events from the render queue...">
<polygon fill="none" stroke="#000000" points="97,-56.5 97,-75.5 248,-75.5 248,-56.5 97,-56.5"/>
<text text-anchor="middle" x="172.5" y="-63.5" font-family="Helvetica,sans-Serif" font-size="10.00" fill="#000000">Ogre::RenderQueueListener</text>
</a>
</g>
</g>
<!-- Node2&#45;&gt;Node0 -->
<g id="edge2" class="edge">
<title>Node2&#45;&gt;Node0</title>
<path fill="none" stroke="#191970" d="M152.9324,-49.645C141.2802,-39.9058 126.8916,-27.8795 117.0368,-19.6427"/>
<polygon fill="#191970" stroke="#191970" points="150.9121,-52.5179 160.8295,-56.2455 155.4012,-47.1469 150.9121,-52.5179"/>
</g>
</g>
</svg>
