<?xml version="1.0" encoding="UTF-8" standalone="no"?>
<!DOCTYPE svg PUBLIC "-//W3C//DTD SVG 1.1//EN"
 "http://www.w3.org/Graphics/SVG/1.1/DTD/svg11.dtd">
<!-- Generated by graphviz version 2.40.1 (20161225.0304)
 -->
<!-- Title: Ogre::HlmsBufferManager Pages: 1 -->
<svg width="210pt" height="196pt"
 viewBox="0.00 0.00 210.00 196.00" xmlns="http://www.w3.org/2000/svg" xmlns:xlink="http://www.w3.org/1999/xlink">
<g id="graph0" class="graph" transform="scale(1 1) rotate(0) translate(4 192)">
<title>Ogre::HlmsBufferManager</title>
<!-- Node0 -->
<g id="node1" class="node">
<title>Node0</title>
<polygon fill="#bfbfbf" stroke="#000000" points="27.5,-56.5 27.5,-75.5 171.5,-75.5 171.5,-56.5 27.5,-56.5"/>
<text text-anchor="middle" x="99.5" y="-63.5" font-family="Helvetica,sans-Serif" font-size="10.00" fill="#000000">Ogre::HlmsBufferManager</text>
</g>
<!-- Node3 -->
<g id="node4" class="node">
<title>Node3</title>
<g id="a_node4"><a xlink:href="class_ogre_1_1_hlms_pbs.html" target="_top" xlink:title="Physically based shading implementation specfically designed for OpenGL 3+, D3D11 and other RenderSys...">
<polygon fill="none" stroke="#000000" points="0,-.5 0,-19.5 89,-19.5 89,-.5 0,-.5"/>
<text text-anchor="middle" x="44.5" y="-7.5" font-family="Helvetica,sans-Serif" font-size="10.00" fill="#000000">Ogre::HlmsPbs</text>
</a>
</g>
</g>
<!-- Node0&#45;&gt;Node3 -->
<g id="edge3" class="edge">
<title>Node0&#45;&gt;Node3</title>
<path fill="none" stroke="#191970" d="M82.8774,-49.0751C73.4145,-39.4402 61.9031,-27.7196 53.9705,-19.6427"/>
<polygon fill="#191970" stroke="#191970" points="80.4155,-51.5635 89.9197,-56.2455 85.4097,-46.6585 80.4155,-51.5635"/>
</g>
<!-- Node4 -->
<g id="node5" class="node">
<title>Node4</title>
<g id="a_node5"><a xlink:href="class_ogre_1_1_hlms_unlit.html" target="_top" xlink:title="Implementation without lighting or skeletal animation specfically designed for OpenGL 3+...">
<polygon fill="none" stroke="#000000" points="107,-.5 107,-19.5 202,-19.5 202,-.5 107,-.5"/>
<text text-anchor="middle" x="154.5" y="-7.5" font-family="Helvetica,sans-Serif" font-size="10.00" fill="#000000">Ogre::HlmsUnlit</text>
</a>
</g>
</g>
<!-- Node0&#45;&gt;Node4 -->
<g id="edge4" class="edge">
<title>Node0&#45;&gt;Node4</title>
<path fill="none" stroke="#191970" d="M116.1226,-49.0751C125.5855,-39.4402 137.0969,-27.7196 145.0295,-19.6427"/>
<polygon fill="#191970" stroke="#191970" points="113.5903,-46.6585 109.0803,-56.2455 118.5845,-51.5635 113.5903,-46.6585"/>
</g>
<!-- Node1 -->
<g id="node2" class="node">
<title>Node1</title>
<g id="a_node2"><a xlink:href="class_ogre_1_1_hlms.html" target="_top" xlink:title="HLMS stands for &quot;High Level Material System&quot;. ">
<polygon fill="none" stroke="#000000" points="64,-112.5 64,-131.5 135,-131.5 135,-112.5 64,-112.5"/>
<text text-anchor="middle" x="99.5" y="-119.5" font-family="Helvetica,sans-Serif" font-size="10.00" fill="#000000">Ogre::Hlms</text>
</a>
</g>
</g>
<!-- Node1&#45;&gt;Node0 -->
<g id="edge1" class="edge">
<title>Node1&#45;&gt;Node0</title>
<path fill="none" stroke="#191970" d="M99.5,-102.1575C99.5,-93.155 99.5,-82.9199 99.5,-75.6427"/>
<polygon fill="#191970" stroke="#191970" points="96.0001,-102.2455 99.5,-112.2455 103.0001,-102.2456 96.0001,-102.2455"/>
</g>
<!-- Node2 -->
<g id="node3" class="node">
<title>Node2</title>
<g id="a_node3"><a xlink:href="class_ogre_1_1_allocated_object.html" target="_top" xlink:title="Superclass for all objects that wish to use custom memory allocators when their new / delete operator...">
<polygon fill="none" stroke="#000000" points="66.5,-168.5 66.5,-187.5 132.5,-187.5 132.5,-168.5 66.5,-168.5"/>
<text text-anchor="middle" x="99.5" y="-175.5" font-family="Helvetica,sans-Serif" font-size="10.00" fill="#000000">HlmsAlloc</text>
</a>
</g>
</g>
<!-- Node2&#45;&gt;Node1 -->
<g id="edge2" class="edge">
<title>Node2&#45;&gt;Node1</title>
<path fill="none" stroke="#191970" d="M99.5,-158.1575C99.5,-149.155 99.5,-138.9199 99.5,-131.6427"/>
<polygon fill="#191970" stroke="#191970" points="96.0001,-158.2455 99.5,-168.2455 103.0001,-158.2456 96.0001,-158.2455"/>
</g>
</g>
</svg>
