<?xml version="1.0" encoding="UTF-8" standalone="no"?>
<!DOCTYPE svg PUBLIC "-//W3C//DTD SVG 1.1//EN"
 "http://www.w3.org/Graphics/SVG/1.1/DTD/svg11.dtd">
<!-- Generated by graphviz version 2.38.0 (20140413.2041)
 -->
<!-- Title: Ogre::Resource Pages: 1 -->
<svg width="951pt" height="857pt"
 viewBox="0.00 0.00 951.00 857.00" xmlns="http://www.w3.org/2000/svg" xmlns:xlink="http://www.w3.org/1999/xlink">
<g id="graph0" class="graph" transform="scale(1 1) rotate(0) translate(4 853)">
<title>Ogre::Resource</title>
<!-- Node1 -->
<g id="node1" class="node"><title>Node1</title>
<polygon fill="#bfbfbf" stroke="black" points="143,-190.5 143,-209.5 229,-209.5 229,-190.5 143,-190.5"/>
<text text-anchor="middle" x="186" y="-197.5" font-family="Helvetica,sans-Serif" font-size="10.00">Ogre::Resource</text>
</g>
<!-- Node4 -->
<g id="node4" class="node"><title>Node4</title>
<g id="a_node4"><a xlink:href="class_ogre_1_1_font.html" target="_top" xlink:title="Class representing a font in the system. ">
<polygon fill="none" stroke="black" points="282.5,-563.5 282.5,-582.5 345.5,-582.5 345.5,-563.5 282.5,-563.5"/>
<text text-anchor="middle" x="314" y="-570.5" font-family="Helvetica,sans-Serif" font-size="10.00">Ogre::Font</text>
</a>
</g>
</g>
<!-- Node1&#45;&gt;Node4 -->
<g id="edge3" class="edge"><title>Node1&#45;&gt;Node4</title>
<path fill="none" stroke="midnightblue" d="M188.935,-219.871C195.81,-286.75 221.031,-502.365 265,-554 269.532,-559.322 275.759,-563.165 282.226,-565.936"/>
<polygon fill="midnightblue" stroke="midnightblue" points="192.407,-219.418 187.926,-209.818 185.442,-220.117 192.407,-219.418"/>
</g>
<!-- Node5 -->
<g id="node5" class="node"><title>Node5</title>
<g id="a_node5"><a xlink:href="class_ogre_1_1_gpu_program.html" target="_top" xlink:title="Defines a program which runs on the GPU such as a vertex or fragment program. ">
<polygon fill="none" stroke="black" points="265,-525.5 265,-544.5 363,-544.5 363,-525.5 265,-525.5"/>
<text text-anchor="middle" x="314" y="-532.5" font-family="Helvetica,sans-Serif" font-size="10.00">Ogre::GpuProgram</text>
</a>
</g>
</g>
<!-- Node1&#45;&gt;Node5 -->
<g id="edge4" class="edge"><title>Node1&#45;&gt;Node5</title>
<path fill="none" stroke="midnightblue" d="M194.191,-219.12C217.737,-281.721 292.001,-479.169 309.35,-525.296"/>
<polygon fill="midnightblue" stroke="midnightblue" points="197.431,-217.792 190.635,-209.665 190.88,-220.257 197.431,-217.792"/>
</g>
<!-- Node28 -->
<g id="node28" class="node"><title>Node28</title>
<g id="a_node28"><a xlink:href="class_ogre_1_1_material.html" target="_top" xlink:title="Class encapsulates rendering properties of an object. ">
<polygon fill="none" stroke="black" points="275,-228.5 275,-247.5 353,-247.5 353,-228.5 275,-228.5"/>
<text text-anchor="middle" x="314" y="-235.5" font-family="Helvetica,sans-Serif" font-size="10.00">Ogre::Material</text>
</a>
</g>
</g>
<!-- Node1&#45;&gt;Node28 -->
<g id="edge27" class="edge"><title>Node1&#45;&gt;Node28</title>
<path fill="none" stroke="midnightblue" d="M228.564,-212.535C245.705,-217.705 265.25,-223.599 281.215,-228.414"/>
<polygon fill="midnightblue" stroke="midnightblue" points="229.38,-209.126 218.795,-209.589 227.359,-215.827 229.38,-209.126"/>
</g>
<!-- Node29 -->
<g id="node29" class="node"><title>Node29</title>
<g id="a_node29"><a xlink:href="class_ogre_1_1_mesh.html" target="_top" xlink:title="Resource holding data about 3D mesh. ">
<polygon fill="none" stroke="black" points="280,-190.5 280,-209.5 348,-209.5 348,-190.5 280,-190.5"/>
<text text-anchor="middle" x="314" y="-197.5" font-family="Helvetica,sans-Serif" font-size="10.00">Ogre::Mesh</text>
</a>
</g>
</g>
<!-- Node1&#45;&gt;Node29 -->
<g id="edge28" class="edge"><title>Node1&#45;&gt;Node29</title>
<path fill="none" stroke="midnightblue" d="M239.545,-200C253.162,-200 267.449,-200 279.765,-200"/>
<polygon fill="midnightblue" stroke="midnightblue" points="239.307,-196.5 229.307,-200 239.307,-203.5 239.307,-196.5"/>
</g>
<!-- Node30 -->
<g id="node30" class="node"><title>Node30</title>
<g id="a_node30"><a xlink:href="class_ogre_1_1_texture.html" target="_top" xlink:title="Abstract class representing a Texture resource. ">
<polygon fill="none" stroke="black" points="275.5,-152.5 275.5,-171.5 352.5,-171.5 352.5,-152.5 275.5,-152.5"/>
<text text-anchor="middle" x="314" y="-159.5" font-family="Helvetica,sans-Serif" font-size="10.00">Ogre::Texture</text>
</a>
</g>
</g>
<!-- Node1&#45;&gt;Node30 -->
<g id="edge29" class="edge"><title>Node1&#45;&gt;Node30</title>
<path fill="none" stroke="midnightblue" d="M228.564,-187.465C245.705,-182.295 265.25,-176.401 281.215,-171.586"/>
<polygon fill="midnightblue" stroke="midnightblue" points="227.359,-184.173 218.795,-190.411 229.38,-190.874 227.359,-184.173"/>
</g>
<!-- Node42 -->
<g id="node42" class="node"><title>Node42</title>
<g id="a_node42"><a xlink:href="class_ogre_1_1v1_1_1_mesh.html" target="_top" xlink:title="Resource holding data about 3D mesh. ">
<polygon fill="none" stroke="black" points="272,-95.5 272,-114.5 356,-114.5 356,-95.5 272,-95.5"/>
<text text-anchor="middle" x="314" y="-102.5" font-family="Helvetica,sans-Serif" font-size="10.00">Ogre::v1::Mesh</text>
</a>
</g>
</g>
<!-- Node1&#45;&gt;Node42 -->
<g id="edge41" class="edge"><title>Node1&#45;&gt;Node42</title>
<path fill="none" stroke="midnightblue" d="M208.201,-184.015C234.534,-164.161 278.621,-130.921 300.249,-114.614"/>
<polygon fill="midnightblue" stroke="midnightblue" points="205.887,-181.376 200.01,-190.191 210.102,-186.966 205.887,-181.376"/>
</g>
<!-- Node44 -->
<g id="node44" class="node"><title>Node44</title>
<g id="a_node44"><a xlink:href="class_ogre_1_1v1_1_1_skeleton.html" target="_top" xlink:title="A collection of OldBone objects used to animate a skinned mesh. ">
<polygon fill="none" stroke="black" points="265,-19.5 265,-38.5 363,-38.5 363,-19.5 265,-19.5"/>
<text text-anchor="middle" x="314" y="-26.5" font-family="Helvetica,sans-Serif" font-size="10.00">Ogre::v1::Skeleton</text>
</a>
</g>
</g>
<!-- Node1&#45;&gt;Node44 -->
<g id="edge43" class="edge"><title>Node1&#45;&gt;Node44</title>
<path fill="none" stroke="midnightblue" d="M198.749,-181.64C213.563,-158.777 240.111,-118.742 265,-86 277.996,-68.9031 294.321,-50.0119 304.192,-38.8421"/>
<polygon fill="midnightblue" stroke="midnightblue" points="195.634,-180.014 193.158,-190.315 201.517,-183.806 195.634,-180.014"/>
</g>
<!-- Node2 -->
<g id="node2" class="node"><title>Node2</title>
<g id="a_node2"><a xlink:href="class_ogre_1_1_string_interface.html" target="_top" xlink:title="Class defining the common interface which classes can use to present a reflection&#45;style, self&#45;defining parameter set to callers. ">
<polygon fill="none" stroke="black" points="0,-209.5 0,-228.5 107,-228.5 107,-209.5 0,-209.5"/>
<text text-anchor="middle" x="53.5" y="-216.5" font-family="Helvetica,sans-Serif" font-size="10.00">Ogre::StringInterface</text>
</a>
</g>
</g>
<!-- Node2&#45;&gt;Node1 -->
<g id="edge1" class="edge"><title>Node2&#45;&gt;Node1</title>
<path fill="none" stroke="midnightblue" d="M117.331,-209.852C126.011,-208.588 134.749,-207.316 142.929,-206.125"/>
<polygon fill="midnightblue" stroke="midnightblue" points="116.595,-206.422 107.203,-211.327 117.603,-213.349 116.595,-206.422"/>
</g>
<!-- Node3 -->
<g id="node3" class="node"><title>Node3</title>
<g id="a_node3"><a xlink:href="class_ogre_1_1_allocated_object.html" target="_top" xlink:title="Superclass for all objects that wish to use custom memory allocators when their new / delete operator...">
<polygon fill="none" stroke="black" points="13.5,-171.5 13.5,-190.5 93.5,-190.5 93.5,-171.5 13.5,-171.5"/>
<text text-anchor="middle" x="53.5" y="-178.5" font-family="Helvetica,sans-Serif" font-size="10.00">ResourceAlloc</text>
</a>
</g>
</g>
<!-- Node3&#45;&gt;Node1 -->
<g id="edge2" class="edge"><title>Node3&#45;&gt;Node1</title>
<path fill="none" stroke="midnightblue" d="M103.713,-188.165C116.542,-190.033 130.253,-192.029 142.69,-193.84"/>
<polygon fill="midnightblue" stroke="midnightblue" points="104.054,-184.678 93.6543,-186.701 103.046,-191.605 104.054,-184.678"/>
</g>
<!-- Node6 -->
<g id="node6" class="node"><title>Node6</title>
<g id="a_node6"><a xlink:href="class_ogre_1_1_d3_d11_gpu_program.html" target="_top" xlink:title="Direct3D implementation of a few things common to low&#45;level vertex &amp; fragment programs. ">
<polygon fill="none" stroke="black" points="410,-734.5 410,-753.5 539,-753.5 539,-734.5 410,-734.5"/>
<text text-anchor="middle" x="474.5" y="-741.5" font-family="Helvetica,sans-Serif" font-size="10.00">Ogre::D3D11GpuProgram</text>
</a>
</g>
</g>
<!-- Node5&#45;&gt;Node6 -->
<g id="edge5" class="edge"><title>Node5&#45;&gt;Node6</title>
<path fill="none" stroke="midnightblue" d="M357.679,-549.721C359.564,-551.033 361.352,-552.457 363,-554 390.279,-579.549 380.734,-597.392 399,-630 421.416,-670.017 452.642,-714.851 466.452,-734.221"/>
<polygon fill="midnightblue" stroke="midnightblue" points="359.337,-546.637 348.93,-544.652 355.828,-552.694 359.337,-546.637"/>
</g>
<!-- Node12 -->
<g id="node12" class="node"><title>Node12</title>
<g id="a_node12"><a xlink:href="class_ogre_1_1_d3_d9_gpu_program.html" target="_top" xlink:title="Direct3D implementation of a few things common to low&#45;level vertex &amp; fragment programs. ">
<polygon fill="none" stroke="black" points="412.5,-601.5 412.5,-620.5 536.5,-620.5 536.5,-601.5 412.5,-601.5"/>
<text text-anchor="middle" x="474.5" y="-608.5" font-family="Helvetica,sans-Serif" font-size="10.00">Ogre::D3D9GpuProgram</text>
</a>
</g>
</g>
<!-- Node5&#45;&gt;Node12 -->
<g id="edge11" class="edge"><title>Node5&#45;&gt;Node12</title>
<path fill="none" stroke="midnightblue" d="M354.251,-548.845C357.298,-550.425 360.253,-552.142 363,-554 382.271,-567.033 378.94,-580.218 399,-592 405.56,-595.853 412.893,-598.933 420.328,-601.392"/>
<polygon fill="midnightblue" stroke="midnightblue" points="355.5,-545.566 344.956,-544.521 352.547,-551.913 355.5,-545.566"/>
</g>
<!-- Node15 -->
<g id="node15" class="node"><title>Node15</title>
<g id="a_node15"><a xlink:href="class_ogre_1_1_g_l3_plus_gpu_program.html" target="_top" xlink:title="Generalised low&#45;level GL program, can be applied to multiple types (eg ARB and NV) ...">
<polygon fill="none" stroke="black" points="406.5,-563.5 406.5,-582.5 542.5,-582.5 542.5,-563.5 406.5,-563.5"/>
<text text-anchor="middle" x="474.5" y="-570.5" font-family="Helvetica,sans-Serif" font-size="10.00">Ogre::GL3PlusGpuProgram</text>
</a>
</g>
</g>
<!-- Node5&#45;&gt;Node15 -->
<g id="edge14" class="edge"><title>Node5&#45;&gt;Node15</title>
<path fill="none" stroke="midnightblue" d="M364.919,-546.968C387.13,-552.293 412.921,-558.476 433.791,-563.48"/>
<polygon fill="midnightblue" stroke="midnightblue" points="365.537,-543.517 354.996,-544.589 363.905,-550.324 365.537,-543.517"/>
</g>
<!-- Node17 -->
<g id="node17" class="node"><title>Node17</title>
<g id="a_node17"><a xlink:href="class_ogre_1_1_g_l_e_s2_gpu_program.html" target="_top" xlink:title="Generalised low&#45;level GL program, can be applied to multiple types (eg ARB and NV) ...">
<polygon fill="none" stroke="black" points="409.5,-525.5 409.5,-544.5 539.5,-544.5 539.5,-525.5 409.5,-525.5"/>
<text text-anchor="middle" x="474.5" y="-532.5" font-family="Helvetica,sans-Serif" font-size="10.00">Ogre::GLES2GpuProgram</text>
</a>
</g>
</g>
<!-- Node5&#45;&gt;Node17 -->
<g id="edge16" class="edge"><title>Node5&#45;&gt;Node17</title>
<path fill="none" stroke="midnightblue" d="M373.477,-535C385.147,-535 397.464,-535 409.314,-535"/>
<polygon fill="midnightblue" stroke="midnightblue" points="373.416,-531.5 363.416,-535 373.416,-538.5 373.416,-531.5"/>
</g>
<!-- Node19 -->
<g id="node19" class="node"><title>Node19</title>
<g id="a_node19"><a xlink:href="class_ogre_1_1_high_level_gpu_program.html" target="_top" xlink:title="Abstract base class representing a high&#45;level program (a vertex or fragment program). ">
<polygon fill="none" stroke="black" points="403.5,-411.5 403.5,-430.5 545.5,-430.5 545.5,-411.5 403.5,-411.5"/>
<text text-anchor="middle" x="474.5" y="-418.5" font-family="Helvetica,sans-Serif" font-size="10.00">Ogre::HighLevelGpuProgram</text>
</a>
</g>
</g>
<!-- Node5&#45;&gt;Node19 -->
<g id="edge18" class="edge"><title>Node5&#45;&gt;Node19</title>
<path fill="none" stroke="midnightblue" d="M336.37,-519.63C369.519,-495.787 432.385,-450.572 459.961,-430.738"/>
<polygon fill="midnightblue" stroke="midnightblue" points="334.316,-516.796 328.241,-525.477 338.403,-522.479 334.316,-516.796"/>
</g>
<!-- Node7 -->
<g id="node7" class="node"><title>Node7</title>
<g id="a_node7"><a xlink:href="class_ogre_1_1_d3_d11_gpu_domain_program.html" target="_top" xlink:title="Direct3D implementation of low&#45;level vertex programs. ">
<polygon fill="none" stroke="black" points="590.5,-829.5 590.5,-848.5 753.5,-848.5 753.5,-829.5 590.5,-829.5"/>
<text text-anchor="middle" x="672" y="-836.5" font-family="Helvetica,sans-Serif" font-size="10.00">Ogre::D3D11GpuDomainProgram</text>
</a>
</g>
</g>
<!-- Node6&#45;&gt;Node7 -->
<g id="edge6" class="edge"><title>Node6&#45;&gt;Node7</title>
<path fill="none" stroke="midnightblue" d="M494.023,-760.087C514.959,-777.434 550.735,-804.622 586,-820 594.871,-823.868 604.619,-826.99 614.251,-829.496"/>
<polygon fill="midnightblue" stroke="midnightblue" points="496.155,-757.307 486.255,-753.535 491.642,-762.658 496.155,-757.307"/>
</g>
<!-- Node8 -->
<g id="node8" class="node"><title>Node8</title>
<g id="a_node8"><a xlink:href="class_ogre_1_1_d3_d11_gpu_fragment_program.html" target="_top" xlink:title="Direct3D implementation of low&#45;level fragment programs. ">
<polygon fill="none" stroke="black" points="587,-791.5 587,-810.5 757,-810.5 757,-791.5 587,-791.5"/>
<text text-anchor="middle" x="672" y="-798.5" font-family="Helvetica,sans-Serif" font-size="10.00">Ogre::D3D11GpuFragmentProgram</text>
</a>
</g>
</g>
<!-- Node6&#45;&gt;Node8 -->
<g id="edge7" class="edge"><title>Node6&#45;&gt;Node8</title>
<path fill="none" stroke="midnightblue" d="M510.116,-757.015C531.74,-764.866 560.268,-774.724 586,-782 598.223,-785.456 611.576,-788.69 624.001,-791.475"/>
<polygon fill="midnightblue" stroke="midnightblue" points="511.295,-753.719 500.702,-753.565 508.887,-760.292 511.295,-753.719"/>
</g>
<!-- Node9 -->
<g id="node9" class="node"><title>Node9</title>
<g id="a_node9"><a xlink:href="class_ogre_1_1_d3_d11_gpu_geometry_program.html" target="_top" xlink:title="Direct3D implementation of low&#45;level geometry programs. ">
<polygon fill="none" stroke="black" points="586,-753.5 586,-772.5 758,-772.5 758,-753.5 586,-753.5"/>
<text text-anchor="middle" x="672" y="-760.5" font-family="Helvetica,sans-Serif" font-size="10.00">Ogre::D3D11GpuGeometryProgram</text>
</a>
</g>
</g>
<!-- Node6&#45;&gt;Node9 -->
<g id="edge8" class="edge"><title>Node6&#45;&gt;Node9</title>
<path fill="none" stroke="midnightblue" d="M549.481,-751.19C561.296,-752.338 573.605,-753.535 585.658,-754.706"/>
<polygon fill="midnightblue" stroke="midnightblue" points="549.535,-747.679 539.243,-750.195 548.858,-754.646 549.535,-747.679"/>
</g>
<!-- Node10 -->
<g id="node10" class="node"><title>Node10</title>
<g id="a_node10"><a xlink:href="class_ogre_1_1_d3_d11_gpu_hull_program.html" target="_top" xlink:title="Direct3D implementation of low&#45;level vertex programs. ">
<polygon fill="none" stroke="black" points="599,-715.5 599,-734.5 745,-734.5 745,-715.5 599,-715.5"/>
<text text-anchor="middle" x="672" y="-722.5" font-family="Helvetica,sans-Serif" font-size="10.00">Ogre::D3D11GpuHullProgram</text>
</a>
</g>
</g>
<!-- Node6&#45;&gt;Node10 -->
<g id="edge9" class="edge"><title>Node6&#45;&gt;Node10</title>
<path fill="none" stroke="midnightblue" d="M549.225,-736.835C565.481,-735.255 582.681,-733.583 598.873,-732.01"/>
<polygon fill="midnightblue" stroke="midnightblue" points="548.858,-733.354 539.243,-737.805 549.535,-740.321 548.858,-733.354"/>
</g>
<!-- Node11 -->
<g id="node11" class="node"><title>Node11</title>
<g id="a_node11"><a xlink:href="class_ogre_1_1_d3_d11_gpu_vertex_program.html" target="_top" xlink:title="Direct3D implementation of low&#45;level vertex programs. ">
<polygon fill="none" stroke="black" points="593,-677.5 593,-696.5 751,-696.5 751,-677.5 593,-677.5"/>
<text text-anchor="middle" x="672" y="-684.5" font-family="Helvetica,sans-Serif" font-size="10.00">Ogre::D3D11GpuVertexProgram</text>
</a>
</g>
</g>
<!-- Node6&#45;&gt;Node11 -->
<g id="edge10" class="edge"><title>Node6&#45;&gt;Node11</title>
<path fill="none" stroke="midnightblue" d="M510.116,-730.985C531.74,-723.134 560.268,-713.276 586,-706 598.223,-702.544 611.576,-699.31 624.001,-696.525"/>
<polygon fill="midnightblue" stroke="midnightblue" points="508.887,-727.708 500.702,-734.435 511.295,-734.281 508.887,-727.708"/>
</g>
<!-- Node13 -->
<g id="node13" class="node"><title>Node13</title>
<g id="a_node13"><a xlink:href="class_ogre_1_1_d3_d9_gpu_fragment_program.html" target="_top" xlink:title="Direct3D implementation of low&#45;level fragment programs. ">
<polygon fill="none" stroke="black" points="589.5,-639.5 589.5,-658.5 754.5,-658.5 754.5,-639.5 589.5,-639.5"/>
<text text-anchor="middle" x="672" y="-646.5" font-family="Helvetica,sans-Serif" font-size="10.00">Ogre::D3D9GpuFragmentProgram</text>
</a>
</g>
</g>
<!-- Node12&#45;&gt;Node13 -->
<g id="edge12" class="edge"><title>Node12&#45;&gt;Node13</title>
<path fill="none" stroke="midnightblue" d="M534.61,-622.489C562.504,-627.911 595.402,-634.306 621.899,-639.456"/>
<polygon fill="midnightblue" stroke="midnightblue" points="535.065,-619.012 524.581,-620.54 533.729,-625.884 535.065,-619.012"/>
</g>
<!-- Node14 -->
<g id="node14" class="node"><title>Node14</title>
<g id="a_node14"><a xlink:href="class_ogre_1_1_d3_d9_gpu_vertex_program.html" target="_top" xlink:title="Direct3D implementation of low&#45;level vertex programs. ">
<polygon fill="none" stroke="black" points="596,-601.5 596,-620.5 748,-620.5 748,-601.5 596,-601.5"/>
<text text-anchor="middle" x="672" y="-608.5" font-family="Helvetica,sans-Serif" font-size="10.00">Ogre::D3D9GpuVertexProgram</text>
</a>
</g>
</g>
<!-- Node12&#45;&gt;Node14 -->
<g id="edge13" class="edge"><title>Node12&#45;&gt;Node14</title>
<path fill="none" stroke="midnightblue" d="M546.885,-611C562.861,-611 579.851,-611 595.969,-611"/>
<polygon fill="midnightblue" stroke="midnightblue" points="546.553,-607.5 536.553,-611 546.553,-614.5 546.553,-607.5"/>
</g>
<!-- Node16 -->
<g id="node16" class="node"><title>Node16</title>
<g id="a_node16"><a xlink:href="class_ogre_1_1_g_l_s_l_gpu_program.html" target="_top" xlink:title="GLSL low level compiled shader object &#45; this class is used to get at the linked program object and pr...">
<polygon fill="none" stroke="black" points="610.5,-563.5 610.5,-582.5 733.5,-582.5 733.5,-563.5 610.5,-563.5"/>
<text text-anchor="middle" x="672" y="-570.5" font-family="Helvetica,sans-Serif" font-size="10.00">Ogre::GLSLGpuProgram</text>
</a>
</g>
</g>
<!-- Node15&#45;&gt;Node16 -->
<g id="edge15" class="edge"><title>Node15&#45;&gt;Node16</title>
<path fill="none" stroke="midnightblue" d="M552.702,-573C571.844,-573 592.087,-573 610.312,-573"/>
<polygon fill="midnightblue" stroke="midnightblue" points="552.507,-569.5 542.506,-573 552.506,-576.5 552.507,-569.5"/>
</g>
<!-- Node18 -->
<g id="node18" class="node"><title>Node18</title>
<g id="a_node18"><a xlink:href="class_ogre_1_1_g_l_s_l_e_s_gpu_program.html" target="_top" xlink:title="GLSL ES low level compiled shader object &#45; this class is used to get at the linked program object and...">
<polygon fill="none" stroke="black" points="603.5,-525.5 603.5,-544.5 740.5,-544.5 740.5,-525.5 603.5,-525.5"/>
<text text-anchor="middle" x="672" y="-532.5" font-family="Helvetica,sans-Serif" font-size="10.00">Ogre::GLSLESGpuProgram</text>
</a>
</g>
</g>
<!-- Node17&#45;&gt;Node18 -->
<g id="edge17" class="edge"><title>Node17&#45;&gt;Node18</title>
<path fill="none" stroke="midnightblue" d="M549.762,-535C567.413,-535 586.15,-535 603.48,-535"/>
<polygon fill="midnightblue" stroke="midnightblue" points="549.514,-531.5 539.514,-535 549.514,-538.5 549.514,-531.5"/>
</g>
<!-- Node20 -->
<g id="node20" class="node"><title>Node20</title>
<g id="a_node20"><a xlink:href="class_ogre_1_1_d3_d11_h_l_s_l_program.html" target="_top" xlink:title="Specialization of HighLevelGpuProgram to provide support for D3D11 High&#45;Level Shader Language (HLSL)...">
<polygon fill="none" stroke="black" points="604,-487.5 604,-506.5 740,-506.5 740,-487.5 604,-487.5"/>
<text text-anchor="middle" x="672" y="-494.5" font-family="Helvetica,sans-Serif" font-size="10.00">Ogre::D3D11HLSLProgram</text>
</a>
</g>
</g>
<!-- Node19&#45;&gt;Node20 -->
<g id="edge19" class="edge"><title>Node19&#45;&gt;Node20</title>
<path fill="none" stroke="midnightblue" d="M499.639,-435.754C521.493,-448.546 554.929,-466.726 586,-478 596.234,-481.714 607.435,-484.841 618.25,-487.419"/>
<polygon fill="midnightblue" stroke="midnightblue" points="501.407,-432.734 491.022,-430.638 497.834,-438.753 501.407,-432.734"/>
</g>
<!-- Node21 -->
<g id="node21" class="node"><title>Node21</title>
<g id="a_node21"><a xlink:href="class_ogre_1_1_d3_d9_h_l_s_l_program.html" target="_top" xlink:title="Specialisation of HighLevelGpuProgram to provide support for D3D9 High&#45;Level Shader Language (HLSL)...">
<polygon fill="none" stroke="black" points="606.5,-449.5 606.5,-468.5 737.5,-468.5 737.5,-449.5 606.5,-449.5"/>
<text text-anchor="middle" x="672" y="-456.5" font-family="Helvetica,sans-Serif" font-size="10.00">Ogre::D3D9HLSLProgram</text>
</a>
</g>
</g>
<!-- Node19&#45;&gt;Node21 -->
<g id="edge20" class="edge"><title>Node19&#45;&gt;Node21</title>
<path fill="none" stroke="midnightblue" d="M534.61,-432.489C562.504,-437.911 595.402,-444.306 621.899,-449.456"/>
<polygon fill="midnightblue" stroke="midnightblue" points="535.065,-429.012 524.581,-430.54 533.729,-435.884 535.065,-429.012"/>
</g>
<!-- Node22 -->
<g id="node22" class="node"><title>Node22</title>
<g id="a_node22"><a xlink:href="class_ogre_1_1_g_l_s_l_program.html" target="_top" xlink:title="C++ encapsulation of GLSL program object. ">
<polygon fill="none" stroke="black" points="619.5,-411.5 619.5,-430.5 724.5,-430.5 724.5,-411.5 619.5,-411.5"/>
<text text-anchor="middle" x="672" y="-418.5" font-family="Helvetica,sans-Serif" font-size="10.00">Ogre::GLSLProgram</text>
</a>
</g>
</g>
<!-- Node19&#45;&gt;Node22 -->
<g id="edge21" class="edge"><title>Node19&#45;&gt;Node22</title>
<path fill="none" stroke="midnightblue" d="M555.627,-421C577.105,-421 599.757,-421 619.249,-421"/>
<polygon fill="midnightblue" stroke="midnightblue" points="555.528,-417.5 545.528,-421 555.528,-424.5 555.528,-417.5"/>
</g>
<!-- Node25 -->
<g id="node25" class="node"><title>Node25</title>
<g id="a_node25"><a xlink:href="class_ogre_1_1_g_l_s_l_shader.html" target="_top" xlink:title="Specialisation of HighLevelGpuProgram to encapsulate shader objects obtained from compiled shaders wr...">
<polygon fill="none" stroke="black" points="622.5,-373.5 622.5,-392.5 721.5,-392.5 721.5,-373.5 622.5,-373.5"/>
<text text-anchor="middle" x="672" y="-380.5" font-family="Helvetica,sans-Serif" font-size="10.00">Ogre::GLSLShader</text>
</a>
</g>
</g>
<!-- Node19&#45;&gt;Node25 -->
<g id="edge24" class="edge"><title>Node19&#45;&gt;Node25</title>
<path fill="none" stroke="midnightblue" d="M534.649,-409.503C562.654,-404.06 595.696,-397.637 622.238,-392.478"/>
<polygon fill="midnightblue" stroke="midnightblue" points="533.729,-406.116 524.581,-411.46 535.065,-412.988 533.729,-406.116"/>
</g>
<!-- Node26 -->
<g id="node26" class="node"><title>Node26</title>
<g id="a_node26"><a xlink:href="class_ogre_1_1_metal_program.html" target="_top" xlink:title="Specialisation of HighLevelGpuProgram to provide support for Metal Shader Language. ">
<polygon fill="none" stroke="black" points="620,-335.5 620,-354.5 724,-354.5 724,-335.5 620,-335.5"/>
<text text-anchor="middle" x="672" y="-342.5" font-family="Helvetica,sans-Serif" font-size="10.00">Ogre::MetalProgram</text>
</a>
</g>
</g>
<!-- Node19&#45;&gt;Node26 -->
<g id="edge25" class="edge"><title>Node19&#45;&gt;Node26</title>
<path fill="none" stroke="midnightblue" d="M499.639,-406.246C521.493,-393.454 554.929,-375.274 586,-364 596.661,-360.132 608.371,-356.899 619.6,-354.262"/>
<polygon fill="midnightblue" stroke="midnightblue" points="497.834,-403.247 491.022,-411.362 501.407,-409.266 497.834,-403.247"/>
</g>
<!-- Node27 -->
<g id="node27" class="node"><title>Node27</title>
<g id="a_node27"><a xlink:href="class_ogre_1_1_unified_high_level_gpu_program.html" target="_top" xlink:title="Specialisation of HighLevelGpuProgram which just delegates its implementation to one other high level...">
<polygon fill="none" stroke="black" points="604,-286 604,-316 740,-316 740,-286 604,-286"/>
<text text-anchor="start" x="612" y="-304" font-family="Helvetica,sans-Serif" font-size="10.00">Ogre::UnifiedHighLevelGpu</text>
<text text-anchor="middle" x="672" y="-293" font-family="Helvetica,sans-Serif" font-size="10.00">Program</text>
</a>
</g>
</g>
<!-- Node19&#45;&gt;Node27 -->
<g id="edge26" class="edge"><title>Node19&#45;&gt;Node27</title>
<path fill="none" stroke="midnightblue" d="M490.985,-403.797C510.968,-382.589 547.739,-346.807 586,-326 593.027,-322.179 600.706,-318.878 608.483,-316.045"/>
<polygon fill="midnightblue" stroke="midnightblue" points="488.17,-401.685 483.95,-411.403 493.309,-406.438 488.17,-401.685"/>
</g>
<!-- Node23 -->
<g id="node23" class="node"><title>Node23</title>
<g id="a_node23"><a xlink:href="class_ogre_1_1_g_l_s_l_monolithic_program.html" target="_top" xlink:title="Model of OpenGL program object created using the glLinkProgram method of linking. ...">
<polygon fill="none" stroke="black" points="794,-430.5 794,-449.5 943,-449.5 943,-430.5 794,-430.5"/>
<text text-anchor="middle" x="868.5" y="-437.5" font-family="Helvetica,sans-Serif" font-size="10.00">Ogre::GLSLMonolithicProgram</text>
</a>
</g>
</g>
<!-- Node22&#45;&gt;Node23 -->
<g id="edge22" class="edge"><title>Node22&#45;&gt;Node23</title>
<path fill="none" stroke="midnightblue" d="M734.781,-427.035C753.501,-428.864 774.252,-430.891 793.678,-432.789"/>
<polygon fill="midnightblue" stroke="midnightblue" points="734.905,-423.531 724.612,-426.042 734.224,-430.498 734.905,-423.531"/>
</g>
<!-- Node24 -->
<g id="node24" class="node"><title>Node24</title>
<g id="a_node24"><a xlink:href="class_ogre_1_1_g_l_s_l_separable_program.html" target="_top" xlink:title="Specialisation of GLSLProgram to provide support for separable programs via the OpenGL program pipeli...">
<polygon fill="none" stroke="black" points="794,-392.5 794,-411.5 943,-411.5 943,-392.5 794,-392.5"/>
<text text-anchor="middle" x="868.5" y="-399.5" font-family="Helvetica,sans-Serif" font-size="10.00">Ogre::GLSLSeparableProgram</text>
</a>
</g>
</g>
<!-- Node22&#45;&gt;Node24 -->
<g id="edge23" class="edge"><title>Node22&#45;&gt;Node24</title>
<path fill="none" stroke="midnightblue" d="M734.781,-414.965C753.501,-413.136 774.252,-411.109 793.678,-409.211"/>
<polygon fill="midnightblue" stroke="midnightblue" points="734.224,-411.502 724.612,-415.958 734.905,-418.469 734.224,-411.502"/>
</g>
<!-- Node31 -->
<g id="node31" class="node"><title>Node31</title>
<g id="a_node31"><a xlink:href="class_ogre_1_1_d3_d11_texture.html" target="_top" xlink:title="Ogre::D3D11Texture">
<polygon fill="none" stroke="black" points="421,-228.5 421,-247.5 528,-247.5 528,-228.5 421,-228.5"/>
<text text-anchor="middle" x="474.5" y="-235.5" font-family="Helvetica,sans-Serif" font-size="10.00">Ogre::D3D11Texture</text>
</a>
</g>
</g>
<!-- Node30&#45;&gt;Node31 -->
<g id="edge30" class="edge"><title>Node30&#45;&gt;Node31</title>
<path fill="none" stroke="midnightblue" d="M354.251,-175.845C357.298,-177.425 360.253,-179.142 363,-181 382.271,-194.033 378.94,-207.218 399,-219 405.676,-222.921 413.15,-226.04 420.72,-228.52"/>
<polygon fill="midnightblue" stroke="midnightblue" points="355.5,-172.566 344.956,-171.521 352.547,-178.913 355.5,-172.566"/>
</g>
<!-- Node34 -->
<g id="node34" class="node"><title>Node34</title>
<g id="a_node34"><a xlink:href="class_ogre_1_1_d3_d9_texture.html" target="_top" xlink:title="Ogre::D3D9Texture">
<polygon fill="none" stroke="black" points="423.5,-190.5 423.5,-209.5 525.5,-209.5 525.5,-190.5 423.5,-190.5"/>
<text text-anchor="middle" x="474.5" y="-197.5" font-family="Helvetica,sans-Serif" font-size="10.00">Ogre::D3D9Texture</text>
</a>
</g>
</g>
<!-- Node30&#45;&gt;Node34 -->
<g id="edge33" class="edge"><title>Node30&#45;&gt;Node34</title>
<path fill="none" stroke="midnightblue" d="M362.353,-173.353C385.097,-178.806 412.049,-185.267 433.716,-190.462"/>
<polygon fill="midnightblue" stroke="midnightblue" points="363.103,-169.933 352.562,-171.005 361.471,-176.741 363.103,-169.933"/>
</g>
<!-- Node35 -->
<g id="node35" class="node"><title>Node35</title>
<g id="a_node35"><a xlink:href="class_ogre_1_1_g_l3_plus_texture.html" target="_top" xlink:title="Ogre::GL3PlusTexture">
<polygon fill="none" stroke="black" points="417.5,-152.5 417.5,-171.5 531.5,-171.5 531.5,-152.5 417.5,-152.5"/>
<text text-anchor="middle" x="474.5" y="-159.5" font-family="Helvetica,sans-Serif" font-size="10.00">Ogre::GL3PlusTexture</text>
</a>
</g>
</g>
<!-- Node30&#45;&gt;Node35 -->
<g id="edge34" class="edge"><title>Node30&#45;&gt;Node35</title>
<path fill="none" stroke="midnightblue" d="M362.895,-162C380.033,-162 399.502,-162 417.279,-162"/>
<polygon fill="midnightblue" stroke="midnightblue" points="362.562,-158.5 352.562,-162 362.562,-165.5 362.562,-158.5"/>
</g>
<!-- Node38 -->
<g id="node38" class="node"><title>Node38</title>
<g id="a_node38"><a xlink:href="class_ogre_1_1_metal_texture.html" target="_top" xlink:title="Ogre::MetalTexture">
<polygon fill="none" stroke="black" points="424,-114.5 424,-133.5 525,-133.5 525,-114.5 424,-114.5"/>
<text text-anchor="middle" x="474.5" y="-121.5" font-family="Helvetica,sans-Serif" font-size="10.00">Ogre::MetalTexture</text>
</a>
</g>
</g>
<!-- Node30&#45;&gt;Node38 -->
<g id="edge37" class="edge"><title>Node30&#45;&gt;Node38</title>
<path fill="none" stroke="midnightblue" d="M362.353,-150.647C385.097,-145.194 412.049,-138.733 433.716,-133.538"/>
<polygon fill="midnightblue" stroke="midnightblue" points="361.471,-147.259 352.562,-152.995 363.103,-154.067 361.471,-147.259"/>
</g>
<!-- Node41 -->
<g id="node41" class="node"><title>Node41</title>
<g id="a_node41"><a xlink:href="class_ogre_1_1_n_u_l_l_texture.html" target="_top" xlink:title="Ogre::NULLTexture">
<polygon fill="none" stroke="black" points="423.5,-76.5 423.5,-95.5 525.5,-95.5 525.5,-76.5 423.5,-76.5"/>
<text text-anchor="middle" x="474.5" y="-83.5" font-family="Helvetica,sans-Serif" font-size="10.00">Ogre::NULLTexture</text>
</a>
</g>
</g>
<!-- Node30&#45;&gt;Node41 -->
<g id="edge40" class="edge"><title>Node30&#45;&gt;Node41</title>
<path fill="none" stroke="midnightblue" d="M334.651,-145.753C350.969,-133.004 375.27,-115.681 399,-105 407.399,-101.22 416.682,-98.0968 425.763,-95.5517"/>
<polygon fill="midnightblue" stroke="midnightblue" points="332.09,-143.319 326.46,-152.294 336.458,-148.788 332.09,-143.319"/>
</g>
<!-- Node32 -->
<g id="node32" class="node"><title>Node32</title>
<g id="a_node32"><a xlink:href="class_ogre_1_1_d3_d11_depth_texture.html" target="_top" xlink:title="Ogre::D3D11DepthTexture">
<polygon fill="none" stroke="black" points="605,-247.5 605,-266.5 739,-266.5 739,-247.5 605,-247.5"/>
<text text-anchor="middle" x="672" y="-254.5" font-family="Helvetica,sans-Serif" font-size="10.00">Ogre::D3D11DepthTexture</text>
</a>
</g>
</g>
<!-- Node31&#45;&gt;Node32 -->
<g id="edge31" class="edge"><title>Node31&#45;&gt;Node32</title>
<path fill="none" stroke="midnightblue" d="M538.365,-244.11C559.638,-246.177 583.447,-248.491 604.959,-250.582"/>
<polygon fill="midnightblue" stroke="midnightblue" points="538.439,-240.6 528.148,-243.117 537.762,-247.568 538.439,-240.6"/>
</g>
<!-- Node33 -->
<g id="node33" class="node"><title>Node33</title>
<g id="a_node33"><a xlink:href="class_ogre_1_1_d3_d11_null_texture.html" target="_top" xlink:title="Ogre::D3D11NullTexture">
<polygon fill="none" stroke="black" points="609.5,-209.5 609.5,-228.5 734.5,-228.5 734.5,-209.5 609.5,-209.5"/>
<text text-anchor="middle" x="672" y="-216.5" font-family="Helvetica,sans-Serif" font-size="10.00">Ogre::D3D11NullTexture</text>
</a>
</g>
</g>
<!-- Node31&#45;&gt;Node33 -->
<g id="edge32" class="edge"><title>Node31&#45;&gt;Node33</title>
<path fill="none" stroke="midnightblue" d="M538.352,-231.892C561.049,-229.686 586.636,-227.199 609.239,-225.002"/>
<polygon fill="midnightblue" stroke="midnightblue" points="537.762,-228.432 528.148,-232.883 538.439,-235.4 537.762,-228.432"/>
</g>
<!-- Node36 -->
<g id="node36" class="node"><title>Node36</title>
<g id="a_node36"><a xlink:href="class_ogre_1_1_g_l3_plus_depth_texture.html" target="_top" xlink:title="Ogre::GL3PlusDepthTexture">
<polygon fill="none" stroke="black" points="602,-171.5 602,-190.5 742,-190.5 742,-171.5 602,-171.5"/>
<text text-anchor="middle" x="672" y="-178.5" font-family="Helvetica,sans-Serif" font-size="10.00">Ogre::GL3PlusDepthTexture</text>
</a>
</g>
</g>
<!-- Node35&#45;&gt;Node36 -->
<g id="edge35" class="edge"><title>Node35&#45;&gt;Node36</title>
<path fill="none" stroke="midnightblue" d="M541.478,-168.412C560.88,-170.298 582.154,-172.365 601.754,-174.27"/>
<polygon fill="midnightblue" stroke="midnightblue" points="541.814,-164.928 531.522,-167.445 541.137,-171.896 541.814,-164.928"/>
</g>
<!-- Node37 -->
<g id="node37" class="node"><title>Node37</title>
<g id="a_node37"><a xlink:href="class_ogre_1_1_g_l3_plus_null_texture.html" target="_top" xlink:title="Ogre::GL3PlusNullTexture">
<polygon fill="none" stroke="black" points="606.5,-133.5 606.5,-152.5 737.5,-152.5 737.5,-133.5 606.5,-133.5"/>
<text text-anchor="middle" x="672" y="-140.5" font-family="Helvetica,sans-Serif" font-size="10.00">Ogre::GL3PlusNullTexture</text>
</a>
</g>
</g>
<!-- Node35&#45;&gt;Node37 -->
<g id="edge36" class="edge"><title>Node35&#45;&gt;Node37</title>
<path fill="none" stroke="midnightblue" d="M541.589,-155.577C562.487,-153.546 585.551,-151.305 606.348,-149.283"/>
<polygon fill="midnightblue" stroke="midnightblue" points="541.137,-152.104 531.522,-156.555 541.814,-159.072 541.137,-152.104"/>
</g>
<!-- Node39 -->
<g id="node39" class="node"><title>Node39</title>
<g id="a_node39"><a xlink:href="class_ogre_1_1_metal_depth_texture.html" target="_top" xlink:title="Ogre::MetalDepthTexture">
<polygon fill="none" stroke="black" points="608.5,-95.5 608.5,-114.5 735.5,-114.5 735.5,-95.5 608.5,-95.5"/>
<text text-anchor="middle" x="672" y="-102.5" font-family="Helvetica,sans-Serif" font-size="10.00">Ogre::MetalDepthTexture</text>
</a>
</g>
</g>
<!-- Node38&#45;&gt;Node39 -->
<g id="edge38" class="edge"><title>Node38&#45;&gt;Node39</title>
<path fill="none" stroke="midnightblue" d="M535.151,-118.203C558.374,-115.946 584.998,-113.358 608.487,-111.075"/>
<polygon fill="midnightblue" stroke="midnightblue" points="534.7,-114.73 525.086,-119.181 535.377,-121.697 534.7,-114.73"/>
</g>
<!-- Node40 -->
<g id="node40" class="node"><title>Node40</title>
<g id="a_node40"><a xlink:href="class_ogre_1_1_metal_null_texture.html" target="_top" xlink:title="Ogre::MetalNullTexture">
<polygon fill="none" stroke="black" points="613,-57.5 613,-76.5 731,-76.5 731,-57.5 613,-57.5"/>
<text text-anchor="middle" x="672" y="-64.5" font-family="Helvetica,sans-Serif" font-size="10.00">Ogre::MetalNullTexture</text>
</a>
</g>
</g>
<!-- Node38&#45;&gt;Node40 -->
<g id="edge39" class="edge"><title>Node38&#45;&gt;Node40</title>
<path fill="none" stroke="midnightblue" d="M530.062,-111.676C536.853,-109.678 543.64,-107.45 550,-105 566.883,-98.4972 569.022,-92.2506 586,-86 596.217,-82.2385 607.41,-79.0899 618.223,-76.507"/>
<polygon fill="midnightblue" stroke="midnightblue" points="528.853,-108.38 520.16,-114.437 530.733,-115.123 528.853,-108.38"/>
</g>
<!-- Node43 -->
<g id="node43" class="node"><title>Node43</title>
<g id="a_node43"><a xlink:href="class_ogre_1_1v1_1_1_patch_mesh.html" target="_top" xlink:title="Patch specialisation of Mesh. ">
<polygon fill="none" stroke="black" points="419.5,-38.5 419.5,-57.5 529.5,-57.5 529.5,-38.5 419.5,-38.5"/>
<text text-anchor="middle" x="474.5" y="-45.5" font-family="Helvetica,sans-Serif" font-size="10.00">Ogre::v1::PatchMesh</text>
</a>
</g>
</g>
<!-- Node42&#45;&gt;Node43 -->
<g id="edge42" class="edge"><title>Node42&#45;&gt;Node43</title>
<path fill="none" stroke="midnightblue" d="M342.993,-90.847C359.092,-83.0875 379.862,-73.711 399,-67 409.077,-63.4664 420.131,-60.2858 430.568,-57.5827"/>
<polygon fill="midnightblue" stroke="midnightblue" points="341.071,-87.8907 333.629,-95.4312 344.149,-94.1777 341.071,-87.8907"/>
</g>
<!-- Node45 -->
<g id="node45" class="node"><title>Node45</title>
<g id="a_node45"><a xlink:href="class_ogre_1_1v1_1_1_old_skeleton_instance.html" target="_top" xlink:title="A OldSkeletonInstance is a single instance of a Skeleton used by a world object. ">
<polygon fill="none" stroke="black" points="399,-0.5 399,-19.5 550,-19.5 550,-0.5 399,-0.5"/>
<text text-anchor="middle" x="474.5" y="-7.5" font-family="Helvetica,sans-Serif" font-size="10.00">Ogre::v1::OldSkeletonInstance</text>
</a>
</g>
</g>
<!-- Node44&#45;&gt;Node45 -->
<g id="edge44" class="edge"><title>Node44&#45;&gt;Node45</title>
<path fill="none" stroke="midnightblue" d="M373.618,-21.9733C381.828,-20.989 390.356,-19.9667 398.815,-18.9528"/>
<polygon fill="midnightblue" stroke="midnightblue" points="372.929,-18.5307 363.416,-23.1961 373.762,-25.481 372.929,-18.5307"/>
</g>
</g>
</svg>
