<?xml version="1.0" encoding="UTF-8" standalone="no"?>
<!DOCTYPE svg PUBLIC "-//W3C//DTD SVG 1.1//EN"
 "http://www.w3.org/Graphics/SVG/1.1/DTD/svg11.dtd">
<!-- Generated by graphviz version 2.40.1 (20161225.0304)
 -->
<!-- Title: Ogre::GpuProgramManager Pages: 1 -->
<svg width="724pt" height="218pt"
 viewBox="0.00 0.00 724.00 218.00" xmlns="http://www.w3.org/2000/svg" xmlns:xlink="http://www.w3.org/1999/xlink">
<g id="graph0" class="graph" transform="scale(1 1) rotate(0) translate(4 214)">
<title>Ogre::GpuProgramManager</title>
<!-- Node0 -->
<g id="node1" class="node">
<title>Node0</title>
<polygon fill="#bfbfbf" stroke="#000000" points="343,-95.5 343,-114.5 492,-114.5 492,-95.5 343,-95.5"/>
<text text-anchor="middle" x="417.5" y="-102.5" font-family="Helvetica,sans-Serif" font-size="10.00" fill="#000000">Ogre::GpuProgramManager</text>
</g>
<!-- Node5 -->
<g id="node6" class="node">
<title>Node5</title>
<g id="a_node6"><a xlink:href="class_ogre_1_1_d3_d11_gpu_program_manager.html" target="_top" xlink:title="Ogre::D3D11GpuProgramManager">
<polygon fill="none" stroke="#000000" points="531,-190.5 531,-209.5 713,-209.5 713,-190.5 531,-190.5"/>
<text text-anchor="middle" x="622" y="-197.5" font-family="Helvetica,sans-Serif" font-size="10.00" fill="#000000">Ogre::D3D11GpuProgramManager</text>
</a>
</g>
</g>
<!-- Node0&#45;&gt;Node5 -->
<g id="edge5" class="edge">
<title>Node0&#45;&gt;Node5</title>
<path fill="none" stroke="#191970" d="M435.9641,-121.2239C456.8483,-138.6905 492.5791,-165.9842 528,-181 537.1974,-184.899 547.2471,-188.014 557.2443,-190.4984"/>
<polygon fill="#191970" stroke="#191970" points="438.0984,-118.4442 428.2171,-114.6219 433.558,-123.772 438.0984,-118.4442"/>
</g>
<!-- Node6 -->
<g id="node7" class="node">
<title>Node6</title>
<g id="a_node7"><a xlink:href="class_ogre_1_1_d3_d9_gpu_program_manager.html" target="_top" xlink:title="Ogre::D3D9GpuProgramManager">
<polygon fill="none" stroke="#000000" points="534,-152.5 534,-171.5 710,-171.5 710,-152.5 534,-152.5"/>
<text text-anchor="middle" x="622" y="-159.5" font-family="Helvetica,sans-Serif" font-size="10.00" fill="#000000">Ogre::D3D9GpuProgramManager</text>
</a>
</g>
</g>
<!-- Node0&#45;&gt;Node6 -->
<g id="edge6" class="edge">
<title>Node0&#45;&gt;Node6</title>
<path fill="none" stroke="#191970" d="M451.639,-118.0448C473.2933,-125.9925 502.0256,-135.9418 528,-143 541.0141,-146.5364 555.2034,-149.7371 568.5212,-152.4605"/>
<polygon fill="#191970" stroke="#191970" points="452.8161,-114.7485 442.2231,-114.5516 450.3813,-121.3114 452.8161,-114.7485"/>
</g>
<!-- Node7 -->
<g id="node8" class="node">
<title>Node7</title>
<g id="a_node8"><a xlink:href="class_ogre_1_1_g_l3_plus_gpu_program_manager.html" target="_top" xlink:title="Ogre::GL3PlusGpuProgramManager">
<polygon fill="none" stroke="#000000" points="528,-114.5 528,-133.5 716,-133.5 716,-114.5 528,-114.5"/>
<text text-anchor="middle" x="622" y="-121.5" font-family="Helvetica,sans-Serif" font-size="10.00" fill="#000000">Ogre::GL3PlusGpuProgramManager</text>
</a>
</g>
</g>
<!-- Node0&#45;&gt;Node7 -->
<g id="edge7" class="edge">
<title>Node0&#45;&gt;Node7</title>
<path fill="none" stroke="#191970" d="M502.4025,-112.8882C510.8483,-113.6729 519.4567,-114.4728 527.9882,-115.2654"/>
<polygon fill="#191970" stroke="#191970" points="502.4782,-109.3803 492.1973,-111.9401 501.8306,-116.3503 502.4782,-109.3803"/>
</g>
<!-- Node8 -->
<g id="node9" class="node">
<title>Node8</title>
<g id="a_node9"><a xlink:href="class_ogre_1_1_g_l_e_s2_gpu_program_manager.html" target="_top" xlink:title="Ogre::GLES2GpuProgramManager">
<polygon fill="none" stroke="#000000" points="532,-76.5 532,-95.5 712,-95.5 712,-76.5 532,-76.5"/>
<text text-anchor="middle" x="622" y="-83.5" font-family="Helvetica,sans-Serif" font-size="10.00" fill="#000000">Ogre::GLES2GpuProgramManager</text>
</a>
</g>
</g>
<!-- Node0&#45;&gt;Node8 -->
<g id="edge8" class="edge">
<title>Node0&#45;&gt;Node8</title>
<path fill="none" stroke="#191970" d="M502.2797,-97.1232C512.0457,-96.2158 522.0309,-95.2881 531.8645,-94.3745"/>
<polygon fill="#191970" stroke="#191970" points="501.8306,-93.6497 492.1973,-98.0599 502.4782,-100.6197 501.8306,-93.6497"/>
</g>
<!-- Node9 -->
<g id="node10" class="node">
<title>Node9</title>
<g id="a_node10"><a xlink:href="class_ogre_1_1_g_l_s_l_shader_manager.html" target="_top" xlink:title="Ogre::GLSLShaderManager">
<polygon fill="none" stroke="#000000" points="549,-38.5 549,-57.5 695,-57.5 695,-38.5 549,-38.5"/>
<text text-anchor="middle" x="622" y="-45.5" font-family="Helvetica,sans-Serif" font-size="10.00" fill="#000000">Ogre::GLSLShaderManager</text>
</a>
</g>
</g>
<!-- Node0&#45;&gt;Node9 -->
<g id="edge9" class="edge">
<title>Node0&#45;&gt;Node9</title>
<path fill="none" stroke="#191970" d="M451.639,-91.9552C473.2933,-84.0075 502.0256,-74.0582 528,-67 541.0141,-63.4636 555.2034,-60.2629 568.5212,-57.5395"/>
<polygon fill="#191970" stroke="#191970" points="450.3813,-88.6886 442.2231,-95.4484 452.8161,-95.2515 450.3813,-88.6886"/>
</g>
<!-- Node10 -->
<g id="node11" class="node">
<title>Node10</title>
<g id="a_node11"><a xlink:href="class_ogre_1_1_metal_gpu_program_manager.html" target="_top" xlink:title="Ogre::MetalGpuProgramManager">
<polygon fill="none" stroke="#000000" points="533.5,-.5 533.5,-19.5 710.5,-19.5 710.5,-.5 533.5,-.5"/>
<text text-anchor="middle" x="622" y="-7.5" font-family="Helvetica,sans-Serif" font-size="10.00" fill="#000000">Ogre::MetalGpuProgramManager</text>
</a>
</g>
</g>
<!-- Node0&#45;&gt;Node10 -->
<g id="edge10" class="edge">
<title>Node0&#45;&gt;Node10</title>
<path fill="none" stroke="#191970" d="M435.9641,-88.7761C456.8483,-71.3095 492.5791,-44.0158 528,-29 537.1974,-25.101 547.2471,-21.986 557.2443,-19.5016"/>
<polygon fill="#191970" stroke="#191970" points="433.558,-86.228 428.2171,-95.3781 438.0984,-91.5558 433.558,-86.228"/>
</g>
<!-- Node1 -->
<g id="node2" class="node">
<title>Node1</title>
<g id="a_node2"><a xlink:href="class_ogre_1_1_resource_manager.html" target="_top" xlink:title="Defines a generic resource handler. ">
<polygon fill="none" stroke="#000000" points="158,-117.5 158,-136.5 292,-136.5 292,-117.5 158,-117.5"/>
<text text-anchor="middle" x="225" y="-124.5" font-family="Helvetica,sans-Serif" font-size="10.00" fill="#000000">Ogre::ResourceManager</text>
</a>
</g>
</g>
<!-- Node1&#45;&gt;Node0 -->
<g id="edge1" class="edge">
<title>Node1&#45;&gt;Node0</title>
<path fill="none" stroke="#191970" d="M302.1774,-118.1797C315.5663,-116.6496 329.4682,-115.0608 342.7898,-113.5383"/>
<polygon fill="#191970" stroke="#191970" points="301.5948,-114.7234 292.0569,-119.3364 302.3897,-121.6782 301.5948,-114.7234"/>
</g>
<!-- Node2 -->
<g id="node3" class="node">
<title>Node2</title>
<g id="a_node3"><a xlink:href="class_ogre_1_1_script_loader.html" target="_top" xlink:title="Abstract class defining the interface used by classes which wish to perform script loading to define ...">
<polygon fill="none" stroke="#000000" points="0,-136.5 0,-155.5 107,-155.5 107,-136.5 0,-136.5"/>
<text text-anchor="middle" x="53.5" y="-143.5" font-family="Helvetica,sans-Serif" font-size="10.00" fill="#000000">Ogre::ScriptLoader</text>
</a>
</g>
</g>
<!-- Node2&#45;&gt;Node1 -->
<g id="edge2" class="edge">
<title>Node2&#45;&gt;Node1</title>
<path fill="none" stroke="#191970" d="M117.2423,-138.9382C130.4738,-137.4723 144.4551,-135.9233 157.806,-134.4442"/>
<polygon fill="#191970" stroke="#191970" points="116.8469,-135.4605 107.2931,-140.0404 117.6177,-142.4179 116.8469,-135.4605"/>
</g>
<!-- Node3 -->
<g id="node4" class="node">
<title>Node3</title>
<g id="a_node4"><a xlink:href="class_ogre_1_1_allocated_object.html" target="_top" xlink:title="Superclass for all objects that wish to use custom memory allocators when their new / delete operator...">
<polygon fill="none" stroke="#000000" points="10.5,-98.5 10.5,-117.5 96.5,-117.5 96.5,-98.5 10.5,-98.5"/>
<text text-anchor="middle" x="53.5" y="-105.5" font-family="Helvetica,sans-Serif" font-size="10.00" fill="#000000">ResourceAlloc</text>
</a>
</g>
</g>
<!-- Node3&#45;&gt;Node1 -->
<g id="edge3" class="edge">
<title>Node3&#45;&gt;Node1</title>
<path fill="none" stroke="#191970" d="M107.0372,-113.9312C123.0808,-115.7087 140.8846,-117.6811 157.6955,-119.5435"/>
<polygon fill="#191970" stroke="#191970" points="107.1013,-110.417 96.7767,-112.7945 106.3305,-117.3744 107.1013,-110.417"/>
</g>
<!-- Node4 -->
<g id="node5" class="node">
<title>Node4</title>
<g id="a_node5"><a xlink:href="class_ogre_1_1_singleton.html" target="_top" xlink:title="Ogre::Singleton\&lt; GpuProgram\lManager \&gt;">
<polygon fill="none" stroke="#000000" points="143,-68 143,-98 307,-98 307,-68 143,-68"/>
<text text-anchor="start" x="151" y="-86" font-family="Helvetica,sans-Serif" font-size="10.00" fill="#000000">Ogre::Singleton&lt; GpuProgram</text>
<text text-anchor="middle" x="225" y="-75" font-family="Helvetica,sans-Serif" font-size="10.00" fill="#000000">Manager &gt;</text>
</a>
</g>
</g>
<!-- Node4&#45;&gt;Node0 -->
<g id="edge4" class="edge">
<title>Node4&#45;&gt;Node0</title>
<path fill="none" stroke="#191970" d="M317.25,-93.5429C325.8454,-94.5252 334.4835,-95.5124 342.8894,-96.4731"/>
<polygon fill="#191970" stroke="#191970" points="317.5285,-90.052 307.1957,-92.3938 316.7336,-97.0067 317.5285,-90.052"/>
</g>
</g>
</svg>
