<?xml version="1.0" encoding="UTF-8" standalone="no"?>
<!DOCTYPE svg PUBLIC "-//W3C//DTD SVG 1.1//EN"
 "http://www.w3.org/Graphics/SVG/1.1/DTD/svg11.dtd">
<!-- Generated by graphviz version 2.40.1 (20161225.0304)
 -->
<!-- Title: Ogre::ForwardPlusBase Pages: 1 -->
<svg width="258pt" height="140pt"
 viewBox="0.00 0.00 257.50 140.00" xmlns="http://www.w3.org/2000/svg" xmlns:xlink="http://www.w3.org/1999/xlink">
<g id="graph0" class="graph" transform="scale(1 1) rotate(0) translate(4 136)">
<title>Ogre::ForwardPlusBase</title>
<!-- Node0 -->
<g id="node1" class="node">
<title>Node0</title>
<polygon fill="#bfbfbf" stroke="#000000" points="51.5,-56.5 51.5,-75.5 181.5,-75.5 181.5,-56.5 51.5,-56.5"/>
<text text-anchor="middle" x="116.5" y="-63.5" font-family="Helvetica,sans-Serif" font-size="10.00" fill="#000000">Ogre::ForwardPlusBase</text>
</g>
<!-- Node2 -->
<g id="node3" class="node">
<title>Node2</title>
<g id="a_node3"><a xlink:href="class_ogre_1_1_forward3_d.html" target="_top" xlink:title="Forward3D. ">
<polygon fill="none" stroke="#000000" points="0,-.5 0,-19.5 99,-19.5 99,-.5 0,-.5"/>
<text text-anchor="middle" x="49.5" y="-7.5" font-family="Helvetica,sans-Serif" font-size="10.00" fill="#000000">Ogre::Forward3D</text>
</a>
</g>
</g>
<!-- Node0&#45;&gt;Node2 -->
<g id="edge2" class="edge">
<title>Node0&#45;&gt;Node2</title>
<path fill="none" stroke="#191970" d="M96.9324,-49.645C85.2802,-39.9058 70.8916,-27.8795 61.0368,-19.6427"/>
<polygon fill="#191970" stroke="#191970" points="94.9121,-52.5179 104.8295,-56.2455 99.4012,-47.1469 94.9121,-52.5179"/>
</g>
<!-- Node3 -->
<g id="node4" class="node">
<title>Node3</title>
<g id="a_node4"><a xlink:href="class_ogre_1_1_forward_clustered.html" target="_top" xlink:title="Implementation of Clustered Forward Shading. ">
<polygon fill="none" stroke="#000000" points="117.5,-.5 117.5,-19.5 249.5,-19.5 249.5,-.5 117.5,-.5"/>
<text text-anchor="middle" x="183.5" y="-7.5" font-family="Helvetica,sans-Serif" font-size="10.00" fill="#000000">Ogre::ForwardClustered</text>
</a>
</g>
</g>
<!-- Node0&#45;&gt;Node3 -->
<g id="edge3" class="edge">
<title>Node0&#45;&gt;Node3</title>
<path fill="none" stroke="#191970" d="M136.0676,-49.645C147.7198,-39.9058 162.1084,-27.8795 171.9632,-19.6427"/>
<polygon fill="#191970" stroke="#191970" points="133.5988,-47.1469 128.1705,-56.2455 138.0879,-52.5179 133.5988,-47.1469"/>
</g>
<!-- Node1 -->
<g id="node2" class="node">
<title>Node1</title>
<g id="a_node2"><a xlink:href="class_ogre_1_1_allocated_object.html" target="_top" xlink:title="Superclass for all objects that wish to use custom memory allocators when their new / delete operator...">
<polygon fill="none" stroke="#000000" points="83.5,-112.5 83.5,-131.5 149.5,-131.5 149.5,-112.5 83.5,-112.5"/>
<text text-anchor="middle" x="116.5" y="-119.5" font-family="Helvetica,sans-Serif" font-size="10.00" fill="#000000">HlmsAlloc</text>
</a>
</g>
</g>
<!-- Node1&#45;&gt;Node0 -->
<g id="edge1" class="edge">
<title>Node1&#45;&gt;Node0</title>
<path fill="none" stroke="#191970" d="M116.5,-102.1575C116.5,-93.155 116.5,-82.9199 116.5,-75.6427"/>
<polygon fill="#191970" stroke="#191970" points="113.0001,-102.2455 116.5,-112.2455 120.0001,-102.2456 113.0001,-102.2455"/>
</g>
</g>
</svg>
