<?xml version="1.0" encoding="UTF-8" standalone="no"?>
<!DOCTYPE svg PUBLIC "-//W3C//DTD SVG 1.1//EN"
 "http://www.w3.org/Graphics/SVG/1.1/DTD/svg11.dtd">
<!-- Generated by graphviz version 2.38.0 (20140413.2041)
 -->
<!-- Title: Ogre::EGLSupport Pages: 1 -->
<svg width="432pt" height="142pt"
 viewBox="0.00 0.00 432.00 142.00" xmlns="http://www.w3.org/2000/svg" xmlns:xlink="http://www.w3.org/1999/xlink">
<g id="graph0" class="graph" transform="scale(1 1) rotate(0) translate(4 138)">
<title>Ogre::EGLSupport</title>
<!-- Node1 -->
<g id="node1" class="node"><title>Node1</title>
<polygon fill="#bfbfbf" stroke="black" points="145,-57.5 145,-76.5 242,-76.5 242,-57.5 145,-57.5"/>
<text text-anchor="middle" x="193.5" y="-64.5" font-family="Helvetica,sans-Serif" font-size="10.00">Ogre::EGLSupport</text>
</g>
<!-- Node3 -->
<g id="node3" class="node"><title>Node3</title>
<g id="a_node3"><a xlink:href="class_ogre_1_1_android_e_g_l_support.html" target="_top" xlink:title="Ogre::AndroidEGLSupport">
<polygon fill="none" stroke="black" points="286,-114.5 286,-133.5 416,-133.5 416,-114.5 286,-114.5"/>
<text text-anchor="middle" x="351" y="-121.5" font-family="Helvetica,sans-Serif" font-size="10.00">Ogre::AndroidEGLSupport</text>
</a>
</g>
</g>
<!-- Node1&#45;&gt;Node3 -->
<g id="edge2" class="edge"><title>Node1&#45;&gt;Node3</title>
<path fill="none" stroke="midnightblue" d="M222.338,-81.1016C238.346,-88.8447 258.992,-98.2218 278,-105 287.863,-108.517 298.693,-111.711 308.89,-114.434"/>
<polygon fill="midnightblue" stroke="midnightblue" points="223.546,-77.7955 213.027,-76.5294 220.461,-84.0789 223.546,-77.7955"/>
</g>
<!-- Node4 -->
<g id="node4" class="node"><title>Node4</title>
<g id="a_node4"><a xlink:href="class_ogre_1_1_emscripten_e_g_l_support.html" target="_top" xlink:title="Ogre::EmscriptenEGLSupport">
<polygon fill="none" stroke="black" points="278,-76.5 278,-95.5 424,-95.5 424,-76.5 278,-76.5"/>
<text text-anchor="middle" x="351" y="-83.5" font-family="Helvetica,sans-Serif" font-size="10.00">Ogre::EmscriptenEGLSupport</text>
</a>
</g>
</g>
<!-- Node1&#45;&gt;Node4 -->
<g id="edge3" class="edge"><title>Node1&#45;&gt;Node4</title>
<path fill="none" stroke="midnightblue" d="M252.063,-74.0334C260.474,-75.0611 269.224,-76.1302 277.88,-77.1879"/>
<polygon fill="midnightblue" stroke="midnightblue" points="252.351,-70.5426 242,-72.8039 251.502,-77.491 252.351,-70.5426"/>
</g>
<!-- Node5 -->
<g id="node5" class="node"><title>Node5</title>
<g id="a_node5"><a xlink:href="class_ogre_1_1_win32_e_g_l_support.html" target="_top" xlink:title="Ogre::Win32EGLSupport">
<polygon fill="none" stroke="black" points="288.5,-38.5 288.5,-57.5 413.5,-57.5 413.5,-38.5 288.5,-38.5"/>
<text text-anchor="middle" x="351" y="-45.5" font-family="Helvetica,sans-Serif" font-size="10.00">Ogre::Win32EGLSupport</text>
</a>
</g>
</g>
<!-- Node1&#45;&gt;Node5 -->
<g id="edge4" class="edge"><title>Node1&#45;&gt;Node5</title>
<path fill="none" stroke="midnightblue" d="M252.187,-59.9514C264.008,-58.507 276.494,-56.9815 288.445,-55.5212"/>
<polygon fill="midnightblue" stroke="midnightblue" points="251.502,-56.509 242,-61.1961 252.351,-63.4574 251.502,-56.509"/>
</g>
<!-- Node6 -->
<g id="node6" class="node"><title>Node6</title>
<g id="a_node6"><a xlink:href="class_ogre_1_1_x11_e_g_l_support.html" target="_top" xlink:title="Ogre::X11EGLSupport">
<polygon fill="none" stroke="black" points="294,-0.5 294,-19.5 408,-19.5 408,-0.5 294,-0.5"/>
<text text-anchor="middle" x="351" y="-7.5" font-family="Helvetica,sans-Serif" font-size="10.00">Ogre::X11EGLSupport</text>
</a>
</g>
</g>
<!-- Node1&#45;&gt;Node6 -->
<g id="edge5" class="edge"><title>Node1&#45;&gt;Node6</title>
<path fill="none" stroke="midnightblue" d="M222.338,-52.8984C238.346,-45.1553 258.992,-35.7782 278,-29 287.863,-25.4828 298.693,-22.2891 308.89,-19.5664"/>
<polygon fill="midnightblue" stroke="midnightblue" points="220.461,-49.9211 213.027,-57.4706 223.546,-56.2045 220.461,-49.9211"/>
</g>
<!-- Node2 -->
<g id="node2" class="node"><title>Node2</title>
<g id="a_node2"><a xlink:href="class_ogre_1_1_g_l_e_s2_support.html" target="_top" xlink:title="Ogre::GLES2Support">
<polygon fill="none" stroke="black" points="0,-57.5 0,-76.5 109,-76.5 109,-57.5 0,-57.5"/>
<text text-anchor="middle" x="54.5" y="-64.5" font-family="Helvetica,sans-Serif" font-size="10.00">Ogre::GLES2Support</text>
</a>
</g>
</g>
<!-- Node2&#45;&gt;Node1 -->
<g id="edge1" class="edge"><title>Node2&#45;&gt;Node1</title>
<path fill="none" stroke="midnightblue" d="M119.51,-67C127.985,-67 136.552,-67 144.689,-67"/>
<polygon fill="midnightblue" stroke="midnightblue" points="119.253,-63.5001 109.253,-67 119.253,-70.5001 119.253,-63.5001"/>
</g>
</g>
</svg>
