<?xml version="1.0" encoding="UTF-8" standalone="no"?>
<!DOCTYPE svg PUBLIC "-//W3C//DTD SVG 1.1//EN"
 "http://www.w3.org/Graphics/SVG/1.1/DTD/svg11.dtd">
<!-- Generated by graphviz version 2.38.0 (20140413.2041)
 -->
<!-- Title: Ogre::NULLTexture Pages: 1 -->
<svg width="214pt" height="196pt"
 viewBox="0.00 0.00 213.50 196.00" xmlns="http://www.w3.org/2000/svg" xmlns:xlink="http://www.w3.org/1999/xlink">
<g id="graph0" class="graph" transform="scale(1 1) rotate(0) translate(4 192)">
<title>Ogre::NULLTexture</title>
<!-- Node1 -->
<g id="node1" class="node"><title>Node1</title>
<polygon fill="#bfbfbf" stroke="black" points="58.5,-0.5 58.5,-19.5 160.5,-19.5 160.5,-0.5 58.5,-0.5"/>
<text text-anchor="middle" x="109.5" y="-7.5" font-family="Helvetica,sans-Serif" font-size="10.00">Ogre::NULLTexture</text>
</g>
<!-- Node2 -->
<g id="node2" class="node"><title>Node2</title>
<g id="a_node2"><a xlink:href="class_ogre_1_1_texture.html" target="_top" xlink:title="Abstract class representing a Texture resource. ">
<polygon fill="none" stroke="black" points="71,-56.5 71,-75.5 148,-75.5 148,-56.5 71,-56.5"/>
<text text-anchor="middle" x="109.5" y="-63.5" font-family="Helvetica,sans-Serif" font-size="10.00">Ogre::Texture</text>
</a>
</g>
</g>
<!-- Node2&#45;&gt;Node1 -->
<g id="edge1" class="edge"><title>Node2&#45;&gt;Node1</title>
<path fill="none" stroke="midnightblue" d="M109.5,-45.8045C109.5,-36.9102 109.5,-26.7798 109.5,-19.7511"/>
<polygon fill="midnightblue" stroke="midnightblue" points="106,-46.083 109.5,-56.083 113,-46.083 106,-46.083"/>
</g>
<!-- Node3 -->
<g id="node3" class="node"><title>Node3</title>
<g id="a_node3"><a xlink:href="class_ogre_1_1_resource.html" target="_top" xlink:title="Abstract class representing a loadable resource (e.g. ">
<polygon fill="none" stroke="black" points="66.5,-112.5 66.5,-131.5 152.5,-131.5 152.5,-112.5 66.5,-112.5"/>
<text text-anchor="middle" x="109.5" y="-119.5" font-family="Helvetica,sans-Serif" font-size="10.00">Ogre::Resource</text>
</a>
</g>
</g>
<!-- Node3&#45;&gt;Node2 -->
<g id="edge2" class="edge"><title>Node3&#45;&gt;Node2</title>
<path fill="none" stroke="midnightblue" d="M109.5,-101.805C109.5,-92.9102 109.5,-82.7798 109.5,-75.7511"/>
<polygon fill="midnightblue" stroke="midnightblue" points="106,-102.083 109.5,-112.083 113,-102.083 106,-102.083"/>
</g>
<!-- Node4 -->
<g id="node4" class="node"><title>Node4</title>
<g id="a_node4"><a xlink:href="class_ogre_1_1_string_interface.html" target="_top" xlink:title="Class defining the common interface which classes can use to present a reflection&#45;style, self&#45;defining parameter set to callers. ">
<polygon fill="none" stroke="black" points="0,-168.5 0,-187.5 107,-187.5 107,-168.5 0,-168.5"/>
<text text-anchor="middle" x="53.5" y="-175.5" font-family="Helvetica,sans-Serif" font-size="10.00">Ogre::StringInterface</text>
</a>
</g>
</g>
<!-- Node4&#45;&gt;Node3 -->
<g id="edge3" class="edge"><title>Node4&#45;&gt;Node3</title>
<path fill="none" stroke="midnightblue" d="M69.8299,-161.253C79.765,-151.673 92.0875,-139.791 100.339,-131.834"/>
<polygon fill="midnightblue" stroke="midnightblue" points="67.2664,-158.863 62.4974,-168.324 72.1253,-163.902 67.2664,-158.863"/>
</g>
<!-- Node5 -->
<g id="node5" class="node"><title>Node5</title>
<g id="a_node5"><a xlink:href="class_ogre_1_1_allocated_object.html" target="_top" xlink:title="Superclass for all objects that wish to use custom memory allocators when their new / delete operator...">
<polygon fill="none" stroke="black" points="125.5,-168.5 125.5,-187.5 205.5,-187.5 205.5,-168.5 125.5,-168.5"/>
<text text-anchor="middle" x="165.5" y="-175.5" font-family="Helvetica,sans-Serif" font-size="10.00">ResourceAlloc</text>
</a>
</g>
</g>
<!-- Node5&#45;&gt;Node3 -->
<g id="edge4" class="edge"><title>Node5&#45;&gt;Node3</title>
<path fill="none" stroke="midnightblue" d="M149.17,-161.253C139.235,-151.673 126.912,-139.791 118.661,-131.834"/>
<polygon fill="midnightblue" stroke="midnightblue" points="146.875,-163.902 156.503,-168.324 151.734,-158.863 146.875,-163.902"/>
</g>
</g>
</svg>
