<?xml version="1.0" encoding="UTF-8" standalone="no"?>
<!DOCTYPE svg PUBLIC "-//W3C//DTD SVG 1.1//EN"
 "http://www.w3.org/Graphics/SVG/1.1/DTD/svg11.dtd">
<!-- Generated by graphviz version 2.40.1 (20161225.0304)
 -->
<!-- Title: Ogre::v1::HardwareBufferManagerBase Pages: 1 -->
<svg width="639pt" height="480pt"
 viewBox="0.00 0.00 639.00 480.00" xmlns="http://www.w3.org/2000/svg" xmlns:xlink="http://www.w3.org/1999/xlink">
<g id="graph0" class="graph" transform="scale(1 1) rotate(0) translate(4 476)">
<title>Ogre::v1::HardwareBufferManagerBase</title>
<!-- Node0 -->
<g id="node1" class="node">
<title>Node0</title>
<polygon fill="#bfbfbf" stroke="#000000" points="101,-269.5 101,-299.5 229,-299.5 229,-269.5 101,-269.5"/>
<text text-anchor="start" x="109" y="-287.5" font-family="Helvetica,sans-Serif" font-size="10.00" fill="#000000">Ogre::v1::HardwareBuffer</text>
<text text-anchor="middle" x="165" y="-276.5" font-family="Helvetica,sans-Serif" font-size="10.00" fill="#000000">ManagerBase</text>
</g>
<!-- Node2 -->
<g id="node3" class="node">
<title>Node2</title>
<g id="a_node3"><a xlink:href="class_ogre_1_1v1_1_1_d3_d11_hardware_buffer_manager_base.html" target="_top" xlink:title="Implementation of HardwareBufferManager for D3D11. ">
<polygon fill="none" stroke="#000000" points="268,-441.5 268,-471.5 427,-471.5 427,-441.5 268,-441.5"/>
<text text-anchor="start" x="276" y="-459.5" font-family="Helvetica,sans-Serif" font-size="10.00" fill="#000000">Ogre::v1::D3D11HardwareBuffer</text>
<text text-anchor="middle" x="347.5" y="-448.5" font-family="Helvetica,sans-Serif" font-size="10.00" fill="#000000">ManagerBase</text>
</a>
</g>
</g>
<!-- Node0&#45;&gt;Node2 -->
<g id="edge2" class="edge">
<title>Node0&#45;&gt;Node2</title>
<path fill="none" stroke="#191970" d="M175.0902,-309.0045C189.9179,-341.9817 220.7147,-400.2218 265,-432.5 269.7013,-435.9266 274.8848,-438.8662 280.2946,-441.3875"/>
<polygon fill="#191970" stroke="#191970" points="178.2107,-307.4042 171.0039,-299.638 171.7946,-310.2033 178.2107,-307.4042"/>
</g>
<!-- Node3 -->
<g id="node4" class="node">
<title>Node3</title>
<g id="a_node4"><a xlink:href="class_ogre_1_1v1_1_1_default_hardware_buffer_manager_base.html" target="_top" xlink:title="Specialisation of HardwareBufferManagerBase to emulate hardware buffers. ">
<polygon fill="none" stroke="#000000" points="280.5,-392.5 280.5,-422.5 414.5,-422.5 414.5,-392.5 280.5,-392.5"/>
<text text-anchor="start" x="288.5" y="-410.5" font-family="Helvetica,sans-Serif" font-size="10.00" fill="#000000">Ogre::v1::DefaultHardware</text>
<text text-anchor="middle" x="347.5" y="-399.5" font-family="Helvetica,sans-Serif" font-size="10.00" fill="#000000">BufferManagerBase</text>
</a>
</g>
</g>
<!-- Node0&#45;&gt;Node3 -->
<g id="edge3" class="edge">
<title>Node0&#45;&gt;Node3</title>
<path fill="none" stroke="#191970" d="M182.5611,-307.6282C200.819,-330.1287 231.3914,-363.7297 265,-383.5 270.7857,-386.9034 277.0865,-389.8519 283.5426,-392.4003"/>
<polygon fill="#191970" stroke="#191970" points="185.1457,-305.2547 176.1859,-299.6002 179.6639,-309.6079 185.1457,-305.2547"/>
</g>
<!-- Node4 -->
<g id="node5" class="node">
<title>Node4</title>
<g id="a_node5"><a xlink:href="class_ogre_1_1v1_1_1_g_l3_plus_default_hardware_buffer_manager_base.html" target="_top" xlink:title="Specialisation of HardwareBufferManager to emulate hardware buffers. ">
<polygon fill="none" stroke="#000000" points="275,-343.5 275,-373.5 420,-373.5 420,-343.5 275,-343.5"/>
<text text-anchor="start" x="283" y="-361.5" font-family="Helvetica,sans-Serif" font-size="10.00" fill="#000000">Ogre::v1::GL3PlusDefault</text>
<text text-anchor="middle" x="347.5" y="-350.5" font-family="Helvetica,sans-Serif" font-size="10.00" fill="#000000">HardwareBufferManagerBase</text>
</a>
</g>
</g>
<!-- Node0&#45;&gt;Node4 -->
<g id="edge4" class="edge">
<title>Node0&#45;&gt;Node4</title>
<path fill="none" stroke="#191970" d="M201.0295,-304.4946C219.7427,-314.3673 243.2002,-325.96 265,-334.5 273.1945,-337.7102 281.9939,-340.7154 290.6841,-343.4397"/>
<polygon fill="#191970" stroke="#191970" points="202.4513,-301.2861 191.9818,-299.661 199.1528,-307.4602 202.4513,-301.2861"/>
</g>
<!-- Node5 -->
<g id="node6" class="node">
<title>Node5</title>
<g id="a_node6"><a xlink:href="class_ogre_1_1v1_1_1_g_l3_plus_hardware_buffer_manager_base.html" target="_top" xlink:title="Implementation of HardwareBufferManager for OpenGL. ">
<polygon fill="none" stroke="#000000" points="277.5,-294.5 277.5,-324.5 417.5,-324.5 417.5,-294.5 277.5,-294.5"/>
<text text-anchor="start" x="285.5" y="-312.5" font-family="Helvetica,sans-Serif" font-size="10.00" fill="#000000">Ogre::v1::GL3PlusHardware</text>
<text text-anchor="middle" x="347.5" y="-301.5" font-family="Helvetica,sans-Serif" font-size="10.00" fill="#000000">BufferManagerBase</text>
</a>
</g>
</g>
<!-- Node0&#45;&gt;Node5 -->
<g id="edge5" class="edge">
<title>Node0&#45;&gt;Node5</title>
<path fill="none" stroke="#191970" d="M239.1015,-294.6509C251.7357,-296.3816 264.8249,-298.1746 277.3526,-299.8908"/>
<polygon fill="#191970" stroke="#191970" points="239.4686,-291.1686 229.0861,-293.2789 238.5185,-298.1038 239.4686,-291.1686"/>
</g>
<!-- Node6 -->
<g id="node7" class="node">
<title>Node6</title>
<g id="a_node7"><a xlink:href="class_ogre_1_1v1_1_1_g_l_e_s2_default_hardware_buffer_manager_base.html" target="_top" xlink:title="Specialisation of HardwareBufferManager to emulate hardware buffers. ">
<polygon fill="none" stroke="#000000" points="265,-245.5 265,-275.5 430,-275.5 430,-245.5 265,-245.5"/>
<text text-anchor="start" x="273" y="-263.5" font-family="Helvetica,sans-Serif" font-size="10.00" fill="#000000">Ogre::v1::GLES2DefaultHardware</text>
<text text-anchor="middle" x="347.5" y="-252.5" font-family="Helvetica,sans-Serif" font-size="10.00" fill="#000000">BufferManagerBase</text>
</a>
</g>
</g>
<!-- Node0&#45;&gt;Node6 -->
<g id="edge6" class="edge">
<title>Node0&#45;&gt;Node6</title>
<path fill="none" stroke="#191970" d="M239.0126,-274.7668C247.5667,-273.6419 256.3306,-272.4894 264.9886,-271.3508"/>
<polygon fill="#191970" stroke="#191970" points="238.5443,-271.2982 229.0861,-276.0722 239.4571,-278.2384 238.5443,-271.2982"/>
</g>
<!-- Node7 -->
<g id="node8" class="node">
<title>Node7</title>
<g id="a_node8"><a xlink:href="class_ogre_1_1v1_1_1_g_l_e_s2_hardware_buffer_manager_base.html" target="_top" xlink:title="Implementation of HardwareBufferManager for OpenGL ES. ">
<polygon fill="none" stroke="#000000" points="267.5,-196.5 267.5,-226.5 427.5,-226.5 427.5,-196.5 267.5,-196.5"/>
<text text-anchor="start" x="275.5" y="-214.5" font-family="Helvetica,sans-Serif" font-size="10.00" fill="#000000">Ogre::v1::GLES2HardwareBuffer</text>
<text text-anchor="middle" x="347.5" y="-203.5" font-family="Helvetica,sans-Serif" font-size="10.00" fill="#000000">ManagerBase</text>
</a>
</g>
</g>
<!-- Node0&#45;&gt;Node7 -->
<g id="edge7" class="edge">
<title>Node0&#45;&gt;Node7</title>
<path fill="none" stroke="#191970" d="M201.4727,-264.741C220.1309,-255.1215 243.4069,-243.8592 265,-235.5 273.2073,-232.3228 282.0136,-229.3353 290.7069,-226.6188"/>
<polygon fill="#191970" stroke="#191970" points="199.6876,-261.7246 192.4416,-269.4541 202.9263,-267.9304 199.6876,-261.7246"/>
</g>
<!-- Node8 -->
<g id="node9" class="node">
<title>Node8</title>
<g id="a_node9"><a xlink:href="class_ogre_1_1v1_1_1_hardware_buffer_manager.html" target="_top" xlink:title="Singleton wrapper for hardware buffer manager. ">
<polygon fill="none" stroke="#000000" points="283.5,-147.5 283.5,-177.5 411.5,-177.5 411.5,-147.5 283.5,-147.5"/>
<text text-anchor="start" x="291.5" y="-165.5" font-family="Helvetica,sans-Serif" font-size="10.00" fill="#000000">Ogre::v1::HardwareBuffer</text>
<text text-anchor="middle" x="347.5" y="-154.5" font-family="Helvetica,sans-Serif" font-size="10.00" fill="#000000">Manager</text>
</a>
</g>
</g>
<!-- Node0&#45;&gt;Node8 -->
<g id="edge8" class="edge">
<title>Node0&#45;&gt;Node8</title>
<path fill="none" stroke="#191970" d="M182.9173,-261.2401C201.2478,-238.9753 231.6952,-205.9779 265,-186.5 270.7943,-183.1113 277.1007,-180.1723 283.5602,-177.6297"/>
<polygon fill="#191970" stroke="#191970" points="180.0544,-259.2148 176.5045,-269.1973 185.5047,-263.6073 180.0544,-259.2148"/>
</g>
<!-- Node16 -->
<g id="node17" class="node">
<title>Node16</title>
<g id="a_node17"><a xlink:href="class_ogre_1_1v1_1_1_metal_hardware_buffer_manager_base.html" target="_top" xlink:title="Implementation of HardwareBufferManager for Metal. ">
<polygon fill="none" stroke="#000000" points="271.5,-98.5 271.5,-128.5 423.5,-128.5 423.5,-98.5 271.5,-98.5"/>
<text text-anchor="start" x="279.5" y="-116.5" font-family="Helvetica,sans-Serif" font-size="10.00" fill="#000000">Ogre::v1::MetalHardwareBuffer</text>
<text text-anchor="middle" x="347.5" y="-105.5" font-family="Helvetica,sans-Serif" font-size="10.00" fill="#000000">ManagerBase</text>
</a>
</g>
</g>
<!-- Node0&#45;&gt;Node16 -->
<g id="edge16" class="edge">
<title>Node0&#45;&gt;Node16</title>
<path fill="none" stroke="#191970" d="M175.1347,-260.1608C190.0137,-227.4061 220.8694,-169.5592 265,-137.5 269.7066,-134.0808 274.8939,-131.1464 280.3062,-128.6284"/>
<polygon fill="#191970" stroke="#191970" points="171.8647,-258.902 171.033,-269.4641 178.2698,-261.726 171.8647,-258.902"/>
</g>
<!-- Node1 -->
<g id="node2" class="node">
<title>Node1</title>
<g id="a_node2"><a xlink:href="class_ogre_1_1_allocated_object.html" target="_top" xlink:title="Superclass for all objects that wish to use custom memory allocators when their new / delete operator...">
<polygon fill="none" stroke="#000000" points="0,-275 0,-294 65,-294 65,-275 0,-275"/>
<text text-anchor="middle" x="32.5" y="-282" font-family="Helvetica,sans-Serif" font-size="10.00" fill="#000000">BufferAlloc</text>
</a>
</g>
</g>
<!-- Node1&#45;&gt;Node0 -->
<g id="edge1" class="edge">
<title>Node1&#45;&gt;Node0</title>
<path fill="none" stroke="#191970" d="M75.2584,-284.5C83.4237,-284.5 92.1359,-284.5 100.8013,-284.5"/>
<polygon fill="#191970" stroke="#191970" points="75.2529,-281.0001 65.2528,-284.5 75.2528,-288.0001 75.2529,-281.0001"/>
</g>
<!-- Node9 -->
<g id="node10" class="node">
<title>Node9</title>
<g id="a_node10"><a xlink:href="class_ogre_1_1v1_1_1_d3_d11_hardware_buffer_manager.html" target="_top" xlink:title="D3D11HardwareBufferManagerBase as a Singleton. ">
<polygon fill="none" stroke="#000000" points="469,-294.5 469,-324.5 628,-324.5 628,-294.5 469,-294.5"/>
<text text-anchor="start" x="477" y="-312.5" font-family="Helvetica,sans-Serif" font-size="10.00" fill="#000000">Ogre::v1::D3D11HardwareBuffer</text>
<text text-anchor="middle" x="548.5" y="-301.5" font-family="Helvetica,sans-Serif" font-size="10.00" fill="#000000">Manager</text>
</a>
</g>
</g>
<!-- Node8&#45;&gt;Node9 -->
<g id="edge9" class="edge">
<title>Node8&#45;&gt;Node9</title>
<path fill="none" stroke="#191970" d="M420.4501,-179.2074C423.8634,-181.3533 427.0778,-183.7727 430,-186.5 463.9221,-218.1603 432.2547,-252.6512 466,-284.5 470.1359,-288.4035 474.8618,-291.699 479.9113,-294.481"/>
<polygon fill="#191970" stroke="#191970" points="422.0683,-176.1034 411.6086,-174.4166 418.7334,-182.258 422.0683,-176.1034"/>
</g>
<!-- Node10 -->
<g id="node11" class="node">
<title>Node10</title>
<g id="a_node11"><a xlink:href="class_ogre_1_1v1_1_1_default_hardware_buffer_manager.html" target="_top" xlink:title="DefaultHardwareBufferManager as a Singleton. ">
<polygon fill="none" stroke="#000000" points="481.5,-245.5 481.5,-275.5 615.5,-275.5 615.5,-245.5 481.5,-245.5"/>
<text text-anchor="start" x="489.5" y="-263.5" font-family="Helvetica,sans-Serif" font-size="10.00" fill="#000000">Ogre::v1::DefaultHardware</text>
<text text-anchor="middle" x="548.5" y="-252.5" font-family="Helvetica,sans-Serif" font-size="10.00" fill="#000000">BufferManager</text>
</a>
</g>
</g>
<!-- Node8&#45;&gt;Node10 -->
<g id="edge10" class="edge">
<title>Node8&#45;&gt;Node10</title>
<path fill="none" stroke="#191970" d="M420.8448,-180.9132C424.0297,-182.6152 427.1003,-184.4728 430,-186.5 452.1478,-201.9838 443.9388,-219.8931 466,-235.5 471.498,-239.3895 477.6123,-242.6841 483.9564,-245.4727"/>
<polygon fill="#191970" stroke="#191970" points="422.1468,-177.6567 411.6134,-176.517 419.1371,-183.9766 422.1468,-177.6567"/>
</g>
<!-- Node11 -->
<g id="node12" class="node">
<title>Node11</title>
<g id="a_node12"><a xlink:href="class_ogre_1_1v1_1_1_g_l3_plus_default_hardware_buffer_manager.html" target="_top" xlink:title="GL3PlusDefaultHardwareBufferManagerBase as a Singleton. ">
<polygon fill="none" stroke="#000000" points="484,-196.5 484,-226.5 613,-226.5 613,-196.5 484,-196.5"/>
<text text-anchor="start" x="492" y="-214.5" font-family="Helvetica,sans-Serif" font-size="10.00" fill="#000000">Ogre::v1::GL3PlusDefault</text>
<text text-anchor="middle" x="548.5" y="-203.5" font-family="Helvetica,sans-Serif" font-size="10.00" fill="#000000">HardwareBufferManager</text>
</a>
</g>
</g>
<!-- Node8&#45;&gt;Node11 -->
<g id="edge11" class="edge">
<title>Node8&#45;&gt;Node11</title>
<path fill="none" stroke="#191970" d="M418.8913,-179.9038C441.1264,-185.3243 465.442,-191.252 486.944,-196.4938"/>
<polygon fill="#191970" stroke="#191970" points="419.7171,-176.5027 409.1726,-177.5346 418.0591,-183.3036 419.7171,-176.5027"/>
</g>
<!-- Node12 -->
<g id="node13" class="node">
<title>Node12</title>
<g id="a_node13"><a xlink:href="class_ogre_1_1v1_1_1_g_l3_plus_hardware_buffer_manager.html" target="_top" xlink:title="GL3PlusHardwareBufferManagerBase as a Singleton. ">
<polygon fill="none" stroke="#000000" points="478.5,-147.5 478.5,-177.5 618.5,-177.5 618.5,-147.5 478.5,-147.5"/>
<text text-anchor="start" x="486.5" y="-165.5" font-family="Helvetica,sans-Serif" font-size="10.00" fill="#000000">Ogre::v1::GL3PlusHardware</text>
<text text-anchor="middle" x="548.5" y="-154.5" font-family="Helvetica,sans-Serif" font-size="10.00" fill="#000000">BufferManager</text>
</a>
</g>
</g>
<!-- Node8&#45;&gt;Node12 -->
<g id="edge12" class="edge">
<title>Node8&#45;&gt;Node12</title>
<path fill="none" stroke="#191970" d="M421.7796,-162.5C440.2798,-162.5 460.0546,-162.5 478.3488,-162.5"/>
<polygon fill="#191970" stroke="#191970" points="421.6503,-159.0001 411.6503,-162.5 421.6503,-166.0001 421.6503,-159.0001"/>
</g>
<!-- Node13 -->
<g id="node14" class="node">
<title>Node13</title>
<g id="a_node14"><a xlink:href="class_ogre_1_1v1_1_1_g_l_e_s2_default_hardware_buffer_manager.html" target="_top" xlink:title="GLES2DefaultHardwareBufferManagerBase as a Singleton. ">
<polygon fill="none" stroke="#000000" points="466,-98.5 466,-128.5 631,-128.5 631,-98.5 466,-98.5"/>
<text text-anchor="start" x="474" y="-116.5" font-family="Helvetica,sans-Serif" font-size="10.00" fill="#000000">Ogre::v1::GLES2DefaultHardware</text>
<text text-anchor="middle" x="548.5" y="-105.5" font-family="Helvetica,sans-Serif" font-size="10.00" fill="#000000">BufferManager</text>
</a>
</g>
</g>
<!-- Node8&#45;&gt;Node13 -->
<g id="edge13" class="edge">
<title>Node8&#45;&gt;Node13</title>
<path fill="none" stroke="#191970" d="M418.8913,-145.0962C441.1264,-139.6757 465.442,-133.748 486.944,-128.5062"/>
<polygon fill="#191970" stroke="#191970" points="418.0591,-141.6964 409.1726,-147.4654 419.7171,-148.4973 418.0591,-141.6964"/>
</g>
<!-- Node14 -->
<g id="node15" class="node">
<title>Node14</title>
<g id="a_node15"><a xlink:href="class_ogre_1_1v1_1_1_g_l_e_s2_hardware_buffer_manager.html" target="_top" xlink:title="GLES2HardwareBufferManagerBase as a Singleton. ">
<polygon fill="none" stroke="#000000" points="468.5,-49.5 468.5,-79.5 628.5,-79.5 628.5,-49.5 468.5,-49.5"/>
<text text-anchor="start" x="476.5" y="-67.5" font-family="Helvetica,sans-Serif" font-size="10.00" fill="#000000">Ogre::v1::GLES2HardwareBuffer</text>
<text text-anchor="middle" x="548.5" y="-56.5" font-family="Helvetica,sans-Serif" font-size="10.00" fill="#000000">Manager</text>
</a>
</g>
</g>
<!-- Node8&#45;&gt;Node14 -->
<g id="edge14" class="edge">
<title>Node8&#45;&gt;Node14</title>
<path fill="none" stroke="#191970" d="M420.8492,-143.1675C424.0329,-141.4349 427.1021,-139.5501 430,-137.5 452.0612,-121.8931 443.8522,-103.9838 466,-88.5 470.8901,-85.0813 476.2662,-82.1449 481.8571,-79.6237"/>
<polygon fill="#191970" stroke="#191970" points="419.0811,-140.1354 411.6203,-147.6579 422.1438,-146.4299 419.0811,-140.1354"/>
</g>
<!-- Node15 -->
<g id="node16" class="node">
<title>Node15</title>
<g id="a_node16"><a xlink:href="class_ogre_1_1v1_1_1_metal_hardware_buffer_manager.html" target="_top" xlink:title="MetalHardwareBufferManagerBase as a Singleton. ">
<polygon fill="none" stroke="#000000" points="472.5,-.5 472.5,-30.5 624.5,-30.5 624.5,-.5 472.5,-.5"/>
<text text-anchor="start" x="480.5" y="-18.5" font-family="Helvetica,sans-Serif" font-size="10.00" fill="#000000">Ogre::v1::MetalHardwareBuffer</text>
<text text-anchor="middle" x="548.5" y="-7.5" font-family="Helvetica,sans-Serif" font-size="10.00" fill="#000000">Manager</text>
</a>
</g>
</g>
<!-- Node8&#45;&gt;Node15 -->
<g id="edge15" class="edge">
<title>Node8&#45;&gt;Node15</title>
<path fill="none" stroke="#191970" d="M420.4635,-144.8841C423.8735,-142.703 427.0834,-140.2527 430,-137.5 463.7453,-105.6512 432.0779,-71.1603 466,-39.5 469.7077,-36.0395 473.8858,-33.0749 478.3438,-30.5355"/>
<polygon fill="#191970" stroke="#191970" points="418.6857,-141.8677 411.6287,-149.7701 422.0735,-147.9933 418.6857,-141.8677"/>
</g>
</g>
</svg>
