<?xml version="1.0" encoding="UTF-8" standalone="no"?>
<!DOCTYPE svg PUBLIC "-//W3C//DTD SVG 1.1//EN"
 "http://www.w3.org/Graphics/SVG/1.1/DTD/svg11.dtd">
<!-- Generated by graphviz version 2.40.1 (20161225.0304)
 -->
<!-- Title: Ogre::Serializer Pages: 1 -->
<svg width="977pt" height="256pt"
 viewBox="0.00 0.00 977.00 256.00" xmlns="http://www.w3.org/2000/svg" xmlns:xlink="http://www.w3.org/1999/xlink">
<g id="graph0" class="graph" transform="scale(1 1) rotate(0) translate(4 252)">
<title>Ogre::Serializer</title>
<!-- Node0 -->
<g id="node1" class="node">
<title>Node0</title>
<polygon fill="#bfbfbf" stroke="#000000" points="122,-114.5 122,-133.5 214,-133.5 214,-114.5 122,-114.5"/>
<text text-anchor="middle" x="168" y="-121.5" font-family="Helvetica,sans-Serif" font-size="10.00" fill="#000000">Ogre::Serializer</text>
</g>
<!-- Node2 -->
<g id="node3" class="node">
<title>Node2</title>
<g id="a_node3"><a xlink:href="class_ogre_1_1_gpu_named_constants_serializer.html" target="_top" xlink:title="Simple class for loading / saving GpuNamedConstants. ">
<polygon fill="none" stroke="#000000" points="250,-228.5 250,-247.5 445,-247.5 445,-228.5 250,-228.5"/>
<text text-anchor="middle" x="347.5" y="-235.5" font-family="Helvetica,sans-Serif" font-size="10.00" fill="#000000">Ogre::GpuNamedConstantsSerializer</text>
</a>
</g>
</g>
<!-- Node0&#45;&gt;Node2 -->
<g id="edge2" class="edge">
<title>Node0&#45;&gt;Node2</title>
<path fill="none" stroke="#191970" d="M178.5214,-142.3849C192.0918,-164.312 217.8222,-200.3368 250,-219 256.713,-222.8936 264.0787,-226.0054 271.6601,-228.49"/>
<polygon fill="#191970" stroke="#191970" points="181.451,-140.4643 173.3143,-133.6786 175.4435,-144.0573 181.451,-140.4643"/>
</g>
<!-- Node3 -->
<g id="node4" class="node">
<title>Node3</title>
<g id="a_node4"><a xlink:href="class_ogre_1_1_lod_config_serializer.html" target="_top" xlink:title="Ogre::LodConfigSerializer">
<polygon fill="none" stroke="#000000" points="277.5,-190.5 277.5,-209.5 417.5,-209.5 417.5,-190.5 277.5,-190.5"/>
<text text-anchor="middle" x="347.5" y="-197.5" font-family="Helvetica,sans-Serif" font-size="10.00" fill="#000000">Ogre::LodConfigSerializer</text>
</a>
</g>
</g>
<!-- Node0&#45;&gt;Node3 -->
<g id="edge3" class="edge">
<title>Node0&#45;&gt;Node3</title>
<path fill="none" stroke="#191970" d="M186.6896,-140.4086C202.4913,-153.4006 226.2855,-170.975 250,-181 259.213,-184.8947 269.2561,-187.9999 279.2802,-190.4734"/>
<polygon fill="#191970" stroke="#191970" points="188.6846,-137.5125 178.7844,-133.7393 184.1707,-142.8628 188.6846,-137.5125"/>
</g>
<!-- Node4 -->
<g id="node5" class="node">
<title>Node4</title>
<g id="a_node5"><a xlink:href="class_ogre_1_1_mesh_serializer.html" target="_top" xlink:title="Class for serialising mesh data to/from an OGRE .mesh file. ">
<polygon fill="none" stroke="#000000" points="288.5,-152.5 288.5,-171.5 406.5,-171.5 406.5,-152.5 288.5,-152.5"/>
<text text-anchor="middle" x="347.5" y="-159.5" font-family="Helvetica,sans-Serif" font-size="10.00" fill="#000000">Ogre::MeshSerializer</text>
</a>
</g>
</g>
<!-- Node0&#45;&gt;Node4 -->
<g id="edge4" class="edge">
<title>Node0&#45;&gt;Node4</title>
<path fill="none" stroke="#191970" d="M217.9144,-135.861C228.4924,-138.2917 239.6026,-140.7831 250,-143 265.1797,-146.2366 281.7368,-149.5458 296.8267,-152.4765"/>
<polygon fill="#191970" stroke="#191970" points="218.508,-132.4059 207.9762,-133.56 216.929,-139.2255 218.508,-132.4059"/>
</g>
<!-- Node5 -->
<g id="node6" class="node">
<title>Node5</title>
<g id="a_node6"><a xlink:href="class_ogre_1_1_mesh_serializer_impl.html" target="_top" xlink:title="Internal implementation of Mesh reading / writing for the latest version of the .mesh format...">
<polygon fill="none" stroke="#000000" points="277.5,-114.5 277.5,-133.5 417.5,-133.5 417.5,-114.5 277.5,-114.5"/>
<text text-anchor="middle" x="347.5" y="-121.5" font-family="Helvetica,sans-Serif" font-size="10.00" fill="#000000">Ogre::MeshSerializerImpl</text>
</a>
</g>
</g>
<!-- Node0&#45;&gt;Node5 -->
<g id="edge5" class="edge">
<title>Node0&#45;&gt;Node5</title>
<path fill="none" stroke="#191970" d="M224.4202,-124C241.2108,-124 259.8155,-124 277.3676,-124"/>
<polygon fill="#191970" stroke="#191970" points="224.2257,-120.5001 214.2257,-124 224.2257,-127.5001 224.2257,-120.5001"/>
</g>
<!-- Node8 -->
<g id="node9" class="node">
<title>Node8</title>
<g id="a_node9"><a xlink:href="class_ogre_1_1v1_1_1_mesh_serializer.html" target="_top" xlink:title="Class for serialising mesh data to/from an OGRE .mesh file. ">
<polygon fill="none" stroke="#000000" points="279.5,-76.5 279.5,-95.5 415.5,-95.5 415.5,-76.5 279.5,-76.5"/>
<text text-anchor="middle" x="347.5" y="-83.5" font-family="Helvetica,sans-Serif" font-size="10.00" fill="#000000">Ogre::v1::MeshSerializer</text>
</a>
</g>
</g>
<!-- Node0&#45;&gt;Node8 -->
<g id="edge8" class="edge">
<title>Node0&#45;&gt;Node8</title>
<path fill="none" stroke="#191970" d="M217.9144,-112.139C228.4924,-109.7083 239.6026,-107.2169 250,-105 265.1797,-101.7634 281.7368,-98.4542 296.8267,-95.5235"/>
<polygon fill="#191970" stroke="#191970" points="216.929,-108.7745 207.9762,-114.44 218.508,-115.5941 216.929,-108.7745"/>
</g>
<!-- Node9 -->
<g id="node10" class="node">
<title>Node9</title>
<g id="a_node10"><a xlink:href="class_ogre_1_1v1_1_1_mesh_serializer_impl.html" target="_top" xlink:title="Internal implementation of Mesh reading / writing for the latest version of the .mesh format...">
<polygon fill="none" stroke="#000000" points="268.5,-38.5 268.5,-57.5 426.5,-57.5 426.5,-38.5 268.5,-38.5"/>
<text text-anchor="middle" x="347.5" y="-45.5" font-family="Helvetica,sans-Serif" font-size="10.00" fill="#000000">Ogre::v1::MeshSerializerImpl</text>
</a>
</g>
</g>
<!-- Node0&#45;&gt;Node9 -->
<g id="edge9" class="edge">
<title>Node0&#45;&gt;Node9</title>
<path fill="none" stroke="#191970" d="M186.6896,-107.5914C202.4913,-94.5994 226.2855,-77.025 250,-67 259.213,-63.1053 269.2561,-60.0001 279.2802,-57.5266"/>
<polygon fill="#191970" stroke="#191970" points="184.1707,-105.1372 178.7844,-114.2607 188.6846,-110.4875 184.1707,-105.1372"/>
</g>
<!-- Node17 -->
<g id="node14" class="node">
<title>Node17</title>
<g id="a_node14"><a xlink:href="class_ogre_1_1v1_1_1_skeleton_serializer.html" target="_top" xlink:title="Class for serialising skeleton data to/from an OGRE .skeleton file. ">
<polygon fill="none" stroke="#000000" points="271.5,-.5 271.5,-19.5 423.5,-19.5 423.5,-.5 271.5,-.5"/>
<text text-anchor="middle" x="347.5" y="-7.5" font-family="Helvetica,sans-Serif" font-size="10.00" fill="#000000">Ogre::v1::SkeletonSerializer</text>
</a>
</g>
</g>
<!-- Node0&#45;&gt;Node17 -->
<g id="edge13" class="edge">
<title>Node0&#45;&gt;Node17</title>
<path fill="none" stroke="#191970" d="M178.5214,-105.6151C192.0918,-83.688 217.8222,-47.6632 250,-29 256.713,-25.1064 264.0787,-21.9946 271.6601,-19.51"/>
<polygon fill="#191970" stroke="#191970" points="175.4435,-103.9427 173.3143,-114.3214 181.451,-107.5357 175.4435,-103.9427"/>
</g>
<!-- Node1 -->
<g id="node2" class="node">
<title>Node1</title>
<g id="a_node2"><a xlink:href="class_ogre_1_1_allocated_object.html" target="_top" xlink:title="Superclass for all objects that wish to use custom memory allocators when their new / delete operator...">
<polygon fill="none" stroke="#000000" points="0,-114.5 0,-133.5 86,-133.5 86,-114.5 0,-114.5"/>
<text text-anchor="middle" x="43" y="-121.5" font-family="Helvetica,sans-Serif" font-size="10.00" fill="#000000">SerializerAlloc</text>
</a>
</g>
</g>
<!-- Node1&#45;&gt;Node0 -->
<g id="edge1" class="edge">
<title>Node1&#45;&gt;Node0</title>
<path fill="none" stroke="#191970" d="M96.2661,-124C104.7994,-124 113.5675,-124 121.9151,-124"/>
<polygon fill="#191970" stroke="#191970" points="96.0179,-120.5001 86.0179,-124 96.0179,-127.5001 96.0179,-120.5001"/>
</g>
<!-- Node6 -->
<g id="node7" class="node">
<title>Node6</title>
<g id="a_node7"><a xlink:href="class_ogre_1_1_mesh_serializer_impl__v2__1___r1.html" target="_top" xlink:title="Ogre::MeshSerializerImpl\l_v2_1_R1">
<polygon fill="none" stroke="#000000" points="481,-109 481,-139 621,-139 621,-109 481,-109"/>
<text text-anchor="start" x="489" y="-127" font-family="Helvetica,sans-Serif" font-size="10.00" fill="#000000">Ogre::MeshSerializerImpl</text>
<text text-anchor="middle" x="551" y="-116" font-family="Helvetica,sans-Serif" font-size="10.00" fill="#000000">_v2_1_R1</text>
</a>
</g>
</g>
<!-- Node5&#45;&gt;Node6 -->
<g id="edge6" class="edge">
<title>Node5&#45;&gt;Node6</title>
<path fill="none" stroke="#191970" d="M427.7425,-124C445.2862,-124 463.7237,-124 480.8378,-124"/>
<polygon fill="#191970" stroke="#191970" points="427.5332,-120.5001 417.5332,-124 427.5331,-127.5001 427.5332,-120.5001"/>
</g>
<!-- Node7 -->
<g id="node8" class="node">
<title>Node7</title>
<g id="a_node8"><a xlink:href="class_ogre_1_1_mesh_serializer_impl__v2__1___r0.html" target="_top" xlink:title="Ogre::MeshSerializerImpl\l_v2_1_R0">
<polygon fill="none" stroke="#000000" points="657,-109 657,-139 797,-139 797,-109 657,-109"/>
<text text-anchor="start" x="665" y="-127" font-family="Helvetica,sans-Serif" font-size="10.00" fill="#000000">Ogre::MeshSerializerImpl</text>
<text text-anchor="middle" x="727" y="-116" font-family="Helvetica,sans-Serif" font-size="10.00" fill="#000000">_v2_1_R0</text>
</a>
</g>
</g>
<!-- Node6&#45;&gt;Node7 -->
<g id="edge7" class="edge">
<title>Node6&#45;&gt;Node7</title>
<path fill="none" stroke="#191970" d="M631.1006,-124C639.7058,-124 648.4124,-124 656.888,-124"/>
<polygon fill="#191970" stroke="#191970" points="631.0656,-120.5001 621.0656,-124 631.0655,-127.5001 631.0656,-120.5001"/>
</g>
<!-- Node10 -->
<g id="node11" class="node">
<title>Node10</title>
<g id="a_node11"><a xlink:href="class_ogre_1_1v1_1_1_mesh_serializer_impl__v1__10.html" target="_top" xlink:title="Class for providing backwards&#45;compatibility for loading version 1.10 of the .mesh format...">
<polygon fill="none" stroke="#000000" points="483,-33 483,-63 619,-63 619,-33 483,-33"/>
<text text-anchor="start" x="491" y="-51" font-family="Helvetica,sans-Serif" font-size="10.00" fill="#000000">Ogre::v1::MeshSerializer</text>
<text text-anchor="middle" x="551" y="-40" font-family="Helvetica,sans-Serif" font-size="10.00" fill="#000000">Impl_v1_10</text>
</a>
</g>
</g>
<!-- Node9&#45;&gt;Node10 -->
<g id="edge10" class="edge">
<title>Node9&#45;&gt;Node10</title>
<path fill="none" stroke="#191970" d="M436.8338,-48C452.2697,-48 468.0926,-48 482.8528,-48"/>
<polygon fill="#191970" stroke="#191970" points="436.7612,-44.5001 426.7611,-48 436.7611,-51.5001 436.7612,-44.5001"/>
</g>
<!-- Node11 -->
<g id="node12" class="node">
<title>Node11</title>
<g id="a_node12"><a xlink:href="class_ogre_1_1v1_1_1_mesh_serializer_impl__v1__8.html" target="_top" xlink:title="Class for providing backwards&#45;compatibility for loading version 1.8 of the .mesh format. ">
<polygon fill="none" stroke="#000000" points="659,-33 659,-63 795,-63 795,-33 659,-33"/>
<text text-anchor="start" x="667" y="-51" font-family="Helvetica,sans-Serif" font-size="10.00" fill="#000000">Ogre::v1::MeshSerializer</text>
<text text-anchor="middle" x="727" y="-40" font-family="Helvetica,sans-Serif" font-size="10.00" fill="#000000">Impl_v1_8</text>
</a>
</g>
</g>
<!-- Node10&#45;&gt;Node11 -->
<g id="edge11" class="edge">
<title>Node10&#45;&gt;Node11</title>
<path fill="none" stroke="#191970" d="M629.2485,-48C639.1165,-48 649.15,-48 658.8446,-48"/>
<polygon fill="#191970" stroke="#191970" points="629.0462,-44.5001 619.0462,-48 629.0462,-51.5001 629.0462,-44.5001"/>
</g>
<!-- Node12 -->
<g id="node13" class="node">
<title>Node12</title>
<g id="a_node13"><a xlink:href="class_ogre_1_1v1_1_1_mesh_serializer_impl__v1__41.html" target="_top" xlink:title="Class for providing backwards&#45;compatibility for loading version 1.41 of the .mesh format...">
<polygon fill="none" stroke="#ff0000" points="833,-33 833,-63 969,-63 969,-33 833,-33"/>
<text text-anchor="start" x="841" y="-51" font-family="Helvetica,sans-Serif" font-size="10.00" fill="#000000">Ogre::v1::MeshSerializer</text>
<text text-anchor="middle" x="901" y="-40" font-family="Helvetica,sans-Serif" font-size="10.00" fill="#000000">Impl_v1_41</text>
</a>
</g>
</g>
<!-- Node11&#45;&gt;Node12 -->
<g id="edge12" class="edge">
<title>Node11&#45;&gt;Node12</title>
<path fill="none" stroke="#191970" d="M805.5204,-48C814.6662,-48 823.9382,-48 832.9269,-48"/>
<polygon fill="#191970" stroke="#191970" points="805.27,-44.5001 795.27,-48 805.27,-51.5001 805.27,-44.5001"/>
</g>
</g>
</svg>
