<?xml version="1.0" encoding="UTF-8" standalone="no"?>
<!DOCTYPE svg PUBLIC "-//W3C//DTD SVG 1.1//EN"
 "http://www.w3.org/Graphics/SVG/1.1/DTD/svg11.dtd">
<!-- Generated by graphviz version 2.38.0 (20140413.2041)
 -->
<!-- Title: Ogre::v1::BaseInstanceBatchVTF Pages: 1 -->
<svg width="371pt" height="252pt"
 viewBox="0.00 0.00 371.00 252.00" xmlns="http://www.w3.org/2000/svg" xmlns:xlink="http://www.w3.org/1999/xlink">
<g id="graph0" class="graph" transform="scale(1 1) rotate(0) translate(4 248)">
<title>Ogre::v1::BaseInstanceBatchVTF</title>
<!-- Node1 -->
<g id="node1" class="node"><title>Node1</title>
<polygon fill="#bfbfbf" stroke="black" points="85,-56.5 85,-75.5 249,-75.5 249,-56.5 85,-56.5"/>
<text text-anchor="middle" x="167" y="-63.5" font-family="Helvetica,sans-Serif" font-size="10.00">Ogre::v1::BaseInstanceBatchVTF</text>
</g>
<!-- Node8 -->
<g id="node8" class="node"><title>Node8</title>
<g id="a_node8"><a xlink:href="class_ogre_1_1v1_1_1_instance_batch_h_w___v_t_f.html" target="_top" xlink:title="Instancing implementation using vertex texture through Vertex Texture Fetch (VTF) and hardware instan...">
<polygon fill="none" stroke="black" points="0,-0.5 0,-19.5 164,-19.5 164,-0.5 0,-0.5"/>
<text text-anchor="middle" x="82" y="-7.5" font-family="Helvetica,sans-Serif" font-size="10.00">Ogre::v1::InstanceBatchHW_VTF</text>
</a>
</g>
</g>
<!-- Node1&#45;&gt;Node8 -->
<g id="edge7" class="edge"><title>Node1&#45;&gt;Node8</title>
<path fill="none" stroke="midnightblue" d="M144.806,-50.9005C129.22,-40.9986 108.87,-28.0705 95.6228,-19.6545"/>
<polygon fill="midnightblue" stroke="midnightblue" points="143.026,-53.9158 153.343,-56.324 146.779,-48.0073 143.026,-53.9158"/>
</g>
<!-- Node9 -->
<g id="node9" class="node"><title>Node9</title>
<g id="a_node9"><a xlink:href="class_ogre_1_1v1_1_1_instance_batch_v_t_f.html" target="_top" xlink:title="Ogre::v1::InstanceBatchVTF">
<polygon fill="none" stroke="black" points="182,-0.5 182,-19.5 324,-19.5 324,-0.5 182,-0.5"/>
<text text-anchor="middle" x="253" y="-7.5" font-family="Helvetica,sans-Serif" font-size="10.00">Ogre::v1::InstanceBatchVTF</text>
</a>
</g>
</g>
<!-- Node1&#45;&gt;Node9 -->
<g id="edge8" class="edge"><title>Node1&#45;&gt;Node9</title>
<path fill="none" stroke="midnightblue" d="M189.455,-50.9005C205.224,-40.9986 225.814,-28.0705 239.217,-19.6545"/>
<polygon fill="midnightblue" stroke="midnightblue" points="187.425,-48.0421 180.817,-56.324 191.148,-53.9704 187.425,-48.0421"/>
</g>
<!-- Node2 -->
<g id="node2" class="node"><title>Node2</title>
<g id="a_node2"><a xlink:href="class_ogre_1_1v1_1_1_instance_batch.html" target="_top" xlink:title="InstanceBatch forms part of the new Instancing system This is an abstract class that must be derived ...">
<polygon fill="none" stroke="black" points="105.5,-112.5 105.5,-131.5 228.5,-131.5 228.5,-112.5 105.5,-112.5"/>
<text text-anchor="middle" x="167" y="-119.5" font-family="Helvetica,sans-Serif" font-size="10.00">Ogre::v1::InstanceBatch</text>
</a>
</g>
</g>
<!-- Node2&#45;&gt;Node1 -->
<g id="edge1" class="edge"><title>Node2&#45;&gt;Node1</title>
<path fill="none" stroke="midnightblue" d="M167,-101.805C167,-92.9102 167,-82.7798 167,-75.7511"/>
<polygon fill="midnightblue" stroke="midnightblue" points="163.5,-102.083 167,-112.083 170.5,-102.083 163.5,-102.083"/>
</g>
<!-- Node3 -->
<g id="node3" class="node"><title>Node3</title>
<g id="a_node3"><a xlink:href="class_ogre_1_1_renderable.html" target="_top" xlink:title="Abstract class defining the interface all renderable objects must implement. ">
<polygon fill="none" stroke="black" points="61.5,-168.5 61.5,-187.5 154.5,-187.5 154.5,-168.5 61.5,-168.5"/>
<text text-anchor="middle" x="108" y="-175.5" font-family="Helvetica,sans-Serif" font-size="10.00">Ogre::Renderable</text>
</a>
</g>
</g>
<!-- Node3&#45;&gt;Node2 -->
<g id="edge2" class="edge"><title>Node3&#45;&gt;Node2</title>
<path fill="none" stroke="midnightblue" d="M124.895,-161.537C135.415,-151.909 148.569,-139.869 157.348,-131.834"/>
<polygon fill="midnightblue" stroke="midnightblue" points="122.493,-158.99 117.479,-168.324 127.219,-164.154 122.493,-158.99"/>
</g>
<!-- Node4 -->
<g id="node4" class="node"><title>Node4</title>
<g id="a_node4"><a xlink:href="class_ogre_1_1_movable_object.html" target="_top" xlink:title="Abstract class defining a movable object in a scene. ">
<polygon fill="none" stroke="black" points="172.5,-168.5 172.5,-187.5 281.5,-187.5 281.5,-168.5 172.5,-168.5"/>
<text text-anchor="middle" x="227" y="-175.5" font-family="Helvetica,sans-Serif" font-size="10.00">Ogre::MovableObject</text>
</a>
</g>
</g>
<!-- Node4&#45;&gt;Node2 -->
<g id="edge3" class="edge"><title>Node4&#45;&gt;Node2</title>
<path fill="none" stroke="midnightblue" d="M209.819,-161.537C199.121,-151.909 185.744,-139.869 176.815,-131.834"/>
<polygon fill="midnightblue" stroke="midnightblue" points="207.586,-164.236 217.36,-168.324 212.268,-159.033 207.586,-164.236"/>
</g>
<!-- Node5 -->
<g id="node5" class="node"><title>Node5</title>
<g id="a_node5"><a xlink:href="class_ogre_1_1_animable_object.html" target="_top" xlink:title="Defines an interface to classes which have one or more AnimableValue instances to expose...">
<polygon fill="none" stroke="black" points="58.5,-224.5 58.5,-243.5 171.5,-243.5 171.5,-224.5 58.5,-224.5"/>
<text text-anchor="middle" x="115" y="-231.5" font-family="Helvetica,sans-Serif" font-size="10.00">Ogre::AnimableObject</text>
</a>
</g>
</g>
<!-- Node5&#45;&gt;Node4 -->
<g id="edge4" class="edge"><title>Node5&#45;&gt;Node4</title>
<path fill="none" stroke="midnightblue" d="M142.249,-219.862C163.016,-209.849 191.023,-196.346 209.05,-187.655"/>
<polygon fill="midnightblue" stroke="midnightblue" points="140.482,-216.828 132.995,-224.324 143.523,-223.134 140.482,-216.828"/>
</g>
<!-- Node6 -->
<g id="node6" class="node"><title>Node6</title>
<g id="a_node6"><a xlink:href="class_ogre_1_1_allocated_object.html" target="_top" xlink:title="Superclass for all objects that wish to use custom memory allocators when their new / delete operator...">
<polygon fill="none" stroke="black" points="189.5,-224.5 189.5,-243.5 264.5,-243.5 264.5,-224.5 189.5,-224.5"/>
<text text-anchor="middle" x="227" y="-231.5" font-family="Helvetica,sans-Serif" font-size="10.00">MovableAlloc</text>
</a>
</g>
</g>
<!-- Node6&#45;&gt;Node4 -->
<g id="edge5" class="edge"><title>Node6&#45;&gt;Node4</title>
<path fill="none" stroke="midnightblue" d="M227,-213.805C227,-204.91 227,-194.78 227,-187.751"/>
<polygon fill="midnightblue" stroke="midnightblue" points="223.5,-214.083 227,-224.083 230.5,-214.083 223.5,-214.083"/>
</g>
<!-- Node7 -->
<g id="node7" class="node"><title>Node7</title>
<g id="a_node7"><a xlink:href="class_ogre_1_1_id_object.html" target="_top" xlink:title="Ogre::IdObject">
<polygon fill="none" stroke="black" points="283,-224.5 283,-243.5 363,-243.5 363,-224.5 283,-224.5"/>
<text text-anchor="middle" x="323" y="-231.5" font-family="Helvetica,sans-Serif" font-size="10.00">Ogre::IdObject</text>
</a>
</g>
</g>
<!-- Node7&#45;&gt;Node4 -->
<g id="edge6" class="edge"><title>Node7&#45;&gt;Node4</title>
<path fill="none" stroke="midnightblue" d="M298.426,-219.177C280.761,-209.241 257.487,-196.149 242.386,-187.655"/>
<polygon fill="midnightblue" stroke="midnightblue" points="297.144,-222.472 307.576,-224.324 300.576,-216.371 297.144,-222.472"/>
</g>
</g>
</svg>
