<?xml version="1.0" encoding="UTF-8" standalone="no"?>
<!DOCTYPE svg PUBLIC "-//W3C//DTD SVG 1.1//EN"
 "http://www.w3.org/Graphics/SVG/1.1/DTD/svg11.dtd">
<!-- Generated by graphviz version 2.40.1 (20161225.0304)
 -->
<!-- Title: Ogre::v1::OverlayElementFactory Pages: 1 -->
<svg width="437pt" height="137pt"
 viewBox="0.00 0.00 437.00 137.00" xmlns="http://www.w3.org/2000/svg" xmlns:xlink="http://www.w3.org/1999/xlink">
<g id="graph0" class="graph" transform="scale(1 1) rotate(0) translate(4 133)">
<title>Ogre::v1::OverlayElementFactory</title>
<!-- Node0 -->
<g id="node1" class="node">
<title>Node0</title>
<polygon fill="#bfbfbf" stroke="#000000" points="108,-49.5 108,-79.5 238,-79.5 238,-49.5 108,-49.5"/>
<text text-anchor="start" x="116" y="-67.5" font-family="Helvetica,sans-Serif" font-size="10.00" fill="#000000">Ogre::v1::OverlayElement</text>
<text text-anchor="middle" x="173" y="-56.5" font-family="Helvetica,sans-Serif" font-size="10.00" fill="#000000">Factory</text>
</g>
<!-- Node2 -->
<g id="node3" class="node">
<title>Node2</title>
<g id="a_node3"><a xlink:href="class_ogre_1_1v1_1_1_border_panel_overlay_element_factory.html" target="_top" xlink:title="Factory for creating BorderPanelOverlayElement instances. ">
<polygon fill="none" stroke="#000000" points="278,-98.5 278,-128.5 425,-128.5 425,-98.5 278,-98.5"/>
<text text-anchor="start" x="286" y="-116.5" font-family="Helvetica,sans-Serif" font-size="10.00" fill="#000000">Ogre::v1::BorderPanelOverlay</text>
<text text-anchor="middle" x="351.5" y="-105.5" font-family="Helvetica,sans-Serif" font-size="10.00" fill="#000000">ElementFactory</text>
</a>
</g>
</g>
<!-- Node0&#45;&gt;Node2 -->
<g id="edge2" class="edge">
<title>Node0&#45;&gt;Node2</title>
<path fill="none" stroke="#191970" d="M237.9203,-82.3212C257.1929,-87.6118 278.1043,-93.3522 296.6693,-98.4484"/>
<polygon fill="#191970" stroke="#191970" points="238.5822,-78.8735 228.0124,-79.6014 236.7291,-85.6238 238.5822,-78.8735"/>
</g>
<!-- Node3 -->
<g id="node4" class="node">
<title>Node3</title>
<g id="a_node4"><a xlink:href="class_ogre_1_1v1_1_1_panel_overlay_element_factory.html" target="_top" xlink:title="Factory for creating PanelOverlayElement instances. ">
<polygon fill="none" stroke="#000000" points="274,-49.5 274,-79.5 429,-79.5 429,-49.5 274,-49.5"/>
<text text-anchor="start" x="282" y="-67.5" font-family="Helvetica,sans-Serif" font-size="10.00" fill="#000000">Ogre::v1::PanelOverlayElement</text>
<text text-anchor="middle" x="351.5" y="-56.5" font-family="Helvetica,sans-Serif" font-size="10.00" fill="#000000">Factory</text>
</a>
</g>
</g>
<!-- Node0&#45;&gt;Node3 -->
<g id="edge3" class="edge">
<title>Node0&#45;&gt;Node3</title>
<path fill="none" stroke="#191970" d="M248.3435,-64.5C256.7447,-64.5 265.3143,-64.5 273.7448,-64.5"/>
<polygon fill="#191970" stroke="#191970" points="248.2003,-61.0001 238.2003,-64.5 248.2003,-68.0001 248.2003,-61.0001"/>
</g>
<!-- Node4 -->
<g id="node5" class="node">
<title>Node4</title>
<g id="a_node5"><a xlink:href="class_ogre_1_1v1_1_1_text_area_overlay_element_factory.html" target="_top" xlink:title="Factory for creating TextAreaOverlayElement instances. ">
<polygon fill="none" stroke="#000000" points="284.5,-.5 284.5,-30.5 418.5,-30.5 418.5,-.5 284.5,-.5"/>
<text text-anchor="start" x="292.5" y="-18.5" font-family="Helvetica,sans-Serif" font-size="10.00" fill="#000000">Ogre::v1::TextAreaOverlay</text>
<text text-anchor="middle" x="351.5" y="-7.5" font-family="Helvetica,sans-Serif" font-size="10.00" fill="#000000">ElementFactory</text>
</a>
</g>
</g>
<!-- Node0&#45;&gt;Node4 -->
<g id="edge4" class="edge">
<title>Node0&#45;&gt;Node4</title>
<path fill="none" stroke="#191970" d="M237.9203,-46.6788C257.1929,-41.3882 278.1043,-35.6478 296.6693,-30.5516"/>
<polygon fill="#191970" stroke="#191970" points="236.7291,-43.3762 228.0124,-49.3986 238.5822,-50.1265 236.7291,-43.3762"/>
</g>
<!-- Node1 -->
<g id="node2" class="node">
<title>Node1</title>
<g id="a_node2"><a xlink:href="class_ogre_1_1_allocated_object.html" target="_top" xlink:title="Superclass for all objects that wish to use custom memory allocators when their new / delete operator...">
<polygon fill="none" stroke="#000000" points="0,-55 0,-74 72,-74 72,-55 0,-55"/>
<text text-anchor="middle" x="36" y="-62" font-family="Helvetica,sans-Serif" font-size="10.00" fill="#000000">OverlayAlloc</text>
</a>
</g>
</g>
<!-- Node1&#45;&gt;Node0 -->
<g id="edge1" class="edge">
<title>Node1&#45;&gt;Node0</title>
<path fill="none" stroke="#191970" d="M82.43,-64.5C90.6159,-64.5 99.2726,-64.5 107.8587,-64.5"/>
<polygon fill="#191970" stroke="#191970" points="82.3538,-61.0001 72.3538,-64.5 82.3538,-68.0001 82.3538,-61.0001"/>
</g>
</g>
</svg>
