<?xml version="1.0" encoding="UTF-8" standalone="no"?>
<!DOCTYPE svg PUBLIC "-//W3C//DTD SVG 1.1//EN"
 "http://www.w3.org/Graphics/SVG/1.1/DTD/svg11.dtd">
<!-- Generated by graphviz version 2.38.0 (20140413.2041)
 -->
<!-- Title: Ogre::RenderTarget Pages: 1 -->
<svg width="813pt" height="1100pt"
 viewBox="0.00 0.00 813.00 1100.00" xmlns="http://www.w3.org/2000/svg" xmlns:xlink="http://www.w3.org/1999/xlink">
<g id="graph0" class="graph" transform="scale(1 1) rotate(0) translate(4 1096)">
<title>Ogre::RenderTarget</title>
<!-- Node1 -->
<g id="node1" class="node"><title>Node1</title>
<polygon fill="#bfbfbf" stroke="black" points="140,-630.5 140,-649.5 243,-649.5 243,-630.5 140,-630.5"/>
<text text-anchor="middle" x="191.5" y="-637.5" font-family="Helvetica,sans-Serif" font-size="10.00">Ogre::RenderTarget</text>
</g>
<!-- Node4 -->
<g id="node4" class="node"><title>Node4</title>
<g id="a_node4"><a xlink:href="class_ogre_1_1_multi_render_target.html" target="_top" xlink:title="This class represents a render target that renders to multiple RenderTextures at once. ">
<polygon fill="none" stroke="black" points="279,-965.5 279,-984.5 403,-984.5 403,-965.5 279,-965.5"/>
<text text-anchor="middle" x="341" y="-972.5" font-family="Helvetica,sans-Serif" font-size="10.00">Ogre::MultiRenderTarget</text>
</a>
</g>
</g>
<!-- Node1&#45;&gt;Node4 -->
<g id="edge3" class="edge"><title>Node1&#45;&gt;Node4</title>
<path fill="none" stroke="midnightblue" d="M200.918,-659.12C228.482,-721.721 315.418,-919.169 335.727,-965.296"/>
<polygon fill="midnightblue" stroke="midnightblue" points="203.988,-657.406 196.755,-649.665 197.582,-660.227 203.988,-657.406"/>
</g>
<!-- Node10 -->
<g id="node10" class="node"><title>Node10</title>
<g id="a_node10"><a xlink:href="class_ogre_1_1_render_texture.html" target="_top" xlink:title="This class represents a RenderTarget that renders to a Texture. ">
<polygon fill="none" stroke="black" points="287,-630.5 287,-649.5 395,-649.5 395,-630.5 287,-630.5"/>
<text text-anchor="middle" x="341" y="-637.5" font-family="Helvetica,sans-Serif" font-size="10.00">Ogre::RenderTexture</text>
</a>
</g>
</g>
<!-- Node1&#45;&gt;Node10 -->
<g id="edge9" class="edge"><title>Node1&#45;&gt;Node10</title>
<path fill="none" stroke="midnightblue" d="M253.338,-640C264.467,-640 276.002,-640 286.884,-640"/>
<polygon fill="midnightblue" stroke="midnightblue" points="253.261,-636.5 243.261,-640 253.261,-643.5 253.261,-636.5"/>
</g>
<!-- Node25 -->
<g id="node25" class="node"><title>Node25</title>
<g id="a_node25"><a xlink:href="class_ogre_1_1_render_window.html" target="_top" xlink:title="Manages the target rendering window. ">
<polygon fill="none" stroke="black" points="286,-209.5 286,-228.5 396,-228.5 396,-209.5 286,-209.5"/>
<text text-anchor="middle" x="341" y="-216.5" font-family="Helvetica,sans-Serif" font-size="10.00">Ogre::RenderWindow</text>
</a>
</g>
</g>
<!-- Node1&#45;&gt;Node25 -->
<g id="edge24" class="edge"><title>Node1&#45;&gt;Node25</title>
<path fill="none" stroke="midnightblue" d="M199.316,-620.546C225.299,-546.384 317.626,-282.861 336.583,-228.753"/>
<polygon fill="midnightblue" stroke="midnightblue" points="195.861,-619.821 195.858,-630.416 202.468,-622.136 195.861,-619.821"/>
</g>
<!-- Node2 -->
<g id="node2" class="node"><title>Node2</title>
<g id="a_node2"><a xlink:href="struct_ogre_1_1_gpu_resource.html" target="_top" xlink:title="Ogre::GpuResource">
<polygon fill="none" stroke="black" points="0,-649.5 0,-668.5 104,-668.5 104,-649.5 0,-649.5"/>
<text text-anchor="middle" x="52" y="-656.5" font-family="Helvetica,sans-Serif" font-size="10.00">Ogre::GpuResource</text>
</a>
</g>
</g>
<!-- Node2&#45;&gt;Node1 -->
<g id="edge1" class="edge"><title>Node2&#45;&gt;Node1</title>
<path fill="none" stroke="midnightblue" d="M114.13,-650.553C122.678,-649.372 131.386,-648.168 139.715,-647.018"/>
<polygon fill="midnightblue" stroke="midnightblue" points="113.627,-647.089 104.2,-651.925 114.585,-654.023 113.627,-647.089"/>
</g>
<!-- Node3 -->
<g id="node3" class="node"><title>Node3</title>
<g id="a_node3"><a xlink:href="class_ogre_1_1_allocated_object.html" target="_top" xlink:title="Superclass for all objects that wish to use custom memory allocators when their new / delete operator...">
<polygon fill="none" stroke="black" points="8.5,-611.5 8.5,-630.5 95.5,-630.5 95.5,-611.5 8.5,-611.5"/>
<text text-anchor="middle" x="52" y="-618.5" font-family="Helvetica,sans-Serif" font-size="10.00">RenderSysAlloc</text>
</a>
</g>
</g>
<!-- Node3&#45;&gt;Node1 -->
<g id="edge2" class="edge"><title>Node3&#45;&gt;Node1</title>
<path fill="none" stroke="midnightblue" d="M105.745,-628.288C116.846,-629.822 128.536,-631.438 139.569,-632.962"/>
<polygon fill="midnightblue" stroke="midnightblue" points="106.137,-624.809 95.7521,-626.908 105.179,-631.744 106.137,-624.809"/>
</g>
<!-- Node5 -->
<g id="node5" class="node"><title>Node5</title>
<g id="a_node5"><a xlink:href="class_ogre_1_1_d3_d11_multi_render_target.html" target="_top" xlink:title="Ogre::D3D11MultiRenderTarget">
<polygon fill="none" stroke="black" points="443.5,-1072.5 443.5,-1091.5 598.5,-1091.5 598.5,-1072.5 443.5,-1072.5"/>
<text text-anchor="middle" x="521" y="-1079.5" font-family="Helvetica,sans-Serif" font-size="10.00">Ogre::D3D11MultiRenderTarget</text>
</a>
</g>
</g>
<!-- Node4&#45;&gt;Node5 -->
<g id="edge4" class="edge"><title>Node4&#45;&gt;Node5</title>
<path fill="none" stroke="midnightblue" d="M356.245,-992.436C373.65,-1012.55 405.005,-1045.15 439,-1063 446.417,-1066.9 454.631,-1070 462.9,-1072.47"/>
<polygon fill="midnightblue" stroke="midnightblue" points="358.801,-990.038 349.673,-984.658 353.454,-994.556 358.801,-990.038"/>
</g>
<!-- Node6 -->
<g id="node6" class="node"><title>Node6</title>
<g id="a_node6"><a xlink:href="class_ogre_1_1_d3_d9_multi_render_target.html" target="_top" xlink:title="Ogre::D3D9MultiRenderTarget">
<polygon fill="none" stroke="black" points="446.5,-1034.5 446.5,-1053.5 595.5,-1053.5 595.5,-1034.5 446.5,-1034.5"/>
<text text-anchor="middle" x="521" y="-1041.5" font-family="Helvetica,sans-Serif" font-size="10.00">Ogre::D3D9MultiRenderTarget</text>
</a>
</g>
</g>
<!-- Node4&#45;&gt;Node6 -->
<g id="edge5" class="edge"><title>Node4&#45;&gt;Node6</title>
<path fill="none" stroke="midnightblue" d="M367.019,-989.617C386.203,-1000.33 413.611,-1014.59 439,-1024 450.001,-1028.08 462.15,-1031.58 473.619,-1034.46"/>
<polygon fill="midnightblue" stroke="midnightblue" points="368.733,-986.565 358.307,-984.679 365.281,-992.655 368.733,-986.565"/>
</g>
<!-- Node7 -->
<g id="node7" class="node"><title>Node7</title>
<g id="a_node7"><a xlink:href="class_ogre_1_1_g_l3_plus_f_b_o_multi_render_target.html" target="_top" xlink:title="MultiRenderTarget for OpenGL. ">
<polygon fill="none" stroke="black" points="444,-985 444,-1015 598,-1015 598,-985 444,-985"/>
<text text-anchor="start" x="452" y="-1003" font-family="Helvetica,sans-Serif" font-size="10.00">Ogre::GL3PlusFBOMultiRender</text>
<text text-anchor="middle" x="521" y="-992" font-family="Helvetica,sans-Serif" font-size="10.00">Target</text>
</a>
</g>
</g>
<!-- Node4&#45;&gt;Node7 -->
<g id="edge6" class="edge"><title>Node4&#45;&gt;Node7</title>
<path fill="none" stroke="midnightblue" d="M413.209,-985.001C423.286,-986.417 433.68,-987.876 443.846,-989.304"/>
<polygon fill="midnightblue" stroke="midnightblue" points="413.647,-981.529 403.258,-983.604 412.673,-988.46 413.647,-981.529"/>
</g>
<!-- Node8 -->
<g id="node8" class="node"><title>Node8</title>
<g id="a_node8"><a xlink:href="class_ogre_1_1_g_l_e_s2_f_b_o_multi_render_target.html" target="_top" xlink:title="MultiRenderTarget for GL ES 2.x. ">
<polygon fill="none" stroke="black" points="447,-936 447,-966 595,-966 595,-936 447,-936"/>
<text text-anchor="start" x="455" y="-954" font-family="Helvetica,sans-Serif" font-size="10.00">Ogre::GLES2FBOMultiRender</text>
<text text-anchor="middle" x="521" y="-943" font-family="Helvetica,sans-Serif" font-size="10.00">Target</text>
</a>
</g>
</g>
<!-- Node4&#45;&gt;Node8 -->
<g id="edge7" class="edge"><title>Node4&#45;&gt;Node8</title>
<path fill="none" stroke="midnightblue" d="M413.306,-965.386C424.386,-963.892 435.848,-962.346 446.967,-960.847"/>
<polygon fill="midnightblue" stroke="midnightblue" points="412.7,-961.936 403.258,-966.741 413.636,-968.873 412.7,-961.936"/>
</g>
<!-- Node9 -->
<g id="node9" class="node"><title>Node9</title>
<g id="a_node9"><a xlink:href="class_ogre_1_1_metal_multi_render_target.html" target="_top" xlink:title="Ogre::MetalMultiRenderTarget">
<polygon fill="none" stroke="black" points="447,-897.5 447,-916.5 595,-916.5 595,-897.5 447,-897.5"/>
<text text-anchor="middle" x="521" y="-904.5" font-family="Helvetica,sans-Serif" font-size="10.00">Ogre::MetalMultiRenderTarget</text>
</a>
</g>
</g>
<!-- Node4&#45;&gt;Node9 -->
<g id="edge8" class="edge"><title>Node4&#45;&gt;Node9</title>
<path fill="none" stroke="midnightblue" d="M366.644,-960.49C385.827,-949.71 413.404,-935.317 439,-926 449.18,-922.295 460.347,-919.13 471.05,-916.506"/>
<polygon fill="midnightblue" stroke="midnightblue" points="364.897,-957.457 357.947,-965.454 368.367,-963.536 364.897,-957.457"/>
</g>
<!-- Node11 -->
<g id="node11" class="node"><title>Node11</title>
<g id="a_node11"><a xlink:href="class_ogre_1_1_d3_d11_depth_texture_target.html" target="_top" xlink:title="Ogre::D3D11DepthTextureTarget">
<polygon fill="none" stroke="black" points="440.5,-859.5 440.5,-878.5 601.5,-878.5 601.5,-859.5 440.5,-859.5"/>
<text text-anchor="middle" x="521" y="-866.5" font-family="Helvetica,sans-Serif" font-size="10.00">Ogre::D3D11DepthTextureTarget</text>
</a>
</g>
</g>
<!-- Node10&#45;&gt;Node11 -->
<g id="edge10" class="edge"><title>Node10&#45;&gt;Node11</title>
<path fill="none" stroke="midnightblue" d="M345.209,-659.803C353.088,-701.742 377.427,-799.774 439,-850 443.701,-853.835 449.04,-856.922 454.68,-859.405"/>
<polygon fill="midnightblue" stroke="midnightblue" points="348.623,-659.004 343.441,-649.763 341.729,-660.218 348.623,-659.004"/>
</g>
<!-- Node12 -->
<g id="node12" class="node"><title>Node12</title>
<g id="a_node12"><a xlink:href="class_ogre_1_1_d3_d11_null_texture_target.html" target="_top" xlink:title="Ogre::D3D11NullTextureTarget">
<polygon fill="none" stroke="black" points="445,-821.5 445,-840.5 597,-840.5 597,-821.5 445,-821.5"/>
<text text-anchor="middle" x="521" y="-828.5" font-family="Helvetica,sans-Serif" font-size="10.00">Ogre::D3D11NullTextureTarget</text>
</a>
</g>
</g>
<!-- Node10&#45;&gt;Node12 -->
<g id="edge11" class="edge"><title>Node10&#45;&gt;Node12</title>
<path fill="none" stroke="midnightblue" d="M347.264,-659.396C358.079,-695.394 386.322,-772.462 439,-812 444.083,-815.815 449.812,-818.88 455.814,-821.34"/>
<polygon fill="midnightblue" stroke="midnightblue" points="350.584,-658.276 344.46,-649.63 343.856,-660.208 350.584,-658.276"/>
</g>
<!-- Node13 -->
<g id="node13" class="node"><title>Node13</title>
<g id="a_node13"><a xlink:href="class_ogre_1_1_d3_d11_render_texture.html" target="_top" xlink:title="RenderTexture implementation for D3D11. ">
<polygon fill="none" stroke="black" points="451.5,-783.5 451.5,-802.5 590.5,-802.5 590.5,-783.5 451.5,-783.5"/>
<text text-anchor="middle" x="521" y="-790.5" font-family="Helvetica,sans-Serif" font-size="10.00">Ogre::D3D11RenderTexture</text>
</a>
</g>
</g>
<!-- Node10&#45;&gt;Node13 -->
<g id="edge12" class="edge"><title>Node10&#45;&gt;Node13</title>
<path fill="none" stroke="midnightblue" d="M350.202,-658.757C364.054,-688.137 394.946,-744.674 439,-774 444.771,-777.842 451.226,-780.911 457.905,-783.362"/>
<polygon fill="midnightblue" stroke="midnightblue" points="353.354,-657.232 346.019,-649.587 346.985,-660.137 353.354,-657.232"/>
</g>
<!-- Node14 -->
<g id="node14" class="node"><title>Node14</title>
<g id="a_node14"><a xlink:href="class_ogre_1_1_d3_d9_render_texture.html" target="_top" xlink:title="RenderTexture implementation for D3D9. ">
<polygon fill="none" stroke="black" points="454,-745.5 454,-764.5 588,-764.5 588,-745.5 454,-745.5"/>
<text text-anchor="middle" x="521" y="-752.5" font-family="Helvetica,sans-Serif" font-size="10.00">Ogre::D3D9RenderTexture</text>
</a>
</g>
</g>
<!-- Node10&#45;&gt;Node14 -->
<g id="edge13" class="edge"><title>Node10&#45;&gt;Node14</title>
<path fill="none" stroke="midnightblue" d="M354.961,-657.497C371.875,-679.05 403.533,-715.229 439,-735 446.844,-739.373 455.64,-742.8 464.466,-745.484"/>
<polygon fill="midnightblue" stroke="midnightblue" points="357.697,-655.313 348.837,-649.502 352.139,-659.569 357.697,-655.313"/>
</g>
<!-- Node15 -->
<g id="node15" class="node"><title>Node15</title>
<g id="a_node15"><a xlink:href="class_ogre_1_1_g_l3_plus_depth_texture_target.html" target="_top" xlink:title="Ogre::GL3PlusDepthTexture\lTarget">
<polygon fill="none" stroke="black" points="451,-696 451,-726 591,-726 591,-696 451,-696"/>
<text text-anchor="start" x="459" y="-714" font-family="Helvetica,sans-Serif" font-size="10.00">Ogre::GL3PlusDepthTexture</text>
<text text-anchor="middle" x="521" y="-703" font-family="Helvetica,sans-Serif" font-size="10.00">Target</text>
</a>
</g>
</g>
<!-- Node10&#45;&gt;Node15 -->
<g id="edge14" class="edge"><title>Node10&#45;&gt;Node15</title>
<path fill="none" stroke="midnightblue" d="M369.306,-654.242C388.492,-663.927 414.929,-676.633 439,-686 448.052,-689.522 457.821,-692.89 467.334,-695.949"/>
<polygon fill="midnightblue" stroke="midnightblue" points="370.747,-651.048 360.249,-649.623 367.567,-657.284 370.747,-651.048"/>
</g>
<!-- Node16 -->
<g id="node16" class="node"><title>Node16</title>
<g id="a_node16"><a xlink:href="class_ogre_1_1_g_l3_plus_null_texture_target.html" target="_top" xlink:title="Ogre::GL3PlusNullTexture\lTarget">
<polygon fill="none" stroke="black" points="455.5,-647 455.5,-677 586.5,-677 586.5,-647 455.5,-647"/>
<text text-anchor="start" x="463.5" y="-665" font-family="Helvetica,sans-Serif" font-size="10.00">Ogre::GL3PlusNullTexture</text>
<text text-anchor="middle" x="521" y="-654" font-family="Helvetica,sans-Serif" font-size="10.00">Target</text>
</a>
</g>
</g>
<!-- Node10&#45;&gt;Node16 -->
<g id="edge15" class="edge"><title>Node10&#45;&gt;Node16</title>
<path fill="none" stroke="midnightblue" d="M405.785,-647.884C421.88,-649.873 439.174,-652.01 455.313,-654.005"/>
<polygon fill="midnightblue" stroke="midnightblue" points="405.76,-644.354 395.406,-646.601 404.901,-651.301 405.76,-644.354"/>
</g>
<!-- Node17 -->
<g id="node17" class="node"><title>Node17</title>
<g id="a_node17"><a xlink:href="class_ogre_1_1_g_l3_plus_render_texture.html" target="_top" xlink:title="Base class for GL Render Textures. ">
<polygon fill="none" stroke="black" points="448,-608.5 448,-627.5 594,-627.5 594,-608.5 448,-608.5"/>
<text text-anchor="middle" x="521" y="-615.5" font-family="Helvetica,sans-Serif" font-size="10.00">Ogre::GL3PlusRenderTexture</text>
</a>
</g>
</g>
<!-- Node10&#45;&gt;Node17 -->
<g id="edge16" class="edge"><title>Node10&#45;&gt;Node17</title>
<path fill="none" stroke="midnightblue" d="M405.67,-632.131C419.346,-630.44 433.892,-628.643 447.863,-626.916"/>
<polygon fill="midnightblue" stroke="midnightblue" points="404.901,-628.699 395.406,-633.399 405.76,-635.646 404.901,-628.699"/>
</g>
<!-- Node19 -->
<g id="node19" class="node"><title>Node19</title>
<g id="a_node19"><a xlink:href="class_ogre_1_1_g_l_e_s2_render_texture.html" target="_top" xlink:title="Base class for GL Render Textures. ">
<polygon fill="none" stroke="black" points="451,-570.5 451,-589.5 591,-589.5 591,-570.5 451,-570.5"/>
<text text-anchor="middle" x="521" y="-577.5" font-family="Helvetica,sans-Serif" font-size="10.00">Ogre::GLES2RenderTexture</text>
</a>
</g>
</g>
<!-- Node10&#45;&gt;Node19 -->
<g id="edge18" class="edge"><title>Node10&#45;&gt;Node19</title>
<path fill="none" stroke="midnightblue" d="M371.352,-626.055C390.339,-617.422 415.761,-606.576 439,-599 449.986,-595.418 462.016,-592.22 473.365,-589.514"/>
<polygon fill="midnightblue" stroke="midnightblue" points="369.673,-622.975 362.056,-630.339 372.603,-629.333 369.673,-622.975"/>
</g>
<!-- Node21 -->
<g id="node21" class="node"><title>Node21</title>
<g id="a_node21"><a xlink:href="class_ogre_1_1_metal_depth_texture_target.html" target="_top" xlink:title="Ogre::MetalDepthTextureTarget">
<polygon fill="none" stroke="black" points="443.5,-532.5 443.5,-551.5 598.5,-551.5 598.5,-532.5 443.5,-532.5"/>
<text text-anchor="middle" x="521" y="-539.5" font-family="Helvetica,sans-Serif" font-size="10.00">Ogre::MetalDepthTextureTarget</text>
</a>
</g>
</g>
<!-- Node10&#45;&gt;Node21 -->
<g id="edge20" class="edge"><title>Node10&#45;&gt;Node21</title>
<path fill="none" stroke="midnightblue" d="M358.227,-622.78C376.255,-604.682 407.055,-576.705 439,-561 446.907,-557.113 455.645,-553.999 464.369,-551.511"/>
<polygon fill="midnightblue" stroke="midnightblue" points="355.354,-620.714 350.885,-630.32 360.369,-625.597 355.354,-620.714"/>
</g>
<!-- Node22 -->
<g id="node22" class="node"><title>Node22</title>
<g id="a_node22"><a xlink:href="class_ogre_1_1_metal_null_texture_target.html" target="_top" xlink:title="Ogre::MetalNullTextureTarget">
<polygon fill="none" stroke="black" points="448,-494.5 448,-513.5 594,-513.5 594,-494.5 448,-494.5"/>
<text text-anchor="middle" x="521" y="-501.5" font-family="Helvetica,sans-Serif" font-size="10.00">Ogre::MetalNullTextureTarget</text>
</a>
</g>
</g>
<!-- Node10&#45;&gt;Node22 -->
<g id="edge21" class="edge"><title>Node10&#45;&gt;Node22</title>
<path fill="none" stroke="midnightblue" d="M352.12,-621.413C367.38,-595.223 398.82,-547.883 439,-523 445.263,-519.121 452.245,-516.034 459.411,-513.577"/>
<polygon fill="midnightblue" stroke="midnightblue" points="348.956,-619.897 347.079,-630.324 355.049,-623.344 348.956,-619.897"/>
</g>
<!-- Node23 -->
<g id="node23" class="node"><title>Node23</title>
<g id="a_node23"><a xlink:href="class_ogre_1_1_metal_render_texture.html" target="_top" xlink:title="Ogre::MetalRenderTexture">
<polygon fill="none" stroke="black" points="455,-456.5 455,-475.5 587,-475.5 587,-456.5 455,-456.5"/>
<text text-anchor="middle" x="521" y="-463.5" font-family="Helvetica,sans-Serif" font-size="10.00">Ogre::MetalRenderTexture</text>
</a>
</g>
</g>
<!-- Node10&#45;&gt;Node23 -->
<g id="edge22" class="edge"><title>Node10&#45;&gt;Node23</title>
<path fill="none" stroke="midnightblue" d="M348.507,-620.664C360.717,-587.463 390.31,-519.834 439,-485 444.404,-481.134 450.481,-478.044 456.815,-475.576"/>
<polygon fill="midnightblue" stroke="midnightblue" points="345.187,-619.554 345.152,-630.148 351.787,-621.888 345.187,-619.554"/>
</g>
<!-- Node24 -->
<g id="node24" class="node"><title>Node24</title>
<g id="a_node24"><a xlink:href="class_ogre_1_1_n_u_l_l_render_texture.html" target="_top" xlink:title="Ogre::NULLRenderTexture">
<polygon fill="none" stroke="black" points="454,-418.5 454,-437.5 588,-437.5 588,-418.5 454,-418.5"/>
<text text-anchor="middle" x="521" y="-425.5" font-family="Helvetica,sans-Serif" font-size="10.00">Ogre::NULLRenderTexture</text>
</a>
</g>
</g>
<!-- Node10&#45;&gt;Node24 -->
<g id="edge23" class="edge"><title>Node10&#45;&gt;Node24</title>
<path fill="none" stroke="midnightblue" d="M346.09,-620.177C355.303,-580.734 381.523,-492.325 439,-447 443.877,-443.154 449.401,-440.064 455.217,-437.585"/>
<polygon fill="midnightblue" stroke="midnightblue" points="342.63,-619.613 343.888,-630.133 349.465,-621.125 342.63,-619.613"/>
</g>
<!-- Node18 -->
<g id="node18" class="node"><title>Node18</title>
<g id="a_node18"><a xlink:href="class_ogre_1_1_g_l3_plus_f_b_o_render_texture.html" target="_top" xlink:title="RenderTexture for GL FBO. ">
<polygon fill="none" stroke="black" points="639,-611.5 639,-630.5 805,-630.5 805,-611.5 639,-611.5"/>
<text text-anchor="middle" x="722" y="-618.5" font-family="Helvetica,sans-Serif" font-size="10.00">Ogre::GL3PlusFBORenderTexture</text>
</a>
</g>
</g>
<!-- Node17&#45;&gt;Node18 -->
<g id="edge17" class="edge"><title>Node17&#45;&gt;Node18</title>
<path fill="none" stroke="midnightblue" d="M604.143,-619.238C615.656,-619.412 627.488,-619.59 638.998,-619.764"/>
<polygon fill="midnightblue" stroke="midnightblue" points="604.177,-615.739 594.125,-619.087 604.071,-622.738 604.177,-615.739"/>
</g>
<!-- Node20 -->
<g id="node20" class="node"><title>Node20</title>
<g id="a_node20"><a xlink:href="class_ogre_1_1_g_l_e_s2_copying_render_texture.html" target="_top" xlink:title="Ogre::GLES2CopyingRender\lTexture">
<polygon fill="none" stroke="black" points="650.5,-562 650.5,-592 793.5,-592 793.5,-562 650.5,-562"/>
<text text-anchor="start" x="658.5" y="-580" font-family="Helvetica,sans-Serif" font-size="10.00">Ogre::GLES2CopyingRender</text>
<text text-anchor="middle" x="722" y="-569" font-family="Helvetica,sans-Serif" font-size="10.00">Texture</text>
</a>
</g>
</g>
<!-- Node19&#45;&gt;Node20 -->
<g id="edge19" class="edge"><title>Node19&#45;&gt;Node20</title>
<path fill="none" stroke="midnightblue" d="M601.072,-578.808C617.365,-578.562 634.423,-578.305 650.393,-578.064"/>
<polygon fill="midnightblue" stroke="midnightblue" points="600.988,-575.309 591.042,-578.959 601.094,-582.308 600.988,-575.309"/>
</g>
<!-- Node26 -->
<g id="node26" class="node"><title>Node26</title>
<g id="a_node26"><a xlink:href="class_ogre_1_1_cocoa_window.html" target="_top" xlink:title="Ogre::CocoaWindow">
<polygon fill="none" stroke="black" points="467.5,-380.5 467.5,-399.5 574.5,-399.5 574.5,-380.5 467.5,-380.5"/>
<text text-anchor="middle" x="521" y="-387.5" font-family="Helvetica,sans-Serif" font-size="10.00">Ogre::CocoaWindow</text>
</a>
</g>
</g>
<!-- Node25&#45;&gt;Node26 -->
<g id="edge25" class="edge"><title>Node25&#45;&gt;Node26</title>
<path fill="none" stroke="midnightblue" d="M348.778,-238.391C361.251,-271.105 391.043,-337.009 439,-371 447.367,-376.93 457.323,-381.033 467.344,-383.865"/>
<polygon fill="midnightblue" stroke="midnightblue" points="351.94,-236.847 345.211,-228.663 345.368,-239.257 351.94,-236.847"/>
</g>
<!-- Node27 -->
<g id="node27" class="node"><title>Node27</title>
<g id="a_node27"><a xlink:href="class_ogre_1_1_d3_d11_render_window_base.html" target="_top" xlink:title="Ogre::D3D11RenderWindowBase">
<polygon fill="none" stroke="black" points="439,-342.5 439,-361.5 603,-361.5 603,-342.5 439,-342.5"/>
<text text-anchor="middle" x="521" y="-349.5" font-family="Helvetica,sans-Serif" font-size="10.00">Ogre::D3D11RenderWindowBase</text>
</a>
</g>
</g>
<!-- Node25&#45;&gt;Node27 -->
<g id="edge26" class="edge"><title>Node25&#45;&gt;Node27</title>
<path fill="none" stroke="midnightblue" d="M352.472,-237.488C367.965,-263.08 399.468,-308.866 439,-333 445.411,-336.914 452.559,-340.021 459.881,-342.489"/>
<polygon fill="midnightblue" stroke="midnightblue" points="355.422,-235.601 347.335,-228.756 349.389,-239.15 355.422,-235.601"/>
</g>
<!-- Node29 -->
<g id="node29" class="node"><title>Node29</title>
<g id="a_node29"><a xlink:href="class_ogre_1_1_d3_d9_render_window.html" target="_top" xlink:title="Ogre::D3D9RenderWindow">
<polygon fill="none" stroke="black" points="453,-304.5 453,-323.5 589,-323.5 589,-304.5 453,-304.5"/>
<text text-anchor="middle" x="521" y="-311.5" font-family="Helvetica,sans-Serif" font-size="10.00">Ogre::D3D9RenderWindow</text>
</a>
</g>
</g>
<!-- Node25&#45;&gt;Node29 -->
<g id="edge28" class="edge"><title>Node25&#45;&gt;Node29</title>
<path fill="none" stroke="midnightblue" d="M358.646,-235.818C376.822,-253.215 407.556,-279.908 439,-295 447.074,-298.875 455.988,-301.988 464.861,-304.48"/>
<polygon fill="midnightblue" stroke="midnightblue" points="360.817,-233.046 351.221,-228.554 355.922,-238.049 360.817,-233.046"/>
</g>
<!-- Node30 -->
<g id="node30" class="node"><title>Node30</title>
<g id="a_node30"><a xlink:href="class_ogre_1_1_e_g_l_window.html" target="_top" xlink:title="Ogre::EGLWindow">
<polygon fill="none" stroke="black" points="472,-266.5 472,-285.5 570,-285.5 570,-266.5 472,-266.5"/>
<text text-anchor="middle" x="521" y="-273.5" font-family="Helvetica,sans-Serif" font-size="10.00">Ogre::EGLWindow</text>
</a>
</g>
</g>
<!-- Node25&#45;&gt;Node30 -->
<g id="edge29" class="edge"><title>Node25&#45;&gt;Node30</title>
<path fill="none" stroke="midnightblue" d="M372.923,-232.422C391.778,-240.276 416.501,-249.994 439,-257 450.309,-260.522 462.683,-263.737 474.281,-266.48"/>
<polygon fill="midnightblue" stroke="midnightblue" points="374.215,-229.168 363.641,-228.509 371.496,-235.619 374.215,-229.168"/>
</g>
<!-- Node35 -->
<g id="node35" class="node"><title>Node35</title>
<g id="a_node35"><a xlink:href="class_ogre_1_1_g_l_x_window.html" target="_top" xlink:title="Ogre::GLXWindow">
<polygon fill="none" stroke="black" points="472,-228.5 472,-247.5 570,-247.5 570,-228.5 472,-228.5"/>
<text text-anchor="middle" x="521" y="-235.5" font-family="Helvetica,sans-Serif" font-size="10.00">Ogre::GLXWindow</text>
</a>
</g>
</g>
<!-- Node25&#45;&gt;Node35 -->
<g id="edge34" class="edge"><title>Node25&#45;&gt;Node35</title>
<path fill="none" stroke="midnightblue" d="M406.473,-225.882C428.109,-228.191 451.844,-230.725 471.992,-232.876"/>
<polygon fill="midnightblue" stroke="midnightblue" points="406.688,-222.385 396.373,-224.804 405.945,-229.346 406.688,-222.385"/>
</g>
<!-- Node36 -->
<g id="node36" class="node"><title>Node36</title>
<g id="a_node36"><a xlink:href="class_ogre_1_1_g_t_k_window.html" target="_top" xlink:title="Ogre::GTKWindow">
<polygon fill="none" stroke="black" points="471.5,-190.5 471.5,-209.5 570.5,-209.5 570.5,-190.5 471.5,-190.5"/>
<text text-anchor="middle" x="521" y="-197.5" font-family="Helvetica,sans-Serif" font-size="10.00">Ogre::GTKWindow</text>
</a>
</g>
</g>
<!-- Node25&#45;&gt;Node36 -->
<g id="edge35" class="edge"><title>Node25&#45;&gt;Node36</title>
<path fill="none" stroke="midnightblue" d="M406.385,-212.127C427.833,-209.838 451.351,-207.328 471.397,-205.188"/>
<polygon fill="midnightblue" stroke="midnightblue" points="405.945,-208.654 396.373,-213.196 406.688,-215.615 405.945,-208.654"/>
</g>
<!-- Node37 -->
<g id="node37" class="node"><title>Node37</title>
<g id="a_node37"><a xlink:href="class_ogre_1_1_metal_render_window.html" target="_top" xlink:title="Ogre::MetalRenderWindow">
<polygon fill="none" stroke="black" points="454,-152.5 454,-171.5 588,-171.5 588,-152.5 454,-152.5"/>
<text text-anchor="middle" x="521" y="-159.5" font-family="Helvetica,sans-Serif" font-size="10.00">Ogre::MetalRenderWindow</text>
</a>
</g>
</g>
<!-- Node25&#45;&gt;Node37 -->
<g id="edge36" class="edge"><title>Node25&#45;&gt;Node37</title>
<path fill="none" stroke="midnightblue" d="M372.923,-205.578C391.778,-197.724 416.501,-188.006 439,-181 450.309,-177.478 462.683,-174.263 474.281,-171.52"/>
<polygon fill="midnightblue" stroke="midnightblue" points="371.496,-202.381 363.641,-209.491 374.215,-208.832 371.496,-202.381"/>
</g>
<!-- Node38 -->
<g id="node38" class="node"><title>Node38</title>
<g id="a_node38"><a xlink:href="class_ogre_1_1_na_cl_window.html" target="_top" xlink:title="Ogre::NaClWindow">
<polygon fill="none" stroke="black" points="470.5,-114.5 470.5,-133.5 571.5,-133.5 571.5,-114.5 470.5,-114.5"/>
<text text-anchor="middle" x="521" y="-121.5" font-family="Helvetica,sans-Serif" font-size="10.00">Ogre::NaClWindow</text>
</a>
</g>
</g>
<!-- Node25&#45;&gt;Node38 -->
<g id="edge37" class="edge"><title>Node25&#45;&gt;Node38</title>
<path fill="none" stroke="midnightblue" d="M358.646,-202.182C376.822,-184.785 407.556,-158.092 439,-143 448.766,-138.312 459.763,-134.741 470.43,-132.033"/>
<polygon fill="midnightblue" stroke="midnightblue" points="355.922,-199.951 351.221,-209.446 360.817,-204.954 355.922,-199.951"/>
</g>
<!-- Node39 -->
<g id="node39" class="node"><title>Node39</title>
<g id="a_node39"><a xlink:href="class_ogre_1_1_n_u_l_l_render_window.html" target="_top" xlink:title="Ogre::NULLRenderWindow">
<polygon fill="none" stroke="black" points="453,-76.5 453,-95.5 589,-95.5 589,-76.5 453,-76.5"/>
<text text-anchor="middle" x="521" y="-83.5" font-family="Helvetica,sans-Serif" font-size="10.00">Ogre::NULLRenderWindow</text>
</a>
</g>
</g>
<!-- Node25&#45;&gt;Node39 -->
<g id="edge38" class="edge"><title>Node25&#45;&gt;Node39</title>
<path fill="none" stroke="midnightblue" d="M352.472,-200.512C367.965,-174.92 399.468,-129.134 439,-105 445.411,-101.086 452.559,-97.9786 459.881,-95.5109"/>
<polygon fill="midnightblue" stroke="midnightblue" points="349.389,-198.85 347.335,-209.244 355.422,-202.399 349.389,-198.85"/>
</g>
<!-- Node40 -->
<g id="node40" class="node"><title>Node40</title>
<g id="a_node40"><a xlink:href="class_ogre_1_1_s_d_l_window.html" target="_top" xlink:title="Ogre::SDLWindow">
<polygon fill="none" stroke="black" points="472,-38.5 472,-57.5 570,-57.5 570,-38.5 472,-38.5"/>
<text text-anchor="middle" x="521" y="-45.5" font-family="Helvetica,sans-Serif" font-size="10.00">Ogre::SDLWindow</text>
</a>
</g>
</g>
<!-- Node25&#45;&gt;Node40 -->
<g id="edge39" class="edge"><title>Node25&#45;&gt;Node40</title>
<path fill="none" stroke="midnightblue" d="M348.778,-199.609C361.251,-166.895 391.043,-100.991 439,-67 448.545,-60.2345 460.159,-55.8481 471.577,-53.0126"/>
<polygon fill="midnightblue" stroke="midnightblue" points="345.368,-198.743 345.211,-209.337 351.94,-201.153 345.368,-198.743"/>
</g>
<!-- Node41 -->
<g id="node41" class="node"><title>Node41</title>
<g id="a_node41"><a xlink:href="class_ogre_1_1_win32_window.html" target="_top" xlink:title="Ogre::Win32Window">
<polygon fill="none" stroke="black" points="467.5,-0.5 467.5,-19.5 574.5,-19.5 574.5,-0.5 467.5,-0.5"/>
<text text-anchor="middle" x="521" y="-7.5" font-family="Helvetica,sans-Serif" font-size="10.00">Ogre::Win32Window</text>
</a>
</g>
</g>
<!-- Node25&#45;&gt;Node41 -->
<g id="edge40" class="edge"><title>Node25&#45;&gt;Node41</title>
<path fill="none" stroke="midnightblue" d="M346.247,-199.229C355.688,-160.265 382.216,-73.4889 439,-29 447.186,-22.5861 457.175,-18.2771 467.305,-15.3963"/>
<polygon fill="midnightblue" stroke="midnightblue" points="342.765,-198.753 343.938,-209.283 349.588,-200.32 342.765,-198.753"/>
</g>
<!-- Node28 -->
<g id="node28" class="node"><title>Node28</title>
<g id="a_node28"><a xlink:href="class_ogre_1_1_d3_d11_render_window_swap_chain_based.html" target="_top" xlink:title="Ogre::D3D11RenderWindowSwap\lChainBased">
<polygon fill="none" stroke="black" points="639,-343 639,-373 805,-373 805,-343 639,-343"/>
<text text-anchor="start" x="647" y="-361" font-family="Helvetica,sans-Serif" font-size="10.00">Ogre::D3D11RenderWindowSwap</text>
<text text-anchor="middle" x="722" y="-350" font-family="Helvetica,sans-Serif" font-size="10.00">ChainBased</text>
</a>
</g>
</g>
<!-- Node27&#45;&gt;Node28 -->
<g id="edge27" class="edge"><title>Node27&#45;&gt;Node28</title>
<path fill="none" stroke="midnightblue" d="M613.458,-354.758C621.89,-355.012 630.399,-355.268 638.741,-355.52"/>
<polygon fill="midnightblue" stroke="midnightblue" points="613.329,-351.252 603.228,-354.449 613.118,-358.249 613.329,-351.252"/>
</g>
<!-- Node31 -->
<g id="node31" class="node"><title>Node31</title>
<g id="a_node31"><a xlink:href="class_ogre_1_1_android_e_g_l_window.html" target="_top" xlink:title="Ogre::AndroidEGLWindow">
<polygon fill="none" stroke="black" points="656.5,-304.5 656.5,-323.5 787.5,-323.5 787.5,-304.5 656.5,-304.5"/>
<text text-anchor="middle" x="722" y="-311.5" font-family="Helvetica,sans-Serif" font-size="10.00">Ogre::AndroidEGLWindow</text>
</a>
</g>
</g>
<!-- Node30&#45;&gt;Node31 -->
<g id="edge30" class="edge"><title>Node30&#45;&gt;Node31</title>
<path fill="none" stroke="midnightblue" d="M580.131,-287.1C609.009,-292.615 643.545,-299.21 671.193,-304.489"/>
<polygon fill="midnightblue" stroke="midnightblue" points="580.651,-283.637 570.172,-285.199 579.338,-290.512 580.651,-283.637"/>
</g>
<!-- Node32 -->
<g id="node32" class="node"><title>Node32</title>
<g id="a_node32"><a xlink:href="class_ogre_1_1_emscripten_e_g_l_window.html" target="_top" xlink:title="Ogre::EmscriptenEGLWindow">
<polygon fill="none" stroke="black" points="648,-266.5 648,-285.5 796,-285.5 796,-266.5 648,-266.5"/>
<text text-anchor="middle" x="722" y="-273.5" font-family="Helvetica,sans-Serif" font-size="10.00">Ogre::EmscriptenEGLWindow</text>
</a>
</g>
</g>
<!-- Node30&#45;&gt;Node32 -->
<g id="edge31" class="edge"><title>Node30&#45;&gt;Node32</title>
<path fill="none" stroke="midnightblue" d="M580.259,-276C601.339,-276 625.421,-276 647.633,-276"/>
<polygon fill="midnightblue" stroke="midnightblue" points="580.172,-272.5 570.172,-276 580.172,-279.5 580.172,-272.5"/>
</g>
<!-- Node33 -->
<g id="node33" class="node"><title>Node33</title>
<g id="a_node33"><a xlink:href="class_ogre_1_1_win32_e_g_l_window.html" target="_top" xlink:title="Ogre::Win32EGLWindow">
<polygon fill="none" stroke="black" points="659,-228.5 659,-247.5 785,-247.5 785,-228.5 659,-228.5"/>
<text text-anchor="middle" x="722" y="-235.5" font-family="Helvetica,sans-Serif" font-size="10.00">Ogre::Win32EGLWindow</text>
</a>
</g>
</g>
<!-- Node30&#45;&gt;Node33 -->
<g id="edge32" class="edge"><title>Node30&#45;&gt;Node33</title>
<path fill="none" stroke="midnightblue" d="M580.131,-264.9C609.009,-259.385 643.545,-252.79 671.193,-247.511"/>
<polygon fill="midnightblue" stroke="midnightblue" points="579.338,-261.488 570.172,-266.801 580.651,-268.363 579.338,-261.488"/>
</g>
<!-- Node34 -->
<g id="node34" class="node"><title>Node34</title>
<g id="a_node34"><a xlink:href="class_ogre_1_1_x11_e_g_l_window.html" target="_top" xlink:title="Ogre::X11EGLWindow">
<polygon fill="none" stroke="black" points="664,-190.5 664,-209.5 780,-209.5 780,-190.5 664,-190.5"/>
<text text-anchor="middle" x="722" y="-197.5" font-family="Helvetica,sans-Serif" font-size="10.00">Ogre::X11EGLWindow</text>
</a>
</g>
</g>
<!-- Node30&#45;&gt;Node34 -->
<g id="edge33" class="edge"><title>Node30&#45;&gt;Node34</title>
<path fill="none" stroke="midnightblue" d="M579.853,-266.824C587.92,-264.304 595.877,-261.092 603,-257 623.173,-245.412 618.811,-230.561 639,-219 646.609,-214.643 655.155,-211.285 663.782,-208.696"/>
<polygon fill="midnightblue" stroke="midnightblue" points="578.699,-263.512 570.006,-269.568 580.578,-270.255 578.699,-263.512"/>
</g>
</g>
</svg>
