<?xml version="1.0" encoding="UTF-8" standalone="no"?>
<!DOCTYPE svg PUBLIC "-//W3C//DTD SVG 1.1//EN"
 "http://www.w3.org/Graphics/SVG/1.1/DTD/svg11.dtd">
<!-- Generated by graphviz version 2.40.1 (20161225.0304)
 -->
<!-- Title: Ogre::ForwardClustered Pages: 1 -->
<svg width="306pt" height="140pt"
 viewBox="0.00 0.00 306.00 140.00" xmlns="http://www.w3.org/2000/svg" xmlns:xlink="http://www.w3.org/1999/xlink">
<g id="graph0" class="graph" transform="scale(1 1) rotate(0) translate(4 136)">
<title>Ogre::ForwardClustered</title>
<!-- Node0 -->
<g id="node1" class="node">
<title>Node0</title>
<polygon fill="#bfbfbf" stroke="#000000" points="78,-.5 78,-19.5 210,-19.5 210,-.5 78,-.5"/>
<text text-anchor="middle" x="144" y="-7.5" font-family="Helvetica,sans-Serif" font-size="10.00" fill="#000000">Ogre::ForwardClustered</text>
</g>
<!-- Node1 -->
<g id="node2" class="node">
<title>Node1</title>
<g id="a_node2"><a xlink:href="class_ogre_1_1_forward_plus_base.html" target="_top" xlink:title="ForwardPlusBase. ">
<polygon fill="none" stroke="#000000" points="0,-56.5 0,-75.5 130,-75.5 130,-56.5 0,-56.5"/>
<text text-anchor="middle" x="65" y="-63.5" font-family="Helvetica,sans-Serif" font-size="10.00" fill="#000000">Ogre::ForwardPlusBase</text>
</a>
</g>
</g>
<!-- Node1&#45;&gt;Node0 -->
<g id="edge1" class="edge">
<title>Node1&#45;&gt;Node0</title>
<path fill="none" stroke="#191970" d="M87.2756,-50.2097C101.1505,-40.3743 118.5515,-28.0394 130.3969,-19.6427"/>
<polygon fill="#191970" stroke="#191970" points="84.8949,-47.6071 78.7607,-56.2455 88.9431,-53.3178 84.8949,-47.6071"/>
</g>
<!-- Node2 -->
<g id="node3" class="node">
<title>Node2</title>
<g id="a_node3"><a xlink:href="class_ogre_1_1_allocated_object.html" target="_top" xlink:title="Superclass for all objects that wish to use custom memory allocators when their new / delete operator...">
<polygon fill="none" stroke="#000000" points="32,-112.5 32,-131.5 98,-131.5 98,-112.5 32,-112.5"/>
<text text-anchor="middle" x="65" y="-119.5" font-family="Helvetica,sans-Serif" font-size="10.00" fill="#000000">HlmsAlloc</text>
</a>
</g>
</g>
<!-- Node2&#45;&gt;Node1 -->
<g id="edge2" class="edge">
<title>Node2&#45;&gt;Node1</title>
<path fill="none" stroke="#191970" d="M65,-102.1575C65,-93.155 65,-82.9199 65,-75.6427"/>
<polygon fill="#191970" stroke="#191970" points="61.5001,-102.2455 65,-112.2455 68.5001,-102.2456 61.5001,-102.2455"/>
</g>
<!-- Node3 -->
<g id="node4" class="node">
<title>Node3</title>
<g id="a_node4"><a xlink:href="class_ogre_1_1_uniform_scalable_task.html" target="_top" xlink:title="A uniform task is a highly parallelizable task that can be divided in many threads where all threads ...">
<polygon fill="none" stroke="#000000" points="148,-56.5 148,-75.5 298,-75.5 298,-56.5 148,-56.5"/>
<text text-anchor="middle" x="223" y="-63.5" font-family="Helvetica,sans-Serif" font-size="10.00" fill="#000000">Ogre::UniformScalableTask</text>
</a>
</g>
</g>
<!-- Node3&#45;&gt;Node0 -->
<g id="edge3" class="edge">
<title>Node3&#45;&gt;Node0</title>
<path fill="none" stroke="#191970" d="M200.7244,-50.2097C186.8495,-40.3743 169.4485,-28.0394 157.6031,-19.6427"/>
<polygon fill="#191970" stroke="#191970" points="199.0569,-53.3178 209.2393,-56.2455 203.1051,-47.6071 199.0569,-53.3178"/>
</g>
</g>
</svg>
