<?xml version="1.0" encoding="UTF-8" standalone="no"?>
<!DOCTYPE svg PUBLIC "-//W3C//DTD SVG 1.1//EN"
 "http://www.w3.org/Graphics/SVG/1.1/DTD/svg11.dtd">
<!-- Generated by graphviz version 2.40.1 (20161225.0304)
 -->
<!-- Title: Ogre::RTShader::GLSLESProgramProcessor Pages: 1 -->
<svg width="195pt" height="151pt"
 viewBox="0.00 0.00 195.00 151.00" xmlns="http://www.w3.org/2000/svg" xmlns:xlink="http://www.w3.org/1999/xlink">
<g id="graph0" class="graph" transform="scale(1 1) rotate(0) translate(4 147)">
<title>Ogre::RTShader::GLSLESProgramProcessor</title>
<!-- Node0 -->
<g id="node1" class="node">
<title>Node0</title>
<polygon fill="#bfbfbf" stroke="#000000" points="5.5,-.5 5.5,-30.5 181.5,-30.5 181.5,-.5 5.5,-.5"/>
<text text-anchor="start" x="13.5" y="-18.5" font-family="Helvetica,sans-Serif" font-size="10.00" fill="#000000">Ogre::RTShader::GLSLESProgram</text>
<text text-anchor="middle" x="93.5" y="-7.5" font-family="Helvetica,sans-Serif" font-size="10.00" fill="#000000">Processor</text>
</g>
<!-- Node1 -->
<g id="node2" class="node">
<title>Node1</title>
<g id="a_node2"><a xlink:href="class_ogre_1_1_r_t_shader_1_1_program_processor.html" target="_top" xlink:title="A class that provides extra processing services on CPU based programs. ">
<polygon fill="none" stroke="#000000" points="0,-67.5 0,-86.5 187,-86.5 187,-67.5 0,-67.5"/>
<text text-anchor="middle" x="93.5" y="-74.5" font-family="Helvetica,sans-Serif" font-size="10.00" fill="#000000">Ogre::RTShader::ProgramProcessor</text>
</a>
</g>
</g>
<!-- Node1&#45;&gt;Node0 -->
<g id="edge1" class="edge">
<title>Node1&#45;&gt;Node0</title>
<path fill="none" stroke="#191970" d="M93.5,-57.3693C93.5,-48.681 93.5,-38.6241 93.5,-30.5446"/>
<polygon fill="#191970" stroke="#191970" points="90.0001,-57.3906 93.5,-67.3906 97.0001,-57.3907 90.0001,-57.3906"/>
</g>
<!-- Node2 -->
<g id="node3" class="node">
<title>Node2</title>
<g id="a_node3"><a xlink:href="class_ogre_1_1_allocated_object.html" target="_top" xlink:title="Superclass for all objects that wish to use custom memory allocators when their new / delete operator...">
<polygon fill="none" stroke="#000000" points="31.5,-123.5 31.5,-142.5 155.5,-142.5 155.5,-123.5 31.5,-123.5"/>
<text text-anchor="middle" x="93.5" y="-130.5" font-family="Helvetica,sans-Serif" font-size="10.00" fill="#000000">RTShaderSystemAlloc</text>
</a>
</g>
</g>
<!-- Node2&#45;&gt;Node1 -->
<g id="edge2" class="edge">
<title>Node2&#45;&gt;Node1</title>
<path fill="none" stroke="#191970" d="M93.5,-113.1575C93.5,-104.155 93.5,-93.9199 93.5,-86.6427"/>
<polygon fill="#191970" stroke="#191970" points="90.0001,-113.2455 93.5,-123.2455 97.0001,-113.2456 90.0001,-113.2455"/>
</g>
</g>
</svg>
