<?xml version="1.0" encoding="UTF-8" standalone="no"?>
<!DOCTYPE svg PUBLIC "-//W3C//DTD SVG 1.1//EN"
 "http://www.w3.org/Graphics/SVG/1.1/DTD/svg11.dtd">
<!-- Generated by graphviz version 2.38.0 (20140413.2041)
 -->
<!-- Title: Ogre::TextureManager Pages: 1 -->
<svg width="606pt" height="218pt"
 viewBox="0.00 0.00 606.00 218.00" xmlns="http://www.w3.org/2000/svg" xmlns:xlink="http://www.w3.org/1999/xlink">
<g id="graph0" class="graph" transform="scale(1 1) rotate(0) translate(4 214)">
<title>Ogre::TextureManager</title>
<!-- Node1 -->
<g id="node1" class="node"><title>Node1</title>
<polygon fill="#bfbfbf" stroke="black" points="296,-95.5 296,-114.5 410,-114.5 410,-95.5 296,-95.5"/>
<text text-anchor="middle" x="353" y="-102.5" font-family="Helvetica,sans-Serif" font-size="10.00">Ogre::TextureManager</text>
</g>
<!-- Node6 -->
<g id="node6" class="node"><title>Node6</title>
<g id="a_node6"><a xlink:href="class_ogre_1_1_d3_d11_texture_manager.html" target="_top" xlink:title="Ogre::D3D11TextureManager">
<polygon fill="none" stroke="black" points="449.5,-190.5 449.5,-209.5 594.5,-209.5 594.5,-190.5 449.5,-190.5"/>
<text text-anchor="middle" x="522" y="-197.5" font-family="Helvetica,sans-Serif" font-size="10.00">Ogre::D3D11TextureManager</text>
</a>
</g>
</g>
<!-- Node1&#45;&gt;Node6 -->
<g id="edge5" class="edge"><title>Node1&#45;&gt;Node6</title>
<path fill="none" stroke="midnightblue" d="M369.669,-121.746C386.808,-139.083 415.876,-165.725 446,-181 453.547,-184.827 461.922,-187.921 470.26,-190.411"/>
<polygon fill="midnightblue" stroke="midnightblue" points="372.139,-119.266 362.672,-114.51 367.107,-124.132 372.139,-119.266"/>
</g>
<!-- Node7 -->
<g id="node7" class="node"><title>Node7</title>
<g id="a_node7"><a xlink:href="class_ogre_1_1_d3_d9_texture_manager.html" target="_top" xlink:title="Ogre::D3D9TextureManager">
<polygon fill="none" stroke="black" points="452,-152.5 452,-171.5 592,-171.5 592,-152.5 452,-152.5"/>
<text text-anchor="middle" x="522" y="-159.5" font-family="Helvetica,sans-Serif" font-size="10.00">Ogre::D3D9TextureManager</text>
</a>
</g>
</g>
<!-- Node1&#45;&gt;Node7 -->
<g id="edge6" class="edge"><title>Node1&#45;&gt;Node7</title>
<path fill="none" stroke="midnightblue" d="M384.148,-118.737C401.913,-126.507 424.961,-136.03 446,-143 456.456,-146.464 467.908,-149.658 478.646,-152.4"/>
<polygon fill="midnightblue" stroke="midnightblue" points="385.429,-115.477 374.869,-114.629 382.595,-121.878 385.429,-115.477"/>
</g>
<!-- Node8 -->
<g id="node8" class="node"><title>Node8</title>
<g id="a_node8"><a xlink:href="class_ogre_1_1_g_l3_plus_texture_manager.html" target="_top" xlink:title="GL3Plus&#45;specific implementation of a TextureManager. ">
<polygon fill="none" stroke="black" points="446,-114.5 446,-133.5 598,-133.5 598,-114.5 446,-114.5"/>
<text text-anchor="middle" x="522" y="-121.5" font-family="Helvetica,sans-Serif" font-size="10.00">Ogre::GL3PlusTextureManager</text>
</a>
</g>
</g>
<!-- Node1&#45;&gt;Node8 -->
<g id="edge7" class="edge"><title>Node1&#45;&gt;Node8</title>
<path fill="none" stroke="midnightblue" d="M420.186,-112.53C428.597,-113.487 437.252,-114.472 445.791,-115.443"/>
<polygon fill="midnightblue" stroke="midnightblue" points="420.405,-109.033 410.073,-111.38 419.613,-115.988 420.405,-109.033"/>
</g>
<!-- Node9 -->
<g id="node9" class="node"><title>Node9</title>
<g id="a_node9"><a xlink:href="class_ogre_1_1_g_l_e_s2_texture_manager.html" target="_top" xlink:title="GL ES&#45;specific implementation of a TextureManager. ">
<polygon fill="none" stroke="black" points="449,-76.5 449,-95.5 595,-95.5 595,-76.5 449,-76.5"/>
<text text-anchor="middle" x="522" y="-83.5" font-family="Helvetica,sans-Serif" font-size="10.00">Ogre::GLES2TextureManager</text>
</a>
</g>
</g>
<!-- Node1&#45;&gt;Node9 -->
<g id="edge8" class="edge"><title>Node1&#45;&gt;Node9</title>
<path fill="none" stroke="midnightblue" d="M420.133,-97.4758C429.538,-96.4059 439.25,-95.3009 448.763,-94.2185"/>
<polygon fill="midnightblue" stroke="midnightblue" points="419.613,-94.0123 410.073,-98.6204 420.405,-100.967 419.613,-94.0123"/>
</g>
<!-- Node10 -->
<g id="node10" class="node"><title>Node10</title>
<g id="a_node10"><a xlink:href="class_ogre_1_1_metal_texture_manager.html" target="_top" xlink:title="Ogre::MetalTextureManager">
<polygon fill="none" stroke="black" points="453,-38.5 453,-57.5 591,-57.5 591,-38.5 453,-38.5"/>
<text text-anchor="middle" x="522" y="-45.5" font-family="Helvetica,sans-Serif" font-size="10.00">Ogre::MetalTextureManager</text>
</a>
</g>
</g>
<!-- Node1&#45;&gt;Node10 -->
<g id="edge9" class="edge"><title>Node1&#45;&gt;Node10</title>
<path fill="none" stroke="midnightblue" d="M384.148,-91.2626C401.913,-83.4933 424.961,-73.9698 446,-67 456.456,-63.5362 467.908,-60.342 478.646,-57.6001"/>
<polygon fill="midnightblue" stroke="midnightblue" points="382.595,-88.1222 374.869,-95.371 385.429,-94.5229 382.595,-88.1222"/>
</g>
<!-- Node11 -->
<g id="node11" class="node"><title>Node11</title>
<g id="a_node11"><a xlink:href="class_ogre_1_1_n_u_l_l_texture_manager.html" target="_top" xlink:title="Ogre::NULLTextureManager">
<polygon fill="none" stroke="black" points="452,-0.5 452,-19.5 592,-19.5 592,-0.5 452,-0.5"/>
<text text-anchor="middle" x="522" y="-7.5" font-family="Helvetica,sans-Serif" font-size="10.00">Ogre::NULLTextureManager</text>
</a>
</g>
</g>
<!-- Node1&#45;&gt;Node11 -->
<g id="edge10" class="edge"><title>Node1&#45;&gt;Node11</title>
<path fill="none" stroke="midnightblue" d="M369.669,-88.2539C386.808,-70.9174 415.876,-44.2748 446,-29 453.547,-25.173 461.922,-22.0789 470.26,-19.5888"/>
<polygon fill="midnightblue" stroke="midnightblue" points="367.107,-85.8681 362.672,-95.4902 372.139,-90.7338 367.107,-85.8681"/>
</g>
<!-- Node2 -->
<g id="node2" class="node"><title>Node2</title>
<g id="a_node2"><a xlink:href="class_ogre_1_1_resource_manager.html" target="_top" xlink:title="Defines a generic resource handler. ">
<polygon fill="none" stroke="black" points="135.5,-117.5 135.5,-136.5 258.5,-136.5 258.5,-117.5 135.5,-117.5"/>
<text text-anchor="middle" x="197" y="-124.5" font-family="Helvetica,sans-Serif" font-size="10.00">Ogre::ResourceManager</text>
</a>
</g>
</g>
<!-- Node2&#45;&gt;Node1 -->
<g id="edge1" class="edge"><title>Node2&#45;&gt;Node1</title>
<path fill="none" stroke="midnightblue" d="M268.895,-116.872C277.844,-115.594 286.903,-114.3 295.585,-113.059"/>
<polygon fill="midnightblue" stroke="midnightblue" points="268.269,-113.426 258.865,-118.305 269.259,-120.356 268.269,-113.426"/>
</g>
<!-- Node3 -->
<g id="node3" class="node"><title>Node3</title>
<g id="a_node3"><a xlink:href="class_ogre_1_1_script_loader.html" target="_top" xlink:title="Abstract class defining the interface used by classes which wish to perform script loading to define ...">
<polygon fill="none" stroke="black" points="0,-136.5 0,-155.5 98,-155.5 98,-136.5 0,-136.5"/>
<text text-anchor="middle" x="49" y="-143.5" font-family="Helvetica,sans-Serif" font-size="10.00">Ogre::ScriptLoader</text>
</a>
</g>
</g>
<!-- Node3&#45;&gt;Node2 -->
<g id="edge2" class="edge"><title>Node3&#45;&gt;Node2</title>
<path fill="none" stroke="midnightblue" d="M108.146,-138.433C117.09,-137.269 126.345,-136.065 135.342,-134.894"/>
<polygon fill="midnightblue" stroke="midnightblue" points="107.675,-134.965 98.2105,-139.726 108.579,-141.906 107.675,-134.965"/>
</g>
<!-- Node4 -->
<g id="node4" class="node"><title>Node4</title>
<g id="a_node4"><a xlink:href="class_ogre_1_1_allocated_object.html" target="_top" xlink:title="Superclass for all objects that wish to use custom memory allocators when their new / delete operator...">
<polygon fill="none" stroke="black" points="9,-98.5 9,-117.5 89,-117.5 89,-98.5 9,-98.5"/>
<text text-anchor="middle" x="49" y="-105.5" font-family="Helvetica,sans-Serif" font-size="10.00">ResourceAlloc</text>
</a>
</g>
</g>
<!-- Node4&#45;&gt;Node2 -->
<g id="edge3" class="edge"><title>Node4&#45;&gt;Node2</title>
<path fill="none" stroke="midnightblue" d="M99.0738,-114.386C110.7,-115.899 123.237,-117.531 135.312,-119.102"/>
<polygon fill="midnightblue" stroke="midnightblue" points="99.4934,-110.911 89.1253,-113.092 98.59,-117.853 99.4934,-110.911"/>
</g>
<!-- Node5 -->
<g id="node5" class="node"><title>Node5</title>
<g id="a_node5"><a xlink:href="class_ogre_1_1_singleton.html" target="_top" xlink:title="Ogre::Singleton\&lt; Texture\lManager \&gt;">
<polygon fill="none" stroke="black" points="134,-68 134,-98 260,-98 260,-68 134,-68"/>
<text text-anchor="start" x="142" y="-86" font-family="Helvetica,sans-Serif" font-size="10.00">Ogre::Singleton&lt; Texture</text>
<text text-anchor="middle" x="197" y="-75" font-family="Helvetica,sans-Serif" font-size="10.00">Manager &gt;</text>
</a>
</g>
</g>
<!-- Node5&#45;&gt;Node1 -->
<g id="edge4" class="edge"><title>Node5&#45;&gt;Node1</title>
<path fill="none" stroke="midnightblue" d="M270.142,-93.3059C278.668,-94.5241 287.275,-95.7536 295.541,-96.9344"/>
<polygon fill="midnightblue" stroke="midnightblue" points="270.588,-89.8343 260.194,-91.8848 269.598,-96.764 270.588,-89.8343"/>
</g>
</g>
</svg>
