<?xml version="1.0" encoding="UTF-8" standalone="no"?>
<!DOCTYPE svg PUBLIC "-//W3C//DTD SVG 1.1//EN"
 "http://www.w3.org/Graphics/SVG/1.1/DTD/svg11.dtd">
<!-- Generated by graphviz version 2.40.1 (20161225.0304)
 -->
<!-- Title: Ogre::GpuProgram Pages: 1 -->
<svg width="750pt" height="325pt"
 viewBox="0.00 0.00 750.00 324.50" xmlns="http://www.w3.org/2000/svg" xmlns:xlink="http://www.w3.org/1999/xlink">
<g id="graph0" class="graph" transform="scale(1 1) rotate(0) translate(4 320.5)">
<title>Ogre::GpuProgram</title>
<!-- Node0 -->
<g id="node1" class="node">
<title>Node0</title>
<polygon fill="#bfbfbf" stroke="#000000" points="265,-211 265,-230 363,-230 363,-211 265,-211"/>
<text text-anchor="middle" x="314" y="-218" font-family="Helvetica,sans-Serif" font-size="10.00" fill="#000000">Ogre::GpuProgram</text>
</g>
<!-- Node4 -->
<g id="node5" class="node">
<title>Node4</title>
<g id="a_node5"><a xlink:href="class_ogre_1_1_d3_d9_gpu_program.html" target="_top" xlink:title="Direct3D implementation of a few things common to low&#45;level vertex &amp; fragment programs. ">
<polygon fill="none" stroke="#000000" points="408,-268 408,-287 532,-287 532,-268 408,-268"/>
<text text-anchor="middle" x="470" y="-275" font-family="Helvetica,sans-Serif" font-size="10.00" fill="#000000">Ogre::D3D9GpuProgram</text>
</a>
</g>
</g>
<!-- Node0&#45;&gt;Node4 -->
<g id="edge4" class="edge">
<title>Node0&#45;&gt;Node4</title>
<path fill="none" stroke="#191970" d="M342.2359,-234.4822C358.5616,-242.2206 379.6432,-251.6323 399,-258.5 408.861,-261.9987 419.6894,-265.2054 429.8538,-267.9483"/>
<polygon fill="#191970" stroke="#191970" points="343.7515,-231.3274 333.2221,-230.1512 340.7198,-237.6369 343.7515,-231.3274"/>
</g>
<!-- Node7 -->
<g id="node8" class="node">
<title>Node7</title>
<g id="a_node8"><a xlink:href="class_ogre_1_1_g_l3_plus_gpu_program.html" target="_top" xlink:title="Generalised low&#45;level GL program, can be applied to multiple types (eg ARB and NV) ...">
<polygon fill="none" stroke="#000000" points="402,-230 402,-249 538,-249 538,-230 402,-230"/>
<text text-anchor="middle" x="470" y="-237" font-family="Helvetica,sans-Serif" font-size="10.00" fill="#000000">Ogre::GL3PlusGpuProgram</text>
</a>
</g>
</g>
<!-- Node0&#45;&gt;Node7 -->
<g id="edge7" class="edge">
<title>Node0&#45;&gt;Node7</title>
<path fill="none" stroke="#191970" d="M373.308,-227.7234C382.6387,-228.8598 392.3486,-230.0425 401.8598,-231.2009"/>
<polygon fill="#191970" stroke="#191970" points="373.7092,-224.2465 363.3594,-226.5117 372.8628,-231.1951 373.7092,-224.2465"/>
</g>
<!-- Node8 -->
<g id="node9" class="node">
<title>Node8</title>
<g id="a_node9"><a xlink:href="class_ogre_1_1_g_l_e_s2_gpu_program.html" target="_top" xlink:title="Generalised low&#45;level GL program, can be applied to multiple types (eg ARB and NV) ...">
<polygon fill="none" stroke="#000000" points="405,-192 405,-211 535,-211 535,-192 405,-192"/>
<text text-anchor="middle" x="470" y="-199" font-family="Helvetica,sans-Serif" font-size="10.00" fill="#000000">Ogre::GLES2GpuProgram</text>
</a>
</g>
</g>
<!-- Node0&#45;&gt;Node8 -->
<g id="edge8" class="edge">
<title>Node0&#45;&gt;Node8</title>
<path fill="none" stroke="#191970" d="M373.4776,-213.2559C383.777,-212.0015 394.5337,-210.6914 404.9716,-209.4201"/>
<polygon fill="#191970" stroke="#191970" points="372.8628,-209.8049 363.3594,-214.4883 373.7092,-216.7535 372.8628,-209.8049"/>
</g>
<!-- Node10 -->
<g id="node11" class="node">
<title>Node10</title>
<g id="a_node11"><a xlink:href="class_ogre_1_1_high_level_gpu_program.html" target="_top" xlink:title="Abstract base class representing a high&#45;level program (a vertex or fragment program). ">
<polygon fill="none" stroke="#000000" points="399,-107 399,-126 541,-126 541,-107 399,-107"/>
<text text-anchor="middle" x="470" y="-114" font-family="Helvetica,sans-Serif" font-size="10.00" fill="#000000">Ogre::HighLevelGpuProgram</text>
</a>
</g>
</g>
<!-- Node0&#45;&gt;Node10 -->
<g id="edge10" class="edge">
<title>Node0&#45;&gt;Node10</title>
<path fill="none" stroke="#191970" d="M336.8544,-205.2637C369.4924,-183.505 428.5008,-144.1661 455.6383,-126.0745"/>
<polygon fill="#191970" stroke="#191970" points="334.7755,-202.4431 328.3965,-210.9023 338.6585,-208.2675 334.7755,-202.4431"/>
</g>
<!-- Node1 -->
<g id="node2" class="node">
<title>Node1</title>
<g id="a_node2"><a xlink:href="class_ogre_1_1_resource.html" target="_top" xlink:title="Abstract class representing a loadable resource (e.g. ">
<polygon fill="none" stroke="#000000" points="143,-211 143,-230 229,-230 229,-211 143,-211"/>
<text text-anchor="middle" x="186" y="-218" font-family="Helvetica,sans-Serif" font-size="10.00" fill="#000000">Ogre::Resource</text>
</a>
</g>
</g>
<!-- Node1&#45;&gt;Node0 -->
<g id="edge1" class="edge">
<title>Node1&#45;&gt;Node0</title>
<path fill="none" stroke="#191970" d="M239.4794,-220.5C247.932,-220.5 256.6364,-220.5 264.9808,-220.5"/>
<polygon fill="#191970" stroke="#191970" points="239.335,-217.0001 229.335,-220.5 239.3349,-224.0001 239.335,-217.0001"/>
</g>
<!-- Node2 -->
<g id="node3" class="node">
<title>Node2</title>
<g id="a_node3"><a xlink:href="class_ogre_1_1_string_interface.html" target="_top" xlink:title="Class defining the common interface which classes can use to present a reflection&#45;style, self&#45;defining parameter set to callers. ">
<polygon fill="none" stroke="#000000" points="0,-230 0,-249 107,-249 107,-230 0,-230"/>
<text text-anchor="middle" x="53.5" y="-237" font-family="Helvetica,sans-Serif" font-size="10.00" fill="#000000">Ogre::StringInterface</text>
</a>
</g>
</g>
<!-- Node2&#45;&gt;Node1 -->
<g id="edge2" class="edge">
<title>Node2&#45;&gt;Node1</title>
<path fill="none" stroke="#191970" d="M117.1703,-230.3699C125.8787,-229.1212 134.6466,-227.8639 142.8709,-226.6846"/>
<polygon fill="#191970" stroke="#191970" points="116.4128,-226.9427 107.0109,-231.8267 117.4065,-233.8718 116.4128,-226.9427"/>
</g>
<!-- Node3 -->
<g id="node4" class="node">
<title>Node3</title>
<g id="a_node4"><a xlink:href="class_ogre_1_1_allocated_object.html" target="_top" xlink:title="Superclass for all objects that wish to use custom memory allocators when their new / delete operator...">
<polygon fill="none" stroke="#000000" points="13.5,-192 13.5,-211 93.5,-211 93.5,-192 13.5,-192"/>
<text text-anchor="middle" x="53.5" y="-199" font-family="Helvetica,sans-Serif" font-size="10.00" fill="#000000">ResourceAlloc</text>
</a>
</g>
</g>
<!-- Node3&#45;&gt;Node1 -->
<g id="edge3" class="edge">
<title>Node3&#45;&gt;Node1</title>
<path fill="none" stroke="#191970" d="M103.7115,-208.7001C116.5821,-210.5457 130.312,-212.5146 142.795,-214.3046"/>
<polygon fill="#191970" stroke="#191970" points="104.0095,-205.2072 93.6139,-207.2522 103.0159,-212.1363 104.0095,-205.2072"/>
</g>
<!-- Node5 -->
<g id="node6" class="node">
<title>Node5</title>
<g id="a_node6"><a xlink:href="class_ogre_1_1_d3_d9_gpu_fragment_program.html" target="_top" xlink:title="Direct3D implementation of low&#45;level fragment programs. ">
<polygon fill="none" stroke="#000000" points="577,-297 577,-316 742,-316 742,-297 577,-297"/>
<text text-anchor="middle" x="659.5" y="-304" font-family="Helvetica,sans-Serif" font-size="10.00" fill="#000000">Ogre::D3D9GpuFragmentProgram</text>
</a>
</g>
</g>
<!-- Node4&#45;&gt;Node5 -->
<g id="edge5" class="edge">
<title>Node4&#45;&gt;Node5</title>
<path fill="none" stroke="#191970" d="M542.0248,-288.5223C560.2341,-291.3089 579.6334,-294.2777 597.3112,-296.983"/>
<polygon fill="#191970" stroke="#191970" points="542.4638,-285.0488 532.0494,-286.9957 541.4048,-291.9682 542.4638,-285.0488"/>
</g>
<!-- Node6 -->
<g id="node7" class="node">
<title>Node6</title>
<g id="a_node7"><a xlink:href="class_ogre_1_1_d3_d9_gpu_vertex_program.html" target="_top" xlink:title="Direct3D implementation of low&#45;level vertex programs. ">
<polygon fill="none" stroke="#000000" points="583.5,-259 583.5,-278 735.5,-278 735.5,-259 583.5,-259"/>
<text text-anchor="middle" x="659.5" y="-266" font-family="Helvetica,sans-Serif" font-size="10.00" fill="#000000">Ogre::D3D9GpuVertexProgram</text>
</a>
</g>
</g>
<!-- Node4&#45;&gt;Node6 -->
<g id="edge6" class="edge">
<title>Node4&#45;&gt;Node6</title>
<path fill="none" stroke="#191970" d="M542.2125,-274.0704C555.693,-273.4301 569.8197,-272.7592 583.4127,-272.1136"/>
<polygon fill="#191970" stroke="#191970" points="541.8721,-270.5825 532.0494,-274.5531 542.2042,-277.5746 541.8721,-270.5825"/>
</g>
<!-- Node9 -->
<g id="node10" class="node">
<title>Node9</title>
<g id="a_node10"><a xlink:href="class_ogre_1_1_g_l_s_l_e_s_gpu_program.html" target="_top" xlink:title="GLSL ES low level compiled shader object &#45; this class is used to get at the linked program object and...">
<polygon fill="none" stroke="#000000" points="591,-202 591,-221 728,-221 728,-202 591,-202"/>
<text text-anchor="middle" x="659.5" y="-209" font-family="Helvetica,sans-Serif" font-size="10.00" fill="#000000">Ogre::GLSLESGpuProgram</text>
</a>
</g>
</g>
<!-- Node8&#45;&gt;Node9 -->
<g id="edge9" class="edge">
<title>Node8&#45;&gt;Node9</title>
<path fill="none" stroke="#191970" d="M545.4793,-205.4831C560.489,-206.2751 576.1724,-207.1028 590.9355,-207.8818"/>
<polygon fill="#191970" stroke="#191970" points="545.3857,-201.9734 535.2151,-204.9414 545.0168,-208.9636 545.3857,-201.9734"/>
</g>
<!-- Node11 -->
<g id="node12" class="node">
<title>Node11</title>
<g id="a_node12"><a xlink:href="class_ogre_1_1_d3_d11_h_l_s_l_program.html" target="_top" xlink:title="Specialization of HighLevelGpuProgram to provide support for D3D11 High&#45;Level Shader Language (HLSL)...">
<polygon fill="none" stroke="#000000" points="591.5,-164 591.5,-183 727.5,-183 727.5,-164 591.5,-164"/>
<text text-anchor="middle" x="659.5" y="-171" font-family="Helvetica,sans-Serif" font-size="10.00" fill="#000000">Ogre::D3D11HLSLProgram</text>
</a>
</g>
</g>
<!-- Node10&#45;&gt;Node11 -->
<g id="edge11" class="edge">
<title>Node10&#45;&gt;Node11</title>
<path fill="none" stroke="#191970" d="M503.7829,-129.621C524.6797,-137.4553 552.1675,-147.257 577,-154.5 588.8523,-157.957 601.809,-161.191 613.8692,-163.9762"/>
<polygon fill="#191970" stroke="#191970" points="504.9788,-126.3313 494.3873,-126.0648 502.5008,-132.8781 504.9788,-126.3313"/>
</g>
<!-- Node12 -->
<g id="node13" class="node">
<title>Node12</title>
<g id="a_node13"><a xlink:href="class_ogre_1_1_d3_d9_h_l_s_l_program.html" target="_top" xlink:title="Specialisation of HighLevelGpuProgram to provide support for D3D9 High&#45;Level Shader Language (HLSL)...">
<polygon fill="none" stroke="#000000" points="594,-126 594,-145 725,-145 725,-126 594,-126"/>
<text text-anchor="middle" x="659.5" y="-133" font-family="Helvetica,sans-Serif" font-size="10.00" fill="#000000">Ogre::D3D9HLSLProgram</text>
</a>
</g>
</g>
<!-- Node10&#45;&gt;Node12 -->
<g id="edge12" class="edge">
<title>Node10&#45;&gt;Node12</title>
<path fill="none" stroke="#191970" d="M551.3657,-124.658C565.5867,-126.0839 580.2181,-127.5509 593.9438,-128.9271"/>
<polygon fill="#191970" stroke="#191970" points="551.4013,-121.1441 541.102,-123.629 550.7029,-128.1092 551.4013,-121.1441"/>
</g>
<!-- Node13 -->
<g id="node14" class="node">
<title>Node13</title>
<g id="a_node14"><a xlink:href="class_ogre_1_1_g_l_s_l_shader.html" target="_top" xlink:title="Specialisation of HighLevelGpuProgram to encapsulate shader objects obtained from compiled shaders wr...">
<polygon fill="none" stroke="#000000" points="610,-88 610,-107 709,-107 709,-88 610,-88"/>
<text text-anchor="middle" x="659.5" y="-95" font-family="Helvetica,sans-Serif" font-size="10.00" fill="#000000">Ogre::GLSLShader</text>
</a>
</g>
</g>
<!-- Node10&#45;&gt;Node13 -->
<g id="edge13" class="edge">
<title>Node10&#45;&gt;Node13</title>
<path fill="none" stroke="#191970" d="M551.1348,-108.3651C571.1031,-106.363 591.8954,-104.2783 609.8639,-102.4767"/>
<polygon fill="#191970" stroke="#191970" points="550.7029,-104.8908 541.102,-109.371 551.4013,-111.8559 550.7029,-104.8908"/>
</g>
<!-- Node14 -->
<g id="node15" class="node">
<title>Node14</title>
<g id="a_node15"><a xlink:href="class_ogre_1_1_metal_program.html" target="_top" xlink:title="Specialisation of HighLevelGpuProgram to provide support for Metal Shader Language. ">
<polygon fill="none" stroke="#000000" points="607.5,-50 607.5,-69 711.5,-69 711.5,-50 607.5,-50"/>
<text text-anchor="middle" x="659.5" y="-57" font-family="Helvetica,sans-Serif" font-size="10.00" fill="#000000">Ogre::MetalProgram</text>
</a>
</g>
</g>
<!-- Node10&#45;&gt;Node14 -->
<g id="edge14" class="edge">
<title>Node10&#45;&gt;Node14</title>
<path fill="none" stroke="#191970" d="M503.7829,-103.379C524.6797,-95.5447 552.1675,-85.743 577,-78.5 588.8523,-75.043 601.809,-71.809 613.8692,-69.0238"/>
<polygon fill="#191970" stroke="#191970" points="502.5008,-100.1219 494.3873,-106.9352 504.9788,-106.6687 502.5008,-100.1219"/>
</g>
<!-- Node15 -->
<g id="node16" class="node">
<title>Node15</title>
<g id="a_node16"><a xlink:href="class_ogre_1_1_unified_high_level_gpu_program.html" target="_top" xlink:title="Specialisation of HighLevelGpuProgram which just delegates its implementation to one other high level...">
<polygon fill="none" stroke="#000000" points="591.5,-.5 591.5,-30.5 727.5,-30.5 727.5,-.5 591.5,-.5"/>
<text text-anchor="start" x="599.5" y="-18.5" font-family="Helvetica,sans-Serif" font-size="10.00" fill="#000000">Ogre::UnifiedHighLevelGpu</text>
<text text-anchor="middle" x="659.5" y="-7.5" font-family="Helvetica,sans-Serif" font-size="10.00" fill="#000000">Program</text>
</a>
</g>
</g>
<!-- Node10&#45;&gt;Node15 -->
<g id="edge15" class="edge">
<title>Node10&#45;&gt;Node15</title>
<path fill="none" stroke="#191970" d="M488.9953,-100.0935C509.4977,-83.1113 543.7044,-56.8271 577,-40.5 584.6593,-36.7441 592.9979,-33.4213 601.3335,-30.5251"/>
<polygon fill="#191970" stroke="#191970" points="486.4879,-97.6291 481.0902,-106.7458 490.9951,-102.985 486.4879,-97.6291"/>
</g>
</g>
</svg>
