<?xml version="1.0" encoding="UTF-8" standalone="no"?>
<!DOCTYPE svg PUBLIC "-//W3C//DTD SVG 1.1//EN"
 "http://www.w3.org/Graphics/SVG/1.1/DTD/svg11.dtd">
<!-- Generated by graphviz version 2.38.0 (20140413.2041)
 -->
<!-- Title: Ogre::GL3PlusRTTManager Pages: 1 -->
<svg width="147pt" height="151pt"
 viewBox="0.00 0.00 147.00 151.00" xmlns="http://www.w3.org/2000/svg" xmlns:xlink="http://www.w3.org/1999/xlink">
<g id="graph0" class="graph" transform="scale(1 1) rotate(0) translate(4 147)">
<title>Ogre::GL3PlusRTTManager</title>
<!-- Node1 -->
<g id="node1" class="node"><title>Node1</title>
<polygon fill="#bfbfbf" stroke="black" points="0.5,-56.5 0.5,-75.5 138.5,-75.5 138.5,-56.5 0.5,-56.5"/>
<text text-anchor="middle" x="69.5" y="-63.5" font-family="Helvetica,sans-Serif" font-size="10.00">Ogre::GL3PlusRTTManager</text>
</g>
<!-- Node3 -->
<g id="node3" class="node"><title>Node3</title>
<g id="a_node3"><a xlink:href="class_ogre_1_1_g_l3_plus_f_b_o_manager.html" target="_top" xlink:title="Factory for GL Frame Buffer Objects, and related things. ">
<polygon fill="none" stroke="black" points="0,-0.5 0,-19.5 139,-19.5 139,-0.5 0,-0.5"/>
<text text-anchor="middle" x="69.5" y="-7.5" font-family="Helvetica,sans-Serif" font-size="10.00">Ogre::GL3PlusFBOManager</text>
</a>
</g>
</g>
<!-- Node1&#45;&gt;Node3 -->
<g id="edge2" class="edge"><title>Node1&#45;&gt;Node3</title>
<path fill="none" stroke="midnightblue" d="M69.5,-45.8045C69.5,-36.9102 69.5,-26.7798 69.5,-19.7511"/>
<polygon fill="midnightblue" stroke="midnightblue" points="66.0001,-46.083 69.5,-56.083 73.0001,-46.083 66.0001,-46.083"/>
</g>
<!-- Node2 -->
<g id="node2" class="node"><title>Node2</title>
<g id="a_node2"><a xlink:href="class_ogre_1_1_singleton.html" target="_top" xlink:title="Ogre::Singleton\&lt; GL3Plus\lRTTManager \&gt;">
<polygon fill="none" stroke="black" points="4,-112.5 4,-142.5 135,-142.5 135,-112.5 4,-112.5"/>
<text text-anchor="start" x="12" y="-130.5" font-family="Helvetica,sans-Serif" font-size="10.00">Ogre::Singleton&lt; GL3Plus</text>
<text text-anchor="middle" x="69.5" y="-119.5" font-family="Helvetica,sans-Serif" font-size="10.00">RTTManager &gt;</text>
</a>
</g>
</g>
<!-- Node2&#45;&gt;Node1 -->
<g id="edge1" class="edge"><title>Node2&#45;&gt;Node1</title>
<path fill="none" stroke="midnightblue" d="M69.5,-102.289C69.5,-92.857 69.5,-82.6548 69.5,-75.6578"/>
<polygon fill="midnightblue" stroke="midnightblue" points="66.0001,-102.399 69.5,-112.399 73.0001,-102.399 66.0001,-102.399"/>
</g>
</g>
</svg>
