<?xml version="1.0" encoding="UTF-8" standalone="no"?>
<!DOCTYPE svg PUBLIC "-//W3C//DTD SVG 1.1//EN"
 "http://www.w3.org/Graphics/SVG/1.1/DTD/svg11.dtd">
<!-- Generated by graphviz version 2.40.1 (20161225.0304)
 -->
<!-- Title: Ogre::Volume::CSGOperationSource Pages: 1 -->
<svg width="531pt" height="127pt"
 viewBox="0.00 0.00 531.00 126.50" xmlns="http://www.w3.org/2000/svg" xmlns:xlink="http://www.w3.org/1999/xlink">
<g id="graph0" class="graph" transform="scale(1 1) rotate(0) translate(4 122.5)">
<title>Ogre::Volume::CSGOperationSource</title>
<!-- Node0 -->
<g id="node1" class="node">
<title>Node0</title>
<polygon fill="#bfbfbf" stroke="#000000" points="158,-39 158,-69 316,-69 316,-39 158,-39"/>
<text text-anchor="start" x="166" y="-57" font-family="Helvetica,sans-Serif" font-size="10.00" fill="#000000">Ogre::Volume::CSGOperation</text>
<text text-anchor="middle" x="237" y="-46" font-family="Helvetica,sans-Serif" font-size="10.00" fill="#000000">Source</text>
</g>
<!-- Node2 -->
<g id="node3" class="node">
<title>Node2</title>
<g id="a_node3"><a xlink:href="class_ogre_1_1_volume_1_1_c_s_g_difference_source.html" target="_top" xlink:title="Builds the difference between two sources. ">
<polygon fill="none" stroke="#000000" points="357,-88 357,-118 518,-118 518,-88 357,-88"/>
<text text-anchor="start" x="365" y="-106" font-family="Helvetica,sans-Serif" font-size="10.00" fill="#000000">Ogre::Volume::CSGDifference</text>
<text text-anchor="middle" x="437.5" y="-95" font-family="Helvetica,sans-Serif" font-size="10.00" fill="#000000">Source</text>
</a>
</g>
</g>
<!-- Node0&#45;&gt;Node2 -->
<g id="edge2" class="edge">
<title>Node0&#45;&gt;Node2</title>
<path fill="none" stroke="#191970" d="M308.5122,-71.4768C330.611,-76.8775 354.7448,-82.7755 376.0971,-87.9938"/>
<polygon fill="#191970" stroke="#191970" points="309.0642,-68.0088 298.5192,-69.0346 307.4024,-74.8087 309.0642,-68.0088"/>
</g>
<!-- Node3 -->
<g id="node4" class="node">
<title>Node3</title>
<g id="a_node4"><a xlink:href="class_ogre_1_1_volume_1_1_c_s_g_intersection_source.html" target="_top" xlink:title="Builds the intersection between two sources. ">
<polygon fill="none" stroke="#000000" points="354,-39 354,-69 521,-69 521,-39 354,-39"/>
<text text-anchor="start" x="362" y="-57" font-family="Helvetica,sans-Serif" font-size="10.00" fill="#000000">Ogre::Volume::CSGIntersection</text>
<text text-anchor="middle" x="437.5" y="-46" font-family="Helvetica,sans-Serif" font-size="10.00" fill="#000000">Source</text>
</a>
</g>
</g>
<!-- Node0&#45;&gt;Node3 -->
<g id="edge3" class="edge">
<title>Node0&#45;&gt;Node3</title>
<path fill="none" stroke="#191970" d="M326.4731,-54C335.594,-54 344.8352,-54 353.8901,-54"/>
<polygon fill="#191970" stroke="#191970" points="326.2429,-50.5001 316.2429,-54 326.2429,-57.5001 326.2429,-50.5001"/>
</g>
<!-- Node4 -->
<g id="node5" class="node">
<title>Node4</title>
<g id="a_node5"><a xlink:href="class_ogre_1_1_volume_1_1_c_s_g_union_source.html" target="_top" xlink:title="Builds the union between two sources. ">
<polygon fill="none" stroke="#000000" points="352,-.5 352,-19.5 523,-19.5 523,-.5 352,-.5"/>
<text text-anchor="middle" x="437.5" y="-7.5" font-family="Helvetica,sans-Serif" font-size="10.00" fill="#000000">Ogre::Volume::CSGUnionSource</text>
</a>
</g>
</g>
<!-- Node0&#45;&gt;Node4 -->
<g id="edge4" class="edge">
<title>Node0&#45;&gt;Node4</title>
<path fill="none" stroke="#191970" d="M315.2116,-36.8363C342.0484,-30.947 371.1019,-24.5712 394.1536,-19.5124"/>
<polygon fill="#191970" stroke="#191970" points="314.4573,-33.4185 305.4399,-38.9808 315.9578,-40.2558 314.4573,-33.4185"/>
</g>
<!-- Node1 -->
<g id="node2" class="node">
<title>Node1</title>
<g id="a_node2"><a xlink:href="class_ogre_1_1_volume_1_1_source.html" target="_top" xlink:title="Abstract class defining the density function. ">
<polygon fill="none" stroke="#000000" points="0,-44.5 0,-63.5 122,-63.5 122,-44.5 0,-44.5"/>
<text text-anchor="middle" x="61" y="-51.5" font-family="Helvetica,sans-Serif" font-size="10.00" fill="#000000">Ogre::Volume::Source</text>
</a>
</g>
</g>
<!-- Node1&#45;&gt;Node0 -->
<g id="edge1" class="edge">
<title>Node1&#45;&gt;Node0</title>
<path fill="none" stroke="#191970" d="M132.1986,-54C140.6129,-54 149.2401,-54 157.7568,-54"/>
<polygon fill="#191970" stroke="#191970" points="132.0624,-50.5001 122.0623,-54 132.0623,-57.5001 132.0624,-50.5001"/>
</g>
</g>
</svg>
