<?xml version="1.0" encoding="UTF-8" standalone="no"?>
<!DOCTYPE svg PUBLIC "-//W3C//DTD SVG 1.1//EN"
 "http://www.w3.org/Graphics/SVG/1.1/DTD/svg11.dtd">
<!-- Generated by graphviz version 2.40.1 (20161225.0304)
 -->
<!-- Title: Ogre::ZipArchiveFactory Pages: 1 -->
<svg width="262pt" height="263pt"
 viewBox="0.00 0.00 261.50 263.00" xmlns="http://www.w3.org/2000/svg" xmlns:xlink="http://www.w3.org/1999/xlink">
<g id="graph0" class="graph" transform="scale(1 1) rotate(0) translate(4 259)">
<title>Ogre::ZipArchiveFactory</title>
<!-- Node0 -->
<g id="node1" class="node">
<title>Node0</title>
<polygon fill="#bfbfbf" stroke="#000000" points="79.5,-123.5 79.5,-142.5 214.5,-142.5 214.5,-123.5 79.5,-123.5"/>
<text text-anchor="middle" x="147" y="-130.5" font-family="Helvetica,sans-Serif" font-size="10.00" fill="#000000">Ogre::ZipArchiveFactory</text>
</g>
<!-- Node4 -->
<g id="node5" class="node">
<title>Node4</title>
<g id="a_node5"><a xlink:href="class_ogre_1_1_embedded_zip_archive_factory.html" target="_top" xlink:title="Specialisation of ZipArchiveFactory for embedded Zip files. ">
<polygon fill="none" stroke="#000000" points="72,-56.5 72,-86.5 222,-86.5 222,-56.5 72,-56.5"/>
<text text-anchor="start" x="80" y="-74.5" font-family="Helvetica,sans-Serif" font-size="10.00" fill="#000000">Ogre::EmbeddedZipArchive</text>
<text text-anchor="middle" x="147" y="-63.5" font-family="Helvetica,sans-Serif" font-size="10.00" fill="#000000">Factory</text>
</a>
</g>
</g>
<!-- Node0&#45;&gt;Node4 -->
<g id="edge4" class="edge">
<title>Node0&#45;&gt;Node4</title>
<path fill="none" stroke="#191970" d="M147,-113.3693C147,-104.681 147,-94.6241 147,-86.5446"/>
<polygon fill="#191970" stroke="#191970" points="143.5001,-113.3906 147,-123.3906 150.5001,-113.3907 143.5001,-113.3906"/>
</g>
<!-- Node1 -->
<g id="node2" class="node">
<title>Node1</title>
<g id="a_node2"><a xlink:href="class_ogre_1_1_archive_factory.html" target="_top" xlink:title="Abstract factory class, archive codec plugins can register concrete subclasses of this...">
<polygon fill="none" stroke="#000000" points="87.5,-179.5 87.5,-198.5 206.5,-198.5 206.5,-179.5 87.5,-179.5"/>
<text text-anchor="middle" x="147" y="-186.5" font-family="Helvetica,sans-Serif" font-size="10.00" fill="#000000">Ogre::ArchiveFactory</text>
</a>
</g>
</g>
<!-- Node1&#45;&gt;Node0 -->
<g id="edge1" class="edge">
<title>Node1&#45;&gt;Node0</title>
<path fill="none" stroke="#191970" d="M147,-169.1575C147,-160.155 147,-149.9199 147,-142.6427"/>
<polygon fill="#191970" stroke="#191970" points="143.5001,-169.2455 147,-179.2455 150.5001,-169.2456 143.5001,-169.2455"/>
</g>
<!-- Node2 -->
<g id="node3" class="node">
<title>Node2</title>
<g id="a_node3"><a xlink:href="class_ogre_1_1_factory_obj.html" target="_top" xlink:title="Ogre::FactoryObj\&lt; Archive \&gt;">
<polygon fill="none" stroke="#000000" points="0,-235.5 0,-254.5 158,-254.5 158,-235.5 0,-235.5"/>
<text text-anchor="middle" x="79" y="-242.5" font-family="Helvetica,sans-Serif" font-size="10.00" fill="#000000">Ogre::FactoryObj&lt; Archive &gt;</text>
</a>
</g>
</g>
<!-- Node2&#45;&gt;Node1 -->
<g id="edge2" class="edge">
<title>Node2&#45;&gt;Node1</title>
<path fill="none" stroke="#191970" d="M98.8596,-228.645C110.6858,-218.9058 125.2892,-206.8795 135.291,-198.6427"/>
<polygon fill="#191970" stroke="#191970" points="96.339,-226.1867 90.8447,-235.2455 100.789,-231.5902 96.339,-226.1867"/>
</g>
<!-- Node3 -->
<g id="node4" class="node">
<title>Node3</title>
<g id="a_node4"><a xlink:href="class_ogre_1_1_allocated_object.html" target="_top" xlink:title="Superclass for all objects that wish to use custom memory allocators when their new / delete operator...">
<polygon fill="none" stroke="#000000" points="176.5,-235.5 176.5,-254.5 253.5,-254.5 253.5,-235.5 176.5,-235.5"/>
<text text-anchor="middle" x="215" y="-242.5" font-family="Helvetica,sans-Serif" font-size="10.00" fill="#000000">ArchiveAlloc</text>
</a>
</g>
</g>
<!-- Node3&#45;&gt;Node1 -->
<g id="edge3" class="edge">
<title>Node3&#45;&gt;Node1</title>
<path fill="none" stroke="#191970" d="M195.1404,-228.645C183.3142,-218.9058 168.7108,-206.8795 158.709,-198.6427"/>
<polygon fill="#191970" stroke="#191970" points="193.211,-231.5902 203.1553,-235.2455 197.661,-226.1867 193.211,-231.5902"/>
</g>
<!-- Node5 -->
<g id="node6" class="node">
<title>Node5</title>
<g id="a_node6"><a xlink:href="class_ogre_1_1_a_p_k_zip_archive_factory.html" target="_top" xlink:title="Ogre::APKZipArchiveFactory">
<polygon fill="none" stroke="#000000" points="69.5,-.5 69.5,-19.5 224.5,-19.5 224.5,-.5 69.5,-.5"/>
<text text-anchor="middle" x="147" y="-7.5" font-family="Helvetica,sans-Serif" font-size="10.00" fill="#000000">Ogre::APKZipArchiveFactory</text>
</a>
</g>
</g>
<!-- Node4&#45;&gt;Node5 -->
<g id="edge5" class="edge">
<title>Node4&#45;&gt;Node5</title>
<path fill="none" stroke="#191970" d="M147,-46.2849C147,-36.9858 147,-26.9883 147,-19.8469"/>
<polygon fill="#191970" stroke="#191970" points="143.5001,-46.2977 147,-56.2977 150.5001,-46.2978 143.5001,-46.2977"/>
</g>
</g>
</svg>
