<?xml version="1.0" encoding="UTF-8" standalone="no"?>
<!DOCTYPE svg PUBLIC "-//W3C//DTD SVG 1.1//EN"
 "http://www.w3.org/Graphics/SVG/1.1/DTD/svg11.dtd">
<!-- Generated by graphviz version 2.38.0 (20140413.2041)
 -->
<!-- Title: Ogre::v1::TempBlendedBufferInfo Pages: 1 -->
<svg width="220pt" height="95pt"
 viewBox="0.00 0.00 219.50 95.00" xmlns="http://www.w3.org/2000/svg" xmlns:xlink="http://www.w3.org/1999/xlink">
<g id="graph0" class="graph" transform="scale(1 1) rotate(0) translate(4 91)">
<title>Ogre::v1::TempBlendedBufferInfo</title>
<!-- Node1 -->
<g id="node1" class="node"><title>Node1</title>
<polygon fill="#bfbfbf" stroke="black" points="39.5,-0.5 39.5,-19.5 202.5,-19.5 202.5,-0.5 39.5,-0.5"/>
<text text-anchor="middle" x="121" y="-7.5" font-family="Helvetica,sans-Serif" font-size="10.00">Ogre::v1::TempBlendedBufferInfo</text>
</g>
<!-- Node2 -->
<g id="node2" class="node"><title>Node2</title>
<g id="a_node2"><a xlink:href="class_ogre_1_1v1_1_1_hardware_buffer_licensee.html" target="_top" xlink:title="Abstract interface representing a &#39;licensee&#39; of a hardware buffer copy. ">
<polygon fill="none" stroke="black" points="0,-56.5 0,-86.5 128,-86.5 128,-56.5 0,-56.5"/>
<text text-anchor="start" x="8" y="-74.5" font-family="Helvetica,sans-Serif" font-size="10.00">Ogre::v1::HardwareBuffer</text>
<text text-anchor="middle" x="64" y="-63.5" font-family="Helvetica,sans-Serif" font-size="10.00">Licensee</text>
</a>
</g>
</g>
<!-- Node2&#45;&gt;Node1 -->
<g id="edge1" class="edge"><title>Node2&#45;&gt;Node1</title>
<path fill="none" stroke="midnightblue" d="M84.5944,-49.0023C94.309,-38.8617 105.354,-27.3319 112.706,-19.6578"/>
<polygon fill="midnightblue" stroke="midnightblue" points="81.8986,-46.7569 77.5082,-56.3993 86.9534,-51.5994 81.8986,-46.7569"/>
</g>
<!-- Node3 -->
<g id="node3" class="node"><title>Node3</title>
<g id="a_node3"><a xlink:href="class_ogre_1_1_allocated_object.html" target="_top" xlink:title="Superclass for all objects that wish to use custom memory allocators when their new / delete operator...">
<polygon fill="none" stroke="black" points="146.5,-62 146.5,-81 211.5,-81 211.5,-62 146.5,-62"/>
<text text-anchor="middle" x="179" y="-69" font-family="Helvetica,sans-Serif" font-size="10.00">BufferAlloc</text>
</a>
</g>
</g>
<!-- Node3&#45;&gt;Node1 -->
<g id="edge2" class="edge"><title>Node3&#45;&gt;Node1</title>
<path fill="none" stroke="midnightblue" d="M163.401,-54.4975C152.423,-43.2356 138.161,-28.6044 129.295,-19.5091"/>
<polygon fill="midnightblue" stroke="midnightblue" points="161.203,-57.2574 170.69,-61.9751 166.216,-52.3712 161.203,-57.2574"/>
</g>
</g>
</svg>
