<?xml version="1.0" encoding="UTF-8" standalone="no"?>
<!DOCTYPE svg PUBLIC "-//W3C//DTD SVG 1.1//EN"
 "http://www.w3.org/Graphics/SVG/1.1/DTD/svg11.dtd">
<!-- Generated by graphviz version 2.40.1 (20161225.0304)
 -->
<!-- Title: Ogre::v1::HardwareIndexBuffer Pages: 1 -->
<svg width="626pt" height="284pt"
 viewBox="0.00 0.00 626.00 284.00" xmlns="http://www.w3.org/2000/svg" xmlns:xlink="http://www.w3.org/1999/xlink">
<g id="graph0" class="graph" transform="scale(1 1) rotate(0) translate(4 280)">
<title>Ogre::v1::HardwareIndexBuffer</title>
<!-- Node0 -->
<g id="node1" class="node">
<title>Node0</title>
<polygon fill="#bfbfbf" stroke="#000000" points="265,-128 265,-147 417,-147 417,-128 265,-128"/>
<text text-anchor="middle" x="341" y="-135" font-family="Helvetica,sans-Serif" font-size="10.00" fill="#000000">Ogre::v1::HardwareIndexBuffer</text>
</g>
<!-- Node3 -->
<g id="node4" class="node">
<title>Node3</title>
<g id="a_node4"><a xlink:href="class_ogre_1_1v1_1_1_d3_d11_hardware_index_buffer.html" target="_top" xlink:title="Ogre::v1::D3D11HardwareIndex\lBuffer">
<polygon fill="none" stroke="#000000" points="457,-245.5 457,-275.5 614,-275.5 614,-245.5 457,-245.5"/>
<text text-anchor="start" x="465" y="-263.5" font-family="Helvetica,sans-Serif" font-size="10.00" fill="#000000">Ogre::v1::D3D11HardwareIndex</text>
<text text-anchor="middle" x="535.5" y="-252.5" font-family="Helvetica,sans-Serif" font-size="10.00" fill="#000000">Buffer</text>
</a>
</g>
</g>
<!-- Node0&#45;&gt;Node3 -->
<g id="edge3" class="edge">
<title>Node0&#45;&gt;Node3</title>
<path fill="none" stroke="#191970" d="M356.0078,-154.8364C376.008,-176.8958 413.4935,-214.7386 453,-236.5 459.1409,-239.8826 465.8077,-242.8321 472.6003,-245.3935"/>
<polygon fill="#191970" stroke="#191970" points="358.4935,-152.3648 349.2309,-147.2212 353.2643,-157.0183 358.4935,-152.3648"/>
</g>
<!-- Node4 -->
<g id="node5" class="node">
<title>Node4</title>
<g id="a_node5"><a xlink:href="class_ogre_1_1v1_1_1_default_hardware_index_buffer.html" target="_top" xlink:title="Specialisation of HardwareIndexBuffer for emulation. ">
<polygon fill="none" stroke="#000000" points="468.5,-196.5 468.5,-226.5 602.5,-226.5 602.5,-196.5 468.5,-196.5"/>
<text text-anchor="start" x="476.5" y="-214.5" font-family="Helvetica,sans-Serif" font-size="10.00" fill="#000000">Ogre::v1::DefaultHardware</text>
<text text-anchor="middle" x="535.5" y="-203.5" font-family="Helvetica,sans-Serif" font-size="10.00" fill="#000000">IndexBuffer</text>
</a>
</g>
</g>
<!-- Node0&#45;&gt;Node4 -->
<g id="edge4" class="edge">
<title>Node0&#45;&gt;Node4</title>
<path fill="none" stroke="#191970" d="M369.744,-151.6412C392.1063,-162.3208 424.091,-176.8986 453,-187.5 461.5429,-190.6328 470.6987,-193.6353 479.6903,-196.3917"/>
<polygon fill="#191970" stroke="#191970" points="371.0177,-148.3699 360.4897,-147.1817 367.9789,-154.6759 371.0177,-148.3699"/>
</g>
<!-- Node5 -->
<g id="node6" class="node">
<title>Node5</title>
<g id="a_node6"><a xlink:href="class_ogre_1_1v1_1_1_g_l3_plus_default_hardware_index_buffer.html" target="_top" xlink:title="Specialisation of HardwareIndexBuffer for emulation. ">
<polygon fill="none" stroke="#000000" points="471,-147.5 471,-177.5 600,-177.5 600,-147.5 471,-147.5"/>
<text text-anchor="start" x="479" y="-165.5" font-family="Helvetica,sans-Serif" font-size="10.00" fill="#000000">Ogre::v1::GL3PlusDefault</text>
<text text-anchor="middle" x="535.5" y="-154.5" font-family="Helvetica,sans-Serif" font-size="10.00" fill="#000000">HardwareIndexBuffer</text>
</a>
</g>
</g>
<!-- Node0&#45;&gt;Node5 -->
<g id="edge5" class="edge">
<title>Node0&#45;&gt;Node5</title>
<path fill="none" stroke="#191970" d="M425.0797,-148.3072C440.4085,-150.2774 456.182,-152.3049 470.8388,-154.1888"/>
<polygon fill="#191970" stroke="#191970" points="425.4516,-144.8262 415.087,-147.0227 424.5591,-151.7691 425.4516,-144.8262"/>
</g>
<!-- Node6 -->
<g id="node7" class="node">
<title>Node6</title>
<g id="a_node7"><a xlink:href="class_ogre_1_1v1_1_1_g_l3_plus_hardware_index_buffer.html" target="_top" xlink:title="Ogre::v1::GL3PlusHardware\lIndexBuffer">
<polygon fill="none" stroke="#000000" points="465.5,-98.5 465.5,-128.5 605.5,-128.5 605.5,-98.5 465.5,-98.5"/>
<text text-anchor="start" x="473.5" y="-116.5" font-family="Helvetica,sans-Serif" font-size="10.00" fill="#000000">Ogre::v1::GL3PlusHardware</text>
<text text-anchor="middle" x="535.5" y="-105.5" font-family="Helvetica,sans-Serif" font-size="10.00" fill="#000000">IndexBuffer</text>
</a>
</g>
</g>
<!-- Node0&#45;&gt;Node6 -->
<g id="edge6" class="edge">
<title>Node0&#45;&gt;Node6</title>
<path fill="none" stroke="#191970" d="M427.1694,-126.8673C439.8966,-125.2968 452.8803,-123.6947 465.2332,-122.1704"/>
<polygon fill="#191970" stroke="#191970" points="426.5305,-123.4195 417.0344,-128.1179 427.3878,-130.3668 426.5305,-123.4195"/>
</g>
<!-- Node7 -->
<g id="node8" class="node">
<title>Node7</title>
<g id="a_node8"><a xlink:href="class_ogre_1_1v1_1_1_g_l_e_s2_default_hardware_index_buffer.html" target="_top" xlink:title="Specialisation of HardwareIndexBuffer for emulation. ">
<polygon fill="none" stroke="#000000" points="453,-49.5 453,-79.5 618,-79.5 618,-49.5 453,-49.5"/>
<text text-anchor="start" x="461" y="-67.5" font-family="Helvetica,sans-Serif" font-size="10.00" fill="#000000">Ogre::v1::GLES2DefaultHardware</text>
<text text-anchor="middle" x="535.5" y="-56.5" font-family="Helvetica,sans-Serif" font-size="10.00" fill="#000000">IndexBuffer</text>
</a>
</g>
</g>
<!-- Node0&#45;&gt;Node7 -->
<g id="edge7" class="edge">
<title>Node0&#45;&gt;Node7</title>
<path fill="none" stroke="#191970" d="M370.1814,-123.4918C392.5403,-113.0641 424.3208,-98.8958 453,-88.5 461.6947,-85.3483 471.017,-82.3155 480.1528,-79.5288"/>
<polygon fill="#191970" stroke="#191970" points="368.4736,-120.4272 360.9147,-127.8511 371.4534,-126.7614 368.4736,-120.4272"/>
</g>
<!-- Node8 -->
<g id="node9" class="node">
<title>Node8</title>
<g id="a_node9"><a xlink:href="class_ogre_1_1v1_1_1_metal_hardware_index_buffer.html" target="_top" xlink:title="Specialisation of HardwareIndexBuffer for Metal. ">
<polygon fill="none" stroke="#000000" points="460.5,-.5 460.5,-30.5 610.5,-30.5 610.5,-.5 460.5,-.5"/>
<text text-anchor="start" x="468.5" y="-18.5" font-family="Helvetica,sans-Serif" font-size="10.00" fill="#000000">Ogre::v1::MetalHardwareIndex</text>
<text text-anchor="middle" x="535.5" y="-7.5" font-family="Helvetica,sans-Serif" font-size="10.00" fill="#000000">Buffer</text>
</a>
</g>
</g>
<!-- Node0&#45;&gt;Node8 -->
<g id="edge8" class="edge">
<title>Node0&#45;&gt;Node8</title>
<path fill="none" stroke="#191970" d="M356.045,-120.3463C376.0851,-98.518 413.6136,-61.0661 453,-39.5 459.1493,-36.1329 465.8215,-33.1932 472.6173,-30.6375"/>
<polygon fill="#191970" stroke="#191970" points="353.3485,-118.1102 349.2532,-127.8815 358.5482,-122.7968 353.3485,-118.1102"/>
</g>
<!-- Node1 -->
<g id="node2" class="node">
<title>Node1</title>
<g id="a_node2"><a xlink:href="class_ogre_1_1v1_1_1_hardware_buffer.html" target="_top" xlink:title="Abstract class defining common features of hardware buffers. ">
<polygon fill="none" stroke="#000000" points="101,-128 101,-147 229,-147 229,-128 101,-128"/>
<text text-anchor="middle" x="165" y="-135" font-family="Helvetica,sans-Serif" font-size="10.00" fill="#000000">Ogre::v1::HardwareBuffer</text>
</a>
</g>
</g>
<!-- Node1&#45;&gt;Node0 -->
<g id="edge1" class="edge">
<title>Node1&#45;&gt;Node0</title>
<path fill="none" stroke="#191970" d="M239.2245,-137.5C247.6638,-137.5 256.2765,-137.5 264.7416,-137.5"/>
<polygon fill="#191970" stroke="#191970" points="239.0379,-134.0001 229.0379,-137.5 239.0379,-141.0001 239.0379,-134.0001"/>
</g>
<!-- Node2 -->
<g id="node3" class="node">
<title>Node2</title>
<g id="a_node3"><a xlink:href="class_ogre_1_1_allocated_object.html" target="_top" xlink:title="Superclass for all objects that wish to use custom memory allocators when their new / delete operator...">
<polygon fill="none" stroke="#000000" points="0,-128 0,-147 65,-147 65,-128 0,-128"/>
<text text-anchor="middle" x="32.5" y="-135" font-family="Helvetica,sans-Serif" font-size="10.00" fill="#000000">BufferAlloc</text>
</a>
</g>
</g>
<!-- Node2&#45;&gt;Node1 -->
<g id="edge2" class="edge">
<title>Node2&#45;&gt;Node1</title>
<path fill="none" stroke="#191970" d="M75.2584,-137.5C83.4237,-137.5 92.1359,-137.5 100.8013,-137.5"/>
<polygon fill="#191970" stroke="#191970" points="75.2529,-134.0001 65.2528,-137.5 75.2528,-141.0001 75.2529,-134.0001"/>
</g>
</g>
</svg>
