<?xml version="1.0" encoding="UTF-8" standalone="no"?>
<!DOCTYPE svg PUBLIC "-//W3C//DTD SVG 1.1//EN"
 "http://www.w3.org/Graphics/SVG/1.1/DTD/svg11.dtd">
<!-- Generated by graphviz version 2.40.1 (20161225.0304)
 -->
<!-- Title: Ogre::ShadowCameraSetup Pages: 1 -->
<svg width="344pt" height="274pt"
 viewBox="0.00 0.00 343.50 274.00" xmlns="http://www.w3.org/2000/svg" xmlns:xlink="http://www.w3.org/1999/xlink">
<g id="graph0" class="graph" transform="scale(1 1) rotate(0) translate(4 270)">
<title>Ogre::ShadowCameraSetup</title>
<!-- Node0 -->
<g id="node1" class="node">
<title>Node0</title>
<polygon fill="#bfbfbf" stroke="#000000" points="99.5,-190.5 99.5,-209.5 249.5,-209.5 249.5,-190.5 99.5,-190.5"/>
<text text-anchor="middle" x="174.5" y="-197.5" font-family="Helvetica,sans-Serif" font-size="10.00" fill="#000000">Ogre::ShadowCameraSetup</text>
</g>
<!-- Node2 -->
<g id="node3" class="node">
<title>Node2</title>
<g id="a_node3"><a xlink:href="class_ogre_1_1_default_shadow_camera_setup.html" target="_top" xlink:title="Implements default shadow camera setup. ">
<polygon fill="none" stroke="#000000" points="9.5,-123.5 9.5,-153.5 167.5,-153.5 167.5,-123.5 9.5,-123.5"/>
<text text-anchor="start" x="17.5" y="-141.5" font-family="Helvetica,sans-Serif" font-size="10.00" fill="#000000">Ogre::DefaultShadowCamera</text>
<text text-anchor="middle" x="88.5" y="-130.5" font-family="Helvetica,sans-Serif" font-size="10.00" fill="#000000">Setup</text>
</a>
</g>
</g>
<!-- Node0&#45;&gt;Node2 -->
<g id="edge2" class="edge">
<title>Node0&#45;&gt;Node2</title>
<path fill="none" stroke="#191970" d="M152.5621,-184.3119C139.3416,-174.8577 122.5936,-162.8809 109.538,-153.5446"/>
<polygon fill="#191970" stroke="#191970" points="150.8924,-187.4207 161.0625,-190.3906 154.9643,-181.7268 150.8924,-187.4207"/>
</g>
<!-- Node5 -->
<g id="node6" class="node">
<title>Node5</title>
<g id="a_node6"><a xlink:href="class_ogre_1_1_plane_optimal_shadow_camera_setup.html" target="_top" xlink:title="Implements the plane optimal shadow camera algorithm. ">
<polygon fill="none" stroke="#000000" points="185.5,-123.5 185.5,-153.5 335.5,-153.5 335.5,-123.5 185.5,-123.5"/>
<text text-anchor="start" x="193.5" y="-141.5" font-family="Helvetica,sans-Serif" font-size="10.00" fill="#000000">Ogre::PlaneOptimalShadow</text>
<text text-anchor="middle" x="260.5" y="-130.5" font-family="Helvetica,sans-Serif" font-size="10.00" fill="#000000">CameraSetup</text>
</a>
</g>
</g>
<!-- Node0&#45;&gt;Node5 -->
<g id="edge5" class="edge">
<title>Node0&#45;&gt;Node5</title>
<path fill="none" stroke="#191970" d="M196.4379,-184.3119C209.6584,-174.8577 226.4064,-162.8809 239.462,-153.5446"/>
<polygon fill="#191970" stroke="#191970" points="194.0357,-181.7268 187.9375,-190.3906 198.1076,-187.4207 194.0357,-181.7268"/>
</g>
<!-- Node1 -->
<g id="node2" class="node">
<title>Node1</title>
<g id="a_node2"><a xlink:href="class_ogre_1_1_allocated_object.html" target="_top" xlink:title="Superclass for all objects that wish to use custom memory allocators when their new / delete operator...">
<polygon fill="none" stroke="#000000" points="123.5,-246.5 123.5,-265.5 225.5,-265.5 225.5,-246.5 123.5,-246.5"/>
<text text-anchor="middle" x="174.5" y="-253.5" font-family="Helvetica,sans-Serif" font-size="10.00" fill="#000000">ShadowDataAlloc</text>
</a>
</g>
</g>
<!-- Node1&#45;&gt;Node0 -->
<g id="edge1" class="edge">
<title>Node1&#45;&gt;Node0</title>
<path fill="none" stroke="#191970" d="M174.5,-236.1575C174.5,-227.155 174.5,-216.9199 174.5,-209.6427"/>
<polygon fill="#191970" stroke="#191970" points="171.0001,-236.2455 174.5,-246.2455 178.0001,-236.2456 171.0001,-236.2455"/>
</g>
<!-- Node3 -->
<g id="node4" class="node">
<title>Node3</title>
<g id="a_node4"><a xlink:href="class_ogre_1_1_focused_shadow_camera_setup.html" target="_top" xlink:title="Implements the uniform shadow mapping algorithm in focused mode. ">
<polygon fill="none" stroke="#000000" points="7,-56.5 7,-86.5 170,-86.5 170,-56.5 7,-56.5"/>
<text text-anchor="start" x="15" y="-74.5" font-family="Helvetica,sans-Serif" font-size="10.00" fill="#000000">Ogre::FocusedShadowCamera</text>
<text text-anchor="middle" x="88.5" y="-63.5" font-family="Helvetica,sans-Serif" font-size="10.00" fill="#000000">Setup</text>
</a>
</g>
</g>
<!-- Node2&#45;&gt;Node3 -->
<g id="edge3" class="edge">
<title>Node2&#45;&gt;Node3</title>
<path fill="none" stroke="#191970" d="M88.5,-113.0249C88.5,-104.128 88.5,-94.4287 88.5,-86.6432"/>
<polygon fill="#191970" stroke="#191970" points="85.0001,-113.2966 88.5,-123.2967 92.0001,-113.2967 85.0001,-113.2966"/>
</g>
<!-- Node4 -->
<g id="node5" class="node">
<title>Node4</title>
<g id="a_node5"><a xlink:href="class_ogre_1_1_p_s_s_m_shadow_camera_setup.html" target="_top" xlink:title="Parallel Split Shadow Map (PSSM) shadow camera setup. ">
<polygon fill="none" stroke="#000000" points="0,-.5 0,-19.5 177,-19.5 177,-.5 0,-.5"/>
<text text-anchor="middle" x="88.5" y="-7.5" font-family="Helvetica,sans-Serif" font-size="10.00" fill="#000000">Ogre::PSSMShadowCameraSetup</text>
</a>
</g>
</g>
<!-- Node3&#45;&gt;Node4 -->
<g id="edge4" class="edge">
<title>Node3&#45;&gt;Node4</title>
<path fill="none" stroke="#191970" d="M88.5,-46.2849C88.5,-36.9858 88.5,-26.9883 88.5,-19.8469"/>
<polygon fill="#191970" stroke="#191970" points="85.0001,-46.2977 88.5,-56.2977 92.0001,-46.2978 85.0001,-46.2977"/>
</g>
</g>
</svg>
