<?xml version="1.0" encoding="UTF-8" standalone="no"?>
<!DOCTYPE svg PUBLIC "-//W3C//DTD SVG 1.1//EN"
 "http://www.w3.org/Graphics/SVG/1.1/DTD/svg11.dtd">
<!-- Generated by graphviz version 2.38.0 (20140413.2041)
 -->
<!-- Title: Ogre::AxisAlignedBoxSceneQuery Pages: 1 -->
<svg width="256pt" height="274pt"
 viewBox="0.00 0.00 256.00 274.00" xmlns="http://www.w3.org/2000/svg" xmlns:xlink="http://www.w3.org/1999/xlink">
<g id="graph0" class="graph" transform="scale(1 1) rotate(0) translate(4 270)">
<title>Ogre::AxisAlignedBoxSceneQuery</title>
<!-- Node1 -->
<g id="node1" class="node"><title>Node1</title>
<polygon fill="#bfbfbf" stroke="black" points="45,-67.5 45,-97.5 185,-97.5 185,-67.5 45,-67.5"/>
<text text-anchor="start" x="53" y="-85.5" font-family="Helvetica,sans-Serif" font-size="10.00">Ogre::AxisAlignedBoxScene</text>
<text text-anchor="middle" x="115" y="-74.5" font-family="Helvetica,sans-Serif" font-size="10.00">Query</text>
</g>
<!-- Node6 -->
<g id="node6" class="node"><title>Node6</title>
<g id="a_node6"><a xlink:href="class_ogre_1_1_default_axis_aligned_box_scene_query.html" target="_top" xlink:title="Default implementation of AxisAlignedBoxSceneQuery. ">
<polygon fill="none" stroke="black" points="51.5,-0.5 51.5,-30.5 178.5,-30.5 178.5,-0.5 51.5,-0.5"/>
<text text-anchor="start" x="59.5" y="-18.5" font-family="Helvetica,sans-Serif" font-size="10.00">Ogre::DefaultAxisAligned</text>
<text text-anchor="middle" x="115" y="-7.5" font-family="Helvetica,sans-Serif" font-size="10.00">BoxSceneQuery</text>
</a>
</g>
</g>
<!-- Node1&#45;&gt;Node6 -->
<g id="edge5" class="edge"><title>Node1&#45;&gt;Node6</title>
<path fill="none" stroke="midnightblue" d="M115,-57.1081C115,-48.1539 115,-38.3227 115,-30.5765"/>
<polygon fill="midnightblue" stroke="midnightblue" points="111.5,-57.3959 115,-67.396 118.5,-57.396 111.5,-57.3959"/>
</g>
<!-- Node2 -->
<g id="node2" class="node"><title>Node2</title>
<g id="a_node2"><a xlink:href="class_ogre_1_1_region_scene_query.html" target="_top" xlink:title="Abstract class defining a query which returns single results from a region. ">
<polygon fill="none" stroke="black" points="51,-134.5 51,-153.5 179,-153.5 179,-134.5 51,-134.5"/>
<text text-anchor="middle" x="115" y="-141.5" font-family="Helvetica,sans-Serif" font-size="10.00">Ogre::RegionSceneQuery</text>
</a>
</g>
</g>
<!-- Node2&#45;&gt;Node1 -->
<g id="edge1" class="edge"><title>Node2&#45;&gt;Node1</title>
<path fill="none" stroke="midnightblue" d="M115,-124.235C115,-115.586 115,-105.497 115,-97.523"/>
<polygon fill="midnightblue" stroke="midnightblue" points="111.5,-124.475 115,-134.475 118.5,-124.475 111.5,-124.475"/>
</g>
<!-- Node3 -->
<g id="node3" class="node"><title>Node3</title>
<g id="a_node3"><a xlink:href="class_ogre_1_1_scene_query.html" target="_top" xlink:title="A class for performing queries on a scene. ">
<polygon fill="none" stroke="black" points="0,-190.5 0,-209.5 98,-209.5 98,-190.5 0,-190.5"/>
<text text-anchor="middle" x="49" y="-197.5" font-family="Helvetica,sans-Serif" font-size="10.00">Ogre::SceneQuery</text>
</a>
</g>
</g>
<!-- Node3&#45;&gt;Node2 -->
<g id="edge2" class="edge"><title>Node3&#45;&gt;Node2</title>
<path fill="none" stroke="midnightblue" d="M67.5537,-183.82C79.3781,-174.145 94.2856,-161.948 104.203,-153.834"/>
<polygon fill="midnightblue" stroke="midnightblue" points="65.1273,-181.283 59.604,-190.324 69.56,-186.7 65.1273,-181.283"/>
</g>
<!-- Node4 -->
<g id="node4" class="node"><title>Node4</title>
<g id="a_node4"><a xlink:href="class_ogre_1_1_allocated_object.html" target="_top" xlink:title="Superclass for all objects that wish to use custom memory allocators when their new / delete operator...">
<polygon fill="none" stroke="black" points="7.5,-246.5 7.5,-265.5 90.5,-265.5 90.5,-246.5 7.5,-246.5"/>
<text text-anchor="middle" x="49" y="-253.5" font-family="Helvetica,sans-Serif" font-size="10.00">SceneMgtAlloc</text>
</a>
</g>
</g>
<!-- Node4&#45;&gt;Node3 -->
<g id="edge3" class="edge"><title>Node4&#45;&gt;Node3</title>
<path fill="none" stroke="midnightblue" d="M49,-235.805C49,-226.91 49,-216.78 49,-209.751"/>
<polygon fill="midnightblue" stroke="midnightblue" points="45.5001,-236.083 49,-246.083 52.5001,-236.083 45.5001,-236.083"/>
</g>
<!-- Node5 -->
<g id="node5" class="node"><title>Node5</title>
<g id="a_node5"><a xlink:href="class_ogre_1_1_scene_query_listener.html" target="_top" xlink:title="This optional class allows you to receive per&#45;result callbacks from SceneQuery executions instead of ...">
<polygon fill="none" stroke="black" points="116,-190.5 116,-209.5 248,-209.5 248,-190.5 116,-190.5"/>
<text text-anchor="middle" x="182" y="-197.5" font-family="Helvetica,sans-Serif" font-size="10.00">Ogre::SceneQueryListener</text>
</a>
</g>
</g>
<!-- Node5&#45;&gt;Node2 -->
<g id="edge4" class="edge"><title>Node5&#45;&gt;Node2</title>
<path fill="none" stroke="midnightblue" d="M163.165,-183.82C151.162,-174.145 136.028,-161.948 125.961,-153.834"/>
<polygon fill="midnightblue" stroke="midnightblue" points="161.253,-186.774 171.235,-190.324 165.646,-181.324 161.253,-186.774"/>
</g>
</g>
</svg>
