<?xml version="1.0" encoding="UTF-8" standalone="no"?>
<!DOCTYPE svg PUBLIC "-//W3C//DTD SVG 1.1//EN"
 "http://www.w3.org/Graphics/SVG/1.1/DTD/svg11.dtd">
<!-- Generated by graphviz version 2.38.0 (20140413.2041)
 -->
<!-- Title: Ogre::TerrainMaterialGeneratorA::SM2Profile Pages: 1 -->
<svg width="159pt" height="162pt"
 viewBox="0.00 0.00 159.00 162.00" xmlns="http://www.w3.org/2000/svg" xmlns:xlink="http://www.w3.org/1999/xlink">
<g id="graph0" class="graph" transform="scale(1 1) rotate(0) translate(4 158)">
<title>Ogre::TerrainMaterialGeneratorA::SM2Profile</title>
<!-- Node1 -->
<g id="node1" class="node"><title>Node1</title>
<polygon fill="#bfbfbf" stroke="black" points="0,-0.5 0,-30.5 151,-30.5 151,-0.5 0,-0.5"/>
<text text-anchor="start" x="8" y="-18.5" font-family="Helvetica,sans-Serif" font-size="10.00">Ogre::TerrainMaterialGenerator</text>
<text text-anchor="middle" x="75.5" y="-7.5" font-family="Helvetica,sans-Serif" font-size="10.00">A::SM2Profile</text>
</g>
<!-- Node2 -->
<g id="node2" class="node"><title>Node2</title>
<g id="a_node2"><a xlink:href="class_ogre_1_1_terrain_material_generator_1_1_profile.html" target="_top" xlink:title="Inner class which should also be subclassed to provide profile&#45;specific material generation. ">
<polygon fill="none" stroke="black" points="0,-67.5 0,-97.5 151,-97.5 151,-67.5 0,-67.5"/>
<text text-anchor="start" x="8" y="-85.5" font-family="Helvetica,sans-Serif" font-size="10.00">Ogre::TerrainMaterialGenerator</text>
<text text-anchor="middle" x="75.5" y="-74.5" font-family="Helvetica,sans-Serif" font-size="10.00">::Profile</text>
</a>
</g>
</g>
<!-- Node2&#45;&gt;Node1 -->
<g id="edge1" class="edge"><title>Node2&#45;&gt;Node1</title>
<path fill="none" stroke="midnightblue" d="M75.5,-57.1081C75.5,-48.1539 75.5,-38.3227 75.5,-30.5765"/>
<polygon fill="midnightblue" stroke="midnightblue" points="72.0001,-57.3959 75.5,-67.396 79.0001,-57.396 72.0001,-57.3959"/>
</g>
<!-- Node3 -->
<g id="node3" class="node"><title>Node3</title>
<g id="a_node3"><a xlink:href="class_ogre_1_1_allocated_object.html" target="_top" xlink:title="Superclass for all objects that wish to use custom memory allocators when their new / delete operator...">
<polygon fill="none" stroke="black" points="41.5,-134.5 41.5,-153.5 109.5,-153.5 109.5,-134.5 41.5,-134.5"/>
<text text-anchor="middle" x="75.5" y="-141.5" font-family="Helvetica,sans-Serif" font-size="10.00">TerrainAlloc</text>
</a>
</g>
</g>
<!-- Node3&#45;&gt;Node2 -->
<g id="edge2" class="edge"><title>Node3&#45;&gt;Node2</title>
<path fill="none" stroke="midnightblue" d="M75.5,-124.235C75.5,-115.586 75.5,-105.497 75.5,-97.523"/>
<polygon fill="midnightblue" stroke="midnightblue" points="72.0001,-124.475 75.5,-134.475 79.0001,-124.475 72.0001,-124.475"/>
</g>
</g>
</svg>
