<?xml version="1.0" encoding="UTF-8" standalone="no"?>
<!DOCTYPE svg PUBLIC "-//W3C//DTD SVG 1.1//EN"
 "http://www.w3.org/Graphics/SVG/1.1/DTD/svg11.dtd">
<!-- Generated by graphviz version 2.40.1 (20161225.0304)
 -->
<!-- Title: Ogre::EGLWindow Pages: 1 -->
<svg width="755pt" height="142pt"
 viewBox="0.00 0.00 755.00 142.00" xmlns="http://www.w3.org/2000/svg" xmlns:xlink="http://www.w3.org/1999/xlink">
<g id="graph0" class="graph" transform="scale(1 1) rotate(0) translate(4 138)">
<title>Ogre::EGLWindow</title>
<!-- Node0 -->
<g id="node1" class="node">
<title>Node0</title>
<polygon fill="#bfbfbf" stroke="#000000" points="449,-57.5 449,-76.5 553,-76.5 553,-57.5 449,-57.5"/>
<text text-anchor="middle" x="501" y="-64.5" font-family="Helvetica,sans-Serif" font-size="10.00" fill="#000000">Ogre::EGLWindow</text>
</g>
<!-- Node5 -->
<g id="node6" class="node">
<title>Node5</title>
<g id="a_node6"><a xlink:href="class_ogre_1_1_android_e_g_l_window.html" target="_top" xlink:title="Ogre::AndroidEGLWindow">
<polygon fill="none" stroke="#000000" points="597.5,-114.5 597.5,-133.5 738.5,-133.5 738.5,-114.5 597.5,-114.5"/>
<text text-anchor="middle" x="668" y="-121.5" font-family="Helvetica,sans-Serif" font-size="10.00" fill="#000000">Ogre::AndroidEGLWindow</text>
</a>
</g>
</g>
<!-- Node0&#45;&gt;Node5 -->
<g id="edge5" class="edge">
<title>Node0&#45;&gt;Node5</title>
<path fill="none" stroke="#191970" d="M529.8849,-80.9655C546.8276,-88.7776 568.8087,-98.2679 589,-105 599.7057,-108.5695 611.4352,-111.7635 622.5031,-114.4682"/>
<polygon fill="#191970" stroke="#191970" points="531.0839,-77.6623 520.5431,-76.5933 528.1166,-84.0023 531.0839,-77.6623"/>
</g>
<!-- Node6 -->
<g id="node7" class="node">
<title>Node6</title>
<g id="a_node7"><a xlink:href="class_ogre_1_1_emscripten_e_g_l_window.html" target="_top" xlink:title="Ogre::EmscriptenEGLWindow">
<polygon fill="none" stroke="#000000" points="589,-76.5 589,-95.5 747,-95.5 747,-76.5 589,-76.5"/>
<text text-anchor="middle" x="668" y="-83.5" font-family="Helvetica,sans-Serif" font-size="10.00" fill="#000000">Ogre::EmscriptenEGLWindow</text>
</a>
</g>
</g>
<!-- Node0&#45;&gt;Node6 -->
<g id="edge6" class="edge">
<title>Node0&#45;&gt;Node6</title>
<path fill="none" stroke="#191970" d="M563.3675,-74.0957C571.6961,-75.0433 580.3249,-76.025 588.892,-76.9997"/>
<polygon fill="#191970" stroke="#191970" points="563.7132,-70.6125 553.3816,-72.9596 562.9219,-77.5677 563.7132,-70.6125"/>
</g>
<!-- Node7 -->
<g id="node8" class="node">
<title>Node7</title>
<g id="a_node8"><a xlink:href="class_ogre_1_1_win32_e_g_l_window.html" target="_top" xlink:title="Ogre::Win32EGLWindow">
<polygon fill="none" stroke="#000000" points="601,-38.5 601,-57.5 735,-57.5 735,-38.5 601,-38.5"/>
<text text-anchor="middle" x="668" y="-45.5" font-family="Helvetica,sans-Serif" font-size="10.00" fill="#000000">Ogre::Win32EGLWindow</text>
</a>
</g>
</g>
<!-- Node0&#45;&gt;Node7 -->
<g id="edge7" class="edge">
<title>Node0&#45;&gt;Node7</title>
<path fill="none" stroke="#191970" d="M563.4373,-59.8964C575.617,-58.5106 588.4363,-57.0522 600.7637,-55.6496"/>
<polygon fill="#191970" stroke="#191970" points="562.9219,-56.4323 553.3816,-61.0404 563.7132,-63.3875 562.9219,-56.4323"/>
</g>
<!-- Node8 -->
<g id="node9" class="node">
<title>Node8</title>
<g id="a_node9"><a xlink:href="class_ogre_1_1_x11_e_g_l_window.html" target="_top" xlink:title="Ogre::X11EGLWindow">
<polygon fill="none" stroke="#000000" points="607,-.5 607,-19.5 729,-19.5 729,-.5 607,-.5"/>
<text text-anchor="middle" x="668" y="-7.5" font-family="Helvetica,sans-Serif" font-size="10.00" fill="#000000">Ogre::X11EGLWindow</text>
</a>
</g>
</g>
<!-- Node0&#45;&gt;Node8 -->
<g id="edge8" class="edge">
<title>Node0&#45;&gt;Node8</title>
<path fill="none" stroke="#191970" d="M529.8849,-53.0345C546.8276,-45.2224 568.8087,-35.7321 589,-29 599.7057,-25.4305 611.4352,-22.2365 622.5031,-19.5318"/>
<polygon fill="#191970" stroke="#191970" points="528.1166,-49.9977 520.5431,-57.4067 531.0839,-56.3377 528.1166,-49.9977"/>
</g>
<!-- Node1 -->
<g id="node2" class="node">
<title>Node1</title>
<g id="a_node2"><a xlink:href="class_ogre_1_1_render_window.html" target="_top" xlink:title="Manages the target rendering window. ">
<polygon fill="none" stroke="#000000" points="294,-57.5 294,-76.5 413,-76.5 413,-57.5 294,-57.5"/>
<text text-anchor="middle" x="353.5" y="-64.5" font-family="Helvetica,sans-Serif" font-size="10.00" fill="#000000">Ogre::RenderWindow</text>
</a>
</g>
</g>
<!-- Node1&#45;&gt;Node0 -->
<g id="edge1" class="edge">
<title>Node1&#45;&gt;Node0</title>
<path fill="none" stroke="#191970" d="M423.1447,-67C431.7816,-67 440.4939,-67 448.8057,-67"/>
<polygon fill="#191970" stroke="#191970" points="423.0688,-63.5001 413.0687,-67 423.0687,-70.5001 423.0688,-63.5001"/>
</g>
<!-- Node2 -->
<g id="node3" class="node">
<title>Node2</title>
<g id="a_node3"><a xlink:href="class_ogre_1_1_render_target.html" target="_top" xlink:title="A &#39;canvas&#39; which can receive the results of a rendering operation. ">
<polygon fill="none" stroke="#000000" points="146,-57.5 146,-76.5 258,-76.5 258,-57.5 146,-57.5"/>
<text text-anchor="middle" x="202" y="-64.5" font-family="Helvetica,sans-Serif" font-size="10.00" fill="#000000">Ogre::RenderTarget</text>
</a>
</g>
</g>
<!-- Node2&#45;&gt;Node1 -->
<g id="edge2" class="edge">
<title>Node2&#45;&gt;Node1</title>
<path fill="none" stroke="#191970" d="M268.6147,-67C277.0645,-67 285.6682,-67 293.9969,-67"/>
<polygon fill="#191970" stroke="#191970" points="268.413,-63.5001 258.413,-67 268.413,-70.5001 268.413,-63.5001"/>
</g>
<!-- Node3 -->
<g id="node4" class="node">
<title>Node3</title>
<g id="a_node4"><a xlink:href="struct_ogre_1_1_gpu_resource.html" target="_top" xlink:title="Ogre::GpuResource">
<polygon fill="none" stroke="#000000" points="0,-76.5 0,-95.5 110,-95.5 110,-76.5 0,-76.5"/>
<text text-anchor="middle" x="55" y="-83.5" font-family="Helvetica,sans-Serif" font-size="10.00" fill="#000000">Ogre::GpuResource</text>
</a>
</g>
</g>
<!-- Node3&#45;&gt;Node2 -->
<g id="edge3" class="edge">
<title>Node3&#45;&gt;Node2</title>
<path fill="none" stroke="#191970" d="M120.3199,-77.5573C128.7364,-76.4694 137.2978,-75.3629 145.5552,-74.2956"/>
<polygon fill="#191970" stroke="#191970" points="119.6244,-74.118 110.1556,-78.871 120.5218,-81.0602 119.6244,-74.118"/>
</g>
<!-- Node4 -->
<g id="node5" class="node">
<title>Node4</title>
<g id="a_node5"><a xlink:href="class_ogre_1_1_allocated_object.html" target="_top" xlink:title="Superclass for all objects that wish to use custom memory allocators when their new / delete operator...">
<polygon fill="none" stroke="#000000" points="9,-38.5 9,-57.5 101,-57.5 101,-38.5 9,-38.5"/>
<text text-anchor="middle" x="55" y="-45.5" font-family="Helvetica,sans-Serif" font-size="10.00" fill="#000000">RenderSysAlloc</text>
</a>
</g>
</g>
<!-- Node4&#45;&gt;Node2 -->
<g id="edge4" class="edge">
<title>Node4&#45;&gt;Node2</title>
<path fill="none" stroke="#191970" d="M111.3436,-55.2825C122.7023,-56.7506 134.64,-58.2936 145.9874,-59.7603"/>
<polygon fill="#191970" stroke="#191970" points="111.4746,-51.7704 101.1084,-53.9596 110.5772,-58.7127 111.4746,-51.7704"/>
</g>
</g>
</svg>
