<?xml version="1.0" encoding="UTF-8" standalone="no"?>
<!DOCTYPE svg PUBLIC "-//W3C//DTD SVG 1.1//EN"
 "http://www.w3.org/Graphics/SVG/1.1/DTD/svg11.dtd">
<!-- Generated by graphviz version 2.38.0 (20140413.2041)
 -->
<!-- Title: Ogre::HlmsDatablock Pages: 1 -->
<svg width="412pt" height="180pt"
 viewBox="0.00 0.00 412.00 180.00" xmlns="http://www.w3.org/2000/svg" xmlns:xlink="http://www.w3.org/1999/xlink">
<g id="graph0" class="graph" transform="scale(1 1) rotate(0) translate(4 176)">
<title>Ogre::HlmsDatablock</title>
<!-- Node1 -->
<g id="node1" class="node"><title>Node1</title>
<polygon fill="#bfbfbf" stroke="black" points="97,-76.5 97,-95.5 208,-95.5 208,-76.5 97,-76.5"/>
<text text-anchor="middle" x="152.5" y="-83.5" font-family="Helvetica,sans-Serif" font-size="10.00">Ogre::HlmsDatablock</text>
</g>
<!-- Node3 -->
<g id="node3" class="node"><title>Node3</title>
<g id="a_node3"><a xlink:href="class_ogre_1_1_hlms_low_level_datablock.html" target="_top" xlink:title="Contains information needed by the UI (2D) for OpenGL ES 2.0. ">
<polygon fill="none" stroke="black" points="248,-152.5 248,-171.5 400,-171.5 400,-152.5 248,-152.5"/>
<text text-anchor="middle" x="324" y="-159.5" font-family="Helvetica,sans-Serif" font-size="10.00">Ogre::HlmsLowLevelDatablock</text>
</a>
</g>
</g>
<!-- Node1&#45;&gt;Node3 -->
<g id="edge2" class="edge"><title>Node1&#45;&gt;Node3</title>
<path fill="none" stroke="midnightblue" d="M174.043,-101.691C191.72,-114.498 218.357,-132.187 244,-143 252.969,-146.782 262.842,-149.905 272.48,-152.451"/>
<polygon fill="midnightblue" stroke="midnightblue" points="175.79,-98.6297 165.668,-95.5002 171.629,-104.259 175.79,-98.6297"/>
</g>
<!-- Node4 -->
<g id="node4" class="node"><title>Node4</title>
<g id="a_node4"><a xlink:href="class_ogre_1_1_hlms_pbs_datablock.html" target="_top" xlink:title="Contains information needed by PBS (Physically Based Shading) for OpenGL 3+ &amp; D3D11+. ">
<polygon fill="none" stroke="black" points="260,-114.5 260,-133.5 388,-133.5 388,-114.5 260,-114.5"/>
<text text-anchor="middle" x="324" y="-121.5" font-family="Helvetica,sans-Serif" font-size="10.00">Ogre::HlmsPbsDatablock</text>
</a>
</g>
</g>
<!-- Node1&#45;&gt;Node4 -->
<g id="edge3" class="edge"><title>Node1&#45;&gt;Node4</title>
<path fill="none" stroke="midnightblue" d="M206.242,-97.8243C230.139,-103.182 258.015,-109.431 280.536,-114.48"/>
<polygon fill="midnightblue" stroke="midnightblue" points="206.795,-94.3614 196.272,-95.589 205.264,-101.192 206.795,-94.3614"/>
</g>
<!-- Node5 -->
<g id="node5" class="node"><title>Node5</title>
<g id="a_node5"><a xlink:href="class_ogre_1_1_hlms_pbs_mobile_datablock.html" target="_top" xlink:title="Contains information needed by PBS (Physically Based Shading) for OpenGL ES 2.0. ">
<polygon fill="none" stroke="black" points="245.5,-76.5 245.5,-95.5 402.5,-95.5 402.5,-76.5 245.5,-76.5"/>
<text text-anchor="middle" x="324" y="-83.5" font-family="Helvetica,sans-Serif" font-size="10.00">Ogre::HlmsPbsMobileDatablock</text>
</a>
</g>
</g>
<!-- Node1&#45;&gt;Node5 -->
<g id="edge4" class="edge"><title>Node1&#45;&gt;Node5</title>
<path fill="none" stroke="midnightblue" d="M218.299,-86C227.161,-86 236.33,-86 245.391,-86"/>
<polygon fill="midnightblue" stroke="midnightblue" points="218.064,-82.5001 208.064,-86 218.064,-89.5001 218.064,-82.5001"/>
</g>
<!-- Node6 -->
<g id="node6" class="node"><title>Node6</title>
<g id="a_node6"><a xlink:href="class_ogre_1_1_hlms_unlit_datablock.html" target="_top" xlink:title="Contains information needed by PBS (Physically Based Shading) for OpenGL 3+ &amp; D3D11+. ">
<polygon fill="none" stroke="black" points="258.5,-38.5 258.5,-57.5 389.5,-57.5 389.5,-38.5 258.5,-38.5"/>
<text text-anchor="middle" x="324" y="-45.5" font-family="Helvetica,sans-Serif" font-size="10.00">Ogre::HlmsUnlitDatablock</text>
</a>
</g>
</g>
<!-- Node1&#45;&gt;Node6 -->
<g id="edge5" class="edge"><title>Node1&#45;&gt;Node6</title>
<path fill="none" stroke="midnightblue" d="M206.242,-74.1757C230.139,-68.8184 258.015,-62.5689 280.536,-57.5201"/>
<polygon fill="midnightblue" stroke="midnightblue" points="205.264,-70.8081 196.272,-76.411 206.795,-77.6386 205.264,-70.8081"/>
</g>
<!-- Node7 -->
<g id="node7" class="node"><title>Node7</title>
<g id="a_node7"><a xlink:href="class_ogre_1_1_hlms_unlit_mobile_datablock.html" target="_top" xlink:title="Contains information needed by the UI (2D) for OpenGL ES 2.0. ">
<polygon fill="none" stroke="black" points="244,-0.5 244,-19.5 404,-19.5 404,-0.5 244,-0.5"/>
<text text-anchor="middle" x="324" y="-7.5" font-family="Helvetica,sans-Serif" font-size="10.00">Ogre::HlmsUnlitMobileDatablock</text>
</a>
</g>
</g>
<!-- Node1&#45;&gt;Node7 -->
<g id="edge6" class="edge"><title>Node1&#45;&gt;Node7</title>
<path fill="none" stroke="midnightblue" d="M174.043,-70.3094C191.72,-57.5018 218.357,-39.8129 244,-29 252.969,-25.2182 262.842,-22.0947 272.48,-19.5494"/>
<polygon fill="midnightblue" stroke="midnightblue" points="171.629,-67.7411 165.668,-76.4998 175.79,-73.3703 171.629,-67.7411"/>
</g>
<!-- Node2 -->
<g id="node2" class="node"><title>Node2</title>
<g id="a_node2"><a xlink:href="class_ogre_1_1_allocated_object.html" target="_top" xlink:title="Superclass for all objects that wish to use custom memory allocators when their new / delete operator...">
<polygon fill="none" stroke="black" points="0,-76.5 0,-95.5 61,-95.5 61,-76.5 0,-76.5"/>
<text text-anchor="middle" x="30.5" y="-83.5" font-family="Helvetica,sans-Serif" font-size="10.00">PassAlloc</text>
</a>
</g>
</g>
<!-- Node2&#45;&gt;Node1 -->
<g id="edge1" class="edge"><title>Node2&#45;&gt;Node1</title>
<path fill="none" stroke="midnightblue" d="M71.224,-86C79.4537,-86 88.2602,-86 96.9152,-86"/>
<polygon fill="midnightblue" stroke="midnightblue" points="71.163,-82.5001 61.1629,-86 71.1629,-89.5001 71.163,-82.5001"/>
</g>
</g>
</svg>
