<?xml version="1.0" encoding="UTF-8" standalone="no"?>
<!DOCTYPE svg PUBLIC "-//W3C//DTD SVG 1.1//EN"
 "http://www.w3.org/Graphics/SVG/1.1/DTD/svg11.dtd">
<!-- Generated by graphviz version 2.40.1 (20161225.0304)
 -->
<!-- Title: Ogre::TexCoordModifierControllerValue Pages: 1 -->
<svg width="189pt" height="162pt"
 viewBox="0.00 0.00 189.00 162.00" xmlns="http://www.w3.org/2000/svg" xmlns:xlink="http://www.w3.org/1999/xlink">
<g id="graph0" class="graph" transform="scale(1 1) rotate(0) translate(4 158)">
<title>Ogre::TexCoordModifierControllerValue</title>
<!-- Node0 -->
<g id="node1" class="node">
<title>Node0</title>
<polygon fill="#bfbfbf" stroke="#000000" points="0,-.5 0,-30.5 181,-30.5 181,-.5 0,-.5"/>
<text text-anchor="start" x="8" y="-18.5" font-family="Helvetica,sans-Serif" font-size="10.00" fill="#000000">Ogre::TexCoordModifierController</text>
<text text-anchor="middle" x="90.5" y="-7.5" font-family="Helvetica,sans-Serif" font-size="10.00" fill="#000000">Value</text>
</g>
<!-- Node1 -->
<g id="node2" class="node">
<title>Node1</title>
<g id="a_node2"><a xlink:href="class_ogre_1_1_controller_value.html" target="_top" xlink:title="Ogre::ControllerValue\l\&lt; Real \&gt;">
<polygon fill="none" stroke="#000000" points="29.5,-67.5 29.5,-97.5 151.5,-97.5 151.5,-67.5 29.5,-67.5"/>
<text text-anchor="start" x="37.5" y="-85.5" font-family="Helvetica,sans-Serif" font-size="10.00" fill="#000000">Ogre::ControllerValue</text>
<text text-anchor="middle" x="90.5" y="-74.5" font-family="Helvetica,sans-Serif" font-size="10.00" fill="#000000">&lt; Real &gt;</text>
</a>
</g>
</g>
<!-- Node1&#45;&gt;Node0 -->
<g id="edge1" class="edge">
<title>Node1&#45;&gt;Node0</title>
<path fill="none" stroke="#191970" d="M90.5,-57.0249C90.5,-48.128 90.5,-38.4287 90.5,-30.6432"/>
<polygon fill="#191970" stroke="#191970" points="87.0001,-57.2966 90.5,-67.2967 94.0001,-57.2967 87.0001,-57.2966"/>
</g>
<!-- Node2 -->
<g id="node3" class="node">
<title>Node2</title>
<g id="a_node3"><a xlink:href="class_ogre_1_1_allocated_object.html" target="_top" xlink:title="Superclass for all objects that wish to use custom memory allocators when their new / delete operator...">
<polygon fill="none" stroke="#000000" points="46,-134.5 46,-153.5 135,-153.5 135,-134.5 46,-134.5"/>
<text text-anchor="middle" x="90.5" y="-141.5" font-family="Helvetica,sans-Serif" font-size="10.00" fill="#000000">ControllerAlloc</text>
</a>
</g>
</g>
<!-- Node2&#45;&gt;Node1 -->
<g id="edge2" class="edge">
<title>Node2&#45;&gt;Node1</title>
<path fill="none" stroke="#191970" d="M90.5,-124.3693C90.5,-115.681 90.5,-105.6241 90.5,-97.5446"/>
<polygon fill="#191970" stroke="#191970" points="87.0001,-124.3906 90.5,-134.3906 94.0001,-124.3907 87.0001,-124.3906"/>
</g>
</g>
</svg>
