<?xml version="1.0" encoding="UTF-8" standalone="no"?>
<!DOCTYPE svg PUBLIC "-//W3C//DTD SVG 1.1//EN"
 "http://www.w3.org/Graphics/SVG/1.1/DTD/svg11.dtd">
<!-- Generated by graphviz version 2.40.1 (20161225.0304)
 -->
<!-- Title: Ogre::WorkQueue::ResponseHandler Pages: 1 -->
<svg width="375pt" height="306pt"
 viewBox="0.00 0.00 375.00 306.00" xmlns="http://www.w3.org/2000/svg" xmlns:xlink="http://www.w3.org/1999/xlink">
<g id="graph0" class="graph" transform="scale(1 1) rotate(0) translate(4 302)">
<title>Ogre::WorkQueue::ResponseHandler</title>
<!-- Node0 -->
<g id="node1" class="node">
<title>Node0</title>
<polygon fill="#bfbfbf" stroke="#000000" points="0,-128 0,-158 156,-158 156,-128 0,-128"/>
<text text-anchor="start" x="8" y="-146" font-family="Helvetica,sans-Serif" font-size="10.00" fill="#000000">Ogre::WorkQueue::Response</text>
<text text-anchor="middle" x="78" y="-135" font-family="Helvetica,sans-Serif" font-size="10.00" fill="#000000">Handler</text>
</g>
<!-- Node1 -->
<g id="node2" class="node">
<title>Node1</title>
<g id="a_node2"><a xlink:href="class_ogre_1_1_lod_work_queue_injector.html" target="_top" xlink:title="Injects the output of a request to the mesh in a thread safe way. ">
<polygon fill="none" stroke="#000000" points="201,-278.5 201,-297.5 358,-297.5 358,-278.5 201,-278.5"/>
<text text-anchor="middle" x="279.5" y="-285.5" font-family="Helvetica,sans-Serif" font-size="10.00" fill="#000000">Ogre::LodWorkQueueInjector</text>
</a>
</g>
</g>
<!-- Node0&#45;&gt;Node1 -->
<g id="edge1" class="edge">
<title>Node0&#45;&gt;Node1</title>
<path fill="none" stroke="#191970" d="M92.7678,-166.8665C111.9531,-195.7545 148.2253,-243.6688 192,-269 198.7273,-272.8929 206.1646,-275.99 213.778,-278.4535"/>
<polygon fill="#191970" stroke="#191970" points="95.5299,-164.6932 87.1514,-158.2086 89.6574,-168.5028 95.5299,-164.6932"/>
</g>
<!-- Node2 -->
<g id="node3" class="node">
<title>Node2</title>
<g id="a_node3"><a xlink:href="class_ogre_1_1_page.html" target="_top" xlink:title="Page class. ">
<polygon fill="none" stroke="#000000" points="244.5,-240.5 244.5,-259.5 314.5,-259.5 314.5,-240.5 244.5,-240.5"/>
<text text-anchor="middle" x="279.5" y="-247.5" font-family="Helvetica,sans-Serif" font-size="10.00" fill="#000000">Ogre::Page</text>
</a>
</g>
</g>
<!-- Node0&#45;&gt;Node2 -->
<g id="edge2" class="edge">
<title>Node0&#45;&gt;Node2</title>
<path fill="none" stroke="#191970" d="M100.4666,-165.3136C122.1038,-185.5168 156.6705,-214.5568 192,-231 208.3482,-238.6089 227.8466,-243.2233 244.2836,-245.9948"/>
<polygon fill="#191970" stroke="#191970" points="102.7607,-162.6652 93.1025,-158.3098 97.9366,-167.7375 102.7607,-162.6652"/>
</g>
<!-- Node3 -->
<g id="node4" class="node">
<title>Node3</title>
<g id="a_node4"><a xlink:href="class_ogre_1_1_resource_background_queue.html" target="_top" xlink:title="This class is used to perform Resource operations in a background thread. ">
<polygon fill="none" stroke="#000000" points="205,-191 205,-221 354,-221 354,-191 205,-191"/>
<text text-anchor="start" x="213" y="-209" font-family="Helvetica,sans-Serif" font-size="10.00" fill="#000000">Ogre::ResourceBackground</text>
<text text-anchor="middle" x="279.5" y="-198" font-family="Helvetica,sans-Serif" font-size="10.00" fill="#000000">Queue</text>
</a>
</g>
</g>
<!-- Node0&#45;&gt;Node3 -->
<g id="edge3" class="edge">
<title>Node0&#45;&gt;Node3</title>
<path fill="none" stroke="#191970" d="M131.4128,-161.337C150.4746,-167.7397 172.1429,-174.8569 192,-181 202.7161,-184.3152 214.2186,-187.7145 225.247,-190.8962"/>
<polygon fill="#191970" stroke="#191970" points="132.2998,-157.9425 121.7057,-158.0629 130.0626,-164.5754 132.2998,-157.9425"/>
</g>
<!-- Node4 -->
<g id="node5" class="node">
<title>Node4</title>
<g id="a_node5"><a xlink:href="class_ogre_1_1_terrain.html" target="_top" xlink:title="The main containing class for a chunk of terrain. ">
<polygon fill="none" stroke="#000000" points="239.5,-152.5 239.5,-171.5 319.5,-171.5 319.5,-152.5 239.5,-152.5"/>
<text text-anchor="middle" x="279.5" y="-159.5" font-family="Helvetica,sans-Serif" font-size="10.00" fill="#000000">Ogre::Terrain</text>
</a>
</g>
</g>
<!-- Node0&#45;&gt;Node4 -->
<g id="edge4" class="edge">
<title>Node0&#45;&gt;Node4</title>
<path fill="none" stroke="#191970" d="M166.2772,-151.3239C191.7813,-153.7288 218.3683,-156.2357 239.3648,-158.2155"/>
<polygon fill="#191970" stroke="#191970" points="166.478,-147.8274 156.1936,-150.3731 165.8208,-154.7965 166.478,-147.8274"/>
</g>
<!-- Node5 -->
<g id="node6" class="node">
<title>Node5</title>
<g id="a_node6"><a xlink:href="class_ogre_1_1_terrain_group.html" target="_top" xlink:title="Helper class to assist you in managing multiple terrain instances that are connected to each other...">
<polygon fill="none" stroke="#000000" points="224.5,-114.5 224.5,-133.5 334.5,-133.5 334.5,-114.5 224.5,-114.5"/>
<text text-anchor="middle" x="279.5" y="-121.5" font-family="Helvetica,sans-Serif" font-size="10.00" fill="#000000">Ogre::TerrainGroup</text>
</a>
</g>
</g>
<!-- Node0&#45;&gt;Node5 -->
<g id="edge5" class="edge">
<title>Node0&#45;&gt;Node5</title>
<path fill="none" stroke="#191970" d="M166.1613,-134.687C185.9685,-132.8193 206.4352,-130.8895 224.434,-129.1923"/>
<polygon fill="#191970" stroke="#191970" points="165.8208,-131.2035 156.1936,-135.6269 166.478,-138.1726 165.8208,-131.2035"/>
</g>
<!-- Node6 -->
<g id="node7" class="node">
<title>Node6</title>
<g id="a_node7"><a xlink:href="class_ogre_1_1_terrain_lod_manager.html" target="_top" xlink:title="Terrain LOD data manager. ">
<polygon fill="none" stroke="#000000" points="209.5,-76.5 209.5,-95.5 349.5,-95.5 349.5,-76.5 209.5,-76.5"/>
<text text-anchor="middle" x="279.5" y="-83.5" font-family="Helvetica,sans-Serif" font-size="10.00" fill="#000000">Ogre::TerrainLodManager</text>
</a>
</g>
</g>
<!-- Node0&#45;&gt;Node6 -->
<g id="edge6" class="edge">
<title>Node0&#45;&gt;Node6</title>
<path fill="none" stroke="#191970" d="M129.2337,-124.6133C148.7394,-117.9595 171.2608,-110.6903 192,-105 204.5924,-101.5449 218.3418,-98.3116 231.1332,-95.5265"/>
<polygon fill="#191970" stroke="#191970" points="127.9431,-121.356 119.6286,-127.9225 130.2233,-127.9742 127.9431,-121.356"/>
</g>
<!-- Node7 -->
<g id="node8" class="node">
<title>Node7</title>
<g id="a_node8"><a xlink:href="class_ogre_1_1_terrain_paged_world_section.html" target="_top" xlink:title="A world section which includes paged terrain. ">
<polygon fill="none" stroke="#000000" points="192,-38.5 192,-57.5 367,-57.5 367,-38.5 192,-38.5"/>
<text text-anchor="middle" x="279.5" y="-45.5" font-family="Helvetica,sans-Serif" font-size="10.00" fill="#000000">Ogre::TerrainPagedWorldSection</text>
</a>
</g>
</g>
<!-- Node0&#45;&gt;Node7 -->
<g id="edge7" class="edge">
<title>Node0&#45;&gt;Node7</title>
<path fill="none" stroke="#191970" d="M104.0104,-121.5059C126.1172,-104.2983 159.3752,-80.8287 192,-67 201.0168,-63.1781 210.8948,-60.0866 220.6641,-57.5974"/>
<polygon fill="#191970" stroke="#191970" points="101.7767,-118.8101 96.1082,-127.7611 106.1214,-124.2987 101.7767,-118.8101"/>
</g>
<!-- Node8 -->
<g id="node9" class="node">
<title>Node8</title>
<g id="a_node9"><a xlink:href="class_ogre_1_1_volume_1_1_chunk_handler.html" target="_top" xlink:title="Handles the WorkQueue management of the chunks. ">
<polygon fill="none" stroke="#000000" points="200.5,-.5 200.5,-19.5 358.5,-19.5 358.5,-.5 200.5,-.5"/>
<text text-anchor="middle" x="279.5" y="-7.5" font-family="Helvetica,sans-Serif" font-size="10.00" fill="#000000">Ogre::Volume::ChunkHandler</text>
</a>
</g>
</g>
<!-- Node0&#45;&gt;Node8 -->
<g id="edge8" class="edge">
<title>Node0&#45;&gt;Node8</title>
<path fill="none" stroke="#191970" d="M94.8389,-119.4161C114.9117,-93.1382 150.9438,-51.4083 192,-29 199.0954,-25.1274 206.9184,-22.0441 214.8809,-19.5892"/>
<polygon fill="#191970" stroke="#191970" points="91.842,-117.5796 88.6593,-127.6851 97.4492,-121.77 91.842,-117.5796"/>
</g>
</g>
</svg>
