<?xml version="1.0" encoding="UTF-8" standalone="no"?>
<!DOCTYPE svg PUBLIC "-//W3C//DTD SVG 1.1//EN"
 "http://www.w3.org/Graphics/SVG/1.1/DTD/svg11.dtd">
<!-- Generated by graphviz version 2.38.0 (20140413.2041)
 -->
<!-- Title: Ogre::AnimableObject Pages: 1 -->
<svg width="842pt" height="686pt"
 viewBox="0.00 0.00 842.00 686.00" xmlns="http://www.w3.org/2000/svg" xmlns:xlink="http://www.w3.org/1999/xlink">
<g id="graph0" class="graph" transform="scale(1 1) rotate(0) translate(4 682)">
<title>Ogre::AnimableObject</title>
<!-- Node1 -->
<g id="node1" class="node"><title>Node1</title>
<polygon fill="#bfbfbf" stroke="black" points="0,-335.5 0,-354.5 113,-354.5 113,-335.5 0,-335.5"/>
<text text-anchor="middle" x="56.5" y="-342.5" font-family="Helvetica,sans-Serif" font-size="10.00">Ogre::AnimableObject</text>
</g>
<!-- Node2 -->
<g id="node2" class="node"><title>Node2</title>
<g id="a_node2"><a xlink:href="class_ogre_1_1_movable_object.html" target="_top" xlink:title="Abstract class defining a movable object in a scene. ">
<polygon fill="none" stroke="black" points="149,-335.5 149,-354.5 258,-354.5 258,-335.5 149,-335.5"/>
<text text-anchor="middle" x="203.5" y="-342.5" font-family="Helvetica,sans-Serif" font-size="10.00">Ogre::MovableObject</text>
</a>
</g>
</g>
<!-- Node1&#45;&gt;Node2 -->
<g id="edge1" class="edge"><title>Node1&#45;&gt;Node2</title>
<path fill="none" stroke="midnightblue" d="M123.381,-345C131.846,-345 140.433,-345 148.675,-345"/>
<polygon fill="midnightblue" stroke="midnightblue" points="123.146,-341.5 113.146,-345 123.146,-348.5 123.146,-341.5"/>
</g>
<!-- Node3 -->
<g id="node3" class="node"><title>Node3</title>
<g id="a_node3"><a xlink:href="class_ogre_1_1_frustum.html" target="_top" xlink:title="A frustum represents a pyramid, capped at the near and far end which is used to represent either a vi...">
<polygon fill="none" stroke="black" points="324,-658.5 324,-677.5 404,-677.5 404,-658.5 324,-658.5"/>
<text text-anchor="middle" x="364" y="-665.5" font-family="Helvetica,sans-Serif" font-size="10.00">Ogre::Frustum</text>
</a>
</g>
</g>
<!-- Node2&#45;&gt;Node3 -->
<g id="edge2" class="edge"><title>Node2&#45;&gt;Node3</title>
<path fill="none" stroke="midnightblue" d="M204.151,-364.785C204.324,-418.59 212.467,-568.891 294,-649 301.977,-656.837 312.873,-661.512 323.65,-664.28"/>
<polygon fill="midnightblue" stroke="midnightblue" points="207.652,-364.588 204.216,-354.566 200.652,-364.543 207.652,-364.588"/>
</g>
<!-- Node5 -->
<g id="node5" class="node"><title>Node5</title>
<g id="a_node5"><a xlink:href="class_ogre_1_1_item.html" target="_top" xlink:title="Defines an instance of a discrete, movable object based on a Mesh. ">
<polygon fill="none" stroke="black" points="332.5,-620.5 332.5,-639.5 395.5,-639.5 395.5,-620.5 332.5,-620.5"/>
<text text-anchor="middle" x="364" y="-627.5" font-family="Helvetica,sans-Serif" font-size="10.00">Ogre::Item</text>
</a>
</g>
</g>
<!-- Node2&#45;&gt;Node5 -->
<g id="edge4" class="edge"><title>Node2&#45;&gt;Node5</title>
<path fill="none" stroke="midnightblue" d="M205.133,-364.916C207.809,-414.173 221.732,-542.66 294,-611 304.292,-620.732 319.1,-625.564 332.362,-627.931"/>
<polygon fill="midnightblue" stroke="midnightblue" points="208.619,-364.505 204.683,-354.668 201.626,-364.812 208.619,-364.505"/>
</g>
<!-- Node6 -->
<g id="node6" class="node"><title>Node6</title>
<g id="a_node6"><a xlink:href="class_ogre_1_1_light.html" target="_top" xlink:title="Representation of a dynamic light source in the scene. ">
<polygon fill="none" stroke="black" points="331.5,-582.5 331.5,-601.5 396.5,-601.5 396.5,-582.5 331.5,-582.5"/>
<text text-anchor="middle" x="364" y="-589.5" font-family="Helvetica,sans-Serif" font-size="10.00">Ogre::Light</text>
</a>
</g>
</g>
<!-- Node2&#45;&gt;Node6 -->
<g id="edge5" class="edge"><title>Node2&#45;&gt;Node6</title>
<path fill="none" stroke="midnightblue" d="M206.429,-365.041C211.786,-409.355 230.898,-516.219 294,-573 304.16,-582.142 318.328,-586.936 331.184,-589.43"/>
<polygon fill="midnightblue" stroke="midnightblue" points="209.893,-364.523 205.323,-354.965 202.935,-365.287 209.893,-364.523"/>
</g>
<!-- Node7 -->
<g id="node7" class="node"><title>Node7</title>
<g id="a_node7"><a xlink:href="class_ogre_1_1_manual_object.html" target="_top" xlink:title="Ogre::ManualObject">
<polygon fill="none" stroke="black" points="312,-544.5 312,-563.5 416,-563.5 416,-544.5 312,-544.5"/>
<text text-anchor="middle" x="364" y="-551.5" font-family="Helvetica,sans-Serif" font-size="10.00">Ogre::ManualObject</text>
</a>
</g>
</g>
<!-- Node2&#45;&gt;Node7 -->
<g id="edge6" class="edge"><title>Node2&#45;&gt;Node7</title>
<path fill="none" stroke="midnightblue" d="M208.086,-364.558C216.201,-403.14 239.665,-489.268 294,-535 299.228,-539.401 305.395,-542.787 311.856,-545.393"/>
<polygon fill="midnightblue" stroke="midnightblue" points="211.491,-363.737 206.116,-354.607 204.624,-365.096 211.491,-363.737"/>
</g>
<!-- Node8 -->
<g id="node8" class="node"><title>Node8</title>
<g id="a_node8"><a xlink:href="class_ogre_1_1_movable_plane.html" target="_top" xlink:title="Definition of a Plane that may be attached to a node, and the derived details of it retrieved simply...">
<polygon fill="none" stroke="black" points="311.5,-506.5 311.5,-525.5 416.5,-525.5 416.5,-506.5 311.5,-506.5"/>
<text text-anchor="middle" x="364" y="-513.5" font-family="Helvetica,sans-Serif" font-size="10.00">Ogre::MovablePlane</text>
</a>
</g>
</g>
<!-- Node2&#45;&gt;Node8 -->
<g id="edge7" class="edge"><title>Node2&#45;&gt;Node8</title>
<path fill="none" stroke="midnightblue" d="M210.455,-364.183C221.516,-396.584 248.351,-462.032 294,-497 299.129,-500.929 305.021,-504.046 311.155,-506.518"/>
<polygon fill="midnightblue" stroke="midnightblue" points="213.741,-362.969 207.305,-354.553 207.088,-365.146 213.741,-362.969"/>
</g>
<!-- Node9 -->
<g id="node9" class="node"><title>Node9</title>
<g id="a_node9"><a xlink:href="class_ogre_1_1_null_entity.html" target="_top" xlink:title="Ogre::NullEntity">
<polygon fill="none" stroke="black" points="321,-468.5 321,-487.5 407,-487.5 407,-468.5 321,-468.5"/>
<text text-anchor="middle" x="364" y="-475.5" font-family="Helvetica,sans-Serif" font-size="10.00">Ogre::NullEntity</text>
</a>
</g>
</g>
<!-- Node2&#45;&gt;Node9 -->
<g id="edge8" class="edge"><title>Node2&#45;&gt;Node9</title>
<path fill="none" stroke="midnightblue" d="M214.108,-363.63C228.184,-389.053 256.824,-434.272 294,-459 301.966,-464.299 311.382,-468.129 320.656,-470.894"/>
<polygon fill="midnightblue" stroke="midnightblue" points="217.1,-361.802 209.287,-354.646 210.932,-365.113 217.1,-361.802"/>
</g>
<!-- Node10 -->
<g id="node10" class="node"><title>Node10</title>
<g id="a_node10"><a xlink:href="class_ogre_1_1_particle_system.html" target="_top" xlink:title="Class defining particle system based special effects. ">
<polygon fill="none" stroke="black" points="309,-430.5 309,-449.5 419,-449.5 419,-430.5 309,-430.5"/>
<text text-anchor="middle" x="364" y="-437.5" font-family="Helvetica,sans-Serif" font-size="10.00">Ogre::ParticleSystem</text>
</a>
</g>
</g>
<!-- Node2&#45;&gt;Node10 -->
<g id="edge9" class="edge"><title>Node2&#45;&gt;Node10</title>
<path fill="none" stroke="midnightblue" d="M220.434,-362.388C237.17,-379.651 265.04,-405.688 294,-421 301.25,-424.833 309.347,-427.952 317.374,-430.472"/>
<polygon fill="midnightblue" stroke="midnightblue" points="222.574,-359.558 213.156,-354.704 217.492,-364.372 222.574,-359.558"/>
</g>
<!-- Node11 -->
<g id="node11" class="node"><title>Node11</title>
<g id="a_node11"><a xlink:href="class_ogre_1_1v1_1_1_billboard_chain.html" target="_top" xlink:title="Allows the rendering of a chain of connected billboards. ">
<polygon fill="none" stroke="black" points="302.5,-392.5 302.5,-411.5 425.5,-411.5 425.5,-392.5 302.5,-392.5"/>
<text text-anchor="middle" x="364" y="-399.5" font-family="Helvetica,sans-Serif" font-size="10.00">Ogre::v1::BillboardChain</text>
</a>
</g>
</g>
<!-- Node2&#45;&gt;Node11 -->
<g id="edge10" class="edge"><title>Node2&#45;&gt;Node11</title>
<path fill="none" stroke="midnightblue" d="M234.326,-358.84C251.547,-366.533 273.744,-375.946 294,-383 303.856,-386.432 314.674,-389.658 324.76,-392.443"/>
<polygon fill="midnightblue" stroke="midnightblue" points="235.368,-355.47 224.814,-354.541 232.485,-361.849 235.368,-355.47"/>
</g>
<!-- Node13 -->
<g id="node13" class="node"><title>Node13</title>
<g id="a_node13"><a xlink:href="class_ogre_1_1v1_1_1_billboard_set.html" target="_top" xlink:title="A collection of billboards (faces which are always facing the given direction) with the same (default...">
<polygon fill="none" stroke="black" points="307.5,-354.5 307.5,-373.5 420.5,-373.5 420.5,-354.5 307.5,-354.5"/>
<text text-anchor="middle" x="364" y="-361.5" font-family="Helvetica,sans-Serif" font-size="10.00">Ogre::v1::BillboardSet</text>
</a>
</g>
</g>
<!-- Node2&#45;&gt;Node13 -->
<g id="edge12" class="edge"><title>Node2&#45;&gt;Node13</title>
<path fill="none" stroke="midnightblue" d="M268.339,-352.653C281.215,-354.196 294.656,-355.807 307.23,-357.315"/>
<polygon fill="midnightblue" stroke="midnightblue" points="268.506,-349.148 258.161,-351.433 267.673,-356.098 268.506,-349.148"/>
</g>
<!-- Node14 -->
<g id="node14" class="node"><title>Node14</title>
<g id="a_node14"><a xlink:href="class_ogre_1_1v1_1_1_entity.html" target="_top" xlink:title="Defines an instance of a discrete, movable object based on a Mesh. ">
<polygon fill="none" stroke="black" points="321,-316.5 321,-335.5 407,-335.5 407,-316.5 321,-316.5"/>
<text text-anchor="middle" x="364" y="-323.5" font-family="Helvetica,sans-Serif" font-size="10.00">Ogre::v1::Entity</text>
</a>
</g>
</g>
<!-- Node2&#45;&gt;Node14 -->
<g id="edge13" class="edge"><title>Node2&#45;&gt;Node14</title>
<path fill="none" stroke="midnightblue" d="M268.417,-337.338C286.092,-335.219 304.825,-332.974 320.915,-331.045"/>
<polygon fill="midnightblue" stroke="midnightblue" points="267.673,-333.902 258.161,-338.567 268.506,-340.852 267.673,-333.902"/>
</g>
<!-- Node15 -->
<g id="node15" class="node"><title>Node15</title>
<g id="a_node15"><a xlink:href="class_ogre_1_1v1_1_1_instance_batch.html" target="_top" xlink:title="InstanceBatch forms part of the new Instancing system This is an abstract class that must be derived ...">
<polygon fill="none" stroke="black" points="302.5,-278.5 302.5,-297.5 425.5,-297.5 425.5,-278.5 302.5,-278.5"/>
<text text-anchor="middle" x="364" y="-285.5" font-family="Helvetica,sans-Serif" font-size="10.00">Ogre::v1::InstanceBatch</text>
</a>
</g>
</g>
<!-- Node2&#45;&gt;Node15 -->
<g id="edge14" class="edge"><title>Node2&#45;&gt;Node15</title>
<path fill="none" stroke="midnightblue" d="M234.326,-331.16C251.547,-323.467 273.744,-314.054 294,-307 303.856,-303.568 314.674,-300.342 324.76,-297.557"/>
<polygon fill="midnightblue" stroke="midnightblue" points="232.485,-328.151 224.814,-335.459 235.368,-334.53 232.485,-328.151"/>
</g>
<!-- Node21 -->
<g id="node21" class="node"><title>Node21</title>
<g id="a_node21"><a xlink:href="class_ogre_1_1v1_1_1_instanced_entity.html" target="_top" xlink:title="Ogre::v1::InstancedEntity">
<polygon fill="none" stroke="black" points="300,-240.5 300,-259.5 428,-259.5 428,-240.5 300,-240.5"/>
<text text-anchor="middle" x="364" y="-247.5" font-family="Helvetica,sans-Serif" font-size="10.00">Ogre::v1::InstancedEntity</text>
</a>
</g>
</g>
<!-- Node2&#45;&gt;Node21 -->
<g id="edge20" class="edge"><title>Node2&#45;&gt;Node21</title>
<path fill="none" stroke="midnightblue" d="M220.434,-327.612C237.17,-310.349 265.04,-284.312 294,-269 301.25,-265.167 309.347,-262.048 317.374,-259.528"/>
<polygon fill="midnightblue" stroke="midnightblue" points="217.492,-325.628 213.156,-335.296 222.574,-330.442 217.492,-325.628"/>
</g>
<!-- Node22 -->
<g id="node22" class="node"><title>Node22</title>
<g id="a_node22"><a xlink:href="class_ogre_1_1v1_1_1_manual_object.html" target="_top" xlink:title="Class providing a much simplified interface to generating manual objects with custom geometry...">
<polygon fill="none" stroke="black" points="304,-202.5 304,-221.5 424,-221.5 424,-202.5 304,-202.5"/>
<text text-anchor="middle" x="364" y="-209.5" font-family="Helvetica,sans-Serif" font-size="10.00">Ogre::v1::ManualObject</text>
</a>
</g>
</g>
<!-- Node2&#45;&gt;Node22 -->
<g id="edge21" class="edge"><title>Node2&#45;&gt;Node22</title>
<path fill="none" stroke="midnightblue" d="M214.108,-326.37C228.184,-300.947 256.824,-255.728 294,-231 299.793,-227.146 306.354,-224.07 313.069,-221.614"/>
<polygon fill="midnightblue" stroke="midnightblue" points="210.932,-324.887 209.287,-335.354 217.1,-328.198 210.932,-324.887"/>
</g>
<!-- Node23 -->
<g id="node23" class="node"><title>Node23</title>
<g id="a_node23"><a xlink:href="class_ogre_1_1v1_1_1_overlay.html" target="_top" xlink:title="Represents a layer which is rendered on top of the &#39;normal&#39; scene contents. ">
<polygon fill="none" stroke="black" points="317,-164.5 317,-183.5 411,-183.5 411,-164.5 317,-164.5"/>
<text text-anchor="middle" x="364" y="-171.5" font-family="Helvetica,sans-Serif" font-size="10.00">Ogre::v1::Overlay</text>
</a>
</g>
</g>
<!-- Node2&#45;&gt;Node23 -->
<g id="edge22" class="edge"><title>Node2&#45;&gt;Node23</title>
<path fill="none" stroke="midnightblue" d="M210.455,-325.817C221.516,-293.416 248.351,-227.968 294,-193 300.707,-187.862 308.72,-184.113 316.871,-181.378"/>
<polygon fill="midnightblue" stroke="midnightblue" points="207.088,-324.854 207.305,-335.447 213.741,-327.031 207.088,-324.854"/>
</g>
<!-- Node24 -->
<g id="node24" class="node"><title>Node24</title>
<g id="a_node24"><a xlink:href="class_ogre_1_1v1_1_1_rectangle2_d.html" target="_top" xlink:title="Allows the rendering of a simple 2D rectangle This class renders a simple 2D rectangle; this rectangl...">
<polygon fill="none" stroke="black" points="305.5,-126.5 305.5,-145.5 422.5,-145.5 422.5,-126.5 305.5,-126.5"/>
<text text-anchor="middle" x="364" y="-133.5" font-family="Helvetica,sans-Serif" font-size="10.00">Ogre::v1::Rectangle2D</text>
</a>
</g>
</g>
<!-- Node2&#45;&gt;Node24 -->
<g id="edge23" class="edge"><title>Node2&#45;&gt;Node24</title>
<path fill="none" stroke="midnightblue" d="M208.086,-325.442C216.201,-286.86 239.665,-200.732 294,-155 298.563,-151.16 303.841,-148.091 309.404,-145.641"/>
<polygon fill="midnightblue" stroke="midnightblue" points="204.624,-324.904 206.116,-335.393 211.491,-326.263 204.624,-324.904"/>
</g>
<!-- Node25 -->
<g id="node25" class="node"><title>Node25</title>
<g id="a_node25"><a xlink:href="class_ogre_1_1v1_1_1_simple_renderable.html" target="_top" xlink:title="Simple implementation of MovableObject and Renderable for single&#45;part custom objects. ">
<polygon fill="none" stroke="black" points="294,-88.5 294,-107.5 434,-107.5 434,-88.5 294,-88.5"/>
<text text-anchor="middle" x="364" y="-95.5" font-family="Helvetica,sans-Serif" font-size="10.00">Ogre::v1::SimpleRenderable</text>
</a>
</g>
</g>
<!-- Node2&#45;&gt;Node25 -->
<g id="edge24" class="edge"><title>Node2&#45;&gt;Node25</title>
<path fill="none" stroke="midnightblue" d="M206.429,-324.959C211.786,-280.645 230.898,-173.781 294,-117 298.341,-113.094 303.414,-109.982 308.803,-107.503"/>
<polygon fill="midnightblue" stroke="midnightblue" points="202.935,-324.713 205.323,-335.035 209.893,-325.477 202.935,-324.713"/>
</g>
<!-- Node27 -->
<g id="node27" class="node"><title>Node27</title>
<g id="a_node27"><a xlink:href="class_ogre_1_1v1_1_1_static_geometry_1_1_region.html" target="_top" xlink:title="The details of a topological region which is the highest level of partitioning for this class...">
<polygon fill="none" stroke="black" points="300,-39 300,-69 428,-69 428,-39 300,-39"/>
<text text-anchor="start" x="308" y="-57" font-family="Helvetica,sans-Serif" font-size="10.00">Ogre::v1::StaticGeometry</text>
<text text-anchor="middle" x="364" y="-46" font-family="Helvetica,sans-Serif" font-size="10.00">::Region</text>
</a>
</g>
</g>
<!-- Node2&#45;&gt;Node27 -->
<g id="edge26" class="edge"><title>Node2&#45;&gt;Node27</title>
<path fill="none" stroke="midnightblue" d="M205.496,-325.098C208.994,-276.385 224.641,-149.976 294,-79 297.74,-75.1727 302.11,-71.9283 306.803,-69.1786"/>
<polygon fill="midnightblue" stroke="midnightblue" points="201.992,-325.05 204.867,-335.247 208.979,-325.482 201.992,-325.05"/>
</g>
<!-- Node28 -->
<g id="node28" class="node"><title>Node28</title>
<g id="a_node28"><a xlink:href="class_ogre_1_1_wire_aabb.html" target="_top" xlink:title="Helper class to display the Aabb of a MovableObject as lines. ">
<polygon fill="none" stroke="black" points="321,-0.5 321,-19.5 407,-19.5 407,-0.5 321,-0.5"/>
<text text-anchor="middle" x="364" y="-7.5" font-family="Helvetica,sans-Serif" font-size="10.00">Ogre::WireAabb</text>
</a>
</g>
</g>
<!-- Node2&#45;&gt;Node28 -->
<g id="edge27" class="edge"><title>Node2&#45;&gt;Node28</title>
<path fill="none" stroke="midnightblue" d="M203.967,-325.295C203.599,-270.374 210.341,-114.103 294,-30 301.213,-22.7491 310.884,-18.0914 320.699,-15.1094"/>
<polygon fill="midnightblue" stroke="midnightblue" points="200.469,-325.471 204.128,-335.414 207.469,-325.36 200.469,-325.471"/>
</g>
<!-- Node4 -->
<g id="node4" class="node"><title>Node4</title>
<g id="a_node4"><a xlink:href="class_ogre_1_1_camera.html" target="_top" xlink:title="A viewpoint from which the scene will be rendered. ">
<polygon fill="none" stroke="black" points="513,-658.5 513,-677.5 591,-677.5 591,-658.5 513,-658.5"/>
<text text-anchor="middle" x="552" y="-665.5" font-family="Helvetica,sans-Serif" font-size="10.00">Ogre::Camera</text>
</a>
</g>
</g>
<!-- Node3&#45;&gt;Node4 -->
<g id="edge3" class="edge"><title>Node3&#45;&gt;Node4</title>
<path fill="none" stroke="midnightblue" d="M414.563,-668C445.405,-668 484.466,-668 512.883,-668"/>
<polygon fill="midnightblue" stroke="midnightblue" points="414.446,-664.5 404.446,-668 414.446,-671.5 414.446,-664.5"/>
</g>
<!-- Node12 -->
<g id="node12" class="node"><title>Node12</title>
<g id="a_node12"><a xlink:href="class_ogre_1_1v1_1_1_ribbon_trail.html" target="_top" xlink:title="Subclass of BillboardChain which automatically leaves a trail behind one or more Node instances...">
<polygon fill="none" stroke="black" points="497,-392.5 497,-411.5 607,-411.5 607,-392.5 497,-392.5"/>
<text text-anchor="middle" x="552" y="-399.5" font-family="Helvetica,sans-Serif" font-size="10.00">Ogre::v1::RibbonTrail</text>
</a>
</g>
</g>
<!-- Node11&#45;&gt;Node12 -->
<g id="edge11" class="edge"><title>Node11&#45;&gt;Node12</title>
<path fill="none" stroke="midnightblue" d="M435.742,-402C455.953,-402 477.653,-402 496.713,-402"/>
<polygon fill="midnightblue" stroke="midnightblue" points="435.646,-398.5 425.646,-402 435.646,-405.5 435.646,-398.5"/>
</g>
<!-- Node16 -->
<g id="node16" class="node"><title>Node16</title>
<g id="a_node16"><a xlink:href="class_ogre_1_1v1_1_1_base_instance_batch_v_t_f.html" target="_top" xlink:title="Instancing implementation using vertex texture through Vertex Texture Fetch (VTF) This implementation...">
<polygon fill="none" stroke="black" points="470,-316.5 470,-335.5 634,-335.5 634,-316.5 470,-316.5"/>
<text text-anchor="middle" x="552" y="-323.5" font-family="Helvetica,sans-Serif" font-size="10.00">Ogre::v1::BaseInstanceBatchVTF</text>
</a>
</g>
</g>
<!-- Node15&#45;&gt;Node16 -->
<g id="edge15" class="edge"><title>Node15&#45;&gt;Node16</title>
<path fill="none" stroke="midnightblue" d="M421.825,-299.61C448.279,-305.014 479.358,-311.364 504.402,-316.48"/>
<polygon fill="midnightblue" stroke="midnightblue" points="422.434,-296.162 411.936,-297.589 421.033,-303.02 422.434,-296.162"/>
</g>
<!-- Node19 -->
<g id="node19" class="node"><title>Node19</title>
<g id="a_node19"><a xlink:href="class_ogre_1_1v1_1_1_instance_batch_h_w.html" target="_top" xlink:title="This is technique requires true instancing hardware support. ">
<polygon fill="none" stroke="black" points="482,-278.5 482,-297.5 622,-297.5 622,-278.5 482,-278.5"/>
<text text-anchor="middle" x="552" y="-285.5" font-family="Helvetica,sans-Serif" font-size="10.00">Ogre::v1::InstanceBatchHW</text>
</a>
</g>
</g>
<!-- Node15&#45;&gt;Node19 -->
<g id="edge18" class="edge"><title>Node15&#45;&gt;Node19</title>
<path fill="none" stroke="midnightblue" d="M435.896,-288C450.92,-288 466.761,-288 481.724,-288"/>
<polygon fill="midnightblue" stroke="midnightblue" points="435.646,-284.5 425.646,-288 435.646,-291.5 435.646,-284.5"/>
</g>
<!-- Node20 -->
<g id="node20" class="node"><title>Node20</title>
<g id="a_node20"><a xlink:href="class_ogre_1_1v1_1_1_instance_batch_shader.html" target="_top" xlink:title="This is the same technique the old &quot;InstancedGeometry&quot; implementation used (with improvements). ">
<polygon fill="none" stroke="black" points="475,-240.5 475,-259.5 629,-259.5 629,-240.5 475,-240.5"/>
<text text-anchor="middle" x="552" y="-247.5" font-family="Helvetica,sans-Serif" font-size="10.00">Ogre::v1::InstanceBatchShader</text>
</a>
</g>
</g>
<!-- Node15&#45;&gt;Node20 -->
<g id="edge19" class="edge"><title>Node15&#45;&gt;Node20</title>
<path fill="none" stroke="midnightblue" d="M421.825,-276.39C448.279,-270.986 479.358,-264.636 504.402,-259.52"/>
<polygon fill="midnightblue" stroke="midnightblue" points="421.033,-272.98 411.936,-278.411 422.434,-279.838 421.033,-272.98"/>
</g>
<!-- Node17 -->
<g id="node17" class="node"><title>Node17</title>
<g id="a_node17"><a xlink:href="class_ogre_1_1v1_1_1_instance_batch_h_w___v_t_f.html" target="_top" xlink:title="Instancing implementation using vertex texture through Vertex Texture Fetch (VTF) and hardware instan...">
<polygon fill="none" stroke="black" points="670,-335.5 670,-354.5 834,-354.5 834,-335.5 670,-335.5"/>
<text text-anchor="middle" x="752" y="-342.5" font-family="Helvetica,sans-Serif" font-size="10.00">Ogre::v1::InstanceBatchHW_VTF</text>
</a>
</g>
</g>
<!-- Node16&#45;&gt;Node17 -->
<g id="edge16" class="edge"><title>Node16&#45;&gt;Node17</title>
<path fill="none" stroke="midnightblue" d="M644.085,-334.74C652.63,-335.56 661.254,-336.388 669.7,-337.199"/>
<polygon fill="midnightblue" stroke="midnightblue" points="644.394,-331.254 634.105,-333.783 643.725,-338.222 644.394,-331.254"/>
</g>
<!-- Node18 -->
<g id="node18" class="node"><title>Node18</title>
<g id="a_node18"><a xlink:href="class_ogre_1_1v1_1_1_instance_batch_v_t_f.html" target="_top" xlink:title="Ogre::v1::InstanceBatchVTF">
<polygon fill="none" stroke="black" points="681,-297.5 681,-316.5 823,-316.5 823,-297.5 681,-297.5"/>
<text text-anchor="middle" x="752" y="-304.5" font-family="Helvetica,sans-Serif" font-size="10.00">Ogre::v1::InstanceBatchVTF</text>
</a>
</g>
</g>
<!-- Node16&#45;&gt;Node18 -->
<g id="edge17" class="edge"><title>Node16&#45;&gt;Node18</title>
<path fill="none" stroke="midnightblue" d="M644.338,-317.235C656.584,-316.06 668.986,-314.87 680.791,-313.737"/>
<polygon fill="midnightblue" stroke="midnightblue" points="643.725,-313.778 634.105,-318.217 644.394,-320.746 643.725,-313.778"/>
</g>
<!-- Node26 -->
<g id="node26" class="node"><title>Node26</title>
<g id="a_node26"><a xlink:href="class_ogre_1_1v1_1_1_wire_bounding_box.html" target="_top" xlink:title="Allows the rendering of a wireframe bounding box. ">
<polygon fill="none" stroke="black" points="483,-88.5 483,-107.5 621,-107.5 621,-88.5 483,-88.5"/>
<text text-anchor="middle" x="552" y="-95.5" font-family="Helvetica,sans-Serif" font-size="10.00">Ogre::v1::WireBoundingBox</text>
</a>
</g>
</g>
<!-- Node25&#45;&gt;Node26 -->
<g id="edge25" class="edge"><title>Node25&#45;&gt;Node26</title>
<path fill="none" stroke="midnightblue" d="M444.439,-98C457.248,-98 470.409,-98 482.92,-98"/>
<polygon fill="midnightblue" stroke="midnightblue" points="444.26,-94.5001 434.26,-98 444.26,-101.5 444.26,-94.5001"/>
</g>
</g>
</svg>
