<?xml version="1.0" encoding="UTF-8" standalone="no"?>
<!DOCTYPE svg PUBLIC "-//W3C//DTD SVG 1.1//EN"
 "http://www.w3.org/Graphics/SVG/1.1/DTD/svg11.dtd">
<!-- Generated by graphviz version 2.40.1 (20161225.0304)
 -->
<!-- Title: Ogre::ArrayMemoryManager::RebaseListener Pages: 1 -->
<svg width="469pt" height="95pt"
 viewBox="0.00 0.00 469.00 95.00" xmlns="http://www.w3.org/2000/svg" xmlns:xlink="http://www.w3.org/1999/xlink">
<g id="graph0" class="graph" transform="scale(1 1) rotate(0) translate(4 91)">
<title>Ogre::ArrayMemoryManager::RebaseListener</title>
<!-- Node0 -->
<g id="node1" class="node">
<title>Node0</title>
<polygon fill="#bfbfbf" stroke="#000000" points="157.5,-56.5 157.5,-86.5 297.5,-86.5 297.5,-56.5 157.5,-56.5"/>
<text text-anchor="start" x="165.5" y="-74.5" font-family="Helvetica,sans-Serif" font-size="10.00" fill="#000000">Ogre::ArrayMemoryManager</text>
<text text-anchor="middle" x="227.5" y="-63.5" font-family="Helvetica,sans-Serif" font-size="10.00" fill="#000000">::RebaseListener</text>
</g>
<!-- Node1 -->
<g id="node2" class="node">
<title>Node1</title>
<g id="a_node2"><a xlink:href="class_ogre_1_1_bone_memory_manager.html" target="_top" xlink:title="Wrap&#45;around class that contains multiple ArrayMemoryManager, one per hierarchy depth. ">
<polygon fill="none" stroke="#000000" points="0,-.5 0,-19.5 139,-19.5 139,-.5 0,-.5"/>
<text text-anchor="middle" x="69.5" y="-7.5" font-family="Helvetica,sans-Serif" font-size="10.00" fill="#000000">Ogre::BoneMemoryManager</text>
</a>
</g>
</g>
<!-- Node0&#45;&gt;Node1 -->
<g id="edge1" class="edge">
<title>Node0&#45;&gt;Node1</title>
<path fill="none" stroke="#8b1a1a" d="M179.1677,-52.6871C150.9881,-41.7185 116.6459,-28.3511 93.9844,-19.5303"/>
<polygon fill="#8b1a1a" stroke="#8b1a1a" points="178.2603,-56.0897 188.8489,-56.4554 180.7995,-49.5664 178.2603,-56.0897"/>
</g>
<!-- Node2 -->
<g id="node3" class="node">
<title>Node2</title>
<g id="a_node3"><a xlink:href="class_ogre_1_1_node_memory_manager.html" target="_top" xlink:title="Wrap&#45;around class that contains multiple ArrayMemoryManager, one per hierarchy depth. ">
<polygon fill="none" stroke="#000000" points="157.5,-.5 157.5,-19.5 297.5,-19.5 297.5,-.5 157.5,-.5"/>
<text text-anchor="middle" x="227.5" y="-7.5" font-family="Helvetica,sans-Serif" font-size="10.00" fill="#000000">Ogre::NodeMemoryManager</text>
</a>
</g>
</g>
<!-- Node0&#45;&gt;Node2 -->
<g id="edge2" class="edge">
<title>Node0&#45;&gt;Node2</title>
<path fill="none" stroke="#8b1a1a" d="M227.5,-46.2849C227.5,-36.9858 227.5,-26.9883 227.5,-19.8469"/>
<polygon fill="#8b1a1a" stroke="#8b1a1a" points="224.0001,-46.2977 227.5,-56.2977 231.0001,-46.2978 224.0001,-46.2977"/>
</g>
<!-- Node3 -->
<g id="node4" class="node">
<title>Node3</title>
<g id="a_node4"><a xlink:href="class_ogre_1_1_object_memory_manager.html" target="_top" xlink:title="Wrap&#45;around class that contains multiple ArrayMemoryManager, one per render queue. ">
<polygon fill="none" stroke="#000000" points="316,-.5 316,-19.5 461,-19.5 461,-.5 316,-.5"/>
<text text-anchor="middle" x="388.5" y="-7.5" font-family="Helvetica,sans-Serif" font-size="10.00" fill="#000000">Ogre::ObjectMemoryManager</text>
</a>
</g>
</g>
<!-- Node0&#45;&gt;Node3 -->
<g id="edge3" class="edge">
<title>Node0&#45;&gt;Node3</title>
<path fill="none" stroke="#8b1a1a" d="M276.3742,-52.8306C305.1588,-41.8353 340.3581,-28.3896 363.5507,-19.5303"/>
<polygon fill="#8b1a1a" stroke="#8b1a1a" points="274.9777,-49.6174 266.885,-56.4554 277.4757,-56.1565 274.9777,-49.6174"/>
</g>
</g>
</svg>
