<?xml version="1.0" encoding="UTF-8" standalone="no"?>
<!DOCTYPE svg PUBLIC "-//W3C//DTD SVG 1.1//EN"
 "http://www.w3.org/Graphics/SVG/1.1/DTD/svg11.dtd">
<!-- Generated by graphviz version 2.38.0 (20140413.2041)
 -->
<!-- Title: Ogre::ZipArchive Pages: 1 -->
<svg width="98pt" height="140pt"
 viewBox="0.00 0.00 98.00 140.00" xmlns="http://www.w3.org/2000/svg" xmlns:xlink="http://www.w3.org/1999/xlink">
<g id="graph0" class="graph" transform="scale(1 1) rotate(0) translate(4 136)">
<title>Ogre::ZipArchive</title>
<!-- Node1 -->
<g id="node1" class="node"><title>Node1</title>
<polygon fill="#bfbfbf" stroke="black" points="0,-0.5 0,-19.5 90,-19.5 90,-0.5 0,-0.5"/>
<text text-anchor="middle" x="45" y="-7.5" font-family="Helvetica,sans-Serif" font-size="10.00">Ogre::ZipArchive</text>
</g>
<!-- Node2 -->
<g id="node2" class="node"><title>Node2</title>
<g id="a_node2"><a xlink:href="class_ogre_1_1_archive.html" target="_top" xlink:title="Archive&#45;handling class. ">
<polygon fill="none" stroke="black" points="6.5,-56.5 6.5,-75.5 83.5,-75.5 83.5,-56.5 6.5,-56.5"/>
<text text-anchor="middle" x="45" y="-63.5" font-family="Helvetica,sans-Serif" font-size="10.00">Ogre::Archive</text>
</a>
</g>
</g>
<!-- Node2&#45;&gt;Node1 -->
<g id="edge1" class="edge"><title>Node2&#45;&gt;Node1</title>
<path fill="none" stroke="midnightblue" d="M45,-45.8045C45,-36.9102 45,-26.7798 45,-19.7511"/>
<polygon fill="midnightblue" stroke="midnightblue" points="41.5001,-46.083 45,-56.083 48.5001,-46.083 41.5001,-46.083"/>
</g>
<!-- Node3 -->
<g id="node3" class="node"><title>Node3</title>
<g id="a_node3"><a xlink:href="class_ogre_1_1_allocated_object.html" target="_top" xlink:title="Superclass for all objects that wish to use custom memory allocators when their new / delete operator...">
<polygon fill="none" stroke="black" points="9.5,-112.5 9.5,-131.5 80.5,-131.5 80.5,-112.5 9.5,-112.5"/>
<text text-anchor="middle" x="45" y="-119.5" font-family="Helvetica,sans-Serif" font-size="10.00">ArchiveAlloc</text>
</a>
</g>
</g>
<!-- Node3&#45;&gt;Node2 -->
<g id="edge2" class="edge"><title>Node3&#45;&gt;Node2</title>
<path fill="none" stroke="midnightblue" d="M45,-101.805C45,-92.9102 45,-82.7798 45,-75.7511"/>
<polygon fill="midnightblue" stroke="midnightblue" points="41.5001,-102.083 45,-112.083 48.5001,-102.083 41.5001,-102.083"/>
</g>
</g>
</svg>
