<?xml version="1.0" encoding="UTF-8" standalone="no"?>
<!DOCTYPE svg PUBLIC "-//W3C//DTD SVG 1.1//EN"
 "http://www.w3.org/Graphics/SVG/1.1/DTD/svg11.dtd">
<!-- Generated by graphviz version 2.38.0 (20140413.2041)
 -->
<!-- Title: Ogre::SceneQuery Pages: 1 -->
<svg width="767pt" height="225pt"
 viewBox="0.00 0.00 767.00 225.00" xmlns="http://www.w3.org/2000/svg" xmlns:xlink="http://www.w3.org/1999/xlink">
<g id="graph0" class="graph" transform="scale(1 1) rotate(0) translate(4 221)">
<title>Ogre::SceneQuery</title>
<!-- Node1 -->
<g id="node1" class="node"><title>Node1</title>
<polygon fill="#bfbfbf" stroke="black" points="119,-148 119,-167 217,-167 217,-148 119,-148"/>
<text text-anchor="middle" x="168" y="-155" font-family="Helvetica,sans-Serif" font-size="10.00">Ogre::SceneQuery</text>
</g>
<!-- Node3 -->
<g id="node3" class="node"><title>Node3</title>
<g id="a_node3"><a xlink:href="class_ogre_1_1_intersection_scene_query.html" target="_top" xlink:title="Separate SceneQuery class to query for pairs of objects which are possibly intersecting one another...">
<polygon fill="none" stroke="black" points="253,-189 253,-208 402,-208 402,-189 253,-189"/>
<text text-anchor="middle" x="327.5" y="-196" font-family="Helvetica,sans-Serif" font-size="10.00">Ogre::IntersectionSceneQuery</text>
</a>
</g>
</g>
<!-- Node1&#45;&gt;Node3 -->
<g id="edge2" class="edge"><title>Node1&#45;&gt;Node3</title>
<path fill="none" stroke="midnightblue" d="M215.393,-169.577C239.165,-175.765 267.697,-183.193 289.896,-188.971"/>
<polygon fill="midnightblue" stroke="midnightblue" points="216.089,-166.141 205.53,-167.009 214.325,-172.916 216.089,-166.141"/>
</g>
<!-- Node5 -->
<g id="node5" class="node"><title>Node5</title>
<g id="a_node5"><a xlink:href="class_ogre_1_1_ray_scene_query.html" target="_top" xlink:title="Specialises the SceneQuery class for querying along a ray. ">
<polygon fill="none" stroke="black" points="269.5,-148 269.5,-167 385.5,-167 385.5,-148 269.5,-148"/>
<text text-anchor="middle" x="327.5" y="-155" font-family="Helvetica,sans-Serif" font-size="10.00">Ogre::RaySceneQuery</text>
</a>
</g>
</g>
<!-- Node1&#45;&gt;Node5 -->
<g id="edge4" class="edge"><title>Node1&#45;&gt;Node5</title>
<path fill="none" stroke="midnightblue" d="M227.376,-157.5C241.064,-157.5 255.633,-157.5 269.27,-157.5"/>
<polygon fill="midnightblue" stroke="midnightblue" points="227.111,-154 217.111,-157.5 227.111,-161 227.111,-154"/>
</g>
<!-- Node7 -->
<g id="node7" class="node"><title>Node7</title>
<g id="a_node7"><a xlink:href="class_ogre_1_1_region_scene_query.html" target="_top" xlink:title="Abstract class defining a query which returns single results from a region. ">
<polygon fill="none" stroke="black" points="263.5,-79 263.5,-98 391.5,-98 391.5,-79 263.5,-79"/>
<text text-anchor="middle" x="327.5" y="-86" font-family="Helvetica,sans-Serif" font-size="10.00">Ogre::RegionSceneQuery</text>
</a>
</g>
</g>
<!-- Node1&#45;&gt;Node7 -->
<g id="edge6" class="edge"><title>Node1&#45;&gt;Node7</title>
<path fill="none" stroke="midnightblue" d="M200.35,-143.766C231.272,-130.219 277.723,-109.869 304.786,-98.0127"/>
<polygon fill="midnightblue" stroke="midnightblue" points="198.655,-140.687 190.9,-147.906 201.464,-147.099 198.655,-140.687"/>
</g>
<!-- Node2 -->
<g id="node2" class="node"><title>Node2</title>
<g id="a_node2"><a xlink:href="class_ogre_1_1_allocated_object.html" target="_top" xlink:title="Superclass for all objects that wish to use custom memory allocators when their new / delete operator...">
<polygon fill="none" stroke="black" points="0,-148 0,-167 83,-167 83,-148 0,-148"/>
<text text-anchor="middle" x="41.5" y="-155" font-family="Helvetica,sans-Serif" font-size="10.00">SceneMgtAlloc</text>
</a>
</g>
</g>
<!-- Node2&#45;&gt;Node1 -->
<g id="edge1" class="edge"><title>Node2&#45;&gt;Node1</title>
<path fill="none" stroke="midnightblue" d="M93.3346,-157.5C101.741,-157.5 110.436,-157.5 118.776,-157.5"/>
<polygon fill="midnightblue" stroke="midnightblue" points="93.266,-154 83.266,-157.5 93.2659,-161 93.266,-154"/>
</g>
<!-- Node4 -->
<g id="node4" class="node"><title>Node4</title>
<g id="a_node4"><a xlink:href="class_ogre_1_1_default_intersection_scene_query.html" target="_top" xlink:title="Default implementation of IntersectionSceneQuery. ">
<polygon fill="none" stroke="black" points="448.5,-186.5 448.5,-216.5 574.5,-216.5 574.5,-186.5 448.5,-186.5"/>
<text text-anchor="start" x="456.5" y="-204.5" font-family="Helvetica,sans-Serif" font-size="10.00">Ogre::DefaultIntersection</text>
<text text-anchor="middle" x="511.5" y="-193.5" font-family="Helvetica,sans-Serif" font-size="10.00">SceneQuery</text>
</a>
</g>
</g>
<!-- Node3&#45;&gt;Node4 -->
<g id="edge3" class="edge"><title>Node3&#45;&gt;Node4</title>
<path fill="none" stroke="midnightblue" d="M412.182,-199.879C424.373,-200.08 436.741,-200.284 448.403,-200.476"/>
<polygon fill="midnightblue" stroke="midnightblue" points="412.058,-196.377 402.002,-199.712 411.943,-203.376 412.058,-196.377"/>
</g>
<!-- Node6 -->
<g id="node6" class="node"><title>Node6</title>
<g id="a_node6"><a xlink:href="class_ogre_1_1_default_ray_scene_query.html" target="_top" xlink:title="Default implementation of RaySceneQuery. ">
<polygon fill="none" stroke="black" points="438,-148 438,-167 585,-167 585,-148 438,-148"/>
<text text-anchor="middle" x="511.5" y="-155" font-family="Helvetica,sans-Serif" font-size="10.00">Ogre::DefaultRaySceneQuery</text>
</a>
</g>
</g>
<!-- Node5&#45;&gt;Node6 -->
<g id="edge5" class="edge"><title>Node5&#45;&gt;Node6</title>
<path fill="none" stroke="midnightblue" d="M395.881,-157.5C409.569,-157.5 424.022,-157.5 437.881,-157.5"/>
<polygon fill="midnightblue" stroke="midnightblue" points="395.587,-154 385.587,-157.5 395.587,-161 395.587,-154"/>
</g>
<!-- Node8 -->
<g id="node8" class="node"><title>Node8</title>
<g id="a_node8"><a xlink:href="class_ogre_1_1_axis_aligned_box_scene_query.html" target="_top" xlink:title="Specialises the SceneQuery class for querying within an axis aligned box. ">
<polygon fill="none" stroke="black" points="441.5,-98.5 441.5,-128.5 581.5,-128.5 581.5,-98.5 441.5,-98.5"/>
<text text-anchor="start" x="449.5" y="-116.5" font-family="Helvetica,sans-Serif" font-size="10.00">Ogre::AxisAlignedBoxScene</text>
<text text-anchor="middle" x="511.5" y="-105.5" font-family="Helvetica,sans-Serif" font-size="10.00">Query</text>
</a>
</g>
</g>
<!-- Node7&#45;&gt;Node8 -->
<g id="edge7" class="edge"><title>Node7&#45;&gt;Node8</title>
<path fill="none" stroke="midnightblue" d="M401.928,-98.5863C414.91,-100.37 428.389,-102.221 441.252,-103.988"/>
<polygon fill="midnightblue" stroke="midnightblue" points="402.027,-95.0671 391.644,-97.1736 401.075,-102.002 402.027,-95.0671"/>
</g>
<!-- Node10 -->
<g id="node10" class="node"><title>Node10</title>
<g id="a_node10"><a xlink:href="class_ogre_1_1_plane_bounded_volume_list_scene_query.html" target="_top" xlink:title="Specialises the SceneQuery class for querying within a plane&#45;bounded volume. ">
<polygon fill="none" stroke="black" points="441.5,-49.5 441.5,-79.5 581.5,-79.5 581.5,-49.5 441.5,-49.5"/>
<text text-anchor="start" x="449.5" y="-67.5" font-family="Helvetica,sans-Serif" font-size="10.00">Ogre::PlaneBoundedVolume</text>
<text text-anchor="middle" x="511.5" y="-56.5" font-family="Helvetica,sans-Serif" font-size="10.00">ListSceneQuery</text>
</a>
</g>
</g>
<!-- Node7&#45;&gt;Node10 -->
<g id="edge9" class="edge"><title>Node7&#45;&gt;Node10</title>
<path fill="none" stroke="midnightblue" d="M401.928,-78.8172C414.91,-77.1052 428.389,-75.3278 441.252,-73.6317"/>
<polygon fill="midnightblue" stroke="midnightblue" points="401.101,-75.3959 391.644,-80.1733 402.016,-82.3358 401.101,-75.3959"/>
</g>
<!-- Node12 -->
<g id="node12" class="node"><title>Node12</title>
<g id="a_node12"><a xlink:href="class_ogre_1_1_sphere_scene_query.html" target="_top" xlink:title="Specialises the SceneQuery class for querying within a sphere. ">
<polygon fill="none" stroke="black" points="447.5,-8 447.5,-27 575.5,-27 575.5,-8 447.5,-8"/>
<text text-anchor="middle" x="511.5" y="-15" font-family="Helvetica,sans-Serif" font-size="10.00">Ogre::SphereSceneQuery</text>
</a>
</g>
</g>
<!-- Node7&#45;&gt;Node12 -->
<g id="edge11" class="edge"><title>Node7&#45;&gt;Node12</title>
<path fill="none" stroke="midnightblue" d="M357.029,-74.5407C378.889,-64.1384 409.96,-49.9805 438,-39.5 450.198,-34.9408 463.804,-30.6178 475.905,-27.03"/>
<polygon fill="midnightblue" stroke="midnightblue" points="355.471,-71.4062 347.97,-78.888 358.5,-77.7173 355.471,-71.4062"/>
</g>
<!-- Node9 -->
<g id="node9" class="node"><title>Node9</title>
<g id="a_node9"><a xlink:href="class_ogre_1_1_default_axis_aligned_box_scene_query.html" target="_top" xlink:title="Default implementation of AxisAlignedBoxSceneQuery. ">
<polygon fill="none" stroke="black" points="626.5,-98.5 626.5,-128.5 753.5,-128.5 753.5,-98.5 626.5,-98.5"/>
<text text-anchor="start" x="634.5" y="-116.5" font-family="Helvetica,sans-Serif" font-size="10.00">Ogre::DefaultAxisAligned</text>
<text text-anchor="middle" x="690" y="-105.5" font-family="Helvetica,sans-Serif" font-size="10.00">BoxSceneQuery</text>
</a>
</g>
</g>
<!-- Node8&#45;&gt;Node9 -->
<g id="edge8" class="edge"><title>Node8&#45;&gt;Node9</title>
<path fill="none" stroke="midnightblue" d="M591.822,-113.5C603.365,-113.5 615.114,-113.5 626.268,-113.5"/>
<polygon fill="midnightblue" stroke="midnightblue" points="591.751,-110 581.751,-113.5 591.751,-117 591.751,-110"/>
</g>
<!-- Node11 -->
<g id="node11" class="node"><title>Node11</title>
<g id="a_node11"><a xlink:href="class_ogre_1_1_default_plane_bounded_volume_list_scene_query.html" target="_top" xlink:title="Default implementation of PlaneBoundedVolumeListSceneQuery. ">
<polygon fill="none" stroke="black" points="621,-49.5 621,-79.5 759,-79.5 759,-49.5 621,-49.5"/>
<text text-anchor="start" x="629" y="-67.5" font-family="Helvetica,sans-Serif" font-size="10.00">Ogre::DefaultPlaneBounded</text>
<text text-anchor="middle" x="690" y="-56.5" font-family="Helvetica,sans-Serif" font-size="10.00">VolumeListSceneQuery</text>
</a>
</g>
</g>
<!-- Node10&#45;&gt;Node11 -->
<g id="edge10" class="edge"><title>Node10&#45;&gt;Node11</title>
<path fill="none" stroke="midnightblue" d="M591.778,-64.5C601.47,-64.5 611.307,-64.5 620.817,-64.5"/>
<polygon fill="midnightblue" stroke="midnightblue" points="591.751,-61.0001 581.751,-64.5 591.751,-68.0001 591.751,-61.0001"/>
</g>
<!-- Node13 -->
<g id="node13" class="node"><title>Node13</title>
<g id="a_node13"><a xlink:href="class_ogre_1_1_default_sphere_scene_query.html" target="_top" xlink:title="Default implementation of SphereSceneQuery. ">
<polygon fill="none" stroke="black" points="623,-0.5 623,-30.5 757,-30.5 757,-0.5 623,-0.5"/>
<text text-anchor="start" x="631" y="-18.5" font-family="Helvetica,sans-Serif" font-size="10.00">Ogre::DefaultSphereScene</text>
<text text-anchor="middle" x="690" y="-7.5" font-family="Helvetica,sans-Serif" font-size="10.00">Query</text>
</a>
</g>
</g>
<!-- Node12&#45;&gt;Node13 -->
<g id="edge12" class="edge"><title>Node12&#45;&gt;Node13</title>
<path fill="none" stroke="midnightblue" d="M585.92,-16.668C598.196,-16.5289 610.866,-16.3854 622.944,-16.2485"/>
<polygon fill="midnightblue" stroke="midnightblue" points="585.682,-13.1704 575.722,-16.7836 585.761,-20.17 585.682,-13.1704"/>
</g>
</g>
</svg>
