<?xml version="1.0" encoding="UTF-8" standalone="no"?>
<!DOCTYPE svg PUBLIC "-//W3C//DTD SVG 1.1//EN"
 "http://www.w3.org/Graphics/SVG/1.1/DTD/svg11.dtd">
<!-- Generated by graphviz version 2.40.1 (20161225.0304)
 -->
<!-- Title: Ogre::v1::HardwarePixelBuffer Pages: 1 -->
<svg width="805pt" height="529pt"
 viewBox="0.00 0.00 805.00 529.00" xmlns="http://www.w3.org/2000/svg" xmlns:xlink="http://www.w3.org/1999/xlink">
<g id="graph0" class="graph" transform="scale(1 1) rotate(0) translate(4 525)">
<title>Ogre::v1::HardwarePixelBuffer</title>
<!-- Node0 -->
<g id="node1" class="node">
<title>Node0</title>
<polygon fill="#bfbfbf" stroke="#000000" points="265,-251 265,-270 415,-270 415,-251 265,-251"/>
<text text-anchor="middle" x="340" y="-258" font-family="Helvetica,sans-Serif" font-size="10.00" fill="#000000">Ogre::v1::HardwarePixelBuffer</text>
</g>
<!-- Node3 -->
<g id="node4" class="node">
<title>Node3</title>
<g id="a_node4"><a xlink:href="class_ogre_1_1v1_1_1_d3_d11_depth_pixel_buffer.html" target="_top" xlink:title="Ogre::v1::D3D11DepthPixel\lBuffer">
<polygon fill="none" stroke="#000000" points="459,-490.5 459,-520.5 598,-520.5 598,-490.5 459,-490.5"/>
<text text-anchor="start" x="467" y="-508.5" font-family="Helvetica,sans-Serif" font-size="10.00" fill="#000000">Ogre::v1::D3D11DepthPixel</text>
<text text-anchor="middle" x="528.5" y="-497.5" font-family="Helvetica,sans-Serif" font-size="10.00" fill="#000000">Buffer</text>
</a>
</g>
</g>
<!-- Node0&#45;&gt;Node3 -->
<g id="edge3" class="edge">
<title>Node0&#45;&gt;Node3</title>
<path fill="none" stroke="#191970" d="M344.2638,-279.873C354.7019,-322.7194 385.602,-426.0994 451,-481.5 455.084,-484.9597 459.6631,-487.921 464.5005,-490.4559"/>
<polygon fill="#191970" stroke="#191970" points="347.672,-279.0762 341.9938,-270.1315 340.8546,-280.6649 347.672,-279.0762"/>
</g>
<!-- Node4 -->
<g id="node5" class="node">
<title>Node4</title>
<g id="a_node5"><a xlink:href="class_ogre_1_1v1_1_1_d3_d11_hardware_pixel_buffer.html" target="_top" xlink:title="Ogre::v1::D3D11HardwarePixel\lBuffer">
<polygon fill="none" stroke="#000000" points="451,-441.5 451,-471.5 606,-471.5 606,-441.5 451,-441.5"/>
<text text-anchor="start" x="459" y="-459.5" font-family="Helvetica,sans-Serif" font-size="10.00" fill="#000000">Ogre::v1::D3D11HardwarePixel</text>
<text text-anchor="middle" x="528.5" y="-448.5" font-family="Helvetica,sans-Serif" font-size="10.00" fill="#000000">Buffer</text>
</a>
</g>
</g>
<!-- Node0&#45;&gt;Node4 -->
<g id="edge4" class="edge">
<title>Node0&#45;&gt;Node4</title>
<path fill="none" stroke="#191970" d="M347.3256,-280.0775C361.6685,-315.7484 396.8588,-391.4266 451,-432.5 455.4886,-435.9052 460.4666,-438.8322 465.6715,-441.3474"/>
<polygon fill="#191970" stroke="#191970" points="350.4368,-278.4218 343.5457,-270.3742 343.9142,-280.9627 350.4368,-278.4218"/>
</g>
<!-- Node5 -->
<g id="node6" class="node">
<title>Node5</title>
<g id="a_node6"><a xlink:href="class_ogre_1_1v1_1_1_d3_d11_null_pixel_buffer.html" target="_top" xlink:title="Ogre::v1::D3D11NullPixel\lBuffer">
<polygon fill="none" stroke="#000000" points="463.5,-392.5 463.5,-422.5 593.5,-422.5 593.5,-392.5 463.5,-392.5"/>
<text text-anchor="start" x="471.5" y="-410.5" font-family="Helvetica,sans-Serif" font-size="10.00" fill="#000000">Ogre::v1::D3D11NullPixel</text>
<text text-anchor="middle" x="528.5" y="-399.5" font-family="Helvetica,sans-Serif" font-size="10.00" fill="#000000">Buffer</text>
</a>
</g>
</g>
<!-- Node0&#45;&gt;Node5 -->
<g id="edge5" class="edge">
<title>Node0&#45;&gt;Node5</title>
<path fill="none" stroke="#191970" d="M351.5256,-278.5073C369.5609,-305.2653 406.9825,-355.3809 451,-383.5 456.3415,-386.9122 462.1998,-389.8664 468.2282,-392.4182"/>
<polygon fill="#191970" stroke="#191970" points="354.4027,-276.5126 345.9757,-270.0911 348.5589,-280.3662 354.4027,-276.5126"/>
</g>
<!-- Node6 -->
<g id="node7" class="node">
<title>Node6</title>
<g id="a_node7"><a xlink:href="class_ogre_1_1v1_1_1_g_l3_plus_depth_pixel_buffer.html" target="_top" xlink:title="Ogre::v1::GL3PlusDepthPixel\lBuffer">
<polygon fill="none" stroke="#000000" points="455.5,-343.5 455.5,-373.5 601.5,-373.5 601.5,-343.5 455.5,-343.5"/>
<text text-anchor="start" x="463.5" y="-361.5" font-family="Helvetica,sans-Serif" font-size="10.00" fill="#000000">Ogre::v1::GL3PlusDepthPixel</text>
<text text-anchor="middle" x="528.5" y="-350.5" font-family="Helvetica,sans-Serif" font-size="10.00" fill="#000000">Buffer</text>
</a>
</g>
</g>
<!-- Node0&#45;&gt;Node6 -->
<g id="edge6" class="edge">
<title>Node0&#45;&gt;Node6</title>
<path fill="none" stroke="#191970" d="M360.3899,-276.3518C381.9279,-292.4951 417.3629,-317.3802 451,-333.5 458.6495,-337.1659 466.9705,-340.4866 475.2281,-343.4227"/>
<polygon fill="#191970" stroke="#191970" points="362.4004,-273.4838 352.3199,-270.2228 358.1667,-279.0583 362.4004,-273.4838"/>
</g>
<!-- Node7 -->
<g id="node8" class="node">
<title>Node7</title>
<g id="a_node8"><a xlink:href="class_ogre_1_1v1_1_1_g_l3_plus_hardware_pixel_buffer.html" target="_top" xlink:title="Ogre::v1::GL3PlusHardware\lPixelBuffer">
<polygon fill="none" stroke="#000000" points="458.5,-294.5 458.5,-324.5 598.5,-324.5 598.5,-294.5 458.5,-294.5"/>
<text text-anchor="start" x="466.5" y="-312.5" font-family="Helvetica,sans-Serif" font-size="10.00" fill="#000000">Ogre::v1::GL3PlusHardware</text>
<text text-anchor="middle" x="528.5" y="-301.5" font-family="Helvetica,sans-Serif" font-size="10.00" fill="#000000">PixelBuffer</text>
</a>
</g>
</g>
<!-- Node0&#45;&gt;Node7 -->
<g id="edge7" class="edge">
<title>Node0&#45;&gt;Node7</title>
<path fill="none" stroke="#191970" d="M386.5548,-272.6018C411.9684,-279.208 443.664,-287.4471 470.6537,-294.463"/>
<polygon fill="#191970" stroke="#191970" points="387.3511,-269.1925 376.7922,-270.064 385.59,-275.9674 387.3511,-269.1925"/>
</g>
<!-- Node10 -->
<g id="node11" class="node">
<title>Node10</title>
<g id="a_node11"><a xlink:href="class_ogre_1_1v1_1_1_g_l3_plus_null_pixel_buffer.html" target="_top" xlink:title="Ogre::v1::GL3PlusNullPixel\lBuffer">
<polygon fill="none" stroke="#000000" points="460,-245.5 460,-275.5 597,-275.5 597,-245.5 460,-245.5"/>
<text text-anchor="start" x="468" y="-263.5" font-family="Helvetica,sans-Serif" font-size="10.00" fill="#000000">Ogre::v1::GL3PlusNullPixel</text>
<text text-anchor="middle" x="528.5" y="-252.5" font-family="Helvetica,sans-Serif" font-size="10.00" fill="#000000">Buffer</text>
</a>
</g>
</g>
<!-- Node0&#45;&gt;Node10 -->
<g id="edge10" class="edge">
<title>Node0&#45;&gt;Node10</title>
<path fill="none" stroke="#191970" d="M425.1741,-260.5C436.7785,-260.5 448.5681,-260.5 459.8306,-260.5"/>
<polygon fill="#191970" stroke="#191970" points="425.0419,-257.0001 415.0418,-260.5 425.0418,-264.0001 425.0419,-257.0001"/>
</g>
<!-- Node11 -->
<g id="node12" class="node">
<title>Node11</title>
<g id="a_node12"><a xlink:href="class_ogre_1_1v1_1_1_g_l_e_s2_hardware_pixel_buffer.html" target="_top" xlink:title="Ogre::v1::GLES2HardwarePixel\lBuffer">
<polygon fill="none" stroke="#000000" points="451,-196.5 451,-226.5 606,-226.5 606,-196.5 451,-196.5"/>
<text text-anchor="start" x="459" y="-214.5" font-family="Helvetica,sans-Serif" font-size="10.00" fill="#000000">Ogre::v1::GLES2HardwarePixel</text>
<text text-anchor="middle" x="528.5" y="-203.5" font-family="Helvetica,sans-Serif" font-size="10.00" fill="#000000">Buffer</text>
</a>
</g>
</g>
<!-- Node0&#45;&gt;Node11 -->
<g id="edge11" class="edge">
<title>Node0&#45;&gt;Node11</title>
<path fill="none" stroke="#191970" d="M386.5548,-248.3982C411.9684,-241.792 443.664,-233.5529 470.6537,-226.537"/>
<polygon fill="#191970" stroke="#191970" points="385.59,-245.0326 376.7922,-250.936 387.3511,-251.8075 385.59,-245.0326"/>
</g>
<!-- Node14 -->
<g id="node15" class="node">
<title>Node14</title>
<g id="a_node15"><a xlink:href="class_ogre_1_1v1_1_1_metal_depth_pixel_buffer.html" target="_top" xlink:title="Ogre::v1::MetalDepthPixel\lBuffer">
<polygon fill="none" stroke="#000000" points="462.5,-147.5 462.5,-177.5 594.5,-177.5 594.5,-147.5 462.5,-147.5"/>
<text text-anchor="start" x="470.5" y="-165.5" font-family="Helvetica,sans-Serif" font-size="10.00" fill="#000000">Ogre::v1::MetalDepthPixel</text>
<text text-anchor="middle" x="528.5" y="-154.5" font-family="Helvetica,sans-Serif" font-size="10.00" fill="#000000">Buffer</text>
</a>
</g>
</g>
<!-- Node0&#45;&gt;Node14 -->
<g id="edge14" class="edge">
<title>Node0&#45;&gt;Node14</title>
<path fill="none" stroke="#191970" d="M359.9661,-244.5983C381.4078,-228.1604 416.9952,-202.6818 451,-186.5 457.868,-183.2317 465.287,-180.2744 472.7188,-177.6422"/>
<polygon fill="#191970" stroke="#191970" points="357.6971,-241.9289 351.9502,-250.8297 361.9934,-247.4554 357.6971,-241.9289"/>
</g>
<!-- Node15 -->
<g id="node16" class="node">
<title>Node15</title>
<g id="a_node16"><a xlink:href="class_ogre_1_1v1_1_1_metal_hardware_pixel_buffer.html" target="_top" xlink:title="Ogre::v1::MetalHardwarePixel\lBuffer">
<polygon fill="none" stroke="#000000" points="454.5,-98.5 454.5,-128.5 602.5,-128.5 602.5,-98.5 454.5,-98.5"/>
<text text-anchor="start" x="462.5" y="-116.5" font-family="Helvetica,sans-Serif" font-size="10.00" fill="#000000">Ogre::v1::MetalHardwarePixel</text>
<text text-anchor="middle" x="528.5" y="-105.5" font-family="Helvetica,sans-Serif" font-size="10.00" fill="#000000">Buffer</text>
</a>
</g>
</g>
<!-- Node0&#45;&gt;Node15 -->
<g id="edge15" class="edge">
<title>Node0&#45;&gt;Node15</title>
<path fill="none" stroke="#191970" d="M351.5256,-242.4927C369.5609,-215.7347 406.9825,-165.6191 451,-137.5 456.3415,-134.0878 462.1998,-131.1336 468.2282,-128.5818"/>
<polygon fill="#191970" stroke="#191970" points="348.5589,-240.6338 345.9757,-250.9089 354.4027,-244.4874 348.5589,-240.6338"/>
</g>
<!-- Node17 -->
<g id="node18" class="node">
<title>Node17</title>
<g id="a_node18"><a xlink:href="class_ogre_1_1v1_1_1_metal_null_pixel_buffer.html" target="_top" xlink:title="Ogre::v1::MetalNullPixel\lBuffer">
<polygon fill="none" stroke="#000000" points="467,-49.5 467,-79.5 590,-79.5 590,-49.5 467,-49.5"/>
<text text-anchor="start" x="475" y="-67.5" font-family="Helvetica,sans-Serif" font-size="10.00" fill="#000000">Ogre::v1::MetalNullPixel</text>
<text text-anchor="middle" x="528.5" y="-56.5" font-family="Helvetica,sans-Serif" font-size="10.00" fill="#000000">Buffer</text>
</a>
</g>
</g>
<!-- Node0&#45;&gt;Node17 -->
<g id="edge17" class="edge">
<title>Node0&#45;&gt;Node17</title>
<path fill="none" stroke="#191970" d="M347.3256,-240.9225C361.6685,-205.2516 396.8588,-129.5734 451,-88.5 455.8253,-84.8394 461.2161,-81.7314 466.8463,-79.0936"/>
<polygon fill="#191970" stroke="#191970" points="343.9142,-240.0373 343.5457,-250.6258 350.4368,-242.5782 343.9142,-240.0373"/>
</g>
<!-- Node18 -->
<g id="node19" class="node">
<title>Node18</title>
<g id="a_node19"><a xlink:href="class_ogre_1_1v1_1_1_n_u_l_l_hardware_pixel_buffer.html" target="_top" xlink:title="Ogre::v1::NULLHardwarePixel\lBuffer">
<polygon fill="none" stroke="#000000" points="454,-.5 454,-30.5 603,-30.5 603,-.5 454,-.5"/>
<text text-anchor="start" x="462" y="-18.5" font-family="Helvetica,sans-Serif" font-size="10.00" fill="#000000">Ogre::v1::NULLHardwarePixel</text>
<text text-anchor="middle" x="528.5" y="-7.5" font-family="Helvetica,sans-Serif" font-size="10.00" fill="#000000">Buffer</text>
</a>
</g>
</g>
<!-- Node0&#45;&gt;Node18 -->
<g id="edge18" class="edge">
<title>Node0&#45;&gt;Node18</title>
<path fill="none" stroke="#191970" d="M344.2638,-241.127C354.7019,-198.2806 385.602,-94.9006 451,-39.5 455.084,-36.0403 459.6631,-33.079 464.5005,-30.5441"/>
<polygon fill="#191970" stroke="#191970" points="340.8546,-240.3351 341.9938,-250.8685 347.672,-241.9238 340.8546,-240.3351"/>
</g>
<!-- Node1 -->
<g id="node2" class="node">
<title>Node1</title>
<g id="a_node2"><a xlink:href="class_ogre_1_1v1_1_1_hardware_buffer.html" target="_top" xlink:title="Abstract class defining common features of hardware buffers. ">
<polygon fill="none" stroke="#000000" points="101,-251 101,-270 229,-270 229,-251 101,-251"/>
<text text-anchor="middle" x="165" y="-258" font-family="Helvetica,sans-Serif" font-size="10.00" fill="#000000">Ogre::v1::HardwareBuffer</text>
</a>
</g>
</g>
<!-- Node1&#45;&gt;Node0 -->
<g id="edge1" class="edge">
<title>Node1&#45;&gt;Node0</title>
<path fill="none" stroke="#191970" d="M239.3628,-260.5C247.8049,-260.5 256.4139,-260.5 264.8659,-260.5"/>
<polygon fill="#191970" stroke="#191970" points="239.1699,-257.0001 229.1698,-260.5 239.1698,-264.0001 239.1699,-257.0001"/>
</g>
<!-- Node2 -->
<g id="node3" class="node">
<title>Node2</title>
<g id="a_node3"><a xlink:href="class_ogre_1_1_allocated_object.html" target="_top" xlink:title="Superclass for all objects that wish to use custom memory allocators when their new / delete operator...">
<polygon fill="none" stroke="#000000" points="0,-251 0,-270 65,-270 65,-251 0,-251"/>
<text text-anchor="middle" x="32.5" y="-258" font-family="Helvetica,sans-Serif" font-size="10.00" fill="#000000">BufferAlloc</text>
</a>
</g>
</g>
<!-- Node2&#45;&gt;Node1 -->
<g id="edge2" class="edge">
<title>Node2&#45;&gt;Node1</title>
<path fill="none" stroke="#191970" d="M75.2584,-260.5C83.4237,-260.5 92.1359,-260.5 100.8013,-260.5"/>
<polygon fill="#191970" stroke="#191970" points="75.2529,-257.0001 65.2528,-260.5 75.2528,-264.0001 75.2529,-257.0001"/>
</g>
<!-- Node8 -->
<g id="node9" class="node">
<title>Node8</title>
<g id="a_node9"><a xlink:href="class_ogre_1_1v1_1_1_g_l3_plus_render_buffer.html" target="_top" xlink:title="Renderbuffer surface. ">
<polygon fill="none" stroke="#000000" points="642,-322 642,-341 797,-341 797,-322 642,-322"/>
<text text-anchor="middle" x="719.5" y="-329" font-family="Helvetica,sans-Serif" font-size="10.00" fill="#000000">Ogre::v1::GL3PlusRenderBuffer</text>
</a>
</g>
</g>
<!-- Node7&#45;&gt;Node8 -->
<g id="edge8" class="edge">
<title>Node7&#45;&gt;Node8</title>
<path fill="none" stroke="#191970" d="M608.5318,-318.7183C619.52,-319.984 630.7889,-321.282 641.7355,-322.5428"/>
<polygon fill="#191970" stroke="#191970" points="608.8716,-315.2344 598.5368,-317.5671 608.0706,-322.1884 608.8716,-315.2344"/>
</g>
<!-- Node9 -->
<g id="node10" class="node">
<title>Node9</title>
<g id="a_node10"><a xlink:href="class_ogre_1_1v1_1_1_g_l3_plus_texture_buffer.html" target="_top" xlink:title="Texture surface. ">
<polygon fill="none" stroke="#000000" points="654,-272.5 654,-302.5 785,-302.5 785,-272.5 654,-272.5"/>
<text text-anchor="start" x="662" y="-290.5" font-family="Helvetica,sans-Serif" font-size="10.00" fill="#000000">Ogre::v1::GL3PlusTexture</text>
<text text-anchor="middle" x="719.5" y="-279.5" font-family="Helvetica,sans-Serif" font-size="10.00" fill="#000000">Buffer</text>
</a>
</g>
</g>
<!-- Node7&#45;&gt;Node9 -->
<g id="edge9" class="edge">
<title>Node7&#45;&gt;Node9</title>
<path fill="none" stroke="#191970" d="M608.8377,-300.2464C623.8626,-298.5158 639.4014,-296.726 653.9148,-295.0543"/>
<polygon fill="#191970" stroke="#191970" points="608.0706,-296.8116 598.5368,-301.4329 608.8716,-303.7656 608.0706,-296.8116"/>
</g>
<!-- Node12 -->
<g id="node13" class="node">
<title>Node12</title>
<g id="a_node13"><a xlink:href="class_ogre_1_1v1_1_1_g_l_e_s2_render_buffer.html" target="_top" xlink:title="Renderbuffer surface. ">
<polygon fill="none" stroke="#000000" points="645,-218 645,-237 794,-237 794,-218 645,-218"/>
<text text-anchor="middle" x="719.5" y="-225" font-family="Helvetica,sans-Serif" font-size="10.00" fill="#000000">Ogre::v1::GLES2RenderBuffer</text>
</a>
</g>
</g>
<!-- Node11&#45;&gt;Node12 -->
<g id="edge12" class="edge">
<title>Node11&#45;&gt;Node12</title>
<path fill="none" stroke="#191970" d="M616.164,-218.8436C625.7909,-219.65 635.5248,-220.4654 644.9707,-221.2567"/>
<polygon fill="#191970" stroke="#191970" points="616.4443,-215.3549 606.187,-218.0078 615.8599,-222.3305 616.4443,-215.3549"/>
</g>
<!-- Node13 -->
<g id="node14" class="node">
<title>Node13</title>
<g id="a_node14"><a xlink:href="class_ogre_1_1v1_1_1_g_l_e_s2_texture_buffer.html" target="_top" xlink:title="Texture surface. ">
<polygon fill="none" stroke="#000000" points="644,-180 644,-199 795,-199 795,-180 644,-180"/>
<text text-anchor="middle" x="719.5" y="-187" font-family="Helvetica,sans-Serif" font-size="10.00" fill="#000000">Ogre::v1::GLES2TextureBuffer</text>
</a>
</g>
</g>
<!-- Node11&#45;&gt;Node13 -->
<g id="edge13" class="edge">
<title>Node11&#45;&gt;Node13</title>
<path fill="none" stroke="#191970" d="M616.1346,-201.406C625.3527,-200.3442 634.6692,-199.2711 643.7374,-198.2266"/>
<polygon fill="#191970" stroke="#191970" points="615.7208,-197.9304 606.187,-202.5518 616.5219,-204.8844 615.7208,-197.9304"/>
</g>
<!-- Node16 -->
<g id="node17" class="node">
<title>Node16</title>
<g id="a_node17"><a xlink:href="class_ogre_1_1v1_1_1_metal_texture_buffer.html" target="_top" xlink:title="Texture surface. ">
<polygon fill="none" stroke="#000000" points="648,-104 648,-123 791,-123 791,-104 648,-104"/>
<text text-anchor="middle" x="719.5" y="-111" font-family="Helvetica,sans-Serif" font-size="10.00" fill="#000000">Ogre::v1::MetalTextureBuffer</text>
</a>
</g>
</g>
<!-- Node15&#45;&gt;Node16 -->
<g id="edge16" class="edge">
<title>Node15&#45;&gt;Node16</title>
<path fill="none" stroke="#191970" d="M612.8342,-113.5C624.5455,-113.5 636.4839,-113.5 647.9319,-113.5"/>
<polygon fill="#191970" stroke="#191970" points="612.619,-110.0001 602.619,-113.5 612.6189,-117.0001 612.619,-110.0001"/>
</g>
</g>
</svg>
