<?xml version="1.0" encoding="UTF-8" standalone="no"?>
<!DOCTYPE svg PUBLIC "-//W3C//DTD SVG 1.1//EN"
 "http://www.w3.org/Graphics/SVG/1.1/DTD/svg11.dtd">
<!-- Generated by graphviz version 2.40.1 (20161225.0304)
 -->
<!-- Title: Ogre::Material Pages: 1 -->
<svg width="230pt" height="140pt"
 viewBox="0.00 0.00 230.00 140.00" xmlns="http://www.w3.org/2000/svg" xmlns:xlink="http://www.w3.org/1999/xlink">
<g id="graph0" class="graph" transform="scale(1 1) rotate(0) translate(4 136)">
<title>Ogre::Material</title>
<!-- Node0 -->
<g id="node1" class="node">
<title>Node0</title>
<polygon fill="#bfbfbf" stroke="#000000" points="76,-.5 76,-19.5 162,-19.5 162,-.5 76,-.5"/>
<text text-anchor="middle" x="119" y="-7.5" font-family="Helvetica,sans-Serif" font-size="10.00" fill="#000000">Ogre::Material</text>
</g>
<!-- Node1 -->
<g id="node2" class="node">
<title>Node1</title>
<g id="a_node2"><a xlink:href="class_ogre_1_1_resource.html" target="_top" xlink:title="Abstract class representing a loadable resource (e.g. ">
<polygon fill="none" stroke="#000000" points="73.5,-56.5 73.5,-75.5 164.5,-75.5 164.5,-56.5 73.5,-56.5"/>
<text text-anchor="middle" x="119" y="-63.5" font-family="Helvetica,sans-Serif" font-size="10.00" fill="#000000">Ogre::Resource</text>
</a>
</g>
</g>
<!-- Node1&#45;&gt;Node0 -->
<g id="edge1" class="edge">
<title>Node1&#45;&gt;Node0</title>
<path fill="none" stroke="#191970" d="M119,-46.1575C119,-37.155 119,-26.9199 119,-19.6427"/>
<polygon fill="#191970" stroke="#191970" points="115.5001,-46.2455 119,-56.2455 122.5001,-46.2456 115.5001,-46.2455"/>
</g>
<!-- Node2 -->
<g id="node3" class="node">
<title>Node2</title>
<g id="a_node3"><a xlink:href="class_ogre_1_1_string_interface.html" target="_top" xlink:title="Class defining the common interface which classes can use to present a reflection&#45;style, self&#45;defining parameter set to callers. ">
<polygon fill="none" stroke="#000000" points="0,-112.5 0,-131.5 118,-131.5 118,-112.5 0,-112.5"/>
<text text-anchor="middle" x="59" y="-119.5" font-family="Helvetica,sans-Serif" font-size="10.00" fill="#000000">Ogre::StringInterface</text>
</a>
</g>
</g>
<!-- Node2&#45;&gt;Node1 -->
<g id="edge2" class="edge">
<title>Node2&#45;&gt;Node1</title>
<path fill="none" stroke="#191970" d="M76.8278,-105.3607C87.2078,-95.6727 99.9291,-83.7995 108.6686,-75.6427"/>
<polygon fill="#191970" stroke="#191970" points="74.3737,-102.8636 69.4512,-112.2455 79.1499,-107.981 74.3737,-102.8636"/>
</g>
<!-- Node3 -->
<g id="node4" class="node">
<title>Node3</title>
<g id="a_node4"><a xlink:href="class_ogre_1_1_allocated_object.html" target="_top" xlink:title="Superclass for all objects that wish to use custom memory allocators when their new / delete operator...">
<polygon fill="none" stroke="#000000" points="136,-112.5 136,-131.5 222,-131.5 222,-112.5 136,-112.5"/>
<text text-anchor="middle" x="179" y="-119.5" font-family="Helvetica,sans-Serif" font-size="10.00" fill="#000000">ResourceAlloc</text>
</a>
</g>
</g>
<!-- Node3&#45;&gt;Node1 -->
<g id="edge3" class="edge">
<title>Node3&#45;&gt;Node1</title>
<path fill="none" stroke="#191970" d="M161.1722,-105.3607C150.7922,-95.6727 138.0709,-83.7995 129.3314,-75.6427"/>
<polygon fill="#191970" stroke="#191970" points="158.8501,-107.981 168.5488,-112.2455 163.6263,-102.8636 158.8501,-107.981"/>
</g>
</g>
</svg>
