<?xml version="1.0" encoding="UTF-8" standalone="no"?>
<!DOCTYPE svg PUBLIC "-//W3C//DTD SVG 1.1//EN"
 "http://www.w3.org/Graphics/SVG/1.1/DTD/svg11.dtd">
<!-- Generated by graphviz version 2.40.1 (20161225.0304)
 -->
<!-- Title: Ogre::AbstractNode Pages: 1 -->
<svg width="485pt" height="180pt"
 viewBox="0.00 0.00 485.00 180.00" xmlns="http://www.w3.org/2000/svg" xmlns:xlink="http://www.w3.org/1999/xlink">
<g id="graph0" class="graph" transform="scale(1 1) rotate(0) translate(4 176)">
<title>Ogre::AbstractNode</title>
<!-- Node0 -->
<g id="node1" class="node">
<title>Node0</title>
<polygon fill="#bfbfbf" stroke="#000000" points="143,-76.5 143,-95.5 255,-95.5 255,-76.5 143,-76.5"/>
<text text-anchor="middle" x="199" y="-83.5" font-family="Helvetica,sans-Serif" font-size="10.00" fill="#000000">Ogre::AbstractNode</text>
</g>
<!-- Node2 -->
<g id="node3" class="node">
<title>Node2</title>
<g id="a_node3"><a xlink:href="class_ogre_1_1_atom_abstract_node.html" target="_top" xlink:title="This is an abstract node which cannot be broken down further. ">
<polygon fill="none" stroke="#000000" points="315,-152.5 315,-171.5 453,-171.5 453,-152.5 315,-152.5"/>
<text text-anchor="middle" x="384" y="-159.5" font-family="Helvetica,sans-Serif" font-size="10.00" fill="#000000">Ogre::AtomAbstractNode</text>
</a>
</g>
</g>
<!-- Node0&#45;&gt;Node2 -->
<g id="edge2" class="edge">
<title>Node0&#45;&gt;Node2</title>
<path fill="none" stroke="#191970" d="M219.8299,-101.9056C237.7681,-114.8441 264.8286,-132.6043 291,-143 300.6487,-146.8326 311.1807,-149.9295 321.5769,-152.4208"/>
<polygon fill="#191970" stroke="#191970" points="221.4603,-98.7594 211.334,-95.6437 217.3072,-104.3942 221.4603,-98.7594"/>
</g>
<!-- Node3 -->
<g id="node4" class="node">
<title>Node3</title>
<g id="a_node4"><a xlink:href="class_ogre_1_1_import_abstract_node.html" target="_top" xlink:title="This abstract node represents an import statement. ">
<polygon fill="none" stroke="#000000" points="312,-114.5 312,-133.5 456,-133.5 456,-114.5 312,-114.5"/>
<text text-anchor="middle" x="384" y="-121.5" font-family="Helvetica,sans-Serif" font-size="10.00" fill="#000000">Ogre::ImportAbstractNode</text>
</a>
</g>
</g>
<!-- Node0&#45;&gt;Node3 -->
<g id="edge3" class="edge">
<title>Node0&#45;&gt;Node3</title>
<path fill="none" stroke="#191970" d="M255.4692,-97.6819C267.2118,-100.1056 279.5087,-102.6396 291,-105 306.0123,-108.0837 322.3908,-111.4344 337.1616,-114.4511"/>
<polygon fill="#191970" stroke="#191970" points="255.8281,-94.1823 245.3269,-95.5876 254.4124,-101.0376 255.8281,-94.1823"/>
</g>
<!-- Node4 -->
<g id="node5" class="node">
<title>Node4</title>
<g id="a_node5"><a xlink:href="class_ogre_1_1_object_abstract_node.html" target="_top" xlink:title="This specific abstract node represents a script object. ">
<polygon fill="none" stroke="#000000" points="312.5,-76.5 312.5,-95.5 455.5,-95.5 455.5,-76.5 312.5,-76.5"/>
<text text-anchor="middle" x="384" y="-83.5" font-family="Helvetica,sans-Serif" font-size="10.00" fill="#000000">Ogre::ObjectAbstractNode</text>
</a>
</g>
</g>
<!-- Node0&#45;&gt;Node4 -->
<g id="edge4" class="edge">
<title>Node0&#45;&gt;Node4</title>
<path fill="none" stroke="#191970" d="M265.3885,-86C280.6537,-86 296.9525,-86 312.4266,-86"/>
<polygon fill="#191970" stroke="#191970" points="265.0082,-82.5001 255.0081,-86 265.0081,-89.5001 265.0082,-82.5001"/>
</g>
<!-- Node5 -->
<g id="node6" class="node">
<title>Node5</title>
<g id="a_node6"><a xlink:href="class_ogre_1_1_property_abstract_node.html" target="_top" xlink:title="This abstract node represents a script property. ">
<polygon fill="none" stroke="#000000" points="307.5,-38.5 307.5,-57.5 460.5,-57.5 460.5,-38.5 307.5,-38.5"/>
<text text-anchor="middle" x="384" y="-45.5" font-family="Helvetica,sans-Serif" font-size="10.00" fill="#000000">Ogre::PropertyAbstractNode</text>
</a>
</g>
</g>
<!-- Node0&#45;&gt;Node5 -->
<g id="edge5" class="edge">
<title>Node0&#45;&gt;Node5</title>
<path fill="none" stroke="#191970" d="M255.4692,-74.3181C267.2118,-71.8944 279.5087,-69.3604 291,-67 306.0123,-63.9163 322.3908,-60.5656 337.1616,-57.5489"/>
<polygon fill="#191970" stroke="#191970" points="254.4124,-70.9624 245.3269,-76.4124 255.8281,-77.8177 254.4124,-70.9624"/>
</g>
<!-- Node6 -->
<g id="node7" class="node">
<title>Node6</title>
<g id="a_node7"><a xlink:href="class_ogre_1_1_variable_access_abstract_node.html" target="_top" xlink:title="This abstract node represents a variable assignment. ">
<polygon fill="none" stroke="#000000" points="291,-.5 291,-19.5 477,-19.5 477,-.5 291,-.5"/>
<text text-anchor="middle" x="384" y="-7.5" font-family="Helvetica,sans-Serif" font-size="10.00" fill="#000000">Ogre::VariableAccessAbstractNode</text>
</a>
</g>
</g>
<!-- Node0&#45;&gt;Node6 -->
<g id="edge6" class="edge">
<title>Node0&#45;&gt;Node6</title>
<path fill="none" stroke="#191970" d="M219.8299,-70.0944C237.7681,-57.1559 264.8286,-39.3957 291,-29 300.6487,-25.1674 311.1807,-22.0705 321.5769,-19.5792"/>
<polygon fill="#191970" stroke="#191970" points="217.3072,-67.6058 211.334,-76.3563 221.4603,-73.2406 217.3072,-67.6058"/>
</g>
<!-- Node1 -->
<g id="node2" class="node">
<title>Node1</title>
<g id="a_node2"><a xlink:href="class_ogre_1_1_allocated_object.html" target="_top" xlink:title="Superclass for all objects that wish to use custom memory allocators when their new / delete operator...">
<polygon fill="none" stroke="#000000" points="0,-76.5 0,-95.5 107,-95.5 107,-76.5 0,-76.5"/>
<text text-anchor="middle" x="53.5" y="-83.5" font-family="Helvetica,sans-Serif" font-size="10.00" fill="#000000">AbstractNodeAlloc</text>
</a>
</g>
</g>
<!-- Node1&#45;&gt;Node0 -->
<g id="edge1" class="edge">
<title>Node1&#45;&gt;Node0</title>
<path fill="none" stroke="#191970" d="M117.3739,-86C125.7508,-86 134.2871,-86 142.5295,-86"/>
<polygon fill="#191970" stroke="#191970" points="117.2655,-82.5001 107.2654,-86 117.2654,-89.5001 117.2655,-82.5001"/>
</g>
</g>
</svg>
