<?xml version="1.0" encoding="UTF-8" standalone="no"?>
<!DOCTYPE svg PUBLIC "-//W3C//DTD SVG 1.1//EN"
 "http://www.w3.org/Graphics/SVG/1.1/DTD/svg11.dtd">
<!-- Generated by graphviz version 2.38.0 (20140413.2041)
 -->
<!-- Title: Ogre::v1::AnimationTrack Pages: 1 -->
<svg width="442pt" height="176pt"
 viewBox="0.00 0.00 442.00 175.50" xmlns="http://www.w3.org/2000/svg" xmlns:xlink="http://www.w3.org/1999/xlink">
<g id="graph0" class="graph" transform="scale(1 1) rotate(0) translate(4 171.5)">
<title>Ogre::v1::AnimationTrack</title>
<!-- Node1 -->
<g id="node1" class="node"><title>Node1</title>
<polygon fill="#bfbfbf" stroke="black" points="118,-79 118,-98 246,-98 246,-79 118,-79"/>
<text text-anchor="middle" x="182" y="-86" font-family="Helvetica,sans-Serif" font-size="10.00">Ogre::v1::AnimationTrack</text>
</g>
<!-- Node3 -->
<g id="node3" class="node"><title>Node3</title>
<g id="a_node3"><a xlink:href="class_ogre_1_1v1_1_1_node_animation_track.html" target="_top" xlink:title="Specialised AnimationTrack for dealing with node transforms. ">
<polygon fill="none" stroke="black" points="282,-148 282,-167 434,-167 434,-148 282,-148"/>
<text text-anchor="middle" x="358" y="-155" font-family="Helvetica,sans-Serif" font-size="10.00">Ogre::v1::NodeAnimationTrack</text>
</a>
</g>
</g>
<!-- Node1&#45;&gt;Node3 -->
<g id="edge2" class="edge"><title>Node1&#45;&gt;Node3</title>
<path fill="none" stroke="midnightblue" d="M208.201,-103.174C227.805,-114.105 255.962,-128.762 282,-138.5 291.687,-142.123 302.332,-145.286 312.483,-147.937"/>
<polygon fill="midnightblue" stroke="midnightblue" points="209.739,-100.023 199.311,-98.1456 206.292,-106.116 209.739,-100.023"/>
</g>
<!-- Node4 -->
<g id="node4" class="node"><title>Node4</title>
<g id="a_node4"><a xlink:href="class_ogre_1_1v1_1_1_numeric_animation_track.html" target="_top" xlink:title="Specialised AnimationTrack for dealing with generic animable values. ">
<polygon fill="none" stroke="black" points="288,-98.5 288,-128.5 428,-128.5 428,-98.5 288,-98.5"/>
<text text-anchor="start" x="296" y="-116.5" font-family="Helvetica,sans-Serif" font-size="10.00">Ogre::v1::NumericAnimation</text>
<text text-anchor="middle" x="358" y="-105.5" font-family="Helvetica,sans-Serif" font-size="10.00">Track</text>
</a>
</g>
</g>
<!-- Node1&#45;&gt;Node4 -->
<g id="edge3" class="edge"><title>Node1&#45;&gt;Node4</title>
<path fill="none" stroke="midnightblue" d="M256.248,-99.0242C266.722,-100.529 277.469,-102.073 287.861,-103.566"/>
<polygon fill="midnightblue" stroke="midnightblue" points="256.706,-95.5541 246.31,-97.5963 255.711,-102.483 256.706,-95.5541"/>
</g>
<!-- Node5 -->
<g id="node5" class="node"><title>Node5</title>
<g id="a_node5"><a xlink:href="class_ogre_1_1v1_1_1_old_node_animation_track.html" target="_top" xlink:title="Specialised AnimationTrack for dealing with node transforms. ">
<polygon fill="none" stroke="black" points="287,-49.5 287,-79.5 429,-79.5 429,-49.5 287,-49.5"/>
<text text-anchor="start" x="295" y="-67.5" font-family="Helvetica,sans-Serif" font-size="10.00">Ogre::v1::OldNodeAnimation</text>
<text text-anchor="middle" x="358" y="-56.5" font-family="Helvetica,sans-Serif" font-size="10.00">Track</text>
</a>
</g>
</g>
<!-- Node1&#45;&gt;Node5 -->
<g id="edge4" class="edge"><title>Node1&#45;&gt;Node5</title>
<path fill="none" stroke="midnightblue" d="M256.348,-78.383C266.492,-76.9838 276.89,-75.5496 286.972,-74.1591"/>
<polygon fill="midnightblue" stroke="midnightblue" points="255.738,-74.9339 246.31,-79.7676 256.695,-81.8683 255.738,-74.9339"/>
</g>
<!-- Node6 -->
<g id="node6" class="node"><title>Node6</title>
<g id="a_node6"><a xlink:href="class_ogre_1_1v1_1_1_vertex_animation_track.html" target="_top" xlink:title="Specialised AnimationTrack for dealing with changing vertex position information. ...">
<polygon fill="none" stroke="black" points="292,-0.5 292,-30.5 424,-30.5 424,-0.5 292,-0.5"/>
<text text-anchor="start" x="300" y="-18.5" font-family="Helvetica,sans-Serif" font-size="10.00">Ogre::v1::VertexAnimation</text>
<text text-anchor="middle" x="358" y="-7.5" font-family="Helvetica,sans-Serif" font-size="10.00">Track</text>
</a>
</g>
</g>
<!-- Node1&#45;&gt;Node6 -->
<g id="edge5" class="edge"><title>Node1&#45;&gt;Node6</title>
<path fill="none" stroke="midnightblue" d="M209.479,-74.0379C229.138,-63.6371 256.794,-49.7038 282,-39.5 289.73,-36.3707 298.035,-33.3701 306.201,-30.6144"/>
<polygon fill="midnightblue" stroke="midnightblue" points="207.686,-71.0276 200.516,-78.8281 210.986,-77.2011 207.686,-71.0276"/>
</g>
<!-- Node2 -->
<g id="node2" class="node"><title>Node2</title>
<g id="a_node2"><a xlink:href="class_ogre_1_1_allocated_object.html" target="_top" xlink:title="Superclass for all objects that wish to use custom memory allocators when their new / delete operator...">
<polygon fill="none" stroke="black" points="0,-79 0,-98 82,-98 82,-79 0,-79"/>
<text text-anchor="middle" x="41" y="-86" font-family="Helvetica,sans-Serif" font-size="10.00">AnimationAlloc</text>
</a>
</g>
</g>
<!-- Node2&#45;&gt;Node1 -->
<g id="edge1" class="edge"><title>Node2&#45;&gt;Node1</title>
<path fill="none" stroke="midnightblue" d="M92.4169,-88.5C100.674,-88.5 109.322,-88.5 117.841,-88.5"/>
<polygon fill="midnightblue" stroke="midnightblue" points="92.2046,-85.0001 82.2046,-88.5 92.2045,-92.0001 92.2046,-85.0001"/>
</g>
</g>
</svg>
