<?xml version="1.0" encoding="UTF-8" standalone="no"?>
<!DOCTYPE svg PUBLIC "-//W3C//DTD SVG 1.1//EN"
 "http://www.w3.org/Graphics/SVG/1.1/DTD/svg11.dtd">
<!-- Generated by graphviz version 2.40.1 (20161225.0304)
 -->
<!-- Title: Ogre::PageStrategyData Pages: 1 -->
<svg width="362pt" height="140pt"
 viewBox="0.00 0.00 362.00 140.00" xmlns="http://www.w3.org/2000/svg" xmlns:xlink="http://www.w3.org/1999/xlink">
<g id="graph0" class="graph" transform="scale(1 1) rotate(0) translate(4 136)">
<title>Ogre::PageStrategyData</title>
<!-- Node0 -->
<g id="node1" class="node">
<title>Node0</title>
<polygon fill="#bfbfbf" stroke="#000000" points="110,-56.5 110,-75.5 244,-75.5 244,-56.5 110,-56.5"/>
<text text-anchor="middle" x="177" y="-63.5" font-family="Helvetica,sans-Serif" font-size="10.00" fill="#000000">Ogre::PageStrategyData</text>
</g>
<!-- Node2 -->
<g id="node3" class="node">
<title>Node2</title>
<g id="a_node3"><a xlink:href="class_ogre_1_1_grid2_d_page_strategy_data.html" target="_top" xlink:title="Specialisation of PageStrategyData for Grid2DPageStrategy. ">
<polygon fill="none" stroke="#000000" points="0,-.5 0,-19.5 168,-19.5 168,-.5 0,-.5"/>
<text text-anchor="middle" x="84" y="-7.5" font-family="Helvetica,sans-Serif" font-size="10.00" fill="#000000">Ogre::Grid2DPageStrategyData</text>
</a>
</g>
</g>
<!-- Node0&#45;&gt;Node2 -->
<g id="edge2" class="edge">
<title>Node0&#45;&gt;Node2</title>
<path fill="none" stroke="#191970" d="M152.1665,-51.0465C135.6189,-41.0824 114.3568,-28.2794 100.0137,-19.6427"/>
<polygon fill="#191970" stroke="#191970" points="150.4283,-54.0854 160.8006,-56.2455 154.0393,-48.0886 150.4283,-54.0854"/>
</g>
<!-- Node3 -->
<g id="node4" class="node">
<title>Node3</title>
<g id="a_node4"><a xlink:href="class_ogre_1_1_grid3_d_page_strategy_data.html" target="_top" xlink:title="Specialisation of PageStrategyData for Grid3DPageStrategy. ">
<polygon fill="none" stroke="#000000" points="186,-.5 186,-19.5 354,-19.5 354,-.5 186,-.5"/>
<text text-anchor="middle" x="270" y="-7.5" font-family="Helvetica,sans-Serif" font-size="10.00" fill="#000000">Ogre::Grid3DPageStrategyData</text>
</a>
</g>
</g>
<!-- Node0&#45;&gt;Node3 -->
<g id="edge3" class="edge">
<title>Node0&#45;&gt;Node3</title>
<path fill="none" stroke="#191970" d="M201.8335,-51.0465C218.3811,-41.0824 239.6432,-28.2794 253.9863,-19.6427"/>
<polygon fill="#191970" stroke="#191970" points="199.9607,-48.0886 193.1994,-56.2455 203.5717,-54.0854 199.9607,-48.0886"/>
</g>
<!-- Node1 -->
<g id="node2" class="node">
<title>Node1</title>
<g id="a_node2"><a xlink:href="class_ogre_1_1_allocated_object.html" target="_top" xlink:title="Superclass for all objects that wish to use custom memory allocators when their new / delete operator...">
<polygon fill="none" stroke="#000000" points="144.5,-112.5 144.5,-131.5 209.5,-131.5 209.5,-112.5 144.5,-112.5"/>
<text text-anchor="middle" x="177" y="-119.5" font-family="Helvetica,sans-Serif" font-size="10.00" fill="#000000">PageAlloc</text>
</a>
</g>
</g>
<!-- Node1&#45;&gt;Node0 -->
<g id="edge1" class="edge">
<title>Node1&#45;&gt;Node0</title>
<path fill="none" stroke="#191970" d="M177,-102.1575C177,-93.155 177,-82.9199 177,-75.6427"/>
<polygon fill="#191970" stroke="#191970" points="173.5001,-102.2455 177,-112.2455 180.5001,-102.2456 173.5001,-102.2455"/>
</g>
</g>
</svg>
