<?xml version="1.0" encoding="UTF-8" standalone="no"?>
<!DOCTYPE svg PUBLIC "-//W3C//DTD SVG 1.1//EN"
 "http://www.w3.org/Graphics/SVG/1.1/DTD/svg11.dtd">
<!-- Generated by graphviz version 2.40.1 (20161225.0304)
 -->
<!-- Title: Ogre::Volume::ChunkHandler Pages: 1 -->
<svg width="332pt" height="95pt"
 viewBox="0.00 0.00 331.50 95.00" xmlns="http://www.w3.org/2000/svg" xmlns:xlink="http://www.w3.org/1999/xlink">
<g id="graph0" class="graph" transform="scale(1 1) rotate(0) translate(4 91)">
<title>Ogre::Volume::ChunkHandler</title>
<!-- Node0 -->
<g id="node1" class="node">
<title>Node0</title>
<polygon fill="#bfbfbf" stroke="#000000" points="80.5,-.5 80.5,-19.5 238.5,-19.5 238.5,-.5 80.5,-.5"/>
<text text-anchor="middle" x="159.5" y="-7.5" font-family="Helvetica,sans-Serif" font-size="10.00" fill="#000000">Ogre::Volume::ChunkHandler</text>
</g>
<!-- Node1 -->
<g id="node2" class="node">
<title>Node1</title>
<g id="a_node2"><a xlink:href="class_ogre_1_1_work_queue_1_1_request_handler.html" target="_top" xlink:title="Interface definition for a handler of requests. ">
<polygon fill="none" stroke="#000000" points="0,-56.5 0,-86.5 149,-86.5 149,-56.5 0,-56.5"/>
<text text-anchor="start" x="8" y="-74.5" font-family="Helvetica,sans-Serif" font-size="10.00" fill="#000000">Ogre::WorkQueue::Request</text>
<text text-anchor="middle" x="74.5" y="-63.5" font-family="Helvetica,sans-Serif" font-size="10.00" fill="#000000">Handler</text>
</a>
</g>
</g>
<!-- Node1&#45;&gt;Node0 -->
<g id="edge1" class="edge">
<title>Node1&#45;&gt;Node0</title>
<path fill="none" stroke="#191970" d="M103.6282,-50.4249C117.953,-40.0605 134.5345,-28.0633 145.8904,-19.8469"/>
<polygon fill="#191970" stroke="#191970" points="101.5614,-47.6002 95.5112,-56.2977 105.6647,-53.2715 101.5614,-47.6002"/>
</g>
<!-- Node2 -->
<g id="node3" class="node">
<title>Node2</title>
<g id="a_node3"><a xlink:href="class_ogre_1_1_work_queue_1_1_response_handler.html" target="_top" xlink:title="Interface definition for a handler of responses. ">
<polygon fill="none" stroke="#000000" points="167.5,-56.5 167.5,-86.5 323.5,-86.5 323.5,-56.5 167.5,-56.5"/>
<text text-anchor="start" x="175.5" y="-74.5" font-family="Helvetica,sans-Serif" font-size="10.00" fill="#000000">Ogre::WorkQueue::Response</text>
<text text-anchor="middle" x="245.5" y="-63.5" font-family="Helvetica,sans-Serif" font-size="10.00" fill="#000000">Handler</text>
</a>
</g>
</g>
<!-- Node2&#45;&gt;Node0 -->
<g id="edge2" class="edge">
<title>Node2&#45;&gt;Node0</title>
<path fill="none" stroke="#191970" d="M215.9758,-50.3868C201.3863,-39.9535 184.4943,-27.8738 173.0129,-19.6633"/>
<polygon fill="#191970" stroke="#191970" points="214.0715,-53.3278 224.2416,-56.2977 218.1433,-47.6339 214.0715,-53.3278"/>
</g>
</g>
</svg>
