<?xml version="1.0" encoding="UTF-8" standalone="no"?>
<!DOCTYPE svg PUBLIC "-//W3C//DTD SVG 1.1//EN"
 "http://www.w3.org/Graphics/SVG/1.1/DTD/svg11.dtd">
<!-- Generated by graphviz version 2.38.0 (20140413.2041)
 -->
<!-- Title: Ogre::RenderWindow Pages: 1 -->
<svg width="799pt" height="408pt"
 viewBox="0.00 0.00 799.00 408.00" xmlns="http://www.w3.org/2000/svg" xmlns:xlink="http://www.w3.org/1999/xlink">
<g id="graph0" class="graph" transform="scale(1 1) rotate(0) translate(4 404)">
<title>Ogre::RenderWindow</title>
<!-- Node1 -->
<g id="node1" class="node"><title>Node1</title>
<polygon fill="#bfbfbf" stroke="black" points="279,-190.5 279,-209.5 389,-209.5 389,-190.5 279,-190.5"/>
<text text-anchor="middle" x="334" y="-197.5" font-family="Helvetica,sans-Serif" font-size="10.00">Ogre::RenderWindow</text>
</g>
<!-- Node5 -->
<g id="node5" class="node"><title>Node5</title>
<g id="a_node5"><a xlink:href="class_ogre_1_1_cocoa_window.html" target="_top" xlink:title="Ogre::CocoaWindow">
<polygon fill="none" stroke="black" points="453.5,-380.5 453.5,-399.5 560.5,-399.5 560.5,-380.5 453.5,-380.5"/>
<text text-anchor="middle" x="507" y="-387.5" font-family="Helvetica,sans-Serif" font-size="10.00">Ogre::CocoaWindow</text>
</a>
</g>
</g>
<!-- Node1&#45;&gt;Node5 -->
<g id="edge4" class="edge"><title>Node1&#45;&gt;Node5</title>
<path fill="none" stroke="midnightblue" d="M339.613,-219.724C349.084,-255.668 374.236,-331.735 425,-371 433.226,-377.363 443.232,-381.649 453.367,-384.525"/>
<polygon fill="midnightblue" stroke="midnightblue" points="342.894,-218.416 337.076,-209.562 336.103,-220.112 342.894,-218.416"/>
</g>
<!-- Node6 -->
<g id="node6" class="node"><title>Node6</title>
<g id="a_node6"><a xlink:href="class_ogre_1_1_d3_d11_render_window_base.html" target="_top" xlink:title="Ogre::D3D11RenderWindowBase">
<polygon fill="none" stroke="black" points="425,-342.5 425,-361.5 589,-361.5 589,-342.5 425,-342.5"/>
<text text-anchor="middle" x="507" y="-349.5" font-family="Helvetica,sans-Serif" font-size="10.00">Ogre::D3D11RenderWindowBase</text>
</a>
</g>
</g>
<!-- Node1&#45;&gt;Node6 -->
<g id="edge5" class="edge"><title>Node1&#45;&gt;Node6</title>
<path fill="none" stroke="midnightblue" d="M342.435,-218.992C354.903,-248.247 382.874,-303.985 425,-333 430.591,-336.851 436.859,-339.928 443.368,-342.386"/>
<polygon fill="midnightblue" stroke="midnightblue" points="345.579,-217.434 338.546,-209.511 339.103,-220.091 345.579,-217.434"/>
</g>
<!-- Node8 -->
<g id="node8" class="node"><title>Node8</title>
<g id="a_node8"><a xlink:href="class_ogre_1_1_d3_d9_render_window.html" target="_top" xlink:title="Ogre::D3D9RenderWindow">
<polygon fill="none" stroke="black" points="439,-304.5 439,-323.5 575,-323.5 575,-304.5 439,-304.5"/>
<text text-anchor="middle" x="507" y="-311.5" font-family="Helvetica,sans-Serif" font-size="10.00">Ogre::D3D9RenderWindow</text>
</a>
</g>
</g>
<!-- Node1&#45;&gt;Node8 -->
<g id="edge7" class="edge"><title>Node1&#45;&gt;Node8</title>
<path fill="none" stroke="midnightblue" d="M346.901,-217.875C362.304,-239.552 391.214,-275.592 425,-295 431.763,-298.885 439.278,-301.977 446.925,-304.436"/>
<polygon fill="midnightblue" stroke="midnightblue" points="349.715,-215.791 341.151,-209.554 343.956,-219.771 349.715,-215.791"/>
</g>
<!-- Node9 -->
<g id="node9" class="node"><title>Node9</title>
<g id="a_node9"><a xlink:href="class_ogre_1_1_e_g_l_window.html" target="_top" xlink:title="Ogre::EGLWindow">
<polygon fill="none" stroke="black" points="458,-266.5 458,-285.5 556,-285.5 556,-266.5 458,-266.5"/>
<text text-anchor="middle" x="507" y="-273.5" font-family="Helvetica,sans-Serif" font-size="10.00">Ogre::EGLWindow</text>
</a>
</g>
</g>
<!-- Node1&#45;&gt;Node9 -->
<g id="edge8" class="edge"><title>Node1&#45;&gt;Node9</title>
<path fill="none" stroke="midnightblue" d="M355.4,-215.733C372.962,-228.567 399.442,-246.27 425,-257 435.255,-261.305 446.669,-264.74 457.617,-267.437"/>
<polygon fill="midnightblue" stroke="midnightblue" points="357.19,-212.702 347.081,-209.529 353.004,-218.313 357.19,-212.702"/>
</g>
<!-- Node14 -->
<g id="node14" class="node"><title>Node14</title>
<g id="a_node14"><a xlink:href="class_ogre_1_1_g_l_x_window.html" target="_top" xlink:title="Ogre::GLXWindow">
<polygon fill="none" stroke="black" points="458,-228.5 458,-247.5 556,-247.5 556,-228.5 458,-228.5"/>
<text text-anchor="middle" x="507" y="-235.5" font-family="Helvetica,sans-Serif" font-size="10.00">Ogre::GLXWindow</text>
</a>
</g>
</g>
<!-- Node1&#45;&gt;Node14 -->
<g id="edge13" class="edge"><title>Node1&#45;&gt;Node14</title>
<path fill="none" stroke="midnightblue" d="M388.209,-211.824C412.317,-217.182 440.44,-223.431 463.16,-228.48"/>
<polygon fill="midnightblue" stroke="midnightblue" points="388.672,-208.342 378.151,-209.589 387.153,-215.175 388.672,-208.342"/>
</g>
<!-- Node15 -->
<g id="node15" class="node"><title>Node15</title>
<g id="a_node15"><a xlink:href="class_ogre_1_1_g_t_k_window.html" target="_top" xlink:title="Ogre::GTKWindow">
<polygon fill="none" stroke="black" points="457.5,-190.5 457.5,-209.5 556.5,-209.5 556.5,-190.5 457.5,-190.5"/>
<text text-anchor="middle" x="507" y="-197.5" font-family="Helvetica,sans-Serif" font-size="10.00">Ogre::GTKWindow</text>
</a>
</g>
</g>
<!-- Node1&#45;&gt;Node15 -->
<g id="edge14" class="edge"><title>Node1&#45;&gt;Node15</title>
<path fill="none" stroke="midnightblue" d="M399.32,-200C418.587,-200 439.385,-200 457.456,-200"/>
<polygon fill="midnightblue" stroke="midnightblue" points="399.106,-196.5 389.105,-200 399.105,-203.5 399.106,-196.5"/>
</g>
<!-- Node16 -->
<g id="node16" class="node"><title>Node16</title>
<g id="a_node16"><a xlink:href="class_ogre_1_1_metal_render_window.html" target="_top" xlink:title="Ogre::MetalRenderWindow">
<polygon fill="none" stroke="black" points="440,-152.5 440,-171.5 574,-171.5 574,-152.5 440,-152.5"/>
<text text-anchor="middle" x="507" y="-159.5" font-family="Helvetica,sans-Serif" font-size="10.00">Ogre::MetalRenderWindow</text>
</a>
</g>
</g>
<!-- Node1&#45;&gt;Node16 -->
<g id="edge15" class="edge"><title>Node1&#45;&gt;Node16</title>
<path fill="none" stroke="midnightblue" d="M388.209,-188.176C412.317,-182.818 440.44,-176.569 463.16,-171.52"/>
<polygon fill="midnightblue" stroke="midnightblue" points="387.153,-184.825 378.151,-190.411 388.672,-191.658 387.153,-184.825"/>
</g>
<!-- Node17 -->
<g id="node17" class="node"><title>Node17</title>
<g id="a_node17"><a xlink:href="class_ogre_1_1_na_cl_window.html" target="_top" xlink:title="Ogre::NaClWindow">
<polygon fill="none" stroke="black" points="456.5,-114.5 456.5,-133.5 557.5,-133.5 557.5,-114.5 456.5,-114.5"/>
<text text-anchor="middle" x="507" y="-121.5" font-family="Helvetica,sans-Serif" font-size="10.00">Ogre::NaClWindow</text>
</a>
</g>
</g>
<!-- Node1&#45;&gt;Node17 -->
<g id="edge16" class="edge"><title>Node1&#45;&gt;Node17</title>
<path fill="none" stroke="midnightblue" d="M355.4,-184.267C372.962,-171.433 399.442,-153.73 425,-143 434.855,-138.862 445.781,-135.529 456.335,-132.881"/>
<polygon fill="midnightblue" stroke="midnightblue" points="353.004,-181.687 347.081,-190.471 357.19,-187.298 353.004,-181.687"/>
</g>
<!-- Node18 -->
<g id="node18" class="node"><title>Node18</title>
<g id="a_node18"><a xlink:href="class_ogre_1_1_n_u_l_l_render_window.html" target="_top" xlink:title="Ogre::NULLRenderWindow">
<polygon fill="none" stroke="black" points="439,-76.5 439,-95.5 575,-95.5 575,-76.5 439,-76.5"/>
<text text-anchor="middle" x="507" y="-83.5" font-family="Helvetica,sans-Serif" font-size="10.00">Ogre::NULLRenderWindow</text>
</a>
</g>
</g>
<!-- Node1&#45;&gt;Node18 -->
<g id="edge17" class="edge"><title>Node1&#45;&gt;Node18</title>
<path fill="none" stroke="midnightblue" d="M346.901,-182.125C362.304,-160.448 391.214,-124.408 425,-105 431.763,-101.115 439.278,-98.0234 446.925,-95.5636"/>
<polygon fill="midnightblue" stroke="midnightblue" points="343.956,-180.229 341.151,-190.446 349.715,-184.209 343.956,-180.229"/>
</g>
<!-- Node19 -->
<g id="node19" class="node"><title>Node19</title>
<g id="a_node19"><a xlink:href="class_ogre_1_1_s_d_l_window.html" target="_top" xlink:title="Ogre::SDLWindow">
<polygon fill="none" stroke="black" points="458,-38.5 458,-57.5 556,-57.5 556,-38.5 458,-38.5"/>
<text text-anchor="middle" x="507" y="-45.5" font-family="Helvetica,sans-Serif" font-size="10.00">Ogre::SDLWindow</text>
</a>
</g>
</g>
<!-- Node1&#45;&gt;Node19 -->
<g id="edge18" class="edge"><title>Node1&#45;&gt;Node19</title>
<path fill="none" stroke="midnightblue" d="M342.435,-181.008C354.903,-151.753 382.874,-96.0148 425,-67 434.635,-60.3635 446.283,-56.0245 457.704,-53.1935"/>
<polygon fill="midnightblue" stroke="midnightblue" points="339.103,-179.909 338.546,-190.489 345.579,-182.566 339.103,-179.909"/>
</g>
<!-- Node20 -->
<g id="node20" class="node"><title>Node20</title>
<g id="a_node20"><a xlink:href="class_ogre_1_1_win32_window.html" target="_top" xlink:title="Ogre::Win32Window">
<polygon fill="none" stroke="black" points="453.5,-0.5 453.5,-19.5 560.5,-19.5 560.5,-0.5 453.5,-0.5"/>
<text text-anchor="middle" x="507" y="-7.5" font-family="Helvetica,sans-Serif" font-size="10.00">Ogre::Win32Window</text>
</a>
</g>
</g>
<!-- Node1&#45;&gt;Node20 -->
<g id="edge19" class="edge"><title>Node1&#45;&gt;Node20</title>
<path fill="none" stroke="midnightblue" d="M339.613,-180.276C349.084,-144.332 374.236,-68.2647 425,-29 433.226,-22.6372 443.232,-18.3505 453.367,-15.4755"/>
<polygon fill="midnightblue" stroke="midnightblue" points="336.103,-179.888 337.076,-190.438 342.894,-181.584 336.103,-179.888"/>
</g>
<!-- Node2 -->
<g id="node2" class="node"><title>Node2</title>
<g id="a_node2"><a xlink:href="class_ogre_1_1_render_target.html" target="_top" xlink:title="A &#39;canvas&#39; which can receive the results of a rendering operation. ">
<polygon fill="none" stroke="black" points="140,-190.5 140,-209.5 243,-209.5 243,-190.5 140,-190.5"/>
<text text-anchor="middle" x="191.5" y="-197.5" font-family="Helvetica,sans-Serif" font-size="10.00">Ogre::RenderTarget</text>
</a>
</g>
</g>
<!-- Node2&#45;&gt;Node1 -->
<g id="edge1" class="edge"><title>Node2&#45;&gt;Node1</title>
<path fill="none" stroke="midnightblue" d="M253.332,-200C261.72,-200 270.29,-200 278.553,-200"/>
<polygon fill="midnightblue" stroke="midnightblue" points="253.224,-196.5 243.224,-200 253.224,-203.5 253.224,-196.5"/>
</g>
<!-- Node3 -->
<g id="node3" class="node"><title>Node3</title>
<g id="a_node3"><a xlink:href="struct_ogre_1_1_gpu_resource.html" target="_top" xlink:title="Ogre::GpuResource">
<polygon fill="none" stroke="black" points="0,-209.5 0,-228.5 104,-228.5 104,-209.5 0,-209.5"/>
<text text-anchor="middle" x="52" y="-216.5" font-family="Helvetica,sans-Serif" font-size="10.00">Ogre::GpuResource</text>
</a>
</g>
</g>
<!-- Node3&#45;&gt;Node2 -->
<g id="edge2" class="edge"><title>Node3&#45;&gt;Node2</title>
<path fill="none" stroke="midnightblue" d="M114.13,-210.553C122.678,-209.372 131.386,-208.168 139.715,-207.018"/>
<polygon fill="midnightblue" stroke="midnightblue" points="113.627,-207.089 104.2,-211.925 114.585,-214.023 113.627,-207.089"/>
</g>
<!-- Node4 -->
<g id="node4" class="node"><title>Node4</title>
<g id="a_node4"><a xlink:href="class_ogre_1_1_allocated_object.html" target="_top" xlink:title="Superclass for all objects that wish to use custom memory allocators when their new / delete operator...">
<polygon fill="none" stroke="black" points="8.5,-171.5 8.5,-190.5 95.5,-190.5 95.5,-171.5 8.5,-171.5"/>
<text text-anchor="middle" x="52" y="-178.5" font-family="Helvetica,sans-Serif" font-size="10.00">RenderSysAlloc</text>
</a>
</g>
</g>
<!-- Node4&#45;&gt;Node2 -->
<g id="edge3" class="edge"><title>Node4&#45;&gt;Node2</title>
<path fill="none" stroke="midnightblue" d="M105.745,-188.288C116.846,-189.822 128.536,-191.438 139.569,-192.962"/>
<polygon fill="midnightblue" stroke="midnightblue" points="106.137,-184.809 95.7521,-186.908 105.179,-191.744 106.137,-184.809"/>
</g>
<!-- Node7 -->
<g id="node7" class="node"><title>Node7</title>
<g id="a_node7"><a xlink:href="class_ogre_1_1_d3_d11_render_window_swap_chain_based.html" target="_top" xlink:title="Ogre::D3D11RenderWindowSwap\lChainBased">
<polygon fill="none" stroke="black" points="625,-343 625,-373 791,-373 791,-343 625,-343"/>
<text text-anchor="start" x="633" y="-361" font-family="Helvetica,sans-Serif" font-size="10.00">Ogre::D3D11RenderWindowSwap</text>
<text text-anchor="middle" x="708" y="-350" font-family="Helvetica,sans-Serif" font-size="10.00">ChainBased</text>
</a>
</g>
</g>
<!-- Node6&#45;&gt;Node7 -->
<g id="edge6" class="edge"><title>Node6&#45;&gt;Node7</title>
<path fill="none" stroke="midnightblue" d="M599.458,-354.758C607.89,-355.012 616.399,-355.268 624.741,-355.52"/>
<polygon fill="midnightblue" stroke="midnightblue" points="599.329,-351.252 589.228,-354.449 599.118,-358.249 599.329,-351.252"/>
</g>
<!-- Node10 -->
<g id="node10" class="node"><title>Node10</title>
<g id="a_node10"><a xlink:href="class_ogre_1_1_android_e_g_l_window.html" target="_top" xlink:title="Ogre::AndroidEGLWindow">
<polygon fill="none" stroke="black" points="642.5,-304.5 642.5,-323.5 773.5,-323.5 773.5,-304.5 642.5,-304.5"/>
<text text-anchor="middle" x="708" y="-311.5" font-family="Helvetica,sans-Serif" font-size="10.00">Ogre::AndroidEGLWindow</text>
</a>
</g>
</g>
<!-- Node9&#45;&gt;Node10 -->
<g id="edge9" class="edge"><title>Node9&#45;&gt;Node10</title>
<path fill="none" stroke="midnightblue" d="M566.131,-287.1C595.009,-292.615 629.545,-299.21 657.193,-304.489"/>
<polygon fill="midnightblue" stroke="midnightblue" points="566.651,-283.637 556.172,-285.199 565.338,-290.512 566.651,-283.637"/>
</g>
<!-- Node11 -->
<g id="node11" class="node"><title>Node11</title>
<g id="a_node11"><a xlink:href="class_ogre_1_1_emscripten_e_g_l_window.html" target="_top" xlink:title="Ogre::EmscriptenEGLWindow">
<polygon fill="none" stroke="black" points="634,-266.5 634,-285.5 782,-285.5 782,-266.5 634,-266.5"/>
<text text-anchor="middle" x="708" y="-273.5" font-family="Helvetica,sans-Serif" font-size="10.00">Ogre::EmscriptenEGLWindow</text>
</a>
</g>
</g>
<!-- Node9&#45;&gt;Node11 -->
<g id="edge10" class="edge"><title>Node9&#45;&gt;Node11</title>
<path fill="none" stroke="midnightblue" d="M566.259,-276C587.339,-276 611.421,-276 633.633,-276"/>
<polygon fill="midnightblue" stroke="midnightblue" points="566.172,-272.5 556.172,-276 566.172,-279.5 566.172,-272.5"/>
</g>
<!-- Node12 -->
<g id="node12" class="node"><title>Node12</title>
<g id="a_node12"><a xlink:href="class_ogre_1_1_win32_e_g_l_window.html" target="_top" xlink:title="Ogre::Win32EGLWindow">
<polygon fill="none" stroke="black" points="645,-228.5 645,-247.5 771,-247.5 771,-228.5 645,-228.5"/>
<text text-anchor="middle" x="708" y="-235.5" font-family="Helvetica,sans-Serif" font-size="10.00">Ogre::Win32EGLWindow</text>
</a>
</g>
</g>
<!-- Node9&#45;&gt;Node12 -->
<g id="edge11" class="edge"><title>Node9&#45;&gt;Node12</title>
<path fill="none" stroke="midnightblue" d="M566.131,-264.9C595.009,-259.385 629.545,-252.79 657.193,-247.511"/>
<polygon fill="midnightblue" stroke="midnightblue" points="565.338,-261.488 556.172,-266.801 566.651,-268.363 565.338,-261.488"/>
</g>
<!-- Node13 -->
<g id="node13" class="node"><title>Node13</title>
<g id="a_node13"><a xlink:href="class_ogre_1_1_x11_e_g_l_window.html" target="_top" xlink:title="Ogre::X11EGLWindow">
<polygon fill="none" stroke="black" points="650,-190.5 650,-209.5 766,-209.5 766,-190.5 650,-190.5"/>
<text text-anchor="middle" x="708" y="-197.5" font-family="Helvetica,sans-Serif" font-size="10.00">Ogre::X11EGLWindow</text>
</a>
</g>
</g>
<!-- Node9&#45;&gt;Node13 -->
<g id="edge12" class="edge"><title>Node9&#45;&gt;Node13</title>
<path fill="none" stroke="midnightblue" d="M565.853,-266.824C573.92,-264.304 581.877,-261.092 589,-257 609.173,-245.412 604.811,-230.561 625,-219 632.609,-214.643 641.155,-211.285 649.782,-208.696"/>
<polygon fill="midnightblue" stroke="midnightblue" points="564.699,-263.512 556.006,-269.568 566.578,-270.255 564.699,-263.512"/>
</g>
</g>
</svg>
