<?xml version="1.0" encoding="UTF-8" standalone="no"?>
<!DOCTYPE svg PUBLIC "-//W3C//DTD SVG 1.1//EN"
 "http://www.w3.org/Graphics/SVG/1.1/DTD/svg11.dtd">
<!-- Generated by graphviz version 2.40.1 (20161225.0304)
 -->
<!-- Title: Ogre::SceneQueryListener Pages: 1 -->
<svg width="654pt" height="137pt"
 viewBox="0.00 0.00 654.00 137.00" xmlns="http://www.w3.org/2000/svg" xmlns:xlink="http://www.w3.org/1999/xlink">
<g id="graph0" class="graph" transform="scale(1 1) rotate(0) translate(4 133)">
<title>Ogre::SceneQueryListener</title>
<!-- Node0 -->
<g id="node1" class="node">
<title>Node0</title>
<polygon fill="#bfbfbf" stroke="#000000" points="0,-55 0,-74 132,-74 132,-55 0,-55"/>
<text text-anchor="middle" x="66" y="-62" font-family="Helvetica,sans-Serif" font-size="10.00" fill="#000000">Ogre::SceneQueryListener</text>
</g>
<!-- Node1 -->
<g id="node2" class="node">
<title>Node1</title>
<g id="a_node2"><a xlink:href="class_ogre_1_1_region_scene_query.html" target="_top" xlink:title="Abstract class defining a query which returns single results from a region. ">
<polygon fill="none" stroke="#000000" points="168,-55 168,-74 296,-74 296,-55 168,-55"/>
<text text-anchor="middle" x="232" y="-62" font-family="Helvetica,sans-Serif" font-size="10.00" fill="#000000">Ogre::RegionSceneQuery</text>
</a>
</g>
</g>
<!-- Node0&#45;&gt;Node1 -->
<g id="edge1" class="edge">
<title>Node0&#45;&gt;Node1</title>
<path fill="none" stroke="#191970" d="M142.0918,-64.5C150.6743,-64.5 159.3559,-64.5 167.7662,-64.5"/>
<polygon fill="#191970" stroke="#191970" points="142.0846,-61.0001 132.0846,-64.5 142.0845,-68.0001 142.0846,-61.0001"/>
</g>
<!-- Node2 -->
<g id="node3" class="node">
<title>Node2</title>
<g id="a_node3"><a xlink:href="class_ogre_1_1_axis_aligned_box_scene_query.html" target="_top" xlink:title="Specialises the SceneQuery class for querying within an axis aligned box. ">
<polygon fill="none" stroke="#000000" points="332,-98.5 332,-128.5 472,-128.5 472,-98.5 332,-98.5"/>
<text text-anchor="start" x="340" y="-116.5" font-family="Helvetica,sans-Serif" font-size="10.00" fill="#000000">Ogre::AxisAlignedBoxScene</text>
<text text-anchor="middle" x="402" y="-105.5" font-family="Helvetica,sans-Serif" font-size="10.00" fill="#000000">Query</text>
</a>
</g>
</g>
<!-- Node1&#45;&gt;Node2 -->
<g id="edge2" class="edge">
<title>Node1&#45;&gt;Node2</title>
<path fill="none" stroke="#191970" d="M274.9015,-76.8657C297.6633,-83.4265 325.8132,-91.5403 349.8309,-98.463"/>
<polygon fill="#191970" stroke="#191970" points="275.7595,-73.4706 265.1813,-74.064 273.8207,-80.1968 275.7595,-73.4706"/>
</g>
<!-- Node4 -->
<g id="node5" class="node">
<title>Node4</title>
<g id="a_node5"><a xlink:href="class_ogre_1_1_plane_bounded_volume_list_scene_query.html" target="_top" xlink:title="Specialises the SceneQuery class for querying within a plane&#45;bounded volume. ">
<polygon fill="none" stroke="#000000" points="332,-49.5 332,-79.5 472,-79.5 472,-49.5 332,-49.5"/>
<text text-anchor="start" x="340" y="-67.5" font-family="Helvetica,sans-Serif" font-size="10.00" fill="#000000">Ogre::PlaneBoundedVolume</text>
<text text-anchor="middle" x="402" y="-56.5" font-family="Helvetica,sans-Serif" font-size="10.00" fill="#000000">ListSceneQuery</text>
</a>
</g>
</g>
<!-- Node1&#45;&gt;Node4 -->
<g id="edge4" class="edge">
<title>Node1&#45;&gt;Node4</title>
<path fill="none" stroke="#191970" d="M306.4963,-64.5C314.9564,-64.5 323.5575,-64.5 331.9574,-64.5"/>
<polygon fill="#191970" stroke="#191970" points="306.2697,-61.0001 296.2697,-64.5 306.2697,-68.0001 306.2697,-61.0001"/>
</g>
<!-- Node6 -->
<g id="node7" class="node">
<title>Node6</title>
<g id="a_node7"><a xlink:href="class_ogre_1_1_sphere_scene_query.html" target="_top" xlink:title="Specialises the SceneQuery class for querying within a sphere. ">
<polygon fill="none" stroke="#000000" points="338,-9 338,-28 466,-28 466,-9 338,-9"/>
<text text-anchor="middle" x="402" y="-16" font-family="Helvetica,sans-Serif" font-size="10.00" fill="#000000">Ogre::SphereSceneQuery</text>
</a>
</g>
</g>
<!-- Node1&#45;&gt;Node6 -->
<g id="edge6" class="edge">
<title>Node1&#45;&gt;Node6</title>
<path fill="none" stroke="#191970" d="M277.1995,-52.2696C305.2806,-44.6711 340.8471,-35.0473 366.821,-28.019"/>
<polygon fill="#191970" stroke="#191970" points="275.9628,-48.9782 267.2241,-54.9688 277.7912,-55.7353 275.9628,-48.9782"/>
</g>
<!-- Node3 -->
<g id="node4" class="node">
<title>Node3</title>
<g id="a_node4"><a xlink:href="class_ogre_1_1_default_axis_aligned_box_scene_query.html" target="_top" xlink:title="Default implementation of AxisAlignedBoxSceneQuery. ">
<polygon fill="none" stroke="#000000" points="513.5,-98.5 513.5,-128.5 640.5,-128.5 640.5,-98.5 513.5,-98.5"/>
<text text-anchor="start" x="521.5" y="-116.5" font-family="Helvetica,sans-Serif" font-size="10.00" fill="#000000">Ogre::DefaultAxisAligned</text>
<text text-anchor="middle" x="577" y="-105.5" font-family="Helvetica,sans-Serif" font-size="10.00" fill="#000000">BoxSceneQuery</text>
</a>
</g>
</g>
<!-- Node2&#45;&gt;Node3 -->
<g id="edge3" class="edge">
<title>Node2&#45;&gt;Node3</title>
<path fill="none" stroke="#191970" d="M482.4567,-113.5C492.8083,-113.5 503.2923,-113.5 513.324,-113.5"/>
<polygon fill="#191970" stroke="#191970" points="482.1709,-110.0001 472.1709,-113.5 482.1708,-117.0001 482.1709,-110.0001"/>
</g>
<!-- Node5 -->
<g id="node6" class="node">
<title>Node5</title>
<g id="a_node6"><a xlink:href="class_ogre_1_1_default_plane_bounded_volume_list_scene_query.html" target="_top" xlink:title="Default implementation of PlaneBoundedVolumeListSceneQuery. ">
<polygon fill="none" stroke="#000000" points="508,-49.5 508,-79.5 646,-79.5 646,-49.5 508,-49.5"/>
<text text-anchor="start" x="516" y="-67.5" font-family="Helvetica,sans-Serif" font-size="10.00" fill="#000000">Ogre::DefaultPlaneBounded</text>
<text text-anchor="middle" x="577" y="-56.5" font-family="Helvetica,sans-Serif" font-size="10.00" fill="#000000">VolumeListSceneQuery</text>
</a>
</g>
</g>
<!-- Node4&#45;&gt;Node5 -->
<g id="edge5" class="edge">
<title>Node4&#45;&gt;Node5</title>
<path fill="none" stroke="#191970" d="M482.2034,-64.5C490.8038,-64.5 499.4989,-64.5 507.9531,-64.5"/>
<polygon fill="#191970" stroke="#191970" points="482.1709,-61.0001 472.1709,-64.5 482.1708,-68.0001 482.1709,-61.0001"/>
</g>
<!-- Node7 -->
<g id="node8" class="node">
<title>Node7</title>
<g id="a_node8"><a xlink:href="class_ogre_1_1_default_sphere_scene_query.html" target="_top" xlink:title="Default implementation of SphereSceneQuery. ">
<polygon fill="none" stroke="#000000" points="510,-.5 510,-30.5 644,-30.5 644,-.5 510,-.5"/>
<text text-anchor="start" x="518" y="-18.5" font-family="Helvetica,sans-Serif" font-size="10.00" fill="#000000">Ogre::DefaultSphereScene</text>
<text text-anchor="middle" x="577" y="-7.5" font-family="Helvetica,sans-Serif" font-size="10.00" fill="#000000">Query</text>
</a>
</g>
</g>
<!-- Node6&#45;&gt;Node7 -->
<g id="edge7" class="edge">
<title>Node6&#45;&gt;Node7</title>
<path fill="none" stroke="#191970" d="M476.309,-17.2261C487.4623,-17.0349 498.9083,-16.8387 509.8995,-16.6503"/>
<polygon fill="#191970" stroke="#191970" points="476.1083,-13.729 466.1698,-17.3999 476.2284,-20.7279 476.1083,-13.729"/>
</g>
</g>
</svg>
