<?xml version="1.0" encoding="UTF-8" standalone="no"?>
<!DOCTYPE svg PUBLIC "-//W3C//DTD SVG 1.1//EN"
 "http://www.w3.org/Graphics/SVG/1.1/DTD/svg11.dtd">
<!-- Generated by graphviz version 2.38.0 (20140413.2041)
 -->
<!-- Title: Ogre::LodCollapseCost Pages: 1 -->
<svg width="324pt" height="142pt"
 viewBox="0.00 0.00 324.00 142.00" xmlns="http://www.w3.org/2000/svg" xmlns:xlink="http://www.w3.org/1999/xlink">
<g id="graph0" class="graph" transform="scale(1 1) rotate(0) translate(4 138)">
<title>Ogre::LodCollapseCost</title>
<!-- Node1 -->
<g id="node1" class="node"><title>Node1</title>
<polygon fill="#bfbfbf" stroke="black" points="0,-57.5 0,-76.5 119,-76.5 119,-57.5 0,-57.5"/>
<text text-anchor="middle" x="59.5" y="-64.5" font-family="Helvetica,sans-Serif" font-size="10.00">Ogre::LodCollapseCost</text>
</g>
<!-- Node2 -->
<g id="node2" class="node"><title>Node2</title>
<g id="a_node2"><a xlink:href="class_ogre_1_1_lod_collapse_cost_curvature.html" target="_top" xlink:title="Ogre::LodCollapseCostCurvature">
<polygon fill="none" stroke="black" points="155,-114.5 155,-133.5 316,-133.5 316,-114.5 155,-114.5"/>
<text text-anchor="middle" x="235.5" y="-121.5" font-family="Helvetica,sans-Serif" font-size="10.00">Ogre::LodCollapseCostCurvature</text>
</a>
</g>
</g>
<!-- Node1&#45;&gt;Node2 -->
<g id="edge1" class="edge"><title>Node1&#45;&gt;Node2</title>
<path fill="none" stroke="midnightblue" d="M90.8556,-80.5387C109.184,-88.3769 133.149,-98.0376 155,-105 166.087,-108.533 178.228,-111.752 189.611,-114.495"/>
<polygon fill="midnightblue" stroke="midnightblue" points="92.1318,-77.2773 81.5644,-76.5155 89.3502,-83.701 92.1318,-77.2773"/>
</g>
<!-- Node3 -->
<g id="node3" class="node"><title>Node3</title>
<g id="a_node3"><a xlink:href="class_ogre_1_1_lod_collapse_cost_outside.html" target="_top" xlink:title="Ogre::LodCollapseCostOutside">
<polygon fill="none" stroke="black" points="159.5,-76.5 159.5,-95.5 311.5,-95.5 311.5,-76.5 159.5,-76.5"/>
<text text-anchor="middle" x="235.5" y="-83.5" font-family="Helvetica,sans-Serif" font-size="10.00">Ogre::LodCollapseCostOutside</text>
</a>
</g>
</g>
<!-- Node1&#45;&gt;Node3 -->
<g id="edge2" class="edge"><title>Node1&#45;&gt;Node3</title>
<path fill="none" stroke="midnightblue" d="M129.481,-74.5324C139.279,-75.6023 149.395,-76.707 159.304,-77.7889"/>
<polygon fill="midnightblue" stroke="midnightblue" points="129.729,-71.0388 119.408,-73.4325 128.969,-77.9974 129.729,-71.0388"/>
</g>
<!-- Node4 -->
<g id="node4" class="node"><title>Node4</title>
<g id="a_node4"><a xlink:href="class_ogre_1_1_lod_collapse_cost_profiler.html" target="_top" xlink:title="Ogre::LodCollapseCostProfiler">
<polygon fill="none" stroke="black" points="161,-38.5 161,-57.5 310,-57.5 310,-38.5 161,-38.5"/>
<text text-anchor="middle" x="235.5" y="-45.5" font-family="Helvetica,sans-Serif" font-size="10.00">Ogre::LodCollapseCostProfiler</text>
</a>
</g>
</g>
<!-- Node1&#45;&gt;Node4 -->
<g id="edge3" class="edge"><title>Node1&#45;&gt;Node4</title>
<path fill="none" stroke="midnightblue" d="M129.553,-59.4598C139.836,-58.3369 150.469,-57.1758 160.842,-56.0431"/>
<polygon fill="midnightblue" stroke="midnightblue" points="128.969,-56.0026 119.408,-60.5675 129.729,-62.9612 128.969,-56.0026"/>
</g>
<!-- Node5 -->
<g id="node5" class="node"><title>Node5</title>
<g id="a_node5"><a xlink:href="class_ogre_1_1_lod_collapse_cost_quadric.html" target="_top" xlink:title="Ogre::LodCollapseCostQuadric">
<polygon fill="none" stroke="black" points="159.5,-0.5 159.5,-19.5 311.5,-19.5 311.5,-0.5 159.5,-0.5"/>
<text text-anchor="middle" x="235.5" y="-7.5" font-family="Helvetica,sans-Serif" font-size="10.00">Ogre::LodCollapseCostQuadric</text>
</a>
</g>
</g>
<!-- Node1&#45;&gt;Node5 -->
<g id="edge4" class="edge"><title>Node1&#45;&gt;Node5</title>
<path fill="none" stroke="midnightblue" d="M90.8556,-53.4613C109.184,-45.6231 133.149,-35.9624 155,-29 166.087,-25.4673 178.228,-22.2483 189.611,-19.5045"/>
<polygon fill="midnightblue" stroke="midnightblue" points="89.3502,-50.299 81.5644,-57.4845 92.1318,-56.7227 89.3502,-50.299"/>
</g>
</g>
</svg>
