<?xml version="1.0" encoding="UTF-8" standalone="no"?>
<!DOCTYPE svg PUBLIC "-//W3C//DTD SVG 1.1//EN"
 "http://www.w3.org/Graphics/SVG/1.1/DTD/svg11.dtd">
<!-- Generated by graphviz version 2.40.1 (20161225.0304)
 -->
<!-- Title: Ogre::GLSLESCgProgramFactory Pages: 1 -->
<svg width="181pt" height="151pt"
 viewBox="0.00 0.00 181.00 151.00" xmlns="http://www.w3.org/2000/svg" xmlns:xlink="http://www.w3.org/1999/xlink">
<g id="graph0" class="graph" transform="scale(1 1) rotate(0) translate(4 147)">
<title>Ogre::GLSLESCgProgramFactory</title>
<!-- Node0 -->
<g id="node1" class="node">
<title>Node0</title>
<polygon fill="#bfbfbf" stroke="#000000" points="0,-.5 0,-19.5 173,-19.5 173,-.5 0,-.5"/>
<text text-anchor="middle" x="86.5" y="-7.5" font-family="Helvetica,sans-Serif" font-size="10.00" fill="#000000">Ogre::GLSLESCgProgramFactory</text>
</g>
<!-- Node1 -->
<g id="node2" class="node">
<title>Node1</title>
<g id="a_node2"><a xlink:href="class_ogre_1_1_high_level_gpu_program_factory.html" target="_top" xlink:title="Interface definition for factories of HighLevelGpuProgram. ">
<polygon fill="none" stroke="#000000" points="9,-56.5 9,-86.5 164,-86.5 164,-56.5 9,-56.5"/>
<text text-anchor="start" x="17" y="-74.5" font-family="Helvetica,sans-Serif" font-size="10.00" fill="#000000">Ogre::HighLevelGpuProgram</text>
<text text-anchor="middle" x="86.5" y="-63.5" font-family="Helvetica,sans-Serif" font-size="10.00" fill="#000000">Factory</text>
</a>
</g>
</g>
<!-- Node1&#45;&gt;Node0 -->
<g id="edge1" class="edge">
<title>Node1&#45;&gt;Node0</title>
<path fill="none" stroke="#191970" d="M86.5,-46.2849C86.5,-36.9858 86.5,-26.9883 86.5,-19.8469"/>
<polygon fill="#191970" stroke="#191970" points="83.0001,-46.2977 86.5,-56.2977 90.0001,-46.2978 83.0001,-46.2977"/>
</g>
<!-- Node2 -->
<g id="node3" class="node">
<title>Node2</title>
<g id="a_node3"><a xlink:href="class_ogre_1_1_allocated_object.html" target="_top" xlink:title="Superclass for all objects that wish to use custom memory allocators when their new / delete operator...">
<polygon fill="none" stroke="#000000" points="48,-123.5 48,-142.5 125,-142.5 125,-123.5 48,-123.5"/>
<text text-anchor="middle" x="86.5" y="-130.5" font-family="Helvetica,sans-Serif" font-size="10.00" fill="#000000">FactoryAlloc</text>
</a>
</g>
</g>
<!-- Node2&#45;&gt;Node1 -->
<g id="edge2" class="edge">
<title>Node2&#45;&gt;Node1</title>
<path fill="none" stroke="#191970" d="M86.5,-113.3693C86.5,-104.681 86.5,-94.6241 86.5,-86.5446"/>
<polygon fill="#191970" stroke="#191970" points="83.0001,-113.3906 86.5,-123.3906 90.0001,-113.3907 83.0001,-113.3906"/>
</g>
</g>
</svg>
