<?xml version="1.0" encoding="UTF-8" standalone="no"?>
<!DOCTYPE svg PUBLIC "-//W3C//DTD SVG 1.1//EN"
 "http://www.w3.org/Graphics/SVG/1.1/DTD/svg11.dtd">
<!-- Generated by graphviz version 2.38.0 (20140413.2041)
 -->
<!-- Title: Ogre::VaoManager Pages: 1 -->
<svg width="401pt" height="142pt"
 viewBox="0.00 0.00 401.00 142.00" xmlns="http://www.w3.org/2000/svg" xmlns:xlink="http://www.w3.org/1999/xlink">
<g id="graph0" class="graph" transform="scale(1 1) rotate(0) translate(4 138)">
<title>Ogre::VaoManager</title>
<!-- Node1 -->
<g id="node1" class="node"><title>Node1</title>
<polygon fill="#bfbfbf" stroke="black" points="123,-57.5 123,-76.5 221,-76.5 221,-57.5 123,-57.5"/>
<text text-anchor="middle" x="172" y="-64.5" font-family="Helvetica,sans-Serif" font-size="10.00">Ogre::VaoManager</text>
</g>
<!-- Node3 -->
<g id="node3" class="node"><title>Node3</title>
<g id="a_node3"><a xlink:href="class_ogre_1_1_d3_d11_vao_manager.html" target="_top" xlink:title="Ogre::D3D11VaoManager">
<polygon fill="none" stroke="black" points="260.5,-114.5 260.5,-133.5 389.5,-133.5 389.5,-114.5 260.5,-114.5"/>
<text text-anchor="middle" x="325" y="-121.5" font-family="Helvetica,sans-Serif" font-size="10.00">Ogre::D3D11VaoManager</text>
</a>
</g>
</g>
<!-- Node1&#45;&gt;Node3 -->
<g id="edge2" class="edge"><title>Node1&#45;&gt;Node3</title>
<path fill="none" stroke="midnightblue" d="M201.379,-81.1097C217.455,-88.7783 238.078,-98.0804 257,-105 266.425,-108.447 276.781,-111.655 286.474,-114.418"/>
<polygon fill="midnightblue" stroke="midnightblue" points="202.539,-77.7831 192.013,-76.5818 199.493,-84.0853 202.539,-77.7831"/>
</g>
<!-- Node4 -->
<g id="node4" class="node"><title>Node4</title>
<g id="a_node4"><a xlink:href="class_ogre_1_1_g_l3_plus_vao_manager.html" target="_top" xlink:title="Ogre::GL3PlusVaoManager">
<polygon fill="none" stroke="black" points="257,-76.5 257,-95.5 393,-95.5 393,-76.5 257,-76.5"/>
<text text-anchor="middle" x="325" y="-83.5" font-family="Helvetica,sans-Serif" font-size="10.00">Ogre::GL3PlusVaoManager</text>
</a>
</g>
</g>
<!-- Node1&#45;&gt;Node4 -->
<g id="edge3" class="edge"><title>Node1&#45;&gt;Node4</title>
<path fill="none" stroke="midnightblue" d="M231.283,-74.3336C239.702,-75.393 248.423,-76.4903 256.996,-77.5691"/>
<polygon fill="midnightblue" stroke="midnightblue" points="231.551,-70.8399 221.193,-73.064 230.677,-77.7851 231.551,-70.8399"/>
</g>
<!-- Node5 -->
<g id="node5" class="node"><title>Node5</title>
<g id="a_node5"><a xlink:href="class_ogre_1_1_metal_vao_manager.html" target="_top" xlink:title="Ogre::MetalVaoManager">
<polygon fill="none" stroke="black" points="264,-38.5 264,-57.5 386,-57.5 386,-38.5 264,-38.5"/>
<text text-anchor="middle" x="325" y="-45.5" font-family="Helvetica,sans-Serif" font-size="10.00">Ogre::MetalVaoManager</text>
</a>
</g>
</g>
<!-- Node1&#45;&gt;Node5 -->
<g id="edge4" class="edge"><title>Node1&#45;&gt;Node5</title>
<path fill="none" stroke="midnightblue" d="M231.247,-59.6709C241.92,-58.3279 253.079,-56.9238 263.808,-55.5738"/>
<polygon fill="midnightblue" stroke="midnightblue" points="230.677,-56.2149 221.193,-60.936 231.551,-63.1601 230.677,-56.2149"/>
</g>
<!-- Node6 -->
<g id="node6" class="node"><title>Node6</title>
<g id="a_node6"><a xlink:href="class_ogre_1_1_n_u_l_l_vao_manager.html" target="_top" xlink:title="Ogre::NULLVaoManager">
<polygon fill="none" stroke="black" points="263,-0.5 263,-19.5 387,-19.5 387,-0.5 263,-0.5"/>
<text text-anchor="middle" x="325" y="-7.5" font-family="Helvetica,sans-Serif" font-size="10.00">Ogre::NULLVaoManager</text>
</a>
</g>
</g>
<!-- Node1&#45;&gt;Node6 -->
<g id="edge5" class="edge"><title>Node1&#45;&gt;Node6</title>
<path fill="none" stroke="midnightblue" d="M201.379,-52.8903C217.455,-45.2217 238.078,-35.9196 257,-29 266.425,-25.5535 276.781,-22.3446 286.474,-19.5815"/>
<polygon fill="midnightblue" stroke="midnightblue" points="199.493,-49.9147 192.013,-57.4182 202.539,-56.2169 199.493,-49.9147"/>
</g>
<!-- Node2 -->
<g id="node2" class="node"><title>Node2</title>
<g id="a_node2"><a xlink:href="class_ogre_1_1_allocated_object.html" target="_top" xlink:title="Superclass for all objects that wish to use custom memory allocators when their new / delete operator...">
<polygon fill="none" stroke="black" points="0,-57.5 0,-76.5 87,-76.5 87,-57.5 0,-57.5"/>
<text text-anchor="middle" x="43.5" y="-64.5" font-family="Helvetica,sans-Serif" font-size="10.00">RenderSysAlloc</text>
</a>
</g>
</g>
<!-- Node2&#45;&gt;Node1 -->
<g id="edge1" class="edge"><title>Node2&#45;&gt;Node1</title>
<path fill="none" stroke="midnightblue" d="M97.4817,-67C105.944,-67 114.657,-67 122.995,-67"/>
<polygon fill="midnightblue" stroke="midnightblue" points="97.3272,-63.5001 87.3271,-67 97.3271,-70.5001 97.3272,-63.5001"/>
</g>
</g>
</svg>
