<?xml version="1.0" encoding="UTF-8" standalone="no"?>
<!DOCTYPE svg PUBLIC "-//W3C//DTD SVG 1.1//EN"
 "http://www.w3.org/Graphics/SVG/1.1/DTD/svg11.dtd">
<!-- Generated by graphviz version 2.40.1 (20161225.0304)
 -->
<!-- Title: Ogre::D3D9StereoDriverImpl Pages: 1 -->
<svg width="353pt" height="140pt"
 viewBox="0.00 0.00 352.50 140.00" xmlns="http://www.w3.org/2000/svg" xmlns:xlink="http://www.w3.org/1999/xlink">
<g id="graph0" class="graph" transform="scale(1 1) rotate(0) translate(4 136)">
<title>Ogre::D3D9StereoDriverImpl</title>
<!-- Node0 -->
<g id="node1" class="node">
<title>Node0</title>
<polygon fill="#bfbfbf" stroke="#000000" points="91,-56.5 91,-75.5 247,-75.5 247,-56.5 91,-56.5"/>
<text text-anchor="middle" x="169" y="-63.5" font-family="Helvetica,sans-Serif" font-size="10.00" fill="#000000">Ogre::D3D9StereoDriverImpl</text>
</g>
<!-- Node2 -->
<g id="node3" class="node">
<title>Node2</title>
<g id="a_node3"><a xlink:href="class_ogre_1_1_d3_d9_stereo_driver_a_m_d.html" target="_top" xlink:title="Virtual interface of the stereo driver. ">
<polygon fill="none" stroke="#000000" points="0,-.5 0,-19.5 158,-19.5 158,-.5 0,-.5"/>
<text text-anchor="middle" x="79" y="-7.5" font-family="Helvetica,sans-Serif" font-size="10.00" fill="#000000">Ogre::D3D9StereoDriverAMD</text>
</a>
</g>
</g>
<!-- Node0&#45;&gt;Node2 -->
<g id="edge2" class="edge">
<title>Node0&#45;&gt;Node2</title>
<path fill="none" stroke="#191970" d="M144.5216,-50.769C128.5734,-40.8456 108.249,-28.1994 94.4972,-19.6427"/>
<polygon fill="#191970" stroke="#191970" points="142.9835,-53.9342 153.3232,-56.2455 146.6817,-47.9908 142.9835,-53.9342"/>
</g>
<!-- Node3 -->
<g id="node4" class="node">
<title>Node3</title>
<g id="a_node4"><a xlink:href="class_ogre_1_1_d3_d9_stereo_driver_n_v_i_d_i_a.html" target="_top" xlink:title="Interface of the NVIDIA stereo driver. ">
<polygon fill="none" stroke="#000000" points="175.5,-.5 175.5,-19.5 344.5,-19.5 344.5,-.5 175.5,-.5"/>
<text text-anchor="middle" x="260" y="-7.5" font-family="Helvetica,sans-Serif" font-size="10.00" fill="#000000">Ogre::D3D9StereoDriverNVIDIA</text>
</a>
</g>
</g>
<!-- Node0&#45;&gt;Node3 -->
<g id="edge3" class="edge">
<title>Node0&#45;&gt;Node3</title>
<path fill="none" stroke="#191970" d="M193.7504,-50.769C209.8758,-40.8456 230.426,-28.1994 244.3307,-19.6427"/>
<polygon fill="#191970" stroke="#191970" points="191.5332,-48.0237 184.851,-56.2455 195.2019,-53.9853 191.5332,-48.0237"/>
</g>
<!-- Node1 -->
<g id="node2" class="node">
<title>Node1</title>
<g id="a_node2"><a xlink:href="class_ogre_1_1_allocated_object.html" target="_top" xlink:title="Superclass for all objects that wish to use custom memory allocators when their new / delete operator...">
<polygon fill="none" stroke="#000000" points="126,-112.5 126,-131.5 212,-131.5 212,-112.5 126,-112.5"/>
<text text-anchor="middle" x="169" y="-119.5" font-family="Helvetica,sans-Serif" font-size="10.00" fill="#000000">ResourceAlloc</text>
</a>
</g>
</g>
<!-- Node1&#45;&gt;Node0 -->
<g id="edge1" class="edge">
<title>Node1&#45;&gt;Node0</title>
<path fill="none" stroke="#191970" d="M169,-102.1575C169,-93.155 169,-82.9199 169,-75.6427"/>
<polygon fill="#191970" stroke="#191970" points="165.5001,-102.2455 169,-112.2455 172.5001,-102.2456 165.5001,-102.2455"/>
</g>
</g>
</svg>
