<?xml version="1.0" encoding="UTF-8" standalone="no"?>
<!DOCTYPE svg PUBLIC "-//W3C//DTD SVG 1.1//EN"
 "http://www.w3.org/Graphics/SVG/1.1/DTD/svg11.dtd">
<!-- Generated by graphviz version 2.40.1 (20161225.0304)
 -->
<!-- Title: Ogre::Serializer Pages: 1 -->
<svg width="909pt" height="256pt"
 viewBox="0.00 0.00 909.00 256.00" xmlns="http://www.w3.org/2000/svg" xmlns:xlink="http://www.w3.org/1999/xlink">
<g id="graph0" class="graph" transform="scale(1 1) rotate(0) translate(4 252)">
<title>Ogre::Serializer</title>
<!-- Node0 -->
<g id="node1" class="node">
<title>Node0</title>
<polygon fill="#bfbfbf" stroke="#000000" points="115,-114.5 115,-133.5 199,-133.5 199,-114.5 115,-114.5"/>
<text text-anchor="middle" x="157" y="-121.5" font-family="Helvetica,sans-Serif" font-size="10.00" fill="#000000">Ogre::Serializer</text>
</g>
<!-- Node2 -->
<g id="node3" class="node">
<title>Node2</title>
<g id="a_node3"><a xlink:href="class_ogre_1_1_gpu_named_constants_serializer.html" target="_top" xlink:title="Simple class for loading / saving GpuNamedConstants. ">
<polygon fill="none" stroke="#000000" points="235,-228.5 235,-247.5 414,-247.5 414,-228.5 235,-228.5"/>
<text text-anchor="middle" x="324.5" y="-235.5" font-family="Helvetica,sans-Serif" font-size="10.00" fill="#000000">Ogre::GpuNamedConstantsSerializer</text>
</a>
</g>
</g>
<!-- Node0&#45;&gt;Node2 -->
<g id="edge2" class="edge">
<title>Node0&#45;&gt;Node2</title>
<path fill="none" stroke="#191970" d="M167.0057,-142.5915C179.7854,-164.4576 204.0072,-200.157 235,-219 241.3792,-222.8784 248.4328,-225.9732 255.6981,-228.4413"/>
<polygon fill="#191970" stroke="#191970" points="169.9139,-140.6229 161.9559,-133.6285 163.8152,-144.0589 169.9139,-140.6229"/>
</g>
<!-- Node3 -->
<g id="node4" class="node">
<title>Node3</title>
<g id="a_node4"><a xlink:href="class_ogre_1_1_lod_config_serializer.html" target="_top" xlink:title="Ogre::LodConfigSerializer">
<polygon fill="none" stroke="#000000" points="260.5,-190.5 260.5,-209.5 388.5,-209.5 388.5,-190.5 260.5,-190.5"/>
<text text-anchor="middle" x="324.5" y="-197.5" font-family="Helvetica,sans-Serif" font-size="10.00" fill="#000000">Ogre::LodConfigSerializer</text>
</a>
</g>
</g>
<!-- Node0&#45;&gt;Node3 -->
<g id="edge3" class="edge">
<title>Node0&#45;&gt;Node3</title>
<path fill="none" stroke="#191970" d="M174.6811,-140.3378C189.6552,-153.2881 212.2594,-170.8411 235,-181 243.7018,-184.8874 253.2411,-187.9963 262.7472,-190.478"/>
<polygon fill="#191970" stroke="#191970" points="176.9971,-137.7135 167.1948,-133.6928 172.3502,-142.9487 176.9971,-137.7135"/>
</g>
<!-- Node4 -->
<g id="node5" class="node">
<title>Node4</title>
<g id="a_node5"><a xlink:href="class_ogre_1_1_mesh_serializer.html" target="_top" xlink:title="Class for serialising mesh data to/from an OGRE .mesh file. ">
<polygon fill="none" stroke="#000000" points="270.5,-152.5 270.5,-171.5 378.5,-171.5 378.5,-152.5 270.5,-152.5"/>
<text text-anchor="middle" x="324.5" y="-159.5" font-family="Helvetica,sans-Serif" font-size="10.00" fill="#000000">Ogre::MeshSerializer</text>
</a>
</g>
</g>
<!-- Node0&#45;&gt;Node4 -->
<g id="edge4" class="edge">
<title>Node0&#45;&gt;Node4</title>
<path fill="none" stroke="#191970" d="M204.7971,-135.881C214.7652,-138.2919 225.2158,-140.7703 235,-143 249.0935,-146.2117 264.4765,-149.5409 278.4513,-152.4983"/>
<polygon fill="#191970" stroke="#191970" points="205.5765,-132.4686 195.0324,-133.5044 203.921,-139.27 205.5765,-132.4686"/>
</g>
<!-- Node5 -->
<g id="node6" class="node">
<title>Node5</title>
<g id="a_node6"><a xlink:href="class_ogre_1_1_mesh_serializer_impl.html" target="_top" xlink:title="Internal implementation of Mesh reading / writing for the latest version of the .mesh format...">
<polygon fill="none" stroke="#000000" points="261,-114.5 261,-133.5 388,-133.5 388,-114.5 261,-114.5"/>
<text text-anchor="middle" x="324.5" y="-121.5" font-family="Helvetica,sans-Serif" font-size="10.00" fill="#000000">Ogre::MeshSerializerImpl</text>
</a>
</g>
</g>
<!-- Node0&#45;&gt;Node5 -->
<g id="edge5" class="edge">
<title>Node0&#45;&gt;Node5</title>
<path fill="none" stroke="#191970" d="M209.621,-124C225.8207,-124 243.8321,-124 260.6976,-124"/>
<polygon fill="#191970" stroke="#191970" points="209.2674,-120.5001 199.2673,-124 209.2673,-127.5001 209.2674,-120.5001"/>
</g>
<!-- Node8 -->
<g id="node9" class="node">
<title>Node8</title>
<g id="a_node9"><a xlink:href="class_ogre_1_1v1_1_1_mesh_serializer.html" target="_top" xlink:title="Class for serialising mesh data to/from an OGRE .mesh file. ">
<polygon fill="none" stroke="#000000" points="262,-76.5 262,-95.5 387,-95.5 387,-76.5 262,-76.5"/>
<text text-anchor="middle" x="324.5" y="-83.5" font-family="Helvetica,sans-Serif" font-size="10.00" fill="#000000">Ogre::v1::MeshSerializer</text>
</a>
</g>
</g>
<!-- Node0&#45;&gt;Node8 -->
<g id="edge8" class="edge">
<title>Node0&#45;&gt;Node8</title>
<path fill="none" stroke="#191970" d="M204.7971,-112.119C214.7652,-109.7081 225.2158,-107.2297 235,-105 249.0935,-101.7883 264.4765,-98.4591 278.4513,-95.5017"/>
<polygon fill="#191970" stroke="#191970" points="203.921,-108.73 195.0324,-114.4956 205.5765,-115.5314 203.921,-108.73"/>
</g>
<!-- Node9 -->
<g id="node10" class="node">
<title>Node9</title>
<g id="a_node10"><a xlink:href="class_ogre_1_1v1_1_1_mesh_serializer_impl.html" target="_top" xlink:title="Internal implementation of Mesh reading / writing for the latest version of the .mesh format...">
<polygon fill="none" stroke="#000000" points="253,-38.5 253,-57.5 396,-57.5 396,-38.5 253,-38.5"/>
<text text-anchor="middle" x="324.5" y="-45.5" font-family="Helvetica,sans-Serif" font-size="10.00" fill="#000000">Ogre::v1::MeshSerializerImpl</text>
</a>
</g>
</g>
<!-- Node0&#45;&gt;Node9 -->
<g id="edge9" class="edge">
<title>Node0&#45;&gt;Node9</title>
<path fill="none" stroke="#191970" d="M174.6811,-107.6622C189.6552,-94.7119 212.2594,-77.1589 235,-67 243.7018,-63.1126 253.2411,-60.0037 262.7472,-57.522"/>
<polygon fill="#191970" stroke="#191970" points="172.3502,-105.0513 167.1948,-114.3072 176.9971,-110.2865 172.3502,-105.0513"/>
</g>
<!-- Node17 -->
<g id="node14" class="node">
<title>Node17</title>
<g id="a_node14"><a xlink:href="class_ogre_1_1v1_1_1_skeleton_serializer.html" target="_top" xlink:title="Class for serialising skeleton data to/from an OGRE .skeleton file. ">
<polygon fill="none" stroke="#000000" points="255,-.5 255,-19.5 394,-19.5 394,-.5 255,-.5"/>
<text text-anchor="middle" x="324.5" y="-7.5" font-family="Helvetica,sans-Serif" font-size="10.00" fill="#000000">Ogre::v1::SkeletonSerializer</text>
</a>
</g>
</g>
<!-- Node0&#45;&gt;Node17 -->
<g id="edge13" class="edge">
<title>Node0&#45;&gt;Node17</title>
<path fill="none" stroke="#191970" d="M167.0057,-105.4085C179.7854,-83.5424 204.0072,-47.843 235,-29 241.3792,-25.1216 248.4328,-22.0268 255.6981,-19.5587"/>
<polygon fill="#191970" stroke="#191970" points="163.8152,-103.9411 161.9559,-114.3715 169.9139,-107.3771 163.8152,-103.9411"/>
</g>
<!-- Node1 -->
<g id="node2" class="node">
<title>Node1</title>
<g id="a_node2"><a xlink:href="class_ogre_1_1_allocated_object.html" target="_top" xlink:title="Superclass for all objects that wish to use custom memory allocators when their new / delete operator...">
<polygon fill="none" stroke="#000000" points="0,-114.5 0,-133.5 79,-133.5 79,-114.5 0,-114.5"/>
<text text-anchor="middle" x="39.5" y="-121.5" font-family="Helvetica,sans-Serif" font-size="10.00" fill="#000000">SerializerAlloc</text>
</a>
</g>
</g>
<!-- Node1&#45;&gt;Node0 -->
<g id="edge1" class="edge">
<title>Node1&#45;&gt;Node0</title>
<path fill="none" stroke="#191970" d="M89.4319,-124C97.896,-124 106.61,-124 114.8495,-124"/>
<polygon fill="#191970" stroke="#191970" points="89.2802,-120.5001 79.2801,-124 89.2801,-127.5001 89.2802,-120.5001"/>
</g>
<!-- Node6 -->
<g id="node7" class="node">
<title>Node6</title>
<g id="a_node7"><a xlink:href="class_ogre_1_1_mesh_serializer_impl__v2__1___r1.html" target="_top" xlink:title="Ogre::MeshSerializerImpl\l_v2_1_R1">
<polygon fill="none" stroke="#000000" points="450,-109 450,-139 577,-139 577,-109 450,-109"/>
<text text-anchor="start" x="458" y="-127" font-family="Helvetica,sans-Serif" font-size="10.00" fill="#000000">Ogre::MeshSerializerImpl</text>
<text text-anchor="middle" x="513.5" y="-116" font-family="Helvetica,sans-Serif" font-size="10.00" fill="#000000">_v2_1_R1</text>
</a>
</g>
</g>
<!-- Node5&#45;&gt;Node6 -->
<g id="edge6" class="edge">
<title>Node5&#45;&gt;Node6</title>
<path fill="none" stroke="#191970" d="M398.6051,-124C415.5015,-124 433.3113,-124 449.732,-124"/>
<polygon fill="#191970" stroke="#191970" points="398.2233,-120.5001 388.2233,-124 398.2233,-127.5001 398.2233,-120.5001"/>
</g>
<!-- Node7 -->
<g id="node8" class="node">
<title>Node7</title>
<g id="a_node8"><a xlink:href="class_ogre_1_1_mesh_serializer_impl__v2__1___r0.html" target="_top" xlink:title="Ogre::MeshSerializerImpl\l_v2_1_R0">
<polygon fill="none" stroke="#000000" points="613,-109 613,-139 740,-139 740,-109 613,-109"/>
<text text-anchor="start" x="621" y="-127" font-family="Helvetica,sans-Serif" font-size="10.00" fill="#000000">Ogre::MeshSerializerImpl</text>
<text text-anchor="middle" x="676.5" y="-116" font-family="Helvetica,sans-Serif" font-size="10.00" fill="#000000">_v2_1_R0</text>
</a>
</g>
</g>
<!-- Node6&#45;&gt;Node7 -->
<g id="edge7" class="edge">
<title>Node6&#45;&gt;Node7</title>
<path fill="none" stroke="#191970" d="M587.6881,-124C596.1415,-124 604.7005,-124 612.9977,-124"/>
<polygon fill="#191970" stroke="#191970" points="587.4541,-120.5001 577.4541,-124 587.4541,-127.5001 587.4541,-120.5001"/>
</g>
<!-- Node10 -->
<g id="node11" class="node">
<title>Node10</title>
<g id="a_node11"><a xlink:href="class_ogre_1_1v1_1_1_mesh_serializer_impl__v1__10.html" target="_top" xlink:title="Class for providing backwards&#45;compatibility for loading version 1.10 of the .mesh format...">
<polygon fill="none" stroke="#000000" points="451,-33 451,-63 576,-63 576,-33 451,-33"/>
<text text-anchor="start" x="459" y="-51" font-family="Helvetica,sans-Serif" font-size="10.00" fill="#000000">Ogre::v1::MeshSerializer</text>
<text text-anchor="middle" x="513.5" y="-40" font-family="Helvetica,sans-Serif" font-size="10.00" fill="#000000">Impl_v1_10</text>
</a>
</g>
</g>
<!-- Node9&#45;&gt;Node10 -->
<g id="edge10" class="edge">
<title>Node9&#45;&gt;Node10</title>
<path fill="none" stroke="#191970" d="M406.4302,-48C421.2993,-48 436.591,-48 450.7975,-48"/>
<polygon fill="#191970" stroke="#191970" points="406.2223,-44.5001 396.2223,-48 406.2223,-51.5001 406.2223,-44.5001"/>
</g>
<!-- Node11 -->
<g id="node12" class="node">
<title>Node11</title>
<g id="a_node12"><a xlink:href="class_ogre_1_1v1_1_1_mesh_serializer_impl__v1__8.html" target="_top" xlink:title="Class for providing backwards&#45;compatibility for loading version 1.8 of the .mesh format. ">
<polygon fill="none" stroke="#000000" points="614,-33 614,-63 739,-63 739,-33 614,-33"/>
<text text-anchor="start" x="622" y="-51" font-family="Helvetica,sans-Serif" font-size="10.00" fill="#000000">Ogre::v1::MeshSerializer</text>
<text text-anchor="middle" x="676.5" y="-40" font-family="Helvetica,sans-Serif" font-size="10.00" fill="#000000">Impl_v1_8</text>
</a>
</g>
</g>
<!-- Node10&#45;&gt;Node11 -->
<g id="edge11" class="edge">
<title>Node10&#45;&gt;Node11</title>
<path fill="none" stroke="#191970" d="M586.3306,-48C595.5111,-48 604.84,-48 613.8442,-48"/>
<polygon fill="#191970" stroke="#191970" points="586.0539,-44.5001 576.0539,-48 586.0539,-51.5001 586.0539,-44.5001"/>
</g>
<!-- Node12 -->
<g id="node13" class="node">
<title>Node12</title>
<g id="a_node13"><a xlink:href="class_ogre_1_1v1_1_1_mesh_serializer_impl__v1__41.html" target="_top" xlink:title="Class for providing backwards&#45;compatibility for loading version 1.41 of the .mesh format...">
<polygon fill="none" stroke="#ff0000" points="776,-33 776,-63 901,-63 901,-33 776,-33"/>
<text text-anchor="start" x="784" y="-51" font-family="Helvetica,sans-Serif" font-size="10.00" fill="#000000">Ogre::v1::MeshSerializer</text>
<text text-anchor="middle" x="838.5" y="-40" font-family="Helvetica,sans-Serif" font-size="10.00" fill="#000000">Impl_v1_41</text>
</a>
</g>
</g>
<!-- Node11&#45;&gt;Node12 -->
<g id="edge12" class="edge">
<title>Node11&#45;&gt;Node12</title>
<path fill="none" stroke="#191970" d="M749.3852,-48C758.1902,-48 767.1244,-48 775.7661,-48"/>
<polygon fill="#191970" stroke="#191970" points="749.1335,-44.5001 739.1334,-48 749.1334,-51.5001 749.1335,-44.5001"/>
</g>
</g>
</svg>
