<?xml version="1.0" encoding="UTF-8" standalone="no"?>
<!DOCTYPE svg PUBLIC "-//W3C//DTD SVG 1.1//EN"
 "http://www.w3.org/Graphics/SVG/1.1/DTD/svg11.dtd">
<!-- Generated by graphviz version 2.40.1 (20161225.0304)
 -->
<!-- Title: Ogre::ConstBufferPoolUser Pages: 1 -->
<svg width="286pt" height="84pt"
 viewBox="0.00 0.00 285.50 84.00" xmlns="http://www.w3.org/2000/svg" xmlns:xlink="http://www.w3.org/1999/xlink">
<g id="graph0" class="graph" transform="scale(1 1) rotate(0) translate(4 80)">
<title>Ogre::ConstBufferPoolUser</title>
<!-- Node0 -->
<g id="node1" class="node">
<title>Node0</title>
<polygon fill="#bfbfbf" stroke="#000000" points="69.5,-56.5 69.5,-75.5 206.5,-75.5 206.5,-56.5 69.5,-56.5"/>
<text text-anchor="middle" x="138" y="-63.5" font-family="Helvetica,sans-Serif" font-size="10.00" fill="#000000">Ogre::ConstBufferPoolUser</text>
</g>
<!-- Node1 -->
<g id="node2" class="node">
<title>Node1</title>
<g id="a_node2"><a xlink:href="class_ogre_1_1_hlms_pbs_datablock.html" target="_top" xlink:title="Contains information needed by PBS (Physically Based Shading) for OpenGL 3+ &amp; D3D11+. ">
<polygon fill="none" stroke="#000000" points="0,-.5 0,-19.5 128,-19.5 128,-.5 0,-.5"/>
<text text-anchor="middle" x="64" y="-7.5" font-family="Helvetica,sans-Serif" font-size="10.00" fill="#000000">Ogre::HlmsPbsDatablock</text>
</a>
</g>
</g>
<!-- Node0&#45;&gt;Node1 -->
<g id="edge1" class="edge">
<title>Node0&#45;&gt;Node1</title>
<path fill="none" stroke="#191970" d="M117.1343,-50.2097C104.1375,-40.3743 87.8378,-28.0394 76.7421,-19.6427"/>
<polygon fill="#191970" stroke="#191970" points="115.024,-53.002 125.1102,-56.2455 119.2482,-47.4201 115.024,-53.002"/>
</g>
<!-- Node2 -->
<g id="node3" class="node">
<title>Node2</title>
<g id="a_node3"><a xlink:href="class_ogre_1_1_hlms_unlit_datablock.html" target="_top" xlink:title="Contains information needed by PBS (Physically Based Shading) for OpenGL 3+ &amp; D3D11+. ">
<polygon fill="none" stroke="#000000" points="146.5,-.5 146.5,-19.5 277.5,-19.5 277.5,-.5 146.5,-.5"/>
<text text-anchor="middle" x="212" y="-7.5" font-family="Helvetica,sans-Serif" font-size="10.00" fill="#000000">Ogre::HlmsUnlitDatablock</text>
</a>
</g>
</g>
<!-- Node0&#45;&gt;Node2 -->
<g id="edge2" class="edge">
<title>Node0&#45;&gt;Node2</title>
<path fill="none" stroke="#191970" d="M158.8657,-50.2097C171.8625,-40.3743 188.1622,-28.0394 199.2579,-19.6427"/>
<polygon fill="#191970" stroke="#191970" points="156.7518,-47.4201 150.8898,-56.2455 160.976,-53.002 156.7518,-47.4201"/>
</g>
</g>
</svg>
