<?xml version="1.0" encoding="UTF-8" standalone="no"?>
<!DOCTYPE svg PUBLIC "-//W3C//DTD SVG 1.1//EN"
 "http://www.w3.org/Graphics/SVG/1.1/DTD/svg11.dtd">
<!-- Generated by graphviz version 2.40.1 (20161225.0304)
 -->
<!-- Title: Ogre::ArchiveFactory Pages: 1 -->
<svg width="908pt" height="121pt"
 viewBox="0.00 0.00 908.00 121.00" xmlns="http://www.w3.org/2000/svg" xmlns:xlink="http://www.w3.org/1999/xlink">
<g id="graph0" class="graph" transform="scale(1 1) rotate(0) translate(4 117)">
<title>Ogre::ArchiveFactory</title>
<!-- Node0 -->
<g id="node1" class="node">
<title>Node0</title>
<polygon fill="#bfbfbf" stroke="#000000" points="194,-44 194,-63 313,-63 313,-44 194,-44"/>
<text text-anchor="middle" x="253.5" y="-51" font-family="Helvetica,sans-Serif" font-size="10.00" fill="#000000">Ogre::ArchiveFactory</text>
</g>
<!-- Node3 -->
<g id="node4" class="node">
<title>Node3</title>
<g id="a_node4"><a xlink:href="class_ogre_1_1_a_p_k_file_system_archive_factory.html" target="_top" xlink:title="Ogre::APKFileSystemArchive\lFactory">
<polygon fill="none" stroke="#000000" points="357.5,-82.5 357.5,-112.5 514.5,-112.5 514.5,-82.5 357.5,-82.5"/>
<text text-anchor="start" x="365.5" y="-100.5" font-family="Helvetica,sans-Serif" font-size="10.00" fill="#000000">Ogre::APKFileSystemArchive</text>
<text text-anchor="middle" x="436" y="-89.5" font-family="Helvetica,sans-Serif" font-size="10.00" fill="#000000">Factory</text>
</a>
</g>
</g>
<!-- Node0&#45;&gt;Node3 -->
<g id="edge3" class="edge">
<title>Node0&#45;&gt;Node3</title>
<path fill="none" stroke="#191970" d="M303.0862,-65.455C324.796,-70.6892 350.5124,-76.8893 373.513,-82.4346"/>
<polygon fill="#191970" stroke="#191970" points="303.6416,-61.9887 293.0998,-63.0473 302.0009,-68.7937 303.6416,-61.9887"/>
</g>
<!-- Node4 -->
<g id="node5" class="node">
<title>Node4</title>
<g id="a_node5"><a xlink:href="class_ogre_1_1_file_system_archive_factory.html" target="_top" xlink:title="Specialisation of ArchiveFactory for FileSystem files. ">
<polygon fill="none" stroke="#000000" points="349,-44 349,-63 523,-63 523,-44 349,-44"/>
<text text-anchor="middle" x="436" y="-51" font-family="Helvetica,sans-Serif" font-size="10.00" fill="#000000">Ogre::FileSystemArchiveFactory</text>
</a>
</g>
</g>
<!-- Node0&#45;&gt;Node4 -->
<g id="edge4" class="edge">
<title>Node0&#45;&gt;Node4</title>
<path fill="none" stroke="#191970" d="M323.0972,-53.5C331.4935,-53.5 340.1495,-53.5 348.7578,-53.5"/>
<polygon fill="#191970" stroke="#191970" points="323.0048,-50.0001 313.0048,-53.5 323.0048,-57.0001 323.0048,-50.0001"/>
</g>
<!-- Node5 -->
<g id="node6" class="node">
<title>Node5</title>
<g id="a_node6"><a xlink:href="class_ogre_1_1_zip_archive_factory.html" target="_top" xlink:title="Specialisation of ArchiveFactory for Zip files. ">
<polygon fill="none" stroke="#000000" points="368.5,-6 368.5,-25 503.5,-25 503.5,-6 368.5,-6"/>
<text text-anchor="middle" x="436" y="-13" font-family="Helvetica,sans-Serif" font-size="10.00" fill="#000000">Ogre::ZipArchiveFactory</text>
</a>
</g>
</g>
<!-- Node0&#45;&gt;Node5 -->
<g id="edge5" class="edge">
<title>Node0&#45;&gt;Node5</title>
<path fill="none" stroke="#191970" d="M309.5995,-41.819C335.4804,-36.4301 365.8146,-30.1139 390.2787,-25.0201"/>
<polygon fill="#191970" stroke="#191970" points="308.629,-38.4459 299.5525,-43.911 310.056,-45.299 308.629,-38.4459"/>
</g>
<!-- Node1 -->
<g id="node2" class="node">
<title>Node1</title>
<g id="a_node2"><a xlink:href="class_ogre_1_1_factory_obj.html" target="_top" xlink:title="Ogre::FactoryObj\&lt; Archive \&gt;">
<polygon fill="none" stroke="#000000" points="0,-63 0,-82 158,-82 158,-63 0,-63"/>
<text text-anchor="middle" x="79" y="-70" font-family="Helvetica,sans-Serif" font-size="10.00" fill="#000000">Ogre::FactoryObj&lt; Archive &gt;</text>
</a>
</g>
</g>
<!-- Node1&#45;&gt;Node0 -->
<g id="edge1" class="edge">
<title>Node1&#45;&gt;Node0</title>
<path fill="none" stroke="#191970" d="M168.2294,-62.7845C176.8815,-61.8424 185.5077,-60.9032 193.7674,-60.0038"/>
<polygon fill="#191970" stroke="#191970" points="167.6433,-59.3275 158.081,-63.8895 168.4011,-66.2864 167.6433,-59.3275"/>
</g>
<!-- Node2 -->
<g id="node3" class="node">
<title>Node2</title>
<g id="a_node3"><a xlink:href="class_ogre_1_1_allocated_object.html" target="_top" xlink:title="Superclass for all objects that wish to use custom memory allocators when their new / delete operator...">
<polygon fill="none" stroke="#000000" points="40.5,-25 40.5,-44 117.5,-44 117.5,-25 40.5,-25"/>
<text text-anchor="middle" x="79" y="-32" font-family="Helvetica,sans-Serif" font-size="10.00" fill="#000000">ArchiveAlloc</text>
</a>
</g>
</g>
<!-- Node2&#45;&gt;Node0 -->
<g id="edge2" class="edge">
<title>Node2&#45;&gt;Node0</title>
<path fill="none" stroke="#191970" d="M127.7983,-39.8133C148.3259,-42.0484 172.4032,-44.67 193.9617,-47.0173"/>
<polygon fill="#191970" stroke="#191970" points="128.0473,-36.3198 117.7272,-38.7167 127.2896,-43.2787 128.0473,-36.3198"/>
</g>
<!-- Node6 -->
<g id="node7" class="node">
<title>Node6</title>
<g id="a_node7"><a xlink:href="class_ogre_1_1_embedded_zip_archive_factory.html" target="_top" xlink:title="Specialisation of ZipArchiveFactory for embedded Zip files. ">
<polygon fill="none" stroke="#000000" points="559,-.5 559,-30.5 709,-30.5 709,-.5 559,-.5"/>
<text text-anchor="start" x="567" y="-18.5" font-family="Helvetica,sans-Serif" font-size="10.00" fill="#000000">Ogre::EmbeddedZipArchive</text>
<text text-anchor="middle" x="634" y="-7.5" font-family="Helvetica,sans-Serif" font-size="10.00" fill="#000000">Factory</text>
</a>
</g>
</g>
<!-- Node5&#45;&gt;Node6 -->
<g id="edge6" class="edge">
<title>Node5&#45;&gt;Node6</title>
<path fill="none" stroke="#191970" d="M513.7483,-15.5C528.6064,-15.5 544.1347,-15.5 558.9076,-15.5"/>
<polygon fill="#191970" stroke="#191970" points="513.5866,-12.0001 503.5866,-15.5 513.5865,-19.0001 513.5866,-12.0001"/>
</g>
<!-- Node7 -->
<g id="node8" class="node">
<title>Node7</title>
<g id="a_node8"><a xlink:href="class_ogre_1_1_a_p_k_zip_archive_factory.html" target="_top" xlink:title="Ogre::APKZipArchiveFactory">
<polygon fill="none" stroke="#000000" points="745,-6 745,-25 900,-25 900,-6 745,-6"/>
<text text-anchor="middle" x="822.5" y="-13" font-family="Helvetica,sans-Serif" font-size="10.00" fill="#000000">Ogre::APKZipArchiveFactory</text>
</a>
</g>
</g>
<!-- Node6&#45;&gt;Node7 -->
<g id="edge7" class="edge">
<title>Node6&#45;&gt;Node7</title>
<path fill="none" stroke="#191970" d="M719.0861,-15.5C727.6976,-15.5 736.4121,-15.5 744.9383,-15.5"/>
<polygon fill="#191970" stroke="#191970" points="719.0419,-12.0001 709.0418,-15.5 719.0418,-19.0001 719.0419,-12.0001"/>
</g>
</g>
</svg>
