<?xml version="1.0" encoding="UTF-8" standalone="no"?>
<!DOCTYPE svg PUBLIC "-//W3C//DTD SVG 1.1//EN"
 "http://www.w3.org/Graphics/SVG/1.1/DTD/svg11.dtd">
<!-- Generated by graphviz version 2.38.0 (20140413.2041)
 -->
<!-- Title: Ogre::CompositorTextureBaseTranslator Pages: 1 -->
<svg width="646pt" height="127pt"
 viewBox="0.00 0.00 646.00 126.50" xmlns="http://www.w3.org/2000/svg" xmlns:xlink="http://www.w3.org/1999/xlink">
<g id="graph0" class="graph" transform="scale(1 1) rotate(0) translate(4 122.5)">
<title>Ogre::CompositorTextureBaseTranslator</title>
<!-- Node1 -->
<g id="node1" class="node"><title>Node1</title>
<polygon fill="#bfbfbf" stroke="black" points="292,-49.5 292,-79.5 441,-79.5 441,-49.5 292,-49.5"/>
<text text-anchor="start" x="300" y="-67.5" font-family="Helvetica,sans-Serif" font-size="10.00">Ogre::CompositorTextureBase</text>
<text text-anchor="middle" x="366.5" y="-56.5" font-family="Helvetica,sans-Serif" font-size="10.00">Translator</text>
</g>
<!-- Node4 -->
<g id="node4" class="node"><title>Node4</title>
<g id="a_node4"><a xlink:href="class_ogre_1_1_compositor_node_translator.html" target="_top" xlink:title="Ogre::CompositorNodeTranslator">
<polygon fill="none" stroke="black" points="477,-99 477,-118 638,-118 638,-99 477,-99"/>
<text text-anchor="middle" x="557.5" y="-106" font-family="Helvetica,sans-Serif" font-size="10.00">Ogre::CompositorNodeTranslator</text>
</a>
</g>
</g>
<!-- Node1&#45;&gt;Node4 -->
<g id="edge3" class="edge"><title>Node1&#45;&gt;Node4</title>
<path fill="none" stroke="midnightblue" d="M441.892,-81.8187C467.003,-87.6648 494.101,-93.9732 515.64,-98.9876"/>
<polygon fill="midnightblue" stroke="midnightblue" points="442.548,-78.3779 432.014,-79.5192 440.96,-85.1956 442.548,-78.3779"/>
</g>
<!-- Node5 -->
<g id="node5" class="node"><title>Node5</title>
<g id="a_node5"><a xlink:href="class_ogre_1_1_compositor_shadow_node_translator.html" target="_top" xlink:title="Ogre::CompositorShadowNode\lTranslator">
<polygon fill="none" stroke="black" points="481.5,-49.5 481.5,-79.5 633.5,-79.5 633.5,-49.5 481.5,-49.5"/>
<text text-anchor="start" x="489.5" y="-67.5" font-family="Helvetica,sans-Serif" font-size="10.00">Ogre::CompositorShadowNode</text>
<text text-anchor="middle" x="557.5" y="-56.5" font-family="Helvetica,sans-Serif" font-size="10.00">Translator</text>
</a>
</g>
</g>
<!-- Node1&#45;&gt;Node5 -->
<g id="edge4" class="edge"><title>Node1&#45;&gt;Node5</title>
<path fill="none" stroke="midnightblue" d="M451.389,-64.5C461.323,-64.5 471.415,-64.5 481.219,-64.5"/>
<polygon fill="midnightblue" stroke="midnightblue" points="451.114,-61.0001 441.114,-64.5 451.113,-68.0001 451.114,-61.0001"/>
</g>
<!-- Node6 -->
<g id="node6" class="node"><title>Node6</title>
<g id="a_node6"><a xlink:href="class_ogre_1_1_compositor_workspace_translator.html" target="_top" xlink:title="Ogre::CompositorWorkspace\lTranslator">
<polygon fill="none" stroke="black" points="486,-0.5 486,-30.5 629,-30.5 629,-0.5 486,-0.5"/>
<text text-anchor="start" x="494" y="-18.5" font-family="Helvetica,sans-Serif" font-size="10.00">Ogre::CompositorWorkspace</text>
<text text-anchor="middle" x="557.5" y="-7.5" font-family="Helvetica,sans-Serif" font-size="10.00">Translator</text>
</a>
</g>
</g>
<!-- Node1&#45;&gt;Node6 -->
<g id="edge5" class="edge"><title>Node1&#45;&gt;Node6</title>
<path fill="none" stroke="midnightblue" d="M435.192,-46.9502C455.947,-41.5694 478.582,-35.701 498.619,-30.5062"/>
<polygon fill="midnightblue" stroke="midnightblue" points="434.292,-43.5677 425.491,-49.4654 436.049,-50.3437 434.292,-43.5677"/>
</g>
<!-- Node2 -->
<g id="node2" class="node"><title>Node2</title>
<g id="a_node2"><a xlink:href="class_ogre_1_1_script_translator.html" target="_top" xlink:title="This class translates script AST (abstract syntax tree) into Ogre resources. ">
<polygon fill="none" stroke="black" points="143,-55 143,-74 256,-74 256,-55 143,-55"/>
<text text-anchor="middle" x="199.5" y="-62" font-family="Helvetica,sans-Serif" font-size="10.00">Ogre::ScriptTranslator</text>
</a>
</g>
</g>
<!-- Node2&#45;&gt;Node1 -->
<g id="edge1" class="edge"><title>Node2&#45;&gt;Node1</title>
<path fill="none" stroke="midnightblue" d="M266.419,-64.5C274.781,-64.5 283.379,-64.5 291.852,-64.5"/>
<polygon fill="midnightblue" stroke="midnightblue" points="266.362,-61.0001 256.361,-64.5 266.361,-68.0001 266.362,-61.0001"/>
</g>
<!-- Node3 -->
<g id="node3" class="node"><title>Node3</title>
<g id="a_node3"><a xlink:href="class_ogre_1_1_allocated_object.html" target="_top" xlink:title="Superclass for all objects that wish to use custom memory allocators when their new / delete operator...">
<polygon fill="none" stroke="black" points="0,-55 0,-74 107,-74 107,-55 0,-55"/>
<text text-anchor="middle" x="53.5" y="-62" font-family="Helvetica,sans-Serif" font-size="10.00">ScriptTranslatorAlloc</text>
</a>
</g>
</g>
<!-- Node3&#45;&gt;Node2 -->
<g id="edge2" class="edge"><title>Node3&#45;&gt;Node2</title>
<path fill="none" stroke="midnightblue" d="M117.473,-64.5C125.905,-64.5 134.505,-64.5 142.8,-64.5"/>
<polygon fill="midnightblue" stroke="midnightblue" points="117.303,-61.0001 107.303,-64.5 117.303,-68.0001 117.303,-61.0001"/>
</g>
</g>
</svg>
