<?xml version="1.0" encoding="UTF-8" standalone="no"?>
<!DOCTYPE svg PUBLIC "-//W3C//DTD SVG 1.1//EN"
 "http://www.w3.org/Graphics/SVG/1.1/DTD/svg11.dtd">
<!-- Generated by graphviz version 2.40.1 (20161225.0304)
 -->
<!-- Title: Ogre::SceneNode Pages: 1 -->
<svg width="178pt" height="196pt"
 viewBox="0.00 0.00 178.00 196.00" xmlns="http://www.w3.org/2000/svg" xmlns:xlink="http://www.w3.org/1999/xlink">
<g id="graph0" class="graph" transform="scale(1 1) rotate(0) translate(4 192)">
<title>Ogre::SceneNode</title>
<!-- Node0 -->
<g id="node1" class="node">
<title>Node0</title>
<polygon fill="#bfbfbf" stroke="#000000" points="29.5,-56.5 29.5,-75.5 130.5,-75.5 130.5,-56.5 29.5,-56.5"/>
<text text-anchor="middle" x="80" y="-63.5" font-family="Helvetica,sans-Serif" font-size="10.00" fill="#000000">Ogre::SceneNode</text>
</g>
<!-- Node4 -->
<g id="node5" class="node">
<title>Node4</title>
<g id="a_node5"><a xlink:href="class_ogre_1_1_tag_point.html" target="_top" xlink:title="TagPoints are like SceneNodes, that can be children of a Bone. ">
<polygon fill="none" stroke="#000000" points="35.5,-.5 35.5,-19.5 124.5,-19.5 124.5,-.5 35.5,-.5"/>
<text text-anchor="middle" x="80" y="-7.5" font-family="Helvetica,sans-Serif" font-size="10.00" fill="#000000">Ogre::TagPoint</text>
</a>
</g>
</g>
<!-- Node0&#45;&gt;Node4 -->
<g id="edge4" class="edge">
<title>Node0&#45;&gt;Node4</title>
<path fill="none" stroke="#191970" d="M80,-46.1575C80,-37.155 80,-26.9199 80,-19.6427"/>
<polygon fill="#191970" stroke="#191970" points="76.5001,-46.2455 80,-56.2455 83.5001,-46.2456 76.5001,-46.2455"/>
</g>
<!-- Node1 -->
<g id="node2" class="node">
<title>Node1</title>
<g id="a_node2"><a xlink:href="class_ogre_1_1_node.html" target="_top" xlink:title="Class representing a general&#45;purpose node an articulated scene graph. ">
<polygon fill="none" stroke="#000000" points="44.5,-112.5 44.5,-131.5 115.5,-131.5 115.5,-112.5 44.5,-112.5"/>
<text text-anchor="middle" x="80" y="-119.5" font-family="Helvetica,sans-Serif" font-size="10.00" fill="#000000">Ogre::Node</text>
</a>
</g>
</g>
<!-- Node1&#45;&gt;Node0 -->
<g id="edge1" class="edge">
<title>Node1&#45;&gt;Node0</title>
<path fill="none" stroke="#191970" d="M80,-102.1575C80,-93.155 80,-82.9199 80,-75.6427"/>
<polygon fill="#191970" stroke="#191970" points="76.5001,-102.2455 80,-112.2455 83.5001,-102.2456 76.5001,-102.2455"/>
</g>
<!-- Node2 -->
<g id="node3" class="node">
<title>Node2</title>
<g id="a_node3"><a xlink:href="class_ogre_1_1_allocated_object.html" target="_top" xlink:title="Superclass for all objects that wish to use custom memory allocators when their new / delete operator...">
<polygon fill="none" stroke="#000000" points="0,-168.5 0,-187.5 66,-187.5 66,-168.5 0,-168.5"/>
<text text-anchor="middle" x="33" y="-175.5" font-family="Helvetica,sans-Serif" font-size="10.00" fill="#000000">NodeAlloc</text>
</a>
</g>
</g>
<!-- Node2&#45;&gt;Node1 -->
<g id="edge2" class="edge">
<title>Node2&#45;&gt;Node1</title>
<path fill="none" stroke="#191970" d="M47.6872,-160.5004C55.6796,-150.9775 65.2625,-139.5596 71.907,-131.6427"/>
<polygon fill="#191970" stroke="#191970" points="44.9346,-158.3357 41.1868,-168.2455 50.2964,-162.8358 44.9346,-158.3357"/>
</g>
<!-- Node3 -->
<g id="node4" class="node">
<title>Node3</title>
<g id="a_node4"><a xlink:href="class_ogre_1_1_id_object.html" target="_top" xlink:title="Ogre::IdObject">
<polygon fill="none" stroke="#000000" points="84,-168.5 84,-187.5 170,-187.5 170,-168.5 84,-168.5"/>
<text text-anchor="middle" x="127" y="-175.5" font-family="Helvetica,sans-Serif" font-size="10.00" fill="#000000">Ogre::IdObject</text>
</a>
</g>
</g>
<!-- Node3&#45;&gt;Node1 -->
<g id="edge3" class="edge">
<title>Node3&#45;&gt;Node1</title>
<path fill="none" stroke="#191970" d="M112.3128,-160.5004C104.3204,-150.9775 94.7375,-139.5596 88.093,-131.6427"/>
<polygon fill="#191970" stroke="#191970" points="109.7036,-162.8358 118.8132,-168.2455 115.0654,-158.3357 109.7036,-162.8358"/>
</g>
</g>
</svg>
