<?xml version="1.0" encoding="UTF-8" standalone="no"?>
<!DOCTYPE svg PUBLIC "-//W3C//DTD SVG 1.1//EN"
 "http://www.w3.org/Graphics/SVG/1.1/DTD/svg11.dtd">
<!-- Generated by graphviz version 2.40.1 (20161225.0304)
 -->
<!-- Title: Ogre::LodOutputProviderCompressedBuffer Pages: 1 -->
<svg width="232pt" height="151pt"
 viewBox="0.00 0.00 232.00 151.00" xmlns="http://www.w3.org/2000/svg" xmlns:xlink="http://www.w3.org/1999/xlink">
<g id="graph0" class="graph" transform="scale(1 1) rotate(0) translate(4 147)">
<title>Ogre::LodOutputProviderCompressedBuffer</title>
<!-- Node0 -->
<g id="node1" class="node">
<title>Node0</title>
<polygon fill="#bfbfbf" stroke="#000000" points="13.5,-.5 13.5,-30.5 210.5,-30.5 210.5,-.5 13.5,-.5"/>
<text text-anchor="start" x="21.5" y="-18.5" font-family="Helvetica,sans-Serif" font-size="10.00" fill="#000000">Ogre::LodOutputProviderCompressed</text>
<text text-anchor="middle" x="112" y="-7.5" font-family="Helvetica,sans-Serif" font-size="10.00" fill="#000000">Buffer</text>
</g>
<!-- Node1 -->
<g id="node2" class="node">
<title>Node1</title>
<g id="a_node2"><a xlink:href="class_ogre_1_1_lod_output_provider_compressed_mesh.html" target="_top" xlink:title="Ogre::LodOutputProviderCompressedMesh">
<polygon fill="none" stroke="#000000" points="0,-67.5 0,-86.5 224,-86.5 224,-67.5 0,-67.5"/>
<text text-anchor="middle" x="112" y="-74.5" font-family="Helvetica,sans-Serif" font-size="10.00" fill="#000000">Ogre::LodOutputProviderCompressedMesh</text>
</a>
</g>
</g>
<!-- Node1&#45;&gt;Node0 -->
<g id="edge1" class="edge">
<title>Node1&#45;&gt;Node0</title>
<path fill="none" stroke="#191970" d="M112,-57.3693C112,-48.681 112,-38.6241 112,-30.5446"/>
<polygon fill="#191970" stroke="#191970" points="108.5001,-57.3906 112,-67.3906 115.5001,-57.3907 108.5001,-57.3906"/>
</g>
<!-- Node2 -->
<g id="node3" class="node">
<title>Node2</title>
<g id="a_node3"><a xlink:href="class_ogre_1_1_lod_output_provider.html" target="_top" xlink:title="Ogre::LodOutputProvider">
<polygon fill="none" stroke="#000000" points="43.5,-123.5 43.5,-142.5 180.5,-142.5 180.5,-123.5 43.5,-123.5"/>
<text text-anchor="middle" x="112" y="-130.5" font-family="Helvetica,sans-Serif" font-size="10.00" fill="#000000">Ogre::LodOutputProvider</text>
</a>
</g>
</g>
<!-- Node2&#45;&gt;Node1 -->
<g id="edge2" class="edge">
<title>Node2&#45;&gt;Node1</title>
<path fill="none" stroke="#191970" d="M112,-113.1575C112,-104.155 112,-93.9199 112,-86.6427"/>
<polygon fill="#191970" stroke="#191970" points="108.5001,-113.2455 112,-123.2455 115.5001,-113.2456 108.5001,-113.2455"/>
</g>
</g>
</svg>
