<?xml version="1.0" encoding="UTF-8" standalone="no"?>
<!DOCTYPE svg PUBLIC "-//W3C//DTD SVG 1.1//EN"
 "http://www.w3.org/Graphics/SVG/1.1/DTD/svg11.dtd">
<!-- Generated by graphviz version 2.40.1 (20161225.0304)
 -->
<!-- Title: Ogre::RTShader::Parameter Pages: 1 -->
<svg width="392pt" height="151pt"
 viewBox="0.00 0.00 392.00 151.00" xmlns="http://www.w3.org/2000/svg" xmlns:xlink="http://www.w3.org/1999/xlink">
<g id="graph0" class="graph" transform="scale(1 1) rotate(0) translate(4 147)">
<title>Ogre::RTShader::Parameter</title>
<!-- Node0 -->
<g id="node1" class="node">
<title>Node0</title>
<polygon fill="#bfbfbf" stroke="#000000" points="114,-67.5 114,-86.5 263,-86.5 263,-67.5 114,-67.5"/>
<text text-anchor="middle" x="188.5" y="-74.5" font-family="Helvetica,sans-Serif" font-size="10.00" fill="#000000">Ogre::RTShader::Parameter</text>
</g>
<!-- Node2 -->
<g id="node3" class="node">
<title>Node2</title>
<g id="a_node3"><a xlink:href="class_ogre_1_1_r_t_shader_1_1_const_parameter.html" target="_top" xlink:title="Helper template which is the base for our ConstParameters. ">
<polygon fill="none" stroke="#000000" points="0,-.5 0,-30.5 177,-30.5 177,-.5 0,-.5"/>
<text text-anchor="start" x="8" y="-18.5" font-family="Helvetica,sans-Serif" font-size="10.00" fill="#000000">Ogre::RTShader::ConstParameter</text>
<text text-anchor="middle" x="88.5" y="-7.5" font-family="Helvetica,sans-Serif" font-size="10.00" fill="#000000">&lt; valueType &gt;</text>
</a>
</g>
</g>
<!-- Node0&#45;&gt;Node2 -->
<g id="edge2" class="edge">
<title>Node0&#45;&gt;Node2</title>
<path fill="none" stroke="#191970" d="M164.3107,-62.1236C148.7452,-52.5508 128.5817,-40.1502 112.9628,-30.5446"/>
<polygon fill="#191970" stroke="#191970" points="162.5234,-65.1333 172.875,-67.3906 166.1905,-59.1707 162.5234,-65.1333"/>
</g>
<!-- Node3 -->
<g id="node4" class="node">
<title>Node3</title>
<g id="a_node4"><a xlink:href="class_ogre_1_1_r_t_shader_1_1_uniform_parameter.html" target="_top" xlink:title="Uniform parameter class. ">
<polygon fill="none" stroke="#000000" points="195,-6 195,-25 384,-25 384,-6 195,-6"/>
<text text-anchor="middle" x="289.5" y="-13" font-family="Helvetica,sans-Serif" font-size="10.00" fill="#000000">Ogre::RTShader::UniformParameter</text>
</a>
</g>
</g>
<!-- Node0&#45;&gt;Node3 -->
<g id="edge3" class="edge">
<title>Node0&#45;&gt;Node3</title>
<path fill="none" stroke="#191970" d="M212.9674,-62.1015C231.9054,-50.57 257.5659,-34.945 273.8296,-25.0419"/>
<polygon fill="#191970" stroke="#191970" points="211.0021,-59.2004 204.2813,-67.3906 214.6427,-65.1792 211.0021,-59.2004"/>
</g>
<!-- Node1 -->
<g id="node2" class="node">
<title>Node1</title>
<g id="a_node2"><a xlink:href="class_ogre_1_1_allocated_object.html" target="_top" xlink:title="Superclass for all objects that wish to use custom memory allocators when their new / delete operator...">
<polygon fill="none" stroke="#000000" points="126.5,-123.5 126.5,-142.5 250.5,-142.5 250.5,-123.5 126.5,-123.5"/>
<text text-anchor="middle" x="188.5" y="-130.5" font-family="Helvetica,sans-Serif" font-size="10.00" fill="#000000">RTShaderSystemAlloc</text>
</a>
</g>
</g>
<!-- Node1&#45;&gt;Node0 -->
<g id="edge1" class="edge">
<title>Node1&#45;&gt;Node0</title>
<path fill="none" stroke="#191970" d="M188.5,-113.1575C188.5,-104.155 188.5,-93.9199 188.5,-86.6427"/>
<polygon fill="#191970" stroke="#191970" points="185.0001,-113.2455 188.5,-123.2455 192.0001,-113.2456 185.0001,-113.2455"/>
</g>
</g>
</svg>
