<?xml version="1.0" encoding="UTF-8" standalone="no"?>
<!DOCTYPE svg PUBLIC "-//W3C//DTD SVG 1.1//EN"
 "http://www.w3.org/Graphics/SVG/1.1/DTD/svg11.dtd">
<!-- Generated by graphviz version 2.40.1 (20161225.0304)
 -->
<!-- Title: Ogre::SceneFormatBase Pages: 1 -->
<svg width="330pt" height="84pt"
 viewBox="0.00 0.00 330.00 84.00" xmlns="http://www.w3.org/2000/svg" xmlns:xlink="http://www.w3.org/1999/xlink">
<g id="graph0" class="graph" transform="scale(1 1) rotate(0) translate(4 80)">
<title>Ogre::SceneFormatBase</title>
<!-- Node0 -->
<g id="node1" class="node">
<title>Node0</title>
<polygon fill="#bfbfbf" stroke="#000000" points="94,-56.5 94,-75.5 228,-75.5 228,-56.5 94,-56.5"/>
<text text-anchor="middle" x="161" y="-63.5" font-family="Helvetica,sans-Serif" font-size="10.00" fill="#000000">Ogre::SceneFormatBase</text>
</g>
<!-- Node1 -->
<g id="node2" class="node">
<title>Node1</title>
<g id="a_node2"><a xlink:href="class_ogre_1_1_scene_format_exporter.html" target="_top" xlink:title="Ogre::SceneFormatExporter">
<polygon fill="none" stroke="#000000" points="0,-.5 0,-19.5 152,-19.5 152,-.5 0,-.5"/>
<text text-anchor="middle" x="76" y="-7.5" font-family="Helvetica,sans-Serif" font-size="10.00" fill="#000000">Ogre::SceneFormatExporter</text>
</a>
</g>
</g>
<!-- Node0&#45;&gt;Node1 -->
<g id="edge1" class="edge">
<title>Node0&#45;&gt;Node1</title>
<path fill="none" stroke="#191970" d="M137.4581,-50.49C122.461,-40.6096 103.5027,-28.1194 90.6362,-19.6427"/>
<polygon fill="#191970" stroke="#191970" points="135.9179,-53.6666 146.1941,-56.2455 139.7691,-47.8212 135.9179,-53.6666"/>
</g>
<!-- Node2 -->
<g id="node3" class="node">
<title>Node2</title>
<g id="a_node3"><a xlink:href="class_ogre_1_1_scene_format_importer.html" target="_top" xlink:title="Ogre::SceneFormatImporter">
<polygon fill="none" stroke="#000000" points="170,-.5 170,-19.5 322,-19.5 322,-.5 170,-.5"/>
<text text-anchor="middle" x="246" y="-7.5" font-family="Helvetica,sans-Serif" font-size="10.00" fill="#000000">Ogre::SceneFormatImporter</text>
</a>
</g>
</g>
<!-- Node0&#45;&gt;Node2 -->
<g id="edge2" class="edge">
<title>Node0&#45;&gt;Node2</title>
<path fill="none" stroke="#191970" d="M184.5419,-50.49C199.539,-40.6096 218.4973,-28.1194 231.3638,-19.6427"/>
<polygon fill="#191970" stroke="#191970" points="182.2309,-47.8212 175.8059,-56.2455 186.0821,-53.6666 182.2309,-47.8212"/>
</g>
</g>
</svg>
