<?xml version="1.0" encoding="UTF-8" standalone="no"?>
<!DOCTYPE svg PUBLIC "-//W3C//DTD SVG 1.1//EN"
 "http://www.w3.org/Graphics/SVG/1.1/DTD/svg11.dtd">
<!-- Generated by graphviz version 2.40.1 (20161225.0304)
 -->
<!-- Title: Ogre::Hlms Pages: 1 -->
<svg width="463pt" height="199pt"
 viewBox="0.00 0.00 463.00 199.00" xmlns="http://www.w3.org/2000/svg" xmlns:xlink="http://www.w3.org/1999/xlink">
<g id="graph0" class="graph" transform="scale(1 1) rotate(0) translate(4 195)">
<title>Ogre::Hlms</title>
<!-- Node0 -->
<g id="node1" class="node">
<title>Node0</title>
<polygon fill="#bfbfbf" stroke="#000000" points="98,-76.5 98,-95.5 165,-95.5 165,-76.5 98,-76.5"/>
<text text-anchor="middle" x="131.5" y="-83.5" font-family="Helvetica,sans-Serif" font-size="10.00" fill="#000000">Ogre::Hlms</text>
</g>
<!-- Node2 -->
<g id="node3" class="node">
<title>Node2</title>
<g id="a_node3"><a xlink:href="class_ogre_1_1_hlms_buffer_manager.html" target="_top" xlink:title="Managing constant and texture buffers for sending shader parameters is a very similar process to most...">
<polygon fill="none" stroke="#000000" points="201,-152.5 201,-171.5 332,-171.5 332,-152.5 201,-152.5"/>
<text text-anchor="middle" x="266.5" y="-159.5" font-family="Helvetica,sans-Serif" font-size="10.00" fill="#000000">Ogre::HlmsBufferManager</text>
</a>
</g>
</g>
<!-- Node0&#45;&gt;Node2 -->
<g id="edge2" class="edge">
<title>Node0&#45;&gt;Node2</title>
<path fill="none" stroke="#191970" d="M148.3248,-103.1481C161.5861,-115.783 181.1034,-132.5246 201,-143 208.2291,-146.8061 216.3196,-149.9407 224.2821,-152.4894"/>
<polygon fill="#191970" stroke="#191970" points="150.5221,-100.4011 140.9288,-95.9046 145.6241,-105.4022 150.5221,-100.4011"/>
</g>
<!-- Node5 -->
<g id="node6" class="node">
<title>Node5</title>
<g id="a_node6"><a xlink:href="class_ogre_1_1_hlms_compute.html" target="_top" xlink:title="HLMS implementation that handles compute shaders. ">
<polygon fill="none" stroke="#000000" points="213,-114.5 213,-133.5 320,-133.5 320,-114.5 213,-114.5"/>
<text text-anchor="middle" x="266.5" y="-121.5" font-family="Helvetica,sans-Serif" font-size="10.00" fill="#000000">Ogre::HlmsCompute</text>
</a>
</g>
</g>
<!-- Node0&#45;&gt;Node5 -->
<g id="edge5" class="edge">
<title>Node0&#45;&gt;Node5</title>
<path fill="none" stroke="#191970" d="M174.9954,-98.2431C193.7127,-103.5117 215.2613,-109.5773 232.744,-114.4983"/>
<polygon fill="#191970" stroke="#191970" points="175.7922,-94.8315 165.218,-95.491 173.8955,-101.5697 175.7922,-94.8315"/>
</g>
<!-- Node6 -->
<g id="node7" class="node">
<title>Node6</title>
<g id="a_node7"><a xlink:href="class_ogre_1_1_hlms_low_level.html" target="_top" xlink:title="This is an HLMS implementation that acts as proxy to use the Material system from Ogre 1...">
<polygon fill="none" stroke="#000000" points="212.5,-76.5 212.5,-95.5 320.5,-95.5 320.5,-76.5 212.5,-76.5"/>
<text text-anchor="middle" x="266.5" y="-83.5" font-family="Helvetica,sans-Serif" font-size="10.00" fill="#000000">Ogre::HlmsLowLevel</text>
</a>
</g>
</g>
<!-- Node0&#45;&gt;Node6 -->
<g id="edge6" class="edge">
<title>Node0&#45;&gt;Node6</title>
<path fill="none" stroke="#191970" d="M175.3073,-86C187.1656,-86 200.1411,-86 212.4888,-86"/>
<polygon fill="#191970" stroke="#191970" points="175.218,-82.5001 165.218,-86 175.2179,-89.5001 175.218,-82.5001"/>
</g>
<!-- Node7 -->
<g id="node8" class="node">
<title>Node7</title>
<g id="a_node8"><a xlink:href="class_ogre_1_1_hlms_pbs_mobile.html" target="_top" xlink:title="Physically based shading implementation specfically designed for OpenGL ES 2.0 and other RenderSystem...">
<polygon fill="none" stroke="#000000" points="210,-38.5 210,-57.5 323,-57.5 323,-38.5 210,-38.5"/>
<text text-anchor="middle" x="266.5" y="-45.5" font-family="Helvetica,sans-Serif" font-size="10.00" fill="#000000">Ogre::HlmsPbsMobile</text>
</a>
</g>
</g>
<!-- Node0&#45;&gt;Node7 -->
<g id="edge7" class="edge">
<title>Node0&#45;&gt;Node7</title>
<path fill="none" stroke="#191970" d="M174.9954,-73.7569C193.7127,-68.4883 215.2613,-62.4227 232.744,-57.5017"/>
<polygon fill="#191970" stroke="#191970" points="173.8955,-70.4303 165.218,-76.509 175.7922,-77.1685 173.8955,-70.4303"/>
</g>
<!-- Node8 -->
<g id="node9" class="node">
<title>Node8</title>
<g id="a_node9"><a xlink:href="class_ogre_1_1_hlms_unlit_mobile.html" target="_top" xlink:title="User Interface (2D) implementation specfically designed for OpenGL ES 2.0 and other RenderSystems whi...">
<polygon fill="none" stroke="#000000" points="208.5,-.5 208.5,-19.5 324.5,-19.5 324.5,-.5 208.5,-.5"/>
<text text-anchor="middle" x="266.5" y="-7.5" font-family="Helvetica,sans-Serif" font-size="10.00" fill="#000000">Ogre::HlmsUnlitMobile</text>
</a>
</g>
</g>
<!-- Node0&#45;&gt;Node8 -->
<g id="edge8" class="edge">
<title>Node0&#45;&gt;Node8</title>
<path fill="none" stroke="#191970" d="M148.3248,-68.8519C161.5861,-56.217 181.1034,-39.4754 201,-29 208.2291,-25.1939 216.3196,-22.0593 224.2821,-19.5106"/>
<polygon fill="#191970" stroke="#191970" points="145.6241,-66.5978 140.9288,-76.0954 150.5221,-71.5989 145.6241,-66.5978"/>
</g>
<!-- Node1 -->
<g id="node2" class="node">
<title>Node1</title>
<g id="a_node2"><a xlink:href="class_ogre_1_1_allocated_object.html" target="_top" xlink:title="Superclass for all objects that wish to use custom memory allocators when their new / delete operator...">
<polygon fill="none" stroke="#000000" points="0,-76.5 0,-95.5 62,-95.5 62,-76.5 0,-76.5"/>
<text text-anchor="middle" x="31" y="-83.5" font-family="Helvetica,sans-Serif" font-size="10.00" fill="#000000">HlmsAlloc</text>
</a>
</g>
</g>
<!-- Node1&#45;&gt;Node0 -->
<g id="edge1" class="edge">
<title>Node1&#45;&gt;Node0</title>
<path fill="none" stroke="#191970" d="M72.3504,-86C80.8302,-86 89.6593,-86 97.8297,-86"/>
<polygon fill="#191970" stroke="#191970" points="72.248,-82.5001 62.2479,-86 72.2479,-89.5001 72.248,-82.5001"/>
</g>
<!-- Node3 -->
<g id="node4" class="node">
<title>Node3</title>
<g id="a_node4"><a xlink:href="class_ogre_1_1_hlms_pbs.html" target="_top" xlink:title="Physically based shading implementation specfically designed for OpenGL 3+, D3D11 and other RenderSys...">
<polygon fill="none" stroke="#000000" points="369.5,-171.5 369.5,-190.5 453.5,-190.5 453.5,-171.5 369.5,-171.5"/>
<text text-anchor="middle" x="411.5" y="-178.5" font-family="Helvetica,sans-Serif" font-size="10.00" fill="#000000">Ogre::HlmsPbs</text>
</a>
</g>
</g>
<!-- Node2&#45;&gt;Node3 -->
<g id="edge3" class="edge">
<title>Node2&#45;&gt;Node3</title>
<path fill="none" stroke="#191970" d="M342.273,-171.9289C351.5456,-173.1439 360.7466,-174.3496 369.2677,-175.4661"/>
<polygon fill="#191970" stroke="#191970" points="342.582,-168.4395 332.212,-170.6105 341.6725,-175.3802 342.582,-168.4395"/>
</g>
<!-- Node4 -->
<g id="node5" class="node">
<title>Node4</title>
<g id="a_node5"><a xlink:href="class_ogre_1_1_hlms_unlit.html" target="_top" xlink:title="Implementation without lighting or skeletal animation specfically designed for OpenGL 3+...">
<polygon fill="none" stroke="#000000" points="368,-133.5 368,-152.5 455,-152.5 455,-133.5 368,-133.5"/>
<text text-anchor="middle" x="411.5" y="-140.5" font-family="Helvetica,sans-Serif" font-size="10.00" fill="#000000">Ogre::HlmsUnlit</text>
</a>
</g>
</g>
<!-- Node2&#45;&gt;Node4 -->
<g id="edge4" class="edge">
<title>Node2&#45;&gt;Node4</title>
<path fill="none" stroke="#191970" d="M342.3575,-152.06C351.0003,-150.9276 359.5792,-149.8034 367.6017,-148.7522"/>
<polygon fill="#191970" stroke="#191970" points="341.6725,-148.6198 332.212,-153.3895 342.582,-155.5605 341.6725,-148.6198"/>
</g>
</g>
</svg>
