<?xml version="1.0" encoding="UTF-8" standalone="no"?>
<!DOCTYPE svg PUBLIC "-//W3C//DTD SVG 1.1//EN"
 "http://www.w3.org/Graphics/SVG/1.1/DTD/svg11.dtd">
<!-- Generated by graphviz version 2.40.1 (20161225.0304)
 -->
<!-- Title: Ogre::v1::HardwareIndexBuffer Pages: 1 -->
<svg width="674pt" height="284pt"
 viewBox="0.00 0.00 674.00 284.00" xmlns="http://www.w3.org/2000/svg" xmlns:xlink="http://www.w3.org/1999/xlink">
<g id="graph0" class="graph" transform="scale(1 1) rotate(0) translate(4 280)">
<title>Ogre::v1::HardwareIndexBuffer</title>
<!-- Node0 -->
<g id="node1" class="node">
<title>Node0</title>
<polygon fill="#bfbfbf" stroke="#000000" points="284,-128 284,-147 452,-147 452,-128 284,-128"/>
<text text-anchor="middle" x="368" y="-135" font-family="Helvetica,sans-Serif" font-size="10.00" fill="#000000">Ogre::v1::HardwareIndexBuffer</text>
</g>
<!-- Node3 -->
<g id="node4" class="node">
<title>Node3</title>
<g id="a_node4"><a xlink:href="class_ogre_1_1v1_1_1_d3_d11_hardware_index_buffer.html" target="_top" xlink:title="Ogre::v1::D3D11HardwareIndex\lBuffer">
<polygon fill="none" stroke="#000000" points="491.5,-245.5 491.5,-275.5 662.5,-275.5 662.5,-245.5 491.5,-245.5"/>
<text text-anchor="start" x="499.5" y="-263.5" font-family="Helvetica,sans-Serif" font-size="10.00" fill="#000000">Ogre::v1::D3D11HardwareIndex</text>
<text text-anchor="middle" x="577" y="-252.5" font-family="Helvetica,sans-Serif" font-size="10.00" fill="#000000">Buffer</text>
</a>
</g>
</g>
<!-- Node0&#45;&gt;Node3 -->
<g id="edge3" class="edge">
<title>Node0&#45;&gt;Node3</title>
<path fill="none" stroke="#191970" d="M383.9868,-154.6152C405.551,-176.7074 446.1079,-214.8713 488,-236.5 494.5412,-239.8772 501.6052,-242.8156 508.793,-245.3639"/>
<polygon fill="#191970" stroke="#191970" points="386.3826,-152.0568 376.9341,-147.2635 381.3312,-156.9028 386.3826,-152.0568"/>
</g>
<!-- Node4 -->
<g id="node5" class="node">
<title>Node4</title>
<g id="a_node5"><a xlink:href="class_ogre_1_1v1_1_1_default_hardware_index_buffer.html" target="_top" xlink:title="Specialisation of HardwareIndexBuffer for emulation. ">
<polygon fill="none" stroke="#000000" points="503.5,-196.5 503.5,-226.5 650.5,-226.5 650.5,-196.5 503.5,-196.5"/>
<text text-anchor="start" x="511.5" y="-214.5" font-family="Helvetica,sans-Serif" font-size="10.00" fill="#000000">Ogre::v1::DefaultHardware</text>
<text text-anchor="middle" x="577" y="-203.5" font-family="Helvetica,sans-Serif" font-size="10.00" fill="#000000">IndexBuffer</text>
</a>
</g>
</g>
<!-- Node0&#45;&gt;Node4 -->
<g id="edge4" class="edge">
<title>Node0&#45;&gt;Node4</title>
<path fill="none" stroke="#191970" d="M397.7724,-151.1917C421.8023,-161.928 456.6509,-176.7939 488,-187.5 497.2382,-190.655 507.127,-193.669 516.8319,-196.4303"/>
<polygon fill="#191970" stroke="#191970" points="399.0486,-147.928 388.4936,-147.011 396.173,-154.3101 399.0486,-147.928"/>
</g>
<!-- Node5 -->
<g id="node6" class="node">
<title>Node5</title>
<g id="a_node6"><a xlink:href="class_ogre_1_1v1_1_1_g_l3_plus_default_hardware_index_buffer.html" target="_top" xlink:title="Specialisation of HardwareIndexBuffer for emulation. ">
<polygon fill="none" stroke="#000000" points="507.5,-147.5 507.5,-177.5 646.5,-177.5 646.5,-147.5 507.5,-147.5"/>
<text text-anchor="start" x="515.5" y="-165.5" font-family="Helvetica,sans-Serif" font-size="10.00" fill="#000000">Ogre::v1::GL3PlusDefault</text>
<text text-anchor="middle" x="577" y="-154.5" font-family="Helvetica,sans-Serif" font-size="10.00" fill="#000000">HardwareIndexBuffer</text>
</a>
</g>
</g>
<!-- Node0&#45;&gt;Node5 -->
<g id="edge5" class="edge">
<title>Node0&#45;&gt;Node5</title>
<path fill="none" stroke="#191970" d="M457.8169,-148.2436C474.3375,-150.2198 491.3577,-152.2557 507.1813,-154.1485"/>
<polygon fill="#191970" stroke="#191970" points="457.9551,-144.7353 447.6102,-147.0227 457.1236,-151.6858 457.9551,-144.7353"/>
</g>
<!-- Node6 -->
<g id="node7" class="node">
<title>Node6</title>
<g id="a_node7"><a xlink:href="class_ogre_1_1v1_1_1_g_l3_plus_hardware_index_buffer.html" target="_top" xlink:title="Ogre::v1::GL3PlusHardware\lIndexBuffer">
<polygon fill="none" stroke="#000000" points="502,-98.5 502,-128.5 652,-128.5 652,-98.5 502,-98.5"/>
<text text-anchor="start" x="510" y="-116.5" font-family="Helvetica,sans-Serif" font-size="10.00" fill="#000000">Ogre::v1::GL3PlusHardware</text>
<text text-anchor="middle" x="577" y="-105.5" font-family="Helvetica,sans-Serif" font-size="10.00" fill="#000000">IndexBuffer</text>
</a>
</g>
</g>
<!-- Node0&#45;&gt;Node6 -->
<g id="edge6" class="edge">
<title>Node0&#45;&gt;Node6</title>
<path fill="none" stroke="#191970" d="M460.8616,-126.8365C474.624,-125.2561 488.6591,-123.6444 501.9959,-122.1129"/>
<polygon fill="#191970" stroke="#191970" points="460.4379,-123.362 450.9025,-127.9801 461.2365,-130.3163 460.4379,-123.362"/>
</g>
<!-- Node7 -->
<g id="node8" class="node">
<title>Node7</title>
<g id="a_node8"><a xlink:href="class_ogre_1_1v1_1_1_g_l_e_s2_default_hardware_index_buffer.html" target="_top" xlink:title="Specialisation of HardwareIndexBuffer for emulation. ">
<polygon fill="none" stroke="#000000" points="488,-49.5 488,-79.5 666,-79.5 666,-49.5 488,-49.5"/>
<text text-anchor="start" x="496" y="-67.5" font-family="Helvetica,sans-Serif" font-size="10.00" fill="#000000">Ogre::v1::GLES2DefaultHardware</text>
<text text-anchor="middle" x="577" y="-56.5" font-family="Helvetica,sans-Serif" font-size="10.00" fill="#000000">IndexBuffer</text>
</a>
</g>
</g>
<!-- Node0&#45;&gt;Node7 -->
<g id="edge7" class="edge">
<title>Node0&#45;&gt;Node7</title>
<path fill="none" stroke="#191970" d="M398.6705,-123.7421C422.6828,-113.2733 457.0798,-98.9369 488,-88.5 497.2493,-85.378 507.144,-82.3811 516.8513,-79.627"/>
<polygon fill="#191970" stroke="#191970" points="397.1194,-120.6006 389.373,-127.8286 399.9361,-127.0089 397.1194,-120.6006"/>
</g>
<!-- Node8 -->
<g id="node9" class="node">
<title>Node8</title>
<g id="a_node9"><a xlink:href="class_ogre_1_1v1_1_1_metal_hardware_index_buffer.html" target="_top" xlink:title="Specialisation of HardwareIndexBuffer for Metal. ">
<polygon fill="none" stroke="#000000" points="494,-.5 494,-30.5 660,-30.5 660,-.5 494,-.5"/>
<text text-anchor="start" x="502" y="-18.5" font-family="Helvetica,sans-Serif" font-size="10.00" fill="#000000">Ogre::v1::MetalHardwareIndex</text>
<text text-anchor="middle" x="577" y="-7.5" font-family="Helvetica,sans-Serif" font-size="10.00" fill="#000000">Buffer</text>
</a>
</g>
</g>
<!-- Node0&#45;&gt;Node8 -->
<g id="edge8" class="edge">
<title>Node0&#45;&gt;Node8</title>
<path fill="none" stroke="#191970" d="M384.0224,-120.5657C405.6256,-98.7053 446.2253,-60.9366 488,-39.5 494.6919,-36.0661 501.9266,-33.0841 509.2791,-30.5038"/>
<polygon fill="#191970" stroke="#191970" points="381.4133,-118.2284 376.9558,-127.84 386.4342,-123.106 381.4133,-118.2284"/>
</g>
<!-- Node1 -->
<g id="node2" class="node">
<title>Node1</title>
<g id="a_node2"><a xlink:href="class_ogre_1_1v1_1_1_hardware_buffer.html" target="_top" xlink:title="Abstract class defining common features of hardware buffers. ">
<polygon fill="none" stroke="#000000" points="107,-128 107,-147 248,-147 248,-128 107,-128"/>
<text text-anchor="middle" x="177.5" y="-135" font-family="Helvetica,sans-Serif" font-size="10.00" fill="#000000">Ogre::v1::HardwareBuffer</text>
</a>
</g>
</g>
<!-- Node1&#45;&gt;Node0 -->
<g id="edge1" class="edge">
<title>Node1&#45;&gt;Node0</title>
<path fill="none" stroke="#191970" d="M258.3787,-137.5C266.8304,-137.5 275.4367,-137.5 283.923,-137.5"/>
<polygon fill="#191970" stroke="#191970" points="258.1645,-134.0001 248.1645,-137.5 258.1644,-141.0001 258.1645,-134.0001"/>
</g>
<!-- Node2 -->
<g id="node3" class="node">
<title>Node2</title>
<g id="a_node3"><a xlink:href="class_ogre_1_1_allocated_object.html" target="_top" xlink:title="Superclass for all objects that wish to use custom memory allocators when their new / delete operator...">
<polygon fill="none" stroke="#000000" points="0,-128 0,-147 71,-147 71,-128 0,-128"/>
<text text-anchor="middle" x="35.5" y="-135" font-family="Helvetica,sans-Serif" font-size="10.00" fill="#000000">BufferAlloc</text>
</a>
</g>
</g>
<!-- Node2&#45;&gt;Node1 -->
<g id="edge2" class="edge">
<title>Node2&#45;&gt;Node1</title>
<path fill="none" stroke="#191970" d="M81.3402,-137.5C89.4858,-137.5 98.1387,-137.5 106.786,-137.5"/>
<polygon fill="#191970" stroke="#191970" points="81.3326,-134.0001 71.3326,-137.5 81.3326,-141.0001 81.3326,-134.0001"/>
</g>
</g>
</svg>
