<?xml version="1.0" encoding="UTF-8" standalone="no"?>
<!DOCTYPE svg PUBLIC "-//W3C//DTD SVG 1.1//EN"
 "http://www.w3.org/Graphics/SVG/1.1/DTD/svg11.dtd">
<!-- Generated by graphviz version 2.40.1 (20161225.0304)
 -->
<!-- Title: Ogre::IntersectionSceneQuery Pages: 1 -->
<svg width="274pt" height="218pt"
 viewBox="0.00 0.00 273.50 218.00" xmlns="http://www.w3.org/2000/svg" xmlns:xlink="http://www.w3.org/1999/xlink">
<g id="graph0" class="graph" transform="scale(1 1) rotate(0) translate(4 214)">
<title>Ogre::IntersectionSceneQuery</title>
<!-- Node0 -->
<g id="node1" class="node">
<title>Node0</title>
<polygon fill="#bfbfbf" stroke="#000000" points="45.5,-67.5 45.5,-86.5 194.5,-86.5 194.5,-67.5 45.5,-67.5"/>
<text text-anchor="middle" x="120" y="-74.5" font-family="Helvetica,sans-Serif" font-size="10.00" fill="#000000">Ogre::IntersectionSceneQuery</text>
</g>
<!-- Node4 -->
<g id="node5" class="node">
<title>Node4</title>
<g id="a_node5"><a xlink:href="class_ogre_1_1_default_intersection_scene_query.html" target="_top" xlink:title="Default implementation of IntersectionSceneQuery. ">
<polygon fill="none" stroke="#000000" points="57,-.5 57,-30.5 183,-30.5 183,-.5 57,-.5"/>
<text text-anchor="start" x="65" y="-18.5" font-family="Helvetica,sans-Serif" font-size="10.00" fill="#000000">Ogre::DefaultIntersection</text>
<text text-anchor="middle" x="120" y="-7.5" font-family="Helvetica,sans-Serif" font-size="10.00" fill="#000000">SceneQuery</text>
</a>
</g>
</g>
<!-- Node0&#45;&gt;Node4 -->
<g id="edge4" class="edge">
<title>Node0&#45;&gt;Node4</title>
<path fill="none" stroke="#191970" d="M120,-57.3693C120,-48.681 120,-38.6241 120,-30.5446"/>
<polygon fill="#191970" stroke="#191970" points="116.5001,-57.3906 120,-67.3906 123.5001,-57.3907 116.5001,-57.3906"/>
</g>
<!-- Node1 -->
<g id="node2" class="node">
<title>Node1</title>
<g id="a_node2"><a xlink:href="class_ogre_1_1_scene_query.html" target="_top" xlink:title="A class for performing queries on a scene. ">
<polygon fill="none" stroke="#000000" points="0,-129 0,-148 98,-148 98,-129 0,-129"/>
<text text-anchor="middle" x="49" y="-136" font-family="Helvetica,sans-Serif" font-size="10.00" fill="#000000">Ogre::SceneQuery</text>
</a>
</g>
</g>
<!-- Node1&#45;&gt;Node0 -->
<g id="edge1" class="edge">
<title>Node1&#45;&gt;Node0</title>
<path fill="none" stroke="#191970" d="M67.9932,-122.0482C81.0022,-110.7798 97.8157,-96.216 108.7498,-86.7449"/>
<polygon fill="#191970" stroke="#191970" points="65.3609,-119.6978 60.0938,-128.8906 69.944,-124.9888 65.3609,-119.6978"/>
</g>
<!-- Node2 -->
<g id="node3" class="node">
<title>Node2</title>
<g id="a_node3"><a xlink:href="class_ogre_1_1_allocated_object.html" target="_top" xlink:title="Superclass for all objects that wish to use custom memory allocators when their new / delete operator...">
<polygon fill="none" stroke="#000000" points="7.5,-190.5 7.5,-209.5 90.5,-209.5 90.5,-190.5 7.5,-190.5"/>
<text text-anchor="middle" x="49" y="-197.5" font-family="Helvetica,sans-Serif" font-size="10.00" fill="#000000">SceneMgtAlloc</text>
</a>
</g>
</g>
<!-- Node2&#45;&gt;Node1 -->
<g id="edge2" class="edge">
<title>Node2&#45;&gt;Node1</title>
<path fill="none" stroke="#191970" d="M49,-180.2462C49,-169.5519 49,-156.814 49,-148.2449"/>
<polygon fill="#191970" stroke="#191970" points="45.5001,-180.3906 49,-190.3906 52.5001,-180.3907 45.5001,-180.3906"/>
</g>
<!-- Node3 -->
<g id="node4" class="node">
<title>Node3</title>
<g id="a_node4"><a xlink:href="class_ogre_1_1_intersection_scene_query_listener.html" target="_top" xlink:title="Alternative listener class for dealing with IntersectionSceneQuery. ">
<polygon fill="none" stroke="#000000" points="116.5,-123.5 116.5,-153.5 265.5,-153.5 265.5,-123.5 116.5,-123.5"/>
<text text-anchor="start" x="124.5" y="-141.5" font-family="Helvetica,sans-Serif" font-size="10.00" fill="#000000">Ogre::IntersectionSceneQuery</text>
<text text-anchor="middle" x="191" y="-130.5" font-family="Helvetica,sans-Serif" font-size="10.00" fill="#000000">Listener</text>
</a>
</g>
</g>
<!-- Node3&#45;&gt;Node0 -->
<g id="edge3" class="edge">
<title>Node3&#45;&gt;Node0</title>
<path fill="none" stroke="#191970" d="M165.6587,-116.5494C153.9308,-106.3907 140.5876,-94.8329 131.368,-86.8469"/>
<polygon fill="#191970" stroke="#191970" points="163.5992,-119.396 173.4494,-123.2977 168.1823,-114.1049 163.5992,-119.396"/>
</g>
</g>
</svg>
