<?xml version="1.0" encoding="UTF-8" standalone="no"?>
<!DOCTYPE svg PUBLIC "-//W3C//DTD SVG 1.1//EN"
 "http://www.w3.org/Graphics/SVG/1.1/DTD/svg11.dtd">
<!-- Generated by graphviz version 2.40.1 (20161225.0304)
 -->
<!-- Title: Ogre::TextureDefinitionBase Pages: 1 -->
<svg width="363pt" height="196pt"
 viewBox="0.00 0.00 363.00 196.00" xmlns="http://www.w3.org/2000/svg" xmlns:xlink="http://www.w3.org/1999/xlink">
<g id="graph0" class="graph" transform="scale(1 1) rotate(0) translate(4 192)">
<title>Ogre::TextureDefinitionBase</title>
<!-- Node0 -->
<g id="node1" class="node">
<title>Node0</title>
<polygon fill="#bfbfbf" stroke="#000000" points="102,-112.5 102,-131.5 257,-131.5 257,-112.5 102,-112.5"/>
<text text-anchor="middle" x="179.5" y="-119.5" font-family="Helvetica,sans-Serif" font-size="10.00" fill="#000000">Ogre::TextureDefinitionBase</text>
</g>
<!-- Node2 -->
<g id="node3" class="node">
<title>Node2</title>
<g id="a_node3"><a xlink:href="class_ogre_1_1_compositor_node_def.html" target="_top" xlink:title="Compositor nodes are the core subject of compositing. ">
<polygon fill="none" stroke="#000000" points="19,-56.5 19,-75.5 164,-75.5 164,-56.5 19,-56.5"/>
<text text-anchor="middle" x="91.5" y="-63.5" font-family="Helvetica,sans-Serif" font-size="10.00" fill="#000000">Ogre::CompositorNodeDef</text>
</a>
</g>
</g>
<!-- Node0&#45;&gt;Node2 -->
<g id="edge2" class="edge">
<title>Node0&#45;&gt;Node2</title>
<path fill="none" stroke="#191970" d="M155.5655,-106.769C139.9717,-96.8456 120.099,-84.1994 106.6528,-75.6427"/>
<polygon fill="#191970" stroke="#191970" points="153.8559,-109.8296 164.1716,-112.2455 157.614,-103.9239 153.8559,-109.8296"/>
</g>
<!-- Node4 -->
<g id="node5" class="node">
<title>Node4</title>
<g id="a_node5"><a xlink:href="class_ogre_1_1_compositor_workspace_def.html" target="_top" xlink:title="CompositorWorkspace. ">
<polygon fill="none" stroke="#000000" points="182,-56.5 182,-75.5 355,-75.5 355,-56.5 182,-56.5"/>
<text text-anchor="middle" x="268.5" y="-63.5" font-family="Helvetica,sans-Serif" font-size="10.00" fill="#000000">Ogre::CompositorWorkspaceDef</text>
</a>
</g>
</g>
<!-- Node0&#45;&gt;Node4 -->
<g id="edge4" class="edge">
<title>Node0&#45;&gt;Node4</title>
<path fill="none" stroke="#191970" d="M203.7064,-106.769C219.4775,-96.8456 239.576,-84.1994 253.175,-75.6427"/>
<polygon fill="#191970" stroke="#191970" points="201.6026,-103.9575 195.0026,-112.2455 205.3305,-109.8823 201.6026,-103.9575"/>
</g>
<!-- Node1 -->
<g id="node2" class="node">
<title>Node1</title>
<g id="a_node2"><a xlink:href="class_ogre_1_1_allocated_object.html" target="_top" xlink:title="Superclass for all objects that wish to use custom memory allocators when their new / delete operator...">
<polygon fill="none" stroke="#000000" points="122,-168.5 122,-187.5 237,-187.5 237,-168.5 122,-168.5"/>
<text text-anchor="middle" x="179.5" y="-175.5" font-family="Helvetica,sans-Serif" font-size="10.00" fill="#000000">CompositorInstAlloc</text>
</a>
</g>
</g>
<!-- Node1&#45;&gt;Node0 -->
<g id="edge1" class="edge">
<title>Node1&#45;&gt;Node0</title>
<path fill="none" stroke="#191970" d="M179.5,-158.1575C179.5,-149.155 179.5,-138.9199 179.5,-131.6427"/>
<polygon fill="#191970" stroke="#191970" points="176.0001,-158.2455 179.5,-168.2455 183.0001,-158.2456 176.0001,-158.2455"/>
</g>
<!-- Node3 -->
<g id="node4" class="node">
<title>Node3</title>
<g id="a_node4"><a xlink:href="class_ogre_1_1_compositor_shadow_node_def.html" target="_top" xlink:title="Shadow Nodes are special nodes (not to be confused with. ">
<polygon fill="none" stroke="#000000" points="0,-.5 0,-19.5 183,-19.5 183,-.5 0,-.5"/>
<text text-anchor="middle" x="91.5" y="-7.5" font-family="Helvetica,sans-Serif" font-size="10.00" fill="#000000">Ogre::CompositorShadowNodeDef</text>
</a>
</g>
</g>
<!-- Node2&#45;&gt;Node3 -->
<g id="edge3" class="edge">
<title>Node2&#45;&gt;Node3</title>
<path fill="none" stroke="#191970" d="M91.5,-46.1575C91.5,-37.155 91.5,-26.9199 91.5,-19.6427"/>
<polygon fill="#191970" stroke="#191970" points="88.0001,-46.2455 91.5,-56.2455 95.0001,-46.2456 88.0001,-46.2455"/>
</g>
</g>
</svg>
