<?xml version="1.0" encoding="UTF-8" standalone="no"?>
<!DOCTYPE svg PUBLIC "-//W3C//DTD SVG 1.1//EN"
 "http://www.w3.org/Graphics/SVG/1.1/DTD/svg11.dtd">
<!-- Generated by graphviz version 2.40.1 (20161225.0304)
 -->
<!-- Title: Ogre::v1::GLES2DefaultHardwareBufferManager Pages: 1 -->
<svg width="290pt" height="229pt"
 viewBox="0.00 0.00 289.50 229.00" xmlns="http://www.w3.org/2000/svg" xmlns:xlink="http://www.w3.org/1999/xlink">
<g id="graph0" class="graph" transform="scale(1 1) rotate(0) translate(4 225)">
<title>Ogre::v1::GLES2DefaultHardwareBufferManager</title>
<!-- Node0 -->
<g id="node1" class="node">
<title>Node0</title>
<polygon fill="#bfbfbf" stroke="#000000" points="56.5,-.5 56.5,-30.5 221.5,-30.5 221.5,-.5 56.5,-.5"/>
<text text-anchor="start" x="64.5" y="-18.5" font-family="Helvetica,sans-Serif" font-size="10.00" fill="#000000">Ogre::v1::GLES2DefaultHardware</text>
<text text-anchor="middle" x="139" y="-7.5" font-family="Helvetica,sans-Serif" font-size="10.00" fill="#000000">BufferManager</text>
</g>
<!-- Node1 -->
<g id="node2" class="node">
<title>Node1</title>
<g id="a_node2"><a xlink:href="class_ogre_1_1v1_1_1_hardware_buffer_manager.html" target="_top" xlink:title="Singleton wrapper for hardware buffer manager. ">
<polygon fill="none" stroke="#000000" points="75,-67.5 75,-97.5 203,-97.5 203,-67.5 75,-67.5"/>
<text text-anchor="start" x="83" y="-85.5" font-family="Helvetica,sans-Serif" font-size="10.00" fill="#000000">Ogre::v1::HardwareBuffer</text>
<text text-anchor="middle" x="139" y="-74.5" font-family="Helvetica,sans-Serif" font-size="10.00" fill="#000000">Manager</text>
</a>
</g>
</g>
<!-- Node1&#45;&gt;Node0 -->
<g id="edge1" class="edge">
<title>Node1&#45;&gt;Node0</title>
<path fill="none" stroke="#191970" d="M139,-57.0249C139,-48.128 139,-38.4287 139,-30.6432"/>
<polygon fill="#191970" stroke="#191970" points="135.5001,-57.2966 139,-67.2967 142.5001,-57.2967 135.5001,-57.2966"/>
</g>
<!-- Node2 -->
<g id="node3" class="node">
<title>Node2</title>
<g id="a_node3"><a xlink:href="class_ogre_1_1v1_1_1_hardware_buffer_manager_base.html" target="_top" xlink:title="Base definition of a hardware buffer manager. ">
<polygon fill="none" stroke="#000000" points="0,-134.5 0,-164.5 128,-164.5 128,-134.5 0,-134.5"/>
<text text-anchor="start" x="8" y="-152.5" font-family="Helvetica,sans-Serif" font-size="10.00" fill="#000000">Ogre::v1::HardwareBuffer</text>
<text text-anchor="middle" x="64" y="-141.5" font-family="Helvetica,sans-Serif" font-size="10.00" fill="#000000">ManagerBase</text>
</a>
</g>
</g>
<!-- Node2&#45;&gt;Node1 -->
<g id="edge2" class="edge">
<title>Node2&#45;&gt;Node1</title>
<path fill="none" stroke="#191970" d="M88.6308,-127.4965C99.5754,-117.7193 112.1843,-106.4554 122.0487,-97.6432"/>
<polygon fill="#191970" stroke="#191970" points="86.1445,-125.0243 81.0187,-134.2967 90.8081,-130.2447 86.1445,-125.0243"/>
</g>
<!-- Node3 -->
<g id="node4" class="node">
<title>Node3</title>
<g id="a_node4"><a xlink:href="class_ogre_1_1_allocated_object.html" target="_top" xlink:title="Superclass for all objects that wish to use custom memory allocators when their new / delete operator...">
<polygon fill="none" stroke="#000000" points="31.5,-201.5 31.5,-220.5 96.5,-220.5 96.5,-201.5 31.5,-201.5"/>
<text text-anchor="middle" x="64" y="-208.5" font-family="Helvetica,sans-Serif" font-size="10.00" fill="#000000">BufferAlloc</text>
</a>
</g>
</g>
<!-- Node3&#45;&gt;Node2 -->
<g id="edge3" class="edge">
<title>Node3&#45;&gt;Node2</title>
<path fill="none" stroke="#191970" d="M64,-191.3693C64,-182.681 64,-172.6241 64,-164.5446"/>
<polygon fill="#191970" stroke="#191970" points="60.5001,-191.3906 64,-201.3906 67.5001,-191.3907 60.5001,-191.3906"/>
</g>
<!-- Node4 -->
<g id="node5" class="node">
<title>Node4</title>
<g id="a_node5"><a xlink:href="class_ogre_1_1_singleton.html" target="_top" xlink:title="Ogre::Singleton\&lt; Hardware\lBufferManager \&gt;">
<polygon fill="none" stroke="#000000" points="146.5,-134.5 146.5,-164.5 281.5,-164.5 281.5,-134.5 146.5,-134.5"/>
<text text-anchor="start" x="154.5" y="-152.5" font-family="Helvetica,sans-Serif" font-size="10.00" fill="#000000">Ogre::Singleton&lt; Hardware</text>
<text text-anchor="middle" x="214" y="-141.5" font-family="Helvetica,sans-Serif" font-size="10.00" fill="#000000">BufferManager &gt;</text>
</a>
</g>
</g>
<!-- Node4&#45;&gt;Node1 -->
<g id="edge4" class="edge">
<title>Node4&#45;&gt;Node1</title>
<path fill="none" stroke="#191970" d="M189.3692,-127.4965C178.4246,-117.7193 165.8157,-106.4554 155.9513,-97.6432"/>
<polygon fill="#191970" stroke="#191970" points="187.1919,-130.2447 196.9813,-134.2967 191.8555,-125.0243 187.1919,-130.2447"/>
</g>
</g>
</svg>
