<?xml version="1.0" encoding="UTF-8" standalone="no"?>
<!DOCTYPE svg PUBLIC "-//W3C//DTD SVG 1.1//EN"
 "http://www.w3.org/Graphics/SVG/1.1/DTD/svg11.dtd">
<!-- Generated by graphviz version 2.40.1 (20161225.0304)
 -->
<!-- Title: Ogre::v1::InstanceBatch Pages: 1 -->
<svg width="878pt" height="142pt"
 viewBox="0.00 0.00 878.00 142.00" xmlns="http://www.w3.org/2000/svg" xmlns:xlink="http://www.w3.org/1999/xlink">
<g id="graph0" class="graph" transform="scale(1 1) rotate(0) translate(4 138)">
<title>Ogre::v1::InstanceBatch</title>
<!-- Node0 -->
<g id="node1" class="node">
<title>Node0</title>
<polygon fill="#bfbfbf" stroke="#000000" points="315,-57.5 315,-76.5 448,-76.5 448,-57.5 315,-57.5"/>
<text text-anchor="middle" x="381.5" y="-64.5" font-family="Helvetica,sans-Serif" font-size="10.00" fill="#000000">Ogre::v1::InstanceBatch</text>
</g>
<!-- Node6 -->
<g id="node7" class="node">
<title>Node6</title>
<g id="a_node7"><a xlink:href="class_ogre_1_1v1_1_1_base_instance_batch_v_t_f.html" target="_top" xlink:title="Instancing implementation using vertex texture through Vertex Texture Fetch (VTF) This implementation...">
<polygon fill="none" stroke="#000000" points="484,-95.5 484,-114.5 660,-114.5 660,-95.5 484,-95.5"/>
<text text-anchor="middle" x="572" y="-102.5" font-family="Helvetica,sans-Serif" font-size="10.00" fill="#000000">Ogre::v1::BaseInstanceBatchVTF</text>
</a>
</g>
</g>
<!-- Node0&#45;&gt;Node6 -->
<g id="edge6" class="edge">
<title>Node0&#45;&gt;Node6</title>
<path fill="none" stroke="#191970" d="M439.7003,-78.6095C466.7938,-84.014 498.625,-90.3635 524.2745,-95.4799"/>
<polygon fill="#191970" stroke="#191970" points="440.0627,-75.1129 429.5712,-76.589 438.6933,-81.9777 440.0627,-75.1129"/>
</g>
<!-- Node9 -->
<g id="node10" class="node">
<title>Node9</title>
<g id="a_node10"><a xlink:href="class_ogre_1_1v1_1_1_instance_batch_h_w.html" target="_top" xlink:title="This is technique requires true instancing hardware support. ">
<polygon fill="none" stroke="#000000" points="497,-57.5 497,-76.5 647,-76.5 647,-57.5 497,-57.5"/>
<text text-anchor="middle" x="572" y="-64.5" font-family="Helvetica,sans-Serif" font-size="10.00" fill="#000000">Ogre::v1::InstanceBatchHW</text>
</a>
</g>
</g>
<!-- Node0&#45;&gt;Node9 -->
<g id="edge9" class="edge">
<title>Node0&#45;&gt;Node9</title>
<path fill="none" stroke="#191970" d="M458.2442,-67C471.0048,-67 484.2263,-67 496.9444,-67"/>
<polygon fill="#191970" stroke="#191970" points="458.1277,-63.5001 448.1277,-67 458.1276,-70.5001 458.1277,-63.5001"/>
</g>
<!-- Node10 -->
<g id="node11" class="node">
<title>Node10</title>
<g id="a_node11"><a xlink:href="class_ogre_1_1v1_1_1_instance_batch_shader.html" target="_top" xlink:title="This is the same technique the old &quot;InstancedGeometry&quot; implementation used (with improvements). ">
<polygon fill="none" stroke="#000000" points="488.5,-19.5 488.5,-38.5 655.5,-38.5 655.5,-19.5 488.5,-19.5"/>
<text text-anchor="middle" x="572" y="-26.5" font-family="Helvetica,sans-Serif" font-size="10.00" fill="#000000">Ogre::v1::InstanceBatchShader</text>
</a>
</g>
</g>
<!-- Node0&#45;&gt;Node10 -->
<g id="edge10" class="edge">
<title>Node0&#45;&gt;Node10</title>
<path fill="none" stroke="#191970" d="M439.7003,-55.3905C466.7938,-49.986 498.625,-43.6365 524.2745,-38.5201"/>
<polygon fill="#191970" stroke="#191970" points="438.6933,-52.0223 429.5712,-57.411 440.0627,-58.8871 438.6933,-52.0223"/>
</g>
<!-- Node1 -->
<g id="node2" class="node">
<title>Node1</title>
<g id="a_node2"><a xlink:href="class_ogre_1_1_renderable.html" target="_top" xlink:title="Abstract class defining the interface all renderable objects must implement. ">
<polygon fill="none" stroke="#000000" points="169,-76.5 169,-95.5 270,-95.5 270,-76.5 169,-76.5"/>
<text text-anchor="middle" x="219.5" y="-83.5" font-family="Helvetica,sans-Serif" font-size="10.00" fill="#000000">Ogre::Renderable</text>
</a>
</g>
</g>
<!-- Node1&#45;&gt;Node0 -->
<g id="edge1" class="edge">
<title>Node1&#45;&gt;Node0</title>
<path fill="none" stroke="#191970" d="M280.4384,-78.8529C291.6605,-77.5367 303.431,-76.1562 314.812,-74.8214"/>
<polygon fill="#191970" stroke="#191970" points="279.8375,-75.3993 270.3133,-80.0404 280.653,-82.3516 279.8375,-75.3993"/>
</g>
<!-- Node2 -->
<g id="node3" class="node">
<title>Node2</title>
<g id="a_node3"><a xlink:href="class_ogre_1_1_movable_object.html" target="_top" xlink:title="Abstract class defining a movable object in a scene. ">
<polygon fill="none" stroke="#000000" points="160,-38.5 160,-57.5 279,-57.5 279,-38.5 160,-38.5"/>
<text text-anchor="middle" x="219.5" y="-45.5" font-family="Helvetica,sans-Serif" font-size="10.00" fill="#000000">Ogre::MovableObject</text>
</a>
</g>
</g>
<!-- Node2&#45;&gt;Node0 -->
<g id="edge2" class="edge">
<title>Node2&#45;&gt;Node0</title>
<path fill="none" stroke="#191970" d="M289.4966,-56.2095C297.8904,-57.1939 306.4447,-58.1972 314.7901,-59.176"/>
<polygon fill="#191970" stroke="#191970" points="289.7022,-52.7097 279.3626,-55.0209 288.8867,-59.662 289.7022,-52.7097"/>
</g>
<!-- Node3 -->
<g id="node4" class="node">
<title>Node3</title>
<g id="a_node4"><a xlink:href="class_ogre_1_1_animable_object.html" target="_top" xlink:title="Defines an interface to classes which have one or more AnimableValue instances to expose...">
<polygon fill="none" stroke="#000000" points="0,-76.5 0,-95.5 124,-95.5 124,-76.5 0,-76.5"/>
<text text-anchor="middle" x="62" y="-83.5" font-family="Helvetica,sans-Serif" font-size="10.00" fill="#000000">Ogre::AnimableObject</text>
</a>
</g>
</g>
<!-- Node3&#45;&gt;Node2 -->
<g id="edge3" class="edge">
<title>Node3&#45;&gt;Node2</title>
<path fill="none" stroke="#191970" d="M111.6041,-74.032C133.6753,-68.7069 159.3027,-62.5238 180.0419,-57.5201"/>
<polygon fill="#191970" stroke="#191970" points="110.6441,-70.6631 101.7439,-76.411 112.2859,-77.4679 110.6441,-70.6631"/>
</g>
<!-- Node4 -->
<g id="node5" class="node">
<title>Node4</title>
<g id="a_node5"><a xlink:href="class_ogre_1_1_allocated_object.html" target="_top" xlink:title="Superclass for all objects that wish to use custom memory allocators when their new / delete operator...">
<polygon fill="none" stroke="#000000" points="20.5,-38.5 20.5,-57.5 103.5,-57.5 103.5,-38.5 20.5,-38.5"/>
<text text-anchor="middle" x="62" y="-45.5" font-family="Helvetica,sans-Serif" font-size="10.00" fill="#000000">MovableAlloc</text>
</a>
</g>
</g>
<!-- Node4&#45;&gt;Node2 -->
<g id="edge4" class="edge">
<title>Node4&#45;&gt;Node2</title>
<path fill="none" stroke="#191970" d="M114.1442,-48C128.7407,-48 144.7191,-48 159.7209,-48"/>
<polygon fill="#191970" stroke="#191970" points="113.7936,-44.5001 103.7936,-48 113.7936,-51.5001 113.7936,-44.5001"/>
</g>
<!-- Node5 -->
<g id="node6" class="node">
<title>Node5</title>
<g id="a_node6"><a xlink:href="class_ogre_1_1_id_object.html" target="_top" xlink:title="Ogre::IdObject">
<polygon fill="none" stroke="#000000" points="19,-.5 19,-19.5 105,-19.5 105,-.5 19,-.5"/>
<text text-anchor="middle" x="62" y="-7.5" font-family="Helvetica,sans-Serif" font-size="10.00" fill="#000000">Ogre::IdObject</text>
</a>
</g>
</g>
<!-- Node5&#45;&gt;Node2 -->
<g id="edge5" class="edge">
<title>Node5&#45;&gt;Node2</title>
<path fill="none" stroke="#191970" d="M111.6041,-21.968C133.6753,-27.2931 159.3027,-33.4762 180.0419,-38.4799"/>
<polygon fill="#191970" stroke="#191970" points="112.2859,-18.5321 101.7439,-19.589 110.6441,-25.3369 112.2859,-18.5321"/>
</g>
<!-- Node7 -->
<g id="node8" class="node">
<title>Node7</title>
<g id="a_node8"><a xlink:href="class_ogre_1_1v1_1_1_instance_batch_h_w___v_t_f.html" target="_top" xlink:title="Instancing implementation using vertex texture through Vertex Texture Fetch (VTF) and hardware instan...">
<polygon fill="none" stroke="#000000" points="696,-114.5 696,-133.5 870,-133.5 870,-114.5 696,-114.5"/>
<text text-anchor="middle" x="783" y="-121.5" font-family="Helvetica,sans-Serif" font-size="10.00" fill="#000000">Ogre::v1::InstanceBatchHW_VTF</text>
</a>
</g>
</g>
<!-- Node6&#45;&gt;Node7 -->
<g id="edge7" class="edge">
<title>Node6&#45;&gt;Node7</title>
<path fill="none" stroke="#191970" d="M670.226,-113.845C678.7516,-114.6127 687.3408,-115.3861 695.7695,-116.1451"/>
<polygon fill="#191970" stroke="#191970" points="670.5341,-110.3587 660.2604,-112.9476 669.9062,-117.3305 670.5341,-110.3587"/>
</g>
<!-- Node8 -->
<g id="node9" class="node">
<title>Node8</title>
<g id="a_node9"><a xlink:href="class_ogre_1_1v1_1_1_instance_batch_v_t_f.html" target="_top" xlink:title="Ogre::v1::InstanceBatchVTF">
<polygon fill="none" stroke="#000000" points="707,-76.5 707,-95.5 859,-95.5 859,-76.5 707,-76.5"/>
<text text-anchor="middle" x="783" y="-83.5" font-family="Helvetica,sans-Serif" font-size="10.00" fill="#000000">Ogre::v1::InstanceBatchVTF</text>
</a>
</g>
</g>
<!-- Node6&#45;&gt;Node8 -->
<g id="edge8" class="edge">
<title>Node6&#45;&gt;Node8</title>
<path fill="none" stroke="#191970" d="M670.472,-96.1329C682.681,-95.0335 695.0162,-93.9227 706.8195,-92.8599"/>
<polygon fill="#191970" stroke="#191970" points="669.9062,-92.6695 660.2604,-97.0524 670.5341,-99.6413 669.9062,-92.6695"/>
</g>
</g>
</svg>
