<?xml version="1.0" encoding="UTF-8" standalone="no"?>
<!DOCTYPE svg PUBLIC "-//W3C//DTD SVG 1.1//EN"
 "http://www.w3.org/Graphics/SVG/1.1/DTD/svg11.dtd">
<!-- Generated by graphviz version 2.40.1 (20161225.0304)
 -->
<!-- Title: Ogre::ConstVectorIterator&lt; T &gt; Pages: 1 -->
<svg width="178pt" height="173pt"
 viewBox="0.00 0.00 178.00 173.00" xmlns="http://www.w3.org/2000/svg" xmlns:xlink="http://www.w3.org/1999/xlink">
<g id="graph0" class="graph" transform="scale(1 1) rotate(0) translate(4 169)">
<title>Ogre::ConstVectorIterator&lt; T &gt;</title>
<!-- Node0 -->
<g id="node1" class="node">
<title>Node0</title>
<polygon fill="#bfbfbf" stroke="#000000" points="0,-.5 0,-19.5 170,-19.5 170,-.5 0,-.5"/>
<text text-anchor="middle" x="85" y="-7.5" font-family="Helvetica,sans-Serif" font-size="10.00" fill="#000000">Ogre::ConstVectorIterator&lt; T &gt;</text>
</g>
<!-- Node1 -->
<g id="node2" class="node">
<title>Node1</title>
<g id="a_node2"><a xlink:href="class_ogre_1_1_vector_iterator_wrapper.html" target="_top" xlink:title="Ogre::VectorIteratorWrapper\l\&lt; T, T::const_iterator \&gt;">
<polygon fill="none" stroke="#000000" points="7.5,-56.5 7.5,-86.5 162.5,-86.5 162.5,-56.5 7.5,-56.5"/>
<text text-anchor="start" x="15.5" y="-74.5" font-family="Helvetica,sans-Serif" font-size="10.00" fill="#000000">Ogre::VectorIteratorWrapper</text>
<text text-anchor="middle" x="85" y="-63.5" font-family="Helvetica,sans-Serif" font-size="10.00" fill="#000000">&lt; T, T::const_iterator &gt;</text>
</a>
</g>
</g>
<!-- Node1&#45;&gt;Node0 -->
<g id="edge1" class="edge">
<title>Node1&#45;&gt;Node0</title>
<path fill="none" stroke="#191970" d="M85,-46.2849C85,-36.9858 85,-26.9883 85,-19.8469"/>
<polygon fill="#191970" stroke="#191970" points="81.5001,-46.2977 85,-56.2977 88.5001,-46.2978 81.5001,-46.2977"/>
</g>
<!-- Node2 -->
<g id="node3" class="node">
<title>Node2</title>
<g id="a_node3"><a xlink:href="class_ogre_1_1_iterator_wrapper.html" target="_top" xlink:title="Ogre::IteratorWrapper\l\&lt; T, T::const_iterator,\l T::value_type \&gt;">
<polygon fill="none" stroke="#000000" points="23.5,-123.5 23.5,-164.5 146.5,-164.5 146.5,-123.5 23.5,-123.5"/>
<text text-anchor="start" x="31.5" y="-152.5" font-family="Helvetica,sans-Serif" font-size="10.00" fill="#000000">Ogre::IteratorWrapper</text>
<text text-anchor="start" x="31.5" y="-141.5" font-family="Helvetica,sans-Serif" font-size="10.00" fill="#000000">&lt; T, T::const_iterator,</text>
<text text-anchor="middle" x="85" y="-130.5" font-family="Helvetica,sans-Serif" font-size="10.00" fill="#000000"> T::value_type &gt;</text>
</a>
</g>
</g>
<!-- Node2&#45;&gt;Node1 -->
<g id="edge2" class="edge">
<title>Node2&#45;&gt;Node1</title>
<path fill="none" stroke="#191970" d="M85,-113.3279C85,-104.0871 85,-94.3508 85,-86.5991"/>
<polygon fill="#191970" stroke="#191970" points="81.5001,-113.4183 85,-123.4183 88.5001,-113.4184 81.5001,-113.4183"/>
</g>
</g>
</svg>
