<?xml version="1.0" encoding="UTF-8" standalone="no"?>
<!DOCTYPE svg PUBLIC "-//W3C//DTD SVG 1.1//EN"
 "http://www.w3.org/Graphics/SVG/1.1/DTD/svg11.dtd">
<!-- Generated by graphviz version 2.38.0 (20140413.2041)
 -->
<!-- Title: Ogre::RTShader::ProgramWriterManager Pages: 1 -->
<svg width="272pt" height="106pt"
 viewBox="0.00 0.00 272.00 106.00" xmlns="http://www.w3.org/2000/svg" xmlns:xlink="http://www.w3.org/1999/xlink">
<g id="graph0" class="graph" transform="scale(1 1) rotate(0) translate(4 102)">
<title>Ogre::RTShader::ProgramWriterManager</title>
<!-- Node1 -->
<g id="node1" class="node"><title>Node1</title>
<polygon fill="#bfbfbf" stroke="black" points="56.5,-0.5 56.5,-30.5 213.5,-30.5 213.5,-0.5 56.5,-0.5"/>
<text text-anchor="start" x="64.5" y="-18.5" font-family="Helvetica,sans-Serif" font-size="10.00">Ogre::RTShader::ProgramWriter</text>
<text text-anchor="middle" x="135" y="-7.5" font-family="Helvetica,sans-Serif" font-size="10.00">Manager</text>
</g>
<!-- Node2 -->
<g id="node2" class="node"><title>Node2</title>
<g id="a_node2"><a xlink:href="class_ogre_1_1_singleton.html" target="_top" xlink:title="Ogre::Singleton\&lt; Program\lWriterManager \&gt;">
<polygon fill="none" stroke="black" points="0,-67.5 0,-97.5 130,-97.5 130,-67.5 0,-67.5"/>
<text text-anchor="start" x="8" y="-85.5" font-family="Helvetica,sans-Serif" font-size="10.00">Ogre::Singleton&lt; Program</text>
<text text-anchor="middle" x="65" y="-74.5" font-family="Helvetica,sans-Serif" font-size="10.00">WriterManager &gt;</text>
</a>
</g>
</g>
<!-- Node2&#45;&gt;Node1 -->
<g id="edge1" class="edge"><title>Node2&#45;&gt;Node1</title>
<path fill="none" stroke="midnightblue" d="M87.8184,-60.3115C98.3187,-50.5612 110.49,-39.259 119.841,-30.5765"/>
<polygon fill="midnightblue" stroke="midnightblue" points="85.1353,-58.0266 80.189,-67.396 89.8985,-63.1562 85.1353,-58.0266"/>
</g>
<!-- Node3 -->
<g id="node3" class="node"><title>Node3</title>
<g id="a_node3"><a xlink:href="class_ogre_1_1_allocated_object.html" target="_top" xlink:title="Superclass for all objects that wish to use custom memory allocators when their new / delete operator...">
<polygon fill="none" stroke="black" points="148,-73 148,-92 264,-92 264,-73 148,-73"/>
<text text-anchor="middle" x="206" y="-80" font-family="Helvetica,sans-Serif" font-size="10.00">RTShaderSystemAlloc</text>
</a>
</g>
</g>
<!-- Node3&#45;&gt;Node1 -->
<g id="edge2" class="edge"><title>Node3&#45;&gt;Node1</title>
<path fill="none" stroke="midnightblue" d="M188.991,-65.928C177.249,-55.1788 161.764,-41.0024 150.39,-30.589"/>
<polygon fill="midnightblue" stroke="midnightblue" points="186.685,-68.5628 196.425,-72.7338 191.412,-63.3997 186.685,-68.5628"/>
</g>
</g>
</svg>
