<?xml version="1.0" encoding="UTF-8" standalone="no"?>
<!DOCTYPE svg PUBLIC "-//W3C//DTD SVG 1.1//EN"
 "http://www.w3.org/Graphics/SVG/1.1/DTD/svg11.dtd">
<!-- Generated by graphviz version 2.40.1 (20161225.0304)
 -->
<!-- Title: Ogre::v1::GLES2HardwarePixelBuffer Pages: 1 -->
<svg width="326pt" height="263pt"
 viewBox="0.00 0.00 326.00 263.00" xmlns="http://www.w3.org/2000/svg" xmlns:xlink="http://www.w3.org/1999/xlink">
<g id="graph0" class="graph" transform="scale(1 1) rotate(0) translate(4 259)">
<title>Ogre::v1::GLES2HardwarePixelBuffer</title>
<!-- Node0 -->
<g id="node1" class="node">
<title>Node0</title>
<polygon fill="#bfbfbf" stroke="#000000" points="81,-56.5 81,-86.5 236,-86.5 236,-56.5 81,-56.5"/>
<text text-anchor="start" x="89" y="-74.5" font-family="Helvetica,sans-Serif" font-size="10.00" fill="#000000">Ogre::v1::GLES2HardwarePixel</text>
<text text-anchor="middle" x="158.5" y="-63.5" font-family="Helvetica,sans-Serif" font-size="10.00" fill="#000000">Buffer</text>
</g>
<!-- Node4 -->
<g id="node5" class="node">
<title>Node4</title>
<g id="a_node5"><a xlink:href="class_ogre_1_1v1_1_1_g_l_e_s2_render_buffer.html" target="_top" xlink:title="Renderbuffer surface. ">
<polygon fill="none" stroke="#000000" points="0,-.5 0,-19.5 149,-19.5 149,-.5 0,-.5"/>
<text text-anchor="middle" x="74.5" y="-7.5" font-family="Helvetica,sans-Serif" font-size="10.00" fill="#000000">Ogre::v1::GLES2RenderBuffer</text>
</a>
</g>
</g>
<!-- Node0&#45;&gt;Node4 -->
<g id="edge4" class="edge">
<title>Node0&#45;&gt;Node4</title>
<path fill="none" stroke="#191970" d="M129.317,-50.1339C115.2524,-39.8366 99.0669,-27.9865 87.9495,-19.8469"/>
<polygon fill="#191970" stroke="#191970" points="127.5997,-53.2143 137.7359,-56.2977 131.7349,-47.5663 127.5997,-53.2143"/>
</g>
<!-- Node5 -->
<g id="node6" class="node">
<title>Node5</title>
<g id="a_node6"><a xlink:href="class_ogre_1_1v1_1_1_g_l_e_s2_texture_buffer.html" target="_top" xlink:title="Texture surface. ">
<polygon fill="none" stroke="#000000" points="167,-.5 167,-19.5 318,-19.5 318,-.5 167,-.5"/>
<text text-anchor="middle" x="242.5" y="-7.5" font-family="Helvetica,sans-Serif" font-size="10.00" fill="#000000">Ogre::v1::GLES2TextureBuffer</text>
</a>
</g>
</g>
<!-- Node0&#45;&gt;Node5 -->
<g id="edge5" class="edge">
<title>Node0&#45;&gt;Node5</title>
<path fill="none" stroke="#191970" d="M187.683,-50.1339C201.7476,-39.8366 217.9331,-27.9865 229.0505,-19.8469"/>
<polygon fill="#191970" stroke="#191970" points="185.2651,-47.5663 179.2641,-56.2977 189.4003,-53.2143 185.2651,-47.5663"/>
</g>
<!-- Node1 -->
<g id="node2" class="node">
<title>Node1</title>
<g id="a_node2"><a xlink:href="class_ogre_1_1v1_1_1_hardware_pixel_buffer.html" target="_top" xlink:title="Specialisation of HardwareBuffer for a pixel buffer. ">
<polygon fill="none" stroke="#000000" points="83.5,-123.5 83.5,-142.5 233.5,-142.5 233.5,-123.5 83.5,-123.5"/>
<text text-anchor="middle" x="158.5" y="-130.5" font-family="Helvetica,sans-Serif" font-size="10.00" fill="#000000">Ogre::v1::HardwarePixelBuffer</text>
</a>
</g>
</g>
<!-- Node1&#45;&gt;Node0 -->
<g id="edge1" class="edge">
<title>Node1&#45;&gt;Node0</title>
<path fill="none" stroke="#191970" d="M158.5,-113.3693C158.5,-104.681 158.5,-94.6241 158.5,-86.5446"/>
<polygon fill="#191970" stroke="#191970" points="155.0001,-113.3906 158.5,-123.3906 162.0001,-113.3907 155.0001,-113.3906"/>
</g>
<!-- Node2 -->
<g id="node3" class="node">
<title>Node2</title>
<g id="a_node3"><a xlink:href="class_ogre_1_1v1_1_1_hardware_buffer.html" target="_top" xlink:title="Abstract class defining common features of hardware buffers. ">
<polygon fill="none" stroke="#000000" points="94.5,-179.5 94.5,-198.5 222.5,-198.5 222.5,-179.5 94.5,-179.5"/>
<text text-anchor="middle" x="158.5" y="-186.5" font-family="Helvetica,sans-Serif" font-size="10.00" fill="#000000">Ogre::v1::HardwareBuffer</text>
</a>
</g>
</g>
<!-- Node2&#45;&gt;Node1 -->
<g id="edge2" class="edge">
<title>Node2&#45;&gt;Node1</title>
<path fill="none" stroke="#191970" d="M158.5,-169.1575C158.5,-160.155 158.5,-149.9199 158.5,-142.6427"/>
<polygon fill="#191970" stroke="#191970" points="155.0001,-169.2455 158.5,-179.2455 162.0001,-169.2456 155.0001,-169.2455"/>
</g>
<!-- Node3 -->
<g id="node4" class="node">
<title>Node3</title>
<g id="a_node4"><a xlink:href="class_ogre_1_1_allocated_object.html" target="_top" xlink:title="Superclass for all objects that wish to use custom memory allocators when their new / delete operator...">
<polygon fill="none" stroke="#000000" points="126,-235.5 126,-254.5 191,-254.5 191,-235.5 126,-235.5"/>
<text text-anchor="middle" x="158.5" y="-242.5" font-family="Helvetica,sans-Serif" font-size="10.00" fill="#000000">BufferAlloc</text>
</a>
</g>
</g>
<!-- Node3&#45;&gt;Node2 -->
<g id="edge3" class="edge">
<title>Node3&#45;&gt;Node2</title>
<path fill="none" stroke="#191970" d="M158.5,-225.1575C158.5,-216.155 158.5,-205.9199 158.5,-198.6427"/>
<polygon fill="#191970" stroke="#191970" points="155.0001,-225.2455 158.5,-235.2455 162.0001,-225.2456 155.0001,-225.2455"/>
</g>
</g>
</svg>
