<?xml version="1.0" encoding="UTF-8" standalone="no"?>
<!DOCTYPE svg PUBLIC "-//W3C//DTD SVG 1.1//EN"
 "http://www.w3.org/Graphics/SVG/1.1/DTD/svg11.dtd">
<!-- Generated by graphviz version 2.40.1 (20161225.0304)
 -->
<!-- Title: Ogre::DistanceLodSphereStrategy Pages: 1 -->
<svg width="344pt" height="207pt"
 viewBox="0.00 0.00 343.50 207.00" xmlns="http://www.w3.org/2000/svg" xmlns:xlink="http://www.w3.org/1999/xlink">
<g id="graph0" class="graph" transform="scale(1 1) rotate(0) translate(4 203)">
<title>Ogre::DistanceLodSphereStrategy</title>
<!-- Node0 -->
<g id="node1" class="node">
<title>Node0</title>
<polygon fill="#bfbfbf" stroke="#000000" points="83,-.5 83,-19.5 264,-19.5 264,-.5 83,-.5"/>
<text text-anchor="middle" x="173.5" y="-7.5" font-family="Helvetica,sans-Serif" font-size="10.00" fill="#000000">Ogre::DistanceLodSphereStrategy</text>
</g>
<!-- Node1 -->
<g id="node2" class="node">
<title>Node1</title>
<g id="a_node2"><a xlink:href="class_ogre_1_1_distance_lod_strategy_base.html" target="_top" xlink:title="Level of detail strategy based on distance from camera. ">
<polygon fill="none" stroke="#000000" points="0,-62 0,-81 171,-81 171,-62 0,-62"/>
<text text-anchor="middle" x="85.5" y="-69" font-family="Helvetica,sans-Serif" font-size="10.00" fill="#000000">Ogre::DistanceLodStrategyBase</text>
</a>
</g>
</g>
<!-- Node1&#45;&gt;Node0 -->
<g id="edge1" class="edge">
<title>Node1&#45;&gt;Node0</title>
<path fill="none" stroke="#191970" d="M107.7239,-55.9685C124.1288,-44.5037 145.9339,-29.265 159.8466,-19.5419"/>
<polygon fill="#191970" stroke="#191970" points="105.4418,-53.2934 99.25,-61.8906 109.4517,-59.0311 105.4418,-53.2934"/>
</g>
<!-- Node2 -->
<g id="node3" class="node">
<title>Node2</title>
<g id="a_node3"><a xlink:href="class_ogre_1_1_lod_strategy.html" target="_top" xlink:title="Strategy for determining level of detail. ">
<polygon fill="none" stroke="#000000" points="33.5,-123.5 33.5,-142.5 137.5,-142.5 137.5,-123.5 33.5,-123.5"/>
<text text-anchor="middle" x="85.5" y="-130.5" font-family="Helvetica,sans-Serif" font-size="10.00" fill="#000000">Ogre::LodStrategy</text>
</a>
</g>
</g>
<!-- Node2&#45;&gt;Node1 -->
<g id="edge2" class="edge">
<title>Node2&#45;&gt;Node1</title>
<path fill="none" stroke="#191970" d="M85.5,-113.2462C85.5,-102.5519 85.5,-89.814 85.5,-81.2449"/>
<polygon fill="#191970" stroke="#191970" points="82.0001,-113.3906 85.5,-123.3906 89.0001,-113.3907 82.0001,-113.3906"/>
</g>
<!-- Node3 -->
<g id="node4" class="node">
<title>Node3</title>
<g id="a_node4"><a xlink:href="class_ogre_1_1_allocated_object.html" target="_top" xlink:title="Superclass for all objects that wish to use custom memory allocators when their new / delete operator...">
<polygon fill="none" stroke="#000000" points="56.5,-179.5 56.5,-198.5 114.5,-198.5 114.5,-179.5 56.5,-179.5"/>
<text text-anchor="middle" x="85.5" y="-186.5" font-family="Helvetica,sans-Serif" font-size="10.00" fill="#000000">LodAlloc</text>
</a>
</g>
</g>
<!-- Node3&#45;&gt;Node2 -->
<g id="edge3" class="edge">
<title>Node3&#45;&gt;Node2</title>
<path fill="none" stroke="#191970" d="M85.5,-169.1575C85.5,-160.155 85.5,-149.9199 85.5,-142.6427"/>
<polygon fill="#191970" stroke="#191970" points="82.0001,-169.2455 85.5,-179.2455 89.0001,-169.2456 82.0001,-169.2455"/>
</g>
<!-- Node4 -->
<g id="node5" class="node">
<title>Node4</title>
<g id="a_node5"><a xlink:href="class_ogre_1_1_singleton.html" target="_top" xlink:title="Ogre::Singleton\&lt; Distance\lLodSphereStrategy \&gt;">
<polygon fill="none" stroke="#000000" points="189.5,-56.5 189.5,-86.5 335.5,-86.5 335.5,-56.5 189.5,-56.5"/>
<text text-anchor="start" x="197.5" y="-74.5" font-family="Helvetica,sans-Serif" font-size="10.00" fill="#000000">Ogre::Singleton&lt; Distance</text>
<text text-anchor="middle" x="262.5" y="-63.5" font-family="Helvetica,sans-Serif" font-size="10.00" fill="#000000">LodSphereStrategy &gt;</text>
</a>
</g>
</g>
<!-- Node4&#45;&gt;Node0 -->
<g id="edge4" class="edge">
<title>Node4&#45;&gt;Node0</title>
<path fill="none" stroke="#191970" d="M231.9459,-50.3868C216.8474,-39.9535 199.3662,-27.8738 187.4842,-19.6633"/>
<polygon fill="#191970" stroke="#191970" points="230.2833,-53.4922 240.5,-56.2977 234.2628,-47.7334 230.2833,-53.4922"/>
</g>
</g>
</svg>
