<?xml version="1.0" encoding="UTF-8" standalone="no"?>
<!DOCTYPE svg PUBLIC "-//W3C//DTD SVG 1.1//EN"
 "http://www.w3.org/Graphics/SVG/1.1/DTD/svg11.dtd">
<!-- Generated by graphviz version 2.40.1 (20161225.0304)
 -->
<!-- Title: Ogre::RTShader::ProgramWriterManager Pages: 1 -->
<svg width="294pt" height="106pt"
 viewBox="0.00 0.00 294.00 106.00" xmlns="http://www.w3.org/2000/svg" xmlns:xlink="http://www.w3.org/1999/xlink">
<g id="graph0" class="graph" transform="scale(1 1) rotate(0) translate(4 102)">
<title>Ogre::RTShader::ProgramWriterManager</title>
<!-- Node0 -->
<g id="node1" class="node">
<title>Node0</title>
<polygon fill="#bfbfbf" stroke="#000000" points="63,-.5 63,-30.5 233,-30.5 233,-.5 63,-.5"/>
<text text-anchor="start" x="71" y="-18.5" font-family="Helvetica,sans-Serif" font-size="10.00" fill="#000000">Ogre::RTShader::ProgramWriter</text>
<text text-anchor="middle" x="148" y="-7.5" font-family="Helvetica,sans-Serif" font-size="10.00" fill="#000000">Manager</text>
</g>
<!-- Node1 -->
<g id="node2" class="node">
<title>Node1</title>
<g id="a_node2"><a xlink:href="class_ogre_1_1_singleton.html" target="_top" xlink:title="Ogre::Singleton\&lt; Program\lWriterManager \&gt;">
<polygon fill="none" stroke="#000000" points="0,-67.5 0,-97.5 144,-97.5 144,-67.5 0,-67.5"/>
<text text-anchor="start" x="8" y="-85.5" font-family="Helvetica,sans-Serif" font-size="10.00" fill="#000000">Ogre::Singleton&lt; Program</text>
<text text-anchor="middle" x="72" y="-74.5" font-family="Helvetica,sans-Serif" font-size="10.00" fill="#000000">WriterManager &gt;</text>
</a>
</g>
</g>
<!-- Node1&#45;&gt;Node0 -->
<g id="edge1" class="edge">
<title>Node1&#45;&gt;Node0</title>
<path fill="none" stroke="#191970" d="M96.9592,-60.4965C108.0497,-50.7193 120.8267,-39.4554 130.8227,-30.6432"/>
<polygon fill="#191970" stroke="#191970" points="94.4323,-58.0582 89.2456,-67.2967 99.0614,-63.3091 94.4323,-58.0582"/>
</g>
<!-- Node2 -->
<g id="node3" class="node">
<title>Node2</title>
<g id="a_node3"><a xlink:href="class_ogre_1_1_allocated_object.html" target="_top" xlink:title="Superclass for all objects that wish to use custom memory allocators when their new / delete operator...">
<polygon fill="none" stroke="#000000" points="162,-73 162,-92 286,-92 286,-73 162,-73"/>
<text text-anchor="middle" x="224" y="-80" font-family="Helvetica,sans-Serif" font-size="10.00" fill="#000000">RTShaderSystemAlloc</text>
</a>
</g>
</g>
<!-- Node2&#45;&gt;Node0 -->
<g id="edge2" class="edge">
<title>Node2&#45;&gt;Node0</title>
<path fill="none" stroke="#191970" d="M205.2713,-65.9892C192.9643,-55.1395 176.9896,-41.0566 165.0396,-30.5218"/>
<polygon fill="#191970" stroke="#191970" points="203.2952,-68.913 213.1111,-72.9005 207.9243,-63.6621 203.2952,-68.913"/>
</g>
</g>
</svg>
