<?xml version="1.0" encoding="UTF-8" standalone="no"?>
<!DOCTYPE svg PUBLIC "-//W3C//DTD SVG 1.1//EN"
 "http://www.w3.org/Graphics/SVG/1.1/DTD/svg11.dtd">
<!-- Generated by graphviz version 2.40.1 (20161225.0304)
 -->
<!-- Title: Ogre::GpuProgram Pages: 1 -->
<svg width="1009pt" height="572pt"
 viewBox="0.00 0.00 1009.00 571.50" xmlns="http://www.w3.org/2000/svg" xmlns:xlink="http://www.w3.org/1999/xlink">
<g id="graph0" class="graph" transform="scale(1 1) rotate(0) translate(4 567.5)">
<title>Ogre::GpuProgram</title>
<!-- Node0 -->
<g id="node1" class="node">
<title>Node0</title>
<polygon fill="#bfbfbf" stroke="#000000" points="281,-278 281,-297 388,-297 388,-278 281,-278"/>
<text text-anchor="middle" x="334.5" y="-285" font-family="Helvetica,sans-Serif" font-size="10.00" fill="#000000">Ogre::GpuProgram</text>
</g>
<!-- Node4 -->
<g id="node5" class="node">
<title>Node4</title>
<g id="a_node5"><a xlink:href="class_ogre_1_1_d3_d11_gpu_program.html" target="_top" xlink:title="Direct3D implementation of a few things common to low&#45;level vertex &amp; fragment programs. ">
<polygon fill="none" stroke="#000000" points="431.5,-449 431.5,-468 571.5,-468 571.5,-449 431.5,-449"/>
<text text-anchor="middle" x="501.5" y="-456" font-family="Helvetica,sans-Serif" font-size="10.00" fill="#000000">Ogre::D3D11GpuProgram</text>
</a>
</g>
</g>
<!-- Node0&#45;&gt;Node4 -->
<g id="edge4" class="edge">
<title>Node0&#45;&gt;Node4</title>
<path fill="none" stroke="#191970" d="M351.0076,-304.403C385.645,-339.87 464.9515,-421.0761 492.1466,-448.9226"/>
<polygon fill="#191970" stroke="#191970" points="353.4481,-301.8925 343.9571,-297.1837 348.4401,-306.7834 353.4481,-301.8925"/>
</g>
<!-- Node10 -->
<g id="node11" class="node">
<title>Node10</title>
<g id="a_node11"><a xlink:href="class_ogre_1_1_d3_d9_gpu_program.html" target="_top" xlink:title="Direct3D implementation of a few things common to low&#45;level vertex &amp; fragment programs. ">
<polygon fill="none" stroke="#000000" points="434.5,-316 434.5,-335 568.5,-335 568.5,-316 434.5,-316"/>
<text text-anchor="middle" x="501.5" y="-323" font-family="Helvetica,sans-Serif" font-size="10.00" fill="#000000">Ogre::D3D9GpuProgram</text>
</a>
</g>
</g>
<!-- Node0&#45;&gt;Node10 -->
<g id="edge10" class="edge">
<title>Node0&#45;&gt;Node10</title>
<path fill="none" stroke="#191970" d="M386.4646,-299.3243C410.0086,-304.6816 437.4737,-310.9311 459.6619,-315.9799"/>
<polygon fill="#191970" stroke="#191970" points="387.1685,-295.8951 376.6412,-297.089 385.6153,-302.7206 387.1685,-295.8951"/>
</g>
<!-- Node13 -->
<g id="node14" class="node">
<title>Node13</title>
<g id="a_node14"><a xlink:href="class_ogre_1_1_g_l3_plus_gpu_program.html" target="_top" xlink:title="Generalised low&#45;level GL program, can be applied to multiple types (eg ARB and NV) ...">
<polygon fill="none" stroke="#000000" points="428.5,-278 428.5,-297 574.5,-297 574.5,-278 428.5,-278"/>
<text text-anchor="middle" x="501.5" y="-285" font-family="Helvetica,sans-Serif" font-size="10.00" fill="#000000">Ogre::GL3PlusGpuProgram</text>
</a>
</g>
</g>
<!-- Node0&#45;&gt;Node13 -->
<g id="edge13" class="edge">
<title>Node0&#45;&gt;Node13</title>
<path fill="none" stroke="#191970" d="M398.3298,-287.5C408.1509,-287.5 418.3569,-287.5 428.3615,-287.5"/>
<polygon fill="#191970" stroke="#191970" points="398.2591,-284.0001 388.2591,-287.5 398.2591,-291.0001 398.2591,-284.0001"/>
</g>
<!-- Node15 -->
<g id="node16" class="node">
<title>Node15</title>
<g id="a_node16"><a xlink:href="class_ogre_1_1_g_l_e_s2_gpu_program.html" target="_top" xlink:title="Generalised low&#45;level GL program, can be applied to multiple types (eg ARB and NV) ...">
<polygon fill="none" stroke="#000000" points="433,-240 433,-259 570,-259 570,-240 433,-240"/>
<text text-anchor="middle" x="501.5" y="-247" font-family="Helvetica,sans-Serif" font-size="10.00" fill="#000000">Ogre::GLES2GpuProgram</text>
</a>
</g>
</g>
<!-- Node0&#45;&gt;Node15 -->
<g id="edge15" class="edge">
<title>Node0&#45;&gt;Node15</title>
<path fill="none" stroke="#191970" d="M386.4646,-275.6757C410.0086,-270.3184 437.4737,-264.0689 459.6619,-259.0201"/>
<polygon fill="#191970" stroke="#191970" points="385.6153,-272.2794 376.6412,-277.911 387.1685,-279.1049 385.6153,-272.2794"/>
</g>
<!-- Node17 -->
<g id="node18" class="node">
<title>Node17</title>
<g id="a_node18"><a xlink:href="class_ogre_1_1_high_level_gpu_program.html" target="_top" xlink:title="Abstract base class representing a high&#45;level program (a vertex or fragment program). ">
<polygon fill="none" stroke="#000000" points="424,-126 424,-145 579,-145 579,-126 424,-126"/>
<text text-anchor="middle" x="501.5" y="-133" font-family="Helvetica,sans-Serif" font-size="10.00" fill="#000000">Ogre::HighLevelGpuProgram</text>
</a>
</g>
</g>
<!-- Node0&#45;&gt;Node17 -->
<g id="edge17" class="edge">
<title>Node0&#45;&gt;Node17</title>
<path fill="none" stroke="#191970" d="M352.5061,-271.1112C387.4137,-239.339 463.2969,-170.2717 491.0574,-145.0047"/>
<polygon fill="#191970" stroke="#191970" points="349.9861,-268.6722 344.9466,-277.9917 354.6979,-273.8489 349.9861,-268.6722"/>
</g>
<!-- Node1 -->
<g id="node2" class="node">
<title>Node1</title>
<g id="a_node2"><a xlink:href="class_ogre_1_1_resource.html" target="_top" xlink:title="Abstract class representing a loadable resource (e.g. ">
<polygon fill="none" stroke="#000000" points="154,-278 154,-297 245,-297 245,-278 154,-278"/>
<text text-anchor="middle" x="199.5" y="-285" font-family="Helvetica,sans-Serif" font-size="10.00" fill="#000000">Ogre::Resource</text>
</a>
</g>
</g>
<!-- Node1&#45;&gt;Node0 -->
<g id="edge1" class="edge">
<title>Node1&#45;&gt;Node0</title>
<path fill="none" stroke="#191970" d="M255.3538,-287.5C263.8066,-287.5 272.5108,-287.5 280.9142,-287.5"/>
<polygon fill="#191970" stroke="#191970" points="255.2049,-284.0001 245.2048,-287.5 255.2048,-291.0001 255.2049,-284.0001"/>
</g>
<!-- Node2 -->
<g id="node3" class="node">
<title>Node2</title>
<g id="a_node3"><a xlink:href="class_ogre_1_1_string_interface.html" target="_top" xlink:title="Class defining the common interface which classes can use to present a reflection&#45;style, self&#45;defining parameter set to callers. ">
<polygon fill="none" stroke="#000000" points="0,-297 0,-316 118,-316 118,-297 0,-297"/>
<text text-anchor="middle" x="59" y="-304" font-family="Helvetica,sans-Serif" font-size="10.00" fill="#000000">Ogre::StringInterface</text>
</a>
</g>
</g>
<!-- Node2&#45;&gt;Node1 -->
<g id="edge2" class="edge">
<title>Node2&#45;&gt;Node1</title>
<path fill="none" stroke="#191970" d="M128.2466,-297.1357C136.8582,-295.9711 145.49,-294.8038 153.6242,-293.7038"/>
<polygon fill="#191970" stroke="#191970" points="127.6182,-293.6887 118.1774,-298.4974 128.5563,-300.6256 127.6182,-293.6887"/>
</g>
<!-- Node3 -->
<g id="node4" class="node">
<title>Node3</title>
<g id="a_node4"><a xlink:href="class_ogre_1_1_allocated_object.html" target="_top" xlink:title="Superclass for all objects that wish to use custom memory allocators when their new / delete operator...">
<polygon fill="none" stroke="#000000" points="16,-259 16,-278 102,-278 102,-259 16,-259"/>
<text text-anchor="middle" x="59" y="-266" font-family="Helvetica,sans-Serif" font-size="10.00" fill="#000000">ResourceAlloc</text>
</a>
</g>
</g>
<!-- Node3&#45;&gt;Node1 -->
<g id="edge3" class="edge">
<title>Node3&#45;&gt;Node1</title>
<path fill="none" stroke="#191970" d="M112.4717,-275.731C126.0455,-277.5666 140.5069,-279.5223 153.6636,-281.3015"/>
<polygon fill="#191970" stroke="#191970" points="112.6799,-272.2274 102.3011,-274.3557 111.7418,-279.1643 112.6799,-272.2274"/>
</g>
<!-- Node5 -->
<g id="node6" class="node">
<title>Node5</title>
<g id="a_node6"><a xlink:href="class_ogre_1_1_d3_d11_gpu_domain_program.html" target="_top" xlink:title="Direct3D implementation of low&#45;level vertex programs. ">
<polygon fill="none" stroke="#000000" points="620,-544 620,-563 798,-563 798,-544 620,-544"/>
<text text-anchor="middle" x="709" y="-551" font-family="Helvetica,sans-Serif" font-size="10.00" fill="#000000">Ogre::D3D11GpuDomainProgram</text>
</a>
</g>
</g>
<!-- Node4&#45;&gt;Node5 -->
<g id="edge5" class="edge">
<title>Node4&#45;&gt;Node5</title>
<path fill="none" stroke="#191970" d="M520.5452,-474.7039C542.0666,-492.1528 578.829,-519.431 615,-534.5 624.2215,-538.3417 634.2839,-541.4263 644.2866,-543.8976"/>
<polygon fill="#191970" stroke="#191970" points="522.4984,-471.7777 512.559,-468.1091 518.0412,-477.1753 522.4984,-471.7777"/>
</g>
<!-- Node6 -->
<g id="node7" class="node">
<title>Node6</title>
<g id="a_node7"><a xlink:href="class_ogre_1_1_d3_d11_gpu_fragment_program.html" target="_top" xlink:title="Direct3D implementation of low&#45;level fragment programs. ">
<polygon fill="none" stroke="#000000" points="615.5,-506 615.5,-525 802.5,-525 802.5,-506 615.5,-506"/>
<text text-anchor="middle" x="709" y="-513" font-family="Helvetica,sans-Serif" font-size="10.00" fill="#000000">Ogre::D3D11GpuFragmentProgram</text>
</a>
</g>
</g>
<!-- Node4&#45;&gt;Node6 -->
<g id="edge6" class="edge">
<title>Node4&#45;&gt;Node6</title>
<path fill="none" stroke="#191970" d="M536.5968,-471.5009C558.8509,-479.4317 588.3648,-489.3786 615,-496.5 628.1893,-500.0264 642.5736,-503.2431 656.0341,-505.9867"/>
<polygon fill="#191970" stroke="#191970" points="537.5137,-468.1111 526.9192,-468.0163 535.1422,-474.6972 537.5137,-468.1111"/>
</g>
<!-- Node7 -->
<g id="node8" class="node">
<title>Node7</title>
<g id="a_node8"><a xlink:href="class_ogre_1_1_d3_d11_gpu_geometry_program.html" target="_top" xlink:title="Direct3D implementation of low&#45;level geometry programs. ">
<polygon fill="none" stroke="#000000" points="615,-468 615,-487 803,-487 803,-468 615,-468"/>
<text text-anchor="middle" x="709" y="-475" font-family="Helvetica,sans-Serif" font-size="10.00" fill="#000000">Ogre::D3D11GpuGeometryProgram</text>
</a>
</g>
</g>
<!-- Node4&#45;&gt;Node7 -->
<g id="edge7" class="edge">
<title>Node4&#45;&gt;Node7</title>
<path fill="none" stroke="#191970" d="M581.9713,-465.8685C592.7624,-466.8566 603.9078,-467.8771 614.9071,-468.8843"/>
<polygon fill="#191970" stroke="#191970" points="582.0276,-462.3591 571.75,-464.9325 581.3892,-469.3299 582.0276,-462.3591"/>
</g>
<!-- Node8 -->
<g id="node9" class="node">
<title>Node8</title>
<g id="a_node9"><a xlink:href="class_ogre_1_1_d3_d11_gpu_hull_program.html" target="_top" xlink:title="Direct3D implementation of low&#45;level vertex programs. ">
<polygon fill="none" stroke="#000000" points="629.5,-430 629.5,-449 788.5,-449 788.5,-430 629.5,-430"/>
<text text-anchor="middle" x="709" y="-437" font-family="Helvetica,sans-Serif" font-size="10.00" fill="#000000">Ogre::D3D11GpuHullProgram</text>
</a>
</g>
</g>
<!-- Node4&#45;&gt;Node8 -->
<g id="edge8" class="edge">
<title>Node4&#45;&gt;Node8</title>
<path fill="none" stroke="#191970" d="M581.8384,-451.1437C597.376,-449.721 613.6527,-448.2306 629.1739,-446.8094"/>
<polygon fill="#191970" stroke="#191970" points="581.3892,-447.6701 571.75,-452.0675 582.0276,-454.6409 581.3892,-447.6701"/>
</g>
<!-- Node9 -->
<g id="node10" class="node">
<title>Node9</title>
<g id="a_node10"><a xlink:href="class_ogre_1_1_d3_d11_gpu_vertex_program.html" target="_top" xlink:title="Direct3D implementation of low&#45;level vertex programs. ">
<polygon fill="none" stroke="#000000" points="623,-392 623,-411 795,-411 795,-392 623,-392"/>
<text text-anchor="middle" x="709" y="-399" font-family="Helvetica,sans-Serif" font-size="10.00" fill="#000000">Ogre::D3D11GpuVertexProgram</text>
</a>
</g>
</g>
<!-- Node4&#45;&gt;Node9 -->
<g id="edge9" class="edge">
<title>Node4&#45;&gt;Node9</title>
<path fill="none" stroke="#191970" d="M536.5968,-445.4991C558.8509,-437.5683 588.3648,-427.6214 615,-420.5 628.1893,-416.9736 642.5736,-413.7569 656.0341,-411.0133"/>
<polygon fill="#191970" stroke="#191970" points="535.1422,-442.3028 526.9192,-448.9837 537.5137,-448.8889 535.1422,-442.3028"/>
</g>
<!-- Node11 -->
<g id="node12" class="node">
<title>Node11</title>
<g id="a_node12"><a xlink:href="class_ogre_1_1_d3_d9_gpu_fragment_program.html" target="_top" xlink:title="Direct3D implementation of low&#45;level fragment programs. ">
<polygon fill="none" stroke="#000000" points="618.5,-354 618.5,-373 799.5,-373 799.5,-354 618.5,-354"/>
<text text-anchor="middle" x="709" y="-361" font-family="Helvetica,sans-Serif" font-size="10.00" fill="#000000">Ogre::D3D9GpuFragmentProgram</text>
</a>
</g>
</g>
<!-- Node10&#45;&gt;Node11 -->
<g id="edge11" class="edge">
<title>Node10&#45;&gt;Node11</title>
<path fill="none" stroke="#191970" d="M563.4603,-336.847C593.2318,-342.2991 628.5154,-348.7607 656.8854,-353.9561"/>
<polygon fill="#191970" stroke="#191970" points="564.0601,-333.3987 553.5932,-335.04 562.7991,-340.2842 564.0601,-333.3987"/>
</g>
<!-- Node12 -->
<g id="node13" class="node">
<title>Node12</title>
<g id="a_node13"><a xlink:href="class_ogre_1_1_d3_d9_gpu_vertex_program.html" target="_top" xlink:title="Direct3D implementation of low&#45;level vertex programs. ">
<polygon fill="none" stroke="#000000" points="626,-316 626,-335 792,-335 792,-316 626,-316"/>
<text text-anchor="middle" x="709" y="-323" font-family="Helvetica,sans-Serif" font-size="10.00" fill="#000000">Ogre::D3D9GpuVertexProgram</text>
</a>
</g>
</g>
<!-- Node10&#45;&gt;Node12 -->
<g id="edge12" class="edge">
<title>Node10&#45;&gt;Node12</title>
<path fill="none" stroke="#191970" d="M579.0049,-325.5C594.2719,-325.5 610.3505,-325.5 625.7963,-325.5"/>
<polygon fill="#191970" stroke="#191970" points="578.5828,-322.0001 568.5827,-325.5 578.5827,-329.0001 578.5828,-322.0001"/>
</g>
<!-- Node14 -->
<g id="node15" class="node">
<title>Node14</title>
<g id="a_node15"><a xlink:href="class_ogre_1_1_g_l_s_l_gpu_program.html" target="_top" xlink:title="GLSL low level compiled shader object &#45; this class is used to get at the linked program object and pr...">
<polygon fill="none" stroke="#000000" points="643.5,-278 643.5,-297 774.5,-297 774.5,-278 643.5,-278"/>
<text text-anchor="middle" x="709" y="-285" font-family="Helvetica,sans-Serif" font-size="10.00" fill="#000000">Ogre::GLSLGpuProgram</text>
</a>
</g>
</g>
<!-- Node13&#45;&gt;Node14 -->
<g id="edge14" class="edge">
<title>Node13&#45;&gt;Node14</title>
<path fill="none" stroke="#191970" d="M584.7557,-287.5C604.2728,-287.5 624.7977,-287.5 643.4169,-287.5"/>
<polygon fill="#191970" stroke="#191970" points="584.6568,-284.0001 574.6567,-287.5 584.6567,-291.0001 584.6568,-284.0001"/>
</g>
<!-- Node16 -->
<g id="node17" class="node">
<title>Node16</title>
<g id="a_node17"><a xlink:href="class_ogre_1_1_g_l_s_l_e_s_gpu_program.html" target="_top" xlink:title="GLSL ES low level compiled shader object &#45; this class is used to get at the linked program object and...">
<polygon fill="none" stroke="#000000" points="637.5,-240 637.5,-259 780.5,-259 780.5,-240 637.5,-240"/>
<text text-anchor="middle" x="709" y="-247" font-family="Helvetica,sans-Serif" font-size="10.00" fill="#000000">Ogre::GLSLESGpuProgram</text>
</a>
</g>
</g>
<!-- Node15&#45;&gt;Node16 -->
<g id="edge16" class="edge">
<title>Node15&#45;&gt;Node16</title>
<path fill="none" stroke="#191970" d="M580.0368,-249.5C598.8588,-249.5 618.8594,-249.5 637.3508,-249.5"/>
<polygon fill="#191970" stroke="#191970" points="580.0184,-246.0001 570.0183,-249.5 580.0183,-253.0001 580.0184,-246.0001"/>
</g>
<!-- Node18 -->
<g id="node19" class="node">
<title>Node18</title>
<g id="a_node19"><a xlink:href="class_ogre_1_1_d3_d11_h_l_s_l_program.html" target="_top" xlink:title="Specialization of HighLevelGpuProgram to provide support for D3D11 High&#45;Level Shader Language (HLSL)...">
<polygon fill="none" stroke="#000000" points="637,-202 637,-221 781,-221 781,-202 637,-202"/>
<text text-anchor="middle" x="709" y="-209" font-family="Helvetica,sans-Serif" font-size="10.00" fill="#000000">Ogre::D3D11HLSLProgram</text>
</a>
</g>
</g>
<!-- Node17&#45;&gt;Node18 -->
<g id="edge18" class="edge">
<title>Node17&#45;&gt;Node18</title>
<path fill="none" stroke="#191970" d="M525.9098,-150.1582C548.3487,-163.0425 582.9018,-181.4185 615,-192.5 625.8592,-196.249 637.6935,-199.3573 649.1882,-201.898"/>
<polygon fill="#191970" stroke="#191970" points="527.4793,-147.0219 517.0773,-145.0099 523.9542,-153.0696 527.4793,-147.0219"/>
</g>
<!-- Node19 -->
<g id="node20" class="node">
<title>Node19</title>
<g id="a_node20"><a xlink:href="class_ogre_1_1_d3_d9_h_l_s_l_program.html" target="_top" xlink:title="Specialisation of HighLevelGpuProgram to provide support for D3D9 High&#45;Level Shader Language (HLSL)...">
<polygon fill="none" stroke="#000000" points="640,-164 640,-183 778,-183 778,-164 640,-164"/>
<text text-anchor="middle" x="709" y="-171" font-family="Helvetica,sans-Serif" font-size="10.00" fill="#000000">Ogre::D3D9HLSLProgram</text>
</a>
</g>
</g>
<!-- Node17&#45;&gt;Node19 -->
<g id="edge19" class="edge">
<title>Node17&#45;&gt;Node19</title>
<path fill="none" stroke="#191970" d="M563.4603,-146.847C593.2318,-152.2991 628.5154,-158.7607 656.8854,-163.9561"/>
<polygon fill="#191970" stroke="#191970" points="564.0601,-143.3987 553.5932,-145.04 562.7991,-150.2842 564.0601,-143.3987"/>
</g>
<!-- Node20 -->
<g id="node21" class="node">
<title>Node20</title>
<g id="a_node21"><a xlink:href="class_ogre_1_1_g_l_s_l_program.html" target="_top" xlink:title="C++ encapsulation of GLSL program object. ">
<polygon fill="none" stroke="#000000" points="653.5,-126 653.5,-145 764.5,-145 764.5,-126 653.5,-126"/>
<text text-anchor="middle" x="709" y="-133" font-family="Helvetica,sans-Serif" font-size="10.00" fill="#000000">Ogre::GLSLProgram</text>
</a>
</g>
</g>
<!-- Node17&#45;&gt;Node20 -->
<g id="edge20" class="edge">
<title>Node17&#45;&gt;Node20</title>
<path fill="none" stroke="#191970" d="M589.2669,-135.5C610.9326,-135.5 633.5511,-135.5 653.2201,-135.5"/>
<polygon fill="#191970" stroke="#191970" points="589.0605,-132.0001 579.0604,-135.5 589.0604,-139.0001 589.0605,-132.0001"/>
</g>
<!-- Node23 -->
<g id="node24" class="node">
<title>Node23</title>
<g id="a_node24"><a xlink:href="class_ogre_1_1_g_l_s_l_shader.html" target="_top" xlink:title="Specialisation of HighLevelGpuProgram to encapsulate shader objects obtained from compiled shaders wr...">
<polygon fill="none" stroke="#000000" points="657,-88 657,-107 761,-107 761,-88 657,-88"/>
<text text-anchor="middle" x="709" y="-95" font-family="Helvetica,sans-Serif" font-size="10.00" fill="#000000">Ogre::GLSLShader</text>
</a>
</g>
</g>
<!-- Node17&#45;&gt;Node23 -->
<g id="edge23" class="edge">
<title>Node17&#45;&gt;Node23</title>
<path fill="none" stroke="#191970" d="M563.4603,-124.153C593.2318,-118.7009 628.5154,-112.2393 656.8854,-107.0439"/>
<polygon fill="#191970" stroke="#191970" points="562.7991,-120.7158 553.5932,-125.96 564.0601,-127.6013 562.7991,-120.7158"/>
</g>
<!-- Node24 -->
<g id="node25" class="node">
<title>Node24</title>
<g id="a_node25"><a xlink:href="class_ogre_1_1_metal_program.html" target="_top" xlink:title="Specialisation of HighLevelGpuProgram to provide support for Metal Shader Language. ">
<polygon fill="none" stroke="#000000" points="651.5,-50 651.5,-69 766.5,-69 766.5,-50 651.5,-50"/>
<text text-anchor="middle" x="709" y="-57" font-family="Helvetica,sans-Serif" font-size="10.00" fill="#000000">Ogre::MetalProgram</text>
</a>
</g>
</g>
<!-- Node17&#45;&gt;Node24 -->
<g id="edge24" class="edge">
<title>Node17&#45;&gt;Node24</title>
<path fill="none" stroke="#191970" d="M525.9098,-120.8418C548.3487,-107.9575 582.9018,-89.5815 615,-78.5 626.4887,-74.5337 639.0688,-71.2844 651.1837,-68.6658"/>
<polygon fill="#191970" stroke="#191970" points="523.9542,-117.9304 517.0773,-125.9901 527.4793,-123.9781 523.9542,-117.9304"/>
</g>
<!-- Node25 -->
<g id="node26" class="node">
<title>Node25</title>
<g id="a_node26"><a xlink:href="class_ogre_1_1_unified_high_level_gpu_program.html" target="_top" xlink:title="Specialisation of HighLevelGpuProgram which just delegates its implementation to one other high level...">
<polygon fill="none" stroke="#000000" points="634.5,-.5 634.5,-30.5 783.5,-30.5 783.5,-.5 634.5,-.5"/>
<text text-anchor="start" x="642.5" y="-18.5" font-family="Helvetica,sans-Serif" font-size="10.00" fill="#000000">Ogre::UnifiedHighLevelGpu</text>
<text text-anchor="middle" x="709" y="-7.5" font-family="Helvetica,sans-Serif" font-size="10.00" fill="#000000">Program</text>
</a>
</g>
</g>
<!-- Node17&#45;&gt;Node25 -->
<g id="edge25" class="edge">
<title>Node17&#45;&gt;Node25</title>
<path fill="none" stroke="#191970" d="M517.1432,-118.4376C537.6166,-97.1179 575.557,-60.9553 615,-40.5 622.3455,-36.6906 630.3228,-33.4236 638.421,-30.6309"/>
<polygon fill="#191970" stroke="#191970" points="514.4981,-116.141 510.185,-125.8182 519.5915,-120.9429 514.4981,-116.141"/>
</g>
<!-- Node21 -->
<g id="node22" class="node">
<title>Node21</title>
<g id="a_node22"><a xlink:href="class_ogre_1_1_g_l_s_l_monolithic_program.html" target="_top" xlink:title="Model of OpenGL program object created using the glLinkProgram method of linking. ...">
<polygon fill="none" stroke="#000000" points="839,-145 839,-164 1001,-164 1001,-145 839,-145"/>
<text text-anchor="middle" x="920" y="-152" font-family="Helvetica,sans-Serif" font-size="10.00" fill="#000000">Ogre::GLSLMonolithicProgram</text>
</a>
</g>
</g>
<!-- Node20&#45;&gt;Node21 -->
<g id="edge21" class="edge">
<title>Node20&#45;&gt;Node21</title>
<path fill="none" stroke="#191970" d="M774.7931,-141.4245C795.1028,-143.2533 817.7111,-145.2892 838.9252,-147.1994"/>
<polygon fill="#191970" stroke="#191970" points="774.9874,-137.9279 764.7138,-140.5169 774.3595,-144.8997 774.9874,-137.9279"/>
</g>
<!-- Node22 -->
<g id="node23" class="node">
<title>Node22</title>
<g id="a_node23"><a xlink:href="class_ogre_1_1_g_l_s_l_separable_program.html" target="_top" xlink:title="Specialisation of GLSLProgram to provide support for separable programs via the OpenGL program pipeli...">
<polygon fill="none" stroke="#000000" points="840,-107 840,-126 1000,-126 1000,-107 840,-107"/>
<text text-anchor="middle" x="920" y="-114" font-family="Helvetica,sans-Serif" font-size="10.00" fill="#000000">Ogre::GLSLSeparableProgram</text>
</a>
</g>
</g>
<!-- Node20&#45;&gt;Node22 -->
<g id="edge22" class="edge">
<title>Node20&#45;&gt;Node22</title>
<path fill="none" stroke="#191970" d="M774.9038,-129.5655C795.4403,-127.7163 818.3183,-125.6562 839.7245,-123.7286"/>
<polygon fill="#191970" stroke="#191970" points="774.3595,-126.1003 764.7138,-130.4831 774.9874,-133.0721 774.3595,-126.1003"/>
</g>
</g>
</svg>
