<?xml version="1.0" encoding="UTF-8" standalone="no"?>
<!DOCTYPE svg PUBLIC "-//W3C//DTD SVG 1.1//EN"
 "http://www.w3.org/Graphics/SVG/1.1/DTD/svg11.dtd">
<!-- Generated by graphviz version 2.38.0 (20140413.2041)
 -->
<!-- Title: Ogre::Archive Pages: 1 -->
<svg width="406pt" height="140pt"
 viewBox="0.00 0.00 406.00 140.00" xmlns="http://www.w3.org/2000/svg" xmlns:xlink="http://www.w3.org/1999/xlink">
<g id="graph0" class="graph" transform="scale(1 1) rotate(0) translate(4 136)">
<title>Ogre::Archive</title>
<!-- Node1 -->
<g id="node1" class="node"><title>Node1</title>
<polygon fill="#bfbfbf" stroke="black" points="188.5,-56.5 188.5,-75.5 265.5,-75.5 265.5,-56.5 188.5,-56.5"/>
<text text-anchor="middle" x="227" y="-63.5" font-family="Helvetica,sans-Serif" font-size="10.00">Ogre::Archive</text>
</g>
<!-- Node3 -->
<g id="node3" class="node"><title>Node3</title>
<g id="a_node3"><a xlink:href="class_ogre_1_1_a_p_k_file_system_archive.html" target="_top" xlink:title="Ogre::APKFileSystemArchive">
<polygon fill="none" stroke="black" points="0,-0.5 0,-19.5 146,-19.5 146,-0.5 0,-0.5"/>
<text text-anchor="middle" x="73" y="-7.5" font-family="Helvetica,sans-Serif" font-size="10.00">Ogre::APKFileSystemArchive</text>
</a>
</g>
</g>
<!-- Node1&#45;&gt;Node3 -->
<g id="edge2" class="edge"><title>Node1&#45;&gt;Node3</title>
<path fill="none" stroke="midnightblue" d="M192.889,-53.0392C163.913,-42.8786 123.038,-28.5457 97.2876,-19.5164"/>
<polygon fill="midnightblue" stroke="midnightblue" points="192.003,-56.4373 202.598,-56.4435 194.32,-49.8317 192.003,-56.4373"/>
</g>
<!-- Node4 -->
<g id="node4" class="node"><title>Node4</title>
<g id="a_node4"><a xlink:href="class_ogre_1_1_file_system_archive.html" target="_top" xlink:title="Specialisation of the Archive class to allow reading of files from filesystem folders / directories...">
<polygon fill="none" stroke="black" points="164,-0.5 164,-19.5 290,-19.5 290,-0.5 164,-0.5"/>
<text text-anchor="middle" x="227" y="-7.5" font-family="Helvetica,sans-Serif" font-size="10.00">Ogre::FileSystemArchive</text>
</a>
</g>
</g>
<!-- Node1&#45;&gt;Node4 -->
<g id="edge3" class="edge"><title>Node1&#45;&gt;Node4</title>
<path fill="none" stroke="midnightblue" d="M227,-45.8045C227,-36.9102 227,-26.7798 227,-19.7511"/>
<polygon fill="midnightblue" stroke="midnightblue" points="223.5,-46.083 227,-56.083 230.5,-46.083 223.5,-46.083"/>
</g>
<!-- Node5 -->
<g id="node5" class="node"><title>Node5</title>
<g id="a_node5"><a xlink:href="class_ogre_1_1_zip_archive.html" target="_top" xlink:title="Specialisation of the Archive class to allow reading of files from a zip format source archive...">
<polygon fill="none" stroke="black" points="308,-0.5 308,-19.5 398,-19.5 398,-0.5 308,-0.5"/>
<text text-anchor="middle" x="353" y="-7.5" font-family="Helvetica,sans-Serif" font-size="10.00">Ogre::ZipArchive</text>
</a>
</g>
</g>
<!-- Node1&#45;&gt;Node5 -->
<g id="edge4" class="edge"><title>Node1&#45;&gt;Node5</title>
<path fill="none" stroke="midnightblue" d="M256.16,-52.503C279.781,-42.3795 312.428,-28.388 333.128,-19.5164"/>
<polygon fill="midnightblue" stroke="midnightblue" points="254.778,-49.2873 246.965,-56.4435 257.535,-55.7213 254.778,-49.2873"/>
</g>
<!-- Node2 -->
<g id="node2" class="node"><title>Node2</title>
<g id="a_node2"><a xlink:href="class_ogre_1_1_allocated_object.html" target="_top" xlink:title="Superclass for all objects that wish to use custom memory allocators when their new / delete operator...">
<polygon fill="none" stroke="black" points="191.5,-112.5 191.5,-131.5 262.5,-131.5 262.5,-112.5 191.5,-112.5"/>
<text text-anchor="middle" x="227" y="-119.5" font-family="Helvetica,sans-Serif" font-size="10.00">ArchiveAlloc</text>
</a>
</g>
</g>
<!-- Node2&#45;&gt;Node1 -->
<g id="edge1" class="edge"><title>Node2&#45;&gt;Node1</title>
<path fill="none" stroke="midnightblue" d="M227,-101.805C227,-92.9102 227,-82.7798 227,-75.7511"/>
<polygon fill="midnightblue" stroke="midnightblue" points="223.5,-102.083 227,-112.083 230.5,-102.083 223.5,-102.083"/>
</g>
</g>
</svg>
