<?xml version="1.0" encoding="UTF-8" standalone="no"?>
<!DOCTYPE svg PUBLIC "-//W3C//DTD SVG 1.1//EN"
 "http://www.w3.org/Graphics/SVG/1.1/DTD/svg11.dtd">
<!-- Generated by graphviz version 2.40.1 (20161225.0304)
 -->
<!-- Title: Ogre::GpuProgramManager Pages: 1 -->
<svg width="671pt" height="218pt"
 viewBox="0.00 0.00 671.00 218.00" xmlns="http://www.w3.org/2000/svg" xmlns:xlink="http://www.w3.org/1999/xlink">
<g id="graph0" class="graph" transform="scale(1 1) rotate(0) translate(4 214)">
<title>Ogre::GpuProgramManager</title>
<!-- Node0 -->
<g id="node1" class="node">
<title>Node0</title>
<polygon fill="#bfbfbf" stroke="#000000" points="318,-95.5 318,-114.5 454,-114.5 454,-95.5 318,-95.5"/>
<text text-anchor="middle" x="386" y="-102.5" font-family="Helvetica,sans-Serif" font-size="10.00" fill="#000000">Ogre::GpuProgramManager</text>
</g>
<!-- Node5 -->
<g id="node6" class="node">
<title>Node5</title>
<g id="a_node6"><a xlink:href="class_ogre_1_1_d3_d11_gpu_program_manager.html" target="_top" xlink:title="Ogre::D3D11GpuProgramManager">
<polygon fill="none" stroke="#000000" points="493,-190.5 493,-209.5 660,-209.5 660,-190.5 493,-190.5"/>
<text text-anchor="middle" x="576.5" y="-197.5" font-family="Helvetica,sans-Serif" font-size="10.00" fill="#000000">Ogre::D3D11GpuProgramManager</text>
</a>
</g>
</g>
<!-- Node0&#45;&gt;Node5 -->
<g id="edge5" class="edge">
<title>Node0&#45;&gt;Node5</title>
<path fill="none" stroke="#191970" d="M403.5085,-121.3909C423.0856,-138.8087 456.4653,-165.8773 490,-181 498.5498,-184.8556 507.9364,-187.9526 517.2756,-190.4335"/>
<polygon fill="#191970" stroke="#191970" points="405.7605,-118.7082 396.0031,-114.5799 401.0564,-123.892 405.7605,-118.7082"/>
</g>
<!-- Node6 -->
<g id="node7" class="node">
<title>Node6</title>
<g id="a_node7"><a xlink:href="class_ogre_1_1_d3_d9_gpu_program_manager.html" target="_top" xlink:title="Ogre::D3D9GpuProgramManager">
<polygon fill="none" stroke="#000000" points="496,-152.5 496,-171.5 657,-171.5 657,-152.5 496,-152.5"/>
<text text-anchor="middle" x="576.5" y="-159.5" font-family="Helvetica,sans-Serif" font-size="10.00" fill="#000000">Ogre::D3D9GpuProgramManager</text>
</a>
</g>
</g>
<!-- Node0&#45;&gt;Node6 -->
<g id="edge6" class="edge">
<title>Node0&#45;&gt;Node6</title>
<path fill="none" stroke="#191970" d="M418.6536,-118.2107C438.9578,-126.1038 465.732,-135.9357 490,-143 502.1054,-146.5238 515.3306,-149.7396 527.7163,-152.4831"/>
<polygon fill="#191970" stroke="#191970" points="419.8325,-114.9134 409.2452,-114.5123 417.2715,-121.4281 419.8325,-114.9134"/>
</g>
<!-- Node7 -->
<g id="node8" class="node">
<title>Node7</title>
<g id="a_node8"><a xlink:href="class_ogre_1_1_g_l3_plus_gpu_program_manager.html" target="_top" xlink:title="Ogre::GL3PlusGpuProgramManager">
<polygon fill="none" stroke="#000000" points="490,-114.5 490,-133.5 663,-133.5 663,-114.5 490,-114.5"/>
<text text-anchor="middle" x="576.5" y="-121.5" font-family="Helvetica,sans-Serif" font-size="10.00" fill="#000000">Ogre::GL3PlusGpuProgramManager</text>
</a>
</g>
</g>
<!-- Node0&#45;&gt;Node7 -->
<g id="edge7" class="edge">
<title>Node0&#45;&gt;Node7</title>
<path fill="none" stroke="#191970" d="M464.3618,-112.8156C472.7508,-113.6523 481.3203,-114.507 489.7988,-115.3526"/>
<polygon fill="#191970" stroke="#191970" points="464.5348,-109.3156 454.2368,-111.8058 463.84,-116.281 464.5348,-109.3156"/>
</g>
<!-- Node8 -->
<g id="node9" class="node">
<title>Node8</title>
<g id="a_node9"><a xlink:href="class_ogre_1_1_g_l_e_s2_gpu_program_manager.html" target="_top" xlink:title="Ogre::GLES2GpuProgramManager">
<polygon fill="none" stroke="#000000" points="493,-76.5 493,-95.5 660,-95.5 660,-76.5 493,-76.5"/>
<text text-anchor="middle" x="576.5" y="-83.5" font-family="Helvetica,sans-Serif" font-size="10.00" fill="#000000">Ogre::GLES2GpuProgramManager</text>
</a>
</g>
</g>
<!-- Node0&#45;&gt;Node8 -->
<g id="edge8" class="edge">
<title>Node0&#45;&gt;Node8</title>
<path fill="none" stroke="#191970" d="M464.3157,-97.189C473.7026,-96.2528 483.3163,-95.2939 492.7761,-94.3504"/>
<polygon fill="#191970" stroke="#191970" points="463.84,-93.719 454.2368,-98.1942 464.5348,-100.6844 463.84,-93.719"/>
</g>
<!-- Node9 -->
<g id="node10" class="node">
<title>Node9</title>
<g id="a_node10"><a xlink:href="class_ogre_1_1_g_l_s_l_shader_manager.html" target="_top" xlink:title="Ogre::GLSLShaderManager">
<polygon fill="none" stroke="#000000" points="508,-38.5 508,-57.5 645,-57.5 645,-38.5 508,-38.5"/>
<text text-anchor="middle" x="576.5" y="-45.5" font-family="Helvetica,sans-Serif" font-size="10.00" fill="#000000">Ogre::GLSLShaderManager</text>
</a>
</g>
</g>
<!-- Node0&#45;&gt;Node9 -->
<g id="edge9" class="edge">
<title>Node0&#45;&gt;Node9</title>
<path fill="none" stroke="#191970" d="M418.6536,-91.7893C438.9578,-83.8962 465.732,-74.0643 490,-67 502.1054,-63.4762 515.3306,-60.2604 527.7163,-57.5169"/>
<polygon fill="#191970" stroke="#191970" points="417.2715,-88.5719 409.2452,-95.4877 419.8325,-95.0866 417.2715,-88.5719"/>
</g>
<!-- Node10 -->
<g id="node11" class="node">
<title>Node10</title>
<g id="a_node11"><a xlink:href="class_ogre_1_1_metal_gpu_program_manager.html" target="_top" xlink:title="Ogre::MetalGpuProgramManager">
<polygon fill="none" stroke="#000000" points="496.5,-.5 496.5,-19.5 656.5,-19.5 656.5,-.5 496.5,-.5"/>
<text text-anchor="middle" x="576.5" y="-7.5" font-family="Helvetica,sans-Serif" font-size="10.00" fill="#000000">Ogre::MetalGpuProgramManager</text>
</a>
</g>
</g>
<!-- Node0&#45;&gt;Node10 -->
<g id="edge10" class="edge">
<title>Node0&#45;&gt;Node10</title>
<path fill="none" stroke="#191970" d="M403.5085,-88.6091C423.0856,-71.1913 456.4653,-44.1227 490,-29 498.5498,-25.1444 507.9364,-22.0474 517.2756,-19.5665"/>
<polygon fill="#191970" stroke="#191970" points="401.0564,-86.108 396.0031,-95.4201 405.7605,-91.2918 401.0564,-86.108"/>
</g>
<!-- Node1 -->
<g id="node2" class="node">
<title>Node1</title>
<g id="a_node2"><a xlink:href="class_ogre_1_1_resource_manager.html" target="_top" xlink:title="Defines a generic resource handler. ">
<polygon fill="none" stroke="#000000" points="146.5,-117.5 146.5,-136.5 269.5,-136.5 269.5,-117.5 146.5,-117.5"/>
<text text-anchor="middle" x="208" y="-124.5" font-family="Helvetica,sans-Serif" font-size="10.00" fill="#000000">Ogre::ResourceManager</text>
</a>
</g>
</g>
<!-- Node1&#45;&gt;Node0 -->
<g id="edge1" class="edge">
<title>Node1&#45;&gt;Node0</title>
<path fill="none" stroke="#191970" d="M279.749,-118.1321C292.363,-116.5731 305.4579,-114.9546 317.9668,-113.4086"/>
<polygon fill="#191970" stroke="#191970" points="279.2513,-114.6669 269.7562,-119.3672 280.11,-121.6141 279.2513,-114.6669"/>
</g>
<!-- Node2 -->
<g id="node3" class="node">
<title>Node2</title>
<g id="a_node3"><a xlink:href="class_ogre_1_1_script_loader.html" target="_top" xlink:title="Abstract class defining the interface used by classes which wish to perform script loading to define ...">
<polygon fill="none" stroke="#000000" points="0,-136.5 0,-155.5 98,-155.5 98,-136.5 0,-136.5"/>
<text text-anchor="middle" x="49" y="-143.5" font-family="Helvetica,sans-Serif" font-size="10.00" fill="#000000">Ogre::ScriptLoader</text>
</a>
</g>
</g>
<!-- Node2&#45;&gt;Node1 -->
<g id="edge2" class="edge">
<title>Node2&#45;&gt;Node1</title>
<path fill="none" stroke="#191970" d="M108.2266,-138.9226C120.63,-137.4404 133.7389,-135.874 146.2322,-134.3811"/>
<polygon fill="#191970" stroke="#191970" points="107.5167,-135.4825 98.0026,-140.1443 108.3473,-142.433 107.5167,-135.4825"/>
</g>
<!-- Node3 -->
<g id="node4" class="node">
<title>Node3</title>
<g id="a_node4"><a xlink:href="class_ogre_1_1_allocated_object.html" target="_top" xlink:title="Superclass for all objects that wish to use custom memory allocators when their new / delete operator...">
<polygon fill="none" stroke="#000000" points="9,-98.5 9,-117.5 89,-117.5 89,-98.5 9,-98.5"/>
<text text-anchor="middle" x="49" y="-105.5" font-family="Helvetica,sans-Serif" font-size="10.00" fill="#000000">ResourceAlloc</text>
</a>
</g>
</g>
<!-- Node3&#45;&gt;Node1 -->
<g id="edge3" class="edge">
<title>Node3&#45;&gt;Node1</title>
<path fill="none" stroke="#191970" d="M99.1705,-113.9952C114.1002,-115.7793 130.6349,-117.7551 146.2135,-119.6167"/>
<polygon fill="#191970" stroke="#191970" points="99.4671,-110.5058 89.1224,-112.7945 98.6365,-117.4564 99.4671,-110.5058"/>
</g>
<!-- Node4 -->
<g id="node5" class="node">
<title>Node4</title>
<g id="a_node5"><a xlink:href="class_ogre_1_1_singleton.html" target="_top" xlink:title="Ogre::Singleton\&lt; GpuProgram\lManager \&gt;">
<polygon fill="none" stroke="#000000" points="134,-68 134,-98 282,-98 282,-68 134,-68"/>
<text text-anchor="start" x="142" y="-86" font-family="Helvetica,sans-Serif" font-size="10.00" fill="#000000">Ogre::Singleton&lt; GpuProgram</text>
<text text-anchor="middle" x="208" y="-75" font-family="Helvetica,sans-Serif" font-size="10.00" fill="#000000">Manager &gt;</text>
</a>
</g>
</g>
<!-- Node4&#45;&gt;Node0 -->
<g id="edge4" class="edge">
<title>Node4&#45;&gt;Node0</title>
<path fill="none" stroke="#191970" d="M292.2454,-93.4124C300.8431,-94.475 309.5001,-95.545 317.8943,-96.5824"/>
<polygon fill="#191970" stroke="#191970" points="292.5529,-89.9238 282.1991,-92.1707 291.6942,-96.871 292.5529,-89.9238"/>
</g>
</g>
</svg>
