<?xml version="1.0" encoding="UTF-8" standalone="no"?>
<!DOCTYPE svg PUBLIC "-//W3C//DTD SVG 1.1//EN"
 "http://www.w3.org/Graphics/SVG/1.1/DTD/svg11.dtd">
<!-- Generated by graphviz version 2.40.1 (20161225.0304)
 -->
<!-- Title: Ogre::GLSLShaderManager Pages: 1 -->
<svg width="368pt" height="207pt"
 viewBox="0.00 0.00 367.50 207.00" xmlns="http://www.w3.org/2000/svg" xmlns:xlink="http://www.w3.org/1999/xlink">
<g id="graph0" class="graph" transform="scale(1 1) rotate(0) translate(4 203)">
<title>Ogre::GLSLShaderManager</title>
<!-- Node0 -->
<g id="node1" class="node">
<title>Node0</title>
<polygon fill="#bfbfbf" stroke="#000000" points="120.5,-.5 120.5,-19.5 266.5,-19.5 266.5,-.5 120.5,-.5"/>
<text text-anchor="middle" x="193.5" y="-7.5" font-family="Helvetica,sans-Serif" font-size="10.00" fill="#000000">Ogre::GLSLShaderManager</text>
</g>
<!-- Node1 -->
<g id="node2" class="node">
<title>Node1</title>
<g id="a_node2"><a xlink:href="class_ogre_1_1_gpu_program_manager.html" target="_top" xlink:title="Ogre::GpuProgramManager">
<polygon fill="none" stroke="#000000" points="119,-56.5 119,-75.5 268,-75.5 268,-56.5 119,-56.5"/>
<text text-anchor="middle" x="193.5" y="-63.5" font-family="Helvetica,sans-Serif" font-size="10.00" fill="#000000">Ogre::GpuProgramManager</text>
</a>
</g>
</g>
<!-- Node1&#45;&gt;Node0 -->
<g id="edge1" class="edge">
<title>Node1&#45;&gt;Node0</title>
<path fill="none" stroke="#191970" d="M193.5,-46.1575C193.5,-37.155 193.5,-26.9199 193.5,-19.6427"/>
<polygon fill="#191970" stroke="#191970" points="190.0001,-46.2455 193.5,-56.2455 197.0001,-46.2456 190.0001,-46.2455"/>
</g>
<!-- Node2 -->
<g id="node3" class="node">
<title>Node2</title>
<g id="a_node3"><a xlink:href="class_ogre_1_1_resource_manager.html" target="_top" xlink:title="Defines a generic resource handler. ">
<polygon fill="none" stroke="#000000" points="43.5,-118 43.5,-137 177.5,-137 177.5,-118 43.5,-118"/>
<text text-anchor="middle" x="110.5" y="-125" font-family="Helvetica,sans-Serif" font-size="10.00" fill="#000000">Ogre::ResourceManager</text>
</a>
</g>
</g>
<!-- Node2&#45;&gt;Node1 -->
<g id="edge2" class="edge">
<title>Node2&#45;&gt;Node1</title>
<path fill="none" stroke="#191970" d="M131.8923,-111.6491C147.3142,-100.222 167.6216,-85.1749 180.6223,-75.5419"/>
<polygon fill="#191970" stroke="#191970" points="129.4198,-109.125 123.4688,-117.8906 133.5872,-114.7493 129.4198,-109.125"/>
</g>
<!-- Node3 -->
<g id="node4" class="node">
<title>Node3</title>
<g id="a_node4"><a xlink:href="class_ogre_1_1_script_loader.html" target="_top" xlink:title="Abstract class defining the interface used by classes which wish to perform script loading to define ...">
<polygon fill="none" stroke="#000000" points="0,-179.5 0,-198.5 107,-198.5 107,-179.5 0,-179.5"/>
<text text-anchor="middle" x="53.5" y="-186.5" font-family="Helvetica,sans-Serif" font-size="10.00" fill="#000000">Ogre::ScriptLoader</text>
</a>
</g>
</g>
<!-- Node3&#45;&gt;Node2 -->
<g id="edge3" class="edge">
<title>Node3&#45;&gt;Node2</title>
<path fill="none" stroke="#191970" d="M69.3481,-171.9007C79.7044,-160.7268 92.8572,-146.5356 101.4682,-137.2449"/>
<polygon fill="#191970" stroke="#191970" points="66.6369,-169.6771 62.4063,-179.3906 71.7709,-174.4355 66.6369,-169.6771"/>
</g>
<!-- Node4 -->
<g id="node5" class="node">
<title>Node4</title>
<g id="a_node5"><a xlink:href="class_ogre_1_1_allocated_object.html" target="_top" xlink:title="Superclass for all objects that wish to use custom memory allocators when their new / delete operator...">
<polygon fill="none" stroke="#000000" points="125.5,-179.5 125.5,-198.5 211.5,-198.5 211.5,-179.5 125.5,-179.5"/>
<text text-anchor="middle" x="168.5" y="-186.5" font-family="Helvetica,sans-Serif" font-size="10.00" fill="#000000">ResourceAlloc</text>
</a>
</g>
</g>
<!-- Node4&#45;&gt;Node2 -->
<g id="edge4" class="edge">
<title>Node4&#45;&gt;Node2</title>
<path fill="none" stroke="#191970" d="M152.3739,-171.9007C141.8358,-160.7268 128.4523,-146.5356 119.6903,-137.2449"/>
<polygon fill="#191970" stroke="#191970" points="150.0302,-174.5169 159.4375,-179.3906 155.1227,-169.7142 150.0302,-174.5169"/>
</g>
<!-- Node5 -->
<g id="node6" class="node">
<title>Node5</title>
<g id="a_node6"><a xlink:href="class_ogre_1_1_singleton.html" target="_top" xlink:title="Ogre::Singleton\&lt; GpuProgram\lManager \&gt;">
<polygon fill="none" stroke="#000000" points="195.5,-112.5 195.5,-142.5 359.5,-142.5 359.5,-112.5 195.5,-112.5"/>
<text text-anchor="start" x="203.5" y="-130.5" font-family="Helvetica,sans-Serif" font-size="10.00" fill="#000000">Ogre::Singleton&lt; GpuProgram</text>
<text text-anchor="middle" x="277.5" y="-119.5" font-family="Helvetica,sans-Serif" font-size="10.00" fill="#000000">Manager &gt;</text>
</a>
</g>
</g>
<!-- Node5&#45;&gt;Node1 -->
<g id="edge5" class="edge">
<title>Node5&#45;&gt;Node1</title>
<path fill="none" stroke="#191970" d="M248.317,-106.1339C234.2524,-95.8366 218.0669,-83.9865 206.9495,-75.8469"/>
<polygon fill="#191970" stroke="#191970" points="246.5997,-109.2143 256.7359,-112.2977 250.7349,-103.5663 246.5997,-109.2143"/>
</g>
</g>
</svg>
