<?xml version="1.0" encoding="UTF-8" standalone="no"?>
<!DOCTYPE svg PUBLIC "-//W3C//DTD SVG 1.1//EN"
 "http://www.w3.org/Graphics/SVG/1.1/DTD/svg11.dtd">
<!-- Generated by graphviz version 2.40.1 (20161225.0304)
 -->
<!-- Title: Ogre::DefaultSphereSceneQuery Pages: 1 -->
<svg width="256pt" height="263pt"
 viewBox="0.00 0.00 256.00 263.00" xmlns="http://www.w3.org/2000/svg" xmlns:xlink="http://www.w3.org/1999/xlink">
<g id="graph0" class="graph" transform="scale(1 1) rotate(0) translate(4 259)">
<title>Ogre::DefaultSphereSceneQuery</title>
<!-- Node0 -->
<g id="node1" class="node">
<title>Node0</title>
<polygon fill="#bfbfbf" stroke="#000000" points="48,-.5 48,-30.5 182,-30.5 182,-.5 48,-.5"/>
<text text-anchor="start" x="56" y="-18.5" font-family="Helvetica,sans-Serif" font-size="10.00" fill="#000000">Ogre::DefaultSphereScene</text>
<text text-anchor="middle" x="115" y="-7.5" font-family="Helvetica,sans-Serif" font-size="10.00" fill="#000000">Query</text>
</g>
<!-- Node1 -->
<g id="node2" class="node">
<title>Node1</title>
<g id="a_node2"><a xlink:href="class_ogre_1_1_sphere_scene_query.html" target="_top" xlink:title="Specialises the SceneQuery class for querying within a sphere. ">
<polygon fill="none" stroke="#000000" points="51,-67.5 51,-86.5 179,-86.5 179,-67.5 51,-67.5"/>
<text text-anchor="middle" x="115" y="-74.5" font-family="Helvetica,sans-Serif" font-size="10.00" fill="#000000">Ogre::SphereSceneQuery</text>
</a>
</g>
</g>
<!-- Node1&#45;&gt;Node0 -->
<g id="edge1" class="edge">
<title>Node1&#45;&gt;Node0</title>
<path fill="none" stroke="#191970" d="M115,-57.3693C115,-48.681 115,-38.6241 115,-30.5446"/>
<polygon fill="#191970" stroke="#191970" points="111.5001,-57.3906 115,-67.3906 118.5001,-57.3907 111.5001,-57.3906"/>
</g>
<!-- Node2 -->
<g id="node3" class="node">
<title>Node2</title>
<g id="a_node3"><a xlink:href="class_ogre_1_1_region_scene_query.html" target="_top" xlink:title="Abstract class defining a query which returns single results from a region. ">
<polygon fill="none" stroke="#000000" points="51,-123.5 51,-142.5 179,-142.5 179,-123.5 51,-123.5"/>
<text text-anchor="middle" x="115" y="-130.5" font-family="Helvetica,sans-Serif" font-size="10.00" fill="#000000">Ogre::RegionSceneQuery</text>
</a>
</g>
</g>
<!-- Node2&#45;&gt;Node1 -->
<g id="edge2" class="edge">
<title>Node2&#45;&gt;Node1</title>
<path fill="none" stroke="#191970" d="M115,-113.1575C115,-104.155 115,-93.9199 115,-86.6427"/>
<polygon fill="#191970" stroke="#191970" points="111.5001,-113.2455 115,-123.2455 118.5001,-113.2456 111.5001,-113.2455"/>
</g>
<!-- Node3 -->
<g id="node4" class="node">
<title>Node3</title>
<g id="a_node4"><a xlink:href="class_ogre_1_1_scene_query.html" target="_top" xlink:title="A class for performing queries on a scene. ">
<polygon fill="none" stroke="#000000" points="0,-179.5 0,-198.5 98,-198.5 98,-179.5 0,-179.5"/>
<text text-anchor="middle" x="49" y="-186.5" font-family="Helvetica,sans-Serif" font-size="10.00" fill="#000000">Ogre::SceneQuery</text>
</a>
</g>
</g>
<!-- Node3&#45;&gt;Node2 -->
<g id="edge3" class="edge">
<title>Node3&#45;&gt;Node2</title>
<path fill="none" stroke="#191970" d="M68.2755,-172.645C79.7538,-162.9058 93.9277,-150.8795 103.6354,-142.6427"/>
<polygon fill="#191970" stroke="#191970" points="65.857,-170.1069 60.4963,-179.2455 70.3859,-175.4445 65.857,-170.1069"/>
</g>
<!-- Node4 -->
<g id="node5" class="node">
<title>Node4</title>
<g id="a_node5"><a xlink:href="class_ogre_1_1_allocated_object.html" target="_top" xlink:title="Superclass for all objects that wish to use custom memory allocators when their new / delete operator...">
<polygon fill="none" stroke="#000000" points="7.5,-235.5 7.5,-254.5 90.5,-254.5 90.5,-235.5 7.5,-235.5"/>
<text text-anchor="middle" x="49" y="-242.5" font-family="Helvetica,sans-Serif" font-size="10.00" fill="#000000">SceneMgtAlloc</text>
</a>
</g>
</g>
<!-- Node4&#45;&gt;Node3 -->
<g id="edge4" class="edge">
<title>Node4&#45;&gt;Node3</title>
<path fill="none" stroke="#191970" d="M49,-225.1575C49,-216.155 49,-205.9199 49,-198.6427"/>
<polygon fill="#191970" stroke="#191970" points="45.5001,-225.2455 49,-235.2455 52.5001,-225.2456 45.5001,-225.2455"/>
</g>
<!-- Node5 -->
<g id="node6" class="node">
<title>Node5</title>
<g id="a_node6"><a xlink:href="class_ogre_1_1_scene_query_listener.html" target="_top" xlink:title="This optional class allows you to receive per&#45;result callbacks from SceneQuery executions instead of ...">
<polygon fill="none" stroke="#000000" points="116,-179.5 116,-198.5 248,-198.5 248,-179.5 116,-179.5"/>
<text text-anchor="middle" x="182" y="-186.5" font-family="Helvetica,sans-Serif" font-size="10.00" fill="#000000">Ogre::SceneQueryListener</text>
</a>
</g>
</g>
<!-- Node5&#45;&gt;Node2 -->
<g id="edge5" class="edge">
<title>Node5&#45;&gt;Node2</title>
<path fill="none" stroke="#191970" d="M162.4324,-172.645C150.7802,-162.9058 136.3916,-150.8795 126.5368,-142.6427"/>
<polygon fill="#191970" stroke="#191970" points="160.4121,-175.5179 170.3295,-179.2455 164.9012,-170.1469 160.4121,-175.5179"/>
</g>
</g>
</svg>
