<?xml version="1.0" encoding="UTF-8" standalone="no"?>
<!DOCTYPE svg PUBLIC "-//W3C//DTD SVG 1.1//EN"
 "http://www.w3.org/Graphics/SVG/1.1/DTD/svg11.dtd">
<!-- Generated by graphviz version 2.38.0 (20140413.2041)
 -->
<!-- Title: Ogre::PixelCountLodStrategyBase Pages: 1 -->
<svg width="302pt" height="207pt"
 viewBox="0.00 0.00 302.00 207.00" xmlns="http://www.w3.org/2000/svg" xmlns:xlink="http://www.w3.org/1999/xlink">
<g id="graph0" class="graph" transform="scale(1 1) rotate(0) translate(4 203)">
<title>Ogre::PixelCountLodStrategyBase</title>
<!-- Node1 -->
<g id="node1" class="node"><title>Node1</title>
<polygon fill="#bfbfbf" stroke="black" points="59.5,-67.5 59.5,-86.5 226.5,-86.5 226.5,-67.5 59.5,-67.5"/>
<text text-anchor="middle" x="143" y="-74.5" font-family="Helvetica,sans-Serif" font-size="10.00">Ogre::PixelCountLodStrategyBase</text>
</g>
<!-- Node4 -->
<g id="node4" class="node"><title>Node4</title>
<g id="a_node4"><a xlink:href="class_ogre_1_1_absolute_pixel_count_lod_strategy.html" target="_top" xlink:title="Ogre::AbsolutePixelCount\lLodStrategy">
<polygon fill="none" stroke="black" points="0,-0.5 0,-30.5 130,-30.5 130,-0.5 0,-0.5"/>
<text text-anchor="start" x="8" y="-18.5" font-family="Helvetica,sans-Serif" font-size="10.00">Ogre::AbsolutePixelCount</text>
<text text-anchor="middle" x="65" y="-7.5" font-family="Helvetica,sans-Serif" font-size="10.00">LodStrategy</text>
</a>
</g>
</g>
<!-- Node1&#45;&gt;Node4 -->
<g id="edge3" class="edge"><title>Node1&#45;&gt;Node4</title>
<path fill="none" stroke="midnightblue" d="M123.592,-61.1955C111.293,-51.8129 95.4806,-39.7512 83.3831,-30.523"/>
<polygon fill="midnightblue" stroke="midnightblue" points="121.751,-64.1928 131.825,-67.4751 125.996,-58.6272 121.751,-64.1928"/>
</g>
<!-- Node5 -->
<g id="node5" class="node"><title>Node5</title>
<g id="a_node5"><a xlink:href="class_ogre_1_1_screen_ratio_pixel_count_lod_strategy.html" target="_top" xlink:title="Ogre::ScreenRatioPixelCount\lLodStrategy">
<polygon fill="none" stroke="black" points="148,-0.5 148,-30.5 294,-30.5 294,-0.5 148,-0.5"/>
<text text-anchor="start" x="156" y="-18.5" font-family="Helvetica,sans-Serif" font-size="10.00">Ogre::ScreenRatioPixelCount</text>
<text text-anchor="middle" x="221" y="-7.5" font-family="Helvetica,sans-Serif" font-size="10.00">LodStrategy</text>
</a>
</g>
</g>
<!-- Node1&#45;&gt;Node5 -->
<g id="edge4" class="edge"><title>Node1&#45;&gt;Node5</title>
<path fill="none" stroke="midnightblue" d="M162.408,-61.1955C174.707,-51.8129 190.519,-39.7512 202.617,-30.523"/>
<polygon fill="midnightblue" stroke="midnightblue" points="160.004,-58.6272 154.175,-67.4751 164.249,-64.1928 160.004,-58.6272"/>
</g>
<!-- Node2 -->
<g id="node2" class="node"><title>Node2</title>
<g id="a_node2"><a xlink:href="class_ogre_1_1_lod_strategy.html" target="_top" xlink:title="Strategy for determining level of detail. ">
<polygon fill="none" stroke="black" points="95,-123.5 95,-142.5 191,-142.5 191,-123.5 95,-123.5"/>
<text text-anchor="middle" x="143" y="-130.5" font-family="Helvetica,sans-Serif" font-size="10.00">Ogre::LodStrategy</text>
</a>
</g>
</g>
<!-- Node2&#45;&gt;Node1 -->
<g id="edge1" class="edge"><title>Node2&#45;&gt;Node1</title>
<path fill="none" stroke="midnightblue" d="M143,-112.805C143,-103.91 143,-93.7798 143,-86.7511"/>
<polygon fill="midnightblue" stroke="midnightblue" points="139.5,-113.083 143,-123.083 146.5,-113.083 139.5,-113.083"/>
</g>
<!-- Node3 -->
<g id="node3" class="node"><title>Node3</title>
<g id="a_node3"><a xlink:href="class_ogre_1_1_allocated_object.html" target="_top" xlink:title="Superclass for all objects that wish to use custom memory allocators when their new / delete operator...">
<polygon fill="none" stroke="black" points="116,-179.5 116,-198.5 170,-198.5 170,-179.5 116,-179.5"/>
<text text-anchor="middle" x="143" y="-186.5" font-family="Helvetica,sans-Serif" font-size="10.00">LodAlloc</text>
</a>
</g>
</g>
<!-- Node3&#45;&gt;Node2 -->
<g id="edge2" class="edge"><title>Node3&#45;&gt;Node2</title>
<path fill="none" stroke="midnightblue" d="M143,-168.805C143,-159.91 143,-149.78 143,-142.751"/>
<polygon fill="midnightblue" stroke="midnightblue" points="139.5,-169.083 143,-179.083 146.5,-169.083 139.5,-169.083"/>
</g>
</g>
</svg>
