<?xml version="1.0" encoding="UTF-8" standalone="no"?>
<!DOCTYPE svg PUBLIC "-//W3C//DTD SVG 1.1//EN"
 "http://www.w3.org/Graphics/SVG/1.1/DTD/svg11.dtd">
<!-- Generated by graphviz version 2.40.1 (20161225.0304)
 -->
<!-- Title: Ogre::ParallaxCorrectedCubemap Pages: 1 -->
<svg width="402pt" height="95pt"
 viewBox="0.00 0.00 402.00 95.00" xmlns="http://www.w3.org/2000/svg" xmlns:xlink="http://www.w3.org/1999/xlink">
<g id="graph0" class="graph" transform="scale(1 1) rotate(0) translate(4 91)">
<title>Ogre::ParallaxCorrectedCubemap</title>
<!-- Node0 -->
<g id="node1" class="node">
<title>Node0</title>
<polygon fill="#bfbfbf" stroke="#000000" points="92.5,-.5 92.5,-19.5 271.5,-19.5 271.5,-.5 92.5,-.5"/>
<text text-anchor="middle" x="182" y="-7.5" font-family="Helvetica,sans-Serif" font-size="10.00" fill="#000000">Ogre::ParallaxCorrectedCubemap</text>
</g>
<!-- Node1 -->
<g id="node2" class="node">
<title>Node1</title>
<g id="a_node2"><a xlink:href="class_ogre_1_1_id_object.html" target="_top" xlink:title="Ogre::IdObject">
<polygon fill="none" stroke="#000000" points="0,-62 0,-81 86,-81 86,-62 0,-62"/>
<text text-anchor="middle" x="43" y="-69" font-family="Helvetica,sans-Serif" font-size="10.00" fill="#000000">Ogre::IdObject</text>
</a>
</g>
</g>
<!-- Node1&#45;&gt;Node0 -->
<g id="edge1" class="edge">
<title>Node1&#45;&gt;Node0</title>
<path fill="none" stroke="#191970" d="M73.8675,-57.8428C100.1506,-46.2139 137.2372,-29.8051 160.4338,-19.5419"/>
<polygon fill="#191970" stroke="#191970" points="72.4475,-54.6437 64.7188,-61.8906 75.2798,-61.0452 72.4475,-54.6437"/>
</g>
<!-- Node2 -->
<g id="node3" class="node">
<title>Node2</title>
<g id="a_node3"><a xlink:href="class_ogre_1_1_compositor_workspace_listener.html" target="_top" xlink:title="Ogre::CompositorWorkspace\lListener">
<polygon fill="none" stroke="#000000" points="104,-56.5 104,-86.5 260,-86.5 260,-56.5 104,-56.5"/>
<text text-anchor="start" x="112" y="-74.5" font-family="Helvetica,sans-Serif" font-size="10.00" fill="#000000">Ogre::CompositorWorkspace</text>
<text text-anchor="middle" x="182" y="-63.5" font-family="Helvetica,sans-Serif" font-size="10.00" fill="#000000">Listener</text>
</a>
</g>
</g>
<!-- Node2&#45;&gt;Node0 -->
<g id="edge2" class="edge">
<title>Node2&#45;&gt;Node0</title>
<path fill="none" stroke="#191970" d="M182,-46.2849C182,-36.9858 182,-26.9883 182,-19.8469"/>
<polygon fill="#191970" stroke="#191970" points="178.5001,-46.2977 182,-56.2977 185.5001,-46.2978 178.5001,-46.2977"/>
</g>
<!-- Node3 -->
<g id="node4" class="node">
<title>Node3</title>
<g id="a_node4"><a xlink:href="class_ogre_1_1_frame_listener.html" target="_top" xlink:title="A interface class defining a listener which can be used to receive notifications of frame events...">
<polygon fill="none" stroke="#000000" points="278,-62 278,-81 394,-81 394,-62 278,-62"/>
<text text-anchor="middle" x="336" y="-69" font-family="Helvetica,sans-Serif" font-size="10.00" fill="#000000">Ogre::FrameListener</text>
</a>
</g>
</g>
<!-- Node3&#45;&gt;Node0 -->
<g id="edge3" class="edge">
<title>Node3&#45;&gt;Node0</title>
<path fill="none" stroke="#191970" d="M302.565,-58.1477C273.4041,-46.5023 231.8188,-29.8952 205.8935,-19.5419"/>
<polygon fill="#191970" stroke="#191970" points="301.3526,-61.4323 311.9375,-61.8906 303.9487,-54.9315 301.3526,-61.4323"/>
</g>
</g>
</svg>
