<?xml version="1.0" encoding="UTF-8" standalone="no"?>
<!DOCTYPE svg PUBLIC "-//W3C//DTD SVG 1.1//EN"
 "http://www.w3.org/Graphics/SVG/1.1/DTD/svg11.dtd">
<!-- Generated by graphviz version 2.40.1 (20161225.0304)
 -->
<!-- Title: Ogre::PageStrategy Pages: 1 -->
<svg width="316pt" height="140pt"
 viewBox="0.00 0.00 316.00 140.00" xmlns="http://www.w3.org/2000/svg" xmlns:xlink="http://www.w3.org/1999/xlink">
<g id="graph0" class="graph" transform="scale(1 1) rotate(0) translate(4 136)">
<title>Ogre::PageStrategy</title>
<!-- Node0 -->
<g id="node1" class="node">
<title>Node0</title>
<polygon fill="#bfbfbf" stroke="#000000" points="98,-56.5 98,-75.5 209,-75.5 209,-56.5 98,-56.5"/>
<text text-anchor="middle" x="153.5" y="-63.5" font-family="Helvetica,sans-Serif" font-size="10.00" fill="#000000">Ogre::PageStrategy</text>
</g>
<!-- Node2 -->
<g id="node3" class="node">
<title>Node2</title>
<g id="a_node3"><a xlink:href="class_ogre_1_1_grid2_d_page_strategy.html" target="_top" xlink:title="Page strategy which loads new pages based on a regular 2D grid. ">
<polygon fill="none" stroke="#000000" points="0,-.5 0,-19.5 145,-19.5 145,-.5 0,-.5"/>
<text text-anchor="middle" x="72.5" y="-7.5" font-family="Helvetica,sans-Serif" font-size="10.00" fill="#000000">Ogre::Grid2DPageStrategy</text>
</a>
</g>
</g>
<!-- Node0&#45;&gt;Node2 -->
<g id="edge2" class="edge">
<title>Node0&#45;&gt;Node2</title>
<path fill="none" stroke="#191970" d="M131.066,-50.49C116.7746,-40.6096 98.7084,-28.1194 86.4474,-19.6427"/>
<polygon fill="#191970" stroke="#191970" points="129.1749,-53.4376 139.3909,-56.2455 133.1557,-47.6797 129.1749,-53.4376"/>
</g>
<!-- Node3 -->
<g id="node4" class="node">
<title>Node3</title>
<g id="a_node4"><a xlink:href="class_ogre_1_1_grid3_d_page_strategy.html" target="_top" xlink:title="Page strategy which loads new pages based on a regular 3D grid. ">
<polygon fill="none" stroke="#000000" points="163,-.5 163,-19.5 308,-19.5 308,-.5 163,-.5"/>
<text text-anchor="middle" x="235.5" y="-7.5" font-family="Helvetica,sans-Serif" font-size="10.00" fill="#000000">Ogre::Grid3DPageStrategy</text>
</a>
</g>
</g>
<!-- Node0&#45;&gt;Node3 -->
<g id="edge3" class="edge">
<title>Node0&#45;&gt;Node3</title>
<path fill="none" stroke="#191970" d="M176.211,-50.49C190.6788,-40.6096 208.968,-28.1194 221.3804,-19.6427"/>
<polygon fill="#191970" stroke="#191970" points="174.0675,-47.7156 167.7833,-56.2455 178.0152,-53.4962 174.0675,-47.7156"/>
</g>
<!-- Node1 -->
<g id="node2" class="node">
<title>Node1</title>
<g id="a_node2"><a xlink:href="class_ogre_1_1_allocated_object.html" target="_top" xlink:title="Superclass for all objects that wish to use custom memory allocators when their new / delete operator...">
<polygon fill="none" stroke="#000000" points="121,-112.5 121,-131.5 186,-131.5 186,-112.5 121,-112.5"/>
<text text-anchor="middle" x="153.5" y="-119.5" font-family="Helvetica,sans-Serif" font-size="10.00" fill="#000000">PageAlloc</text>
</a>
</g>
</g>
<!-- Node1&#45;&gt;Node0 -->
<g id="edge1" class="edge">
<title>Node1&#45;&gt;Node0</title>
<path fill="none" stroke="#191970" d="M153.5,-102.1575C153.5,-93.155 153.5,-82.9199 153.5,-75.6427"/>
<polygon fill="#191970" stroke="#191970" points="150.0001,-102.2455 153.5,-112.2455 157.0001,-102.2456 150.0001,-102.2455"/>
</g>
</g>
</svg>
