<?xml version="1.0" encoding="UTF-8" standalone="no"?>
<!DOCTYPE svg PUBLIC "-//W3C//DTD SVG 1.1//EN"
 "http://www.w3.org/Graphics/SVG/1.1/DTD/svg11.dtd">
<!-- Generated by graphviz version 2.40.1 (20161225.0304)
 -->
<!-- Title: Ogre::v1::OldSkeletonManager Pages: 1 -->
<svg width="366pt" height="151pt"
 viewBox="0.00 0.00 365.50 151.00" xmlns="http://www.w3.org/2000/svg" xmlns:xlink="http://www.w3.org/1999/xlink">
<g id="graph0" class="graph" transform="scale(1 1) rotate(0) translate(4 147)">
<title>Ogre::v1::OldSkeletonManager</title>
<!-- Node0 -->
<g id="node1" class="node">
<title>Node0</title>
<polygon fill="#bfbfbf" stroke="#000000" points="110.5,-.5 110.5,-19.5 276.5,-19.5 276.5,-.5 110.5,-.5"/>
<text text-anchor="middle" x="193.5" y="-7.5" font-family="Helvetica,sans-Serif" font-size="10.00" fill="#000000">Ogre::v1::OldSkeletonManager</text>
</g>
<!-- Node1 -->
<g id="node2" class="node">
<title>Node1</title>
<g id="a_node2"><a xlink:href="class_ogre_1_1_resource_manager.html" target="_top" xlink:title="Defines a generic resource handler. ">
<polygon fill="none" stroke="#000000" points="43.5,-62 43.5,-81 177.5,-81 177.5,-62 43.5,-62"/>
<text text-anchor="middle" x="110.5" y="-69" font-family="Helvetica,sans-Serif" font-size="10.00" fill="#000000">Ogre::ResourceManager</text>
</a>
</g>
</g>
<!-- Node1&#45;&gt;Node0 -->
<g id="edge1" class="edge">
<title>Node1&#45;&gt;Node0</title>
<path fill="none" stroke="#191970" d="M131.8923,-55.6491C147.3142,-44.222 167.6216,-29.1749 180.6223,-19.5419"/>
<polygon fill="#191970" stroke="#191970" points="129.4198,-53.125 123.4688,-61.8906 133.5872,-58.7493 129.4198,-53.125"/>
</g>
<!-- Node2 -->
<g id="node3" class="node">
<title>Node2</title>
<g id="a_node3"><a xlink:href="class_ogre_1_1_script_loader.html" target="_top" xlink:title="Abstract class defining the interface used by classes which wish to perform script loading to define ...">
<polygon fill="none" stroke="#000000" points="0,-123.5 0,-142.5 107,-142.5 107,-123.5 0,-123.5"/>
<text text-anchor="middle" x="53.5" y="-130.5" font-family="Helvetica,sans-Serif" font-size="10.00" fill="#000000">Ogre::ScriptLoader</text>
</a>
</g>
</g>
<!-- Node2&#45;&gt;Node1 -->
<g id="edge2" class="edge">
<title>Node2&#45;&gt;Node1</title>
<path fill="none" stroke="#191970" d="M69.3481,-115.9007C79.7044,-104.7268 92.8572,-90.5356 101.4682,-81.2449"/>
<polygon fill="#191970" stroke="#191970" points="66.6369,-113.6771 62.4063,-123.3906 71.7709,-118.4355 66.6369,-113.6771"/>
</g>
<!-- Node3 -->
<g id="node4" class="node">
<title>Node3</title>
<g id="a_node4"><a xlink:href="class_ogre_1_1_allocated_object.html" target="_top" xlink:title="Superclass for all objects that wish to use custom memory allocators when their new / delete operator...">
<polygon fill="none" stroke="#000000" points="125.5,-123.5 125.5,-142.5 211.5,-142.5 211.5,-123.5 125.5,-123.5"/>
<text text-anchor="middle" x="168.5" y="-130.5" font-family="Helvetica,sans-Serif" font-size="10.00" fill="#000000">ResourceAlloc</text>
</a>
</g>
</g>
<!-- Node3&#45;&gt;Node1 -->
<g id="edge3" class="edge">
<title>Node3&#45;&gt;Node1</title>
<path fill="none" stroke="#191970" d="M152.3739,-115.9007C141.8358,-104.7268 128.4523,-90.5356 119.6903,-81.2449"/>
<polygon fill="#191970" stroke="#191970" points="150.0302,-118.5169 159.4375,-123.3906 155.1227,-113.7142 150.0302,-118.5169"/>
</g>
<!-- Node4 -->
<g id="node5" class="node">
<title>Node4</title>
<g id="a_node5"><a xlink:href="class_ogre_1_1_singleton.html" target="_top" xlink:title="Ogre::Singleton\&lt; OldSkeleton\lManager \&gt;">
<polygon fill="none" stroke="#000000" points="195.5,-56.5 195.5,-86.5 357.5,-86.5 357.5,-56.5 195.5,-56.5"/>
<text text-anchor="start" x="203.5" y="-74.5" font-family="Helvetica,sans-Serif" font-size="10.00" fill="#000000">Ogre::Singleton&lt; OldSkeleton</text>
<text text-anchor="middle" x="276.5" y="-63.5" font-family="Helvetica,sans-Serif" font-size="10.00" fill="#000000">Manager &gt;</text>
</a>
</g>
</g>
<!-- Node4&#45;&gt;Node0 -->
<g id="edge4" class="edge">
<title>Node4&#45;&gt;Node0</title>
<path fill="none" stroke="#191970" d="M247.6645,-50.1339C233.7673,-39.8366 217.7745,-27.9865 206.7894,-19.8469"/>
<polygon fill="#191970" stroke="#191970" points="245.8647,-53.1564 255.9831,-56.2977 250.0321,-47.5321 245.8647,-53.1564"/>
</g>
</g>
</svg>
