<?xml version="1.0" encoding="UTF-8" standalone="no"?>
<!DOCTYPE svg PUBLIC "-//W3C//DTD SVG 1.1//EN"
 "http://www.w3.org/Graphics/SVG/1.1/DTD/svg11.dtd">
<!-- Generated by graphviz version 2.38.0 (20140413.2041)
 -->
<!-- Title: Ogre::D3D11RenderWindowSwapChainBased Pages: 1 -->
<svg width="218pt" height="263pt"
 viewBox="0.00 0.00 217.50 263.00" xmlns="http://www.w3.org/2000/svg" xmlns:xlink="http://www.w3.org/1999/xlink">
<g id="graph0" class="graph" transform="scale(1 1) rotate(0) translate(4 259)">
<title>Ogre::D3D11RenderWindowSwapChainBased</title>
<!-- Node1 -->
<g id="node1" class="node"><title>Node1</title>
<polygon fill="#bfbfbf" stroke="black" points="26,-0.5 26,-30.5 192,-30.5 192,-0.5 26,-0.5"/>
<text text-anchor="start" x="34" y="-18.5" font-family="Helvetica,sans-Serif" font-size="10.00">Ogre::D3D11RenderWindowSwap</text>
<text text-anchor="middle" x="109" y="-7.5" font-family="Helvetica,sans-Serif" font-size="10.00">ChainBased</text>
</g>
<!-- Node2 -->
<g id="node2" class="node"><title>Node2</title>
<g id="a_node2"><a xlink:href="class_ogre_1_1_d3_d11_render_window_base.html" target="_top" xlink:title="Ogre::D3D11RenderWindowBase">
<polygon fill="none" stroke="black" points="27,-67.5 27,-86.5 191,-86.5 191,-67.5 27,-67.5"/>
<text text-anchor="middle" x="109" y="-74.5" font-family="Helvetica,sans-Serif" font-size="10.00">Ogre::D3D11RenderWindowBase</text>
</a>
</g>
</g>
<!-- Node2&#45;&gt;Node1 -->
<g id="edge1" class="edge"><title>Node2&#45;&gt;Node1</title>
<path fill="none" stroke="midnightblue" d="M109,-57.2349C109,-48.5864 109,-38.4969 109,-30.523"/>
<polygon fill="midnightblue" stroke="midnightblue" points="105.5,-57.4751 109,-67.4751 112.5,-57.4751 105.5,-57.4751"/>
</g>
<!-- Node3 -->
<g id="node3" class="node"><title>Node3</title>
<g id="a_node3"><a xlink:href="class_ogre_1_1_render_window.html" target="_top" xlink:title="Manages the target rendering window. ">
<polygon fill="none" stroke="black" points="54,-123.5 54,-142.5 164,-142.5 164,-123.5 54,-123.5"/>
<text text-anchor="middle" x="109" y="-130.5" font-family="Helvetica,sans-Serif" font-size="10.00">Ogre::RenderWindow</text>
</a>
</g>
</g>
<!-- Node3&#45;&gt;Node2 -->
<g id="edge2" class="edge"><title>Node3&#45;&gt;Node2</title>
<path fill="none" stroke="midnightblue" d="M109,-112.805C109,-103.91 109,-93.7798 109,-86.7511"/>
<polygon fill="midnightblue" stroke="midnightblue" points="105.5,-113.083 109,-123.083 112.5,-113.083 105.5,-113.083"/>
</g>
<!-- Node4 -->
<g id="node4" class="node"><title>Node4</title>
<g id="a_node4"><a xlink:href="class_ogre_1_1_render_target.html" target="_top" xlink:title="A &#39;canvas&#39; which can receive the results of a rendering operation. ">
<polygon fill="none" stroke="black" points="57.5,-179.5 57.5,-198.5 160.5,-198.5 160.5,-179.5 57.5,-179.5"/>
<text text-anchor="middle" x="109" y="-186.5" font-family="Helvetica,sans-Serif" font-size="10.00">Ogre::RenderTarget</text>
</a>
</g>
</g>
<!-- Node4&#45;&gt;Node3 -->
<g id="edge3" class="edge"><title>Node4&#45;&gt;Node3</title>
<path fill="none" stroke="midnightblue" d="M109,-168.805C109,-159.91 109,-149.78 109,-142.751"/>
<polygon fill="midnightblue" stroke="midnightblue" points="105.5,-169.083 109,-179.083 112.5,-169.083 105.5,-169.083"/>
</g>
<!-- Node5 -->
<g id="node5" class="node"><title>Node5</title>
<g id="a_node5"><a xlink:href="struct_ogre_1_1_gpu_resource.html" target="_top" xlink:title="Ogre::GpuResource">
<polygon fill="none" stroke="black" points="0,-235.5 0,-254.5 104,-254.5 104,-235.5 0,-235.5"/>
<text text-anchor="middle" x="52" y="-242.5" font-family="Helvetica,sans-Serif" font-size="10.00">Ogre::GpuResource</text>
</a>
</g>
</g>
<!-- Node5&#45;&gt;Node4 -->
<g id="edge4" class="edge"><title>Node5&#45;&gt;Node4</title>
<path fill="none" stroke="midnightblue" d="M68.6215,-228.253C78.734,-218.673 91.2766,-206.791 99.6753,-198.834"/>
<polygon fill="midnightblue" stroke="midnightblue" points="66.0105,-225.906 61.158,-235.324 70.8247,-230.987 66.0105,-225.906"/>
</g>
<!-- Node6 -->
<g id="node6" class="node"><title>Node6</title>
<g id="a_node6"><a xlink:href="class_ogre_1_1_allocated_object.html" target="_top" xlink:title="Superclass for all objects that wish to use custom memory allocators when their new / delete operator...">
<polygon fill="none" stroke="black" points="122.5,-235.5 122.5,-254.5 209.5,-254.5 209.5,-235.5 122.5,-235.5"/>
<text text-anchor="middle" x="166" y="-242.5" font-family="Helvetica,sans-Serif" font-size="10.00">RenderSysAlloc</text>
</a>
</g>
</g>
<!-- Node6&#45;&gt;Node4 -->
<g id="edge5" class="edge"><title>Node6&#45;&gt;Node4</title>
<path fill="none" stroke="midnightblue" d="M149.379,-228.253C139.266,-218.673 126.723,-206.791 118.325,-198.834"/>
<polygon fill="midnightblue" stroke="midnightblue" points="147.175,-230.987 156.842,-235.324 151.99,-225.906 147.175,-230.987"/>
</g>
</g>
</svg>
