<?xml version="1.0" encoding="UTF-8" standalone="no"?>
<!DOCTYPE svg PUBLIC "-//W3C//DTD SVG 1.1//EN"
 "http://www.w3.org/Graphics/SVG/1.1/DTD/svg11.dtd">
<!-- Generated by graphviz version 2.40.1 (20161225.0304)
 -->
<!-- Title: Ogre::RTShader::ProgramWriter Pages: 1 -->
<svg width="550pt" height="186pt"
 viewBox="0.00 0.00 550.00 186.00" xmlns="http://www.w3.org/2000/svg" xmlns:xlink="http://www.w3.org/1999/xlink">
<g id="graph0" class="graph" transform="scale(1 1) rotate(0) translate(4 182)">
<title>Ogre::RTShader::ProgramWriter</title>
<!-- Node0 -->
<g id="node1" class="node">
<title>Node0</title>
<polygon fill="#bfbfbf" stroke="#000000" points="160,-79 160,-98 330,-98 330,-79 160,-79"/>
<text text-anchor="middle" x="245" y="-86" font-family="Helvetica,sans-Serif" font-size="10.00" fill="#000000">Ogre::RTShader::ProgramWriter</text>
</g>
<!-- Node2 -->
<g id="node3" class="node">
<title>Node2</title>
<g id="a_node3"><a xlink:href="class_ogre_1_1_r_t_shader_1_1_c_g_program_writer.html" target="_top" xlink:title="CG target language writer implementation. ">
<polygon fill="none" stroke="#000000" points="377,-147.5 377,-177.5 531,-177.5 531,-147.5 377,-147.5"/>
<text text-anchor="start" x="385" y="-165.5" font-family="Helvetica,sans-Serif" font-size="10.00" fill="#000000">Ogre::RTShader::CGProgram</text>
<text text-anchor="middle" x="454" y="-154.5" font-family="Helvetica,sans-Serif" font-size="10.00" fill="#000000">Writer</text>
</a>
</g>
</g>
<!-- Node0&#45;&gt;Node2 -->
<g id="edge2" class="edge">
<title>Node0&#45;&gt;Node2</title>
<path fill="none" stroke="#191970" d="M275.4779,-102.3438C299.7039,-113.042 334.6168,-127.7837 366,-138.5 375.1416,-141.6215 384.9231,-144.6181 394.5205,-147.3721"/>
<polygon fill="#191970" stroke="#191970" points="276.6694,-99.0431 266.1103,-98.1733 273.8223,-105.438 276.6694,-99.0431"/>
</g>
<!-- Node3 -->
<g id="node4" class="node">
<title>Node3</title>
<g id="a_node4"><a xlink:href="class_ogre_1_1_r_t_shader_1_1_g_l_s_l_e_s_program_writer.html" target="_top" xlink:title="GLSL ES target language writer implementation. ">
<polygon fill="none" stroke="#000000" points="366,-98.5 366,-128.5 542,-128.5 542,-98.5 366,-98.5"/>
<text text-anchor="start" x="374" y="-116.5" font-family="Helvetica,sans-Serif" font-size="10.00" fill="#000000">Ogre::RTShader::GLSLESProgram</text>
<text text-anchor="middle" x="454" y="-105.5" font-family="Helvetica,sans-Serif" font-size="10.00" fill="#000000">Writer</text>
</a>
</g>
</g>
<!-- Node0&#45;&gt;Node3 -->
<g id="edge3" class="edge">
<title>Node0&#45;&gt;Node3</title>
<path fill="none" stroke="#191970" d="M334.8279,-99.245C345.1255,-100.4767 355.617,-101.7317 365.8917,-102.9607"/>
<polygon fill="#191970" stroke="#191970" points="334.9551,-95.7353 324.6102,-98.0227 334.1236,-102.6858 334.9551,-95.7353"/>
</g>
<!-- Node4 -->
<g id="node5" class="node">
<title>Node4</title>
<g id="a_node5"><a xlink:href="class_ogre_1_1_r_t_shader_1_1_g_l_s_l_program_writer.html" target="_top" xlink:title="GLSL target language writer implementation. ">
<polygon fill="none" stroke="#000000" points="372,-49.5 372,-79.5 536,-79.5 536,-49.5 372,-49.5"/>
<text text-anchor="start" x="380" y="-67.5" font-family="Helvetica,sans-Serif" font-size="10.00" fill="#000000">Ogre::RTShader::GLSLProgram</text>
<text text-anchor="middle" x="454" y="-56.5" font-family="Helvetica,sans-Serif" font-size="10.00" fill="#000000">Writer</text>
</a>
</g>
</g>
<!-- Node0&#45;&gt;Node4 -->
<g id="edge4" class="edge">
<title>Node0&#45;&gt;Node4</title>
<path fill="none" stroke="#191970" d="M338.1596,-77.8022C349.3991,-76.5116 360.8157,-75.2006 371.881,-73.9299"/>
<polygon fill="#191970" stroke="#191970" points="337.4379,-74.362 327.9025,-78.9801 338.2365,-81.3163 337.4379,-74.362"/>
</g>
<!-- Node5 -->
<g id="node6" class="node">
<title>Node5</title>
<g id="a_node6"><a xlink:href="class_ogre_1_1_r_t_shader_1_1_h_l_s_l_program_writer.html" target="_top" xlink:title="HLSL target language writer implementation. ">
<polygon fill="none" stroke="#000000" points="372,-.5 372,-30.5 536,-30.5 536,-.5 372,-.5"/>
<text text-anchor="start" x="380" y="-18.5" font-family="Helvetica,sans-Serif" font-size="10.00" fill="#000000">Ogre::RTShader::HLSLProgram</text>
<text text-anchor="middle" x="454" y="-7.5" font-family="Helvetica,sans-Serif" font-size="10.00" fill="#000000">Writer</text>
</a>
</g>
</g>
<!-- Node0&#45;&gt;Node5 -->
<g id="edge5" class="edge">
<title>Node0&#45;&gt;Node5</title>
<path fill="none" stroke="#191970" d="M275.9467,-74.7838C300.1702,-64.3375 334.8586,-50.0108 366,-39.5 375.3026,-36.3602 385.2609,-33.3335 395.0116,-30.5493"/>
<polygon fill="#191970" stroke="#191970" points="274.343,-71.6644 266.5669,-78.8605 277.1333,-78.0843 274.343,-71.6644"/>
</g>
<!-- Node1 -->
<g id="node2" class="node">
<title>Node1</title>
<g id="a_node2"><a xlink:href="class_ogre_1_1_allocated_object.html" target="_top" xlink:title="Superclass for all objects that wish to use custom memory allocators when their new / delete operator...">
<polygon fill="none" stroke="#000000" points="0,-79 0,-98 124,-98 124,-79 0,-79"/>
<text text-anchor="middle" x="62" y="-86" font-family="Helvetica,sans-Serif" font-size="10.00" fill="#000000">RTShaderSystemAlloc</text>
</a>
</g>
</g>
<!-- Node1&#45;&gt;Node0 -->
<g id="edge1" class="edge">
<title>Node1&#45;&gt;Node0</title>
<path fill="none" stroke="#191970" d="M134.3375,-88.5C142.7481,-88.5 151.385,-88.5 159.9461,-88.5"/>
<polygon fill="#191970" stroke="#191970" points="134.2108,-85.0001 124.2108,-88.5 134.2108,-92.0001 134.2108,-85.0001"/>
</g>
</g>
</svg>
