<?xml version="1.0" encoding="UTF-8" standalone="no"?>
<!DOCTYPE svg PUBLIC "-//W3C//DTD SVG 1.1//EN"
 "http://www.w3.org/Graphics/SVG/1.1/DTD/svg11.dtd">
<!-- Generated by graphviz version 2.40.1 (20161225.0304)
 -->
<!-- Title: Ogre::CompositorShadowNode Pages: 1 -->
<svg width="212pt" height="140pt"
 viewBox="0.00 0.00 211.50 140.00" xmlns="http://www.w3.org/2000/svg" xmlns:xlink="http://www.w3.org/1999/xlink">
<g id="graph0" class="graph" transform="scale(1 1) rotate(0) translate(4 136)">
<title>Ogre::CompositorShadowNode</title>
<!-- Node0 -->
<g id="node1" class="node">
<title>Node0</title>
<polygon fill="#bfbfbf" stroke="#000000" points="31.5,-.5 31.5,-19.5 183.5,-19.5 183.5,-.5 31.5,-.5"/>
<text text-anchor="middle" x="107.5" y="-7.5" font-family="Helvetica,sans-Serif" font-size="10.00" fill="#000000">Ogre::CompositorShadowNode</text>
</g>
<!-- Node1 -->
<g id="node2" class="node">
<title>Node1</title>
<g id="a_node2"><a xlink:href="class_ogre_1_1_compositor_node.html" target="_top" xlink:title="Compositor nodes are the core subject of compositing. ">
<polygon fill="none" stroke="#000000" points="49,-56.5 49,-75.5 166,-75.5 166,-56.5 49,-56.5"/>
<text text-anchor="middle" x="107.5" y="-63.5" font-family="Helvetica,sans-Serif" font-size="10.00" fill="#000000">Ogre::CompositorNode</text>
</a>
</g>
</g>
<!-- Node1&#45;&gt;Node0 -->
<g id="edge1" class="edge">
<title>Node1&#45;&gt;Node0</title>
<path fill="none" stroke="#191970" d="M107.5,-46.1575C107.5,-37.155 107.5,-26.9199 107.5,-19.6427"/>
<polygon fill="#191970" stroke="#191970" points="104.0001,-46.2455 107.5,-56.2455 111.0001,-46.2456 104.0001,-46.2455"/>
</g>
<!-- Node2 -->
<g id="node3" class="node">
<title>Node2</title>
<g id="a_node3"><a xlink:href="class_ogre_1_1_allocated_object.html" target="_top" xlink:title="Superclass for all objects that wish to use custom memory allocators when their new / delete operator...">
<polygon fill="none" stroke="#000000" points="0,-112.5 0,-131.5 105,-131.5 105,-112.5 0,-112.5"/>
<text text-anchor="middle" x="52.5" y="-119.5" font-family="Helvetica,sans-Serif" font-size="10.00" fill="#000000">CompositorInstAlloc</text>
</a>
</g>
</g>
<!-- Node2&#45;&gt;Node1 -->
<g id="edge2" class="edge">
<title>Node2&#45;&gt;Node1</title>
<path fill="none" stroke="#191970" d="M69.1226,-105.0751C78.5855,-95.4402 90.0969,-83.7196 98.0295,-75.6427"/>
<polygon fill="#191970" stroke="#191970" points="66.5903,-102.6585 62.0803,-112.2455 71.5845,-107.5635 66.5903,-102.6585"/>
</g>
<!-- Node3 -->
<g id="node4" class="node">
<title>Node3</title>
<g id="a_node4"><a xlink:href="class_ogre_1_1_id_object.html" target="_top" xlink:title="Ogre::IdObject">
<polygon fill="none" stroke="#000000" points="123.5,-112.5 123.5,-131.5 203.5,-131.5 203.5,-112.5 123.5,-112.5"/>
<text text-anchor="middle" x="163.5" y="-119.5" font-family="Helvetica,sans-Serif" font-size="10.00" fill="#000000">Ogre::IdObject</text>
</a>
</g>
</g>
<!-- Node3&#45;&gt;Node1 -->
<g id="edge3" class="edge">
<title>Node3&#45;&gt;Node1</title>
<path fill="none" stroke="#191970" d="M146.5751,-105.0751C136.9402,-95.4402 125.2196,-83.7196 117.1427,-75.6427"/>
<polygon fill="#191970" stroke="#191970" points="144.1996,-107.6493 153.7455,-112.2455 149.1493,-102.6996 144.1996,-107.6493"/>
</g>
</g>
</svg>
