<?xml version="1.0" encoding="UTF-8" standalone="no"?>
<!DOCTYPE svg PUBLIC "-//W3C//DTD SVG 1.1//EN"
 "http://www.w3.org/Graphics/SVG/1.1/DTD/svg11.dtd">
<!-- Generated by graphviz version 2.40.1 (20161225.0304)
 -->
<!-- Title: Ogre::Archive Pages: 1 -->
<svg width="406pt" height="140pt"
 viewBox="0.00 0.00 406.00 140.00" xmlns="http://www.w3.org/2000/svg" xmlns:xlink="http://www.w3.org/1999/xlink">
<g id="graph0" class="graph" transform="scale(1 1) rotate(0) translate(4 136)">
<title>Ogre::Archive</title>
<!-- Node0 -->
<g id="node1" class="node">
<title>Node0</title>
<polygon fill="#bfbfbf" stroke="#000000" points="188.5,-56.5 188.5,-75.5 265.5,-75.5 265.5,-56.5 188.5,-56.5"/>
<text text-anchor="middle" x="227" y="-63.5" font-family="Helvetica,sans-Serif" font-size="10.00" fill="#000000">Ogre::Archive</text>
</g>
<!-- Node2 -->
<g id="node3" class="node">
<title>Node2</title>
<g id="a_node3"><a xlink:href="class_ogre_1_1_a_p_k_file_system_archive.html" target="_top" xlink:title="Ogre::APKFileSystemArchive">
<polygon fill="none" stroke="#000000" points="0,-.5 0,-19.5 146,-19.5 146,-.5 0,-.5"/>
<text text-anchor="middle" x="73" y="-7.5" font-family="Helvetica,sans-Serif" font-size="10.00" fill="#000000">Ogre::APKFileSystemArchive</text>
</a>
</g>
</g>
<!-- Node0&#45;&gt;Node2 -->
<g id="edge2" class="edge">
<title>Node0&#45;&gt;Node2</title>
<path fill="none" stroke="#191970" d="M191.0386,-52.9231C162.8866,-42.686 124.3945,-28.6889 99.1281,-19.5011"/>
<polygon fill="#191970" stroke="#191970" points="189.9324,-56.245 200.5265,-56.3733 192.3246,-49.6665 189.9324,-56.245"/>
</g>
<!-- Node3 -->
<g id="node4" class="node">
<title>Node3</title>
<g id="a_node4"><a xlink:href="class_ogre_1_1_file_system_archive.html" target="_top" xlink:title="Specialisation of the Archive class to allow reading of files from filesystem folders / directories...">
<polygon fill="none" stroke="#000000" points="164,-.5 164,-19.5 290,-19.5 290,-.5 164,-.5"/>
<text text-anchor="middle" x="227" y="-7.5" font-family="Helvetica,sans-Serif" font-size="10.00" fill="#000000">Ogre::FileSystemArchive</text>
</a>
</g>
</g>
<!-- Node0&#45;&gt;Node3 -->
<g id="edge3" class="edge">
<title>Node0&#45;&gt;Node3</title>
<path fill="none" stroke="#191970" d="M227,-46.1575C227,-37.155 227,-26.9199 227,-19.6427"/>
<polygon fill="#191970" stroke="#191970" points="223.5001,-46.2455 227,-56.2455 230.5001,-46.2456 223.5001,-46.2455"/>
</g>
<!-- Node4 -->
<g id="node5" class="node">
<title>Node4</title>
<g id="a_node5"><a xlink:href="class_ogre_1_1_zip_archive.html" target="_top" xlink:title="Specialisation of the Archive class to allow reading of files from a zip format source archive...">
<polygon fill="none" stroke="#000000" points="308,-.5 308,-19.5 398,-19.5 398,-.5 308,-.5"/>
<text text-anchor="middle" x="353" y="-7.5" font-family="Helvetica,sans-Serif" font-size="10.00" fill="#000000">Ogre::ZipArchive</text>
</a>
</g>
</g>
<!-- Node0&#45;&gt;Node4 -->
<g id="edge4" class="edge">
<title>Node0&#45;&gt;Node4</title>
<path fill="none" stroke="#191970" d="M257.9436,-52.2473C280.8265,-42.0771 311.4014,-28.4883 331.6225,-19.5011"/>
<polygon fill="#191970" stroke="#191970" points="256.3768,-49.1135 248.6602,-56.3733 259.2198,-55.5102 256.3768,-49.1135"/>
</g>
<!-- Node1 -->
<g id="node2" class="node">
<title>Node1</title>
<g id="a_node2"><a xlink:href="class_ogre_1_1_allocated_object.html" target="_top" xlink:title="Superclass for all objects that wish to use custom memory allocators when their new / delete operator...">
<polygon fill="none" stroke="#000000" points="191.5,-112.5 191.5,-131.5 262.5,-131.5 262.5,-112.5 191.5,-112.5"/>
<text text-anchor="middle" x="227" y="-119.5" font-family="Helvetica,sans-Serif" font-size="10.00" fill="#000000">ArchiveAlloc</text>
</a>
</g>
</g>
<!-- Node1&#45;&gt;Node0 -->
<g id="edge1" class="edge">
<title>Node1&#45;&gt;Node0</title>
<path fill="none" stroke="#191970" d="M227,-102.1575C227,-93.155 227,-82.9199 227,-75.6427"/>
<polygon fill="#191970" stroke="#191970" points="223.5001,-102.2455 227,-112.2455 230.5001,-102.2456 223.5001,-102.2455"/>
</g>
</g>
</svg>
