<?xml version="1.0" encoding="UTF-8" standalone="no"?>
<!DOCTYPE svg PUBLIC "-//W3C//DTD SVG 1.1//EN"
 "http://www.w3.org/Graphics/SVG/1.1/DTD/svg11.dtd">
<!-- Generated by graphviz version 2.38.0 (20140413.2041)
 -->
<!-- Title: Ogre::SmallVectorTemplateCommon&lt; T &gt; Pages: 1 -->
<svg width="972pt" height="176pt"
 viewBox="0.00 0.00 972.00 175.50" xmlns="http://www.w3.org/2000/svg" xmlns:xlink="http://www.w3.org/1999/xlink">
<g id="graph0" class="graph" transform="scale(1 1) rotate(0) translate(4 171.5)">
<title>Ogre::SmallVectorTemplateCommon&lt; T &gt;</title>
<!-- Node1 -->
<g id="node1" class="node"><title>Node1</title>
<polygon fill="#bfbfbf" stroke="black" points="155,-88 155,-118 292,-118 292,-88 155,-88"/>
<text text-anchor="start" x="163" y="-106" font-family="Helvetica,sans-Serif" font-size="10.00">Ogre::SmallVectorTemplate</text>
<text text-anchor="middle" x="223.5" y="-95" font-family="Helvetica,sans-Serif" font-size="10.00">Common&lt; T &gt;</text>
</g>
<!-- Node3 -->
<g id="node3" class="node"><title>Node3</title>
<g id="a_node3"><a xlink:href="class_ogre_1_1_small_vector_template_base.html" target="_top" xlink:title="SmallVectorTemplateBase&lt;isPodLike = false&gt; &#45; This is where we put method implementations that are des...">
<polygon fill="none" stroke="black" points="331,-137 331,-167 468,-167 468,-137 331,-137"/>
<text text-anchor="start" x="339" y="-155" font-family="Helvetica,sans-Serif" font-size="10.00">Ogre::SmallVectorTemplate</text>
<text text-anchor="middle" x="399.5" y="-144" font-family="Helvetica,sans-Serif" font-size="10.00">Base&lt; T &gt;</text>
</a>
</g>
</g>
<!-- Node1&#45;&gt;Node3 -->
<g id="edge3" class="edge"><title>Node1&#45;&gt;Node3</title>
<path fill="none" stroke="midnightblue" d="M301.957,-118.099C323.937,-124.121 346.739,-130.956 364.661,-136.996"/>
<polygon fill="midnightblue" stroke="midnightblue" points="302.838,-114.711 292.271,-115.484 301.013,-121.469 302.838,-114.711"/>
</g>
<!-- Node1&#45;&gt;Node3 -->
<g id="edge4" class="edge"><title>Node1&#45;&gt;Node3</title>
<path fill="none" stroke="midnightblue" d="M268.017,-121.191C286.991,-127.309 309.68,-133.92 330.776,-139.529"/>
<polygon fill="midnightblue" stroke="midnightblue" points="269.055,-117.848 258.462,-118.045 266.866,-124.497 269.055,-117.848"/>
</g>
<!-- Node4 -->
<g id="node4" class="node"><title>Node4</title>
<g id="a_node4"><a xlink:href="class_ogre_1_1_small_vector_template_base_3_01_t_00_01true_01_4.html" target="_top" xlink:title="SmallVectorTemplateBase&lt;isPodLike = true&gt; &#45; This is where we put method implementations that are desi...">
<polygon fill="none" stroke="black" points="331,-88 331,-118 468,-118 468,-88 331,-88"/>
<text text-anchor="start" x="339" y="-106" font-family="Helvetica,sans-Serif" font-size="10.00">Ogre::SmallVectorTemplate</text>
<text text-anchor="middle" x="399.5" y="-95" font-family="Helvetica,sans-Serif" font-size="10.00">Base&lt; T, true &gt;</text>
</a>
</g>
</g>
<!-- Node1&#45;&gt;Node4 -->
<g id="edge5" class="edge"><title>Node1&#45;&gt;Node4</title>
<path fill="none" stroke="midnightblue" d="M302.484,-96.2823C311.969,-96.2141 321.598,-96.2539 330.914,-96.4016"/>
<polygon fill="midnightblue" stroke="midnightblue" points="302.231,-92.7849 292.271,-96.3987 302.31,-99.7844 302.231,-92.7849"/>
</g>
<!-- Node1&#45;&gt;Node4 -->
<g id="edge6" class="edge"><title>Node1&#45;&gt;Node4</title>
<path fill="none" stroke="midnightblue" d="M302.484,-109.718C311.969,-109.786 321.598,-109.746 330.914,-109.598"/>
<polygon fill="midnightblue" stroke="midnightblue" points="302.31,-106.216 292.271,-109.601 302.231,-113.215 302.31,-106.216"/>
</g>
<!-- Node5 -->
<g id="node5" class="node"><title>Node5</title>
<g id="a_node5"><a xlink:href="class_ogre_1_1_small_vector_template_base.html" target="_top" xlink:title="SmallVectorTemplateBase\l\&lt; T, isPodLike\&lt; T \&gt;::value \&gt;">
<polygon fill="none" stroke="black" points="328,-39 328,-69 471,-69 471,-39 328,-39"/>
<text text-anchor="start" x="336" y="-57" font-family="Helvetica,sans-Serif" font-size="10.00">SmallVectorTemplateBase</text>
<text text-anchor="middle" x="399.5" y="-46" font-family="Helvetica,sans-Serif" font-size="10.00">&lt; T, isPodLike&lt; T &gt;::value &gt;</text>
</a>
</g>
</g>
<!-- Node1&#45;&gt;Node5 -->
<g id="edge7" class="edge"><title>Node1&#45;&gt;Node5</title>
<path fill="none" stroke="midnightblue" d="M268.138,-84.7697C286.23,-78.939 307.683,-72.6641 327.908,-67.2373"/>
<polygon fill="midnightblue" stroke="midnightblue" points="266.866,-81.5035 258.462,-87.955 269.055,-88.1525 266.866,-81.5035"/>
</g>
<!-- Node1&#45;&gt;Node5 -->
<g id="edge17" class="edge"><title>Node1&#45;&gt;Node5</title>
<path fill="none" stroke="midnightblue" d="M301.957,-87.9013C323.937,-81.879 346.739,-75.0444 364.661,-69.0036"/>
<polygon fill="midnightblue" stroke="midnightblue" points="301.013,-84.5306 292.271,-90.5163 302.838,-91.2886 301.013,-84.5306"/>
</g>
<!-- Node2 -->
<g id="node2" class="node"><title>Node2</title>
<g id="a_node2"><a xlink:href="class_ogre_1_1_small_vector_base.html" target="_top" xlink:title="SmallVectorBase &#45; This is all the non&#45;templated stuff common to all SmallVectors. ...">
<polygon fill="none" stroke="black" points="0,-93.5 0,-112.5 119,-112.5 119,-93.5 0,-93.5"/>
<text text-anchor="middle" x="59.5" y="-100.5" font-family="Helvetica,sans-Serif" font-size="10.00">Ogre::SmallVectorBase</text>
</a>
</g>
</g>
<!-- Node2&#45;&gt;Node1 -->
<g id="edge1" class="edge"><title>Node2&#45;&gt;Node1</title>
<path fill="none" stroke="midnightblue" d="M129.543,-96.3158C137.914,-96.2231 146.459,-96.2284 154.81,-96.3317"/>
<polygon fill="midnightblue" stroke="midnightblue" points="129.387,-92.8178 119.444,-96.4775 129.499,-99.8169 129.387,-92.8178"/>
</g>
<!-- Node2&#45;&gt;Node1 -->
<g id="edge2" class="edge"><title>Node2&#45;&gt;Node1</title>
<path fill="none" stroke="midnightblue" d="M129.543,-109.684C137.914,-109.777 146.459,-109.772 154.81,-109.668"/>
<polygon fill="midnightblue" stroke="midnightblue" points="129.499,-106.183 119.444,-109.522 129.387,-113.182 129.499,-106.183"/>
</g>
<!-- Node6 -->
<g id="node6" class="node"><title>Node6</title>
<g id="a_node6"><a xlink:href="class_ogre_1_1_small_vector_impl.html" target="_top" xlink:title="SmallVectorImpl &#45; This class consists of common code factored out of the SmallVector class to reduce ...">
<polygon fill="none" stroke="black" points="507,-44.5 507,-63.5 647,-63.5 647,-44.5 507,-44.5"/>
<text text-anchor="middle" x="577" y="-51.5" font-family="Helvetica,sans-Serif" font-size="10.00">Ogre::SmallVectorImpl&lt; T &gt;</text>
</a>
</g>
</g>
<!-- Node5&#45;&gt;Node6 -->
<g id="edge8" class="edge"><title>Node5&#45;&gt;Node6</title>
<path fill="none" stroke="midnightblue" d="M481.171,-47.2696C489.783,-47.2219 498.487,-47.2614 506.947,-47.3881"/>
<polygon fill="midnightblue" stroke="midnightblue" points="481.09,-43.7701 471.124,-47.3656 481.157,-50.7698 481.09,-43.7701"/>
</g>
<!-- Node5&#45;&gt;Node6 -->
<g id="edge16" class="edge"><title>Node5&#45;&gt;Node6</title>
<path fill="none" stroke="midnightblue" d="M481.171,-60.7304C489.783,-60.7781 498.487,-60.7386 506.947,-60.6119"/>
<polygon fill="midnightblue" stroke="midnightblue" points="481.157,-57.2302 471.124,-60.6344 481.09,-64.2299 481.157,-57.2302"/>
</g>
<!-- Node7 -->
<g id="node7" class="node"><title>Node7</title>
<g id="a_node7"><a xlink:href="class_ogre_1_1_small_vector.html" target="_top" xlink:title="SmallVector &#45; This is a &#39;vector&#39; (really, a variable&#45;sized array), optimized for the case when the ar...">
<polygon fill="none" stroke="black" points="683,-88.5 683,-107.5 804,-107.5 804,-88.5 683,-88.5"/>
<text text-anchor="middle" x="743.5" y="-95.5" font-family="Helvetica,sans-Serif" font-size="10.00">Ogre::SmallVector&lt; T &gt;</text>
</a>
</g>
</g>
<!-- Node6&#45;&gt;Node7 -->
<g id="edge9" class="edge"><title>Node6&#45;&gt;Node7</title>
<path fill="none" stroke="midnightblue" d="M648.317,-66.1216C675.736,-73.1619 704.964,-81.7051 723.459,-88.3968"/>
<polygon fill="midnightblue" stroke="midnightblue" points="648.872,-62.6522 638.32,-63.6021 647.161,-69.4399 648.872,-62.6522"/>
</g>
<!-- Node6&#45;&gt;Node7 -->
<g id="edge10" class="edge"><title>Node6&#45;&gt;Node7</title>
<path fill="none" stroke="midnightblue" d="M606.473,-66.8708C627.505,-73.8875 656.888,-82.1673 682.966,-88.5919"/>
<polygon fill="midnightblue" stroke="midnightblue" points="607.465,-63.5104 596.87,-63.5413 605.172,-70.1242 607.465,-63.5104"/>
</g>
<!-- Node8 -->
<g id="node8" class="node"><title>Node8</title>
<g id="a_node8"><a xlink:href="class_ogre_1_1_small_vector_3_01_t_00_010_01_4.html" target="_top" xlink:title="Specialize SmallVector at N=0. ">
<polygon fill="none" stroke="black" points="692,-39 692,-69 795,-69 795,-39 692,-39"/>
<text text-anchor="start" x="700" y="-57" font-family="Helvetica,sans-Serif" font-size="10.00">Ogre::SmallVector&lt;</text>
<text text-anchor="middle" x="743.5" y="-46" font-family="Helvetica,sans-Serif" font-size="10.00"> T, 0 &gt;</text>
</a>
</g>
</g>
<!-- Node6&#45;&gt;Node8 -->
<g id="edge11" class="edge"><title>Node6&#45;&gt;Node8</title>
<path fill="none" stroke="midnightblue" d="M657.498,-47.2534C669.167,-47.2249 680.91,-47.3777 691.787,-47.7119"/>
<polygon fill="midnightblue" stroke="midnightblue" points="657.261,-43.7548 647.286,-47.3251 657.31,-50.7547 657.261,-43.7548"/>
</g>
<!-- Node6&#45;&gt;Node8 -->
<g id="edge12" class="edge"><title>Node6&#45;&gt;Node8</title>
<path fill="none" stroke="midnightblue" d="M657.498,-60.7466C669.167,-60.7751 680.91,-60.6223 691.787,-60.2881"/>
<polygon fill="midnightblue" stroke="midnightblue" points="657.31,-57.2453 647.286,-60.6749 657.261,-64.2452 657.31,-57.2453"/>
</g>
<!-- Node9 -->
<g id="node9" class="node"><title>Node9</title>
<g id="a_node9"><a xlink:href="class_ogre_1_1_small_vector.html" target="_top" xlink:title="SmallVector\&lt; T, S \&gt;">
<polygon fill="none" stroke="black" points="690,-0.5 690,-19.5 797,-19.5 797,-0.5 690,-0.5"/>
<text text-anchor="middle" x="743.5" y="-7.5" font-family="Helvetica,sans-Serif" font-size="10.00">SmallVector&lt; T, S &gt;</text>
</a>
</g>
</g>
<!-- Node6&#45;&gt;Node9 -->
<g id="edge13" class="edge"><title>Node6&#45;&gt;Node9</title>
<path fill="none" stroke="midnightblue" d="M606.338,-41.1744C629.25,-33.523 662.139,-24.3594 689.854,-17.7363"/>
<polygon fill="midnightblue" stroke="midnightblue" points="605.171,-37.8745 596.87,-44.4587 607.465,-44.4878 605.171,-37.8745"/>
</g>
<!-- Node6&#45;&gt;Node9 -->
<g id="edge15" class="edge"><title>Node6&#45;&gt;Node9</title>
<path fill="none" stroke="midnightblue" d="M648.317,-41.8784C675.736,-34.8381 704.964,-26.2949 723.459,-19.6032"/>
<polygon fill="midnightblue" stroke="midnightblue" points="647.161,-38.5601 638.32,-44.3979 648.872,-45.3478 647.161,-38.5601"/>
</g>
<!-- Node10 -->
<g id="node10" class="node"><title>Node10</title>
<g id="a_node10"><a xlink:href="struct_ogre_1_1_vector_set.html" target="_top" xlink:title="VectorSet is basically a helper to use a vector as a small set container. ">
<polygon fill="none" stroke="black" points="840,-0.5 840,-19.5 964,-19.5 964,-0.5 840,-0.5"/>
<text text-anchor="middle" x="902" y="-7.5" font-family="Helvetica,sans-Serif" font-size="10.00">Ogre::VectorSet&lt; T, S &gt;</text>
</a>
</g>
</g>
<!-- Node9&#45;&gt;Node10 -->
<g id="edge14" class="edge"><title>Node9&#45;&gt;Node10</title>
<path fill="none" stroke="midnightblue" d="M807.23,-10C818.01,-10 829.2,-10 839.935,-10"/>
<polygon fill="midnightblue" stroke="midnightblue" points="807.048,-6.5001 797.048,-10 807.048,-13.5001 807.048,-6.5001"/>
</g>
</g>
</svg>
