<?xml version="1.0" encoding="UTF-8" standalone="no"?>
<!DOCTYPE svg PUBLIC "-//W3C//DTD SVG 1.1//EN"
 "http://www.w3.org/Graphics/SVG/1.1/DTD/svg11.dtd">
<!-- Generated by graphviz version 2.38.0 (20140413.2041)
 -->
<!-- Title: Ogre::MovableObjectFactory Pages: 1 -->
<svg width="450pt" height="420pt"
 viewBox="0.00 0.00 450.00 420.00" xmlns="http://www.w3.org/2000/svg" xmlns:xlink="http://www.w3.org/1999/xlink">
<g id="graph0" class="graph" transform="scale(1 1) rotate(0) translate(4 416)">
<title>Ogre::MovableObjectFactory</title>
<!-- Node1 -->
<g id="node1" class="node"><title>Node1</title>
<polygon fill="#bfbfbf" stroke="black" points="111,-190.5 111,-209.5 253,-209.5 253,-190.5 111,-190.5"/>
<text text-anchor="middle" x="182" y="-197.5" font-family="Helvetica,sans-Serif" font-size="10.00">Ogre::MovableObjectFactory</text>
</g>
<!-- Node3 -->
<g id="node3" class="node"><title>Node3</title>
<g id="a_node3"><a xlink:href="class_ogre_1_1_item_factory.html" target="_top" xlink:title="FItemy object for creating Item instances. ">
<polygon fill="none" stroke="black" points="317.5,-392.5 317.5,-411.5 413.5,-411.5 413.5,-392.5 317.5,-392.5"/>
<text text-anchor="middle" x="365.5" y="-399.5" font-family="Helvetica,sans-Serif" font-size="10.00">Ogre::ItemFactory</text>
</a>
</g>
</g>
<!-- Node1&#45;&gt;Node3 -->
<g id="edge2" class="edge"><title>Node1&#45;&gt;Node3</title>
<path fill="none" stroke="midnightblue" d="M188.659,-219.535C200.625,-257.25 232.171,-340.142 289,-383 297.202,-389.185 307.188,-393.373 317.176,-396.203"/>
<polygon fill="midnightblue" stroke="midnightblue" points="191.946,-218.314 185.682,-209.769 185.25,-220.355 191.946,-218.314"/>
</g>
<!-- Node4 -->
<g id="node4" class="node"><title>Node4</title>
<g id="a_node4"><a xlink:href="class_ogre_1_1_light_factory.html" target="_top" xlink:title="Factory object for creating Light instances. ">
<polygon fill="none" stroke="black" points="316.5,-354.5 316.5,-373.5 414.5,-373.5 414.5,-354.5 316.5,-354.5"/>
<text text-anchor="middle" x="365.5" y="-361.5" font-family="Helvetica,sans-Serif" font-size="10.00">Ogre::LightFactory</text>
</a>
</g>
</g>
<!-- Node1&#45;&gt;Node4 -->
<g id="edge3" class="edge"><title>Node1&#45;&gt;Node4</title>
<path fill="none" stroke="midnightblue" d="M191.442,-218.883C206.42,-250.146 240.677,-312.432 289,-345 297.182,-350.514 306.837,-354.429 316.46,-357.207"/>
<polygon fill="midnightblue" stroke="midnightblue" points="194.497,-217.152 187.11,-209.558 188.149,-220.102 194.497,-217.152"/>
</g>
<!-- Node5 -->
<g id="node5" class="node"><title>Node5</title>
<g id="a_node5"><a xlink:href="class_ogre_1_1_manual_object_factory.html" target="_top" xlink:title="Factory object for creating ManualObject instances. ">
<polygon fill="none" stroke="black" points="297,-316.5 297,-335.5 434,-335.5 434,-316.5 297,-316.5"/>
<text text-anchor="middle" x="365.5" y="-323.5" font-family="Helvetica,sans-Serif" font-size="10.00">Ogre::ManualObjectFactory</text>
</a>
</g>
</g>
<!-- Node1&#45;&gt;Node5 -->
<g id="edge4" class="edge"><title>Node1&#45;&gt;Node5</title>
<path fill="none" stroke="midnightblue" d="M195.733,-217.95C213.731,-241.958 248.919,-284.141 289,-307 295.81,-310.884 303.409,-313.983 311.091,-316.454"/>
<polygon fill="midnightblue" stroke="midnightblue" points="198.435,-215.717 189.702,-209.718 192.788,-219.853 198.435,-215.717"/>
</g>
<!-- Node6 -->
<g id="node6" class="node"><title>Node6</title>
<g id="a_node6"><a xlink:href="class_ogre_1_1_particle_system_factory.html" target="_top" xlink:title="Factory object for creating ParticleSystem instances. ">
<polygon fill="none" stroke="black" points="294,-278.5 294,-297.5 437,-297.5 437,-278.5 294,-278.5"/>
<text text-anchor="middle" x="365.5" y="-285.5" font-family="Helvetica,sans-Serif" font-size="10.00">Ogre::ParticleSystemFactory</text>
</a>
</g>
</g>
<!-- Node1&#45;&gt;Node6 -->
<g id="edge5" class="edge"><title>Node1&#45;&gt;Node6</title>
<path fill="none" stroke="midnightblue" d="M202.908,-215.863C223.394,-231.464 256.779,-254.927 289,-269 297.671,-272.787 307.244,-275.923 316.579,-278.482"/>
<polygon fill="midnightblue" stroke="midnightblue" points="205.009,-213.063 194.959,-209.709 200.724,-218.598 205.009,-213.063"/>
</g>
<!-- Node7 -->
<g id="node7" class="node"><title>Node7</title>
<g id="a_node7"><a xlink:href="class_ogre_1_1v1_1_1_billboard_chain_factory.html" target="_top" xlink:title="Factory object for creating BillboardChain instances. ">
<polygon fill="none" stroke="black" points="304,-229 304,-259 427,-259 427,-229 304,-229"/>
<text text-anchor="start" x="312" y="-247" font-family="Helvetica,sans-Serif" font-size="10.00">Ogre::v1::BillboardChain</text>
<text text-anchor="middle" x="365.5" y="-236" font-family="Helvetica,sans-Serif" font-size="10.00">Factory</text>
</a>
</g>
</g>
<!-- Node1&#45;&gt;Node7 -->
<g id="edge6" class="edge"><title>Node1&#45;&gt;Node7</title>
<path fill="none" stroke="midnightblue" d="M232.199,-211.927C254.261,-217.275 280.5,-223.636 303.771,-229.278"/>
<polygon fill="midnightblue" stroke="midnightblue" points="232.926,-208.502 222.383,-209.547 231.277,-215.305 232.926,-208.502"/>
</g>
<!-- Node8 -->
<g id="node8" class="node"><title>Node8</title>
<g id="a_node8"><a xlink:href="class_ogre_1_1v1_1_1_billboard_set_factory.html" target="_top" xlink:title="Factory object for creating BillboardSet instances. ">
<polygon fill="none" stroke="black" points="292.5,-190.5 292.5,-209.5 438.5,-209.5 438.5,-190.5 292.5,-190.5"/>
<text text-anchor="middle" x="365.5" y="-197.5" font-family="Helvetica,sans-Serif" font-size="10.00">Ogre::v1::BillboardSetFactory</text>
</a>
</g>
</g>
<!-- Node1&#45;&gt;Node8 -->
<g id="edge7" class="edge"><title>Node1&#45;&gt;Node8</title>
<path fill="none" stroke="midnightblue" d="M263.223,-200C272.941,-200 282.824,-200 292.415,-200"/>
<polygon fill="midnightblue" stroke="midnightblue" points="263.173,-196.5 253.173,-200 263.173,-203.5 263.173,-196.5"/>
</g>
<!-- Node9 -->
<g id="node9" class="node"><title>Node9</title>
<g id="a_node9"><a xlink:href="class_ogre_1_1v1_1_1_entity_factory.html" target="_top" xlink:title="Factory object for creating Entity instances. ">
<polygon fill="none" stroke="black" points="306,-152.5 306,-171.5 425,-171.5 425,-152.5 306,-152.5"/>
<text text-anchor="middle" x="365.5" y="-159.5" font-family="Helvetica,sans-Serif" font-size="10.00">Ogre::v1::EntityFactory</text>
</a>
</g>
</g>
<!-- Node1&#45;&gt;Node9 -->
<g id="edge8" class="edge"><title>Node1&#45;&gt;Node9</title>
<path fill="none" stroke="midnightblue" d="M238.792,-188.319C264.531,-182.93 294.699,-176.614 319.029,-171.52"/>
<polygon fill="midnightblue" stroke="midnightblue" points="237.871,-184.936 228.8,-190.411 239.305,-191.787 237.871,-184.936"/>
</g>
<!-- Node10 -->
<g id="node10" class="node"><title>Node10</title>
<g id="a_node10"><a xlink:href="class_ogre_1_1v1_1_1_manual_object_factory.html" target="_top" xlink:title="Factory object for creating ManualObject instances. ">
<polygon fill="none" stroke="black" points="289,-114.5 289,-133.5 442,-133.5 442,-114.5 289,-114.5"/>
<text text-anchor="middle" x="365.5" y="-121.5" font-family="Helvetica,sans-Serif" font-size="10.00">Ogre::v1::ManualObjectFactory</text>
</a>
</g>
</g>
<!-- Node1&#45;&gt;Node10 -->
<g id="edge9" class="edge"><title>Node1&#45;&gt;Node10</title>
<path fill="none" stroke="midnightblue" d="M206.425,-185.218C227.387,-172.529 259.303,-154.517 289,-143 298.451,-139.335 308.845,-136.186 318.818,-133.566"/>
<polygon fill="midnightblue" stroke="midnightblue" points="204.573,-182.248 197.881,-190.463 208.235,-188.214 204.573,-182.248"/>
</g>
<!-- Node11 -->
<g id="node11" class="node"><title>Node11</title>
<g id="a_node11"><a xlink:href="class_ogre_1_1v1_1_1_rectangle2_d_factory.html" target="_top" xlink:title="Factory object for creating Entity instances. ">
<polygon fill="none" stroke="black" points="290.5,-76.5 290.5,-95.5 440.5,-95.5 440.5,-76.5 290.5,-76.5"/>
<text text-anchor="middle" x="365.5" y="-83.5" font-family="Helvetica,sans-Serif" font-size="10.00">Ogre::v1::Rectangle2DFactory</text>
</a>
</g>
</g>
<!-- Node1&#45;&gt;Node11 -->
<g id="edge10" class="edge"><title>Node1&#45;&gt;Node11</title>
<path fill="none" stroke="midnightblue" d="M197.577,-182.528C216.46,-161.041 251.437,-124.97 289,-105 296.28,-101.13 304.378,-98.025 312.489,-95.5409"/>
<polygon fill="midnightblue" stroke="midnightblue" points="194.809,-180.379 190.94,-190.242 200.115,-184.944 194.809,-180.379"/>
</g>
<!-- Node12 -->
<g id="node12" class="node"><title>Node12</title>
<g id="a_node12"><a xlink:href="class_ogre_1_1v1_1_1_ribbon_trail_factory.html" target="_top" xlink:title="Factory object for creating RibbonTrail instances. ">
<polygon fill="none" stroke="black" points="294,-38.5 294,-57.5 437,-57.5 437,-38.5 294,-38.5"/>
<text text-anchor="middle" x="365.5" y="-45.5" font-family="Helvetica,sans-Serif" font-size="10.00">Ogre::v1::RibbonTrailFactory</text>
</a>
</g>
</g>
<!-- Node1&#45;&gt;Node12 -->
<g id="edge11" class="edge"><title>Node1&#45;&gt;Node12</title>
<path fill="none" stroke="midnightblue" d="M192.761,-181.042C208.783,-151.879 243.48,-96.3196 289,-67 295.023,-63.1209 301.787,-60.0336 308.729,-57.5766"/>
<polygon fill="midnightblue" stroke="midnightblue" points="189.51,-179.7 187.886,-190.17 195.684,-182.998 189.51,-179.7"/>
</g>
<!-- Node13 -->
<g id="node13" class="node"><title>Node13</title>
<g id="a_node13"><a xlink:href="class_ogre_1_1_wire_aabb_factory.html" target="_top" xlink:title="Factory object for creating WireAabb instances. ">
<polygon fill="none" stroke="black" points="306,-0.5 306,-19.5 425,-19.5 425,-0.5 306,-0.5"/>
<text text-anchor="middle" x="365.5" y="-7.5" font-family="Helvetica,sans-Serif" font-size="10.00">Ogre::WireAabbFactory</text>
</a>
</g>
</g>
<!-- Node1&#45;&gt;Node13 -->
<g id="edge12" class="edge"><title>Node1&#45;&gt;Node13</title>
<path fill="none" stroke="midnightblue" d="M189.386,-180.771C202.262,-145.075 234.824,-68.6012 289,-29 294.347,-25.0916 300.413,-21.9833 306.727,-19.512"/>
<polygon fill="midnightblue" stroke="midnightblue" points="185.997,-179.86 186.02,-190.455 192.609,-182.158 185.997,-179.86"/>
</g>
<!-- Node2 -->
<g id="node2" class="node"><title>Node2</title>
<g id="a_node2"><a xlink:href="class_ogre_1_1_allocated_object.html" target="_top" xlink:title="Superclass for all objects that wish to use custom memory allocators when their new / delete operator...">
<polygon fill="none" stroke="black" points="0,-190.5 0,-209.5 75,-209.5 75,-190.5 0,-190.5"/>
<text text-anchor="middle" x="37.5" y="-197.5" font-family="Helvetica,sans-Serif" font-size="10.00">MovableAlloc</text>
</a>
</g>
</g>
<!-- Node2&#45;&gt;Node1 -->
<g id="edge1" class="edge"><title>Node2&#45;&gt;Node1</title>
<path fill="none" stroke="midnightblue" d="M85.3076,-200C93.5287,-200 102.244,-200 110.936,-200"/>
<polygon fill="midnightblue" stroke="midnightblue" points="85.1973,-196.5 75.1973,-200 85.1973,-203.5 85.1973,-196.5"/>
</g>
</g>
</svg>
