<?xml version="1.0" encoding="UTF-8" standalone="no"?>
<!DOCTYPE svg PUBLIC "-//W3C//DTD SVG 1.1//EN"
 "http://www.w3.org/Graphics/SVG/1.1/DTD/svg11.dtd">
<!-- Generated by graphviz version 2.40.1 (20161225.0304)
 -->
<!-- Title: Ogre::v1::MeshSerializerImpl Pages: 1 -->
<svg width="151pt" height="408pt"
 viewBox="0.00 0.00 151.00 408.00" xmlns="http://www.w3.org/2000/svg" xmlns:xlink="http://www.w3.org/1999/xlink">
<g id="graph0" class="graph" transform="scale(1 1) rotate(0) translate(4 404)">
<title>Ogre::v1::MeshSerializerImpl</title>
<!-- Node0 -->
<g id="node1" class="node">
<title>Node0</title>
<polygon fill="#bfbfbf" stroke="#000000" points="0,-268.5 0,-287.5 143,-287.5 143,-268.5 0,-268.5"/>
<text text-anchor="middle" x="71.5" y="-275.5" font-family="Helvetica,sans-Serif" font-size="10.00" fill="#000000">Ogre::v1::MeshSerializerImpl</text>
</g>
<!-- Node3 -->
<g id="node4" class="node">
<title>Node3</title>
<g id="a_node4"><a xlink:href="class_ogre_1_1v1_1_1_mesh_serializer_impl__v1__10.html" target="_top" xlink:title="Class for providing backwards&#45;compatibility for loading version 1.10 of the .mesh format...">
<polygon fill="none" stroke="#000000" points="9,-201.5 9,-231.5 134,-231.5 134,-201.5 9,-201.5"/>
<text text-anchor="start" x="17" y="-219.5" font-family="Helvetica,sans-Serif" font-size="10.00" fill="#000000">Ogre::v1::MeshSerializer</text>
<text text-anchor="middle" x="71.5" y="-208.5" font-family="Helvetica,sans-Serif" font-size="10.00" fill="#000000">Impl_v1_10</text>
</a>
</g>
</g>
<!-- Node0&#45;&gt;Node3 -->
<g id="edge3" class="edge">
<title>Node0&#45;&gt;Node3</title>
<path fill="none" stroke="#191970" d="M71.5,-258.3693C71.5,-249.681 71.5,-239.6241 71.5,-231.5446"/>
<polygon fill="#191970" stroke="#191970" points="68.0001,-258.3906 71.5,-268.3906 75.0001,-258.3907 68.0001,-258.3906"/>
</g>
<!-- Node1 -->
<g id="node2" class="node">
<title>Node1</title>
<g id="a_node2"><a xlink:href="class_ogre_1_1_serializer.html" target="_top" xlink:title="Generic class for serialising data to / from binary stream&#45;based files. ">
<polygon fill="none" stroke="#000000" points="29.5,-324.5 29.5,-343.5 113.5,-343.5 113.5,-324.5 29.5,-324.5"/>
<text text-anchor="middle" x="71.5" y="-331.5" font-family="Helvetica,sans-Serif" font-size="10.00" fill="#000000">Ogre::Serializer</text>
</a>
</g>
</g>
<!-- Node1&#45;&gt;Node0 -->
<g id="edge1" class="edge">
<title>Node1&#45;&gt;Node0</title>
<path fill="none" stroke="#191970" d="M71.5,-314.1575C71.5,-305.155 71.5,-294.9199 71.5,-287.6427"/>
<polygon fill="#191970" stroke="#191970" points="68.0001,-314.2455 71.5,-324.2455 75.0001,-314.2456 68.0001,-314.2455"/>
</g>
<!-- Node2 -->
<g id="node3" class="node">
<title>Node2</title>
<g id="a_node3"><a xlink:href="class_ogre_1_1_allocated_object.html" target="_top" xlink:title="Superclass for all objects that wish to use custom memory allocators when their new / delete operator...">
<polygon fill="none" stroke="#000000" points="32,-380.5 32,-399.5 111,-399.5 111,-380.5 32,-380.5"/>
<text text-anchor="middle" x="71.5" y="-387.5" font-family="Helvetica,sans-Serif" font-size="10.00" fill="#000000">SerializerAlloc</text>
</a>
</g>
</g>
<!-- Node2&#45;&gt;Node1 -->
<g id="edge2" class="edge">
<title>Node2&#45;&gt;Node1</title>
<path fill="none" stroke="#191970" d="M71.5,-370.1575C71.5,-361.155 71.5,-350.9199 71.5,-343.6427"/>
<polygon fill="#191970" stroke="#191970" points="68.0001,-370.2455 71.5,-380.2455 75.0001,-370.2456 68.0001,-370.2455"/>
</g>
<!-- Node4 -->
<g id="node5" class="node">
<title>Node4</title>
<g id="a_node5"><a xlink:href="class_ogre_1_1v1_1_1_mesh_serializer_impl__v1__8.html" target="_top" xlink:title="Class for providing backwards&#45;compatibility for loading version 1.8 of the .mesh format. ">
<polygon fill="none" stroke="#000000" points="9,-134.5 9,-164.5 134,-164.5 134,-134.5 9,-134.5"/>
<text text-anchor="start" x="17" y="-152.5" font-family="Helvetica,sans-Serif" font-size="10.00" fill="#000000">Ogre::v1::MeshSerializer</text>
<text text-anchor="middle" x="71.5" y="-141.5" font-family="Helvetica,sans-Serif" font-size="10.00" fill="#000000">Impl_v1_8</text>
</a>
</g>
</g>
<!-- Node3&#45;&gt;Node4 -->
<g id="edge4" class="edge">
<title>Node3&#45;&gt;Node4</title>
<path fill="none" stroke="#191970" d="M71.5,-191.0249C71.5,-182.128 71.5,-172.4287 71.5,-164.6432"/>
<polygon fill="#191970" stroke="#191970" points="68.0001,-191.2966 71.5,-201.2967 75.0001,-191.2967 68.0001,-191.2966"/>
</g>
<!-- Node5 -->
<g id="node6" class="node">
<title>Node5</title>
<g id="a_node6"><a xlink:href="class_ogre_1_1v1_1_1_mesh_serializer_impl__v1__41.html" target="_top" xlink:title="Class for providing backwards&#45;compatibility for loading version 1.41 of the .mesh format...">
<polygon fill="none" stroke="#000000" points="9,-67.5 9,-97.5 134,-97.5 134,-67.5 9,-67.5"/>
<text text-anchor="start" x="17" y="-85.5" font-family="Helvetica,sans-Serif" font-size="10.00" fill="#000000">Ogre::v1::MeshSerializer</text>
<text text-anchor="middle" x="71.5" y="-74.5" font-family="Helvetica,sans-Serif" font-size="10.00" fill="#000000">Impl_v1_41</text>
</a>
</g>
</g>
<!-- Node4&#45;&gt;Node5 -->
<g id="edge5" class="edge">
<title>Node4&#45;&gt;Node5</title>
<path fill="none" stroke="#191970" d="M71.5,-124.0249C71.5,-115.128 71.5,-105.4287 71.5,-97.6432"/>
<polygon fill="#191970" stroke="#191970" points="68.0001,-124.2966 71.5,-134.2967 75.0001,-124.2967 68.0001,-124.2966"/>
</g>
<!-- Node6 -->
<g id="node7" class="node">
<title>Node6</title>
<g id="a_node7"><a xlink:href="class_ogre_1_1v1_1_1_mesh_serializer_impl__v1__4.html" target="_top" xlink:title="Class for providing backwards&#45;compatibility for loading version 1.4 of the .mesh format. ">
<polygon fill="none" stroke="#ff0000" points="9,-.5 9,-30.5 134,-30.5 134,-.5 9,-.5"/>
<text text-anchor="start" x="17" y="-18.5" font-family="Helvetica,sans-Serif" font-size="10.00" fill="#000000">Ogre::v1::MeshSerializer</text>
<text text-anchor="middle" x="71.5" y="-7.5" font-family="Helvetica,sans-Serif" font-size="10.00" fill="#000000">Impl_v1_4</text>
</a>
</g>
</g>
<!-- Node5&#45;&gt;Node6 -->
<g id="edge6" class="edge">
<title>Node5&#45;&gt;Node6</title>
<path fill="none" stroke="#191970" d="M71.5,-57.0249C71.5,-48.128 71.5,-38.4287 71.5,-30.6432"/>
<polygon fill="#191970" stroke="#191970" points="68.0001,-57.2966 71.5,-67.2967 75.0001,-57.2967 68.0001,-57.2966"/>
</g>
</g>
</svg>
