<?xml version="1.0" encoding="UTF-8" standalone="no"?>
<!DOCTYPE svg PUBLIC "-//W3C//DTD SVG 1.1//EN"
 "http://www.w3.org/Graphics/SVG/1.1/DTD/svg11.dtd">
<!-- Generated by graphviz version 2.38.0 (20140413.2041)
 -->
<!-- Title: Ogre::GLSLESLinkProgramManager Pages: 1 -->
<svg width="332pt" height="95pt"
 viewBox="0.00 0.00 331.50 95.00" xmlns="http://www.w3.org/2000/svg" xmlns:xlink="http://www.w3.org/1999/xlink">
<g id="graph0" class="graph" transform="scale(1 1) rotate(0) translate(4 91)">
<title>Ogre::GLSLESLinkProgramManager</title>
<!-- Node1 -->
<g id="node1" class="node"><title>Node1</title>
<polygon fill="#bfbfbf" stroke="black" points="76,-0.5 76,-19.5 250,-19.5 250,-0.5 76,-0.5"/>
<text text-anchor="middle" x="163" y="-7.5" font-family="Helvetica,sans-Serif" font-size="10.00">Ogre::GLSLESLinkProgramManager</text>
</g>
<!-- Node2 -->
<g id="node2" class="node"><title>Node2</title>
<g id="a_node2"><a xlink:href="class_ogre_1_1_g_l_s_l_e_s_program_manager_common.html" target="_top" xlink:title="Ogre assumes that there are separate vertex and fragment programs to deal with but GLSL ES has one pr...">
<polygon fill="none" stroke="black" points="0,-56.5 0,-86.5 156,-86.5 156,-56.5 0,-56.5"/>
<text text-anchor="start" x="8" y="-74.5" font-family="Helvetica,sans-Serif" font-size="10.00">Ogre::GLSLESProgramManager</text>
<text text-anchor="middle" x="78" y="-63.5" font-family="Helvetica,sans-Serif" font-size="10.00">Common</text>
</a>
</g>
</g>
<!-- Node2&#45;&gt;Node1 -->
<g id="edge1" class="edge"><title>Node2&#45;&gt;Node1</title>
<path fill="none" stroke="midnightblue" d="M106.596,-50.483C121.57,-40.0013 139.131,-27.7081 150.632,-19.6578"/>
<polygon fill="midnightblue" stroke="midnightblue" points="104.329,-47.7973 98.1438,-56.3993 108.343,-53.532 104.329,-47.7973"/>
</g>
<!-- Node3 -->
<g id="node3" class="node"><title>Node3</title>
<g id="a_node3"><a xlink:href="class_ogre_1_1_singleton.html" target="_top" xlink:title="Ogre::Singleton\&lt; GLSLESLink\lProgramManager \&gt;">
<polygon fill="none" stroke="black" points="174.5,-56.5 174.5,-86.5 323.5,-86.5 323.5,-56.5 174.5,-56.5"/>
<text text-anchor="start" x="182.5" y="-74.5" font-family="Helvetica,sans-Serif" font-size="10.00">Ogre::Singleton&lt; GLSLESLink</text>
<text text-anchor="middle" x="249" y="-63.5" font-family="Helvetica,sans-Serif" font-size="10.00">ProgramManager &gt;</text>
</a>
</g>
</g>
<!-- Node3&#45;&gt;Node1 -->
<g id="edge2" class="edge"><title>Node3&#45;&gt;Node1</title>
<path fill="none" stroke="midnightblue" d="M220.068,-50.483C204.918,-40.0013 187.15,-27.7081 175.514,-19.6578"/>
<polygon fill="midnightblue" stroke="midnightblue" points="218.404,-53.588 228.619,-56.3993 222.387,-47.8314 218.404,-53.588"/>
</g>
</g>
</svg>
