<?xml version="1.0" encoding="UTF-8" standalone="no"?>
<!DOCTYPE svg PUBLIC "-//W3C//DTD SVG 1.1//EN"
 "http://www.w3.org/Graphics/SVG/1.1/DTD/svg11.dtd">
<!-- Generated by graphviz version 2.38.0 (20140413.2041)
 -->
<!-- Title: Ogre::FileStreamDataStream Pages: 1 -->
<svg width="151pt" height="140pt"
 viewBox="0.00 0.00 151.00 140.00" xmlns="http://www.w3.org/2000/svg" xmlns:xlink="http://www.w3.org/1999/xlink">
<g id="graph0" class="graph" transform="scale(1 1) rotate(0) translate(4 136)">
<title>Ogre::FileStreamDataStream</title>
<!-- Node1 -->
<g id="node1" class="node"><title>Node1</title>
<polygon fill="#bfbfbf" stroke="black" points="0,-0.5 0,-19.5 143,-19.5 143,-0.5 0,-0.5"/>
<text text-anchor="middle" x="71.5" y="-7.5" font-family="Helvetica,sans-Serif" font-size="10.00">Ogre::FileStreamDataStream</text>
</g>
<!-- Node2 -->
<g id="node2" class="node"><title>Node2</title>
<g id="a_node2"><a xlink:href="class_ogre_1_1_data_stream.html" target="_top" xlink:title="General purpose class used for encapsulating the reading and writing of data. ">
<polygon fill="none" stroke="black" points="23.5,-56.5 23.5,-75.5 119.5,-75.5 119.5,-56.5 23.5,-56.5"/>
<text text-anchor="middle" x="71.5" y="-63.5" font-family="Helvetica,sans-Serif" font-size="10.00">Ogre::DataStream</text>
</a>
</g>
</g>
<!-- Node2&#45;&gt;Node1 -->
<g id="edge1" class="edge"><title>Node2&#45;&gt;Node1</title>
<path fill="none" stroke="midnightblue" d="M71.5,-45.8045C71.5,-36.9102 71.5,-26.7798 71.5,-19.7511"/>
<polygon fill="midnightblue" stroke="midnightblue" points="68.0001,-46.083 71.5,-56.083 75.0001,-46.083 68.0001,-46.083"/>
</g>
<!-- Node3 -->
<g id="node3" class="node"><title>Node3</title>
<g id="a_node3"><a xlink:href="class_ogre_1_1_allocated_object.html" target="_top" xlink:title="Superclass for all objects that wish to use custom memory allocators when their new / delete operator...">
<polygon fill="none" stroke="black" points="36.5,-112.5 36.5,-131.5 106.5,-131.5 106.5,-112.5 36.5,-112.5"/>
<text text-anchor="middle" x="71.5" y="-119.5" font-family="Helvetica,sans-Serif" font-size="10.00">StreamAlloc</text>
</a>
</g>
</g>
<!-- Node3&#45;&gt;Node2 -->
<g id="edge2" class="edge"><title>Node3&#45;&gt;Node2</title>
<path fill="none" stroke="midnightblue" d="M71.5,-101.805C71.5,-92.9102 71.5,-82.7798 71.5,-75.7511"/>
<polygon fill="midnightblue" stroke="midnightblue" points="68.0001,-102.083 71.5,-112.083 75.0001,-102.083 68.0001,-102.083"/>
</g>
</g>
</svg>
