<?xml version="1.0" encoding="UTF-8" standalone="no"?>
<!DOCTYPE svg PUBLIC "-//W3C//DTD SVG 1.1//EN"
 "http://www.w3.org/Graphics/SVG/1.1/DTD/svg11.dtd">
<!-- Generated by graphviz version 2.40.1 (20161225.0304)
 -->
<!-- Title: Ogre::HighLevelGpuProgram Pages: 1 -->
<svg width="721pt" height="192pt"
 viewBox="0.00 0.00 721.00 191.50" xmlns="http://www.w3.org/2000/svg" xmlns:xlink="http://www.w3.org/1999/xlink">
<g id="graph0" class="graph" transform="scale(1 1) rotate(0) translate(4 187.5)">
<title>Ogre::HighLevelGpuProgram</title>
<!-- Node0 -->
<g id="node1" class="node">
<title>Node0</title>
<polygon fill="#bfbfbf" stroke="#000000" points="399,-88 399,-107 541,-107 541,-88 399,-88"/>
<text text-anchor="middle" x="470" y="-95" font-family="Helvetica,sans-Serif" font-size="10.00" fill="#000000">Ogre::HighLevelGpuProgram</text>
</g>
<!-- Node5 -->
<g id="node6" class="node">
<title>Node5</title>
<g id="a_node6"><a xlink:href="class_ogre_1_1_d3_d11_h_l_s_l_program.html" target="_top" xlink:title="Specialization of HighLevelGpuProgram to provide support for D3D11 High&#45;Level Shader Language (HLSL)...">
<polygon fill="none" stroke="#000000" points="577,-164 577,-183 713,-183 713,-164 577,-164"/>
<text text-anchor="middle" x="645" y="-171" font-family="Helvetica,sans-Serif" font-size="10.00" fill="#000000">Ogre::D3D11HLSLProgram</text>
</a>
</g>
</g>
<!-- Node0&#45;&gt;Node5 -->
<g id="edge5" class="edge">
<title>Node0&#45;&gt;Node5</title>
<path fill="none" stroke="#191970" d="M494.1052,-112.2952C515.3297,-124.8412 547.385,-142.6382 577,-154.5 585.9893,-158.1005 595.9062,-161.2883 605.3221,-163.975"/>
<polygon fill="#191970" stroke="#191970" points="495.8152,-109.2397 485.4373,-107.1067 492.22,-115.2459 495.8152,-109.2397"/>
</g>
<!-- Node6 -->
<g id="node7" class="node">
<title>Node6</title>
<g id="a_node7"><a xlink:href="class_ogre_1_1_d3_d9_h_l_s_l_program.html" target="_top" xlink:title="Specialisation of HighLevelGpuProgram to provide support for D3D9 High&#45;Level Shader Language (HLSL)...">
<polygon fill="none" stroke="#000000" points="579.5,-126 579.5,-145 710.5,-145 710.5,-126 579.5,-126"/>
<text text-anchor="middle" x="645" y="-133" font-family="Helvetica,sans-Serif" font-size="10.00" fill="#000000">Ogre::D3D9HLSLProgram</text>
</a>
</g>
</g>
<!-- Node0&#45;&gt;Node6 -->
<g id="edge6" class="edge">
<title>Node0&#45;&gt;Node6</title>
<path fill="none" stroke="#191970" d="M524.1237,-109.2526C548.8687,-114.6258 577.8028,-120.9086 601.1577,-125.9799"/>
<polygon fill="#191970" stroke="#191970" points="524.6749,-105.7908 514.1599,-107.089 523.1894,-112.6314 524.6749,-105.7908"/>
</g>
<!-- Node7 -->
<g id="node8" class="node">
<title>Node7</title>
<g id="a_node8"><a xlink:href="class_ogre_1_1_g_l_s_l_shader.html" target="_top" xlink:title="Specialisation of HighLevelGpuProgram to encapsulate shader objects obtained from compiled shaders wr...">
<polygon fill="none" stroke="#000000" points="595.5,-88 595.5,-107 694.5,-107 694.5,-88 595.5,-88"/>
<text text-anchor="middle" x="645" y="-95" font-family="Helvetica,sans-Serif" font-size="10.00" fill="#000000">Ogre::GLSLShader</text>
</a>
</g>
</g>
<!-- Node0&#45;&gt;Node7 -->
<g id="edge7" class="edge">
<title>Node0&#45;&gt;Node7</title>
<path fill="none" stroke="#191970" d="M551.4801,-97.5C566.4448,-97.5 581.6455,-97.5 595.3201,-97.5"/>
<polygon fill="#191970" stroke="#191970" points="551.1792,-94.0001 541.1792,-97.5 551.1792,-101.0001 551.1792,-94.0001"/>
</g>
<!-- Node8 -->
<g id="node9" class="node">
<title>Node8</title>
<g id="a_node9"><a xlink:href="class_ogre_1_1_metal_program.html" target="_top" xlink:title="Specialisation of HighLevelGpuProgram to provide support for Metal Shader Language. ">
<polygon fill="none" stroke="#000000" points="593,-50 593,-69 697,-69 697,-50 593,-50"/>
<text text-anchor="middle" x="645" y="-57" font-family="Helvetica,sans-Serif" font-size="10.00" fill="#000000">Ogre::MetalProgram</text>
</a>
</g>
</g>
<!-- Node0&#45;&gt;Node8 -->
<g id="edge8" class="edge">
<title>Node0&#45;&gt;Node8</title>
<path fill="none" stroke="#191970" d="M524.1237,-85.7474C548.8687,-80.3742 577.8028,-74.0914 601.1577,-69.0201"/>
<polygon fill="#191970" stroke="#191970" points="523.1894,-82.3686 514.1599,-87.911 524.6749,-89.2092 523.1894,-82.3686"/>
</g>
<!-- Node9 -->
<g id="node10" class="node">
<title>Node9</title>
<g id="a_node10"><a xlink:href="class_ogre_1_1_unified_high_level_gpu_program.html" target="_top" xlink:title="Specialisation of HighLevelGpuProgram which just delegates its implementation to one other high level...">
<polygon fill="none" stroke="#000000" points="577,-.5 577,-30.5 713,-30.5 713,-.5 577,-.5"/>
<text text-anchor="start" x="585" y="-18.5" font-family="Helvetica,sans-Serif" font-size="10.00" fill="#000000">Ogre::UnifiedHighLevelGpu</text>
<text text-anchor="middle" x="645" y="-7.5" font-family="Helvetica,sans-Serif" font-size="10.00" fill="#000000">Program</text>
</a>
</g>
</g>
<!-- Node0&#45;&gt;Node9 -->
<g id="edge9" class="edge">
<title>Node0&#45;&gt;Node9</title>
<path fill="none" stroke="#191970" d="M495.0949,-82.8682C516.4738,-70.7119 548.2167,-53.3846 577,-40.5 584.6918,-37.0568 593.0153,-33.7035 601.1128,-30.6289"/>
<polygon fill="#191970" stroke="#191970" points="493.2627,-79.8841 486.3279,-87.894 496.7442,-85.957 493.2627,-79.8841"/>
</g>
<!-- Node1 -->
<g id="node2" class="node">
<title>Node1</title>
<g id="a_node2"><a xlink:href="class_ogre_1_1_gpu_program.html" target="_top" xlink:title="Defines a program which runs on the GPU such as a vertex or fragment program. ">
<polygon fill="none" stroke="#000000" points="265,-88 265,-107 363,-107 363,-88 265,-88"/>
<text text-anchor="middle" x="314" y="-95" font-family="Helvetica,sans-Serif" font-size="10.00" fill="#000000">Ogre::GpuProgram</text>
</a>
</g>
</g>
<!-- Node1&#45;&gt;Node0 -->
<g id="edge1" class="edge">
<title>Node1&#45;&gt;Node0</title>
<path fill="none" stroke="#191970" d="M373.5907,-97.5C381.8138,-97.5 390.3263,-97.5 398.7338,-97.5"/>
<polygon fill="#191970" stroke="#191970" points="373.3594,-94.0001 363.3594,-97.5 373.3593,-101.0001 373.3594,-94.0001"/>
</g>
<!-- Node2 -->
<g id="node3" class="node">
<title>Node2</title>
<g id="a_node3"><a xlink:href="class_ogre_1_1_resource.html" target="_top" xlink:title="Abstract class representing a loadable resource (e.g. ">
<polygon fill="none" stroke="#000000" points="143,-88 143,-107 229,-107 229,-88 143,-88"/>
<text text-anchor="middle" x="186" y="-95" font-family="Helvetica,sans-Serif" font-size="10.00" fill="#000000">Ogre::Resource</text>
</a>
</g>
</g>
<!-- Node2&#45;&gt;Node1 -->
<g id="edge2" class="edge">
<title>Node2&#45;&gt;Node1</title>
<path fill="none" stroke="#191970" d="M239.4794,-97.5C247.932,-97.5 256.6364,-97.5 264.9808,-97.5"/>
<polygon fill="#191970" stroke="#191970" points="239.335,-94.0001 229.335,-97.5 239.3349,-101.0001 239.335,-94.0001"/>
</g>
<!-- Node3 -->
<g id="node4" class="node">
<title>Node3</title>
<g id="a_node4"><a xlink:href="class_ogre_1_1_string_interface.html" target="_top" xlink:title="Class defining the common interface which classes can use to present a reflection&#45;style, self&#45;defining parameter set to callers. ">
<polygon fill="none" stroke="#000000" points="0,-107 0,-126 107,-126 107,-107 0,-107"/>
<text text-anchor="middle" x="53.5" y="-114" font-family="Helvetica,sans-Serif" font-size="10.00" fill="#000000">Ogre::StringInterface</text>
</a>
</g>
</g>
<!-- Node3&#45;&gt;Node2 -->
<g id="edge3" class="edge">
<title>Node3&#45;&gt;Node2</title>
<path fill="none" stroke="#191970" d="M117.1703,-107.3699C125.8787,-106.1212 134.6466,-104.8639 142.8709,-103.6846"/>
<polygon fill="#191970" stroke="#191970" points="116.4128,-103.9427 107.0109,-108.8267 117.4065,-110.8718 116.4128,-103.9427"/>
</g>
<!-- Node4 -->
<g id="node5" class="node">
<title>Node4</title>
<g id="a_node5"><a xlink:href="class_ogre_1_1_allocated_object.html" target="_top" xlink:title="Superclass for all objects that wish to use custom memory allocators when their new / delete operator...">
<polygon fill="none" stroke="#000000" points="13.5,-69 13.5,-88 93.5,-88 93.5,-69 13.5,-69"/>
<text text-anchor="middle" x="53.5" y="-76" font-family="Helvetica,sans-Serif" font-size="10.00" fill="#000000">ResourceAlloc</text>
</a>
</g>
</g>
<!-- Node4&#45;&gt;Node2 -->
<g id="edge4" class="edge">
<title>Node4&#45;&gt;Node2</title>
<path fill="none" stroke="#191970" d="M103.7115,-85.7001C116.5821,-87.5457 130.312,-89.5146 142.795,-91.3046"/>
<polygon fill="#191970" stroke="#191970" points="104.0095,-82.2072 93.6139,-84.2522 103.0159,-89.1363 104.0095,-82.2072"/>
</g>
</g>
</svg>
