<?xml version="1.0" encoding="UTF-8" standalone="no"?>
<!DOCTYPE svg PUBLIC "-//W3C//DTD SVG 1.1//EN"
 "http://www.w3.org/Graphics/SVG/1.1/DTD/svg11.dtd">
<!-- Generated by graphviz version 2.40.1 (20161225.0304)
 -->
<!-- Title: Ogre::v1::BorderPanelOverlayElement Pages: 1 -->
<svg width="343pt" height="263pt"
 viewBox="0.00 0.00 342.50 263.00" xmlns="http://www.w3.org/2000/svg" xmlns:xlink="http://www.w3.org/1999/xlink">
<g id="graph0" class="graph" transform="scale(1 1) rotate(0) translate(4 259)">
<title>Ogre::v1::BorderPanelOverlayElement</title>
<!-- Node0 -->
<g id="node1" class="node">
<title>Node0</title>
<polygon fill="#bfbfbf" stroke="#000000" points="106.5,-.5 106.5,-30.5 267.5,-30.5 267.5,-.5 106.5,-.5"/>
<text text-anchor="start" x="114.5" y="-18.5" font-family="Helvetica,sans-Serif" font-size="10.00" fill="#000000">Ogre::v1::BorderPanelOverlay</text>
<text text-anchor="middle" x="187" y="-7.5" font-family="Helvetica,sans-Serif" font-size="10.00" fill="#000000">Element</text>
</g>
<!-- Node1 -->
<g id="node2" class="node">
<title>Node1</title>
<g id="a_node2"><a xlink:href="class_ogre_1_1v1_1_1_panel_overlay_element.html" target="_top" xlink:title="OverlayElement representing a flat, single&#45;material (or transparent) panel which can contain other el...">
<polygon fill="none" stroke="#000000" points="102,-67.5 102,-86.5 272,-86.5 272,-67.5 102,-67.5"/>
<text text-anchor="middle" x="187" y="-74.5" font-family="Helvetica,sans-Serif" font-size="10.00" fill="#000000">Ogre::v1::PanelOverlayElement</text>
</a>
</g>
</g>
<!-- Node1&#45;&gt;Node0 -->
<g id="edge1" class="edge">
<title>Node1&#45;&gt;Node0</title>
<path fill="none" stroke="#191970" d="M187,-57.3693C187,-48.681 187,-38.6241 187,-30.5446"/>
<polygon fill="#191970" stroke="#191970" points="183.5001,-57.3906 187,-67.3906 190.5001,-57.3907 183.5001,-57.3906"/>
</g>
<!-- Node2 -->
<g id="node3" class="node">
<title>Node2</title>
<g id="a_node3"><a xlink:href="class_ogre_1_1v1_1_1_overlay_container.html" target="_top" xlink:title="A 2D element which contains other OverlayElement instances. ">
<polygon fill="none" stroke="#000000" points="112.5,-123.5 112.5,-142.5 261.5,-142.5 261.5,-123.5 112.5,-123.5"/>
<text text-anchor="middle" x="187" y="-130.5" font-family="Helvetica,sans-Serif" font-size="10.00" fill="#000000">Ogre::v1::OverlayContainer</text>
</a>
</g>
</g>
<!-- Node2&#45;&gt;Node1 -->
<g id="edge2" class="edge">
<title>Node2&#45;&gt;Node1</title>
<path fill="none" stroke="#191970" d="M187,-113.1575C187,-104.155 187,-93.9199 187,-86.6427"/>
<polygon fill="#191970" stroke="#191970" points="183.5001,-113.2455 187,-123.2455 190.5001,-113.2456 183.5001,-113.2455"/>
</g>
<!-- Node3 -->
<g id="node4" class="node">
<title>Node3</title>
<g id="a_node4"><a xlink:href="class_ogre_1_1v1_1_1_overlay_element.html" target="_top" xlink:title="Abstract definition of a 2D element to be displayed in an Overlay. ">
<polygon fill="none" stroke="#000000" points="115.5,-179.5 115.5,-198.5 258.5,-198.5 258.5,-179.5 115.5,-179.5"/>
<text text-anchor="middle" x="187" y="-186.5" font-family="Helvetica,sans-Serif" font-size="10.00" fill="#000000">Ogre::v1::OverlayElement</text>
</a>
</g>
</g>
<!-- Node3&#45;&gt;Node2 -->
<g id="edge3" class="edge">
<title>Node3&#45;&gt;Node2</title>
<path fill="none" stroke="#191970" d="M187,-169.1575C187,-160.155 187,-149.9199 187,-142.6427"/>
<polygon fill="#191970" stroke="#191970" points="183.5001,-169.2455 187,-179.2455 190.5001,-169.2456 183.5001,-169.2455"/>
</g>
<!-- Node4 -->
<g id="node5" class="node">
<title>Node4</title>
<g id="a_node5"><a xlink:href="class_ogre_1_1_string_interface.html" target="_top" xlink:title="Class defining the common interface which classes can use to present a reflection&#45;style, self&#45;defining parameter set to callers. ">
<polygon fill="none" stroke="#000000" points="0,-235.5 0,-254.5 118,-254.5 118,-235.5 0,-235.5"/>
<text text-anchor="middle" x="59" y="-242.5" font-family="Helvetica,sans-Serif" font-size="10.00" fill="#000000">Ogre::StringInterface</text>
</a>
</g>
</g>
<!-- Node4&#45;&gt;Node3 -->
<g id="edge4" class="edge">
<title>Node4&#45;&gt;Node3</title>
<path fill="none" stroke="#191970" d="M90.4348,-231.2473C113.6809,-221.0771 144.7411,-207.4883 165.2831,-198.5011"/>
<polygon fill="#191970" stroke="#191970" points="88.7627,-228.1585 81.004,-235.3733 91.5685,-234.5716 88.7627,-228.1585"/>
</g>
<!-- Node5 -->
<g id="node6" class="node">
<title>Node5</title>
<g id="a_node6"><a xlink:href="class_ogre_1_1_renderable.html" target="_top" xlink:title="Abstract class defining the interface all renderable objects must implement. ">
<polygon fill="none" stroke="#000000" points="136.5,-235.5 136.5,-254.5 237.5,-254.5 237.5,-235.5 136.5,-235.5"/>
<text text-anchor="middle" x="187" y="-242.5" font-family="Helvetica,sans-Serif" font-size="10.00" fill="#000000">Ogre::Renderable</text>
</a>
</g>
</g>
<!-- Node5&#45;&gt;Node3 -->
<g id="edge5" class="edge">
<title>Node5&#45;&gt;Node3</title>
<path fill="none" stroke="#191970" d="M187,-225.1575C187,-216.155 187,-205.9199 187,-198.6427"/>
<polygon fill="#191970" stroke="#191970" points="183.5001,-225.2455 187,-235.2455 190.5001,-225.2456 183.5001,-225.2455"/>
</g>
<!-- Node6 -->
<g id="node7" class="node">
<title>Node6</title>
<g id="a_node7"><a xlink:href="class_ogre_1_1_allocated_object.html" target="_top" xlink:title="Superclass for all objects that wish to use custom memory allocators when their new / delete operator...">
<polygon fill="none" stroke="#000000" points="255.5,-235.5 255.5,-254.5 334.5,-254.5 334.5,-235.5 255.5,-235.5"/>
<text text-anchor="middle" x="295" y="-242.5" font-family="Helvetica,sans-Serif" font-size="10.00" fill="#000000">OverlayAlloc</text>
</a>
</g>
</g>
<!-- Node6&#45;&gt;Node3 -->
<g id="edge6" class="edge">
<title>Node6&#45;&gt;Node3</title>
<path fill="none" stroke="#191970" d="M267.2229,-230.5971C247.8618,-220.558 222.5615,-207.4393 205.5966,-198.6427"/>
<polygon fill="#191970" stroke="#191970" points="265.6992,-233.7495 276.1878,-235.2455 268.9214,-227.5352 265.6992,-233.7495"/>
</g>
</g>
</svg>
