<?xml version="1.0" encoding="UTF-8" standalone="no"?>
<!DOCTYPE svg PUBLIC "-//W3C//DTD SVG 1.1//EN"
 "http://www.w3.org/Graphics/SVG/1.1/DTD/svg11.dtd">
<!-- Generated by graphviz version 2.38.0 (20140413.2041)
 -->
<!-- Title: Ogre::Texture Pages: 1 -->
<svg width="676pt" height="218pt"
 viewBox="0.00 0.00 676.00 218.00" xmlns="http://www.w3.org/2000/svg" xmlns:xlink="http://www.w3.org/1999/xlink">
<g id="graph0" class="graph" transform="scale(1 1) rotate(0) translate(4 214)">
<title>Ogre::Texture</title>
<!-- Node1 -->
<g id="node1" class="node"><title>Node1</title>
<polygon fill="#bfbfbf" stroke="black" points="265,-76.5 265,-95.5 342,-95.5 342,-76.5 265,-76.5"/>
<text text-anchor="middle" x="303.5" y="-83.5" font-family="Helvetica,sans-Serif" font-size="10.00">Ogre::Texture</text>
</g>
<!-- Node5 -->
<g id="node5" class="node"><title>Node5</title>
<g id="a_node5"><a xlink:href="class_ogre_1_1_d3_d11_texture.html" target="_top" xlink:title="Ogre::D3D11Texture">
<polygon fill="none" stroke="black" points="381.5,-152.5 381.5,-171.5 488.5,-171.5 488.5,-152.5 381.5,-152.5"/>
<text text-anchor="middle" x="435" y="-159.5" font-family="Helvetica,sans-Serif" font-size="10.00">Ogre::D3D11Texture</text>
</a>
</g>
</g>
<!-- Node1&#45;&gt;Node5 -->
<g id="edge4" class="edge"><title>Node1&#45;&gt;Node5</title>
<path fill="none" stroke="midnightblue" d="M322.208,-102.484C336.406,-114.992 357.313,-131.876 378,-143 384.782,-146.647 392.396,-149.787 399.774,-152.406"/>
<polygon fill="midnightblue" stroke="midnightblue" points="324.449,-99.7925 314.675,-95.7023 319.765,-104.995 324.449,-99.7925"/>
</g>
<!-- Node8 -->
<g id="node8" class="node"><title>Node8</title>
<g id="a_node8"><a xlink:href="class_ogre_1_1_d3_d9_texture.html" target="_top" xlink:title="Ogre::D3D9Texture">
<polygon fill="none" stroke="black" points="384,-114.5 384,-133.5 486,-133.5 486,-114.5 384,-114.5"/>
<text text-anchor="middle" x="435" y="-121.5" font-family="Helvetica,sans-Serif" font-size="10.00">Ogre::D3D9Texture</text>
</a>
</g>
</g>
<!-- Node1&#45;&gt;Node8 -->
<g id="edge7" class="edge"><title>Node1&#45;&gt;Node8</title>
<path fill="none" stroke="midnightblue" d="M347.219,-98.5353C364.836,-103.705 384.923,-109.599 401.332,-114.414"/>
<polygon fill="midnightblue" stroke="midnightblue" points="347.759,-95.0463 337.178,-95.589 345.788,-101.763 347.759,-95.0463"/>
</g>
<!-- Node9 -->
<g id="node9" class="node"><title>Node9</title>
<g id="a_node9"><a xlink:href="class_ogre_1_1_g_l3_plus_texture.html" target="_top" xlink:title="Ogre::GL3PlusTexture">
<polygon fill="none" stroke="black" points="378,-76.5 378,-95.5 492,-95.5 492,-76.5 378,-76.5"/>
<text text-anchor="middle" x="435" y="-83.5" font-family="Helvetica,sans-Serif" font-size="10.00">Ogre::GL3PlusTexture</text>
</a>
</g>
</g>
<!-- Node1&#45;&gt;Node9 -->
<g id="edge8" class="edge"><title>Node1&#45;&gt;Node9</title>
<path fill="none" stroke="midnightblue" d="M352.439,-86C360.637,-86 369.221,-86 377.614,-86"/>
<polygon fill="midnightblue" stroke="midnightblue" points="352.305,-82.5001 342.305,-86 352.305,-89.5001 352.305,-82.5001"/>
</g>
<!-- Node12 -->
<g id="node12" class="node"><title>Node12</title>
<g id="a_node12"><a xlink:href="class_ogre_1_1_metal_texture.html" target="_top" xlink:title="Ogre::MetalTexture">
<polygon fill="none" stroke="black" points="384.5,-38.5 384.5,-57.5 485.5,-57.5 485.5,-38.5 384.5,-38.5"/>
<text text-anchor="middle" x="435" y="-45.5" font-family="Helvetica,sans-Serif" font-size="10.00">Ogre::MetalTexture</text>
</a>
</g>
</g>
<!-- Node1&#45;&gt;Node12 -->
<g id="edge11" class="edge"><title>Node1&#45;&gt;Node12</title>
<path fill="none" stroke="midnightblue" d="M347.219,-73.4647C364.836,-68.2952 384.923,-62.4009 401.332,-57.5859"/>
<polygon fill="midnightblue" stroke="midnightblue" points="345.788,-70.2369 337.178,-76.411 347.759,-76.9537 345.788,-70.2369"/>
</g>
<!-- Node15 -->
<g id="node15" class="node"><title>Node15</title>
<g id="a_node15"><a xlink:href="class_ogre_1_1_n_u_l_l_texture.html" target="_top" xlink:title="Ogre::NULLTexture">
<polygon fill="none" stroke="black" points="384,-0.5 384,-19.5 486,-19.5 486,-0.5 384,-0.5"/>
<text text-anchor="middle" x="435" y="-7.5" font-family="Helvetica,sans-Serif" font-size="10.00">Ogre::NULLTexture</text>
</a>
</g>
</g>
<!-- Node1&#45;&gt;Node15 -->
<g id="edge14" class="edge"><title>Node1&#45;&gt;Node15</title>
<path fill="none" stroke="midnightblue" d="M322.208,-69.5156C336.406,-57.0078 357.313,-40.1235 378,-29 384.782,-25.3534 392.396,-22.2127 399.774,-19.5944"/>
<polygon fill="midnightblue" stroke="midnightblue" points="319.765,-67.0054 314.675,-76.2977 324.449,-72.2075 319.765,-67.0054"/>
</g>
<!-- Node2 -->
<g id="node2" class="node"><title>Node2</title>
<g id="a_node2"><a xlink:href="class_ogre_1_1_resource.html" target="_top" xlink:title="Abstract class representing a loadable resource (e.g. ">
<polygon fill="none" stroke="black" points="143,-76.5 143,-95.5 229,-95.5 229,-76.5 143,-76.5"/>
<text text-anchor="middle" x="186" y="-83.5" font-family="Helvetica,sans-Serif" font-size="10.00">Ogre::Resource</text>
</a>
</g>
</g>
<!-- Node2&#45;&gt;Node1 -->
<g id="edge1" class="edge"><title>Node2&#45;&gt;Node1</title>
<path fill="none" stroke="midnightblue" d="M239.105,-86C247.799,-86 256.666,-86 264.907,-86"/>
<polygon fill="midnightblue" stroke="midnightblue" points="239.025,-82.5001 229.025,-86 239.025,-89.5001 239.025,-82.5001"/>
</g>
<!-- Node3 -->
<g id="node3" class="node"><title>Node3</title>
<g id="a_node3"><a xlink:href="class_ogre_1_1_string_interface.html" target="_top" xlink:title="Class defining the common interface which classes can use to present a reflection&#45;style, self&#45;defining parameter set to callers. ">
<polygon fill="none" stroke="black" points="0,-95.5 0,-114.5 107,-114.5 107,-95.5 0,-95.5"/>
<text text-anchor="middle" x="53.5" y="-102.5" font-family="Helvetica,sans-Serif" font-size="10.00">Ogre::StringInterface</text>
</a>
</g>
</g>
<!-- Node3&#45;&gt;Node2 -->
<g id="edge2" class="edge"><title>Node3&#45;&gt;Node2</title>
<path fill="none" stroke="midnightblue" d="M117.331,-95.8523C126.011,-94.5884 134.749,-93.3162 142.929,-92.1253"/>
<polygon fill="midnightblue" stroke="midnightblue" points="116.595,-92.4224 107.203,-97.3267 117.603,-99.3494 116.595,-92.4224"/>
</g>
<!-- Node4 -->
<g id="node4" class="node"><title>Node4</title>
<g id="a_node4"><a xlink:href="class_ogre_1_1_allocated_object.html" target="_top" xlink:title="Superclass for all objects that wish to use custom memory allocators when their new / delete operator...">
<polygon fill="none" stroke="black" points="13.5,-57.5 13.5,-76.5 93.5,-76.5 93.5,-57.5 13.5,-57.5"/>
<text text-anchor="middle" x="53.5" y="-64.5" font-family="Helvetica,sans-Serif" font-size="10.00">ResourceAlloc</text>
</a>
</g>
</g>
<!-- Node4&#45;&gt;Node2 -->
<g id="edge3" class="edge"><title>Node4&#45;&gt;Node2</title>
<path fill="none" stroke="midnightblue" d="M103.713,-74.1651C116.542,-76.0329 130.253,-78.0291 142.69,-79.8399"/>
<polygon fill="midnightblue" stroke="midnightblue" points="104.054,-70.678 93.6543,-72.7006 103.046,-77.6049 104.054,-70.678"/>
</g>
<!-- Node6 -->
<g id="node6" class="node"><title>Node6</title>
<g id="a_node6"><a xlink:href="class_ogre_1_1_d3_d11_depth_texture.html" target="_top" xlink:title="Ogre::D3D11DepthTexture">
<polygon fill="none" stroke="black" points="531,-190.5 531,-209.5 665,-209.5 665,-190.5 531,-190.5"/>
<text text-anchor="middle" x="598" y="-197.5" font-family="Helvetica,sans-Serif" font-size="10.00">Ogre::D3D11DepthTexture</text>
</a>
</g>
</g>
<!-- Node5&#45;&gt;Node6 -->
<g id="edge5" class="edge"><title>Node5&#45;&gt;Node6</title>
<path fill="none" stroke="midnightblue" d="M486.402,-173.896C509.032,-179.237 535.37,-185.454 556.665,-190.48"/>
<polygon fill="midnightblue" stroke="midnightblue" points="487.164,-170.48 476.627,-171.589 485.556,-177.293 487.164,-170.48"/>
</g>
<!-- Node7 -->
<g id="node7" class="node"><title>Node7</title>
<g id="a_node7"><a xlink:href="class_ogre_1_1_d3_d11_null_texture.html" target="_top" xlink:title="Ogre::D3D11NullTexture">
<polygon fill="none" stroke="black" points="535.5,-152.5 535.5,-171.5 660.5,-171.5 660.5,-152.5 535.5,-152.5"/>
<text text-anchor="middle" x="598" y="-159.5" font-family="Helvetica,sans-Serif" font-size="10.00">Ogre::D3D11NullTexture</text>
</a>
</g>
</g>
<!-- Node5&#45;&gt;Node7 -->
<g id="edge6" class="edge"><title>Node5&#45;&gt;Node7</title>
<path fill="none" stroke="midnightblue" d="M499.074,-162C511.049,-162 523.564,-162 535.49,-162"/>
<polygon fill="midnightblue" stroke="midnightblue" points="498.717,-158.5 488.717,-162 498.717,-165.5 498.717,-158.5"/>
</g>
<!-- Node10 -->
<g id="node10" class="node"><title>Node10</title>
<g id="a_node10"><a xlink:href="class_ogre_1_1_g_l3_plus_depth_texture.html" target="_top" xlink:title="Ogre::GL3PlusDepthTexture">
<polygon fill="none" stroke="black" points="528,-114.5 528,-133.5 668,-133.5 668,-114.5 528,-114.5"/>
<text text-anchor="middle" x="598" y="-121.5" font-family="Helvetica,sans-Serif" font-size="10.00">Ogre::GL3PlusDepthTexture</text>
</a>
</g>
</g>
<!-- Node9&#45;&gt;Node10 -->
<g id="edge9" class="edge"><title>Node9&#45;&gt;Node10</title>
<path fill="none" stroke="midnightblue" d="M486.402,-97.8961C509.032,-103.237 535.37,-109.454 556.665,-114.48"/>
<polygon fill="midnightblue" stroke="midnightblue" points="487.164,-94.4798 476.627,-95.589 485.556,-101.293 487.164,-94.4798"/>
</g>
<!-- Node11 -->
<g id="node11" class="node"><title>Node11</title>
<g id="a_node11"><a xlink:href="class_ogre_1_1_g_l3_plus_null_texture.html" target="_top" xlink:title="Ogre::GL3PlusNullTexture">
<polygon fill="none" stroke="black" points="532.5,-76.5 532.5,-95.5 663.5,-95.5 663.5,-76.5 532.5,-76.5"/>
<text text-anchor="middle" x="598" y="-83.5" font-family="Helvetica,sans-Serif" font-size="10.00">Ogre::GL3PlusNullTexture</text>
</a>
</g>
</g>
<!-- Node9&#45;&gt;Node11 -->
<g id="edge10" class="edge"><title>Node9&#45;&gt;Node11</title>
<path fill="none" stroke="midnightblue" d="M502.497,-86C512.399,-86 522.593,-86 532.454,-86"/>
<polygon fill="midnightblue" stroke="midnightblue" points="502.31,-82.5001 492.31,-86 502.31,-89.5001 502.31,-82.5001"/>
</g>
<!-- Node13 -->
<g id="node13" class="node"><title>Node13</title>
<g id="a_node13"><a xlink:href="class_ogre_1_1_metal_depth_texture.html" target="_top" xlink:title="Ogre::MetalDepthTexture">
<polygon fill="none" stroke="black" points="534.5,-38.5 534.5,-57.5 661.5,-57.5 661.5,-38.5 534.5,-38.5"/>
<text text-anchor="middle" x="598" y="-45.5" font-family="Helvetica,sans-Serif" font-size="10.00">Ogre::MetalDepthTexture</text>
</a>
</g>
</g>
<!-- Node12&#45;&gt;Node13 -->
<g id="edge12" class="edge"><title>Node12&#45;&gt;Node13</title>
<path fill="none" stroke="midnightblue" d="M495.972,-48C508.531,-48 521.805,-48 534.455,-48"/>
<polygon fill="midnightblue" stroke="midnightblue" points="495.619,-44.5001 485.619,-48 495.619,-51.5001 495.619,-44.5001"/>
</g>
<!-- Node14 -->
<g id="node14" class="node"><title>Node14</title>
<g id="a_node14"><a xlink:href="class_ogre_1_1_metal_null_texture.html" target="_top" xlink:title="Ogre::MetalNullTexture">
<polygon fill="none" stroke="black" points="539,-0.5 539,-19.5 657,-19.5 657,-0.5 539,-0.5"/>
<text text-anchor="middle" x="598" y="-7.5" font-family="Helvetica,sans-Serif" font-size="10.00">Ogre::MetalNullTexture</text>
</a>
</g>
</g>
<!-- Node12&#45;&gt;Node14 -->
<g id="edge13" class="edge"><title>Node12&#45;&gt;Node14</title>
<path fill="none" stroke="midnightblue" d="M486.402,-36.1039C509.032,-30.7626 535.37,-24.5463 556.665,-19.5201"/>
<polygon fill="midnightblue" stroke="midnightblue" points="485.556,-32.7074 476.627,-38.411 487.164,-39.5202 485.556,-32.7074"/>
</g>
</g>
</svg>
