<?xml version="1.0" encoding="UTF-8" standalone="no"?>
<!DOCTYPE svg PUBLIC "-//W3C//DTD SVG 1.1//EN"
 "http://www.w3.org/Graphics/SVG/1.1/DTD/svg11.dtd">
<!-- Generated by graphviz version 2.40.1 (20161225.0304)
 -->
<!-- Title: Ogre::RenderTexture Pages: 1 -->
<svg width="794pt" height="469pt"
 viewBox="0.00 0.00 794.00 469.00" xmlns="http://www.w3.org/2000/svg" xmlns:xlink="http://www.w3.org/1999/xlink">
<g id="graph0" class="graph" transform="scale(1 1) rotate(0) translate(4 465)">
<title>Ogre::RenderTexture</title>
<!-- Node0 -->
<g id="node1" class="node">
<title>Node0</title>
<polygon fill="#bfbfbf" stroke="#000000" points="279,-212.5 279,-231.5 387,-231.5 387,-212.5 279,-212.5"/>
<text text-anchor="middle" x="333" y="-219.5" font-family="Helvetica,sans-Serif" font-size="10.00" fill="#000000">Ogre::RenderTexture</text>
</g>
<!-- Node4 -->
<g id="node5" class="node">
<title>Node4</title>
<g id="a_node5"><a xlink:href="class_ogre_1_1_d3_d11_depth_texture_target.html" target="_top" xlink:title="Ogre::D3D11DepthTextureTarget">
<polygon fill="none" stroke="#000000" points="423,-441.5 423,-460.5 584,-460.5 584,-441.5 423,-441.5"/>
<text text-anchor="middle" x="503.5" y="-448.5" font-family="Helvetica,sans-Serif" font-size="10.00" fill="#000000">Ogre::D3D11DepthTextureTarget</text>
</a>
</g>
</g>
<!-- Node0&#45;&gt;Node4 -->
<g id="edge4" class="edge">
<title>Node0&#45;&gt;Node4</title>
<path fill="none" stroke="#191970" d="M335.5205,-241.7624C341.9461,-283.6215 362.9153,-381.51 423,-432 427.5074,-435.7876 432.6358,-438.8493 438.0707,-441.3206"/>
<polygon fill="#191970" stroke="#191970" points="338.969,-241.1518 334.1009,-231.7416 332.0382,-242.1337 338.969,-241.1518"/>
</g>
<!-- Node5 -->
<g id="node6" class="node">
<title>Node5</title>
<g id="a_node6"><a xlink:href="class_ogre_1_1_d3_d11_null_texture_target.html" target="_top" xlink:title="Ogre::D3D11NullTextureTarget">
<polygon fill="none" stroke="#000000" points="427.5,-403.5 427.5,-422.5 579.5,-422.5 579.5,-403.5 427.5,-403.5"/>
<text text-anchor="middle" x="503.5" y="-410.5" font-family="Helvetica,sans-Serif" font-size="10.00" fill="#000000">Ogre::D3D11NullTextureTarget</text>
</a>
</g>
</g>
<!-- Node0&#45;&gt;Node5 -->
<g id="edge5" class="edge">
<title>Node0&#45;&gt;Node5</title>
<path fill="none" stroke="#191970" d="M337.4614,-241.3636C346.788,-277.3067 371.8579,-354.2879 423,-394 427.9904,-397.8751 433.6434,-400.9794 439.5838,-403.4634"/>
<polygon fill="#191970" stroke="#191970" points="340.85,-240.4864 335.0609,-231.6131 334.053,-242.1598 340.85,-240.4864"/>
</g>
<!-- Node6 -->
<g id="node7" class="node">
<title>Node6</title>
<g id="a_node7"><a xlink:href="class_ogre_1_1_d3_d11_render_texture.html" target="_top" xlink:title="RenderTexture implementation for D3D11. ">
<polygon fill="none" stroke="#000000" points="434,-365.5 434,-384.5 573,-384.5 573,-365.5 434,-365.5"/>
<text text-anchor="middle" x="503.5" y="-372.5" font-family="Helvetica,sans-Serif" font-size="10.00" fill="#000000">Ogre::D3D11RenderTexture</text>
</a>
</g>
</g>
<!-- Node0&#45;&gt;Node6 -->
<g id="edge6" class="edge">
<title>Node0&#45;&gt;Node6</title>
<path fill="none" stroke="#191970" d="M340.3999,-241.1265C352.8202,-270.5902 380.7274,-326.7327 423,-356 428.5489,-359.8418 434.7737,-362.9133 441.2392,-365.368"/>
<polygon fill="#191970" stroke="#191970" points="343.5289,-239.5288 336.5268,-231.5776 337.0422,-242.1599 343.5289,-239.5288"/>
</g>
<!-- Node7 -->
<g id="node8" class="node">
<title>Node7</title>
<g id="a_node8"><a xlink:href="class_ogre_1_1_d3_d9_render_texture.html" target="_top" xlink:title="RenderTexture implementation for D3D9. ">
<polygon fill="none" stroke="#000000" points="436.5,-327.5 436.5,-346.5 570.5,-346.5 570.5,-327.5 436.5,-327.5"/>
<text text-anchor="middle" x="503.5" y="-334.5" font-family="Helvetica,sans-Serif" font-size="10.00" fill="#000000">Ogre::D3D9RenderTexture</text>
</a>
</g>
</g>
<!-- Node0&#45;&gt;Node7 -->
<g id="edge7" class="edge">
<title>Node0&#45;&gt;Node7</title>
<path fill="none" stroke="#191970" d="M344.9424,-239.8025C360.389,-261.4063 389.3421,-297.3711 423,-317 430.4638,-321.3528 438.851,-324.7639 447.3186,-327.4355"/>
<polygon fill="#191970" stroke="#191970" points="347.7591,-237.7226 339.1751,-231.5125 342.0129,-241.7202 347.7591,-237.7226"/>
</g>
<!-- Node8 -->
<g id="node9" class="node">
<title>Node8</title>
<g id="a_node9"><a xlink:href="class_ogre_1_1_g_l3_plus_depth_texture_target.html" target="_top" xlink:title="Ogre::GL3PlusDepthTexture\lTarget">
<polygon fill="none" stroke="#000000" points="433.5,-278 433.5,-308 573.5,-308 573.5,-278 433.5,-278"/>
<text text-anchor="start" x="441.5" y="-296" font-family="Helvetica,sans-Serif" font-size="10.00" fill="#000000">Ogre::GL3PlusDepthTexture</text>
<text text-anchor="middle" x="503.5" y="-285" font-family="Helvetica,sans-Serif" font-size="10.00" fill="#000000">Target</text>
</a>
</g>
</g>
<!-- Node0&#45;&gt;Node8 -->
<g id="edge8" class="edge">
<title>Node0&#45;&gt;Node8</title>
<path fill="none" stroke="#191970" d="M358.6237,-236.5868C376.3383,-246.2976 400.6496,-258.8961 423,-268 431.6739,-271.5331 441.0421,-274.8622 450.2153,-277.8684"/>
<polygon fill="#191970" stroke="#191970" points="359.9571,-233.3239 349.5153,-231.5296 356.5591,-239.4439 359.9571,-233.3239"/>
</g>
<!-- Node9 -->
<g id="node10" class="node">
<title>Node9</title>
<g id="a_node10"><a xlink:href="class_ogre_1_1_g_l3_plus_null_texture_target.html" target="_top" xlink:title="Ogre::GL3PlusNullTexture\lTarget">
<polygon fill="none" stroke="#000000" points="438,-229 438,-259 569,-259 569,-229 438,-229"/>
<text text-anchor="start" x="446" y="-247" font-family="Helvetica,sans-Serif" font-size="10.00" fill="#000000">Ogre::GL3PlusNullTexture</text>
<text text-anchor="middle" x="503.5" y="-236" font-family="Helvetica,sans-Serif" font-size="10.00" fill="#000000">Target</text>
</a>
</g>
</g>
<!-- Node0&#45;&gt;Node9 -->
<g id="edge9" class="edge">
<title>Node0&#45;&gt;Node9</title>
<path fill="none" stroke="#191970" d="M397.4013,-230.3098C410.6722,-232.0222 424.6613,-233.8273 437.9717,-235.5447"/>
<polygon fill="#191970" stroke="#191970" points="397.7818,-226.83 387.416,-229.0214 396.8859,-233.7724 397.7818,-226.83"/>
</g>
<!-- Node10 -->
<g id="node11" class="node">
<title>Node10</title>
<g id="a_node11"><a xlink:href="class_ogre_1_1_g_l3_plus_render_texture.html" target="_top" xlink:title="Base class for GL Render Textures. ">
<polygon fill="none" stroke="#000000" points="430.5,-190.5 430.5,-209.5 576.5,-209.5 576.5,-190.5 430.5,-190.5"/>
<text text-anchor="middle" x="503.5" y="-197.5" font-family="Helvetica,sans-Serif" font-size="10.00" fill="#000000">Ogre::GL3PlusRenderTexture</text>
</a>
</g>
</g>
<!-- Node0&#45;&gt;Node10 -->
<g id="edge10" class="edge">
<title>Node0&#45;&gt;Node10</title>
<path fill="none" stroke="#191970" d="M397.5196,-213.6749C408.2312,-212.2927 419.4078,-210.8506 430.3153,-209.4432"/>
<polygon fill="#191970" stroke="#191970" points="396.8859,-210.2276 387.416,-214.9786 397.7818,-217.17 396.8859,-210.2276"/>
</g>
<!-- Node12 -->
<g id="node13" class="node">
<title>Node12</title>
<g id="a_node13"><a xlink:href="class_ogre_1_1_g_l_e_s2_render_texture.html" target="_top" xlink:title="Base class for GL Render Textures. ">
<polygon fill="none" stroke="#000000" points="433.5,-152.5 433.5,-171.5 573.5,-171.5 573.5,-152.5 433.5,-152.5"/>
<text text-anchor="middle" x="503.5" y="-159.5" font-family="Helvetica,sans-Serif" font-size="10.00" fill="#000000">Ogre::GLES2RenderTexture</text>
</a>
</g>
</g>
<!-- Node0&#45;&gt;Node12 -->
<g id="edge12" class="edge">
<title>Node0&#45;&gt;Node12</title>
<path fill="none" stroke="#191970" d="M360.2774,-207.8806C377.835,-199.2201 401.3426,-188.4091 423,-181 433.5976,-177.3745 445.2104,-174.1945 456.236,-171.525"/>
<polygon fill="#191970" stroke="#191970" points="358.558,-204.8273 351.1848,-212.4356 361.6933,-211.0859 358.558,-204.8273"/>
</g>
<!-- Node14 -->
<g id="node15" class="node">
<title>Node14</title>
<g id="a_node15"><a xlink:href="class_ogre_1_1_metal_depth_texture_target.html" target="_top" xlink:title="Ogre::MetalDepthTextureTarget">
<polygon fill="none" stroke="#000000" points="426,-114.5 426,-133.5 581,-133.5 581,-114.5 426,-114.5"/>
<text text-anchor="middle" x="503.5" y="-121.5" font-family="Helvetica,sans-Serif" font-size="10.00" fill="#000000">Ogre::MetalDepthTextureTarget</text>
</a>
</g>
</g>
<!-- Node0&#45;&gt;Node14 -->
<g id="edge14" class="edge">
<title>Node0&#45;&gt;Node14</title>
<path fill="none" stroke="#191970" d="M347.8052,-204.7456C364.3176,-186.6187 392.714,-158.6171 423,-143 430.53,-139.1171 438.865,-136.0148 447.234,-133.5395"/>
<polygon fill="#191970" stroke="#191970" points="345.1185,-202.5 341.0906,-212.2994 350.3503,-207.1506 345.1185,-202.5"/>
</g>
<!-- Node15 -->
<g id="node16" class="node">
<title>Node15</title>
<g id="a_node16"><a xlink:href="class_ogre_1_1_metal_null_texture_target.html" target="_top" xlink:title="Ogre::MetalNullTextureTarget">
<polygon fill="none" stroke="#000000" points="430.5,-76.5 430.5,-95.5 576.5,-95.5 576.5,-76.5 430.5,-76.5"/>
<text text-anchor="middle" x="503.5" y="-83.5" font-family="Helvetica,sans-Serif" font-size="10.00" fill="#000000">Ogre::MetalNullTextureTarget</text>
</a>
</g>
</g>
<!-- Node0&#45;&gt;Node15 -->
<g id="edge15" class="edge">
<title>Node0&#45;&gt;Node15</title>
<path fill="none" stroke="#191970" d="M342.2255,-203.0714C356.0327,-176.8184 384.6102,-129.7935 423,-105 429.0314,-101.1047 435.7775,-98.0063 442.7292,-95.5419"/>
<polygon fill="#191970" stroke="#191970" points="338.9318,-201.8272 337.5195,-212.3275 345.1716,-204.9997 338.9318,-201.8272"/>
</g>
<!-- Node16 -->
<g id="node17" class="node">
<title>Node16</title>
<g id="a_node17"><a xlink:href="class_ogre_1_1_metal_render_texture.html" target="_top" xlink:title="Ogre::MetalRenderTexture">
<polygon fill="none" stroke="#000000" points="437.5,-38.5 437.5,-57.5 569.5,-57.5 569.5,-38.5 437.5,-38.5"/>
<text text-anchor="middle" x="503.5" y="-45.5" font-family="Helvetica,sans-Serif" font-size="10.00" fill="#000000">Ogre::MetalRenderTexture</text>
</a>
</g>
</g>
<!-- Node0&#45;&gt;Node16 -->
<g id="edge16" class="edge">
<title>Node0&#45;&gt;Node16</title>
<path fill="none" stroke="#191970" d="M338.7708,-202.2582C349.5663,-168.9467 376.0731,-101.8121 423,-67 428.1898,-63.15 434.0424,-60.0665 440.1644,-57.5989"/>
<polygon fill="#191970" stroke="#191970" points="335.3185,-201.5752 335.7052,-212.1629 342.0055,-203.6449 335.3185,-201.5752"/>
</g>
<!-- Node17 -->
<g id="node18" class="node">
<title>Node17</title>
<g id="a_node18"><a xlink:href="class_ogre_1_1_n_u_l_l_render_texture.html" target="_top" xlink:title="Ogre::NULLRenderTexture">
<polygon fill="none" stroke="#000000" points="436.5,-.5 436.5,-19.5 570.5,-19.5 570.5,-.5 436.5,-.5"/>
<text text-anchor="middle" x="503.5" y="-7.5" font-family="Helvetica,sans-Serif" font-size="10.00" fill="#000000">Ogre::NULLRenderTexture</text>
</a>
</g>
</g>
<!-- Node0&#45;&gt;Node17 -->
<g id="edge17" class="edge">
<title>Node0&#45;&gt;Node17</title>
<path fill="none" stroke="#191970" d="M336.3475,-202.2151C344.088,-162.8414 367.0288,-74.5511 423,-29 427.6778,-25.1931 432.9874,-22.1239 438.5957,-19.6529"/>
<polygon fill="#191970" stroke="#191970" points="332.8866,-201.684 334.5174,-212.1526 339.7708,-202.9519 332.8866,-201.684"/>
</g>
<!-- Node1 -->
<g id="node2" class="node">
<title>Node1</title>
<g id="a_node2"><a xlink:href="class_ogre_1_1_render_target.html" target="_top" xlink:title="A &#39;canvas&#39; which can receive the results of a rendering operation. ">
<polygon fill="none" stroke="#000000" points="140,-212.5 140,-231.5 243,-231.5 243,-212.5 140,-212.5"/>
<text text-anchor="middle" x="191.5" y="-219.5" font-family="Helvetica,sans-Serif" font-size="10.00" fill="#000000">Ogre::RenderTarget</text>
</a>
</g>
</g>
<!-- Node1&#45;&gt;Node0 -->
<g id="edge1" class="edge">
<title>Node1&#45;&gt;Node0</title>
<path fill="none" stroke="#191970" d="M253.52,-222C261.9226,-222 270.4921,-222 278.7445,-222"/>
<polygon fill="#191970" stroke="#191970" points="253.3859,-218.5001 243.3859,-222 253.3859,-225.5001 253.3859,-218.5001"/>
</g>
<!-- Node2 -->
<g id="node3" class="node">
<title>Node2</title>
<g id="a_node3"><a xlink:href="struct_ogre_1_1_gpu_resource.html" target="_top" xlink:title="Ogre::GpuResource">
<polygon fill="none" stroke="#000000" points="0,-231.5 0,-250.5 104,-250.5 104,-231.5 0,-231.5"/>
<text text-anchor="middle" x="52" y="-238.5" font-family="Helvetica,sans-Serif" font-size="10.00" fill="#000000">Ogre::GpuResource</text>
</a>
</g>
</g>
<!-- Node2&#45;&gt;Node1 -->
<g id="edge2" class="edge">
<title>Node2&#45;&gt;Node1</title>
<path fill="none" stroke="#191970" d="M114.258,-232.5204C122.7911,-231.3582 131.4754,-230.1754 139.7923,-229.0426"/>
<polygon fill="#191970" stroke="#191970" points="113.7777,-229.0534 104.3415,-233.871 114.7224,-235.9894 113.7777,-229.0534"/>
</g>
<!-- Node3 -->
<g id="node4" class="node">
<title>Node3</title>
<g id="a_node4"><a xlink:href="class_ogre_1_1_allocated_object.html" target="_top" xlink:title="Superclass for all objects that wish to use custom memory allocators when their new / delete operator...">
<polygon fill="none" stroke="#000000" points="8.5,-193.5 8.5,-212.5 95.5,-212.5 95.5,-193.5 8.5,-193.5"/>
<text text-anchor="middle" x="52" y="-200.5" font-family="Helvetica,sans-Serif" font-size="10.00" fill="#000000">RenderSysAlloc</text>
</a>
</g>
</g>
<!-- Node3&#45;&gt;Node1 -->
<g id="edge3" class="edge">
<title>Node3&#45;&gt;Node1</title>
<path fill="none" stroke="#191970" d="M105.7619,-210.3224C116.8702,-211.8354 128.5502,-213.4262 139.591,-214.93"/>
<polygon fill="#191970" stroke="#191970" points="106.1368,-206.8412 95.7559,-208.9596 105.1921,-213.7772 106.1368,-206.8412"/>
</g>
<!-- Node11 -->
<g id="node12" class="node">
<title>Node11</title>
<g id="a_node12"><a xlink:href="class_ogre_1_1_g_l3_plus_f_b_o_render_texture.html" target="_top" xlink:title="RenderTexture for GL FBO. ">
<polygon fill="none" stroke="#000000" points="620,-193.5 620,-212.5 786,-212.5 786,-193.5 620,-193.5"/>
<text text-anchor="middle" x="703" y="-200.5" font-family="Helvetica,sans-Serif" font-size="10.00" fill="#000000">Ogre::GL3PlusFBORenderTexture</text>
</a>
</g>
</g>
<!-- Node10&#45;&gt;Node11 -->
<g id="edge11" class="edge">
<title>Node10&#45;&gt;Node11</title>
<path fill="none" stroke="#191970" d="M586.9497,-201.2549C597.7911,-201.4179 608.8965,-201.5849 619.7349,-201.7479"/>
<polygon fill="#191970" stroke="#191970" points="586.7051,-197.7509 576.6536,-201.1001 586.5998,-204.7501 586.7051,-197.7509"/>
</g>
<!-- Node13 -->
<g id="node14" class="node">
<title>Node13</title>
<g id="a_node14"><a xlink:href="class_ogre_1_1_g_l_e_s2_copying_render_texture.html" target="_top" xlink:title="Ogre::GLES2CopyingRender\lTexture">
<polygon fill="none" stroke="#000000" points="631.5,-144 631.5,-174 774.5,-174 774.5,-144 631.5,-144"/>
<text text-anchor="start" x="639.5" y="-162" font-family="Helvetica,sans-Serif" font-size="10.00" fill="#000000">Ogre::GLES2CopyingRender</text>
<text text-anchor="middle" x="703" y="-151" font-family="Helvetica,sans-Serif" font-size="10.00" fill="#000000">Texture</text>
</a>
</g>
</g>
<!-- Node12&#45;&gt;Node13 -->
<g id="edge13" class="edge">
<title>Node12&#45;&gt;Node13</title>
<path fill="none" stroke="#191970" d="M583.7947,-160.7926C599.5499,-160.5556 615.9787,-160.3086 631.4256,-160.0763"/>
<polygon fill="#191970" stroke="#191970" points="583.5019,-157.2965 573.5557,-160.9465 583.6072,-164.2957 583.5019,-157.2965"/>
</g>
</g>
</svg>
