<?xml version="1.0" encoding="UTF-8" standalone="no"?>
<!DOCTYPE svg PUBLIC "-//W3C//DTD SVG 1.1//EN"
 "http://www.w3.org/Graphics/SVG/1.1/DTD/svg11.dtd">
<!-- Generated by graphviz version 2.40.1 (20161225.0304)
 -->
<!-- Title: Graph Legend Pages: 1 -->
<svg width="546pt" height="159pt"
 viewBox="0.00 0.00 545.50 159.00" xmlns="http://www.w3.org/2000/svg" xmlns:xlink="http://www.w3.org/1999/xlink">
<g id="graph0" class="graph" transform="scale(1 1) rotate(0) translate(4 155)">
<title>Graph Legend</title>
<!-- Node9 -->
<g id="node1" class="node">
<title>Node9</title>
<polygon fill="#bfbfbf" stroke="#000000" points="311,-19 251,-19 251,0 311,0 311,-19"/>
<text text-anchor="middle" x="281" y="-7" font-family="Helvetica,sans-Serif" font-size="10.00" fill="#000000">Inherited</text>
</g>
<!-- Node10 -->
<g id="node2" class="node">
<title>Node10</title>
<g id="a_node2"><a xlink:href="$classPublicBase.html" xlink:title="PublicBase">
<polygon fill="none" stroke="#000000" points="70,-85 0,-85 0,-66 70,-66 70,-85"/>
<text text-anchor="middle" x="35" y="-73" font-family="Helvetica,sans-Serif" font-size="10.00" fill="#000000">PublicBase</text>
</a>
</g>
</g>
<!-- Node10&#45;&gt;Node9 -->
<g id="edge1" class="edge">
<title>Node10&#45;&gt;Node9</title>
<path fill="none" stroke="#191970" d="M80.0742,-63.4069C129.7133,-50.0891 208.141,-29.0475 250.849,-17.5893"/>
<polygon fill="#191970" stroke="#191970" points="78.9973,-60.072 70.2458,-66.0438 80.8112,-66.8329 78.9973,-60.072"/>
</g>
<!-- Node11 -->
<g id="node3" class="node">
<title>Node11</title>
<g id="a_node3"><a xlink:href="$classTruncated.html" xlink:title="Truncated">
<polygon fill="none" stroke="#ff0000" points="67.5,-151 2.5,-151 2.5,-132 67.5,-132 67.5,-151"/>
<text text-anchor="middle" x="35" y="-139" font-family="Helvetica,sans-Serif" font-size="10.00" fill="#000000">Truncated</text>
</a>
</g>
</g>
<!-- Node11&#45;&gt;Node10 -->
<g id="edge2" class="edge">
<title>Node11&#45;&gt;Node10</title>
<path fill="none" stroke="#191970" d="M35,-121.732C35,-109.6966 35,-94.847 35,-85.2785"/>
<polygon fill="#191970" stroke="#191970" points="31.5001,-121.7614 35,-131.7615 38.5001,-121.7615 31.5001,-121.7614"/>
</g>
<!-- Node13 -->
<g id="node4" class="node">
<title>Node13</title>
<g id="a_node4"><a xlink:href="$classProtectedBase.html" xlink:title="ProtectedBase">
<polygon fill="none" stroke="#000000" points="175.5,-85 88.5,-85 88.5,-66 175.5,-66 175.5,-85"/>
<text text-anchor="middle" x="132" y="-73" font-family="Helvetica,sans-Serif" font-size="10.00" fill="#000000">ProtectedBase</text>
</a>
</g>
</g>
<!-- Node13&#45;&gt;Node9 -->
<g id="edge3" class="edge">
<title>Node13&#45;&gt;Node9</title>
<path fill="none" stroke="#006400" d="M162.8755,-61.8236C191.6796,-49.0647 233.9161,-30.356 259.308,-19.1085"/>
<polygon fill="#006400" stroke="#006400" points="161.3915,-58.6529 153.6659,-65.903 164.2266,-65.0531 161.3915,-58.6529"/>
</g>
<!-- Node14 -->
<g id="node5" class="node">
<title>Node14</title>
<g id="a_node5"><a xlink:href="$classPrivateBase.html" xlink:title="PrivateBase">
<polygon fill="none" stroke="#000000" points="268.5,-85 193.5,-85 193.5,-66 268.5,-66 268.5,-85"/>
<text text-anchor="middle" x="231" y="-73" font-family="Helvetica,sans-Serif" font-size="10.00" fill="#000000">PrivateBase</text>
</a>
</g>
</g>
<!-- Node14&#45;&gt;Node9 -->
<g id="edge4" class="edge">
<title>Node14&#45;&gt;Node9</title>
<path fill="none" stroke="#8b1a1a" d="M244.5977,-57.5511C253.9352,-45.2256 265.9734,-29.3352 273.5921,-19.2785"/>
<polygon fill="#8b1a1a" stroke="#8b1a1a" points="241.6265,-55.677 238.3777,-65.7615 247.2061,-59.904 241.6265,-55.677"/>
</g>
<!-- Node15 -->
<g id="node6" class="node">
<title>Node15</title>
<polygon fill="none" stroke="#bfbfbf" points="377.5,-85 286.5,-85 286.5,-66 377.5,-66 377.5,-85"/>
<text text-anchor="middle" x="332" y="-73" font-family="Helvetica,sans-Serif" font-size="10.00" fill="#000000">Undocumented</text>
</g>
<!-- Node15&#45;&gt;Node9 -->
<g id="edge5" class="edge">
<title>Node15&#45;&gt;Node9</title>
<path fill="none" stroke="#191970" d="M318.1304,-57.5511C308.6061,-45.2256 296.3272,-29.3352 288.5561,-19.2785"/>
<polygon fill="#191970" stroke="#191970" points="315.5908,-59.9887 324.4748,-65.7615 321.1298,-55.7085 315.5908,-59.9887"/>
</g>
<!-- Node16 -->
<g id="node7" class="node">
<title>Node16</title>
<g id="a_node7"><a xlink:href="$classTempl.html" xlink:title="Templ&lt; int &gt;">
<polygon fill="none" stroke="#000000" points="478.5,-85 395.5,-85 395.5,-66 478.5,-66 478.5,-85"/>
<text text-anchor="middle" x="437" y="-73" font-family="Helvetica,sans-Serif" font-size="10.00" fill="#000000">Templ&lt; int &gt;</text>
</a>
</g>
</g>
<!-- Node16&#45;&gt;Node9 -->
<g id="edge6" class="edge">
<title>Node16&#45;&gt;Node9</title>
<path fill="none" stroke="#191970" d="M405.0385,-61.9778C374.7784,-49.1755 330.1214,-30.2821 303.458,-19.0015"/>
<polygon fill="#191970" stroke="#191970" points="403.7428,-65.23 414.3163,-65.903 406.4703,-58.7832 403.7428,-65.23"/>
</g>
<!-- Node17 -->
<g id="node8" class="node">
<title>Node17</title>
<g id="a_node8"><a xlink:href="$classTempl.html" xlink:title="Templ&lt; T &gt;">
<polygon fill="none" stroke="#000000" points="475,-151 399,-151 399,-132 475,-132 475,-151"/>
<text text-anchor="middle" x="437" y="-139" font-family="Helvetica,sans-Serif" font-size="10.00" fill="#000000">Templ&lt; T &gt;</text>
</a>
</g>
</g>
<!-- Node17&#45;&gt;Node16 -->
<g id="edge7" class="edge">
<title>Node17&#45;&gt;Node16</title>
<path fill="none" stroke="#ffa500" stroke-dasharray="5,2" d="M437,-121.732C437,-109.6966 437,-94.847 437,-85.2785"/>
<polygon fill="#ffa500" stroke="#ffa500" points="433.5001,-121.7614 437,-131.7615 440.5001,-121.7615 433.5001,-121.7614"/>
<text text-anchor="middle" x="455" y="-106" font-family="Helvetica,sans-Serif" font-size="10.00" fill="#000000">&lt; int &gt;</text>
</g>
<!-- Node18 -->
<g id="node9" class="node">
<title>Node18</title>
<g id="a_node9"><a xlink:href="$classUsed.html" xlink:title="Used">
<polygon fill="none" stroke="#000000" points="537.5,-85 496.5,-85 496.5,-66 537.5,-66 537.5,-85"/>
<text text-anchor="middle" x="517" y="-73" font-family="Helvetica,sans-Serif" font-size="10.00" fill="#000000">Used</text>
</a>
</g>
</g>
<!-- Node18&#45;&gt;Node9 -->
<g id="edge8" class="edge">
<title>Node18&#45;&gt;Node9</title>
<path fill="none" stroke="#9a32cd" stroke-dasharray="5,2" d="M486.4612,-65.6345C418.7134,-45.4535 349.8593,-27.2499 311.3027,-17.2625"/>
<polygon fill="#9a32cd" stroke="#9a32cd" points="485.8612,-69.1083 496.445,-68.6256 487.8702,-62.4028 485.8612,-69.1083"/>
<text text-anchor="middle" x="457.5" y="-40" font-family="Helvetica,sans-Serif" font-size="10.00" fill="#000000">m_usedClass</text>
</g>
</g>
</svg>
