<?xml version="1.0" encoding="UTF-8" standalone="no"?>
<!DOCTYPE svg PUBLIC "-//W3C//DTD SVG 1.1//EN"
 "http://www.w3.org/Graphics/SVG/1.1/DTD/svg11.dtd">
<!-- Generated by graphviz version 2.38.0 (20140413.2041)
 -->
<!-- Title: Graphical Class Hierarchy Pages: 1 -->
<svg width="268pt" height="66pt"
 viewBox="0.00 0.00 268.00 66.00" xmlns="http://www.w3.org/2000/svg" xmlns:xlink="http://www.w3.org/1999/xlink">
<g id="graph0" class="graph" transform="scale(1 1) rotate(0) translate(4 62)">
<title>Graphical Class Hierarchy</title>
<!-- Node1 -->
<g id="node1" class="node"><title>Node1</title>
<g id="a_node1"><a xlink:href="struct_ogre_1_1_cb_shared_draw.html" target="_top" xlink:title="Ogre::CbSharedDraw">
<polygon fill="none" stroke="black" points="0,-19.5 0,-38.5 110,-38.5 110,-19.5 0,-19.5"/>
<text text-anchor="middle" x="55" y="-26.5" font-family="Helvetica,sans-Serif" font-size="10.00">Ogre::CbSharedDraw</text>
</a>
</g>
</g>
<!-- Node2 -->
<g id="node2" class="node"><title>Node2</title>
<g id="a_node2"><a xlink:href="struct_ogre_1_1_cb_draw_indexed.html" target="_top" xlink:title="Ogre::CbDrawIndexed">
<polygon fill="none" stroke="black" points="146,-38.5 146,-57.5 260,-57.5 260,-38.5 146,-38.5"/>
<text text-anchor="middle" x="203" y="-45.5" font-family="Helvetica,sans-Serif" font-size="10.00">Ogre::CbDrawIndexed</text>
</a>
</g>
</g>
<!-- Node1&#45;&gt;Node2 -->
<g id="edge1" class="edge"><title>Node1&#45;&gt;Node2</title>
<path fill="none" stroke="midnightblue" d="M120.484,-37.3918C128.867,-38.4827 137.401,-39.5933 145.637,-40.6651"/>
<polygon fill="midnightblue" stroke="midnightblue" points="120.733,-33.8947 110.365,-36.0749 119.83,-40.8362 120.733,-33.8947"/>
</g>
<!-- Node3 -->
<g id="node3" class="node"><title>Node3</title>
<g id="a_node3"><a xlink:href="struct_ogre_1_1_cb_draw_strip.html" target="_top" xlink:title="Ogre::CbDrawStrip">
<polygon fill="none" stroke="black" points="153,-0.5 153,-19.5 253,-19.5 253,-0.5 153,-0.5"/>
<text text-anchor="middle" x="203" y="-7.5" font-family="Helvetica,sans-Serif" font-size="10.00">Ogre::CbDrawStrip</text>
</a>
</g>
</g>
<!-- Node1&#45;&gt;Node3 -->
<g id="edge2" class="edge"><title>Node1&#45;&gt;Node3</title>
<path fill="none" stroke="midnightblue" d="M120.301,-20.632C131.233,-19.2094 142.429,-17.7524 152.889,-16.3912"/>
<polygon fill="midnightblue" stroke="midnightblue" points="119.83,-17.1638 110.365,-21.9251 120.733,-24.1053 119.83,-17.1638"/>
</g>
</g>
</svg>
