<?xml version="1.0" encoding="UTF-8" standalone="no"?>
<!DOCTYPE svg PUBLIC "-//W3C//DTD SVG 1.1//EN"
 "http://www.w3.org/Graphics/SVG/1.1/DTD/svg11.dtd">
<!-- Generated by graphviz version 2.40.1 (20161225.0304)
 -->
<!-- Title: Graphical Class Hierarchy Pages: 1 -->
<svg width="263pt" height="104pt"
 viewBox="0.00 0.00 263.00 104.00" xmlns="http://www.w3.org/2000/svg" xmlns:xlink="http://www.w3.org/1999/xlink">
<g id="graph0" class="graph" transform="scale(1 1) rotate(0) translate(4 100)">
<title>Graphical Class Hierarchy</title>
<!-- Node0 -->
<g id="node1" class="node">
<title>Node0</title>
<g id="a_node1"><a xlink:href="struct_ogre_1_1_basic_block.html" target="_top" xlink:title="Ogre::BasicBlock">
<polygon fill="none" stroke="#000000" points="0,-38.5 0,-57.5 93,-57.5 93,-38.5 0,-38.5"/>
<text text-anchor="middle" x="46.5" y="-45.5" font-family="Helvetica,sans-Serif" font-size="10.00" fill="#000000">Ogre::BasicBlock</text>
</a>
</g>
</g>
<!-- Node1 -->
<g id="node2" class="node">
<title>Node1</title>
<g id="a_node2"><a xlink:href="struct_ogre_1_1_hlms_blendblock.html" target="_top" xlink:title="A blend block contains settings that rarely change, and thus are common to many materials. ">
<polygon fill="none" stroke="#000000" points="134.5,-76.5 134.5,-95.5 249.5,-95.5 249.5,-76.5 134.5,-76.5"/>
<text text-anchor="middle" x="192" y="-83.5" font-family="Helvetica,sans-Serif" font-size="10.00" fill="#000000">Ogre::HlmsBlendblock</text>
</a>
</g>
</g>
<!-- Node0&#45;&gt;Node1 -->
<g id="edge1" class="edge">
<title>Node0&#45;&gt;Node1</title>
<path fill="none" stroke="#191970" d="M93.1532,-60.1843C113.3534,-65.46 136.6481,-71.5438 155.5482,-76.4799"/>
<polygon fill="#191970" stroke="#191970" points="93.7757,-56.7296 83.2158,-57.589 92.0068,-63.5024 93.7757,-56.7296"/>
</g>
<!-- Node2 -->
<g id="node3" class="node">
<title>Node2</title>
<g id="a_node3"><a xlink:href="struct_ogre_1_1_hlms_macroblock.html" target="_top" xlink:title="A macro block contains settings that will rarely change, and thus are common to many materials...">
<polygon fill="none" stroke="#000000" points="133.5,-38.5 133.5,-57.5 250.5,-57.5 250.5,-38.5 133.5,-38.5"/>
<text text-anchor="middle" x="192" y="-45.5" font-family="Helvetica,sans-Serif" font-size="10.00" fill="#000000">Ogre::HlmsMacroblock</text>
</a>
</g>
</g>
<!-- Node0&#45;&gt;Node2 -->
<g id="edge2" class="edge">
<title>Node0&#45;&gt;Node2</title>
<path fill="none" stroke="#191970" d="M103.3789,-48C113.1852,-48 123.3959,-48 133.2504,-48"/>
<polygon fill="#191970" stroke="#191970" points="103.338,-44.5001 93.338,-48 103.338,-51.5001 103.338,-44.5001"/>
</g>
<!-- Node3 -->
<g id="node4" class="node">
<title>Node3</title>
<g id="a_node4"><a xlink:href="struct_ogre_1_1_hlms_samplerblock.html" target="_top" xlink:title="A sampler block contains settings that go hand in hand with a texture, and thus are common to many te...">
<polygon fill="none" stroke="#000000" points="129,-.5 129,-19.5 255,-19.5 255,-.5 129,-.5"/>
<text text-anchor="middle" x="192" y="-7.5" font-family="Helvetica,sans-Serif" font-size="10.00" fill="#000000">Ogre::HlmsSamplerblock</text>
</a>
</g>
</g>
<!-- Node0&#45;&gt;Node3 -->
<g id="edge3" class="edge">
<title>Node0&#45;&gt;Node3</title>
<path fill="none" stroke="#191970" d="M93.1532,-35.8157C113.3534,-30.54 136.6481,-24.4562 155.5482,-19.5201"/>
<polygon fill="#191970" stroke="#191970" points="92.0068,-32.4976 83.2158,-38.411 93.7757,-39.2704 92.0068,-32.4976"/>
</g>
</g>
</svg>
