<?xml version="1.0" encoding="UTF-8" standalone="no"?>
<!DOCTYPE svg PUBLIC "-//W3C//DTD SVG 1.1//EN"
 "http://www.w3.org/Graphics/SVG/1.1/DTD/svg11.dtd">
<!-- Generated by graphviz version 2.38.0 (20140413.2041)
 -->
<!-- Title: Graphical Class Hierarchy Pages: 1 -->
<svg width="349pt" height="180pt"
 viewBox="0.00 0.00 349.00 180.00" xmlns="http://www.w3.org/2000/svg" xmlns:xlink="http://www.w3.org/1999/xlink">
<g id="graph0" class="graph" transform="scale(1 1) rotate(0) translate(4 176)">
<title>Graphical Class Hierarchy</title>
<!-- Node1 -->
<g id="node1" class="node"><title>Node1</title>
<g id="a_node1"><a xlink:href="class_ogre_1_1_g_l3_plus_support.html" target="_top" xlink:title="Ogre::GL3PlusSupport">
<polygon fill="none" stroke="black" points="27,-76.5 27,-95.5 142,-95.5 142,-76.5 27,-76.5"/>
<text text-anchor="middle" x="84.5" y="-83.5" font-family="Helvetica,sans-Serif" font-size="10.00">Ogre::GL3PlusSupport</text>
</a>
</g>
</g>
<!-- Node2 -->
<g id="node2" class="node"><title>Node2</title>
<g id="a_node2"><a xlink:href="class_ogre_1_1_g_l_x_g_l_support.html" target="_top" xlink:title="Ogre::GLXGLSupport">
<polygon fill="none" stroke="black" points="218,-114.5 218,-133.5 328,-133.5 328,-114.5 218,-114.5"/>
<text text-anchor="middle" x="273" y="-121.5" font-family="Helvetica,sans-Serif" font-size="10.00">Ogre::GLXGLSupport</text>
</a>
</g>
</g>
<!-- Node1&#45;&gt;Node2 -->
<g id="edge1" class="edge"><title>Node1&#45;&gt;Node2</title>
<path fill="none" stroke="midnightblue" d="M142.478,-97.6095C169.003,-103.014 200.166,-109.364 225.277,-114.48"/>
<polygon fill="midnightblue" stroke="midnightblue" points="143.059,-94.1561 132.562,-95.589 141.662,-101.015 143.059,-94.1561"/>
</g>
<!-- Node3 -->
<g id="node3" class="node"><title>Node3</title>
<g id="a_node3"><a xlink:href="class_ogre_1_1_g_t_k_g_l_support.html" target="_top" xlink:title="GL support in a GTK window. ">
<polygon fill="none" stroke="black" points="218,-152.5 218,-171.5 328,-171.5 328,-152.5 218,-152.5"/>
<text text-anchor="middle" x="273" y="-159.5" font-family="Helvetica,sans-Serif" font-size="10.00">Ogre::GTKGLSupport</text>
</a>
</g>
</g>
<!-- Node1&#45;&gt;Node3 -->
<g id="edge2" class="edge"><title>Node1&#45;&gt;Node3</title>
<path fill="none" stroke="midnightblue" d="M112.433,-100.461C136.287,-112.875 172.299,-130.665 205,-143 214.276,-146.499 224.484,-149.706 234.075,-152.449"/>
<polygon fill="midnightblue" stroke="midnightblue" points="113.786,-97.2182 103.306,-95.6641 110.53,-103.415 113.786,-97.2182"/>
</g>
<!-- Node4 -->
<g id="node4" class="node"><title>Node4</title>
<g id="a_node4"><a xlink:href="class_ogre_1_1_o_s_x_g_l3_plus_support.html" target="_top" xlink:title="Ogre::OSXGL3PlusSupport">
<polygon fill="none" stroke="black" points="205,-76.5 205,-95.5 341,-95.5 341,-76.5 205,-76.5"/>
<text text-anchor="middle" x="273" y="-83.5" font-family="Helvetica,sans-Serif" font-size="10.00">Ogre::OSXGL3PlusSupport</text>
</a>
</g>
</g>
<!-- Node1&#45;&gt;Node4 -->
<g id="edge3" class="edge"><title>Node1&#45;&gt;Node4</title>
<path fill="none" stroke="midnightblue" d="M152.59,-86C169.549,-86 187.764,-86 204.731,-86"/>
<polygon fill="midnightblue" stroke="midnightblue" points="152.216,-82.5001 142.216,-86 152.216,-89.5001 152.216,-82.5001"/>
</g>
<!-- Node5 -->
<g id="node5" class="node"><title>Node5</title>
<g id="a_node5"><a xlink:href="class_ogre_1_1_s_d_l_g_l_support.html" target="_top" xlink:title="Ogre::SDLGLSupport">
<polygon fill="none" stroke="black" points="218,-38.5 218,-57.5 328,-57.5 328,-38.5 218,-38.5"/>
<text text-anchor="middle" x="273" y="-45.5" font-family="Helvetica,sans-Serif" font-size="10.00">Ogre::SDLGLSupport</text>
</a>
</g>
</g>
<!-- Node1&#45;&gt;Node5 -->
<g id="edge4" class="edge"><title>Node1&#45;&gt;Node5</title>
<path fill="none" stroke="midnightblue" d="M142.478,-74.3905C169.003,-68.986 200.166,-62.6365 225.277,-57.5201"/>
<polygon fill="midnightblue" stroke="midnightblue" points="141.662,-70.9849 132.562,-76.411 143.059,-77.8439 141.662,-70.9849"/>
</g>
<!-- Node6 -->
<g id="node6" class="node"><title>Node6</title>
<g id="a_node6"><a xlink:href="class_ogre_1_1_win32_g_l_support.html" target="_top" xlink:title="Ogre::Win32GLSupport">
<polygon fill="none" stroke="black" points="214,-0.5 214,-19.5 332,-19.5 332,-0.5 214,-0.5"/>
<text text-anchor="middle" x="273" y="-7.5" font-family="Helvetica,sans-Serif" font-size="10.00">Ogre::Win32GLSupport</text>
</a>
</g>
</g>
<!-- Node1&#45;&gt;Node6 -->
<g id="edge5" class="edge"><title>Node1&#45;&gt;Node6</title>
<path fill="none" stroke="midnightblue" d="M112.433,-71.5393C136.287,-59.1253 172.299,-41.3348 205,-29 214.276,-25.501 224.484,-22.2941 234.075,-19.5512"/>
<polygon fill="midnightblue" stroke="midnightblue" points="110.53,-68.5855 103.306,-76.3359 113.786,-74.7818 110.53,-68.5855"/>
</g>
<!-- Node7 -->
<g id="node7" class="node"><title>Node7</title>
<g id="a_node7"><a xlink:href="class_ogre_1_1_singleton.html" target="_top" xlink:title="Ogre::Singleton\&lt; GTKGLSupport \&gt;">
<polygon fill="none" stroke="black" points="0,-152.5 0,-171.5 169,-171.5 169,-152.5 0,-152.5"/>
<text text-anchor="middle" x="84.5" y="-159.5" font-family="Helvetica,sans-Serif" font-size="10.00">Ogre::Singleton&lt; GTKGLSupport &gt;</text>
</a>
</g>
</g>
<!-- Node7&#45;&gt;Node3 -->
<g id="edge6" class="edge"><title>Node7&#45;&gt;Node3</title>
<path fill="none" stroke="midnightblue" d="M179.326,-162C192.583,-162 205.825,-162 217.979,-162"/>
<polygon fill="midnightblue" stroke="midnightblue" points="179.203,-158.5 169.203,-162 179.203,-165.5 179.203,-158.5"/>
</g>
</g>
</svg>
