<?xml version="1.0" encoding="UTF-8" standalone="no"?>
<!DOCTYPE svg PUBLIC "-//W3C//DTD SVG 1.1//EN"
 "http://www.w3.org/Graphics/SVG/1.1/DTD/svg11.dtd">
<!-- Generated by graphviz version 2.38.0 (20140413.2041)
 -->
<!-- Title: Graphical Class Hierarchy Pages: 1 -->
<svg width="438pt" height="50pt"
 viewBox="0.00 0.00 438.00 50.00" xmlns="http://www.w3.org/2000/svg" xmlns:xlink="http://www.w3.org/1999/xlink">
<g id="graph0" class="graph" transform="scale(1 1) rotate(0) translate(4 46)">
<title>Graphical Class Hierarchy</title>
<!-- Node1 -->
<g id="node1" class="node"><title>Node1</title>
<g id="a_node1"><a xlink:href="class_ogre_1_1_iterator_wrapper.html" target="_top" xlink:title="Ogre::IteratorWrapper\l\&lt; T, T::iterator, T::\lmapped_type \&gt;">
<polygon fill="none" stroke="black" points="0,-0.5 0,-41.5 111,-41.5 111,-0.5 0,-0.5"/>
<text text-anchor="start" x="8" y="-29.5" font-family="Helvetica,sans-Serif" font-size="10.00">Ogre::IteratorWrapper</text>
<text text-anchor="start" x="8" y="-18.5" font-family="Helvetica,sans-Serif" font-size="10.00">&lt; T, T::iterator, T::</text>
<text text-anchor="middle" x="55.5" y="-7.5" font-family="Helvetica,sans-Serif" font-size="10.00">mapped_type &gt;</text>
</a>
</g>
</g>
<!-- Node2 -->
<g id="node2" class="node"><title>Node2</title>
<g id="a_node2"><a xlink:href="class_ogre_1_1_map_iterator_wrapper.html" target="_top" xlink:title="Ogre::MapIteratorWrapper\l\&lt; T, T::iterator \&gt;">
<polygon fill="none" stroke="black" points="147,-6 147,-36 277,-36 277,-6 147,-6"/>
<text text-anchor="start" x="155" y="-24" font-family="Helvetica,sans-Serif" font-size="10.00">Ogre::MapIteratorWrapper</text>
<text text-anchor="middle" x="212" y="-13" font-family="Helvetica,sans-Serif" font-size="10.00">&lt; T, T::iterator &gt;</text>
</a>
</g>
</g>
<!-- Node1&#45;&gt;Node2 -->
<g id="edge1" class="edge"><title>Node1&#45;&gt;Node2</title>
<path fill="none" stroke="midnightblue" d="M121.487,-21C129.853,-21 138.417,-21 146.771,-21"/>
<polygon fill="midnightblue" stroke="midnightblue" points="121.406,-17.5001 111.406,-21 121.406,-24.5001 121.406,-17.5001"/>
</g>
<!-- Node3 -->
<g id="node3" class="node"><title>Node3</title>
<g id="a_node3"><a xlink:href="class_ogre_1_1_map_iterator.html" target="_top" xlink:title="Concrete IteratorWrapper for nonconst access to the underlying key&#45;value container. ">
<polygon fill="none" stroke="black" points="313,-11.5 313,-30.5 430,-30.5 430,-11.5 313,-11.5"/>
<text text-anchor="middle" x="371.5" y="-18.5" font-family="Helvetica,sans-Serif" font-size="10.00">Ogre::MapIterator&lt; T &gt;</text>
</a>
</g>
</g>
<!-- Node2&#45;&gt;Node3 -->
<g id="edge2" class="edge"><title>Node2&#45;&gt;Node3</title>
<path fill="none" stroke="midnightblue" d="M287.134,-21C295.764,-21 304.469,-21 312.831,-21"/>
<polygon fill="midnightblue" stroke="midnightblue" points="287.061,-17.5001 277.061,-21 287.061,-24.5001 287.061,-17.5001"/>
</g>
</g>
</svg>
