<?xml version="1.0" encoding="UTF-8" standalone="no"?>
<!DOCTYPE svg PUBLIC "-//W3C//DTD SVG 1.1//EN"
 "http://www.w3.org/Graphics/SVG/1.1/DTD/svg11.dtd">
<!-- Generated by graphviz version 2.40.1 (20161225.0304)
 -->
<!-- Title: Graphical Class Hierarchy Pages: 1 -->
<svg width="473pt" height="142pt"
 viewBox="0.00 0.00 473.00 142.00" xmlns="http://www.w3.org/2000/svg" xmlns:xlink="http://www.w3.org/1999/xlink">
<g id="graph0" class="graph" transform="scale(1 1) rotate(0) translate(4 138)">
<title>Graphical Class Hierarchy</title>
<!-- Node1270 -->
<g id="node1" class="node">
<title>Node1270</title>
<g id="a_node1"><a xlink:href="class_ogre_1_1_g_l_e_s2_context.html" target="_top" xlink:title="Class that encapsulates an GL context. ">
<polygon fill="none" stroke="#000000" points="0,-57.5 0,-76.5 115,-76.5 115,-57.5 0,-57.5"/>
<text text-anchor="middle" x="57.5" y="-64.5" font-family="Helvetica,sans-Serif" font-size="10.00" fill="#000000">Ogre::GLES2Context</text>
</a>
</g>
</g>
<!-- Node1271 -->
<g id="node2" class="node">
<title>Node1271</title>
<g id="a_node2"><a xlink:href="class_ogre_1_1_e_g_l_context.html" target="_top" xlink:title="Ogre::EGLContext">
<polygon fill="none" stroke="#000000" points="159.5,-57.5 159.5,-76.5 262.5,-76.5 262.5,-57.5 159.5,-57.5"/>
<text text-anchor="middle" x="211" y="-64.5" font-family="Helvetica,sans-Serif" font-size="10.00" fill="#000000">Ogre::EGLContext</text>
</a>
</g>
</g>
<!-- Node1270&#45;&gt;Node1271 -->
<g id="edge1" class="edge">
<title>Node1270&#45;&gt;Node1271</title>
<path fill="none" stroke="#191970" d="M125.394,-67C136.7203,-67 148.3073,-67 159.1506,-67"/>
<polygon fill="#191970" stroke="#191970" points="125.0945,-63.5001 115.0945,-67 125.0944,-70.5001 125.0945,-63.5001"/>
</g>
<!-- Node0 -->
<g id="node7" class="node">
<title>Node0</title>
<g id="a_node7"><a xlink:href="class_ogre_1_1_na_cl_g_l_context.html" target="_top" xlink:title="Ogre::NaClGLContext">
<polygon fill="none" stroke="#000000" points="151,-19.5 151,-38.5 271,-38.5 271,-19.5 151,-19.5"/>
<text text-anchor="middle" x="211" y="-26.5" font-family="Helvetica,sans-Serif" font-size="10.00" fill="#000000">Ogre::NaClGLContext</text>
</a>
</g>
</g>
<!-- Node1270&#45;&gt;Node0 -->
<g id="edge6" class="edge">
<title>Node1270&#45;&gt;Node0</title>
<path fill="none" stroke="#191970" d="M106.1352,-54.96C127.5799,-49.6512 152.4226,-43.5012 172.544,-38.5201"/>
<polygon fill="#191970" stroke="#191970" points="105.1004,-51.6104 96.2345,-57.411 106.7826,-58.4053 105.1004,-51.6104"/>
</g>
<!-- Node1272 -->
<g id="node3" class="node">
<title>Node1272</title>
<g id="a_node3"><a xlink:href="class_ogre_1_1_android_e_g_l_context.html" target="_top" xlink:title="Ogre::AndroidEGLContext">
<polygon fill="none" stroke="#000000" points="316,-114.5 316,-133.5 456,-133.5 456,-114.5 316,-114.5"/>
<text text-anchor="middle" x="386" y="-121.5" font-family="Helvetica,sans-Serif" font-size="10.00" fill="#000000">Ogre::AndroidEGLContext</text>
</a>
</g>
</g>
<!-- Node1271&#45;&gt;Node1272 -->
<g id="edge2" class="edge">
<title>Node1271&#45;&gt;Node1272</title>
<path fill="none" stroke="#191970" d="M242.2282,-80.6551C260.8087,-88.4527 284.981,-98.0324 307,-105 318.0283,-108.4897 330.0969,-111.6933 341.408,-114.4359"/>
<polygon fill="#191970" stroke="#191970" points="243.3694,-77.3372 232.7969,-76.6491 240.6326,-83.7801 243.3694,-77.3372"/>
</g>
<!-- Node1273 -->
<g id="node4" class="node">
<title>Node1273</title>
<g id="a_node4"><a xlink:href="class_ogre_1_1_emscripten_e_g_l_context.html" target="_top" xlink:title="Ogre::EmscriptenEGLContext">
<polygon fill="none" stroke="#000000" points="307,-76.5 307,-95.5 465,-95.5 465,-76.5 307,-76.5"/>
<text text-anchor="middle" x="386" y="-83.5" font-family="Helvetica,sans-Serif" font-size="10.00" fill="#000000">Ogre::EmscriptenEGLContext</text>
</a>
</g>
</g>
<!-- Node1271&#45;&gt;Node1273 -->
<g id="edge3" class="edge">
<title>Node1271&#45;&gt;Node1273</title>
<path fill="none" stroke="#191970" d="M272.5607,-73.6837C283.664,-74.8892 295.38,-76.1613 306.8999,-77.412"/>
<polygon fill="#191970" stroke="#191970" points="272.8786,-70.1978 262.5593,-72.5979 272.123,-77.1569 272.8786,-70.1978"/>
</g>
<!-- Node1274 -->
<g id="node5" class="node">
<title>Node1274</title>
<g id="a_node5"><a xlink:href="class_ogre_1_1_win32_e_g_l_context.html" target="_top" xlink:title="Ogre::Win32EGLContext">
<polygon fill="none" stroke="#000000" points="319,-38.5 319,-57.5 453,-57.5 453,-38.5 319,-38.5"/>
<text text-anchor="middle" x="386" y="-45.5" font-family="Helvetica,sans-Serif" font-size="10.00" fill="#000000">Ogre::Win32EGLContext</text>
</a>
</g>
</g>
<!-- Node1271&#45;&gt;Node1274 -->
<g id="edge4" class="edge">
<title>Node1271&#45;&gt;Node1274</title>
<path fill="none" stroke="#191970" d="M272.7086,-60.3002C287.6582,-58.6771 303.7108,-56.9343 318.8956,-55.2856"/>
<polygon fill="#191970" stroke="#191970" points="272.123,-56.8431 262.5593,-61.4021 272.8786,-63.8022 272.123,-56.8431"/>
</g>
<!-- Node1275 -->
<g id="node6" class="node">
<title>Node1275</title>
<g id="a_node6"><a xlink:href="class_ogre_1_1_x11_e_g_l_context.html" target="_top" xlink:title="Ogre::X11EGLContext">
<polygon fill="none" stroke="#000000" points="325,-.5 325,-19.5 447,-19.5 447,-.5 325,-.5"/>
<text text-anchor="middle" x="386" y="-7.5" font-family="Helvetica,sans-Serif" font-size="10.00" fill="#000000">Ogre::X11EGLContext</text>
</a>
</g>
</g>
<!-- Node1271&#45;&gt;Node1275 -->
<g id="edge5" class="edge">
<title>Node1271&#45;&gt;Node1275</title>
<path fill="none" stroke="#191970" d="M254.2163,-54.3403C259.9184,-52.372 265.6401,-50.2418 271,-48 287.6905,-41.019 290.0733,-35.3872 307,-29 316.7665,-25.3147 327.4878,-22.1723 337.7958,-19.567"/>
<polygon fill="#191970" stroke="#191970" points="253.0979,-51.0237 244.7059,-57.491 255.2993,-57.6685 253.0979,-51.0237"/>
</g>
<!-- Node560 -->
<g id="node8" class="node">
<title>Node560</title>
<polygon fill="none" stroke="#bfbfbf" points="7,-19.5 7,-38.5 108,-38.5 108,-19.5 7,-19.5"/>
<text text-anchor="middle" x="57.5" y="-26.5" font-family="Helvetica,sans-Serif" font-size="10.00" fill="#000000">Graphics3DClient</text>
</g>
<!-- Node560&#45;&gt;Node0 -->
<g id="edge7" class="edge">
<title>Node560&#45;&gt;Node0</title>
<path fill="none" stroke="#191970" d="M118.275,-29C128.965,-29 140.0877,-29 150.763,-29"/>
<polygon fill="#191970" stroke="#191970" points="118.1871,-25.5001 108.1871,-29 118.187,-32.5001 118.1871,-25.5001"/>
</g>
</g>
</svg>
