<?xml version="1.0" encoding="UTF-8" standalone="no"?>
<!DOCTYPE svg PUBLIC "-//W3C//DTD SVG 1.1//EN"
 "http://www.w3.org/Graphics/SVG/1.1/DTD/svg11.dtd">
<!-- Generated by graphviz version 2.40.1 (20161225.0304)
 -->
<!-- Title: Graphical Class Hierarchy Pages: 1 -->
<svg width="281pt" height="104pt"
 viewBox="0.00 0.00 281.00 104.00" xmlns="http://www.w3.org/2000/svg" xmlns:xlink="http://www.w3.org/1999/xlink">
<g id="graph0" class="graph" transform="scale(1 1) rotate(0) translate(4 100)">
<title>Graphical Class Hierarchy</title>
<!-- Node0 -->
<g id="node1" class="node">
<title>Node0</title>
<g id="a_node1"><a xlink:href="struct_ogre_1_1_basic_block.html" target="_top" xlink:title="Ogre::BasicBlock">
<polygon fill="none" stroke="#000000" points="0,-38.5 0,-57.5 99,-57.5 99,-38.5 0,-38.5"/>
<text text-anchor="middle" x="49.5" y="-45.5" font-family="Helvetica,sans-Serif" font-size="10.00" fill="#000000">Ogre::BasicBlock</text>
</a>
</g>
</g>
<!-- Node1 -->
<g id="node2" class="node">
<title>Node1</title>
<g id="a_node2"><a xlink:href="struct_ogre_1_1_hlms_blendblock.html" target="_top" xlink:title="A blend block contains settings that rarely change, and thus are common to many materials. ">
<polygon fill="none" stroke="#000000" points="141.5,-76.5 141.5,-95.5 266.5,-95.5 266.5,-76.5 141.5,-76.5"/>
<text text-anchor="middle" x="204" y="-83.5" font-family="Helvetica,sans-Serif" font-size="10.00" fill="#000000">Ogre::HlmsBlendblock</text>
</a>
</g>
</g>
<!-- Node0&#45;&gt;Node1 -->
<g id="edge1" class="edge">
<title>Node0&#45;&gt;Node1</title>
<path fill="none" stroke="#191970" d="M98.4521,-60.04C120.0365,-65.3488 145.041,-71.4988 165.2935,-76.4799"/>
<polygon fill="#191970" stroke="#191970" points="99.0334,-56.5787 88.4869,-57.589 97.3615,-63.3762 99.0334,-56.5787"/>
</g>
<!-- Node2 -->
<g id="node3" class="node">
<title>Node2</title>
<g id="a_node3"><a xlink:href="struct_ogre_1_1_hlms_macroblock.html" target="_top" xlink:title="A macro block contains settings that will rarely change, and thus are common to many materials...">
<polygon fill="none" stroke="#000000" points="140,-38.5 140,-57.5 268,-57.5 268,-38.5 140,-38.5"/>
<text text-anchor="middle" x="204" y="-45.5" font-family="Helvetica,sans-Serif" font-size="10.00" fill="#000000">Ogre::HlmsMacroblock</text>
</a>
</g>
</g>
<!-- Node0&#45;&gt;Node2 -->
<g id="edge2" class="edge">
<title>Node0&#45;&gt;Node2</title>
<path fill="none" stroke="#191970" d="M109.4719,-48C119.465,-48 129.8647,-48 139.9547,-48"/>
<polygon fill="#191970" stroke="#191970" points="109.2352,-44.5001 99.2352,-48 109.2352,-51.5001 109.2352,-44.5001"/>
</g>
<!-- Node3 -->
<g id="node4" class="node">
<title>Node3</title>
<g id="a_node4"><a xlink:href="struct_ogre_1_1_hlms_samplerblock.html" target="_top" xlink:title="A sampler block contains settings that go hand in hand with a texture, and thus are common to many te...">
<polygon fill="none" stroke="#000000" points="135,-.5 135,-19.5 273,-19.5 273,-.5 135,-.5"/>
<text text-anchor="middle" x="204" y="-7.5" font-family="Helvetica,sans-Serif" font-size="10.00" fill="#000000">Ogre::HlmsSamplerblock</text>
</a>
</g>
</g>
<!-- Node0&#45;&gt;Node3 -->
<g id="edge3" class="edge">
<title>Node0&#45;&gt;Node3</title>
<path fill="none" stroke="#191970" d="M98.4521,-35.96C120.0365,-30.6512 145.041,-24.5012 165.2935,-19.5201"/>
<polygon fill="#191970" stroke="#191970" points="97.3615,-32.6238 88.4869,-38.411 99.0334,-39.4213 97.3615,-32.6238"/>
</g>
</g>
</svg>
