<?xml version="1.0" encoding="UTF-8" standalone="no"?>
<!DOCTYPE svg PUBLIC "-//W3C//DTD SVG 1.1//EN"
 "http://www.w3.org/Graphics/SVG/1.1/DTD/svg11.dtd">
<!-- Generated by graphviz version 2.40.1 (20161225.0304)
 -->
<!-- Title: Graphical Class Hierarchy Pages: 1 -->
<svg width="360pt" height="104pt"
 viewBox="0.00 0.00 360.00 104.00" xmlns="http://www.w3.org/2000/svg" xmlns:xlink="http://www.w3.org/1999/xlink">
<g id="graph0" class="graph" transform="scale(1 1) rotate(0) translate(4 100)">
<title>Graphical Class Hierarchy</title>
<!-- Node0 -->
<g id="node1" class="node">
<title>Node0</title>
<g id="a_node1"><a xlink:href="class_ogre_1_1_array_memory_manager_1_1_rebase_listener.html" target="_top" xlink:title="When mUsedMemory &gt;= mMaxMemory (that is, we&#39;ve exhausted all our preallocated memory) ArrayMemoryMana...">
<polygon fill="none" stroke="#000000" points="0,-33 0,-63 155,-63 155,-33 0,-33"/>
<text text-anchor="start" x="8" y="-51" font-family="Helvetica,sans-Serif" font-size="10.00" fill="#000000">Ogre::ArrayMemoryManager</text>
<text text-anchor="middle" x="77.5" y="-40" font-family="Helvetica,sans-Serif" font-size="10.00" fill="#000000">::RebaseListener</text>
</a>
</g>
</g>
<!-- Node1 -->
<g id="node2" class="node">
<title>Node1</title>
<g id="a_node2"><a xlink:href="class_ogre_1_1_bone_memory_manager.html" target="_top" xlink:title="Wrap&#45;around class that contains multiple ArrayMemoryManager, one per hierarchy depth. ">
<polygon fill="none" stroke="#000000" points="194.5,-76.5 194.5,-95.5 348.5,-95.5 348.5,-76.5 194.5,-76.5"/>
<text text-anchor="middle" x="271.5" y="-83.5" font-family="Helvetica,sans-Serif" font-size="10.00" fill="#000000">Ogre::BoneMemoryManager</text>
</a>
</g>
</g>
<!-- Node0&#45;&gt;Node1 -->
<g id="edge1" class="edge">
<title>Node0&#45;&gt;Node1</title>
<path fill="none" stroke="#8b1a1a" d="M164.0398,-64.9511C184.2692,-68.9135 205.1126,-72.9963 222.9953,-76.4991"/>
<polygon fill="#8b1a1a" stroke="#8b1a1a" points="164.6603,-61.5062 154.1739,-63.0186 163.3146,-68.3757 164.6603,-61.5062"/>
</g>
<!-- Node2 -->
<g id="node3" class="node">
<title>Node2</title>
<g id="a_node3"><a xlink:href="class_ogre_1_1_node_memory_manager.html" target="_top" xlink:title="Wrap&#45;around class that contains multiple ArrayMemoryManager, one per hierarchy depth. ">
<polygon fill="none" stroke="#000000" points="194,-38.5 194,-57.5 349,-57.5 349,-38.5 194,-38.5"/>
<text text-anchor="middle" x="271.5" y="-45.5" font-family="Helvetica,sans-Serif" font-size="10.00" fill="#000000">Ogre::NodeMemoryManager</text>
</a>
</g>
</g>
<!-- Node0&#45;&gt;Node2 -->
<g id="edge2" class="edge">
<title>Node0&#45;&gt;Node2</title>
<path fill="none" stroke="#8b1a1a" d="M165.2687,-48C174.7818,-48 184.4145,-48 193.7962,-48"/>
<polygon fill="#8b1a1a" stroke="#8b1a1a" points="165.0103,-44.5001 155.0103,-48 165.0103,-51.5001 165.0103,-44.5001"/>
</g>
<!-- Node3 -->
<g id="node4" class="node">
<title>Node3</title>
<g id="a_node4"><a xlink:href="class_ogre_1_1_object_memory_manager.html" target="_top" xlink:title="Wrap&#45;around class that contains multiple ArrayMemoryManager, one per render queue. ">
<polygon fill="none" stroke="#000000" points="191,-.5 191,-19.5 352,-19.5 352,-.5 191,-.5"/>
<text text-anchor="middle" x="271.5" y="-7.5" font-family="Helvetica,sans-Serif" font-size="10.00" fill="#000000">Ogre::ObjectMemoryManager</text>
</a>
</g>
</g>
<!-- Node0&#45;&gt;Node3 -->
<g id="edge3" class="edge">
<title>Node0&#45;&gt;Node3</title>
<path fill="none" stroke="#8b1a1a" d="M164.0398,-31.0489C184.2692,-27.0865 205.1126,-23.0037 222.9953,-19.5009"/>
<polygon fill="#8b1a1a" stroke="#8b1a1a" points="163.3146,-27.6243 154.1739,-32.9814 164.6603,-34.4938 163.3146,-27.6243"/>
</g>
</g>
</svg>
