<?xml version="1.0" encoding="UTF-8" standalone="no"?>
<!DOCTYPE svg PUBLIC "-//W3C//DTD SVG 1.1//EN"
 "http://www.w3.org/Graphics/SVG/1.1/DTD/svg11.dtd">
<!-- Generated by graphviz version 2.38.0 (20140413.2041)
 -->
<!-- Title: Graphical Class Hierarchy Pages: 1 -->
<svg width="176pt" height="66pt"
 viewBox="0.00 0.00 176.00 66.00" xmlns="http://www.w3.org/2000/svg" xmlns:xlink="http://www.w3.org/1999/xlink">
<g id="graph0" class="graph" transform="scale(1 1) rotate(0) translate(4 62)">
<title>Graphical Class Hierarchy</title>
<!-- Node1 -->
<g id="node1" class="node"><title>Node1</title>
<polygon fill="none" stroke="#bfbfbf" points="0,-19.5 0,-38.5 49,-38.5 49,-19.5 0,-19.5"/>
<text text-anchor="middle" x="24.5" y="-26.5" font-family="Helvetica,sans-Serif" font-size="10.00">UIView</text>
</g>
<!-- Node2 -->
<g id="node2" class="node"><title>Node2</title>
<g id="a_node2"><a xlink:href="interface_ogre_metal_view.html" target="_top" xlink:title="OgreMetalView">
<polygon fill="none" stroke="black" points="85,-38.5 85,-57.5 168,-57.5 168,-38.5 85,-38.5"/>
<text text-anchor="middle" x="126.5" y="-45.5" font-family="Helvetica,sans-Serif" font-size="10.00">OgreMetalView</text>
</a>
</g>
</g>
<!-- Node1&#45;&gt;Node2 -->
<g id="edge1" class="edge"><title>Node1&#45;&gt;Node2</title>
<path fill="none" stroke="midnightblue" d="M59.1718,-35.3976C67.3855,-36.9582 76.2595,-38.6443 84.7631,-40.26"/>
<polygon fill="midnightblue" stroke="midnightblue" points="59.6762,-31.9309 49.1986,-33.5027 58.3695,-38.8079 59.6762,-31.9309"/>
</g>
<!-- Node3 -->
<g id="node3" class="node"><title>Node3</title>
<g id="a_node3"><a xlink:href="interface_ogre_view.html" target="_top" xlink:title="OgreView">
<polygon fill="none" stroke="black" points="97,-0.5 97,-19.5 156,-19.5 156,-0.5 97,-0.5"/>
<text text-anchor="middle" x="126.5" y="-7.5" font-family="Helvetica,sans-Serif" font-size="10.00">OgreView</text>
</a>
</g>
</g>
<!-- Node1&#45;&gt;Node3 -->
<g id="edge2" class="edge"><title>Node1&#45;&gt;Node3</title>
<path fill="none" stroke="midnightblue" d="M59.1004,-22.6159C71.3953,-20.2799 85.1779,-17.6612 96.9862,-15.4176"/>
<polygon fill="midnightblue" stroke="midnightblue" points="58.3695,-19.1921 49.1986,-24.4973 59.6762,-26.0691 58.3695,-19.1921"/>
</g>
</g>
</svg>
