<?xml version="1.0" encoding="UTF-8" standalone="no"?>
<!DOCTYPE svg PUBLIC "-//W3C//DTD SVG 1.1//EN"
 "http://www.w3.org/Graphics/SVG/1.1/DTD/svg11.dtd">
<!-- Generated by graphviz version 2.40.1 (20161225.0304)
 -->
<!-- Title: Graphical Class Hierarchy Pages: 1 -->
<svg width="201pt" height="104pt"
 viewBox="0.00 0.00 201.00 104.00" xmlns="http://www.w3.org/2000/svg" xmlns:xlink="http://www.w3.org/1999/xlink">
<g id="graph0" class="graph" transform="scale(1 1) rotate(0) translate(4 100)">
<title>Graphical Class Hierarchy</title>
<!-- Node1903 -->
<g id="node1" class="node">
<title>Node1903</title>
<polygon fill="none" stroke="#bfbfbf" points="0,-66.5 0,-85.5 54,-85.5 54,-66.5 0,-66.5"/>
<text text-anchor="middle" x="27" y="-73.5" font-family="Helvetica,sans-Serif" font-size="10.00" fill="#000000">NSView</text>
</g>
<!-- Node1904 -->
<g id="node2" class="node">
<title>Node1904</title>
<g id="a_node2"><a xlink:href="interface_ogre_g_l3_plus_view.html" target="_top" xlink:title="OgreGL3PlusView">
<polygon fill="none" stroke="#000000" points="90,-76.5 90,-95.5 193,-95.5 193,-76.5 90,-76.5"/>
<text text-anchor="middle" x="141.5" y="-83.5" font-family="Helvetica,sans-Serif" font-size="10.00" fill="#000000">OgreGL3PlusView</text>
</a>
</g>
</g>
<!-- Node1903&#45;&gt;Node1904 -->
<g id="edge1" class="edge">
<title>Node1903&#45;&gt;Node1904</title>
<path fill="none" stroke="#191970" d="M64.1358,-79.2433C72.3461,-79.9604 81.1887,-80.7326 89.8581,-81.4898"/>
<polygon fill="#191970" stroke="#191970" points="64.4015,-75.7533 54.1349,-78.3699 63.7924,-82.7267 64.4015,-75.7533"/>
</g>
<!-- Node0 -->
<g id="node3" class="node">
<title>Node0</title>
<g id="a_node3"><a xlink:href="interface_ogre_metal_view.html" target="_top" xlink:title="OgreMetalView">
<polygon fill="none" stroke="#000000" points="95.5,-38.5 95.5,-57.5 187.5,-57.5 187.5,-38.5 95.5,-38.5"/>
<text text-anchor="middle" x="141.5" y="-45.5" font-family="Helvetica,sans-Serif" font-size="10.00" fill="#000000">OgreMetalView</text>
</a>
</g>
</g>
<!-- Node1903&#45;&gt;Node0 -->
<g id="edge2" class="edge">
<title>Node1903&#45;&gt;Node0</title>
<path fill="none" stroke="#191970" d="M64.048,-66.9402C76.3173,-63.9399 90.0066,-60.5923 102.4233,-57.5559"/>
<polygon fill="#191970" stroke="#191970" points="63.0173,-63.5891 54.1349,-69.3644 64.6801,-70.3887 63.0173,-63.5891"/>
</g>
<!-- Node318 -->
<g id="node4" class="node">
<title>Node318</title>
<polygon fill="none" stroke="#bfbfbf" points="1.5,-19.5 1.5,-38.5 52.5,-38.5 52.5,-19.5 1.5,-19.5"/>
<text text-anchor="middle" x="27" y="-26.5" font-family="Helvetica,sans-Serif" font-size="10.00" fill="#000000">UIView</text>
</g>
<!-- Node318&#45;&gt;Node0 -->
<g id="edge3" class="edge">
<title>Node318&#45;&gt;Node0</title>
<path fill="none" stroke="#191970" d="M62.5804,-34.9042C72.8925,-36.6153 84.305,-38.5091 95.1722,-40.3124"/>
<polygon fill="#191970" stroke="#191970" points="63.1341,-31.4483 52.696,-33.264 61.9882,-38.3538 63.1341,-31.4483"/>
</g>
<!-- Node320 -->
<g id="node5" class="node">
<title>Node320</title>
<g id="a_node5"><a xlink:href="interface_ogre_view.html" target="_top" xlink:title="OgreView">
<polygon fill="none" stroke="#000000" points="109.5,-.5 109.5,-19.5 173.5,-19.5 173.5,-.5 109.5,-.5"/>
<text text-anchor="middle" x="141.5" y="-7.5" font-family="Helvetica,sans-Serif" font-size="10.00" fill="#000000">OgreView</text>
</a>
</g>
</g>
<!-- Node318&#45;&gt;Node320 -->
<g id="edge4" class="edge">
<title>Node318&#45;&gt;Node320</title>
<path fill="none" stroke="#191970" d="M62.6075,-23.0913C77.5448,-20.6127 94.787,-17.7515 109.3352,-15.3374"/>
<polygon fill="#191970" stroke="#191970" points="61.9882,-19.6462 52.696,-24.736 63.1341,-26.5517 61.9882,-19.6462"/>
</g>
</g>
</svg>
