<?xml version="1.0" encoding="UTF-8" standalone="no"?>
<!DOCTYPE svg PUBLIC "-//W3C//DTD SVG 1.1//EN"
 "http://www.w3.org/Graphics/SVG/1.1/DTD/svg11.dtd">
<!-- Generated by graphviz version 2.40.1 (20161225.0304)
 -->
<!-- Title: Graphical Class Hierarchy Pages: 1 -->
<svg width="516pt" height="39pt"
 viewBox="0.00 0.00 516.00 39.00" xmlns="http://www.w3.org/2000/svg" xmlns:xlink="http://www.w3.org/1999/xlink">
<g id="graph0" class="graph" transform="scale(1 1) rotate(0) translate(4 35)">
<title>Graphical Class Hierarchy</title>
<!-- Node0 -->
<g id="node1" class="node">
<title>Node0</title>
<g id="a_node1"><a xlink:href="class_ogre_1_1_singleton.html" target="_top" xlink:title="Ogre::Singleton\&lt; GL3Plus\lRTTManager \&gt;">
<polygon fill="none" stroke="#000000" points="0,-.5 0,-30.5 142,-30.5 142,-.5 0,-.5"/>
<text text-anchor="start" x="8" y="-18.5" font-family="Helvetica,sans-Serif" font-size="10.00" fill="#000000">Ogre::Singleton&lt; GL3Plus</text>
<text text-anchor="middle" x="71" y="-7.5" font-family="Helvetica,sans-Serif" font-size="10.00" fill="#000000">RTTManager &gt;</text>
</a>
</g>
</g>
<!-- Node1 -->
<g id="node2" class="node">
<title>Node1</title>
<g id="a_node2"><a xlink:href="class_ogre_1_1_g_l3_plus_r_t_t_manager.html" target="_top" xlink:title="Manager/factory for RenderTextures. ">
<polygon fill="none" stroke="#000000" points="178,-6 178,-25 324,-25 324,-6 178,-6"/>
<text text-anchor="middle" x="251" y="-13" font-family="Helvetica,sans-Serif" font-size="10.00" fill="#000000">Ogre::GL3PlusRTTManager</text>
</a>
</g>
</g>
<!-- Node0&#45;&gt;Node1 -->
<g id="edge1" class="edge">
<title>Node0&#45;&gt;Node1</title>
<path fill="none" stroke="#191970" d="M152.3728,-15.5C160.8194,-15.5 169.3683,-15.5 177.7182,-15.5"/>
<polygon fill="#191970" stroke="#191970" points="152.1408,-12.0001 142.1408,-15.5 152.1407,-19.0001 152.1408,-12.0001"/>
</g>
<!-- Node2 -->
<g id="node3" class="node">
<title>Node2</title>
<g id="a_node3"><a xlink:href="class_ogre_1_1_g_l3_plus_f_b_o_manager.html" target="_top" xlink:title="Factory for GL Frame Buffer Objects, and related things. ">
<polygon fill="none" stroke="#000000" points="360,-6 360,-25 508,-25 508,-6 360,-6"/>
<text text-anchor="middle" x="434" y="-13" font-family="Helvetica,sans-Serif" font-size="10.00" fill="#000000">Ogre::GL3PlusFBOManager</text>
</a>
</g>
</g>
<!-- Node1&#45;&gt;Node2 -->
<g id="edge2" class="edge">
<title>Node1&#45;&gt;Node2</title>
<path fill="none" stroke="#191970" d="M334.3887,-15.5C342.8652,-15.5 351.4353,-15.5 359.8049,-15.5"/>
<polygon fill="#191970" stroke="#191970" points="334.1154,-12.0001 324.1154,-15.5 334.1154,-19.0001 334.1154,-12.0001"/>
</g>
</g>
</svg>
