<?xml version="1.0" encoding="UTF-8" standalone="no"?>
<!DOCTYPE svg PUBLIC "-//W3C//DTD SVG 1.1//EN"
 "http://www.w3.org/Graphics/SVG/1.1/DTD/svg11.dtd">
<!-- Generated by graphviz version 2.38.0 (20140413.2041)
 -->
<!-- Title: Graphical Class Hierarchy Pages: 1 -->
<svg width="392pt" height="370pt"
 viewBox="0.00 0.00 392.00 370.00" xmlns="http://www.w3.org/2000/svg" xmlns:xlink="http://www.w3.org/1999/xlink">
<g id="graph0" class="graph" transform="scale(1 1) rotate(0) translate(4 366)">
<title>Graphical Class Hierarchy</title>
<!-- Node1 -->
<g id="node1" class="node"><title>Node1</title>
<polygon fill="none" stroke="#bfbfbf" points="0,-171.5 0,-190.5 59,-190.5 59,-171.5 0,-171.5"/>
<text text-anchor="middle" x="29.5" y="-178.5" font-family="Helvetica,sans-Serif" font-size="10.00">exception</text>
</g>
<!-- Node2 -->
<g id="node2" class="node"><title>Node2</title>
<g id="a_node2"><a xlink:href="class_ogre_1_1_exception.html" target="_top" xlink:title="When thrown, provides information about an error that has occurred inside the engine. ">
<polygon fill="none" stroke="black" points="95,-171.5 95,-190.5 182,-190.5 182,-171.5 95,-171.5"/>
<text text-anchor="middle" x="138.5" y="-178.5" font-family="Helvetica,sans-Serif" font-size="10.00">Ogre::Exception</text>
</a>
</g>
</g>
<!-- Node1&#45;&gt;Node2 -->
<g id="edge1" class="edge"><title>Node1&#45;&gt;Node2</title>
<path fill="none" stroke="midnightblue" d="M69.2787,-181C77.5211,-181 86.2691,-181 94.6533,-181"/>
<polygon fill="midnightblue" stroke="midnightblue" points="69.1741,-177.5 59.174,-181 69.174,-184.5 69.1741,-177.5"/>
</g>
<!-- Node3 -->
<g id="node3" class="node"><title>Node3</title>
<g id="a_node3"><a xlink:href="class_ogre_1_1_file_not_found_exception.html" target="_top" xlink:title="Ogre::FileNotFoundException">
<polygon fill="none" stroke="black" points="228,-342.5 228,-361.5 374,-361.5 374,-342.5 228,-342.5"/>
<text text-anchor="middle" x="301" y="-349.5" font-family="Helvetica,sans-Serif" font-size="10.00">Ogre::FileNotFoundException</text>
</a>
</g>
</g>
<!-- Node2&#45;&gt;Node3 -->
<g id="edge2" class="edge"><title>Node2&#45;&gt;Node3</title>
<path fill="none" stroke="midnightblue" d="M143.984,-200.767C152.488,-233.548 174.164,-298.917 218,-333 222.961,-336.857 228.568,-339.954 234.466,-342.438"/>
<polygon fill="midnightblue" stroke="midnightblue" points="147.283,-199.521 141.511,-190.636 140.483,-201.181 147.283,-199.521"/>
</g>
<!-- Node4 -->
<g id="node4" class="node"><title>Node4</title>
<g id="a_node4"><a xlink:href="class_ogre_1_1_internal_error_exception.html" target="_top" xlink:title="Ogre::InternalErrorException">
<polygon fill="none" stroke="black" points="231,-304.5 231,-323.5 371,-323.5 371,-304.5 231,-304.5"/>
<text text-anchor="middle" x="301" y="-311.5" font-family="Helvetica,sans-Serif" font-size="10.00">Ogre::InternalErrorException</text>
</a>
</g>
</g>
<!-- Node2&#45;&gt;Node4 -->
<g id="edge3" class="edge"><title>Node2&#45;&gt;Node4</title>
<path fill="none" stroke="midnightblue" d="M147.335,-200.178C158.867,-225.904 182.909,-271.11 218,-295 223.677,-298.865 230.034,-301.952 236.629,-304.415"/>
<polygon fill="midnightblue" stroke="midnightblue" points="150.451,-198.565 143.285,-190.761 144.02,-201.33 150.451,-198.565"/>
</g>
<!-- Node5 -->
<g id="node5" class="node"><title>Node5</title>
<g id="a_node5"><a xlink:href="class_ogre_1_1_invalid_call_exception.html" target="_top" xlink:title="Ogre::InvalidCallException">
<polygon fill="none" stroke="black" points="234.5,-266.5 234.5,-285.5 367.5,-285.5 367.5,-266.5 234.5,-266.5"/>
<text text-anchor="middle" x="301" y="-273.5" font-family="Helvetica,sans-Serif" font-size="10.00">Ogre::InvalidCallException</text>
</a>
</g>
</g>
<!-- Node2&#45;&gt;Node5 -->
<g id="edge4" class="edge"><title>Node2&#45;&gt;Node5</title>
<path fill="none" stroke="midnightblue" d="M153.067,-198.895C167.315,-216.4 191.327,-242.482 218,-257 225.188,-260.912 233.155,-264.022 241.216,-266.493"/>
<polygon fill="midnightblue" stroke="midnightblue" points="155.486,-196.311 146.544,-190.629 149.991,-200.648 155.486,-196.311"/>
</g>
<!-- Node6 -->
<g id="node6" class="node"><title>Node6</title>
<g id="a_node6"><a xlink:href="class_ogre_1_1_invalid_parameters_exception.html" target="_top" xlink:title="Ogre::InvalidParametersException">
<polygon fill="none" stroke="black" points="218,-228.5 218,-247.5 384,-247.5 384,-228.5 218,-228.5"/>
<text text-anchor="middle" x="301" y="-235.5" font-family="Helvetica,sans-Serif" font-size="10.00">Ogre::InvalidParametersException</text>
</a>
</g>
</g>
<!-- Node2&#45;&gt;Node6 -->
<g id="edge5" class="edge"><title>Node2&#45;&gt;Node6</title>
<path fill="none" stroke="midnightblue" d="M165.635,-195.473C180.611,-203.298 199.963,-212.635 218,-219 228.335,-222.647 239.653,-225.788 250.49,-228.407"/>
<polygon fill="midnightblue" stroke="midnightblue" points="166.954,-192.21 156.483,-190.595 163.662,-198.387 166.954,-192.21"/>
</g>
<!-- Node7 -->
<g id="node7" class="node"><title>Node7</title>
<g id="a_node7"><a xlink:href="class_ogre_1_1_invalid_state_exception.html" target="_top" xlink:title="Ogre::InvalidStateException">
<polygon fill="none" stroke="black" points="231.5,-190.5 231.5,-209.5 370.5,-209.5 370.5,-190.5 231.5,-190.5"/>
<text text-anchor="middle" x="301" y="-197.5" font-family="Helvetica,sans-Serif" font-size="10.00">Ogre::InvalidStateException</text>
</a>
</g>
</g>
<!-- Node2&#45;&gt;Node7 -->
<g id="edge6" class="edge"><title>Node2&#45;&gt;Node7</title>
<path fill="none" stroke="midnightblue" d="M192.324,-187.253C204.828,-188.734 218.342,-190.333 231.433,-191.883"/>
<polygon fill="midnightblue" stroke="midnightblue" points="192.432,-183.742 182.09,-186.042 191.609,-190.693 192.432,-183.742"/>
</g>
<!-- Node8 -->
<g id="node8" class="node"><title>Node8</title>
<g id="a_node8"><a xlink:href="class_ogre_1_1_i_o_exception.html" target="_top" xlink:title="Ogre::IOException">
<polygon fill="none" stroke="black" points="252,-152.5 252,-171.5 350,-171.5 350,-152.5 252,-152.5"/>
<text text-anchor="middle" x="301" y="-159.5" font-family="Helvetica,sans-Serif" font-size="10.00">Ogre::IOException</text>
</a>
</g>
</g>
<!-- Node2&#45;&gt;Node8 -->
<g id="edge7" class="edge"><title>Node2&#45;&gt;Node8</title>
<path fill="none" stroke="midnightblue" d="M192.187,-174.763C211.403,-172.488 233.018,-169.929 251.822,-167.703"/>
<polygon fill="midnightblue" stroke="midnightblue" points="191.609,-171.307 182.09,-175.958 192.432,-178.258 191.609,-171.307"/>
</g>
<!-- Node9 -->
<g id="node9" class="node"><title>Node9</title>
<g id="a_node9"><a xlink:href="class_ogre_1_1_item_identity_exception.html" target="_top" xlink:title="Ogre::ItemIdentityException">
<polygon fill="none" stroke="black" points="231.5,-114.5 231.5,-133.5 370.5,-133.5 370.5,-114.5 231.5,-114.5"/>
<text text-anchor="middle" x="301" y="-121.5" font-family="Helvetica,sans-Serif" font-size="10.00">Ogre::ItemIdentityException</text>
</a>
</g>
</g>
<!-- Node2&#45;&gt;Node9 -->
<g id="edge8" class="edge"><title>Node2&#45;&gt;Node9</title>
<path fill="none" stroke="midnightblue" d="M165.635,-166.527C180.611,-158.702 199.963,-149.365 218,-143 228.335,-139.353 239.653,-136.212 250.49,-133.593"/>
<polygon fill="midnightblue" stroke="midnightblue" points="163.662,-163.613 156.483,-171.405 166.954,-169.79 163.662,-163.613"/>
</g>
<!-- Node10 -->
<g id="node10" class="node"><title>Node10</title>
<g id="a_node10"><a xlink:href="class_ogre_1_1_rendering_a_p_i_exception.html" target="_top" xlink:title="Ogre::RenderingAPIException">
<polygon fill="none" stroke="black" points="227,-76.5 227,-95.5 375,-95.5 375,-76.5 227,-76.5"/>
<text text-anchor="middle" x="301" y="-83.5" font-family="Helvetica,sans-Serif" font-size="10.00">Ogre::RenderingAPIException</text>
</a>
</g>
</g>
<!-- Node2&#45;&gt;Node10 -->
<g id="edge9" class="edge"><title>Node2&#45;&gt;Node10</title>
<path fill="none" stroke="midnightblue" d="M153.067,-163.105C167.315,-145.6 191.327,-119.518 218,-105 225.188,-101.088 233.155,-97.9779 241.216,-95.5067"/>
<polygon fill="midnightblue" stroke="midnightblue" points="149.991,-161.352 146.544,-171.371 155.486,-165.689 149.991,-161.352"/>
</g>
<!-- Node11 -->
<g id="node11" class="node"><title>Node11</title>
<g id="a_node11"><a xlink:href="class_ogre_1_1_runtime_assertion_exception.html" target="_top" xlink:title="Ogre::RuntimeAssertionException">
<polygon fill="none" stroke="black" points="218.5,-38.5 218.5,-57.5 383.5,-57.5 383.5,-38.5 218.5,-38.5"/>
<text text-anchor="middle" x="301" y="-45.5" font-family="Helvetica,sans-Serif" font-size="10.00">Ogre::RuntimeAssertionException</text>
</a>
</g>
</g>
<!-- Node2&#45;&gt;Node11 -->
<g id="edge10" class="edge"><title>Node2&#45;&gt;Node11</title>
<path fill="none" stroke="midnightblue" d="M147.335,-161.822C158.867,-136.096 182.909,-90.8903 218,-67 223.677,-63.1348 230.034,-60.0484 236.629,-57.5852"/>
<polygon fill="midnightblue" stroke="midnightblue" points="144.02,-160.67 143.285,-171.239 150.451,-163.435 144.02,-160.67"/>
</g>
<!-- Node12 -->
<g id="node12" class="node"><title>Node12</title>
<g id="a_node12"><a xlink:href="class_ogre_1_1_unimplemented_exception.html" target="_top" xlink:title="Template struct which creates a distinct type for each exception code. ">
<polygon fill="none" stroke="black" points="223.5,-0.5 223.5,-19.5 378.5,-19.5 378.5,-0.5 223.5,-0.5"/>
<text text-anchor="middle" x="301" y="-7.5" font-family="Helvetica,sans-Serif" font-size="10.00">Ogre::UnimplementedException</text>
</a>
</g>
</g>
<!-- Node2&#45;&gt;Node12 -->
<g id="edge11" class="edge"><title>Node2&#45;&gt;Node12</title>
<path fill="none" stroke="midnightblue" d="M143.984,-161.233C152.488,-128.452 174.164,-63.0832 218,-29 222.961,-25.143 228.568,-22.0456 234.466,-19.5615"/>
<polygon fill="midnightblue" stroke="midnightblue" points="140.483,-160.819 141.511,-171.364 147.283,-162.479 140.483,-160.819"/>
</g>
</g>
</svg>
