<?xml version="1.0" encoding="UTF-8" standalone="no"?>
<!DOCTYPE svg PUBLIC "-//W3C//DTD SVG 1.1//EN"
 "http://www.w3.org/Graphics/SVG/1.1/DTD/svg11.dtd">
<!-- Generated by graphviz version 2.38.0 (20140413.2041)
 -->
<!-- Title: Graphical Class Hierarchy Pages: 1 -->
<svg width="304pt" height="66pt"
 viewBox="0.00 0.00 304.00 66.00" xmlns="http://www.w3.org/2000/svg" xmlns:xlink="http://www.w3.org/1999/xlink">
<g id="graph0" class="graph" transform="scale(1 1) rotate(0) translate(4 62)">
<title>Graphical Class Hierarchy</title>
<!-- Node1 -->
<g id="node1" class="node"><title>Node1</title>
<g id="a_node1"><a xlink:href="class_ogre_1_1_lod_input_provider.html" target="_top" xlink:title="Ogre::LodInputProvider">
<polygon fill="none" stroke="black" points="0,-19.5 0,-38.5 117,-38.5 117,-19.5 0,-19.5"/>
<text text-anchor="middle" x="58.5" y="-26.5" font-family="Helvetica,sans-Serif" font-size="10.00">Ogre::LodInputProvider</text>
</a>
</g>
</g>
<!-- Node2 -->
<g id="node2" class="node"><title>Node2</title>
<g id="a_node2"><a xlink:href="class_ogre_1_1_lod_input_provider_buffer.html" target="_top" xlink:title="Ogre::LodInputProviderBuffer">
<polygon fill="none" stroke="black" points="153,-38.5 153,-57.5 296,-57.5 296,-38.5 153,-38.5"/>
<text text-anchor="middle" x="224.5" y="-45.5" font-family="Helvetica,sans-Serif" font-size="10.00">Ogre::LodInputProviderBuffer</text>
</a>
</g>
</g>
<!-- Node1&#45;&gt;Node2 -->
<g id="edge1" class="edge"><title>Node1&#45;&gt;Node2</title>
<path fill="none" stroke="midnightblue" d="M127.467,-36.8743C135.889,-37.85 144.515,-38.8493 152.974,-39.8293"/>
<polygon fill="midnightblue" stroke="midnightblue" points="127.657,-33.3729 117.32,-35.6987 126.851,-40.3264 127.657,-33.3729"/>
</g>
<!-- Node3 -->
<g id="node3" class="node"><title>Node3</title>
<g id="a_node3"><a xlink:href="class_ogre_1_1_lod_input_provider_mesh.html" target="_top" xlink:title="Ogre::LodInputProviderMesh">
<polygon fill="none" stroke="black" points="154,-0.5 154,-19.5 295,-19.5 295,-0.5 154,-0.5"/>
<text text-anchor="middle" x="224.5" y="-7.5" font-family="Helvetica,sans-Serif" font-size="10.00">Ogre::LodInputProviderMesh</text>
</a>
</g>
</g>
<!-- Node1&#45;&gt;Node3 -->
<g id="edge2" class="edge"><title>Node1&#45;&gt;Node3</title>
<path fill="none" stroke="midnightblue" d="M127.43,-21.1301C136.148,-20.1201 145.085,-19.0847 153.83,-18.0715"/>
<polygon fill="midnightblue" stroke="midnightblue" points="126.851,-17.6736 117.32,-22.3013 127.657,-24.6271 126.851,-17.6736"/>
</g>
</g>
</svg>
