<?xml version="1.0" encoding="UTF-8" standalone="no"?>
<!DOCTYPE svg PUBLIC "-//W3C//DTD SVG 1.1//EN"
 "http://www.w3.org/Graphics/SVG/1.1/DTD/svg11.dtd">
<!-- Generated by graphviz version 2.40.1 (20161225.0304)
 -->
<!-- Title: Graphical Class Hierarchy Pages: 1 -->
<svg width="419pt" height="176pt"
 viewBox="0.00 0.00 419.00 175.50" xmlns="http://www.w3.org/2000/svg" xmlns:xlink="http://www.w3.org/1999/xlink">
<g id="graph0" class="graph" transform="scale(1 1) rotate(0) translate(4 171.5)">
<title>Graphical Class Hierarchy</title>
<!-- Node0 -->
<g id="node1" class="node">
<title>Node0</title>
<g id="a_node1"><a xlink:href="class_ogre_1_1_pixel_format_to_shader_type.html" target="_top" xlink:title="Ogre::PixelFormatToShaderType">
<polygon fill="none" stroke="#000000" points="0,-68.5 0,-87.5 175,-87.5 175,-68.5 0,-68.5"/>
<text text-anchor="middle" x="87.5" y="-75.5" font-family="Helvetica,sans-Serif" font-size="10.00" fill="#000000">Ogre::PixelFormatToShaderType</text>
</a>
</g>
</g>
<!-- Node1 -->
<g id="node2" class="node">
<title>Node1</title>
<g id="a_node2"><a xlink:href="class_ogre_1_1_d3_d11_pixel_format_to_shader_type.html" target="_top" xlink:title="Ogre::D3D11PixelFormatTo\lShaderType">
<polygon fill="none" stroke="#000000" points="236,-137 236,-167 386,-167 386,-137 236,-137"/>
<text text-anchor="start" x="244" y="-155" font-family="Helvetica,sans-Serif" font-size="10.00" fill="#000000">Ogre::D3D11PixelFormatTo</text>
<text text-anchor="middle" x="311" y="-144" font-family="Helvetica,sans-Serif" font-size="10.00" fill="#000000">ShaderType</text>
</a>
</g>
</g>
<!-- Node0&#45;&gt;Node1 -->
<g id="edge1" class="edge">
<title>Node0&#45;&gt;Node1</title>
<path fill="none" stroke="#191970" d="M117.7743,-91.7359C142.494,-102.5898 178.524,-117.5929 211,-128 221.0314,-131.2146 231.7506,-134.2223 242.3076,-136.9477"/>
<polygon fill="#191970" stroke="#191970" points="119.1234,-88.5055 108.5629,-87.6533 116.287,-94.9051 119.1234,-88.5055"/>
</g>
<!-- Node2 -->
<g id="node3" class="node">
<title>Node2</title>
<g id="a_node3"><a xlink:href="class_ogre_1_1_g_l3_plus_pixel_format_to_shader_type.html" target="_top" xlink:title="Ogre::GL3PlusPixelFormat\lToShaderType">
<polygon fill="none" stroke="#000000" points="239,-88 239,-118 383,-118 383,-88 239,-88"/>
<text text-anchor="start" x="247" y="-106" font-family="Helvetica,sans-Serif" font-size="10.00" fill="#000000">Ogre::GL3PlusPixelFormat</text>
<text text-anchor="middle" x="311" y="-95" font-family="Helvetica,sans-Serif" font-size="10.00" fill="#000000">ToShaderType</text>
</a>
</g>
</g>
<!-- Node0&#45;&gt;Node2 -->
<g id="edge2" class="edge">
<title>Node0&#45;&gt;Node2</title>
<path fill="none" stroke="#191970" d="M182.7001,-88.6488C201.5095,-90.7527 220.9586,-92.9283 238.8518,-94.9297"/>
<polygon fill="#191970" stroke="#191970" points="182.9605,-85.1562 172.6333,-87.5227 182.1823,-92.1128 182.9605,-85.1562"/>
</g>
<!-- Node3 -->
<g id="node4" class="node">
<title>Node3</title>
<g id="a_node4"><a xlink:href="class_ogre_1_1_metal_pixel_format_to_shader_type.html" target="_top" xlink:title="Ogre::MetalPixelFormatTo\lShaderType">
<polygon fill="none" stroke="#000000" points="238.5,-39 238.5,-69 383.5,-69 383.5,-39 238.5,-39"/>
<text text-anchor="start" x="246.5" y="-57" font-family="Helvetica,sans-Serif" font-size="10.00" fill="#000000">Ogre::MetalPixelFormatTo</text>
<text text-anchor="middle" x="311" y="-46" font-family="Helvetica,sans-Serif" font-size="10.00" fill="#000000">ShaderType</text>
</a>
</g>
</g>
<!-- Node0&#45;&gt;Node3 -->
<g id="edge3" class="edge">
<title>Node0&#45;&gt;Node3</title>
<path fill="none" stroke="#191970" d="M185.566,-67.4694C203.3008,-65.565 221.5025,-63.6105 238.3479,-61.8016"/>
<polygon fill="#191970" stroke="#191970" points="184.7608,-64.0357 175.1916,-68.5834 185.5082,-70.9957 184.7608,-64.0357"/>
</g>
<!-- Node4 -->
<g id="node5" class="node">
<title>Node4</title>
<g id="a_node5"><a xlink:href="class_ogre_1_1_n_u_l_l_pixel_format_to_shader_type.html" target="_top" xlink:title="Ogre::NULLPixelFormatToShaderType">
<polygon fill="none" stroke="#000000" points="211,-.5 211,-19.5 411,-19.5 411,-.5 211,-.5"/>
<text text-anchor="middle" x="311" y="-7.5" font-family="Helvetica,sans-Serif" font-size="10.00" fill="#000000">Ogre::NULLPixelFormatToShaderType</text>
</a>
</g>
</g>
<!-- Node0&#45;&gt;Node4 -->
<g id="edge4" class="edge">
<title>Node0&#45;&gt;Node4</title>
<path fill="none" stroke="#191970" d="M118.1765,-64.3606C142.8582,-53.8078 178.6399,-39.4472 211,-30 224.9363,-25.9314 240.2047,-22.4173 254.5219,-19.5198"/>
<polygon fill="#191970" stroke="#191970" points="116.7584,-61.1606 108.9683,-68.3414 119.5362,-67.5859 116.7584,-61.1606"/>
</g>
</g>
</svg>
