<?xml version="1.0" encoding="UTF-8" standalone="no"?>
<!DOCTYPE svg PUBLIC "-//W3C//DTD SVG 1.1//EN"
 "http://www.w3.org/Graphics/SVG/1.1/DTD/svg11.dtd">
<!-- Generated by graphviz version 2.40.1 (20161225.0304)
 -->
<!-- Title: Graphical Class Hierarchy Pages: 1 -->
<svg width="1041pt" height="328pt"
 viewBox="0.00 0.00 1041.00 328.00" xmlns="http://www.w3.org/2000/svg" xmlns:xlink="http://www.w3.org/1999/xlink">
<g id="graph0" class="graph" transform="scale(1 1) rotate(0) translate(4 324)">
<title>Graphical Class Hierarchy</title>
<!-- Node0 -->
<g id="node1" class="node">
<title>Node0</title>
<g id="a_node1"><a xlink:href="class_ogre_1_1_small_vector_base.html" target="_top" xlink:title="SmallVectorBase &#45; This is all the non&#45;templated stuff common to all SmallVectors. ...">
<polygon fill="none" stroke="#000000" points="0,-112 0,-131 129,-131 129,-112 0,-112"/>
<text text-anchor="middle" x="64.5" y="-119" font-family="Helvetica,sans-Serif" font-size="10.00" fill="#000000">Ogre::SmallVectorBase</text>
</a>
</g>
</g>
<!-- Node1 -->
<g id="node2" class="node">
<title>Node1</title>
<g id="a_node2"><a xlink:href="class_ogre_1_1_small_vector_template_common.html" target="_top" xlink:title="Ogre::SmallVectorTemplate\lCommon\&lt; T \&gt;">
<polygon fill="none" stroke="#000000" points="165,-212.5 165,-242.5 317,-242.5 317,-212.5 165,-212.5"/>
<text text-anchor="start" x="173" y="-230.5" font-family="Helvetica,sans-Serif" font-size="10.00" fill="#000000">Ogre::SmallVectorTemplate</text>
<text text-anchor="middle" x="241" y="-219.5" font-family="Helvetica,sans-Serif" font-size="10.00" fill="#000000">Common&lt; T &gt;</text>
</a>
</g>
</g>
<!-- Node0&#45;&gt;Node1 -->
<g id="edge1" class="edge">
<title>Node0&#45;&gt;Node1</title>
<path fill="none" stroke="#191970" d="M89.1929,-136.3297C122.7049,-156.4559 182.2603,-192.2229 215.9541,-212.4583"/>
<polygon fill="#191970" stroke="#191970" points="90.8493,-133.2418 80.4745,-131.0937 87.2453,-139.2428 90.8493,-133.2418"/>
</g>
<!-- Node10 -->
<g id="node11" class="node">
<title>Node10</title>
<g id="a_node11"><a xlink:href="class_ogre_1_1_small_vector_template_common.html" target="_top" xlink:title="Ogre::SmallVectorTemplate\lCommon\&lt; Edge \&gt;">
<polygon fill="none" stroke="#000000" points="165,-106.5 165,-136.5 317,-136.5 317,-106.5 165,-106.5"/>
<text text-anchor="start" x="173" y="-124.5" font-family="Helvetica,sans-Serif" font-size="10.00" fill="#000000">Ogre::SmallVectorTemplate</text>
<text text-anchor="middle" x="241" y="-113.5" font-family="Helvetica,sans-Serif" font-size="10.00" fill="#000000">Common&lt; Edge &gt;</text>
</a>
</g>
</g>
<!-- Node0&#45;&gt;Node10 -->
<g id="edge10" class="edge">
<title>Node0&#45;&gt;Node10</title>
<path fill="none" stroke="#191970" d="M139.4129,-121.5C147.8547,-121.5 156.4631,-121.5 164.9196,-121.5"/>
<polygon fill="#191970" stroke="#191970" points="139.2199,-118.0001 129.2199,-121.5 139.2198,-125.0001 139.2199,-118.0001"/>
</g>
<!-- Node15 -->
<g id="node16" class="node">
<title>Node15</title>
<g id="a_node16"><a xlink:href="class_ogre_1_1_small_vector_template_common.html" target="_top" xlink:title="Ogre::SmallVectorTemplate\lCommon\&lt; Triangle * \&gt;">
<polygon fill="none" stroke="#000000" points="165,-52.5 165,-82.5 317,-82.5 317,-52.5 165,-52.5"/>
<text text-anchor="start" x="173" y="-70.5" font-family="Helvetica,sans-Serif" font-size="10.00" fill="#000000">Ogre::SmallVectorTemplate</text>
<text text-anchor="middle" x="241" y="-59.5" font-family="Helvetica,sans-Serif" font-size="10.00" fill="#000000">Common&lt; Triangle * &gt;</text>
</a>
</g>
</g>
<!-- Node0&#45;&gt;Node15 -->
<g id="edge15" class="edge">
<title>Node0&#45;&gt;Node15</title>
<path fill="none" stroke="#191970" d="M105.4756,-108.9636C131.2471,-101.0788 164.65,-90.8592 191.845,-82.5389"/>
<polygon fill="#191970" stroke="#191970" points="104.1868,-105.6976 95.6484,-111.9702 106.2348,-112.3914 104.1868,-105.6976"/>
</g>
<!-- Node2 -->
<g id="node3" class="node">
<title>Node2</title>
<g id="a_node3"><a xlink:href="class_ogre_1_1_small_vector_template_base.html" target="_top" xlink:title="SmallVectorTemplateBase&lt;isPodLike = false&gt; &#45; This is where we put method implementations that are des...">
<polygon fill="none" stroke="#000000" points="353,-289.5 353,-319.5 505,-319.5 505,-289.5 353,-289.5"/>
<text text-anchor="start" x="361" y="-307.5" font-family="Helvetica,sans-Serif" font-size="10.00" fill="#000000">Ogre::SmallVectorTemplate</text>
<text text-anchor="middle" x="429" y="-296.5" font-family="Helvetica,sans-Serif" font-size="10.00" fill="#000000">Base&lt; T, isPodLike &gt;</text>
</a>
</g>
</g>
<!-- Node1&#45;&gt;Node2 -->
<g id="edge2" class="edge">
<title>Node1&#45;&gt;Node2</title>
<path fill="none" stroke="#191970" d="M279.0803,-247.1042C300.4879,-257.7212 327.8809,-270.6434 353,-280.5 360.9859,-283.6337 369.5615,-286.6572 377.9726,-289.4401"/>
<polygon fill="#191970" stroke="#191970" points="280.5056,-243.9038 269.9964,-242.5597 277.3737,-250.1641 280.5056,-243.9038"/>
</g>
<!-- Node3 -->
<g id="node4" class="node">
<title>Node3</title>
<g id="a_node4"><a xlink:href="class_ogre_1_1_small_vector_template_base_3_01_t_00_01true_01_4.html" target="_top" xlink:title="SmallVectorTemplateBase&lt;isPodLike = true&gt; &#45; This is where we put method implementations that are desi...">
<polygon fill="none" stroke="#000000" points="353,-240.5 353,-270.5 505,-270.5 505,-240.5 353,-240.5"/>
<text text-anchor="start" x="361" y="-258.5" font-family="Helvetica,sans-Serif" font-size="10.00" fill="#000000">Ogre::SmallVectorTemplate</text>
<text text-anchor="middle" x="429" y="-247.5" font-family="Helvetica,sans-Serif" font-size="10.00" fill="#000000">Base&lt; T, true &gt;</text>
</a>
</g>
</g>
<!-- Node1&#45;&gt;Node3 -->
<g id="edge3" class="edge">
<title>Node1&#45;&gt;Node3</title>
<path fill="none" stroke="#191970" d="M327.1457,-240.3302C335.67,-241.5998 344.281,-242.8823 352.6957,-244.1355"/>
<polygon fill="#191970" stroke="#191970" points="327.6023,-236.8597 317.1958,-238.8483 326.5711,-243.7833 327.6023,-236.8597"/>
</g>
<!-- Node4 -->
<g id="node5" class="node">
<title>Node4</title>
<g id="a_node5"><a xlink:href="class_ogre_1_1_small_vector_template_base.html" target="_top" xlink:title="Ogre::SmallVectorTemplate\lBase\&lt; T, isPodLike\&lt; T \&gt;\l::value \&gt;">
<polygon fill="none" stroke="#000000" points="353,-180 353,-221 505,-221 505,-180 353,-180"/>
<text text-anchor="start" x="361" y="-209" font-family="Helvetica,sans-Serif" font-size="10.00" fill="#000000">Ogre::SmallVectorTemplate</text>
<text text-anchor="start" x="361" y="-198" font-family="Helvetica,sans-Serif" font-size="10.00" fill="#000000">Base&lt; T, isPodLike&lt; T &gt;</text>
<text text-anchor="middle" x="429" y="-187" font-family="Helvetica,sans-Serif" font-size="10.00" fill="#000000">::value &gt;</text>
</a>
</g>
</g>
<!-- Node1&#45;&gt;Node4 -->
<g id="edge4" class="edge">
<title>Node1&#45;&gt;Node4</title>
<path fill="none" stroke="#191970" d="M327.1457,-215.128C335.67,-213.9038 344.281,-212.6671 352.6957,-211.4586"/>
<polygon fill="#191970" stroke="#191970" points="326.5966,-211.6709 317.1958,-216.557 327.5918,-218.5998 326.5966,-211.6709"/>
</g>
<!-- Node5 -->
<g id="node6" class="node">
<title>Node5</title>
<g id="a_node6"><a xlink:href="class_ogre_1_1_small_vector_impl.html" target="_top" xlink:title="SmallVectorImpl &#45; This class consists of common code factored out of the SmallVector class to reduce ...">
<polygon fill="none" stroke="#000000" points="541,-197 541,-216 696,-216 696,-197 541,-197"/>
<text text-anchor="middle" x="618.5" y="-204" font-family="Helvetica,sans-Serif" font-size="10.00" fill="#000000">Ogre::SmallVectorImpl&lt; T &gt;</text>
</a>
</g>
</g>
<!-- Node4&#45;&gt;Node5 -->
<g id="edge5" class="edge">
<title>Node4&#45;&gt;Node5</title>
<path fill="none" stroke="#191970" d="M515.5053,-203.239C523.9573,-203.5066 532.4974,-203.777 540.8539,-204.0415"/>
<polygon fill="#191970" stroke="#191970" points="515.3636,-199.7328 505.2578,-202.9145 515.142,-206.7293 515.3636,-199.7328"/>
</g>
<!-- Node6 -->
<g id="node7" class="node">
<title>Node6</title>
<g id="a_node7"><a xlink:href="class_ogre_1_1_small_vector.html" target="_top" xlink:title="SmallVector &#45; This is a &#39;vector&#39; (really, a variable&#45;sized array), optimized for the case when the ar...">
<polygon fill="none" stroke="#000000" points="732,-245.5 732,-275.5 845,-275.5 845,-245.5 732,-245.5"/>
<text text-anchor="start" x="740" y="-263.5" font-family="Helvetica,sans-Serif" font-size="10.00" fill="#000000">Ogre::SmallVector&lt;</text>
<text text-anchor="middle" x="788.5" y="-252.5" font-family="Helvetica,sans-Serif" font-size="10.00" fill="#000000"> T, N &gt;</text>
</a>
</g>
</g>
<!-- Node5&#45;&gt;Node6 -->
<g id="edge6" class="edge">
<title>Node5&#45;&gt;Node6</title>
<path fill="none" stroke="#191970" d="M658.2965,-219.1412C683.0736,-227.0116 715.0777,-237.1776 741.1552,-245.4611"/>
<polygon fill="#191970" stroke="#191970" points="659.0916,-215.7215 648.5013,-216.0298 656.9724,-222.393 659.0916,-215.7215"/>
</g>
<!-- Node7 -->
<g id="node8" class="node">
<title>Node7</title>
<g id="a_node8"><a xlink:href="class_ogre_1_1_small_vector_3_01_t_00_010_01_4.html" target="_top" xlink:title="Specialize SmallVector at N=0. ">
<polygon fill="none" stroke="#000000" points="732,-196.5 732,-226.5 845,-226.5 845,-196.5 732,-196.5"/>
<text text-anchor="start" x="740" y="-214.5" font-family="Helvetica,sans-Serif" font-size="10.00" fill="#000000">Ogre::SmallVector&lt;</text>
<text text-anchor="middle" x="788.5" y="-203.5" font-family="Helvetica,sans-Serif" font-size="10.00" fill="#000000"> T, 0 &gt;</text>
</a>
</g>
</g>
<!-- Node5&#45;&gt;Node7 -->
<g id="edge7" class="edge">
<title>Node5&#45;&gt;Node7</title>
<path fill="none" stroke="#191970" d="M706.2604,-209.0812C714.9721,-209.3374 723.6451,-209.5925 731.9128,-209.8357"/>
<polygon fill="#191970" stroke="#191970" points="706.1365,-205.5761 696.0378,-208.7805 705.9306,-212.5731 706.1365,-205.5761"/>
</g>
<!-- Node8 -->
<g id="node9" class="node">
<title>Node8</title>
<g id="a_node9"><a xlink:href="class_ogre_1_1_small_vector.html" target="_top" xlink:title="Ogre::SmallVector\&lt;\l T, S \&gt;">
<polygon fill="none" stroke="#000000" points="732,-147.5 732,-177.5 845,-177.5 845,-147.5 732,-147.5"/>
<text text-anchor="start" x="740" y="-165.5" font-family="Helvetica,sans-Serif" font-size="10.00" fill="#000000">Ogre::SmallVector&lt;</text>
<text text-anchor="middle" x="788.5" y="-154.5" font-family="Helvetica,sans-Serif" font-size="10.00" fill="#000000"> T, S &gt;</text>
</a>
</g>
</g>
<!-- Node5&#45;&gt;Node8 -->
<g id="edge8" class="edge">
<title>Node5&#45;&gt;Node8</title>
<path fill="none" stroke="#191970" d="M665.1858,-194.4166C685.828,-189.0739 710.2828,-182.7445 731.9497,-177.1366"/>
<polygon fill="#191970" stroke="#191970" points="664.1915,-191.0586 655.3875,-196.9527 665.9455,-197.8353 664.1915,-191.0586"/>
</g>
<!-- Node9 -->
<g id="node10" class="node">
<title>Node9</title>
<g id="a_node10"><a xlink:href="struct_ogre_1_1_vector_set.html" target="_top" xlink:title="VectorSet is basically a helper to use a vector as a small set container. ">
<polygon fill="none" stroke="#000000" points="890,-153 890,-172 1024,-172 1024,-153 890,-153"/>
<text text-anchor="middle" x="957" y="-160" font-family="Helvetica,sans-Serif" font-size="10.00" fill="#000000">Ogre::VectorSet&lt; T, S &gt;</text>
</a>
</g>
</g>
<!-- Node8&#45;&gt;Node9 -->
<g id="edge9" class="edge">
<title>Node8&#45;&gt;Node9</title>
<path fill="none" stroke="#191970" d="M855.3338,-162.5C866.6642,-162.5 878.434,-162.5 889.7744,-162.5"/>
<polygon fill="#191970" stroke="#191970" points="855.0768,-159.0001 845.0768,-162.5 855.0768,-166.0001 855.0768,-159.0001"/>
</g>
<!-- Node11 -->
<g id="node12" class="node">
<title>Node11</title>
<g id="a_node12"><a xlink:href="class_ogre_1_1_small_vector_template_base.html" target="_top" xlink:title="Ogre::SmallVectorTemplate\lBase\&lt; Edge, isPodLike\&lt;\l Edge \&gt;::value \&gt;">
<polygon fill="none" stroke="#000000" points="353,-101 353,-142 505,-142 505,-101 353,-101"/>
<text text-anchor="start" x="361" y="-130" font-family="Helvetica,sans-Serif" font-size="10.00" fill="#000000">Ogre::SmallVectorTemplate</text>
<text text-anchor="start" x="361" y="-119" font-family="Helvetica,sans-Serif" font-size="10.00" fill="#000000">Base&lt; Edge, isPodLike&lt;</text>
<text text-anchor="middle" x="429" y="-108" font-family="Helvetica,sans-Serif" font-size="10.00" fill="#000000"> Edge &gt;::value &gt;</text>
</a>
</g>
</g>
<!-- Node10&#45;&gt;Node11 -->
<g id="edge11" class="edge">
<title>Node10&#45;&gt;Node11</title>
<path fill="none" stroke="#191970" d="M327.4237,-121.5C335.8572,-121.5 344.3725,-121.5 352.6957,-121.5"/>
<polygon fill="#191970" stroke="#191970" points="327.1958,-118.0001 317.1958,-121.5 327.1957,-125.0001 327.1958,-118.0001"/>
</g>
<!-- Node12 -->
<g id="node13" class="node">
<title>Node12</title>
<g id="a_node13"><a xlink:href="class_ogre_1_1_small_vector_impl.html" target="_top" xlink:title="Ogre::SmallVectorImpl\l\&lt; Edge \&gt;">
<polygon fill="none" stroke="#000000" points="555,-103.5 555,-133.5 682,-133.5 682,-103.5 555,-103.5"/>
<text text-anchor="start" x="563" y="-121.5" font-family="Helvetica,sans-Serif" font-size="10.00" fill="#000000">Ogre::SmallVectorImpl</text>
<text text-anchor="middle" x="618.5" y="-110.5" font-family="Helvetica,sans-Serif" font-size="10.00" fill="#000000">&lt; Edge &gt;</text>
</a>
</g>
</g>
<!-- Node11&#45;&gt;Node12 -->
<g id="edge12" class="edge">
<title>Node11&#45;&gt;Node12</title>
<path fill="none" stroke="#191970" d="M515.3635,-120.1328C528.6583,-119.9223 542.175,-119.7083 554.8556,-119.5076"/>
<polygon fill="#191970" stroke="#191970" points="515.2011,-116.6348 505.2578,-120.2928 515.312,-123.6339 515.2011,-116.6348"/>
</g>
<!-- Node13 -->
<g id="node14" class="node">
<title>Node13</title>
<g id="a_node14"><a xlink:href="class_ogre_1_1_small_vector.html" target="_top" xlink:title="Ogre::SmallVector\&lt;\l Edge, S \&gt;">
<polygon fill="none" stroke="#000000" points="732,-98.5 732,-128.5 845,-128.5 845,-98.5 732,-98.5"/>
<text text-anchor="start" x="740" y="-116.5" font-family="Helvetica,sans-Serif" font-size="10.00" fill="#000000">Ogre::SmallVector&lt;</text>
<text text-anchor="middle" x="788.5" y="-105.5" font-family="Helvetica,sans-Serif" font-size="10.00" fill="#000000"> Edge, S &gt;</text>
</a>
</g>
</g>
<!-- Node12&#45;&gt;Node13 -->
<g id="edge13" class="edge">
<title>Node12&#45;&gt;Node13</title>
<path fill="none" stroke="#191970" d="M692.3335,-116.3284C705.596,-115.9384 719.2275,-115.5374 731.9063,-115.1645"/>
<polygon fill="#191970" stroke="#191970" points="692.1781,-112.8314 682.2854,-116.624 692.384,-119.8284 692.1781,-112.8314"/>
</g>
<!-- Node14 -->
<g id="node15" class="node">
<title>Node14</title>
<g id="a_node15"><a xlink:href="struct_ogre_1_1_vector_set.html" target="_top" xlink:title="Ogre::VectorSet\&lt; Edge, 8 \&gt;">
<polygon fill="none" stroke="#000000" points="881,-104 881,-123 1033,-123 1033,-104 881,-104"/>
<text text-anchor="middle" x="957" y="-111" font-family="Helvetica,sans-Serif" font-size="10.00" fill="#000000">Ogre::VectorSet&lt; Edge, 8 &gt;</text>
</a>
</g>
</g>
<!-- Node13&#45;&gt;Node14 -->
<g id="edge14" class="edge">
<title>Node13&#45;&gt;Node14</title>
<path fill="none" stroke="#191970" d="M855.1951,-113.5C863.6093,-113.5 872.2679,-113.5 880.8149,-113.5"/>
<polygon fill="#191970" stroke="#191970" points="855.0768,-110.0001 845.0768,-113.5 855.0768,-117.0001 855.0768,-110.0001"/>
</g>
<!-- Node16 -->
<g id="node17" class="node">
<title>Node16</title>
<g id="a_node17"><a xlink:href="class_ogre_1_1_small_vector_template_base.html" target="_top" xlink:title="Ogre::SmallVectorTemplate\lBase\&lt; Triangle *, isPodLike\l\&lt; Triangle * \&gt;::value \&gt;">
<polygon fill="none" stroke="#000000" points="353,-41 353,-82 505,-82 505,-41 353,-41"/>
<text text-anchor="start" x="361" y="-70" font-family="Helvetica,sans-Serif" font-size="10.00" fill="#000000">Ogre::SmallVectorTemplate</text>
<text text-anchor="start" x="361" y="-59" font-family="Helvetica,sans-Serif" font-size="10.00" fill="#000000">Base&lt; Triangle *, isPodLike</text>
<text text-anchor="middle" x="429" y="-48" font-family="Helvetica,sans-Serif" font-size="10.00" fill="#000000">&lt; Triangle * &gt;::value &gt;</text>
</a>
</g>
</g>
<!-- Node15&#45;&gt;Node16 -->
<g id="edge16" class="edge">
<title>Node15&#45;&gt;Node16</title>
<path fill="none" stroke="#191970" d="M327.4237,-64.7418C335.8572,-64.4726 344.3725,-64.2009 352.6957,-63.9352"/>
<polygon fill="#191970" stroke="#191970" points="327.079,-61.2509 317.1958,-65.0682 327.3024,-68.2474 327.079,-61.2509"/>
</g>
<!-- Node17 -->
<g id="node18" class="node">
<title>Node17</title>
<g id="a_node18"><a xlink:href="class_ogre_1_1_small_vector_impl.html" target="_top" xlink:title="Ogre::SmallVectorImpl\l\&lt; Triangle * \&gt;">
<polygon fill="none" stroke="#000000" points="555,-49.5 555,-79.5 682,-79.5 682,-49.5 555,-49.5"/>
<text text-anchor="start" x="563" y="-67.5" font-family="Helvetica,sans-Serif" font-size="10.00" fill="#000000">Ogre::SmallVectorImpl</text>
<text text-anchor="middle" x="618.5" y="-56.5" font-family="Helvetica,sans-Serif" font-size="10.00" fill="#000000">&lt; Triangle * &gt;</text>
</a>
</g>
</g>
<!-- Node16&#45;&gt;Node17 -->
<g id="edge17" class="edge">
<title>Node16&#45;&gt;Node17</title>
<path fill="none" stroke="#191970" d="M515.3635,-62.8672C528.6583,-63.0777 542.175,-63.2917 554.8556,-63.4924"/>
<polygon fill="#191970" stroke="#191970" points="515.312,-59.3661 505.2578,-62.7072 515.2011,-66.3652 515.312,-59.3661"/>
</g>
<!-- Node20 -->
<g id="node21" class="node">
<title>Node20</title>
<g id="a_node21"><a xlink:href="class_ogre_1_1_small_vector_impl.html" target="_top" xlink:title="Ogre::SmallVectorImpl\l\&lt; Triangle *\&gt;">
<polygon fill="none" stroke="#000000" points="555,-.5 555,-30.5 682,-30.5 682,-.5 555,-.5"/>
<text text-anchor="start" x="563" y="-18.5" font-family="Helvetica,sans-Serif" font-size="10.00" fill="#000000">Ogre::SmallVectorImpl</text>
<text text-anchor="middle" x="618.5" y="-7.5" font-family="Helvetica,sans-Serif" font-size="10.00" fill="#000000">&lt; Triangle *&gt;</text>
</a>
</g>
</g>
<!-- Node16&#45;&gt;Node20 -->
<g id="edge20" class="edge">
<title>Node16&#45;&gt;Node20</title>
<path fill="none" stroke="#191970" d="M515.3391,-40.5417C529.2673,-37.1607 543.4399,-33.7204 556.6401,-30.5161"/>
<polygon fill="#191970" stroke="#191970" points="514.1499,-37.2286 505.2578,-42.9889 515.8012,-44.0311 514.1499,-37.2286"/>
</g>
<!-- Node18 -->
<g id="node19" class="node">
<title>Node18</title>
<g id="a_node19"><a xlink:href="class_ogre_1_1_small_vector.html" target="_top" xlink:title="Ogre::SmallVector\&lt;\l Triangle *, S \&gt;">
<polygon fill="none" stroke="#000000" points="732,-49.5 732,-79.5 845,-79.5 845,-49.5 732,-49.5"/>
<text text-anchor="start" x="740" y="-67.5" font-family="Helvetica,sans-Serif" font-size="10.00" fill="#000000">Ogre::SmallVector&lt;</text>
<text text-anchor="middle" x="788.5" y="-56.5" font-family="Helvetica,sans-Serif" font-size="10.00" fill="#000000"> Triangle *, S &gt;</text>
</a>
</g>
</g>
<!-- Node17&#45;&gt;Node18 -->
<g id="edge18" class="edge">
<title>Node17&#45;&gt;Node18</title>
<path fill="none" stroke="#191970" d="M692.3335,-64.5C705.596,-64.5 719.2275,-64.5 731.9063,-64.5"/>
<polygon fill="#191970" stroke="#191970" points="692.2854,-61.0001 682.2854,-64.5 692.2854,-68.0001 692.2854,-61.0001"/>
</g>
<!-- Node19 -->
<g id="node20" class="node">
<title>Node19</title>
<g id="a_node20"><a xlink:href="struct_ogre_1_1_vector_set.html" target="_top" xlink:title="Ogre::VectorSet\&lt; Triangle\l *, 7 \&gt;">
<polygon fill="none" stroke="#000000" points="885,-49.5 885,-79.5 1029,-79.5 1029,-49.5 885,-49.5"/>
<text text-anchor="start" x="893" y="-67.5" font-family="Helvetica,sans-Serif" font-size="10.00" fill="#000000">Ogre::VectorSet&lt; Triangle</text>
<text text-anchor="middle" x="957" y="-56.5" font-family="Helvetica,sans-Serif" font-size="10.00" fill="#000000"> *, 7 &gt;</text>
</a>
</g>
</g>
<!-- Node18&#45;&gt;Node19 -->
<g id="edge19" class="edge">
<title>Node18&#45;&gt;Node19</title>
<path fill="none" stroke="#191970" d="M855.0772,-64.5C864.8102,-64.5 874.8727,-64.5 884.713,-64.5"/>
<polygon fill="#191970" stroke="#191970" points="855.0768,-61.0001 845.0768,-64.5 855.0768,-68.0001 855.0768,-61.0001"/>
</g>
</g>
</svg>
