<?xml version="1.0" encoding="UTF-8" standalone="no"?>
<!DOCTYPE svg PUBLIC "-//W3C//DTD SVG 1.1//EN"
 "http://www.w3.org/Graphics/SVG/1.1/DTD/svg11.dtd">
<!-- Generated by graphviz version 2.38.0 (20140413.2041)
 -->
<!-- Title: Graphical Class Hierarchy Pages: 1 -->
<svg width="337pt" height="88pt"
 viewBox="0.00 0.00 337.00 88.00" xmlns="http://www.w3.org/2000/svg" xmlns:xlink="http://www.w3.org/1999/xlink">
<g id="graph0" class="graph" transform="scale(1 1) rotate(0) translate(4 84)">
<title>Graphical Class Hierarchy</title>
<!-- Node1 -->
<g id="node1" class="node"><title>Node1</title>
<g id="a_node1"><a xlink:href="class_ogre_1_1v1_1_1_render_to_vertex_buffer.html" target="_top" xlink:title="An object which renders geometry to a vertex. ">
<polygon fill="none" stroke="black" points="0,-24.5 0,-54.5 131,-54.5 131,-24.5 0,-24.5"/>
<text text-anchor="start" x="8" y="-42.5" font-family="Helvetica,sans-Serif" font-size="10.00">Ogre::v1::RenderToVertex</text>
<text text-anchor="middle" x="65.5" y="-31.5" font-family="Helvetica,sans-Serif" font-size="10.00">Buffer</text>
</a>
</g>
</g>
<!-- Node2 -->
<g id="node2" class="node"><title>Node2</title>
<g id="a_node2"><a xlink:href="class_ogre_1_1v1_1_1_d3_d11_render_to_vertex_buffer.html" target="_top" xlink:title="An object which renders geometry to a vertex. ">
<polygon fill="none" stroke="black" points="167,-49.5 167,-79.5 329,-79.5 329,-49.5 167,-49.5"/>
<text text-anchor="start" x="175" y="-67.5" font-family="Helvetica,sans-Serif" font-size="10.00">Ogre::v1::D3D11RenderToVertex</text>
<text text-anchor="middle" x="248" y="-56.5" font-family="Helvetica,sans-Serif" font-size="10.00">Buffer</text>
</a>
</g>
</g>
<!-- Node1&#45;&gt;Node2 -->
<g id="edge1" class="edge"><title>Node1&#45;&gt;Node2</title>
<path fill="none" stroke="midnightblue" d="M141.287,-49.8583C149.685,-51.0215 158.268,-52.2102 166.732,-53.3825"/>
<polygon fill="midnightblue" stroke="midnightblue" points="141.54,-46.3601 131.155,-48.455 140.58,-53.2939 141.54,-46.3601"/>
</g>
<!-- Node3 -->
<g id="node3" class="node"><title>Node3</title>
<g id="a_node3"><a xlink:href="class_ogre_1_1v1_1_1_g_l3_plus_render_to_vertex_buffer.html" target="_top" xlink:title="An object which renders geometry to a vertex. ">
<polygon fill="none" stroke="black" points="178,-0.5 178,-30.5 318,-30.5 318,-0.5 178,-0.5"/>
<text text-anchor="start" x="186" y="-18.5" font-family="Helvetica,sans-Serif" font-size="10.00">Ogre::v1::GL3PlusRenderTo</text>
<text text-anchor="middle" x="248" y="-7.5" font-family="Helvetica,sans-Serif" font-size="10.00">VertexBuffer</text>
</a>
</g>
</g>
<!-- Node1&#45;&gt;Node3 -->
<g id="edge2" class="edge"><title>Node1&#45;&gt;Node3</title>
<path fill="none" stroke="midnightblue" d="M141.243,-29.5618C153.386,-27.9473 165.914,-26.2815 177.914,-24.686"/>
<polygon fill="midnightblue" stroke="midnightblue" points="140.606,-26.1156 131.155,-30.9032 141.529,-33.0546 140.606,-26.1156"/>
</g>
</g>
</svg>
