<?xml version="1.0" encoding="UTF-8" standalone="no"?>
<!DOCTYPE svg PUBLIC "-//W3C//DTD SVG 1.1//EN"
 "http://www.w3.org/Graphics/SVG/1.1/DTD/svg11.dtd">
<!-- Generated by graphviz version 2.38.0 (20140413.2041)
 -->
<!-- Title: Graphical Class Hierarchy Pages: 1 -->
<svg width="329pt" height="66pt"
 viewBox="0.00 0.00 329.00 66.00" xmlns="http://www.w3.org/2000/svg" xmlns:xlink="http://www.w3.org/1999/xlink">
<g id="graph0" class="graph" transform="scale(1 1) rotate(0) translate(4 62)">
<title>Graphical Class Hierarchy</title>
<!-- Node1 -->
<g id="node1" class="node"><title>Node1</title>
<g id="a_node1"><a xlink:href="class_ogre_1_1_g_l_s_l_program_common.html" target="_top" xlink:title="C++ encapsulation of GLSL Program Object. ">
<polygon fill="none" stroke="black" points="0,-19.5 0,-38.5 145,-38.5 145,-19.5 0,-19.5"/>
<text text-anchor="middle" x="72.5" y="-26.5" font-family="Helvetica,sans-Serif" font-size="10.00">Ogre::GLSLProgramCommon</text>
</a>
</g>
</g>
<!-- Node2 -->
<g id="node2" class="node"><title>Node2</title>
<g id="a_node2"><a xlink:href="class_ogre_1_1_g_l_s_l_link_program.html" target="_top" xlink:title="C++ encapsulation of GLSL Program Object. ">
<polygon fill="none" stroke="black" points="189.5,-38.5 189.5,-57.5 312.5,-57.5 312.5,-38.5 189.5,-38.5"/>
<text text-anchor="middle" x="251" y="-45.5" font-family="Helvetica,sans-Serif" font-size="10.00">Ogre::GLSLLinkProgram</text>
</a>
</g>
</g>
<!-- Node1&#45;&gt;Node2 -->
<g id="edge1" class="edge"><title>Node1&#45;&gt;Node2</title>
<path fill="none" stroke="midnightblue" d="M155.116,-37.7859C166.655,-39.028 178.347,-40.2866 189.395,-41.4759"/>
<polygon fill="midnightblue" stroke="midnightblue" points="155.352,-34.2911 145.035,-36.7006 154.603,-41.2509 155.352,-34.2911"/>
</g>
<!-- Node3 -->
<g id="node3" class="node"><title>Node3</title>
<g id="a_node3"><a xlink:href="class_ogre_1_1_g_l_s_l_program_pipeline.html" target="_top" xlink:title="Specialisation of HighLevelGpuProgram to provide support for OpenGL Shader Language (GLSL) for OpenGL...">
<polygon fill="none" stroke="black" points="181,-0.5 181,-19.5 321,-19.5 321,-0.5 181,-0.5"/>
<text text-anchor="middle" x="251" y="-7.5" font-family="Helvetica,sans-Serif" font-size="10.00">Ogre::GLSLProgramPipeline</text>
</a>
</g>
</g>
<!-- Node1&#45;&gt;Node3 -->
<g id="edge2" class="edge"><title>Node1&#45;&gt;Node3</title>
<path fill="none" stroke="midnightblue" d="M155.112,-20.2146C163.746,-19.2851 172.465,-18.3465 180.937,-17.4345"/>
<polygon fill="midnightblue" stroke="midnightblue" points="154.603,-16.7491 145.035,-21.2994 155.352,-23.7089 154.603,-16.7491"/>
</g>
</g>
</svg>
