<?xml version="1.0" encoding="UTF-8" standalone="no"?>
<!DOCTYPE svg PUBLIC "-//W3C//DTD SVG 1.1//EN"
 "http://www.w3.org/Graphics/SVG/1.1/DTD/svg11.dtd">
<!-- Generated by graphviz version 2.40.1 (20161225.0304)
 -->
<!-- Title: Graphical Class Hierarchy Pages: 1 -->
<svg width="337pt" height="88pt"
 viewBox="0.00 0.00 337.00 88.00" xmlns="http://www.w3.org/2000/svg" xmlns:xlink="http://www.w3.org/1999/xlink">
<g id="graph0" class="graph" transform="scale(1 1) rotate(0) translate(4 84)">
<title>Graphical Class Hierarchy</title>
<!-- Node0 -->
<g id="node1" class="node">
<title>Node0</title>
<g id="a_node1"><a xlink:href="class_ogre_1_1v1_1_1_render_to_vertex_buffer.html" target="_top" xlink:title="An object which renders geometry to a vertex. ">
<polygon fill="none" stroke="#000000" points="0,-24.5 0,-54.5 131,-54.5 131,-24.5 0,-24.5"/>
<text text-anchor="start" x="8" y="-42.5" font-family="Helvetica,sans-Serif" font-size="10.00" fill="#000000">Ogre::v1::RenderToVertex</text>
<text text-anchor="middle" x="65.5" y="-31.5" font-family="Helvetica,sans-Serif" font-size="10.00" fill="#000000">Buffer</text>
</a>
</g>
</g>
<!-- Node1 -->
<g id="node2" class="node">
<title>Node1</title>
<g id="a_node2"><a xlink:href="class_ogre_1_1v1_1_1_d3_d11_render_to_vertex_buffer.html" target="_top" xlink:title="An object which renders geometry to a vertex. ">
<polygon fill="none" stroke="#000000" points="167,-49.5 167,-79.5 329,-79.5 329,-49.5 167,-49.5"/>
<text text-anchor="start" x="175" y="-67.5" font-family="Helvetica,sans-Serif" font-size="10.00" fill="#000000">Ogre::v1::D3D11RenderToVertex</text>
<text text-anchor="middle" x="248" y="-56.5" font-family="Helvetica,sans-Serif" font-size="10.00" fill="#000000">Buffer</text>
</a>
</g>
</g>
<!-- Node0&#45;&gt;Node1 -->
<g id="edge1" class="edge">
<title>Node0&#45;&gt;Node1</title>
<path fill="none" stroke="#191970" d="M141.272,-49.8797C149.6773,-51.0311 158.263,-52.2073 166.7327,-53.3675"/>
<polygon fill="#191970" stroke="#191970" points="141.5114,-46.3799 131.1289,-48.4903 140.5613,-53.3151 141.5114,-46.3799"/>
</g>
<!-- Node2 -->
<g id="node3" class="node">
<title>Node2</title>
<g id="a_node3"><a xlink:href="class_ogre_1_1v1_1_1_g_l3_plus_render_to_vertex_buffer.html" target="_top" xlink:title="An object which renders geometry to a vertex. ">
<polygon fill="none" stroke="#000000" points="178,-.5 178,-30.5 318,-30.5 318,-.5 178,-.5"/>
<text text-anchor="start" x="186" y="-18.5" font-family="Helvetica,sans-Serif" font-size="10.00" fill="#000000">Ogre::v1::GL3PlusRenderTo</text>
<text text-anchor="middle" x="248" y="-7.5" font-family="Helvetica,sans-Serif" font-size="10.00" fill="#000000">VertexBuffer</text>
</a>
</g>
</g>
<!-- Node0&#45;&gt;Node2 -->
<g id="edge2" class="edge">
<title>Node0&#45;&gt;Node2</title>
<path fill="none" stroke="#191970" d="M141.1813,-29.5474C153.2769,-27.9567 165.7485,-26.3166 177.712,-24.7434"/>
<polygon fill="#191970" stroke="#191970" points="140.5871,-26.0953 131.1289,-30.8694 141.4999,-33.0356 140.5871,-26.0953"/>
</g>
</g>
</svg>
