<?xml version="1.0" encoding="UTF-8" standalone="no"?>
<!DOCTYPE svg PUBLIC "-//W3C//DTD SVG 1.1//EN"
 "http://www.w3.org/Graphics/SVG/1.1/DTD/svg11.dtd">
<!-- Generated by graphviz version 2.40.1 (20161225.0304)
 -->
<!-- Title: Graphical Class Hierarchy Pages: 1 -->
<svg width="522pt" height="161pt"
 viewBox="0.00 0.00 522.00 161.00" xmlns="http://www.w3.org/2000/svg" xmlns:xlink="http://www.w3.org/1999/xlink">
<g id="graph0" class="graph" transform="scale(1 1) rotate(0) translate(4 157)">
<title>Graphical Class Hierarchy</title>
<!-- Node0 -->
<g id="node1" class="node">
<title>Node0</title>
<g id="a_node1"><a xlink:href="class_ogre_1_1_buffer_interface.html" target="_top" xlink:title="Most (if not all) buffers, can be treated with the same code. ">
<polygon fill="none" stroke="#000000" points="0,-57.5 0,-76.5 108,-76.5 108,-57.5 0,-57.5"/>
<text text-anchor="middle" x="54" y="-64.5" font-family="Helvetica,sans-Serif" font-size="10.00" fill="#000000">Ogre::BufferInterface</text>
</a>
</g>
</g>
<!-- Node1 -->
<g id="node2" class="node">
<title>Node1</title>
<g id="a_node2"><a xlink:href="class_ogre_1_1_d3_d11_buffer_interface_base.html" target="_top" xlink:title="For D3D11, most (if not all) buffers, can be treated with the same code. ">
<polygon fill="none" stroke="#000000" points="144,-114.5 144,-133.5 305,-133.5 305,-114.5 144,-114.5"/>
<text text-anchor="middle" x="224.5" y="-121.5" font-family="Helvetica,sans-Serif" font-size="10.00" fill="#000000">Ogre::D3D11BufferInterfaceBase</text>
</a>
</g>
</g>
<!-- Node0&#45;&gt;Node1 -->
<g id="edge1" class="edge">
<title>Node0&#45;&gt;Node1</title>
<path fill="none" stroke="#191970" d="M83.5635,-80.9641C100.8986,-88.7757 123.3793,-98.2659 144,-105 154.9202,-108.5662 166.8766,-111.759 178.1552,-114.4635"/>
<polygon fill="#191970" stroke="#191970" points="84.5541,-77.5685 74.0044,-76.5922 81.6427,-83.9343 84.5541,-77.5685"/>
</g>
<!-- Node4 -->
<g id="node5" class="node">
<title>Node4</title>
<g id="a_node5"><a xlink:href="class_ogre_1_1_g_l3_plus_buffer_interface.html" target="_top" xlink:title="For GL3+, most (if not all) buffers, can be treated with the same code. ">
<polygon fill="none" stroke="#000000" points="151.5,-76.5 151.5,-95.5 297.5,-95.5 297.5,-76.5 151.5,-76.5"/>
<text text-anchor="middle" x="224.5" y="-83.5" font-family="Helvetica,sans-Serif" font-size="10.00" fill="#000000">Ogre::GL3PlusBufferInterface</text>
</a>
</g>
</g>
<!-- Node0&#45;&gt;Node4 -->
<g id="edge4" class="edge">
<title>Node0&#45;&gt;Node4</title>
<path fill="none" stroke="#191970" d="M118.5196,-74.1899C129.2312,-75.3835 140.4078,-76.629 151.3153,-77.8445"/>
<polygon fill="#191970" stroke="#191970" points="118.7422,-70.6931 108.416,-73.064 117.9669,-77.65 118.7422,-70.6931"/>
</g>
<!-- Node5 -->
<g id="node6" class="node">
<title>Node5</title>
<g id="a_node6"><a xlink:href="class_ogre_1_1_metal_buffer_interface.html" target="_top" xlink:title="For Metal, all buffers can be treated with the same code. ">
<polygon fill="none" stroke="#000000" points="158.5,-38.5 158.5,-57.5 290.5,-57.5 290.5,-38.5 158.5,-38.5"/>
<text text-anchor="middle" x="224.5" y="-45.5" font-family="Helvetica,sans-Serif" font-size="10.00" fill="#000000">Ogre::MetalBufferInterface</text>
</a>
</g>
</g>
<!-- Node0&#45;&gt;Node5 -->
<g id="edge5" class="edge">
<title>Node0&#45;&gt;Node5</title>
<path fill="none" stroke="#191970" d="M118.664,-59.794C131.6547,-58.3464 145.3238,-56.8232 158.3639,-55.37"/>
<polygon fill="#191970" stroke="#191970" points="117.9669,-56.35 108.416,-60.936 118.7422,-63.3069 117.9669,-56.35"/>
</g>
<!-- Node6 -->
<g id="node7" class="node">
<title>Node6</title>
<g id="a_node7"><a xlink:href="class_ogre_1_1_n_u_l_l_buffer_interface.html" target="_top" xlink:title="For GL3+, most (if not all) buffers, can be treated with the same code. ">
<polygon fill="none" stroke="#000000" points="157.5,-.5 157.5,-19.5 291.5,-19.5 291.5,-.5 157.5,-.5"/>
<text text-anchor="middle" x="224.5" y="-7.5" font-family="Helvetica,sans-Serif" font-size="10.00" fill="#000000">Ogre::NULLBufferInterface</text>
</a>
</g>
</g>
<!-- Node0&#45;&gt;Node6 -->
<g id="edge6" class="edge">
<title>Node0&#45;&gt;Node6</title>
<path fill="none" stroke="#191970" d="M83.5635,-53.0359C100.8986,-45.2243 123.3793,-35.7341 144,-29 154.9202,-25.4338 166.8766,-22.241 178.1552,-19.5365"/>
<polygon fill="#191970" stroke="#191970" points="81.6427,-50.0657 74.0044,-57.4078 84.5541,-56.4315 81.6427,-50.0657"/>
</g>
<!-- Node2 -->
<g id="node3" class="node">
<title>Node2</title>
<g id="a_node3"><a xlink:href="class_ogre_1_1_d3_d11_buffer_interface.html" target="_top" xlink:title="For D3D11, most (if not all) buffers, can be treated with the same code. ">
<polygon fill="none" stroke="#000000" points="358,-133.5 358,-152.5 497,-152.5 497,-133.5 358,-133.5"/>
<text text-anchor="middle" x="427.5" y="-140.5" font-family="Helvetica,sans-Serif" font-size="10.00" fill="#000000">Ogre::D3D11BufferInterface</text>
</a>
</g>
</g>
<!-- Node1&#45;&gt;Node2 -->
<g id="edge2" class="edge">
<title>Node1&#45;&gt;Node2</title>
<path fill="none" stroke="#191970" d="M315.3536,-132.5035C329.6331,-133.84 344.1968,-135.2032 357.8974,-136.4855"/>
<polygon fill="#191970" stroke="#191970" points="315.3052,-128.9838 305.0225,-131.5366 314.6528,-135.9533 315.3052,-128.9838"/>
</g>
<!-- Node3 -->
<g id="node4" class="node">
<title>Node3</title>
<g id="a_node4"><a xlink:href="class_ogre_1_1_d3_d11_compat_buffer_interface.html" target="_top" xlink:title="In D3D11, const buffers can&#39;t be bound by offset. ">
<polygon fill="none" stroke="#000000" points="341,-95.5 341,-114.5 514,-114.5 514,-95.5 341,-95.5"/>
<text text-anchor="middle" x="427.5" y="-102.5" font-family="Helvetica,sans-Serif" font-size="10.00" fill="#000000">Ogre::D3D11CompatBufferInterface</text>
</a>
</g>
</g>
<!-- Node1&#45;&gt;Node3 -->
<g id="edge3" class="edge">
<title>Node1&#45;&gt;Node3</title>
<path fill="none" stroke="#191970" d="M315.0009,-115.5295C323.5549,-114.7289 332.2143,-113.9184 340.7323,-113.1211"/>
<polygon fill="#191970" stroke="#191970" points="314.6528,-112.0467 305.0225,-116.4634 315.3052,-119.0162 314.6528,-112.0467"/>
</g>
</g>
</svg>
