<?xml version="1.0" encoding="UTF-8" standalone="no"?>
<!DOCTYPE svg PUBLIC "-//W3C//DTD SVG 1.1//EN"
 "http://www.w3.org/Graphics/SVG/1.1/DTD/svg11.dtd">
<!-- Generated by graphviz version 2.40.1 (20161225.0304)
 -->
<!-- Title: Graphical Class Hierarchy Pages: 1 -->
<svg width="330pt" height="66pt"
 viewBox="0.00 0.00 330.00 66.00" xmlns="http://www.w3.org/2000/svg" xmlns:xlink="http://www.w3.org/1999/xlink">
<g id="graph0" class="graph" transform="scale(1 1) rotate(0) translate(4 62)">
<title>Graphical Class Hierarchy</title>
<!-- Node0 -->
<g id="node1" class="node">
<title>Node0</title>
<g id="a_node1"><a xlink:href="class_ogre_1_1_scene_format_base.html" target="_top" xlink:title="Ogre::SceneFormatBase">
<polygon fill="none" stroke="#000000" points="0,-19.5 0,-38.5 134,-38.5 134,-19.5 0,-19.5"/>
<text text-anchor="middle" x="67" y="-26.5" font-family="Helvetica,sans-Serif" font-size="10.00" fill="#000000">Ogre::SceneFormatBase</text>
</a>
</g>
</g>
<!-- Node1 -->
<g id="node2" class="node">
<title>Node1</title>
<g id="a_node2"><a xlink:href="class_ogre_1_1_scene_format_exporter.html" target="_top" xlink:title="Ogre::SceneFormatExporter">
<polygon fill="none" stroke="#000000" points="170,-38.5 170,-57.5 322,-57.5 322,-38.5 170,-38.5"/>
<text text-anchor="middle" x="246" y="-45.5" font-family="Helvetica,sans-Serif" font-size="10.00" fill="#000000">Ogre::SceneFormatExporter</text>
</a>
</g>
</g>
<!-- Node0&#45;&gt;Node1 -->
<g id="edge1" class="edge">
<title>Node0&#45;&gt;Node1</title>
<path fill="none" stroke="#191970" d="M144.3412,-37.2094C152.7624,-38.1033 161.3299,-39.0127 169.7381,-39.9052"/>
<polygon fill="#191970" stroke="#191970" points="144.4759,-33.7041 134.1623,-36.129 143.7369,-40.665 144.4759,-33.7041"/>
</g>
<!-- Node2 -->
<g id="node3" class="node">
<title>Node2</title>
<g id="a_node3"><a xlink:href="class_ogre_1_1_scene_format_importer.html" target="_top" xlink:title="Ogre::SceneFormatImporter">
<polygon fill="none" stroke="#000000" points="170,-.5 170,-19.5 322,-19.5 322,-.5 170,-.5"/>
<text text-anchor="middle" x="246" y="-7.5" font-family="Helvetica,sans-Serif" font-size="10.00" fill="#000000">Ogre::SceneFormatImporter</text>
</a>
</g>
</g>
<!-- Node0&#45;&gt;Node2 -->
<g id="edge2" class="edge">
<title>Node0&#45;&gt;Node2</title>
<path fill="none" stroke="#191970" d="M144.3412,-20.7906C152.7624,-19.8967 161.3299,-18.9873 169.7381,-18.0948"/>
<polygon fill="#191970" stroke="#191970" points="143.7369,-17.335 134.1623,-21.871 144.4759,-24.2959 143.7369,-17.335"/>
</g>
</g>
</svg>
