<?xml version="1.0" encoding="UTF-8" standalone="no"?>
<!DOCTYPE svg PUBLIC "-//W3C//DTD SVG 1.1//EN"
 "http://www.w3.org/Graphics/SVG/1.1/DTD/svg11.dtd">
<!-- Generated by graphviz version 2.40.1 (20161225.0304)
 -->
<!-- Title: Graphical Class Hierarchy Pages: 1 -->
<svg width="481pt" height="439pt"
 viewBox="0.00 0.00 481.00 438.50" xmlns="http://www.w3.org/2000/svg" xmlns:xlink="http://www.w3.org/1999/xlink">
<g id="graph0" class="graph" transform="scale(1 1) rotate(0) translate(4 434.5)">
<title>Graphical Class Hierarchy</title>
<!-- Node0 -->
<g id="node1" class="node">
<title>Node0</title>
<g id="a_node1"><a xlink:href="struct_ogre_1_1_cb_base.html" target="_top" xlink:title="Ogre::CbBase">
<polygon fill="none" stroke="#000000" points="0,-202 0,-221 83,-221 83,-202 0,-202"/>
<text text-anchor="middle" x="41.5" y="-209" font-family="Helvetica,sans-Serif" font-size="10.00" fill="#000000">Ogre::CbBase</text>
</a>
</g>
</g>
<!-- Node1 -->
<g id="node2" class="node">
<title>Node1</title>
<g id="a_node2"><a xlink:href="struct_ogre_1_1_cb_draw_call.html" target="_top" xlink:title="Ogre::CbDrawCall">
<polygon fill="none" stroke="#000000" points="146.5,-392 146.5,-411 249.5,-411 249.5,-392 146.5,-392"/>
<text text-anchor="middle" x="198" y="-399" font-family="Helvetica,sans-Serif" font-size="10.00" fill="#000000">Ogre::CbDrawCall</text>
</a>
</g>
</g>
<!-- Node0&#45;&gt;Node1 -->
<g id="edge1" class="edge">
<title>Node0&#45;&gt;Node1</title>
<path fill="none" stroke="#191970" d="M44.6388,-231.137C51.4296,-266.9374 70.9372,-342.7797 119,-382.5 126.829,-388.9701 136.5033,-393.3037 146.3655,-396.1908"/>
<polygon fill="#191970" stroke="#191970" points="48.0385,-230.2605 42.8608,-221.017 41.1441,-231.4718 48.0385,-230.2605"/>
</g>
<!-- Node4 -->
<g id="node5" class="node">
<title>Node4</title>
<g id="a_node5"><a xlink:href="struct_ogre_1_1_cb_indirect_buffer.html" target="_top" xlink:title="Ogre::CbIndirectBuffer">
<polygon fill="none" stroke="#000000" points="135.5,-354 135.5,-373 260.5,-373 260.5,-354 135.5,-354"/>
<text text-anchor="middle" x="198" y="-361" font-family="Helvetica,sans-Serif" font-size="10.00" fill="#000000">Ogre::CbIndirectBuffer</text>
</a>
</g>
</g>
<!-- Node0&#45;&gt;Node4 -->
<g id="edge4" class="edge">
<title>Node0&#45;&gt;Node4</title>
<path fill="none" stroke="#191970" d="M47.4373,-231.2451C57.3238,-260.6283 80.0236,-315.5042 119,-344.5 124.2063,-348.3731 130.0923,-351.4678 136.2456,-353.9387"/>
<polygon fill="#191970" stroke="#191970" points="50.6489,-229.7971 44.2684,-221.339 43.9817,-231.9299 50.6489,-229.7971"/>
</g>
<!-- Node5 -->
<g id="node6" class="node">
<title>Node5</title>
<g id="a_node6"><a xlink:href="struct_ogre_1_1_cb_low_level_material.html" target="_top" xlink:title="Ogre::CbLowLevelMaterial">
<polygon fill="none" stroke="#000000" points="125.5,-316 125.5,-335 270.5,-335 270.5,-316 125.5,-316"/>
<text text-anchor="middle" x="198" y="-323" font-family="Helvetica,sans-Serif" font-size="10.00" fill="#000000">Ogre::CbLowLevelMaterial</text>
</a>
</g>
</g>
<!-- Node0&#45;&gt;Node5 -->
<g id="edge5" class="edge">
<title>Node0&#45;&gt;Node5</title>
<path fill="none" stroke="#191970" d="M51.498,-229.9516C64.2512,-251.6801 88.3723,-287.2441 119,-306.5 125.21,-310.4043 132.1566,-313.5064 139.2845,-315.9711"/>
<polygon fill="#191970" stroke="#191970" points="54.4298,-228.0261 46.4557,-221.0501 48.3391,-231.4762 54.4298,-228.0261"/>
</g>
<!-- Node6 -->
<g id="node7" class="node">
<title>Node6</title>
<g id="a_node7"><a xlink:href="struct_ogre_1_1_cb_pipeline_state_object.html" target="_top" xlink:title="Ogre::CbPipelineStateObject">
<polygon fill="none" stroke="#000000" points="120.5,-278 120.5,-297 275.5,-297 275.5,-278 120.5,-278"/>
<text text-anchor="middle" x="198" y="-285" font-family="Helvetica,sans-Serif" font-size="10.00" fill="#000000">Ogre::CbPipelineStateObject</text>
</a>
</g>
</g>
<!-- Node0&#45;&gt;Node6 -->
<g id="edge6" class="edge">
<title>Node0&#45;&gt;Node6</title>
<path fill="none" stroke="#191970" d="M59.5383,-228.04C74.4485,-240.8639 96.7164,-258.1428 119,-268.5 127.187,-272.3052 136.218,-275.3953 145.1593,-277.8901"/>
<polygon fill="#191970" stroke="#191970" points="61.4785,-225.0841 51.6652,-221.0904 56.8461,-230.3321 61.4785,-225.0841"/>
</g>
<!-- Node7 -->
<g id="node8" class="node">
<title>Node7</title>
<g id="a_node8"><a xlink:href="struct_ogre_1_1_cb_shader_buffer.html" target="_top" xlink:title="Ogre::CbShaderBuffer">
<polygon fill="none" stroke="#000000" points="137,-240 137,-259 259,-259 259,-240 137,-240"/>
<text text-anchor="middle" x="198" y="-247" font-family="Helvetica,sans-Serif" font-size="10.00" fill="#000000">Ogre::CbShaderBuffer</text>
</a>
</g>
</g>
<!-- Node0&#45;&gt;Node7 -->
<g id="edge7" class="edge">
<title>Node0&#45;&gt;Node7</title>
<path fill="none" stroke="#191970" d="M89.9585,-223.4149C99.5794,-225.7706 109.6081,-228.2193 119,-230.5 131.7484,-233.5957 145.6602,-236.9497 158.2077,-239.9658"/>
<polygon fill="#191970" stroke="#191970" points="90.6697,-219.9857 80.124,-221.0045 89.0033,-226.7844 90.6697,-219.9857"/>
</g>
<!-- Node8 -->
<g id="node9" class="node">
<title>Node8</title>
<g id="a_node9"><a xlink:href="struct_ogre_1_1_cb_texture.html" target="_top" xlink:title="Ogre::CbTexture">
<polygon fill="none" stroke="#000000" points="150,-202 150,-221 246,-221 246,-202 150,-202"/>
<text text-anchor="middle" x="198" y="-209" font-family="Helvetica,sans-Serif" font-size="10.00" fill="#000000">Ogre::CbTexture</text>
</a>
</g>
</g>
<!-- Node0&#45;&gt;Node8 -->
<g id="edge8" class="edge">
<title>Node0&#45;&gt;Node8</title>
<path fill="none" stroke="#191970" d="M93.2086,-211.5C111.478,-211.5 131.937,-211.5 149.8954,-211.5"/>
<polygon fill="#191970" stroke="#191970" points="93.0283,-208.0001 83.0282,-211.5 93.0282,-215.0001 93.0283,-208.0001"/>
</g>
<!-- Node9 -->
<g id="node10" class="node">
<title>Node9</title>
<g id="a_node10"><a xlink:href="struct_ogre_1_1_cb_texture_disable_from.html" target="_top" xlink:title="Ogre::CbTextureDisableFrom">
<polygon fill="none" stroke="#000000" points="119,-164 119,-183 277,-183 277,-164 119,-164"/>
<text text-anchor="middle" x="198" y="-171" font-family="Helvetica,sans-Serif" font-size="10.00" fill="#000000">Ogre::CbTextureDisableFrom</text>
</a>
</g>
</g>
<!-- Node0&#45;&gt;Node9 -->
<g id="edge9" class="edge">
<title>Node0&#45;&gt;Node9</title>
<path fill="none" stroke="#191970" d="M89.9585,-199.5851C99.5794,-197.2294 109.6081,-194.7807 119,-192.5 131.7484,-189.4043 145.6602,-186.0503 158.2077,-183.0342"/>
<polygon fill="#191970" stroke="#191970" points="89.0033,-196.2156 80.124,-201.9955 90.6697,-203.0143 89.0033,-196.2156"/>
</g>
<!-- Node10 -->
<g id="node11" class="node">
<title>Node10</title>
<g id="a_node11"><a xlink:href="struct_ogre_1_1_cb_vao.html" target="_top" xlink:title="Ogre::CbVao">
<polygon fill="none" stroke="#000000" points="159.5,-126 159.5,-145 236.5,-145 236.5,-126 159.5,-126"/>
<text text-anchor="middle" x="198" y="-133" font-family="Helvetica,sans-Serif" font-size="10.00" fill="#000000">Ogre::CbVao</text>
</a>
</g>
</g>
<!-- Node0&#45;&gt;Node10 -->
<g id="edge10" class="edge">
<title>Node0&#45;&gt;Node10</title>
<path fill="none" stroke="#191970" d="M59.5383,-194.96C74.4485,-182.1361 96.7164,-164.8572 119,-154.5 131.5363,-148.6733 146.0516,-144.5233 159.1935,-141.6201"/>
<polygon fill="#191970" stroke="#191970" points="56.8461,-192.6679 51.6652,-201.9096 61.4785,-197.9159 56.8461,-192.6679"/>
</g>
<!-- Node11 -->
<g id="node12" class="node">
<title>Node11</title>
<g id="a_node12"><a xlink:href="struct_ogre_1_1v1_1_1_cb_draw_call.html" target="_top" xlink:title="Ogre::v1::CbDrawCall">
<polygon fill="none" stroke="#000000" points="137.5,-88 137.5,-107 258.5,-107 258.5,-88 137.5,-88"/>
<text text-anchor="middle" x="198" y="-95" font-family="Helvetica,sans-Serif" font-size="10.00" fill="#000000">Ogre::v1::CbDrawCall</text>
</a>
</g>
</g>
<!-- Node0&#45;&gt;Node11 -->
<g id="edge11" class="edge">
<title>Node0&#45;&gt;Node11</title>
<path fill="none" stroke="#191970" d="M51.498,-193.0484C64.2512,-171.3199 88.3723,-135.7559 119,-116.5 125.21,-112.5957 132.1566,-109.4936 139.2845,-107.0289"/>
<polygon fill="#191970" stroke="#191970" points="48.3391,-191.5238 46.4557,-201.9499 54.4298,-194.9739 48.3391,-191.5238"/>
</g>
<!-- Node14 -->
<g id="node15" class="node">
<title>Node14</title>
<g id="a_node15"><a xlink:href="struct_ogre_1_1v1_1_1_cb_render_op.html" target="_top" xlink:title="Ogre::v1::CbRenderOp">
<polygon fill="none" stroke="#000000" points="135.5,-50 135.5,-69 260.5,-69 260.5,-50 135.5,-50"/>
<text text-anchor="middle" x="198" y="-57" font-family="Helvetica,sans-Serif" font-size="10.00" fill="#000000">Ogre::v1::CbRenderOp</text>
</a>
</g>
</g>
<!-- Node0&#45;&gt;Node14 -->
<g id="edge14" class="edge">
<title>Node0&#45;&gt;Node14</title>
<path fill="none" stroke="#191970" d="M47.4373,-191.7549C57.3238,-162.3717 80.0236,-107.4958 119,-78.5 124.2063,-74.6269 130.0923,-71.5322 136.2456,-69.0613"/>
<polygon fill="#191970" stroke="#191970" points="43.9817,-191.0701 44.2684,-201.661 50.6489,-193.2029 43.9817,-191.0701"/>
</g>
<!-- Node15 -->
<g id="node16" class="node">
<title>Node15</title>
<g id="a_node16"><a xlink:href="struct_ogre_1_1v1_1_1_cb_start_v1_legacy_rendering.html" target="_top" xlink:title="Ogre::v1::CbStartV1Legacy\lRendering">
<polygon fill="none" stroke="#000000" points="124.5,-.5 124.5,-30.5 271.5,-30.5 271.5,-.5 124.5,-.5"/>
<text text-anchor="start" x="132.5" y="-18.5" font-family="Helvetica,sans-Serif" font-size="10.00" fill="#000000">Ogre::v1::CbStartV1Legacy</text>
<text text-anchor="middle" x="198" y="-7.5" font-family="Helvetica,sans-Serif" font-size="10.00" fill="#000000">Rendering</text>
</a>
</g>
</g>
<!-- Node0&#45;&gt;Node15 -->
<g id="edge15" class="edge">
<title>Node0&#45;&gt;Node15</title>
<path fill="none" stroke="#191970" d="M45.016,-191.6809C52.3431,-156.199 72.5861,-81.6933 119,-40.5 123.3037,-36.6804 128.1912,-33.444 133.375,-30.7019"/>
<polygon fill="#191970" stroke="#191970" points="41.5335,-191.2559 43.0741,-201.7381 48.4065,-192.583 41.5335,-191.2559"/>
</g>
<!-- Node2 -->
<g id="node3" class="node">
<title>Node2</title>
<g id="a_node3"><a xlink:href="struct_ogre_1_1_cb_draw_call_indexed.html" target="_top" xlink:title="Ogre::CbDrawCallIndexed">
<polygon fill="none" stroke="#000000" points="322,-411 322,-430 464,-430 464,-411 322,-411"/>
<text text-anchor="middle" x="393" y="-418" font-family="Helvetica,sans-Serif" font-size="10.00" fill="#000000">Ogre::CbDrawCallIndexed</text>
</a>
</g>
</g>
<!-- Node1&#45;&gt;Node2 -->
<g id="edge2" class="edge">
<title>Node1&#45;&gt;Node2</title>
<path fill="none" stroke="#191970" d="M259.8402,-407.5255C279.5802,-409.4488 301.5819,-411.5926 321.9238,-413.5746"/>
<polygon fill="#191970" stroke="#191970" points="260.0368,-404.0281 249.7445,-406.5418 259.3579,-410.9951 260.0368,-404.0281"/>
</g>
<!-- Node3 -->
<g id="node4" class="node">
<title>Node3</title>
<g id="a_node4"><a xlink:href="struct_ogre_1_1_cb_draw_call_strip.html" target="_top" xlink:title="Ogre::CbDrawCallStrip">
<polygon fill="none" stroke="#000000" points="330.5,-373 330.5,-392 455.5,-392 455.5,-373 330.5,-373"/>
<text text-anchor="middle" x="393" y="-380" font-family="Helvetica,sans-Serif" font-size="10.00" fill="#000000">Ogre::CbDrawCallStrip</text>
</a>
</g>
</g>
<!-- Node1&#45;&gt;Node3 -->
<g id="edge3" class="edge">
<title>Node1&#45;&gt;Node3</title>
<path fill="none" stroke="#191970" d="M259.8375,-395.4748C282.2983,-393.2863 307.6877,-390.8125 330.2285,-388.6162"/>
<polygon fill="#191970" stroke="#191970" points="259.3579,-392.0049 249.7445,-396.4582 260.0368,-398.9719 259.3579,-392.0049"/>
</g>
<!-- Node12 -->
<g id="node13" class="node">
<title>Node12</title>
<g id="a_node13"><a xlink:href="struct_ogre_1_1v1_1_1_cb_draw_call_indexed.html" target="_top" xlink:title="Ogre::v1::CbDrawCallIndexed">
<polygon fill="none" stroke="#000000" points="313,-107 313,-126 473,-126 473,-107 313,-107"/>
<text text-anchor="middle" x="393" y="-114" font-family="Helvetica,sans-Serif" font-size="10.00" fill="#000000">Ogre::v1::CbDrawCallIndexed</text>
</a>
</g>
</g>
<!-- Node11&#45;&gt;Node12 -->
<g id="edge12" class="edge">
<title>Node11&#45;&gt;Node12</title>
<path fill="none" stroke="#191970" d="M268.8371,-104.4021C283.0805,-105.7899 298.1464,-107.2578 312.6857,-108.6745"/>
<polygon fill="#191970" stroke="#191970" points="268.9226,-100.8939 258.6303,-103.4076 268.2437,-107.8609 268.9226,-100.8939"/>
</g>
<!-- Node13 -->
<g id="node14" class="node">
<title>Node13</title>
<g id="a_node14"><a xlink:href="struct_ogre_1_1v1_1_1_cb_draw_call_strip.html" target="_top" xlink:title="Ogre::v1::CbDrawCallStrip">
<polygon fill="none" stroke="#000000" points="321.5,-69 321.5,-88 464.5,-88 464.5,-69 321.5,-69"/>
<text text-anchor="middle" x="393" y="-76" font-family="Helvetica,sans-Serif" font-size="10.00" fill="#000000">Ogre::v1::CbDrawCallStrip</text>
</a>
</g>
</g>
<!-- Node11&#45;&gt;Node13 -->
<g id="edge13" class="edge">
<title>Node11&#45;&gt;Node13</title>
<path fill="none" stroke="#191970" d="M268.6013,-90.6209C285.8046,-88.9447 304.22,-87.1504 321.4662,-85.47"/>
<polygon fill="#191970" stroke="#191970" points="268.2437,-87.1391 258.6303,-91.5924 268.9226,-94.1061 268.2437,-87.1391"/>
</g>
</g>
</svg>
