<?xml version="1.0" encoding="UTF-8" standalone="no"?>
<!DOCTYPE svg PUBLIC "-//W3C//DTD SVG 1.1//EN"
 "http://www.w3.org/Graphics/SVG/1.1/DTD/svg11.dtd">
<!-- Generated by graphviz version 2.40.1 (20161225.0304)
 -->
<!-- Title: Ogre::VectorSet&lt; T, S &gt; Pages: 1 -->
<svg width="163pt" height="296pt"
 viewBox="0.00 0.00 163.00 296.00" xmlns="http://www.w3.org/2000/svg" xmlns:xlink="http://www.w3.org/1999/xlink">
<g id="graph0" class="graph" transform="scale(1 1) rotate(0) translate(4 292)">
<title>Ogre::VectorSet&lt; T, S &gt;</title>
<!-- Node0 -->
<g id="node1" class="node">
<title>Node0</title>
<polygon fill="#bfbfbf" stroke="#000000" points="10.5,-.5 10.5,-19.5 144.5,-19.5 144.5,-.5 10.5,-.5"/>
<text text-anchor="middle" x="77.5" y="-7.5" font-family="Helvetica,sans-Serif" font-size="10.00" fill="#000000">Ogre::VectorSet&lt; T, S &gt;</text>
</g>
<!-- Node1 -->
<g id="node2" class="node">
<title>Node1</title>
<g id="a_node2"><a xlink:href="class_ogre_1_1_small_vector.html" target="_top" xlink:title="Ogre::SmallVector\&lt;\l T, S \&gt;">
<polygon fill="none" stroke="#000000" points="21,-56.5 21,-86.5 134,-86.5 134,-56.5 21,-56.5"/>
<text text-anchor="start" x="29" y="-74.5" font-family="Helvetica,sans-Serif" font-size="10.00" fill="#000000">Ogre::SmallVector&lt;</text>
<text text-anchor="middle" x="77.5" y="-63.5" font-family="Helvetica,sans-Serif" font-size="10.00" fill="#000000"> T, S &gt;</text>
</a>
</g>
</g>
<!-- Node1&#45;&gt;Node0 -->
<g id="edge1" class="edge">
<title>Node1&#45;&gt;Node0</title>
<path fill="none" stroke="#191970" d="M77.5,-46.2849C77.5,-36.9858 77.5,-26.9883 77.5,-19.8469"/>
<polygon fill="#191970" stroke="#191970" points="74.0001,-46.2977 77.5,-56.2977 81.0001,-46.2978 74.0001,-46.2977"/>
</g>
<!-- Node2 -->
<g id="node3" class="node">
<title>Node2</title>
<g id="a_node3"><a xlink:href="class_ogre_1_1_small_vector_impl.html" target="_top" xlink:title="SmallVectorImpl &#45; This class consists of common code factored out of the SmallVector class to reduce ...">
<polygon fill="none" stroke="#000000" points="0,-123.5 0,-142.5 155,-142.5 155,-123.5 0,-123.5"/>
<text text-anchor="middle" x="77.5" y="-130.5" font-family="Helvetica,sans-Serif" font-size="10.00" fill="#000000">Ogre::SmallVectorImpl&lt; T &gt;</text>
</a>
</g>
</g>
<!-- Node2&#45;&gt;Node1 -->
<g id="edge2" class="edge">
<title>Node2&#45;&gt;Node1</title>
<path fill="none" stroke="#191970" d="M71.1586,-113.3693C70.4926,-104.681 70.6407,-94.6241 71.6029,-86.5446"/>
<polygon fill="#191970" stroke="#191970" points="67.6997,-113.9142 72.4375,-123.3906 74.6433,-113.028 67.6997,-113.9142"/>
</g>
<!-- Node2&#45;&gt;Node1 -->
<g id="edge7" class="edge">
<title>Node2&#45;&gt;Node1</title>
<path fill="none" stroke="#191970" d="M83.8414,-113.3693C84.5074,-104.681 84.3593,-94.6241 83.3971,-86.5446"/>
<polygon fill="#191970" stroke="#191970" points="80.3567,-113.028 82.5625,-123.3906 87.3003,-113.9142 80.3567,-113.028"/>
</g>
<!-- Node3 -->
<g id="node4" class="node">
<title>Node3</title>
<g id="a_node4"><a xlink:href="class_ogre_1_1_small_vector_template_base.html" target="_top" xlink:title="Ogre::SmallVectorTemplate\lBase\&lt; T, isPodLike\&lt; T \&gt;\l::value \&gt;">
<polygon fill="none" stroke="#000000" points="1.5,-179.5 1.5,-220.5 153.5,-220.5 153.5,-179.5 1.5,-179.5"/>
<text text-anchor="start" x="9.5" y="-208.5" font-family="Helvetica,sans-Serif" font-size="10.00" fill="#000000">Ogre::SmallVectorTemplate</text>
<text text-anchor="start" x="9.5" y="-197.5" font-family="Helvetica,sans-Serif" font-size="10.00" fill="#000000">Base&lt; T, isPodLike&lt; T &gt;</text>
<text text-anchor="middle" x="77.5" y="-186.5" font-family="Helvetica,sans-Serif" font-size="10.00" fill="#000000">::value &gt;</text>
</a>
</g>
</g>
<!-- Node3&#45;&gt;Node2 -->
<g id="edge3" class="edge">
<title>Node3&#45;&gt;Node2</title>
<path fill="none" stroke="#191970" d="M70.768,-169.0909C70.6356,-159.5672 71.2345,-149.7625 72.5646,-142.7805"/>
<polygon fill="#191970" stroke="#191970" points="67.2748,-169.3266 71.1987,-179.168 74.2684,-169.0277 67.2748,-169.3266"/>
</g>
<!-- Node3&#45;&gt;Node2 -->
<g id="edge6" class="edge">
<title>Node3&#45;&gt;Node2</title>
<path fill="none" stroke="#191970" d="M84.232,-169.0909C84.3644,-159.5672 83.7655,-149.7625 82.4354,-142.7805"/>
<polygon fill="#191970" stroke="#191970" points="80.7316,-169.0277 83.8013,-179.168 87.7252,-169.3266 80.7316,-169.0277"/>
</g>
<!-- Node4 -->
<g id="node5" class="node">
<title>Node4</title>
<g id="a_node5"><a xlink:href="class_ogre_1_1_small_vector_template_common.html" target="_top" xlink:title="Ogre::SmallVectorTemplate\lCommon\&lt; T \&gt;">
<polygon fill="none" stroke="#ff0000" points="1.5,-257.5 1.5,-287.5 153.5,-287.5 153.5,-257.5 1.5,-257.5"/>
<text text-anchor="start" x="9.5" y="-275.5" font-family="Helvetica,sans-Serif" font-size="10.00" fill="#000000">Ogre::SmallVectorTemplate</text>
<text text-anchor="middle" x="77.5" y="-264.5" font-family="Helvetica,sans-Serif" font-size="10.00" fill="#000000">Common&lt; T &gt;</text>
</a>
</g>
</g>
<!-- Node4&#45;&gt;Node3 -->
<g id="edge4" class="edge">
<title>Node4&#45;&gt;Node3</title>
<path fill="none" stroke="#191970" d="M71.0423,-247.4016C70.5679,-238.6173 70.671,-228.8652 71.3514,-220.5015"/>
<polygon fill="#191970" stroke="#191970" points="67.5647,-247.814 71.9073,-257.478 74.5391,-247.2152 67.5647,-247.814"/>
</g>
<!-- Node4&#45;&gt;Node3 -->
<g id="edge5" class="edge">
<title>Node4&#45;&gt;Node3</title>
<path fill="none" stroke="#191970" d="M83.9577,-247.4016C84.4321,-238.6173 84.329,-228.8652 83.6486,-220.5015"/>
<polygon fill="#191970" stroke="#191970" points="80.4609,-247.2152 83.0927,-257.478 87.4353,-247.814 80.4609,-247.2152"/>
</g>
</g>
</svg>
