<?xml version="1.0" encoding="UTF-8" standalone="no"?>
<!DOCTYPE svg PUBLIC "-//W3C//DTD SVG 1.1//EN"
 "http://www.w3.org/Graphics/SVG/1.1/DTD/svg11.dtd">
<!-- Generated by graphviz version 2.38.0 (20140413.2041)
 -->
<!-- Title: Ogre::BasicBlock Pages: 1 -->
<svg width="403pt" height="84pt"
 viewBox="0.00 0.00 402.50 84.00" xmlns="http://www.w3.org/2000/svg" xmlns:xlink="http://www.w3.org/1999/xlink">
<g id="graph0" class="graph" transform="scale(1 1) rotate(0) translate(4 80)">
<title>Ogre::BasicBlock</title>
<!-- Node1 -->
<g id="node1" class="node"><title>Node1</title>
<polygon fill="#bfbfbf" stroke="black" points="145,-56.5 145,-75.5 238,-75.5 238,-56.5 145,-56.5"/>
<text text-anchor="middle" x="191.5" y="-63.5" font-family="Helvetica,sans-Serif" font-size="10.00">Ogre::BasicBlock</text>
</g>
<!-- Node2 -->
<g id="node2" class="node"><title>Node2</title>
<g id="a_node2"><a xlink:href="struct_ogre_1_1_hlms_blendblock.html" target="_top" xlink:title="A blend block contains settings that rarely change, and thus are common to many materials. ">
<polygon fill="none" stroke="black" points="0,-0.5 0,-19.5 115,-19.5 115,-0.5 0,-0.5"/>
<text text-anchor="middle" x="57.5" y="-7.5" font-family="Helvetica,sans-Serif" font-size="10.00">Ogre::HlmsBlendblock</text>
</a>
</g>
</g>
<!-- Node1&#45;&gt;Node2 -->
<g id="edge1" class="edge"><title>Node1&#45;&gt;Node2</title>
<path fill="none" stroke="midnightblue" d="M160.823,-52.6377C135.677,-42.504 100.746,-28.4274 78.6334,-19.5164"/>
<polygon fill="midnightblue" stroke="midnightblue" points="159.684,-55.952 170.267,-56.4435 162.3,-49.4594 159.684,-55.952"/>
</g>
<!-- Node3 -->
<g id="node3" class="node"><title>Node3</title>
<g id="a_node3"><a xlink:href="struct_ogre_1_1_hlms_macroblock.html" target="_top" xlink:title="A macro block contains settings that will rarely change, and thus are common to many materials...">
<polygon fill="none" stroke="black" points="133,-0.5 133,-19.5 250,-19.5 250,-0.5 133,-0.5"/>
<text text-anchor="middle" x="191.5" y="-7.5" font-family="Helvetica,sans-Serif" font-size="10.00">Ogre::HlmsMacroblock</text>
</a>
</g>
</g>
<!-- Node1&#45;&gt;Node3 -->
<g id="edge2" class="edge"><title>Node1&#45;&gt;Node3</title>
<path fill="none" stroke="midnightblue" d="M191.5,-45.8045C191.5,-36.9102 191.5,-26.7798 191.5,-19.7511"/>
<polygon fill="midnightblue" stroke="midnightblue" points="188,-46.083 191.5,-56.083 195,-46.083 188,-46.083"/>
</g>
<!-- Node4 -->
<g id="node4" class="node"><title>Node4</title>
<g id="a_node4"><a xlink:href="struct_ogre_1_1_hlms_samplerblock.html" target="_top" xlink:title="A sampler block contains settings that go hand in hand with a texture, and thus are common to many te...">
<polygon fill="none" stroke="black" points="268.5,-0.5 268.5,-19.5 394.5,-19.5 394.5,-0.5 268.5,-0.5"/>
<text text-anchor="middle" x="331.5" y="-7.5" font-family="Helvetica,sans-Serif" font-size="10.00">Ogre::HlmsSamplerblock</text>
</a>
</g>
</g>
<!-- Node1&#45;&gt;Node4 -->
<g id="edge3" class="edge"><title>Node1&#45;&gt;Node4</title>
<path fill="none" stroke="midnightblue" d="M223.202,-52.772C249.5,-42.6287 286.216,-28.4669 309.42,-19.5164"/>
<polygon fill="midnightblue" stroke="midnightblue" points="221.754,-49.5792 213.683,-56.4435 224.273,-56.1103 221.754,-49.5792"/>
</g>
</g>
</svg>
