<?xml version="1.0" encoding="UTF-8" standalone="no"?>
<!DOCTYPE svg PUBLIC "-//W3C//DTD SVG 1.1//EN"
 "http://www.w3.org/Graphics/SVG/1.1/DTD/svg11.dtd">
<!-- Generated by graphviz version 2.40.1 (20161225.0304)
 -->
<!-- Title: Ogre::CbSharedDraw Pages: 1 -->
<svg width="240pt" height="84pt"
 viewBox="0.00 0.00 240.00 84.00" xmlns="http://www.w3.org/2000/svg" xmlns:xlink="http://www.w3.org/1999/xlink">
<g id="graph0" class="graph" transform="scale(1 1) rotate(0) translate(4 80)">
<title>Ogre::CbSharedDraw</title>
<!-- Node0 -->
<g id="node1" class="node">
<title>Node0</title>
<polygon fill="#bfbfbf" stroke="#000000" points="64,-56.5 64,-75.5 174,-75.5 174,-56.5 64,-56.5"/>
<text text-anchor="middle" x="119" y="-63.5" font-family="Helvetica,sans-Serif" font-size="10.00" fill="#000000">Ogre::CbSharedDraw</text>
</g>
<!-- Node1 -->
<g id="node2" class="node">
<title>Node1</title>
<g id="a_node2"><a xlink:href="struct_ogre_1_1_cb_draw_indexed.html" target="_top" xlink:title="Ogre::CbDrawIndexed">
<polygon fill="none" stroke="#000000" points="0,-.5 0,-19.5 114,-19.5 114,-.5 0,-.5"/>
<text text-anchor="middle" x="57" y="-7.5" font-family="Helvetica,sans-Serif" font-size="10.00" fill="#000000">Ogre::CbDrawIndexed</text>
</a>
</g>
</g>
<!-- Node0&#45;&gt;Node1 -->
<g id="edge1" class="edge">
<title>Node0&#45;&gt;Node1</title>
<path fill="none" stroke="#191970" d="M100.5779,-49.3607C89.8519,-39.6727 76.7066,-27.7995 67.6758,-19.6427"/>
<polygon fill="#191970" stroke="#191970" points="98.4334,-52.14 108.2004,-56.2455 103.1254,-46.9453 98.4334,-52.14"/>
</g>
<!-- Node2 -->
<g id="node3" class="node">
<title>Node2</title>
<g id="a_node3"><a xlink:href="struct_ogre_1_1_cb_draw_strip.html" target="_top" xlink:title="Ogre::CbDrawStrip">
<polygon fill="none" stroke="#000000" points="132,-.5 132,-19.5 232,-19.5 232,-.5 132,-.5"/>
<text text-anchor="middle" x="182" y="-7.5" font-family="Helvetica,sans-Serif" font-size="10.00" fill="#000000">Ogre::CbDrawStrip</text>
</a>
</g>
</g>
<!-- Node0&#45;&gt;Node2 -->
<g id="edge2" class="edge">
<title>Node0&#45;&gt;Node2</title>
<path fill="none" stroke="#191970" d="M137.7192,-49.3607C148.6182,-39.6727 161.9755,-27.7995 171.152,-19.6427"/>
<polygon fill="#191970" stroke="#191970" points="135.1226,-46.9859 129.9738,-56.2455 139.7732,-52.2178 135.1226,-46.9859"/>
</g>
</g>
</svg>
