<?xml version="1.0" encoding="UTF-8" standalone="no"?>
<!DOCTYPE svg PUBLIC "-//W3C//DTD SVG 1.1//EN"
 "http://www.w3.org/Graphics/SVG/1.1/DTD/svg11.dtd">
<!-- Generated by graphviz version 2.40.1 (20161225.0304)
 -->
<!-- Title: Ogre::VertexArrayObject Pages: 1 -->
<svg width="516pt" height="116pt"
 viewBox="0.00 0.00 516.00 116.00" xmlns="http://www.w3.org/2000/svg" xmlns:xlink="http://www.w3.org/1999/xlink">
<g id="graph0" class="graph" transform="scale(1 1) rotate(0) translate(4 112)">
<title>Ogre::VertexArrayObject</title>
<!-- Node0 -->
<g id="node1" class="node">
<title>Node0</title>
<polygon fill="#bfbfbf" stroke="#000000" points="167,-44.5 167,-63.5 303,-63.5 303,-44.5 167,-44.5"/>
<text text-anchor="middle" x="235" y="-51.5" font-family="Helvetica,sans-Serif" font-size="10.00" fill="#000000">Ogre::VertexArrayObject</text>
</g>
<!-- Node2 -->
<g id="node3" class="node">
<title>Node2</title>
<g id="a_node3"><a xlink:href="struct_ogre_1_1_d3_d11_vertex_array_object.html" target="_top" xlink:title="Ogre::D3D11VertexArrayObject">
<polygon fill="none" stroke="#000000" points="339,-88.5 339,-107.5 508,-107.5 508,-88.5 339,-88.5"/>
<text text-anchor="middle" x="423.5" y="-95.5" font-family="Helvetica,sans-Serif" font-size="10.00" fill="#000000">Ogre::D3D11VertexArrayObject</text>
</a>
</g>
</g>
<!-- Node0&#45;&gt;Node2 -->
<g id="edge2" class="edge">
<title>Node0&#45;&gt;Node2</title>
<path fill="none" stroke="#191970" d="M283.9153,-65.9155C301.2948,-70.1074 321.0076,-74.8149 339,-79 352.4738,-82.1341 367.1765,-85.4694 380.4847,-88.4565"/>
<polygon fill="#191970" stroke="#191970" points="284.5252,-62.4622 273.9828,-63.5147 282.8806,-69.2662 284.5252,-62.4622"/>
</g>
<!-- Node3 -->
<g id="node4" class="node">
<title>Node3</title>
<g id="a_node4"><a xlink:href="struct_ogre_1_1_g_l3_plus_vertex_array_object.html" target="_top" xlink:title="Ogre::GL3PlusVertexArray\lObject">
<polygon fill="none" stroke="#000000" points="352,-39 352,-69 495,-69 495,-39 352,-39"/>
<text text-anchor="start" x="360" y="-57" font-family="Helvetica,sans-Serif" font-size="10.00" fill="#000000">Ogre::GL3PlusVertexArray</text>
<text text-anchor="middle" x="423.5" y="-46" font-family="Helvetica,sans-Serif" font-size="10.00" fill="#000000">Object</text>
</a>
</g>
</g>
<!-- Node0&#45;&gt;Node3 -->
<g id="edge3" class="edge">
<title>Node0&#45;&gt;Node3</title>
<path fill="none" stroke="#191970" d="M313.1871,-54C325.9551,-54 339.1284,-54 351.7321,-54"/>
<polygon fill="#191970" stroke="#191970" points="313.0529,-50.5001 303.0528,-54 313.0528,-57.5001 313.0529,-50.5001"/>
</g>
<!-- Node4 -->
<g id="node5" class="node">
<title>Node4</title>
<g id="a_node5"><a xlink:href="struct_ogre_1_1_n_u_l_l_vertex_array_object.html" target="_top" xlink:title="Ogre::NULLVertexArrayObject">
<polygon fill="none" stroke="#000000" points="343,-.5 343,-19.5 504,-19.5 504,-.5 343,-.5"/>
<text text-anchor="middle" x="423.5" y="-7.5" font-family="Helvetica,sans-Serif" font-size="10.00" fill="#000000">Ogre::NULLVertexArrayObject</text>
</a>
</g>
</g>
<!-- Node0&#45;&gt;Node4 -->
<g id="edge4" class="edge">
<title>Node0&#45;&gt;Node4</title>
<path fill="none" stroke="#191970" d="M283.9153,-42.0845C301.2948,-37.8926 321.0076,-33.1851 339,-29 352.4738,-25.8659 367.1765,-22.5306 380.4847,-19.5435"/>
<polygon fill="#191970" stroke="#191970" points="282.8806,-38.7338 273.9828,-44.4853 284.5252,-45.5378 282.8806,-38.7338"/>
</g>
<!-- Node1 -->
<g id="node2" class="node">
<title>Node1</title>
<g id="a_node2"><a xlink:href="class_ogre_1_1_allocated_object.html" target="_top" xlink:title="Superclass for all objects that wish to use custom memory allocators when their new / delete operator...">
<polygon fill="none" stroke="#000000" points="0,-44.5 0,-63.5 131,-63.5 131,-44.5 0,-44.5"/>
<text text-anchor="middle" x="65.5" y="-51.5" font-family="Helvetica,sans-Serif" font-size="10.00" fill="#000000">VertexArrayObjectAlloc</text>
</a>
</g>
</g>
<!-- Node1&#45;&gt;Node0 -->
<g id="edge1" class="edge">
<title>Node1&#45;&gt;Node0</title>
<path fill="none" stroke="#191970" d="M141.0388,-54C149.6304,-54 158.3498,-54 166.8382,-54"/>
<polygon fill="#191970" stroke="#191970" points="141.0332,-50.5001 131.0331,-54 141.0331,-57.5001 141.0332,-50.5001"/>
</g>
</g>
</svg>
