<?xml version="1.0" encoding="UTF-8" standalone="no"?>
<!DOCTYPE svg PUBLIC "-//W3C//DTD SVG 1.1//EN"
 "http://www.w3.org/Graphics/SVG/1.1/DTD/svg11.dtd">
<!-- Generated by graphviz version 2.40.1 (20161225.0304)
 -->
<!-- Title: Ogre::GpuResource Pages: 1 -->
<svg width="623pt" height="1466pt"
 viewBox="0.00 0.00 623.00 1466.00" xmlns="http://www.w3.org/2000/svg" xmlns:xlink="http://www.w3.org/1999/xlink">
<g id="graph0" class="graph" transform="scale(1 1) rotate(0) translate(4 1462)">
<title>Ogre::GpuResource</title>
<!-- Node0 -->
<g id="node1" class="node">
<title>Node0</title>
<polygon fill="#bfbfbf" stroke="#000000" points="0,-848.5 0,-867.5 104,-867.5 104,-848.5 0,-848.5"/>
<text text-anchor="middle" x="52" y="-855.5" font-family="Helvetica,sans-Serif" font-size="10.00" fill="#000000">Ogre::GpuResource</text>
</g>
<!-- Node1 -->
<g id="node2" class="node">
<title>Node1</title>
<g id="a_node2"><a xlink:href="class_ogre_1_1_buffer_packed.html" target="_top" xlink:title="Ogre::BufferPacked">
<polygon fill="none" stroke="#000000" points="140,-1148.5 140,-1167.5 243,-1167.5 243,-1148.5 140,-1148.5"/>
<text text-anchor="middle" x="191.5" y="-1155.5" font-family="Helvetica,sans-Serif" font-size="10.00" fill="#000000">Ogre::BufferPacked</text>
</a>
</g>
</g>
<!-- Node0&#45;&gt;Node1 -->
<g id="edge1" class="edge">
<title>Node0&#45;&gt;Node1</title>
<path fill="none" stroke="#191970" d="M60.8396,-877.0098C87.5971,-934.5529 167.0994,-1105.5256 186.9632,-1148.2434"/>
<polygon fill="#191970" stroke="#191970" points="63.8736,-875.2336 56.4834,-867.6418 57.5262,-878.1852 63.8736,-875.2336"/>
</g>
<!-- Node21 -->
<g id="node22" class="node">
<title>Node21</title>
<g id="a_node22"><a xlink:href="class_ogre_1_1_render_target.html" target="_top" xlink:title="A &#39;canvas&#39; which can receive the results of a rendering operation. ">
<polygon fill="none" stroke="#000000" points="140,-669.5 140,-688.5 243,-688.5 243,-669.5 140,-669.5"/>
<text text-anchor="middle" x="191.5" y="-676.5" font-family="Helvetica,sans-Serif" font-size="10.00" fill="#000000">Ogre::RenderTarget</text>
</a>
</g>
</g>
<!-- Node0&#45;&gt;Node21 -->
<g id="edge21" class="edge">
<title>Node0&#45;&gt;Node21</title>
<path fill="none" stroke="#191970" d="M65.7061,-840.413C94.7134,-803.1921 161.4899,-717.5076 183.9628,-688.6714"/>
<polygon fill="#191970" stroke="#191970" points="62.8865,-838.3371 59.5001,-848.3762 68.4079,-842.64 62.8865,-838.3371"/>
</g>
<!-- Node2 -->
<g id="node3" class="node">
<title>Node2</title>
<g id="a_node3"><a xlink:href="class_ogre_1_1_const_buffer_packed.html" target="_top" xlink:title="Represents constant buffers (also known as Uniform Buffers in GL) ">
<polygon fill="none" stroke="#000000" points="282,-1350.5 282,-1369.5 411,-1369.5 411,-1350.5 282,-1350.5"/>
<text text-anchor="middle" x="346.5" y="-1357.5" font-family="Helvetica,sans-Serif" font-size="10.00" fill="#000000">Ogre::ConstBufferPacked</text>
</a>
</g>
</g>
<!-- Node1&#45;&gt;Node2 -->
<g id="edge2" class="edge">
<title>Node1&#45;&gt;Node2</title>
<path fill="none" stroke="#191970" d="M205.1812,-1175.8296C236.9302,-1217.2058 314.7577,-1318.6326 339.099,-1350.3549"/>
<polygon fill="#191970" stroke="#191970" points="207.8404,-1173.5458 198.976,-1167.7429 202.2869,-1177.8071 207.8404,-1173.5458"/>
</g>
<!-- Node7 -->
<g id="node8" class="node">
<title>Node7</title>
<g id="a_node8"><a xlink:href="class_ogre_1_1_index_buffer_packed.html" target="_top" xlink:title="Ogre::IndexBufferPacked">
<polygon fill="none" stroke="#000000" points="283,-1224.5 283,-1243.5 410,-1243.5 410,-1224.5 283,-1224.5"/>
<text text-anchor="middle" x="346.5" y="-1231.5" font-family="Helvetica,sans-Serif" font-size="10.00" fill="#000000">Ogre::IndexBufferPacked</text>
</a>
</g>
</g>
<!-- Node1&#45;&gt;Node7 -->
<g id="edge7" class="edge">
<title>Node1&#45;&gt;Node7</title>
<path fill="none" stroke="#191970" d="M211.6789,-1173.6944C228.7859,-1186.3562 254.3956,-1203.8383 279,-1215 287.2042,-1218.7218 296.3054,-1221.8795 305.0996,-1224.4882"/>
<polygon fill="#191970" stroke="#191970" points="213.6503,-1170.7975 203.5585,-1167.5716 209.436,-1176.3867 213.6503,-1170.7975"/>
</g>
<!-- Node8 -->
<g id="node9" class="node">
<title>Node8</title>
<g id="a_node9"><a xlink:href="class_ogre_1_1_indirect_buffer_packed.html" target="_top" xlink:title="Represents Indirect buffers for storing draw call commands. ">
<polygon fill="none" stroke="#000000" points="279,-1186.5 279,-1205.5 414,-1205.5 414,-1186.5 279,-1186.5"/>
<text text-anchor="middle" x="346.5" y="-1193.5" font-family="Helvetica,sans-Serif" font-size="10.00" fill="#000000">Ogre::IndirectBufferPacked</text>
</a>
</g>
</g>
<!-- Node1&#45;&gt;Node8 -->
<g id="edge8" class="edge">
<title>Node1&#45;&gt;Node8</title>
<path fill="none" stroke="#191970" d="M240.6105,-1170.04C262.2647,-1175.3488 287.3502,-1181.4988 307.6682,-1186.4799"/>
<polygon fill="#191970" stroke="#191970" points="241.1588,-1166.5708 230.613,-1167.589 239.492,-1173.3695 241.1588,-1166.5708"/>
</g>
<!-- Node9 -->
<g id="node10" class="node">
<title>Node9</title>
<g id="a_node10"><a xlink:href="class_ogre_1_1_tex_buffer_packed.html" target="_top" xlink:title="Represents Texture buffers (also known as tbuffers in D3D11) ">
<polygon fill="none" stroke="#000000" points="287,-1148.5 287,-1167.5 406,-1167.5 406,-1148.5 287,-1148.5"/>
<text text-anchor="middle" x="346.5" y="-1155.5" font-family="Helvetica,sans-Serif" font-size="10.00" fill="#000000">Ogre::TexBufferPacked</text>
</a>
</g>
</g>
<!-- Node1&#45;&gt;Node9 -->
<g id="edge9" class="edge">
<title>Node1&#45;&gt;Node9</title>
<path fill="none" stroke="#191970" d="M253.1406,-1158C264.2282,-1158 275.7684,-1158 286.7999,-1158"/>
<polygon fill="#191970" stroke="#191970" points="253.1128,-1154.5001 243.1128,-1158 253.1127,-1161.5001 253.1128,-1154.5001"/>
</g>
<!-- Node15 -->
<g id="node16" class="node">
<title>Node15</title>
<g id="a_node16"><a xlink:href="class_ogre_1_1_uav_buffer_packed.html" target="_top" xlink:title="Represents UAV buffers (also known as SSBOs in OpenGL) Uav buffers are supported in DX10/DX10...">
<polygon fill="none" stroke="#000000" points="286,-1053.5 286,-1072.5 407,-1072.5 407,-1053.5 286,-1053.5"/>
<text text-anchor="middle" x="346.5" y="-1060.5" font-family="Helvetica,sans-Serif" font-size="10.00" fill="#000000">Ogre::UavBufferPacked</text>
</a>
</g>
</g>
<!-- Node1&#45;&gt;Node15 -->
<g id="edge15" class="edge">
<title>Node1&#45;&gt;Node15</title>
<path fill="none" stroke="#191970" d="M216.005,-1142.9808C248.1604,-1123.2726 303.675,-1089.2476 330.7432,-1072.6574"/>
<polygon fill="#191970" stroke="#191970" points="213.9123,-1140.1583 207.2152,-1148.3681 217.5702,-1146.1265 213.9123,-1140.1583"/>
</g>
<!-- Node20 -->
<g id="node21" class="node">
<title>Node20</title>
<g id="a_node21"><a xlink:href="class_ogre_1_1_vertex_buffer_packed.html" target="_top" xlink:title="Ogre::VertexBufferPacked">
<polygon fill="none" stroke="#000000" points="281,-1015.5 281,-1034.5 412,-1034.5 412,-1015.5 281,-1015.5"/>
<text text-anchor="middle" x="346.5" y="-1022.5" font-family="Helvetica,sans-Serif" font-size="10.00" fill="#000000">Ogre::VertexBufferPacked</text>
</a>
</g>
</g>
<!-- Node1&#45;&gt;Node20 -->
<g id="edge20" class="edge">
<title>Node1&#45;&gt;Node20</title>
<path fill="none" stroke="#191970" d="M200.8058,-1139.3975C214.464,-1114.0065 242.3432,-1068.8246 279,-1044 284.7457,-1040.1089 291.2791,-1037.0086 297.9646,-1034.5399"/>
<polygon fill="#191970" stroke="#191970" points="197.6482,-1137.8832 196.1312,-1148.3689 203.8561,-1141.1179 197.6482,-1137.8832"/>
</g>
<!-- Node3 -->
<g id="node4" class="node">
<title>Node3</title>
<g id="a_node4"><a xlink:href="class_ogre_1_1_d3_d11_const_buffer_packed.html" target="_top" xlink:title="Ogre::D3D11ConstBufferPacked">
<polygon fill="none" stroke="#000000" points="452.5,-1438.5 452.5,-1457.5 612.5,-1457.5 612.5,-1438.5 452.5,-1438.5"/>
<text text-anchor="middle" x="532.5" y="-1445.5" font-family="Helvetica,sans-Serif" font-size="10.00" fill="#000000">Ogre::D3D11ConstBufferPacked</text>
</a>
</g>
</g>
<!-- Node2&#45;&gt;Node3 -->
<g id="edge3" class="edge">
<title>Node2&#45;&gt;Node3</title>
<path fill="none" stroke="#191970" d="M365.7578,-1375.9763C385.6599,-1391.7013 418.216,-1415.2922 450,-1429 458.9075,-1432.8416 468.7056,-1435.9653 478.343,-1438.4859"/>
<polygon fill="#191970" stroke="#191970" points="367.7821,-1373.1127 357.7972,-1369.5696 363.3932,-1378.566 367.7821,-1373.1127"/>
</g>
<!-- Node4 -->
<g id="node5" class="node">
<title>Node4</title>
<g id="a_node5"><a xlink:href="class_ogre_1_1_g_l3_plus_const_buffer_packed.html" target="_top" xlink:title="Ogre::GL3PlusConstBuffer\lPacked">
<polygon fill="none" stroke="#000000" points="465.5,-1389 465.5,-1419 599.5,-1419 599.5,-1389 465.5,-1389"/>
<text text-anchor="start" x="473.5" y="-1407" font-family="Helvetica,sans-Serif" font-size="10.00" fill="#000000">Ogre::GL3PlusConstBuffer</text>
<text text-anchor="middle" x="532.5" y="-1396" font-family="Helvetica,sans-Serif" font-size="10.00" fill="#000000">Packed</text>
</a>
</g>
</g>
<!-- Node2&#45;&gt;Node4 -->
<g id="edge4" class="edge">
<title>Node2&#45;&gt;Node4</title>
<path fill="none" stroke="#191970" d="M396.7371,-1371.884C418.9261,-1377.1331 445.2669,-1383.3642 468.8146,-1388.9346"/>
<polygon fill="#191970" stroke="#191970" points="397.3964,-1368.4435 386.8592,-1369.5473 395.7849,-1375.2555 397.3964,-1368.4435"/>
</g>
<!-- Node5 -->
<g id="node6" class="node">
<title>Node5</title>
<g id="a_node6"><a xlink:href="class_ogre_1_1_metal_const_buffer_packed.html" target="_top" xlink:title="Ogre::MetalConstBufferPacked">
<polygon fill="none" stroke="#000000" points="456,-1350.5 456,-1369.5 609,-1369.5 609,-1350.5 456,-1350.5"/>
<text text-anchor="middle" x="532.5" y="-1357.5" font-family="Helvetica,sans-Serif" font-size="10.00" fill="#000000">Ogre::MetalConstBufferPacked</text>
</a>
</g>
</g>
<!-- Node2&#45;&gt;Node5 -->
<g id="edge5" class="edge">
<title>Node2&#45;&gt;Node5</title>
<path fill="none" stroke="#191970" d="M421.36,-1360C432.7443,-1360 444.5058,-1360 455.9261,-1360"/>
<polygon fill="#191970" stroke="#191970" points="421.0318,-1356.5001 411.0318,-1360 421.0317,-1363.5001 421.0318,-1356.5001"/>
</g>
<!-- Node6 -->
<g id="node7" class="node">
<title>Node6</title>
<g id="a_node7"><a xlink:href="class_ogre_1_1_n_u_l_l_const_buffer_packed.html" target="_top" xlink:title="Ogre::NULLConstBufferPacked">
<polygon fill="none" stroke="#000000" points="455,-1312.5 455,-1331.5 610,-1331.5 610,-1312.5 455,-1312.5"/>
<text text-anchor="middle" x="532.5" y="-1319.5" font-family="Helvetica,sans-Serif" font-size="10.00" fill="#000000">Ogre::NULLConstBufferPacked</text>
</a>
</g>
</g>
<!-- Node2&#45;&gt;Node6 -->
<g id="edge6" class="edge">
<title>Node2&#45;&gt;Node6</title>
<path fill="none" stroke="#191970" d="M403.3255,-1348.3905C429.779,-1342.986 460.8583,-1336.6365 485.9019,-1331.5201"/>
<polygon fill="#191970" stroke="#191970" points="402.5327,-1344.9801 393.4357,-1350.411 403.9339,-1351.8384 402.5327,-1344.9801"/>
</g>
<!-- Node10 -->
<g id="node11" class="node">
<title>Node10</title>
<g id="a_node11"><a xlink:href="class_ogre_1_1_d3_d11_tex_buffer_packed.html" target="_top" xlink:title="Ogre::D3D11TexBufferPacked">
<polygon fill="none" stroke="#000000" points="457.5,-1274.5 457.5,-1293.5 607.5,-1293.5 607.5,-1274.5 457.5,-1274.5"/>
<text text-anchor="middle" x="532.5" y="-1281.5" font-family="Helvetica,sans-Serif" font-size="10.00" fill="#000000">Ogre::D3D11TexBufferPacked</text>
</a>
</g>
</g>
<!-- Node9&#45;&gt;Node10 -->
<g id="edge10" class="edge">
<title>Node9&#45;&gt;Node10</title>
<path fill="none" stroke="#191970" d="M408.349,-1172.6398C410.3352,-1173.9698 412.2285,-1175.4197 414,-1177 445.5333,-1205.1306 417.8004,-1237.6346 450,-1265 454.4798,-1268.8073 459.5739,-1271.8886 464.9808,-1274.378"/>
<polygon fill="#191970" stroke="#191970" points="409.5793,-1169.3205 399.1347,-1167.5424 406.1908,-1175.4458 409.5793,-1169.3205"/>
</g>
<!-- Node11 -->
<g id="node12" class="node">
<title>Node11</title>
<g id="a_node12"><a xlink:href="class_ogre_1_1_g_l3_plus_tex_buffer_emulated_packed.html" target="_top" xlink:title="Ogre::GL3PlusTexBufferEmulated\lPacked">
<polygon fill="none" stroke="#000000" points="450,-1225 450,-1255 615,-1255 615,-1225 450,-1225"/>
<text text-anchor="start" x="458" y="-1243" font-family="Helvetica,sans-Serif" font-size="10.00" fill="#000000">Ogre::GL3PlusTexBufferEmulated</text>
<text text-anchor="middle" x="532.5" y="-1232" font-family="Helvetica,sans-Serif" font-size="10.00" fill="#000000">Packed</text>
</a>
</g>
</g>
<!-- Node9&#45;&gt;Node11 -->
<g id="edge11" class="edge">
<title>Node9&#45;&gt;Node11</title>
<path fill="none" stroke="#191970" d="M402.6433,-1171.2085C406.5948,-1172.918 410.4245,-1174.8402 414,-1177 433.9133,-1189.0289 430.207,-1202.7741 450,-1215 456.2391,-1218.8538 463.1123,-1222.1483 470.1483,-1224.9563"/>
<polygon fill="#191970" stroke="#191970" points="403.8541,-1167.9243 393.2644,-1167.5942 401.3369,-1174.456 403.8541,-1167.9243"/>
</g>
<!-- Node12 -->
<g id="node13" class="node">
<title>Node12</title>
<g id="a_node13"><a xlink:href="class_ogre_1_1_g_l3_plus_tex_buffer_packed.html" target="_top" xlink:title="Ogre::GL3PlusTexBufferPacked">
<polygon fill="none" stroke="#000000" points="454,-1186.5 454,-1205.5 611,-1205.5 611,-1186.5 454,-1186.5"/>
<text text-anchor="middle" x="532.5" y="-1193.5" font-family="Helvetica,sans-Serif" font-size="10.00" fill="#000000">Ogre::GL3PlusTexBufferPacked</text>
</a>
</g>
</g>
<!-- Node9&#45;&gt;Node12 -->
<g id="edge12" class="edge">
<title>Node9&#45;&gt;Node12</title>
<path fill="none" stroke="#191970" d="M403.3255,-1169.6095C429.779,-1175.014 460.8583,-1181.3635 485.9019,-1186.4799"/>
<polygon fill="#191970" stroke="#191970" points="403.9339,-1166.1616 393.4357,-1167.589 402.5327,-1173.0199 403.9339,-1166.1616"/>
</g>
<!-- Node13 -->
<g id="node14" class="node">
<title>Node13</title>
<g id="a_node14"><a xlink:href="class_ogre_1_1_metal_tex_buffer_packed.html" target="_top" xlink:title="Ogre::MetalTexBufferPacked">
<polygon fill="none" stroke="#000000" points="461,-1148.5 461,-1167.5 604,-1167.5 604,-1148.5 461,-1148.5"/>
<text text-anchor="middle" x="532.5" y="-1155.5" font-family="Helvetica,sans-Serif" font-size="10.00" fill="#000000">Ogre::MetalTexBufferPacked</text>
</a>
</g>
</g>
<!-- Node9&#45;&gt;Node13 -->
<g id="edge13" class="edge">
<title>Node9&#45;&gt;Node13</title>
<path fill="none" stroke="#191970" d="M416.5142,-1158C431.0134,-1158 446.3078,-1158 460.864,-1158"/>
<polygon fill="#191970" stroke="#191970" points="416.1191,-1154.5001 406.119,-1158 416.119,-1161.5001 416.1191,-1154.5001"/>
</g>
<!-- Node14 -->
<g id="node15" class="node">
<title>Node14</title>
<g id="a_node15"><a xlink:href="class_ogre_1_1_n_u_l_l_tex_buffer_packed.html" target="_top" xlink:title="Ogre::NULLTexBufferPacked">
<polygon fill="none" stroke="#000000" points="460,-1110.5 460,-1129.5 605,-1129.5 605,-1110.5 460,-1110.5"/>
<text text-anchor="middle" x="532.5" y="-1117.5" font-family="Helvetica,sans-Serif" font-size="10.00" fill="#000000">Ogre::NULLTexBufferPacked</text>
</a>
</g>
</g>
<!-- Node9&#45;&gt;Node14 -->
<g id="edge14" class="edge">
<title>Node9&#45;&gt;Node14</title>
<path fill="none" stroke="#191970" d="M403.3255,-1146.3905C429.779,-1140.986 460.8583,-1134.6365 485.9019,-1129.5201"/>
<polygon fill="#191970" stroke="#191970" points="402.5327,-1142.9801 393.4357,-1148.411 403.9339,-1149.8384 402.5327,-1142.9801"/>
</g>
<!-- Node16 -->
<g id="node17" class="node">
<title>Node16</title>
<g id="a_node17"><a xlink:href="class_ogre_1_1_d3_d11_uav_buffer_packed.html" target="_top" xlink:title="Ogre::D3D11UavBufferPacked">
<polygon fill="none" stroke="#000000" points="456.5,-1072.5 456.5,-1091.5 608.5,-1091.5 608.5,-1072.5 456.5,-1072.5"/>
<text text-anchor="middle" x="532.5" y="-1079.5" font-family="Helvetica,sans-Serif" font-size="10.00" fill="#000000">Ogre::D3D11UavBufferPacked</text>
</a>
</g>
</g>
<!-- Node15&#45;&gt;Node16 -->
<g id="edge16" class="edge">
<title>Node15&#45;&gt;Node16</title>
<path fill="none" stroke="#191970" d="M417.2422,-1070.2263C430.0151,-1071.5311 443.3832,-1072.8967 456.3037,-1074.2165"/>
<polygon fill="#191970" stroke="#191970" points="417.4499,-1066.7294 407.146,-1069.195 416.7385,-1073.6932 417.4499,-1066.7294"/>
</g>
<!-- Node17 -->
<g id="node18" class="node">
<title>Node17</title>
<g id="a_node18"><a xlink:href="class_ogre_1_1_g_l3_plus_uav_buffer_packed.html" target="_top" xlink:title="Ogre::GL3PlusUavBufferPacked">
<polygon fill="none" stroke="#000000" points="453.5,-1034.5 453.5,-1053.5 611.5,-1053.5 611.5,-1034.5 453.5,-1034.5"/>
<text text-anchor="middle" x="532.5" y="-1041.5" font-family="Helvetica,sans-Serif" font-size="10.00" fill="#000000">Ogre::GL3PlusUavBufferPacked</text>
</a>
</g>
</g>
<!-- Node15&#45;&gt;Node17 -->
<g id="edge17" class="edge">
<title>Node15&#45;&gt;Node17</title>
<path fill="none" stroke="#191970" d="M417.3319,-1055.7645C429.0931,-1054.5631 441.3567,-1053.3103 453.309,-1052.0894"/>
<polygon fill="#191970" stroke="#191970" points="416.7385,-1052.3068 407.146,-1056.805 417.4499,-1059.2706 416.7385,-1052.3068"/>
</g>
<!-- Node18 -->
<g id="node19" class="node">
<title>Node18</title>
<g id="a_node19"><a xlink:href="class_ogre_1_1_metal_uav_buffer_packed.html" target="_top" xlink:title="Ogre::MetalUavBufferPacked">
<polygon fill="none" stroke="#000000" points="460,-996.5 460,-1015.5 605,-1015.5 605,-996.5 460,-996.5"/>
<text text-anchor="middle" x="532.5" y="-1003.5" font-family="Helvetica,sans-Serif" font-size="10.00" fill="#000000">Ogre::MetalUavBufferPacked</text>
</a>
</g>
</g>
<!-- Node15&#45;&gt;Node18 -->
<g id="edge18" class="edge">
<title>Node15&#45;&gt;Node18</title>
<path fill="none" stroke="#191970" d="M395.6332,-1050.4888C401.8831,-1048.5132 408.1387,-1046.3411 414,-1044 430.8011,-1037.2894 433.0426,-1031.3053 450,-1025 460.0567,-1021.2606 471.0864,-1018.1089 481.7163,-1015.5137"/>
<polygon fill="#191970" stroke="#191970" points="394.4404,-1047.1926 385.8743,-1053.4275 396.4588,-1053.8953 394.4404,-1047.1926"/>
</g>
<!-- Node19 -->
<g id="node20" class="node">
<title>Node19</title>
<g id="a_node20"><a xlink:href="class_ogre_1_1_n_u_l_l_uav_buffer_packed.html" target="_top" xlink:title="Ogre::NULLUavBufferPacked">
<polygon fill="none" stroke="#000000" points="459.5,-958.5 459.5,-977.5 605.5,-977.5 605.5,-958.5 459.5,-958.5"/>
<text text-anchor="middle" x="532.5" y="-965.5" font-family="Helvetica,sans-Serif" font-size="10.00" fill="#000000">Ogre::NULLUavBufferPacked</text>
</a>
</g>
</g>
<!-- Node15&#45;&gt;Node19 -->
<g id="edge19" class="edge">
<title>Node15&#45;&gt;Node19</title>
<path fill="none" stroke="#191970" d="M406.0162,-1049.0732C408.8135,-1047.5538 411.4949,-1045.8688 414,-1044 438.0165,-1026.0839 425.5603,-1004.3343 450,-987 455.3948,-983.1736 461.4422,-980.1054 467.746,-977.647"/>
<polygon fill="#191970" stroke="#191970" points="404.3492,-1045.9885 396.7624,-1053.3838 407.3051,-1052.3338 404.3492,-1045.9885"/>
</g>
<!-- Node22 -->
<g id="node23" class="node">
<title>Node22</title>
<g id="a_node23"><a xlink:href="class_ogre_1_1_multi_render_target.html" target="_top" xlink:title="This class represents a render target that renders to multiple RenderTextures at once. ">
<polygon fill="none" stroke="#000000" points="284.5,-813.5 284.5,-832.5 408.5,-832.5 408.5,-813.5 284.5,-813.5"/>
<text text-anchor="middle" x="346.5" y="-820.5" font-family="Helvetica,sans-Serif" font-size="10.00" fill="#000000">Ogre::MultiRenderTarget</text>
</a>
</g>
</g>
<!-- Node21&#45;&gt;Node22 -->
<g id="edge22" class="edge">
<title>Node21&#45;&gt;Node22</title>
<path fill="none" stroke="#191970" d="M209.6737,-695.8839C242.4155,-726.3021 310.3073,-789.3758 336.1799,-813.4123"/>
<polygon fill="#191970" stroke="#191970" points="211.8623,-693.1399 202.1538,-688.8977 207.0978,-698.2683 211.8623,-693.1399"/>
</g>
<!-- Node28 -->
<g id="node29" class="node">
<title>Node28</title>
<g id="a_node29"><a xlink:href="class_ogre_1_1_render_texture.html" target="_top" xlink:title="This class represents a RenderTarget that renders to a Texture. ">
<polygon fill="none" stroke="#000000" points="292.5,-500.5 292.5,-519.5 400.5,-519.5 400.5,-500.5 292.5,-500.5"/>
<text text-anchor="middle" x="346.5" y="-507.5" font-family="Helvetica,sans-Serif" font-size="10.00" fill="#000000">Ogre::RenderTexture</text>
</a>
</g>
</g>
<!-- Node21&#45;&gt;Node28 -->
<g id="edge28" class="edge">
<title>Node21&#45;&gt;Node28</title>
<path fill="none" stroke="#191970" d="M207.1924,-661.8903C239.3686,-626.8078 311.9339,-547.6882 337.4326,-519.8864"/>
<polygon fill="#191970" stroke="#191970" points="204.4574,-659.6941 200.2776,-669.4296 209.6162,-664.4256 204.4574,-659.6941"/>
</g>
<!-- Node43 -->
<g id="node42" class="node">
<title>Node43</title>
<g id="a_node42"><a xlink:href="class_ogre_1_1_render_window.html" target="_top" xlink:title="Manages the target rendering window. ">
<polygon fill="none" stroke="#ff0000" points="291.5,-133.5 291.5,-152.5 401.5,-152.5 401.5,-133.5 291.5,-133.5"/>
<text text-anchor="middle" x="346.5" y="-140.5" font-family="Helvetica,sans-Serif" font-size="10.00" fill="#000000">Ogre::RenderWindow</text>
</a>
</g>
</g>
<!-- Node21&#45;&gt;Node43 -->
<g id="edge41" class="edge">
<title>Node21&#45;&gt;Node43</title>
<path fill="none" stroke="#191970" d="M197.1372,-659.5061C222.4952,-571.8166 325.5472,-215.4562 343.747,-152.52"/>
<polygon fill="#191970" stroke="#191970" points="193.7384,-658.6604 194.3226,-669.2392 200.4629,-660.6051 193.7384,-658.6604"/>
</g>
<!-- Node23 -->
<g id="node24" class="node">
<title>Node23</title>
<g id="a_node24"><a xlink:href="class_ogre_1_1_d3_d11_multi_render_target.html" target="_top" xlink:title="Ogre::D3D11MultiRenderTarget">
<polygon fill="none" stroke="#000000" points="455,-920.5 455,-939.5 610,-939.5 610,-920.5 455,-920.5"/>
<text text-anchor="middle" x="532.5" y="-927.5" font-family="Helvetica,sans-Serif" font-size="10.00" fill="#000000">Ogre::D3D11MultiRenderTarget</text>
</a>
</g>
</g>
<!-- Node22&#45;&gt;Node23 -->
<g id="edge23" class="edge">
<title>Node22&#45;&gt;Node23</title>
<path fill="none" stroke="#191970" d="M361.6857,-840.1593C380.4337,-860.2453 414.2487,-893.0417 450,-911 457.7491,-914.8924 466.3083,-917.9999 474.8928,-920.4775"/>
<polygon fill="#191970" stroke="#191970" points="364.1575,-837.6758 354.829,-832.653 358.9892,-842.3969 364.1575,-837.6758"/>
</g>
<!-- Node24 -->
<g id="node25" class="node">
<title>Node24</title>
<g id="a_node25"><a xlink:href="class_ogre_1_1_d3_d9_multi_render_target.html" target="_top" xlink:title="Ogre::D3D9MultiRenderTarget">
<polygon fill="none" stroke="#000000" points="458,-882.5 458,-901.5 607,-901.5 607,-882.5 458,-882.5"/>
<text text-anchor="middle" x="532.5" y="-889.5" font-family="Helvetica,sans-Serif" font-size="10.00" fill="#000000">Ogre::D3D9MultiRenderTarget</text>
</a>
</g>
</g>
<!-- Node22&#45;&gt;Node24 -->
<g id="edge24" class="edge">
<title>Node22&#45;&gt;Node24</title>
<path fill="none" stroke="#191970" d="M372.2267,-837.431C392.7592,-848.4515 422.5349,-863.3404 450,-873 460.399,-876.6574 471.7858,-879.8025 482.6892,-882.4217"/>
<polygon fill="#191970" stroke="#191970" points="373.669,-834.2311 363.2129,-832.5222 370.3211,-840.3786 373.669,-834.2311"/>
</g>
<!-- Node25 -->
<g id="node26" class="node">
<title>Node25</title>
<g id="a_node26"><a xlink:href="class_ogre_1_1_g_l3_plus_f_b_o_multi_render_target.html" target="_top" xlink:title="MultiRenderTarget for OpenGL. ">
<polygon fill="none" stroke="#000000" points="455.5,-833 455.5,-863 609.5,-863 609.5,-833 455.5,-833"/>
<text text-anchor="start" x="463.5" y="-851" font-family="Helvetica,sans-Serif" font-size="10.00" fill="#000000">Ogre::GL3PlusFBOMultiRender</text>
<text text-anchor="middle" x="532.5" y="-840" font-family="Helvetica,sans-Serif" font-size="10.00" fill="#000000">Target</text>
</a>
</g>
</g>
<!-- Node22&#45;&gt;Node25 -->
<g id="edge25" class="edge">
<title>Node22&#45;&gt;Node25</title>
<path fill="none" stroke="#191970" d="M418.6892,-832.7028C430.7488,-834.3238 443.3005,-836.0108 455.4757,-837.6473"/>
<polygon fill="#191970" stroke="#191970" points="419.071,-829.2228 408.6939,-831.3594 418.1385,-836.1604 419.071,-829.2228"/>
</g>
<!-- Node26 -->
<g id="node27" class="node">
<title>Node26</title>
<g id="a_node27"><a xlink:href="class_ogre_1_1_g_l_e_s2_f_b_o_multi_render_target.html" target="_top" xlink:title="MultiRenderTarget for GL ES 2.x. ">
<polygon fill="none" stroke="#000000" points="458.5,-784 458.5,-814 606.5,-814 606.5,-784 458.5,-784"/>
<text text-anchor="start" x="466.5" y="-802" font-family="Helvetica,sans-Serif" font-size="10.00" fill="#000000">Ogre::GLES2FBOMultiRender</text>
<text text-anchor="middle" x="532.5" y="-791" font-family="Helvetica,sans-Serif" font-size="10.00" fill="#000000">Target</text>
</a>
</g>
</g>
<!-- Node22&#45;&gt;Node26 -->
<g id="edge26" class="edge">
<title>Node22&#45;&gt;Node26</title>
<path fill="none" stroke="#191970" d="M418.9466,-813.6521C431.9063,-811.9798 445.4265,-810.2353 458.431,-808.5573"/>
<polygon fill="#191970" stroke="#191970" points="418.1638,-810.224 408.6939,-814.975 419.0596,-817.1664 418.1638,-810.224"/>
</g>
<!-- Node27 -->
<g id="node28" class="node">
<title>Node27</title>
<g id="a_node28"><a xlink:href="class_ogre_1_1_metal_multi_render_target.html" target="_top" xlink:title="Ogre::MetalMultiRenderTarget">
<polygon fill="none" stroke="#000000" points="458.5,-745.5 458.5,-764.5 606.5,-764.5 606.5,-745.5 458.5,-745.5"/>
<text text-anchor="middle" x="532.5" y="-752.5" font-family="Helvetica,sans-Serif" font-size="10.00" fill="#000000">Ogre::MetalMultiRenderTarget</text>
</a>
</g>
</g>
<!-- Node22&#45;&gt;Node27 -->
<g id="edge27" class="edge">
<title>Node22&#45;&gt;Node27</title>
<path fill="none" stroke="#191970" d="M373.4339,-808.7255C393.9746,-798.2819 423.2031,-784.3598 450,-775 461.5482,-770.9664 474.2803,-767.4459 486.2147,-764.5299"/>
<polygon fill="#191970" stroke="#191970" points="371.6593,-805.7025 364.3726,-813.3937 374.8651,-811.9252 371.6593,-805.7025"/>
</g>
<!-- Node29 -->
<g id="node30" class="node">
<title>Node29</title>
<g id="a_node30"><a xlink:href="class_ogre_1_1_d3_d11_depth_texture_target.html" target="_top" xlink:title="Ogre::D3D11DepthTextureTarget">
<polygon fill="none" stroke="#000000" points="452,-707.5 452,-726.5 613,-726.5 613,-707.5 452,-707.5"/>
<text text-anchor="middle" x="532.5" y="-714.5" font-family="Helvetica,sans-Serif" font-size="10.00" fill="#000000">Ogre::D3D11DepthTextureTarget</text>
</a>
</g>
</g>
<!-- Node28&#45;&gt;Node29 -->
<g id="edge29" class="edge">
<title>Node28&#45;&gt;Node29</title>
<path fill="none" stroke="#191970" d="M351.4924,-529.6111C362.3895,-568.2499 392.0953,-654.2586 450,-698 455.0429,-701.8095 460.7194,-704.8752 466.6742,-707.3397"/>
<polygon fill="#191970" stroke="#191970" points="354.7869,-528.3851 348.8061,-519.6397 348.0279,-530.2059 354.7869,-528.3851"/>
</g>
<!-- Node30 -->
<g id="node31" class="node">
<title>Node30</title>
<g id="a_node31"><a xlink:href="class_ogre_1_1_d3_d11_null_texture_target.html" target="_top" xlink:title="Ogre::D3D11NullTextureTarget">
<polygon fill="none" stroke="#000000" points="456.5,-669.5 456.5,-688.5 608.5,-688.5 608.5,-669.5 456.5,-669.5"/>
<text text-anchor="middle" x="532.5" y="-676.5" font-family="Helvetica,sans-Serif" font-size="10.00" fill="#000000">Ogre::D3D11NullTextureTarget</text>
</a>
</g>
</g>
<!-- Node28&#45;&gt;Node30 -->
<g id="edge30" class="edge">
<title>Node28&#45;&gt;Node30</title>
<path fill="none" stroke="#191970" d="M354.1631,-529.1713C368.1196,-561.5078 400.8524,-626.6221 450,-660 455.7147,-663.881 462.1118,-666.9775 468.7482,-669.4465"/>
<polygon fill="#191970" stroke="#191970" points="357.2324,-527.4376 350.1533,-519.5548 350.7715,-530.1316 357.2324,-527.4376"/>
</g>
<!-- Node31 -->
<g id="node32" class="node">
<title>Node31</title>
<g id="a_node32"><a xlink:href="class_ogre_1_1_d3_d11_render_texture.html" target="_top" xlink:title="RenderTexture implementation for D3D11. ">
<polygon fill="none" stroke="#000000" points="463,-631.5 463,-650.5 602,-650.5 602,-631.5 463,-631.5"/>
<text text-anchor="middle" x="532.5" y="-638.5" font-family="Helvetica,sans-Serif" font-size="10.00" fill="#000000">Ogre::D3D11RenderTexture</text>
</a>
</g>
</g>
<!-- Node28&#45;&gt;Node31 -->
<g id="edge31" class="edge">
<title>Node28&#45;&gt;Node31</title>
<path fill="none" stroke="#191970" d="M358.0506,-528.1737C375.0318,-553.3278 409.1812,-598.3249 450,-622 456.7385,-625.9083 464.2229,-629.0128 471.8556,-631.4786"/>
<polygon fill="#191970" stroke="#191970" points="360.8244,-526.0217 352.4048,-519.5905 354.9762,-529.8686 360.8244,-526.0217"/>
</g>
<!-- Node32 -->
<g id="node33" class="node">
<title>Node32</title>
<g id="a_node33"><a xlink:href="class_ogre_1_1_d3_d9_render_texture.html" target="_top" xlink:title="RenderTexture implementation for D3D9. ">
<polygon fill="none" stroke="#000000" points="465.5,-593.5 465.5,-612.5 599.5,-612.5 599.5,-593.5 465.5,-593.5"/>
<text text-anchor="middle" x="532.5" y="-600.5" font-family="Helvetica,sans-Serif" font-size="10.00" fill="#000000">Ogre::D3D9RenderTexture</text>
</a>
</g>
</g>
<!-- Node28&#45;&gt;Node32 -->
<g id="edge32" class="edge">
<title>Node28&#45;&gt;Node32</title>
<path fill="none" stroke="#191970" d="M364.3325,-526.1498C383.9384,-543.0491 417.0503,-569.1458 450,-584 458.5755,-587.866 468.0195,-590.9864 477.3618,-593.4925"/>
<polygon fill="#191970" stroke="#191970" points="366.6196,-523.5002 356.7967,-519.5299 361.9997,-528.7592 366.6196,-523.5002"/>
</g>
<!-- Node33 -->
<g id="node34" class="node">
<title>Node33</title>
<g id="a_node34"><a xlink:href="class_ogre_1_1_g_l3_plus_depth_texture_target.html" target="_top" xlink:title="Ogre::GL3PlusDepthTexture\lTarget">
<polygon fill="none" stroke="#000000" points="462.5,-544 462.5,-574 602.5,-574 602.5,-544 462.5,-544"/>
<text text-anchor="start" x="470.5" y="-562" font-family="Helvetica,sans-Serif" font-size="10.00" fill="#000000">Ogre::GL3PlusDepthTexture</text>
<text text-anchor="middle" x="532.5" y="-551" font-family="Helvetica,sans-Serif" font-size="10.00" fill="#000000">Target</text>
</a>
</g>
</g>
<!-- Node28&#45;&gt;Node33 -->
<g id="edge33" class="edge">
<title>Node28&#45;&gt;Node33</title>
<path fill="none" stroke="#191970" d="M392.7706,-522.1896C417.7906,-528.7808 448.907,-536.9782 475.4209,-543.963"/>
<polygon fill="#191970" stroke="#191970" points="393.3659,-518.7271 382.8042,-519.564 391.5826,-525.4961 393.3659,-518.7271"/>
</g>
<!-- Node34 -->
<g id="node35" class="node">
<title>Node34</title>
<g id="a_node35"><a xlink:href="class_ogre_1_1_g_l3_plus_null_texture_target.html" target="_top" xlink:title="Ogre::GL3PlusNullTexture\lTarget">
<polygon fill="none" stroke="#000000" points="467,-495 467,-525 598,-525 598,-495 467,-495"/>
<text text-anchor="start" x="475" y="-513" font-family="Helvetica,sans-Serif" font-size="10.00" fill="#000000">Ogre::GL3PlusNullTexture</text>
<text text-anchor="middle" x="532.5" y="-502" font-family="Helvetica,sans-Serif" font-size="10.00" fill="#000000">Target</text>
</a>
</g>
</g>
<!-- Node28&#45;&gt;Node34 -->
<g id="edge34" class="edge">
<title>Node28&#45;&gt;Node34</title>
<path fill="none" stroke="#191970" d="M410.715,-510C428.8318,-510 448.5653,-510 466.7695,-510"/>
<polygon fill="#191970" stroke="#191970" points="410.5488,-506.5001 400.5488,-510 410.5487,-513.5001 410.5488,-506.5001"/>
</g>
<!-- Node35 -->
<g id="node36" class="node">
<title>Node35</title>
<g id="a_node36"><a xlink:href="class_ogre_1_1_g_l3_plus_render_texture.html" target="_top" xlink:title="Base class for GL Render Textures. ">
<polygon fill="none" stroke="#ff0000" points="459.5,-456.5 459.5,-475.5 605.5,-475.5 605.5,-456.5 459.5,-456.5"/>
<text text-anchor="middle" x="532.5" y="-463.5" font-family="Helvetica,sans-Serif" font-size="10.00" fill="#000000">Ogre::GL3PlusRenderTexture</text>
</a>
</g>
</g>
<!-- Node28&#45;&gt;Node35 -->
<g id="edge35" class="edge">
<title>Node28&#45;&gt;Node35</title>
<path fill="none" stroke="#191970" d="M396.705,-498.1236C426.6669,-491.0358 464.2075,-482.1552 492.2195,-475.5287"/>
<polygon fill="#191970" stroke="#191970" points="395.7849,-494.7445 386.8592,-500.4527 397.3964,-501.5565 395.7849,-494.7445"/>
</g>
<!-- Node37 -->
<g id="node37" class="node">
<title>Node37</title>
<g id="a_node37"><a xlink:href="class_ogre_1_1_g_l_e_s2_render_texture.html" target="_top" xlink:title="Base class for GL Render Textures. ">
<polygon fill="none" stroke="#ff0000" points="462.5,-418.5 462.5,-437.5 602.5,-437.5 602.5,-418.5 462.5,-418.5"/>
<text text-anchor="middle" x="532.5" y="-425.5" font-family="Helvetica,sans-Serif" font-size="10.00" fill="#000000">Ogre::GLES2RenderTexture</text>
</a>
</g>
</g>
<!-- Node28&#45;&gt;Node37 -->
<g id="edge36" class="edge">
<title>Node28&#45;&gt;Node37</title>
<path fill="none" stroke="#191970" d="M367.3184,-494.5528C387.4963,-480.2716 419.4505,-459.4353 450,-447 459.257,-443.2319 469.4172,-440.125 479.3475,-437.594"/>
<polygon fill="#191970" stroke="#191970" points="365.2478,-491.7308 359.177,-500.4138 369.3376,-497.4118 365.2478,-491.7308"/>
</g>
<!-- Node39 -->
<g id="node38" class="node">
<title>Node39</title>
<g id="a_node38"><a xlink:href="class_ogre_1_1_metal_depth_texture_target.html" target="_top" xlink:title="Ogre::MetalDepthTextureTarget">
<polygon fill="none" stroke="#000000" points="455,-380.5 455,-399.5 610,-399.5 610,-380.5 455,-380.5"/>
<text text-anchor="middle" x="532.5" y="-387.5" font-family="Helvetica,sans-Serif" font-size="10.00" fill="#000000">Ogre::MetalDepthTextureTarget</text>
</a>
</g>
</g>
<!-- Node28&#45;&gt;Node39 -->
<g id="edge37" class="edge">
<title>Node28&#45;&gt;Node39</title>
<path fill="none" stroke="#191970" d="M359.5081,-492.3084C377.3107,-469.4298 411.4818,-430.0308 450,-409 457.0951,-405.1261 464.9496,-402.0397 472.9096,-399.5814"/>
<polygon fill="#191970" stroke="#191970" points="356.5743,-490.3844 353.312,-500.4645 362.1483,-494.619 356.5743,-490.3844"/>
</g>
<!-- Node40 -->
<g id="node39" class="node">
<title>Node40</title>
<g id="a_node39"><a xlink:href="class_ogre_1_1_metal_null_texture_target.html" target="_top" xlink:title="Ogre::MetalNullTextureTarget">
<polygon fill="none" stroke="#000000" points="459.5,-342.5 459.5,-361.5 605.5,-361.5 605.5,-342.5 459.5,-342.5"/>
<text text-anchor="middle" x="532.5" y="-349.5" font-family="Helvetica,sans-Serif" font-size="10.00" fill="#000000">Ogre::MetalNullTextureTarget</text>
</a>
</g>
</g>
<!-- Node28&#45;&gt;Node40 -->
<g id="edge38" class="edge">
<title>Node28&#45;&gt;Node40</title>
<path fill="none" stroke="#191970" d="M354.9795,-491.3577C369.7481,-461.097 403.1517,-401.597 450,-371 455.9068,-367.1422 462.4989,-364.0632 469.3117,-361.6064"/>
<polygon fill="#191970" stroke="#191970" points="351.8072,-489.879 350.6929,-500.4151 358.1343,-492.8735 351.8072,-489.879"/>
</g>
<!-- Node41 -->
<g id="node40" class="node">
<title>Node41</title>
<g id="a_node40"><a xlink:href="class_ogre_1_1_metal_render_texture.html" target="_top" xlink:title="Ogre::MetalRenderTexture">
<polygon fill="none" stroke="#000000" points="466.5,-304.5 466.5,-323.5 598.5,-323.5 598.5,-304.5 466.5,-304.5"/>
<text text-anchor="middle" x="532.5" y="-311.5" font-family="Helvetica,sans-Serif" font-size="10.00" fill="#000000">Ogre::MetalRenderTexture</text>
</a>
</g>
</g>
<!-- Node28&#45;&gt;Node41 -->
<g id="edge39" class="edge">
<title>Node28&#45;&gt;Node41</title>
<path fill="none" stroke="#191970" d="M352.1572,-490.5297C363.9204,-453.6593 394.6404,-373.7047 450,-333 455.2102,-329.169 461.0666,-326.0937 467.193,-323.6274"/>
<polygon fill="#191970" stroke="#191970" points="348.6864,-489.9115 349.1089,-500.4979 355.3804,-491.9586 348.6864,-489.9115"/>
</g>
<!-- Node42 -->
<g id="node41" class="node">
<title>Node42</title>
<g id="a_node41"><a xlink:href="class_ogre_1_1_n_u_l_l_render_texture.html" target="_top" xlink:title="Ogre::NULLRenderTexture">
<polygon fill="none" stroke="#000000" points="465.5,-266.5 465.5,-285.5 599.5,-285.5 599.5,-266.5 465.5,-266.5"/>
<text text-anchor="middle" x="532.5" y="-273.5" font-family="Helvetica,sans-Serif" font-size="10.00" fill="#000000">Ogre::NULLRenderTexture</text>
</a>
</g>
</g>
<!-- Node28&#45;&gt;Node42 -->
<g id="edge40" class="edge">
<title>Node28&#45;&gt;Node42</title>
<path fill="none" stroke="#191970" d="M350.0043,-490.5524C358.7275,-448.0386 385.5368,-346.5187 450,-295 454.8223,-291.1461 460.2828,-288.0453 466.0425,-285.5543"/>
<polygon fill="#191970" stroke="#191970" points="346.5511,-489.9752 348.085,-500.4584 353.4233,-491.3067 346.5511,-489.9752"/>
</g>
<!-- Node44 -->
<g id="node43" class="node">
<title>Node44</title>
<g id="a_node43"><a xlink:href="class_ogre_1_1_cocoa_window.html" target="_top" xlink:title="Ogre::CocoaWindow">
<polygon fill="none" stroke="#000000" points="479,-228.5 479,-247.5 586,-247.5 586,-228.5 479,-228.5"/>
<text text-anchor="middle" x="532.5" y="-235.5" font-family="Helvetica,sans-Serif" font-size="10.00" fill="#000000">Ogre::CocoaWindow</text>
</a>
</g>
</g>
<!-- Node43&#45;&gt;Node44 -->
<g id="edge42" class="edge">
<title>Node43&#45;&gt;Node44</title>
<path fill="none" stroke="#191970" d="M363.9389,-159.3295C383.4346,-176.6942 416.6647,-203.7171 450,-219 458.9516,-223.104 468.8686,-226.3612 478.6325,-228.9338"/>
<polygon fill="#191970" stroke="#191970" points="366.2201,-156.6732 356.4642,-152.5411 361.5139,-161.8552 366.2201,-156.6732"/>
</g>
<!-- Node45 -->
<g id="node44" class="node">
<title>Node45</title>
<g id="a_node44"><a xlink:href="class_ogre_1_1_d3_d11_render_window_base.html" target="_top" xlink:title="Ogre::D3D11RenderWindowBase">
<polygon fill="none" stroke="#ff0000" points="450.5,-190.5 450.5,-209.5 614.5,-209.5 614.5,-190.5 450.5,-190.5"/>
<text text-anchor="middle" x="532.5" y="-197.5" font-family="Helvetica,sans-Serif" font-size="10.00" fill="#000000">Ogre::D3D11RenderWindowBase</text>
</a>
</g>
</g>
<!-- Node43&#45;&gt;Node45 -->
<g id="edge43" class="edge">
<title>Node43&#45;&gt;Node45</title>
<path fill="none" stroke="#191970" d="M379.4135,-156.2862C399.5784,-164.1239 426.0341,-173.8714 450,-181 461.6929,-184.478 474.4759,-187.698 486.413,-190.4617"/>
<polygon fill="#191970" stroke="#191970" points="380.6456,-153.0099 370.0582,-152.6118 378.0865,-159.5254 380.6456,-153.0099"/>
</g>
<!-- Node47 -->
<g id="node45" class="node">
<title>Node47</title>
<g id="a_node45"><a xlink:href="class_ogre_1_1_d3_d9_render_window.html" target="_top" xlink:title="Ogre::D3D9RenderWindow">
<polygon fill="none" stroke="#000000" points="464.5,-152.5 464.5,-171.5 600.5,-171.5 600.5,-152.5 464.5,-152.5"/>
<text text-anchor="middle" x="532.5" y="-159.5" font-family="Helvetica,sans-Serif" font-size="10.00" fill="#000000">Ogre::D3D9RenderWindow</text>
</a>
</g>
</g>
<!-- Node43&#45;&gt;Node47 -->
<g id="edge44" class="edge">
<title>Node43&#45;&gt;Node47</title>
<path fill="none" stroke="#191970" d="M411.9348,-149.6842C428.9285,-151.4201 447.2722,-153.2939 464.3996,-155.0435"/>
<polygon fill="#191970" stroke="#191970" points="411.8551,-146.1579 401.5512,-148.6235 411.1437,-153.1217 411.8551,-146.1579"/>
</g>
<!-- Node48 -->
<g id="node46" class="node">
<title>Node48</title>
<g id="a_node46"><a xlink:href="class_ogre_1_1_e_g_l_window.html" target="_top" xlink:title="Ogre::EGLWindow">
<polygon fill="none" stroke="#ff0000" points="483.5,-114.5 483.5,-133.5 581.5,-133.5 581.5,-114.5 483.5,-114.5"/>
<text text-anchor="middle" x="532.5" y="-121.5" font-family="Helvetica,sans-Serif" font-size="10.00" fill="#000000">Ogre::EGLWindow</text>
</a>
</g>
</g>
<!-- Node43&#45;&gt;Node48 -->
<g id="edge45" class="edge">
<title>Node43&#45;&gt;Node48</title>
<path fill="none" stroke="#191970" d="M411.7911,-136.3305C435.2907,-133.93 461.3878,-131.2641 483.2875,-129.0271"/>
<polygon fill="#191970" stroke="#191970" points="411.1437,-132.8783 401.5512,-137.3765 411.8551,-139.8421 411.1437,-132.8783"/>
</g>
<!-- Node53 -->
<g id="node47" class="node">
<title>Node53</title>
<g id="a_node47"><a xlink:href="class_ogre_1_1_g_l_x_window.html" target="_top" xlink:title="Ogre::GLXWindow">
<polygon fill="none" stroke="#000000" points="483.5,-76.5 483.5,-95.5 581.5,-95.5 581.5,-76.5 483.5,-76.5"/>
<text text-anchor="middle" x="532.5" y="-83.5" font-family="Helvetica,sans-Serif" font-size="10.00" fill="#000000">Ogre::GLXWindow</text>
</a>
</g>
</g>
<!-- Node43&#45;&gt;Node53 -->
<g id="edge46" class="edge">
<title>Node43&#45;&gt;Node53</title>
<path fill="none" stroke="#191970" d="M379.4135,-129.7138C399.5784,-121.8761 426.0341,-112.1286 450,-105 461.6929,-101.522 474.4759,-98.302 486.413,-95.5383"/>
<polygon fill="#191970" stroke="#191970" points="378.0865,-126.4746 370.0582,-133.3882 380.6456,-132.9901 378.0865,-126.4746"/>
</g>
<!-- Node54 -->
<g id="node48" class="node">
<title>Node54</title>
<g id="a_node48"><a xlink:href="class_ogre_1_1_g_t_k_window.html" target="_top" xlink:title="Ogre::GTKWindow">
<polygon fill="none" stroke="#000000" points="483,-38.5 483,-57.5 582,-57.5 582,-38.5 483,-38.5"/>
<text text-anchor="middle" x="532.5" y="-45.5" font-family="Helvetica,sans-Serif" font-size="10.00" fill="#000000">Ogre::GTKWindow</text>
</a>
</g>
</g>
<!-- Node43&#45;&gt;Node54 -->
<g id="edge47" class="edge">
<title>Node43&#45;&gt;Node54</title>
<path fill="none" stroke="#191970" d="M363.9389,-126.6705C383.4346,-109.3058 416.6647,-82.2829 450,-67 460.2877,-62.2835 471.8504,-58.6854 482.9905,-55.9595"/>
<polygon fill="#191970" stroke="#191970" points="361.5139,-124.1448 356.4642,-133.4589 366.2201,-129.3268 361.5139,-124.1448"/>
</g>
<!-- Node55 -->
<g id="node49" class="node">
<title>Node55</title>
<g id="a_node49"><a xlink:href="class_ogre_1_1_metal_render_window.html" target="_top" xlink:title="Ogre::MetalRenderWindow">
<polygon fill="none" stroke="#000000" points="465.5,-.5 465.5,-19.5 599.5,-19.5 599.5,-.5 465.5,-.5"/>
<text text-anchor="middle" x="532.5" y="-7.5" font-family="Helvetica,sans-Serif" font-size="10.00" fill="#000000">Ogre::MetalRenderWindow</text>
</a>
</g>
</g>
<!-- Node43&#45;&gt;Node55 -->
<g id="edge48" class="edge">
<title>Node43&#45;&gt;Node55</title>
<path fill="none" stroke="#191970" d="M357.9706,-124.4984C374.8563,-98.891 408.8922,-53.0855 450,-29 456.5943,-25.1363 463.9137,-22.0583 471.3914,-19.6062"/>
<polygon fill="#191970" stroke="#191970" points="354.8179,-122.9306 352.3597,-133.2363 360.7081,-126.7129 354.8179,-122.9306"/>
</g>
</g>
</svg>
