<?xml version="1.0" encoding="UTF-8" standalone="no"?>
<!DOCTYPE svg PUBLIC "-//W3C//DTD SVG 1.1//EN"
 "http://www.w3.org/Graphics/SVG/1.1/DTD/svg11.dtd">
<!-- Generated by graphviz version 2.38.0 (20140413.2041)
 -->
<!-- Title: Ogre::v1::CbDrawCall Pages: 1 -->
<svg width="308pt" height="140pt"
 viewBox="0.00 0.00 308.00 140.00" xmlns="http://www.w3.org/2000/svg" xmlns:xlink="http://www.w3.org/1999/xlink">
<g id="graph0" class="graph" transform="scale(1 1) rotate(0) translate(4 136)">
<title>Ogre::v1::CbDrawCall</title>
<!-- Node1 -->
<g id="node1" class="node"><title>Node1</title>
<polygon fill="#bfbfbf" stroke="black" points="96.5,-56.5 96.5,-75.5 209.5,-75.5 209.5,-56.5 96.5,-56.5"/>
<text text-anchor="middle" x="153" y="-63.5" font-family="Helvetica,sans-Serif" font-size="10.00">Ogre::v1::CbDrawCall</text>
</g>
<!-- Node3 -->
<g id="node3" class="node"><title>Node3</title>
<g id="a_node3"><a xlink:href="struct_ogre_1_1v1_1_1_cb_draw_call_indexed.html" target="_top" xlink:title="Ogre::v1::CbDrawCallIndexed">
<polygon fill="none" stroke="black" points="0,-0.5 0,-19.5 148,-19.5 148,-0.5 0,-0.5"/>
<text text-anchor="middle" x="74" y="-7.5" font-family="Helvetica,sans-Serif" font-size="10.00">Ogre::v1::CbDrawCallIndexed</text>
</a>
</g>
</g>
<!-- Node1&#45;&gt;Node3 -->
<g id="edge2" class="edge"><title>Node1&#45;&gt;Node3</title>
<path fill="none" stroke="midnightblue" d="M131.966,-50.6221C117.534,-40.7574 98.8585,-27.9919 86.6612,-19.6545"/>
<polygon fill="midnightblue" stroke="midnightblue" points="130.077,-53.5703 140.307,-56.324 134.027,-47.7914 130.077,-53.5703"/>
</g>
<!-- Node4 -->
<g id="node4" class="node"><title>Node4</title>
<g id="a_node4"><a xlink:href="struct_ogre_1_1v1_1_1_cb_draw_call_strip.html" target="_top" xlink:title="Ogre::v1::CbDrawCallStrip">
<polygon fill="none" stroke="black" points="166,-0.5 166,-19.5 300,-19.5 300,-0.5 166,-0.5"/>
<text text-anchor="middle" x="233" y="-7.5" font-family="Helvetica,sans-Serif" font-size="10.00">Ogre::v1::CbDrawCallStrip</text>
</a>
</g>
</g>
<!-- Node1&#45;&gt;Node4 -->
<g id="edge3" class="edge"><title>Node1&#45;&gt;Node4</title>
<path fill="none" stroke="midnightblue" d="M174.301,-50.6221C188.915,-40.7574 207.827,-27.9919 220.179,-19.6545"/>
<polygon fill="midnightblue" stroke="midnightblue" points="172.184,-47.8282 165.853,-56.324 176.1,-53.6302 172.184,-47.8282"/>
</g>
<!-- Node2 -->
<g id="node2" class="node"><title>Node2</title>
<g id="a_node2"><a xlink:href="struct_ogre_1_1_cb_base.html" target="_top" xlink:title="Ogre::CbBase">
<polygon fill="none" stroke="black" points="113.5,-112.5 113.5,-131.5 192.5,-131.5 192.5,-112.5 113.5,-112.5"/>
<text text-anchor="middle" x="153" y="-119.5" font-family="Helvetica,sans-Serif" font-size="10.00">Ogre::CbBase</text>
</a>
</g>
</g>
<!-- Node2&#45;&gt;Node1 -->
<g id="edge1" class="edge"><title>Node2&#45;&gt;Node1</title>
<path fill="none" stroke="midnightblue" d="M153,-101.805C153,-92.9102 153,-82.7798 153,-75.7511"/>
<polygon fill="midnightblue" stroke="midnightblue" points="149.5,-102.083 153,-112.083 156.5,-102.083 149.5,-102.083"/>
</g>
</g>
</svg>
