<?xml version="1.0" encoding="UTF-8" standalone="no"?>
<!DOCTYPE svg PUBLIC "-//W3C//DTD SVG 1.1//EN"
 "http://www.w3.org/Graphics/SVG/1.1/DTD/svg11.dtd">
<!-- Generated by graphviz version 2.40.1 (20161225.0304)
 -->
<!-- Title: Ogre::BasicBlock Pages: 1 -->
<svg width="403pt" height="84pt"
 viewBox="0.00 0.00 402.50 84.00" xmlns="http://www.w3.org/2000/svg" xmlns:xlink="http://www.w3.org/1999/xlink">
<g id="graph0" class="graph" transform="scale(1 1) rotate(0) translate(4 80)">
<title>Ogre::BasicBlock</title>
<!-- Node0 -->
<g id="node1" class="node">
<title>Node0</title>
<polygon fill="#bfbfbf" stroke="#000000" points="145,-56.5 145,-75.5 238,-75.5 238,-56.5 145,-56.5"/>
<text text-anchor="middle" x="191.5" y="-63.5" font-family="Helvetica,sans-Serif" font-size="10.00" fill="#000000">Ogre::BasicBlock</text>
</g>
<!-- Node1 -->
<g id="node2" class="node">
<title>Node1</title>
<g id="a_node2"><a xlink:href="struct_ogre_1_1_hlms_blendblock.html" target="_top" xlink:title="A blend block contains settings that rarely change, and thus are common to many materials. ">
<polygon fill="none" stroke="#000000" points="0,-.5 0,-19.5 115,-19.5 115,-.5 0,-.5"/>
<text text-anchor="middle" x="57.5" y="-7.5" font-family="Helvetica,sans-Serif" font-size="10.00" fill="#000000">Ogre::HlmsBlendblock</text>
</a>
</g>
</g>
<!-- Node0&#45;&gt;Node1 -->
<g id="edge1" class="edge">
<title>Node0&#45;&gt;Node1</title>
<path fill="none" stroke="#191970" d="M158.9172,-52.3833C134.5464,-42.1985 101.8358,-28.5284 80.2348,-19.5011"/>
<polygon fill="#191970" stroke="#191970" points="157.8883,-55.7466 168.4646,-56.3733 160.5875,-49.2879 157.8883,-55.7466"/>
</g>
<!-- Node2 -->
<g id="node3" class="node">
<title>Node2</title>
<g id="a_node3"><a xlink:href="struct_ogre_1_1_hlms_macroblock.html" target="_top" xlink:title="A macro block contains settings that will rarely change, and thus are common to many materials...">
<polygon fill="none" stroke="#000000" points="133,-.5 133,-19.5 250,-19.5 250,-.5 133,-.5"/>
<text text-anchor="middle" x="191.5" y="-7.5" font-family="Helvetica,sans-Serif" font-size="10.00" fill="#000000">Ogre::HlmsMacroblock</text>
</a>
</g>
</g>
<!-- Node0&#45;&gt;Node2 -->
<g id="edge2" class="edge">
<title>Node0&#45;&gt;Node2</title>
<path fill="none" stroke="#191970" d="M191.5,-46.1575C191.5,-37.155 191.5,-26.9199 191.5,-19.6427"/>
<polygon fill="#191970" stroke="#191970" points="188.0001,-46.2455 191.5,-56.2455 195.0001,-46.2456 188.0001,-46.2455"/>
</g>
<!-- Node3 -->
<g id="node4" class="node">
<title>Node3</title>
<g id="a_node4"><a xlink:href="struct_ogre_1_1_hlms_samplerblock.html" target="_top" xlink:title="A sampler block contains settings that go hand in hand with a texture, and thus are common to many te...">
<polygon fill="none" stroke="#000000" points="268.5,-.5 268.5,-19.5 394.5,-19.5 394.5,-.5 268.5,-.5"/>
<text text-anchor="middle" x="331.5" y="-7.5" font-family="Helvetica,sans-Serif" font-size="10.00" fill="#000000">Ogre::HlmsSamplerblock</text>
</a>
</g>
</g>
<!-- Node0&#45;&gt;Node3 -->
<g id="edge3" class="edge">
<title>Node0&#45;&gt;Node3</title>
<path fill="none" stroke="#191970" d="M224.8649,-52.6541C250.3952,-42.4419 284.9784,-28.6086 307.7472,-19.5011"/>
<polygon fill="#191970" stroke="#191970" points="223.5517,-49.4096 215.5669,-56.3733 226.1515,-55.909 223.5517,-49.4096"/>
</g>
</g>
</svg>
