<?xml version="1.0" encoding="UTF-8" standalone="no"?>
<!DOCTYPE svg PUBLIC "-//W3C//DTD SVG 1.1//EN"
 "http://www.w3.org/Graphics/SVG/1.1/DTD/svg11.dtd">
<!-- Generated by graphviz version 2.43.0 (0)
 -->
<!-- Title: Ogre::Exception Pages: 1 -->
<svg width="671pt" height="370pt"
 viewBox="0.00 0.00 671.00 370.00" xmlns="http://www.w3.org/2000/svg" xmlns:xlink="http://www.w3.org/1999/xlink">
<g id="graph0" class="graph" transform="scale(1 1) rotate(0) translate(4 366)">
<title>Ogre::Exception</title>
<!-- Node1 -->
<g id="node1" class="node">
<title>Node1</title>
<g id="a_node1"><a xlink:title="When thrown, provides information about an error that has occurred inside the engine.">
<polygon fill="#bfbfbf" stroke="black" points="122,-171.5 122,-190.5 216,-190.5 216,-171.5 122,-171.5"/>
<text text-anchor="middle" x="169" y="-178.5" font-family="Helvetica,sans-Serif" font-size="10.00">Ogre::Exception</text>
</a>
</g>
</g>
<!-- Node3 -->
<g id="node3" class="node">
<title>Node3</title>
<g id="a_node3"><a xlink:href="class_ogre_1_1_file_not_found_exception.html" target="_top" xlink:title=" ">
<polygon fill="none" stroke="black" points="265,-342.5 265,-361.5 422,-361.5 422,-342.5 265,-342.5"/>
<text text-anchor="middle" x="343.5" y="-349.5" font-family="Helvetica,sans-Serif" font-size="10.00">Ogre::FileNotFoundException</text>
</a>
</g>
</g>
<!-- Node1&#45;&gt;Node3 -->
<g id="edge2" class="edge">
<title>Node1&#45;&gt;Node3</title>
<path fill="none" stroke="midnightblue" d="M174.76,-200.45C183.84,-233.26 206.89,-299.31 252,-333 257.15,-336.84 262.89,-339.95 268.93,-342.45"/>
<polygon fill="midnightblue" stroke="midnightblue" points="178.12,-199.48 172.2,-190.7 171.35,-201.26 178.12,-199.48"/>
</g>
<!-- Node4 -->
<g id="node4" class="node">
<title>Node4</title>
<g id="a_node4"><a xlink:href="class_ogre_1_1_internal_error_exception.html" target="_top" xlink:title=" ">
<polygon fill="none" stroke="black" points="266,-304.5 266,-323.5 421,-323.5 421,-304.5 266,-304.5"/>
<text text-anchor="middle" x="343.5" y="-311.5" font-family="Helvetica,sans-Serif" font-size="10.00">Ogre::InternalErrorException</text>
</a>
</g>
</g>
<!-- Node1&#45;&gt;Node4 -->
<g id="edge3" class="edge">
<title>Node1&#45;&gt;Node4</title>
<path fill="none" stroke="midnightblue" d="M178.18,-199.95C190.35,-225.74 215.74,-271.4 252,-295 257.92,-298.85 264.48,-301.94 271.28,-304.42"/>
<polygon fill="midnightblue" stroke="midnightblue" points="181.36,-198.48 174.04,-190.82 174.99,-201.38 181.36,-198.48"/>
</g>
<!-- Node5 -->
<g id="node5" class="node">
<title>Node5</title>
<g id="a_node5"><a xlink:href="class_ogre_1_1_invalid_call_exception.html" target="_top" xlink:title=" ">
<polygon fill="none" stroke="black" points="270.5,-266.5 270.5,-285.5 416.5,-285.5 416.5,-266.5 270.5,-266.5"/>
<text text-anchor="middle" x="343.5" y="-273.5" font-family="Helvetica,sans-Serif" font-size="10.00">Ogre::InvalidCallException</text>
</a>
</g>
</g>
<!-- Node1&#45;&gt;Node5 -->
<g id="edge4" class="edge">
<title>Node1&#45;&gt;Node5</title>
<path fill="none" stroke="midnightblue" d="M183.87,-198.52C198.79,-216.1 224.14,-242.6 252,-257 259.56,-260.91 267.87,-264.01 276.29,-266.48"/>
<polygon fill="midnightblue" stroke="midnightblue" points="186.48,-196.18 177.42,-190.69 181.08,-200.63 186.48,-196.18"/>
</g>
<!-- Node6 -->
<g id="node6" class="node">
<title>Node6</title>
<g id="a_node6"><a xlink:href="class_ogre_1_1_invalid_parameters_exception.html" target="_top" xlink:title=" ">
<polygon fill="none" stroke="black" points="252,-228.5 252,-247.5 435,-247.5 435,-228.5 252,-228.5"/>
<text text-anchor="middle" x="343.5" y="-235.5" font-family="Helvetica,sans-Serif" font-size="10.00">Ogre::InvalidParametersException</text>
</a>
</g>
</g>
<!-- Node1&#45;&gt;Node6 -->
<g id="edge5" class="edge">
<title>Node1&#45;&gt;Node6</title>
<path fill="none" stroke="midnightblue" d="M196.57,-195.19C212.32,-203.12 232.89,-212.66 252,-219 263.12,-222.69 275.26,-225.82 286.93,-228.41"/>
<polygon fill="midnightblue" stroke="midnightblue" points="197.94,-191.95 187.44,-190.5 194.74,-198.18 197.94,-191.95"/>
</g>
<!-- Node7 -->
<g id="node7" class="node">
<title>Node7</title>
<g id="a_node7"><a xlink:href="class_ogre_1_1_invalid_state_exception.html" target="_top" xlink:title=" ">
<polygon fill="none" stroke="black" points="267.5,-190.5 267.5,-209.5 419.5,-209.5 419.5,-190.5 267.5,-190.5"/>
<text text-anchor="middle" x="343.5" y="-197.5" font-family="Helvetica,sans-Serif" font-size="10.00">Ogre::InvalidStateException</text>
</a>
</g>
</g>
<!-- Node1&#45;&gt;Node7 -->
<g id="edge6" class="edge">
<title>Node1&#45;&gt;Node7</title>
<path fill="none" stroke="midnightblue" d="M226.48,-187.22C239.59,-188.66 253.73,-190.22 267.49,-191.74"/>
<polygon fill="midnightblue" stroke="midnightblue" points="226.55,-183.71 216.23,-186.09 225.78,-190.67 226.55,-183.71"/>
</g>
<!-- Node8 -->
<g id="node8" class="node">
<title>Node8</title>
<g id="a_node8"><a xlink:href="class_ogre_1_1_i_o_exception.html" target="_top" xlink:title=" ">
<polygon fill="none" stroke="black" points="291.5,-152.5 291.5,-171.5 395.5,-171.5 395.5,-152.5 291.5,-152.5"/>
<text text-anchor="middle" x="343.5" y="-159.5" font-family="Helvetica,sans-Serif" font-size="10.00">Ogre::IOException</text>
</a>
</g>
</g>
<!-- Node1&#45;&gt;Node8 -->
<g id="edge7" class="edge">
<title>Node1&#45;&gt;Node8</title>
<path fill="none" stroke="midnightblue" d="M226.26,-174.8C247.2,-172.5 270.83,-169.89 291.28,-167.64"/>
<polygon fill="midnightblue" stroke="midnightblue" points="225.78,-171.33 216.23,-175.91 226.55,-178.29 225.78,-171.33"/>
</g>
<!-- Node9 -->
<g id="node9" class="node">
<title>Node9</title>
<g id="a_node9"><a xlink:href="class_ogre_1_1_item_identity_exception.html" target="_top" xlink:title=" ">
<polygon fill="none" stroke="black" points="266.5,-114.5 266.5,-133.5 420.5,-133.5 420.5,-114.5 266.5,-114.5"/>
<text text-anchor="middle" x="343.5" y="-121.5" font-family="Helvetica,sans-Serif" font-size="10.00">Ogre::ItemIdentityException</text>
</a>
</g>
</g>
<!-- Node1&#45;&gt;Node9 -->
<g id="edge8" class="edge">
<title>Node1&#45;&gt;Node9</title>
<path fill="none" stroke="midnightblue" d="M196.57,-166.81C212.32,-158.88 232.89,-149.34 252,-143 263.12,-139.31 275.26,-136.18 286.93,-133.59"/>
<polygon fill="midnightblue" stroke="midnightblue" points="194.74,-163.82 187.44,-171.5 197.94,-170.05 194.74,-163.82"/>
</g>
<!-- Node10 -->
<g id="node10" class="node">
<title>Node10</title>
<g id="a_node10"><a xlink:href="class_ogre_1_1_rendering_a_p_i_exception.html" target="_top" xlink:title=" ">
<polygon fill="none" stroke="black" points="264,-76.5 264,-95.5 423,-95.5 423,-76.5 264,-76.5"/>
<text text-anchor="middle" x="343.5" y="-83.5" font-family="Helvetica,sans-Serif" font-size="10.00">Ogre::RenderingAPIException</text>
</a>
</g>
</g>
<!-- Node1&#45;&gt;Node10 -->
<g id="edge9" class="edge">
<title>Node1&#45;&gt;Node10</title>
<path fill="none" stroke="midnightblue" d="M183.87,-163.48C198.79,-145.9 224.14,-119.4 252,-105 259.56,-101.09 267.87,-97.99 276.29,-95.52"/>
<polygon fill="midnightblue" stroke="midnightblue" points="181.08,-161.37 177.42,-171.31 186.48,-165.82 181.08,-161.37"/>
</g>
<!-- Node12 -->
<g id="node12" class="node">
<title>Node12</title>
<g id="a_node12"><a xlink:href="class_ogre_1_1_runtime_assertion_exception.html" target="_top" xlink:title=" ">
<polygon fill="none" stroke="black" points="253,-38.5 253,-57.5 434,-57.5 434,-38.5 253,-38.5"/>
<text text-anchor="middle" x="343.5" y="-45.5" font-family="Helvetica,sans-Serif" font-size="10.00">Ogre::RuntimeAssertionException</text>
</a>
</g>
</g>
<!-- Node1&#45;&gt;Node12 -->
<g id="edge11" class="edge">
<title>Node1&#45;&gt;Node12</title>
<path fill="none" stroke="midnightblue" d="M178.18,-162.05C190.35,-136.26 215.74,-90.6 252,-67 257.92,-63.15 264.48,-60.06 271.28,-57.58"/>
<polygon fill="midnightblue" stroke="midnightblue" points="174.99,-160.62 174.04,-171.18 181.36,-163.52 174.99,-160.62"/>
</g>
<!-- Node13 -->
<g id="node13" class="node">
<title>Node13</title>
<g id="a_node13"><a xlink:href="class_ogre_1_1_unimplemented_exception.html" target="_top" xlink:title="Template struct which creates a distinct type for each exception code.">
<polygon fill="none" stroke="black" points="257,-0.5 257,-19.5 430,-19.5 430,-0.5 257,-0.5"/>
<text text-anchor="middle" x="343.5" y="-7.5" font-family="Helvetica,sans-Serif" font-size="10.00">Ogre::UnimplementedException</text>
</a>
</g>
</g>
<!-- Node1&#45;&gt;Node13 -->
<g id="edge12" class="edge">
<title>Node1&#45;&gt;Node13</title>
<path fill="none" stroke="midnightblue" d="M174.76,-161.55C183.84,-128.74 206.89,-62.69 252,-29 257.15,-25.16 262.89,-22.05 268.93,-19.55"/>
<polygon fill="midnightblue" stroke="midnightblue" points="171.35,-160.74 172.2,-171.3 178.12,-162.52 171.35,-160.74"/>
</g>
<!-- Node2 -->
<g id="node2" class="node">
<title>Node2</title>
<g id="a_node2"><a xlink:title=" ">
<polygon fill="none" stroke="#bfbfbf" points="0,-171.5 0,-190.5 86,-190.5 86,-171.5 0,-171.5"/>
<text text-anchor="middle" x="43" y="-178.5" font-family="Helvetica,sans-Serif" font-size="10.00">std::exception</text>
</a>
</g>
</g>
<!-- Node2&#45;&gt;Node1 -->
<g id="edge1" class="edge">
<title>Node2&#45;&gt;Node1</title>
<path fill="none" stroke="midnightblue" d="M96.39,-181C104.77,-181 113.39,-181 121.62,-181"/>
<polygon fill="midnightblue" stroke="midnightblue" points="96.33,-177.5 86.33,-181 96.33,-184.5 96.33,-177.5"/>
</g>
<!-- Node11 -->
<g id="node11" class="node">
<title>Node11</title>
<g id="a_node11"><a xlink:href="class_ogre_1_1_d3_d11_rendering_a_p_i_exception.html" target="_top" xlink:title=" ">
<polygon fill="none" stroke="black" points="471,-76.5 471,-95.5 663,-95.5 663,-76.5 471,-76.5"/>
<text text-anchor="middle" x="567" y="-83.5" font-family="Helvetica,sans-Serif" font-size="10.00">Ogre::D3D11RenderingAPIException</text>
</a>
</g>
</g>
<!-- Node10&#45;&gt;Node11 -->
<g id="edge10" class="edge">
<title>Node10&#45;&gt;Node11</title>
<path fill="none" stroke="midnightblue" d="M433.45,-86C445.76,-86 458.44,-86 470.85,-86"/>
<polygon fill="midnightblue" stroke="midnightblue" points="433.22,-82.5 423.22,-86 433.22,-89.5 433.22,-82.5"/>
</g>
</g>
</svg>
