<?xml version="1.0" encoding="UTF-8" standalone="no"?>
<!DOCTYPE svg PUBLIC "-//W3C//DTD SVG 1.1//EN"
 "http://www.w3.org/Graphics/SVG/1.1/DTD/svg11.dtd">
<!-- Generated by graphviz version 2.43.0 (0)
 -->
<!-- Title: Ogre::TerrainGlobalOptions Pages: 1 -->
<svg width="236pt" height="95pt"
 viewBox="0.00 0.00 236.00 95.00" xmlns="http://www.w3.org/2000/svg" xmlns:xlink="http://www.w3.org/1999/xlink">
<g id="graph0" class="graph" transform="scale(1 1) rotate(0) translate(4 91)">
<title>Ogre::TerrainGlobalOptions</title>
<!-- Node1 -->
<g id="node1" class="node">
<title>Node1</title>
<g id="a_node1"><a xlink:title="Options class which just stores default options for the terrain.">
<polygon fill="#bfbfbf" stroke="black" points="24,-0.5 24,-19.5 172,-19.5 172,-0.5 24,-0.5"/>
<text text-anchor="middle" x="98" y="-7.5" font-family="Helvetica,sans-Serif" font-size="10.00">Ogre::TerrainGlobalOptions</text>
</a>
</g>
</g>
<!-- Node2 -->
<g id="node2" class="node">
<title>Node2</title>
<g id="a_node2"><a xlink:title=" ">
<polygon fill="none" stroke="#bfbfbf" points="0,-62 0,-81 74,-81 74,-62 0,-62"/>
<text text-anchor="middle" x="37" y="-69" font-family="Helvetica,sans-Serif" font-size="10.00">TerrainAlloc</text>
</a>
</g>
</g>
<!-- Node2&#45;&gt;Node1 -->
<g id="edge1" class="edge">
<title>Node2&#45;&gt;Node1</title>
<path fill="none" stroke="midnightblue" d="M53.07,-54.82C64.66,-43.52 79.86,-28.69 89.28,-19.51"/>
<polygon fill="midnightblue" stroke="midnightblue" points="50.45,-52.49 45.74,-61.98 55.34,-57.5 50.45,-52.49"/>
</g>
<!-- Node3 -->
<g id="node3" class="node">
<title>Node3</title>
<g id="a_node3"><a xlink:href="class_ogre_1_1_singleton.html" target="_top" xlink:title=" ">
<polygon fill="none" stroke="black" points="92,-56.5 92,-86.5 228,-86.5 228,-56.5 92,-56.5"/>
<text text-anchor="start" x="100" y="-74.5" font-family="Helvetica,sans-Serif" font-size="10.00">Ogre::Singleton&lt; Terrain</text>
<text text-anchor="middle" x="160" y="-63.5" font-family="Helvetica,sans-Serif" font-size="10.00">GlobalOptions &gt;</text>
</a>
</g>
</g>
<!-- Node3&#45;&gt;Node1 -->
<g id="edge2" class="edge">
<title>Node3&#45;&gt;Node1</title>
<path fill="none" stroke="midnightblue" d="M137.91,-49.3C127.27,-39.09 115.1,-27.41 107.02,-19.66"/>
<polygon fill="midnightblue" stroke="midnightblue" points="135.67,-52 145.31,-56.4 140.52,-46.95 135.67,-52"/>
</g>
</g>
</svg>
