<?xml version="1.0" encoding="UTF-8" standalone="no"?>
<!DOCTYPE svg PUBLIC "-//W3C//DTD SVG 1.1//EN"
 "http://www.w3.org/Graphics/SVG/1.1/DTD/svg11.dtd">
<!-- Generated by graphviz version 2.43.0 (0)
 -->
<!-- Title: Ogre::ConstMapIterator&lt; T &gt; Pages: 1 -->
<svg width="167pt" height="173pt"
 viewBox="0.00 0.00 167.00 173.00" xmlns="http://www.w3.org/2000/svg" xmlns:xlink="http://www.w3.org/1999/xlink">
<g id="graph0" class="graph" transform="scale(1 1) rotate(0) translate(4 169)">
<title>Ogre::ConstMapIterator&lt; T &gt;</title>
<!-- Node1 -->
<g id="node1" class="node">
<title>Node1</title>
<g id="a_node1"><a xlink:title="Concrete IteratorWrapper for const access to the underlying key&#45;value container.">
<polygon fill="#bfbfbf" stroke="black" points="0,-0.5 0,-19.5 159,-19.5 159,-0.5 0,-0.5"/>
<text text-anchor="middle" x="79.5" y="-7.5" font-family="Helvetica,sans-Serif" font-size="10.00">Ogre::ConstMapIterator&lt; T &gt;</text>
</a>
</g>
</g>
<!-- Node2 -->
<g id="node2" class="node">
<title>Node2</title>
<g id="a_node2"><a xlink:href="class_ogre_1_1_map_iterator_wrapper.html" target="_top" xlink:title=" ">
<polygon fill="none" stroke="black" points="7.5,-56.5 7.5,-86.5 151.5,-86.5 151.5,-56.5 7.5,-56.5"/>
<text text-anchor="start" x="15.5" y="-74.5" font-family="Helvetica,sans-Serif" font-size="10.00">Ogre::MapIteratorWrapper</text>
<text text-anchor="middle" x="79.5" y="-63.5" font-family="Helvetica,sans-Serif" font-size="10.00">&lt; T, T::const_iterator &gt;</text>
</a>
</g>
</g>
<!-- Node2&#45;&gt;Node1 -->
<g id="edge1" class="edge">
<title>Node2&#45;&gt;Node1</title>
<path fill="none" stroke="midnightblue" d="M79.5,-46.29C79.5,-36.86 79.5,-26.65 79.5,-19.66"/>
<polygon fill="midnightblue" stroke="midnightblue" points="76,-46.4 79.5,-56.4 83,-46.4 76,-46.4"/>
</g>
<!-- Node3 -->
<g id="node3" class="node">
<title>Node3</title>
<g id="a_node3"><a xlink:href="class_ogre_1_1_iterator_wrapper.html" target="_top" xlink:title=" ">
<polygon fill="none" stroke="black" points="18,-123.5 18,-164.5 141,-164.5 141,-123.5 18,-123.5"/>
<text text-anchor="start" x="26" y="-152.5" font-family="Helvetica,sans-Serif" font-size="10.00">Ogre::IteratorWrapper</text>
<text text-anchor="start" x="26" y="-141.5" font-family="Helvetica,sans-Serif" font-size="10.00">&lt; T, T::const_iterator,</text>
<text text-anchor="middle" x="79.5" y="-130.5" font-family="Helvetica,sans-Serif" font-size="10.00"> T::mapped_type &gt;</text>
</a>
</g>
</g>
<!-- Node3&#45;&gt;Node2 -->
<g id="edge2" class="edge">
<title>Node3&#45;&gt;Node2</title>
<path fill="none" stroke="midnightblue" d="M79.5,-113.08C79.5,-104.01 79.5,-94.45 79.5,-86.89"/>
<polygon fill="midnightblue" stroke="midnightblue" points="76,-113.36 79.5,-123.36 83,-113.36 76,-113.36"/>
</g>
</g>
</svg>
