<?xml version="1.0" encoding="UTF-8" standalone="no"?>
<!DOCTYPE svg PUBLIC "-//W3C//DTD SVG 1.1//EN"
 "http://www.w3.org/Graphics/SVG/1.1/DTD/svg11.dtd">
<!-- Generated by graphviz version 2.43.0 (0)
 -->
<!-- Title: Ogre::RTShader::FunctionAtom Pages: 1 -->
<svg width="567pt" height="154pt"
 viewBox="0.00 0.00 567.00 154.00" xmlns="http://www.w3.org/2000/svg" xmlns:xlink="http://www.w3.org/1999/xlink">
<g id="graph0" class="graph" transform="scale(1 1) rotate(0) translate(4 150)">
<title>Ogre::RTShader::FunctionAtom</title>
<!-- Node1 -->
<g id="node1" class="node">
<title>Node1</title>
<g id="a_node1"><a xlink:title="A class that represents an atomic code section of shader based program function.">
<polygon fill="#bfbfbf" stroke="black" points="160,-66.5 160,-85.5 326,-85.5 326,-66.5 160,-66.5"/>
<text text-anchor="middle" x="243" y="-73.5" font-family="Helvetica,sans-Serif" font-size="10.00">Ogre::RTShader::FunctionAtom</text>
</a>
</g>
</g>
<!-- Node3 -->
<g id="node3" class="node">
<title>Node3</title>
<g id="a_node3"><a xlink:href="class_ogre_1_1_r_t_shader_1_1_assignment_atom.html" target="_top" xlink:title="shorthand for &quot;lhs = rhs;&quot; insted of using FFP_Assign(rhs, lhs)">
<polygon fill="none" stroke="black" points="369.5,-126.5 369.5,-145.5 551.5,-145.5 551.5,-126.5 369.5,-126.5"/>
<text text-anchor="middle" x="460.5" y="-133.5" font-family="Helvetica,sans-Serif" font-size="10.00">Ogre::RTShader::AssignmentAtom</text>
</a>
</g>
</g>
<!-- Node1&#45;&gt;Node3 -->
<g id="edge2" class="edge">
<title>Node1&#45;&gt;Node3</title>
<path fill="none" stroke="midnightblue" d="M277.55,-89.09C300.96,-97.86 333.05,-109.19 362,-117 375.24,-120.57 389.66,-123.76 403.25,-126.45"/>
<polygon fill="midnightblue" stroke="midnightblue" points="278.68,-85.77 268.09,-85.5 276.2,-92.32 278.68,-85.77"/>
</g>
<!-- Node4 -->
<g id="node4" class="node">
<title>Node4</title>
<g id="a_node4"><a xlink:href="class_ogre_1_1_r_t_shader_1_1_binary_op_atom.html" target="_top" xlink:title="shorthand for &quot;dst = a OP b;&quot;">
<polygon fill="none" stroke="black" points="375.5,-88.5 375.5,-107.5 545.5,-107.5 545.5,-88.5 375.5,-88.5"/>
<text text-anchor="middle" x="460.5" y="-95.5" font-family="Helvetica,sans-Serif" font-size="10.00">Ogre::RTShader::BinaryOpAtom</text>
</a>
</g>
</g>
<!-- Node1&#45;&gt;Node4 -->
<g id="edge3" class="edge">
<title>Node1&#45;&gt;Node4</title>
<path fill="none" stroke="midnightblue" d="M336.42,-85.43C349.4,-86.76 362.68,-88.12 375.5,-89.42"/>
<polygon fill="midnightblue" stroke="midnightblue" points="336.39,-81.91 326.09,-84.38 335.68,-88.88 336.39,-81.91"/>
</g>
<!-- Node5 -->
<g id="node5" class="node">
<title>Node5</title>
<g id="a_node5"><a xlink:href="class_ogre_1_1_r_t_shader_1_1_function_invocation.html" target="_top" xlink:title="A class that represents function invocation code from shader based program function.">
<polygon fill="none" stroke="black" points="390.5,-39 390.5,-69 530.5,-69 530.5,-39 390.5,-39"/>
<text text-anchor="start" x="398.5" y="-57" font-family="Helvetica,sans-Serif" font-size="10.00">Ogre::RTShader::Function</text>
<text text-anchor="middle" x="460.5" y="-46" font-family="Helvetica,sans-Serif" font-size="10.00">Invocation</text>
</a>
</g>
</g>
<!-- Node1&#45;&gt;Node5 -->
<g id="edge4" class="edge">
<title>Node1&#45;&gt;Node5</title>
<path fill="none" stroke="midnightblue" d="M336.1,-66.6C354.26,-64.74 373.03,-62.83 390.28,-61.07"/>
<polygon fill="midnightblue" stroke="midnightblue" points="335.68,-63.12 326.09,-67.62 336.39,-70.09 335.68,-63.12"/>
</g>
<!-- Node6 -->
<g id="node6" class="node">
<title>Node6</title>
<g id="a_node6"><a xlink:href="class_ogre_1_1_r_t_shader_1_1_sample_texture_atom.html" target="_top" xlink:title="shorthand for &quot;dst = texture(sampler, uv);&quot; instead of using FFP_SampleTexture">
<polygon fill="none" stroke="black" points="362,-0.5 362,-19.5 559,-19.5 559,-0.5 362,-0.5"/>
<text text-anchor="middle" x="460.5" y="-7.5" font-family="Helvetica,sans-Serif" font-size="10.00">Ogre::RTShader::SampleTextureAtom</text>
</a>
</g>
</g>
<!-- Node1&#45;&gt;Node6 -->
<g id="edge5" class="edge">
<title>Node1&#45;&gt;Node6</title>
<path fill="none" stroke="midnightblue" d="M273.89,-62.29C297.42,-51.94 331.27,-38.03 362,-29 374.49,-25.33 388.1,-22.17 401.07,-19.54"/>
<polygon fill="midnightblue" stroke="midnightblue" points="272.19,-59.22 264.48,-66.48 275.04,-65.61 272.19,-59.22"/>
</g>
<!-- Node2 -->
<g id="node2" class="node">
<title>Node2</title>
<g id="a_node2"><a xlink:title=" ">
<polygon fill="none" stroke="#bfbfbf" points="0,-66.5 0,-85.5 124,-85.5 124,-66.5 0,-66.5"/>
<text text-anchor="middle" x="62" y="-73.5" font-family="Helvetica,sans-Serif" font-size="10.00">RTShaderSystemAlloc</text>
</a>
</g>
</g>
<!-- Node2&#45;&gt;Node1 -->
<g id="edge1" class="edge">
<title>Node2&#45;&gt;Node1</title>
<path fill="none" stroke="midnightblue" d="M134.27,-76C142.71,-76 151.38,-76 159.96,-76"/>
<polygon fill="midnightblue" stroke="midnightblue" points="134.1,-72.5 124.1,-76 134.1,-79.5 134.1,-72.5"/>
</g>
</g>
</svg>
