<?xml version="1.0" encoding="UTF-8" standalone="no"?>
<!DOCTYPE svg PUBLIC "-//W3C//DTD SVG 1.1//EN"
 "http://www.w3.org/Graphics/SVG/1.1/DTD/svg11.dtd">
<!-- Generated by graphviz version 2.43.0 (0)
 -->
<!-- Title: Ogre::RTShader::ProgramWriterFactory Pages: 1 -->
<svg width="547pt" height="186pt"
 viewBox="0.00 0.00 547.00 186.00" xmlns="http://www.w3.org/2000/svg" xmlns:xlink="http://www.w3.org/1999/xlink">
<g id="graph0" class="graph" transform="scale(1 1) rotate(0) translate(4 182)">
<title>Ogre::RTShader::ProgramWriterFactory</title>
<!-- Node1 -->
<g id="node1" class="node">
<title>Node1</title>
<g id="a_node1"><a xlink:title="Interface definition for factories of ShaderProgramWriter.">
<polygon fill="#bfbfbf" stroke="black" points="160,-73.5 160,-103.5 330,-103.5 330,-73.5 160,-73.5"/>
<text text-anchor="start" x="168" y="-91.5" font-family="Helvetica,sans-Serif" font-size="10.00">Ogre::RTShader::ProgramWriter</text>
<text text-anchor="middle" x="245" y="-80.5" font-family="Helvetica,sans-Serif" font-size="10.00">Factory</text>
</a>
</g>
</g>
<!-- Node3 -->
<g id="node3" class="node">
<title>Node3</title>
<g id="a_node3"><a xlink:href="class_ogre_1_1_r_t_shader_1_1_shader_program_writer_c_g_factory.html" target="_top" xlink:title="CG program writer factory implementation.">
<polygon fill="none" stroke="black" points="366,-147.5 366,-177.5 539,-177.5 539,-147.5 366,-147.5"/>
<text text-anchor="start" x="374" y="-165.5" font-family="Helvetica,sans-Serif" font-size="10.00">Ogre::RTShader::ShaderProgram</text>
<text text-anchor="middle" x="452.5" y="-154.5" font-family="Helvetica,sans-Serif" font-size="10.00">WriterCGFactory</text>
</a>
</g>
</g>
<!-- Node1&#45;&gt;Node3 -->
<g id="edge2" class="edge">
<title>Node1&#45;&gt;Node3</title>
<path fill="none" stroke="midnightblue" d="M288.56,-107.71C311.28,-117.59 339.88,-129.43 366,-138.5 375.03,-141.64 384.7,-144.66 394.17,-147.44"/>
<polygon fill="midnightblue" stroke="midnightblue" points="289.77,-104.42 279.2,-103.61 286.95,-110.83 289.77,-104.42"/>
</g>
<!-- Node4 -->
<g id="node4" class="node">
<title>Node4</title>
<g id="a_node4"><a xlink:href="class_ogre_1_1_r_t_shader_1_1_shader_program_writer_g_l_s_l_e_s_factory.html" target="_top" xlink:title="GLSL ES program writer factory implementation.">
<polygon fill="none" stroke="black" points="366,-98.5 366,-128.5 539,-128.5 539,-98.5 366,-98.5"/>
<text text-anchor="start" x="374" y="-116.5" font-family="Helvetica,sans-Serif" font-size="10.00">Ogre::RTShader::ShaderProgram</text>
<text text-anchor="middle" x="452.5" y="-105.5" font-family="Helvetica,sans-Serif" font-size="10.00">WriterGLSLESFactory</text>
</a>
</g>
</g>
<!-- Node1&#45;&gt;Node4 -->
<g id="edge3" class="edge">
<title>Node1&#45;&gt;Node4</title>
<path fill="none" stroke="midnightblue" d="M340.16,-99.95C348.7,-100.99 357.32,-102.04 365.79,-103.07"/>
<polygon fill="midnightblue" stroke="midnightblue" points="340.53,-96.47 330.18,-98.74 339.68,-103.42 340.53,-96.47"/>
</g>
<!-- Node5 -->
<g id="node5" class="node">
<title>Node5</title>
<g id="a_node5"><a xlink:href="class_ogre_1_1_r_t_shader_1_1_shader_program_writer_g_l_s_l_factory.html" target="_top" xlink:title="GLSL program writer factory implementation.">
<polygon fill="none" stroke="black" points="366,-49.5 366,-79.5 539,-79.5 539,-49.5 366,-49.5"/>
<text text-anchor="start" x="374" y="-67.5" font-family="Helvetica,sans-Serif" font-size="10.00">Ogre::RTShader::ShaderProgram</text>
<text text-anchor="middle" x="452.5" y="-56.5" font-family="Helvetica,sans-Serif" font-size="10.00">WriterGLSLFactory</text>
</a>
</g>
</g>
<!-- Node1&#45;&gt;Node5 -->
<g id="edge4" class="edge">
<title>Node1&#45;&gt;Node5</title>
<path fill="none" stroke="midnightblue" d="M340.16,-77.5C348.7,-76.51 357.32,-75.5 365.79,-74.51"/>
<polygon fill="midnightblue" stroke="midnightblue" points="339.7,-74.03 330.18,-78.67 340.52,-80.99 339.7,-74.03"/>
</g>
<!-- Node6 -->
<g id="node6" class="node">
<title>Node6</title>
<g id="a_node6"><a xlink:href="class_ogre_1_1_r_t_shader_1_1_shader_program_writer_h_l_s_l_factory.html" target="_top" xlink:title="HLSL program writer factory implementation.">
<polygon fill="none" stroke="black" points="366,-0.5 366,-30.5 539,-30.5 539,-0.5 366,-0.5"/>
<text text-anchor="start" x="374" y="-18.5" font-family="Helvetica,sans-Serif" font-size="10.00">Ogre::RTShader::ShaderProgram</text>
<text text-anchor="middle" x="452.5" y="-7.5" font-family="Helvetica,sans-Serif" font-size="10.00">WriterHLSLFactory</text>
</a>
</g>
</g>
<!-- Node1&#45;&gt;Node6 -->
<g id="edge5" class="edge">
<title>Node1&#45;&gt;Node6</title>
<path fill="none" stroke="midnightblue" d="M289.33,-69.41C311.94,-59.81 340.21,-48.35 366,-39.5 375.04,-36.4 384.72,-33.39 394.19,-30.61"/>
<polygon fill="midnightblue" stroke="midnightblue" points="287.82,-66.25 280,-73.4 290.57,-72.69 287.82,-66.25"/>
</g>
<!-- Node2 -->
<g id="node2" class="node">
<title>Node2</title>
<g id="a_node2"><a xlink:title=" ">
<polygon fill="none" stroke="#bfbfbf" points="0,-79 0,-98 124,-98 124,-79 0,-79"/>
<text text-anchor="middle" x="62" y="-86" font-family="Helvetica,sans-Serif" font-size="10.00">RTShaderSystemAlloc</text>
</a>
</g>
</g>
<!-- Node2&#45;&gt;Node1 -->
<g id="edge1" class="edge">
<title>Node2&#45;&gt;Node1</title>
<path fill="none" stroke="midnightblue" d="M134.15,-88.5C142.56,-88.5 151.21,-88.5 159.78,-88.5"/>
<polygon fill="midnightblue" stroke="midnightblue" points="134.03,-85 124.03,-88.5 134.03,-92 134.03,-85"/>
</g>
</g>
</svg>
