<?xml version="1.0" encoding="UTF-8" standalone="no"?>
<!DOCTYPE svg PUBLIC "-//W3C//DTD SVG 1.1//EN"
 "http://www.w3.org/Graphics/SVG/1.1/DTD/svg11.dtd">
<!-- Generated by graphviz version 2.40.1 (20161225.0304)
 -->
<!-- Title: Ogre::RTShader::HLSLProgramWriter Pages: 1 -->
<svg width="165pt" height="218pt"
 viewBox="0.00 0.00 165.00 218.00" xmlns="http://www.w3.org/2000/svg" xmlns:xlink="http://www.w3.org/1999/xlink">
<g id="graph0" class="graph" transform="scale(1 1) rotate(0) translate(4 214)">
<title>Ogre::RTShader::HLSLProgramWriter</title>
<!-- Node0 -->
<g id="node1" class="node">
<title>Node0</title>
<polygon fill="#bfbfbf" stroke="#000000" points="1,-.5 1,-30.5 156,-30.5 156,-.5 1,-.5"/>
<text text-anchor="start" x="9" y="-18.5" font-family="Helvetica,sans-Serif" font-size="10.00" fill="#000000">Ogre::RTShader::HLSLProgram</text>
<text text-anchor="middle" x="78.5" y="-7.5" font-family="Helvetica,sans-Serif" font-size="10.00" fill="#000000">Writer</text>
</g>
<!-- Node1 -->
<g id="node2" class="node">
<title>Node1</title>
<g id="a_node2"><a xlink:href="class_ogre_1_1_r_t_shader_1_1_c_g_program_writer.html" target="_top" xlink:title="CG target language writer implementation. ">
<polygon fill="none" stroke="#000000" points="5.5,-67.5 5.5,-97.5 151.5,-97.5 151.5,-67.5 5.5,-67.5"/>
<text text-anchor="start" x="13.5" y="-85.5" font-family="Helvetica,sans-Serif" font-size="10.00" fill="#000000">Ogre::RTShader::CGProgram</text>
<text text-anchor="middle" x="78.5" y="-74.5" font-family="Helvetica,sans-Serif" font-size="10.00" fill="#000000">Writer</text>
</a>
</g>
</g>
<!-- Node1&#45;&gt;Node0 -->
<g id="edge1" class="edge">
<title>Node1&#45;&gt;Node0</title>
<path fill="none" stroke="#191970" d="M78.5,-57.0249C78.5,-48.128 78.5,-38.4287 78.5,-30.6432"/>
<polygon fill="#191970" stroke="#191970" points="75.0001,-57.2966 78.5,-67.2967 82.0001,-57.2967 75.0001,-57.2966"/>
</g>
<!-- Node2 -->
<g id="node3" class="node">
<title>Node2</title>
<g id="a_node3"><a xlink:href="class_ogre_1_1_r_t_shader_1_1_program_writer.html" target="_top" xlink:title="Base class interface for shader program writers. ">
<polygon fill="none" stroke="#000000" points="0,-134.5 0,-153.5 157,-153.5 157,-134.5 0,-134.5"/>
<text text-anchor="middle" x="78.5" y="-141.5" font-family="Helvetica,sans-Serif" font-size="10.00" fill="#000000">Ogre::RTShader::ProgramWriter</text>
</a>
</g>
</g>
<!-- Node2&#45;&gt;Node1 -->
<g id="edge2" class="edge">
<title>Node2&#45;&gt;Node1</title>
<path fill="none" stroke="#191970" d="M78.5,-124.3693C78.5,-115.681 78.5,-105.6241 78.5,-97.5446"/>
<polygon fill="#191970" stroke="#191970" points="75.0001,-124.3906 78.5,-134.3906 82.0001,-124.3907 75.0001,-124.3906"/>
</g>
<!-- Node3 -->
<g id="node4" class="node">
<title>Node3</title>
<g id="a_node4"><a xlink:href="class_ogre_1_1_allocated_object.html" target="_top" xlink:title="RTShaderSystemAlloc">
<polygon fill="none" stroke="#000000" points="20.5,-190.5 20.5,-209.5 136.5,-209.5 136.5,-190.5 20.5,-190.5"/>
<text text-anchor="middle" x="78.5" y="-197.5" font-family="Helvetica,sans-Serif" font-size="10.00" fill="#000000">RTShaderSystemAlloc</text>
</a>
</g>
</g>
<!-- Node3&#45;&gt;Node2 -->
<g id="edge3" class="edge">
<title>Node3&#45;&gt;Node2</title>
<path fill="none" stroke="#191970" d="M78.5,-180.1575C78.5,-171.155 78.5,-160.9199 78.5,-153.6427"/>
<polygon fill="#191970" stroke="#191970" points="75.0001,-180.2455 78.5,-190.2455 82.0001,-180.2456 75.0001,-180.2455"/>
</g>
</g>
</svg>
