<?xml version="1.0" encoding="UTF-8" standalone="no"?>
<!DOCTYPE svg PUBLIC "-//W3C//DTD SVG 1.1//EN"
 "http://www.w3.org/Graphics/SVG/1.1/DTD/svg11.dtd">
<!-- Generated by graphviz version 2.40.1 (20161225.0304)
 -->
<!-- Title: Ogre::RTShader::Operand Pages: 1 -->
<svg width="496pt" height="140pt"
 viewBox="0.00 0.00 496.00 140.00" xmlns="http://www.w3.org/2000/svg" xmlns:xlink="http://www.w3.org/1999/xlink">
<g id="graph0" class="graph" transform="scale(1 1) rotate(0) translate(4 136)">
<title>Ogre::RTShader::Operand</title>
<!-- Node0 -->
<g id="node1" class="node">
<title>Node0</title>
<polygon fill="#bfbfbf" stroke="#000000" points="171.5,-56.5 171.5,-75.5 302.5,-75.5 302.5,-56.5 171.5,-56.5"/>
<text text-anchor="middle" x="237" y="-63.5" font-family="Helvetica,sans-Serif" font-size="10.00" fill="#000000">Ogre::RTShader::Operand</text>
</g>
<!-- Node2 -->
<g id="node3" class="node">
<title>Node2</title>
<g id="a_node3"><a xlink:href="struct_ogre_1_1_r_t_shader_1_1_at.html" target="_top" xlink:title="shorthand for operator[] on preceding operand. e.g. myArray[p] ">
<polygon fill="none" stroke="#000000" points="0,-.5 0,-19.5 104,-19.5 104,-.5 0,-.5"/>
<text text-anchor="middle" x="52" y="-7.5" font-family="Helvetica,sans-Serif" font-size="10.00" fill="#000000">Ogre::RTShader::At</text>
</a>
</g>
</g>
<!-- Node0&#45;&gt;Node2 -->
<g id="edge2" class="edge">
<title>Node0&#45;&gt;Node2</title>
<path fill="none" stroke="#191970" d="M195.5603,-53.4561C161.6009,-43.1765 114.2703,-28.8494 83.3876,-19.5011"/>
<polygon fill="#191970" stroke="#191970" points="194.6122,-56.8259 205.1974,-56.3733 196.6403,-50.1261 194.6122,-56.8259"/>
</g>
<!-- Node3 -->
<g id="node4" class="node">
<title>Node3</title>
<g id="a_node4"><a xlink:href="struct_ogre_1_1_r_t_shader_1_1_in.html" target="_top" xlink:title="Ogre::RTShader::In">
<polygon fill="none" stroke="#000000" points="122,-.5 122,-19.5 224,-19.5 224,-.5 122,-.5"/>
<text text-anchor="middle" x="173" y="-7.5" font-family="Helvetica,sans-Serif" font-size="10.00" fill="#000000">Ogre::RTShader::In</text>
</a>
</g>
</g>
<!-- Node0&#45;&gt;Node3 -->
<g id="edge3" class="edge">
<title>Node0&#45;&gt;Node3</title>
<path fill="none" stroke="#191970" d="M218.3086,-49.645C207.1781,-39.9058 193.4337,-27.8795 184.0202,-19.6427"/>
<polygon fill="#191970" stroke="#191970" points="216.0215,-52.2945 225.8521,-56.2455 220.631,-47.0264 216.0215,-52.2945"/>
</g>
<!-- Node4 -->
<g id="node5" class="node">
<title>Node4</title>
<g id="a_node5"><a xlink:href="struct_ogre_1_1_r_t_shader_1_1_in_out.html" target="_top" xlink:title="Ogre::RTShader::InOut">
<polygon fill="none" stroke="#000000" points="242,-.5 242,-19.5 360,-19.5 360,-.5 242,-.5"/>
<text text-anchor="middle" x="301" y="-7.5" font-family="Helvetica,sans-Serif" font-size="10.00" fill="#000000">Ogre::RTShader::InOut</text>
</a>
</g>
</g>
<!-- Node0&#45;&gt;Node4 -->
<g id="edge4" class="edge">
<title>Node0&#45;&gt;Node4</title>
<path fill="none" stroke="#191970" d="M255.6914,-49.645C266.8219,-39.9058 280.5663,-27.8795 289.9798,-19.6427"/>
<polygon fill="#191970" stroke="#191970" points="253.369,-47.0264 248.1479,-56.2455 257.9785,-52.2945 253.369,-47.0264"/>
</g>
<!-- Node5 -->
<g id="node6" class="node">
<title>Node5</title>
<g id="a_node6"><a xlink:href="struct_ogre_1_1_r_t_shader_1_1_out.html" target="_top" xlink:title="Ogre::RTShader::Out">
<polygon fill="none" stroke="#000000" points="378,-.5 378,-19.5 488,-19.5 488,-.5 378,-.5"/>
<text text-anchor="middle" x="433" y="-7.5" font-family="Helvetica,sans-Serif" font-size="10.00" fill="#000000">Ogre::RTShader::Out</text>
</a>
</g>
</g>
<!-- Node0&#45;&gt;Node5 -->
<g id="edge5" class="edge">
<title>Node0&#45;&gt;Node5</title>
<path fill="none" stroke="#191970" d="M280.4413,-53.5882C316.4516,-43.2996 366.8868,-28.8895 399.7461,-19.5011"/>
<polygon fill="#191970" stroke="#191970" points="279.3473,-50.2606 270.6936,-56.3733 281.2704,-56.9913 279.3473,-50.2606"/>
</g>
<!-- Node1 -->
<g id="node2" class="node">
<title>Node1</title>
<g id="a_node2"><a xlink:href="class_ogre_1_1_allocated_object.html" target="_top" xlink:title="RTShaderSystemAlloc">
<polygon fill="none" stroke="#000000" points="179,-112.5 179,-131.5 295,-131.5 295,-112.5 179,-112.5"/>
<text text-anchor="middle" x="237" y="-119.5" font-family="Helvetica,sans-Serif" font-size="10.00" fill="#000000">RTShaderSystemAlloc</text>
</a>
</g>
</g>
<!-- Node1&#45;&gt;Node0 -->
<g id="edge1" class="edge">
<title>Node1&#45;&gt;Node0</title>
<path fill="none" stroke="#191970" d="M237,-102.1575C237,-93.155 237,-82.9199 237,-75.6427"/>
<polygon fill="#191970" stroke="#191970" points="233.5001,-102.2455 237,-112.2455 240.5001,-102.2456 233.5001,-102.2455"/>
</g>
</g>
</svg>
