<?xml version="1.0" encoding="UTF-8" standalone="no"?>
<!DOCTYPE svg PUBLIC "-//W3C//DTD SVG 1.1//EN"
 "http://www.w3.org/Graphics/SVG/1.1/DTD/svg11.dtd">
<!-- Generated by graphviz version 2.43.0 (0)
 -->
<!-- Title: Ogre::LodWorkQueueInjector Pages: 1 -->
<svg width="328pt" height="95pt"
 viewBox="0.00 0.00 328.00 95.00" xmlns="http://www.w3.org/2000/svg" xmlns:xlink="http://www.w3.org/1999/xlink">
<g id="graph0" class="graph" transform="scale(1 1) rotate(0) translate(4 91)">
<title>Ogre::LodWorkQueueInjector</title>
<!-- Node1 -->
<g id="node1" class="node">
<title>Node1</title>
<g id="a_node1"><a xlink:title="Injects the output of a request to the mesh in a thread safe way.">
<polygon fill="#bfbfbf" stroke="black" points="83.5,-0.5 83.5,-19.5 240.5,-19.5 240.5,-0.5 83.5,-0.5"/>
<text text-anchor="middle" x="162" y="-7.5" font-family="Helvetica,sans-Serif" font-size="10.00">Ogre::LodWorkQueueInjector</text>
</a>
</g>
</g>
<!-- Node2 -->
<g id="node2" class="node">
<title>Node2</title>
<g id="a_node2"><a xlink:href="class_ogre_1_1_work_queue_1_1_response_handler.html" target="_top" xlink:title="Interface definition for a handler of responses.">
<polygon fill="none" stroke="black" points="0,-56.5 0,-86.5 156,-86.5 156,-56.5 0,-56.5"/>
<text text-anchor="start" x="8" y="-74.5" font-family="Helvetica,sans-Serif" font-size="10.00">Ogre::WorkQueue::Response</text>
<text text-anchor="middle" x="78" y="-63.5" font-family="Helvetica,sans-Serif" font-size="10.00">Handler</text>
</a>
</g>
</g>
<!-- Node2&#45;&gt;Node1 -->
<g id="edge1" class="edge">
<title>Node2&#45;&gt;Node1</title>
<path fill="none" stroke="midnightblue" d="M106.26,-50.48C121.06,-40 138.41,-27.71 149.78,-19.66"/>
<polygon fill="midnightblue" stroke="midnightblue" points="104.04,-47.76 97.91,-56.4 108.09,-53.48 104.04,-47.76"/>
</g>
<!-- Node3 -->
<g id="node3" class="node">
<title>Node3</title>
<g id="a_node3"><a xlink:href="class_ogre_1_1_singleton.html" target="_top" xlink:title=" ">
<polygon fill="none" stroke="black" points="174,-56.5 174,-86.5 320,-86.5 320,-56.5 174,-56.5"/>
<text text-anchor="start" x="182" y="-74.5" font-family="Helvetica,sans-Serif" font-size="10.00">Ogre::Singleton&lt; LodWork</text>
<text text-anchor="middle" x="247" y="-63.5" font-family="Helvetica,sans-Serif" font-size="10.00">QueueInjector &gt;</text>
</a>
</g>
</g>
<!-- Node3&#45;&gt;Node1 -->
<g id="edge2" class="edge">
<title>Node3&#45;&gt;Node1</title>
<path fill="none" stroke="midnightblue" d="M218.4,-50.48C203.43,-40 185.87,-27.71 174.37,-19.66"/>
<polygon fill="midnightblue" stroke="midnightblue" points="216.66,-53.53 226.86,-56.4 220.67,-47.8 216.66,-53.53"/>
</g>
</g>
</svg>
