<?xml version="1.0" encoding="UTF-8" standalone="no"?>
<!DOCTYPE svg PUBLIC "-//W3C//DTD SVG 1.1//EN"
 "http://www.w3.org/Graphics/SVG/1.1/DTD/svg11.dtd">
<!-- Generated by graphviz version 2.43.0 (0)
 -->
<!-- Title: Ogre::UnimplementedException Pages: 1 -->
<svg width="181pt" height="140pt"
 viewBox="0.00 0.00 181.00 140.00" xmlns="http://www.w3.org/2000/svg" xmlns:xlink="http://www.w3.org/1999/xlink">
<g id="graph0" class="graph" transform="scale(1 1) rotate(0) translate(4 136)">
<title>Ogre::UnimplementedException</title>
<!-- Node1 -->
<g id="node1" class="node">
<title>Node1</title>
<g id="a_node1"><a xlink:title="Template struct which creates a distinct type for each exception code.">
<polygon fill="#bfbfbf" stroke="black" points="0,-0.5 0,-19.5 173,-19.5 173,-0.5 0,-0.5"/>
<text text-anchor="middle" x="86.5" y="-7.5" font-family="Helvetica,sans-Serif" font-size="10.00">Ogre::UnimplementedException</text>
</a>
</g>
</g>
<!-- Node2 -->
<g id="node2" class="node">
<title>Node2</title>
<g id="a_node2"><a xlink:href="class_ogre_1_1_exception.html" target="_top" xlink:title="When thrown, provides information about an error that has occurred inside the engine.">
<polygon fill="none" stroke="black" points="39.5,-56.5 39.5,-75.5 133.5,-75.5 133.5,-56.5 39.5,-56.5"/>
<text text-anchor="middle" x="86.5" y="-63.5" font-family="Helvetica,sans-Serif" font-size="10.00">Ogre::Exception</text>
</a>
</g>
</g>
<!-- Node2&#45;&gt;Node1 -->
<g id="edge1" class="edge">
<title>Node2&#45;&gt;Node1</title>
<path fill="none" stroke="midnightblue" d="M86.5,-45.8C86.5,-36.91 86.5,-26.78 86.5,-19.75"/>
<polygon fill="midnightblue" stroke="midnightblue" points="83,-46.08 86.5,-56.08 90,-46.08 83,-46.08"/>
</g>
<!-- Node3 -->
<g id="node3" class="node">
<title>Node3</title>
<g id="a_node3"><a xlink:title=" ">
<polygon fill="none" stroke="#bfbfbf" points="43.5,-112.5 43.5,-131.5 129.5,-131.5 129.5,-112.5 43.5,-112.5"/>
<text text-anchor="middle" x="86.5" y="-119.5" font-family="Helvetica,sans-Serif" font-size="10.00">std::exception</text>
</a>
</g>
</g>
<!-- Node3&#45;&gt;Node2 -->
<g id="edge2" class="edge">
<title>Node3&#45;&gt;Node2</title>
<path fill="none" stroke="midnightblue" d="M86.5,-101.8C86.5,-92.91 86.5,-82.78 86.5,-75.75"/>
<polygon fill="midnightblue" stroke="midnightblue" points="83,-102.08 86.5,-112.08 90,-102.08 83,-102.08"/>
</g>
</g>
</svg>
