<?xml version="1.0" encoding="UTF-8" standalone="no"?>
<!DOCTYPE svg PUBLIC "-//W3C//DTD SVG 1.1//EN"
 "http://www.w3.org/Graphics/SVG/1.1/DTD/svg11.dtd">
<!-- Generated by graphviz version 2.40.1 (20161225.0304)
 -->
<!-- Title: Ogre::RTShader::FunctionAtom Pages: 1 -->
<svg width="534pt" height="154pt"
 viewBox="0.00 0.00 534.00 154.00" xmlns="http://www.w3.org/2000/svg" xmlns:xlink="http://www.w3.org/1999/xlink">
<g id="graph0" class="graph" transform="scale(1 1) rotate(0) translate(4 150)">
<title>Ogre::RTShader::FunctionAtom</title>
<!-- Node0 -->
<g id="node1" class="node">
<title>Node0</title>
<polygon fill="#bfbfbf" stroke="#000000" points="152,-66.5 152,-85.5 307,-85.5 307,-66.5 152,-66.5"/>
<text text-anchor="middle" x="229.5" y="-73.5" font-family="Helvetica,sans-Serif" font-size="10.00" fill="#000000">Ogre::RTShader::FunctionAtom</text>
</g>
<!-- Node2 -->
<g id="node3" class="node">
<title>Node2</title>
<g id="a_node3"><a xlink:href="class_ogre_1_1_r_t_shader_1_1_assignment_atom.html" target="_top" xlink:title="shorthand for &quot;lhs = rhs;&quot; insted of using FFP_Assign(rhs, lhs) ">
<polygon fill="none" stroke="#000000" points="350,-126.5 350,-145.5 519,-145.5 519,-126.5 350,-126.5"/>
<text text-anchor="middle" x="434.5" y="-133.5" font-family="Helvetica,sans-Serif" font-size="10.00" fill="#000000">Ogre::RTShader::AssignmentAtom</text>
</a>
</g>
</g>
<!-- Node0&#45;&gt;Node2 -->
<g id="edge2" class="edge">
<title>Node0&#45;&gt;Node2</title>
<path fill="none" stroke="#191970" d="M262.4879,-89.322C284.9237,-98.0328 315.429,-109.2002 343,-117 355.4893,-120.5332 369.1083,-123.7136 381.9313,-126.4167"/>
<polygon fill="#191970" stroke="#191970" points="263.6809,-86.0304 253.0935,-85.6351 261.1236,-92.5465 263.6809,-86.0304"/>
</g>
<!-- Node3 -->
<g id="node4" class="node">
<title>Node3</title>
<g id="a_node4"><a xlink:href="class_ogre_1_1_r_t_shader_1_1_binary_op_atom.html" target="_top" xlink:title="shorthand for &quot;dst = a OP b;&quot; ">
<polygon fill="none" stroke="#000000" points="355.5,-88.5 355.5,-107.5 513.5,-107.5 513.5,-88.5 355.5,-88.5"/>
<text text-anchor="middle" x="434.5" y="-95.5" font-family="Helvetica,sans-Serif" font-size="10.00" fill="#000000">Ogre::RTShader::BinaryOpAtom</text>
</a>
</g>
</g>
<!-- Node0&#45;&gt;Node3 -->
<g id="edge3" class="edge">
<title>Node0&#45;&gt;Node3</title>
<path fill="none" stroke="#191970" d="M317.0719,-85.398C329.7306,-86.7565 342.6996,-88.1483 355.1844,-89.4881"/>
<polygon fill="#191970" stroke="#191970" points="317.3181,-81.9044 307.0017,-84.3173 316.5711,-88.8644 317.3181,-81.9044"/>
</g>
<!-- Node4 -->
<g id="node5" class="node">
<title>Node4</title>
<g id="a_node5"><a xlink:href="class_ogre_1_1_r_t_shader_1_1_function_invocation.html" target="_top" xlink:title="A class that represents function invocation code from shader based program function. ">
<polygon fill="none" stroke="#000000" points="369,-39 369,-69 500,-69 500,-39 369,-39"/>
<text text-anchor="start" x="377" y="-57" font-family="Helvetica,sans-Serif" font-size="10.00" fill="#000000">Ogre::RTShader::Function</text>
<text text-anchor="middle" x="434.5" y="-46" font-family="Helvetica,sans-Serif" font-size="10.00" fill="#000000">Invocation</text>
</a>
</g>
</g>
<!-- Node0&#45;&gt;Node4 -->
<g id="edge4" class="edge">
<title>Node0&#45;&gt;Node4</title>
<path fill="none" stroke="#191970" d="M317.145,-66.5942C334.5129,-64.7303 352.4621,-62.8041 368.9408,-61.0356"/>
<polygon fill="#191970" stroke="#191970" points="316.5711,-63.1356 307.0017,-67.6827 317.3181,-70.0956 316.5711,-63.1356"/>
</g>
<!-- Node5 -->
<g id="node6" class="node">
<title>Node5</title>
<g id="a_node6"><a xlink:href="class_ogre_1_1_r_t_shader_1_1_sample_texture_atom.html" target="_top" xlink:title="shorthand for &quot;dst = texture(sampler, uv);&quot; instead of using FFP_SampleTexture ">
<polygon fill="none" stroke="#000000" points="343,-.5 343,-19.5 526,-19.5 526,-.5 343,-.5"/>
<text text-anchor="middle" x="434.5" y="-7.5" font-family="Helvetica,sans-Serif" font-size="10.00" fill="#000000">Ogre::RTShader::SampleTextureAtom</text>
</a>
</g>
</g>
<!-- Node0&#45;&gt;Node5 -->
<g id="edge5" class="edge">
<title>Node0&#45;&gt;Node5</title>
<path fill="none" stroke="#191970" d="M258.9373,-62.0146C281.5256,-51.7269 313.703,-38.02 343,-29 354.7846,-25.3718 367.6364,-22.2232 379.8831,-19.5894"/>
<polygon fill="#191970" stroke="#191970" points="257.1943,-58.9641 249.5797,-66.3309 260.1263,-65.3205 257.1943,-58.9641"/>
</g>
<!-- Node1 -->
<g id="node2" class="node">
<title>Node1</title>
<g id="a_node2"><a xlink:href="class_ogre_1_1_allocated_object.html" target="_top" xlink:title="RTShaderSystemAlloc">
<polygon fill="none" stroke="#000000" points="0,-66.5 0,-85.5 116,-85.5 116,-66.5 0,-66.5"/>
<text text-anchor="middle" x="58" y="-73.5" font-family="Helvetica,sans-Serif" font-size="10.00" fill="#000000">RTShaderSystemAlloc</text>
</a>
</g>
</g>
<!-- Node1&#45;&gt;Node0 -->
<g id="edge1" class="edge">
<title>Node1&#45;&gt;Node0</title>
<path fill="none" stroke="#191970" d="M126.1683,-76C134.5681,-76 143.203,-76 151.7317,-76"/>
<polygon fill="#191970" stroke="#191970" points="126.0621,-72.5001 116.0621,-76 126.062,-79.5001 126.0621,-72.5001"/>
</g>
</g>
</svg>
