<?xml version="1.0" encoding="UTF-8" standalone="no"?>
<!DOCTYPE svg PUBLIC "-//W3C//DTD SVG 1.1//EN"
 "http://www.w3.org/Graphics/SVG/1.1/DTD/svg11.dtd">
<!-- Generated by graphviz version 2.40.1 (20161225.0304)
 -->
<!-- Title: Ogre::ScriptTranslatorManager Pages: 1 -->
<svg width="166pt" height="140pt"
 viewBox="0.00 0.00 166.00 140.00" xmlns="http://www.w3.org/2000/svg" xmlns:xlink="http://www.w3.org/1999/xlink">
<g id="graph0" class="graph" transform="scale(1 1) rotate(0) translate(4 136)">
<title>Ogre::ScriptTranslatorManager</title>
<!-- Node0 -->
<g id="node1" class="node">
<title>Node0</title>
<polygon fill="#bfbfbf" stroke="#000000" points="4,-56.5 4,-75.5 154,-75.5 154,-56.5 4,-56.5"/>
<text text-anchor="middle" x="79" y="-63.5" font-family="Helvetica,sans-Serif" font-size="10.00" fill="#000000">Ogre::ScriptTranslatorManager</text>
</g>
<!-- Node2 -->
<g id="node3" class="node">
<title>Node2</title>
<g id="a_node3"><a xlink:href="class_ogre_1_1_overlay_translator_manager.html" target="_top" xlink:title="Ogre::OverlayTranslatorManager">
<polygon fill="none" stroke="#000000" points="0,-.5 0,-19.5 158,-19.5 158,-.5 0,-.5"/>
<text text-anchor="middle" x="79" y="-7.5" font-family="Helvetica,sans-Serif" font-size="10.00" fill="#000000">Ogre::OverlayTranslatorManager</text>
</a>
</g>
</g>
<!-- Node0&#45;&gt;Node2 -->
<g id="edge2" class="edge">
<title>Node0&#45;&gt;Node2</title>
<path fill="none" stroke="#191970" d="M79,-46.1575C79,-37.155 79,-26.9199 79,-19.6427"/>
<polygon fill="#191970" stroke="#191970" points="75.5001,-46.2455 79,-56.2455 82.5001,-46.2456 75.5001,-46.2455"/>
</g>
<!-- Node1 -->
<g id="node2" class="node">
<title>Node1</title>
<g id="a_node2"><a xlink:href="class_ogre_1_1_allocated_object.html" target="_top" xlink:title="ScriptTranslatorAlloc">
<polygon fill="none" stroke="#000000" points="25.5,-112.5 25.5,-131.5 132.5,-131.5 132.5,-112.5 25.5,-112.5"/>
<text text-anchor="middle" x="79" y="-119.5" font-family="Helvetica,sans-Serif" font-size="10.00" fill="#000000">ScriptTranslatorAlloc</text>
</a>
</g>
</g>
<!-- Node1&#45;&gt;Node0 -->
<g id="edge1" class="edge">
<title>Node1&#45;&gt;Node0</title>
<path fill="none" stroke="#191970" d="M79,-102.1575C79,-93.155 79,-82.9199 79,-75.6427"/>
<polygon fill="#191970" stroke="#191970" points="75.5001,-102.2455 79,-112.2455 82.5001,-102.2456 75.5001,-102.2455"/>
</g>
</g>
</svg>
