<?xml version="1.0" encoding="UTF-8" standalone="no"?>
<!DOCTYPE svg PUBLIC "-//W3C//DTD SVG 1.1//EN"
 "http://www.w3.org/Graphics/SVG/1.1/DTD/svg11.dtd">
<!-- Generated by graphviz version 2.40.1 (20161225.0304)
 -->
<!-- Title: Ogre::D3D9StereoDriverImpl Pages: 1 -->
<svg width="330pt" height="140pt"
 viewBox="0.00 0.00 330.00 140.00" xmlns="http://www.w3.org/2000/svg" xmlns:xlink="http://www.w3.org/1999/xlink">
<g id="graph0" class="graph" transform="scale(1 1) rotate(0) translate(4 136)">
<title>Ogre::D3D9StereoDriverImpl</title>
<!-- Node0 -->
<g id="node1" class="node">
<title>Node0</title>
<polygon fill="#bfbfbf" stroke="#000000" points="86.5,-56.5 86.5,-75.5 229.5,-75.5 229.5,-56.5 86.5,-56.5"/>
<text text-anchor="middle" x="158" y="-63.5" font-family="Helvetica,sans-Serif" font-size="10.00" fill="#000000">Ogre::D3D9StereoDriverImpl</text>
</g>
<!-- Node2 -->
<g id="node3" class="node">
<title>Node2</title>
<g id="a_node3"><a xlink:href="class_ogre_1_1_d3_d9_stereo_driver_a_m_d.html" target="_top" xlink:title="Virtual interface of the stereo driver. ">
<polygon fill="none" stroke="#000000" points="0,-.5 0,-19.5 146,-19.5 146,-.5 0,-.5"/>
<text text-anchor="middle" x="73" y="-7.5" font-family="Helvetica,sans-Serif" font-size="10.00" fill="#000000">Ogre::D3D9StereoDriverAMD</text>
</a>
</g>
</g>
<!-- Node0&#45;&gt;Node2 -->
<g id="edge2" class="edge">
<title>Node0&#45;&gt;Node2</title>
<path fill="none" stroke="#191970" d="M134.4581,-50.49C119.461,-40.6096 100.5027,-28.1194 87.6362,-19.6427"/>
<polygon fill="#191970" stroke="#191970" points="132.9179,-53.6666 143.1941,-56.2455 136.7691,-47.8212 132.9179,-53.6666"/>
</g>
<!-- Node3 -->
<g id="node4" class="node">
<title>Node3</title>
<g id="a_node4"><a xlink:href="class_ogre_1_1_d3_d9_stereo_driver_n_v_i_d_i_a.html" target="_top" xlink:title="Interface of the NVIDIA stereo driver. ">
<polygon fill="none" stroke="#000000" points="164,-.5 164,-19.5 322,-19.5 322,-.5 164,-.5"/>
<text text-anchor="middle" x="243" y="-7.5" font-family="Helvetica,sans-Serif" font-size="10.00" fill="#000000">Ogre::D3D9StereoDriverNVIDIA</text>
</a>
</g>
</g>
<!-- Node0&#45;&gt;Node3 -->
<g id="edge3" class="edge">
<title>Node0&#45;&gt;Node3</title>
<path fill="none" stroke="#191970" d="M181.5419,-50.49C196.539,-40.6096 215.4973,-28.1194 228.3638,-19.6427"/>
<polygon fill="#191970" stroke="#191970" points="179.2309,-47.8212 172.8059,-56.2455 183.0821,-53.6666 179.2309,-47.8212"/>
</g>
<!-- Node1 -->
<g id="node2" class="node">
<title>Node1</title>
<g id="a_node2"><a xlink:href="class_ogre_1_1_allocated_object.html" target="_top" xlink:title="ResourceAlloc">
<polygon fill="none" stroke="#000000" points="118,-112.5 118,-131.5 198,-131.5 198,-112.5 118,-112.5"/>
<text text-anchor="middle" x="158" y="-119.5" font-family="Helvetica,sans-Serif" font-size="10.00" fill="#000000">ResourceAlloc</text>
</a>
</g>
</g>
<!-- Node1&#45;&gt;Node0 -->
<g id="edge1" class="edge">
<title>Node1&#45;&gt;Node0</title>
<path fill="none" stroke="#191970" d="M158,-102.1575C158,-93.155 158,-82.9199 158,-75.6427"/>
<polygon fill="#191970" stroke="#191970" points="154.5001,-102.2455 158,-112.2455 161.5001,-102.2456 154.5001,-102.2455"/>
</g>
</g>
</svg>
