<?xml version="1.0" encoding="UTF-8" standalone="no"?>
<!DOCTYPE svg PUBLIC "-//W3C//DTD SVG 1.1//EN"
 "http://www.w3.org/Graphics/SVG/1.1/DTD/svg11.dtd">
<!-- Generated by graphviz version 2.40.1 (20161225.0304)
 -->
<!-- Title: Ogre::GLTextureManager Pages: 1 -->
<svg width="316pt" height="207pt"
 viewBox="0.00 0.00 316.00 207.00" xmlns="http://www.w3.org/2000/svg" xmlns:xlink="http://www.w3.org/1999/xlink">
<g id="graph0" class="graph" transform="scale(1 1) rotate(0) translate(4 203)">
<title>Ogre::GLTextureManager</title>
<!-- Node0 -->
<g id="node1" class="node">
<title>Node0</title>
<polygon fill="#bfbfbf" stroke="#000000" points="109.5,-.5 109.5,-19.5 236.5,-19.5 236.5,-.5 109.5,-.5"/>
<text text-anchor="middle" x="173" y="-7.5" font-family="Helvetica,sans-Serif" font-size="10.00" fill="#000000">Ogre::GLTextureManager</text>
</g>
<!-- Node1 -->
<g id="node2" class="node">
<title>Node1</title>
<g id="a_node2"><a xlink:href="class_ogre_1_1_texture_manager.html" target="_top" xlink:title="Class for loading &amp; managing textures. ">
<polygon fill="none" stroke="#000000" points="116,-56.5 116,-75.5 230,-75.5 230,-56.5 116,-56.5"/>
<text text-anchor="middle" x="173" y="-63.5" font-family="Helvetica,sans-Serif" font-size="10.00" fill="#000000">Ogre::TextureManager</text>
</a>
</g>
</g>
<!-- Node1&#45;&gt;Node0 -->
<g id="edge1" class="edge">
<title>Node1&#45;&gt;Node0</title>
<path fill="none" stroke="#191970" d="M173,-46.1575C173,-37.155 173,-26.9199 173,-19.6427"/>
<polygon fill="#191970" stroke="#191970" points="169.5001,-46.2455 173,-56.2455 176.5001,-46.2456 169.5001,-46.2455"/>
</g>
<!-- Node2 -->
<g id="node3" class="node">
<title>Node2</title>
<g id="a_node3"><a xlink:href="class_ogre_1_1_resource_manager.html" target="_top" xlink:title="Defines a generic resource handler. ">
<polygon fill="none" stroke="#000000" points="40.5,-118 40.5,-137 163.5,-137 163.5,-118 40.5,-118"/>
<text text-anchor="middle" x="102" y="-125" font-family="Helvetica,sans-Serif" font-size="10.00" fill="#000000">Ogre::ResourceManager</text>
</a>
</g>
</g>
<!-- Node2&#45;&gt;Node1 -->
<g id="edge2" class="edge">
<title>Node2&#45;&gt;Node1</title>
<path fill="none" stroke="#191970" d="M120.9932,-111.0482C134.0022,-99.7798 150.8157,-85.216 161.7498,-75.7449"/>
<polygon fill="#191970" stroke="#191970" points="118.3609,-108.6978 113.0938,-117.8906 122.944,-113.9888 118.3609,-108.6978"/>
</g>
<!-- Node3 -->
<g id="node4" class="node">
<title>Node3</title>
<g id="a_node4"><a xlink:href="class_ogre_1_1_script_loader.html" target="_top" xlink:title="Abstract class defining the interface used by classes which wish to perform script loading to define ...">
<polygon fill="none" stroke="#000000" points="0,-179.5 0,-198.5 98,-198.5 98,-179.5 0,-179.5"/>
<text text-anchor="middle" x="49" y="-186.5" font-family="Helvetica,sans-Serif" font-size="10.00" fill="#000000">Ogre::ScriptLoader</text>
</a>
</g>
</g>
<!-- Node3&#45;&gt;Node2 -->
<g id="edge3" class="edge">
<title>Node3&#45;&gt;Node2</title>
<path fill="none" stroke="#191970" d="M64.0172,-171.5744C73.6026,-160.4517 85.6731,-146.4454 93.602,-137.2449"/>
<polygon fill="#191970" stroke="#191970" points="61.1582,-169.5306 57.2813,-179.3906 66.4608,-174.1003 61.1582,-169.5306"/>
</g>
<!-- Node4 -->
<g id="node5" class="node">
<title>Node4</title>
<g id="a_node5"><a xlink:href="class_ogre_1_1_allocated_object.html" target="_top" xlink:title="ResourceAlloc">
<polygon fill="none" stroke="#000000" points="116,-179.5 116,-198.5 196,-198.5 196,-179.5 116,-179.5"/>
<text text-anchor="middle" x="156" y="-186.5" font-family="Helvetica,sans-Serif" font-size="10.00" fill="#000000">ResourceAlloc</text>
</a>
</g>
</g>
<!-- Node4&#45;&gt;Node2 -->
<g id="edge4" class="edge">
<title>Node4&#45;&gt;Node2</title>
<path fill="none" stroke="#191970" d="M140.6995,-171.5744C130.9332,-160.4517 118.635,-146.4454 110.5565,-137.2449"/>
<polygon fill="#191970" stroke="#191970" points="138.3344,-174.1855 147.5625,-179.3906 143.5945,-169.5669 138.3344,-174.1855"/>
</g>
<!-- Node5 -->
<g id="node6" class="node">
<title>Node5</title>
<g id="a_node6"><a xlink:href="class_ogre_1_1_singleton.html" target="_top" xlink:title="Ogre::Singleton\&lt; Texture\lManager \&gt;">
<polygon fill="none" stroke="#000000" points="182,-112.5 182,-142.5 308,-142.5 308,-112.5 182,-112.5"/>
<text text-anchor="start" x="190" y="-130.5" font-family="Helvetica,sans-Serif" font-size="10.00" fill="#000000">Ogre::Singleton&lt; Texture</text>
<text text-anchor="middle" x="245" y="-119.5" font-family="Helvetica,sans-Serif" font-size="10.00" fill="#000000">Manager &gt;</text>
</a>
</g>
</g>
<!-- Node5&#45;&gt;Node1 -->
<g id="edge5" class="edge">
<title>Node5&#45;&gt;Node1</title>
<path fill="none" stroke="#191970" d="M219.3018,-105.5494C207.4087,-95.3907 193.8776,-83.8329 184.5281,-75.8469"/>
<polygon fill="#191970" stroke="#191970" points="217.3253,-108.4642 227.2022,-112.2977 221.8717,-103.1415 217.3253,-108.4642"/>
</g>
</g>
</svg>
