<?xml version="1.0" encoding="UTF-8" standalone="no"?>
<!DOCTYPE svg PUBLIC "-//W3C//DTD SVG 1.1//EN"
 "http://www.w3.org/Graphics/SVG/1.1/DTD/svg11.dtd">
<!-- Generated by graphviz version 2.40.1 (20161225.0304)
 -->
<!-- Title: Ogre::D3D11RenderWindowBase Pages: 1 -->
<svg width="436pt" height="263pt"
 viewBox="0.00 0.00 435.50 263.00" xmlns="http://www.w3.org/2000/svg" xmlns:xlink="http://www.w3.org/1999/xlink">
<g id="graph0" class="graph" transform="scale(1 1) rotate(0) translate(4 259)">
<title>Ogre::D3D11RenderWindowBase</title>
<!-- Node0 -->
<g id="node1" class="node">
<title>Node0</title>
<polygon fill="#bfbfbf" stroke="#000000" points="113,-67.5 113,-86.5 277,-86.5 277,-67.5 113,-67.5"/>
<text text-anchor="middle" x="195" y="-74.5" font-family="Helvetica,sans-Serif" font-size="10.00" fill="#000000">Ogre::D3D11RenderWindowBase</text>
</g>
<!-- Node6 -->
<g id="node7" class="node">
<title>Node6</title>
<g id="a_node7"><a xlink:href="class_ogre_1_1_d3_d11_render_window_swap_chain_based.html" target="_top" xlink:title="Ogre::D3D11RenderWindowSwap\lChainBased">
<polygon fill="none" stroke="#000000" points="112,-.5 112,-30.5 278,-30.5 278,-.5 112,-.5"/>
<text text-anchor="start" x="120" y="-18.5" font-family="Helvetica,sans-Serif" font-size="10.00" fill="#000000">Ogre::D3D11RenderWindowSwap</text>
<text text-anchor="middle" x="195" y="-7.5" font-family="Helvetica,sans-Serif" font-size="10.00" fill="#000000">ChainBased</text>
</a>
</g>
</g>
<!-- Node0&#45;&gt;Node6 -->
<g id="edge6" class="edge">
<title>Node0&#45;&gt;Node6</title>
<path fill="none" stroke="#191970" d="M195,-57.3693C195,-48.681 195,-38.6241 195,-30.5446"/>
<polygon fill="#191970" stroke="#191970" points="191.5001,-57.3906 195,-67.3906 198.5001,-57.3907 191.5001,-57.3906"/>
</g>
<!-- Node1 -->
<g id="node2" class="node">
<title>Node1</title>
<g id="a_node2"><a xlink:href="class_ogre_1_1_render_window.html" target="_top" xlink:title="Manages the target rendering window. ">
<polygon fill="none" stroke="#000000" points="0,-123.5 0,-142.5 110,-142.5 110,-123.5 0,-123.5"/>
<text text-anchor="middle" x="55" y="-130.5" font-family="Helvetica,sans-Serif" font-size="10.00" fill="#000000">Ogre::RenderWindow</text>
</a>
</g>
</g>
<!-- Node1&#45;&gt;Node0 -->
<g id="edge1" class="edge">
<title>Node1&#45;&gt;Node0</title>
<path fill="none" stroke="#191970" d="M88.3649,-119.6541C113.8952,-109.4419 148.4784,-95.6086 171.2472,-86.5011"/>
<polygon fill="#191970" stroke="#191970" points="87.0517,-116.4096 79.0669,-123.3733 89.6515,-122.909 87.0517,-116.4096"/>
</g>
<!-- Node2 -->
<g id="node3" class="node">
<title>Node2</title>
<g id="a_node3"><a xlink:href="class_ogre_1_1_render_target.html" target="_top" xlink:title="A &#39;canvas&#39; which can receive the results of a rendering operation. ">
<polygon fill="none" stroke="#000000" points="3.5,-179.5 3.5,-198.5 106.5,-198.5 106.5,-179.5 3.5,-179.5"/>
<text text-anchor="middle" x="55" y="-186.5" font-family="Helvetica,sans-Serif" font-size="10.00" fill="#000000">Ogre::RenderTarget</text>
</a>
</g>
</g>
<!-- Node2&#45;&gt;Node1 -->
<g id="edge2" class="edge">
<title>Node2&#45;&gt;Node1</title>
<path fill="none" stroke="#191970" d="M55,-169.1575C55,-160.155 55,-149.9199 55,-142.6427"/>
<polygon fill="#191970" stroke="#191970" points="51.5001,-169.2455 55,-179.2455 58.5001,-169.2456 51.5001,-169.2455"/>
</g>
<!-- Node3 -->
<g id="node4" class="node">
<title>Node3</title>
<g id="a_node4"><a xlink:href="class_ogre_1_1_allocated_object.html" target="_top" xlink:title="RenderSysAlloc">
<polygon fill="none" stroke="#000000" points="11.5,-235.5 11.5,-254.5 98.5,-254.5 98.5,-235.5 11.5,-235.5"/>
<text text-anchor="middle" x="55" y="-242.5" font-family="Helvetica,sans-Serif" font-size="10.00" fill="#000000">RenderSysAlloc</text>
</a>
</g>
</g>
<!-- Node3&#45;&gt;Node2 -->
<g id="edge3" class="edge">
<title>Node3&#45;&gt;Node2</title>
<path fill="none" stroke="#191970" d="M55,-225.1575C55,-216.155 55,-205.9199 55,-198.6427"/>
<polygon fill="#191970" stroke="#191970" points="51.5001,-225.2455 55,-235.2455 58.5001,-225.2456 51.5001,-225.2455"/>
</g>
<!-- Node4 -->
<g id="node5" class="node">
<title>Node4</title>
<g id="a_node5"><a xlink:href="class_ogre_1_1_d3_d11_render_target.html" target="_top" xlink:title="Ogre::D3D11RenderTarget">
<polygon fill="none" stroke="#000000" points="128,-123.5 128,-142.5 262,-142.5 262,-123.5 128,-123.5"/>
<text text-anchor="middle" x="195" y="-130.5" font-family="Helvetica,sans-Serif" font-size="10.00" fill="#000000">Ogre::D3D11RenderTarget</text>
</a>
</g>
</g>
<!-- Node4&#45;&gt;Node0 -->
<g id="edge4" class="edge">
<title>Node4&#45;&gt;Node0</title>
<path fill="none" stroke="#191970" d="M195,-113.1575C195,-104.155 195,-93.9199 195,-86.6427"/>
<polygon fill="#191970" stroke="#191970" points="191.5001,-113.2455 195,-123.2455 198.5001,-113.2456 191.5001,-113.2455"/>
</g>
<!-- Node5 -->
<g id="node6" class="node">
<title>Node5</title>
<g id="a_node6"><a xlink:href="class_ogre_1_1_d3_d11_device_resource.html" target="_top" xlink:title="Represents a Direct3D rendering resource. ">
<polygon fill="none" stroke="#000000" points="280.5,-123.5 280.5,-142.5 427.5,-142.5 427.5,-123.5 280.5,-123.5"/>
<text text-anchor="middle" x="354" y="-130.5" font-family="Helvetica,sans-Serif" font-size="10.00" fill="#000000">Ogre::D3D11DeviceResource</text>
</a>
</g>
</g>
<!-- Node5&#45;&gt;Node0 -->
<g id="edge5" class="edge">
<title>Node5&#45;&gt;Node0</title>
<path fill="none" stroke="#8b1a1a" d="M316.871,-119.9231C287.805,-109.686 248.0631,-95.6889 221.9764,-86.5011"/>
<polygon fill="#8b1a1a" stroke="#8b1a1a" points="316.0721,-123.3524 326.6669,-123.3733 318.3975,-116.75 316.0721,-123.3524"/>
</g>
</g>
</svg>
