<?xml version="1.0" encoding="UTF-8" standalone="no"?>
<!DOCTYPE svg PUBLIC "-//W3C//DTD SVG 1.1//EN"
 "http://www.w3.org/Graphics/SVG/1.1/DTD/svg11.dtd">
<!-- Generated by graphviz version 2.43.0 (0)
 -->
<!-- Title: Ogre::RTShader::ProgramProcessor Pages: 1 -->
<svg width="567pt" height="186pt"
 viewBox="0.00 0.00 567.00 186.00" xmlns="http://www.w3.org/2000/svg" xmlns:xlink="http://www.w3.org/1999/xlink">
<g id="graph0" class="graph" transform="scale(1 1) rotate(0) translate(4 182)">
<title>Ogre::RTShader::ProgramProcessor</title>
<!-- Node1 -->
<g id="node1" class="node">
<title>Node1</title>
<g id="a_node1"><a xlink:title="A class that provides extra processing services on CPU based programs.">
<polygon fill="#bfbfbf" stroke="black" points="160,-79 160,-98 347,-98 347,-79 160,-79"/>
<text text-anchor="middle" x="253.5" y="-86" font-family="Helvetica,sans-Serif" font-size="10.00">Ogre::RTShader::ProgramProcessor</text>
</a>
</g>
</g>
<!-- Node3 -->
<g id="node3" class="node">
<title>Node3</title>
<g id="a_node3"><a xlink:href="class_ogre_1_1_r_t_shader_1_1_c_g_program_processor.html" target="_top" xlink:title="CG Language program processor class.">
<polygon fill="none" stroke="black" points="394,-147.5 394,-177.5 548,-177.5 548,-147.5 394,-147.5"/>
<text text-anchor="start" x="402" y="-165.5" font-family="Helvetica,sans-Serif" font-size="10.00">Ogre::RTShader::CGProgram</text>
<text text-anchor="middle" x="471" y="-154.5" font-family="Helvetica,sans-Serif" font-size="10.00">Processor</text>
</a>
</g>
</g>
<!-- Node1&#45;&gt;Node3 -->
<g id="edge2" class="edge">
<title>Node1&#45;&gt;Node3</title>
<path fill="none" stroke="midnightblue" d="M286.28,-101.91C312.09,-112.54 349.55,-127.41 383,-138.5 392.37,-141.61 402.4,-144.64 412.19,-147.44"/>
<polygon fill="midnightblue" stroke="midnightblue" points="287.57,-98.66 276.99,-98.06 284.89,-105.12 287.57,-98.66"/>
</g>
<!-- Node4 -->
<g id="node4" class="node">
<title>Node4</title>
<g id="a_node4"><a xlink:href="class_ogre_1_1_r_t_shader_1_1_g_l_s_l_e_s_program_processor.html" target="_top" xlink:title="GLSL ES Language program processor class.">
<polygon fill="none" stroke="black" points="383,-98.5 383,-128.5 559,-128.5 559,-98.5 383,-98.5"/>
<text text-anchor="start" x="391" y="-116.5" font-family="Helvetica,sans-Serif" font-size="10.00">Ogre::RTShader::GLSLESProgram</text>
<text text-anchor="middle" x="471" y="-105.5" font-family="Helvetica,sans-Serif" font-size="10.00">Processor</text>
</a>
</g>
</g>
<!-- Node1&#45;&gt;Node4 -->
<g id="edge3" class="edge">
<title>Node1&#45;&gt;Node4</title>
<path fill="none" stroke="midnightblue" d="M346.59,-99.18C358.59,-100.57 370.85,-102 382.76,-103.38"/>
<polygon fill="midnightblue" stroke="midnightblue" points="346.92,-95.7 336.59,-98.02 346.12,-102.65 346.92,-95.7"/>
</g>
<!-- Node5 -->
<g id="node5" class="node">
<title>Node5</title>
<g id="a_node5"><a xlink:href="class_ogre_1_1_r_t_shader_1_1_g_l_s_l_program_processor.html" target="_top" xlink:title="GLSL Language program processor class.">
<polygon fill="none" stroke="black" points="389,-49.5 389,-79.5 553,-79.5 553,-49.5 389,-49.5"/>
<text text-anchor="start" x="397" y="-67.5" font-family="Helvetica,sans-Serif" font-size="10.00">Ogre::RTShader::GLSLProgram</text>
<text text-anchor="middle" x="471" y="-56.5" font-family="Helvetica,sans-Serif" font-size="10.00">Processor</text>
</a>
</g>
</g>
<!-- Node1&#45;&gt;Node5 -->
<g id="edge4" class="edge">
<title>Node1&#45;&gt;Node5</title>
<path fill="none" stroke="midnightblue" d="M350.25,-77.84C363.13,-76.4 376.24,-74.94 388.84,-73.54"/>
<polygon fill="midnightblue" stroke="midnightblue" points="349.53,-74.39 339.98,-78.98 350.31,-81.35 349.53,-74.39"/>
</g>
<!-- Node6 -->
<g id="node6" class="node">
<title>Node6</title>
<g id="a_node6"><a xlink:href="class_ogre_1_1_r_t_shader_1_1_h_l_s_l_program_processor.html" target="_top" xlink:title="CG Language program processor class.">
<polygon fill="none" stroke="black" points="389,-0.5 389,-30.5 553,-30.5 553,-0.5 389,-0.5"/>
<text text-anchor="start" x="397" y="-18.5" font-family="Helvetica,sans-Serif" font-size="10.00">Ogre::RTShader::HLSLProgram</text>
<text text-anchor="middle" x="471" y="-7.5" font-family="Helvetica,sans-Serif" font-size="10.00">Processor</text>
</a>
</g>
</g>
<!-- Node1&#45;&gt;Node6 -->
<g id="edge5" class="edge">
<title>Node1&#45;&gt;Node6</title>
<path fill="none" stroke="midnightblue" d="M286.78,-75.21C312.58,-64.83 349.81,-50.38 383,-39.5 392.38,-36.43 402.41,-33.41 412.21,-30.61"/>
<polygon fill="midnightblue" stroke="midnightblue" points="285.43,-71.98 277.48,-78.98 288.06,-78.47 285.43,-71.98"/>
</g>
<!-- Node2 -->
<g id="node2" class="node">
<title>Node2</title>
<g id="a_node2"><a xlink:title=" ">
<polygon fill="none" stroke="#bfbfbf" points="0,-79 0,-98 124,-98 124,-79 0,-79"/>
<text text-anchor="middle" x="62" y="-86" font-family="Helvetica,sans-Serif" font-size="10.00">RTShaderSystemAlloc</text>
</a>
</g>
</g>
<!-- Node2&#45;&gt;Node1 -->
<g id="edge1" class="edge">
<title>Node2&#45;&gt;Node1</title>
<path fill="none" stroke="midnightblue" d="M134.12,-88.5C142.54,-88.5 151.22,-88.5 159.88,-88.5"/>
<polygon fill="midnightblue" stroke="midnightblue" points="134,-85 124,-88.5 134,-92 134,-85"/>
</g>
</g>
</svg>
