<?xml version="1.0" encoding="UTF-8" standalone="no"?>
<!DOCTYPE svg PUBLIC "-//W3C//DTD SVG 1.1//EN"
 "http://www.w3.org/Graphics/SVG/1.1/DTD/svg11.dtd">
<!-- Generated by graphviz version 2.43.0 (0)
 -->
<!-- Title: Ogre::GLSLShader Pages: 1 -->
<svg width="163pt" height="308pt"
 viewBox="0.00 0.00 163.00 308.00" xmlns="http://www.w3.org/2000/svg" xmlns:xlink="http://www.w3.org/1999/xlink">
<g id="graph0" class="graph" transform="scale(1 1) rotate(0) translate(4 304)">
<title>Ogre::GLSLShader</title>
<!-- Node1 -->
<g id="node1" class="node">
<title>Node1</title>
<g id="a_node1"><a xlink:title=" ">
<polygon fill="#bfbfbf" stroke="black" points="25.5,-56.5 25.5,-75.5 129.5,-75.5 129.5,-56.5 25.5,-56.5"/>
<text text-anchor="middle" x="77.5" y="-63.5" font-family="Helvetica,sans-Serif" font-size="10.00">Ogre::GLSLShader</text>
</a>
</g>
</g>
<!-- Node8 -->
<g id="node6" class="node">
<title>Node8</title>
<g id="a_node6"><a xlink:href="class_ogre_1_1_s_p_i_r_v_shader.html" target="_top" xlink:title=" ">
<polygon fill="none" stroke="black" points="23.5,-0.5 23.5,-19.5 131.5,-19.5 131.5,-0.5 23.5,-0.5"/>
<text text-anchor="middle" x="77.5" y="-7.5" font-family="Helvetica,sans-Serif" font-size="10.00">Ogre::SPIRVShader</text>
</a>
</g>
</g>
<!-- Node1&#45;&gt;Node8 -->
<g id="edge5" class="edge">
<title>Node1&#45;&gt;Node8</title>
<path fill="none" stroke="midnightblue" d="M77.5,-45.8C77.5,-36.91 77.5,-26.78 77.5,-19.75"/>
<polygon fill="midnightblue" stroke="midnightblue" points="74,-46.08 77.5,-56.08 81,-46.08 74,-46.08"/>
</g>
<!-- Node2 -->
<g id="node2" class="node">
<title>Node2</title>
<g id="a_node2"><a xlink:href="class_ogre_1_1_g_l_s_l_shader_common.html" target="_top" xlink:title="Specialisation of HighLevelGpuProgram to provide support for OpenGL Shader Language (GLSL).">
<polygon fill="none" stroke="black" points="3.5,-112.5 3.5,-131.5 151.5,-131.5 151.5,-112.5 3.5,-112.5"/>
<text text-anchor="middle" x="77.5" y="-119.5" font-family="Helvetica,sans-Serif" font-size="10.00">Ogre::GLSLShaderCommon</text>
</a>
</g>
</g>
<!-- Node2&#45;&gt;Node1 -->
<g id="edge1" class="edge">
<title>Node2&#45;&gt;Node1</title>
<path fill="none" stroke="midnightblue" d="M77.5,-101.8C77.5,-92.91 77.5,-82.78 77.5,-75.75"/>
<polygon fill="midnightblue" stroke="midnightblue" points="74,-102.08 77.5,-112.08 81,-102.08 74,-102.08"/>
</g>
<!-- Node3 -->
<g id="node3" class="node">
<title>Node3</title>
<g id="a_node3"><a xlink:href="class_ogre_1_1_high_level_gpu_program.html" target="_top" xlink:title="Abstract base class representing a high&#45;level program (a vertex or fragment program).">
<polygon fill="none" stroke="black" points="0,-168.5 0,-187.5 155,-187.5 155,-168.5 0,-168.5"/>
<text text-anchor="middle" x="77.5" y="-175.5" font-family="Helvetica,sans-Serif" font-size="10.00">Ogre::HighLevelGpuProgram</text>
</a>
</g>
</g>
<!-- Node3&#45;&gt;Node2 -->
<g id="edge2" class="edge">
<title>Node3&#45;&gt;Node2</title>
<path fill="none" stroke="midnightblue" d="M77.5,-157.8C77.5,-148.91 77.5,-138.78 77.5,-131.75"/>
<polygon fill="midnightblue" stroke="midnightblue" points="74,-158.08 77.5,-168.08 81,-158.08 74,-158.08"/>
</g>
<!-- Node4 -->
<g id="node4" class="node">
<title>Node4</title>
<g id="a_node4"><a xlink:href="class_ogre_1_1_gpu_program.html" target="_top" xlink:title="Defines a program which runs on the GPU such as a vertex or fragment program.">
<polygon fill="none" stroke="black" points="24,-224.5 24,-243.5 131,-243.5 131,-224.5 24,-224.5"/>
<text text-anchor="middle" x="77.5" y="-231.5" font-family="Helvetica,sans-Serif" font-size="10.00">Ogre::GpuProgram</text>
</a>
</g>
</g>
<!-- Node4&#45;&gt;Node3 -->
<g id="edge3" class="edge">
<title>Node4&#45;&gt;Node3</title>
<path fill="none" stroke="midnightblue" d="M77.5,-213.8C77.5,-204.91 77.5,-194.78 77.5,-187.75"/>
<polygon fill="midnightblue" stroke="midnightblue" points="74,-214.08 77.5,-224.08 81,-214.08 74,-214.08"/>
</g>
<!-- Node5 -->
<g id="node5" class="node">
<title>Node5</title>
<g id="a_node5"><a xlink:href="class_ogre_1_1_resource.html" target="_top" xlink:title="Abstract class representing a loadable resource.">
<polygon fill="none" stroke="red" points="32,-280.5 32,-299.5 123,-299.5 123,-280.5 32,-280.5"/>
<text text-anchor="middle" x="77.5" y="-287.5" font-family="Helvetica,sans-Serif" font-size="10.00">Ogre::Resource</text>
</a>
</g>
</g>
<!-- Node5&#45;&gt;Node4 -->
<g id="edge4" class="edge">
<title>Node5&#45;&gt;Node4</title>
<path fill="none" stroke="midnightblue" d="M77.5,-269.8C77.5,-260.91 77.5,-250.78 77.5,-243.75"/>
<polygon fill="midnightblue" stroke="midnightblue" points="74,-270.08 77.5,-280.08 81,-270.08 74,-270.08"/>
</g>
</g>
</svg>
