<?xml version="1.0" encoding="UTF-8" standalone="no"?>
<!DOCTYPE svg PUBLIC "-//W3C//DTD SVG 1.1//EN"
 "http://www.w3.org/Graphics/SVG/1.1/DTD/svg11.dtd">
<!-- Generated by graphviz version 2.43.0 (0)
 -->
<!-- Title: Ogre::GL3PlusHardwareOcclusionQuery Pages: 1 -->
<svg width="187pt" height="151pt"
 viewBox="0.00 0.00 187.00 151.00" xmlns="http://www.w3.org/2000/svg" xmlns:xlink="http://www.w3.org/1999/xlink">
<g id="graph0" class="graph" transform="scale(1 1) rotate(0) translate(4 147)">
<title>Ogre::GL3PlusHardwareOcclusionQuery</title>
<!-- Node1 -->
<g id="node1" class="node">
<title>Node1</title>
<g id="a_node1"><a xlink:title="This is a class that is the base class of the query class for hardware occlusion.">
<polygon fill="#bfbfbf" stroke="black" points="0,-0.5 0,-30.5 179,-30.5 179,-0.5 0,-0.5"/>
<text text-anchor="start" x="8" y="-18.5" font-family="Helvetica,sans-Serif" font-size="10.00">Ogre::GL3PlusHardwareOcclusion</text>
<text text-anchor="middle" x="89.5" y="-7.5" font-family="Helvetica,sans-Serif" font-size="10.00">Query</text>
</a>
</g>
</g>
<!-- Node2 -->
<g id="node2" class="node">
<title>Node2</title>
<g id="a_node2"><a xlink:href="class_ogre_1_1_hardware_occlusion_query.html" target="_top" xlink:title="This is a abstract class that that provides the interface for the query class for hardware occlusion.">
<polygon fill="none" stroke="black" points="4.5,-67.5 4.5,-86.5 174.5,-86.5 174.5,-67.5 4.5,-67.5"/>
<text text-anchor="middle" x="89.5" y="-74.5" font-family="Helvetica,sans-Serif" font-size="10.00">Ogre::HardwareOcclusionQuery</text>
</a>
</g>
</g>
<!-- Node2&#45;&gt;Node1 -->
<g id="edge1" class="edge">
<title>Node2&#45;&gt;Node1</title>
<path fill="none" stroke="midnightblue" d="M89.5,-57.23C89.5,-48.59 89.5,-38.5 89.5,-30.52"/>
<polygon fill="midnightblue" stroke="midnightblue" points="86,-57.48 89.5,-67.48 93,-57.48 86,-57.48"/>
</g>
<!-- Node3 -->
<g id="node3" class="node">
<title>Node3</title>
<g id="a_node3"><a xlink:title=" ">
<polygon fill="none" stroke="#bfbfbf" points="43.5,-123.5 43.5,-142.5 135.5,-142.5 135.5,-123.5 43.5,-123.5"/>
<text text-anchor="middle" x="89.5" y="-130.5" font-family="Helvetica,sans-Serif" font-size="10.00">RenderSysAlloc</text>
</a>
</g>
</g>
<!-- Node3&#45;&gt;Node2 -->
<g id="edge2" class="edge">
<title>Node3&#45;&gt;Node2</title>
<path fill="none" stroke="midnightblue" d="M89.5,-112.8C89.5,-103.91 89.5,-93.78 89.5,-86.75"/>
<polygon fill="midnightblue" stroke="midnightblue" points="86,-113.08 89.5,-123.08 93,-113.08 86,-113.08"/>
</g>
</g>
</svg>
