<?xml version="1.0" encoding="UTF-8" standalone="no"?>
<!DOCTYPE svg PUBLIC "-//W3C//DTD SVG 1.1//EN"
 "http://www.w3.org/Graphics/SVG/1.1/DTD/svg11.dtd">
<!-- Generated by graphviz version 2.40.1 (20161225.0304)
 -->
<!-- Title: Ogre::VertexDeclaration Pages: 1 -->
<svg width="481pt" height="140pt"
 viewBox="0.00 0.00 480.50 140.00" xmlns="http://www.w3.org/2000/svg" xmlns:xlink="http://www.w3.org/1999/xlink">
<g id="graph0" class="graph" transform="scale(1 1) rotate(0) translate(4 136)">
<title>Ogre::VertexDeclaration</title>
<!-- Node0 -->
<g id="node1" class="node">
<title>Node0</title>
<polygon fill="#bfbfbf" stroke="#000000" points="183,-56.5 183,-75.5 305,-75.5 305,-56.5 183,-56.5"/>
<text text-anchor="middle" x="244" y="-63.5" font-family="Helvetica,sans-Serif" font-size="10.00" fill="#000000">Ogre::VertexDeclaration</text>
</g>
<!-- Node2 -->
<g id="node3" class="node">
<title>Node2</title>
<g id="a_node3"><a xlink:href="class_ogre_1_1_d3_d11_vertex_declaration.html" target="_top" xlink:title="Specialisation of VertexDeclaration for D3D11. ">
<polygon fill="none" stroke="#000000" points="0,-.5 0,-19.5 152,-19.5 152,-.5 0,-.5"/>
<text text-anchor="middle" x="76" y="-7.5" font-family="Helvetica,sans-Serif" font-size="10.00" fill="#000000">Ogre::D3D11VertexDeclaration</text>
</a>
</g>
</g>
<!-- Node0&#45;&gt;Node2 -->
<g id="edge2" class="edge">
<title>Node0&#45;&gt;Node2</title>
<path fill="none" stroke="#191970" d="M205.5714,-53.1905C174.7927,-42.9309 132.3074,-28.7691 104.5034,-19.5011"/>
<polygon fill="#191970" stroke="#191970" points="204.5261,-56.5313 215.1198,-56.3733 206.7398,-49.8905 204.5261,-56.5313"/>
</g>
<!-- Node3 -->
<g id="node4" class="node">
<title>Node3</title>
<g id="a_node4"><a xlink:href="class_ogre_1_1_d3_d9_vertex_declaration.html" target="_top" xlink:title="Specialisation of VertexDeclaration for D3D9. ">
<polygon fill="none" stroke="#000000" points="170.5,-.5 170.5,-19.5 317.5,-19.5 317.5,-.5 170.5,-.5"/>
<text text-anchor="middle" x="244" y="-7.5" font-family="Helvetica,sans-Serif" font-size="10.00" fill="#000000">Ogre::D3D9VertexDeclaration</text>
</a>
</g>
</g>
<!-- Node0&#45;&gt;Node3 -->
<g id="edge3" class="edge">
<title>Node0&#45;&gt;Node3</title>
<path fill="none" stroke="#191970" d="M244,-46.1575C244,-37.155 244,-26.9199 244,-19.6427"/>
<polygon fill="#191970" stroke="#191970" points="240.5001,-46.2455 244,-56.2455 247.5001,-46.2456 240.5001,-46.2455"/>
</g>
<!-- Node4 -->
<g id="node5" class="node">
<title>Node4</title>
<g id="a_node5"><a xlink:href="class_ogre_1_1_g_l_vertex_array_object.html" target="_top" xlink:title="Specialisation of VertexDeclaration for OpenGL Vertex Array Object usage. ">
<polygon fill="none" stroke="#000000" points="335.5,-.5 335.5,-19.5 472.5,-19.5 472.5,-.5 335.5,-.5"/>
<text text-anchor="middle" x="404" y="-7.5" font-family="Helvetica,sans-Serif" font-size="10.00" fill="#000000">Ogre::GLVertexArrayObject</text>
</a>
</g>
</g>
<!-- Node0&#45;&gt;Node4 -->
<g id="edge4" class="edge">
<title>Node0&#45;&gt;Node4</title>
<path fill="none" stroke="#191970" d="M280.9799,-53.057C310.2618,-42.8084 350.4885,-28.729 376.8539,-19.5011"/>
<polygon fill="#191970" stroke="#191970" points="279.7873,-49.7662 271.505,-56.3733 282.0998,-56.3732 279.7873,-49.7662"/>
</g>
<!-- Node1 -->
<g id="node2" class="node">
<title>Node1</title>
<g id="a_node2"><a xlink:href="class_ogre_1_1_allocated_object.html" target="_top" xlink:title="VertexDataAlloc">
<polygon fill="none" stroke="#000000" points="200,-112.5 200,-131.5 288,-131.5 288,-112.5 200,-112.5"/>
<text text-anchor="middle" x="244" y="-119.5" font-family="Helvetica,sans-Serif" font-size="10.00" fill="#000000">VertexDataAlloc</text>
</a>
</g>
</g>
<!-- Node1&#45;&gt;Node0 -->
<g id="edge1" class="edge">
<title>Node1&#45;&gt;Node0</title>
<path fill="none" stroke="#191970" d="M244,-102.1575C244,-93.155 244,-82.9199 244,-75.6427"/>
<polygon fill="#191970" stroke="#191970" points="240.5001,-102.2455 244,-112.2455 247.5001,-102.2456 240.5001,-102.2455"/>
</g>
</g>
</svg>
