<?xml version="1.0" encoding="UTF-8" standalone="no"?>
<!DOCTYPE svg PUBLIC "-//W3C//DTD SVG 1.1//EN"
 "http://www.w3.org/Graphics/SVG/1.1/DTD/svg11.dtd">
<!-- Generated by graphviz version 2.43.0 (0)
 -->
<!-- Title: Ogre::DistanceLodSphereStrategy Pages: 1 -->
<svg width="344pt" height="207pt"
 viewBox="0.00 0.00 343.50 207.00" xmlns="http://www.w3.org/2000/svg" xmlns:xlink="http://www.w3.org/1999/xlink">
<g id="graph0" class="graph" transform="scale(1 1) rotate(0) translate(4 203)">
<title>Ogre::DistanceLodSphereStrategy</title>
<!-- Node1 -->
<g id="node1" class="node">
<title>Node1</title>
<g id="a_node1"><a xlink:title="Level of detail strategy based on distance from camera to an object&#39;s bounding sphere.">
<polygon fill="#bfbfbf" stroke="black" points="83,-0.5 83,-19.5 264,-19.5 264,-0.5 83,-0.5"/>
<text text-anchor="middle" x="173.5" y="-7.5" font-family="Helvetica,sans-Serif" font-size="10.00">Ogre::DistanceLodSphereStrategy</text>
</a>
</g>
</g>
<!-- Node2 -->
<g id="node2" class="node">
<title>Node2</title>
<g id="a_node2"><a xlink:href="class_ogre_1_1_distance_lod_strategy_base.html" target="_top" xlink:title="Level of detail strategy based on distance from camera.">
<polygon fill="none" stroke="black" points="0,-62 0,-81 171,-81 171,-62 0,-62"/>
<text text-anchor="middle" x="85.5" y="-69" font-family="Helvetica,sans-Serif" font-size="10.00">Ogre::DistanceLodStrategyBase</text>
</a>
</g>
</g>
<!-- Node2&#45;&gt;Node1 -->
<g id="edge1" class="edge">
<title>Node2&#45;&gt;Node1</title>
<path fill="none" stroke="midnightblue" d="M106.78,-56.11C123.7,-44.67 146.81,-29.05 160.92,-19.51"/>
<polygon fill="midnightblue" stroke="midnightblue" points="104.43,-53.47 98.11,-61.98 108.35,-59.27 104.43,-53.47"/>
</g>
<!-- Node3 -->
<g id="node3" class="node">
<title>Node3</title>
<g id="a_node3"><a xlink:href="class_ogre_1_1_lod_strategy.html" target="_top" xlink:title="Strategy for determining level of detail.">
<polygon fill="none" stroke="black" points="33.5,-123.5 33.5,-142.5 137.5,-142.5 137.5,-123.5 33.5,-123.5"/>
<text text-anchor="middle" x="85.5" y="-130.5" font-family="Helvetica,sans-Serif" font-size="10.00">Ogre::LodStrategy</text>
</a>
</g>
</g>
<!-- Node3&#45;&gt;Node2 -->
<g id="edge2" class="edge">
<title>Node3&#45;&gt;Node2</title>
<path fill="none" stroke="midnightblue" d="M85.5,-113.32C85.5,-102.5 85.5,-89.4 85.5,-81.01"/>
<polygon fill="midnightblue" stroke="midnightblue" points="82,-113.48 85.5,-123.48 89,-113.48 82,-113.48"/>
</g>
<!-- Node4 -->
<g id="node4" class="node">
<title>Node4</title>
<g id="a_node4"><a xlink:title=" ">
<polygon fill="none" stroke="#bfbfbf" points="56.5,-179.5 56.5,-198.5 114.5,-198.5 114.5,-179.5 56.5,-179.5"/>
<text text-anchor="middle" x="85.5" y="-186.5" font-family="Helvetica,sans-Serif" font-size="10.00">LodAlloc</text>
</a>
</g>
</g>
<!-- Node4&#45;&gt;Node3 -->
<g id="edge3" class="edge">
<title>Node4&#45;&gt;Node3</title>
<path fill="none" stroke="midnightblue" d="M85.5,-168.8C85.5,-159.91 85.5,-149.78 85.5,-142.75"/>
<polygon fill="midnightblue" stroke="midnightblue" points="82,-169.08 85.5,-179.08 89,-169.08 82,-169.08"/>
</g>
<!-- Node5 -->
<g id="node5" class="node">
<title>Node5</title>
<g id="a_node5"><a xlink:href="class_ogre_1_1_singleton.html" target="_top" xlink:title=" ">
<polygon fill="none" stroke="black" points="189.5,-56.5 189.5,-86.5 335.5,-86.5 335.5,-56.5 189.5,-56.5"/>
<text text-anchor="start" x="197.5" y="-74.5" font-family="Helvetica,sans-Serif" font-size="10.00">Ogre::Singleton&lt; Distance</text>
<text text-anchor="middle" x="262.5" y="-63.5" font-family="Helvetica,sans-Serif" font-size="10.00">LodSphereStrategy &gt;</text>
</a>
</g>
</g>
<!-- Node5&#45;&gt;Node1 -->
<g id="edge4" class="edge">
<title>Node5&#45;&gt;Node1</title>
<path fill="none" stroke="midnightblue" d="M233,-50.78C217.22,-40.23 198.6,-27.78 186.45,-19.66"/>
<polygon fill="midnightblue" stroke="midnightblue" points="231.15,-53.75 241.41,-56.4 235.04,-47.93 231.15,-53.75"/>
</g>
</g>
</svg>
