<?xml version="1.0" encoding="UTF-8" standalone="no"?>
<!DOCTYPE svg PUBLIC "-//W3C//DTD SVG 1.1//EN"
 "http://www.w3.org/Graphics/SVG/1.1/DTD/svg11.dtd">
<!-- Generated by graphviz version 2.43.0 (0)
 -->
<!-- Title: Ogre::ScreenRatioPixelCountLodStrategy Pages: 1 -->
<svg width="616pt" height="78pt"
 viewBox="0.00 0.00 616.00 77.50" xmlns="http://www.w3.org/2000/svg" xmlns:xlink="http://www.w3.org/1999/xlink">
<g id="graph0" class="graph" transform="scale(1 1) rotate(0) translate(4 73.5)">
<title>Ogre::ScreenRatioPixelCountLodStrategy</title>
<!-- Node1 -->
<g id="node1" class="node">
<title>Node1</title>
<g id="a_node1"><a xlink:title=" ">
<polygon fill="#bfbfbf" stroke="black" points="451,-22.5 451,-52.5 608,-52.5 608,-22.5 451,-22.5"/>
<text text-anchor="start" x="459" y="-40.5" font-family="Helvetica,sans-Serif" font-size="10.00">Ogre::ScreenRatioPixelCount</text>
<text text-anchor="middle" x="529.5" y="-29.5" font-family="Helvetica,sans-Serif" font-size="10.00">LodStrategy</text>
</a>
</g>
</g>
<!-- Node2 -->
<g id="node2" class="node">
<title>Node2</title>
<g id="a_node2"><a xlink:href="class_ogre_1_1_pixel_count_lod_strategy_base.html" target="_top" xlink:title="Abstract base class for level of detail strategy based on pixel count approximations from bounding sp...">
<polygon fill="none" stroke="black" points="234,-50 234,-69 415,-69 415,-50 234,-50"/>
<text text-anchor="middle" x="324.5" y="-57" font-family="Helvetica,sans-Serif" font-size="10.00">Ogre::PixelCountLodStrategyBase</text>
</a>
</g>
</g>
<!-- Node2&#45;&gt;Node1 -->
<g id="edge1" class="edge">
<title>Node2&#45;&gt;Node1</title>
<path fill="none" stroke="midnightblue" d="M423.31,-48.9C432.5,-47.9 441.74,-46.9 450.72,-45.93"/>
<polygon fill="midnightblue" stroke="midnightblue" points="422.92,-45.42 413.36,-49.98 423.68,-52.38 422.92,-45.42"/>
</g>
<!-- Node3 -->
<g id="node3" class="node">
<title>Node3</title>
<g id="a_node3"><a xlink:href="class_ogre_1_1_lod_strategy.html" target="_top" xlink:title="Strategy for determining level of detail.">
<polygon fill="none" stroke="black" points="94,-50 94,-69 198,-69 198,-50 94,-50"/>
<text text-anchor="middle" x="146" y="-57" font-family="Helvetica,sans-Serif" font-size="10.00">Ogre::LodStrategy</text>
</a>
</g>
</g>
<!-- Node3&#45;&gt;Node2 -->
<g id="edge2" class="edge">
<title>Node3&#45;&gt;Node2</title>
<path fill="none" stroke="midnightblue" d="M208.08,-59.5C216.46,-59.5 225.21,-59.5 233.98,-59.5"/>
<polygon fill="midnightblue" stroke="midnightblue" points="208.05,-56 198.05,-59.5 208.05,-63 208.05,-56"/>
</g>
<!-- Node4 -->
<g id="node4" class="node">
<title>Node4</title>
<g id="a_node4"><a xlink:title=" ">
<polygon fill="none" stroke="#bfbfbf" points="0,-50 0,-69 58,-69 58,-50 0,-50"/>
<text text-anchor="middle" x="29" y="-57" font-family="Helvetica,sans-Serif" font-size="10.00">LodAlloc</text>
</a>
</g>
</g>
<!-- Node4&#45;&gt;Node3 -->
<g id="edge3" class="edge">
<title>Node4&#45;&gt;Node3</title>
<path fill="none" stroke="midnightblue" d="M68.16,-59.5C76.38,-59.5 85.2,-59.5 93.82,-59.5"/>
<polygon fill="midnightblue" stroke="midnightblue" points="68.13,-56 58.13,-59.5 68.13,-63 68.13,-56"/>
</g>
<!-- Node5 -->
<g id="node5" class="node">
<title>Node5</title>
<g id="a_node5"><a xlink:href="class_ogre_1_1_singleton.html" target="_top" xlink:title=" ">
<polygon fill="none" stroke="black" points="244,-0.5 244,-30.5 405,-30.5 405,-0.5 244,-0.5"/>
<text text-anchor="start" x="252" y="-18.5" font-family="Helvetica,sans-Serif" font-size="10.00">Ogre::Singleton&lt; ScreenRatio</text>
<text text-anchor="middle" x="324.5" y="-7.5" font-family="Helvetica,sans-Serif" font-size="10.00">PixelCountLodStrategy &gt;</text>
</a>
</g>
</g>
<!-- Node5&#45;&gt;Node1 -->
<g id="edge4" class="edge">
<title>Node5&#45;&gt;Node1</title>
<path fill="none" stroke="midnightblue" d="M415.43,-25.25C427.2,-26.52 439.19,-27.82 450.74,-29.07"/>
<polygon fill="midnightblue" stroke="midnightblue" points="415.47,-21.73 405.15,-24.13 414.71,-28.69 415.47,-21.73"/>
</g>
</g>
</svg>
