<?xml version="1.0" encoding="UTF-8" standalone="no"?>
<!DOCTYPE svg PUBLIC "-//W3C//DTD SVG 1.1//EN"
 "http://www.w3.org/Graphics/SVG/1.1/DTD/svg11.dtd">
<!-- Generated by graphviz version 2.43.0 (0)
 -->
<!-- Title: Ogre::AxisAlignedBoxSceneQuery Pages: 1 -->
<svg width="352pt" height="341pt"
 viewBox="0.00 0.00 352.00 341.00" xmlns="http://www.w3.org/2000/svg" xmlns:xlink="http://www.w3.org/1999/xlink">
<g id="graph0" class="graph" transform="scale(1 1) rotate(0) translate(4 337)">
<title>Ogre::AxisAlignedBoxSceneQuery</title>
<!-- Node1 -->
<g id="node1" class="node">
<title>Node1</title>
<g id="a_node1"><a xlink:title="Specialises the SceneQuery class for querying within an axis aligned box.">
<polygon fill="#bfbfbf" stroke="black" points="91.5,-134.5 91.5,-164.5 243.5,-164.5 243.5,-134.5 91.5,-134.5"/>
<text text-anchor="start" x="99.5" y="-152.5" font-family="Helvetica,sans-Serif" font-size="10.00">Ogre::AxisAlignedBoxScene</text>
<text text-anchor="middle" x="167.5" y="-141.5" font-family="Helvetica,sans-Serif" font-size="10.00">Query</text>
</a>
</g>
</g>
<!-- Node6 -->
<g id="node6" class="node">
<title>Node6</title>
<g id="a_node6"><a xlink:href="class_ogre_1_1_default_axis_aligned_box_scene_query.html" target="_top" xlink:title="Default implementation of AxisAlignedBoxSceneQuery.">
<polygon fill="none" stroke="black" points="97.5,-67.5 97.5,-97.5 237.5,-97.5 237.5,-67.5 97.5,-67.5"/>
<text text-anchor="start" x="105.5" y="-85.5" font-family="Helvetica,sans-Serif" font-size="10.00">Ogre::DefaultAxisAligned</text>
<text text-anchor="middle" x="167.5" y="-74.5" font-family="Helvetica,sans-Serif" font-size="10.00">BoxSceneQuery</text>
</a>
</g>
</g>
<!-- Node1&#45;&gt;Node6 -->
<g id="edge5" class="edge">
<title>Node1&#45;&gt;Node6</title>
<path fill="none" stroke="midnightblue" d="M167.5,-124.11C167.5,-115.15 167.5,-105.32 167.5,-97.58"/>
<polygon fill="midnightblue" stroke="midnightblue" points="164,-124.4 167.5,-134.4 171,-124.4 164,-124.4"/>
</g>
<!-- Node2 -->
<g id="node2" class="node">
<title>Node2</title>
<g id="a_node2"><a xlink:href="class_ogre_1_1_region_scene_query.html" target="_top" xlink:title="Abstract class defining a query which returns single results from a region.">
<polygon fill="none" stroke="black" points="98.5,-201.5 98.5,-220.5 236.5,-220.5 236.5,-201.5 98.5,-201.5"/>
<text text-anchor="middle" x="167.5" y="-208.5" font-family="Helvetica,sans-Serif" font-size="10.00">Ogre::RegionSceneQuery</text>
</a>
</g>
</g>
<!-- Node2&#45;&gt;Node1 -->
<g id="edge1" class="edge">
<title>Node2&#45;&gt;Node1</title>
<path fill="none" stroke="midnightblue" d="M167.5,-191.23C167.5,-182.59 167.5,-172.5 167.5,-164.52"/>
<polygon fill="midnightblue" stroke="midnightblue" points="164,-191.48 167.5,-201.48 171,-191.48 164,-191.48"/>
</g>
<!-- Node3 -->
<g id="node3" class="node">
<title>Node3</title>
<g id="a_node3"><a xlink:href="class_ogre_1_1_scene_query.html" target="_top" xlink:title="A class for performing queries on a scene.">
<polygon fill="none" stroke="black" points="44.5,-257.5 44.5,-276.5 148.5,-276.5 148.5,-257.5 44.5,-257.5"/>
<text text-anchor="middle" x="96.5" y="-264.5" font-family="Helvetica,sans-Serif" font-size="10.00">Ogre::SceneQuery</text>
</a>
</g>
</g>
<!-- Node3&#45;&gt;Node2 -->
<g id="edge2" class="edge">
<title>Node3&#45;&gt;Node2</title>
<path fill="none" stroke="midnightblue" d="M116.09,-251.1C128.87,-241.38 145.11,-229.03 155.89,-220.83"/>
<polygon fill="midnightblue" stroke="midnightblue" points="113.75,-248.48 107.91,-257.32 117.99,-254.06 113.75,-248.48"/>
</g>
<!-- Node4 -->
<g id="node4" class="node">
<title>Node4</title>
<g id="a_node4"><a xlink:title=" ">
<polygon fill="none" stroke="#bfbfbf" points="52,-313.5 52,-332.5 141,-332.5 141,-313.5 52,-313.5"/>
<text text-anchor="middle" x="96.5" y="-320.5" font-family="Helvetica,sans-Serif" font-size="10.00">SceneMgtAlloc</text>
</a>
</g>
</g>
<!-- Node4&#45;&gt;Node3 -->
<g id="edge3" class="edge">
<title>Node4&#45;&gt;Node3</title>
<path fill="none" stroke="midnightblue" d="M96.5,-302.8C96.5,-293.91 96.5,-283.78 96.5,-276.75"/>
<polygon fill="midnightblue" stroke="midnightblue" points="93,-303.08 96.5,-313.08 100,-303.08 93,-303.08"/>
</g>
<!-- Node5 -->
<g id="node5" class="node">
<title>Node5</title>
<g id="a_node5"><a xlink:href="class_ogre_1_1_scene_query_listener.html" target="_top" xlink:title="This optional class allows you to receive per&#45;result callbacks from SceneQuery executions instead of ...">
<polygon fill="none" stroke="black" points="167,-257.5 167,-276.5 310,-276.5 310,-257.5 167,-257.5"/>
<text text-anchor="middle" x="238.5" y="-264.5" font-family="Helvetica,sans-Serif" font-size="10.00">Ogre::SceneQueryListener</text>
</a>
</g>
</g>
<!-- Node5&#45;&gt;Node2 -->
<g id="edge4" class="edge">
<title>Node5&#45;&gt;Node2</title>
<path fill="none" stroke="midnightblue" d="M218.91,-251.1C206.13,-241.38 189.89,-229.03 179.11,-220.83"/>
<polygon fill="midnightblue" stroke="midnightblue" points="217.01,-254.06 227.09,-257.32 221.25,-248.48 217.01,-254.06"/>
</g>
<!-- Node7 -->
<g id="node7" class="node">
<title>Node7</title>
<g id="a_node7"><a xlink:href="class_ogre_1_1_octree_axis_aligned_box_scene_query.html" target="_top" xlink:title="Octree implementation of AxisAlignedBoxSceneQuery.">
<polygon fill="none" stroke="black" points="0,-0.5 0,-30.5 155,-30.5 155,-0.5 0,-0.5"/>
<text text-anchor="start" x="8" y="-18.5" font-family="Helvetica,sans-Serif" font-size="10.00">Ogre::OctreeAxisAlignedBox</text>
<text text-anchor="middle" x="77.5" y="-7.5" font-family="Helvetica,sans-Serif" font-size="10.00">SceneQuery</text>
</a>
</g>
</g>
<!-- Node6&#45;&gt;Node7 -->
<g id="edge6" class="edge">
<title>Node6&#45;&gt;Node7</title>
<path fill="none" stroke="midnightblue" d="M139.74,-61.45C125.89,-51.45 109.48,-39.6 96.99,-30.58"/>
<polygon fill="midnightblue" stroke="midnightblue" points="137.82,-64.38 147.97,-67.4 141.91,-58.7 137.82,-64.38"/>
</g>
<!-- Node8 -->
<g id="node8" class="node">
<title>Node8</title>
<g id="a_node8"><a xlink:href="class_ogre_1_1_p_c_z_axis_aligned_box_scene_query.html" target="_top" xlink:title="PCZ implementation of AxisAlignedBoxSceneQuery.">
<polygon fill="none" stroke="black" points="173,-0.5 173,-30.5 344,-30.5 344,-0.5 173,-0.5"/>
<text text-anchor="start" x="181" y="-18.5" font-family="Helvetica,sans-Serif" font-size="10.00">Ogre::PCZAxisAlignedBoxScene</text>
<text text-anchor="middle" x="258.5" y="-7.5" font-family="Helvetica,sans-Serif" font-size="10.00">Query</text>
</a>
</g>
</g>
<!-- Node6&#45;&gt;Node8 -->
<g id="edge7" class="edge">
<title>Node6&#45;&gt;Node8</title>
<path fill="none" stroke="midnightblue" d="M195.57,-61.45C209.57,-51.45 226.16,-39.6 238.79,-30.58"/>
<polygon fill="midnightblue" stroke="midnightblue" points="193.35,-58.74 187.25,-67.4 197.42,-64.43 193.35,-58.74"/>
</g>
</g>
</svg>
