<?xml version="1.0" encoding="UTF-8" standalone="no"?>
<!DOCTYPE svg PUBLIC "-//W3C//DTD SVG 1.1//EN"
 "http://www.w3.org/Graphics/SVG/1.1/DTD/svg11.dtd">
<!-- Generated by graphviz version 2.43.0 (0)
 -->
<!-- Title: Ogre::GLHardwarePixelBufferCommon Pages: 1 -->
<svg width="1000pt" height="218pt"
 viewBox="0.00 0.00 1000.00 218.00" xmlns="http://www.w3.org/2000/svg" xmlns:xlink="http://www.w3.org/1999/xlink">
<g id="graph0" class="graph" transform="scale(1 1) rotate(0) translate(4 214)">
<title>Ogre::GLHardwarePixelBufferCommon</title>
<!-- Node1 -->
<g id="node1" class="node">
<title>Node1</title>
<g id="a_node1"><a xlink:title=" ">
<polygon fill="#bfbfbf" stroke="black" points="449,-88 449,-118 609,-118 609,-88 449,-88"/>
<text text-anchor="start" x="457" y="-106" font-family="Helvetica,sans-Serif" font-size="10.00">Ogre::GLHardwarePixelBuffer</text>
<text text-anchor="middle" x="529" y="-95" font-family="Helvetica,sans-Serif" font-size="10.00">Common</text>
</a>
</g>
</g>
<!-- Node5 -->
<g id="node5" class="node">
<title>Node5</title>
<g id="a_node5"><a xlink:href="class_ogre_1_1_g_l3_plus_hardware_pixel_buffer.html" target="_top" xlink:title=" ">
<polygon fill="none" stroke="black" points="647,-147 647,-177 803,-177 803,-147 647,-147"/>
<text text-anchor="start" x="655" y="-165" font-family="Helvetica,sans-Serif" font-size="10.00">Ogre::GL3PlusHardwarePixel</text>
<text text-anchor="middle" x="725" y="-154" font-family="Helvetica,sans-Serif" font-size="10.00">Buffer</text>
</a>
</g>
</g>
<!-- Node1&#45;&gt;Node5 -->
<g id="edge4" class="edge">
<title>Node1&#45;&gt;Node5</title>
<path fill="none" stroke="midnightblue" d="M589.29,-121.03C616.61,-129.34 648.65,-139.09 674.63,-146.99"/>
<polygon fill="midnightblue" stroke="midnightblue" points="590.04,-117.6 579.46,-118.04 588.01,-124.3 590.04,-117.6"/>
</g>
<!-- Node8 -->
<g id="node8" class="node">
<title>Node8</title>
<g id="a_node8"><a xlink:href="class_ogre_1_1_g_l_e_s2_hardware_pixel_buffer.html" target="_top" xlink:title=" ">
<polygon fill="none" stroke="black" points="651,-88 651,-118 799,-118 799,-88 651,-88"/>
<text text-anchor="start" x="659" y="-106" font-family="Helvetica,sans-Serif" font-size="10.00">Ogre::GLES2HardwarePixel</text>
<text text-anchor="middle" x="725" y="-95" font-family="Helvetica,sans-Serif" font-size="10.00">Buffer</text>
</a>
</g>
</g>
<!-- Node1&#45;&gt;Node8 -->
<g id="edge7" class="edge">
<title>Node1&#45;&gt;Node8</title>
<path fill="none" stroke="midnightblue" d="M619.23,-103C629.76,-103 640.41,-103 650.69,-103"/>
<polygon fill="midnightblue" stroke="midnightblue" points="619.19,-99.5 609.19,-103 619.19,-106.5 619.19,-99.5"/>
</g>
<!-- Node11 -->
<g id="node11" class="node">
<title>Node11</title>
<g id="a_node11"><a xlink:href="class_ogre_1_1_g_l_hardware_pixel_buffer.html" target="_top" xlink:title=" ">
<polygon fill="none" stroke="black" points="645,-38.5 645,-57.5 805,-57.5 805,-38.5 645,-38.5"/>
<text text-anchor="middle" x="725" y="-45.5" font-family="Helvetica,sans-Serif" font-size="10.00">Ogre::GLHardwarePixelBuffer</text>
</a>
</g>
</g>
<!-- Node1&#45;&gt;Node11 -->
<g id="edge10" class="edge">
<title>Node1&#45;&gt;Node11</title>
<path fill="none" stroke="midnightblue" d="M592.86,-85.18C625.26,-75.99 663.48,-65.16 690.28,-57.56"/>
<polygon fill="midnightblue" stroke="midnightblue" points="591.68,-81.88 583.01,-87.97 593.59,-88.61 591.68,-81.88"/>
</g>
<!-- Node2 -->
<g id="node2" class="node">
<title>Node2</title>
<g id="a_node2"><a xlink:href="class_ogre_1_1_hardware_pixel_buffer.html" target="_top" xlink:title="Specialisation of HardwareBuffer for a pixel buffer.">
<polygon fill="none" stroke="black" points="266,-93.5 266,-112.5 413,-112.5 413,-93.5 266,-93.5"/>
<text text-anchor="middle" x="339.5" y="-100.5" font-family="Helvetica,sans-Serif" font-size="10.00">Ogre::HardwarePixelBuffer</text>
</a>
</g>
</g>
<!-- Node2&#45;&gt;Node1 -->
<g id="edge1" class="edge">
<title>Node2&#45;&gt;Node1</title>
<path fill="none" stroke="midnightblue" d="M423.44,-103C431.85,-103 440.38,-103 448.75,-103"/>
<polygon fill="midnightblue" stroke="midnightblue" points="423.26,-99.5 413.26,-103 423.26,-106.5 423.26,-99.5"/>
</g>
<!-- Node3 -->
<g id="node3" class="node">
<title>Node3</title>
<g id="a_node3"><a xlink:href="class_ogre_1_1_hardware_buffer.html" target="_top" xlink:title="Abstract class defining common features of hardware buffers.">
<polygon fill="none" stroke="black" points="107,-93.5 107,-112.5 230,-112.5 230,-93.5 107,-93.5"/>
<text text-anchor="middle" x="168.5" y="-100.5" font-family="Helvetica,sans-Serif" font-size="10.00">Ogre::HardwareBuffer</text>
</a>
</g>
</g>
<!-- Node3&#45;&gt;Node2 -->
<g id="edge2" class="edge">
<title>Node3&#45;&gt;Node2</title>
<path fill="none" stroke="midnightblue" d="M240.28,-103C248.78,-103 257.46,-103 265.98,-103"/>
<polygon fill="midnightblue" stroke="midnightblue" points="240.04,-99.5 230.04,-103 240.04,-106.5 240.04,-99.5"/>
</g>
<!-- Node4 -->
<g id="node4" class="node">
<title>Node4</title>
<g id="a_node4"><a xlink:title=" ">
<polygon fill="none" stroke="#bfbfbf" points="0,-93.5 0,-112.5 71,-112.5 71,-93.5 0,-93.5"/>
<text text-anchor="middle" x="35.5" y="-100.5" font-family="Helvetica,sans-Serif" font-size="10.00">BufferAlloc</text>
</a>
</g>
</g>
<!-- Node4&#45;&gt;Node3 -->
<g id="edge3" class="edge">
<title>Node4&#45;&gt;Node3</title>
<path fill="none" stroke="midnightblue" d="M81.4,-103C89.64,-103 98.37,-103 106.99,-103"/>
<polygon fill="midnightblue" stroke="midnightblue" points="81.26,-99.5 71.26,-103 81.26,-106.5 81.26,-99.5"/>
</g>
<!-- Node6 -->
<g id="node6" class="node">
<title>Node6</title>
<g id="a_node6"><a xlink:href="class_ogre_1_1_g_l3_plus_render_buffer.html" target="_top" xlink:title="Renderbuffer surface.">
<polygon fill="none" stroke="black" points="842,-190.5 842,-209.5 991,-209.5 991,-190.5 842,-190.5"/>
<text text-anchor="middle" x="916.5" y="-197.5" font-family="Helvetica,sans-Serif" font-size="10.00">Ogre::GL3PlusRenderBuffer</text>
</a>
</g>
</g>
<!-- Node5&#45;&gt;Node6 -->
<g id="edge5" class="edge">
<title>Node5&#45;&gt;Node6</title>
<path fill="none" stroke="midnightblue" d="M810.8,-179.01C830.48,-182.95 850.73,-187.01 868.12,-190.5"/>
<polygon fill="midnightblue" stroke="midnightblue" points="811.39,-175.55 800.9,-177.02 810.01,-182.42 811.39,-175.55"/>
</g>
<!-- Node7 -->
<g id="node7" class="node">
<title>Node7</title>
<g id="a_node7"><a xlink:href="class_ogre_1_1_g_l3_plus_texture_buffer.html" target="_top" xlink:title="Texture surface.">
<polygon fill="none" stroke="black" points="841,-152.5 841,-171.5 992,-171.5 992,-152.5 841,-152.5"/>
<text text-anchor="middle" x="916.5" y="-159.5" font-family="Helvetica,sans-Serif" font-size="10.00">Ogre::GL3PlusTextureBuffer</text>
</a>
</g>
</g>
<!-- Node5&#45;&gt;Node7 -->
<g id="edge6" class="edge">
<title>Node5&#45;&gt;Node7</title>
<path fill="none" stroke="midnightblue" d="M813.11,-162C822.41,-162 831.81,-162 840.94,-162"/>
<polygon fill="midnightblue" stroke="midnightblue" points="813.08,-158.5 803.08,-162 813.08,-165.5 813.08,-158.5"/>
</g>
<!-- Node9 -->
<g id="node9" class="node">
<title>Node9</title>
<g id="a_node9"><a xlink:href="class_ogre_1_1_g_l_e_s2_render_buffer.html" target="_top" xlink:title="Renderbuffer surface.">
<polygon fill="none" stroke="black" points="846,-114.5 846,-133.5 987,-133.5 987,-114.5 846,-114.5"/>
<text text-anchor="middle" x="916.5" y="-121.5" font-family="Helvetica,sans-Serif" font-size="10.00">Ogre::GLES2RenderBuffer</text>
</a>
</g>
</g>
<!-- Node8&#45;&gt;Node9 -->
<g id="edge8" class="edge">
<title>Node8&#45;&gt;Node9</title>
<path fill="none" stroke="midnightblue" d="M809.41,-112.24C821.58,-113.59 834,-114.97 845.85,-116.28"/>
<polygon fill="midnightblue" stroke="midnightblue" points="809.59,-108.74 799.27,-111.12 808.82,-115.7 809.59,-108.74"/>
</g>
<!-- Node10 -->
<g id="node10" class="node">
<title>Node10</title>
<g id="a_node10"><a xlink:href="class_ogre_1_1_g_l_e_s2_texture_buffer.html" target="_top" xlink:title="Texture surface.">
<polygon fill="none" stroke="black" points="845,-76.5 845,-95.5 988,-95.5 988,-76.5 845,-76.5"/>
<text text-anchor="middle" x="916.5" y="-83.5" font-family="Helvetica,sans-Serif" font-size="10.00">Ogre::GLES2TextureBuffer</text>
</a>
</g>
</g>
<!-- Node8&#45;&gt;Node10 -->
<g id="edge9" class="edge">
<title>Node8&#45;&gt;Node10</title>
<path fill="none" stroke="midnightblue" d="M809.56,-95.5C821.36,-94.45 833.4,-93.37 844.92,-92.33"/>
<polygon fill="midnightblue" stroke="midnightblue" points="808.91,-92.05 799.27,-96.43 809.54,-99.02 808.91,-92.05"/>
</g>
<!-- Node12 -->
<g id="node12" class="node">
<title>Node12</title>
<g id="a_node12"><a xlink:href="class_ogre_1_1_g_l_render_buffer.html" target="_top" xlink:title="Renderbuffer surface.">
<polygon fill="none" stroke="black" points="855,-38.5 855,-57.5 978,-57.5 978,-38.5 855,-38.5"/>
<text text-anchor="middle" x="916.5" y="-45.5" font-family="Helvetica,sans-Serif" font-size="10.00">Ogre::GLRenderBuffer</text>
</a>
</g>
</g>
<!-- Node11&#45;&gt;Node12 -->
<g id="edge11" class="edge">
<title>Node11&#45;&gt;Node12</title>
<path fill="none" stroke="midnightblue" d="M815.4,-48C828.72,-48 842.17,-48 854.71,-48"/>
<polygon fill="midnightblue" stroke="midnightblue" points="815.27,-44.5 805.27,-48 815.27,-51.5 815.27,-44.5"/>
</g>
<!-- Node13 -->
<g id="node13" class="node">
<title>Node13</title>
<g id="a_node13"><a xlink:href="class_ogre_1_1_g_l_texture_buffer.html" target="_top" xlink:title="Texture surface.">
<polygon fill="none" stroke="black" points="854.5,-0.5 854.5,-19.5 978.5,-19.5 978.5,-0.5 854.5,-0.5"/>
<text text-anchor="middle" x="916.5" y="-7.5" font-family="Helvetica,sans-Serif" font-size="10.00">Ogre::GLTextureBuffer</text>
</a>
</g>
</g>
<!-- Node11&#45;&gt;Node13 -->
<g id="edge12" class="edge">
<title>Node11&#45;&gt;Node13</title>
<path fill="none" stroke="midnightblue" d="M783.89,-36.39C810.85,-30.99 842.51,-24.64 868.03,-19.52"/>
<polygon fill="midnightblue" stroke="midnightblue" points="782.94,-33.01 773.82,-38.41 784.31,-39.88 782.94,-33.01"/>
</g>
</g>
</svg>
