<?xml version="1.0" encoding="UTF-8" standalone="no"?>
<!DOCTYPE svg PUBLIC "-//W3C//DTD SVG 1.1//EN"
 "http://www.w3.org/Graphics/SVG/1.1/DTD/svg11.dtd">
<!-- Generated by graphviz version 2.40.1 (20161225.0304)
 -->
<!-- Title: Ogre::SmallVector&lt; T, 0 &gt; Pages: 1 -->
<svg width="148pt" height="296pt"
 viewBox="0.00 0.00 148.00 296.00" xmlns="http://www.w3.org/2000/svg" xmlns:xlink="http://www.w3.org/1999/xlink">
<g id="graph0" class="graph" transform="scale(1 1) rotate(0) translate(4 292)">
<title>Ogre::SmallVector&lt; T, 0 &gt;</title>
<!-- Node0 -->
<g id="node1" class="node">
<title>Node0</title>
<polygon fill="#bfbfbf" stroke="#000000" points="18.5,-.5 18.5,-30.5 121.5,-30.5 121.5,-.5 18.5,-.5"/>
<text text-anchor="start" x="26.5" y="-18.5" font-family="Helvetica,sans-Serif" font-size="10.00" fill="#000000">Ogre::SmallVector&lt;</text>
<text text-anchor="middle" x="70" y="-7.5" font-family="Helvetica,sans-Serif" font-size="10.00" fill="#000000"> T, 0 &gt;</text>
</g>
<!-- Node1 -->
<g id="node2" class="node">
<title>Node1</title>
<g id="a_node2"><a xlink:href="class_ogre_1_1_small_vector_impl.html" target="_top" xlink:title="SmallVectorImpl &#45; This class consists of common code factored out of the SmallVector class to reduce ...">
<polygon fill="none" stroke="#000000" points="0,-67.5 0,-86.5 140,-86.5 140,-67.5 0,-67.5"/>
<text text-anchor="middle" x="70" y="-74.5" font-family="Helvetica,sans-Serif" font-size="10.00" fill="#000000">Ogre::SmallVectorImpl&lt; T &gt;</text>
</a>
</g>
</g>
<!-- Node1&#45;&gt;Node0 -->
<g id="edge1" class="edge">
<title>Node1&#45;&gt;Node0</title>
<path fill="none" stroke="#191970" d="M70,-57.3693C70,-48.681 70,-38.6241 70,-30.5446"/>
<polygon fill="#191970" stroke="#191970" points="66.5001,-57.3906 70,-67.3906 73.5001,-57.3907 66.5001,-57.3906"/>
</g>
<!-- Node2 -->
<g id="node3" class="node">
<title>Node2</title>
<g id="a_node3"><a xlink:href="class_ogre_1_1_small_vector_template_base.html" target="_top" xlink:title="Ogre::SmallVectorTemplate\lBase\&lt; T, isPodLike\&lt; T \&gt;\l::value \&gt;">
<polygon fill="none" stroke="#000000" points="1.5,-123.5 1.5,-164.5 138.5,-164.5 138.5,-123.5 1.5,-123.5"/>
<text text-anchor="start" x="9.5" y="-152.5" font-family="Helvetica,sans-Serif" font-size="10.00" fill="#000000">Ogre::SmallVectorTemplate</text>
<text text-anchor="start" x="9.5" y="-141.5" font-family="Helvetica,sans-Serif" font-size="10.00" fill="#000000">Base&lt; T, isPodLike&lt; T &gt;</text>
<text text-anchor="middle" x="70" y="-130.5" font-family="Helvetica,sans-Serif" font-size="10.00" fill="#000000">::value &gt;</text>
</a>
</g>
</g>
<!-- Node2&#45;&gt;Node1 -->
<g id="edge2" class="edge">
<title>Node2&#45;&gt;Node1</title>
<path fill="none" stroke="#191970" d="M70,-113.0909C70,-103.5672 70,-93.7625 70,-86.7805"/>
<polygon fill="#191970" stroke="#191970" points="66.5001,-113.168 70,-123.168 73.5001,-113.1681 66.5001,-113.168"/>
</g>
<!-- Node3 -->
<g id="node4" class="node">
<title>Node3</title>
<g id="a_node4"><a xlink:href="class_ogre_1_1_small_vector_template_common.html" target="_top" xlink:title="Ogre::SmallVectorTemplate\lCommon\&lt; T \&gt;">
<polygon fill="none" stroke="#000000" points="1.5,-201.5 1.5,-231.5 138.5,-231.5 138.5,-201.5 1.5,-201.5"/>
<text text-anchor="start" x="9.5" y="-219.5" font-family="Helvetica,sans-Serif" font-size="10.00" fill="#000000">Ogre::SmallVectorTemplate</text>
<text text-anchor="middle" x="70" y="-208.5" font-family="Helvetica,sans-Serif" font-size="10.00" fill="#000000">Common&lt; T &gt;</text>
</a>
</g>
</g>
<!-- Node3&#45;&gt;Node2 -->
<g id="edge3" class="edge">
<title>Node3&#45;&gt;Node2</title>
<path fill="none" stroke="#191970" d="M70,-191.4016C70,-182.6173 70,-172.8652 70,-164.5015"/>
<polygon fill="#191970" stroke="#191970" points="66.5001,-191.4779 70,-201.478 73.5001,-191.478 66.5001,-191.4779"/>
</g>
<!-- Node4 -->
<g id="node5" class="node">
<title>Node4</title>
<g id="a_node5"><a xlink:href="class_ogre_1_1_small_vector_base.html" target="_top" xlink:title="SmallVectorBase &#45; This is all the non&#45;templated stuff common to all SmallVectors. ...">
<polygon fill="none" stroke="#000000" points="10.5,-268.5 10.5,-287.5 129.5,-287.5 129.5,-268.5 10.5,-268.5"/>
<text text-anchor="middle" x="70" y="-275.5" font-family="Helvetica,sans-Serif" font-size="10.00" fill="#000000">Ogre::SmallVectorBase</text>
</a>
</g>
</g>
<!-- Node4&#45;&gt;Node3 -->
<g id="edge4" class="edge">
<title>Node4&#45;&gt;Node3</title>
<path fill="none" stroke="#191970" d="M70,-258.3693C70,-249.681 70,-239.6241 70,-231.5446"/>
<polygon fill="#191970" stroke="#191970" points="66.5001,-258.3906 70,-268.3906 73.5001,-258.3907 66.5001,-258.3906"/>
</g>
</g>
</svg>
