<?xml version="1.0" encoding="UTF-8" standalone="no"?>
<!DOCTYPE svg PUBLIC "-//W3C//DTD SVG 1.1//EN"
 "http://www.w3.org/Graphics/SVG/1.1/DTD/svg11.dtd">
<!-- Generated by graphviz version 2.40.1 (20161225.0304)
 -->
<!-- Title: Ogre::LodCollapseCost Pages: 1 -->
<svg width="324pt" height="142pt"
 viewBox="0.00 0.00 324.00 142.00" xmlns="http://www.w3.org/2000/svg" xmlns:xlink="http://www.w3.org/1999/xlink">
<g id="graph0" class="graph" transform="scale(1 1) rotate(0) translate(4 138)">
<title>Ogre::LodCollapseCost</title>
<!-- Node0 -->
<g id="node1" class="node">
<title>Node0</title>
<polygon fill="#bfbfbf" stroke="#000000" points="0,-57.5 0,-76.5 119,-76.5 119,-57.5 0,-57.5"/>
<text text-anchor="middle" x="59.5" y="-64.5" font-family="Helvetica,sans-Serif" font-size="10.00" fill="#000000">Ogre::LodCollapseCost</text>
</g>
<!-- Node1 -->
<g id="node2" class="node">
<title>Node1</title>
<g id="a_node2"><a xlink:href="class_ogre_1_1_lod_collapse_cost_curvature.html" target="_top" xlink:title="Ogre::LodCollapseCostCurvature">
<polygon fill="none" stroke="#000000" points="155,-114.5 155,-133.5 316,-133.5 316,-114.5 155,-114.5"/>
<text text-anchor="middle" x="235.5" y="-121.5" font-family="Helvetica,sans-Serif" font-size="10.00" fill="#000000">Ogre::LodCollapseCostCurvature</text>
</a>
</g>
</g>
<!-- Node0&#45;&gt;Node1 -->
<g id="edge1" class="edge">
<title>Node0&#45;&gt;Node1</title>
<path fill="none" stroke="#191970" d="M90.1837,-80.5442C108.7089,-88.3843 132.9274,-98.0452 155,-105 166.0937,-108.4955 178.2262,-111.6811 189.6296,-114.4031"/>
<polygon fill="#191970" stroke="#191970" points="91.3629,-77.2418 80.7927,-76.5198 88.6056,-83.6759 91.3629,-77.2418"/>
</g>
<!-- Node2 -->
<g id="node3" class="node">
<title>Node2</title>
<g id="a_node3"><a xlink:href="class_ogre_1_1_lod_collapse_cost_outside.html" target="_top" xlink:title="Ogre::LodCollapseCostOutside">
<polygon fill="none" stroke="#000000" points="159.5,-76.5 159.5,-95.5 311.5,-95.5 311.5,-76.5 159.5,-76.5"/>
<text text-anchor="middle" x="235.5" y="-83.5" font-family="Helvetica,sans-Serif" font-size="10.00" fill="#000000">Ogre::LodCollapseCostOutside</text>
</a>
</g>
</g>
<!-- Node0&#45;&gt;Node2 -->
<g id="edge2" class="edge">
<title>Node0&#45;&gt;Node2</title>
<path fill="none" stroke="#191970" d="M129.274,-74.5324C139.1843,-75.6023 149.417,-76.707 159.4393,-77.7889"/>
<polygon fill="#191970" stroke="#191970" points="129.4035,-71.0261 119.0856,-73.4325 128.6521,-77.9857 129.4035,-71.0261"/>
</g>
<!-- Node3 -->
<g id="node4" class="node">
<title>Node3</title>
<g id="a_node4"><a xlink:href="class_ogre_1_1_lod_collapse_cost_profiler.html" target="_top" xlink:title="Ogre::LodCollapseCostProfiler">
<polygon fill="none" stroke="#000000" points="161,-38.5 161,-57.5 310,-57.5 310,-38.5 161,-38.5"/>
<text text-anchor="middle" x="235.5" y="-45.5" font-family="Helvetica,sans-Serif" font-size="10.00" fill="#000000">Ogre::LodCollapseCostProfiler</text>
</a>
</g>
</g>
<!-- Node0&#45;&gt;Node3 -->
<g id="edge3" class="edge">
<title>Node0&#45;&gt;Node3</title>
<path fill="none" stroke="#191970" d="M129.3462,-59.4598C139.7476,-58.3369 150.5028,-57.1758 160.9957,-56.0431"/>
<polygon fill="#191970" stroke="#191970" points="128.6521,-56.0143 119.0856,-60.5675 129.4035,-62.9739 128.6521,-56.0143"/>
</g>
<!-- Node4 -->
<g id="node5" class="node">
<title>Node4</title>
<g id="a_node5"><a xlink:href="class_ogre_1_1_lod_collapse_cost_quadric.html" target="_top" xlink:title="Ogre::LodCollapseCostQuadric">
<polygon fill="none" stroke="#000000" points="159.5,-.5 159.5,-19.5 311.5,-19.5 311.5,-.5 159.5,-.5"/>
<text text-anchor="middle" x="235.5" y="-7.5" font-family="Helvetica,sans-Serif" font-size="10.00" fill="#000000">Ogre::LodCollapseCostQuadric</text>
</a>
</g>
</g>
<!-- Node0&#45;&gt;Node4 -->
<g id="edge4" class="edge">
<title>Node0&#45;&gt;Node4</title>
<path fill="none" stroke="#191970" d="M90.1837,-53.4558C108.7089,-45.6157 132.9274,-35.9548 155,-29 166.0937,-25.5045 178.2262,-22.3189 189.6296,-19.5969"/>
<polygon fill="#191970" stroke="#191970" points="88.6056,-50.3241 80.7927,-57.4802 91.3629,-56.7582 88.6056,-50.3241"/>
</g>
</g>
</svg>
