<?xml version="1.0" encoding="UTF-8" standalone="no"?>
<!DOCTYPE svg PUBLIC "-//W3C//DTD SVG 1.1//EN"
 "http://www.w3.org/Graphics/SVG/1.1/DTD/svg11.dtd">
<!-- Generated by graphviz version 2.43.0 (0)
 -->
<!-- Title: Ogre::ResourceBackgroundQueue Pages: 1 -->
<svg width="349pt" height="176pt"
 viewBox="0.00 0.00 349.00 176.00" xmlns="http://www.w3.org/2000/svg" xmlns:xlink="http://www.w3.org/1999/xlink">
<g id="graph0" class="graph" transform="scale(1 1) rotate(0) translate(4 172)">
<title>Ogre::ResourceBackgroundQueue</title>
<!-- Node1 -->
<g id="node1" class="node">
<title>Node1</title>
<g id="a_node1"><a xlink:title="This class is used to perform Resource operations in a background thread.">
<polygon fill="#bfbfbf" stroke="black" points="192,-71.5 192,-101.5 341,-101.5 341,-71.5 192,-71.5"/>
<text text-anchor="start" x="200" y="-89.5" font-family="Helvetica,sans-Serif" font-size="10.00">Ogre::ResourceBackground</text>
<text text-anchor="middle" x="266.5" y="-78.5" font-family="Helvetica,sans-Serif" font-size="10.00">Queue</text>
</a>
</g>
</g>
<!-- Node2 -->
<g id="node2" class="node">
<title>Node2</title>
<g id="a_node2"><a xlink:href="class_ogre_1_1_singleton.html" target="_top" xlink:title=" ">
<polygon fill="none" stroke="black" points="4,-137.5 4,-167.5 152,-167.5 152,-137.5 4,-137.5"/>
<text text-anchor="start" x="12" y="-155.5" font-family="Helvetica,sans-Serif" font-size="10.00">Ogre::Singleton&lt; Resource</text>
<text text-anchor="middle" x="78" y="-144.5" font-family="Helvetica,sans-Serif" font-size="10.00">BackgroundQueue &gt;</text>
</a>
</g>
</g>
<!-- Node2&#45;&gt;Node1 -->
<g id="edge1" class="edge">
<title>Node2&#45;&gt;Node1</title>
<path fill="none" stroke="midnightblue" d="M136.12,-134.27C142.84,-132.03 149.58,-129.74 156,-127.5 179.57,-119.27 205.77,-109.48 226.63,-101.53"/>
<polygon fill="midnightblue" stroke="midnightblue" points="134.75,-131.03 126.35,-137.49 136.94,-137.68 134.75,-131.03"/>
</g>
<!-- Node3 -->
<g id="node3" class="node">
<title>Node3</title>
<g id="a_node3"><a xlink:title=" ">
<polygon fill="none" stroke="#bfbfbf" points="35,-99 35,-118 121,-118 121,-99 35,-99"/>
<text text-anchor="middle" x="78" y="-106" font-family="Helvetica,sans-Serif" font-size="10.00">ResourceAlloc</text>
</a>
</g>
</g>
<!-- Node3&#45;&gt;Node1 -->
<g id="edge2" class="edge">
<title>Node3&#45;&gt;Node1</title>
<path fill="none" stroke="midnightblue" d="M131.43,-102.32C150.17,-100.1 171.66,-97.57 191.86,-95.19"/>
<polygon fill="midnightblue" stroke="midnightblue" points="130.84,-98.86 121.32,-103.51 131.66,-105.81 130.84,-98.86"/>
</g>
<!-- Node4 -->
<g id="node4" class="node">
<title>Node4</title>
<g id="a_node4"><a xlink:href="class_ogre_1_1_work_queue_1_1_request_handler.html" target="_top" xlink:title="Interface definition for a handler of requests.">
<polygon fill="none" stroke="black" points="3.5,-49.5 3.5,-79.5 152.5,-79.5 152.5,-49.5 3.5,-49.5"/>
<text text-anchor="start" x="11.5" y="-67.5" font-family="Helvetica,sans-Serif" font-size="10.00">Ogre::WorkQueue::Request</text>
<text text-anchor="middle" x="78" y="-56.5" font-family="Helvetica,sans-Serif" font-size="10.00">Handler</text>
</a>
</g>
</g>
<!-- Node4&#45;&gt;Node1 -->
<g id="edge3" class="edge">
<title>Node4&#45;&gt;Node1</title>
<path fill="none" stroke="midnightblue" d="M162.72,-74.38C172.39,-75.52 182.19,-76.67 191.71,-77.8"/>
<polygon fill="midnightblue" stroke="midnightblue" points="163.05,-70.89 152.71,-73.19 162.23,-77.84 163.05,-70.89"/>
</g>
<!-- Node5 -->
<g id="node5" class="node">
<title>Node5</title>
<g id="a_node5"><a xlink:href="class_ogre_1_1_work_queue_1_1_response_handler.html" target="_top" xlink:title="Interface definition for a handler of responses.">
<polygon fill="none" stroke="black" points="0,-0.5 0,-30.5 156,-30.5 156,-0.5 0,-0.5"/>
<text text-anchor="start" x="8" y="-18.5" font-family="Helvetica,sans-Serif" font-size="10.00">Ogre::WorkQueue::Response</text>
<text text-anchor="middle" x="78" y="-7.5" font-family="Helvetica,sans-Serif" font-size="10.00">Handler</text>
</a>
</g>
</g>
<!-- Node5&#45;&gt;Node1 -->
<g id="edge4" class="edge">
<title>Node5&#45;&gt;Node1</title>
<path fill="none" stroke="midnightblue" d="M137.5,-33.92C143.77,-36.07 150.03,-38.28 156,-40.5 181.71,-50.05 210.26,-62.1 231.76,-71.46"/>
<polygon fill="midnightblue" stroke="midnightblue" points="138.28,-30.49 127.68,-30.62 136.05,-37.13 138.28,-30.49"/>
</g>
</g>
</svg>
