<?xml version="1.0" encoding="UTF-8" standalone="no"?>
<!DOCTYPE svg PUBLIC "-//W3C//DTD SVG 1.1//EN"
 "http://www.w3.org/Graphics/SVG/1.1/DTD/svg11.dtd">
<!-- Generated by graphviz version 2.43.0 (0)
 -->
<!-- Title: Ogre::ShadowCaster Pages: 1 -->
<svg width="851pt" height="534pt"
 viewBox="0.00 0.00 851.00 534.00" xmlns="http://www.w3.org/2000/svg" xmlns:xlink="http://www.w3.org/1999/xlink">
<g id="graph0" class="graph" transform="scale(1 1) rotate(0) translate(4 530)">
<title>Ogre::ShadowCaster</title>
<!-- Node1 -->
<g id="node1" class="node">
<title>Node1</title>
<g id="a_node1"><a xlink:title="This class defines the interface that must be implemented by shadow casters.">
<polygon fill="#bfbfbf" stroke="black" points="0,-259.5 0,-278.5 116,-278.5 116,-259.5 0,-259.5"/>
<text text-anchor="middle" x="58" y="-266.5" font-family="Helvetica,sans-Serif" font-size="10.00">Ogre::ShadowCaster</text>
</a>
</g>
</g>
<!-- Node2 -->
<g id="node2" class="node">
<title>Node2</title>
<g id="a_node2"><a xlink:href="class_ogre_1_1_movable_object.html" target="_top" xlink:title="Abstract class defining a movable object in a scene.">
<polygon fill="none" stroke="black" points="152,-259.5 152,-278.5 271,-278.5 271,-259.5 152,-259.5"/>
<text text-anchor="middle" x="211.5" y="-266.5" font-family="Helvetica,sans-Serif" font-size="10.00">Ogre::MovableObject</text>
</a>
</g>
</g>
<!-- Node1&#45;&gt;Node2 -->
<g id="edge1" class="edge">
<title>Node1&#45;&gt;Node2</title>
<path fill="none" stroke="midnightblue" d="M126.5,-269C134.97,-269 143.57,-269 151.88,-269"/>
<polygon fill="midnightblue" stroke="midnightblue" points="126.28,-265.5 116.28,-269 126.28,-272.5 126.28,-265.5"/>
</g>
<!-- Node3 -->
<g id="node3" class="node">
<title>Node3</title>
<g id="a_node3"><a xlink:href="class_ogre_1_1_billboard_chain.html" target="_top" xlink:title="Allows the rendering of a chain of connected billboards.">
<polygon fill="none" stroke="black" points="323.5,-506.5 323.5,-525.5 440.5,-525.5 440.5,-506.5 323.5,-506.5"/>
<text text-anchor="middle" x="382" y="-513.5" font-family="Helvetica,sans-Serif" font-size="10.00">Ogre::BillboardChain</text>
</a>
</g>
</g>
<!-- Node2&#45;&gt;Node3 -->
<g id="edge2" class="edge">
<title>Node2&#45;&gt;Node3</title>
<path fill="none" stroke="midnightblue" d="M214.74,-288.54C220.89,-332.69 242.09,-440.69 307,-497 311.81,-501.17 317.42,-504.45 323.35,-507.02"/>
<polygon fill="midnightblue" stroke="midnightblue" points="218.21,-288.01 213.46,-278.53 211.26,-288.9 218.21,-288.01"/>
</g>
<!-- Node5 -->
<g id="node5" class="node">
<title>Node5</title>
<g id="a_node5"><a xlink:href="class_ogre_1_1_billboard_set.html" target="_top" xlink:title="A collection of billboards (faces which are always facing the given direction) with the same (default...">
<polygon fill="none" stroke="black" points="329.5,-468.5 329.5,-487.5 434.5,-487.5 434.5,-468.5 329.5,-468.5"/>
<text text-anchor="middle" x="382" y="-475.5" font-family="Helvetica,sans-Serif" font-size="10.00">Ogre::BillboardSet</text>
</a>
</g>
</g>
<!-- Node2&#45;&gt;Node5 -->
<g id="edge4" class="edge">
<title>Node2&#45;&gt;Node5</title>
<path fill="none" stroke="midnightblue" d="M216.56,-288.66C225.61,-327.43 251.22,-413.86 307,-459 313.5,-464.26 321.28,-468.08 329.32,-470.85"/>
<polygon fill="midnightblue" stroke="midnightblue" points="219.92,-287.67 214.35,-278.66 213.09,-289.18 219.92,-287.67"/>
</g>
<!-- Node6 -->
<g id="node6" class="node">
<title>Node6</title>
<g id="a_node6"><a xlink:href="class_ogre_1_1_entity.html" target="_top" xlink:title="Defines an instance of a discrete, movable object based on a Mesh.">
<polygon fill="none" stroke="black" points="345,-430.5 345,-449.5 419,-449.5 419,-430.5 345,-430.5"/>
<text text-anchor="middle" x="382" y="-437.5" font-family="Helvetica,sans-Serif" font-size="10.00">Ogre::Entity</text>
</a>
</g>
</g>
<!-- Node2&#45;&gt;Node6 -->
<g id="edge5" class="edge">
<title>Node2&#45;&gt;Node6</title>
<path fill="none" stroke="midnightblue" d="M219.03,-288.28C231.08,-320.83 259.96,-386.49 307,-421 317.91,-429 331.87,-433.64 344.72,-436.33"/>
<polygon fill="midnightblue" stroke="midnightblue" points="222.24,-286.85 215.59,-278.6 215.65,-289.2 222.24,-286.85"/>
</g>
<!-- Node7 -->
<g id="node7" class="node">
<title>Node7</title>
<g id="a_node7"><a xlink:href="class_ogre_1_1_frustum.html" target="_top" xlink:title="A frustum represents a pyramid, capped at the near and far end which is used to represent either a vi...">
<polygon fill="none" stroke="black" points="339,-392.5 339,-411.5 425,-411.5 425,-392.5 339,-392.5"/>
<text text-anchor="middle" x="382" y="-399.5" font-family="Helvetica,sans-Serif" font-size="10.00">Ogre::Frustum</text>
</a>
</g>
</g>
<!-- Node2&#45;&gt;Node7 -->
<g id="edge6" class="edge">
<title>Node2&#45;&gt;Node7</title>
<path fill="none" stroke="midnightblue" d="M222.65,-287.38C237.68,-312.84 268.3,-358.47 307,-383 316.52,-389.04 327.88,-393.16 338.8,-395.97"/>
<polygon fill="midnightblue" stroke="midnightblue" points="225.68,-285.63 217.67,-278.69 219.61,-289.11 225.68,-285.63"/>
</g>
<!-- Node11 -->
<g id="node11" class="node">
<title>Node11</title>
<g id="a_node11"><a xlink:href="class_ogre_1_1_instance_batch.html" target="_top" xlink:title="InstanceBatch forms part of the new Instancing system This is an abstract class that must be derived ...">
<polygon fill="none" stroke="black" points="324.5,-354.5 324.5,-373.5 439.5,-373.5 439.5,-354.5 324.5,-354.5"/>
<text text-anchor="middle" x="382" y="-361.5" font-family="Helvetica,sans-Serif" font-size="10.00">Ogre::InstanceBatch</text>
</a>
</g>
</g>
<!-- Node2&#45;&gt;Node11 -->
<g id="edge10" class="edge">
<title>Node2&#45;&gt;Node11</title>
<path fill="none" stroke="midnightblue" d="M228.98,-285.98C246.7,-303.3 276.47,-329.71 307,-345 314.59,-348.8 323.01,-351.89 331.37,-354.38"/>
<polygon fill="midnightblue" stroke="midnightblue" points="231.27,-283.33 221.72,-278.74 226.33,-288.29 231.27,-283.33"/>
</g>
<!-- Node17 -->
<g id="node17" class="node">
<title>Node17</title>
<g id="a_node17"><a xlink:href="class_ogre_1_1_instanced_entity.html" target="_top" xlink:title=" ">
<polygon fill="none" stroke="black" points="321,-316.5 321,-335.5 443,-335.5 443,-316.5 321,-316.5"/>
<text text-anchor="middle" x="382" y="-323.5" font-family="Helvetica,sans-Serif" font-size="10.00">Ogre::InstancedEntity</text>
</a>
</g>
</g>
<!-- Node2&#45;&gt;Node17 -->
<g id="edge16" class="edge">
<title>Node2&#45;&gt;Node17</title>
<path fill="none" stroke="midnightblue" d="M243.26,-282.56C261.56,-290.32 285.35,-299.9 307,-307 317.59,-310.47 329.19,-313.71 340.01,-316.5"/>
<polygon fill="midnightblue" stroke="midnightblue" points="244.54,-279.3 233.97,-278.57 241.78,-285.73 244.54,-279.3"/>
</g>
<!-- Node18 -->
<g id="node18" class="node">
<title>Node18</title>
<g id="a_node18"><a xlink:href="class_ogre_1_1_light.html" target="_top" xlink:title="Representation of a dynamic light source in the scene.">
<polygon fill="none" stroke="black" points="347,-278.5 347,-297.5 417,-297.5 417,-278.5 347,-278.5"/>
<text text-anchor="middle" x="382" y="-285.5" font-family="Helvetica,sans-Serif" font-size="10.00">Ogre::Light</text>
</a>
</g>
</g>
<!-- Node2&#45;&gt;Node18 -->
<g id="edge17" class="edge">
<title>Node2&#45;&gt;Node18</title>
<path fill="none" stroke="midnightblue" d="M281.64,-276.8C304.15,-279.33 328.14,-282.04 346.91,-284.16"/>
<polygon fill="midnightblue" stroke="midnightblue" points="281.76,-273.29 271.43,-275.65 280.98,-280.24 281.76,-273.29"/>
</g>
<!-- Node20 -->
<g id="node20" class="node">
<title>Node20</title>
<g id="a_node20"><a xlink:href="class_ogre_1_1_manual_object.html" target="_top" xlink:title="Class providing a much simplified interface to generating manual objects with custom geometry.">
<polygon fill="none" stroke="black" points="325.5,-240.5 325.5,-259.5 438.5,-259.5 438.5,-240.5 325.5,-240.5"/>
<text text-anchor="middle" x="382" y="-247.5" font-family="Helvetica,sans-Serif" font-size="10.00">Ogre::ManualObject</text>
</a>
</g>
</g>
<!-- Node2&#45;&gt;Node20 -->
<g id="edge19" class="edge">
<title>Node2&#45;&gt;Node20</title>
<path fill="none" stroke="midnightblue" d="M281.46,-261.22C296.12,-259.57 311.41,-257.85 325.49,-256.26"/>
<polygon fill="midnightblue" stroke="midnightblue" points="280.98,-257.76 271.43,-262.35 281.76,-264.71 280.98,-257.76"/>
</g>
<!-- Node21 -->
<g id="node21" class="node">
<title>Node21</title>
<g id="a_node21"><a xlink:href="class_ogre_1_1_movable_plane.html" target="_top" xlink:title="Definition of a Plane that may be attached to a node, and the derived details of it retrieved simply.">
<polygon fill="none" stroke="black" points="324.5,-202.5 324.5,-221.5 439.5,-221.5 439.5,-202.5 324.5,-202.5"/>
<text text-anchor="middle" x="382" y="-209.5" font-family="Helvetica,sans-Serif" font-size="10.00">Ogre::MovablePlane</text>
</a>
</g>
</g>
<!-- Node2&#45;&gt;Node21 -->
<g id="edge20" class="edge">
<title>Node2&#45;&gt;Node21</title>
<path fill="none" stroke="midnightblue" d="M243.26,-255.44C261.56,-247.68 285.35,-238.1 307,-231 317.59,-227.53 329.19,-224.29 340.01,-221.5"/>
<polygon fill="midnightblue" stroke="midnightblue" points="241.78,-252.27 233.97,-259.43 244.54,-258.7 241.78,-252.27"/>
</g>
<!-- Node22 -->
<g id="node22" class="node">
<title>Node22</title>
<g id="a_node22"><a xlink:href="class_ogre_1_1_particle_system.html" target="_top" xlink:title="Class defining particle system based special effects.">
<polygon fill="none" stroke="black" points="322.5,-164.5 322.5,-183.5 441.5,-183.5 441.5,-164.5 322.5,-164.5"/>
<text text-anchor="middle" x="382" y="-171.5" font-family="Helvetica,sans-Serif" font-size="10.00">Ogre::ParticleSystem</text>
</a>
</g>
</g>
<!-- Node2&#45;&gt;Node22 -->
<g id="edge21" class="edge">
<title>Node2&#45;&gt;Node22</title>
<path fill="none" stroke="midnightblue" d="M228.98,-252.02C246.7,-234.7 276.47,-208.29 307,-193 314.59,-189.2 323.01,-186.11 331.37,-183.62"/>
<polygon fill="midnightblue" stroke="midnightblue" points="226.33,-249.71 221.72,-259.26 231.27,-254.67 226.33,-249.71"/>
</g>
<!-- Node23 -->
<g id="node23" class="node">
<title>Node23</title>
<g id="a_node23"><a xlink:href="class_ogre_1_1_portal_base.html" target="_top" xlink:title="PortalBase &#45; Base class to Portal and AntiPortal classes.">
<polygon fill="none" stroke="black" points="333,-126.5 333,-145.5 431,-145.5 431,-126.5 333,-126.5"/>
<text text-anchor="middle" x="382" y="-133.5" font-family="Helvetica,sans-Serif" font-size="10.00">Ogre::PortalBase</text>
</a>
</g>
</g>
<!-- Node2&#45;&gt;Node23 -->
<g id="edge22" class="edge">
<title>Node2&#45;&gt;Node23</title>
<path fill="none" stroke="midnightblue" d="M222.65,-250.62C237.68,-225.16 268.3,-179.53 307,-155 314.84,-150.03 323.93,-146.36 332.99,-143.64"/>
<polygon fill="midnightblue" stroke="midnightblue" points="219.61,-248.89 217.67,-259.31 225.68,-252.37 219.61,-248.89"/>
</g>
<!-- Node26 -->
<g id="node26" class="node">
<title>Node26</title>
<g id="a_node26"><a xlink:href="class_ogre_1_1_simple_renderable.html" target="_top" xlink:title="Simple implementation of MovableObject and Renderable for single&#45;part custom objects.">
<polygon fill="none" stroke="black" points="314.5,-88.5 314.5,-107.5 449.5,-107.5 449.5,-88.5 314.5,-88.5"/>
<text text-anchor="middle" x="382" y="-95.5" font-family="Helvetica,sans-Serif" font-size="10.00">Ogre::SimpleRenderable</text>
</a>
</g>
</g>
<!-- Node2&#45;&gt;Node26 -->
<g id="edge25" class="edge">
<title>Node2&#45;&gt;Node26</title>
<path fill="none" stroke="midnightblue" d="M219.03,-249.72C231.08,-217.17 259.96,-151.51 307,-117 312.24,-113.16 318.19,-110.09 324.37,-107.64"/>
<polygon fill="midnightblue" stroke="midnightblue" points="215.65,-248.8 215.59,-259.4 222.24,-251.15 215.65,-248.8"/>
</g>
<!-- Node30 -->
<g id="node30" class="node">
<title>Node30</title>
<g id="a_node30"><a xlink:href="class_ogre_1_1_static_geometry_1_1_region.html" target="_top" xlink:title="The details of a topological region which is the highest level of partitioning for this class.">
<polygon fill="none" stroke="black" points="321,-39 321,-69 443,-69 443,-39 321,-39"/>
<text text-anchor="start" x="329" y="-57" font-family="Helvetica,sans-Serif" font-size="10.00">Ogre::StaticGeometry</text>
<text text-anchor="middle" x="382" y="-46" font-family="Helvetica,sans-Serif" font-size="10.00">::Region</text>
</a>
</g>
</g>
<!-- Node2&#45;&gt;Node30 -->
<g id="edge29" class="edge">
<title>Node2&#45;&gt;Node30</title>
<path fill="none" stroke="midnightblue" d="M216.99,-249.15C226.68,-210.76 253.19,-125.96 307,-79 311.39,-75.17 316.4,-71.91 321.69,-69.16"/>
<polygon fill="midnightblue" stroke="midnightblue" points="213.54,-248.54 214.6,-259.09 220.34,-250.18 213.54,-248.54"/>
</g>
<!-- Node31 -->
<g id="node31" class="node">
<title>Node31</title>
<g id="a_node31"><a xlink:href="class_ogre_1_1_terrain_quad_tree_node.html" target="_top" xlink:title="A node in a quad tree used to store a patch of terrain.">
<polygon fill="none" stroke="black" points="307,-0.5 307,-19.5 457,-19.5 457,-0.5 307,-0.5"/>
<text text-anchor="middle" x="382" y="-7.5" font-family="Helvetica,sans-Serif" font-size="10.00">Ogre::TerrainQuadTreeNode</text>
</a>
</g>
</g>
<!-- Node2&#45;&gt;Node31 -->
<g id="edge30" class="edge">
<title>Node2&#45;&gt;Node31</title>
<path fill="none" stroke="#8b1a1a" d="M214.3,-249.39C219.58,-203.57 239.24,-88.85 307,-29 311.37,-25.14 316.43,-22.04 321.81,-19.56"/>
<polygon fill="#8b1a1a" stroke="#8b1a1a" points="210.8,-249.17 213.25,-259.48 217.77,-249.9 210.8,-249.17"/>
</g>
<!-- Node4 -->
<g id="node4" class="node">
<title>Node4</title>
<g id="a_node4"><a xlink:href="class_ogre_1_1_ribbon_trail.html" target="_top" xlink:title="Subclass of BillboardChain which automatically leaves a trail behind one or more Node instances.">
<polygon fill="none" stroke="black" points="521.5,-506.5 521.5,-525.5 622.5,-525.5 622.5,-506.5 521.5,-506.5"/>
<text text-anchor="middle" x="572" y="-513.5" font-family="Helvetica,sans-Serif" font-size="10.00">Ogre::RibbonTrail</text>
</a>
</g>
</g>
<!-- Node3&#45;&gt;Node4 -->
<g id="edge3" class="edge">
<title>Node3&#45;&gt;Node4</title>
<path fill="none" stroke="midnightblue" d="M450.85,-516C474.15,-516 499.78,-516 521.36,-516"/>
<polygon fill="midnightblue" stroke="midnightblue" points="450.68,-512.5 440.68,-516 450.68,-519.5 450.68,-512.5"/>
</g>
<!-- Node8 -->
<g id="node8" class="node">
<title>Node8</title>
<g id="a_node8"><a xlink:href="class_ogre_1_1_camera.html" target="_top" xlink:title="A viewpoint from which the scene will be rendered.">
<polygon fill="none" stroke="black" points="530,-430.5 530,-449.5 614,-449.5 614,-430.5 530,-430.5"/>
<text text-anchor="middle" x="572" y="-437.5" font-family="Helvetica,sans-Serif" font-size="10.00">Ogre::Camera</text>
</a>
</g>
</g>
<!-- Node7&#45;&gt;Node8 -->
<g id="edge7" class="edge">
<title>Node7&#45;&gt;Node8</title>
<path fill="none" stroke="midnightblue" d="M435.04,-412.52C464.98,-418.57 502.05,-426.06 529.92,-431.7"/>
<polygon fill="midnightblue" stroke="midnightblue" points="435.69,-409.08 425.19,-410.53 434.3,-415.94 435.69,-409.08"/>
</g>
<!-- Node9 -->
<g id="node9" class="node">
<title>Node9</title>
<g id="a_node9"><a xlink:href="class_ogre_1_1_octree_camera.html" target="_top" xlink:title="Specialized viewpoint from which an Octree can be rendered.">
<polygon fill="none" stroke="black" points="707,-468.5 707,-487.5 823,-487.5 823,-468.5 707,-468.5"/>
<text text-anchor="middle" x="765" y="-475.5" font-family="Helvetica,sans-Serif" font-size="10.00">Ogre::OctreeCamera</text>
</a>
</g>
</g>
<!-- Node8&#45;&gt;Node9 -->
<g id="edge8" class="edge">
<title>Node8&#45;&gt;Node9</title>
<path fill="none" stroke="midnightblue" d="M624.63,-450.27C653.15,-455.95 688.35,-462.95 716.24,-468.5"/>
<polygon fill="midnightblue" stroke="midnightblue" points="624.93,-446.76 614.44,-448.25 623.57,-453.63 624.93,-446.76"/>
</g>
<!-- Node10 -->
<g id="node10" class="node">
<title>Node10</title>
<g id="a_node10"><a xlink:href="class_ogre_1_1_p_c_z_camera.html" target="_top" xlink:title="Specialized viewpoint from which an PCZone Scene can be rendered.">
<polygon fill="none" stroke="black" points="713,-430.5 713,-449.5 817,-449.5 817,-430.5 713,-430.5"/>
<text text-anchor="middle" x="765" y="-437.5" font-family="Helvetica,sans-Serif" font-size="10.00">Ogre::PCZCamera</text>
</a>
</g>
</g>
<!-- Node8&#45;&gt;Node10 -->
<g id="edge9" class="edge">
<title>Node8&#45;&gt;Node10</title>
<path fill="none" stroke="midnightblue" d="M624.6,-440C651.96,-440 685.46,-440 712.76,-440"/>
<polygon fill="midnightblue" stroke="midnightblue" points="624.44,-436.5 614.44,-440 624.44,-443.5 624.44,-436.5"/>
</g>
<!-- Node12 -->
<g id="node12" class="node">
<title>Node12</title>
<g id="a_node12"><a xlink:href="class_ogre_1_1_base_instance_batch_v_t_f.html" target="_top" xlink:title="Instancing implementation using vertex texture through Vertex Texture Fetch (VTF) This implementation...">
<polygon fill="none" stroke="black" points="493,-392.5 493,-411.5 651,-411.5 651,-392.5 493,-392.5"/>
<text text-anchor="middle" x="572" y="-399.5" font-family="Helvetica,sans-Serif" font-size="10.00">Ogre::BaseInstanceBatchVTF</text>
</a>
</g>
</g>
<!-- Node11&#45;&gt;Node12 -->
<g id="edge11" class="edge">
<title>Node11&#45;&gt;Node12</title>
<path fill="none" stroke="midnightblue" d="M440.44,-375.61C467.17,-381.01 498.59,-387.36 523.9,-392.48"/>
<polygon fill="midnightblue" stroke="midnightblue" points="440.94,-372.14 430.44,-373.59 439.55,-379 440.94,-372.14"/>
</g>
<!-- Node15 -->
<g id="node15" class="node">
<title>Node15</title>
<g id="a_node15"><a xlink:href="class_ogre_1_1_instance_batch_h_w.html" target="_top" xlink:title="This is technique requires true instancing hardware support.">
<polygon fill="none" stroke="black" points="506,-354.5 506,-373.5 638,-373.5 638,-354.5 506,-354.5"/>
<text text-anchor="middle" x="572" y="-361.5" font-family="Helvetica,sans-Serif" font-size="10.00">Ogre::InstanceBatchHW</text>
</a>
</g>
</g>
<!-- Node11&#45;&gt;Node15 -->
<g id="edge14" class="edge">
<title>Node11&#45;&gt;Node15</title>
<path fill="none" stroke="midnightblue" d="M449.89,-364C468.09,-364 487.78,-364 505.88,-364"/>
<polygon fill="midnightblue" stroke="midnightblue" points="449.66,-360.5 439.66,-364 449.66,-367.5 449.66,-360.5"/>
</g>
<!-- Node16 -->
<g id="node16" class="node">
<title>Node16</title>
<g id="a_node16"><a xlink:href="class_ogre_1_1_instance_batch_shader.html" target="_top" xlink:title="This is the same technique the old &quot;InstancedGeometry&quot; implementation used (with improvements).">
<polygon fill="none" stroke="black" points="497.5,-316.5 497.5,-335.5 646.5,-335.5 646.5,-316.5 497.5,-316.5"/>
<text text-anchor="middle" x="572" y="-323.5" font-family="Helvetica,sans-Serif" font-size="10.00">Ogre::InstanceBatchShader</text>
</a>
</g>
</g>
<!-- Node11&#45;&gt;Node16 -->
<g id="edge15" class="edge">
<title>Node11&#45;&gt;Node16</title>
<path fill="none" stroke="midnightblue" d="M440.44,-352.39C467.17,-346.99 498.59,-340.64 523.9,-335.52"/>
<polygon fill="midnightblue" stroke="midnightblue" points="439.55,-349 430.44,-354.41 440.94,-355.86 439.55,-349"/>
</g>
<!-- Node13 -->
<g id="node13" class="node">
<title>Node13</title>
<g id="a_node13"><a xlink:href="class_ogre_1_1_instance_batch_h_w___v_t_f.html" target="_top" xlink:title="Instancing implementation using vertex texture through Vertex Texture Fetch (VTF) and hardware instan...">
<polygon fill="none" stroke="black" points="687,-392.5 687,-411.5 843,-411.5 843,-392.5 687,-392.5"/>
<text text-anchor="middle" x="765" y="-399.5" font-family="Helvetica,sans-Serif" font-size="10.00">Ogre::InstanceBatchHW_VTF</text>
</a>
</g>
</g>
<!-- Node12&#45;&gt;Node13 -->
<g id="edge12" class="edge">
<title>Node12&#45;&gt;Node13</title>
<path fill="none" stroke="midnightblue" d="M661.5,-402C669.95,-402 678.48,-402 686.81,-402"/>
<polygon fill="midnightblue" stroke="midnightblue" points="661.24,-398.5 651.24,-402 661.24,-405.5 661.24,-398.5"/>
</g>
<!-- Node14 -->
<g id="node14" class="node">
<title>Node14</title>
<g id="a_node14"><a xlink:href="class_ogre_1_1_instance_batch_v_t_f.html" target="_top" xlink:title=" ">
<polygon fill="none" stroke="black" points="698,-354.5 698,-373.5 832,-373.5 832,-354.5 698,-354.5"/>
<text text-anchor="middle" x="765" y="-361.5" font-family="Helvetica,sans-Serif" font-size="10.00">Ogre::InstanceBatchVTF</text>
</a>
</g>
</g>
<!-- Node12&#45;&gt;Node14 -->
<g id="edge13" class="edge">
<title>Node12&#45;&gt;Node14</title>
<path fill="none" stroke="midnightblue" d="M631.35,-390.39C658.52,-384.99 690.43,-378.64 716.15,-373.52"/>
<polygon fill="midnightblue" stroke="midnightblue" points="630.32,-387.03 621.2,-392.41 631.69,-393.89 630.32,-387.03"/>
</g>
<!-- Node19 -->
<g id="node19" class="node">
<title>Node19</title>
<g id="a_node19"><a xlink:href="class_ogre_1_1_p_c_z_light.html" target="_top" xlink:title="Specialized version of Ogre::Light which caches which zones the light affects.">
<polygon fill="none" stroke="black" points="527.5,-278.5 527.5,-297.5 616.5,-297.5 616.5,-278.5 527.5,-278.5"/>
<text text-anchor="middle" x="572" y="-285.5" font-family="Helvetica,sans-Serif" font-size="10.00">Ogre::PCZLight</text>
</a>
</g>
</g>
<!-- Node18&#45;&gt;Node19 -->
<g id="edge18" class="edge">
<title>Node18&#45;&gt;Node19</title>
<path fill="none" stroke="midnightblue" d="M427.28,-288C457.45,-288 497.22,-288 527.27,-288"/>
<polygon fill="midnightblue" stroke="midnightblue" points="427.05,-284.5 417.05,-288 427.05,-291.5 427.05,-284.5"/>
</g>
<!-- Node24 -->
<g id="node24" class="node">
<title>Node24</title>
<g id="a_node24"><a xlink:href="class_ogre_1_1_anti_portal.html" target="_top" xlink:title="AntiPortal datastructure for occlusion culling.">
<polygon fill="none" stroke="black" points="525,-164.5 525,-183.5 619,-183.5 619,-164.5 525,-164.5"/>
<text text-anchor="middle" x="572" y="-171.5" font-family="Helvetica,sans-Serif" font-size="10.00">Ogre::AntiPortal</text>
</a>
</g>
</g>
<!-- Node23&#45;&gt;Node24 -->
<g id="edge23" class="edge">
<title>Node23&#45;&gt;Node24</title>
<path fill="none" stroke="midnightblue" d="M440.55,-147.63C467.61,-153.1 499.43,-159.53 524.87,-164.68"/>
<polygon fill="midnightblue" stroke="midnightblue" points="440.94,-144.14 430.44,-145.59 439.55,-151 440.94,-144.14"/>
</g>
<!-- Node25 -->
<g id="node25" class="node">
<title>Node25</title>
<g id="a_node25"><a xlink:href="class_ogre_1_1_portal.html" target="_top" xlink:title="Portal datastructure for connecting zones.">
<polygon fill="none" stroke="black" points="535,-126.5 535,-145.5 609,-145.5 609,-126.5 535,-126.5"/>
<text text-anchor="middle" x="572" y="-133.5" font-family="Helvetica,sans-Serif" font-size="10.00">Ogre::Portal</text>
</a>
</g>
</g>
<!-- Node23&#45;&gt;Node25 -->
<g id="edge24" class="edge">
<title>Node23&#45;&gt;Node25</title>
<path fill="none" stroke="midnightblue" d="M441.53,-136C472.09,-136 508.51,-136 534.92,-136"/>
<polygon fill="midnightblue" stroke="midnightblue" points="441.41,-132.5 431.41,-136 441.41,-139.5 441.41,-132.5"/>
</g>
<!-- Node27 -->
<g id="node27" class="node">
<title>Node27</title>
<g id="a_node27"><a xlink:href="class_ogre_1_1_rectangle2_d.html" target="_top" xlink:title="Allows the rendering of a simple 2D rectangle This class renders a simple 2D rectangle; this rectangl...">
<polygon fill="none" stroke="black" points="518,-88.5 518,-107.5 626,-107.5 626,-88.5 518,-88.5"/>
<text text-anchor="middle" x="572" y="-95.5" font-family="Helvetica,sans-Serif" font-size="10.00">Ogre::Rectangle2D</text>
</a>
</g>
</g>
<!-- Node26&#45;&gt;Node27 -->
<g id="edge26" class="edge">
<title>Node26&#45;&gt;Node27</title>
<path fill="none" stroke="midnightblue" d="M459.65,-98C479.19,-98 499.76,-98 517.84,-98"/>
<polygon fill="midnightblue" stroke="midnightblue" points="459.55,-94.5 449.55,-98 459.55,-101.5 459.55,-94.5"/>
</g>
<!-- Node28 -->
<g id="node28" class="node">
<title>Node28</title>
<g id="a_node28"><a xlink:href="class_ogre_1_1_volume_1_1_chunk.html" target="_top" xlink:title="A single volume chunk mesh.">
<polygon fill="none" stroke="black" points="512,-50.5 512,-69.5 632,-69.5 632,-50.5 512,-50.5"/>
<text text-anchor="middle" x="572" y="-57.5" font-family="Helvetica,sans-Serif" font-size="10.00">Ogre::Volume::Chunk</text>
</a>
</g>
</g>
<!-- Node26&#45;&gt;Node28 -->
<g id="edge27" class="edge">
<title>Node26&#45;&gt;Node28</title>
<path fill="none" stroke="midnightblue" d="M440.44,-86.39C467.17,-80.99 498.59,-74.64 523.9,-69.52"/>
<polygon fill="midnightblue" stroke="midnightblue" points="439.55,-83 430.44,-88.41 440.94,-89.86 439.55,-83"/>
</g>
<!-- Node29 -->
<g id="node29" class="node">
<title>Node29</title>
<g id="a_node29"><a xlink:href="class_ogre_1_1_wire_bounding_box.html" target="_top" xlink:title="Allows the rendering of a wireframe bounding box.">
<polygon fill="none" stroke="black" points="505.5,-12.5 505.5,-31.5 638.5,-31.5 638.5,-12.5 505.5,-12.5"/>
<text text-anchor="middle" x="572" y="-19.5" font-family="Helvetica,sans-Serif" font-size="10.00">Ogre::WireBoundingBox</text>
</a>
</g>
</g>
<!-- Node26&#45;&gt;Node29 -->
<g id="edge28" class="edge">
<title>Node26&#45;&gt;Node29</title>
<path fill="none" stroke="midnightblue" d="M444.84,-85C449.07,-83.25 453.17,-81.26 457,-79 477.05,-67.2 472.88,-52.67 493,-41 499.63,-37.15 507.01,-34.08 514.52,-31.63"/>
<polygon fill="midnightblue" stroke="midnightblue" points="443.59,-81.73 435.43,-88.49 446.02,-88.3 443.59,-81.73"/>
</g>
</g>
</svg>
