<?xml version="1.0" encoding="UTF-8" standalone="no"?>
<!DOCTYPE svg PUBLIC "-//W3C//DTD SVG 1.1//EN"
 "http://www.w3.org/Graphics/SVG/1.1/DTD/svg11.dtd">
<!-- Generated by graphviz version 2.40.1 (20161225.0304)
 -->
<!-- Title: Ogre::AbsolutePixelCountLodStrategy Pages: 1 -->
<svg width="324pt" height="218pt"
 viewBox="0.00 0.00 324.00 218.00" xmlns="http://www.w3.org/2000/svg" xmlns:xlink="http://www.w3.org/1999/xlink">
<g id="graph0" class="graph" transform="scale(1 1) rotate(0) translate(4 214)">
<title>Ogre::AbsolutePixelCountLodStrategy</title>
<!-- Node0 -->
<g id="node1" class="node">
<title>Node0</title>
<polygon fill="#bfbfbf" stroke="#000000" points="101.5,-.5 101.5,-30.5 231.5,-30.5 231.5,-.5 101.5,-.5"/>
<text text-anchor="start" x="109.5" y="-18.5" font-family="Helvetica,sans-Serif" font-size="10.00" fill="#000000">Ogre::AbsolutePixelCount</text>
<text text-anchor="middle" x="166.5" y="-7.5" font-family="Helvetica,sans-Serif" font-size="10.00" fill="#000000">LodStrategy</text>
</g>
<!-- Node1 -->
<g id="node2" class="node">
<title>Node1</title>
<g id="a_node2"><a xlink:href="class_ogre_1_1_pixel_count_lod_strategy_base.html" target="_top" xlink:title="Abstract base class for level of detail strategy based on pixel count approximations from bounding sp...">
<polygon fill="none" stroke="#000000" points="0,-73 0,-92 167,-92 167,-73 0,-73"/>
<text text-anchor="middle" x="83.5" y="-80" font-family="Helvetica,sans-Serif" font-size="10.00" fill="#000000">Ogre::PixelCountLodStrategyBase</text>
</a>
</g>
</g>
<!-- Node1&#45;&gt;Node0 -->
<g id="edge1" class="edge">
<title>Node1&#45;&gt;Node0</title>
<path fill="none" stroke="#191970" d="M103.1828,-66.6115C116.7217,-55.6825 134.5893,-41.2592 147.8909,-30.5218"/>
<polygon fill="#191970" stroke="#191970" points="100.9746,-63.8959 95.3919,-72.9005 105.3715,-69.3427 100.9746,-63.8959"/>
</g>
<!-- Node2 -->
<g id="node3" class="node">
<title>Node2</title>
<g id="a_node3"><a xlink:href="class_ogre_1_1_lod_strategy.html" target="_top" xlink:title="Strategy for determining level of detail. ">
<polygon fill="none" stroke="#000000" points="35.5,-134.5 35.5,-153.5 131.5,-153.5 131.5,-134.5 35.5,-134.5"/>
<text text-anchor="middle" x="83.5" y="-141.5" font-family="Helvetica,sans-Serif" font-size="10.00" fill="#000000">Ogre::LodStrategy</text>
</a>
</g>
</g>
<!-- Node2&#45;&gt;Node1 -->
<g id="edge2" class="edge">
<title>Node2&#45;&gt;Node1</title>
<path fill="none" stroke="#191970" d="M83.5,-124.2462C83.5,-113.5519 83.5,-100.814 83.5,-92.2449"/>
<polygon fill="#191970" stroke="#191970" points="80.0001,-124.3906 83.5,-134.3906 87.0001,-124.3907 80.0001,-124.3906"/>
</g>
<!-- Node3 -->
<g id="node4" class="node">
<title>Node3</title>
<g id="a_node4"><a xlink:href="class_ogre_1_1_allocated_object.html" target="_top" xlink:title="LodAlloc">
<polygon fill="none" stroke="#000000" points="56.5,-190.5 56.5,-209.5 110.5,-209.5 110.5,-190.5 56.5,-190.5"/>
<text text-anchor="middle" x="83.5" y="-197.5" font-family="Helvetica,sans-Serif" font-size="10.00" fill="#000000">LodAlloc</text>
</a>
</g>
</g>
<!-- Node3&#45;&gt;Node2 -->
<g id="edge3" class="edge">
<title>Node3&#45;&gt;Node2</title>
<path fill="none" stroke="#191970" d="M83.5,-180.1575C83.5,-171.155 83.5,-160.9199 83.5,-153.6427"/>
<polygon fill="#191970" stroke="#191970" points="80.0001,-180.2455 83.5,-190.2455 87.0001,-180.2456 80.0001,-180.2455"/>
</g>
<!-- Node4 -->
<g id="node5" class="node">
<title>Node4</title>
<g id="a_node5"><a xlink:href="class_ogre_1_1_singleton.html" target="_top" xlink:title="Ogre::Singleton\&lt; Absolute\lPixelCountLodStrategy \&gt;">
<polygon fill="none" stroke="#000000" points="185,-67.5 185,-97.5 316,-97.5 316,-67.5 185,-67.5"/>
<text text-anchor="start" x="193" y="-85.5" font-family="Helvetica,sans-Serif" font-size="10.00" fill="#000000">Ogre::Singleton&lt; Absolute</text>
<text text-anchor="middle" x="250.5" y="-74.5" font-family="Helvetica,sans-Serif" font-size="10.00" fill="#000000">PixelCountLodStrategy &gt;</text>
</a>
</g>
</g>
<!-- Node4&#45;&gt;Node0 -->
<g id="edge4" class="edge">
<title>Node4&#45;&gt;Node0</title>
<path fill="none" stroke="#191970" d="M223.27,-60.7808C210.9301,-50.9383 196.6409,-39.541 185.4855,-30.6432"/>
<polygon fill="#191970" stroke="#191970" points="221.4388,-63.7973 231.4391,-67.2967 225.8038,-58.3248 221.4388,-63.7973"/>
</g>
</g>
</svg>
