<?xml version="1.0" encoding="UTF-8" standalone="no"?>
<!DOCTYPE svg PUBLIC "-//W3C//DTD SVG 1.1//EN"
 "http://www.w3.org/Graphics/SVG/1.1/DTD/svg11.dtd">
<!-- Generated by graphviz version 2.40.1 (20161225.0304)
 -->
<!-- Title: Ogre::LodStrategy Pages: 1 -->
<svg width="599pt" height="165pt"
 viewBox="0.00 0.00 599.00 164.50" xmlns="http://www.w3.org/2000/svg" xmlns:xlink="http://www.w3.org/1999/xlink">
<g id="graph0" class="graph" transform="scale(1 1) rotate(0) translate(4 160.5)">
<title>Ogre::LodStrategy</title>
<!-- Node0 -->
<g id="node1" class="node">
<title>Node0</title>
<polygon fill="#bfbfbf" stroke="#000000" points="90,-77 90,-96 186,-96 186,-77 90,-77"/>
<text text-anchor="middle" x="138" y="-84" font-family="Helvetica,sans-Serif" font-size="10.00" fill="#000000">Ogre::LodStrategy</text>
</g>
<!-- Node2 -->
<g id="node3" class="node">
<title>Node2</title>
<g id="a_node3"><a xlink:href="class_ogre_1_1_distance_lod_strategy_base.html" target="_top" xlink:title="Level of detail strategy based on distance from camera. ">
<polygon fill="none" stroke="#000000" points="226.5,-99 226.5,-118 384.5,-118 384.5,-99 226.5,-99"/>
<text text-anchor="middle" x="305.5" y="-106" font-family="Helvetica,sans-Serif" font-size="10.00" fill="#000000">Ogre::DistanceLodStrategyBase</text>
</a>
</g>
</g>
<!-- Node0&#45;&gt;Node2 -->
<g id="edge2" class="edge">
<title>Node0&#45;&gt;Node2</title>
<path fill="none" stroke="#191970" d="M196.6069,-94.1976C208.4128,-95.7482 220.9533,-97.3954 233.1641,-98.9992"/>
<polygon fill="#191970" stroke="#191970" points="196.8186,-90.6954 186.4479,-92.8633 195.907,-97.6358 196.8186,-90.6954"/>
</g>
<!-- Node5 -->
<g id="node6" class="node">
<title>Node5</title>
<g id="a_node6"><a xlink:href="class_ogre_1_1_pixel_count_lod_strategy_base.html" target="_top" xlink:title="Abstract base class for level of detail strategy based on pixel count approximations from bounding sp...">
<polygon fill="none" stroke="#000000" points="222,-55 222,-74 389,-74 389,-55 222,-55"/>
<text text-anchor="middle" x="305.5" y="-62" font-family="Helvetica,sans-Serif" font-size="10.00" fill="#000000">Ogre::PixelCountLodStrategyBase</text>
</a>
</g>
</g>
<!-- Node0&#45;&gt;Node5 -->
<g id="edge5" class="edge">
<title>Node0&#45;&gt;Node5</title>
<path fill="none" stroke="#191970" d="M196.6069,-78.8024C208.4128,-77.2518 220.9533,-75.6046 233.1641,-74.0008"/>
<polygon fill="#191970" stroke="#191970" points="195.907,-75.3642 186.4479,-80.1367 196.8186,-82.3046 195.907,-75.3642"/>
</g>
<!-- Node1 -->
<g id="node2" class="node">
<title>Node1</title>
<g id="a_node2"><a xlink:href="class_ogre_1_1_allocated_object.html" target="_top" xlink:title="LodAlloc">
<polygon fill="none" stroke="#000000" points="0,-77 0,-96 54,-96 54,-77 0,-77"/>
<text text-anchor="middle" x="27" y="-84" font-family="Helvetica,sans-Serif" font-size="10.00" fill="#000000">LodAlloc</text>
</a>
</g>
</g>
<!-- Node1&#45;&gt;Node0 -->
<g id="edge1" class="edge">
<title>Node1&#45;&gt;Node0</title>
<path fill="none" stroke="#191970" d="M64.209,-86.5C72.4539,-86.5 81.3051,-86.5 89.914,-86.5"/>
<polygon fill="#191970" stroke="#191970" points="64.1537,-83.0001 54.1537,-86.5 64.1536,-90.0001 64.1537,-83.0001"/>
</g>
<!-- Node3 -->
<g id="node4" class="node">
<title>Node3</title>
<g id="a_node4"><a xlink:href="class_ogre_1_1_distance_lod_box_strategy.html" target="_top" xlink:title="Level of detail strategy based on distance from camera to an object&#39;s bounding box. ">
<polygon fill="none" stroke="#000000" points="432,-137 432,-156 584,-156 584,-137 432,-137"/>
<text text-anchor="middle" x="508" y="-144" font-family="Helvetica,sans-Serif" font-size="10.00" fill="#000000">Ogre::DistanceLodBoxStrategy</text>
</a>
</g>
</g>
<!-- Node2&#45;&gt;Node3 -->
<g id="edge3" class="edge">
<title>Node2&#45;&gt;Node3</title>
<path fill="none" stroke="#191970" d="M366.3466,-119.9181C395.3207,-125.3552 429.5752,-131.7832 457.1412,-136.9561"/>
<polygon fill="#191970" stroke="#191970" points="366.8119,-116.4444 356.3379,-118.04 365.5208,-123.3243 366.8119,-116.4444"/>
</g>
<!-- Node4 -->
<g id="node5" class="node">
<title>Node4</title>
<g id="a_node5"><a xlink:href="class_ogre_1_1_distance_lod_sphere_strategy.html" target="_top" xlink:title="Level of detail strategy based on distance from camera to an object&#39;s bounding sphere. ">
<polygon fill="none" stroke="#000000" points="425,-99 425,-118 591,-118 591,-99 425,-99"/>
<text text-anchor="middle" x="508" y="-106" font-family="Helvetica,sans-Serif" font-size="10.00" fill="#000000">Ogre::DistanceLodSphereStrategy</text>
</a>
</g>
</g>
<!-- Node2&#45;&gt;Node4 -->
<g id="edge4" class="edge">
<title>Node2&#45;&gt;Node4</title>
<path fill="none" stroke="#191970" d="M394.9601,-108.5C404.9116,-108.5 415.0171,-108.5 424.8851,-108.5"/>
<polygon fill="#191970" stroke="#191970" points="394.6618,-105.0001 384.6618,-108.5 394.6618,-112.0001 394.6618,-105.0001"/>
</g>
<!-- Node6 -->
<g id="node7" class="node">
<title>Node6</title>
<g id="a_node7"><a xlink:href="class_ogre_1_1_absolute_pixel_count_lod_strategy.html" target="_top" xlink:title="Ogre::AbsolutePixelCount\lLodStrategy">
<polygon fill="none" stroke="#000000" points="443,-49.5 443,-79.5 573,-79.5 573,-49.5 443,-49.5"/>
<text text-anchor="start" x="451" y="-67.5" font-family="Helvetica,sans-Serif" font-size="10.00" fill="#000000">Ogre::AbsolutePixelCount</text>
<text text-anchor="middle" x="508" y="-56.5" font-family="Helvetica,sans-Serif" font-size="10.00" fill="#000000">LodStrategy</text>
</a>
</g>
</g>
<!-- Node5&#45;&gt;Node6 -->
<g id="edge6" class="edge">
<title>Node5&#45;&gt;Node6</title>
<path fill="none" stroke="#191970" d="M399.2108,-64.5C413.9833,-64.5 428.9711,-64.5 442.9069,-64.5"/>
<polygon fill="#191970" stroke="#191970" points="399.0337,-61.0001 389.0336,-64.5 399.0336,-68.0001 399.0337,-61.0001"/>
</g>
<!-- Node7 -->
<g id="node8" class="node">
<title>Node7</title>
<g id="a_node8"><a xlink:href="class_ogre_1_1_screen_ratio_pixel_count_lod_strategy.html" target="_top" xlink:title="Ogre::ScreenRatioPixelCount\lLodStrategy">
<polygon fill="none" stroke="#000000" points="435,-.5 435,-30.5 581,-30.5 581,-.5 435,-.5"/>
<text text-anchor="start" x="443" y="-18.5" font-family="Helvetica,sans-Serif" font-size="10.00" fill="#000000">Ogre::ScreenRatioPixelCount</text>
<text text-anchor="middle" x="508" y="-7.5" font-family="Helvetica,sans-Serif" font-size="10.00" fill="#000000">LodStrategy</text>
</a>
</g>
</g>
<!-- Node5&#45;&gt;Node7 -->
<g id="edge7" class="edge">
<title>Node5&#45;&gt;Node7</title>
<path fill="none" stroke="#191970" d="M354.7893,-52.5732C382.2104,-45.938 416.6066,-37.6149 445.8574,-30.537"/>
<polygon fill="#191970" stroke="#191970" points="353.9211,-49.1822 345.0248,-54.936 355.5674,-55.9859 353.9211,-49.1822"/>
</g>
</g>
</svg>
