<?xml version="1.0" encoding="UTF-8" standalone="no"?>
<!DOCTYPE svg PUBLIC "-//W3C//DTD SVG 1.1//EN"
 "http://www.w3.org/Graphics/SVG/1.1/DTD/svg11.dtd">
<!-- Generated by graphviz version 2.43.0 (0)
 -->
<!-- Title: Ogre::HighLevelGpuProgram Pages: 1 -->
<svg width="1121pt" height="230pt"
 viewBox="0.00 0.00 1121.00 229.50" xmlns="http://www.w3.org/2000/svg" xmlns:xlink="http://www.w3.org/1999/xlink">
<g id="graph0" class="graph" transform="scale(1 1) rotate(0) translate(4 225.5)">
<title>Ogre::HighLevelGpuProgram</title>
<!-- Node1 -->
<g id="node1" class="node">
<title>Node1</title>
<g id="a_node1"><a xlink:title="Abstract base class representing a high&#45;level program (a vertex or fragment program).">
<polygon fill="#bfbfbf" stroke="black" points="424,-107 424,-126 579,-126 579,-107 424,-107"/>
<text text-anchor="middle" x="501.5" y="-114" font-family="Helvetica,sans-Serif" font-size="10.00">Ogre::HighLevelGpuProgram</text>
</a>
</g>
</g>
<!-- Node6 -->
<g id="node6" class="node">
<title>Node6</title>
<g id="a_node6"><a xlink:href="class_ogre_1_1_cg_program.html" target="_top" xlink:title="Specialisation of HighLevelGpuProgram to provide support for nVidia&#39;s CG language.">
<polygon fill="none" stroke="black" points="639.5,-202 639.5,-221 739.5,-221 739.5,-202 639.5,-202"/>
<text text-anchor="middle" x="689.5" y="-209" font-family="Helvetica,sans-Serif" font-size="10.00">Ogre::CgProgram</text>
</a>
</g>
</g>
<!-- Node1&#45;&gt;Node6 -->
<g id="edge5" class="edge">
<title>Node1&#45;&gt;Node6</title>
<path fill="none" stroke="midnightblue" d="M521.85,-132.62C543.34,-149.77 579.68,-176.58 615,-192.5 623.41,-196.29 632.72,-199.43 641.8,-201.99"/>
<polygon fill="midnightblue" stroke="midnightblue" points="523.83,-129.72 513.86,-126.14 519.42,-135.16 523.83,-129.72"/>
</g>
<!-- Node7 -->
<g id="node7" class="node">
<title>Node7</title>
<g id="a_node7"><a xlink:href="class_ogre_1_1_d3_d11_h_l_s_l_program.html" target="_top" xlink:title="Specialization of HighLevelGpuProgram to provide support for D3D11 High&#45;Level Shader Language (HLSL).">
<polygon fill="none" stroke="black" points="617.5,-164 617.5,-183 761.5,-183 761.5,-164 617.5,-164"/>
<text text-anchor="middle" x="689.5" y="-171" font-family="Helvetica,sans-Serif" font-size="10.00">Ogre::D3D11HLSLProgram</text>
</a>
</g>
</g>
<!-- Node1&#45;&gt;Node7 -->
<g id="edge6" class="edge">
<title>Node1&#45;&gt;Node7</title>
<path fill="none" stroke="midnightblue" d="M538.73,-129.48C560.67,-137.16 589.3,-146.85 615,-154.5 626.12,-157.81 638.27,-161.09 649.45,-163.97"/>
<polygon fill="midnightblue" stroke="midnightblue" points="539.74,-126.13 529.15,-126.11 537.42,-132.73 539.74,-126.13"/>
</g>
<!-- Node8 -->
<g id="node8" class="node">
<title>Node8</title>
<g id="a_node8"><a xlink:href="class_ogre_1_1_d3_d9_h_l_s_l_program.html" target="_top" xlink:title="Specialisation of HighLevelGpuProgram to provide support for D3D9 High&#45;Level Shader Language (HLSL).">
<polygon fill="none" stroke="black" points="620.5,-126 620.5,-145 758.5,-145 758.5,-126 620.5,-126"/>
<text text-anchor="middle" x="689.5" y="-133" font-family="Helvetica,sans-Serif" font-size="10.00">Ogre::D3D9HLSLProgram</text>
</a>
</g>
</g>
<!-- Node1&#45;&gt;Node8 -->
<g id="edge7" class="edge">
<title>Node1&#45;&gt;Node8</title>
<path fill="none" stroke="midnightblue" d="M589.18,-125.35C599.62,-126.42 610.16,-127.5 620.28,-128.53"/>
<polygon fill="midnightblue" stroke="midnightblue" points="589.53,-121.87 579.23,-124.34 588.82,-128.84 589.53,-121.87"/>
</g>
<!-- Node9 -->
<g id="node9" class="node">
<title>Node9</title>
<g id="a_node9"><a xlink:href="class_ogre_1_1_g_l_s_l_shader_common.html" target="_top" xlink:title="Specialisation of HighLevelGpuProgram to provide support for OpenGL Shader Language (GLSL).">
<polygon fill="none" stroke="black" points="615.5,-88 615.5,-107 763.5,-107 763.5,-88 615.5,-88"/>
<text text-anchor="middle" x="689.5" y="-95" font-family="Helvetica,sans-Serif" font-size="10.00">Ogre::GLSLShaderCommon</text>
</a>
</g>
</g>
<!-- Node1&#45;&gt;Node9 -->
<g id="edge8" class="edge">
<title>Node1&#45;&gt;Node9</title>
<path fill="none" stroke="midnightblue" d="M589.34,-107.63C598.01,-106.74 606.74,-105.85 615.24,-104.98"/>
<polygon fill="midnightblue" stroke="midnightblue" points="588.82,-104.16 579.23,-108.66 589.53,-111.13 588.82,-104.16"/>
</g>
<!-- Node15 -->
<g id="node15" class="node">
<title>Node15</title>
<g id="a_node15"><a xlink:href="class_ogre_1_1_metal_program.html" target="_top" xlink:title="Specialisation of HighLevelGpuProgram to provide support for Metal Shader Language.">
<polygon fill="none" stroke="black" points="632,-50 632,-69 747,-69 747,-50 632,-50"/>
<text text-anchor="middle" x="689.5" y="-57" font-family="Helvetica,sans-Serif" font-size="10.00">Ogre::MetalProgram</text>
</a>
</g>
</g>
<!-- Node1&#45;&gt;Node15 -->
<g id="edge14" class="edge">
<title>Node1&#45;&gt;Node15</title>
<path fill="none" stroke="midnightblue" d="M538.73,-103.52C560.67,-95.84 589.3,-86.15 615,-78.5 626.12,-75.19 638.27,-71.91 649.45,-69.03"/>
<polygon fill="midnightblue" stroke="midnightblue" points="537.42,-100.27 529.15,-106.89 539.74,-106.87 537.42,-100.27"/>
</g>
<!-- Node16 -->
<g id="node16" class="node">
<title>Node16</title>
<g id="a_node16"><a xlink:href="class_ogre_1_1_unified_high_level_gpu_program.html" target="_top" xlink:title="Specialisation of HighLevelGpuProgram which just delegates its implementation to one other GpuProgram...">
<polygon fill="none" stroke="black" points="615,-0.5 615,-30.5 764,-30.5 764,-0.5 615,-0.5"/>
<text text-anchor="start" x="623" y="-18.5" font-family="Helvetica,sans-Serif" font-size="10.00">Ogre::UnifiedHighLevelGpu</text>
<text text-anchor="middle" x="689.5" y="-7.5" font-family="Helvetica,sans-Serif" font-size="10.00">Program</text>
</a>
</g>
</g>
<!-- Node1&#45;&gt;Node16 -->
<g id="edge15" class="edge">
<title>Node1&#45;&gt;Node16</title>
<path fill="none" stroke="midnightblue" d="M522.44,-100.61C544.18,-83.88 580.49,-57.64 615,-40.5 622.36,-36.84 630.39,-33.51 638.35,-30.55"/>
<polygon fill="midnightblue" stroke="midnightblue" points="520.06,-98.03 514.33,-106.93 524.37,-103.55 520.06,-98.03"/>
</g>
<!-- Node2 -->
<g id="node2" class="node">
<title>Node2</title>
<g id="a_node2"><a xlink:href="class_ogre_1_1_gpu_program.html" target="_top" xlink:title="Defines a program which runs on the GPU such as a vertex or fragment program.">
<polygon fill="none" stroke="black" points="281,-107 281,-126 388,-126 388,-107 281,-107"/>
<text text-anchor="middle" x="334.5" y="-114" font-family="Helvetica,sans-Serif" font-size="10.00">Ogre::GpuProgram</text>
</a>
</g>
</g>
<!-- Node2&#45;&gt;Node1 -->
<g id="edge1" class="edge">
<title>Node2&#45;&gt;Node1</title>
<path fill="none" stroke="midnightblue" d="M398.25,-116.5C406.66,-116.5 415.37,-116.5 423.98,-116.5"/>
<polygon fill="midnightblue" stroke="midnightblue" points="398.16,-113 388.16,-116.5 398.16,-120 398.16,-113"/>
</g>
<!-- Node3 -->
<g id="node3" class="node">
<title>Node3</title>
<g id="a_node3"><a xlink:href="class_ogre_1_1_resource.html" target="_top" xlink:title="Abstract class representing a loadable resource.">
<polygon fill="none" stroke="black" points="154,-107 154,-126 245,-126 245,-107 154,-107"/>
<text text-anchor="middle" x="199.5" y="-114" font-family="Helvetica,sans-Serif" font-size="10.00">Ogre::Resource</text>
</a>
</g>
</g>
<!-- Node3&#45;&gt;Node2 -->
<g id="edge2" class="edge">
<title>Node3&#45;&gt;Node2</title>
<path fill="none" stroke="midnightblue" d="M255.31,-116.5C263.77,-116.5 272.49,-116.5 280.91,-116.5"/>
<polygon fill="midnightblue" stroke="midnightblue" points="255.16,-113 245.16,-116.5 255.16,-120 255.16,-113"/>
</g>
<!-- Node4 -->
<g id="node4" class="node">
<title>Node4</title>
<g id="a_node4"><a xlink:href="class_ogre_1_1_string_interface.html" target="_top" xlink:title="Class defining the common interface which classes can use to present a reflection&#45;style,...">
<polygon fill="none" stroke="black" points="0,-126 0,-145 118,-145 118,-126 0,-126"/>
<text text-anchor="middle" x="59" y="-133" font-family="Helvetica,sans-Serif" font-size="10.00">Ogre::StringInterface</text>
</a>
</g>
</g>
<!-- Node4&#45;&gt;Node3 -->
<g id="edge3" class="edge">
<title>Node4&#45;&gt;Node3</title>
<path fill="none" stroke="midnightblue" d="M128.39,-126.12C136.98,-124.94 145.6,-123.76 153.7,-122.65"/>
<polygon fill="midnightblue" stroke="midnightblue" points="127.77,-122.67 118.34,-127.5 128.72,-129.61 127.77,-122.67"/>
</g>
<!-- Node5 -->
<g id="node5" class="node">
<title>Node5</title>
<g id="a_node5"><a xlink:title=" ">
<polygon fill="none" stroke="#bfbfbf" points="16,-88 16,-107 102,-107 102,-88 16,-88"/>
<text text-anchor="middle" x="59" y="-95" font-family="Helvetica,sans-Serif" font-size="10.00">ResourceAlloc</text>
</a>
</g>
</g>
<!-- Node5&#45;&gt;Node3 -->
<g id="edge4" class="edge">
<title>Node5&#45;&gt;Node3</title>
<path fill="none" stroke="midnightblue" d="M112.45,-104.7C125.99,-106.55 140.45,-108.54 153.57,-110.34"/>
<polygon fill="midnightblue" stroke="midnightblue" points="112.69,-101.2 102.31,-103.3 111.74,-108.13 112.69,-101.2"/>
</g>
<!-- Node10 -->
<g id="node10" class="node">
<title>Node10</title>
<g id="a_node10"><a xlink:href="class_ogre_1_1_g_l_s_l_1_1_g_l_s_l_program.html" target="_top" xlink:title=" ">
<polygon fill="none" stroke="black" points="800,-126 800,-145 941,-145 941,-126 800,-126"/>
<text text-anchor="middle" x="870.5" y="-133" font-family="Helvetica,sans-Serif" font-size="10.00">Ogre::GLSL::GLSLProgram</text>
</a>
</g>
</g>
<!-- Node9&#45;&gt;Node10 -->
<g id="edge9" class="edge">
<title>Node9&#45;&gt;Node10</title>
<path fill="none" stroke="midnightblue" d="M745.52,-109.18C770.91,-114.57 800.66,-120.89 824.66,-125.98"/>
<polygon fill="midnightblue" stroke="midnightblue" points="746.18,-105.74 735.67,-107.09 744.72,-112.59 746.18,-105.74"/>
</g>
<!-- Node11 -->
<g id="node11" class="node">
<title>Node11</title>
<g id="a_node11"><a xlink:href="class_ogre_1_1_g_l_s_l_e_s_program.html" target="_top" xlink:title=" ">
<polygon fill="none" stroke="black" points="809,-88 809,-107 932,-107 932,-88 809,-88"/>
<text text-anchor="middle" x="870.5" y="-95" font-family="Helvetica,sans-Serif" font-size="10.00">Ogre::GLSLESProgram</text>
</a>
</g>
</g>
<!-- Node9&#45;&gt;Node11 -->
<g id="edge10" class="edge">
<title>Node9&#45;&gt;Node11</title>
<path fill="none" stroke="midnightblue" d="M773.89,-97.5C785.71,-97.5 797.67,-97.5 808.95,-97.5"/>
<polygon fill="midnightblue" stroke="midnightblue" points="773.56,-94 763.56,-97.5 773.56,-101 773.56,-94"/>
</g>
<!-- Node13 -->
<g id="node13" class="node">
<title>Node13</title>
<g id="a_node13"><a xlink:href="class_ogre_1_1_g_l_s_l_shader.html" target="_top" xlink:title=" ">
<polygon fill="none" stroke="black" points="818.5,-50 818.5,-69 922.5,-69 922.5,-50 818.5,-50"/>
<text text-anchor="middle" x="870.5" y="-57" font-family="Helvetica,sans-Serif" font-size="10.00">Ogre::GLSLShader</text>
</a>
</g>
</g>
<!-- Node9&#45;&gt;Node13 -->
<g id="edge12" class="edge">
<title>Node9&#45;&gt;Node13</title>
<path fill="none" stroke="midnightblue" d="M745.52,-85.82C770.91,-80.43 800.66,-74.11 824.66,-69.02"/>
<polygon fill="midnightblue" stroke="midnightblue" points="744.72,-82.41 735.67,-87.91 746.18,-89.26 744.72,-82.41"/>
</g>
<!-- Node12 -->
<g id="node12" class="node">
<title>Node12</title>
<g id="a_node12"><a xlink:href="class_ogre_1_1_g_l_s_l_e_s_cg_program.html" target="_top" xlink:title="Specialisation of HighLevelGpuProgram to provide support for CG.">
<polygon fill="none" stroke="black" points="977,-88 977,-107 1113,-107 1113,-88 977,-88"/>
<text text-anchor="middle" x="1045" y="-95" font-family="Helvetica,sans-Serif" font-size="10.00">Ogre::GLSLESCgProgram</text>
</a>
</g>
</g>
<!-- Node11&#45;&gt;Node12 -->
<g id="edge11" class="edge">
<title>Node11&#45;&gt;Node12</title>
<path fill="none" stroke="midnightblue" d="M942.63,-97.5C953.99,-97.5 965.72,-97.5 976.98,-97.5"/>
<polygon fill="midnightblue" stroke="midnightblue" points="942.32,-94 932.32,-97.5 942.32,-101 942.32,-94"/>
</g>
<!-- Node14 -->
<g id="node14" class="node">
<title>Node14</title>
<g id="a_node14"><a xlink:href="class_ogre_1_1_s_p_i_r_v_shader.html" target="_top" xlink:title=" ">
<polygon fill="none" stroke="black" points="991,-50 991,-69 1099,-69 1099,-50 991,-50"/>
<text text-anchor="middle" x="1045" y="-57" font-family="Helvetica,sans-Serif" font-size="10.00">Ogre::SPIRVShader</text>
</a>
</g>
</g>
<!-- Node13&#45;&gt;Node14 -->
<g id="edge13" class="edge">
<title>Node13&#45;&gt;Node14</title>
<path fill="none" stroke="midnightblue" d="M932.81,-59.5C951.76,-59.5 972.46,-59.5 990.81,-59.5"/>
<polygon fill="midnightblue" stroke="midnightblue" points="932.79,-56 922.79,-59.5 932.79,-63 932.79,-56"/>
</g>
</g>
</svg>
