<?xml version="1.0" encoding="UTF-8" standalone="no"?>
<!DOCTYPE svg PUBLIC "-//W3C//DTD SVG 1.1//EN"
 "http://www.w3.org/Graphics/SVG/1.1/DTD/svg11.dtd">
<!-- Generated by graphviz version 2.43.0 (0)
 -->
<!-- Title: Ogre::RenderTarget Pages: 1 -->
<svg width="844pt" height="624pt"
 viewBox="0.00 0.00 844.00 624.00" xmlns="http://www.w3.org/2000/svg" xmlns:xlink="http://www.w3.org/1999/xlink">
<g id="graph0" class="graph" transform="scale(1 1) rotate(0) translate(4 620)">
<title>Ogre::RenderTarget</title>
<!-- Node1 -->
<g id="node1" class="node">
<title>Node1</title>
<g id="a_node1"><a xlink:title="A &#39;canvas&#39; which can receive the results of a rendering operation.">
<polygon fill="#bfbfbf" stroke="black" points="128,-269.5 128,-288.5 238,-288.5 238,-269.5 128,-269.5"/>
<text text-anchor="middle" x="183" y="-276.5" font-family="Helvetica,sans-Serif" font-size="10.00">Ogre::RenderTarget</text>
</a>
</g>
</g>
<!-- Node3 -->
<g id="node3" class="node">
<title>Node3</title>
<g id="a_node3"><a xlink:href="class_ogre_1_1_multi_render_target.html" target="_top" xlink:title="This class represents a render target that renders to multiple RenderTextures at once.">
<polygon fill="none" stroke="black" points="274,-465.5 274,-484.5 409,-484.5 409,-465.5 274,-465.5"/>
<text text-anchor="middle" x="341.5" y="-472.5" font-family="Helvetica,sans-Serif" font-size="10.00">Ogre::MultiRenderTarget</text>
</a>
</g>
</g>
<!-- Node1&#45;&gt;Node3 -->
<g id="edge2" class="edge">
<title>Node1&#45;&gt;Node3</title>
<path fill="none" stroke="midnightblue" d="M198.04,-296.58C230.09,-336.73 307.8,-434.05 332.69,-465.22"/>
<polygon fill="midnightblue" stroke="midnightblue" points="200.74,-294.35 191.76,-288.72 195.27,-298.72 200.74,-294.35"/>
</g>
<!-- Node10 -->
<g id="node10" class="node">
<title>Node10</title>
<g id="a_node10"><a xlink:href="class_ogre_1_1_render_texture.html" target="_top" xlink:title="This class represents a RenderTarget that renders to a Texture.">
<polygon fill="none" stroke="black" points="283.5,-269.5 283.5,-288.5 399.5,-288.5 399.5,-269.5 283.5,-269.5"/>
<text text-anchor="middle" x="341.5" y="-276.5" font-family="Helvetica,sans-Serif" font-size="10.00">Ogre::RenderTexture</text>
</a>
</g>
</g>
<!-- Node1&#45;&gt;Node10 -->
<g id="edge9" class="edge">
<title>Node1&#45;&gt;Node10</title>
<path fill="none" stroke="midnightblue" d="M248.36,-279C259.96,-279 271.99,-279 283.37,-279"/>
<polygon fill="midnightblue" stroke="midnightblue" points="248.3,-275.5 238.3,-279 248.3,-282.5 248.3,-275.5"/>
</g>
<!-- Node21 -->
<g id="node21" class="node">
<title>Node21</title>
<g id="a_node21"><a xlink:href="class_ogre_1_1_render_window.html" target="_top" xlink:title="Manages the target rendering window.">
<polygon fill="none" stroke="black" points="282,-95.5 282,-114.5 401,-114.5 401,-95.5 282,-95.5"/>
<text text-anchor="middle" x="341.5" y="-102.5" font-family="Helvetica,sans-Serif" font-size="10.00">Ogre::RenderWindow</text>
</a>
</g>
</g>
<!-- Node1&#45;&gt;Node21 -->
<g id="edge20" class="edge">
<title>Node1&#45;&gt;Node21</title>
<path fill="none" stroke="midnightblue" d="M199.61,-261.65C232.13,-225.49 306.21,-143.12 331.7,-114.79"/>
<polygon fill="midnightblue" stroke="midnightblue" points="196.72,-259.62 192.64,-269.4 201.93,-264.3 196.72,-259.62"/>
</g>
<!-- Node2 -->
<g id="node2" class="node">
<title>Node2</title>
<g id="a_node2"><a xlink:title=" ">
<polygon fill="none" stroke="#bfbfbf" points="0,-269.5 0,-288.5 92,-288.5 92,-269.5 0,-269.5"/>
<text text-anchor="middle" x="46" y="-276.5" font-family="Helvetica,sans-Serif" font-size="10.00">RenderSysAlloc</text>
</a>
</g>
</g>
<!-- Node2&#45;&gt;Node1 -->
<g id="edge1" class="edge">
<title>Node2&#45;&gt;Node1</title>
<path fill="none" stroke="midnightblue" d="M102.36,-279C110.72,-279 119.33,-279 127.66,-279"/>
<polygon fill="midnightblue" stroke="midnightblue" points="102.33,-275.5 92.33,-279 102.33,-282.5 102.33,-275.5"/>
</g>
<!-- Node4 -->
<g id="node4" class="node">
<title>Node4</title>
<g id="a_node4"><a xlink:href="class_ogre_1_1_d3_d11_multi_render_target.html" target="_top" xlink:title=" ">
<polygon fill="none" stroke="black" points="449,-596.5 449,-615.5 617,-615.5 617,-596.5 449,-596.5"/>
<text text-anchor="middle" x="533" y="-603.5" font-family="Helvetica,sans-Serif" font-size="10.00">Ogre::D3D11MultiRenderTarget</text>
</a>
</g>
</g>
<!-- Node3&#45;&gt;Node4 -->
<g id="edge3" class="edge">
<title>Node3&#45;&gt;Node4</title>
<path fill="none" stroke="midnightblue" d="M353.86,-493.24C370.58,-518.47 404.29,-563.56 445,-587 451.7,-590.86 459.1,-593.93 466.67,-596.38"/>
<polygon fill="midnightblue" stroke="midnightblue" points="356.67,-491.13 348.3,-484.63 350.78,-494.93 356.67,-491.13"/>
</g>
<!-- Node5 -->
<g id="node5" class="node">
<title>Node5</title>
<g id="a_node5"><a xlink:href="class_ogre_1_1_d3_d9_multi_render_target.html" target="_top" xlink:title=" ">
<polygon fill="none" stroke="black" points="452,-558.5 452,-577.5 614,-577.5 614,-558.5 452,-558.5"/>
<text text-anchor="middle" x="533" y="-565.5" font-family="Helvetica,sans-Serif" font-size="10.00">Ogre::D3D9MultiRenderTarget</text>
</a>
</g>
</g>
<!-- Node3&#45;&gt;Node5 -->
<g id="edge4" class="edge">
<title>Node3&#45;&gt;Node5</title>
<path fill="none" stroke="midnightblue" d="M360.36,-491.46C379.76,-508.43 412.36,-534.42 445,-549 453.61,-552.85 463.06,-555.94 472.45,-558.42"/>
<polygon fill="midnightblue" stroke="midnightblue" points="362.45,-488.63 352.66,-484.58 357.79,-493.85 362.45,-488.63"/>
</g>
<!-- Node6 -->
<g id="node6" class="node">
<title>Node6</title>
<g id="a_node6"><a xlink:href="class_ogre_1_1_g_l3_plus_f_b_o_multi_render_target.html" target="_top" xlink:title="MultiRenderTarget for OpenGL.">
<polygon fill="none" stroke="black" points="451,-509 451,-539 615,-539 615,-509 451,-509"/>
<text text-anchor="start" x="459" y="-527" font-family="Helvetica,sans-Serif" font-size="10.00">Ogre::GL3PlusFBOMultiRender</text>
<text text-anchor="middle" x="533" y="-516" font-family="Helvetica,sans-Serif" font-size="10.00">Target</text>
</a>
</g>
</g>
<!-- Node3&#45;&gt;Node6 -->
<g id="edge5" class="edge">
<title>Node3&#45;&gt;Node6</title>
<path fill="none" stroke="midnightblue" d="M389.3,-487.1C414.85,-493.71 446.71,-501.95 473.85,-508.96"/>
<polygon fill="midnightblue" stroke="midnightblue" points="390.05,-483.68 379.49,-484.56 388.29,-490.46 390.05,-483.68"/>
</g>
<!-- Node7 -->
<g id="node7" class="node">
<title>Node7</title>
<g id="a_node7"><a xlink:href="class_ogre_1_1_g_l_e_s2_f_b_o_multi_render_target.html" target="_top" xlink:title="MultiRenderTarget for GL ES 2.x.">
<polygon fill="none" stroke="black" points="455,-460 455,-490 611,-490 611,-460 455,-460"/>
<text text-anchor="start" x="463" y="-478" font-family="Helvetica,sans-Serif" font-size="10.00">Ogre::GLES2FBOMultiRender</text>
<text text-anchor="middle" x="533" y="-467" font-family="Helvetica,sans-Serif" font-size="10.00">Target</text>
</a>
</g>
</g>
<!-- Node3&#45;&gt;Node7 -->
<g id="edge6" class="edge">
<title>Node3&#45;&gt;Node7</title>
<path fill="none" stroke="midnightblue" d="M419.26,-475C431.01,-475 443.15,-475 454.91,-475"/>
<polygon fill="midnightblue" stroke="midnightblue" points="419.04,-471.5 409.04,-475 419.04,-478.5 419.04,-471.5"/>
</g>
<!-- Node8 -->
<g id="node8" class="node">
<title>Node8</title>
<g id="a_node8"><a xlink:href="class_ogre_1_1_g_l_f_b_o_multi_render_target.html" target="_top" xlink:title="MultiRenderTarget for GL.">
<polygon fill="none" stroke="black" points="449,-421.5 449,-440.5 617,-440.5 617,-421.5 449,-421.5"/>
<text text-anchor="middle" x="533" y="-428.5" font-family="Helvetica,sans-Serif" font-size="10.00">Ogre::GLFBOMultiRenderTarget</text>
</a>
</g>
</g>
<!-- Node3&#45;&gt;Node8 -->
<g id="edge7" class="edge">
<title>Node3&#45;&gt;Node8</title>
<path fill="none" stroke="midnightblue" d="M393.37,-463.05C409.84,-459.19 428.19,-454.9 445,-451 459.8,-447.57 476.01,-443.83 490.39,-440.53"/>
<polygon fill="midnightblue" stroke="midnightblue" points="392.33,-459.7 383.39,-465.39 393.93,-466.51 392.33,-459.7"/>
</g>
<!-- Node9 -->
<g id="node9" class="node">
<title>Node9</title>
<g id="a_node9"><a xlink:href="class_ogre_1_1_metal_multi_render_target.html" target="_top" xlink:title=" ">
<polygon fill="none" stroke="black" points="451.5,-383.5 451.5,-402.5 614.5,-402.5 614.5,-383.5 451.5,-383.5"/>
<text text-anchor="middle" x="533" y="-390.5" font-family="Helvetica,sans-Serif" font-size="10.00">Ogre::MetalMultiRenderTarget</text>
</a>
</g>
</g>
<!-- Node3&#45;&gt;Node9 -->
<g id="edge8" class="edge">
<title>Node3&#45;&gt;Node9</title>
<path fill="none" stroke="midnightblue" d="M363.33,-459.27C383.29,-444.93 414.76,-424.19 445,-412 454.46,-408.19 464.83,-405.08 475.01,-402.56"/>
<polygon fill="midnightblue" stroke="midnightblue" points="361.02,-456.63 355.02,-465.35 365.15,-462.27 361.02,-456.63"/>
</g>
<!-- Node11 -->
<g id="node11" class="node">
<title>Node11</title>
<g id="a_node11"><a xlink:href="class_ogre_1_1_d3_d11_render_texture.html" target="_top" xlink:title="RenderTexture implementation for D3D11.">
<polygon fill="none" stroke="black" points="458.5,-345.5 458.5,-364.5 607.5,-364.5 607.5,-345.5 458.5,-345.5"/>
<text text-anchor="middle" x="533" y="-352.5" font-family="Helvetica,sans-Serif" font-size="10.00">Ogre::D3D11RenderTexture</text>
</a>
</g>
</g>
<!-- Node10&#45;&gt;Node11 -->
<g id="edge10" class="edge">
<title>Node10&#45;&gt;Node11</title>
<path fill="none" stroke="midnightblue" d="M364.92,-294C385.09,-306.87 415.93,-325.02 445,-336 454.98,-339.77 465.9,-342.89 476.53,-345.43"/>
<polygon fill="midnightblue" stroke="midnightblue" points="366.75,-291.02 356.45,-288.51 362.94,-296.89 366.75,-291.02"/>
</g>
<!-- Node12 -->
<g id="node12" class="node">
<title>Node12</title>
<g id="a_node12"><a xlink:href="class_ogre_1_1_d3_d9_render_texture.html" target="_top" xlink:title="RenderTexture implementation for D3D9.">
<polygon fill="none" stroke="black" points="461.5,-307.5 461.5,-326.5 604.5,-326.5 604.5,-307.5 461.5,-307.5"/>
<text text-anchor="middle" x="533" y="-314.5" font-family="Helvetica,sans-Serif" font-size="10.00">Ogre::D3D9RenderTexture</text>
</a>
</g>
</g>
<!-- Node10&#45;&gt;Node12 -->
<g id="edge11" class="edge">
<title>Node10&#45;&gt;Node12</title>
<path fill="none" stroke="midnightblue" d="M400.39,-290.61C427.35,-296.01 459.01,-302.36 484.53,-307.48"/>
<polygon fill="midnightblue" stroke="midnightblue" points="400.81,-287.12 390.32,-288.59 399.44,-293.99 400.81,-287.12"/>
</g>
<!-- Node13 -->
<g id="node13" class="node">
<title>Node13</title>
<g id="a_node13"><a xlink:href="class_ogre_1_1_g_l_render_texture.html" target="_top" xlink:title="Base class for GL Render Textures.">
<polygon fill="none" stroke="black" points="468.5,-269.5 468.5,-288.5 597.5,-288.5 597.5,-269.5 468.5,-269.5"/>
<text text-anchor="middle" x="533" y="-276.5" font-family="Helvetica,sans-Serif" font-size="10.00">Ogre::GLRenderTexture</text>
</a>
</g>
</g>
<!-- Node10&#45;&gt;Node13 -->
<g id="edge12" class="edge">
<title>Node10&#45;&gt;Node13</title>
<path fill="none" stroke="midnightblue" d="M409.72,-279C428.8,-279 449.52,-279 468.38,-279"/>
<polygon fill="midnightblue" stroke="midnightblue" points="409.61,-275.5 399.61,-279 409.61,-282.5 409.61,-275.5"/>
</g>
<!-- Node19 -->
<g id="node19" class="node">
<title>Node19</title>
<g id="a_node19"><a xlink:href="class_ogre_1_1_metal_depth_texture_target.html" target="_top" xlink:title=" ">
<polygon fill="none" stroke="black" points="448.5,-231.5 448.5,-250.5 617.5,-250.5 617.5,-231.5 448.5,-231.5"/>
<text text-anchor="middle" x="533" y="-238.5" font-family="Helvetica,sans-Serif" font-size="10.00">Ogre::MetalDepthTextureTarget</text>
</a>
</g>
</g>
<!-- Node10&#45;&gt;Node19 -->
<g id="edge18" class="edge">
<title>Node10&#45;&gt;Node19</title>
<path fill="none" stroke="midnightblue" d="M400.39,-267.39C427.35,-261.99 459.01,-255.64 484.53,-250.52"/>
<polygon fill="midnightblue" stroke="midnightblue" points="399.44,-264.01 390.32,-269.41 400.81,-270.88 399.44,-264.01"/>
</g>
<!-- Node20 -->
<g id="node20" class="node">
<title>Node20</title>
<g id="a_node20"><a xlink:href="class_ogre_1_1_metal_render_texture.html" target="_top" xlink:title=" ">
<polygon fill="none" stroke="black" points="461,-193.5 461,-212.5 605,-212.5 605,-193.5 461,-193.5"/>
<text text-anchor="middle" x="533" y="-200.5" font-family="Helvetica,sans-Serif" font-size="10.00">Ogre::MetalRenderTexture</text>
</a>
</g>
</g>
<!-- Node10&#45;&gt;Node20 -->
<g id="edge19" class="edge">
<title>Node10&#45;&gt;Node20</title>
<path fill="none" stroke="midnightblue" d="M364.92,-264C385.09,-251.13 415.93,-232.98 445,-222 454.98,-218.23 465.9,-215.11 476.53,-212.57"/>
<polygon fill="midnightblue" stroke="midnightblue" points="362.94,-261.11 356.45,-269.49 366.75,-266.98 362.94,-261.11"/>
</g>
<!-- Node14 -->
<g id="node14" class="node">
<title>Node14</title>
<g id="a_node14"><a xlink:href="class_ogre_1_1_g_l3_plus_f_b_o_render_texture.html" target="_top" xlink:title="RenderTexture for GL FBO.">
<polygon fill="none" stroke="black" points="658.5,-346.5 658.5,-365.5 834.5,-365.5 834.5,-346.5 658.5,-346.5"/>
<text text-anchor="middle" x="746.5" y="-353.5" font-family="Helvetica,sans-Serif" font-size="10.00">Ogre::GL3PlusFBORenderTexture</text>
</a>
</g>
</g>
<!-- Node13&#45;&gt;Node14 -->
<g id="edge13" class="edge">
<title>Node13&#45;&gt;Node14</title>
<path fill="none" stroke="midnightblue" d="M607.64,-291.63C612.28,-293.47 616.78,-295.58 621,-298 641.47,-309.72 636.51,-325.31 657,-337 663.82,-340.89 671.36,-343.99 679.07,-346.45"/>
<polygon fill="midnightblue" stroke="midnightblue" points="608.54,-288.24 597.94,-288.21 606.21,-294.84 608.54,-288.24"/>
</g>
<!-- Node15 -->
<g id="node15" class="node">
<title>Node15</title>
<g id="a_node15"><a xlink:href="class_ogre_1_1_g_l_copying_render_texture.html" target="_top" xlink:title=" ">
<polygon fill="none" stroke="black" points="662,-308.5 662,-327.5 831,-327.5 831,-308.5 662,-308.5"/>
<text text-anchor="middle" x="746.5" y="-315.5" font-family="Helvetica,sans-Serif" font-size="10.00">Ogre::GLCopyingRenderTexture</text>
</a>
</g>
</g>
<!-- Node13&#45;&gt;Node15 -->
<g id="edge14" class="edge">
<title>Node13&#45;&gt;Node15</title>
<path fill="none" stroke="midnightblue" d="M595.63,-290.36C626.83,-296.12 664.27,-303.02 693.93,-308.49"/>
<polygon fill="midnightblue" stroke="midnightblue" points="596.21,-286.91 585.74,-288.54 594.94,-293.8 596.21,-286.91"/>
</g>
<!-- Node16 -->
<g id="node16" class="node">
<title>Node16</title>
<g id="a_node16"><a xlink:href="class_ogre_1_1_g_l_e_s2_f_b_o_render_texture.html" target="_top" xlink:title="RenderTexture for GL ES 2 FBO.">
<polygon fill="none" stroke="black" points="663,-270.5 663,-289.5 830,-289.5 830,-270.5 663,-270.5"/>
<text text-anchor="middle" x="746.5" y="-277.5" font-family="Helvetica,sans-Serif" font-size="10.00">Ogre::GLES2FBORenderTexture</text>
</a>
</g>
</g>
<!-- Node13&#45;&gt;Node16 -->
<g id="edge15" class="edge">
<title>Node13&#45;&gt;Node16</title>
<path fill="none" stroke="midnightblue" d="M607.99,-279.35C625.67,-279.43 644.65,-279.52 662.7,-279.61"/>
<polygon fill="midnightblue" stroke="midnightblue" points="607.76,-275.85 597.74,-279.3 607.73,-282.85 607.76,-275.85"/>
</g>
<!-- Node17 -->
<g id="node17" class="node">
<title>Node17</title>
<g id="a_node17"><a xlink:href="class_ogre_1_1_g_l_f_b_o_render_texture.html" target="_top" xlink:title="RenderTexture for GL FBO.">
<polygon fill="none" stroke="black" points="672,-232.5 672,-251.5 821,-251.5 821,-232.5 672,-232.5"/>
<text text-anchor="middle" x="746.5" y="-239.5" font-family="Helvetica,sans-Serif" font-size="10.00">Ogre::GLFBORenderTexture</text>
</a>
</g>
</g>
<!-- Node13&#45;&gt;Node17 -->
<g id="edge16" class="edge">
<title>Node13&#45;&gt;Node17</title>
<path fill="none" stroke="midnightblue" d="M598.67,-267.69C628.15,-262.53 662.69,-256.49 690.85,-251.56"/>
<polygon fill="midnightblue" stroke="midnightblue" points="597.71,-264.3 588.47,-269.47 598.92,-271.2 597.71,-264.3"/>
</g>
<!-- Node18 -->
<g id="node18" class="node">
<title>Node18</title>
<g id="a_node18"><a xlink:href="class_ogre_1_1_g_l_p_b_render_texture.html" target="_top" xlink:title=" ">
<polygon fill="none" stroke="black" points="675.5,-194.5 675.5,-213.5 817.5,-213.5 817.5,-194.5 675.5,-194.5"/>
<text text-anchor="middle" x="746.5" y="-201.5" font-family="Helvetica,sans-Serif" font-size="10.00">Ogre::GLPBRenderTexture</text>
</a>
</g>
</g>
<!-- Node13&#45;&gt;Node18 -->
<g id="edge17" class="edge">
<title>Node13&#45;&gt;Node18</title>
<path fill="none" stroke="midnightblue" d="M607.56,-266.24C612.23,-264.43 616.75,-262.36 621,-260 641.06,-248.86 636.92,-234.11 657,-223 664.01,-219.12 671.74,-216.03 679.63,-213.58"/>
<polygon fill="midnightblue" stroke="midnightblue" points="606.15,-263.03 597.84,-269.61 608.44,-269.64 606.15,-263.03"/>
</g>
<!-- Node22 -->
<g id="node22" class="node">
<title>Node22</title>
<g id="a_node22"><a xlink:href="class_ogre_1_1_d3_d11_render_window_base.html" target="_top" xlink:title=" ">
<polygon fill="none" stroke="black" points="445,-152.5 445,-171.5 621,-171.5 621,-152.5 445,-152.5"/>
<text text-anchor="middle" x="533" y="-159.5" font-family="Helvetica,sans-Serif" font-size="10.00">Ogre::D3D11RenderWindowBase</text>
</a>
</g>
</g>
<!-- Node21&#45;&gt;Node22 -->
<g id="edge21" class="edge">
<title>Node21&#45;&gt;Node22</title>
<path fill="none" stroke="midnightblue" d="M374.94,-118.35C394.91,-126.24 421.16,-136.02 445,-143 457.02,-146.52 470.14,-149.72 482.47,-152.44"/>
<polygon fill="midnightblue" stroke="midnightblue" points="375.98,-115 365.39,-114.54 373.38,-121.5 375.98,-115"/>
</g>
<!-- Node24 -->
<g id="node24" class="node">
<title>Node24</title>
<g id="a_node24"><a xlink:href="class_ogre_1_1_d3_d9_render_window.html" target="_top" xlink:title=" ">
<polygon fill="none" stroke="black" points="460,-114.5 460,-133.5 606,-133.5 606,-114.5 460,-114.5"/>
<text text-anchor="middle" x="533" y="-121.5" font-family="Helvetica,sans-Serif" font-size="10.00">Ogre::D3D9RenderWindow</text>
</a>
</g>
</g>
<!-- Node21&#45;&gt;Node24 -->
<g id="edge23" class="edge">
<title>Node21&#45;&gt;Node24</title>
<path fill="none" stroke="midnightblue" d="M411.37,-111.91C427.17,-113.49 444,-115.18 459.93,-116.77"/>
<polygon fill="midnightblue" stroke="midnightblue" points="411.46,-108.4 401.16,-110.88 410.76,-115.36 411.46,-108.4"/>
</g>
<!-- Node25 -->
<g id="node25" class="node">
<title>Node25</title>
<g id="a_node25"><a xlink:href="class_ogre_1_1_g_l_window.html" target="_top" xlink:title=" ">
<polygon fill="none" stroke="black" points="484.5,-76.5 484.5,-95.5 581.5,-95.5 581.5,-76.5 484.5,-76.5"/>
<text text-anchor="middle" x="533" y="-83.5" font-family="Helvetica,sans-Serif" font-size="10.00">Ogre::GLWindow</text>
</a>
</g>
</g>
<!-- Node21&#45;&gt;Node25 -->
<g id="edge24" class="edge">
<title>Node21&#45;&gt;Node25</title>
<path fill="none" stroke="midnightblue" d="M411.38,-98.09C435.62,-95.66 462.31,-92.99 484.4,-90.77"/>
<polygon fill="midnightblue" stroke="midnightblue" points="410.76,-94.64 401.16,-99.12 411.46,-101.6 410.76,-94.64"/>
</g>
<!-- Node26 -->
<g id="node26" class="node">
<title>Node26</title>
<g id="a_node26"><a xlink:href="class_ogre_1_1_metal_render_window.html" target="_top" xlink:title=" ">
<polygon fill="none" stroke="black" points="459.5,-38.5 459.5,-57.5 606.5,-57.5 606.5,-38.5 459.5,-38.5"/>
<text text-anchor="middle" x="533" y="-45.5" font-family="Helvetica,sans-Serif" font-size="10.00">Ogre::MetalRenderWindow</text>
</a>
</g>
</g>
<!-- Node21&#45;&gt;Node26 -->
<g id="edge25" class="edge">
<title>Node21&#45;&gt;Node26</title>
<path fill="none" stroke="midnightblue" d="M374.94,-91.65C394.91,-83.76 421.16,-73.98 445,-67 457.02,-63.48 470.14,-60.28 482.47,-57.56"/>
<polygon fill="midnightblue" stroke="midnightblue" points="373.38,-88.5 365.39,-95.46 375.98,-95 373.38,-88.5"/>
</g>
<!-- Node27 -->
<g id="node27" class="node">
<title>Node27</title>
<g id="a_node27"><a xlink:href="class_ogre_1_1_tiny_window.html" target="_top" xlink:title=" ">
<polygon fill="none" stroke="black" points="480.5,-0.5 480.5,-19.5 585.5,-19.5 585.5,-0.5 480.5,-0.5"/>
<text text-anchor="middle" x="533" y="-7.5" font-family="Helvetica,sans-Serif" font-size="10.00">Ogre::TinyWindow</text>
</a>
</g>
</g>
<!-- Node21&#45;&gt;Node27 -->
<g id="edge26" class="edge">
<title>Node21&#45;&gt;Node27</title>
<path fill="none" stroke="midnightblue" d="M359.71,-88.59C378.96,-71.16 411.82,-44.08 445,-29 455.98,-24.01 468.34,-20.3 480.23,-17.55"/>
<polygon fill="midnightblue" stroke="midnightblue" points="357.3,-86.05 352.33,-95.41 362.05,-91.19 357.3,-86.05"/>
</g>
<!-- Node23 -->
<g id="node23" class="node">
<title>Node23</title>
<g id="a_node23"><a xlink:href="class_ogre_1_1_d3_d11_render_window_swap_chain_based.html" target="_top" xlink:title=" ">
<polygon fill="none" stroke="black" points="657,-145 657,-175 836,-175 836,-145 657,-145"/>
<text text-anchor="start" x="665" y="-163" font-family="Helvetica,sans-Serif" font-size="10.00">Ogre::D3D11RenderWindowSwap</text>
<text text-anchor="middle" x="746.5" y="-152" font-family="Helvetica,sans-Serif" font-size="10.00">ChainBased</text>
</a>
</g>
</g>
<!-- Node22&#45;&gt;Node23 -->
<g id="edge22" class="edge">
<title>Node22&#45;&gt;Node23</title>
<path fill="none" stroke="midnightblue" d="M631.47,-161.08C639.9,-161 648.4,-160.92 656.75,-160.84"/>
<polygon fill="midnightblue" stroke="midnightblue" points="631.21,-157.58 621.25,-161.17 631.28,-164.58 631.21,-157.58"/>
</g>
</g>
</svg>
