<?xml version="1.0" encoding="UTF-8" standalone="no"?>
<!DOCTYPE svg PUBLIC "-//W3C//DTD SVG 1.1//EN"
 "http://www.w3.org/Graphics/SVG/1.1/DTD/svg11.dtd">
<!-- Generated by graphviz version 2.40.1 (20161225.0304)
 -->
<!-- Title: Ogre::ScriptTranslator Pages: 1 -->
<svg width="434pt" height="154pt"
 viewBox="0.00 0.00 434.00 153.50" xmlns="http://www.w3.org/2000/svg" xmlns:xlink="http://www.w3.org/1999/xlink">
<g id="graph0" class="graph" transform="scale(1 1) rotate(0) translate(4 149.5)">
<title>Ogre::ScriptTranslator</title>
<!-- Node0 -->
<g id="node1" class="node">
<title>Node0</title>
<polygon fill="#bfbfbf" stroke="#000000" points="143,-69 143,-88 256,-88 256,-69 143,-69"/>
<text text-anchor="middle" x="199.5" y="-76" font-family="Helvetica,sans-Serif" font-size="10.00" fill="#000000">Ogre::ScriptTranslator</text>
</g>
<!-- Node2 -->
<g id="node3" class="node">
<title>Node2</title>
<g id="a_node3"><a xlink:href="struct_ogre_1_1_element_translator.html" target="_top" xlink:title="[font_translator] ">
<polygon fill="none" stroke="#000000" points="297.5,-126 297.5,-145 420.5,-145 420.5,-126 297.5,-126"/>
<text text-anchor="middle" x="359" y="-133" font-family="Helvetica,sans-Serif" font-size="10.00" fill="#000000">Ogre::ElementTranslator</text>
</a>
</g>
</g>
<!-- Node0&#45;&gt;Node2 -->
<g id="edge2" class="edge">
<title>Node0&#45;&gt;Node2</title>
<path fill="none" stroke="#191970" d="M230.2481,-92.158C248.0882,-99.8228 271.0961,-109.2684 292,-116.5 301.8265,-119.8995 312.6121,-123.1591 322.6033,-125.9893"/>
<polygon fill="#191970" stroke="#191970" points="231.4817,-88.8781 220.9148,-88.1085 228.6954,-95.2997 231.4817,-88.8781"/>
</g>
<!-- Node3 -->
<g id="node4" class="node">
<title>Node3</title>
<g id="a_node4"><a xlink:href="struct_ogre_1_1_font_translator.html" target="_top" xlink:title="[font_translator] ">
<polygon fill="none" stroke="#000000" points="305.5,-88 305.5,-107 412.5,-107 412.5,-88 305.5,-88"/>
<text text-anchor="middle" x="359" y="-95" font-family="Helvetica,sans-Serif" font-size="10.00" fill="#000000">Ogre::FontTranslator</text>
</a>
</g>
</g>
<!-- Node0&#45;&gt;Node3 -->
<g id="edge3" class="edge">
<title>Node0&#45;&gt;Node3</title>
<path fill="none" stroke="#191970" d="M266.4797,-86.4788C279.4772,-88.0271 292.9393,-89.6307 305.4364,-91.1194"/>
<polygon fill="#191970" stroke="#191970" points="266.5267,-82.9597 256.1828,-85.2522 265.6986,-89.9106 266.5267,-82.9597"/>
</g>
<!-- Node4 -->
<g id="node5" class="node">
<title>Node4</title>
<g id="a_node5"><a xlink:href="struct_ogre_1_1_overlay_translator.html" target="_top" xlink:title="Ogre::OverlayTranslator">
<polygon fill="none" stroke="#000000" points="298.5,-50 298.5,-69 419.5,-69 419.5,-50 298.5,-50"/>
<text text-anchor="middle" x="359" y="-57" font-family="Helvetica,sans-Serif" font-size="10.00" fill="#000000">Ogre::OverlayTranslator</text>
</a>
</g>
</g>
<!-- Node0&#45;&gt;Node4 -->
<g id="edge4" class="edge">
<title>Node0&#45;&gt;Node4</title>
<path fill="none" stroke="#191970" d="M266.2856,-70.5444C276.9514,-69.2738 287.9351,-67.9654 298.4458,-66.7134"/>
<polygon fill="#191970" stroke="#191970" points="265.6986,-67.0894 256.1828,-71.7478 266.5267,-74.0403 265.6986,-67.0894"/>
</g>
<!-- Node5 -->
<g id="node6" class="node">
<title>Node5</title>
<g id="a_node6"><a xlink:href="class_ogre_1_1_r_t_shader_1_1_s_g_script_translator.html" target="_top" xlink:title="This class responsible for translating core features of the RT Shader System for Ogre material script...">
<polygon fill="none" stroke="#000000" points="292,-.5 292,-30.5 426,-30.5 426,-.5 292,-.5"/>
<text text-anchor="start" x="300" y="-18.5" font-family="Helvetica,sans-Serif" font-size="10.00" fill="#000000">Ogre::RTShader::SGScript</text>
<text text-anchor="middle" x="359" y="-7.5" font-family="Helvetica,sans-Serif" font-size="10.00" fill="#000000">Translator</text>
</a>
</g>
</g>
<!-- Node0&#45;&gt;Node5 -->
<g id="edge5" class="edge">
<title>Node0&#45;&gt;Node5</title>
<path fill="none" stroke="#191970" d="M231.556,-65.0298C249.312,-57.6447 271.8144,-48.4097 292,-40.5 300.3229,-37.2387 309.2639,-33.8343 317.8171,-30.6253"/>
<polygon fill="#191970" stroke="#191970" points="230.1065,-61.8421 222.2247,-68.9223 232.8014,-68.3026 230.1065,-61.8421"/>
</g>
<!-- Node1 -->
<g id="node2" class="node">
<title>Node1</title>
<g id="a_node2"><a xlink:href="class_ogre_1_1_allocated_object.html" target="_top" xlink:title="ScriptTranslatorAlloc">
<polygon fill="none" stroke="#000000" points="0,-69 0,-88 107,-88 107,-69 0,-69"/>
<text text-anchor="middle" x="53.5" y="-76" font-family="Helvetica,sans-Serif" font-size="10.00" fill="#000000">ScriptTranslatorAlloc</text>
</a>
</g>
</g>
<!-- Node1&#45;&gt;Node0 -->
<g id="edge1" class="edge">
<title>Node1&#45;&gt;Node0</title>
<path fill="none" stroke="#191970" d="M117.2027,-78.5C125.6312,-78.5 134.2279,-78.5 142.5332,-78.5"/>
<polygon fill="#191970" stroke="#191970" points="117.036,-75.0001 107.036,-78.5 117.0359,-82.0001 117.036,-75.0001"/>
</g>
</g>
</svg>
