<?xml version="1.0" encoding="UTF-8" standalone="no"?>
<!DOCTYPE svg PUBLIC "-//W3C//DTD SVG 1.1//EN"
 "http://www.w3.org/Graphics/SVG/1.1/DTD/svg11.dtd">
<!-- Generated by graphviz version 2.43.0 (0)
 -->
<!-- Title: Ogre::HighLevelGpuProgramFactory Pages: 1 -->
<svg width="492pt" height="382pt"
 viewBox="0.00 0.00 492.00 381.50" xmlns="http://www.w3.org/2000/svg" xmlns:xlink="http://www.w3.org/1999/xlink">
<g id="graph0" class="graph" transform="scale(1 1) rotate(0) translate(4 377.5)">
<title>Ogre::HighLevelGpuProgramFactory</title>
<!-- Node1 -->
<g id="node1" class="node">
<title>Node1</title>
<g id="a_node1"><a xlink:title="Interface definition for factories of HighLevelGpuProgram.">
<polygon fill="#bfbfbf" stroke="black" points="113,-177.5 113,-207.5 268,-207.5 268,-177.5 113,-177.5"/>
<text text-anchor="start" x="121" y="-195.5" font-family="Helvetica,sans-Serif" font-size="10.00">Ogre::HighLevelGpuProgram</text>
<text text-anchor="middle" x="190.5" y="-184.5" font-family="Helvetica,sans-Serif" font-size="10.00">Factory</text>
</a>
</g>
</g>
<!-- Node3 -->
<g id="node3" class="node">
<title>Node3</title>
<g id="a_node3"><a xlink:href="class_ogre_1_1_cg_program_factory.html" target="_top" xlink:title="Factory class for Cg programs.">
<polygon fill="none" stroke="black" points="326,-354 326,-373 462,-373 462,-354 326,-354"/>
<text text-anchor="middle" x="394" y="-361" font-family="Helvetica,sans-Serif" font-size="10.00">Ogre::CgProgramFactory</text>
</a>
</g>
</g>
<!-- Node1&#45;&gt;Node3 -->
<g id="edge2" class="edge">
<title>Node1&#45;&gt;Node3</title>
<path fill="none" stroke="midnightblue" d="M202.67,-217.2C219.51,-251.47 254.76,-312.8 304,-344.5 310.64,-348.78 318.09,-352.11 325.76,-354.7"/>
<polygon fill="midnightblue" stroke="midnightblue" points="205.7,-215.41 198.23,-207.89 199.38,-218.43 205.7,-215.41"/>
</g>
<!-- Node4 -->
<g id="node4" class="node">
<title>Node4</title>
<g id="a_node4"><a xlink:href="class_ogre_1_1_d3_d11_h_l_s_l_program_factory.html" target="_top" xlink:title="Factory class for D3D11 HLSL programs.">
<polygon fill="none" stroke="black" points="304,-316 304,-335 484,-335 484,-316 304,-316"/>
<text text-anchor="middle" x="394" y="-323" font-family="Helvetica,sans-Serif" font-size="10.00">Ogre::D3D11HLSLProgramFactory</text>
</a>
</g>
</g>
<!-- Node1&#45;&gt;Node4 -->
<g id="edge3" class="edge">
<title>Node1&#45;&gt;Node4</title>
<path fill="none" stroke="midnightblue" d="M208.03,-216.11C227.76,-242.42 263.25,-284.17 304,-306.5 311.07,-310.37 318.85,-313.45 326.78,-315.91"/>
<polygon fill="midnightblue" stroke="midnightblue" points="210.7,-213.83 201.96,-207.84 205.05,-217.97 210.7,-213.83"/>
</g>
<!-- Node5 -->
<g id="node5" class="node">
<title>Node5</title>
<g id="a_node5"><a xlink:href="class_ogre_1_1_d3_d9_h_l_s_l_program_factory.html" target="_top" xlink:title="Factory class for D3D9 HLSL programs.">
<polygon fill="none" stroke="black" points="307,-278 307,-297 481,-297 481,-278 307,-278"/>
<text text-anchor="middle" x="394" y="-285" font-family="Helvetica,sans-Serif" font-size="10.00">Ogre::D3D9HLSLProgramFactory</text>
</a>
</g>
</g>
<!-- Node1&#45;&gt;Node5 -->
<g id="edge4" class="edge">
<title>Node1&#45;&gt;Node5</title>
<path fill="none" stroke="midnightblue" d="M217.4,-214.27C239.18,-231.48 271.83,-254.82 304,-268.5 313.01,-272.33 322.88,-275.43 332.66,-277.91"/>
<polygon fill="midnightblue" stroke="midnightblue" points="219.31,-211.31 209.32,-207.77 214.92,-216.77 219.31,-211.31"/>
</g>
<!-- Node6 -->
<g id="node6" class="node">
<title>Node6</title>
<g id="a_node6"><a xlink:href="class_ogre_1_1_g_l_s_l_1_1_g_l_s_l_program_factory.html" target="_top" xlink:title="Factory class for GLSL programs.">
<polygon fill="none" stroke="black" points="305.5,-240 305.5,-259 482.5,-259 482.5,-240 305.5,-240"/>
<text text-anchor="middle" x="394" y="-247" font-family="Helvetica,sans-Serif" font-size="10.00">Ogre::GLSL::GLSLProgramFactory</text>
</a>
</g>
</g>
<!-- Node1&#45;&gt;Node6 -->
<g id="edge5" class="edge">
<title>Node1&#45;&gt;Node6</title>
<path fill="none" stroke="midnightblue" d="M241.79,-210.87C261.09,-217.55 283.42,-224.85 304,-230.5 316.65,-233.97 330.45,-237.19 343.32,-239.95"/>
<polygon fill="midnightblue" stroke="midnightblue" points="242.89,-207.55 232.29,-207.55 240.57,-214.15 242.89,-207.55"/>
</g>
<!-- Node7 -->
<g id="node7" class="node">
<title>Node7</title>
<g id="a_node7"><a xlink:href="class_ogre_1_1_g_l_s_l_e_s_cg_program_factory.html" target="_top" xlink:title="Factory class for GLSL ES programs.">
<polygon fill="none" stroke="black" points="308,-202 308,-221 480,-221 480,-202 308,-202"/>
<text text-anchor="middle" x="394" y="-209" font-family="Helvetica,sans-Serif" font-size="10.00">Ogre::GLSLESCgProgramFactory</text>
</a>
</g>
</g>
<!-- Node1&#45;&gt;Node7 -->
<g id="edge6" class="edge">
<title>Node1&#45;&gt;Node7</title>
<path fill="none" stroke="midnightblue" d="M278.33,-200.69C288.07,-201.61 297.99,-202.54 307.71,-203.46"/>
<polygon fill="midnightblue" stroke="midnightblue" points="278.54,-197.19 268.25,-199.74 277.88,-204.16 278.54,-197.19"/>
</g>
<!-- Node8 -->
<g id="node8" class="node">
<title>Node8</title>
<g id="a_node8"><a xlink:href="class_ogre_1_1_g_l_s_l_e_s_program_factory.html" target="_top" xlink:title="Factory class for GLSL ES programs.">
<polygon fill="none" stroke="black" points="314.5,-164 314.5,-183 473.5,-183 473.5,-164 314.5,-164"/>
<text text-anchor="middle" x="394" y="-171" font-family="Helvetica,sans-Serif" font-size="10.00">Ogre::GLSLESProgramFactory</text>
</a>
</g>
</g>
<!-- Node1&#45;&gt;Node8 -->
<g id="edge7" class="edge">
<title>Node1&#45;&gt;Node8</title>
<path fill="none" stroke="midnightblue" d="M278.27,-184.32C290.3,-183.18 302.59,-182.02 314.45,-180.91"/>
<polygon fill="midnightblue" stroke="midnightblue" points="277.88,-180.84 268.25,-185.26 278.54,-187.81 277.88,-180.84"/>
</g>
<!-- Node9 -->
<g id="node9" class="node">
<title>Node9</title>
<g id="a_node9"><a xlink:href="class_ogre_1_1_g_l_s_l_shader_factory.html" target="_top" xlink:title="Factory class for GLSL shaders.">
<polygon fill="none" stroke="black" points="324,-126 324,-145 464,-145 464,-126 324,-126"/>
<text text-anchor="middle" x="394" y="-133" font-family="Helvetica,sans-Serif" font-size="10.00">Ogre::GLSLShaderFactory</text>
</a>
</g>
</g>
<!-- Node1&#45;&gt;Node9 -->
<g id="edge8" class="edge">
<title>Node1&#45;&gt;Node9</title>
<path fill="none" stroke="midnightblue" d="M241.79,-174.13C261.09,-167.45 283.42,-160.15 304,-154.5 316.65,-151.03 330.45,-147.81 343.32,-145.05"/>
<polygon fill="midnightblue" stroke="midnightblue" points="240.57,-170.85 232.29,-177.45 242.89,-177.45 240.57,-170.85"/>
</g>
<!-- Node10 -->
<g id="node10" class="node">
<title>Node10</title>
<g id="a_node10"><a xlink:href="class_ogre_1_1_metal_program_factory.html" target="_top" xlink:title="Factory class for Metal programs.">
<polygon fill="none" stroke="black" points="318.5,-88 318.5,-107 469.5,-107 469.5,-88 318.5,-88"/>
<text text-anchor="middle" x="394" y="-95" font-family="Helvetica,sans-Serif" font-size="10.00">Ogre::MetalProgramFactory</text>
</a>
</g>
</g>
<!-- Node1&#45;&gt;Node10 -->
<g id="edge9" class="edge">
<title>Node1&#45;&gt;Node10</title>
<path fill="none" stroke="midnightblue" d="M217.4,-170.73C239.18,-153.52 271.83,-130.18 304,-116.5 313.01,-112.67 322.88,-109.57 332.66,-107.09"/>
<polygon fill="midnightblue" stroke="midnightblue" points="214.92,-168.23 209.32,-177.23 219.31,-173.69 214.92,-168.23"/>
</g>
<!-- Node11 -->
<g id="node11" class="node">
<title>Node11</title>
<g id="a_node11"><a xlink:href="class_ogre_1_1_s_p_i_r_v_shader_factory.html" target="_top" xlink:title=" ">
<polygon fill="none" stroke="black" points="322,-50 322,-69 466,-69 466,-50 322,-50"/>
<text text-anchor="middle" x="394" y="-57" font-family="Helvetica,sans-Serif" font-size="10.00">Ogre::SPIRVShaderFactory</text>
</a>
</g>
</g>
<!-- Node1&#45;&gt;Node11 -->
<g id="edge10" class="edge">
<title>Node1&#45;&gt;Node11</title>
<path fill="none" stroke="midnightblue" d="M208.03,-168.89C227.76,-142.58 263.25,-100.83 304,-78.5 311.07,-74.63 318.85,-71.55 326.78,-69.09"/>
<polygon fill="midnightblue" stroke="midnightblue" points="205.05,-167.03 201.96,-177.16 210.7,-171.17 205.05,-167.03"/>
</g>
<!-- Node12 -->
<g id="node12" class="node">
<title>Node12</title>
<g id="a_node12"><a xlink:href="class_ogre_1_1_unified_high_level_gpu_program_factory.html" target="_top" xlink:title="Factory class for Unified programs.">
<polygon fill="none" stroke="black" points="319.5,-0.5 319.5,-30.5 468.5,-30.5 468.5,-0.5 319.5,-0.5"/>
<text text-anchor="start" x="327.5" y="-18.5" font-family="Helvetica,sans-Serif" font-size="10.00">Ogre::UnifiedHighLevelGpu</text>
<text text-anchor="middle" x="394" y="-7.5" font-family="Helvetica,sans-Serif" font-size="10.00">ProgramFactory</text>
</a>
</g>
</g>
<!-- Node1&#45;&gt;Node12 -->
<g id="edge11" class="edge">
<title>Node1&#45;&gt;Node12</title>
<path fill="none" stroke="midnightblue" d="M202.96,-168.23C220.14,-134.47 255.79,-73.75 304,-40.5 309.55,-36.67 315.67,-33.43 322.03,-30.68"/>
<polygon fill="midnightblue" stroke="midnightblue" points="199.72,-166.87 198.41,-177.39 205.99,-169.98 199.72,-166.87"/>
</g>
<!-- Node2 -->
<g id="node2" class="node">
<title>Node2</title>
<g id="a_node2"><a xlink:title=" ">
<polygon fill="none" stroke="#bfbfbf" points="0,-183 0,-202 77,-202 77,-183 0,-183"/>
<text text-anchor="middle" x="38.5" y="-190" font-family="Helvetica,sans-Serif" font-size="10.00">FactoryAlloc</text>
</a>
</g>
</g>
<!-- Node2&#45;&gt;Node1 -->
<g id="edge1" class="edge">
<title>Node2&#45;&gt;Node1</title>
<path fill="none" stroke="midnightblue" d="M87.62,-192.5C95.66,-192.5 104.18,-192.5 112.74,-192.5"/>
<polygon fill="midnightblue" stroke="midnightblue" points="87.35,-189 77.35,-192.5 87.35,-196 87.35,-189"/>
</g>
</g>
</svg>
