<?xml version="1.0" encoding="UTF-8" standalone="no"?>
<!DOCTYPE svg PUBLIC "-//W3C//DTD SVG 1.1//EN"
 "http://www.w3.org/Graphics/SVG/1.1/DTD/svg11.dtd">
<!-- Generated by graphviz version 2.43.0 (0)
 -->
<!-- Title: Ogre::ShadowCameraSetup Pages: 1 -->
<svg width="901pt" height="137pt"
 viewBox="0.00 0.00 901.00 137.00" xmlns="http://www.w3.org/2000/svg" xmlns:xlink="http://www.w3.org/1999/xlink">
<g id="graph0" class="graph" transform="scale(1 1) rotate(0) translate(4 133)">
<title>Ogre::ShadowCameraSetup</title>
<!-- Node1 -->
<g id="node1" class="node">
<title>Node1</title>
<g id="a_node1"><a xlink:title="This class allows you to plug in new ways to define the camera setup when rendering and projecting sh...">
<polygon fill="#bfbfbf" stroke="black" points="138,-55 138,-74 288,-74 288,-55 138,-55"/>
<text text-anchor="middle" x="213" y="-62" font-family="Helvetica,sans-Serif" font-size="10.00">Ogre::ShadowCameraSetup</text>
</a>
</g>
</g>
<!-- Node3 -->
<g id="node3" class="node">
<title>Node3</title>
<g id="a_node3"><a xlink:href="class_ogre_1_1_default_shadow_camera_setup.html" target="_top" xlink:title="Implements default shadow camera setup.">
<polygon fill="none" stroke="black" points="326,-98.5 326,-128.5 484,-128.5 484,-98.5 326,-98.5"/>
<text text-anchor="start" x="334" y="-116.5" font-family="Helvetica,sans-Serif" font-size="10.00">Ogre::DefaultShadowCamera</text>
<text text-anchor="middle" x="405" y="-105.5" font-family="Helvetica,sans-Serif" font-size="10.00">Setup</text>
</a>
</g>
</g>
<!-- Node1&#45;&gt;Node3 -->
<g id="edge2" class="edge">
<title>Node1&#45;&gt;Node3</title>
<path fill="none" stroke="midnightblue" d="M260.93,-76.6C286.54,-83.21 318.49,-91.45 345.69,-98.46"/>
<polygon fill="midnightblue" stroke="midnightblue" points="261.64,-73.17 251.08,-74.06 259.89,-79.95 261.64,-73.17"/>
</g>
<!-- Node4 -->
<g id="node4" class="node">
<title>Node4</title>
<g id="a_node4"><a xlink:href="class_ogre_1_1_focused_shadow_camera_setup.html" target="_top" xlink:title="Implements the uniform shadow mapping algorithm in focused mode.">
<polygon fill="none" stroke="black" points="324,-49.5 324,-79.5 486,-79.5 486,-49.5 324,-49.5"/>
<text text-anchor="start" x="332" y="-67.5" font-family="Helvetica,sans-Serif" font-size="10.00">Ogre::FocusedShadowCamera</text>
<text text-anchor="middle" x="405" y="-56.5" font-family="Helvetica,sans-Serif" font-size="10.00">Setup</text>
</a>
</g>
</g>
<!-- Node1&#45;&gt;Node4 -->
<g id="edge3" class="edge">
<title>Node1&#45;&gt;Node4</title>
<path fill="none" stroke="midnightblue" d="M298.03,-64.5C306.63,-64.5 315.35,-64.5 323.91,-64.5"/>
<polygon fill="midnightblue" stroke="midnightblue" points="298,-61 288,-64.5 298,-68 298,-61"/>
</g>
<!-- Node7 -->
<g id="node7" class="node">
<title>Node7</title>
<g id="a_node7"><a xlink:href="class_ogre_1_1_plane_optimal_shadow_camera_setup.html" target="_top" xlink:title="Implements the plane optimal shadow camera algorithm.">
<polygon fill="none" stroke="black" points="330,-0.5 330,-30.5 480,-30.5 480,-0.5 330,-0.5"/>
<text text-anchor="start" x="338" y="-18.5" font-family="Helvetica,sans-Serif" font-size="10.00">Ogre::PlaneOptimalShadow</text>
<text text-anchor="middle" x="405" y="-7.5" font-family="Helvetica,sans-Serif" font-size="10.00">CameraSetup</text>
</a>
</g>
</g>
<!-- Node1&#45;&gt;Node7 -->
<g id="edge6" class="edge">
<title>Node1&#45;&gt;Node7</title>
<path fill="none" stroke="midnightblue" d="M260.93,-52.4C286.54,-45.79 318.49,-37.55 345.69,-30.54"/>
<polygon fill="midnightblue" stroke="midnightblue" points="259.89,-49.05 251.08,-54.94 261.64,-55.83 259.89,-49.05"/>
</g>
<!-- Node2 -->
<g id="node2" class="node">
<title>Node2</title>
<g id="a_node2"><a xlink:title=" ">
<polygon fill="none" stroke="#bfbfbf" points="0,-55 0,-74 102,-74 102,-55 0,-55"/>
<text text-anchor="middle" x="51" y="-62" font-family="Helvetica,sans-Serif" font-size="10.00">ShadowDataAlloc</text>
</a>
</g>
</g>
<!-- Node2&#45;&gt;Node1 -->
<g id="edge1" class="edge">
<title>Node2&#45;&gt;Node1</title>
<path fill="none" stroke="midnightblue" d="M112.25,-64.5C120.65,-64.5 129.35,-64.5 137.97,-64.5"/>
<polygon fill="midnightblue" stroke="midnightblue" points="112.19,-61 102.19,-64.5 112.19,-68 112.19,-61"/>
</g>
<!-- Node5 -->
<g id="node5" class="node">
<title>Node5</title>
<g id="a_node5"><a xlink:href="class_ogre_1_1_li_s_p_s_m_shadow_camera_setup.html" target="_top" xlink:title="Implements the Light Space Perspective Shadow Mapping Algorithm.">
<polygon fill="none" stroke="black" points="522,-49.5 522,-79.5 680,-79.5 680,-49.5 522,-49.5"/>
<text text-anchor="start" x="530" y="-67.5" font-family="Helvetica,sans-Serif" font-size="10.00">Ogre::LiSPSMShadowCamera</text>
<text text-anchor="middle" x="601" y="-56.5" font-family="Helvetica,sans-Serif" font-size="10.00">Setup</text>
</a>
</g>
</g>
<!-- Node4&#45;&gt;Node5 -->
<g id="edge4" class="edge">
<title>Node4&#45;&gt;Node5</title>
<path fill="none" stroke="midnightblue" d="M496.04,-64.5C504.62,-64.5 513.27,-64.5 521.72,-64.5"/>
<polygon fill="midnightblue" stroke="midnightblue" points="496.03,-61 486.03,-64.5 496.03,-68 496.03,-61"/>
</g>
<!-- Node6 -->
<g id="node6" class="node">
<title>Node6</title>
<g id="a_node6"><a xlink:href="class_ogre_1_1_p_s_s_m_shadow_camera_setup.html" target="_top" xlink:title="Parallel Split Shadow Map (PSSM) shadow camera setup.">
<polygon fill="none" stroke="black" points="716,-55 716,-74 893,-74 893,-55 716,-55"/>
<text text-anchor="middle" x="804.5" y="-62" font-family="Helvetica,sans-Serif" font-size="10.00">Ogre::PSSMShadowCameraSetup</text>
</a>
</g>
</g>
<!-- Node5&#45;&gt;Node6 -->
<g id="edge5" class="edge">
<title>Node5&#45;&gt;Node6</title>
<path fill="none" stroke="midnightblue" d="M690.45,-64.5C698.93,-64.5 707.52,-64.5 715.98,-64.5"/>
<polygon fill="midnightblue" stroke="midnightblue" points="690.19,-61 680.19,-64.5 690.19,-68 690.19,-61"/>
</g>
</g>
</svg>
