<?xml version="1.0" encoding="UTF-8" standalone="no"?>
<!DOCTYPE svg PUBLIC "-//W3C//DTD SVG 1.1//EN"
 "http://www.w3.org/Graphics/SVG/1.1/DTD/svg11.dtd">
<!-- Generated by graphviz version 2.40.1 (20161225.0304)
 -->
<!-- Title: Ogre::ResourceManager Pages: 1 -->
<svg width="640pt" height="401pt"
 viewBox="0.00 0.00 640.00 401.00" xmlns="http://www.w3.org/2000/svg" xmlns:xlink="http://www.w3.org/1999/xlink">
<g id="graph0" class="graph" transform="scale(1 1) rotate(0) translate(4 397)">
<title>Ogre::ResourceManager</title>
<!-- Node0 -->
<g id="node1" class="node">
<title>Node0</title>
<polygon fill="#bfbfbf" stroke="#000000" points="134,-231.5 134,-250.5 257,-250.5 257,-231.5 134,-231.5"/>
<text text-anchor="middle" x="195.5" y="-238.5" font-family="Helvetica,sans-Serif" font-size="10.00" fill="#000000">Ogre::ResourceManager</text>
</g>
<!-- Node3 -->
<g id="node4" class="node">
<title>Node3</title>
<g id="a_node4"><a xlink:href="class_ogre_1_1_compositor_manager.html" target="_top" xlink:title="Class for managing Compositor settings for Ogre. ">
<polygon fill="none" stroke="#000000" points="298.5,-373.5 298.5,-392.5 429.5,-392.5 429.5,-373.5 298.5,-373.5"/>
<text text-anchor="middle" x="364" y="-380.5" font-family="Helvetica,sans-Serif" font-size="10.00" fill="#000000">Ogre::CompositorManager</text>
</a>
</g>
</g>
<!-- Node0&#45;&gt;Node3 -->
<g id="edge3" class="edge">
<title>Node0&#45;&gt;Node3</title>
<path fill="none" stroke="#191970" d="M205.1367,-259.6066C220.1743,-286.7642 251.818,-336.9596 293,-364 298.8665,-367.852 305.4894,-370.9258 312.273,-373.378"/>
<polygon fill="#191970" stroke="#191970" points="208.1809,-257.8775 200.361,-250.7291 202.0163,-261.1938 208.1809,-257.8775"/>
</g>
<!-- Node4 -->
<g id="node5" class="node">
<title>Node4</title>
<g id="a_node5"><a xlink:href="class_ogre_1_1_font_manager.html" target="_top" xlink:title="Manages Font resources, parsing .fontdef files and generally organising them. ">
<polygon fill="none" stroke="#000000" points="313.5,-335.5 313.5,-354.5 414.5,-354.5 414.5,-335.5 313.5,-335.5"/>
<text text-anchor="middle" x="364" y="-342.5" font-family="Helvetica,sans-Serif" font-size="10.00" fill="#000000">Ogre::FontManager</text>
</a>
</g>
</g>
<!-- Node0&#45;&gt;Node4 -->
<g id="edge4" class="edge">
<title>Node0&#45;&gt;Node4</title>
<path fill="none" stroke="#191970" d="M210.6162,-258.2434C228.4448,-277.5273 259.8724,-308.3622 293,-326 300.2085,-329.8379 308.2502,-332.9444 316.258,-335.4452"/>
<polygon fill="#191970" stroke="#191970" points="213.1477,-255.8245 203.8427,-250.7582 207.9574,-260.5214 213.1477,-255.8245"/>
</g>
<!-- Node5 -->
<g id="node6" class="node">
<title>Node5</title>
<g id="a_node6"><a xlink:href="class_ogre_1_1_gpu_program_manager.html" target="_top" xlink:title="Ogre::GpuProgramManager">
<polygon fill="none" stroke="#000000" points="296,-297.5 296,-316.5 432,-316.5 432,-297.5 296,-297.5"/>
<text text-anchor="middle" x="364" y="-304.5" font-family="Helvetica,sans-Serif" font-size="10.00" fill="#000000">Ogre::GpuProgramManager</text>
</a>
</g>
</g>
<!-- Node0&#45;&gt;Node5 -->
<g id="edge5" class="edge">
<title>Node0&#45;&gt;Node5</title>
<path fill="none" stroke="#191970" d="M222.5275,-255.2416C241.8114,-265.0314 268.5535,-277.8623 293,-287 303.4361,-290.9008 314.979,-294.4602 325.6711,-297.4597"/>
<polygon fill="#191970" stroke="#191970" points="223.9334,-252.029 213.4391,-250.5725 220.7346,-258.2554 223.9334,-252.029"/>
</g>
<!-- Node8 -->
<g id="node9" class="node">
<title>Node8</title>
<g id="a_node9"><a xlink:href="class_ogre_1_1_high_level_gpu_program_manager.html" target="_top" xlink:title="This ResourceManager manages high&#45;level vertex and fragment programs. ">
<polygon fill="none" stroke="#000000" points="293,-248 293,-278 435,-278 435,-248 293,-248"/>
<text text-anchor="start" x="301" y="-266" font-family="Helvetica,sans-Serif" font-size="10.00" fill="#000000">Ogre::HighLevelGpuProgram</text>
<text text-anchor="middle" x="364" y="-255" font-family="Helvetica,sans-Serif" font-size="10.00" fill="#000000">Manager</text>
</a>
</g>
</g>
<!-- Node0&#45;&gt;Node8 -->
<g id="edge8" class="edge">
<title>Node0&#45;&gt;Node8</title>
<path fill="none" stroke="#191970" d="M267.4341,-250.392C275.8403,-251.4895 284.4138,-252.6089 292.8099,-253.7051"/>
<polygon fill="#191970" stroke="#191970" points="267.6554,-246.8913 257.2864,-249.0671 266.7491,-253.8323 267.6554,-246.8913"/>
</g>
<!-- Node9 -->
<g id="node10" class="node">
<title>Node9</title>
<g id="a_node10"><a xlink:href="class_ogre_1_1_material_manager.html" target="_top" xlink:title="Class for managing Material settings for Ogre. ">
<polygon fill="none" stroke="#000000" points="306,-209.5 306,-228.5 422,-228.5 422,-209.5 306,-209.5"/>
<text text-anchor="middle" x="364" y="-216.5" font-family="Helvetica,sans-Serif" font-size="10.00" fill="#000000">Ogre::MaterialManager</text>
</a>
</g>
</g>
<!-- Node0&#45;&gt;Node9 -->
<g id="edge9" class="edge">
<title>Node0&#45;&gt;Node9</title>
<path fill="none" stroke="#191970" d="M267.4611,-231.6045C280.281,-229.9307 293.4887,-228.2062 305.8626,-226.5906"/>
<polygon fill="#191970" stroke="#191970" points="266.7491,-228.1677 257.2864,-232.9329 267.6554,-235.1087 266.7491,-228.1677"/>
</g>
<!-- Node10 -->
<g id="node11" class="node">
<title>Node10</title>
<g id="a_node11"><a xlink:href="class_ogre_1_1_mesh_manager.html" target="_top" xlink:title="Handles the management of mesh resources. ">
<polygon fill="none" stroke="#000000" points="311.5,-171.5 311.5,-190.5 416.5,-190.5 416.5,-171.5 311.5,-171.5"/>
<text text-anchor="middle" x="364" y="-178.5" font-family="Helvetica,sans-Serif" font-size="10.00" fill="#000000">Ogre::MeshManager</text>
</a>
</g>
</g>
<!-- Node0&#45;&gt;Node10 -->
<g id="edge10" class="edge">
<title>Node0&#45;&gt;Node10</title>
<path fill="none" stroke="#191970" d="M225.4598,-227.1477C244.5393,-218.6409 269.9206,-207.8994 293,-200 303.141,-196.5291 314.2712,-193.2903 324.6497,-190.505"/>
<polygon fill="#191970" stroke="#191970" points="223.7808,-224.0653 216.1025,-231.3656 226.6575,-230.447 223.7808,-224.0653"/>
</g>
<!-- Node11 -->
<g id="node12" class="node">
<title>Node11</title>
<g id="a_node12"><a xlink:href="class_ogre_1_1_skeleton_manager.html" target="_top" xlink:title="Handles the management of skeleton resources. ">
<polygon fill="none" stroke="#000000" points="304.5,-133.5 304.5,-152.5 423.5,-152.5 423.5,-133.5 304.5,-133.5"/>
<text text-anchor="middle" x="364" y="-140.5" font-family="Helvetica,sans-Serif" font-size="10.00" fill="#000000">Ogre::SkeletonManager</text>
</a>
</g>
</g>
<!-- Node0&#45;&gt;Node11 -->
<g id="edge11" class="edge">
<title>Node0&#45;&gt;Node11</title>
<path fill="none" stroke="#191970" d="M211.9251,-223.9759C230.1428,-206.0454 261.1844,-178.2101 293,-162 300.5038,-158.1768 308.8577,-155.062 317.1245,-152.5445"/>
<polygon fill="#191970" stroke="#191970" points="209.0714,-221.8818 204.5005,-231.4399 214.0343,-226.8185 209.0714,-221.8818"/>
</g>
<!-- Node12 -->
<g id="node13" class="node">
<title>Node12</title>
<g id="a_node13"><a xlink:href="class_ogre_1_1_texture_manager.html" target="_top" xlink:title="Class for loading &amp; managing textures. ">
<polygon fill="none" stroke="#000000" points="307,-95.5 307,-114.5 421,-114.5 421,-95.5 307,-95.5"/>
<text text-anchor="middle" x="364" y="-102.5" font-family="Helvetica,sans-Serif" font-size="10.00" fill="#000000">Ogre::TextureManager</text>
</a>
</g>
</g>
<!-- Node0&#45;&gt;Node12 -->
<g id="edge12" class="edge">
<title>Node0&#45;&gt;Node12</title>
<path fill="none" stroke="#191970" d="M205.8024,-222.5823C221.3009,-196.5983 253.0959,-149.508 293,-124 299.0207,-120.1514 305.8048,-117.0774 312.7302,-114.6232"/>
<polygon fill="#191970" stroke="#191970" points="202.667,-221.0121 200.6774,-231.4185 208.7223,-224.5242 202.667,-221.0121"/>
</g>
<!-- Node1 -->
<g id="node2" class="node">
<title>Node1</title>
<g id="a_node2"><a xlink:href="class_ogre_1_1_script_loader.html" target="_top" xlink:title="Abstract class defining the interface used by classes which wish to perform script loading to define ...">
<polygon fill="none" stroke="#000000" points="0,-250.5 0,-269.5 98,-269.5 98,-250.5 0,-250.5"/>
<text text-anchor="middle" x="49" y="-257.5" font-family="Helvetica,sans-Serif" font-size="10.00" fill="#000000">Ogre::ScriptLoader</text>
</a>
</g>
</g>
<!-- Node1&#45;&gt;Node0 -->
<g id="edge1" class="edge">
<title>Node1&#45;&gt;Node0</title>
<path fill="none" stroke="#191970" d="M108.3279,-252.3056C116.7694,-251.2108 125.4669,-250.0828 133.9496,-248.9826"/>
<polygon fill="#191970" stroke="#191970" points="107.6567,-248.8632 98.1899,-253.6204 108.5571,-255.8051 107.6567,-248.8632"/>
</g>
<!-- Node2 -->
<g id="node3" class="node">
<title>Node2</title>
<g id="a_node3"><a xlink:href="class_ogre_1_1_allocated_object.html" target="_top" xlink:title="ResourceAlloc">
<polygon fill="none" stroke="#000000" points="9,-212.5 9,-231.5 89,-231.5 89,-212.5 9,-212.5"/>
<text text-anchor="middle" x="49" y="-219.5" font-family="Helvetica,sans-Serif" font-size="10.00" fill="#000000">ResourceAlloc</text>
</a>
</g>
</g>
<!-- Node2&#45;&gt;Node0 -->
<g id="edge2" class="edge">
<title>Node2&#45;&gt;Node0</title>
<path fill="none" stroke="#191970" d="M99.0362,-228.4893C110.2136,-229.939 122.1953,-231.4929 133.7821,-232.9956"/>
<polygon fill="#191970" stroke="#191970" points="99.3989,-225.0071 89.0318,-227.1918 98.4985,-231.949 99.3989,-225.0071"/>
</g>
<!-- Node6 -->
<g id="node7" class="node">
<title>Node6</title>
<g id="a_node7"><a xlink:href="class_ogre_1_1_d3_d9_gpu_program_manager.html" target="_top" xlink:title="Ogre::D3D9GpuProgramManager">
<polygon fill="none" stroke="#000000" points="471,-316.5 471,-335.5 632,-335.5 632,-316.5 471,-316.5"/>
<text text-anchor="middle" x="551.5" y="-323.5" font-family="Helvetica,sans-Serif" font-size="10.00" fill="#000000">Ogre::D3D9GpuProgramManager</text>
</a>
</g>
</g>
<!-- Node5&#45;&gt;Node6 -->
<g id="edge6" class="edge">
<title>Node5&#45;&gt;Node6</title>
<path fill="none" stroke="#191970" d="M442.3564,-314.9401C451.7904,-315.8961 461.4382,-316.8737 470.9035,-317.8329"/>
<polygon fill="#191970" stroke="#191970" points="442.5241,-311.4393 432.2222,-313.9132 441.8184,-318.4036 442.5241,-311.4393"/>
</g>
<!-- Node7 -->
<g id="node8" class="node">
<title>Node7</title>
<g id="a_node8"><a xlink:href="class_ogre_1_1_g_l_gpu_program_manager.html" target="_top" xlink:title="Ogre::GLGpuProgramManager">
<polygon fill="none" stroke="#000000" points="477,-278.5 477,-297.5 626,-297.5 626,-278.5 477,-278.5"/>
<text text-anchor="middle" x="551.5" y="-285.5" font-family="Helvetica,sans-Serif" font-size="10.00" fill="#000000">Ogre::GLGpuProgramManager</text>
</a>
</g>
</g>
<!-- Node5&#45;&gt;Node7 -->
<g id="edge7" class="edge">
<title>Node5&#45;&gt;Node7</title>
<path fill="none" stroke="#191970" d="M442.2335,-299.0723C453.7402,-297.9063 465.5676,-296.7078 476.9963,-295.5497"/>
<polygon fill="#191970" stroke="#191970" points="441.8184,-295.5964 432.2222,-300.0868 442.5241,-302.5607 441.8184,-295.5964"/>
</g>
<!-- Node13 -->
<g id="node14" class="node">
<title>Node13</title>
<g id="a_node14"><a xlink:href="class_ogre_1_1_d3_d11_texture_manager.html" target="_top" xlink:title="Ogre::D3D11TextureManager">
<polygon fill="none" stroke="#000000" points="479,-190.5 479,-209.5 624,-209.5 624,-190.5 479,-190.5"/>
<text text-anchor="middle" x="551.5" y="-197.5" font-family="Helvetica,sans-Serif" font-size="10.00" fill="#000000">Ogre::D3D11TextureManager</text>
</a>
</g>
</g>
<!-- Node12&#45;&gt;Node13 -->
<g id="edge13" class="edge">
<title>Node12&#45;&gt;Node13</title>
<path fill="none" stroke="#191970" d="M426.9271,-118.9276C429.7515,-120.4468 432.4613,-122.1315 435,-124 459.1316,-141.7608 446.6074,-163.5995 471,-181 476.3775,-184.836 482.4215,-187.9069 488.7191,-190.3639"/>
<polygon fill="#191970" stroke="#191970" points="428.1329,-115.6294 417.5865,-114.6174 425.1999,-121.9853 428.1329,-115.6294"/>
</g>
<!-- Node14 -->
<g id="node15" class="node">
<title>Node14</title>
<g id="a_node15"><a xlink:href="class_ogre_1_1_d3_d9_texture_manager.html" target="_top" xlink:title="Ogre::D3D9TextureManager">
<polygon fill="none" stroke="#000000" points="481.5,-152.5 481.5,-171.5 621.5,-171.5 621.5,-152.5 481.5,-152.5"/>
<text text-anchor="middle" x="551.5" y="-159.5" font-family="Helvetica,sans-Serif" font-size="10.00" fill="#000000">Ogre::D3D9TextureManager</text>
</a>
</g>
</g>
<!-- Node12&#45;&gt;Node14 -->
<g id="edge14" class="edge">
<title>Node12&#45;&gt;Node14</title>
<path fill="none" stroke="#191970" d="M415.4786,-117.307C422.1218,-119.3223 428.7741,-121.5597 435,-124 451.844,-130.6021 454.0598,-136.6487 471,-143 480.8154,-146.68 491.5787,-149.8062 501.9513,-152.3953"/>
<polygon fill="#191970" stroke="#191970" points="416.3812,-113.9247 405.8028,-114.5154 414.4407,-120.6504 416.3812,-113.9247"/>
</g>
<!-- Node15 -->
<g id="node16" class="node">
<title>Node15</title>
<g id="a_node16"><a xlink:href="class_ogre_1_1_default_texture_manager.html" target="_top" xlink:title="Specialisation of TextureManager for offline processing. Cannot be used with an active RenderSystem...">
<polygon fill="none" stroke="#000000" points="478.5,-114.5 478.5,-133.5 624.5,-133.5 624.5,-114.5 478.5,-114.5"/>
<text text-anchor="middle" x="551.5" y="-121.5" font-family="Helvetica,sans-Serif" font-size="10.00" fill="#000000">Ogre::DefaultTextureManager</text>
</a>
</g>
</g>
<!-- Node12&#45;&gt;Node15 -->
<g id="edge15" class="edge">
<title>Node12&#45;&gt;Node15</title>
<path fill="none" stroke="#191970" d="M431.408,-111.8307C446.6795,-113.3782 462.9659,-115.0285 478.4581,-116.5984"/>
<polygon fill="#191970" stroke="#191970" points="431.3218,-108.3041 421.0199,-110.778 430.616,-115.2684 431.3218,-108.3041"/>
</g>
<!-- Node16 -->
<g id="node17" class="node">
<title>Node16</title>
<g id="a_node17"><a xlink:href="class_ogre_1_1_g_l3_plus_texture_manager.html" target="_top" xlink:title="GL3Plus&#45;specific implementation of a TextureManager. ">
<polygon fill="none" stroke="#000000" points="475.5,-76.5 475.5,-95.5 627.5,-95.5 627.5,-76.5 475.5,-76.5"/>
<text text-anchor="middle" x="551.5" y="-83.5" font-family="Helvetica,sans-Serif" font-size="10.00" fill="#000000">Ogre::GL3PlusTextureManager</text>
</a>
</g>
</g>
<!-- Node12&#45;&gt;Node16 -->
<g id="edge16" class="edge">
<title>Node12&#45;&gt;Node16</title>
<path fill="none" stroke="#191970" d="M431.2586,-98.1845C445.5667,-96.7346 460.7718,-95.1938 475.3839,-93.7131"/>
<polygon fill="#191970" stroke="#191970" points="430.616,-94.7316 421.0199,-99.222 431.3218,-101.6959 430.616,-94.7316"/>
</g>
<!-- Node17 -->
<g id="node18" class="node">
<title>Node17</title>
<g id="a_node18"><a xlink:href="class_ogre_1_1_g_l_e_s2_texture_manager.html" target="_top" xlink:title="GL ES&#45;specific implementation of a TextureManager. ">
<polygon fill="none" stroke="#000000" points="478.5,-38.5 478.5,-57.5 624.5,-57.5 624.5,-38.5 478.5,-38.5"/>
<text text-anchor="middle" x="551.5" y="-45.5" font-family="Helvetica,sans-Serif" font-size="10.00" fill="#000000">Ogre::GLES2TextureManager</text>
</a>
</g>
</g>
<!-- Node12&#45;&gt;Node17 -->
<g id="edge17" class="edge">
<title>Node12&#45;&gt;Node17</title>
<path fill="none" stroke="#191970" d="M397.797,-91.927C418.6989,-84.1103 446.1872,-74.3104 471,-67 482.5704,-63.5911 495.2149,-60.3736 506.9828,-57.589"/>
<polygon fill="#191970" stroke="#191970" points="396.5187,-88.6684 388.3986,-95.4738 398.9903,-95.2176 396.5187,-88.6684"/>
</g>
<!-- Node18 -->
<g id="node19" class="node">
<title>Node18</title>
<g id="a_node19"><a xlink:href="class_ogre_1_1_g_l_texture_manager.html" target="_top" xlink:title="GL&#45;specific implementation of a TextureManager. ">
<polygon fill="none" stroke="#000000" points="488,-.5 488,-19.5 615,-19.5 615,-.5 488,-.5"/>
<text text-anchor="middle" x="551.5" y="-7.5" font-family="Helvetica,sans-Serif" font-size="10.00" fill="#000000">Ogre::GLTextureManager</text>
</a>
</g>
</g>
<!-- Node12&#45;&gt;Node18 -->
<g id="edge18" class="edge">
<title>Node12&#45;&gt;Node18</title>
<path fill="none" stroke="#191970" d="M382.1475,-88.7323C402.4054,-71.4209 436.8476,-44.4439 471,-29 479.5047,-25.1541 488.8802,-22.0364 498.1362,-19.5249"/>
<polygon fill="#191970" stroke="#191970" points="379.6203,-86.2918 374.3762,-95.4978 384.2167,-91.5714 379.6203,-86.2918"/>
</g>
</g>
</svg>
