<?xml version="1.0" encoding="UTF-8" standalone="no"?>
<!DOCTYPE svg PUBLIC "-//W3C//DTD SVG 1.1//EN"
 "http://www.w3.org/Graphics/SVG/1.1/DTD/svg11.dtd">
<!-- Generated by graphviz version 2.43.0 (0)
 -->
<!-- Title: Ogre::GLHardwareBufferManager Pages: 1 -->
<svg width="366pt" height="207pt"
 viewBox="0.00 0.00 366.00 207.00" xmlns="http://www.w3.org/2000/svg" xmlns:xlink="http://www.w3.org/1999/xlink">
<g id="graph0" class="graph" transform="scale(1 1) rotate(0) translate(4 203)">
<title>Ogre::GLHardwareBufferManager</title>
<!-- Node1 -->
<g id="node1" class="node">
<title>Node1</title>
<g id="a_node1"><a xlink:title="Implementation of HardwareBufferManager for OpenGL.">
<polygon fill="#bfbfbf" stroke="black" points="99.5,-0.5 99.5,-19.5 278.5,-19.5 278.5,-0.5 99.5,-0.5"/>
<text text-anchor="middle" x="189" y="-7.5" font-family="Helvetica,sans-Serif" font-size="10.00">Ogre::GLHardwareBufferManager</text>
</a>
</g>
</g>
<!-- Node2 -->
<g id="node2" class="node">
<title>Node2</title>
<g id="a_node2"><a xlink:href="class_ogre_1_1_hardware_buffer_manager.html" target="_top" xlink:title="Singleton wrapper for hardware buffer manager.">
<polygon fill="none" stroke="black" points="106,-56.5 106,-75.5 272,-75.5 272,-56.5 106,-56.5"/>
<text text-anchor="middle" x="189" y="-63.5" font-family="Helvetica,sans-Serif" font-size="10.00">Ogre::HardwareBufferManager</text>
</a>
</g>
</g>
<!-- Node2&#45;&gt;Node1 -->
<g id="edge1" class="edge">
<title>Node2&#45;&gt;Node1</title>
<path fill="none" stroke="midnightblue" d="M189,-45.8C189,-36.91 189,-26.78 189,-19.75"/>
<polygon fill="midnightblue" stroke="midnightblue" points="185.5,-46.08 189,-56.08 192.5,-46.08 185.5,-46.08"/>
</g>
<!-- Node3 -->
<g id="node3" class="node">
<title>Node3</title>
<g id="a_node3"><a xlink:href="class_ogre_1_1_hardware_buffer_manager_base.html" target="_top" xlink:title="Base definition of a hardware buffer manager.">
<polygon fill="none" stroke="black" points="0,-118 0,-137 190,-137 190,-118 0,-118"/>
<text text-anchor="middle" x="95" y="-125" font-family="Helvetica,sans-Serif" font-size="10.00">Ogre::HardwareBufferManagerBase</text>
</a>
</g>
</g>
<!-- Node3&#45;&gt;Node2 -->
<g id="edge2" class="edge">
<title>Node3&#45;&gt;Node2</title>
<path fill="none" stroke="midnightblue" d="M117.23,-112.43C135.35,-100.96 160.35,-85.13 175.56,-75.51"/>
<polygon fill="midnightblue" stroke="midnightblue" points="115.05,-109.67 108.47,-117.98 118.79,-115.58 115.05,-109.67"/>
</g>
<!-- Node4 -->
<g id="node4" class="node">
<title>Node4</title>
<g id="a_node4"><a xlink:title=" ">
<polygon fill="none" stroke="#bfbfbf" points="59.5,-179.5 59.5,-198.5 130.5,-198.5 130.5,-179.5 59.5,-179.5"/>
<text text-anchor="middle" x="95" y="-186.5" font-family="Helvetica,sans-Serif" font-size="10.00">BufferAlloc</text>
</a>
</g>
</g>
<!-- Node4&#45;&gt;Node3 -->
<g id="edge3" class="edge">
<title>Node4&#45;&gt;Node3</title>
<path fill="none" stroke="midnightblue" d="M95,-169.32C95,-158.5 95,-145.4 95,-137.01"/>
<polygon fill="midnightblue" stroke="midnightblue" points="91.5,-169.48 95,-179.48 98.5,-169.48 91.5,-169.48"/>
</g>
<!-- Node5 -->
<g id="node5" class="node">
<title>Node5</title>
<g id="a_node5"><a xlink:href="class_ogre_1_1_singleton.html" target="_top" xlink:title=" ">
<polygon fill="none" stroke="black" points="208,-112.5 208,-142.5 358,-142.5 358,-112.5 208,-112.5"/>
<text text-anchor="start" x="216" y="-130.5" font-family="Helvetica,sans-Serif" font-size="10.00">Ogre::Singleton&lt; Hardware</text>
<text text-anchor="middle" x="283" y="-119.5" font-family="Helvetica,sans-Serif" font-size="10.00">BufferManager &gt;</text>
</a>
</g>
</g>
<!-- Node5&#45;&gt;Node2 -->
<g id="edge4" class="edge">
<title>Node5&#45;&gt;Node2</title>
<path fill="none" stroke="midnightblue" d="M251.84,-106.78C235.18,-96.23 215.51,-83.78 202.68,-75.66"/>
<polygon fill="midnightblue" stroke="midnightblue" points="250.4,-110.01 260.72,-112.4 254.15,-104.09 250.4,-110.01"/>
</g>
</g>
</svg>
