<?xml version="1.0" encoding="UTF-8" standalone="no"?>
<!DOCTYPE svg PUBLIC "-//W3C//DTD SVG 1.1//EN"
 "http://www.w3.org/Graphics/SVG/1.1/DTD/svg11.dtd">
<!-- Generated by graphviz version 2.40.1 (20161225.0304)
 -->
<!-- Title: Ogre::OverlaySystem Pages: 1 -->
<svg width="364pt" height="95pt"
 viewBox="0.00 0.00 363.50 95.00" xmlns="http://www.w3.org/2000/svg" xmlns:xlink="http://www.w3.org/1999/xlink">
<g id="graph0" class="graph" transform="scale(1 1) rotate(0) translate(4 91)">
<title>Ogre::OverlaySystem</title>
<!-- Node0 -->
<g id="node1" class="node">
<title>Node0</title>
<polygon fill="#bfbfbf" stroke="#000000" points="103.5,-.5 103.5,-19.5 214.5,-19.5 214.5,-.5 103.5,-.5"/>
<text text-anchor="middle" x="159" y="-7.5" font-family="Helvetica,sans-Serif" font-size="10.00" fill="#000000">Ogre::OverlaySystem</text>
</g>
<!-- Node1 -->
<g id="node2" class="node">
<title>Node1</title>
<g id="a_node2"><a xlink:href="class_ogre_1_1_allocated_object.html" target="_top" xlink:title="OverlayAlloc">
<polygon fill="none" stroke="#000000" points="0,-62 0,-81 72,-81 72,-62 0,-62"/>
<text text-anchor="middle" x="36" y="-69" font-family="Helvetica,sans-Serif" font-size="10.00" fill="#000000">OverlayAlloc</text>
</a>
</g>
</g>
<!-- Node1&#45;&gt;Node0 -->
<g id="edge1" class="edge">
<title>Node1&#45;&gt;Node0</title>
<path fill="none" stroke="#191970" d="M64.2374,-57.3813C87.4336,-45.7832 119.6598,-29.6701 139.9162,-19.5419"/>
<polygon fill="#191970" stroke="#191970" points="62.5978,-54.2879 55.2188,-61.8906 65.7283,-60.5489 62.5978,-54.2879"/>
</g>
<!-- Node2 -->
<g id="node3" class="node">
<title>Node2</title>
<g id="a_node3"><a xlink:href="class_ogre_1_1_render_queue_listener.html" target="_top" xlink:title="Abstract interface which classes must implement if they wish to receive events from the render queue...">
<polygon fill="none" stroke="#000000" points="90,-62 90,-81 228,-81 228,-62 90,-62"/>
<text text-anchor="middle" x="159" y="-69" font-family="Helvetica,sans-Serif" font-size="10.00" fill="#000000">Ogre::RenderQueueListener</text>
</a>
</g>
</g>
<!-- Node2&#45;&gt;Node0 -->
<g id="edge2" class="edge">
<title>Node2&#45;&gt;Node0</title>
<path fill="none" stroke="#191970" d="M159,-51.7462C159,-41.0519 159,-28.314 159,-19.7449"/>
<polygon fill="#191970" stroke="#191970" points="155.5001,-51.8906 159,-61.8906 162.5001,-51.8907 155.5001,-51.8906"/>
</g>
<!-- Node3 -->
<g id="node4" class="node">
<title>Node3</title>
<g id="a_node4"><a xlink:href="class_ogre_1_1_render_system_1_1_listener.html" target="_top" xlink:title="Defines a listener on the custom events that this render system can raise. ">
<polygon fill="none" stroke="#000000" points="246.5,-56.5 246.5,-86.5 355.5,-86.5 355.5,-56.5 246.5,-56.5"/>
<text text-anchor="start" x="254.5" y="-74.5" font-family="Helvetica,sans-Serif" font-size="10.00" fill="#000000">Ogre::RenderSystem</text>
<text text-anchor="middle" x="301" y="-63.5" font-family="Helvetica,sans-Serif" font-size="10.00" fill="#000000">::Listener</text>
</a>
</g>
</g>
<!-- Node3&#45;&gt;Node0 -->
<g id="edge3" class="edge">
<title>Node3&#45;&gt;Node0</title>
<path fill="none" stroke="#191970" d="M256.8973,-52.3992C231.6978,-41.4853 201.1937,-28.274 181.005,-19.5303"/>
<polygon fill="#191970" stroke="#191970" points="255.6955,-55.6928 266.2629,-56.4554 258.4776,-49.2694 255.6955,-55.6928"/>
</g>
</g>
</svg>
