<?xml version="1.0" encoding="UTF-8" standalone="no"?>
<!DOCTYPE svg PUBLIC "-//W3C//DTD SVG 1.1//EN"
 "http://www.w3.org/Graphics/SVG/1.1/DTD/svg11.dtd">
<!-- Generated by graphviz version 2.43.0 (0)
 -->
<!-- Title: Ogre::ImageCodec::ImageData Pages: 1 -->
<svg width="175pt" height="140pt"
 viewBox="0.00 0.00 175.00 140.00" xmlns="http://www.w3.org/2000/svg" xmlns:xlink="http://www.w3.org/1999/xlink">
<g id="graph0" class="graph" transform="scale(1 1) rotate(0) translate(4 136)">
<title>Ogre::ImageCodec::ImageData</title>
<!-- Node1 -->
<g id="node1" class="node">
<title>Node1</title>
<g id="a_node1"><a xlink:title="Codec return class for images.">
<polygon fill="#bfbfbf" stroke="black" points="0,-0.5 0,-19.5 167,-19.5 167,-0.5 0,-0.5"/>
<text text-anchor="middle" x="83.5" y="-7.5" font-family="Helvetica,sans-Serif" font-size="10.00">Ogre::ImageCodec::ImageData</text>
</a>
</g>
</g>
<!-- Node2 -->
<g id="node2" class="node">
<title>Node2</title>
<g id="a_node2"><a xlink:href="class_ogre_1_1_codec_1_1_codec_data.html" target="_top" xlink:title=" ">
<polygon fill="none" stroke="black" points="16,-56.5 16,-75.5 151,-75.5 151,-56.5 16,-56.5"/>
<text text-anchor="middle" x="83.5" y="-63.5" font-family="Helvetica,sans-Serif" font-size="10.00">Ogre::Codec::CodecData</text>
</a>
</g>
</g>
<!-- Node2&#45;&gt;Node1 -->
<g id="edge1" class="edge">
<title>Node2&#45;&gt;Node1</title>
<path fill="none" stroke="midnightblue" d="M83.5,-45.8C83.5,-36.91 83.5,-26.78 83.5,-19.75"/>
<polygon fill="midnightblue" stroke="midnightblue" points="80,-46.08 83.5,-56.08 87,-46.08 80,-46.08"/>
</g>
<!-- Node3 -->
<g id="node3" class="node">
<title>Node3</title>
<g id="a_node3"><a xlink:title=" ">
<polygon fill="none" stroke="#bfbfbf" points="48,-112.5 48,-131.5 119,-131.5 119,-112.5 48,-112.5"/>
<text text-anchor="middle" x="83.5" y="-119.5" font-family="Helvetica,sans-Serif" font-size="10.00">CodecAlloc</text>
</a>
</g>
</g>
<!-- Node3&#45;&gt;Node2 -->
<g id="edge2" class="edge">
<title>Node3&#45;&gt;Node2</title>
<path fill="none" stroke="midnightblue" d="M83.5,-101.8C83.5,-92.91 83.5,-82.78 83.5,-75.75"/>
<polygon fill="midnightblue" stroke="midnightblue" points="80,-102.08 83.5,-112.08 87,-102.08 80,-102.08"/>
</g>
</g>
</svg>
