<?xml version="1.0" encoding="UTF-8" standalone="no"?>
<!DOCTYPE svg PUBLIC "-//W3C//DTD SVG 1.1//EN"
 "http://www.w3.org/Graphics/SVG/1.1/DTD/svg11.dtd">
<!-- Generated by graphviz version 2.43.0 (0)
 -->
<!-- Title: Ogre::WorkQueue::RequestHandler Pages: 1 -->
<svg width="366pt" height="306pt"
 viewBox="0.00 0.00 366.00 306.00" xmlns="http://www.w3.org/2000/svg" xmlns:xlink="http://www.w3.org/1999/xlink">
<g id="graph0" class="graph" transform="scale(1 1) rotate(0) translate(4 302)">
<title>Ogre::WorkQueue::RequestHandler</title>
<!-- Node1 -->
<g id="node1" class="node">
<title>Node1</title>
<g id="a_node1"><a xlink:title="Interface definition for a handler of requests.">
<polygon fill="#bfbfbf" stroke="black" points="0,-128 0,-158 149,-158 149,-128 0,-128"/>
<text text-anchor="start" x="8" y="-146" font-family="Helvetica,sans-Serif" font-size="10.00">Ogre::WorkQueue::Request</text>
<text text-anchor="middle" x="74.5" y="-135" font-family="Helvetica,sans-Serif" font-size="10.00">Handler</text>
</a>
</g>
</g>
<!-- Node2 -->
<g id="node2" class="node">
<title>Node2</title>
<g id="a_node2"><a xlink:href="class_ogre_1_1_lod_work_queue_worker.html" target="_top" xlink:title="Processes requests.">
<polygon fill="none" stroke="black" points="194,-278.5 194,-297.5 349,-297.5 349,-278.5 194,-278.5"/>
<text text-anchor="middle" x="271.5" y="-285.5" font-family="Helvetica,sans-Serif" font-size="10.00">Ogre::LodWorkQueueWorker</text>
</a>
</g>
</g>
<!-- Node1&#45;&gt;Node2 -->
<g id="edge1" class="edge">
<title>Node1&#45;&gt;Node2</title>
<path fill="none" stroke="#8b1a1a" d="M89.47,-166.84C107.69,-195.7 142.31,-243.58 185,-269 191.53,-272.89 198.78,-275.98 206.2,-278.45"/>
<polygon fill="#8b1a1a" stroke="#8b1a1a" points="92.37,-164.87 84.15,-158.19 86.41,-168.54 92.37,-164.87"/>
</g>
<!-- Node3 -->
<g id="node3" class="node">
<title>Node3</title>
<g id="a_node3"><a xlink:href="class_ogre_1_1_page.html" target="_top" xlink:title="Page class.">
<polygon fill="none" stroke="black" points="236.5,-240.5 236.5,-259.5 306.5,-259.5 306.5,-240.5 236.5,-240.5"/>
<text text-anchor="middle" x="271.5" y="-247.5" font-family="Helvetica,sans-Serif" font-size="10.00">Ogre::Page</text>
</a>
</g>
</g>
<!-- Node1&#45;&gt;Node3 -->
<g id="edge2" class="edge">
<title>Node1&#45;&gt;Node3</title>
<path fill="none" stroke="midnightblue" d="M97.2,-165.57C117.9,-185.76 150.89,-214.61 185,-231 201.04,-238.7 220.27,-243.33 236.44,-246.09"/>
<polygon fill="midnightblue" stroke="midnightblue" points="99.45,-162.88 89.9,-158.3 94.52,-167.84 99.45,-162.88"/>
</g>
<!-- Node4 -->
<g id="node4" class="node">
<title>Node4</title>
<g id="a_node4"><a xlink:href="class_ogre_1_1_resource_background_queue.html" target="_top" xlink:title="This class is used to perform Resource operations in a background thread.">
<polygon fill="none" stroke="black" points="197,-191 197,-221 346,-221 346,-191 197,-191"/>
<text text-anchor="start" x="205" y="-209" font-family="Helvetica,sans-Serif" font-size="10.00">Ogre::ResourceBackground</text>
<text text-anchor="middle" x="271.5" y="-198" font-family="Helvetica,sans-Serif" font-size="10.00">Queue</text>
</a>
</g>
</g>
<!-- Node1&#45;&gt;Node4 -->
<g id="edge3" class="edge">
<title>Node1&#45;&gt;Node4</title>
<path fill="none" stroke="midnightblue" d="M126.8,-161.39C145.1,-167.79 165.91,-174.9 185,-181 195.46,-184.34 206.69,-187.75 217.47,-190.94"/>
<polygon fill="midnightblue" stroke="midnightblue" points="127.79,-158.03 117.19,-158.01 125.47,-164.63 127.79,-158.03"/>
</g>
<!-- Node5 -->
<g id="node5" class="node">
<title>Node5</title>
<g id="a_node5"><a xlink:href="class_ogre_1_1_terrain.html" target="_top" xlink:title="The main containing class for a chunk of terrain.">
<polygon fill="none" stroke="black" points="232,-152.5 232,-171.5 311,-171.5 311,-152.5 232,-152.5"/>
<text text-anchor="middle" x="271.5" y="-159.5" font-family="Helvetica,sans-Serif" font-size="10.00">Ogre::Terrain</text>
</a>
</g>
</g>
<!-- Node1&#45;&gt;Node5 -->
<g id="edge4" class="edge">
<title>Node1&#45;&gt;Node5</title>
<path fill="none" stroke="midnightblue" d="M159.22,-151.16C184.53,-153.62 211.1,-156.21 231.93,-158.24"/>
<polygon fill="midnightblue" stroke="midnightblue" points="159.51,-147.67 149.22,-150.18 158.83,-154.64 159.51,-147.67"/>
</g>
<!-- Node6 -->
<g id="node6" class="node">
<title>Node6</title>
<g id="a_node6"><a xlink:href="class_ogre_1_1_terrain_group.html" target="_top" xlink:title="Helper class to assist you in managing multiple terrain instances that are connected to each other.">
<polygon fill="none" stroke="black" points="217.5,-114.5 217.5,-133.5 325.5,-133.5 325.5,-114.5 217.5,-114.5"/>
<text text-anchor="middle" x="271.5" y="-121.5" font-family="Helvetica,sans-Serif" font-size="10.00">Ogre::TerrainGroup</text>
</a>
</g>
</g>
<!-- Node1&#45;&gt;Node6 -->
<g id="edge5" class="edge">
<title>Node1&#45;&gt;Node6</title>
<path fill="none" stroke="midnightblue" d="M159.41,-134.82C179.06,-132.91 199.46,-130.92 217.33,-129.18"/>
<polygon fill="midnightblue" stroke="midnightblue" points="158.83,-131.36 149.22,-135.82 159.51,-138.33 158.83,-131.36"/>
</g>
<!-- Node7 -->
<g id="node7" class="node">
<title>Node7</title>
<g id="a_node7"><a xlink:href="class_ogre_1_1_terrain_lod_manager.html" target="_top" xlink:title="Terrain LOD data manager.">
<polygon fill="none" stroke="black" points="202,-76.5 202,-95.5 341,-95.5 341,-76.5 202,-76.5"/>
<text text-anchor="middle" x="271.5" y="-83.5" font-family="Helvetica,sans-Serif" font-size="10.00">Ogre::TerrainLodManager</text>
</a>
</g>
</g>
<!-- Node1&#45;&gt;Node7 -->
<g id="edge6" class="edge">
<title>Node1&#45;&gt;Node7</title>
<path fill="none" stroke="midnightblue" d="M124.7,-124.57C143.42,-117.92 165.05,-110.66 185,-105 197.14,-101.56 210.4,-98.35 222.77,-95.59"/>
<polygon fill="midnightblue" stroke="midnightblue" points="123.42,-121.31 115.19,-127.99 125.79,-127.9 123.42,-121.31"/>
</g>
<!-- Node8 -->
<g id="node8" class="node">
<title>Node8</title>
<g id="a_node8"><a xlink:href="class_ogre_1_1_terrain_paged_world_section.html" target="_top" xlink:title="A world section which includes paged terrain.">
<polygon fill="none" stroke="black" points="185,-38.5 185,-57.5 358,-57.5 358,-38.5 185,-38.5"/>
<text text-anchor="middle" x="271.5" y="-45.5" font-family="Helvetica,sans-Serif" font-size="10.00">Ogre::TerrainPagedWorldSection</text>
</a>
</g>
</g>
<!-- Node1&#45;&gt;Node8 -->
<g id="edge7" class="edge">
<title>Node1&#45;&gt;Node8</title>
<path fill="none" stroke="midnightblue" d="M100.64,-121.28C121.8,-104.09 153.56,-80.77 185,-67 193.78,-63.16 203.41,-60.06 212.95,-57.56"/>
<polygon fill="midnightblue" stroke="midnightblue" points="98.27,-118.69 92.8,-127.76 102.73,-124.08 98.27,-118.69"/>
</g>
<!-- Node9 -->
<g id="node9" class="node">
<title>Node9</title>
<g id="a_node9"><a xlink:href="class_ogre_1_1_volume_1_1_chunk_handler.html" target="_top" xlink:title="Handles the WorkQueue management of the chunks.">
<polygon fill="none" stroke="black" points="192.5,-0.5 192.5,-19.5 350.5,-19.5 350.5,-0.5 192.5,-0.5"/>
<text text-anchor="middle" x="271.5" y="-7.5" font-family="Helvetica,sans-Serif" font-size="10.00">Ogre::Volume::ChunkHandler</text>
</a>
</g>
</g>
<!-- Node1&#45;&gt;Node9 -->
<g id="edge8" class="edge">
<title>Node1&#45;&gt;Node9</title>
<path fill="none" stroke="midnightblue" d="M91.48,-119.44C110.58,-93.18 145.02,-51.47 185,-29 191.89,-25.13 199.51,-22.04 207.28,-19.59"/>
<polygon fill="midnightblue" stroke="midnightblue" points="88.55,-117.52 85.6,-127.7 94.25,-121.58 88.55,-117.52"/>
</g>
</g>
</svg>
