<?xml version="1.0" encoding="UTF-8" standalone="no"?>
<!DOCTYPE svg PUBLIC "-//W3C//DTD SVG 1.1//EN"
 "http://www.w3.org/Graphics/SVG/1.1/DTD/svg11.dtd">
<!-- Generated by graphviz version 2.40.1 (20161225.0304)
 -->
<!-- Title: Ogre::RTShader::AssignmentAtom Pages: 1 -->
<svg width="177pt" height="140pt"
 viewBox="0.00 0.00 177.00 140.00" xmlns="http://www.w3.org/2000/svg" xmlns:xlink="http://www.w3.org/1999/xlink">
<g id="graph0" class="graph" transform="scale(1 1) rotate(0) translate(4 136)">
<title>Ogre::RTShader::AssignmentAtom</title>
<!-- Node0 -->
<g id="node1" class="node">
<title>Node0</title>
<polygon fill="#bfbfbf" stroke="#000000" points="0,-.5 0,-19.5 169,-19.5 169,-.5 0,-.5"/>
<text text-anchor="middle" x="84.5" y="-7.5" font-family="Helvetica,sans-Serif" font-size="10.00" fill="#000000">Ogre::RTShader::AssignmentAtom</text>
</g>
<!-- Node1 -->
<g id="node2" class="node">
<title>Node1</title>
<g id="a_node2"><a xlink:href="class_ogre_1_1_r_t_shader_1_1_function_atom.html" target="_top" xlink:title="A class that represents an atomic code section of shader based program function. ">
<polygon fill="none" stroke="#000000" points="7,-56.5 7,-75.5 162,-75.5 162,-56.5 7,-56.5"/>
<text text-anchor="middle" x="84.5" y="-63.5" font-family="Helvetica,sans-Serif" font-size="10.00" fill="#000000">Ogre::RTShader::FunctionAtom</text>
</a>
</g>
</g>
<!-- Node1&#45;&gt;Node0 -->
<g id="edge1" class="edge">
<title>Node1&#45;&gt;Node0</title>
<path fill="none" stroke="#191970" d="M84.5,-46.1575C84.5,-37.155 84.5,-26.9199 84.5,-19.6427"/>
<polygon fill="#191970" stroke="#191970" points="81.0001,-46.2455 84.5,-56.2455 88.0001,-46.2456 81.0001,-46.2455"/>
</g>
<!-- Node2 -->
<g id="node3" class="node">
<title>Node2</title>
<g id="a_node3"><a xlink:href="class_ogre_1_1_allocated_object.html" target="_top" xlink:title="RTShaderSystemAlloc">
<polygon fill="none" stroke="#000000" points="26.5,-112.5 26.5,-131.5 142.5,-131.5 142.5,-112.5 26.5,-112.5"/>
<text text-anchor="middle" x="84.5" y="-119.5" font-family="Helvetica,sans-Serif" font-size="10.00" fill="#000000">RTShaderSystemAlloc</text>
</a>
</g>
</g>
<!-- Node2&#45;&gt;Node1 -->
<g id="edge2" class="edge">
<title>Node2&#45;&gt;Node1</title>
<path fill="none" stroke="#191970" d="M84.5,-102.1575C84.5,-93.155 84.5,-82.9199 84.5,-75.6427"/>
<polygon fill="#191970" stroke="#191970" points="81.0001,-102.2455 84.5,-112.2455 88.0001,-102.2456 81.0001,-102.2455"/>
</g>
</g>
</svg>
