<?xml version="1.0" encoding="UTF-8" standalone="no"?>
<!DOCTYPE svg PUBLIC "-//W3C//DTD SVG 1.1//EN"
 "http://www.w3.org/Graphics/SVG/1.1/DTD/svg11.dtd">
<!-- Generated by graphviz version 2.43.0 (0)
 -->
<!-- Title: Ogre::ArchiveFactory Pages: 1 -->
<svg width="715pt" height="121pt"
 viewBox="0.00 0.00 715.00 121.00" xmlns="http://www.w3.org/2000/svg" xmlns:xlink="http://www.w3.org/1999/xlink">
<g id="graph0" class="graph" transform="scale(1 1) rotate(0) translate(4 117)">
<title>Ogre::ArchiveFactory</title>
<!-- Node1 -->
<g id="node1" class="node">
<title>Node1</title>
<g id="a_node1"><a xlink:title="Abstract factory class, archive codec plugins can register concrete subclasses of this.">
<polygon fill="#bfbfbf" stroke="black" points="194,-44 194,-63 313,-63 313,-44 194,-44"/>
<text text-anchor="middle" x="253.5" y="-51" font-family="Helvetica,sans-Serif" font-size="10.00">Ogre::ArchiveFactory</text>
</a>
</g>
</g>
<!-- Node4 -->
<g id="node4" class="node">
<title>Node4</title>
<g id="a_node4"><a xlink:href="class_ogre_1_1_a_p_k_file_system_archive_factory.html" target="_top" xlink:title=" ">
<polygon fill="none" stroke="black" points="357.5,-82.5 357.5,-112.5 512.5,-112.5 512.5,-82.5 357.5,-82.5"/>
<text text-anchor="start" x="365.5" y="-100.5" font-family="Helvetica,sans-Serif" font-size="10.00">Ogre::APKFileSystemArchive</text>
<text text-anchor="middle" x="435" y="-89.5" font-family="Helvetica,sans-Serif" font-size="10.00">Factory</text>
</a>
</g>
</g>
<!-- Node1&#45;&gt;Node4 -->
<g id="edge3" class="edge">
<title>Node1&#45;&gt;Node4</title>
<path fill="none" stroke="midnightblue" d="M303.27,-65.46C324.62,-70.69 349.92,-76.89 372.54,-82.43"/>
<polygon fill="midnightblue" stroke="midnightblue" points="303.99,-62.03 293.45,-63.05 302.33,-68.83 303.99,-62.03"/>
</g>
<!-- Node5 -->
<g id="node5" class="node">
<title>Node5</title>
<g id="a_node5"><a xlink:href="class_ogre_1_1_file_system_archive_factory.html" target="_top" xlink:title="Specialisation of the ArchiveFactory to allow reading of files from filesystem folders / directories.">
<polygon fill="none" stroke="black" points="349,-44 349,-63 521,-63 521,-44 349,-44"/>
<text text-anchor="middle" x="435" y="-51" font-family="Helvetica,sans-Serif" font-size="10.00">Ogre::FileSystemArchiveFactory</text>
</a>
</g>
</g>
<!-- Node1&#45;&gt;Node5 -->
<g id="edge4" class="edge">
<title>Node1&#45;&gt;Node5</title>
<path fill="none" stroke="midnightblue" d="M323.28,-53.5C331.61,-53.5 340.19,-53.5 348.72,-53.5"/>
<polygon fill="midnightblue" stroke="midnightblue" points="323.28,-50 313.28,-53.5 323.27,-57 323.28,-50"/>
</g>
<!-- Node6 -->
<g id="node6" class="node">
<title>Node6</title>
<g id="a_node6"><a xlink:href="class_ogre_1_1_zip_archive_factory.html" target="_top" xlink:title="Specialisation to allow reading of files from a zip format source archive.">
<polygon fill="none" stroke="black" points="368,-6 368,-25 502,-25 502,-6 368,-6"/>
<text text-anchor="middle" x="435" y="-13" font-family="Helvetica,sans-Serif" font-size="10.00">Ogre::ZipArchiveFactory</text>
</a>
</g>
</g>
<!-- Node1&#45;&gt;Node6 -->
<g id="edge5" class="edge">
<title>Node1&#45;&gt;Node6</title>
<path fill="none" stroke="midnightblue" d="M309.68,-41.82C335.13,-36.43 364.97,-30.11 389.03,-25.02"/>
<polygon fill="midnightblue" stroke="midnightblue" points="308.85,-38.42 299.8,-43.91 310.3,-45.26 308.85,-38.42"/>
</g>
<!-- Node2 -->
<g id="node2" class="node">
<title>Node2</title>
<g id="a_node2"><a xlink:href="class_ogre_1_1_factory_obj.html" target="_top" xlink:title=" ">
<polygon fill="none" stroke="black" points="0,-63 0,-82 158,-82 158,-63 0,-63"/>
<text text-anchor="middle" x="79" y="-70" font-family="Helvetica,sans-Serif" font-size="10.00">Ogre::FactoryObj&lt; Archive &gt;</text>
</a>
</g>
</g>
<!-- Node2&#45;&gt;Node1 -->
<g id="edge1" class="edge">
<title>Node2&#45;&gt;Node1</title>
<path fill="none" stroke="midnightblue" d="M168.36,-62.77C177.04,-61.81 185.69,-60.86 193.96,-59.95"/>
<polygon fill="midnightblue" stroke="midnightblue" points="167.73,-59.32 158.17,-63.89 168.5,-66.27 167.73,-59.32"/>
</g>
<!-- Node3 -->
<g id="node3" class="node">
<title>Node3</title>
<g id="a_node3"><a xlink:title=" ">
<polygon fill="none" stroke="#bfbfbf" points="40.5,-25 40.5,-44 117.5,-44 117.5,-25 40.5,-25"/>
<text text-anchor="middle" x="79" y="-32" font-family="Helvetica,sans-Serif" font-size="10.00">ArchiveAlloc</text>
</a>
</g>
</g>
<!-- Node3&#45;&gt;Node1 -->
<g id="edge2" class="edge">
<title>Node3&#45;&gt;Node1</title>
<path fill="none" stroke="midnightblue" d="M127.86,-39.77C148.25,-42.02 172.25,-44.66 193.71,-47.02"/>
<polygon fill="midnightblue" stroke="midnightblue" points="128.18,-36.29 117.86,-38.67 127.41,-43.24 128.18,-36.29"/>
</g>
<!-- Node7 -->
<g id="node7" class="node">
<title>Node7</title>
<g id="a_node7"><a xlink:href="class_ogre_1_1_embedded_zip_archive_factory.html" target="_top" xlink:title="Specialisation of ZipArchiveFactory for embedded Zip files.">
<polygon fill="none" stroke="black" points="557,-0.5 557,-30.5 707,-30.5 707,-0.5 557,-0.5"/>
<text text-anchor="start" x="565" y="-18.5" font-family="Helvetica,sans-Serif" font-size="10.00">Ogre::EmbeddedZipArchive</text>
<text text-anchor="middle" x="632" y="-7.5" font-family="Helvetica,sans-Serif" font-size="10.00">Factory</text>
</a>
</g>
</g>
<!-- Node6&#45;&gt;Node7 -->
<g id="edge6" class="edge">
<title>Node6&#45;&gt;Node7</title>
<path fill="none" stroke="midnightblue" d="M512.04,-15.5C526.71,-15.5 542.05,-15.5 556.66,-15.5"/>
<polygon fill="midnightblue" stroke="midnightblue" points="512.02,-12 502.02,-15.5 512.02,-19 512.02,-12"/>
</g>
</g>
</svg>
