<?xml version="1.0" encoding="UTF-8" standalone="no"?>
<!DOCTYPE svg PUBLIC "-//W3C//DTD SVG 1.1//EN"
 "http://www.w3.org/Graphics/SVG/1.1/DTD/svg11.dtd">
<!-- Generated by graphviz version 2.43.0 (0)
 -->
<!-- Title: Ogre::DataStream Pages: 1 -->
<svg width="416pt" height="142pt"
 viewBox="0.00 0.00 416.00 142.00" xmlns="http://www.w3.org/2000/svg" xmlns:xlink="http://www.w3.org/1999/xlink">
<g id="graph0" class="graph" transform="scale(1 1) rotate(0) translate(4 138)">
<title>Ogre::DataStream</title>
<!-- Node1 -->
<g id="node1" class="node">
<title>Node1</title>
<g id="a_node1"><a xlink:title="General purpose class used for encapsulating the reading and writing of data.">
<polygon fill="#bfbfbf" stroke="black" points="112,-57.5 112,-76.5 216,-76.5 216,-57.5 112,-57.5"/>
<text text-anchor="middle" x="164" y="-64.5" font-family="Helvetica,sans-Serif" font-size="10.00">Ogre::DataStream</text>
</a>
</g>
</g>
<!-- Node3 -->
<g id="node3" class="node">
<title>Node3</title>
<g id="a_node3"><a xlink:href="class_ogre_1_1_deflate_stream.html" target="_top" xlink:title="Stream which compresses / uncompresses data using the &#39;deflate&#39; compression algorithm.">
<polygon fill="none" stroke="black" points="271.5,-114.5 271.5,-133.5 388.5,-133.5 388.5,-114.5 271.5,-114.5"/>
<text text-anchor="middle" x="330" y="-121.5" font-family="Helvetica,sans-Serif" font-size="10.00">Ogre::DeflateStream</text>
</a>
</g>
</g>
<!-- Node1&#45;&gt;Node3 -->
<g id="edge2" class="edge">
<title>Node1&#45;&gt;Node3</title>
<path fill="none" stroke="midnightblue" d="M193.55,-80.94C210.3,-88.74 232.04,-98.23 252,-105 262.43,-108.54 273.86,-111.72 284.65,-114.42"/>
<polygon fill="midnightblue" stroke="midnightblue" points="194.86,-77.68 184.32,-76.57 191.86,-84.01 194.86,-77.68"/>
</g>
<!-- Node4 -->
<g id="node4" class="node">
<title>Node4</title>
<g id="a_node4"><a xlink:href="class_ogre_1_1_file_handle_data_stream.html" target="_top" xlink:title="Common subclass of DataStream for handling data from C&#45;style file handles.">
<polygon fill="none" stroke="black" points="252.5,-76.5 252.5,-95.5 407.5,-95.5 407.5,-76.5 252.5,-76.5"/>
<text text-anchor="middle" x="330" y="-83.5" font-family="Helvetica,sans-Serif" font-size="10.00">Ogre::FileHandleDataStream</text>
</a>
</g>
</g>
<!-- Node1&#45;&gt;Node4 -->
<g id="edge3" class="edge">
<title>Node1&#45;&gt;Node4</title>
<path fill="none" stroke="midnightblue" d="M226.5,-74.13C234.89,-75.1 243.59,-76.11 252.22,-77.1"/>
<polygon fill="midnightblue" stroke="midnightblue" points="226.78,-70.63 216.44,-72.96 225.97,-77.59 226.78,-70.63"/>
</g>
<!-- Node5 -->
<g id="node5" class="node">
<title>Node5</title>
<g id="a_node5"><a xlink:href="class_ogre_1_1_file_stream_data_stream.html" target="_top" xlink:title="Common subclass of DataStream for handling data from std::basic_istream.">
<polygon fill="none" stroke="black" points="252,-38.5 252,-57.5 408,-57.5 408,-38.5 252,-38.5"/>
<text text-anchor="middle" x="330" y="-45.5" font-family="Helvetica,sans-Serif" font-size="10.00">Ogre::FileStreamDataStream</text>
</a>
</g>
</g>
<!-- Node1&#45;&gt;Node5 -->
<g id="edge4" class="edge">
<title>Node1&#45;&gt;Node5</title>
<path fill="none" stroke="midnightblue" d="M226.42,-59.88C234.74,-58.92 243.36,-57.92 251.91,-56.93"/>
<polygon fill="midnightblue" stroke="midnightblue" points="225.97,-56.41 216.44,-61.04 226.78,-63.37 225.97,-56.41"/>
</g>
<!-- Node6 -->
<g id="node6" class="node">
<title>Node6</title>
<g id="a_node6"><a xlink:href="class_ogre_1_1_memory_data_stream.html" target="_top" xlink:title="Common subclass of DataStream for handling data from chunks of memory.">
<polygon fill="none" stroke="black" points="257.5,-0.5 257.5,-19.5 402.5,-19.5 402.5,-0.5 257.5,-0.5"/>
<text text-anchor="middle" x="330" y="-7.5" font-family="Helvetica,sans-Serif" font-size="10.00">Ogre::MemoryDataStream</text>
</a>
</g>
</g>
<!-- Node1&#45;&gt;Node6 -->
<g id="edge5" class="edge">
<title>Node1&#45;&gt;Node6</title>
<path fill="none" stroke="midnightblue" d="M193.55,-53.06C210.3,-45.26 232.04,-35.77 252,-29 262.43,-25.46 273.86,-22.28 284.65,-19.58"/>
<polygon fill="midnightblue" stroke="midnightblue" points="191.86,-49.99 184.32,-57.43 194.86,-56.32 191.86,-49.99"/>
</g>
<!-- Node2 -->
<g id="node2" class="node">
<title>Node2</title>
<g id="a_node2"><a xlink:title=" ">
<polygon fill="none" stroke="#bfbfbf" points="0,-57.5 0,-76.5 76,-76.5 76,-57.5 0,-57.5"/>
<text text-anchor="middle" x="38" y="-64.5" font-family="Helvetica,sans-Serif" font-size="10.00">StreamAlloc</text>
</a>
</g>
</g>
<!-- Node2&#45;&gt;Node1 -->
<g id="edge1" class="edge">
<title>Node2&#45;&gt;Node1</title>
<path fill="none" stroke="midnightblue" d="M86.41,-67C94.65,-67 103.26,-67 111.61,-67"/>
<polygon fill="midnightblue" stroke="midnightblue" points="86.2,-63.5 76.2,-67 86.2,-70.5 86.2,-63.5"/>
</g>
</g>
</svg>
