<?xml version="1.0" encoding="UTF-8" standalone="no"?>
<!DOCTYPE svg PUBLIC "-//W3C//DTD SVG 1.1//EN"
 "http://www.w3.org/Graphics/SVG/1.1/DTD/svg11.dtd">
<!-- Generated by graphviz version 2.43.0 (0)
 -->
<!-- Title: Ogre::GLHardwarePixelBuffer Pages: 1 -->
<svg width="274pt" height="319pt"
 viewBox="0.00 0.00 273.50 319.00" xmlns="http://www.w3.org/2000/svg" xmlns:xlink="http://www.w3.org/1999/xlink">
<g id="graph0" class="graph" transform="scale(1 1) rotate(0) translate(4 315)">
<title>Ogre::GLHardwarePixelBuffer</title>
<!-- Node1 -->
<g id="node1" class="node">
<title>Node1</title>
<g id="a_node1"><a xlink:title=" ">
<polygon fill="#bfbfbf" stroke="black" points="52.5,-56.5 52.5,-75.5 212.5,-75.5 212.5,-56.5 52.5,-56.5"/>
<text text-anchor="middle" x="132.5" y="-63.5" font-family="Helvetica,sans-Serif" font-size="10.00">Ogre::GLHardwarePixelBuffer</text>
</a>
</g>
</g>
<!-- Node6 -->
<g id="node6" class="node">
<title>Node6</title>
<g id="a_node6"><a xlink:href="class_ogre_1_1_g_l_render_buffer.html" target="_top" xlink:title="Renderbuffer surface.">
<polygon fill="none" stroke="black" points="0,-0.5 0,-19.5 123,-19.5 123,-0.5 0,-0.5"/>
<text text-anchor="middle" x="61.5" y="-7.5" font-family="Helvetica,sans-Serif" font-size="10.00">Ogre::GLRenderBuffer</text>
</a>
</g>
</g>
<!-- Node1&#45;&gt;Node6 -->
<g id="edge5" class="edge">
<title>Node1&#45;&gt;Node6</title>
<path fill="none" stroke="midnightblue" d="M112.91,-50.1C100.13,-40.38 83.89,-28.03 73.11,-19.83"/>
<polygon fill="midnightblue" stroke="midnightblue" points="111.01,-53.06 121.09,-56.32 115.25,-47.48 111.01,-53.06"/>
</g>
<!-- Node7 -->
<g id="node7" class="node">
<title>Node7</title>
<g id="a_node7"><a xlink:href="class_ogre_1_1_g_l_texture_buffer.html" target="_top" xlink:title="Texture surface.">
<polygon fill="none" stroke="black" points="141.5,-0.5 141.5,-19.5 265.5,-19.5 265.5,-0.5 141.5,-0.5"/>
<text text-anchor="middle" x="203.5" y="-7.5" font-family="Helvetica,sans-Serif" font-size="10.00">Ogre::GLTextureBuffer</text>
</a>
</g>
</g>
<!-- Node1&#45;&gt;Node7 -->
<g id="edge6" class="edge">
<title>Node1&#45;&gt;Node7</title>
<path fill="none" stroke="midnightblue" d="M152.09,-50.1C164.87,-40.38 181.11,-28.03 191.89,-19.83"/>
<polygon fill="midnightblue" stroke="midnightblue" points="149.75,-47.48 143.91,-56.32 153.99,-53.06 149.75,-47.48"/>
</g>
<!-- Node2 -->
<g id="node2" class="node">
<title>Node2</title>
<g id="a_node2"><a xlink:href="class_ogre_1_1_g_l_hardware_pixel_buffer_common.html" target="_top" xlink:title=" ">
<polygon fill="none" stroke="black" points="52.5,-112.5 52.5,-142.5 212.5,-142.5 212.5,-112.5 52.5,-112.5"/>
<text text-anchor="start" x="60.5" y="-130.5" font-family="Helvetica,sans-Serif" font-size="10.00">Ogre::GLHardwarePixelBuffer</text>
<text text-anchor="middle" x="132.5" y="-119.5" font-family="Helvetica,sans-Serif" font-size="10.00">Common</text>
</a>
</g>
</g>
<!-- Node2&#45;&gt;Node1 -->
<g id="edge1" class="edge">
<title>Node2&#45;&gt;Node1</title>
<path fill="none" stroke="midnightblue" d="M132.5,-102.29C132.5,-92.86 132.5,-82.65 132.5,-75.66"/>
<polygon fill="midnightblue" stroke="midnightblue" points="129,-102.4 132.5,-112.4 136,-102.4 129,-102.4"/>
</g>
<!-- Node3 -->
<g id="node3" class="node">
<title>Node3</title>
<g id="a_node3"><a xlink:href="class_ogre_1_1_hardware_pixel_buffer.html" target="_top" xlink:title="Specialisation of HardwareBuffer for a pixel buffer.">
<polygon fill="none" stroke="black" points="59,-179.5 59,-198.5 206,-198.5 206,-179.5 59,-179.5"/>
<text text-anchor="middle" x="132.5" y="-186.5" font-family="Helvetica,sans-Serif" font-size="10.00">Ogre::HardwarePixelBuffer</text>
</a>
</g>
</g>
<!-- Node3&#45;&gt;Node2 -->
<g id="edge2" class="edge">
<title>Node3&#45;&gt;Node2</title>
<path fill="none" stroke="midnightblue" d="M132.5,-169.23C132.5,-160.59 132.5,-150.5 132.5,-142.52"/>
<polygon fill="midnightblue" stroke="midnightblue" points="129,-169.48 132.5,-179.48 136,-169.48 129,-169.48"/>
</g>
<!-- Node4 -->
<g id="node4" class="node">
<title>Node4</title>
<g id="a_node4"><a xlink:href="class_ogre_1_1_hardware_buffer.html" target="_top" xlink:title="Abstract class defining common features of hardware buffers.">
<polygon fill="none" stroke="black" points="71,-235.5 71,-254.5 194,-254.5 194,-235.5 71,-235.5"/>
<text text-anchor="middle" x="132.5" y="-242.5" font-family="Helvetica,sans-Serif" font-size="10.00">Ogre::HardwareBuffer</text>
</a>
</g>
</g>
<!-- Node4&#45;&gt;Node3 -->
<g id="edge3" class="edge">
<title>Node4&#45;&gt;Node3</title>
<path fill="none" stroke="midnightblue" d="M132.5,-224.8C132.5,-215.91 132.5,-205.78 132.5,-198.75"/>
<polygon fill="midnightblue" stroke="midnightblue" points="129,-225.08 132.5,-235.08 136,-225.08 129,-225.08"/>
</g>
<!-- Node5 -->
<g id="node5" class="node">
<title>Node5</title>
<g id="a_node5"><a xlink:title=" ">
<polygon fill="none" stroke="#bfbfbf" points="97,-291.5 97,-310.5 168,-310.5 168,-291.5 97,-291.5"/>
<text text-anchor="middle" x="132.5" y="-298.5" font-family="Helvetica,sans-Serif" font-size="10.00">BufferAlloc</text>
</a>
</g>
</g>
<!-- Node5&#45;&gt;Node4 -->
<g id="edge4" class="edge">
<title>Node5&#45;&gt;Node4</title>
<path fill="none" stroke="midnightblue" d="M132.5,-280.8C132.5,-271.91 132.5,-261.78 132.5,-254.75"/>
<polygon fill="midnightblue" stroke="midnightblue" points="129,-281.08 132.5,-291.08 136,-281.08 129,-281.08"/>
</g>
</g>
</svg>
