<?xml version="1.0" encoding="UTF-8" standalone="no"?>
<!DOCTYPE svg PUBLIC "-//W3C//DTD SVG 1.1//EN"
 "http://www.w3.org/Graphics/SVG/1.1/DTD/svg11.dtd">
<!-- Generated by graphviz version 2.40.1 (20161225.0304)
 -->
<!-- Title: Ogre::RenderSystem Pages: 1 -->
<svg width="609pt" height="196pt"
 viewBox="0.00 0.00 609.00 196.00" xmlns="http://www.w3.org/2000/svg" xmlns:xlink="http://www.w3.org/1999/xlink">
<g id="graph0" class="graph" transform="scale(1 1) rotate(0) translate(4 192)">
<title>Ogre::RenderSystem</title>
<!-- Node0 -->
<g id="node1" class="node">
<title>Node0</title>
<polygon fill="#bfbfbf" stroke="#000000" points="170.5,-112.5 170.5,-131.5 279.5,-131.5 279.5,-112.5 170.5,-112.5"/>
<text text-anchor="middle" x="225" y="-119.5" font-family="Helvetica,sans-Serif" font-size="10.00" fill="#000000">Ogre::RenderSystem</text>
</g>
<!-- Node2 -->
<g id="node3" class="node">
<title>Node2</title>
<g id="a_node3"><a xlink:href="class_ogre_1_1_d3_d11_render_system.html" target="_top" xlink:title="Implementation of DirectX11 as a rendering system. ">
<polygon fill="none" stroke="#000000" points="0,-56.5 0,-75.5 140,-75.5 140,-56.5 0,-56.5"/>
<text text-anchor="middle" x="70" y="-63.5" font-family="Helvetica,sans-Serif" font-size="10.00" fill="#000000">Ogre::D3D11RenderSystem</text>
</a>
</g>
</g>
<!-- Node0&#45;&gt;Node2 -->
<g id="edge2" class="edge">
<title>Node0&#45;&gt;Node2</title>
<path fill="none" stroke="#191970" d="M188.8051,-108.9231C160.4703,-98.686 121.7282,-84.6889 96.2978,-75.5011"/>
<polygon fill="#191970" stroke="#191970" points="187.7602,-112.267 198.3546,-112.3733 190.1388,-105.6835 187.7602,-112.267"/>
</g>
<!-- Node3 -->
<g id="node4" class="node">
<title>Node3</title>
<g id="a_node4"><a xlink:href="class_ogre_1_1_d3_d9_render_system.html" target="_top" xlink:title="Implementation of DirectX9 as a rendering system. ">
<polygon fill="none" stroke="#000000" points="158,-56.5 158,-75.5 292,-75.5 292,-56.5 158,-56.5"/>
<text text-anchor="middle" x="225" y="-63.5" font-family="Helvetica,sans-Serif" font-size="10.00" fill="#000000">Ogre::D3D9RenderSystem</text>
</a>
</g>
</g>
<!-- Node0&#45;&gt;Node3 -->
<g id="edge3" class="edge">
<title>Node0&#45;&gt;Node3</title>
<path fill="none" stroke="#191970" d="M225,-102.1575C225,-93.155 225,-82.9199 225,-75.6427"/>
<polygon fill="#191970" stroke="#191970" points="221.5001,-102.2455 225,-112.2455 228.5001,-102.2456 221.5001,-102.2455"/>
</g>
<!-- Node4 -->
<g id="node5" class="node">
<title>Node4</title>
<g id="a_node5"><a xlink:href="class_ogre_1_1_g_l_render_system_common.html" target="_top" xlink:title="Ogre::GLRenderSystemCommon">
<polygon fill="none" stroke="#000000" points="310.5,-56.5 310.5,-75.5 471.5,-75.5 471.5,-56.5 310.5,-56.5"/>
<text text-anchor="middle" x="391" y="-63.5" font-family="Helvetica,sans-Serif" font-size="10.00" fill="#000000">Ogre::GLRenderSystemCommon</text>
</a>
</g>
</g>
<!-- Node0&#45;&gt;Node4 -->
<g id="edge4" class="edge">
<title>Node0&#45;&gt;Node4</title>
<path fill="none" stroke="#191970" d="M263.3667,-109.057C293.7466,-98.8084 335.4819,-84.729 362.836,-75.5011"/>
<polygon fill="#191970" stroke="#191970" points="261.893,-105.8603 253.5364,-112.3733 264.1306,-112.4931 261.893,-105.8603"/>
</g>
<!-- Node1 -->
<g id="node2" class="node">
<title>Node1</title>
<g id="a_node2"><a xlink:href="class_ogre_1_1_allocated_object.html" target="_top" xlink:title="RenderSysAlloc">
<polygon fill="none" stroke="#000000" points="181.5,-168.5 181.5,-187.5 268.5,-187.5 268.5,-168.5 181.5,-168.5"/>
<text text-anchor="middle" x="225" y="-175.5" font-family="Helvetica,sans-Serif" font-size="10.00" fill="#000000">RenderSysAlloc</text>
</a>
</g>
</g>
<!-- Node1&#45;&gt;Node0 -->
<g id="edge1" class="edge">
<title>Node1&#45;&gt;Node0</title>
<path fill="none" stroke="#191970" d="M225,-158.1575C225,-149.155 225,-138.9199 225,-131.6427"/>
<polygon fill="#191970" stroke="#191970" points="221.5001,-158.2455 225,-168.2455 228.5001,-158.2456 221.5001,-158.2455"/>
</g>
<!-- Node5 -->
<g id="node6" class="node">
<title>Node5</title>
<g id="a_node6"><a xlink:href="class_ogre_1_1_g_l3_plus_render_system.html" target="_top" xlink:title="Implementation of GL 3 as a rendering system. ">
<polygon fill="none" stroke="#000000" points="157,-.5 157,-19.5 303,-19.5 303,-.5 157,-.5"/>
<text text-anchor="middle" x="230" y="-7.5" font-family="Helvetica,sans-Serif" font-size="10.00" fill="#000000">Ogre::GL3PlusRenderSystem</text>
</a>
</g>
</g>
<!-- Node4&#45;&gt;Node5 -->
<g id="edge5" class="edge">
<title>Node4&#45;&gt;Node5</title>
<path fill="none" stroke="#191970" d="M353.7889,-53.057C324.3241,-42.8084 283.8459,-28.729 257.3157,-19.5011"/>
<polygon fill="#191970" stroke="#191970" points="352.7283,-56.3937 363.3231,-56.3733 355.028,-49.7822 352.7283,-56.3937"/>
</g>
<!-- Node6 -->
<g id="node7" class="node">
<title>Node6</title>
<g id="a_node7"><a xlink:href="class_ogre_1_1_g_l_e_s2_render_system.html" target="_top" xlink:title="Implementation of GL ES 2.x as a rendering system. ">
<polygon fill="none" stroke="#000000" points="321,-.5 321,-19.5 461,-19.5 461,-.5 321,-.5"/>
<text text-anchor="middle" x="391" y="-7.5" font-family="Helvetica,sans-Serif" font-size="10.00" fill="#000000">Ogre::GLES2RenderSystem</text>
</a>
</g>
</g>
<!-- Node4&#45;&gt;Node6 -->
<g id="edge6" class="edge">
<title>Node4&#45;&gt;Node6</title>
<path fill="none" stroke="#191970" d="M391,-46.1575C391,-37.155 391,-26.9199 391,-19.6427"/>
<polygon fill="#191970" stroke="#191970" points="387.5001,-46.2455 391,-56.2455 394.5001,-46.2456 387.5001,-46.2455"/>
</g>
<!-- Node7 -->
<g id="node8" class="node">
<title>Node7</title>
<g id="a_node8"><a xlink:href="class_ogre_1_1_g_l_render_system.html" target="_top" xlink:title="Implementation of GL as a rendering system. ">
<polygon fill="none" stroke="#000000" points="479,-.5 479,-19.5 601,-19.5 601,-.5 479,-.5"/>
<text text-anchor="middle" x="540" y="-7.5" font-family="Helvetica,sans-Serif" font-size="10.00" fill="#000000">Ogre::GLRenderSystem</text>
</a>
</g>
</g>
<!-- Node4&#45;&gt;Node7 -->
<g id="edge7" class="edge">
<title>Node4&#45;&gt;Node7</title>
<path fill="none" stroke="#191970" d="M426.1512,-52.7888C453.3568,-42.5639 490.3809,-28.6488 514.7202,-19.5011"/>
<polygon fill="#191970" stroke="#191970" points="424.7434,-49.5788 416.614,-56.3733 427.2061,-56.1313 424.7434,-49.5788"/>
</g>
</g>
</svg>
