<?xml version="1.0" encoding="UTF-8" standalone="no"?>
<!DOCTYPE svg PUBLIC "-//W3C//DTD SVG 1.1//EN"
 "http://www.w3.org/Graphics/SVG/1.1/DTD/svg11.dtd">
<!-- Generated by graphviz version 2.43.0 (0)
 -->
<!-- Title: Ogre::SmallVectorBase Pages: 1 -->
<svg width="878pt" height="274pt"
 viewBox="0.00 0.00 878.00 273.50" xmlns="http://www.w3.org/2000/svg" xmlns:xlink="http://www.w3.org/1999/xlink">
<g id="graph0" class="graph" transform="scale(1 1) rotate(0) translate(4 269.5)">
<title>Ogre::SmallVectorBase</title>
<!-- Node1 -->
<g id="node1" class="node">
<title>Node1</title>
<g id="a_node1"><a xlink:title="SmallVectorBase &#45; This is all the non&#45;templated stuff common to all SmallVectors.">
<polygon fill="#bfbfbf" stroke="black" points="0,-71.5 0,-90.5 129,-90.5 129,-71.5 0,-71.5"/>
<text text-anchor="middle" x="64.5" y="-78.5" font-family="Helvetica,sans-Serif" font-size="10.00">Ogre::SmallVectorBase</text>
</a>
</g>
</g>
<!-- Node2 -->
<g id="node2" class="node">
<title>Node2</title>
<g id="a_node2"><a xlink:href="class_ogre_1_1_small_vector_template_common.html" target="_top" xlink:title=" ">
<polygon fill="none" stroke="black" points="165,-161 165,-191 315,-191 315,-161 165,-161"/>
<text text-anchor="start" x="173" y="-179" font-family="Helvetica,sans-Serif" font-size="10.00">Ogre::SmallVectorTemplate</text>
<text text-anchor="middle" x="240" y="-168" font-family="Helvetica,sans-Serif" font-size="10.00">Common&lt; T &gt;</text>
</a>
</g>
</g>
<!-- Node1&#45;&gt;Node2 -->
<g id="edge1" class="edge">
<title>Node1&#45;&gt;Node2</title>
<path fill="none" stroke="midnightblue" d="M91.97,-95.49C124.27,-113.18 178.62,-142.94 211.42,-160.9"/>
<polygon fill="midnightblue" stroke="midnightblue" points="93.54,-92.36 83.09,-90.63 90.18,-98.5 93.54,-92.36"/>
</g>
<!-- Node11 -->
<g id="node10" class="node">
<title>Node11</title>
<g id="a_node10"><a xlink:href="class_ogre_1_1_small_vector_template_common.html" target="_top" xlink:title=" ">
<polygon fill="none" stroke="black" points="165,-66 165,-96 315,-96 315,-66 165,-66"/>
<text text-anchor="start" x="173" y="-84" font-family="Helvetica,sans-Serif" font-size="10.00">Ogre::SmallVectorTemplate</text>
<text text-anchor="middle" x="240" y="-73" font-family="Helvetica,sans-Serif" font-size="10.00">Common&lt; Edge &gt;</text>
</a>
</g>
</g>
<!-- Node1&#45;&gt;Node11 -->
<g id="edge9" class="edge">
<title>Node1&#45;&gt;Node11</title>
<path fill="none" stroke="midnightblue" d="M139.31,-81C147.75,-81 156.36,-81 164.81,-81"/>
<polygon fill="midnightblue" stroke="midnightblue" points="139.12,-77.5 129.12,-81 139.12,-84.5 139.12,-77.5"/>
</g>
<!-- Node16 -->
<g id="node14" class="node">
<title>Node16</title>
<g id="a_node14"><a xlink:href="class_ogre_1_1_small_vector_template_common.html" target="_top" xlink:title=" ">
<polygon fill="none" stroke="black" points="165,-12 165,-42 315,-42 315,-12 165,-12"/>
<text text-anchor="start" x="173" y="-30" font-family="Helvetica,sans-Serif" font-size="10.00">Ogre::SmallVectorTemplate</text>
<text text-anchor="middle" x="240" y="-19" font-family="Helvetica,sans-Serif" font-size="10.00">Common&lt; Triangle * &gt;</text>
</a>
</g>
</g>
<!-- Node1&#45;&gt;Node16 -->
<g id="edge13" class="edge">
<title>Node1&#45;&gt;Node16</title>
<path fill="none" stroke="midnightblue" d="M105.78,-68.46C131.11,-60.58 163.95,-50.36 190.68,-42.04"/>
<polygon fill="midnightblue" stroke="midnightblue" points="104.63,-65.16 96.12,-71.47 106.71,-71.84 104.63,-65.16"/>
</g>
<!-- Node3 -->
<g id="node3" class="node">
<title>Node3</title>
<g id="a_node3"><a xlink:href="class_ogre_1_1_small_vector_template_base.html" target="_top" xlink:title="SmallVectorTemplateBase&lt;isPodLike = false&gt; &#45; This is where we put method implementations that are des...">
<polygon fill="none" stroke="black" points="355,-235 355,-265 505,-265 505,-235 355,-235"/>
<text text-anchor="start" x="363" y="-253" font-family="Helvetica,sans-Serif" font-size="10.00">Ogre::SmallVectorTemplate</text>
<text text-anchor="middle" x="430" y="-242" font-family="Helvetica,sans-Serif" font-size="10.00">Base&lt; T &gt;</text>
</a>
</g>
</g>
<!-- Node2&#45;&gt;Node3 -->
<g id="edge2" class="edge">
<title>Node2&#45;&gt;Node3</title>
<path fill="none" stroke="midnightblue" d="M280.5,-195.44C301.22,-205.26 327.19,-216.97 351,-226 359.21,-229.12 368.02,-232.13 376.66,-234.91"/>
<polygon fill="midnightblue" stroke="midnightblue" points="281.91,-192.23 271.37,-191.08 278.89,-198.55 281.91,-192.23"/>
</g>
<!-- Node4 -->
<g id="node4" class="node">
<title>Node4</title>
<g id="a_node4"><a xlink:href="class_ogre_1_1_small_vector_template_base_3_01_t_00_01true_01_4.html" target="_top" xlink:title="SmallVectorTemplateBase&lt;isPodLike = true&gt; &#45; This is where we put method implementations that are desi...">
<polygon fill="none" stroke="black" points="355,-186 355,-216 505,-216 505,-186 355,-186"/>
<text text-anchor="start" x="363" y="-204" font-family="Helvetica,sans-Serif" font-size="10.00">Ogre::SmallVectorTemplate</text>
<text text-anchor="middle" x="430" y="-193" font-family="Helvetica,sans-Serif" font-size="10.00">Base&lt; T, true &gt;</text>
</a>
</g>
</g>
<!-- Node2&#45;&gt;Node4 -->
<g id="edge3" class="edge">
<title>Node2&#45;&gt;Node4</title>
<path fill="none" stroke="midnightblue" d="M325.21,-187.2C335.05,-188.51 345.04,-189.83 354.73,-191.12"/>
<polygon fill="midnightblue" stroke="midnightblue" points="325.41,-183.69 315.03,-185.84 324.48,-190.63 325.41,-183.69"/>
</g>
<!-- Node5 -->
<g id="node5" class="node">
<title>Node5</title>
<g id="a_node5"><a xlink:href="class_ogre_1_1_small_vector_template_base.html" target="_top" xlink:title=" ">
<polygon fill="none" stroke="black" points="351,-137 351,-167 509,-167 509,-137 351,-137"/>
<text text-anchor="start" x="359" y="-155" font-family="Helvetica,sans-Serif" font-size="10.00">SmallVectorTemplateBase</text>
<text text-anchor="middle" x="430" y="-144" font-family="Helvetica,sans-Serif" font-size="10.00">&lt; T, isPodLike&lt; T &gt;::value &gt;</text>
</a>
</g>
</g>
<!-- Node2&#45;&gt;Node5 -->
<g id="edge4" class="edge">
<title>Node2&#45;&gt;Node5</title>
<path fill="none" stroke="midnightblue" d="M325,-165.28C333.55,-164.18 342.21,-163.08 350.7,-162"/>
<polygon fill="midnightblue" stroke="midnightblue" points="324.51,-161.81 315.03,-166.55 325.4,-168.75 324.51,-161.81"/>
</g>
<!-- Node6 -->
<g id="node6" class="node">
<title>Node6</title>
<g id="a_node6"><a xlink:href="class_ogre_1_1_small_vector_impl.html" target="_top" xlink:title="SmallVectorImpl &#45; This class consists of common code factored out of the SmallVector class to reduce ...">
<polygon fill="none" stroke="black" points="545,-146.5 545,-165.5 700,-165.5 700,-146.5 545,-146.5"/>
<text text-anchor="middle" x="622.5" y="-153.5" font-family="Helvetica,sans-Serif" font-size="10.00">Ogre::SmallVectorImpl&lt; T &gt;</text>
</a>
</g>
</g>
<!-- Node5&#45;&gt;Node6 -->
<g id="edge5" class="edge">
<title>Node5&#45;&gt;Node6</title>
<path fill="none" stroke="midnightblue" d="M519.07,-153.85C527.67,-154.03 536.35,-154.21 544.82,-154.39"/>
<polygon fill="midnightblue" stroke="midnightblue" points="519.1,-150.35 509.03,-153.64 518.96,-157.35 519.1,-150.35"/>
</g>
<!-- Node7 -->
<g id="node7" class="node">
<title>Node7</title>
<g id="a_node7"><a xlink:href="class_ogre_1_1_small_vector.html" target="_top" xlink:title="SmallVector &#45; This is a &#39;vector&#39; (really, a variable&#45;sized array), optimized for the case when the ar...">
<polygon fill="none" stroke="black" points="736,-195.5 736,-214.5 870,-214.5 870,-195.5 736,-195.5"/>
<text text-anchor="middle" x="803" y="-202.5" font-family="Helvetica,sans-Serif" font-size="10.00">Ogre::SmallVector&lt; T &gt;</text>
</a>
</g>
</g>
<!-- Node6&#45;&gt;Node7 -->
<g id="edge6" class="edge">
<title>Node6&#45;&gt;Node7</title>
<path fill="none" stroke="midnightblue" d="M668.34,-168.31C698.99,-176.72 739.01,-187.71 767.25,-195.46"/>
<polygon fill="midnightblue" stroke="midnightblue" points="668.91,-164.84 658.34,-165.56 667.06,-171.59 668.91,-164.84"/>
</g>
<!-- Node8 -->
<g id="node8" class="node">
<title>Node8</title>
<g id="a_node8"><a xlink:href="class_ogre_1_1_small_vector_3_01_t_00_010_01_4.html" target="_top" xlink:title="Specialize SmallVector at N=0.">
<polygon fill="none" stroke="black" points="746.5,-146 746.5,-176 859.5,-176 859.5,-146 746.5,-146"/>
<text text-anchor="start" x="754.5" y="-164" font-family="Helvetica,sans-Serif" font-size="10.00">Ogre::SmallVector&lt;</text>
<text text-anchor="middle" x="803" y="-153" font-family="Helvetica,sans-Serif" font-size="10.00"> T, 0 &gt;</text>
</a>
</g>
</g>
<!-- Node6&#45;&gt;Node8 -->
<g id="edge7" class="edge">
<title>Node6&#45;&gt;Node8</title>
<path fill="none" stroke="midnightblue" d="M710.46,-158.44C722.67,-158.78 734.94,-159.12 746.35,-159.44"/>
<polygon fill="midnightblue" stroke="midnightblue" points="710.33,-154.93 700.24,-158.15 710.13,-161.93 710.33,-154.93"/>
</g>
<!-- Node9 -->
<g id="node9" class="node">
<title>Node9</title>
<g id="a_node9"><a xlink:href="class_ogre_1_1_small_vector.html" target="_top" xlink:title=" ">
<polygon fill="none" stroke="red" points="745,-107.5 745,-126.5 861,-126.5 861,-107.5 745,-107.5"/>
<text text-anchor="middle" x="803" y="-114.5" font-family="Helvetica,sans-Serif" font-size="10.00">SmallVector&lt; T, S &gt;</text>
</a>
</g>
</g>
<!-- Node6&#45;&gt;Node9 -->
<g id="edge8" class="edge">
<title>Node6&#45;&gt;Node9</title>
<path fill="none" stroke="midnightblue" d="M677.23,-144.26C703.21,-138.58 733.99,-131.86 758.48,-126.51"/>
<polygon fill="midnightblue" stroke="midnightblue" points="676.19,-140.91 667.17,-146.46 677.68,-147.74 676.19,-140.91"/>
</g>
<!-- Node12 -->
<g id="node11" class="node">
<title>Node12</title>
<g id="a_node11"><a xlink:href="class_ogre_1_1_small_vector_template_base.html" target="_top" xlink:title=" ">
<polygon fill="none" stroke="black" points="355,-60.5 355,-101.5 505,-101.5 505,-60.5 355,-60.5"/>
<text text-anchor="start" x="363" y="-89.5" font-family="Helvetica,sans-Serif" font-size="10.00">Ogre::SmallVectorTemplate</text>
<text text-anchor="start" x="363" y="-78.5" font-family="Helvetica,sans-Serif" font-size="10.00">Base&lt; Edge, isPodLike&lt;</text>
<text text-anchor="middle" x="430" y="-67.5" font-family="Helvetica,sans-Serif" font-size="10.00"> Edge &gt;::value &gt;</text>
</a>
</g>
</g>
<!-- Node11&#45;&gt;Node12 -->
<g id="edge10" class="edge">
<title>Node11&#45;&gt;Node12</title>
<path fill="none" stroke="midnightblue" d="M325.21,-81C335.05,-81 345.04,-81 354.73,-81"/>
<polygon fill="midnightblue" stroke="midnightblue" points="325.03,-77.5 315.03,-81 325.03,-84.5 325.03,-77.5"/>
</g>
<!-- Node13 -->
<g id="node12" class="node">
<title>Node13</title>
<g id="a_node12"><a xlink:href="class_ogre_1_1_small_vector_impl.html" target="_top" xlink:title=" ">
<polygon fill="none" stroke="black" points="559,-63 559,-93 686,-93 686,-63 559,-63"/>
<text text-anchor="start" x="567" y="-81" font-family="Helvetica,sans-Serif" font-size="10.00">Ogre::SmallVectorImpl</text>
<text text-anchor="middle" x="622.5" y="-70" font-family="Helvetica,sans-Serif" font-size="10.00">&lt; Edge &gt;</text>
</a>
</g>
</g>
<!-- Node12&#45;&gt;Node13 -->
<g id="edge11" class="edge">
<title>Node12&#45;&gt;Node13</title>
<path fill="none" stroke="midnightblue" d="M515.28,-79.67C529.95,-79.44 544.97,-79.21 558.92,-78.99"/>
<polygon fill="midnightblue" stroke="midnightblue" points="515.14,-76.17 505.2,-79.83 515.25,-83.17 515.14,-76.17"/>
</g>
<!-- Node14 -->
<g id="node13" class="node">
<title>Node14</title>
<g id="a_node13"><a xlink:href="class_ogre_1_1_small_vector.html" target="_top" xlink:title=" ">
<polygon fill="none" stroke="red" points="746.5,-58 746.5,-88 859.5,-88 859.5,-58 746.5,-58"/>
<text text-anchor="start" x="754.5" y="-76" font-family="Helvetica,sans-Serif" font-size="10.00">Ogre::SmallVector&lt;</text>
<text text-anchor="middle" x="803" y="-65" font-family="Helvetica,sans-Serif" font-size="10.00"> Edge, S &gt;</text>
</a>
</g>
</g>
<!-- Node13&#45;&gt;Node14 -->
<g id="edge12" class="edge">
<title>Node13&#45;&gt;Node14</title>
<path fill="none" stroke="midnightblue" d="M696.43,-75.96C713.08,-75.49 730.52,-75 746.31,-74.56"/>
<polygon fill="midnightblue" stroke="midnightblue" points="696.08,-72.47 686.18,-76.24 696.28,-79.46 696.08,-72.47"/>
</g>
<!-- Node17 -->
<g id="node15" class="node">
<title>Node17</title>
<g id="a_node15"><a xlink:href="class_ogre_1_1_small_vector_template_base.html" target="_top" xlink:title=" ">
<polygon fill="none" stroke="black" points="354.5,-0.5 354.5,-41.5 505.5,-41.5 505.5,-0.5 354.5,-0.5"/>
<text text-anchor="start" x="362.5" y="-29.5" font-family="Helvetica,sans-Serif" font-size="10.00">Ogre::SmallVectorTemplate</text>
<text text-anchor="start" x="362.5" y="-18.5" font-family="Helvetica,sans-Serif" font-size="10.00">Base&lt; Triangle *, isPodLike</text>
<text text-anchor="middle" x="430" y="-7.5" font-family="Helvetica,sans-Serif" font-size="10.00">&lt; Triangle * &gt;::value &gt;</text>
</a>
</g>
</g>
<!-- Node16&#45;&gt;Node17 -->
<g id="edge14" class="edge">
<title>Node16&#45;&gt;Node17</title>
<path fill="none" stroke="midnightblue" d="M325.13,-24.31C334.89,-24 344.8,-23.69 354.42,-23.38"/>
<polygon fill="midnightblue" stroke="midnightblue" points="324.92,-20.82 315.03,-24.64 325.14,-27.82 324.92,-20.82"/>
</g>
<!-- Node18 -->
<g id="node16" class="node">
<title>Node18</title>
<g id="a_node16"><a xlink:href="class_ogre_1_1_small_vector_impl.html" target="_top" xlink:title=" ">
<polygon fill="none" stroke="black" points="559,-6 559,-36 686,-36 686,-6 559,-6"/>
<text text-anchor="start" x="567" y="-24" font-family="Helvetica,sans-Serif" font-size="10.00">Ogre::SmallVectorImpl</text>
<text text-anchor="middle" x="622.5" y="-13" font-family="Helvetica,sans-Serif" font-size="10.00">&lt; Triangle * &gt;</text>
</a>
</g>
</g>
<!-- Node17&#45;&gt;Node18 -->
<g id="edge15" class="edge">
<title>Node17&#45;&gt;Node18</title>
<path fill="none" stroke="midnightblue" d="M516.16,-21C530.56,-21 545.28,-21 558.97,-21"/>
<polygon fill="midnightblue" stroke="midnightblue" points="515.74,-17.5 505.74,-21 515.74,-24.5 515.74,-17.5"/>
</g>
<!-- Node19 -->
<g id="node17" class="node">
<title>Node19</title>
<g id="a_node17"><a xlink:href="class_ogre_1_1_small_vector.html" target="_top" xlink:title=" ">
<polygon fill="none" stroke="red" points="746.5,-6 746.5,-36 859.5,-36 859.5,-6 746.5,-6"/>
<text text-anchor="start" x="754.5" y="-24" font-family="Helvetica,sans-Serif" font-size="10.00">Ogre::SmallVector&lt;</text>
<text text-anchor="middle" x="803" y="-13" font-family="Helvetica,sans-Serif" font-size="10.00"> Triangle *, S &gt;</text>
</a>
</g>
</g>
<!-- Node18&#45;&gt;Node19 -->
<g id="edge16" class="edge">
<title>Node18&#45;&gt;Node19</title>
<path fill="none" stroke="midnightblue" d="M696.43,-21C713.08,-21 730.52,-21 746.31,-21"/>
<polygon fill="midnightblue" stroke="midnightblue" points="696.18,-17.5 686.18,-21 696.18,-24.5 696.18,-17.5"/>
</g>
</g>
</svg>
