<?xml version="1.0" encoding="UTF-8" standalone="no"?>
<!DOCTYPE svg PUBLIC "-//W3C//DTD SVG 1.1//EN"
 "http://www.w3.org/Graphics/SVG/1.1/DTD/svg11.dtd">
<!-- Generated by graphviz version 2.43.0 (0)
 -->
<!-- Title: Ogre::DirectionRandomiserAffectorFactory Pages: 1 -->
<svg width="165pt" height="151pt"
 viewBox="0.00 0.00 165.00 151.00" xmlns="http://www.w3.org/2000/svg" xmlns:xlink="http://www.w3.org/1999/xlink">
<g id="graph0" class="graph" transform="scale(1 1) rotate(0) translate(4 147)">
<title>Ogre::DirectionRandomiserAffectorFactory</title>
<!-- Node1 -->
<g id="node1" class="node">
<title>Node1</title>
<g id="a_node1"><a xlink:title="Factory class for DirectionRandomiserAffector.">
<polygon fill="#bfbfbf" stroke="black" points="4,-0.5 4,-30.5 153,-30.5 153,-0.5 4,-0.5"/>
<text text-anchor="start" x="12" y="-18.5" font-family="Helvetica,sans-Serif" font-size="10.00">Ogre::DirectionRandomiser</text>
<text text-anchor="middle" x="78.5" y="-7.5" font-family="Helvetica,sans-Serif" font-size="10.00">AffectorFactory</text>
</a>
</g>
</g>
<!-- Node2 -->
<g id="node2" class="node">
<title>Node2</title>
<g id="a_node2"><a xlink:href="class_ogre_1_1_particle_affector_factory.html" target="_top" xlink:title="Abstract class defining the interface to be implemented by creators of ParticleAffector subclasses.">
<polygon fill="none" stroke="black" points="0,-67.5 0,-86.5 157,-86.5 157,-67.5 0,-67.5"/>
<text text-anchor="middle" x="78.5" y="-74.5" font-family="Helvetica,sans-Serif" font-size="10.00">Ogre::ParticleAffectorFactory</text>
</a>
</g>
</g>
<!-- Node2&#45;&gt;Node1 -->
<g id="edge1" class="edge">
<title>Node2&#45;&gt;Node1</title>
<path fill="none" stroke="midnightblue" d="M78.5,-57.23C78.5,-48.59 78.5,-38.5 78.5,-30.52"/>
<polygon fill="midnightblue" stroke="midnightblue" points="75,-57.48 78.5,-67.48 82,-57.48 75,-57.48"/>
</g>
<!-- Node3 -->
<g id="node3" class="node">
<title>Node3</title>
<g id="a_node3"><a xlink:title=" ">
<polygon fill="none" stroke="#bfbfbf" points="52,-123.5 52,-142.5 105,-142.5 105,-123.5 52,-123.5"/>
<text text-anchor="middle" x="78.5" y="-130.5" font-family="Helvetica,sans-Serif" font-size="10.00">FXAlloc</text>
</a>
</g>
</g>
<!-- Node3&#45;&gt;Node2 -->
<g id="edge2" class="edge">
<title>Node3&#45;&gt;Node2</title>
<path fill="none" stroke="midnightblue" d="M78.5,-112.8C78.5,-103.91 78.5,-93.78 78.5,-86.75"/>
<polygon fill="midnightblue" stroke="midnightblue" points="75,-113.08 78.5,-123.08 82,-113.08 75,-113.08"/>
</g>
</g>
</svg>
