<?xml version="1.0" encoding="UTF-8" standalone="no"?>
<!DOCTYPE svg PUBLIC "-//W3C//DTD SVG 1.1//EN"
 "http://www.w3.org/Graphics/SVG/1.1/DTD/svg11.dtd">
<!-- Generated by graphviz version 2.43.0 (0)
 -->
<!-- Title: Ogre::D3D9Resource Pages: 1 -->
<svg width="545pt" height="211pt"
 viewBox="0.00 0.00 545.00 211.00" xmlns="http://www.w3.org/2000/svg" xmlns:xlink="http://www.w3.org/1999/xlink">
<g id="graph0" class="graph" transform="scale(1 1) rotate(0) translate(4 207)">
<title>Ogre::D3D9Resource</title>
<!-- Node1 -->
<g id="node1" class="node">
<title>Node1</title>
<g id="a_node1"><a xlink:title="Represents a Direct3D rendering resource.">
<polygon fill="#bfbfbf" stroke="black" points="0,-82.5 0,-101.5 118,-101.5 118,-82.5 0,-82.5"/>
<text text-anchor="middle" x="59" y="-89.5" font-family="Helvetica,sans-Serif" font-size="10.00">Ogre::D3D9Resource</text>
</a>
</g>
</g>
<!-- Node2 -->
<g id="node2" class="node">
<title>Node2</title>
<g id="a_node2"><a xlink:href="class_ogre_1_1_d3_d9_gpu_program.html" target="_top" xlink:title="Direct3D implementation of a few things common to low&#45;level vertex &amp; fragment programs.">
<polygon fill="none" stroke="black" points="170.5,-164.5 170.5,-183.5 304.5,-183.5 304.5,-164.5 170.5,-164.5"/>
<text text-anchor="middle" x="237.5" y="-171.5" font-family="Helvetica,sans-Serif" font-size="10.00">Ogre::D3D9GpuProgram</text>
</a>
</g>
</g>
<!-- Node1&#45;&gt;Node2 -->
<g id="edge1" class="edge">
<title>Node1&#45;&gt;Node2</title>
<path fill="none" stroke="midnightblue" d="M79.41,-108.12C97.6,-122.45 126.11,-142.93 154,-155 162.77,-158.79 172.4,-161.89 181.9,-164.39"/>
<polygon fill="midnightblue" stroke="midnightblue" points="81.34,-105.18 71.35,-101.65 76.96,-110.64 81.34,-105.18"/>
</g>
<!-- Node5 -->
<g id="node5" class="node">
<title>Node5</title>
<g id="a_node5"><a xlink:href="class_ogre_1_1_d3_d9_hardware_buffer.html" target="_top" xlink:title="Specialisation of HardwareVertexBuffer for D3D9.">
<polygon fill="none" stroke="black" points="162.5,-126.5 162.5,-145.5 312.5,-145.5 312.5,-126.5 162.5,-126.5"/>
<text text-anchor="middle" x="237.5" y="-133.5" font-family="Helvetica,sans-Serif" font-size="10.00">Ogre::D3D9HardwareBuffer</text>
</a>
</g>
</g>
<!-- Node1&#45;&gt;Node5 -->
<g id="edge4" class="edge">
<title>Node1&#45;&gt;Node5</title>
<path fill="none" stroke="midnightblue" d="M107.1,-104.14C122.08,-107.98 138.73,-112.2 154,-116 167.87,-119.45 183.08,-123.16 196.61,-126.43"/>
<polygon fill="midnightblue" stroke="midnightblue" points="107.59,-100.66 97.03,-101.56 105.85,-107.44 107.59,-100.66"/>
</g>
<!-- Node6 -->
<g id="node6" class="node">
<title>Node6</title>
<g id="a_node6"><a xlink:href="class_ogre_1_1_d3_d9_hardware_occlusion_query.html" target="_top" xlink:title="This is a class that is the DirectX9 implementation of hardware occlusion testing.">
<polygon fill="none" stroke="black" points="154,-77 154,-107 321,-107 321,-77 154,-77"/>
<text text-anchor="start" x="162" y="-95" font-family="Helvetica,sans-Serif" font-size="10.00">Ogre::D3D9HardwareOcclusion</text>
<text text-anchor="middle" x="237.5" y="-84" font-family="Helvetica,sans-Serif" font-size="10.00">Query</text>
</a>
</g>
</g>
<!-- Node1&#45;&gt;Node6 -->
<g id="edge5" class="edge">
<title>Node1&#45;&gt;Node6</title>
<path fill="none" stroke="midnightblue" d="M128.29,-92C136.61,-92 145.18,-92 153.69,-92"/>
<polygon fill="midnightblue" stroke="midnightblue" points="128.28,-88.5 118.28,-92 128.28,-95.5 128.28,-88.5"/>
</g>
<!-- Node7 -->
<g id="node7" class="node">
<title>Node7</title>
<g id="a_node7"><a xlink:href="class_ogre_1_1_d3_d9_texture.html" target="_top" xlink:title=" ">
<polygon fill="none" stroke="black" points="183,-38.5 183,-57.5 292,-57.5 292,-38.5 183,-38.5"/>
<text text-anchor="middle" x="237.5" y="-45.5" font-family="Helvetica,sans-Serif" font-size="10.00">Ogre::D3D9Texture</text>
</a>
</g>
</g>
<!-- Node1&#45;&gt;Node7 -->
<g id="edge6" class="edge">
<title>Node1&#45;&gt;Node7</title>
<path fill="none" stroke="midnightblue" d="M104.66,-79.79C120.24,-75.62 137.87,-71 154,-67 166.84,-63.82 180.85,-60.52 193.62,-57.59"/>
<polygon fill="midnightblue" stroke="midnightblue" points="103.5,-76.48 94.75,-82.46 105.31,-83.24 103.5,-76.48"/>
</g>
<!-- Node8 -->
<g id="node8" class="node">
<title>Node8</title>
<g id="a_node8"><a xlink:href="class_ogre_1_1_d3_d9_vertex_declaration.html" target="_top" xlink:title="Specialisation of VertexDeclaration for D3D9.">
<polygon fill="none" stroke="black" points="157,-0.5 157,-19.5 318,-19.5 318,-0.5 157,-0.5"/>
<text text-anchor="middle" x="237.5" y="-7.5" font-family="Helvetica,sans-Serif" font-size="10.00">Ogre::D3D9VertexDeclaration</text>
</a>
</g>
</g>
<!-- Node1&#45;&gt;Node8 -->
<g id="edge7" class="edge">
<title>Node1&#45;&gt;Node8</title>
<path fill="none" stroke="midnightblue" d="M79.41,-75.88C97.6,-61.55 126.11,-41.07 154,-29 162.77,-25.21 172.4,-22.11 181.9,-19.61"/>
<polygon fill="midnightblue" stroke="midnightblue" points="76.96,-73.36 71.35,-82.35 81.34,-78.82 76.96,-73.36"/>
</g>
<!-- Node3 -->
<g id="node3" class="node">
<title>Node3</title>
<g id="a_node3"><a xlink:href="class_ogre_1_1_d3_d9_gpu_fragment_program.html" target="_top" xlink:title="Direct3D implementation of low&#45;level fragment programs.">
<polygon fill="none" stroke="black" points="357,-183.5 357,-202.5 537,-202.5 537,-183.5 357,-183.5"/>
<text text-anchor="middle" x="447" y="-190.5" font-family="Helvetica,sans-Serif" font-size="10.00">Ogre::D3D9GpuFragmentProgram</text>
</a>
</g>
</g>
<!-- Node2&#45;&gt;Node3 -->
<g id="edge2" class="edge">
<title>Node2&#45;&gt;Node3</title>
<path fill="none" stroke="midnightblue" d="M315.01,-181.01C328.65,-182.26 342.97,-183.57 356.93,-184.84"/>
<polygon fill="midnightblue" stroke="midnightblue" points="315,-177.49 304.72,-180.06 314.36,-184.46 315,-177.49"/>
</g>
<!-- Node4 -->
<g id="node4" class="node">
<title>Node4</title>
<g id="a_node4"><a xlink:href="class_ogre_1_1_d3_d9_gpu_vertex_program.html" target="_top" xlink:title="Direct3D implementation of low&#45;level vertex programs.">
<polygon fill="none" stroke="black" points="364,-145.5 364,-164.5 530,-164.5 530,-145.5 364,-145.5"/>
<text text-anchor="middle" x="447" y="-152.5" font-family="Helvetica,sans-Serif" font-size="10.00">Ogre::D3D9GpuVertexProgram</text>
</a>
</g>
</g>
<!-- Node2&#45;&gt;Node4 -->
<g id="edge3" class="edge">
<title>Node2&#45;&gt;Node4</title>
<path fill="none" stroke="midnightblue" d="M314.99,-167C330.84,-165.54 347.61,-164.01 363.66,-162.54"/>
<polygon fill="midnightblue" stroke="midnightblue" points="314.36,-163.54 304.72,-167.94 315,-170.51 314.36,-163.54"/>
</g>
</g>
</svg>
