<?xml version="1.0" encoding="UTF-8" standalone="no"?>
<!DOCTYPE svg PUBLIC "-//W3C//DTD SVG 1.1//EN"
 "http://www.w3.org/Graphics/SVG/1.1/DTD/svg11.dtd">
<!-- Generated by graphviz version 2.40.1 (20161225.0304)
 -->
<!-- Title: Ogre::ParticleAffector Pages: 1 -->
<svg width="441pt" height="356pt"
 viewBox="0.00 0.00 441.00 356.00" xmlns="http://www.w3.org/2000/svg" xmlns:xlink="http://www.w3.org/1999/xlink">
<g id="graph0" class="graph" transform="scale(1 1) rotate(0) translate(4 352)">
<title>Ogre::ParticleAffector</title>
<!-- Node0 -->
<g id="node1" class="node">
<title>Node0</title>
<polygon fill="#bfbfbf" stroke="#000000" points="143,-164.5 143,-183.5 254,-183.5 254,-164.5 143,-164.5"/>
<text text-anchor="middle" x="198.5" y="-171.5" font-family="Helvetica,sans-Serif" font-size="10.00" fill="#000000">Ogre::ParticleAffector</text>
</g>
<!-- Node3 -->
<g id="node4" class="node">
<title>Node3</title>
<g id="a_node4"><a xlink:href="class_ogre_1_1_colour_fader_affector.html" target="_top" xlink:title="This plugin subclass of ParticleAffector allows you to alter the colour of particles. ">
<polygon fill="none" stroke="#000000" points="296,-328.5 296,-347.5 427,-347.5 427,-328.5 296,-328.5"/>
<text text-anchor="middle" x="361.5" y="-335.5" font-family="Helvetica,sans-Serif" font-size="10.00" fill="#000000">Ogre::ColourFaderAffector</text>
</a>
</g>
</g>
<!-- Node0&#45;&gt;Node3 -->
<g id="edge3" class="edge">
<title>Node0&#45;&gt;Node3</title>
<path fill="none" stroke="#191970" d="M205.2635,-193.2091C217.2812,-224.4829 245.372,-286.2006 290,-319 295.2782,-322.8792 301.2911,-325.9669 307.5365,-328.4245"/>
<polygon fill="#191970" stroke="#191970" points="208.4306,-191.6819 201.6823,-183.5142 201.8642,-194.1074 208.4306,-191.6819"/>
</g>
<!-- Node4 -->
<g id="node5" class="node">
<title>Node4</title>
<g id="a_node5"><a xlink:href="class_ogre_1_1_colour_fader_affector2.html" target="_top" xlink:title="This plugin subclass of ParticleAffector allows you to alter the colour of particles. ">
<polygon fill="none" stroke="#000000" points="293,-290.5 293,-309.5 430,-309.5 430,-290.5 293,-290.5"/>
<text text-anchor="middle" x="361.5" y="-297.5" font-family="Helvetica,sans-Serif" font-size="10.00" fill="#000000">Ogre::ColourFaderAffector2</text>
</a>
</g>
</g>
<!-- Node0&#45;&gt;Node4 -->
<g id="edge4" class="edge">
<title>Node0&#45;&gt;Node4</title>
<path fill="none" stroke="#191970" d="M209.3354,-192.5572C224.3634,-216.6321 253.8144,-258.2363 290,-281 296.1969,-284.8983 303.1789,-288.0026 310.2891,-290.4732"/>
<polygon fill="#191970" stroke="#191970" points="212.1426,-190.4362 203.9653,-183.6996 206.1567,-194.0653 212.1426,-190.4362"/>
</g>
<!-- Node5 -->
<g id="node6" class="node">
<title>Node5</title>
<g id="a_node6"><a xlink:href="class_ogre_1_1_colour_image_affector.html" target="_top" xlink:title="Ogre::ColourImageAffector">
<polygon fill="none" stroke="#000000" points="294.5,-252.5 294.5,-271.5 428.5,-271.5 428.5,-252.5 294.5,-252.5"/>
<text text-anchor="middle" x="361.5" y="-259.5" font-family="Helvetica,sans-Serif" font-size="10.00" fill="#000000">Ogre::ColourImageAffector</text>
</a>
</g>
</g>
<!-- Node0&#45;&gt;Node5 -->
<g id="edge5" class="edge">
<title>Node0&#45;&gt;Node5</title>
<path fill="none" stroke="#191970" d="M215.9924,-190.5084C233.46,-206.148 261.7117,-229.233 290,-243 297.8533,-246.8219 306.5793,-249.9541 315.1603,-252.4931"/>
<polygon fill="#191970" stroke="#191970" points="218.0724,-187.6677 208.3307,-183.5023 213.3486,-192.8336 218.0724,-187.6677"/>
</g>
<!-- Node6 -->
<g id="node7" class="node">
<title>Node6</title>
<g id="a_node7"><a xlink:href="class_ogre_1_1_colour_interpolator_affector.html" target="_top" xlink:title="Ogre::ColourInterpolator\lAffector">
<polygon fill="none" stroke="#000000" points="301,-203 301,-233 422,-233 422,-203 301,-203"/>
<text text-anchor="start" x="309" y="-221" font-family="Helvetica,sans-Serif" font-size="10.00" fill="#000000">Ogre::ColourInterpolator</text>
<text text-anchor="middle" x="361.5" y="-210" font-family="Helvetica,sans-Serif" font-size="10.00" fill="#000000">Affector</text>
</a>
</g>
</g>
<!-- Node0&#45;&gt;Node6 -->
<g id="edge6" class="edge">
<title>Node0&#45;&gt;Node6</title>
<path fill="none" stroke="#191970" d="M243.5796,-186.1687C262.8012,-191.3574 285.4256,-197.4646 305.6897,-202.9346"/>
<polygon fill="#191970" stroke="#191970" points="244.4352,-182.7745 233.8686,-183.5473 242.6109,-189.5326 244.4352,-182.7745"/>
</g>
<!-- Node7 -->
<g id="node8" class="node">
<title>Node7</title>
<g id="a_node8"><a xlink:href="class_ogre_1_1_deflector_plane_affector.html" target="_top" xlink:title="This class defines a ParticleAffector which deflects particles. ">
<polygon fill="none" stroke="#000000" points="290,-164.5 290,-183.5 433,-183.5 433,-164.5 290,-164.5"/>
<text text-anchor="middle" x="361.5" y="-171.5" font-family="Helvetica,sans-Serif" font-size="10.00" fill="#000000">Ogre::DeflectorPlaneAffector</text>
</a>
</g>
</g>
<!-- Node0&#45;&gt;Node7 -->
<g id="edge7" class="edge">
<title>Node0&#45;&gt;Node7</title>
<path fill="none" stroke="#191970" d="M264.304,-174C272.7533,-174 281.4365,-174 289.9715,-174"/>
<polygon fill="#191970" stroke="#191970" points="264.1395,-170.5001 254.1395,-174 264.1394,-177.5001 264.1395,-170.5001"/>
</g>
<!-- Node8 -->
<g id="node9" class="node">
<title>Node8</title>
<g id="a_node9"><a xlink:href="class_ogre_1_1_direction_randomiser_affector.html" target="_top" xlink:title="This class defines a ParticleAffector which applies randomness to the movement of the particles...">
<polygon fill="none" stroke="#000000" points="294,-115 294,-145 429,-145 429,-115 294,-115"/>
<text text-anchor="start" x="302" y="-133" font-family="Helvetica,sans-Serif" font-size="10.00" fill="#000000">Ogre::DirectionRandomiser</text>
<text text-anchor="middle" x="361.5" y="-122" font-family="Helvetica,sans-Serif" font-size="10.00" fill="#000000">Affector</text>
</a>
</g>
</g>
<!-- Node0&#45;&gt;Node8 -->
<g id="edge8" class="edge">
<title>Node0&#45;&gt;Node8</title>
<path fill="none" stroke="#191970" d="M243.5796,-161.8313C262.8012,-156.6426 285.4256,-150.5354 305.6897,-145.0654"/>
<polygon fill="#191970" stroke="#191970" points="242.6109,-158.4674 233.8686,-164.4527 244.4352,-165.2255 242.6109,-158.4674"/>
</g>
<!-- Node9 -->
<g id="node10" class="node">
<title>Node9</title>
<g id="a_node10"><a xlink:href="class_ogre_1_1_linear_force_affector.html" target="_top" xlink:title="This class defines a ParticleAffector which applies a linear force to particles in a system...">
<polygon fill="none" stroke="#000000" points="297,-76.5 297,-95.5 426,-95.5 426,-76.5 297,-76.5"/>
<text text-anchor="middle" x="361.5" y="-83.5" font-family="Helvetica,sans-Serif" font-size="10.00" fill="#000000">Ogre::LinearForceAffector</text>
</a>
</g>
</g>
<!-- Node0&#45;&gt;Node9 -->
<g id="edge9" class="edge">
<title>Node0&#45;&gt;Node9</title>
<path fill="none" stroke="#191970" d="M215.9924,-157.4916C233.46,-141.852 261.7117,-118.767 290,-105 297.8533,-101.1781 306.5793,-98.0459 315.1603,-95.5069"/>
<polygon fill="#191970" stroke="#191970" points="213.3486,-155.1664 208.3307,-164.4977 218.0724,-160.3323 213.3486,-155.1664"/>
</g>
<!-- Node10 -->
<g id="node11" class="node">
<title>Node10</title>
<g id="a_node11"><a xlink:href="class_ogre_1_1_rotation_affector.html" target="_top" xlink:title="This plugin subclass of ParticleAffector allows you to alter the rotation of particles. ">
<polygon fill="none" stroke="#000000" points="304,-38.5 304,-57.5 419,-57.5 419,-38.5 304,-38.5"/>
<text text-anchor="middle" x="361.5" y="-45.5" font-family="Helvetica,sans-Serif" font-size="10.00" fill="#000000">Ogre::RotationAffector</text>
</a>
</g>
</g>
<!-- Node0&#45;&gt;Node10 -->
<g id="edge10" class="edge">
<title>Node0&#45;&gt;Node10</title>
<path fill="none" stroke="#191970" d="M209.3354,-155.4428C224.3634,-131.3679 253.8144,-89.7637 290,-67 296.1969,-63.1017 303.1789,-59.9974 310.2891,-57.5268"/>
<polygon fill="#191970" stroke="#191970" points="206.1567,-153.9347 203.9653,-164.3004 212.1426,-157.5638 206.1567,-153.9347"/>
</g>
<!-- Node11 -->
<g id="node12" class="node">
<title>Node11</title>
<g id="a_node12"><a xlink:href="class_ogre_1_1_scale_affector.html" target="_top" xlink:title="This plugin subclass of ParticleAffector allows you to alter the scale of particles. ">
<polygon fill="none" stroke="#000000" points="310,-.5 310,-19.5 413,-19.5 413,-.5 310,-.5"/>
<text text-anchor="middle" x="361.5" y="-7.5" font-family="Helvetica,sans-Serif" font-size="10.00" fill="#000000">Ogre::ScaleAffector</text>
</a>
</g>
</g>
<!-- Node0&#45;&gt;Node11 -->
<g id="edge11" class="edge">
<title>Node0&#45;&gt;Node11</title>
<path fill="none" stroke="#191970" d="M205.2635,-154.7909C217.2812,-123.5171 245.372,-61.7994 290,-29 295.8992,-24.6644 302.7161,-21.3175 309.7495,-18.7341"/>
<polygon fill="#191970" stroke="#191970" points="201.8642,-153.8926 201.6823,-164.4858 208.4306,-156.3181 201.8642,-153.8926"/>
</g>
<!-- Node1 -->
<g id="node2" class="node">
<title>Node1</title>
<g id="a_node2"><a xlink:href="class_ogre_1_1_string_interface.html" target="_top" xlink:title="Class defining the common interface which classes can use to present a reflection&#45;style, self&#45;defining parameter set to callers. ">
<polygon fill="none" stroke="#000000" points="0,-183.5 0,-202.5 107,-202.5 107,-183.5 0,-183.5"/>
<text text-anchor="middle" x="53.5" y="-190.5" font-family="Helvetica,sans-Serif" font-size="10.00" fill="#000000">Ogre::StringInterface</text>
</a>
</g>
</g>
<!-- Node1&#45;&gt;Node0 -->
<g id="edge1" class="edge">
<title>Node1&#45;&gt;Node0</title>
<path fill="none" stroke="#191970" d="M117.0188,-184.6769C125.5757,-183.5556 134.3022,-182.4121 142.7114,-181.3102"/>
<polygon fill="#191970" stroke="#191970" points="116.5412,-181.2094 107.0807,-185.9791 117.4507,-188.1501 116.5412,-181.2094"/>
</g>
<!-- Node2 -->
<g id="node3" class="node">
<title>Node2</title>
<g id="a_node3"><a xlink:href="class_ogre_1_1_allocated_object.html" target="_top" xlink:title="FXAlloc">
<polygon fill="none" stroke="#000000" points="28,-145.5 28,-164.5 79,-164.5 79,-145.5 28,-145.5"/>
<text text-anchor="middle" x="53.5" y="-152.5" font-family="Helvetica,sans-Serif" font-size="10.00" fill="#000000">FXAlloc</text>
</a>
</g>
</g>
<!-- Node2&#45;&gt;Node0 -->
<g id="edge2" class="edge">
<title>Node2&#45;&gt;Node0</title>
<path fill="none" stroke="#191970" d="M89.1785,-159.6751C105.3359,-161.7923 124.8149,-164.3447 142.8272,-166.7049"/>
<polygon fill="#191970" stroke="#191970" points="89.4593,-156.1821 79.0893,-158.3531 88.5498,-163.1227 89.4593,-156.1821"/>
</g>
</g>
</svg>
