<?xml version="1.0" encoding="UTF-8" standalone="no"?>
<!DOCTYPE svg PUBLIC "-//W3C//DTD SVG 1.1//EN"
 "http://www.w3.org/Graphics/SVG/1.1/DTD/svg11.dtd">
<!-- Generated by graphviz version 2.43.0 (0)
 -->
<!-- Title: Ogre::GpuProgramManager Pages: 1 -->
<svg width="377pt" height="207pt"
 viewBox="0.00 0.00 376.50 207.00" xmlns="http://www.w3.org/2000/svg" xmlns:xlink="http://www.w3.org/1999/xlink">
<g id="graph0" class="graph" transform="scale(1 1) rotate(0) translate(4 203)">
<title>Ogre::GpuProgramManager</title>
<!-- Node1 -->
<g id="node1" class="node">
<title>Node1</title>
<g id="a_node1"><a xlink:title=" ">
<polygon fill="#bfbfbf" stroke="black" points="119,-56.5 119,-75.5 268,-75.5 268,-56.5 119,-56.5"/>
<text text-anchor="middle" x="193.5" y="-63.5" font-family="Helvetica,sans-Serif" font-size="10.00">Ogre::GpuProgramManager</text>
</a>
</g>
</g>
<!-- Node6 -->
<g id="node6" class="node">
<title>Node6</title>
<g id="a_node6"><a xlink:href="class_ogre_1_1_d3_d9_gpu_program_manager.html" target="_top" xlink:title=" ">
<polygon fill="none" stroke="black" points="12.5,-0.5 12.5,-19.5 188.5,-19.5 188.5,-0.5 12.5,-0.5"/>
<text text-anchor="middle" x="100.5" y="-7.5" font-family="Helvetica,sans-Serif" font-size="10.00">Ogre::D3D9GpuProgramManager</text>
</a>
</g>
</g>
<!-- Node1&#45;&gt;Node6 -->
<g id="edge5" class="edge">
<title>Node1&#45;&gt;Node6</title>
<path fill="none" stroke="midnightblue" d="M169.69,-51.18C152.58,-41.24 130.03,-28.15 115.4,-19.65"/>
<polygon fill="midnightblue" stroke="midnightblue" points="168.15,-54.33 178.56,-56.32 171.67,-48.28 168.15,-54.33"/>
</g>
<!-- Node7 -->
<g id="node7" class="node">
<title>Node7</title>
<g id="a_node7"><a xlink:href="class_ogre_1_1_g_l_gpu_program_manager.html" target="_top" xlink:title=" ">
<polygon fill="none" stroke="black" points="206.5,-0.5 206.5,-19.5 368.5,-19.5 368.5,-0.5 206.5,-0.5"/>
<text text-anchor="middle" x="287.5" y="-7.5" font-family="Helvetica,sans-Serif" font-size="10.00">Ogre::GLGpuProgramManager</text>
</a>
</g>
</g>
<!-- Node1&#45;&gt;Node7 -->
<g id="edge6" class="edge">
<title>Node1&#45;&gt;Node7</title>
<path fill="none" stroke="midnightblue" d="M217.56,-51.18C234.86,-41.24 257.65,-28.15 272.43,-19.65"/>
<polygon fill="midnightblue" stroke="midnightblue" points="215.53,-48.31 208.6,-56.32 219.02,-54.38 215.53,-48.31"/>
</g>
<!-- Node2 -->
<g id="node2" class="node">
<title>Node2</title>
<g id="a_node2"><a xlink:href="class_ogre_1_1_resource_manager.html" target="_top" xlink:title="Defines a generic resource handler.">
<polygon fill="none" stroke="black" points="43.5,-118 43.5,-137 177.5,-137 177.5,-118 43.5,-118"/>
<text text-anchor="middle" x="110.5" y="-125" font-family="Helvetica,sans-Serif" font-size="10.00">Ogre::ResourceManager</text>
</a>
</g>
</g>
<!-- Node2&#45;&gt;Node1 -->
<g id="edge1" class="edge">
<title>Node2&#45;&gt;Node1</title>
<path fill="none" stroke="midnightblue" d="M130.57,-112.11C146.53,-100.67 168.33,-85.05 181.63,-75.51"/>
<polygon fill="midnightblue" stroke="midnightblue" points="128.48,-109.3 122.39,-117.98 132.56,-114.99 128.48,-109.3"/>
</g>
<!-- Node3 -->
<g id="node3" class="node">
<title>Node3</title>
<g id="a_node3"><a xlink:href="class_ogre_1_1_script_loader.html" target="_top" xlink:title="Abstract class defining the interface used by classes which wish to perform script loading to define ...">
<polygon fill="none" stroke="black" points="0,-179.5 0,-198.5 107,-198.5 107,-179.5 0,-179.5"/>
<text text-anchor="middle" x="53.5" y="-186.5" font-family="Helvetica,sans-Serif" font-size="10.00">Ogre::ScriptLoader</text>
</a>
</g>
</g>
<!-- Node3&#45;&gt;Node2 -->
<g id="edge2" class="edge">
<title>Node3&#45;&gt;Node2</title>
<path fill="none" stroke="midnightblue" d="M68.83,-172C79.62,-160.74 93.64,-146.1 102.35,-137.01"/>
<polygon fill="midnightblue" stroke="midnightblue" points="66.06,-169.83 61.67,-179.48 71.11,-174.68 66.06,-169.83"/>
</g>
<!-- Node4 -->
<g id="node4" class="node">
<title>Node4</title>
<g id="a_node4"><a xlink:title=" ">
<polygon fill="none" stroke="#bfbfbf" points="125.5,-179.5 125.5,-198.5 211.5,-198.5 211.5,-179.5 125.5,-179.5"/>
<text text-anchor="middle" x="168.5" y="-186.5" font-family="Helvetica,sans-Serif" font-size="10.00">ResourceAlloc</text>
</a>
</g>
</g>
<!-- Node4&#45;&gt;Node2 -->
<g id="edge3" class="edge">
<title>Node4&#45;&gt;Node2</title>
<path fill="none" stroke="midnightblue" d="M152.9,-172C141.92,-160.74 127.66,-146.1 118.79,-137.01"/>
<polygon fill="midnightblue" stroke="midnightblue" points="150.7,-174.76 160.19,-179.48 155.72,-169.87 150.7,-174.76"/>
</g>
<!-- Node5 -->
<g id="node5" class="node">
<title>Node5</title>
<g id="a_node5"><a xlink:href="class_ogre_1_1_singleton.html" target="_top" xlink:title=" ">
<polygon fill="none" stroke="black" points="195.5,-112.5 195.5,-142.5 359.5,-142.5 359.5,-112.5 195.5,-112.5"/>
<text text-anchor="start" x="203.5" y="-130.5" font-family="Helvetica,sans-Serif" font-size="10.00">Ogre::Singleton&lt; GpuProgram</text>
<text text-anchor="middle" x="277.5" y="-119.5" font-family="Helvetica,sans-Serif" font-size="10.00">Manager &gt;</text>
</a>
</g>
</g>
<!-- Node5&#45;&gt;Node1 -->
<g id="edge4" class="edge">
<title>Node5&#45;&gt;Node1</title>
<path fill="none" stroke="midnightblue" d="M249.24,-106.48C234.44,-96 217.09,-83.71 205.72,-75.66"/>
<polygon fill="midnightblue" stroke="midnightblue" points="247.41,-109.48 257.59,-112.4 251.46,-103.76 247.41,-109.48"/>
</g>
</g>
</svg>
