<?xml version="1.0" encoding="UTF-8" standalone="no"?>
<!DOCTYPE svg PUBLIC "-//W3C//DTD SVG 1.1//EN"
 "http://www.w3.org/Graphics/SVG/1.1/DTD/svg11.dtd">
<!-- Generated by graphviz version 2.43.0 (0)
 -->
<!-- Title: Ogre::Resource Pages: 1 -->
<svg width="980pt" height="534pt"
 viewBox="0.00 0.00 980.00 534.00" xmlns="http://www.w3.org/2000/svg" xmlns:xlink="http://www.w3.org/1999/xlink">
<g id="graph0" class="graph" transform="scale(1 1) rotate(0) translate(4 530)">
<title>Ogre::Resource</title>
<!-- Node1 -->
<g id="node1" class="node">
<title>Node1</title>
<g id="a_node1"><a xlink:title="Abstract class representing a loadable resource.">
<polygon fill="#bfbfbf" stroke="black" points="154,-291.5 154,-310.5 245,-310.5 245,-291.5 154,-291.5"/>
<text text-anchor="middle" x="199.5" y="-298.5" font-family="Helvetica,sans-Serif" font-size="10.00">Ogre::Resource</text>
</a>
</g>
</g>
<!-- Node4 -->
<g id="node4" class="node">
<title>Node4</title>
<g id="a_node4"><a xlink:href="class_ogre_1_1_bsp_level.html" target="_top" xlink:title="Holds all the data associated with a Binary Space Parition (BSP) based indoor level.">
<polygon fill="none" stroke="black" points="289.5,-424.5 289.5,-443.5 379.5,-443.5 379.5,-424.5 289.5,-424.5"/>
<text text-anchor="middle" x="334.5" y="-431.5" font-family="Helvetica,sans-Serif" font-size="10.00">Ogre::BspLevel</text>
</a>
</g>
</g>
<!-- Node1&#45;&gt;Node4 -->
<g id="edge3" class="edge">
<title>Node1&#45;&gt;Node4</title>
<path fill="none" stroke="midnightblue" d="M209.28,-319.96C221.82,-345.06 247.14,-389.17 281,-415 286.01,-418.82 291.86,-421.93 297.8,-424.43"/>
<polygon fill="midnightblue" stroke="midnightblue" points="212.34,-318.24 204.84,-310.76 206.04,-321.29 212.34,-318.24"/>
</g>
<!-- Node5 -->
<g id="node5" class="node">
<title>Node5</title>
<g id="a_node5"><a xlink:href="class_ogre_1_1_compositor.html" target="_top" xlink:title="Class representing a Compositor object.">
<polygon fill="none" stroke="black" points="283.5,-386.5 283.5,-405.5 385.5,-405.5 385.5,-386.5 283.5,-386.5"/>
<text text-anchor="middle" x="334.5" y="-393.5" font-family="Helvetica,sans-Serif" font-size="10.00">Ogre::Compositor</text>
</a>
</g>
</g>
<!-- Node1&#45;&gt;Node5 -->
<g id="edge4" class="edge">
<title>Node1&#45;&gt;Node5</title>
<path fill="none" stroke="midnightblue" d="M215.38,-318.76C230.42,-335.73 255.08,-361.04 281,-377 287.03,-380.71 293.88,-383.85 300.61,-386.44"/>
<polygon fill="midnightblue" stroke="midnightblue" points="217.63,-316.01 208.44,-310.73 212.33,-320.59 217.63,-316.01"/>
</g>
<!-- Node6 -->
<g id="node6" class="node">
<title>Node6</title>
<g id="a_node6"><a xlink:href="class_ogre_1_1_font.html" target="_top" xlink:title="Class representing a font in the system.">
<polygon fill="none" stroke="black" points="301,-348.5 301,-367.5 368,-367.5 368,-348.5 301,-348.5"/>
<text text-anchor="middle" x="334.5" y="-355.5" font-family="Helvetica,sans-Serif" font-size="10.00">Ogre::Font</text>
</a>
</g>
</g>
<!-- Node1&#45;&gt;Node6 -->
<g id="edge5" class="edge">
<title>Node1&#45;&gt;Node6</title>
<path fill="none" stroke="midnightblue" d="M228.44,-314.98C243.8,-322.46 263.27,-331.63 281,-339 288.88,-342.28 297.54,-345.54 305.52,-348.42"/>
<polygon fill="midnightblue" stroke="midnightblue" points="229.98,-311.84 219.47,-310.57 226.9,-318.12 229.98,-311.84"/>
</g>
<!-- Node7 -->
<g id="node7" class="node">
<title>Node7</title>
<g id="a_node7"><a xlink:href="class_ogre_1_1_gpu_program.html" target="_top" xlink:title="Defines a program which runs on the GPU such as a vertex or fragment program.">
<polygon fill="none" stroke="black" points="281,-310.5 281,-329.5 388,-329.5 388,-310.5 281,-310.5"/>
<text text-anchor="middle" x="334.5" y="-317.5" font-family="Helvetica,sans-Serif" font-size="10.00">Ogre::GpuProgram</text>
</a>
</g>
</g>
<!-- Node1&#45;&gt;Node7 -->
<g id="edge6" class="edge">
<title>Node1&#45;&gt;Node7</title>
<path fill="none" stroke="midnightblue" d="M255.31,-308.83C263.77,-310.04 272.49,-311.28 280.91,-312.49"/>
<polygon fill="midnightblue" stroke="midnightblue" points="255.55,-305.33 245.16,-307.38 254.56,-312.26 255.55,-305.33"/>
</g>
<!-- Node26 -->
<g id="node24" class="node">
<title>Node26</title>
<g id="a_node24"><a xlink:href="class_ogre_1_1_material.html" target="_top" xlink:title="Class encapsulates rendering properties of an object.">
<polygon fill="none" stroke="black" points="291.5,-272.5 291.5,-291.5 377.5,-291.5 377.5,-272.5 291.5,-272.5"/>
<text text-anchor="middle" x="334.5" y="-279.5" font-family="Helvetica,sans-Serif" font-size="10.00">Ogre::Material</text>
</a>
</g>
</g>
<!-- Node1&#45;&gt;Node26 -->
<g id="edge23" class="edge">
<title>Node1&#45;&gt;Node26</title>
<path fill="none" stroke="midnightblue" d="M255.16,-293.19C267.27,-291.46 279.92,-289.65 291.43,-288.01"/>
<polygon fill="midnightblue" stroke="midnightblue" points="254.56,-289.74 245.16,-294.62 255.55,-296.67 254.56,-289.74"/>
</g>
<!-- Node27 -->
<g id="node25" class="node">
<title>Node27</title>
<g id="a_node25"><a xlink:href="class_ogre_1_1_mesh.html" target="_top" xlink:title="Resource holding data about 3D mesh.">
<polygon fill="none" stroke="black" points="298.5,-234.5 298.5,-253.5 370.5,-253.5 370.5,-234.5 298.5,-234.5"/>
<text text-anchor="middle" x="334.5" y="-241.5" font-family="Helvetica,sans-Serif" font-size="10.00">Ogre::Mesh</text>
</a>
</g>
</g>
<!-- Node1&#45;&gt;Node27 -->
<g id="edge24" class="edge">
<title>Node1&#45;&gt;Node27</title>
<path fill="none" stroke="midnightblue" d="M228.44,-287.02C243.8,-279.54 263.27,-270.37 281,-263 288.88,-259.72 297.54,-256.46 305.52,-253.58"/>
<polygon fill="midnightblue" stroke="midnightblue" points="226.9,-283.88 219.47,-291.43 229.98,-290.16 226.9,-283.88"/>
</g>
<!-- Node29 -->
<g id="node27" class="node">
<title>Node29</title>
<g id="a_node27"><a xlink:href="class_ogre_1_1_skeleton.html" target="_top" xlink:title="A collection of Bone objects used to animate a skinned mesh.">
<polygon fill="none" stroke="black" points="290.5,-196.5 290.5,-215.5 378.5,-215.5 378.5,-196.5 290.5,-196.5"/>
<text text-anchor="middle" x="334.5" y="-203.5" font-family="Helvetica,sans-Serif" font-size="10.00">Ogre::Skeleton</text>
</a>
</g>
</g>
<!-- Node1&#45;&gt;Node29 -->
<g id="edge26" class="edge">
<title>Node1&#45;&gt;Node29</title>
<path fill="none" stroke="midnightblue" d="M215.38,-283.24C230.42,-266.27 255.08,-240.96 281,-225 287.03,-221.29 293.88,-218.15 300.61,-215.56"/>
<polygon fill="midnightblue" stroke="midnightblue" points="212.33,-281.41 208.44,-291.27 217.63,-285.99 212.33,-281.41"/>
</g>
<!-- Node31 -->
<g id="node29" class="node">
<title>Node31</title>
<g id="a_node29"><a xlink:href="class_ogre_1_1_texture.html" target="_top" xlink:title="Abstract class representing a Texture resource.">
<polygon fill="none" stroke="black" points="293.5,-95.5 293.5,-114.5 375.5,-114.5 375.5,-95.5 293.5,-95.5"/>
<text text-anchor="middle" x="334.5" y="-102.5" font-family="Helvetica,sans-Serif" font-size="10.00">Ogre::Texture</text>
</a>
</g>
</g>
<!-- Node1&#45;&gt;Node31 -->
<g id="edge28" class="edge">
<title>Node1&#45;&gt;Node31</title>
<path fill="none" stroke="midnightblue" d="M212.78,-282.91C240.23,-242.46 305.8,-145.82 326.86,-114.78"/>
<polygon fill="midnightblue" stroke="midnightblue" points="209.81,-281.04 207.1,-291.28 215.61,-284.97 209.81,-281.04"/>
</g>
<!-- Node2 -->
<g id="node2" class="node">
<title>Node2</title>
<g id="a_node2"><a xlink:href="class_ogre_1_1_string_interface.html" target="_top" xlink:title="Class defining the common interface which classes can use to present a reflection&#45;style,...">
<polygon fill="none" stroke="black" points="0,-310.5 0,-329.5 118,-329.5 118,-310.5 0,-310.5"/>
<text text-anchor="middle" x="59" y="-317.5" font-family="Helvetica,sans-Serif" font-size="10.00">Ogre::StringInterface</text>
</a>
</g>
</g>
<!-- Node2&#45;&gt;Node1 -->
<g id="edge1" class="edge">
<title>Node2&#45;&gt;Node1</title>
<path fill="none" stroke="midnightblue" d="M128.39,-310.62C136.98,-309.44 145.6,-308.26 153.7,-307.15"/>
<polygon fill="midnightblue" stroke="midnightblue" points="127.77,-307.17 118.34,-312 128.72,-314.11 127.77,-307.17"/>
</g>
<!-- Node3 -->
<g id="node3" class="node">
<title>Node3</title>
<g id="a_node3"><a xlink:title=" ">
<polygon fill="none" stroke="#bfbfbf" points="16,-272.5 16,-291.5 102,-291.5 102,-272.5 16,-272.5"/>
<text text-anchor="middle" x="59" y="-279.5" font-family="Helvetica,sans-Serif" font-size="10.00">ResourceAlloc</text>
</a>
</g>
</g>
<!-- Node3&#45;&gt;Node1 -->
<g id="edge2" class="edge">
<title>Node3&#45;&gt;Node1</title>
<path fill="none" stroke="midnightblue" d="M112.45,-289.2C125.99,-291.05 140.45,-293.04 153.57,-294.84"/>
<polygon fill="midnightblue" stroke="midnightblue" points="112.69,-285.7 102.31,-287.8 111.74,-292.63 112.69,-285.7"/>
</g>
<!-- Node8 -->
<g id="node8" class="node">
<title>Node8</title>
<g id="a_node8"><a xlink:href="class_ogre_1_1_d3_d9_gpu_program.html" target="_top" xlink:title="Direct3D implementation of a few things common to low&#45;level vertex &amp; fragment programs.">
<polygon fill="none" stroke="black" points="434.5,-468.5 434.5,-487.5 568.5,-487.5 568.5,-468.5 434.5,-468.5"/>
<text text-anchor="middle" x="501.5" y="-475.5" font-family="Helvetica,sans-Serif" font-size="10.00">Ogre::D3D9GpuProgram</text>
</a>
</g>
</g>
<!-- Node7&#45;&gt;Node8 -->
<g id="edge7" class="edge">
<title>Node7&#45;&gt;Node8</title>
<path fill="none" stroke="midnightblue" d="M382.62,-334.69C384.53,-336.01 386.33,-337.44 388,-339 417.06,-366.19 399.22,-389.85 424,-421 440.29,-441.48 465.61,-458.39 482.61,-468.34"/>
<polygon fill="midnightblue" stroke="midnightblue" points="384.19,-331.55 373.77,-329.62 380.71,-337.63 384.19,-331.55"/>
</g>
<!-- Node11 -->
<g id="node11" class="node">
<title>Node11</title>
<g id="a_node11"><a xlink:href="class_ogre_1_1_g_l_gpu_program.html" target="_top" xlink:title="Generalised low&#45;level GL program, can be applied to multiple types (eg ARB and NV)">
<polygon fill="none" stroke="black" points="442,-392.5 442,-411.5 561,-411.5 561,-392.5 442,-392.5"/>
<text text-anchor="middle" x="501.5" y="-399.5" font-family="Helvetica,sans-Serif" font-size="10.00">Ogre::GLGpuProgram</text>
</a>
</g>
</g>
<!-- Node7&#45;&gt;Node11 -->
<g id="edge10" class="edge">
<title>Node7&#45;&gt;Node11</title>
<path fill="none" stroke="midnightblue" d="M374.08,-333.14C378.82,-335 383.55,-336.97 388,-339 424.03,-355.48 464.02,-379.29 485.27,-392.41"/>
<polygon fill="midnightblue" stroke="midnightblue" points="375.04,-329.76 364.45,-329.52 372.58,-336.32 375.04,-329.76"/>
</g>
<!-- Node14 -->
<g id="node14" class="node">
<title>Node14</title>
<g id="a_node14"><a xlink:href="class_ogre_1_1_high_level_gpu_program.html" target="_top" xlink:title="Abstract base class representing a high&#45;level program (a vertex or fragment program).">
<polygon fill="none" stroke="black" points="424,-278.5 424,-297.5 579,-297.5 579,-278.5 424,-278.5"/>
<text text-anchor="middle" x="501.5" y="-285.5" font-family="Helvetica,sans-Serif" font-size="10.00">Ogre::HighLevelGpuProgram</text>
</a>
</g>
</g>
<!-- Node7&#45;&gt;Node14 -->
<g id="edge13" class="edge">
<title>Node7&#45;&gt;Node14</title>
<path fill="none" stroke="midnightblue" d="M394.42,-308.57C413.06,-304.96 433.46,-301 451.35,-297.53"/>
<polygon fill="midnightblue" stroke="midnightblue" points="393.71,-305.15 384.56,-310.49 395.04,-312.02 393.71,-305.15"/>
</g>
<!-- Node9 -->
<g id="node9" class="node">
<title>Node9</title>
<g id="a_node9"><a xlink:href="class_ogre_1_1_d3_d9_gpu_fragment_program.html" target="_top" xlink:title="Direct3D implementation of low&#45;level fragment programs.">
<polygon fill="none" stroke="black" points="615,-506.5 615,-525.5 795,-525.5 795,-506.5 615,-506.5"/>
<text text-anchor="middle" x="705" y="-513.5" font-family="Helvetica,sans-Serif" font-size="10.00">Ogre::D3D9GpuFragmentProgram</text>
</a>
</g>
</g>
<!-- Node8&#45;&gt;Node9 -->
<g id="edge8" class="edge">
<title>Node8&#45;&gt;Node9</title>
<path fill="none" stroke="midnightblue" d="M563.05,-489.42C591.88,-494.86 625.96,-501.28 653.39,-506.46"/>
<polygon fill="midnightblue" stroke="midnightblue" points="563.56,-485.95 553.09,-487.54 562.27,-492.83 563.56,-485.95"/>
</g>
<!-- Node10 -->
<g id="node10" class="node">
<title>Node10</title>
<g id="a_node10"><a xlink:href="class_ogre_1_1_d3_d9_gpu_vertex_program.html" target="_top" xlink:title="Direct3D implementation of low&#45;level vertex programs.">
<polygon fill="none" stroke="black" points="622,-468.5 622,-487.5 788,-487.5 788,-468.5 622,-468.5"/>
<text text-anchor="middle" x="705" y="-475.5" font-family="Helvetica,sans-Serif" font-size="10.00">Ogre::D3D9GpuVertexProgram</text>
</a>
</g>
</g>
<!-- Node8&#45;&gt;Node10 -->
<g id="edge9" class="edge">
<title>Node8&#45;&gt;Node10</title>
<path fill="none" stroke="midnightblue" d="M578.86,-478C592.92,-478 607.65,-478 621.87,-478"/>
<polygon fill="midnightblue" stroke="midnightblue" points="578.76,-474.5 568.76,-478 578.76,-481.5 578.76,-474.5"/>
</g>
<!-- Node12 -->
<g id="node12" class="node">
<title>Node12</title>
<g id="a_node12"><a xlink:href="class_ogre_1_1_g_l_arb_gpu_program.html" target="_top" xlink:title="Specialisation of the GL low&#45;level program for ARB programs.">
<polygon fill="none" stroke="black" points="636.5,-430.5 636.5,-449.5 773.5,-449.5 773.5,-430.5 636.5,-430.5"/>
<text text-anchor="middle" x="705" y="-437.5" font-family="Helvetica,sans-Serif" font-size="10.00">Ogre::GLArbGpuProgram</text>
</a>
</g>
</g>
<!-- Node11&#45;&gt;Node12 -->
<g id="edge11" class="edge">
<title>Node11&#45;&gt;Node12</title>
<path fill="none" stroke="midnightblue" d="M563.05,-413.42C591.88,-418.86 625.96,-425.28 653.39,-430.46"/>
<polygon fill="midnightblue" stroke="midnightblue" points="563.56,-409.95 553.09,-411.54 562.27,-416.83 563.56,-409.95"/>
</g>
<!-- Node13 -->
<g id="node13" class="node">
<title>Node13</title>
<g id="a_node13"><a xlink:href="class_ogre_1_1_g_l_gpu_nvparse_program.html" target="_top" xlink:title=" ">
<polygon fill="none" stroke="black" points="625,-392.5 625,-411.5 785,-411.5 785,-392.5 625,-392.5"/>
<text text-anchor="middle" x="705" y="-399.5" font-family="Helvetica,sans-Serif" font-size="10.00">Ogre::GLGpuNvparseProgram</text>
</a>
</g>
</g>
<!-- Node11&#45;&gt;Node13 -->
<g id="edge12" class="edge">
<title>Node11&#45;&gt;Node13</title>
<path fill="none" stroke="midnightblue" d="M571.51,-402C588.63,-402 607.11,-402 624.68,-402"/>
<polygon fill="midnightblue" stroke="midnightblue" points="571.05,-398.5 561.05,-402 571.05,-405.5 571.05,-398.5"/>
</g>
<!-- Node15 -->
<g id="node15" class="node">
<title>Node15</title>
<g id="a_node15"><a xlink:href="class_ogre_1_1_cg_program.html" target="_top" xlink:title="Specialisation of HighLevelGpuProgram to provide support for nVidia&#39;s CG language.">
<polygon fill="none" stroke="black" points="655,-354.5 655,-373.5 755,-373.5 755,-354.5 655,-354.5"/>
<text text-anchor="middle" x="705" y="-361.5" font-family="Helvetica,sans-Serif" font-size="10.00">Ogre::CgProgram</text>
</a>
</g>
</g>
<!-- Node14&#45;&gt;Node15 -->
<g id="edge14" class="edge">
<title>Node14&#45;&gt;Node15</title>
<path fill="none" stroke="midnightblue" d="M527.09,-302.81C549.34,-315.63 583.39,-333.83 615,-345 627.66,-349.47 641.73,-353.07 654.87,-355.88"/>
<polygon fill="midnightblue" stroke="midnightblue" points="528.71,-299.7 518.31,-297.67 525.18,-305.74 528.71,-299.7"/>
</g>
<!-- Node16 -->
<g id="node16" class="node">
<title>Node16</title>
<g id="a_node16"><a xlink:href="class_ogre_1_1_d3_d11_h_l_s_l_program.html" target="_top" xlink:title="Specialization of HighLevelGpuProgram to provide support for D3D11 High&#45;Level Shader Language (HLSL).">
<polygon fill="none" stroke="black" points="633,-316.5 633,-335.5 777,-335.5 777,-316.5 633,-316.5"/>
<text text-anchor="middle" x="705" y="-323.5" font-family="Helvetica,sans-Serif" font-size="10.00">Ogre::D3D11HLSLProgram</text>
</a>
</g>
</g>
<!-- Node14&#45;&gt;Node16 -->
<g id="edge15" class="edge">
<title>Node14&#45;&gt;Node16</title>
<path fill="none" stroke="midnightblue" d="M563.05,-299.42C591.88,-304.86 625.96,-311.28 653.39,-316.46"/>
<polygon fill="midnightblue" stroke="midnightblue" points="563.56,-295.95 553.09,-297.54 562.27,-302.83 563.56,-295.95"/>
</g>
<!-- Node17 -->
<g id="node17" class="node">
<title>Node17</title>
<g id="a_node17"><a xlink:href="class_ogre_1_1_d3_d9_h_l_s_l_program.html" target="_top" xlink:title="Specialisation of HighLevelGpuProgram to provide support for D3D9 High&#45;Level Shader Language (HLSL).">
<polygon fill="none" stroke="black" points="636,-278.5 636,-297.5 774,-297.5 774,-278.5 636,-278.5"/>
<text text-anchor="middle" x="705" y="-285.5" font-family="Helvetica,sans-Serif" font-size="10.00">Ogre::D3D9HLSLProgram</text>
</a>
</g>
</g>
<!-- Node14&#45;&gt;Node17 -->
<g id="edge16" class="edge">
<title>Node14&#45;&gt;Node17</title>
<path fill="none" stroke="midnightblue" d="M589.36,-288C604.87,-288 620.82,-288 635.71,-288"/>
<polygon fill="midnightblue" stroke="midnightblue" points="589.25,-284.5 579.25,-288 589.25,-291.5 589.25,-284.5"/>
</g>
<!-- Node18 -->
<g id="node18" class="node">
<title>Node18</title>
<g id="a_node18"><a xlink:href="class_ogre_1_1_g_l_s_l_shader_common.html" target="_top" xlink:title="Specialisation of HighLevelGpuProgram to provide support for OpenGL Shader Language (GLSL).">
<polygon fill="none" stroke="black" points="631,-240.5 631,-259.5 779,-259.5 779,-240.5 631,-240.5"/>
<text text-anchor="middle" x="705" y="-247.5" font-family="Helvetica,sans-Serif" font-size="10.00">Ogre::GLSLShaderCommon</text>
</a>
</g>
</g>
<!-- Node14&#45;&gt;Node18 -->
<g id="edge17" class="edge">
<title>Node14&#45;&gt;Node18</title>
<path fill="none" stroke="midnightblue" d="M563.05,-276.58C591.88,-271.14 625.96,-264.72 653.39,-259.54"/>
<polygon fill="midnightblue" stroke="midnightblue" points="562.27,-273.17 553.09,-278.46 563.56,-280.05 562.27,-273.17"/>
</g>
<!-- Node24 -->
<g id="node22" class="node">
<title>Node24</title>
<g id="a_node22"><a xlink:href="class_ogre_1_1_metal_program.html" target="_top" xlink:title="Specialisation of HighLevelGpuProgram to provide support for Metal Shader Language.">
<polygon fill="none" stroke="black" points="647.5,-202.5 647.5,-221.5 762.5,-221.5 762.5,-202.5 647.5,-202.5"/>
<text text-anchor="middle" x="705" y="-209.5" font-family="Helvetica,sans-Serif" font-size="10.00">Ogre::MetalProgram</text>
</a>
</g>
</g>
<!-- Node14&#45;&gt;Node24 -->
<g id="edge21" class="edge">
<title>Node14&#45;&gt;Node24</title>
<path fill="none" stroke="midnightblue" d="M551.63,-275.26C561.02,-271.92 570.55,-267.85 579,-263 597.56,-252.34 595.9,-240.67 615,-231 625.01,-225.93 636.31,-222.22 647.42,-219.49"/>
<polygon fill="midnightblue" stroke="midnightblue" points="550.33,-272.01 541.95,-278.49 552.54,-278.65 550.33,-272.01"/>
</g>
<!-- Node25 -->
<g id="node23" class="node">
<title>Node25</title>
<g id="a_node23"><a xlink:href="class_ogre_1_1_unified_high_level_gpu_program.html" target="_top" xlink:title="Specialisation of HighLevelGpuProgram which just delegates its implementation to one other GpuProgram...">
<polygon fill="none" stroke="black" points="630.5,-153 630.5,-183 779.5,-183 779.5,-153 630.5,-153"/>
<text text-anchor="start" x="638.5" y="-171" font-family="Helvetica,sans-Serif" font-size="10.00">Ogre::UnifiedHighLevelGpu</text>
<text text-anchor="middle" x="705" y="-160" font-family="Helvetica,sans-Serif" font-size="10.00">Program</text>
</a>
</g>
</g>
<!-- Node14&#45;&gt;Node25 -->
<g id="edge22" class="edge">
<title>Node14&#45;&gt;Node25</title>
<path fill="none" stroke="midnightblue" d="M560.45,-274.58C567.14,-271.48 573.52,-267.67 579,-263 605.63,-240.31 587.9,-215.13 615,-193 619.72,-189.14 625.01,-185.88 630.58,-183.12"/>
<polygon fill="midnightblue" stroke="midnightblue" points="559.11,-271.34 551.19,-278.37 561.77,-277.82 559.11,-271.34"/>
</g>
<!-- Node19 -->
<g id="node19" class="node">
<title>Node19</title>
<g id="a_node19"><a xlink:href="class_ogre_1_1_g_l_s_l_1_1_g_l_s_l_program.html" target="_top" xlink:title=" ">
<polygon fill="none" stroke="black" points="831,-278.5 831,-297.5 972,-297.5 972,-278.5 831,-278.5"/>
<text text-anchor="middle" x="901.5" y="-285.5" font-family="Helvetica,sans-Serif" font-size="10.00">Ogre::GLSL::GLSLProgram</text>
</a>
</g>
</g>
<!-- Node18&#45;&gt;Node19 -->
<g id="edge18" class="edge">
<title>Node18&#45;&gt;Node19</title>
<path fill="none" stroke="midnightblue" d="M764.81,-261.49C792.56,-266.91 825.29,-273.31 851.65,-278.46"/>
<polygon fill="midnightblue" stroke="midnightblue" points="765.32,-258.02 754.83,-259.54 763.97,-264.89 765.32,-258.02"/>
</g>
<!-- Node20 -->
<g id="node20" class="node">
<title>Node20</title>
<g id="a_node20"><a xlink:href="class_ogre_1_1_g_l_s_l_e_s_program.html" target="_top" xlink:title=" ">
<polygon fill="none" stroke="red" points="840,-240.5 840,-259.5 963,-259.5 963,-240.5 840,-240.5"/>
<text text-anchor="middle" x="901.5" y="-247.5" font-family="Helvetica,sans-Serif" font-size="10.00">Ogre::GLSLESProgram</text>
</a>
</g>
</g>
<!-- Node18&#45;&gt;Node20 -->
<g id="edge19" class="edge">
<title>Node18&#45;&gt;Node20</title>
<path fill="none" stroke="midnightblue" d="M789.69,-250C806.6,-250 824.07,-250 839.99,-250"/>
<polygon fill="midnightblue" stroke="midnightblue" points="789.25,-246.5 779.25,-250 789.25,-253.5 789.25,-246.5"/>
</g>
<!-- Node22 -->
<g id="node21" class="node">
<title>Node22</title>
<g id="a_node21"><a xlink:href="class_ogre_1_1_g_l_s_l_shader.html" target="_top" xlink:title=" ">
<polygon fill="none" stroke="red" points="849.5,-202.5 849.5,-221.5 953.5,-221.5 953.5,-202.5 849.5,-202.5"/>
<text text-anchor="middle" x="901.5" y="-209.5" font-family="Helvetica,sans-Serif" font-size="10.00">Ogre::GLSLShader</text>
</a>
</g>
</g>
<!-- Node18&#45;&gt;Node22 -->
<g id="edge20" class="edge">
<title>Node18&#45;&gt;Node22</title>
<path fill="none" stroke="midnightblue" d="M764.81,-238.51C792.56,-233.09 825.29,-226.69 851.65,-221.54"/>
<polygon fill="midnightblue" stroke="midnightblue" points="763.97,-235.11 754.83,-240.46 765.32,-241.98 763.97,-235.11"/>
</g>
<!-- Node28 -->
<g id="node26" class="node">
<title>Node28</title>
<g id="a_node26"><a xlink:href="class_ogre_1_1_patch_mesh.html" target="_top" xlink:title="Patch specialisation of Mesh.">
<polygon fill="none" stroke="black" points="452,-234.5 452,-253.5 551,-253.5 551,-234.5 452,-234.5"/>
<text text-anchor="middle" x="501.5" y="-241.5" font-family="Helvetica,sans-Serif" font-size="10.00">Ogre::PatchMesh</text>
</a>
</g>
</g>
<!-- Node27&#45;&gt;Node28 -->
<g id="edge25" class="edge">
<title>Node27&#45;&gt;Node28</title>
<path fill="none" stroke="midnightblue" d="M380.97,-244C402.93,-244 429.32,-244 451.71,-244"/>
<polygon fill="midnightblue" stroke="midnightblue" points="380.9,-240.5 370.9,-244 380.9,-247.5 380.9,-240.5"/>
</g>
<!-- Node30 -->
<g id="node28" class="node">
<title>Node30</title>
<g id="a_node28"><a xlink:href="class_ogre_1_1_skeleton_instance.html" target="_top" xlink:title="A SkeletonInstance is a single instance of a Skeleton used by a world object.">
<polygon fill="none" stroke="black" points="437,-196.5 437,-215.5 566,-215.5 566,-196.5 437,-196.5"/>
<text text-anchor="middle" x="501.5" y="-203.5" font-family="Helvetica,sans-Serif" font-size="10.00">Ogre::SkeletonInstance</text>
</a>
</g>
</g>
<!-- Node29&#45;&gt;Node30 -->
<g id="edge27" class="edge">
<title>Node29&#45;&gt;Node30</title>
<path fill="none" stroke="midnightblue" d="M389.14,-206C404.4,-206 421.16,-206 436.95,-206"/>
<polygon fill="midnightblue" stroke="midnightblue" points="388.85,-202.5 378.85,-206 388.85,-209.5 388.85,-202.5"/>
</g>
<!-- Node32 -->
<g id="node30" class="node">
<title>Node32</title>
<g id="a_node30"><a xlink:href="class_ogre_1_1_d3_d11_texture.html" target="_top" xlink:title="Specialisation of Texture for D3D11.">
<polygon fill="none" stroke="black" points="444,-152.5 444,-171.5 559,-171.5 559,-152.5 444,-152.5"/>
<text text-anchor="middle" x="501.5" y="-159.5" font-family="Helvetica,sans-Serif" font-size="10.00">Ogre::D3D11Texture</text>
</a>
</g>
</g>
<!-- Node31&#45;&gt;Node32 -->
<g id="edge29" class="edge">
<title>Node31&#45;&gt;Node32</title>
<path fill="none" stroke="midnightblue" d="M364.58,-118.9C381.62,-126.69 403.73,-136.18 424,-143 434.51,-146.53 446.02,-149.73 456.86,-152.46"/>
<polygon fill="midnightblue" stroke="midnightblue" points="365.72,-115.57 355.18,-114.54 362.78,-121.92 365.72,-115.57"/>
</g>
<!-- Node33 -->
<g id="node31" class="node">
<title>Node33</title>
<g id="a_node31"><a xlink:href="class_ogre_1_1_d3_d9_texture.html" target="_top" xlink:title=" ">
<polygon fill="none" stroke="black" points="447,-114.5 447,-133.5 556,-133.5 556,-114.5 447,-114.5"/>
<text text-anchor="middle" x="501.5" y="-121.5" font-family="Helvetica,sans-Serif" font-size="10.00">Ogre::D3D9Texture</text>
</a>
</g>
</g>
<!-- Node31&#45;&gt;Node33 -->
<g id="edge30" class="edge">
<title>Node31&#45;&gt;Node33</title>
<path fill="none" stroke="midnightblue" d="M385.96,-110.81C405.24,-113.03 427.28,-115.57 446.84,-117.82"/>
<polygon fill="midnightblue" stroke="midnightblue" points="386.2,-107.31 375.86,-109.65 385.4,-114.27 386.2,-107.31"/>
</g>
<!-- Node34 -->
<g id="node32" class="node">
<title>Node34</title>
<g id="a_node32"><a xlink:href="class_ogre_1_1_g_l_texture_common.html" target="_top" xlink:title=" ">
<polygon fill="none" stroke="black" points="432.5,-76.5 432.5,-95.5 570.5,-95.5 570.5,-76.5 432.5,-76.5"/>
<text text-anchor="middle" x="501.5" y="-83.5" font-family="Helvetica,sans-Serif" font-size="10.00">Ogre::GLTextureCommon</text>
</a>
</g>
</g>
<!-- Node31&#45;&gt;Node34 -->
<g id="edge31" class="edge">
<title>Node31&#45;&gt;Node34</title>
<path fill="none" stroke="midnightblue" d="M386.15,-99.17C400.71,-97.49 416.83,-95.63 432.26,-93.86"/>
<polygon fill="midnightblue" stroke="midnightblue" points="385.4,-95.73 375.86,-100.35 386.2,-102.69 385.4,-95.73"/>
</g>
<!-- Node38 -->
<g id="node36" class="node">
<title>Node38</title>
<g id="a_node36"><a xlink:href="class_ogre_1_1_metal_texture.html" target="_top" xlink:title=" ">
<polygon fill="none" stroke="black" points="446.5,-38.5 446.5,-57.5 556.5,-57.5 556.5,-38.5 446.5,-38.5"/>
<text text-anchor="middle" x="501.5" y="-45.5" font-family="Helvetica,sans-Serif" font-size="10.00">Ogre::MetalTexture</text>
</a>
</g>
</g>
<!-- Node31&#45;&gt;Node38 -->
<g id="edge35" class="edge">
<title>Node31&#45;&gt;Node38</title>
<path fill="none" stroke="midnightblue" d="M364.58,-91.1C381.62,-83.31 403.73,-73.82 424,-67 434.51,-63.47 446.02,-60.27 456.86,-57.54"/>
<polygon fill="midnightblue" stroke="midnightblue" points="362.78,-88.08 355.18,-95.46 365.72,-94.43 362.78,-88.08"/>
</g>
<!-- Node40 -->
<g id="node38" class="node">
<title>Node40</title>
<g id="a_node38"><a xlink:href="class_ogre_1_1_tiny_texture.html" target="_top" xlink:title=" ">
<polygon fill="none" stroke="black" points="450.5,-0.5 450.5,-19.5 552.5,-19.5 552.5,-0.5 450.5,-0.5"/>
<text text-anchor="middle" x="501.5" y="-7.5" font-family="Helvetica,sans-Serif" font-size="10.00">Ogre::TinyTexture</text>
</a>
</g>
</g>
<!-- Node31&#45;&gt;Node40 -->
<g id="edge37" class="edge">
<title>Node31&#45;&gt;Node40</title>
<path fill="none" stroke="midnightblue" d="M350.87,-87.73C367.3,-70.34 394.92,-44.01 424,-29 432.15,-24.79 441.27,-21.49 450.3,-18.9"/>
<polygon fill="midnightblue" stroke="midnightblue" points="347.96,-85.73 343.75,-95.46 353.1,-90.48 347.96,-85.73"/>
</g>
<!-- Node35 -->
<g id="node33" class="node">
<title>Node35</title>
<g id="a_node33"><a xlink:href="class_ogre_1_1_g_l3_plus_texture.html" target="_top" xlink:title=" ">
<polygon fill="none" stroke="black" points="644.5,-114.5 644.5,-133.5 765.5,-133.5 765.5,-114.5 644.5,-114.5"/>
<text text-anchor="middle" x="705" y="-121.5" font-family="Helvetica,sans-Serif" font-size="10.00">Ogre::GL3PlusTexture</text>
</a>
</g>
</g>
<!-- Node34&#45;&gt;Node35 -->
<g id="edge32" class="edge">
<title>Node34&#45;&gt;Node35</title>
<path fill="none" stroke="midnightblue" d="M563.05,-97.42C591.88,-102.86 625.96,-109.28 653.39,-114.46"/>
<polygon fill="midnightblue" stroke="midnightblue" points="563.56,-93.95 553.09,-95.54 562.27,-100.83 563.56,-93.95"/>
</g>
<!-- Node36 -->
<g id="node34" class="node">
<title>Node36</title>
<g id="a_node34"><a xlink:href="class_ogre_1_1_g_l_e_s2_texture.html" target="_top" xlink:title=" ">
<polygon fill="none" stroke="black" points="648.5,-76.5 648.5,-95.5 761.5,-95.5 761.5,-76.5 648.5,-76.5"/>
<text text-anchor="middle" x="705" y="-83.5" font-family="Helvetica,sans-Serif" font-size="10.00">Ogre::GLES2Texture</text>
</a>
</g>
</g>
<!-- Node34&#45;&gt;Node36 -->
<g id="edge33" class="edge">
<title>Node34&#45;&gt;Node36</title>
<path fill="none" stroke="midnightblue" d="M580.92,-86C603.39,-86 627.42,-86 648.23,-86"/>
<polygon fill="midnightblue" stroke="midnightblue" points="580.72,-82.5 570.72,-86 580.72,-89.5 580.72,-82.5"/>
</g>
<!-- Node37 -->
<g id="node35" class="node">
<title>Node37</title>
<g id="a_node35"><a xlink:href="class_ogre_1_1_g_l_texture.html" target="_top" xlink:title=" ">
<polygon fill="none" stroke="black" points="658,-38.5 658,-57.5 752,-57.5 752,-38.5 658,-38.5"/>
<text text-anchor="middle" x="705" y="-45.5" font-family="Helvetica,sans-Serif" font-size="10.00">Ogre::GLTexture</text>
</a>
</g>
</g>
<!-- Node34&#45;&gt;Node37 -->
<g id="edge34" class="edge">
<title>Node34&#45;&gt;Node37</title>
<path fill="none" stroke="midnightblue" d="M563.15,-74.56C593.56,-68.83 629.78,-62 657.88,-56.7"/>
<polygon fill="midnightblue" stroke="midnightblue" points="562.27,-71.17 553.09,-76.46 563.56,-78.05 562.27,-71.17"/>
</g>
<!-- Node39 -->
<g id="node37" class="node">
<title>Node39</title>
<g id="a_node37"><a xlink:href="class_ogre_1_1_metal_depth_texture.html" target="_top" xlink:title=" ">
<polygon fill="none" stroke="black" points="635.5,-0.5 635.5,-19.5 774.5,-19.5 774.5,-0.5 635.5,-0.5"/>
<text text-anchor="middle" x="705" y="-7.5" font-family="Helvetica,sans-Serif" font-size="10.00">Ogre::MetalDepthTexture</text>
</a>
</g>
</g>
<!-- Node38&#45;&gt;Node39 -->
<g id="edge36" class="edge">
<title>Node38&#45;&gt;Node39</title>
<path fill="none" stroke="midnightblue" d="M563.05,-36.58C591.88,-31.14 625.96,-24.72 653.39,-19.54"/>
<polygon fill="midnightblue" stroke="midnightblue" points="562.27,-33.17 553.09,-38.46 563.56,-40.05 562.27,-33.17"/>
</g>
</g>
</svg>
