<?xml version="1.0" encoding="UTF-8" standalone="no"?><svg xmlns="http://www.w3.org/2000/svg" xmlns:xlink="http://www.w3.org/1999/xlink" contentScriptType="application/ecmascript" contentStyleType="text/css" height="245px" preserveAspectRatio="none" style="width:706px;height:245px;" version="1.1" viewBox="0 0 706 245" width="706px" zoomAndPan="magnify"><defs><filter height="300%" id="f17ywwzq6r7pgd" width="300%" x="-1" y="-1"><feGaussianBlur result="blurOut" stdDeviation="2.0"/><feColorMatrix in="blurOut" result="blurOut2" type="matrix" values="0 0 0 0 0 0 0 0 0 0 0 0 0 0 0 0 0 0 .4 0"/><feOffset dx="4.0" dy="4.0" in="blurOut2" result="blurOut3"/><feBlend in="SourceGraphic" in2="blurOut3" mode="normal"/></filter></defs><g><rect fill="#FFFFFF" filter="url(#f17ywwzq6r7pgd)" height="145.6641" style="stroke: #A80036; stroke-width: 1.0;" width="10" x="265.5" y="69.2969"/><line style="stroke: #A80036; stroke-width: 1.0; stroke-dasharray: 5.0,5.0;" x1="54" x2="54" y1="38.2969" y2="233.0938"/><line style="stroke: #A80036; stroke-width: 1.0; stroke-dasharray: 5.0,5.0;" x1="270" x2="270" y1="38.2969" y2="233.0938"/><line style="stroke: #A80036; stroke-width: 1.0; stroke-dasharray: 5.0,5.0;" x1="426" x2="426" y1="38.2969" y2="233.0938"/><line style="stroke: #A80036; stroke-width: 1.0; stroke-dasharray: 5.0,5.0;" x1="538" x2="538" y1="38.2969" y2="233.0938"/><line style="stroke: #A80036; stroke-width: 1.0; stroke-dasharray: 5.0,5.0;" x1="651" x2="651" y1="38.2969" y2="233.0938"/><rect fill="#FEFECE" filter="url(#f17ywwzq6r7pgd)" height="30.2969" style="stroke: #A80036; stroke-width: 1.5;" width="89" x="8" y="3"/><text fill="#000000" font-family="sans-serif" font-size="14" lengthAdjust="spacingAndGlyphs" textLength="75" x="15" y="22.9951">Application</text><rect fill="#FEFECE" filter="url(#f17ywwzq6r7pgd)" height="30.2969" style="stroke: #A80036; stroke-width: 1.5;" width="133" x="202" y="3"/><text fill="#000000" font-family="sans-serif" font-size="14" lengthAdjust="spacingAndGlyphs" textLength="119" x="209" y="22.9951">ShaderGenerator</text><rect fill="#FEFECE" filter="url(#f17ywwzq6r7pgd)" height="30.2969" style="stroke: #A80036; stroke-width: 1.5;" width="87" x="381" y="3"/><text fill="#000000" font-family="sans-serif" font-size="14" lengthAdjust="spacingAndGlyphs" textLength="73" x="388" y="22.9951">SGMaterial</text><rect fill="#FEFECE" filter="url(#f17ywwzq6r7pgd)" height="30.2969" style="stroke: #A80036; stroke-width: 1.5;" width="108" x="482" y="3"/><text fill="#000000" font-family="sans-serif" font-size="14" lengthAdjust="spacingAndGlyphs" textLength="94" x="489" y="22.9951">SGTechnique</text><rect fill="#FEFECE" filter="url(#f17ywwzq6r7pgd)" height="30.2969" style="stroke: #A80036; stroke-width: 1.5;" width="91" x="604" y="3"/><text fill="#000000" font-family="sans-serif" font-size="14" lengthAdjust="spacingAndGlyphs" textLength="77" x="611" y="22.9951">SGScheme</text><rect fill="#FFFFFF" filter="url(#f17ywwzq6r7pgd)" height="145.6641" style="stroke: #A80036; stroke-width: 1.0;" width="10" x="265.5" y="69.2969"/><polygon fill="#A80036" points="253.5,65.2969,263.5,69.2969,253.5,73.2969,257.5,69.2969" style="stroke: #A80036; stroke-width: 1.0;"/><line style="stroke: #A80036; stroke-width: 1.0;" x1="54.5" x2="259.5" y1="69.2969" y2="69.2969"/><text fill="#000000" font-family="sans-serif" font-size="13" lengthAdjust="spacingAndGlyphs" textLength="192" x="61.5" y="64.3638">createShaderBasedTechnique</text><polygon fill="#A80036" points="414.5,94.4297,424.5,98.4297,414.5,102.4297,418.5,98.4297" style="stroke: #A80036; stroke-width: 1.0;"/><line style="stroke: #A80036; stroke-width: 1.0;" x1="275.5" x2="420.5" y1="98.4297" y2="98.4297"/><text fill="#000000" font-family="sans-serif" font-size="13" lengthAdjust="spacingAndGlyphs" textLength="77" x="282.5" y="93.4966">&lt;&lt; new &gt;&gt;</text><polygon fill="#A80036" points="526,123.5625,536,127.5625,526,131.5625,530,127.5625" style="stroke: #A80036; stroke-width: 1.0;"/><line style="stroke: #A80036; stroke-width: 1.0;" x1="275.5" x2="532" y1="127.5625" y2="127.5625"/><text fill="#000000" font-family="sans-serif" font-size="13" lengthAdjust="spacingAndGlyphs" textLength="77" x="282.5" y="122.6294">&lt;&lt; new &gt;&gt;</text><polygon fill="#A80036" points="414.5,152.6953,424.5,156.6953,414.5,160.6953,418.5,156.6953" style="stroke: #A80036; stroke-width: 1.0;"/><line style="stroke: #A80036; stroke-width: 1.0;" x1="275.5" x2="420.5" y1="156.6953" y2="156.6953"/><text fill="#000000" font-family="sans-serif" font-size="13" lengthAdjust="spacingAndGlyphs" textLength="127" x="282.5" y="151.7622">addTechnique(tech)</text><polygon fill="#A80036" points="639.5,181.8281,649.5,185.8281,639.5,189.8281,643.5,185.8281" style="stroke: #A80036; stroke-width: 1.0;"/><line style="stroke: #A80036; stroke-width: 1.0;" x1="275.5" x2="645.5" y1="185.8281" y2="185.8281"/><text fill="#000000" font-family="sans-serif" font-size="13" lengthAdjust="spacingAndGlyphs" textLength="77" x="282.5" y="180.895">&lt;&lt; new &gt;&gt;</text><polygon fill="#A80036" points="639.5,210.9609,649.5,214.9609,639.5,218.9609,643.5,214.9609" style="stroke: #A80036; stroke-width: 1.0;"/><line style="stroke: #A80036; stroke-width: 1.0;" x1="270.5" x2="645.5" y1="214.9609" y2="214.9609"/><text fill="#000000" font-family="sans-serif" font-size="13" lengthAdjust="spacingAndGlyphs" textLength="160" x="277.5" y="210.0278">addTechniqueEntry(tech)</text></g></svg>