<?xml version="1.0" encoding="UTF-8" standalone="no"?>
<!DOCTYPE svg PUBLIC "-//W3C//DTD SVG 1.1//EN"
 "http://www.w3.org/Graphics/SVG/1.1/DTD/svg11.dtd">
<!-- Generated by graphviz version 2.43.0 (0)
 -->
<!-- Title: Graphical Class Hierarchy Pages: 1 -->
<svg width="339pt" height="230pt"
 viewBox="0.00 0.00 339.00 229.50" xmlns="http://www.w3.org/2000/svg" xmlns:xlink="http://www.w3.org/1999/xlink">
<g id="graph0" class="graph" transform="scale(1 1) rotate(0) translate(4 225.5)">
<title>Graphical Class Hierarchy</title>
<!-- Node508 -->
<g id="node1" class="node">
<title>Node508</title>
<g id="a_node1"><a xlink:title=" ">
<polygon fill="none" stroke="#bfbfbf" points="0,-107 0,-126 107,-126 107,-107 0,-107"/>
<text text-anchor="middle" x="53.5" y="-114" font-family="Helvetica,sans-Serif" font-size="10.00">RenderQueueAlloc</text>
</a>
</g>
</g>
<!-- Node0 -->
<g id="node2" class="node">
<title>Node0</title>
<g id="a_node2"><a xlink:href="class_ogre_1_1_queued_renderable_collection.html" target="_top" xlink:title="Lowest level collection of renderables.">
<polygon fill="none" stroke="black" points="143,-202 143,-221 331,-221 331,-202 143,-202"/>
<text text-anchor="middle" x="237" y="-209" font-family="Helvetica,sans-Serif" font-size="10.00">Ogre::QueuedRenderableCollection</text>
</a>
</g>
</g>
<!-- Node508&#45;&gt;Node0 -->
<g id="edge1" class="edge">
<title>Node508&#45;&gt;Node0</title>
<path fill="none" stroke="midnightblue" d="M69.75,-134.02C86.07,-151.61 113.62,-178.1 143,-192.5 150.99,-196.42 159.75,-199.52 168.6,-201.99"/>
<polygon fill="midnightblue" stroke="midnightblue" points="71.98,-131.27 62.68,-126.19 66.78,-135.96 71.98,-131.27"/>
</g>
<!-- Node510 -->
<g id="node3" class="node">
<title>Node510</title>
<g id="a_node3"><a xlink:href="class_ogre_1_1_render_priority_group.html" target="_top" xlink:title="Collection of renderables by priority.">
<polygon fill="none" stroke="black" points="164.5,-164 164.5,-183 309.5,-183 309.5,-164 164.5,-164"/>
<text text-anchor="middle" x="237" y="-171" font-family="Helvetica,sans-Serif" font-size="10.00">Ogre::RenderPriorityGroup</text>
</a>
</g>
</g>
<!-- Node508&#45;&gt;Node510 -->
<g id="edge2" class="edge">
<title>Node508&#45;&gt;Node510</title>
<path fill="none" stroke="midnightblue" d="M83.14,-130.57C100.2,-138.49 122.46,-148.07 143,-154.5 154.79,-158.19 167.66,-161.35 179.96,-163.98"/>
<polygon fill="midnightblue" stroke="midnightblue" points="84.29,-127.24 73.75,-126.12 81.29,-133.56 84.29,-127.24"/>
</g>
<!-- Node511 -->
<g id="node4" class="node">
<title>Node511</title>
<g id="a_node4"><a xlink:href="class_ogre_1_1_render_queue.html" target="_top" xlink:title="Class to manage the scene object rendering queue.">
<polygon fill="none" stroke="black" points="181,-126 181,-145 293,-145 293,-126 181,-126"/>
<text text-anchor="middle" x="237" y="-133" font-family="Helvetica,sans-Serif" font-size="10.00">Ogre::RenderQueue</text>
</a>
</g>
</g>
<!-- Node508&#45;&gt;Node511 -->
<g id="edge3" class="edge">
<title>Node508&#45;&gt;Node511</title>
<path fill="none" stroke="midnightblue" d="M117.69,-123.11C138.22,-125.26 160.83,-127.63 180.74,-129.72"/>
<polygon fill="midnightblue" stroke="midnightblue" points="117.8,-119.61 107.49,-122.05 117.07,-126.57 117.8,-119.61"/>
</g>
<!-- Node512 -->
<g id="node5" class="node">
<title>Node512</title>
<g id="a_node5"><a xlink:href="class_ogre_1_1_render_queue_group.html" target="_top" xlink:title="A grouping level underneath RenderQueue which groups renderables to be issued at coarsely the same ti...">
<polygon fill="none" stroke="black" points="166.5,-88 166.5,-107 307.5,-107 307.5,-88 166.5,-88"/>
<text text-anchor="middle" x="237" y="-95" font-family="Helvetica,sans-Serif" font-size="10.00">Ogre::RenderQueueGroup</text>
</a>
</g>
</g>
<!-- Node508&#45;&gt;Node512 -->
<g id="edge4" class="edge">
<title>Node508&#45;&gt;Node512</title>
<path fill="none" stroke="midnightblue" d="M117.63,-109.89C133.38,-108.24 150.35,-106.47 166.4,-104.79"/>
<polygon fill="midnightblue" stroke="midnightblue" points="117.07,-106.43 107.49,-110.95 117.8,-113.39 117.07,-106.43"/>
</g>
<!-- Node513 -->
<g id="node6" class="node">
<title>Node513</title>
<g id="a_node6"><a xlink:href="class_ogre_1_1_render_queue_invocation.html" target="_top" xlink:title="Class representing the invocation of queue groups in a RenderQueue.">
<polygon fill="none" stroke="black" points="155.5,-50 155.5,-69 318.5,-69 318.5,-50 155.5,-50"/>
<text text-anchor="middle" x="237" y="-57" font-family="Helvetica,sans-Serif" font-size="10.00">Ogre::RenderQueueInvocation</text>
</a>
</g>
</g>
<!-- Node508&#45;&gt;Node513 -->
<g id="edge5" class="edge">
<title>Node508&#45;&gt;Node513</title>
<path fill="none" stroke="midnightblue" d="M83.14,-102.43C100.2,-94.51 122.46,-84.93 143,-78.5 154.79,-74.81 167.66,-71.65 179.96,-69.02"/>
<polygon fill="midnightblue" stroke="midnightblue" points="81.29,-99.44 73.75,-106.88 84.29,-105.76 81.29,-99.44"/>
</g>
<!-- Node514 -->
<g id="node7" class="node">
<title>Node514</title>
<g id="a_node7"><a xlink:href="class_ogre_1_1_render_queue_invocation_sequence.html" target="_top" xlink:title="Class to hold a linear sequence of RenderQueueInvocation objects.">
<polygon fill="none" stroke="black" points="155.5,-0.5 155.5,-30.5 318.5,-30.5 318.5,-0.5 155.5,-0.5"/>
<text text-anchor="start" x="163.5" y="-18.5" font-family="Helvetica,sans-Serif" font-size="10.00">Ogre::RenderQueueInvocation</text>
<text text-anchor="middle" x="237" y="-7.5" font-family="Helvetica,sans-Serif" font-size="10.00">Sequence</text>
</a>
</g>
</g>
<!-- Node508&#45;&gt;Node514 -->
<g id="edge6" class="edge">
<title>Node508&#45;&gt;Node514</title>
<path fill="none" stroke="midnightblue" d="M70.2,-99.07C86.7,-81.77 114.22,-55.7 143,-40.5 150.24,-36.67 158.12,-33.39 166.12,-30.6"/>
<polygon fill="midnightblue" stroke="midnightblue" points="67.28,-97.07 63.02,-106.77 72.4,-101.84 67.28,-97.07"/>
</g>
</g>
</svg>
