<?xml version="1.0" encoding="UTF-8" standalone="no"?>
<!DOCTYPE svg PUBLIC "-//W3C//DTD SVG 1.1//EN"
 "http://www.w3.org/Graphics/SVG/1.1/DTD/svg11.dtd">
<!-- Generated by graphviz version 2.43.0 (0)
 -->
<!-- Title: Graphical Class Hierarchy Pages: 1 -->
<svg width="1204pt" height="709pt"
 viewBox="0.00 0.00 1204.00 709.00" xmlns="http://www.w3.org/2000/svg" xmlns:xlink="http://www.w3.org/1999/xlink">
<g id="graph0" class="graph" transform="scale(1 1) rotate(0) translate(4 705)">
<title>Graphical Class Hierarchy</title>
<!-- Node1077 -->
<g id="node1" class="node">
<title>Node1077</title>
<g id="a_node1"><a xlink:href="class_ogre_1_1_intersection_scene_query_listener.html" target="_top" xlink:title="Alternative listener class for dealing with IntersectionSceneQuery.">
<polygon fill="none" stroke="black" points="220.5,-572.5 220.5,-602.5 382.5,-602.5 382.5,-572.5 220.5,-572.5"/>
<text text-anchor="start" x="228.5" y="-590.5" font-family="Helvetica,sans-Serif" font-size="10.00">Ogre::IntersectionSceneQuery</text>
<text text-anchor="middle" x="301.5" y="-579.5" font-family="Helvetica,sans-Serif" font-size="10.00">Listener</text>
</a>
</g>
</g>
<!-- Node299 -->
<g id="node2" class="node">
<title>Node299</title>
<g id="a_node2"><a xlink:href="class_ogre_1_1_intersection_scene_query.html" target="_top" xlink:title="Separate SceneQuery class to query for pairs of objects which are possibly intersecting one another.">
<polygon fill="none" stroke="black" points="433.5,-578 433.5,-597 595.5,-597 595.5,-578 433.5,-578"/>
<text text-anchor="middle" x="514.5" y="-585" font-family="Helvetica,sans-Serif" font-size="10.00">Ogre::IntersectionSceneQuery</text>
</a>
</g>
</g>
<!-- Node1077&#45;&gt;Node299 -->
<g id="edge1" class="edge">
<title>Node1077&#45;&gt;Node299</title>
<path fill="none" stroke="midnightblue" d="M392.83,-587.5C406.34,-587.5 420.2,-587.5 433.48,-587.5"/>
<polygon fill="midnightblue" stroke="midnightblue" points="392.57,-584 382.57,-587.5 392.57,-591 392.57,-584"/>
</g>
<!-- Node300 -->
<g id="node3" class="node">
<title>Node300</title>
<g id="a_node3"><a xlink:href="class_ogre_1_1_default_intersection_scene_query.html" target="_top" xlink:title="Default implementation of IntersectionSceneQuery.">
<polygon fill="none" stroke="black" points="646.5,-583.5 646.5,-613.5 786.5,-613.5 786.5,-583.5 646.5,-583.5"/>
<text text-anchor="start" x="654.5" y="-601.5" font-family="Helvetica,sans-Serif" font-size="10.00">Ogre::DefaultIntersection</text>
<text text-anchor="middle" x="716.5" y="-590.5" font-family="Helvetica,sans-Serif" font-size="10.00">SceneQuery</text>
</a>
</g>
</g>
<!-- Node299&#45;&gt;Node300 -->
<g id="edge2" class="edge">
<title>Node299&#45;&gt;Node300</title>
<path fill="none" stroke="midnightblue" d="M605.97,-592.48C619.49,-593.22 633.25,-593.98 646.24,-594.69"/>
<polygon fill="midnightblue" stroke="midnightblue" points="605.87,-588.97 595.7,-591.91 605.49,-595.95 605.87,-588.97"/>
</g>
<!-- Node301 -->
<g id="node4" class="node">
<title>Node301</title>
<g id="a_node4"><a xlink:href="class_ogre_1_1_bsp_intersection_scene_query.html" target="_top" xlink:title="BSP specialisation of IntersectionSceneQuery.">
<polygon fill="none" stroke="black" points="834,-670.5 834,-700.5 985,-700.5 985,-670.5 834,-670.5"/>
<text text-anchor="start" x="842" y="-688.5" font-family="Helvetica,sans-Serif" font-size="10.00">Ogre::BspIntersectionScene</text>
<text text-anchor="middle" x="909.5" y="-677.5" font-family="Helvetica,sans-Serif" font-size="10.00">Query</text>
</a>
</g>
</g>
<!-- Node300&#45;&gt;Node301 -->
<g id="edge3" class="edge">
<title>Node300&#45;&gt;Node301</title>
<path fill="none" stroke="midnightblue" d="M750.57,-619C772.98,-632.3 803.57,-649.36 832,-661.5 839.55,-664.72 847.69,-667.74 855.74,-670.47"/>
<polygon fill="midnightblue" stroke="midnightblue" points="752.18,-615.88 741.8,-613.73 748.57,-621.88 752.18,-615.88"/>
</g>
<!-- Node302 -->
<g id="node5" class="node">
<title>Node302</title>
<g id="a_node5"><a xlink:href="class_ogre_1_1_octree_intersection_scene_query.html" target="_top" xlink:title="Octree implementation of IntersectionSceneQuery.">
<polygon fill="none" stroke="black" points="841.5,-621.5 841.5,-651.5 977.5,-651.5 977.5,-621.5 841.5,-621.5"/>
<text text-anchor="start" x="849.5" y="-639.5" font-family="Helvetica,sans-Serif" font-size="10.00">Ogre::OctreeIntersection</text>
<text text-anchor="middle" x="909.5" y="-628.5" font-family="Helvetica,sans-Serif" font-size="10.00">SceneQuery</text>
</a>
</g>
</g>
<!-- Node300&#45;&gt;Node302 -->
<g id="edge4" class="edge">
<title>Node300&#45;&gt;Node302</title>
<path fill="none" stroke="midnightblue" d="M796.88,-614.29C811.69,-617.24 827.03,-620.29 841.43,-623.16"/>
<polygon fill="midnightblue" stroke="midnightblue" points="797.22,-610.79 786.73,-612.27 795.85,-617.66 797.22,-610.79"/>
</g>
<!-- Node303 -->
<g id="node6" class="node">
<title>Node303</title>
<g id="a_node6"><a xlink:href="class_ogre_1_1_p_c_z_intersection_scene_query.html" target="_top" xlink:title="PCZ implementation of IntersectionSceneQuery.">
<polygon fill="none" stroke="black" points="833.5,-572.5 833.5,-602.5 985.5,-602.5 985.5,-572.5 833.5,-572.5"/>
<text text-anchor="start" x="841.5" y="-590.5" font-family="Helvetica,sans-Serif" font-size="10.00">Ogre::PCZIntersectionScene</text>
<text text-anchor="middle" x="909.5" y="-579.5" font-family="Helvetica,sans-Serif" font-size="10.00">Query</text>
</a>
</g>
</g>
<!-- Node300&#45;&gt;Node303 -->
<g id="edge5" class="edge">
<title>Node300&#45;&gt;Node303</title>
<path fill="none" stroke="midnightblue" d="M796.79,-593.93C808.9,-593.24 821.37,-592.52 833.38,-591.83"/>
<polygon fill="midnightblue" stroke="midnightblue" points="796.51,-590.44 786.73,-594.51 796.91,-597.43 796.51,-590.44"/>
</g>
<!-- Node850 -->
<g id="node7" class="node">
<title>Node850</title>
<g id="a_node7"><a xlink:href="class_ogre_1_1_ray_scene_query_listener.html" target="_top" xlink:title="Alternative listener class for dealing with RaySceneQuery.">
<polygon fill="none" stroke="black" points="220.5,-289 220.5,-308 382.5,-308 382.5,-289 220.5,-289"/>
<text text-anchor="middle" x="301.5" y="-296" font-family="Helvetica,sans-Serif" font-size="10.00">Ogre::RaySceneQueryListener</text>
</a>
</g>
</g>
<!-- Node304 -->
<g id="node8" class="node">
<title>Node304</title>
<g id="a_node8"><a xlink:href="class_ogre_1_1_ray_scene_query.html" target="_top" xlink:title="Specialises the SceneQuery class for querying along a ray.">
<polygon fill="none" stroke="black" points="453,-327 453,-346 576,-346 576,-327 453,-327"/>
<text text-anchor="middle" x="514.5" y="-334" font-family="Helvetica,sans-Serif" font-size="10.00">Ogre::RaySceneQuery</text>
</a>
</g>
</g>
<!-- Node850&#45;&gt;Node304 -->
<g id="edge6" class="edge">
<title>Node850&#45;&gt;Node304</title>
<path fill="none" stroke="midnightblue" d="M365.51,-309.85C395.78,-315.3 431.66,-321.76 460.51,-326.96"/>
<polygon fill="midnightblue" stroke="midnightblue" points="365.93,-306.37 355.47,-308.04 364.69,-313.26 365.93,-306.37"/>
</g>
<!-- Node305 -->
<g id="node9" class="node">
<title>Node305</title>
<g id="a_node9"><a xlink:href="class_ogre_1_1_default_ray_scene_query.html" target="_top" xlink:title="Default implementation of RaySceneQuery.">
<polygon fill="none" stroke="black" points="637,-316 637,-335 796,-335 796,-316 637,-316"/>
<text text-anchor="middle" x="716.5" y="-323" font-family="Helvetica,sans-Serif" font-size="10.00">Ogre::DefaultRaySceneQuery</text>
</a>
</g>
</g>
<!-- Node304&#45;&gt;Node305 -->
<g id="edge7" class="edge">
<title>Node304&#45;&gt;Node305</title>
<path fill="none" stroke="midnightblue" d="M586.07,-332.62C602.44,-331.72 619.97,-330.75 636.67,-329.84"/>
<polygon fill="midnightblue" stroke="midnightblue" points="585.84,-329.13 576.05,-333.17 586.23,-336.12 585.84,-329.13"/>
</g>
<!-- Node306 -->
<g id="node10" class="node">
<title>Node306</title>
<g id="a_node10"><a xlink:href="class_ogre_1_1_bsp_ray_scene_query.html" target="_top" xlink:title="BSP specialisation of RaySceneQuery.">
<polygon fill="none" stroke="black" points="839,-351 839,-370 980,-370 980,-351 839,-351"/>
<text text-anchor="middle" x="909.5" y="-358" font-family="Helvetica,sans-Serif" font-size="10.00">Ogre::BspRaySceneQuery</text>
</a>
</g>
</g>
<!-- Node305&#45;&gt;Node306 -->
<g id="edge8" class="edge">
<title>Node305&#45;&gt;Node306</title>
<path fill="none" stroke="midnightblue" d="M779.51,-336.86C804.41,-341.43 832.79,-346.63 856.57,-350.98"/>
<polygon fill="midnightblue" stroke="midnightblue" points="779.91,-333.38 769.44,-335.02 778.64,-340.26 779.91,-333.38"/>
</g>
<!-- Node307 -->
<g id="node11" class="node">
<title>Node307</title>
<g id="a_node11"><a xlink:href="class_ogre_1_1_octree_ray_scene_query.html" target="_top" xlink:title="Octree implementation of RaySceneQuery.">
<polygon fill="none" stroke="black" points="832,-313 832,-332 987,-332 987,-313 832,-313"/>
<text text-anchor="middle" x="909.5" y="-320" font-family="Helvetica,sans-Serif" font-size="10.00">Ogre::OctreeRaySceneQuery</text>
</a>
</g>
</g>
<!-- Node305&#45;&gt;Node307 -->
<g id="edge9" class="edge">
<title>Node305&#45;&gt;Node307</title>
<path fill="none" stroke="midnightblue" d="M806.07,-324.11C814.67,-323.97 823.36,-323.84 831.83,-323.7"/>
<polygon fill="midnightblue" stroke="midnightblue" points="805.96,-320.61 796.01,-324.27 806.07,-327.61 805.96,-320.61"/>
</g>
<!-- Node308 -->
<g id="node12" class="node">
<title>Node308</title>
<g id="a_node12"><a xlink:href="class_ogre_1_1_p_c_z_ray_scene_query.html" target="_top" xlink:title="PCZ implementation of RaySceneQuery.">
<polygon fill="none" stroke="black" points="838,-275 838,-294 981,-294 981,-275 838,-275"/>
<text text-anchor="middle" x="909.5" y="-282" font-family="Helvetica,sans-Serif" font-size="10.00">Ogre::PCZRaySceneQuery</text>
</a>
</g>
</g>
<!-- Node305&#45;&gt;Node308 -->
<g id="edge10" class="edge">
<title>Node305&#45;&gt;Node308</title>
<path fill="none" stroke="midnightblue" d="M771.84,-313.84C801.04,-307.57 836.59,-299.94 864.11,-294.03"/>
<polygon fill="midnightblue" stroke="midnightblue" points="770.84,-310.47 761.8,-315.99 772.31,-317.31 770.84,-310.47"/>
</g>
<!-- Node788 -->
<g id="node13" class="node">
<title>Node788</title>
<g id="a_node13"><a xlink:href="class_ogre_1_1_scene_query_listener.html" target="_top" xlink:title="This optional class allows you to receive per&#45;result callbacks from SceneQuery executions instead of ...">
<polygon fill="none" stroke="black" points="16,-488 16,-507 159,-507 159,-488 16,-488"/>
<text text-anchor="middle" x="87.5" y="-495" font-family="Helvetica,sans-Serif" font-size="10.00">Ogre::SceneQueryListener</text>
</a>
</g>
</g>
<!-- Node309 -->
<g id="node14" class="node">
<title>Node309</title>
<g id="a_node14"><a xlink:href="class_ogre_1_1_region_scene_query.html" target="_top" xlink:title="Abstract class defining a query which returns single results from a region.">
<polygon fill="none" stroke="black" points="445.5,-469 445.5,-488 583.5,-488 583.5,-469 445.5,-469"/>
<text text-anchor="middle" x="514.5" y="-476" font-family="Helvetica,sans-Serif" font-size="10.00">Ogre::RegionSceneQuery</text>
</a>
</g>
</g>
<!-- Node788&#45;&gt;Node309 -->
<g id="edge11" class="edge">
<title>Node788&#45;&gt;Node309</title>
<path fill="none" stroke="midnightblue" d="M169.22,-504.39C230.5,-508.35 316.76,-511.16 392,-503.5 420.92,-500.56 453.13,-493.76 477.11,-488"/>
<polygon fill="midnightblue" stroke="midnightblue" points="169.43,-500.9 159.22,-503.73 168.97,-507.89 169.43,-500.9"/>
</g>
<!-- Node292 -->
<g id="node27" class="node">
<title>Node292</title>
<g id="a_node27"><a xlink:href="class_ogre_1_1_scene_manager_1_1_shadow_renderer_1_1_shadow_caster_scene_query_listener.html" target="_top" xlink:title="Inner class to use as callback for shadow caster scene query.">
<polygon fill="none" stroke="black" points="211,-453 211,-494 392,-494 392,-453 211,-453"/>
<text text-anchor="start" x="219" y="-482" font-family="Helvetica,sans-Serif" font-size="10.00">Ogre::SceneManager</text>
<text text-anchor="start" x="219" y="-471" font-family="Helvetica,sans-Serif" font-size="10.00">::ShadowRenderer::ShadowCaster</text>
<text text-anchor="middle" x="301.5" y="-460" font-family="Helvetica,sans-Serif" font-size="10.00">SceneQueryListener</text>
</a>
</g>
</g>
<!-- Node788&#45;&gt;Node292 -->
<g id="edge24" class="edge">
<title>Node788&#45;&gt;Node292</title>
<path fill="none" stroke="midnightblue" d="M169.37,-488.35C182.98,-486.8 197.17,-485.2 210.98,-483.63"/>
<polygon fill="midnightblue" stroke="midnightblue" points="168.64,-484.91 159.09,-489.51 169.42,-491.86 168.64,-484.91"/>
</g>
<!-- Node310 -->
<g id="node15" class="node">
<title>Node310</title>
<g id="a_node15"><a xlink:href="class_ogre_1_1_axis_aligned_box_scene_query.html" target="_top" xlink:title="Specialises the SceneQuery class for querying within an axis aligned box.">
<polygon fill="none" stroke="black" points="640.5,-512.5 640.5,-542.5 792.5,-542.5 792.5,-512.5 640.5,-512.5"/>
<text text-anchor="start" x="648.5" y="-530.5" font-family="Helvetica,sans-Serif" font-size="10.00">Ogre::AxisAlignedBoxScene</text>
<text text-anchor="middle" x="716.5" y="-519.5" font-family="Helvetica,sans-Serif" font-size="10.00">Query</text>
</a>
</g>
</g>
<!-- Node309&#45;&gt;Node310 -->
<g id="edge12" class="edge">
<title>Node309&#45;&gt;Node310</title>
<path fill="none" stroke="midnightblue" d="M564.54,-490.51C591.56,-497.14 625.36,-505.42 654.12,-512.46"/>
<polygon fill="midnightblue" stroke="midnightblue" points="565.08,-487.04 554.54,-488.06 563.42,-493.84 565.08,-487.04"/>
</g>
<!-- Node314 -->
<g id="node19" class="node">
<title>Node314</title>
<g id="a_node19"><a xlink:href="class_ogre_1_1_plane_bounded_volume_list_scene_query.html" target="_top" xlink:title="Specialises the SceneQuery class for querying within a plane&#45;bounded volume.">
<polygon fill="none" stroke="black" points="640,-463.5 640,-493.5 793,-493.5 793,-463.5 640,-463.5"/>
<text text-anchor="start" x="648" y="-481.5" font-family="Helvetica,sans-Serif" font-size="10.00">Ogre::PlaneBoundedVolume</text>
<text text-anchor="middle" x="716.5" y="-470.5" font-family="Helvetica,sans-Serif" font-size="10.00">ListSceneQuery</text>
</a>
</g>
</g>
<!-- Node309&#45;&gt;Node314 -->
<g id="edge16" class="edge">
<title>Node309&#45;&gt;Node314</title>
<path fill="none" stroke="midnightblue" d="M594.1,-478.5C609.2,-478.5 624.99,-478.5 640,-478.5"/>
<polygon fill="midnightblue" stroke="midnightblue" points="593.77,-475 583.77,-478.5 593.77,-482 593.77,-475"/>
</g>
<!-- Node318 -->
<g id="node23" class="node">
<title>Node318</title>
<g id="a_node23"><a xlink:href="class_ogre_1_1_sphere_scene_query.html" target="_top" xlink:title="Specialises the SceneQuery class for querying within a sphere.">
<polygon fill="none" stroke="black" points="647.5,-408 647.5,-427 785.5,-427 785.5,-408 647.5,-408"/>
<text text-anchor="middle" x="716.5" y="-415" font-family="Helvetica,sans-Serif" font-size="10.00">Ogre::SphereSceneQuery</text>
</a>
</g>
</g>
<!-- Node309&#45;&gt;Node318 -->
<g id="edge20" class="edge">
<title>Node309&#45;&gt;Node318</title>
<path fill="none" stroke="midnightblue" d="M556.45,-466.01C594.29,-454.47 649.71,-437.57 684.14,-427.06"/>
<polygon fill="midnightblue" stroke="midnightblue" points="555.29,-462.7 546.75,-468.97 557.34,-469.4 555.29,-462.7"/>
</g>
<!-- Node311 -->
<g id="node16" class="node">
<title>Node311</title>
<g id="a_node16"><a xlink:href="class_ogre_1_1_default_axis_aligned_box_scene_query.html" target="_top" xlink:title="Default implementation of AxisAlignedBoxSceneQuery.">
<polygon fill="none" stroke="black" points="839.5,-523.5 839.5,-553.5 979.5,-553.5 979.5,-523.5 839.5,-523.5"/>
<text text-anchor="start" x="847.5" y="-541.5" font-family="Helvetica,sans-Serif" font-size="10.00">Ogre::DefaultAxisAligned</text>
<text text-anchor="middle" x="909.5" y="-530.5" font-family="Helvetica,sans-Serif" font-size="10.00">BoxSceneQuery</text>
</a>
</g>
</g>
<!-- Node310&#45;&gt;Node311 -->
<g id="edge13" class="edge">
<title>Node310&#45;&gt;Node311</title>
<path fill="none" stroke="midnightblue" d="M802.87,-532.42C815.05,-533.12 827.45,-533.83 839.26,-534.51"/>
<polygon fill="midnightblue" stroke="midnightblue" points="802.9,-528.91 792.71,-531.83 802.5,-535.9 802.9,-528.91"/>
</g>
<!-- Node312 -->
<g id="node17" class="node">
<title>Node312</title>
<g id="a_node17"><a xlink:href="class_ogre_1_1_octree_axis_aligned_box_scene_query.html" target="_top" xlink:title="Octree implementation of AxisAlignedBoxSceneQuery.">
<polygon fill="none" stroke="black" points="1032,-577.5 1032,-607.5 1187,-607.5 1187,-577.5 1032,-577.5"/>
<text text-anchor="start" x="1040" y="-595.5" font-family="Helvetica,sans-Serif" font-size="10.00">Ogre::OctreeAxisAlignedBox</text>
<text text-anchor="middle" x="1109.5" y="-584.5" font-family="Helvetica,sans-Serif" font-size="10.00">SceneQuery</text>
</a>
</g>
</g>
<!-- Node311&#45;&gt;Node312 -->
<g id="edge14" class="edge">
<title>Node311&#45;&gt;Node312</title>
<path fill="none" stroke="midnightblue" d="M975.48,-556.22C1000.65,-563.09 1029.15,-570.86 1053.3,-577.45"/>
<polygon fill="midnightblue" stroke="midnightblue" points="976.22,-552.8 965.65,-553.54 974.38,-559.55 976.22,-552.8"/>
</g>
<!-- Node313 -->
<g id="node18" class="node">
<title>Node313</title>
<g id="a_node18"><a xlink:href="class_ogre_1_1_p_c_z_axis_aligned_box_scene_query.html" target="_top" xlink:title="PCZ implementation of AxisAlignedBoxSceneQuery.">
<polygon fill="none" stroke="black" points="1024,-528.5 1024,-558.5 1195,-558.5 1195,-528.5 1024,-528.5"/>
<text text-anchor="start" x="1032" y="-546.5" font-family="Helvetica,sans-Serif" font-size="10.00">Ogre::PCZAxisAlignedBoxScene</text>
<text text-anchor="middle" x="1109.5" y="-535.5" font-family="Helvetica,sans-Serif" font-size="10.00">Query</text>
</a>
</g>
</g>
<!-- Node311&#45;&gt;Node313 -->
<g id="edge15" class="edge">
<title>Node311&#45;&gt;Node313</title>
<path fill="none" stroke="midnightblue" d="M989.92,-540.51C1001.12,-540.79 1012.67,-541.08 1023.96,-541.37"/>
<polygon fill="midnightblue" stroke="midnightblue" points="989.84,-537 979.75,-540.25 989.66,-544 989.84,-537"/>
</g>
<!-- Node315 -->
<g id="node20" class="node">
<title>Node315</title>
<g id="a_node20"><a xlink:href="class_ogre_1_1_default_plane_bounded_volume_list_scene_query.html" target="_top" xlink:title="Default implementation of PlaneBoundedVolumeListSceneQuery.">
<polygon fill="none" stroke="black" points="833.5,-463.5 833.5,-493.5 985.5,-493.5 985.5,-463.5 833.5,-463.5"/>
<text text-anchor="start" x="841.5" y="-481.5" font-family="Helvetica,sans-Serif" font-size="10.00">Ogre::DefaultPlaneBounded</text>
<text text-anchor="middle" x="909.5" y="-470.5" font-family="Helvetica,sans-Serif" font-size="10.00">VolumeListSceneQuery</text>
</a>
</g>
</g>
<!-- Node314&#45;&gt;Node315 -->
<g id="edge17" class="edge">
<title>Node314&#45;&gt;Node315</title>
<path fill="none" stroke="midnightblue" d="M803.27,-478.5C813.33,-478.5 823.55,-478.5 833.45,-478.5"/>
<polygon fill="midnightblue" stroke="midnightblue" points="803.26,-475 793.26,-478.5 803.26,-482 803.26,-475"/>
</g>
<!-- Node316 -->
<g id="node21" class="node">
<title>Node316</title>
<g id="a_node21"><a xlink:href="class_ogre_1_1_octree_plane_bounded_volume_list_scene_query.html" target="_top" xlink:title="Octree implementation of PlaneBoundedVolumeListSceneQuery.">
<polygon fill="none" stroke="black" points="1035.5,-479.5 1035.5,-509.5 1183.5,-509.5 1183.5,-479.5 1035.5,-479.5"/>
<text text-anchor="start" x="1043.5" y="-497.5" font-family="Helvetica,sans-Serif" font-size="10.00">Ogre::OctreePlaneBounded</text>
<text text-anchor="middle" x="1109.5" y="-486.5" font-family="Helvetica,sans-Serif" font-size="10.00">VolumeListSceneQuery</text>
</a>
</g>
</g>
<!-- Node315&#45;&gt;Node316 -->
<g id="edge18" class="edge">
<title>Node315&#45;&gt;Node316</title>
<path fill="none" stroke="midnightblue" d="M995.67,-485.38C1008.89,-486.45 1022.45,-487.55 1035.38,-488.59"/>
<polygon fill="midnightblue" stroke="midnightblue" points="995.89,-481.89 985.64,-484.57 995.32,-488.87 995.89,-481.89"/>
</g>
<!-- Node317 -->
<g id="node22" class="node">
<title>Node317</title>
<g id="a_node22"><a xlink:href="class_ogre_1_1_p_c_z_plane_bounded_volume_list_scene_query.html" target="_top" xlink:title="PCZ implementation of PlaneBoundedVolumeListSceneQuery.">
<polygon fill="none" stroke="black" points="1023,-430.5 1023,-460.5 1196,-460.5 1196,-430.5 1023,-430.5"/>
<text text-anchor="start" x="1031" y="-448.5" font-family="Helvetica,sans-Serif" font-size="10.00">Ogre::PCZPlaneBoundedVolume</text>
<text text-anchor="middle" x="1109.5" y="-437.5" font-family="Helvetica,sans-Serif" font-size="10.00">ListSceneQuery</text>
</a>
</g>
</g>
<!-- Node315&#45;&gt;Node317 -->
<g id="edge19" class="edge">
<title>Node315&#45;&gt;Node317</title>
<path fill="none" stroke="midnightblue" d="M995.7,-464.3C1004.68,-462.8 1013.82,-461.28 1022.8,-459.78"/>
<polygon fill="midnightblue" stroke="midnightblue" points="994.93,-460.88 985.64,-465.98 996.08,-467.79 994.93,-460.88"/>
</g>
<!-- Node319 -->
<g id="node24" class="node">
<title>Node319</title>
<g id="a_node24"><a xlink:href="class_ogre_1_1_default_sphere_scene_query.html" target="_top" xlink:title="Default implementation of SphereSceneQuery.">
<polygon fill="none" stroke="black" points="837,-389.5 837,-419.5 982,-419.5 982,-389.5 837,-389.5"/>
<text text-anchor="start" x="845" y="-407.5" font-family="Helvetica,sans-Serif" font-size="10.00">Ogre::DefaultSphereScene</text>
<text text-anchor="middle" x="909.5" y="-396.5" font-family="Helvetica,sans-Serif" font-size="10.00">Query</text>
</a>
</g>
</g>
<!-- Node318&#45;&gt;Node319 -->
<g id="edge21" class="edge">
<title>Node318&#45;&gt;Node319</title>
<path fill="none" stroke="midnightblue" d="M795.9,-412.16C809.44,-411.24 823.47,-410.29 836.83,-409.38"/>
<polygon fill="midnightblue" stroke="midnightblue" points="795.39,-408.69 785.65,-412.86 795.86,-415.67 795.39,-408.69"/>
</g>
<!-- Node320 -->
<g id="node25" class="node">
<title>Node320</title>
<g id="a_node25"><a xlink:href="class_ogre_1_1_octree_sphere_scene_query.html" target="_top" xlink:title="Octree implementation of SphereSceneQuery.">
<polygon fill="none" stroke="black" points="1024.5,-392 1024.5,-411 1194.5,-411 1194.5,-392 1024.5,-392"/>
<text text-anchor="middle" x="1109.5" y="-399" font-family="Helvetica,sans-Serif" font-size="10.00">Ogre::OctreeSphereSceneQuery</text>
</a>
</g>
</g>
<!-- Node319&#45;&gt;Node320 -->
<g id="edge22" class="edge">
<title>Node319&#45;&gt;Node320</title>
<path fill="none" stroke="midnightblue" d="M992.27,-403.26C1002.81,-403.1 1013.61,-402.94 1024.19,-402.78"/>
<polygon fill="midnightblue" stroke="midnightblue" points="992.21,-399.76 982.26,-403.41 992.31,-406.76 992.21,-399.76"/>
</g>
<!-- Node321 -->
<g id="node26" class="node">
<title>Node321</title>
<g id="a_node26"><a xlink:href="class_ogre_1_1_p_c_z_sphere_scene_query.html" target="_top" xlink:title="PCZ implementation of SphereSceneQuery.">
<polygon fill="none" stroke="black" points="1030.5,-354 1030.5,-373 1188.5,-373 1188.5,-354 1030.5,-354"/>
<text text-anchor="middle" x="1109.5" y="-361" font-family="Helvetica,sans-Serif" font-size="10.00">Ogre::PCZSphereSceneQuery</text>
</a>
</g>
</g>
<!-- Node319&#45;&gt;Node321 -->
<g id="edge23" class="edge">
<title>Node319&#45;&gt;Node321</title>
<path fill="none" stroke="midnightblue" d="M992.1,-387.6C1016.14,-382.62 1041.6,-377.35 1062.55,-373.01"/>
<polygon fill="midnightblue" stroke="midnightblue" points="991.35,-384.19 982.26,-389.64 992.76,-391.04 991.35,-384.19"/>
</g>
<!-- Node284 -->
<g id="node28" class="node">
<title>Node284</title>
<g id="a_node28"><a xlink:title=" ">
<polygon fill="none" stroke="#bfbfbf" points="43,-292 43,-311 132,-311 132,-292 43,-292"/>
<text text-anchor="middle" x="87.5" y="-299" font-family="Helvetica,sans-Serif" font-size="10.00">SceneMgtAlloc</text>
</a>
</g>
</g>
<!-- Node284&#45;&gt;Node292 -->
<g id="edge32" class="edge">
<title>Node284&#45;&gt;Node292</title>
<path fill="none" stroke="midnightblue" d="M99.73,-320.03C118.89,-350.16 160.75,-409.77 211,-443.5 216.17,-446.97 221.78,-450.07 227.58,-452.84"/>
<polygon fill="midnightblue" stroke="midnightblue" points="102.58,-317.99 94.32,-311.36 96.64,-321.69 102.58,-317.99"/>
</g>
<!-- Node285 -->
<g id="node29" class="node">
<title>Node285</title>
<g id="a_node29"><a xlink:href="class_ogre_1_1_auto_param_data_source.html" target="_top" xlink:title="This utility class is used to hold the information used to generate the matrices and other informatio...">
<polygon fill="none" stroke="black" points="223.5,-377 223.5,-396 379.5,-396 379.5,-377 223.5,-377"/>
<text text-anchor="middle" x="301.5" y="-384" font-family="Helvetica,sans-Serif" font-size="10.00">Ogre::AutoParamDataSource</text>
</a>
</g>
</g>
<!-- Node284&#45;&gt;Node285 -->
<g id="edge25" class="edge">
<title>Node284&#45;&gt;Node285</title>
<path fill="none" stroke="midnightblue" d="M111.65,-316.58C135.61,-331.54 174.56,-354.13 211,-367.5 221.29,-371.28 232.53,-374.4 243.47,-376.94"/>
<polygon fill="midnightblue" stroke="midnightblue" points="113.26,-313.46 102.94,-311.06 109.52,-319.37 113.26,-313.46"/>
</g>
<!-- Node286 -->
<g id="node30" class="node">
<title>Node286</title>
<g id="a_node30"><a xlink:href="struct_ogre_1_1_intersection_scene_query_result.html" target="_top" xlink:title="Holds the results of an intersection scene query (pair values).">
<polygon fill="none" stroke="black" points="220.5,-327.5 220.5,-357.5 382.5,-357.5 382.5,-327.5 220.5,-327.5"/>
<text text-anchor="start" x="228.5" y="-345.5" font-family="Helvetica,sans-Serif" font-size="10.00">Ogre::IntersectionSceneQuery</text>
<text text-anchor="middle" x="301.5" y="-334.5" font-family="Helvetica,sans-Serif" font-size="10.00">Result</text>
</a>
</g>
</g>
<!-- Node284&#45;&gt;Node286 -->
<g id="edge26" class="edge">
<title>Node284&#45;&gt;Node286</title>
<path fill="none" stroke="midnightblue" d="M142.29,-311.9C166.64,-316.61 195.9,-322.27 222.6,-327.43"/>
<polygon fill="midnightblue" stroke="midnightblue" points="142.65,-308.41 132.17,-309.95 141.32,-315.28 142.65,-308.41"/>
</g>
<!-- Node287 -->
<g id="node31" class="node">
<title>Node287</title>
<g id="a_node31"><a xlink:href="class_ogre_1_1_scene_manager.html" target="_top" xlink:title="Manages the organisation and rendering of a &#39;scene&#39;: a collection of objects and potentially world ge...">
<polygon fill="none" stroke="black" points="242.5,-213 242.5,-232 360.5,-232 360.5,-213 242.5,-213"/>
<text text-anchor="middle" x="301.5" y="-220" font-family="Helvetica,sans-Serif" font-size="10.00">Ogre::SceneManager</text>
</a>
</g>
</g>
<!-- Node284&#45;&gt;Node287 -->
<g id="edge27" class="edge">
<title>Node284&#45;&gt;Node287</title>
<path fill="none" stroke="midnightblue" d="M113.87,-286.77C138.1,-273.26 176.02,-253.57 211,-241.5 221.81,-237.77 233.62,-234.63 245.01,-232.05"/>
<polygon fill="midnightblue" stroke="midnightblue" points="111.96,-283.83 104.98,-291.79 115.41,-289.92 111.96,-283.83"/>
</g>
<!-- Node1 -->
<g id="node36" class="node">
<title>Node1</title>
<g id="a_node36"><a xlink:href="class_ogre_1_1_scene_manager_enumerator.html" target="_top" xlink:title="Enumerates the SceneManager classes available to applications.">
<polygon fill="none" stroke="black" points="214,-80 214,-99 389,-99 389,-80 214,-80"/>
<text text-anchor="middle" x="301.5" y="-87" font-family="Helvetica,sans-Serif" font-size="10.00">Ogre::SceneManagerEnumerator</text>
</a>
</g>
</g>
<!-- Node284&#45;&gt;Node1 -->
<g id="edge33" class="edge">
<title>Node284&#45;&gt;Node1</title>
<path fill="none" stroke="midnightblue" d="M94.89,-282.29C109.05,-242.92 146.95,-153 211,-108.5 216.48,-104.69 222.57,-101.62 228.92,-99.15"/>
<polygon fill="midnightblue" stroke="midnightblue" points="91.5,-281.39 91.53,-291.98 98.12,-283.68 91.5,-281.39"/>
</g>
<!-- Node293 -->
<g id="node37" class="node">
<title>Node293</title>
<g id="a_node37"><a xlink:href="class_ogre_1_1_scene_manager_factory.html" target="_top" xlink:title="Class which will create instances of a given SceneManager.">
<polygon fill="none" stroke="black" points="224.5,-118 224.5,-137 378.5,-137 378.5,-118 224.5,-118"/>
<text text-anchor="middle" x="301.5" y="-125" font-family="Helvetica,sans-Serif" font-size="10.00">Ogre::SceneManagerFactory</text>
</a>
</g>
</g>
<!-- Node284&#45;&gt;Node293 -->
<g id="edge34" class="edge">
<title>Node284&#45;&gt;Node293</title>
<path fill="none" stroke="midnightblue" d="M108.02,-285.48C151.28,-249.97 254.13,-165.55 288.84,-137.07"/>
<polygon fill="midnightblue" stroke="midnightblue" points="105.71,-282.85 100.2,-291.9 110.15,-288.26 105.71,-282.85"/>
</g>
<!-- Node298 -->
<g id="node42" class="node">
<title>Node298</title>
<g id="a_node42"><a xlink:href="class_ogre_1_1_scene_query.html" target="_top" xlink:title="A class for performing queries on a scene.">
<polygon fill="none" stroke="black" points="249.5,-415 249.5,-434 353.5,-434 353.5,-415 249.5,-415"/>
<text text-anchor="middle" x="301.5" y="-422" font-family="Helvetica,sans-Serif" font-size="10.00">Ogre::SceneQuery</text>
</a>
</g>
</g>
<!-- Node284&#45;&gt;Node298 -->
<g id="edge39" class="edge">
<title>Node284&#45;&gt;Node298</title>
<path fill="none" stroke="midnightblue" d="M103.55,-318.79C124.97,-342.24 166.62,-383.7 211,-405.5 222.83,-411.31 236.4,-415.35 249.34,-418.16"/>
<polygon fill="midnightblue" stroke="midnightblue" points="105.88,-316.15 96.6,-311.03 100.67,-320.82 105.88,-316.15"/>
</g>
<!-- Node322 -->
<g id="node43" class="node">
<title>Node322</title>
<g id="a_node43"><a xlink:href="struct_ogre_1_1_scene_query_result.html" target="_top" xlink:title="Holds the results of a scene query.">
<polygon fill="none" stroke="black" points="234,-251 234,-270 369,-270 369,-251 234,-251"/>
<text text-anchor="middle" x="301.5" y="-258" font-family="Helvetica,sans-Serif" font-size="10.00">Ogre::SceneQueryResult</text>
</a>
</g>
</g>
<!-- Node284&#45;&gt;Node322 -->
<g id="edge43" class="edge">
<title>Node284&#45;&gt;Node322</title>
<path fill="none" stroke="midnightblue" d="M142.26,-291.1C175.81,-284.61 218.67,-276.32 251.32,-270.01"/>
<polygon fill="midnightblue" stroke="midnightblue" points="141.32,-287.72 132.17,-293.05 142.65,-294.59 141.32,-287.72"/>
</g>
<!-- Node288 -->
<g id="node32" class="node">
<title>Node288</title>
<g id="a_node32"><a xlink:href="class_ogre_1_1_bsp_scene_manager.html" target="_top" xlink:title="Specialisation of the SceneManager class to deal with indoor scenes based on a BSP tree.">
<polygon fill="none" stroke="black" points="446.5,-251 446.5,-270 582.5,-270 582.5,-251 446.5,-251"/>
<text text-anchor="middle" x="514.5" y="-258" font-family="Helvetica,sans-Serif" font-size="10.00">Ogre::BspSceneManager</text>
</a>
</g>
</g>
<!-- Node287&#45;&gt;Node288 -->
<g id="edge28" class="edge">
<title>Node287&#45;&gt;Node288</title>
<path fill="none" stroke="midnightblue" d="M365.51,-233.85C395.78,-239.3 431.66,-245.76 460.51,-250.96"/>
<polygon fill="midnightblue" stroke="midnightblue" points="365.93,-230.37 355.47,-232.04 364.69,-237.26 365.93,-230.37"/>
</g>
<!-- Node289 -->
<g id="node33" class="node">
<title>Node289</title>
<g id="a_node33"><a xlink:href="class_ogre_1_1_default_scene_manager.html" target="_top" xlink:title="Default scene manager.">
<polygon fill="none" stroke="black" points="437.5,-213 437.5,-232 591.5,-232 591.5,-213 437.5,-213"/>
<text text-anchor="middle" x="514.5" y="-220" font-family="Helvetica,sans-Serif" font-size="10.00">Ogre::DefaultSceneManager</text>
</a>
</g>
</g>
<!-- Node287&#45;&gt;Node289 -->
<g id="edge29" class="edge">
<title>Node287&#45;&gt;Node289</title>
<path fill="none" stroke="midnightblue" d="M370.92,-222.5C392.11,-222.5 415.6,-222.5 437.28,-222.5"/>
<polygon fill="midnightblue" stroke="midnightblue" points="370.72,-219 360.72,-222.5 370.72,-226 370.72,-219"/>
</g>
<!-- Node290 -->
<g id="node34" class="node">
<title>Node290</title>
<g id="a_node34"><a xlink:href="class_ogre_1_1_octree_scene_manager.html" target="_top" xlink:title="Specialized SceneManager that divides the geometry into an octree in order to facilitate spatial quer...">
<polygon fill="none" stroke="black" points="439.5,-175 439.5,-194 589.5,-194 589.5,-175 439.5,-175"/>
<text text-anchor="middle" x="514.5" y="-182" font-family="Helvetica,sans-Serif" font-size="10.00">Ogre::OctreeSceneManager</text>
</a>
</g>
</g>
<!-- Node287&#45;&gt;Node290 -->
<g id="edge30" class="edge">
<title>Node287&#45;&gt;Node290</title>
<path fill="none" stroke="midnightblue" d="M365.51,-211.15C395.78,-205.7 431.66,-199.24 460.51,-194.04"/>
<polygon fill="midnightblue" stroke="midnightblue" points="364.69,-207.74 355.47,-212.96 365.93,-214.63 364.69,-207.74"/>
</g>
<!-- Node291 -->
<g id="node35" class="node">
<title>Node291</title>
<g id="a_node35"><a xlink:href="class_ogre_1_1_p_c_z_scene_manager.html" target="_top" xlink:title="Specialized SceneManager that uses Portal&#45;Connected&#45;Zones to divide the scene spatially.">
<polygon fill="none" stroke="black" points="446,-289 446,-308 583,-308 583,-289 446,-289"/>
<text text-anchor="middle" x="514.5" y="-296" font-family="Helvetica,sans-Serif" font-size="10.00">Ogre::PCZSceneManager</text>
</a>
</g>
</g>
<!-- Node287&#45;&gt;Node291 -->
<g id="edge31" class="edge">
<title>Node287&#45;&gt;Node291</title>
<path fill="none" stroke="midnightblue" d="M370.33,-232.29C377.89,-234.71 385.28,-237.73 392,-241.5 412.29,-252.87 407.76,-268.03 428,-279.5 434.88,-283.4 442.49,-286.5 450.26,-288.96"/>
<polygon fill="midnightblue" stroke="midnightblue" points="371.27,-228.92 360.69,-229.53 369.34,-235.65 371.27,-228.92"/>
</g>
<!-- Node294 -->
<g id="node38" class="node">
<title>Node294</title>
<g id="a_node38"><a xlink:href="class_ogre_1_1_bsp_scene_manager_factory.html" target="_top" xlink:title="Factory for BspSceneManager.">
<polygon fill="none" stroke="black" points="428.5,-99 428.5,-118 600.5,-118 600.5,-99 428.5,-99"/>
<text text-anchor="middle" x="514.5" y="-106" font-family="Helvetica,sans-Serif" font-size="10.00">Ogre::BspSceneManagerFactory</text>
</a>
</g>
</g>
<!-- Node293&#45;&gt;Node294 -->
<g id="edge35" class="edge">
<title>Node293&#45;&gt;Node294</title>
<path fill="none" stroke="midnightblue" d="M388.64,-119.74C401.79,-118.56 415.37,-117.34 428.5,-116.15"/>
<polygon fill="midnightblue" stroke="midnightblue" points="388.32,-116.26 378.68,-120.64 388.95,-123.23 388.32,-116.26"/>
</g>
<!-- Node295 -->
<g id="node39" class="node">
<title>Node295</title>
<g id="a_node39"><a xlink:href="class_ogre_1_1_default_scene_manager_factory.html" target="_top" xlink:title="Factory for default scene manager.">
<polygon fill="none" stroke="black" points="437.5,-49.5 437.5,-79.5 591.5,-79.5 591.5,-49.5 437.5,-49.5"/>
<text text-anchor="start" x="445.5" y="-67.5" font-family="Helvetica,sans-Serif" font-size="10.00">Ogre::DefaultSceneManager</text>
<text text-anchor="middle" x="514.5" y="-56.5" font-family="Helvetica,sans-Serif" font-size="10.00">Factory</text>
</a>
</g>
</g>
<!-- Node293&#45;&gt;Node295 -->
<g id="edge36" class="edge">
<title>Node293&#45;&gt;Node295</title>
<path fill="none" stroke="midnightblue" d="M368.96,-115.55C376.82,-113.5 384.65,-111.16 392,-108.5 409.01,-102.34 411.23,-96.3 428,-89.5 436.89,-85.9 446.48,-82.58 455.93,-79.61"/>
<polygon fill="midnightblue" stroke="midnightblue" points="367.91,-112.2 359.03,-117.98 369.57,-119 367.91,-112.2"/>
</g>
<!-- Node296 -->
<g id="node40" class="node">
<title>Node296</title>
<g id="a_node40"><a xlink:href="class_ogre_1_1_octree_scene_manager_factory.html" target="_top" xlink:title="Factory for OctreeSceneManager.">
<polygon fill="none" stroke="black" points="439.5,-0.5 439.5,-30.5 589.5,-30.5 589.5,-0.5 439.5,-0.5"/>
<text text-anchor="start" x="447.5" y="-18.5" font-family="Helvetica,sans-Serif" font-size="10.00">Ogre::OctreeSceneManager</text>
<text text-anchor="middle" x="514.5" y="-7.5" font-family="Helvetica,sans-Serif" font-size="10.00">Factory</text>
</a>
</g>
</g>
<!-- Node293&#45;&gt;Node296 -->
<g id="edge37" class="edge">
<title>Node293&#45;&gt;Node296</title>
<path fill="none" stroke="midnightblue" d="M384.52,-113.43C387.12,-111.94 389.63,-110.3 392,-108.5 419.55,-87.58 401.14,-61.3 428,-39.5 432.19,-36.1 436.83,-33.18 441.72,-30.67"/>
<polygon fill="midnightblue" stroke="midnightblue" points="382.75,-110.4 375.32,-117.95 385.84,-116.68 382.75,-110.4"/>
</g>
<!-- Node297 -->
<g id="node41" class="node">
<title>Node297</title>
<g id="a_node41"><a xlink:href="class_ogre_1_1_p_c_z_scene_manager_factory.html" target="_top" xlink:title="Factory for PCZSceneManager.">
<polygon fill="none" stroke="black" points="428,-137 428,-156 601,-156 601,-137 428,-137"/>
<text text-anchor="middle" x="514.5" y="-144" font-family="Helvetica,sans-Serif" font-size="10.00">Ogre::PCZSceneManagerFactory</text>
</a>
</g>
</g>
<!-- Node293&#45;&gt;Node297 -->
<g id="edge38" class="edge">
<title>Node293&#45;&gt;Node297</title>
<path fill="none" stroke="midnightblue" d="M388.87,-135.28C401.71,-136.43 414.95,-137.63 427.77,-138.78"/>
<polygon fill="midnightblue" stroke="midnightblue" points="388.95,-131.77 378.68,-134.36 388.32,-138.74 388.95,-131.77"/>
</g>
<!-- Node298&#45;&gt;Node299 -->
<g id="edge40" class="edge">
<title>Node298&#45;&gt;Node299</title>
<path fill="none" stroke="midnightblue" d="M363.27,-430.75C373.43,-433.61 383.43,-437.69 392,-443.5 415.87,-459.69 410,-474.96 428,-497.5 452.88,-528.66 486.45,-561.78 503.16,-577.76"/>
<polygon fill="midnightblue" stroke="midnightblue" points="364.07,-427.34 353.53,-428.36 362.41,-434.14 364.07,-427.34"/>
</g>
<!-- Node298&#45;&gt;Node304 -->
<g id="edge41" class="edge">
<title>Node298&#45;&gt;Node304</title>
<path fill="none" stroke="midnightblue" d="M363.83,-414.1C373.4,-411.73 383.07,-408.89 392,-405.5 433.73,-389.66 478.24,-360.94 499.98,-346.04"/>
<polygon fill="midnightblue" stroke="midnightblue" points="362.88,-410.73 353.93,-416.4 364.46,-417.55 362.88,-410.73"/>
</g>
<!-- Node298&#45;&gt;Node309 -->
<g id="edge42" class="edge">
<title>Node298&#45;&gt;Node309</title>
<path fill="none" stroke="midnightblue" d="M360.45,-436.17C370.98,-438.47 381.84,-440.96 392,-443.5 423.09,-451.27 458.24,-461.56 482.7,-468.97"/>
<polygon fill="midnightblue" stroke="midnightblue" points="361,-432.71 350.49,-434.03 359.53,-439.55 361,-432.71"/>
</g>
<!-- Node0 -->
<g id="node44" class="node">
<title>Node0</title>
<g id="a_node44"><a xlink:href="class_ogre_1_1_singleton.html" target="_top" xlink:title=" ">
<polygon fill="none" stroke="black" points="0,-74.5 0,-104.5 175,-104.5 175,-74.5 0,-74.5"/>
<text text-anchor="start" x="8" y="-92.5" font-family="Helvetica,sans-Serif" font-size="10.00">Ogre::Singleton&lt; SceneManager</text>
<text text-anchor="middle" x="87.5" y="-81.5" font-family="Helvetica,sans-Serif" font-size="10.00">Enumerator &gt;</text>
</a>
</g>
</g>
<!-- Node0&#45;&gt;Node1 -->
<g id="edge44" class="edge">
<title>Node0&#45;&gt;Node1</title>
<path fill="none" stroke="midnightblue" d="M185.32,-89.5C194.85,-89.5 204.48,-89.5 213.9,-89.5"/>
<polygon fill="midnightblue" stroke="midnightblue" points="185.03,-86 175.03,-89.5 185.03,-93 185.03,-86"/>
</g>
</g>
</svg>
