<?xml version="1.0" encoding="UTF-8" standalone="no"?>
<!DOCTYPE svg PUBLIC "-//W3C//DTD SVG 1.1//EN"
 "http://www.w3.org/Graphics/SVG/1.1/DTD/svg11.dtd">
<!-- Generated by graphviz version 2.43.0 (0)
 -->
<!-- Title: Graphical Class Hierarchy Pages: 1 -->
<svg width="564pt" height="142pt"
 viewBox="0.00 0.00 564.00 142.00" xmlns="http://www.w3.org/2000/svg" xmlns:xlink="http://www.w3.org/1999/xlink">
<g id="graph0" class="graph" transform="scale(1 1) rotate(0) translate(4 138)">
<title>Graphical Class Hierarchy</title>
<!-- Node0 -->
<g id="node1" class="node">
<title>Node0</title>
<g id="a_node1"><a xlink:href="class_ogre_1_1_g_l_s_l_program_common.html" target="_top" xlink:title=" ">
<polygon fill="none" stroke="black" points="0,-76.5 0,-95.5 155,-95.5 155,-76.5 0,-76.5"/>
<text text-anchor="middle" x="77.5" y="-83.5" font-family="Helvetica,sans-Serif" font-size="10.00">Ogre::GLSLProgramCommon</text>
</a>
</g>
</g>
<!-- Node1 -->
<g id="node2" class="node">
<title>Node1</title>
<g id="a_node2"><a xlink:href="class_ogre_1_1_g_l_s_l_1_1_g_l_s_l_link_program.html" target="_top" xlink:title="C++ encapsulation of GLSL Program Object.">
<polygon fill="none" stroke="black" points="194,-114.5 194,-133.5 355,-133.5 355,-114.5 194,-114.5"/>
<text text-anchor="middle" x="274.5" y="-121.5" font-family="Helvetica,sans-Serif" font-size="10.00">Ogre::GLSL::GLSLLinkProgram</text>
</a>
</g>
</g>
<!-- Node0&#45;&gt;Node1 -->
<g id="edge1" class="edge">
<title>Node0&#45;&gt;Node1</title>
<path fill="none" stroke="midnightblue" d="M137.46,-97.49C165.28,-102.91 198.1,-109.31 224.52,-114.46"/>
<polygon fill="midnightblue" stroke="midnightblue" points="137.94,-94.02 127.46,-95.54 136.6,-100.89 137.94,-94.02"/>
</g>
<!-- Node2 -->
<g id="node3" class="node">
<title>Node2</title>
<g id="a_node3"><a xlink:href="class_ogre_1_1_g_l_s_l_e_s_program_common.html" target="_top" xlink:title="C++ encapsulation of GLSL ES Program Object.">
<polygon fill="none" stroke="black" points="191,-76.5 191,-95.5 358,-95.5 358,-76.5 191,-76.5"/>
<text text-anchor="middle" x="274.5" y="-83.5" font-family="Helvetica,sans-Serif" font-size="10.00">Ogre::GLSLESProgramCommon</text>
</a>
</g>
</g>
<!-- Node0&#45;&gt;Node2 -->
<g id="edge2" class="edge">
<title>Node0&#45;&gt;Node2</title>
<path fill="none" stroke="midnightblue" d="M165.28,-86C173.75,-86 182.34,-86 190.77,-86"/>
<polygon fill="midnightblue" stroke="midnightblue" points="165.01,-82.5 155.01,-86 165.01,-89.5 165.01,-82.5"/>
</g>
<!-- Node5 -->
<g id="node6" class="node">
<title>Node5</title>
<g id="a_node6"><a xlink:href="class_ogre_1_1_g_l_s_l_program.html" target="_top" xlink:title="C++ encapsulation of GLSL program object.">
<polygon fill="none" stroke="black" points="219,-38.5 219,-57.5 330,-57.5 330,-38.5 219,-38.5"/>
<text text-anchor="middle" x="274.5" y="-45.5" font-family="Helvetica,sans-Serif" font-size="10.00">Ogre::GLSLProgram</text>
</a>
</g>
</g>
<!-- Node0&#45;&gt;Node5 -->
<g id="edge5" class="edge">
<title>Node0&#45;&gt;Node5</title>
<path fill="none" stroke="midnightblue" d="M137.46,-74.51C165.28,-69.09 198.1,-62.69 224.52,-57.54"/>
<polygon fill="midnightblue" stroke="midnightblue" points="136.6,-71.11 127.46,-76.46 137.94,-77.98 136.6,-71.11"/>
</g>
<!-- Node3 -->
<g id="node4" class="node">
<title>Node3</title>
<g id="a_node4"><a xlink:href="class_ogre_1_1_g_l_s_l_e_s_link_program.html" target="_top" xlink:title="C++ encapsulation of GLSL ES Program Object.">
<polygon fill="none" stroke="black" points="403.5,-114.5 403.5,-133.5 546.5,-133.5 546.5,-114.5 403.5,-114.5"/>
<text text-anchor="middle" x="475" y="-121.5" font-family="Helvetica,sans-Serif" font-size="10.00">Ogre::GLSLESLinkProgram</text>
</a>
</g>
</g>
<!-- Node2&#45;&gt;Node3 -->
<g id="edge3" class="edge">
<title>Node2&#45;&gt;Node3</title>
<path fill="none" stroke="midnightblue" d="M335.52,-97.49C363.84,-102.91 397.24,-109.31 424.15,-114.46"/>
<polygon fill="midnightblue" stroke="midnightblue" points="335.81,-93.98 325.33,-95.54 334.5,-100.86 335.81,-93.98"/>
</g>
<!-- Node4 -->
<g id="node5" class="node">
<title>Node4</title>
<g id="a_node5"><a xlink:href="class_ogre_1_1_g_l_s_l_e_s_program_pipeline.html" target="_top" xlink:title="Specialisation of HighLevelGpuProgram to provide support for OpenGL Shader Language (GLSL ES) for Ope...">
<polygon fill="none" stroke="black" points="394,-76.5 394,-95.5 556,-95.5 556,-76.5 394,-76.5"/>
<text text-anchor="middle" x="475" y="-83.5" font-family="Helvetica,sans-Serif" font-size="10.00">Ogre::GLSLESProgramPipeline</text>
</a>
</g>
</g>
<!-- Node2&#45;&gt;Node4 -->
<g id="edge4" class="edge">
<title>Node2&#45;&gt;Node4</title>
<path fill="none" stroke="midnightblue" d="M368.27,-86C376.85,-86 385.49,-86 393.94,-86"/>
<polygon fill="midnightblue" stroke="midnightblue" points="368.24,-82.5 358.24,-86 368.24,-89.5 368.24,-82.5"/>
</g>
<!-- Node6 -->
<g id="node7" class="node">
<title>Node6</title>
<g id="a_node7"><a xlink:href="class_ogre_1_1_g_l_s_l_monolithic_program.html" target="_top" xlink:title="Model of OpenGL program object created using the glLinkProgram method of linking.">
<polygon fill="none" stroke="black" points="394,-38.5 394,-57.5 556,-57.5 556,-38.5 394,-38.5"/>
<text text-anchor="middle" x="475" y="-45.5" font-family="Helvetica,sans-Serif" font-size="10.00">Ogre::GLSLMonolithicProgram</text>
</a>
</g>
</g>
<!-- Node5&#45;&gt;Node6 -->
<g id="edge6" class="edge">
<title>Node5&#45;&gt;Node6</title>
<path fill="none" stroke="midnightblue" d="M340.43,-48C357.52,-48 376.16,-48 393.95,-48"/>
<polygon fill="midnightblue" stroke="midnightblue" points="340,-44.5 330,-48 340,-51.5 340,-44.5"/>
</g>
<!-- Node7 -->
<g id="node8" class="node">
<title>Node7</title>
<g id="a_node8"><a xlink:href="class_ogre_1_1_g_l_s_l_separable_program.html" target="_top" xlink:title="Specialisation of GLSLProgram to provide support for separable programs via the OpenGL program pipeli...">
<polygon fill="none" stroke="black" points="395,-0.5 395,-19.5 555,-19.5 555,-0.5 395,-0.5"/>
<text text-anchor="middle" x="475" y="-7.5" font-family="Helvetica,sans-Serif" font-size="10.00">Ogre::GLSLSeparableProgram</text>
</a>
</g>
</g>
<!-- Node5&#45;&gt;Node7 -->
<g id="edge7" class="edge">
<title>Node5&#45;&gt;Node7</title>
<path fill="none" stroke="midnightblue" d="M335.52,-36.51C363.84,-31.09 397.24,-24.69 424.15,-19.54"/>
<polygon fill="midnightblue" stroke="midnightblue" points="334.5,-33.14 325.33,-38.46 335.81,-40.02 334.5,-33.14"/>
</g>
</g>
</svg>
