<?xml version="1.0" encoding="UTF-8" standalone="no"?>
<!DOCTYPE svg PUBLIC "-//W3C//DTD SVG 1.1//EN"
 "http://www.w3.org/Graphics/SVG/1.1/DTD/svg11.dtd">
<!-- Generated by graphviz version 2.40.1 (20161225.0304)
 -->
<!-- Title: Graphical Class Hierarchy Pages: 1 -->
<svg width="331pt" height="151pt"
 viewBox="0.00 0.00 331.00 151.00" xmlns="http://www.w3.org/2000/svg" xmlns:xlink="http://www.w3.org/1999/xlink">
<g id="graph0" class="graph" transform="scale(1 1) rotate(0) translate(4 147)">
<title>Graphical Class Hierarchy</title>
<!-- Node424 -->
<g id="node1" class="node">
<title>Node424</title>
<g id="a_node1"><a xlink:href="class_ogre_1_1_resource_group_listener.html" target="_top" xlink:title="This class defines an interface which is called back during resource group loading to indicate the pr...">
<polygon fill="none" stroke="#000000" points="0,-123.5 0,-142.5 146,-142.5 146,-123.5 0,-123.5"/>
<text text-anchor="middle" x="73" y="-130.5" font-family="Helvetica,sans-Serif" font-size="10.00" fill="#000000">Ogre::ResourceGroupListener</text>
</a>
</g>
</g>
<!-- Node1 -->
<g id="node2" class="node">
<title>Node1</title>
<g id="a_node2"><a xlink:href="class_ogre_bites_1_1_tray_manager.html" target="_top" xlink:title="Main class to manage a cursor, backdrop, trays and widgets. ">
<polygon fill="none" stroke="#000000" points="191,-88.5 191,-107.5 314,-107.5 314,-88.5 191,-88.5"/>
<text text-anchor="middle" x="252.5" y="-95.5" font-family="Helvetica,sans-Serif" font-size="10.00" fill="#000000">OgreBites::TrayManager</text>
</a>
</g>
</g>
<!-- Node424&#45;&gt;Node1 -->
<g id="edge1" class="edge">
<title>Node424&#45;&gt;Node1</title>
<path fill="none" stroke="#191970" d="M132.0938,-121.4775C155.2298,-116.9663 181.4548,-111.8528 203.5101,-107.5523"/>
<polygon fill="#191970" stroke="#191970" points="131.1945,-118.0869 122.0492,-123.4361 132.5342,-124.9575 131.1945,-118.0869"/>
</g>
<!-- Node175 -->
<g id="node3" class="node">
<title>Node175</title>
<g id="a_node3"><a xlink:href="struct_ogre_bites_1_1_input_listener.html" target="_top" xlink:title="the return values of the callbacks are ignored by ApplicationContext however they can be used to cont...">
<polygon fill="none" stroke="#000000" points="12,-44.5 12,-63.5 134,-63.5 134,-44.5 12,-44.5"/>
<text text-anchor="middle" x="73" y="-51.5" font-family="Helvetica,sans-Serif" font-size="10.00" fill="#000000">OgreBites::InputListener</text>
</a>
</g>
</g>
<!-- Node175&#45;&gt;Node1 -->
<g id="edge4" class="edge">
<title>Node175&#45;&gt;Node1</title>
<path fill="none" stroke="#191970" d="M121.8281,-65.969C150.6802,-73.0414 186.7116,-81.8736 213.6272,-88.4713"/>
<polygon fill="#191970" stroke="#191970" points="122.4946,-62.5288 111.9488,-63.5473 120.828,-69.3276 122.4946,-62.5288"/>
</g>
<!-- Node176 -->
<g id="node4" class="node">
<title>Node176</title>
<g id="a_node4"><a xlink:href="class_ogre_bites_1_1_advanced_render_controls.html" target="_top" xlink:title="OgreBites::AdvancedRender\lControls">
<polygon fill="none" stroke="#000000" points="182,-39 182,-69 323,-69 323,-39 182,-39"/>
<text text-anchor="start" x="190" y="-57" font-family="Helvetica,sans-Serif" font-size="10.00" fill="#000000">OgreBites::AdvancedRender</text>
<text text-anchor="middle" x="252.5" y="-46" font-family="Helvetica,sans-Serif" font-size="10.00" fill="#000000">Controls</text>
</a>
</g>
</g>
<!-- Node175&#45;&gt;Node176 -->
<g id="edge2" class="edge">
<title>Node175&#45;&gt;Node176</title>
<path fill="none" stroke="#191970" d="M144.2506,-54C156.5911,-54 169.4194,-54 181.7466,-54"/>
<polygon fill="#191970" stroke="#191970" points="144.021,-50.5001 134.021,-54 144.0209,-57.5001 144.021,-50.5001"/>
</g>
<!-- Node177 -->
<g id="node5" class="node">
<title>Node177</title>
<g id="a_node5"><a xlink:href="class_ogre_bites_1_1_camera_man.html" target="_top" xlink:title="Utility class for controlling the camera in samples. ">
<polygon fill="none" stroke="#000000" points="193,-.5 193,-19.5 312,-19.5 312,-.5 193,-.5"/>
<text text-anchor="middle" x="252.5" y="-7.5" font-family="Helvetica,sans-Serif" font-size="10.00" fill="#000000">OgreBites::CameraMan</text>
</a>
</g>
</g>
<!-- Node175&#45;&gt;Node177 -->
<g id="edge3" class="edge">
<title>Node175&#45;&gt;Node177</title>
<path fill="none" stroke="#191970" d="M121.8281,-42.031C150.6802,-34.9586 186.7116,-26.1264 213.6272,-19.5287"/>
<polygon fill="#191970" stroke="#191970" points="120.828,-38.6724 111.9488,-44.4527 122.4946,-45.4712 120.828,-38.6724"/>
</g>
<!-- Node0 -->
<g id="node6" class="node">
<title>Node0</title>
<g id="a_node6"><a xlink:href="class_ogre_bites_1_1_tray_listener.html" target="_top" xlink:title="Listener class for responding to tray events. ">
<polygon fill="none" stroke="#000000" points="13,-85.5 13,-104.5 133,-104.5 133,-85.5 13,-85.5"/>
<text text-anchor="middle" x="73" y="-92.5" font-family="Helvetica,sans-Serif" font-size="10.00" fill="#000000">OgreBites::TrayListener</text>
</a>
</g>
</g>
<!-- Node0&#45;&gt;Node1 -->
<g id="edge5" class="edge">
<title>Node0&#45;&gt;Node1</title>
<path fill="none" stroke="#191970" d="M143.424,-96.177C159.0886,-96.4388 175.5777,-96.7144 190.8578,-96.9698"/>
<polygon fill="#191970" stroke="#191970" points="143.3274,-92.675 133.2702,-96.0073 143.2103,-99.674 143.3274,-92.675"/>
</g>
</g>
</svg>
