<?xml version="1.0" encoding="UTF-8" standalone="no"?><svg xmlns="http://www.w3.org/2000/svg" xmlns:xlink="http://www.w3.org/1999/xlink" contentScriptType="application/ecmascript" contentStyleType="text/css" height="561px" preserveAspectRatio="none" style="width:923px;height:561px;" version="1.1" viewBox="0 0 923 561" width="923px" zoomAndPan="magnify"><defs><filter height="300%" id="f12zvw0j36o0yz" width="300%" x="-1" y="-1"><feGaussianBlur result="blurOut" stdDeviation="2.0"/><feColorMatrix in="blurOut" result="blurOut2" type="matrix" values="0 0 0 0 0 0 0 0 0 0 0 0 0 0 0 0 0 0 .4 0"/><feOffset dx="4.0" dy="4.0" in="blurOut2" result="blurOut3"/><feBlend in="SourceGraphic" in2="blurOut3" mode="normal"/></filter></defs><g><rect fill="#FFFFFF" filter="url(#f12zvw0j36o0yz)" height="218.9297" style="stroke: #A80036; stroke-width: 1.0;" width="10" x="197.5" y="69.2969"/><rect fill="#FFFFFF" filter="url(#f12zvw0j36o0yz)" height="97.5313" style="stroke: #A80036; stroke-width: 1.0;" width="10" x="470.5" y="169.6953"/><rect fill="#FFFFFF" filter="url(#f12zvw0j36o0yz)" height="193.7969" style="stroke: #A80036; stroke-width: 1.0;" width="10" x="633.5" y="346.4922"/><rect fill="#FFFFFF" filter="url(#f12zvw0j36o0yz)" height="71.2656" style="stroke: #A80036; stroke-width: 1.0;" width="10" x="810.5" y="417.7578"/><rect fill="#FFFFFF" filter="url(#f12zvw0j36o0yz)" height="46.2656" style="stroke: #000000; stroke-width: 2.0;" width="293.5" x="430" y="213.9609"/><line style="stroke: #A80036; stroke-width: 1.0; stroke-dasharray: 5.0,5.0;" x1="76" x2="76" y1="38.2969" y2="549.2891"/><line style="stroke: #A80036; stroke-width: 1.0; stroke-dasharray: 5.0,5.0;" x1="202" x2="202" y1="38.2969" y2="549.2891"/><line style="stroke: #A80036; stroke-width: 1.0; stroke-dasharray: 5.0,5.0;" x1="341" x2="341" y1="38.2969" y2="549.2891"/><line style="stroke: #A80036; stroke-width: 1.0; stroke-dasharray: 5.0,5.0;" x1="475" x2="475" y1="38.2969" y2="549.2891"/><line style="stroke: #A80036; stroke-width: 1.0; stroke-dasharray: 5.0,5.0;" x1="638.5" x2="638.5" y1="38.2969" y2="549.2891"/><line style="stroke: #A80036; stroke-width: 1.0; stroke-dasharray: 5.0,5.0;" x1="815.5" x2="815.5" y1="38.2969" y2="549.2891"/><rect fill="#FEFECE" filter="url(#f12zvw0j36o0yz)" height="30.2969" style="stroke: #A80036; stroke-width: 1.5;" width="133" x="8" y="3"/><text fill="#000000" font-family="sans-serif" font-size="14" lengthAdjust="spacingAndGlyphs" textLength="119" x="15" y="22.9951">ShaderGenerator</text><rect fill="#FEFECE" filter="url(#f12zvw0j36o0yz)" height="30.2969" style="stroke: #A80036; stroke-width: 1.5;" width="91" x="155" y="3"/><text fill="#000000" font-family="sans-serif" font-size="14" lengthAdjust="spacingAndGlyphs" textLength="77" x="162" y="22.9951">SGScheme</text><rect fill="#FEFECE" filter="url(#f12zvw0j36o0yz)" height="30.2969" style="stroke: #A80036; stroke-width: 1.5;" width="99" x="290" y="3"/><text fill="#000000" font-family="sans-serif" font-size="14" lengthAdjust="spacingAndGlyphs" textLength="85" x="297" y="22.9951">SGTechniqe</text><rect fill="#FEFECE" filter="url(#f12zvw0j36o0yz)" height="30.2969" style="stroke: #A80036; stroke-width: 1.5;" width="67" x="440" y="3"/><text fill="#000000" font-family="sans-serif" font-size="14" lengthAdjust="spacingAndGlyphs" textLength="53" x="447" y="22.9951">SGPass</text><rect fill="#FEFECE" filter="url(#f12zvw0j36o0yz)" height="30.2969" style="stroke: #A80036; stroke-width: 1.5;" width="146" x="563.5" y="3"/><text fill="#000000" font-family="sans-serif" font-size="14" lengthAdjust="spacingAndGlyphs" textLength="132" x="570.5" y="22.9951">TargetRenderState</text><rect fill="#FEFECE" filter="url(#f12zvw0j36o0yz)" height="30.2969" style="stroke: #A80036; stroke-width: 1.5;" width="132" x="747.5" y="3"/><text fill="#000000" font-family="sans-serif" font-size="14" lengthAdjust="spacingAndGlyphs" textLength="118" x="754.5" y="22.9951">ProgramManager</text><rect fill="#FFFFFF" filter="url(#f12zvw0j36o0yz)" height="218.9297" style="stroke: #A80036; stroke-width: 1.0;" width="10" x="197.5" y="69.2969"/><rect fill="#FFFFFF" filter="url(#f12zvw0j36o0yz)" height="97.5313" style="stroke: #A80036; stroke-width: 1.0;" width="10" x="470.5" y="169.6953"/><rect fill="#FFFFFF" filter="url(#f12zvw0j36o0yz)" height="193.7969" style="stroke: #A80036; stroke-width: 1.0;" width="10" x="633.5" y="346.4922"/><rect fill="#FFFFFF" filter="url(#f12zvw0j36o0yz)" height="71.2656" style="stroke: #A80036; stroke-width: 1.0;" width="10" x="810.5" y="417.7578"/><polygon fill="#A80036" points="185.5,65.2969,195.5,69.2969,185.5,73.2969,189.5,69.2969" style="stroke: #A80036; stroke-width: 1.0;"/><line style="stroke: #A80036; stroke-width: 1.0;" x1="76.5" x2="191.5" y1="69.2969" y2="69.2969"/><text fill="#000000" font-family="sans-serif" font-size="13" lengthAdjust="spacingAndGlyphs" textLength="50" x="83.5" y="64.3638">validate</text><line style="stroke: #A80036; stroke-width: 1.0;" x1="207.5" x2="249.5" y1="98.5625" y2="98.5625"/><line style="stroke: #A80036; stroke-width: 1.0;" x1="249.5" x2="249.5" y1="98.5625" y2="111.5625"/><line style="stroke: #A80036; stroke-width: 1.0;" x1="208.5" x2="249.5" y1="111.5625" y2="111.5625"/><polygon fill="#A80036" points="218.5,107.5625,208.5,111.5625,218.5,115.5625,214.5,111.5625" style="stroke: #A80036; stroke-width: 1.0;"/><text fill="#000000" font-family="sans-serif" font-size="13" lengthAdjust="spacingAndGlyphs" textLength="96" x="214.5" y="93.4966">syncWithScene</text><polygon fill="#A80036" points="329.5,136.5625,339.5,140.5625,329.5,144.5625,333.5,140.5625" style="stroke: #A80036; stroke-width: 1.0;"/><line style="stroke: #A80036; stroke-width: 1.0;" x1="207.5" x2="335.5" y1="140.5625" y2="140.5625"/><text fill="#000000" font-family="sans-serif" font-size="13" lengthAdjust="spacingAndGlyphs" textLength="110" x="214.5" y="135.6294">buildRenderState</text><polygon fill="#A80036" points="458.5,165.6953,468.5,169.6953,458.5,173.6953,462.5,169.6953" style="stroke: #A80036; stroke-width: 1.0;"/><line style="stroke: #A80036; stroke-width: 1.0;" x1="341.5" x2="464.5" y1="169.6953" y2="169.6953"/><text fill="#000000" font-family="sans-serif" font-size="13" lengthAdjust="spacingAndGlyphs" textLength="110" x="348.5" y="164.7622">buildRenderState</text><polygon fill="#A80036" points="626.5,194.8281,636.5,198.8281,626.5,202.8281,630.5,198.8281" style="stroke: #A80036; stroke-width: 1.0;"/><line style="stroke: #A80036; stroke-width: 1.0;" x1="480.5" x2="632.5" y1="198.8281" y2="198.8281"/><text fill="#000000" font-family="sans-serif" font-size="13" lengthAdjust="spacingAndGlyphs" textLength="77" x="487.5" y="193.895">&lt;&lt; new &gt;&gt;</text><rect fill="none" height="46.2656" style="stroke: #000000; stroke-width: 2.0;" width="293.5" x="430" y="213.9609"/><polygon fill="#EEEEEE" points="430,213.9609,507,213.9609,507,220.9609,497,230.9609,430,230.9609,430,213.9609" style="stroke: #000000; stroke-width: 2.0;"/><text fill="#000000" font-family="sans-serif" font-size="13" font-weight="bold" lengthAdjust="spacingAndGlyphs" textLength="32" x="445" y="227.0278">loop</text><text fill="#000000" font-family="sans-serif" font-size="11" font-weight="bold" lengthAdjust="spacingAndGlyphs" textLength="129" x="522" y="226.1714">[globalRenderState]</text><polygon fill="#A80036" points="626.5,248.0938,636.5,252.0938,626.5,256.0938,630.5,252.0938" style="stroke: #A80036; stroke-width: 1.0;"/><line style="stroke: #A80036; stroke-width: 1.0;" x1="480.5" x2="632.5" y1="252.0938" y2="252.0938"/><text fill="#000000" font-family="sans-serif" font-size="13" lengthAdjust="spacingAndGlyphs" textLength="129" x="487.5" y="247.1606">addSubRenderState</text><polygon fill="#A80036" points="329.5,284.2266,339.5,288.2266,329.5,292.2266,333.5,288.2266" style="stroke: #A80036; stroke-width: 1.0;"/><line style="stroke: #A80036; stroke-width: 1.0;" x1="202.5" x2="335.5" y1="288.2266" y2="288.2266"/><text fill="#000000" font-family="sans-serif" font-size="13" lengthAdjust="spacingAndGlyphs" textLength="109" x="209.5" y="283.2935">acquirePrograms</text><polygon fill="#A80036" points="463.5,313.3594,473.5,317.3594,463.5,321.3594,467.5,317.3594" style="stroke: #A80036; stroke-width: 1.0;"/><line style="stroke: #A80036; stroke-width: 1.0;" x1="341.5" x2="469.5" y1="317.3594" y2="317.3594"/><text fill="#000000" font-family="sans-serif" font-size="13" lengthAdjust="spacingAndGlyphs" textLength="109" x="348.5" y="312.4263">acquirePrograms</text><polygon fill="#A80036" points="621.5,342.4922,631.5,346.4922,621.5,350.4922,625.5,346.4922" style="stroke: #A80036; stroke-width: 1.0;"/><line style="stroke: #A80036; stroke-width: 1.0;" x1="475.5" x2="627.5" y1="346.4922" y2="346.4922"/><text fill="#000000" font-family="sans-serif" font-size="13" lengthAdjust="spacingAndGlyphs" textLength="139" x="482.5" y="341.5591">acquirePrograms(dst)</text><line style="stroke: #A80036; stroke-width: 1.0;" x1="643.5" x2="685.5" y1="375.7578" y2="375.7578"/><line style="stroke: #A80036; stroke-width: 1.0;" x1="685.5" x2="685.5" y1="375.7578" y2="388.7578"/><line style="stroke: #A80036; stroke-width: 1.0;" x1="644.5" x2="685.5" y1="388.7578" y2="388.7578"/><polygon fill="#A80036" points="654.5,384.7578,644.5,388.7578,654.5,392.7578,650.5,388.7578" style="stroke: #A80036; stroke-width: 1.0;"/><text fill="#000000" font-family="sans-serif" font-size="13" lengthAdjust="spacingAndGlyphs" textLength="128" x="650.5" y="370.6919">createCpuPrograms</text><polygon fill="#A80036" points="798.5,413.7578,808.5,417.7578,798.5,421.7578,802.5,417.7578" style="stroke: #A80036; stroke-width: 1.0;"/><line style="stroke: #A80036; stroke-width: 1.0;" x1="643.5" x2="804.5" y1="417.7578" y2="417.7578"/><text fill="#000000" font-family="sans-serif" font-size="13" lengthAdjust="spacingAndGlyphs" textLength="129" x="650.5" y="412.8247">createGpuPrograms</text><line style="stroke: #A80036; stroke-width: 1.0;" x1="820.5" x2="862.5" y1="447.0234" y2="447.0234"/><line style="stroke: #A80036; stroke-width: 1.0;" x1="862.5" x2="862.5" y1="447.0234" y2="460.0234"/><line style="stroke: #A80036; stroke-width: 1.0;" x1="821.5" x2="862.5" y1="460.0234" y2="460.0234"/><polygon fill="#A80036" points="831.5,456.0234,821.5,460.0234,831.5,464.0234,827.5,460.0234" style="stroke: #A80036; stroke-width: 1.0;"/><text fill="#000000" font-family="sans-serif" font-size="13" lengthAdjust="spacingAndGlyphs" textLength="84" x="827.5" y="441.9575">hash(source)</text><polygon fill="#A80036" points="654.5,485.0234,644.5,489.0234,654.5,493.0234,650.5,489.0234" style="stroke: #A80036; stroke-width: 1.0;"/><line style="stroke: #A80036; stroke-width: 1.0; stroke-dasharray: 2.0,2.0;" x1="648.5" x2="814.5" y1="489.0234" y2="489.0234"/><text fill="#000000" font-family="sans-serif" font-size="13" lengthAdjust="spacingAndGlyphs" textLength="99" x="660.5" y="484.0903">GpuProgramPtr</text><line style="stroke: #A80036; stroke-width: 1.0;" x1="643.5" x2="685.5" y1="518.2891" y2="518.2891"/><line style="stroke: #A80036; stroke-width: 1.0;" x1="685.5" x2="685.5" y1="518.2891" y2="531.2891"/><line style="stroke: #A80036; stroke-width: 1.0;" x1="644.5" x2="685.5" y1="531.2891" y2="531.2891"/><polygon fill="#A80036" points="654.5,527.2891,644.5,531.2891,654.5,535.2891,650.5,531.2891" style="stroke: #A80036; stroke-width: 1.0;"/><text fill="#000000" font-family="sans-serif" font-size="13" lengthAdjust="spacingAndGlyphs" textLength="153" x="650.5" y="513.2231">bindUniformParameters</text></g></svg>