<?xml version="1.0" encoding="UTF-8" standalone="no"?>
<!DOCTYPE svg PUBLIC "-//W3C//DTD SVG 1.1//EN"
 "http://www.w3.org/Graphics/SVG/1.1/DTD/svg11.dtd">
<!-- Generated by graphviz version 2.43.0 (0)
 -->
<!-- Title: OgreBites::InputListener Pages: 1 -->
<svg width="342pt" height="204pt"
 viewBox="0.00 0.00 342.00 203.50" xmlns="http://www.w3.org/2000/svg" xmlns:xlink="http://www.w3.org/1999/xlink">
<g id="graph0" class="graph" transform="scale(1 1) rotate(0) translate(4 199.5)">
<title>OgreBites::InputListener</title>
<!-- Node1 -->
<g id="node1" class="node">
<title>Node1</title>
<g id="a_node1"><a xlink:title="the return values of the callbacks are ignored by ApplicationContext however they can be used to cont...">
<polygon fill="#bfbfbf" stroke="black" points="0,-88.5 0,-107.5 134,-107.5 134,-88.5 0,-88.5"/>
<text text-anchor="middle" x="67" y="-95.5" font-family="Helvetica,sans-Serif" font-size="10.00">OgreBites::InputListener</text>
</a>
</g>
</g>
<!-- Node2 -->
<g id="node2" class="node">
<title>Node2</title>
<g id="a_node2"><a xlink:href="class_ogre_bites_1_1_advanced_render_controls.html" target="_top" xlink:title=" ">
<polygon fill="none" stroke="black" points="175.5,-165 175.5,-195 328.5,-195 328.5,-165 175.5,-165"/>
<text text-anchor="start" x="183.5" y="-183" font-family="Helvetica,sans-Serif" font-size="10.00">OgreBites::AdvancedRender</text>
<text text-anchor="middle" x="252" y="-172" font-family="Helvetica,sans-Serif" font-size="10.00">Controls</text>
</a>
</g>
</g>
<!-- Node1&#45;&gt;Node2 -->
<g id="edge1" class="edge">
<title>Node1&#45;&gt;Node2</title>
<path fill="none" stroke="midnightblue" d="M91.23,-112.84C111.46,-125.31 141.86,-142.95 170,-155 178.39,-158.59 187.46,-161.91 196.4,-164.88"/>
<polygon fill="midnightblue" stroke="midnightblue" points="93.04,-109.85 82.7,-107.52 89.34,-115.79 93.04,-109.85"/>
</g>
<!-- Node3 -->
<g id="node3" class="node">
<title>Node3</title>
<g id="a_node3"><a xlink:href="class_ogre_bites_1_1_camera_man.html" target="_top" xlink:title="Utility class for controlling the camera in samples.">
<polygon fill="none" stroke="black" points="187,-126.5 187,-145.5 317,-145.5 317,-126.5 187,-126.5"/>
<text text-anchor="middle" x="252" y="-133.5" font-family="Helvetica,sans-Serif" font-size="10.00">OgreBites::CameraMan</text>
</a>
</g>
</g>
<!-- Node1&#45;&gt;Node3 -->
<g id="edge2" class="edge">
<title>Node1&#45;&gt;Node3</title>
<path fill="none" stroke="midnightblue" d="M124.25,-109.68C150.21,-115.07 180.62,-121.39 205.15,-126.48"/>
<polygon fill="midnightblue" stroke="midnightblue" points="124.68,-106.2 114.18,-107.59 123.26,-113.05 124.68,-106.2"/>
</g>
<!-- Node4 -->
<g id="node4" class="node">
<title>Node4</title>
<g id="a_node4"><a xlink:href="struct_ogre_bites_1_1_im_gui_input_listener.html" target="_top" xlink:title=" ">
<polygon fill="none" stroke="black" points="170,-88.5 170,-107.5 334,-107.5 334,-88.5 170,-88.5"/>
<text text-anchor="middle" x="252" y="-95.5" font-family="Helvetica,sans-Serif" font-size="10.00">OgreBites::ImGuiInputListener</text>
</a>
</g>
</g>
<!-- Node1&#45;&gt;Node4 -->
<g id="edge3" class="edge">
<title>Node1&#45;&gt;Node4</title>
<path fill="none" stroke="midnightblue" d="M144.23,-98C152.65,-98 161.24,-98 169.72,-98"/>
<polygon fill="midnightblue" stroke="midnightblue" points="144.07,-94.5 134.07,-98 144.07,-101.5 144.07,-94.5"/>
</g>
<!-- Node5 -->
<g id="node5" class="node">
<title>Node5</title>
<g id="a_node5"><a xlink:href="class_ogre_bites_1_1_input_listener_chain.html" target="_top" xlink:title="Chain of multiple InputListeners that acts as a single InputListener.">
<polygon fill="none" stroke="black" points="185,-39 185,-69 319,-69 319,-39 185,-39"/>
<text text-anchor="start" x="193" y="-57" font-family="Helvetica,sans-Serif" font-size="10.00">OgreBites::InputListener</text>
<text text-anchor="middle" x="252" y="-46" font-family="Helvetica,sans-Serif" font-size="10.00">Chain</text>
</a>
</g>
</g>
<!-- Node1&#45;&gt;Node5 -->
<g id="edge4" class="edge">
<title>Node1&#45;&gt;Node5</title>
<path fill="none" stroke="midnightblue" d="M117.72,-86.04C139.49,-80.81 165.28,-74.61 188.34,-69.07"/>
<polygon fill="midnightblue" stroke="midnightblue" points="116.61,-82.71 107.71,-88.45 118.25,-89.52 116.61,-82.71"/>
</g>
<!-- Node6 -->
<g id="node6" class="node">
<title>Node6</title>
<g id="a_node6"><a xlink:href="class_ogre_bites_1_1_tray_manager.html" target="_top" xlink:title="Main class to manage a cursor, backdrop, trays and widgets.">
<polygon fill="none" stroke="black" points="185,-0.5 185,-19.5 319,-19.5 319,-0.5 185,-0.5"/>
<text text-anchor="middle" x="252" y="-7.5" font-family="Helvetica,sans-Serif" font-size="10.00">OgreBites::TrayManager</text>
</a>
</g>
</g>
<!-- Node1&#45;&gt;Node6 -->
<g id="edge5" class="edge">
<title>Node1&#45;&gt;Node6</title>
<path fill="none" stroke="midnightblue" d="M87.35,-82.11C107.02,-66.69 138.95,-43.68 170,-30 179.68,-25.74 190.42,-22.28 200.84,-19.51"/>
<polygon fill="midnightblue" stroke="midnightblue" points="85.09,-79.43 79.46,-88.4 89.46,-84.9 85.09,-79.43"/>
</g>
</g>
</svg>
