<?xml version="1.0" encoding="UTF-8" standalone="no"?><svg xmlns="http://www.w3.org/2000/svg" xmlns:xlink="http://www.w3.org/1999/xlink" contentScriptType="application/ecmascript" contentStyleType="text/css" height="581px" preserveAspectRatio="none" style="width:1197px;height:581px;" version="1.1" viewBox="0 0 1197 581" width="1197px" zoomAndPan="magnify"><defs><filter height="300%" id="f1q1eliysbg5zm" width="300%" x="-1" y="-1"><feGaussianBlur result="blurOut" stdDeviation="2.0"/><feColorMatrix in="blurOut" result="blurOut2" type="matrix" values="0 0 0 0 0 0 0 0 0 0 0 0 0 0 0 0 0 0 .4 0"/><feOffset dx="4.0" dy="4.0" in="blurOut2" result="blurOut3"/><feBlend in="SourceGraphic" in2="blurOut3" mode="normal"/></filter></defs><g><!--cluster SceneManagement--><polygon fill="#FFFFFF" filter="url(#f1q1eliysbg5zm)" points="228,32,384,32,391,54.2969,719,54.2969,719,223,228,223,228,32" style="stroke: #000000; stroke-width: 2.0;"/><line style="stroke: #000000; stroke-width: 2.0;" x1="228" x2="391" y1="54.2969" y2="54.2969"/><text fill="#000000" font-family="sans-serif" font-size="14" font-weight="bold" lengthAdjust="spacingAndGlyphs" textLength="150" x="232" y="46.9951">SceneManagement</text><!--cluster Plugin1--><polygon fill="#DDDDDD" filter="url(#f1q1eliysbg5zm)" points="751,132,805,132,812,154.2969,951,154.2969,951,215,751,215,751,132" style="stroke: #000000; stroke-width: 2.0;"/><line style="stroke: #000000; stroke-width: 2.0;" x1="751" x2="812" y1="154.2969" y2="154.2969"/><text fill="#000000" font-family="sans-serif" font-size="14" font-weight="bold" lengthAdjust="spacingAndGlyphs" textLength="48" x="755" y="146.9951">Plugin</text><!--cluster Resource Management--><polygon fill="#FFFFFF" filter="url(#f1q1eliysbg5zm)" points="30,263,217,263,224,285.2969,586,285.2969,586,454,30,454,30,263" style="stroke: #000000; stroke-width: 2.0;"/><line style="stroke: #000000; stroke-width: 2.0;" x1="30" x2="224" y1="285.2969" y2="285.2969"/><text fill="#000000" font-family="sans-serif" font-size="14" font-weight="bold" lengthAdjust="spacingAndGlyphs" textLength="181" x="34" y="277.9951">Resource Management</text><!--cluster Plugin2--><polygon fill="#DDDDDD" filter="url(#f1q1eliysbg5zm)" points="23,486,77,486,84,508.2969,225,508.2969,225,569,23,569,23,486" style="stroke: #000000; stroke-width: 2.0;"/><line style="stroke: #000000; stroke-width: 2.0;" x1="23" x2="84" y1="508.2969" y2="508.2969"/><text fill="#000000" font-family="sans-serif" font-size="14" font-weight="bold" lengthAdjust="spacingAndGlyphs" textLength="48" x="27" y="500.9951">Plugin</text><!--cluster Rendering--><polygon fill="#FFFFFF" filter="url(#f1q1eliysbg5zm)" points="626,263,713,263,720,285.2969,1175,285.2969,1175,454,626,454,626,263" style="stroke: #000000; stroke-width: 2.0;"/><line style="stroke: #000000; stroke-width: 2.0;" x1="626" x2="720" y1="285.2969" y2="285.2969"/><text fill="#000000" font-family="sans-serif" font-size="14" font-weight="bold" lengthAdjust="spacingAndGlyphs" textLength="81" x="630" y="277.9951">Rendering</text><!--cluster Plugin3--><polygon fill="#DDDDDD" filter="url(#f1q1eliysbg5zm)" points="390,486,444,486,451,508.2969,689,508.2969,689,569,390,569,390,486" style="stroke: #000000; stroke-width: 2.0;"/><line style="stroke: #000000; stroke-width: 2.0;" x1="390" x2="451" y1="508.2969" y2="508.2969"/><text fill="#000000" font-family="sans-serif" font-size="14" font-weight="bold" lengthAdjust="spacingAndGlyphs" textLength="48" x="394" y="500.9951">Plugin</text><!--class MovableObject--><rect fill="#FEFECE" filter="url(#f1q1eliysbg5zm)" height="32" id="MovableObject" style="stroke: #A80036; stroke-width: 1.5;" width="123" x="271.5" y="75"/><ellipse cx="286.5" cy="91" fill="#ADD1B2" rx="11" ry="11" style="stroke: #A80036; stroke-width: 1.0;"/><path d="M289.4688,96.6406 Q288.8906,96.9375 288.25,97.0859 Q287.6094,97.2344 286.9063,97.2344 Q284.4063,97.2344 283.0859,95.5859 Q281.7656,93.9375 281.7656,90.8125 Q281.7656,87.6875 283.0859,86.0313 Q284.4063,84.375 286.9063,84.375 Q287.6094,84.375 288.2578,84.5313 Q288.9063,84.6875 289.4688,84.9844 L289.4688,87.7031 Q288.8438,87.125 288.25,86.8516 Q287.6563,86.5781 287.0313,86.5781 Q285.6875,86.5781 285,87.6484 Q284.3125,88.7188 284.3125,90.8125 Q284.3125,92.9063 285,93.9766 Q285.6875,95.0469 287.0313,95.0469 Q287.6563,95.0469 288.25,94.7734 Q288.8438,94.5 289.4688,93.9219 L289.4688,96.6406 Z "/><text fill="#000000" font-family="sans-serif" font-size="12" lengthAdjust="spacingAndGlyphs" textLength="91" x="300.5" y="95.1543">MovableObject</text><!--class Entity--><rect fill="#FEFECE" filter="url(#f1q1eliysbg5zm)" height="32" id="Entity" style="stroke: #A80036; stroke-width: 1.5;" width="67" x="368.5" y="167"/><ellipse cx="383.5" cy="183" fill="#ADD1B2" rx="11" ry="11" style="stroke: #A80036; stroke-width: 1.0;"/><path d="M386.4688,188.6406 Q385.8906,188.9375 385.25,189.0859 Q384.6094,189.2344 383.9063,189.2344 Q381.4063,189.2344 380.0859,187.5859 Q378.7656,185.9375 378.7656,182.8125 Q378.7656,179.6875 380.0859,178.0313 Q381.4063,176.375 383.9063,176.375 Q384.6094,176.375 385.2578,176.5313 Q385.9063,176.6875 386.4688,176.9844 L386.4688,179.7031 Q385.8438,179.125 385.25,178.8516 Q384.6563,178.5781 384.0313,178.5781 Q382.6875,178.5781 382,179.6484 Q381.3125,180.7188 381.3125,182.8125 Q381.3125,184.9063 382,185.9766 Q382.6875,187.0469 384.0313,187.0469 Q384.6563,187.0469 385.25,186.7734 Q385.8438,186.5 386.4688,185.9219 L386.4688,188.6406 Z "/><text fill="#000000" font-family="sans-serif" font-size="12" lengthAdjust="spacingAndGlyphs" textLength="35" x="397.5" y="187.1543">Entity</text><!--class Camera--><rect fill="#FEFECE" filter="url(#f1q1eliysbg5zm)" height="32" id="Camera" style="stroke: #A80036; stroke-width: 1.5;" width="80" x="471" y="167"/><ellipse cx="486" cy="183" fill="#ADD1B2" rx="11" ry="11" style="stroke: #A80036; stroke-width: 1.0;"/><path d="M488.9688,188.6406 Q488.3906,188.9375 487.75,189.0859 Q487.1094,189.2344 486.4063,189.2344 Q483.9063,189.2344 482.5859,187.5859 Q481.2656,185.9375 481.2656,182.8125 Q481.2656,179.6875 482.5859,178.0313 Q483.9063,176.375 486.4063,176.375 Q487.1094,176.375 487.7578,176.5313 Q488.4063,176.6875 488.9688,176.9844 L488.9688,179.7031 Q488.3438,179.125 487.75,178.8516 Q487.1563,178.5781 486.5313,178.5781 Q485.1875,178.5781 484.5,179.6484 Q483.8125,180.7188 483.8125,182.8125 Q483.8125,184.9063 484.5,185.9766 Q485.1875,187.0469 486.5313,187.0469 Q487.1563,187.0469 487.75,186.7734 Q488.3438,186.5 488.9688,185.9219 L488.9688,188.6406 Z "/><text fill="#000000" font-family="sans-serif" font-size="12" lengthAdjust="spacingAndGlyphs" textLength="48" x="500" y="187.1543">Camera</text><!--class Light--><rect fill="#FEFECE" filter="url(#f1q1eliysbg5zm)" height="32" id="Light" style="stroke: #A80036; stroke-width: 1.5;" width="62" x="271" y="167"/><ellipse cx="286" cy="183" fill="#ADD1B2" rx="11" ry="11" style="stroke: #A80036; stroke-width: 1.0;"/><path d="M288.9688,188.6406 Q288.3906,188.9375 287.75,189.0859 Q287.1094,189.2344 286.4063,189.2344 Q283.9063,189.2344 282.5859,187.5859 Q281.2656,185.9375 281.2656,182.8125 Q281.2656,179.6875 282.5859,178.0313 Q283.9063,176.375 286.4063,176.375 Q287.1094,176.375 287.7578,176.5313 Q288.4063,176.6875 288.9688,176.9844 L288.9688,179.7031 Q288.3438,179.125 287.75,178.8516 Q287.1563,178.5781 286.5313,178.5781 Q285.1875,178.5781 284.5,179.6484 Q283.8125,180.7188 283.8125,182.8125 Q283.8125,184.9063 284.5,185.9766 Q285.1875,187.0469 286.5313,187.0469 Q287.1563,187.0469 287.75,186.7734 Q288.3438,186.5 288.9688,185.9219 L288.9688,188.6406 Z "/><text fill="#000000" font-family="sans-serif" font-size="12" lengthAdjust="spacingAndGlyphs" textLength="30" x="300" y="187.1543">Light</text><!--class SceneNode--><rect fill="#FEFECE" filter="url(#f1q1eliysbg5zm)" height="32" id="SceneNode" style="stroke: #A80036; stroke-width: 1.5;" width="104" x="430" y="75"/><ellipse cx="445" cy="91" fill="#ADD1B2" rx="11" ry="11" style="stroke: #A80036; stroke-width: 1.0;"/><path d="M447.9688,96.6406 Q447.3906,96.9375 446.75,97.0859 Q446.1094,97.2344 445.4063,97.2344 Q442.9063,97.2344 441.5859,95.5859 Q440.2656,93.9375 440.2656,90.8125 Q440.2656,87.6875 441.5859,86.0313 Q442.9063,84.375 445.4063,84.375 Q446.1094,84.375 446.7578,84.5313 Q447.4063,84.6875 447.9688,84.9844 L447.9688,87.7031 Q447.3438,87.125 446.75,86.8516 Q446.1563,86.5781 445.5313,86.5781 Q444.1875,86.5781 443.5,87.6484 Q442.8125,88.7188 442.8125,90.8125 Q442.8125,92.9063 443.5,93.9766 Q444.1875,95.0469 445.5313,95.0469 Q446.1563,95.0469 446.75,94.7734 Q447.3438,94.5 447.9688,93.9219 L447.9688,96.6406 Z "/><text fill="#000000" font-family="sans-serif" font-size="12" lengthAdjust="spacingAndGlyphs" textLength="72" x="459" y="95.1543">SceneNode</text><!--class SceneManager--><rect fill="#FEFECE" filter="url(#f1q1eliysbg5zm)" height="32" id="SceneManager" style="stroke: #A80036; stroke-width: 1.5;" width="126" x="569" y="75"/><ellipse cx="584" cy="91" fill="#ADD1B2" rx="11" ry="11" style="stroke: #A80036; stroke-width: 1.0;"/><path d="M586.9688,96.6406 Q586.3906,96.9375 585.75,97.0859 Q585.1094,97.2344 584.4063,97.2344 Q581.9063,97.2344 580.5859,95.5859 Q579.2656,93.9375 579.2656,90.8125 Q579.2656,87.6875 580.5859,86.0313 Q581.9063,84.375 584.4063,84.375 Q585.1094,84.375 585.7578,84.5313 Q586.4063,84.6875 586.9688,84.9844 L586.9688,87.7031 Q586.3438,87.125 585.75,86.8516 Q585.1563,86.5781 584.5313,86.5781 Q583.1875,86.5781 582.5,87.6484 Q581.8125,88.7188 581.8125,90.8125 Q581.8125,92.9063 582.5,93.9766 Q583.1875,95.0469 584.5313,95.0469 Q585.1563,95.0469 585.75,94.7734 Q586.3438,94.5 586.9688,93.9219 L586.9688,96.6406 Z "/><text fill="#000000" font-family="sans-serif" font-size="12" lengthAdjust="spacingAndGlyphs" textLength="94" x="598" y="95.1543">SceneManager</text><!--class OctreeSceneManager--><rect fill="#FEFECE" filter="url(#f1q1eliysbg5zm)" height="32" id="OctreeSceneManager" style="stroke: #A80036; stroke-width: 1.5;" width="168" x="767" y="167"/><ellipse cx="782" cy="183" fill="#ADD1B2" rx="11" ry="11" style="stroke: #A80036; stroke-width: 1.0;"/><path d="M784.9688,188.6406 Q784.3906,188.9375 783.75,189.0859 Q783.1094,189.2344 782.4063,189.2344 Q779.9063,189.2344 778.5859,187.5859 Q777.2656,185.9375 777.2656,182.8125 Q777.2656,179.6875 778.5859,178.0313 Q779.9063,176.375 782.4063,176.375 Q783.1094,176.375 783.7578,176.5313 Q784.4063,176.6875 784.9688,176.9844 L784.9688,179.7031 Q784.3438,179.125 783.75,178.8516 Q783.1563,178.5781 782.5313,178.5781 Q781.1875,178.5781 780.5,179.6484 Q779.8125,180.7188 779.8125,182.8125 Q779.8125,184.9063 780.5,185.9766 Q781.1875,187.0469 782.5313,187.0469 Q783.1563,187.0469 783.75,186.7734 Q784.3438,186.5 784.9688,185.9219 L784.9688,188.6406 Z "/><text fill="#000000" font-family="sans-serif" font-size="12" lengthAdjust="spacingAndGlyphs" textLength="136" x="796" y="187.1543">OctreeSceneManager</text><!--class ResourceGroupManager--><rect fill="#FEFECE" filter="url(#f1q1eliysbg5zm)" height="32" id="ResourceGroupManager" style="stroke: #A80036; stroke-width: 1.5;" width="184" x="79" y="306"/><ellipse cx="94" cy="322" fill="#ADD1B2" rx="11" ry="11" style="stroke: #A80036; stroke-width: 1.0;"/><path d="M96.9688,327.6406 Q96.3906,327.9375 95.75,328.0859 Q95.1094,328.2344 94.4063,328.2344 Q91.9063,328.2344 90.5859,326.5859 Q89.2656,324.9375 89.2656,321.8125 Q89.2656,318.6875 90.5859,317.0313 Q91.9063,315.375 94.4063,315.375 Q95.1094,315.375 95.7578,315.5313 Q96.4063,315.6875 96.9688,315.9844 L96.9688,318.7031 Q96.3438,318.125 95.75,317.8516 Q95.1563,317.5781 94.5313,317.5781 Q93.1875,317.5781 92.5,318.6484 Q91.8125,319.7188 91.8125,321.8125 Q91.8125,323.9063 92.5,324.9766 Q93.1875,326.0469 94.5313,326.0469 Q95.1563,326.0469 95.75,325.7734 Q96.3438,325.5 96.9688,324.9219 L96.9688,327.6406 Z "/><text fill="#000000" font-family="sans-serif" font-size="12" lengthAdjust="spacingAndGlyphs" textLength="152" x="108" y="326.1543">ResourceGroupManager</text><!--class ResourceManager--><rect fill="#FEFECE" filter="url(#f1q1eliysbg5zm)" height="32" id="ResourceManager" style="stroke: #A80036; stroke-width: 1.5;" width="146" x="303" y="306"/><ellipse cx="318" cy="322" fill="#ADD1B2" rx="11" ry="11" style="stroke: #A80036; stroke-width: 1.0;"/><path d="M320.9688,327.6406 Q320.3906,327.9375 319.75,328.0859 Q319.1094,328.2344 318.4063,328.2344 Q315.9063,328.2344 314.5859,326.5859 Q313.2656,324.9375 313.2656,321.8125 Q313.2656,318.6875 314.5859,317.0313 Q315.9063,315.375 318.4063,315.375 Q319.1094,315.375 319.7578,315.5313 Q320.4063,315.6875 320.9688,315.9844 L320.9688,318.7031 Q320.3438,318.125 319.75,317.8516 Q319.1563,317.5781 318.5313,317.5781 Q317.1875,317.5781 316.5,318.6484 Q315.8125,319.7188 315.8125,321.8125 Q315.8125,323.9063 316.5,324.9766 Q317.1875,326.0469 318.5313,326.0469 Q319.1563,326.0469 319.75,325.7734 Q320.3438,325.5 320.9688,324.9219 L320.9688,327.6406 Z "/><text fill="#000000" font-family="sans-serif" font-size="12" lengthAdjust="spacingAndGlyphs" textLength="114" x="332" y="326.1543">ResourceManager</text><!--class ArchiveFactory--><rect fill="#FEFECE" filter="url(#f1q1eliysbg5zm)" height="32" id="ArchiveFactory" style="stroke: #A80036; stroke-width: 1.5;" width="123" x="62.5" y="398"/><ellipse cx="77.5" cy="414" fill="#ADD1B2" rx="11" ry="11" style="stroke: #A80036; stroke-width: 1.0;"/><path d="M80.4688,419.6406 Q79.8906,419.9375 79.25,420.0859 Q78.6094,420.2344 77.9063,420.2344 Q75.4063,420.2344 74.0859,418.5859 Q72.7656,416.9375 72.7656,413.8125 Q72.7656,410.6875 74.0859,409.0313 Q75.4063,407.375 77.9063,407.375 Q78.6094,407.375 79.2578,407.5313 Q79.9063,407.6875 80.4688,407.9844 L80.4688,410.7031 Q79.8438,410.125 79.25,409.8516 Q78.6563,409.5781 78.0313,409.5781 Q76.6875,409.5781 76,410.6484 Q75.3125,411.7188 75.3125,413.8125 Q75.3125,415.9063 76,416.9766 Q76.6875,418.0469 78.0313,418.0469 Q78.6563,418.0469 79.25,417.7734 Q79.8438,417.5 80.4688,416.9219 L80.4688,419.6406 Z "/><text fill="#000000" font-family="sans-serif" font-size="12" lengthAdjust="spacingAndGlyphs" textLength="91" x="91.5" y="418.1543">ArchiveFactory</text><!--class Mesh--><rect fill="#FEFECE" filter="url(#f1q1eliysbg5zm)" height="32" id="Mesh" style="stroke: #A80036; stroke-width: 1.5;" width="65" x="484.5" y="306"/><ellipse cx="499.5" cy="322" fill="#ADD1B2" rx="11" ry="11" style="stroke: #A80036; stroke-width: 1.0;"/><path d="M502.4688,327.6406 Q501.8906,327.9375 501.25,328.0859 Q500.6094,328.2344 499.9063,328.2344 Q497.4063,328.2344 496.0859,326.5859 Q494.7656,324.9375 494.7656,321.8125 Q494.7656,318.6875 496.0859,317.0313 Q497.4063,315.375 499.9063,315.375 Q500.6094,315.375 501.2578,315.5313 Q501.9063,315.6875 502.4688,315.9844 L502.4688,318.7031 Q501.8438,318.125 501.25,317.8516 Q500.6563,317.5781 500.0313,317.5781 Q498.6875,317.5781 498,318.6484 Q497.3125,319.7188 497.3125,321.8125 Q497.3125,323.9063 498,324.9766 Q498.6875,326.0469 500.0313,326.0469 Q500.6563,326.0469 501.25,325.7734 Q501.8438,325.5 502.4688,324.9219 L502.4688,327.6406 Z "/><text fill="#000000" font-family="sans-serif" font-size="12" lengthAdjust="spacingAndGlyphs" textLength="33" x="513.5" y="326.1543">Mesh</text><!--class Material--><rect fill="#FEFECE" filter="url(#f1q1eliysbg5zm)" height="32" id="Material" style="stroke: #A80036; stroke-width: 1.5;" width="82" x="335" y="398"/><ellipse cx="350" cy="414" fill="#ADD1B2" rx="11" ry="11" style="stroke: #A80036; stroke-width: 1.0;"/><path d="M352.9688,419.6406 Q352.3906,419.9375 351.75,420.0859 Q351.1094,420.2344 350.4063,420.2344 Q347.9063,420.2344 346.5859,418.5859 Q345.2656,416.9375 345.2656,413.8125 Q345.2656,410.6875 346.5859,409.0313 Q347.9063,407.375 350.4063,407.375 Q351.1094,407.375 351.7578,407.5313 Q352.4063,407.6875 352.9688,407.9844 L352.9688,410.7031 Q352.3438,410.125 351.75,409.8516 Q351.1563,409.5781 350.5313,409.5781 Q349.1875,409.5781 348.5,410.6484 Q347.8125,411.7188 347.8125,413.8125 Q347.8125,415.9063 348.5,416.9766 Q349.1875,418.0469 350.5313,418.0469 Q351.1563,418.0469 351.75,417.7734 Q352.3438,417.5 352.9688,416.9219 L352.9688,419.6406 Z "/><text fill="#000000" font-family="sans-serif" font-size="12" lengthAdjust="spacingAndGlyphs" textLength="50" x="364" y="418.1543">Material</text><!--class GpuProgram--><rect fill="#FEFECE" filter="url(#f1q1eliysbg5zm)" height="32" id="GpuProgram" style="stroke: #A80036; stroke-width: 1.5;" width="110" x="452" y="398"/><ellipse cx="467" cy="414" fill="#ADD1B2" rx="11" ry="11" style="stroke: #A80036; stroke-width: 1.0;"/><path d="M469.9688,419.6406 Q469.3906,419.9375 468.75,420.0859 Q468.1094,420.2344 467.4063,420.2344 Q464.9063,420.2344 463.5859,418.5859 Q462.2656,416.9375 462.2656,413.8125 Q462.2656,410.6875 463.5859,409.0313 Q464.9063,407.375 467.4063,407.375 Q468.1094,407.375 468.7578,407.5313 Q469.4063,407.6875 469.9688,407.9844 L469.9688,410.7031 Q469.3438,410.125 468.75,409.8516 Q468.1563,409.5781 467.5313,409.5781 Q466.1875,409.5781 465.5,410.6484 Q464.8125,411.7188 464.8125,413.8125 Q464.8125,415.9063 465.5,416.9766 Q466.1875,418.0469 467.5313,418.0469 Q468.1563,418.0469 468.75,417.7734 Q469.3438,417.5 469.9688,416.9219 L469.9688,419.6406 Z "/><text fill="#000000" font-family="sans-serif" font-size="12" lengthAdjust="spacingAndGlyphs" textLength="78" x="481" y="418.1543">GpuProgram</text><!--class Texture--><rect fill="#FEFECE" filter="url(#f1q1eliysbg5zm)" height="32" id="Texture" style="stroke: #A80036; stroke-width: 1.5;" width="79" x="220.5" y="398"/><ellipse cx="235.5" cy="414" fill="#ADD1B2" rx="11" ry="11" style="stroke: #A80036; stroke-width: 1.0;"/><path d="M238.4688,419.6406 Q237.8906,419.9375 237.25,420.0859 Q236.6094,420.2344 235.9063,420.2344 Q233.4063,420.2344 232.0859,418.5859 Q230.7656,416.9375 230.7656,413.8125 Q230.7656,410.6875 232.0859,409.0313 Q233.4063,407.375 235.9063,407.375 Q236.6094,407.375 237.2578,407.5313 Q237.9063,407.6875 238.4688,407.9844 L238.4688,410.7031 Q237.8438,410.125 237.25,409.8516 Q236.6563,409.5781 236.0313,409.5781 Q234.6875,409.5781 234,410.6484 Q233.3125,411.7188 233.3125,413.8125 Q233.3125,415.9063 234,416.9766 Q234.6875,418.0469 236.0313,418.0469 Q236.6563,418.0469 237.25,417.7734 Q237.8438,417.5 238.4688,416.9219 L238.4688,419.6406 Z "/><text fill="#000000" font-family="sans-serif" font-size="12" lengthAdjust="spacingAndGlyphs" textLength="47" x="249.5" y="418.1543">Texture</text><!--class CustomArchiveFactory--><rect fill="#FEFECE" filter="url(#f1q1eliysbg5zm)" height="32" id="CustomArchiveFactory" style="stroke: #A80036; stroke-width: 1.5;" width="170" x="39" y="521"/><ellipse cx="54" cy="537" fill="#ADD1B2" rx="11" ry="11" style="stroke: #A80036; stroke-width: 1.0;"/><path d="M56.9688,542.6406 Q56.3906,542.9375 55.75,543.0859 Q55.1094,543.2344 54.4063,543.2344 Q51.9063,543.2344 50.5859,541.5859 Q49.2656,539.9375 49.2656,536.8125 Q49.2656,533.6875 50.5859,532.0313 Q51.9063,530.375 54.4063,530.375 Q55.1094,530.375 55.7578,530.5313 Q56.4063,530.6875 56.9688,530.9844 L56.9688,533.7031 Q56.3438,533.125 55.75,532.8516 Q55.1563,532.5781 54.5313,532.5781 Q53.1875,532.5781 52.5,533.6484 Q51.8125,534.7188 51.8125,536.8125 Q51.8125,538.9063 52.5,539.9766 Q53.1875,541.0469 54.5313,541.0469 Q55.1563,541.0469 55.75,540.7734 Q56.3438,540.5 56.9688,539.9219 L56.9688,542.6406 Z "/><text fill="#000000" font-family="sans-serif" font-size="12" lengthAdjust="spacingAndGlyphs" textLength="138" x="68" y="541.1543">CustomArchiveFactory</text><!--class RenderWindow--><rect fill="#FEFECE" filter="url(#f1q1eliysbg5zm)" height="32" id="RenderWindow" style="stroke: #A80036; stroke-width: 1.5;" width="124" x="1027" y="306"/><ellipse cx="1042" cy="322" fill="#ADD1B2" rx="11" ry="11" style="stroke: #A80036; stroke-width: 1.0;"/><path d="M1044.9688,327.6406 Q1044.3906,327.9375 1043.75,328.0859 Q1043.1094,328.2344 1042.4063,328.2344 Q1039.9063,328.2344 1038.5859,326.5859 Q1037.2656,324.9375 1037.2656,321.8125 Q1037.2656,318.6875 1038.5859,317.0313 Q1039.9063,315.375 1042.4063,315.375 Q1043.1094,315.375 1043.7578,315.5313 Q1044.4063,315.6875 1044.9688,315.9844 L1044.9688,318.7031 Q1044.3438,318.125 1043.75,317.8516 Q1043.1563,317.5781 1042.5313,317.5781 Q1041.1875,317.5781 1040.5,318.6484 Q1039.8125,319.7188 1039.8125,321.8125 Q1039.8125,323.9063 1040.5,324.9766 Q1041.1875,326.0469 1042.5313,326.0469 Q1043.1563,326.0469 1043.75,325.7734 Q1044.3438,325.5 1044.9688,324.9219 L1044.9688,327.6406 Z "/><text fill="#000000" font-family="sans-serif" font-size="12" lengthAdjust="spacingAndGlyphs" textLength="92" x="1056" y="326.1543">RenderWindow</text><!--class Renderable--><rect fill="#FEFECE" filter="url(#f1q1eliysbg5zm)" height="32" id="Renderable" style="stroke: #A80036; stroke-width: 1.5;" width="104" x="888" y="306"/><ellipse cx="903" cy="322" fill="#ADD1B2" rx="11" ry="11" style="stroke: #A80036; stroke-width: 1.0;"/><path d="M905.9688,327.6406 Q905.3906,327.9375 904.75,328.0859 Q904.1094,328.2344 903.4063,328.2344 Q900.9063,328.2344 899.5859,326.5859 Q898.2656,324.9375 898.2656,321.8125 Q898.2656,318.6875 899.5859,317.0313 Q900.9063,315.375 903.4063,315.375 Q904.1094,315.375 904.7578,315.5313 Q905.4063,315.6875 905.9688,315.9844 L905.9688,318.7031 Q905.3438,318.125 904.75,317.8516 Q904.1563,317.5781 903.5313,317.5781 Q902.1875,317.5781 901.5,318.6484 Q900.8125,319.7188 900.8125,321.8125 Q900.8125,323.9063 901.5,324.9766 Q902.1875,326.0469 903.5313,326.0469 Q904.1563,326.0469 904.75,325.7734 Q905.3438,325.5 905.9688,324.9219 L905.9688,327.6406 Z "/><text fill="#000000" font-family="sans-serif" font-size="12" lengthAdjust="spacingAndGlyphs" textLength="72" x="917" y="326.1543">Renderable</text><!--class RenderSystem--><rect fill="#FEFECE" filter="url(#f1q1eliysbg5zm)" height="32" id="RenderSystem" style="stroke: #A80036; stroke-width: 1.5;" width="122" x="684" y="398"/><ellipse cx="699" cy="414" fill="#ADD1B2" rx="11" ry="11" style="stroke: #A80036; stroke-width: 1.0;"/><path d="M701.9688,419.6406 Q701.3906,419.9375 700.75,420.0859 Q700.1094,420.2344 699.4063,420.2344 Q696.9063,420.2344 695.5859,418.5859 Q694.2656,416.9375 694.2656,413.8125 Q694.2656,410.6875 695.5859,409.0313 Q696.9063,407.375 699.4063,407.375 Q700.1094,407.375 700.7578,407.5313 Q701.4063,407.6875 701.9688,407.9844 L701.9688,410.7031 Q701.3438,410.125 700.75,409.8516 Q700.1563,409.5781 699.5313,409.5781 Q698.1875,409.5781 697.5,410.6484 Q696.8125,411.7188 696.8125,413.8125 Q696.8125,415.9063 697.5,416.9766 Q698.1875,418.0469 699.5313,418.0469 Q700.1563,418.0469 700.75,417.7734 Q701.3438,417.5 701.9688,416.9219 L701.9688,419.6406 Z "/><text fill="#000000" font-family="sans-serif" font-size="12" lengthAdjust="spacingAndGlyphs" textLength="90" x="713" y="418.1543">RenderSystem</text><!--class HardwareBufferManager--><rect fill="#FEFECE" filter="url(#f1q1eliysbg5zm)" height="32" id="HardwareBufferManager" style="stroke: #A80036; stroke-width: 1.5;" width="184" x="669" y="306"/><ellipse cx="684" cy="322" fill="#ADD1B2" rx="11" ry="11" style="stroke: #A80036; stroke-width: 1.0;"/><path d="M686.9688,327.6406 Q686.3906,327.9375 685.75,328.0859 Q685.1094,328.2344 684.4063,328.2344 Q681.9063,328.2344 680.5859,326.5859 Q679.2656,324.9375 679.2656,321.8125 Q679.2656,318.6875 680.5859,317.0313 Q681.9063,315.375 684.4063,315.375 Q685.1094,315.375 685.7578,315.5313 Q686.4063,315.6875 686.9688,315.9844 L686.9688,318.7031 Q686.3438,318.125 685.75,317.8516 Q685.1563,317.5781 684.5313,317.5781 Q683.1875,317.5781 682.5,318.6484 Q681.8125,319.7188 681.8125,321.8125 Q681.8125,323.9063 682.5,324.9766 Q683.1875,326.0469 684.5313,326.0469 Q685.1563,326.0469 685.75,325.7734 Q686.3438,325.5 686.9688,324.9219 L686.9688,327.6406 Z "/><text fill="#000000" font-family="sans-serif" font-size="12" lengthAdjust="spacingAndGlyphs" textLength="152" x="698" y="326.1543">HardwareBufferManager</text><!--class GLTexture--><rect fill="#FEFECE" filter="url(#f1q1eliysbg5zm)" height="32" id="GLTexture" style="stroke: #A80036; stroke-width: 1.5;" width="94" x="406" y="521"/><ellipse cx="421" cy="537" fill="#ADD1B2" rx="11" ry="11" style="stroke: #A80036; stroke-width: 1.0;"/><path d="M423.9688,542.6406 Q423.3906,542.9375 422.75,543.0859 Q422.1094,543.2344 421.4063,543.2344 Q418.9063,543.2344 417.5859,541.5859 Q416.2656,539.9375 416.2656,536.8125 Q416.2656,533.6875 417.5859,532.0313 Q418.9063,530.375 421.4063,530.375 Q422.1094,530.375 422.7578,530.5313 Q423.4063,530.6875 423.9688,530.9844 L423.9688,533.7031 Q423.3438,533.125 422.75,532.8516 Q422.1563,532.5781 421.5313,532.5781 Q420.1875,532.5781 419.5,533.6484 Q418.8125,534.7188 418.8125,536.8125 Q418.8125,538.9063 419.5,539.9766 Q420.1875,541.0469 421.5313,541.0469 Q422.1563,541.0469 422.75,540.7734 Q423.3438,540.5 423.9688,539.9219 L423.9688,542.6406 Z "/><text fill="#000000" font-family="sans-serif" font-size="12" lengthAdjust="spacingAndGlyphs" textLength="62" x="435" y="541.1543">GLTexture</text><!--class GLRenderSystem--><rect fill="#FEFECE" filter="url(#f1q1eliysbg5zm)" height="32" id="GLRenderSystem" style="stroke: #A80036; stroke-width: 1.5;" width="137" x="535.5" y="521"/><ellipse cx="550.5" cy="537" fill="#ADD1B2" rx="11" ry="11" style="stroke: #A80036; stroke-width: 1.0;"/><path d="M553.4688,542.6406 Q552.8906,542.9375 552.25,543.0859 Q551.6094,543.2344 550.9063,543.2344 Q548.4063,543.2344 547.0859,541.5859 Q545.7656,539.9375 545.7656,536.8125 Q545.7656,533.6875 547.0859,532.0313 Q548.4063,530.375 550.9063,530.375 Q551.6094,530.375 552.2578,530.5313 Q552.9063,530.6875 553.4688,530.9844 L553.4688,533.7031 Q552.8438,533.125 552.25,532.8516 Q551.6563,532.5781 551.0313,532.5781 Q549.6875,532.5781 549,533.6484 Q548.3125,534.7188 548.3125,536.8125 Q548.3125,538.9063 549,539.9766 Q549.6875,541.0469 551.0313,541.0469 Q551.6563,541.0469 552.25,540.7734 Q552.8438,540.5 553.4688,539.9219 L553.4688,542.6406 Z "/><text fill="#000000" font-family="sans-serif" font-size="12" lengthAdjust="spacingAndGlyphs" textLength="105" x="564.5" y="541.1543">GLRenderSystem</text><!--class Root--><rect fill="#FEFECE" filter="url(#f1q1eliysbg5zm)" height="32" id="Root" style="stroke: #A80036; stroke-width: 1.5;" width="61" x="139.5" y="75"/><ellipse cx="154.5" cy="91" fill="#ADD1B2" rx="11" ry="11" style="stroke: #A80036; stroke-width: 1.0;"/><path d="M157.4688,96.6406 Q156.8906,96.9375 156.25,97.0859 Q155.6094,97.2344 154.9063,97.2344 Q152.4063,97.2344 151.0859,95.5859 Q149.7656,93.9375 149.7656,90.8125 Q149.7656,87.6875 151.0859,86.0313 Q152.4063,84.375 154.9063,84.375 Q155.6094,84.375 156.2578,84.5313 Q156.9063,84.6875 157.4688,84.9844 L157.4688,87.7031 Q156.8438,87.125 156.25,86.8516 Q155.6563,86.5781 155.0313,86.5781 Q153.6875,86.5781 153,87.6484 Q152.3125,88.7188 152.3125,90.8125 Q152.3125,92.9063 153,93.9766 Q153.6875,95.0469 155.0313,95.0469 Q155.6563,95.0469 156.25,94.7734 Q156.8438,94.5 157.4688,93.9219 L157.4688,96.6406 Z "/><text fill="#000000" font-family="sans-serif" font-size="12" lengthAdjust="spacingAndGlyphs" textLength="29" x="168.5" y="95.1543">Root</text><!--link MovableObject to Entity--><path d="M356.927,123.209 C368.288,138.028 381.342,155.055 390.468,166.958 " fill="none" id="MovableObject-Entity" style="stroke: #A80036; stroke-width: 1.0;"/><polygon fill="none" points="351.318,127.398,344.705,107.267,362.429,118.88,351.318,127.398" style="stroke: #A80036; stroke-width: 1.0;"/><!--link MovableObject to Camera--><path d="M414.218,110.373 C430.798,114.883 445.475,119.661 453,124 C471.999,134.954 489.128,153.718 499.763,166.931 " fill="none" id="MovableObject-Camera" style="stroke: #A80036; stroke-width: 1.0;"/><polygon fill="none" points="412.218,117.087,394.584,105.338,415.696,103.526,412.218,117.087" style="stroke: #A80036; stroke-width: 1.0;"/><!--link MovableObject to Light--><path d="M321.073,126.627 C316.264,140.589 310.969,155.961 307.181,166.958 " fill="none" id="MovableObject-Light" style="stroke: #A80036; stroke-width: 1.0;"/><polygon fill="none" points="314.609,123.897,327.741,107.267,327.846,128.457,314.609,123.897" style="stroke: #A80036; stroke-width: 1.0;"/><!--link SceneManager to OctreeSceneManager--><path d="M688.066,114.647 C695.775,117.779 703.586,120.963 711,124 C746.3,138.461 786.526,155.148 814.773,166.9 " fill="none" id="SceneManager-OctreeSceneManager" style="stroke: #A80036; stroke-width: 1.0;"/><polygon fill="none" points="685.303,121.08,669.398,107.078,690.563,108.105,685.303,121.08" style="stroke: #A80036; stroke-width: 1.0;"/><!--link ArchiveFactory to CustomArchiveFactory--><path d="M124,450.655 C124,473.996 124,503.3085 124,520.7997 " fill="none" id="ArchiveFactory-CustomArchiveFactory" style="stroke: #A80036; stroke-width: 1.0;"/><polygon fill="none" points="117,450.325,124,430.325,131,450.325,117,450.325" style="stroke: #A80036; stroke-width: 1.0;"/><!--link Texture to GLTexture--><path d="M287.323,444.765 C296.262,453.537 306.584,462.725 317,470 C347.445,491.2643 385.784,509.1856 413.989,520.9629 " fill="none" id="Texture-GLTexture" style="stroke: #A80036; stroke-width: 1.0;"/><polygon fill="none" points="282.276,449.616,273.411,430.37,292.343,439.887,282.276,449.616" style="stroke: #A80036; stroke-width: 1.0;"/><!--link RenderSystem to GLRenderSystem--><path d="M711.974,443.341 C683.806,467.514 644.386,501.3429 621.794,520.7299 " fill="none" id="RenderSystem-GLRenderSystem" style="stroke: #A80036; stroke-width: 1.0;"/><polygon fill="none" points="707.691,437.793,727.427,430.08,716.808,448.417,707.691,437.793" style="stroke: #A80036; stroke-width: 1.0;"/><!--link Root to SceneManagement--><!--link Light to Rendering--><!--link Light to Resource Management--><!--link ResourceGroupManager to Texture--><!--link ResourceGroupManager to ArchiveFactory--><!--link HardwareBufferManager to RenderSystem--><!--link ResourceManager to Mesh--><!--link ResourceManager to Material--><!--link Material to GpuProgram--><!--
@startuml
'left to right direction
hide members
hide methods
class Root
package SceneManagement {
    MovableObject <|- - Entity
    MovableObject <|- - Camera
    MovableObject <|- - Light
    class SceneNode
    class SceneManager
}
package Plugin as Plugin1 #DDD {
    SceneManager <|- - OctreeSceneManager
}
package "Resource Management" {
    class ResourceGroupManager
    class ResourceManager
    class ArchiveFactory
    class Mesh
    class Material
    class GpuProgram
    class Texture
}
package Plugin as Plugin2 #DDD {
    ArchiveFactory <|-down- CustomArchiveFactory
}
package Rendering {
    class RenderWindow
    class Renderable
    class RenderSystem
    class HardwareBufferManager
}
package Plugin as Plugin3 #DDD {
    Texture <|- - GLTexture
    RenderSystem <|- - GLRenderSystem
}

'some dummy connection to get the desired layout
Root -right[hidden]- SceneManagement
Light -down[hidden]- Rendering
Light -down[hidden] "Resource Management"
ResourceGroupManager -down[hidden]- Texture
ResourceGroupManager -down[hidden]- ArchiveFactory
HardwareBufferManager -down[hidden]- RenderSystem
@enduml 

PlantUML version 1.2017.15(Mon Jul 03 18:45:34 CEST 2017)
(GPL source distribution)
Java Runtime: OpenJDK Runtime Environment
JVM: OpenJDK 64-Bit Server VM
Java Version: 1.8.0_131-8u131-b11-2ubuntu1.16.04.3-b11
Operating System: Linux
OS Version: 4.10.0-32-generic
Default Encoding: UTF-8
Language: de
Country: DE
--></g></svg>